<svg class="main-svg" xmlns="http://www.w3.org/2000/svg" xmlns:xlink="http://www.w3.org/1999/xlink" width="700" height="500" style="" viewBox="0 0 700 500"><rect x="0" y="0" width="700" height="500" style="fill: rgb(255, 255, 255); fill-opacity: 1;"/><defs id="defs-4d6a9e"><g class="clips"><clipPath id="clip4d6a9exyplot" class="plotclip"><rect width="540" height="320"/></clipPath><clipPath class="axesclip" id="clip4d6a9ex"><rect x="80" y="0" width="540" height="500"/></clipPath><clipPath class="axesclip" id="clip4d6a9ey"><rect x="0" y="100" width="700" height="320"/></clipPath><clipPath class="axesclip" id="clip4d6a9exy"><rect x="80" y="100" width="540" height="320"/></clipPath></g><g class="gradients"/><g class="patterns"/></defs><g class="bglayer"><rect class="bg" x="80" y="100" width="540" height="320" style="fill: rgb(229, 236, 246); fill-opacity: 1; stroke-width: 0;"/></g><g class="layer-below"><g class="imagelayer"/><g class="shapelayer"/></g><g class="cartesianlayer"><g class="subplot xy"><g class="layer-subplot"><g class="shapelayer"/><g class="imagelayer"/></g><g class="gridlayer"><g class="x"><path class="xgrid crisp" transform="translate(190.2,0)" d="M0,100v320" style="stroke: rgb(255, 255, 255); stroke-opacity: 1; stroke-width: 1px;"/><path class="xgrid crisp" transform="translate(300.40999999999997,0)" d="M0,100v320" style="stroke: rgb(255, 255, 255); stroke-opacity: 1; stroke-width: 1px;"/><path class="xgrid crisp" transform="translate(410.61,0)" d="M0,100v320" style="stroke: rgb(255, 255, 255); stroke-opacity: 1; stroke-width: 1px;"/><path class="xgrid crisp" transform="translate(520.8199999999999,0)" d="M0,100v320" style="stroke: rgb(255, 255, 255); stroke-opacity: 1; stroke-width: 1px;"/></g><g class="y"><path class="ygrid crisp" transform="translate(0,404.78)" d="M80,0h540" style="stroke: rgb(255, 255, 255); stroke-opacity: 1; stroke-width: 1px;"/><path class="ygrid crisp" transform="translate(0,358.32)" d="M80,0h540" style="stroke: rgb(255, 255, 255); stroke-opacity: 1; stroke-width: 1px;"/><path class="ygrid crisp" transform="translate(0,311.87)" d="M80,0h540" style="stroke: rgb(255, 255, 255); stroke-opacity: 1; stroke-width: 1px;"/><path class="ygrid crisp" transform="translate(0,265.41999999999996)" d="M80,0h540" style="stroke: rgb(255, 255, 255); stroke-opacity: 1; stroke-width: 1px;"/><path class="ygrid crisp" transform="translate(0,218.95999999999998)" d="M80,0h540" style="stroke: rgb(255, 255, 255); stroke-opacity: 1; stroke-width: 1px;"/><path class="ygrid crisp" transform="translate(0,172.51)" d="M80,0h540" style="stroke: rgb(255, 255, 255); stroke-opacity: 1; stroke-width: 1px;"/><path class="ygrid crisp" transform="translate(0,126.05)" d="M80,0h540" style="stroke: rgb(255, 255, 255); stroke-opacity: 1; stroke-width: 1px;"/></g></g><g class="zerolinelayer"><path class="xzl zl crisp" transform="translate(80,0)" d="M0,100v320" style="stroke: rgb(255, 255, 255); stroke-opacity: 1; stroke-width: 2px;"/></g><path class="xlines-below"/><path class="ylines-below"/><g class="overlines-below"/><g class="xaxislayer-below"/><g class="yaxislayer-below"/><g class="overaxes-below"/><g class="plot" transform="translate(80,100)" clip-path="url(#clip4d6a9exyplot)"><g class="scatterlayer mlayer"><g class="trace scatter trace334f19" style="stroke-miterlimit: 2; opacity: 1;"><g class="fills"/><g class="errorbars"/><g class="lines"><path class="js-line" d="M0,2.4L11.02,22.39L22.04,27.49L33.06,30.34L44.08,31.41L55.1,33.43L66.12,36.37L88.16,55.94L99.18,61.93L110.2,64.58L121.22,69.3L132.24,78.59L143.27,94.87L165.31,109.4L176.33,113.28L198.37,119.41L209.39,120.81L220.41,124.1L231.43,134.54L242.45,135.02L253.47,145.75L275.51,159.89L286.53,165.63L330.61,195.6L341.63,203.46L363.67,218.49L374.69,225.64L396.73,239.83L407.76,247.84L418.78,255.28L429.8,261.78L440.82,268.06L451.84,268.93L462.86,272.38L473.88,274.91L540,286.05" style="vector-effect: non-scaling-stroke; fill: none; stroke: rgb(99, 110, 250); stroke-opacity: 1; stroke-width: 2px; opacity: 1;"/></g><g class="points"/><g class="text"/></g><g class="trace scatter trace0f0fcf" style="stroke-miterlimit: 2; opacity: 1;"><g class="fills"/><g class="errorbars"/><g class="lines"><path class="js-line" d="M0,0.52L11.02,20.78L22.04,27.11L44.08,32.51L55.1,33.06L66.12,34.43L77.14,34.6L110.2,35.54L121.22,38.44L143.27,56.59L154.29,60.89L176.33,66.38L187.35,66.55L198.37,66.94L209.39,68.15L220.41,69.27L231.43,72.12L253.47,78.68L264.49,82.68L275.51,85.39L286.53,90.41L297.55,92.23L308.57,96.39L330.61,104.77L341.63,107.92L363.67,116.51L374.69,123.34L385.71,129.16L396.73,133.78L418.78,145.16L429.8,150.7L440.82,154.15L451.84,156.35L473.88,160.86L484.9,162.24L528.98,169.37L540,170.62" style="vector-effect: non-scaling-stroke; fill: none; stroke: rgb(239, 85, 59); stroke-opacity: 1; stroke-width: 2px; opacity: 1;"/></g><g class="points"/><g class="text"/></g><g class="trace scatter tracea4fa5d" style="stroke-miterlimit: 2; opacity: 1;"><g class="fills"/><g class="errorbars"/><g class="lines"><path class="js-line" d="M0,0.53L11.02,20.96L22.04,26.81L33.06,29.97L44.08,31.81L66.12,34.12L77.14,34.85L110.2,35.44L121.22,34.57L176.33,34.53L187.35,33.3L220.41,32.03L231.43,32.82L286.53,41.29L297.55,43.61L385.71,58.44L396.73,60.44L440.82,68.18L451.84,69.25L540,76.22" style="vector-effect: non-scaling-stroke; fill: none; stroke: rgb(0, 204, 150); stroke-opacity: 1; stroke-width: 2px; opacity: 1;"/></g><g class="points"/><g class="text"/></g><g class="trace scatter trace26c8d6" style="stroke-miterlimit: 2; opacity: 1;"><g class="fills"/><g class="errorbars"/><g class="lines"><path class="js-line" d="M0,0.85L11.02,21.02L22.04,27.02L33.06,29.93L44.08,32L66.12,34.14L77.14,34.21L110.2,35.12L121.22,34.26L143.27,34.41L154.29,33.62L176.33,33.94L187.35,32.3L198.37,32.69L209.39,31.59L220.41,32.52L231.43,31.86L264.49,37.28L275.51,38.58L297.55,42.55L308.57,44.57L341.63,50.47L352.65,52.01L440.82,67.19L451.84,68.09L540,73.82" style="vector-effect: non-scaling-stroke; fill: none; stroke: rgb(171, 99, 250); stroke-opacity: 1; stroke-width: 2px; opacity: 1;"/></g><g class="points"/><g class="text"/></g><g class="trace scatter tracedc3125" style="stroke-miterlimit: 2; opacity: 1;"><g class="fills"/><g class="errorbars"/><g class="lines"><path class="js-line" d="M0,0.58L11.02,21.22L22.04,27.04L44.08,32.03L55.1,33.38L88.16,35.73L99.18,36.07L110.2,40.57L121.22,51.2L132.24,66.48L143.27,85.29L154.29,98.33L165.31,105.25L176.33,114.25L187.35,113.2L198.37,113.83L209.39,116.13L220.41,119.25L231.43,125.84L253.47,141.08L264.49,147.06L275.51,155.84L286.53,163.2L319.59,185.45L330.61,190.93L341.63,198.18L352.65,203.59L363.67,211.91L374.69,218.98L396.73,230.13L407.76,237.57L429.8,251.07L440.82,255.21L462.86,259.07L473.88,262.09L484.9,263.16L495.92,265.16L540,272.36" style="vector-effect: non-scaling-stroke; fill: none; stroke: rgb(255, 161, 90); stroke-opacity: 1; stroke-width: 2px; opacity: 1;"/></g><g class="points"/><g class="text"/></g><g class="trace scatter tracebc6c76" style="stroke-miterlimit: 2; opacity: 1;"><g class="fills"/><g class="errorbars"/><g class="lines"><path class="js-line" d="M0,0.45L11.02,21.11L22.04,26.78L33.06,30.06L44.08,31.85L66.12,34.27L77.14,34.58L99.18,35.77L110.2,35.5L132.24,34.72L143.27,34.49L154.29,34.86L165.31,33.92L176.33,33.7L187.35,32.13L198.37,32.54L209.39,31.8L231.43,32.69L242.45,34.05L286.53,40.46L297.55,42.76L330.61,48.45L341.63,50.36L396.73,59.77L407.76,62.09L440.82,68.22L451.84,69.22L528.98,74L540,74.57" style="vector-effect: non-scaling-stroke; fill: none; stroke: rgb(25, 211, 243); stroke-opacity: 1; stroke-width: 2px; opacity: 1;"/></g><g class="points"/><g class="text"/></g><g class="trace scatter tracefeda82" style="stroke-miterlimit: 2; opacity: 1;"><g class="fills"/><g class="errorbars"/><g class="lines"><path class="js-line" d="M0,0.55L11.02,20.79L22.04,27.37L44.08,32.16L55.1,33.34L77.14,34.94L88.16,34.79L121.22,34.76L132.24,34.48L143.27,34.79L154.29,33.81L165.31,34.43L176.33,34.18L187.35,32.79L198.37,32.61L209.39,31.85L220.41,32.24L231.43,32.31L242.45,34.51L264.49,37.61L275.51,39.37L297.55,43.1L308.57,45.34L418.78,63.53L429.8,65.62L451.84,67.79L462.86,68.39L540,72.77" style="vector-effect: non-scaling-stroke; fill: none; stroke: rgb(255, 102, 146); stroke-opacity: 1; stroke-width: 2px; opacity: 1;"/></g><g class="points"/><g class="text"/></g><g class="trace scatter trace85dbe0" style="stroke-miterlimit: 2; opacity: 1;"><g class="fills"/><g class="errorbars"/><g class="lines"><path class="js-line" d="M0,4.06L11.02,22.82L22.04,27.21L44.08,30.92L55.1,32.4L110.2,34.99L121.22,34.89L143.27,35.18L154.29,36.79L165.31,44.25L176.33,54.97L187.35,58.5L198.37,59.77L209.39,59.91L220.41,61.58L231.43,64.46L242.45,68.39L253.47,69.42L264.49,72.37L275.51,73.97L286.53,77.74L396.73,107.21L407.76,110.71L429.8,117.68L440.82,120.06L484.9,124.76L495.92,125.47L517.96,127.57L528.98,128.56L540,129.47" style="vector-effect: non-scaling-stroke; fill: none; stroke: rgb(182, 232, 128); stroke-opacity: 1; stroke-width: 2px; opacity: 1;"/></g><g class="points"/><g class="text"/></g><g class="trace scatter tracef4b929" style="stroke-miterlimit: 2; opacity: 1;"><g class="fills"/><g class="errorbars"/><g class="lines"><path class="js-line" d="M0,0.52L11.02,20.62L22.04,26.91L33.06,29.77L44.08,31.58L55.1,33.18L66.12,33.92L88.16,34.82L99.18,34.14L110.2,35.02L121.22,34.46L176.33,33.66L187.35,32.65L198.37,32.55L209.39,31.61L220.41,31.74L231.43,32.63L253.47,35.38L264.49,37.53L286.53,40.69L297.55,43.13L308.57,44.63L319.59,46.96L418.78,64.16L429.8,66.37L451.84,68.86L462.86,69.91L540,75.17" style="vector-effect: non-scaling-stroke; fill: none; stroke: rgb(255, 151, 255); stroke-opacity: 1; stroke-width: 2px; opacity: 1;"/></g><g class="points"/><g class="text"/></g><g class="trace scatter trace3865a7" style="stroke-miterlimit: 2; opacity: 1;"><g class="fills"/><g class="errorbars"/><g class="lines"><path class="js-line" d="M0,0.69L11.02,20.91L22.04,26.92L33.06,29.76L44.08,31.63L66.12,33.91L77.14,34.2L110.2,35.37L121.22,34.97L143.27,35.06L154.29,33.77L176.33,33.96L187.35,32.5L198.37,32.52L209.39,31.73L231.43,32.44L242.45,33.76L308.57,45.31L319.59,47.26L352.65,52.59L363.67,54.39L385.71,58.68L396.73,60.41L440.82,68.81L451.84,70.28L484.9,75.3L495.92,77.32L517.96,81.04L528.98,82.53L540,83.71" style="vector-effect: non-scaling-stroke; fill: none; stroke: rgb(254, 203, 82); stroke-opacity: 1; stroke-width: 2px; opacity: 1;"/></g><g class="points"/><g class="text"/></g><g class="trace scatter trace57616c" style="stroke-miterlimit: 2; opacity: 1;"><g class="fills"/><g class="errorbars"/><g class="lines"><path class="js-line" d="M0,0.83L11.02,21.14L22.04,26.78L33.06,29.92L44.08,31.46L55.1,33.08L66.12,33.57L88.16,35.13L99.18,34.91L110.2,35.81L121.22,34.79L132.24,34.43L143.27,35.21L154.29,33.94L165.31,34.01L198.37,32.6L209.39,31.52L231.43,31.63L242.45,33.7L264.49,36.1L275.51,38.11L286.53,39.88L297.55,42.42L319.59,46L330.61,47.53L341.63,49.95L352.65,51.48L440.82,66.56L451.84,67.44L540,72.59" style="vector-effect: non-scaling-stroke; fill: none; stroke: rgb(99, 110, 250); stroke-opacity: 1; stroke-width: 2px; opacity: 1;"/></g><g class="points"/><g class="text"/></g><g class="trace scatter tracef4ead5" style="stroke-miterlimit: 2; opacity: 1;"><g class="fills"/><g class="errorbars"/><g class="lines"><path class="js-line" d="M0,0.87L11.02,21.11L22.04,26.91L33.06,29.72L44.08,31.55L55.1,33.21L66.12,34.02L110.2,35.18L121.22,34.75L176.33,33.91L187.35,32.28L198.37,32.6L209.39,31.51L231.43,32.02L242.45,33.52L264.49,37.01L275.51,38.29L308.57,45.17L319.59,46.84L385.71,58.25L396.73,59.94L429.8,65.67L440.82,66.96L473.88,69.11L484.9,69.76L540,73.01" style="vector-effect: non-scaling-stroke; fill: none; stroke: rgb(239, 85, 59); stroke-opacity: 1; stroke-width: 2px; opacity: 1;"/></g><g class="points"/><g class="text"/></g><g class="trace scatter tracefb2811" style="stroke-miterlimit: 2; opacity: 1;"><g class="fills"/><g class="errorbars"/><g class="lines"><path class="js-line" d="M0,0.31L11.02,21.19L22.04,26.92L44.08,31.78L55.1,33.83L110.2,35.49L121.22,34.84L143.27,35.44L154.29,34.25L176.33,34.39L187.35,32.87L198.37,33.31L209.39,31.41L220.41,32.32L231.43,32.16L264.49,38.05L275.51,39.53L286.53,40.78L297.55,43.16L363.67,54.1L374.69,56.27L440.82,67.59L451.84,68.55L540,74.51" style="vector-effect: non-scaling-stroke; fill: none; stroke: rgb(0, 204, 150); stroke-opacity: 1; stroke-width: 2px; opacity: 1;"/></g><g class="points"/><g class="text"/></g><g class="trace scatter trace1df5b7" style="stroke-miterlimit: 2; opacity: 1;"><g class="fills"/><g class="errorbars"/><g class="lines"><path class="js-line" d="M0,0.24L11.02,20.81L22.04,26.67L33.06,29.79L44.08,31.84L66.12,33.59L77.14,34.19L99.18,34.97L110.2,34.68L132.24,34.18L143.27,34.84L154.29,33.87L165.31,34.35L176.33,33.88L187.35,32.53L198.37,32.98L209.39,32.3L231.43,33.01L242.45,34.34L363.67,53.6L374.69,56.04L396.73,59.54L407.76,61.95L418.78,64.31L429.8,67.63L451.84,74.57L462.86,79.17L484.9,89.09L495.92,92.69L506.94,96.3L517.96,98.67L540,102.15" style="vector-effect: non-scaling-stroke; fill: none; stroke: rgb(171, 99, 250); stroke-opacity: 1; stroke-width: 2px; opacity: 1;"/></g><g class="points"/><g class="text"/></g><g class="trace scatter traceec85fc" style="stroke-miterlimit: 2; opacity: 1;"><g class="fills"/><g class="errorbars"/><g class="lines"><path class="js-line" d="M0,0.41L11.02,21.01L22.04,26.99L44.08,31.85L55.1,33.31L88.16,35.06L99.18,35.32L110.2,35.62L121.22,34.96L165.31,34.13L176.33,33.52L187.35,32.28L198.37,32.16L220.41,31.43L231.43,32.66L275.51,38.6L286.53,40.82L330.61,48.99L341.63,51.44L363.67,55.43L374.69,57.66L440.82,70.97L451.84,72.21L540,81.7" style="vector-effect: non-scaling-stroke; fill: none; stroke: rgb(255, 161, 90); stroke-opacity: 1; stroke-width: 2px; opacity: 1;"/></g><g class="points"/><g class="text"/></g><g class="trace scatter tracecf7a47" style="stroke-miterlimit: 2; opacity: 1;"><g class="fills"/><g class="errorbars"/><g class="lines"><path class="js-line" d="M0,0.49L11.02,21.15L22.04,26.58L33.06,29.71L44.08,31.79L66.12,34.08L77.14,34.37L110.2,35.82L121.22,34.92L143.27,35.52L154.29,34.24L165.31,34.87L176.33,34.39L187.35,33.24L198.37,32.88L209.39,31.63L220.41,32.15L231.43,32.39L242.45,34.61L253.47,36.11L264.49,38.44L275.51,39.25L286.53,41.19L297.55,43.77L308.57,45.44L341.63,51.24L352.65,52.91L418.78,65.41L429.8,67.59L451.84,70.4L462.86,71.39L540,77.48" style="vector-effect: non-scaling-stroke; fill: none; stroke: rgb(25, 211, 243); stroke-opacity: 1; stroke-width: 2px; opacity: 1;"/></g><g class="points"/><g class="text"/></g><g class="trace scatter trace602bdb" style="stroke-miterlimit: 2; opacity: 1;"><g class="fills"/><g class="errorbars"/><g class="lines"><path class="js-line" d="M0,0.51L11.02,21.1L22.04,27.52L44.08,32.18L55.1,33.29L88.16,35.29L99.18,34.95L110.2,35.46L121.22,34.39L143.27,34.71L154.29,33.59L176.33,34L187.35,32.67L220.41,31.91L231.43,32.54L253.47,34.95L264.49,36.85L275.51,37.89L286.53,39.98L308.57,44.11L319.59,46.26L363.67,54.12L374.69,56.57L440.82,69L451.84,69.87L506.94,73.75L517.96,74.44L540,75.71" style="vector-effect: non-scaling-stroke; fill: none; stroke: rgb(255, 102, 146); stroke-opacity: 1; stroke-width: 2px; opacity: 1;"/></g><g class="points"/><g class="text"/></g><g class="trace scatter trace7c7e3a" style="stroke-miterlimit: 2; opacity: 1;"><g class="fills"/><g class="errorbars"/><g class="lines"><path class="js-line" d="M0,0.3L11.02,20.97L22.04,27.05L44.08,32.1L55.1,33.26L66.12,34.11L77.14,34.11L110.2,35.17L121.22,34.4L154.29,34.28L165.31,34.06L176.33,34.01L187.35,32.36L198.37,32.68L209.39,31.67L231.43,31.89L242.45,33.49L286.53,40.51L297.55,42.59L308.57,44.36L319.59,46.94L341.63,50.46L352.65,52.2L396.73,60.47L407.76,62.9L440.82,69.19L451.84,70.17L495.92,73.29L506.94,74.05L540,76.05" style="vector-effect: non-scaling-stroke; fill: none; stroke: rgb(182, 232, 128); stroke-opacity: 1; stroke-width: 2px; opacity: 1;"/></g><g class="points"/><g class="text"/></g><g class="trace scatter trace6a3b26" style="stroke-miterlimit: 2; opacity: 1;"><g class="fills"/><g class="errorbars"/><g class="lines"><path class="js-line" d="M0,0.51L11.02,21.07L22.04,26.8L33.06,29.94L44.08,31.92L77.14,34.76L88.16,37.18L99.18,44.47L110.2,53.01L132.24,67.05L143.27,74.56L165.31,84.73L176.33,88.62L187.35,90.38L198.37,91.16L220.41,98.94L231.43,104.78L253.47,114.52L264.49,120.52L319.59,147.13L330.61,152.07L341.63,155.92L352.65,160.6L385.71,178.17L396.73,181.98L407.76,188.26L418.78,193.18L429.8,198.82L440.82,201.58L451.84,204.31L462.86,206.2L473.88,208.62L484.9,210.13L528.98,215.94L540,216.55" style="vector-effect: non-scaling-stroke; fill: none; stroke: rgb(255, 151, 255); stroke-opacity: 1; stroke-width: 2px; opacity: 1;"/></g><g class="points"/><g class="text"/></g><g class="trace scatter tracee0612c" style="stroke-miterlimit: 2; opacity: 1;"><g class="fills"/><g class="errorbars"/><g class="lines"><path class="js-line" d="M0,0.79L11.02,21.21L22.04,27.23L33.06,30.02L44.08,31.99L66.12,34.14L77.14,34.44L88.16,35.24L99.18,34.69L110.2,35.29L121.22,34.57L143.27,34.84L154.29,33.94L176.33,33.66L187.35,31.98L198.37,32.31L209.39,31.8L231.43,32L242.45,33.45L264.49,36.65L275.51,38.19L374.69,56.87L385.71,58.98L440.82,69.4L451.84,70.34L517.96,74.52L528.98,75.25L540,75.89" style="vector-effect: non-scaling-stroke; fill: none; stroke: rgb(254, 203, 82); stroke-opacity: 1; stroke-width: 2px; opacity: 1;"/></g><g class="points"/><g class="text"/></g><g class="trace scatter tracea38267" style="stroke-miterlimit: 2; opacity: 1;"><g class="fills"/><g class="errorbars"/><g class="lines"><path class="js-line" d="M0,4.52L11.02,21.33L22.04,26.76L55.1,32.82L66.12,33.19L110.2,35.17L121.22,34.85L187.35,33.64L198.37,32.09L220.41,31.76L231.43,32.44L242.45,33.46L253.47,35.27L264.49,37.03L275.51,37.88L319.59,44.67L330.61,46.73L352.65,49.75L363.67,51.59L374.69,52.92L385.71,55.27L418.78,61.53L429.8,64.29L451.84,69.63L462.86,73.35L495.92,85.53L506.94,88.77L528.98,93.42L540,95.05" style="vector-effect: non-scaling-stroke; fill: none; stroke: rgb(99, 110, 250); stroke-opacity: 1; stroke-width: 2px; opacity: 1;"/></g><g class="points"/><g class="text"/></g><g class="trace scatter trace51e3af" style="stroke-miterlimit: 2; opacity: 1;"><g class="fills"/><g class="errorbars"/><g class="lines"><path class="js-line" d="M0,0.41L11.02,21.28L22.04,27.03L33.06,29.98L44.08,31.7L77.14,34.42L88.16,34.89L110.2,34.87L121.22,34.13L143.27,34.88L154.29,33.7L176.33,33.78L187.35,32.58L198.37,32.8L209.39,31.18L242.45,33.61L253.47,35.64L440.82,67.37L451.84,68.25L540,73.96" style="vector-effect: non-scaling-stroke; fill: none; stroke: rgb(239, 85, 59); stroke-opacity: 1; stroke-width: 2px; opacity: 1;"/></g><g class="points"/><g class="text"/></g><g class="trace scatter trace0eac69" style="stroke-miterlimit: 2; opacity: 1;"><g class="fills"/><g class="errorbars"/><g class="lines"><path class="js-line" d="M0,0.52L11.02,21.16L22.04,27.44L33.06,30.41L44.08,31.79L55.1,33.43L66.12,34.17L88.16,35.76L99.18,35.22L110.2,36.76L121.22,42.61L132.24,55.16L143.27,65.39L165.31,81.44L176.33,86.69L187.35,91.39L198.37,92.28L209.39,98.05L220.41,101.64L242.45,114.49L253.47,119.14L275.51,131.94L286.53,137.27L297.55,142.41L308.57,149.18L341.63,162.4L352.65,167.27L385.71,183.62L396.73,187.96L407.76,193.59L418.78,198.06L429.8,204.59L440.82,207.22L462.86,211.35L473.88,213.45L495.92,215.99L506.94,217.38L540,222.19" style="vector-effect: non-scaling-stroke; fill: none; stroke: rgb(0, 204, 150); stroke-opacity: 1; stroke-width: 2px; opacity: 1;"/></g><g class="points"/><g class="text"/></g><g class="trace scatter trace6d2813" style="stroke-miterlimit: 2; opacity: 1;"><g class="fills"/><g class="errorbars"/><g class="lines"><path class="js-line" d="M0,0.67L11.02,20.8L22.04,27.07L33.06,29.91L44.08,31.67L55.1,33.16L66.12,33.81L99.18,36.14L110.2,44.47L121.22,52.57L132.24,62.68L154.29,76.21L165.31,80.58L176.33,85.06L187.35,86.53L198.37,88.85L209.39,93.64L220.41,97.85L231.43,106.11L253.47,116.74L264.49,123.98L286.53,137.87L297.55,142.22L308.57,149.29L319.59,154.46L341.63,165.14L352.65,169.29L374.69,183.71L385.71,189.47L396.73,194.04L407.76,200.92L429.8,213.03L440.82,216.24L462.86,221.43L473.88,223.48L540,232.59" style="vector-effect: non-scaling-stroke; fill: none; stroke: rgb(171, 99, 250); stroke-opacity: 1; stroke-width: 2px; opacity: 1;"/></g><g class="points"/><g class="text"/></g><g class="trace scatter tracebd4a0b" style="stroke-miterlimit: 2; opacity: 1;"><g class="fills"/><g class="errorbars"/><g class="lines"><path class="js-line" d="M0,0.79L11.02,21L22.04,27.13L33.06,29.93L44.08,31.85L55.1,33.79L66.12,34.38L77.14,35.11L88.16,37.56L110.2,56.11L121.22,66.56L154.29,86.24L165.31,89.73L176.33,93.11L187.35,94.66L198.37,95.17L209.39,99.53L220.41,103.03L231.43,108.45L242.45,113.3L253.47,116.33L264.49,122.42L275.51,127.33L286.53,133.97L297.55,138.25L319.59,149.09L330.61,153.95L341.63,158.85L352.65,162.85L363.67,169.67L374.69,175.3L396.73,185.6L407.76,191.37L418.78,195.97L429.8,202.41L451.84,208.02L462.86,210.21L506.94,216.36L517.96,218L528.98,220.05L540,221.31" style="vector-effect: non-scaling-stroke; fill: none; stroke: rgb(255, 161, 90); stroke-opacity: 1; stroke-width: 2px; opacity: 1;"/></g><g class="points"/><g class="text"/></g><g class="trace scatter tracefa4d31" style="stroke-miterlimit: 2; opacity: 1;"><g class="fills"/><g class="errorbars"/><g class="lines"><path class="js-line" d="M0,1.07L11.02,21.12L22.04,27.07L33.06,29.95L44.08,31.96L66.12,34.21L77.14,34.32L99.18,35.43L110.2,35.43L165.31,34.17L176.33,34.04L187.35,32.18L198.37,33L209.39,32L220.41,32.12L231.43,32.21L242.45,34.26L275.51,38.47L286.53,40.65L330.61,48.32L341.63,50.6L374.69,56.19L385.71,58.23L440.82,68.19L451.84,69.25L540,76.48" style="vector-effect: non-scaling-stroke; fill: none; stroke: rgb(25, 211, 243); stroke-opacity: 1; stroke-width: 2px; opacity: 1;"/></g><g class="points"/><g class="text"/></g><g class="trace scatter trace482d51" style="stroke-miterlimit: 2; opacity: 1;"><g class="fills"/><g class="errorbars"/><g class="lines"><path class="js-line" d="M0,0.45L11.02,21.22L22.04,26.86L33.06,30.26L44.08,32.17L66.12,34.75L77.14,34.6L110.2,35.48L121.22,34.89L132.24,34.63L143.27,35.31L176.33,34.24L187.35,32.79L198.37,32.75L209.39,31.78L220.41,31.75L231.43,32.88L253.47,35.51L264.49,37.48L286.53,40.39L297.55,42.86L352.65,52.5L363.67,54.49L407.76,65.05L418.78,68.14L462.86,81.3L473.88,84.43L495.92,90.88L506.94,93.72L528.98,97.83L540,99.1" style="vector-effect: non-scaling-stroke; fill: none; stroke: rgb(255, 102, 146); stroke-opacity: 1; stroke-width: 2px; opacity: 1;"/></g><g class="points"/><g class="text"/></g><g class="trace scatter trace25fda1" style="stroke-miterlimit: 2; opacity: 1;"><g class="fills"/><g class="errorbars"/><g class="lines"><path class="js-line" d="M0,0.37L11.02,20.92L22.04,26.66L33.06,29.84L44.08,32.18L66.12,33.71L77.14,34.2L99.18,34.61L110.2,34.73L132.24,34.2L143.27,34.75L165.31,33.87L176.33,33.59L187.35,32.12L198.37,32.74L209.39,31.52L220.41,31.99L231.43,32.19L242.45,33.83L264.49,36.95L275.51,38.69L286.53,40L297.55,42.53L440.82,67L451.84,67.96L540,73.16" style="vector-effect: non-scaling-stroke; fill: none; stroke: rgb(182, 232, 128); stroke-opacity: 1; stroke-width: 2px; opacity: 1;"/></g><g class="points"/><g class="text"/></g><g class="trace scatter tracee378b8" style="stroke-miterlimit: 2; opacity: 1;"><g class="fills"/><g class="errorbars"/><g class="lines"><path class="js-line" d="M0,0.73L11.02,20.96L22.04,27.06L33.06,30.04L44.08,32.04L66.12,34.01L77.14,34.69L88.16,35.08L99.18,34.57L110.2,35.27L121.22,34.39L143.27,35.03L154.29,33.88L176.33,34.09L187.35,32.41L198.37,32.59L209.39,31.66L231.43,31.69L242.45,33.37L275.51,38.46L286.53,40.82L319.59,47.24L330.61,48.73L418.78,65.75L429.8,68.25L451.84,71.01L462.86,71.97L540,77.33" style="vector-effect: non-scaling-stroke; fill: none; stroke: rgb(255, 151, 255); stroke-opacity: 1; stroke-width: 2px; opacity: 1;"/></g><g class="points"/><g class="text"/></g><g class="trace scatter traceeec7cc" style="stroke-miterlimit: 2; opacity: 1;"><g class="fills"/><g class="errorbars"/><g class="lines"><path class="js-line" d="M0,0.17L11.02,21.12L22.04,27.08L33.06,29.93L44.08,31.72L55.1,33.78L66.12,34.11L88.16,35.03L99.18,34.45L110.2,35.26L121.22,34.69L154.29,34.32L165.31,34.25L176.33,34.24L187.35,33.01L231.43,32.1L242.45,34.1L264.49,36.85L275.51,38.48L363.67,53.61L374.69,55.92L429.8,66.07L440.82,67.48L506.94,73.09L517.96,73.98L540,75.5" style="vector-effect: non-scaling-stroke; fill: none; stroke: rgb(254, 203, 82); stroke-opacity: 1; stroke-width: 2px; opacity: 1;"/></g><g class="points"/><g class="text"/></g><g class="trace scatter tracef975e4" style="stroke-miterlimit: 2; opacity: 1;"><g class="fills"/><g class="errorbars"/><g class="lines"><path class="js-line" d="M0,2.68L11.02,22.3L22.04,27.54L44.08,32.03L55.1,33.26L66.12,36.13L77.14,43.96L99.18,81.58L110.2,94.44L121.22,105.31L132.24,113.62L143.27,116.61L154.29,123.56L165.31,124.41L176.33,128.74L187.35,131.81L198.37,131.33L209.39,132.53L220.41,136.87L231.43,143.21L242.45,151.88L253.47,159.97L264.49,166.82L275.51,172.68L286.53,181.62L297.55,191.54L308.57,195.92L319.59,203.39L330.61,212.45L341.63,216.93L352.65,226.39L385.71,246.93L396.73,255.47L440.82,282.72L451.84,284.38L473.88,288.64L484.9,291.41L506.94,295.13L517.96,297.46L540,300.24" style="vector-effect: non-scaling-stroke; fill: none; stroke: rgb(99, 110, 250); stroke-opacity: 1; stroke-width: 2px; opacity: 1;"/></g><g class="points"/><g class="text"/></g><g class="trace scatter trace2211b9" style="stroke-miterlimit: 2; opacity: 1;"><g class="fills"/><g class="errorbars"/><g class="lines"><path class="js-line" d="M0,0.7L11.02,20.87L22.04,26.98L33.06,30L44.08,32.02L66.12,34.27L77.14,34.38L99.18,35L110.2,35.41L121.22,34.64L132.24,34.64L143.27,35L154.29,33.99L176.33,33.87L187.35,32.39L231.43,32.27L242.45,33.53L275.51,38.27L286.53,40.5L330.61,48.1L341.63,50.62L363.67,54.34L374.69,56.67L407.76,63.29L418.78,65.38L440.82,69.21L451.84,70.1L540,75.39" style="vector-effect: non-scaling-stroke; fill: none; stroke: rgb(239, 85, 59); stroke-opacity: 1; stroke-width: 2px; opacity: 1;"/></g><g class="points"/><g class="text"/></g><g class="trace scatter trace628932" style="stroke-miterlimit: 2; opacity: 1;"><g class="fills"/><g class="errorbars"/><g class="lines"><path class="js-line" d="M0,0.57L11.02,20.55L22.04,26.85L33.06,29.92L44.08,31.82L66.12,34.2L77.14,34.83L110.2,35.63L121.22,35.1L132.24,34.53L143.27,35.16L165.31,34.01L176.33,33.98L187.35,32.54L198.37,32.63L209.39,31.63L220.41,32.16L242.45,34.19L253.47,35.71L286.53,40.91L297.55,43.01L363.67,53.99L374.69,56.45L396.73,59.93L407.76,62.24L440.82,68.26L451.84,69.37L540,75" style="vector-effect: non-scaling-stroke; fill: none; stroke: rgb(0, 204, 150); stroke-opacity: 1; stroke-width: 2px; opacity: 1;"/></g><g class="points"/><g class="text"/></g><g class="trace scatter trace84859b" style="stroke-miterlimit: 2; opacity: 1;"><g class="fills"/><g class="errorbars"/><g class="lines"><path class="js-line" d="M0,0.45L11.02,21.18L22.04,27.1L33.06,30.24L44.08,31.95L55.1,33.67L66.12,34.59L88.16,35.34L99.18,34.71L110.2,35.42L121.22,35.11L165.31,33.63L176.33,33.81L187.35,32.31L198.37,32.52L209.39,31.74L220.41,31.77L231.43,32.45L242.45,34.12L264.49,37.59L275.51,39.11L297.55,43.23L308.57,45.55L440.82,69.92L451.84,70.81L540,76.06" style="vector-effect: non-scaling-stroke; fill: none; stroke: rgb(171, 99, 250); stroke-opacity: 1; stroke-width: 2px; opacity: 1;"/></g><g class="points"/><g class="text"/></g><g class="trace scatter tracec564e5" style="stroke-miterlimit: 2; opacity: 1;"><g class="fills"/><g class="errorbars"/><g class="lines"><path class="js-line" d="M0,0.31L11.02,21.45L22.04,26.99L33.06,30.21L44.08,31.88L55.1,33.47L66.12,34.01L99.18,35.91L110.2,42.33L132.24,65.98L143.27,74.59L154.29,81.37L165.31,86.28L176.33,90.73L187.35,92.27L198.37,94.69L209.39,98.2L220.41,102.49L231.43,108.79L253.47,120.39L264.49,126.93L297.55,145.15L308.57,151.83L319.59,158.41L330.61,162.74L341.63,168.3L352.65,172.41L374.69,185.58L385.71,190.74L396.73,195.05L407.76,201.62L418.78,206.63L429.8,212.65L440.82,215.84L451.84,218.09L473.88,222.51L484.9,224.09L495.92,226.01L506.94,226.81L528.98,230.45L540,231.71" style="vector-effect: non-scaling-stroke; fill: none; stroke: rgb(255, 161, 90); stroke-opacity: 1; stroke-width: 2px; opacity: 1;"/></g><g class="points"/><g class="text"/></g><g class="trace scatter traced07bdc" style="stroke-miterlimit: 2; opacity: 1;"><g class="fills"/><g class="errorbars"/><g class="lines"><path class="js-line" d="M0,0.66L11.02,21.02L22.04,26.84L33.06,29.85L44.08,31.81L55.1,33.33L66.12,34.07L99.18,34.85L110.2,35.37L132.24,34.68L143.27,35.07L165.31,33.98L176.33,34.28L187.35,32.56L198.37,32.58L209.39,31.75L220.41,32.29L231.43,32.68L242.45,33.97L253.47,35.29L264.49,37.41L396.73,60.91L407.76,63.18L440.82,69.49L451.84,70.61L495.92,73.98L506.94,74.75L540,76.78" style="vector-effect: non-scaling-stroke; fill: none; stroke: rgb(25, 211, 243); stroke-opacity: 1; stroke-width: 2px; opacity: 1;"/></g><g class="points"/><g class="text"/></g><g class="trace scatter trace305b55" style="stroke-miterlimit: 2; opacity: 1;"><g class="fills"/><g class="errorbars"/><g class="lines"><path class="js-line" d="M0,0.63L11.02,21.15L22.04,26.92L33.06,29.96L44.08,31.89L66.12,34.46L77.14,35.05L99.18,36.19L110.2,43.78L121.22,53.97L132.24,65.23L154.29,80.73L165.31,85.57L176.33,89.86L187.35,91.67L198.37,93.03L209.39,97.14L220.41,100.66L231.43,107.29L242.45,113.5L253.47,118.33L275.51,129.68L286.53,137L308.57,151.28L319.59,156.86L330.61,161.24L341.63,167.56L352.65,172.37L363.67,179.18L385.71,191.33L396.73,196.17L407.76,202.41L418.78,207.66L429.8,213.78L440.82,216.82L451.84,219.3L462.86,220.82L484.9,224.9L495.92,226.27L506.94,227.05L517.96,228.76L540,232.26" style="vector-effect: non-scaling-stroke; fill: none; stroke: rgb(255, 102, 146); stroke-opacity: 1; stroke-width: 2px; opacity: 1;"/></g><g class="points"/><g class="text"/></g><g class="trace scatter trace5371d9" style="stroke-miterlimit: 2; opacity: 1;"><g class="fills"/><g class="errorbars"/><g class="lines"><path class="js-line" d="M0,0.39L11.02,21.46L22.04,27.3L33.06,30.03L44.08,31.53L55.1,33.59L66.12,34.03L77.14,34.67L88.16,37.45L99.18,45.81L110.2,55.88L121.22,66.91L132.24,73.71L143.27,80.25L154.29,84.64L165.31,89.3L176.33,91.73L187.35,92.45L198.37,91.81L209.39,96.36L220.41,99.3L242.45,111.31L253.47,116.03L264.49,121.98L275.51,126.97L286.53,133.8L297.55,138.42L319.59,150.16L330.61,154.79L341.63,158.88L352.65,164.13L363.67,169.56L374.69,176.78L407.76,192.55L418.78,198.07L429.8,204.11L440.82,207.09L473.88,214.17L484.9,214.85L495.92,216.97L506.94,217.97L540,222.87" style="vector-effect: non-scaling-stroke; fill: none; stroke: rgb(182, 232, 128); stroke-opacity: 1; stroke-width: 2px; opacity: 1;"/></g><g class="points"/><g class="text"/></g><g class="trace scatter trace9aff55" style="stroke-miterlimit: 2; opacity: 1;"><g class="fills"/><g class="errorbars"/><g class="lines"><path class="js-line" d="M0,0.67L11.02,20.87L22.04,26.85L44.08,32.32L55.1,33.13L66.12,34.77L77.14,34.78L121.22,35.03L132.24,34.45L143.27,35.36L154.29,34.71L165.31,33.79L176.33,34.09L187.35,32.7L198.37,32.49L209.39,31.55L220.41,31.93L231.43,32.39L242.45,34.1L286.53,41.24L297.55,43.3L330.61,49.16L341.63,51.61L396.73,62.02L407.76,64.15L440.82,69.77L451.84,70.82L540,76.25" style="vector-effect: non-scaling-stroke; fill: none; stroke: rgb(255, 151, 255); stroke-opacity: 1; stroke-width: 2px; opacity: 1;"/></g><g class="points"/><g class="text"/></g><g class="trace scatter tracee0f3b4" style="stroke-miterlimit: 2; opacity: 1;"><g class="fills"/><g class="errorbars"/><g class="lines"><path class="js-line" d="M0,0.7L11.02,20.97L22.04,26.88L33.06,29.81L44.08,31.94L66.12,34.09L77.14,34.29L121.22,34.66L132.24,34.46L154.29,33.99L165.31,33.51L176.33,34.13L187.35,32.74L198.37,32.97L209.39,31.99L231.43,32.34L242.45,34.07L297.55,43.19L308.57,45.26L374.69,56.59L385.71,58.15L440.82,66.98L451.84,67.94L540,72.54" style="vector-effect: non-scaling-stroke; fill: none; stroke: rgb(254, 203, 82); stroke-opacity: 1; stroke-width: 2px; opacity: 1;"/></g><g class="points"/><g class="text"/></g><g class="trace scatter tracefff7c1" style="stroke-miterlimit: 2; opacity: 1;"><g class="fills"/><g class="errorbars"/><g class="lines"><path class="js-line" d="M0,0.3L11.02,20.49L22.04,26.87L33.06,29.97L44.08,31.98L66.12,33.9L77.14,34.52L143.27,34.39L154.29,34.05L176.33,33.68L187.35,32.66L231.43,32.12L242.45,33.91L275.51,38.34L286.53,40.33L308.57,44.97L319.59,46.42L374.69,56.45L385.71,58.25L440.82,67.69L451.84,68.77L540,75.44" style="vector-effect: non-scaling-stroke; fill: none; stroke: rgb(99, 110, 250); stroke-opacity: 1; stroke-width: 2px; opacity: 1;"/></g><g class="points"/><g class="text"/></g><g class="trace scatter tracea14596" style="stroke-miterlimit: 2; opacity: 1;"><g class="fills"/><g class="errorbars"/><g class="lines"><path class="js-line" d="M0,0.37L11.02,21.09L22.04,27L33.06,30.03L44.08,31.83L66.12,33.96L77.14,34.8L88.16,35.61L99.18,34.86L110.2,35.79L121.22,34.93L176.33,34.05L187.35,32.19L198.37,32.41L209.39,31.41L231.43,32.13L242.45,33.89L253.47,35.03L264.49,36.96L286.53,40.67L297.55,42.57L396.73,60.97L407.76,63.46L440.82,69.78L451.84,70.79L506.94,75.93L517.96,77.05L540,78.73" style="vector-effect: non-scaling-stroke; fill: none; stroke: rgb(239, 85, 59); stroke-opacity: 1; stroke-width: 2px; opacity: 1;"/></g><g class="points"/><g class="text"/></g><g class="trace scatter traceaf8d18" style="stroke-miterlimit: 2; opacity: 1;"><g class="fills"/><g class="errorbars"/><g class="lines"><path class="js-line" d="M0,2.71L11.02,22.54L22.04,27.77L44.08,31.49L55.1,32.43L77.14,35.34L88.16,45.13L110.2,78.23L121.22,87.88L132.24,97.59L143.27,104.22L154.29,110.71L165.31,115.21L187.35,123.51L198.37,122.5L220.41,127.99L231.43,137.79L242.45,144.8L253.47,153.27L264.49,163.43L275.51,171.18L297.55,191.27L308.57,198.59L319.59,206.8L330.61,218.01L341.63,226.37L352.65,235.78L407.76,276.76L418.78,284L440.82,298.77L451.84,300.54L473.88,304.87L484.9,308.08L540,317.56" style="vector-effect: non-scaling-stroke; fill: none; stroke: rgb(0, 204, 150); stroke-opacity: 1; stroke-width: 2px; opacity: 1;"/></g><g class="points"/><g class="text"/></g><g class="trace scatter tracead6f90" style="stroke-miterlimit: 2; opacity: 1;"><g class="fills"/><g class="errorbars"/><g class="lines"><path class="js-line" d="M0,0.55L11.02,21.08L22.04,26.83L33.06,30.02L44.08,31.69L66.12,34.17L77.14,34.59L110.2,35.4L121.22,34.73L176.33,34.27L187.35,32.43L198.37,32.74L209.39,32.17L231.43,32.27L242.45,34.22L286.53,41.17L297.55,43.59L429.8,65.61L440.82,66.99L517.96,72.24L528.98,72.97L540,73.65" style="vector-effect: non-scaling-stroke; fill: none; stroke: rgb(171, 99, 250); stroke-opacity: 1; stroke-width: 2px; opacity: 1;"/></g><g class="points"/><g class="text"/></g><g class="trace scatter trace5fbb36" style="stroke-miterlimit: 2; opacity: 1;"><g class="fills"/><g class="errorbars"/><g class="lines"><path class="js-line" d="M0,0.71L11.02,21.05L22.04,27.38L44.08,32.44L55.1,33.27L66.12,34.12L77.14,34.19L88.16,35.04L99.18,34.73L110.2,35.2L121.22,34.44L143.27,34.39L154.29,33.38L176.33,33.7L187.35,32.45L198.37,32.32L209.39,31.43L220.41,32.19L231.43,32.14L286.53,40.17L297.55,42.97L352.65,52.07L363.67,54.07L429.8,66L440.82,67.44L484.9,70.65L495.92,71.52L540,74.21" style="vector-effect: non-scaling-stroke; fill: none; stroke: rgb(255, 161, 90); stroke-opacity: 1; stroke-width: 2px; opacity: 1;"/></g><g class="points"/><g class="text"/></g><g class="trace scatter trace5276ff" style="stroke-miterlimit: 2; opacity: 1;"><g class="fills"/><g class="errorbars"/><g class="lines"><path class="js-line" d="M0,0.46L11.02,20.72L22.04,27.07L44.08,32.2L55.1,33.07L66.12,34.41L77.14,34.85L143.27,34.87L154.29,33.82L176.33,33.82L187.35,32.16L198.37,32.6L209.39,31.28L231.43,32.12L242.45,33.99L253.47,34.85L264.49,37.19L286.53,40.55L297.55,42.98L330.61,48.51L341.63,50.59L407.76,63.99L418.78,66.15L440.82,70.26L451.84,71.19L540,76.98" style="vector-effect: non-scaling-stroke; fill: none; stroke: rgb(25, 211, 243); stroke-opacity: 1; stroke-width: 2px; opacity: 1;"/></g><g class="points"/><g class="text"/></g><g class="trace scatter trace9e3729" style="stroke-miterlimit: 2; opacity: 1;"><g class="fills"/><g class="errorbars"/><g class="lines"><path class="js-line" d="M0,0.3L11.02,21.01L22.04,26.83L44.08,32.14L55.1,33.24L66.12,34.27L77.14,34.48L110.2,35.12L121.22,34.79L176.33,33.95L187.35,32.59L198.37,32.44L209.39,31.5L231.43,32.41L242.45,33.84L253.47,35.29L264.49,37.55L275.51,38.97L286.53,41.28L330.61,49.2L341.63,51.77L363.67,55L374.69,57.07L429.8,68.22L440.82,70.43L495.92,79.17L506.94,80.91L540,85.03" style="vector-effect: non-scaling-stroke; fill: none; stroke: rgb(255, 102, 146); stroke-opacity: 1; stroke-width: 2px; opacity: 1;"/></g><g class="points"/><g class="text"/></g><g class="trace scatter tracef8dd61" style="stroke-miterlimit: 2; opacity: 1;"><g class="fills"/><g class="errorbars"/><g class="lines"><path class="js-line" d="M0,0.49L11.02,21.49L22.04,26.93L33.06,30.12L44.08,31.99L77.14,34.49L88.16,34.77L121.22,34.57L132.24,34.59L154.29,33.8L165.31,33.7L176.33,33.4L187.35,32.07L198.37,32.65L209.39,31.59L231.43,31.91L242.45,33.59L275.51,38.86L286.53,40.08L429.8,65.77L440.82,67.35L473.88,69.99L484.9,70.66L540,74.08" style="vector-effect: non-scaling-stroke; fill: none; stroke: rgb(182, 232, 128); stroke-opacity: 1; stroke-width: 2px; opacity: 1;"/></g><g class="points"/><g class="text"/></g><g class="trace scatter trace2a3448" style="stroke-miterlimit: 2; opacity: 1;"><g class="fills"/><g class="errorbars"/><g class="lines"><path class="js-line" d="M0,3.41L11.02,22.19L22.04,27.6L33.06,29.97L44.08,31.57L55.1,32.31L66.12,34.89L77.14,38.31L88.16,48.99L99.18,58.41L110.2,64.65L121.22,73.94L132.24,86.42L143.27,96.28L154.29,103.86L165.31,108.84L176.33,112.51L187.35,119.22L198.37,120.08L220.41,127.8L231.43,134.54L242.45,143.05L253.47,150.09L264.49,157.76L275.51,162.96L286.53,170.74L297.55,180.75L308.57,186.08L319.59,192.98L341.63,207.43L352.65,214.11L363.67,221.03L374.69,226.82L385.71,235.38L396.73,242.33L429.8,263.3L440.82,268.9L451.84,271.42L462.86,272.84L484.9,278.68L495.92,279.17L506.94,281.08L517.96,284.56L540,286.85" style="vector-effect: non-scaling-stroke; fill: none; stroke: rgb(255, 151, 255); stroke-opacity: 1; stroke-width: 2px; opacity: 1;"/></g><g class="points"/><g class="text"/></g><g class="trace scatter trace903676" style="stroke-miterlimit: 2; opacity: 1;"><g class="fills"/><g class="errorbars"/><g class="lines"><path class="js-line" d="M0,0.47L11.02,21.46L22.04,26.83L33.06,30.13L44.08,31.63L55.1,33.8L66.12,34.09L110.2,35.41L121.22,34.7L143.27,35.29L154.29,34.01L165.31,34.64L176.33,34.42L187.35,33.13L198.37,32.62L220.41,32.36L231.43,32.83L242.45,33.86L253.47,36.02L308.57,45.08L319.59,47.35L330.61,48.57L341.63,50.91L374.69,57.25L385.71,59.44L418.78,65.85L429.8,67.94L451.84,70.33L462.86,71.15L528.98,74.77L540,75.34" style="vector-effect: non-scaling-stroke; fill: none; stroke: rgb(254, 203, 82); stroke-opacity: 1; stroke-width: 2px; opacity: 1;"/></g><g class="points"/><g class="text"/></g><g class="trace scatter tracedf515b" style="stroke-miterlimit: 2; opacity: 1;"><g class="fills"/><g class="errorbars"/><g class="lines"><path class="js-line" d="M0,2.82L11.02,22.17L22.04,27.45L44.08,31.48L55.1,32.8L77.14,36.75L88.16,46.37L99.18,67.87L110.2,83.05L132.24,103L143.27,108.63L165.31,119.08L176.33,121.39L187.35,124.86L198.37,124.93L220.41,127.3L231.43,137.4L253.47,155L264.49,161.8L275.51,167.17L286.53,175.75L297.55,185.32L308.57,190.29L341.63,211.48L352.65,219.88L363.67,227.68L374.69,234.07L396.73,249.4L407.76,258.7L418.78,263.86L429.8,270.94L440.82,277.21L451.84,279.54L473.88,284.05L484.9,286.74L506.94,289.86L517.96,293.12L540,295.89" style="vector-effect: non-scaling-stroke; fill: none; stroke: rgb(99, 110, 250); stroke-opacity: 1; stroke-width: 2px; opacity: 1;"/></g><g class="points"/><g class="text"/></g><g class="trace scatter tracee44b1e" style="stroke-miterlimit: 2; opacity: 1;"><g class="fills"/><g class="errorbars"/><g class="lines"><path class="js-line" d="M0,0.79L11.02,20.91L22.04,27.08L33.06,29.98L44.08,31.89L66.12,34.58L77.14,34.31L88.16,35.19L99.18,35.19L110.2,35.64L121.22,34.93L165.31,33.99L176.33,34.35L209.39,31.93L220.41,32.53L231.43,32.77L242.45,34.22L253.47,35.45L264.49,37.76L275.51,38.99L286.53,41.08L319.59,47.6L330.61,48.85L352.65,52.84L363.67,54.9L440.82,69.26L451.84,70.23L528.98,74.95L540,75.45" style="vector-effect: non-scaling-stroke; fill: none; stroke: rgb(239, 85, 59); stroke-opacity: 1; stroke-width: 2px; opacity: 1;"/></g><g class="points"/><g class="text"/></g><g class="trace scatter trace206dff" style="stroke-miterlimit: 2; opacity: 1;"><g class="fills"/><g class="errorbars"/><g class="lines"><path class="js-line" d="M0,2.58L11.02,22.39L22.04,27.47L33.06,30.48L44.08,32.07L66.12,36.24L77.14,43.36L99.18,80.42L110.2,94.45L121.22,104.55L132.24,113.38L143.27,117.27L154.29,119.79L165.31,121.66L176.33,126.44L187.35,128.9L198.37,129.17L209.39,129.57L220.41,132.21L231.43,141.13L242.45,147.27L275.51,168.74L286.53,177.57L297.55,185.49L308.57,191.95L341.63,212.7L352.65,221.43L374.69,234.78L385.71,242.65L396.73,249.97L407.76,258.64L429.8,271.44L440.82,278.62L462.86,282.29L473.88,285.23L484.9,287.76L495.92,289.48L506.94,290.53L517.96,293.99L540,296.69" style="vector-effect: non-scaling-stroke; fill: none; stroke: rgb(0, 204, 150); stroke-opacity: 1; stroke-width: 2px; opacity: 1;"/></g><g class="points"/><g class="text"/></g><g class="trace scatter trace695222" style="stroke-miterlimit: 2; opacity: 1;"><g class="fills"/><g class="errorbars"/><g class="lines"><path class="js-line" d="M0,0.55L11.02,21.02L22.04,26.98L33.06,30.06L44.08,31.75L55.1,33.38L66.12,33.92L77.14,34.31L88.16,35.64L99.18,38.74L110.2,48.07L132.24,65.66L143.27,73.24L176.33,87.75L187.35,89.91L198.37,90.58L209.39,93.92L220.41,96.33L231.43,103.28L242.45,109.85L253.47,114.2L264.49,119.68L275.51,126.04L308.57,143.75L319.59,148.55L330.61,151.67L341.63,158.03L352.65,162.08L363.67,168.58L374.69,174.52L385.71,179.29L396.73,183.85L407.76,189.96L418.78,194.53L429.8,201.41L451.84,206.46L462.86,208.53L473.88,210.76L484.9,211.34L506.94,214.48L517.96,215.82L528.98,218.08L540,219.47" style="vector-effect: non-scaling-stroke; fill: none; stroke: rgb(171, 99, 250); stroke-opacity: 1; stroke-width: 2px; opacity: 1;"/></g><g class="points"/><g class="text"/></g><g class="trace scatter trace35e3ea" style="stroke-miterlimit: 2; opacity: 1;"><g class="fills"/><g class="errorbars"/><g class="lines"><path class="js-line" d="M0,0.53L11.02,21.05L22.04,26.75L33.06,30.18L44.08,31.73L55.1,33.59L66.12,34.51L77.14,34.5L88.16,35.72L99.18,41.02L110.2,49.52L121.22,57.47L132.24,60.83L143.27,65.29L154.29,67.22L165.31,68.38L176.33,70.7L187.35,71.25L198.37,70.35L209.39,70.89L220.41,72.45L242.45,77.74L253.47,81.66L264.49,85.01L275.51,87.26L286.53,91.97L297.55,93.89L330.61,106.81L341.63,110.05L352.65,114.85L363.67,118.08L374.69,125.09L385.71,130.47L396.73,134.8L407.76,141.63L429.8,152.6L440.82,156.35L473.88,163.83L484.9,165.79L495.92,168.37L506.94,169.76L540,174.43" style="vector-effect: non-scaling-stroke; fill: none; stroke: rgb(255, 161, 90); stroke-opacity: 1; stroke-width: 2px; opacity: 1;"/></g><g class="points"/><g class="text"/></g><g class="trace scatter trace910401" style="stroke-miterlimit: 2; opacity: 1;"><g class="fills"/><g class="errorbars"/><g class="lines"><path class="js-line" d="M0,0.74L11.02,20.9L22.04,27.05L44.08,32.37L55.1,33.33L77.14,34.73L88.16,34.65L110.2,35.64L121.22,34.46L176.33,33.51L187.35,32.2L198.37,32.5L209.39,31.49L231.43,32.32L242.45,33.99L286.53,40.74L297.55,42.93L363.67,54.52L374.69,56.76L429.8,68.25L440.82,69.88L495.92,74.24L506.94,75.12L540,77.3" style="vector-effect: non-scaling-stroke; fill: none; stroke: rgb(25, 211, 243); stroke-opacity: 1; stroke-width: 2px; opacity: 1;"/></g><g class="points"/><g class="text"/></g><g class="trace scatter trace078230" style="stroke-miterlimit: 2; opacity: 1;"><g class="fills"/><g class="errorbars"/><g class="lines"><path class="js-line" d="M0,0.48L11.02,21.4L22.04,27.1L44.08,32.14L55.1,33.21L66.12,34.48L77.14,34.14L88.16,35.26L99.18,34.94L110.2,35.29L121.22,34.82L154.29,34.21L165.31,35.57L176.33,44.51L187.35,54.65L198.37,61.54L209.39,66.59L220.41,73.08L231.43,80.91L264.49,100.49L275.51,105.91L297.55,119.26L308.57,125.49L319.59,129.73L330.61,134.9L341.63,142.6L352.65,146.3L363.67,152.44L374.69,160.1L396.73,169.08L407.76,175.36L418.78,179.96L429.8,185.95L440.82,188.91L451.84,190.85L473.88,195.43L484.9,196.64L540,203.64" style="vector-effect: non-scaling-stroke; fill: none; stroke: rgb(255, 102, 146); stroke-opacity: 1; stroke-width: 2px; opacity: 1;"/></g><g class="points"/><g class="text"/></g><g class="trace scatter traceec15d3" style="stroke-miterlimit: 2; opacity: 1;"><g class="fills"/><g class="errorbars"/><g class="lines"><path class="js-line" d="M0,0.7L11.02,20.97L22.04,26.69L33.06,30.17L44.08,31.88L55.1,33.33L66.12,33.6L77.14,34.87L88.16,35.33L99.18,34.88L110.2,35.29L132.24,34.83L143.27,34.67L165.31,33.84L176.33,33.98L187.35,32.17L198.37,32.57L209.39,31.7L220.41,32L231.43,32.36L242.45,33.88L253.47,35.1L264.49,37.15L286.53,40.21L297.55,42.54L341.63,50.34L352.65,51.78L440.82,67.37L451.84,68.27L540,74.37" style="vector-effect: non-scaling-stroke; fill: none; stroke: rgb(182, 232, 128); stroke-opacity: 1; stroke-width: 2px; opacity: 1;"/></g><g class="points"/><g class="text"/></g><g class="trace scatter trace9f1343" style="stroke-miterlimit: 2; opacity: 1;"><g class="fills"/><g class="errorbars"/><g class="lines"><path class="js-line" d="M0,0.31L11.02,21.35L22.04,27.21L33.06,30.06L44.08,32.02L66.12,34.14L77.14,34.55L110.2,35.71L121.22,34.29L143.27,34.93L154.29,34.47L176.33,34.23L187.35,32.88L198.37,33.2L209.39,32.14L231.43,32.49L242.45,34.06L330.61,48.59L341.63,50.84L352.65,52.07L363.67,54.14L429.8,65.65L440.82,67.03L540,73.62" style="vector-effect: non-scaling-stroke; fill: none; stroke: rgb(255, 151, 255); stroke-opacity: 1; stroke-width: 2px; opacity: 1;"/></g><g class="points"/><g class="text"/></g><g class="trace scatter trace4a3faf" style="stroke-miterlimit: 2; opacity: 1;"><g class="fills"/><g class="errorbars"/><g class="lines"><path class="js-line" d="M0,3.15L11.02,22.47L22.04,27.77L44.08,31.64L55.1,32.2L77.14,34.21L88.16,44.08L99.18,58.72L110.2,69.34L121.22,76.44L132.24,90.67L143.27,108.83L154.29,118.88L165.31,124.69L176.33,128.06L187.35,132.91L198.37,133.51L209.39,135.41L220.41,139.44L231.43,148.21L242.45,155.04L253.47,164.87L264.49,172.61L275.51,179.58L286.53,189.76L297.55,198.45L308.57,204.28L319.59,212.31L330.61,222.34L341.63,228.27L352.65,237.47L363.67,247.22L374.69,253.62L407.76,279.15L418.78,286.28L429.8,294.22L440.82,300.78L462.86,305.32L473.88,307.64L484.9,310.56L495.92,311.99L506.94,314.07L517.96,317.11L540,320" style="vector-effect: non-scaling-stroke; fill: none; stroke: rgb(254, 203, 82); stroke-opacity: 1; stroke-width: 2px; opacity: 1;"/></g><g class="points"/><g class="text"/></g><g class="trace scatter trace2cf885" style="stroke-miterlimit: 2; opacity: 1;"><g class="fills"/><g class="errorbars"/><g class="lines"><path class="js-line" d="M0,0.46L11.02,20.73L22.04,26.74L33.06,29.79L44.08,32.05L66.12,34.54L77.14,34.44L88.16,35.35L99.18,35.33L176.33,33.87L187.35,32.51L220.41,31.7L231.43,32.6L275.51,38.34L286.53,40.43L308.57,44.65L319.59,46.63L352.65,51.83L363.67,53.89L385.71,57.73L396.73,59.51L440.82,67.16L451.84,68.12L517.96,72.9L528.98,73.52L540,74.15" style="vector-effect: non-scaling-stroke; fill: none; stroke: rgb(99, 110, 250); stroke-opacity: 1; stroke-width: 2px; opacity: 1;"/></g><g class="points"/><g class="text"/></g><g class="trace scatter trace6bf078" style="stroke-miterlimit: 2; opacity: 1;"><g class="fills"/><g class="errorbars"/><g class="lines"><path class="js-line" d="M0,2.63L11.02,22.67L22.04,27.77L44.08,31.65L55.1,32.63L66.12,34.25L77.14,36.63L88.16,47.98L99.18,70.26L110.2,84.1L121.22,94.11L132.24,102.26L143.27,107.49L154.29,112.12L165.31,115.81L176.33,119.04L187.35,123.79L198.37,122.83L209.39,123.62L220.41,126.76L231.43,133.57L242.45,142.82L253.47,149.86L275.51,163.87L286.53,172.85L297.55,183.18L308.57,189.61L330.61,204.43L341.63,213.29L352.65,221.4L363.67,228.33L385.71,242.71L396.73,251.42L407.76,260.08L418.78,266.36L429.8,273.99L440.82,280.42L462.86,284.56L473.88,287.55L495.92,292.37L506.94,293.62L517.96,296.62L528.98,298.2L540,299.49" style="vector-effect: non-scaling-stroke; fill: none; stroke: rgb(239, 85, 59); stroke-opacity: 1; stroke-width: 2px; opacity: 1;"/></g><g class="points"/><g class="text"/></g><g class="trace scatter tracec54bf6" style="stroke-miterlimit: 2; opacity: 1;"><g class="fills"/><g class="errorbars"/><g class="lines"><path class="js-line" d="M0,0.27L11.02,20.97L22.04,27.44L44.08,31.85L55.1,33.08L88.16,34.92L99.18,35.12L110.2,35.33L121.22,34.64L176.33,33.47L187.35,31.88L198.37,32.59L209.39,31.56L231.43,32.06L242.45,33.87L264.49,36.66L275.51,39L363.67,54.35L374.69,56.41L440.82,67.57L451.84,68.45L540,74.75" style="vector-effect: non-scaling-stroke; fill: none; stroke: rgb(0, 204, 150); stroke-opacity: 1; stroke-width: 2px; opacity: 1;"/></g><g class="points"/><g class="text"/></g><g class="trace scatter trace48e916" style="stroke-miterlimit: 2; opacity: 1;"><g class="fills"/><g class="errorbars"/><g class="lines"><path class="js-line" d="M0,0.59L11.02,21.09L22.04,26.99L33.06,30.18L44.08,32.53L88.16,35.77L99.18,37.6L110.2,44.71L121.22,53.6L143.27,71.61L154.29,86.18L165.31,98.28L176.33,107.69L187.35,108.86L198.37,112.67L209.39,114.01L220.41,117.77L264.49,146.09L275.51,153.84L286.53,161.26L297.55,167.42L308.57,175.85L319.59,182.77L341.63,196.74L352.65,201.43L363.67,211.01L374.69,217.98L418.78,245.54L429.8,253.44L440.82,257.82L451.84,259.64L473.88,264.54L484.9,266.21L517.96,271.19L528.98,273.31L540,275.08" style="vector-effect: non-scaling-stroke; fill: none; stroke: rgb(171, 99, 250); stroke-opacity: 1; stroke-width: 2px; opacity: 1;"/></g><g class="points"/><g class="text"/></g><g class="trace scatter trace998789" style="stroke-miterlimit: 2; opacity: 1;"><g class="fills"/><g class="errorbars"/><g class="lines"><path class="js-line" d="M0,0.49L11.02,20.9L22.04,26.82L33.06,29.98L44.08,32L77.14,34.64L88.16,35.32L99.18,34.4L110.2,35.2L121.22,34.51L132.24,34.67L143.27,35.06L154.29,33.82L176.33,33.85L187.35,32.45L209.39,31.9L220.41,31.24L231.43,32.14L242.45,33.83L308.57,43.82L319.59,45.95L363.67,53.39L374.69,55.73L396.73,59.2L407.76,61.25L440.82,66.84L451.84,67.91L517.96,73.21L528.98,73.88L540,74.6" style="vector-effect: non-scaling-stroke; fill: none; stroke: rgb(255, 161, 90); stroke-opacity: 1; stroke-width: 2px; opacity: 1;"/></g><g class="points"/><g class="text"/></g><g class="trace scatter tracefe813b" style="stroke-miterlimit: 2; opacity: 1;"><g class="fills"/><g class="errorbars"/><g class="lines"><path class="js-line" d="M0,0.46L11.02,21.18L22.04,27.42L44.08,31.95L55.1,33.31L99.18,34.89L110.2,34.99L165.31,33.87L176.33,34.09L187.35,32.16L198.37,32.45L209.39,31.69L220.41,31.9L231.43,31.92L242.45,33.68L253.47,34.87L264.49,36.9L330.61,48.12L341.63,50.77L363.67,54.64L374.69,57.16L440.82,69.23L451.84,70.23L540,75.38" style="vector-effect: non-scaling-stroke; fill: none; stroke: rgb(25, 211, 243); stroke-opacity: 1; stroke-width: 2px; opacity: 1;"/></g><g class="points"/><g class="text"/></g><g class="trace scatter trace9e187d" style="stroke-miterlimit: 2; opacity: 1;"><g class="fills"/><g class="errorbars"/><g class="lines"><path class="js-line" d="M0,0.5L11.02,20.81L22.04,26.65L44.08,31.83L55.1,33.19L66.12,34.28L77.14,34.48L110.2,35.47L121.22,34.64L143.27,34.92L154.29,33.83L176.33,34.21L187.35,32.81L209.39,31.29L220.41,32.21L231.43,31.76L242.45,34.01L264.49,37.26L275.51,38.81L297.55,42.98L308.57,45.1L440.82,70.26L451.84,71.38L540,77" style="vector-effect: non-scaling-stroke; fill: none; stroke: rgb(255, 102, 146); stroke-opacity: 1; stroke-width: 2px; opacity: 1;"/></g><g class="points"/><g class="text"/></g><g class="trace scatter trace1e76ec" style="stroke-miterlimit: 2; opacity: 1;"><g class="fills"/><g class="errorbars"/><g class="lines"><path class="js-line" d="M0,0.2L11.02,20.66L22.04,26.79L33.06,30.05L44.08,31.62L55.1,33.56L66.12,34.02L88.16,34.76L99.18,36.33L110.2,41.8L121.22,49.85L143.27,61.14L154.29,63.43L209.39,78.58L220.41,83.72L231.43,89.97L242.45,98.07L253.47,103.6L264.49,109.97L275.51,114.51L286.53,121.24L297.55,125.28L308.57,133.17L330.61,141.35L341.63,146.8L363.67,158.6L374.69,164.35L407.76,179.06L418.78,184.44L429.8,189.89L440.82,193.16L462.86,197.12L473.88,198.81L484.9,199.9L495.92,201.92L517.96,204.45L528.98,206.08L540,207.38" style="vector-effect: non-scaling-stroke; fill: none; stroke: rgb(182, 232, 128); stroke-opacity: 1; stroke-width: 2px; opacity: 1;"/></g><g class="points"/><g class="text"/></g><g class="trace scatter trace0d60b5" style="stroke-miterlimit: 2; opacity: 1;"><g class="fills"/><g class="errorbars"/><g class="lines"><path class="js-line" d="M0,0.41L11.02,20.94L22.04,26.97L33.06,29.91L44.08,31.71L55.1,33.49L66.12,34.23L99.18,34.29L110.2,35.27L121.22,34.38L132.24,34.39L143.27,34.77L154.29,33.99L176.33,33.57L187.35,32.19L198.37,32.39L209.39,31.76L220.41,31.29L231.43,31.76L286.53,39.98L297.55,42.22L341.63,49.94L352.65,51.45L440.82,66.36L451.84,67.14L540,71.93" style="vector-effect: non-scaling-stroke; fill: none; stroke: rgb(255, 151, 255); stroke-opacity: 1; stroke-width: 2px; opacity: 1;"/></g><g class="points"/><g class="text"/></g><g class="trace scatter trace22e26b" style="stroke-miterlimit: 2; opacity: 1;"><g class="fills"/><g class="errorbars"/><g class="lines"><path class="js-line" d="M0,0.29L11.02,21.24L22.04,26.96L33.06,29.9L44.08,31.86L66.12,34.31L77.14,34.75L99.18,35.13L110.2,35.2L176.33,33.82L187.35,31.95L198.37,32.57L209.39,31.68L231.43,32.26L242.45,34.01L253.47,35.08L264.49,37.28L341.63,50.53L352.65,52.01L440.82,68.48L451.84,69.6L528.98,76.66L540,77.44" style="vector-effect: non-scaling-stroke; fill: none; stroke: rgb(254, 203, 82); stroke-opacity: 1; stroke-width: 2px; opacity: 1;"/></g><g class="points"/><g class="text"/></g><g class="trace scatter trace5d92a5" style="stroke-miterlimit: 2; opacity: 1;"><g class="fills"/><g class="errorbars"/><g class="lines"><path class="js-line" d="M0,0.73L11.02,20.76L22.04,26.88L33.06,29.71L44.08,31.68L77.14,34.97L88.16,35.2L121.22,34.86L132.24,38.65L143.27,48.84L154.29,56.8L176.33,73.68L187.35,76.86L220.41,89.1L231.43,93.62L242.45,98.54L253.47,104.78L264.49,110.38L275.51,113.68L286.53,120.47L297.55,125.54L308.57,132.58L319.59,137.68L330.61,141.12L341.63,148.08L352.65,152.77L363.67,159.21L385.71,170.53L396.73,174.96L407.76,181.01L418.78,186.16L429.8,191.94L440.82,194.93L451.84,197.25L462.86,198.8L473.88,201.2L484.9,202.3L540,209.48" style="vector-effect: non-scaling-stroke; fill: none; stroke: rgb(99, 110, 250); stroke-opacity: 1; stroke-width: 2px; opacity: 1;"/></g><g class="points"/><g class="text"/></g><g class="trace scatter tracecb7cc6" style="stroke-miterlimit: 2; opacity: 1;"><g class="fills"/><g class="errorbars"/><g class="lines"><path class="js-line" d="M0,2.82L11.02,22.09L22.04,27.61L33.06,30.51L44.08,31.68L55.1,32.59L66.12,34.94L77.14,36.8L88.16,45.85L110.2,67.95L121.22,82.09L132.24,94.77L143.27,104.42L154.29,110.21L165.31,112.63L176.33,116.97L187.35,120.49L198.37,120.41L209.39,123.54L220.41,127.39L231.43,135.93L242.45,143.76L253.47,153.57L264.49,161.34L275.51,168.18L286.53,176.13L297.55,186.3L319.59,200.93L330.61,210.38L341.63,217.3L352.65,227.17L363.67,235.09L374.69,244.01L385.71,251L396.73,259.81L407.76,268.55L418.78,275.11L429.8,282.87L440.82,289.67L473.88,296.55L484.9,299.47L506.94,302.85L517.96,305.73L540,309.32" style="vector-effect: non-scaling-stroke; fill: none; stroke: rgb(239, 85, 59); stroke-opacity: 1; stroke-width: 2px; opacity: 1;"/></g><g class="points"/><g class="text"/></g><g class="trace scatter trace38529c" style="stroke-miterlimit: 2; opacity: 1;"><g class="fills"/><g class="errorbars"/><g class="lines"><path class="js-line" d="M0,0.96L11.02,21.25L22.04,27.12L33.06,29.87L44.08,31.71L66.12,34.13L77.14,34.17L88.16,35.72L99.18,40.84L110.2,50.61L121.22,57.85L132.24,62.44L143.27,66.07L165.31,69.02L176.33,69.94L187.35,71.21L198.37,69.78L220.41,72.5L231.43,75.58L264.49,85.28L275.51,88.73L286.53,94.05L297.55,96.66L319.59,107.56L330.61,112.04L363.67,125.9L374.69,132.02L385.71,137.54L396.73,141.53L407.76,148.14L418.78,153.33L429.8,159.14L440.82,162.79L495.92,173.55L506.94,174.91L540,179.79" style="vector-effect: non-scaling-stroke; fill: none; stroke: rgb(0, 204, 150); stroke-opacity: 1; stroke-width: 2px; opacity: 1;"/></g><g class="points"/><g class="text"/></g><g class="trace scatter trace8316b2" style="stroke-miterlimit: 2; opacity: 1;"><g class="fills"/><g class="errorbars"/><g class="lines"><path class="js-line" d="M0,0.83L11.02,21.11L22.04,27.25L44.08,32.12L55.1,33.69L66.12,34.83L77.14,34.87L110.2,36.1L121.22,35.39L132.24,37.27L143.27,47.55L154.29,60.17L165.31,68.28L176.33,76.29L187.35,80.18L198.37,82.94L209.39,87.14L220.41,91.75L231.43,98.88L264.49,116.06L275.51,120.66L286.53,128.02L297.55,133L308.57,140.05L319.59,143.51L341.63,155.04L352.65,158.01L374.69,171.01L385.71,175.55L396.73,180.29L407.76,185.86L418.78,190.95L429.8,197.02L440.82,200.01L451.84,201.86L473.88,206.02L484.9,206.93L506.94,209.76L517.96,211.33L540,214.34" style="vector-effect: non-scaling-stroke; fill: none; stroke: rgb(171, 99, 250); stroke-opacity: 1; stroke-width: 2px; opacity: 1;"/></g><g class="points"/><g class="text"/></g><g class="trace scatter tracee07a2e" style="stroke-miterlimit: 2; opacity: 1;"><g class="fills"/><g class="errorbars"/><g class="lines"><path class="js-line" d="M0,0.52L11.02,21.33L22.04,26.76L33.06,29.91L44.08,31.72L55.1,33.51L66.12,34.46L77.14,36.56L88.16,43.63L110.2,62.9L121.22,72.62L132.24,78.53L143.27,85.46L154.29,89.62L165.31,92.77L176.33,94.67L187.35,95.59L198.37,95.82L209.39,97.63L220.41,101.71L231.43,106.75L242.45,113.4L253.47,117.92L286.53,135.97L297.55,142.83L319.59,156.08L330.61,160.15L341.63,166.6L352.65,171.04L363.67,179.09L374.69,185.58L396.73,195.31L407.76,202.67L418.78,206.58L429.8,214L473.88,224.18L484.9,225.47L506.94,228.21L517.96,230.3L540,233.43" style="vector-effect: non-scaling-stroke; fill: none; stroke: rgb(255, 161, 90); stroke-opacity: 1; stroke-width: 2px; opacity: 1;"/></g><g class="points"/><g class="text"/></g><g class="trace scatter trace8fe3f3" style="stroke-miterlimit: 2; opacity: 1;"><g class="fills"/><g class="errorbars"/><g class="lines"><path class="js-line" d="M0,0.47L11.02,20.99L22.04,27.06L44.08,32.11L55.1,33.3L77.14,34.7L88.16,35.07L143.27,34.49L154.29,33.61L165.31,33.68L176.33,32.91L187.35,31.77L198.37,32.04L220.41,32.08L231.43,32.48L253.47,34.88L264.49,36.95L308.57,43.83L319.59,45.81L418.78,61.38L429.8,63.77L451.84,67.03L462.86,68.19L540,73.37" style="vector-effect: non-scaling-stroke; fill: none; stroke: rgb(25, 211, 243); stroke-opacity: 1; stroke-width: 2px; opacity: 1;"/></g><g class="points"/><g class="text"/></g><g class="trace scatter trace4007bb" style="stroke-miterlimit: 2; opacity: 1;"><g class="fills"/><g class="errorbars"/><g class="lines"><path class="js-line" d="M0,2.21L11.02,22.46L22.04,27.47L44.08,31.9L55.1,32.71L66.12,36.51L77.14,43.1L88.16,57.2L99.18,78.65L110.2,94.99L121.22,103.6L132.24,110.7L143.27,113.89L154.29,117.6L165.31,119.65L176.33,121.9L187.35,125.44L198.37,125.22L209.39,128.25L220.41,130.16L231.43,140.22L242.45,148.74L253.47,155.91L264.49,164.25L275.51,169.81L286.53,176.41L297.55,186.6L308.57,191.62L319.59,198.71L330.61,206.68L341.63,212.81L363.67,228.08L374.69,233.86L385.71,240.79L396.73,248.63L407.76,256.94L418.78,263.13L429.8,271.09L440.82,276.97L484.9,286.38L495.92,287.73L506.94,289.11L517.96,292.66L528.98,294.37L540,295.28" style="vector-effect: non-scaling-stroke; fill: none; stroke: rgb(255, 102, 146); stroke-opacity: 1; stroke-width: 2px; opacity: 1;"/></g><g class="points"/><g class="text"/></g><g class="trace scatter trace4ccddc" style="stroke-miterlimit: 2; opacity: 1;"><g class="fills"/><g class="errorbars"/><g class="lines"><path class="js-line" d="M0,0.88L11.02,20.79L22.04,27.05L44.08,31.83L55.1,33.67L88.16,34.97L99.18,35.06L110.2,35.52L121.22,34.55L132.24,34.48L143.27,35.18L154.29,34.17L165.31,34.22L187.35,32.95L198.37,33.18L209.39,32.23L220.41,32.36L231.43,32.66L242.45,34.33L286.53,41.39L297.55,43.75L341.63,52.48L352.65,54.25L407.76,64.97L418.78,66.98L440.82,70.93L451.84,71.88L506.94,75.86L517.96,76.69L540,78.15" style="vector-effect: non-scaling-stroke; fill: none; stroke: rgb(182, 232, 128); stroke-opacity: 1; stroke-width: 2px; opacity: 1;"/></g><g class="points"/><g class="text"/></g><g class="trace scatter trace918457" style="stroke-miterlimit: 2; opacity: 1;"><g class="fills"/><g class="errorbars"/><g class="lines"><path class="js-line" d="M0,0.35L11.02,20.97L22.04,26.91L33.06,29.84L44.08,31.93L66.12,34.5L77.14,34.38L99.18,35.61L110.2,40.95L121.22,49.92L132.24,57.45L143.27,63.52L154.29,65.27L176.33,68.79L187.35,70.11L198.37,69.03L209.39,70.35L220.41,71.46L231.43,74.49L242.45,76.9L253.47,80.74L275.51,86.02L286.53,90.86L297.55,92.98L308.57,96.97L341.63,108.13L352.65,112.95L363.67,116.46L374.69,121.71L385.71,127.19L396.73,131.37L407.76,137.64L418.78,142.52L429.8,148.35L440.82,151.88L506.94,164.16L517.96,165.72L540,168.65" style="vector-effect: non-scaling-stroke; fill: none; stroke: rgb(255, 151, 255); stroke-opacity: 1; stroke-width: 2px; opacity: 1;"/></g><g class="points"/><g class="text"/></g><g class="trace scatter trace6b7b40" style="stroke-miterlimit: 2; opacity: 1;"><g class="fills"/><g class="errorbars"/><g class="lines"><path class="js-line" d="M0,0.38L11.02,20.98L22.04,26.94L44.08,32.47L55.1,33.36L77.14,34.68L88.16,35.19L99.18,34.65L110.2,35.38L132.24,34.67L143.27,34.93L154.29,33.96L165.31,33.8L176.33,33.67L187.35,32.57L209.39,31.61L220.41,32.27L231.43,31.81L242.45,33.84L286.53,40.23L297.55,42.3L341.63,50.28L352.65,51.94L396.73,59.33L407.76,61.81L440.82,67.81L451.84,68.76L506.94,72.26L517.96,72.98L540,74.11" style="vector-effect: non-scaling-stroke; fill: none; stroke: rgb(254, 203, 82); stroke-opacity: 1; stroke-width: 2px; opacity: 1;"/></g><g class="points"/><g class="text"/></g><g class="trace scatter trace207b0a" style="stroke-miterlimit: 2; opacity: 1;"><g class="fills"/><g class="errorbars"/><g class="lines"><path class="js-line" d="M0,0.65L11.02,20.97L22.04,26.92L33.06,29.97L44.08,32.02L66.12,34.18L77.14,34.59L88.16,35.43L99.18,35.35L143.27,35.31L154.29,34.43L165.31,35.07L176.33,37.72L187.35,47.1L198.37,53.19L209.39,57.61L220.41,60.85L242.45,68.67L253.47,72.43L286.53,82.64L297.55,85.27L319.59,93.47L330.61,96.64L363.67,108.07L374.69,114.11L385.71,120.03L396.73,125.09L407.76,132.06L418.78,137.92L429.8,143.86L440.82,147.76L462.86,152.76L473.88,154.24L495.92,157.9L506.94,159.9L517.96,160.97L528.98,162.84L540,164.17" style="vector-effect: non-scaling-stroke; fill: none; stroke: rgb(99, 110, 250); stroke-opacity: 1; stroke-width: 2px; opacity: 1;"/></g><g class="points"/><g class="text"/></g><g class="trace scatter traceab559b" style="stroke-miterlimit: 2; opacity: 1;"><g class="fills"/><g class="errorbars"/><g class="lines"><path class="js-line" d="M0,0.65L11.02,21.19L22.04,26.94L33.06,29.88L44.08,31.91L66.12,34.66L77.14,34.72L88.16,35.28L99.18,34.97L110.2,35.36L121.22,34.75L165.31,34.17L176.33,33.82L187.35,32.19L198.37,32.35L209.39,31.51L220.41,32.03L231.43,32.21L242.45,33.7L264.49,37.65L275.51,38.5L308.57,44.74L319.59,46.77L363.67,53.97L374.69,56.27L440.82,67.35L451.84,68.2L540,73.57" style="vector-effect: non-scaling-stroke; fill: none; stroke: rgb(239, 85, 59); stroke-opacity: 1; stroke-width: 2px; opacity: 1;"/></g><g class="points"/><g class="text"/></g><g class="trace scatter trace3a9e79" style="stroke-miterlimit: 2; opacity: 1;"><g class="fills"/><g class="errorbars"/><g class="lines"><path class="js-line" d="M0,0.65L11.02,20.84L22.04,26.9L33.06,30.16L44.08,32.01L66.12,34.11L77.14,34.34L99.18,35.28L110.2,35.35L132.24,34.75L143.27,34.97L165.31,33.95L176.33,34.13L187.35,32.49L198.37,32.01L209.39,31.48L220.41,31.86L231.43,31.88L242.45,34.06L275.51,39.18L286.53,41.09L341.63,51.1L352.65,52.72L363.67,54.36L374.69,56.83L440.82,68.27L451.84,69.4L540,76.73" style="vector-effect: non-scaling-stroke; fill: none; stroke: rgb(0, 204, 150); stroke-opacity: 1; stroke-width: 2px; opacity: 1;"/></g><g class="points"/><g class="text"/></g><g class="trace scatter trace15e51f" style="stroke-miterlimit: 2; opacity: 1;"><g class="fills"/><g class="errorbars"/><g class="lines"><path class="js-line" d="M0,2.72L11.02,22.42L22.04,27.57L44.08,32.27L55.1,32.5L77.14,35.94L88.16,44.14L99.18,64.26L110.2,81.81L121.22,94.89L132.24,104.16L154.29,114.74L165.31,116.72L198.37,126.24L209.39,126.42L220.41,131.67L231.43,139.81L242.45,147.27L253.47,156.78L264.49,165.17L275.51,170.47L286.53,178.97L297.55,188.63L341.63,216.75L352.65,224.83L374.69,238.15L385.71,245.93L396.73,252.33L407.76,260.69L418.78,267L429.8,274.49L440.82,279.9L451.84,282.76L462.86,284.6L473.88,287.49L484.9,290.45L495.92,291.2L506.94,292.74L517.96,295.74L540,299.21" style="vector-effect: non-scaling-stroke; fill: none; stroke: rgb(171, 99, 250); stroke-opacity: 1; stroke-width: 2px; opacity: 1;"/></g><g class="points"/><g class="text"/></g><g class="trace scatter trace513f97" style="stroke-miterlimit: 2; opacity: 1;"><g class="fills"/><g class="errorbars"/><g class="lines"><path class="js-line" d="M0,0.62L11.02,21.06L22.04,26.92L33.06,30.26L44.08,32.32L88.16,35.82L99.18,37.45L121.22,54.87L132.24,61.7L143.27,68.9L154.29,75.01L165.31,85.91L176.33,94.91L187.35,97.63L198.37,99.32L231.43,115.42L242.45,123.08L253.47,127.84L264.49,134.06L275.51,140.54L286.53,147.91L297.55,153.54L308.57,161.02L319.59,167.11L330.61,171.3L341.63,179.35L352.65,183.94L374.69,200.08L385.71,205L396.73,211.49L407.76,219.32L418.78,225.08L429.8,232.97L440.82,237.38L451.84,239.98L473.88,245.01L484.9,246.33L506.94,250.01L517.96,251.52L540,255.56" style="vector-effect: non-scaling-stroke; fill: none; stroke: rgb(255, 161, 90); stroke-opacity: 1; stroke-width: 2px; opacity: 1;"/></g><g class="points"/><g class="text"/></g><g class="trace scatter tracee0f9f2" style="stroke-miterlimit: 2; opacity: 1;"><g class="fills"/><g class="errorbars"/><g class="lines"><path class="js-line" d="M0,0.52L11.02,20.77L22.04,26.86L33.06,29.78L44.08,31.8L55.1,33.45L66.12,34.23L88.16,34.98L99.18,34.97L110.2,35.53L121.22,34.68L176.33,33.42L187.35,32.42L198.37,32.37L209.39,31.22L231.43,32.61L242.45,34.14L286.53,40.73L297.55,42.88L374.69,56.42L385.71,58.62L407.76,62.83L418.78,65.2L440.82,69.29L451.84,70.23L517.96,74.53L528.98,75.16L540,75.73" style="vector-effect: non-scaling-stroke; fill: none; stroke: rgb(25, 211, 243); stroke-opacity: 1; stroke-width: 2px; opacity: 1;"/></g><g class="points"/><g class="text"/></g><g class="trace scatter tracec9614c" style="stroke-miterlimit: 2; opacity: 1;"><g class="fills"/><g class="errorbars"/><g class="lines"><path class="js-line" d="M0,0.5L11.02,21.09L22.04,26.94L33.06,30.09L44.08,31.67L55.1,33.28L66.12,34.02L99.18,35.17L110.2,35.44L132.24,34.74L143.27,34.68L154.29,33.86L165.31,34.09L176.33,34.05L187.35,32.41L198.37,32.99L209.39,32.14L231.43,32.95L242.45,34.23L286.53,41.39L297.55,43.51L385.71,59.38L396.73,61.46L429.8,68.49L440.82,70.15L506.94,74.63L517.96,75.34L540,76.65" style="vector-effect: non-scaling-stroke; fill: none; stroke: rgb(255, 102, 146); stroke-opacity: 1; stroke-width: 2px; opacity: 1;"/></g><g class="points"/><g class="text"/></g><g class="trace scatter trace806da5" style="stroke-miterlimit: 2; opacity: 1;"><g class="fills"/><g class="errorbars"/><g class="lines"><path class="js-line" d="M0,0.33L11.02,21.11L22.04,27.12L33.06,30.28L44.08,31.81L77.14,34.42L88.16,35.11L143.27,34.88L154.29,33.8L176.33,34.02L187.35,38.27L209.39,55.76L220.41,61.93L231.43,66.41L242.45,71.7L253.47,74.57L264.49,78.63L286.53,86.03L297.55,88.95L341.63,104.21L352.65,107.37L363.67,111.37L374.69,116.25L385.71,121.28L396.73,124.41L407.76,130.51L418.78,134.67L429.8,139.34L440.82,142.78L473.88,148.47L484.9,149.7L495.92,152L506.94,153.29L540,157.22" style="vector-effect: non-scaling-stroke; fill: none; stroke: rgb(182, 232, 128); stroke-opacity: 1; stroke-width: 2px; opacity: 1;"/></g><g class="points"/><g class="text"/></g><g class="trace scatter trace77f74d" style="stroke-miterlimit: 2; opacity: 1;"><g class="fills"/><g class="errorbars"/><g class="lines"><path class="js-line" d="M0,0.56L11.02,21.1L22.04,27.06L33.06,29.73L44.08,31.46L66.12,34.1L77.14,34.28L110.2,35.39L121.22,34.34L143.27,35.32L154.29,34.05L176.33,34.01L187.35,32.57L198.37,32.77L209.39,31.65L231.43,32.3L242.45,33.9L330.61,48.55L341.63,50.64L385.71,59.03L396.73,61.01L440.82,69.13L451.84,70.19L540,75.65" style="vector-effect: non-scaling-stroke; fill: none; stroke: rgb(255, 151, 255); stroke-opacity: 1; stroke-width: 2px; opacity: 1;"/></g><g class="points"/><g class="text"/></g><g class="trace scatter trace288023" style="stroke-miterlimit: 2; opacity: 1;"><g class="fills"/><g class="errorbars"/><g class="lines"><path class="js-line" d="M0,0.61L11.02,20.56L22.04,27.01L33.06,30.07L44.08,32.24L66.12,34.07L77.14,34.43L99.18,34.64L110.2,35.24L121.22,34.15L132.24,34.6L176.33,33.71L187.35,32.42L198.37,32.7L209.39,31.87L231.43,31.87L242.45,34.07L253.47,34.93L264.49,37.34L286.53,40.4L297.55,41.87L396.73,59.93L407.76,62.12L440.82,67.49L451.84,68.4L528.98,73.12L540,73.7" style="vector-effect: non-scaling-stroke; fill: none; stroke: rgb(254, 203, 82); stroke-opacity: 1; stroke-width: 2px; opacity: 1;"/></g><g class="points"/><g class="text"/></g><g class="trace scatter tracec203d8" style="stroke-miterlimit: 2; opacity: 1;"><g class="fills"/><g class="errorbars"/><g class="lines"><path class="js-line" d="M0,3L11.02,22.61L22.04,27.68L44.08,31.81L55.1,32.93L77.14,35.82L88.16,42.18L99.18,63.63L110.2,80.6L121.22,93.48L132.24,103.38L154.29,114.33L165.31,118.19L187.35,125.92L198.37,126.42L209.39,128.39L220.41,132.2L253.47,155.87L264.49,163.56L286.53,177.78L297.55,188.21L308.57,192.42L319.59,200.84L330.61,209.29L341.63,214.87L352.65,223.64L363.67,230.05L385.71,244.09L396.73,252.05L407.76,260.17L418.78,265.4L440.82,278.8L451.84,280.98L462.86,282.27L473.88,285.02L484.9,287.75L495.92,288.84L528.98,295.5L540,296.38" style="vector-effect: non-scaling-stroke; fill: none; stroke: rgb(99, 110, 250); stroke-opacity: 1; stroke-width: 2px; opacity: 1;"/></g><g class="points"/><g class="text"/></g><g class="trace scatter trace5af24b" style="stroke-miterlimit: 2; opacity: 1;"><g class="fills"/><g class="errorbars"/><g class="lines"><path class="js-line" d="M0,0.75L11.02,20.85L22.04,26.83L33.06,29.66L44.08,31.54L66.12,34.13L77.14,34.43L88.16,35.25L99.18,34.63L110.2,35.38L121.22,34.7L132.24,34.26L143.27,35.25L154.29,34.25L165.31,34.4L176.33,34.5L187.35,33.16L220.41,32.65L231.43,33.03L242.45,34.21L253.47,36.19L264.49,38.11L275.51,39.11L308.57,45.52L319.59,47.03L374.69,56.58L385.71,58.36L440.82,67.63L451.84,68.53L540,73.91" style="vector-effect: non-scaling-stroke; fill: none; stroke: rgb(239, 85, 59); stroke-opacity: 1; stroke-width: 2px; opacity: 1;"/></g><g class="points"/><g class="text"/></g><g class="trace scatter traceb0c3a3" style="stroke-miterlimit: 2; opacity: 1;"><g class="fills"/><g class="errorbars"/><g class="lines"><path class="js-line" d="M0,0.67L11.02,21.21L22.04,26.75L33.06,30.24L44.08,31.46L66.12,34.33L77.14,34.29L88.16,35.14L99.18,34.77L110.2,35.14L121.22,34.67L143.27,34.72L154.29,33.69L176.33,34.22L187.35,32.68L198.37,32.78L209.39,31.87L231.43,32.06L242.45,33.91L253.47,34.76L264.49,37.07L275.51,38.29L286.53,40.65L341.63,50.45L352.65,52.3L440.82,66.97L451.84,67.86L540,73" style="vector-effect: non-scaling-stroke; fill: none; stroke: rgb(0, 204, 150); stroke-opacity: 1; stroke-width: 2px; opacity: 1;"/></g><g class="points"/><g class="text"/></g><g class="trace scatter trace479e8c" style="stroke-miterlimit: 2; opacity: 1;"><g class="fills"/><g class="errorbars"/><g class="lines"><path class="js-line" d="M0,0.57L11.02,21.09L22.04,26.86L33.06,30.05L44.08,31.95L77.14,34.64L88.16,35.1L176.33,33.88L187.35,31.94L198.37,32.17L209.39,31.47L220.41,31.42L231.43,32.28L242.45,33.21L253.47,34.9L286.53,40.17L297.55,42.37L308.57,44.63L319.59,45.93L374.69,55.63L385.71,57.46L440.82,66.89L451.84,67.95L540,73.91" style="vector-effect: non-scaling-stroke; fill: none; stroke: rgb(171, 99, 250); stroke-opacity: 1; stroke-width: 2px; opacity: 1;"/></g><g class="points"/><g class="text"/></g><g class="trace scatter tracefd4c5f" style="stroke-miterlimit: 2; opacity: 1;"><g class="fills"/><g class="errorbars"/><g class="lines"><path class="js-line" d="M0,2.48L11.02,22.45L22.04,27.21L33.06,30.01L44.08,31.73L55.1,32.8L66.12,34.75L77.14,36.07L88.16,39.26L110.2,67.21L121.22,84.6L132.24,101.36L143.27,107.53L154.29,112.35L165.31,115.49L187.35,119.99L198.37,120.06L220.41,123.31L231.43,132.04L286.53,167.67L297.55,176.76L319.59,187.97L330.61,195.78L341.63,201.96L352.65,209.32L374.69,222.73L385.71,230.65L429.8,257.85L440.82,263.5L451.84,266.16L462.86,267.74L484.9,272.84L495.92,274.41L506.94,275.81L517.96,279.01L540,281.65" style="vector-effect: non-scaling-stroke; fill: none; stroke: rgb(255, 161, 90); stroke-opacity: 1; stroke-width: 2px; opacity: 1;"/></g><g class="points"/><g class="text"/></g><g class="trace scatter trace6730c9" style="stroke-miterlimit: 2; opacity: 1;"><g class="fills"/><g class="errorbars"/><g class="lines"><path class="js-line" d="M0,0.48L11.02,20.94L22.04,26.93L33.06,30.12L44.08,31.85L55.1,33.93L66.12,34.03L99.18,34.68L110.2,35.24L121.22,34.56L132.24,34.79L154.29,34.11L165.31,33.56L176.33,33.72L187.35,32.31L198.37,32.51L209.39,31.89L231.43,32.2L242.45,33.7L253.47,34.74L264.49,36.9L275.51,38.21L286.53,40.48L308.57,43.87L319.59,46.33L330.61,47.85L341.63,50.35L352.65,51.85L363.67,54.13L429.8,67.6L440.82,69.1L473.88,71.69L484.9,72.38L540,75.79" style="vector-effect: non-scaling-stroke; fill: none; stroke: rgb(25, 211, 243); stroke-opacity: 1; stroke-width: 2px; opacity: 1;"/></g><g class="points"/><g class="text"/></g><g class="trace scatter trace1d8d0f" style="stroke-miterlimit: 2; opacity: 1;"><g class="fills"/><g class="errorbars"/><g class="lines"><path class="js-line" d="M0,2.65L11.02,22.48L22.04,27.73L44.08,32.18L55.1,32.73L77.14,38.31L88.16,51.44L99.18,71.87L110.2,85.36L121.22,94L132.24,101.26L154.29,112.04L165.31,115.44L176.33,119.48L187.35,124.36L198.37,125.34L209.39,127.37L220.41,131.67L231.43,138.72L253.47,154.33L264.49,160.77L275.51,166.14L286.53,173.22L297.55,182.22L308.57,186.91L319.59,193.59L330.61,201.29L341.63,207.35L352.65,214.7L363.67,221.59L374.69,227.08L385.71,235.08L396.73,241.86L407.76,249.64L418.78,254.83L440.82,268.38L451.84,270.53L462.86,272.06L473.88,274.73L484.9,276.93L495.92,278.35L528.98,284.47L540,285.84" style="vector-effect: non-scaling-stroke; fill: none; stroke: rgb(255, 102, 146); stroke-opacity: 1; stroke-width: 2px; opacity: 1;"/></g><g class="points"/><g class="text"/></g><g class="trace scatter tracec357a1" style="stroke-miterlimit: 2; opacity: 1;"><g class="fills"/><g class="errorbars"/><g class="lines"><path class="js-line" d="M0,2.49L11.02,22.66L22.04,27.26L33.06,29.69L44.08,31.35L55.1,31.8L66.12,33.2L77.14,34.07L88.16,37.96L99.18,51.1L110.2,60.09L121.22,64.5L132.24,75.34L143.27,87.76L154.29,96.35L165.31,105L176.33,110.2L187.35,115.02L198.37,116.76L220.41,124.68L231.43,133.06L242.45,139.52L253.47,148.74L264.49,156.91L275.51,162.55L286.53,169.94L297.55,180L308.57,184.82L319.59,193.64L330.61,199.04L341.63,207.08L374.69,231.22L385.71,238.25L396.73,247.58L407.76,255.29L418.78,261.89L429.8,269.98L440.82,276.13L451.84,278.94L462.86,280.2L473.88,283.28L484.9,285.99L495.92,287.66L506.94,289.29L517.96,292.64L528.98,293.34L540,294.86" style="vector-effect: non-scaling-stroke; fill: none; stroke: rgb(182, 232, 128); stroke-opacity: 1; stroke-width: 2px; opacity: 1;"/></g><g class="points"/><g class="text"/></g><g class="trace scatter traced63e40" style="stroke-miterlimit: 2; opacity: 1;"><g class="fills"/><g class="errorbars"/><g class="lines"><path class="js-line" d="M0,0.38L11.02,21.01L22.04,26.69L33.06,29.91L44.08,31.69L77.14,34.4L88.16,34.53L110.2,35.33L121.22,34.32L143.27,35.42L154.29,33.82L176.33,33.84L187.35,32.53L198.37,32.92L209.39,31.86L220.41,31.73L231.43,32.42L275.51,39.08L286.53,41.13L341.63,50.74L352.65,52.28L385.71,58.4L396.73,60.28L429.8,66.35L440.82,67.68L484.9,70.71L495.92,71.43L540,74.15" style="vector-effect: non-scaling-stroke; fill: none; stroke: rgb(255, 151, 255); stroke-opacity: 1; stroke-width: 2px; opacity: 1;"/></g><g class="points"/><g class="text"/></g><g class="trace scatter trace7789fd" style="stroke-miterlimit: 2; opacity: 1;"><g class="fills"/><g class="errorbars"/><g class="lines"><path class="js-line" d="M0,0.69L11.02,21.19L22.04,27.3L44.08,32.3L55.1,33.52L77.14,34.65L88.16,35.13L110.2,35.64L121.22,34.68L143.27,34.68L154.29,33.88L176.33,33.71L187.35,31.72L198.37,32.11L209.39,31.21L231.43,31.98L242.45,33.35L264.49,36.6L275.51,38.11L319.59,46.46L330.61,48.09L440.82,69.73L451.84,70.64L517.96,75.3L528.98,76.07L540,76.67" style="vector-effect: non-scaling-stroke; fill: none; stroke: rgb(254, 203, 82); stroke-opacity: 1; stroke-width: 2px; opacity: 1;"/></g><g class="points"/><g class="text"/></g></g></g><g class="overplot"/><path class="xlines-above crisp" d="M0,0" style="fill: none;"/><path class="ylines-above crisp" d="M0,0" style="fill: none;"/><g class="overlines-above"/><g class="xaxislayer-above"><g class="xtick"><text text-anchor="middle" x="0" y="433" transform="translate(80,0)" style="font-family: 'Open Sans', verdana, arial, sans-serif; font-size: 12px; fill: rgb(42, 63, 95); fill-opacity: 1; white-space: pre; opacity: 1;">0</text></g><g class="xtick"><text text-anchor="middle" x="0" y="433" style="font-family: 'Open Sans', verdana, arial, sans-serif; font-size: 12px; fill: rgb(42, 63, 95); fill-opacity: 1; white-space: pre; opacity: 1;" transform="translate(190.2,0)">10</text></g><g class="xtick"><text text-anchor="middle" x="0" y="433" style="font-family: 'Open Sans', verdana, arial, sans-serif; font-size: 12px; fill: rgb(42, 63, 95); fill-opacity: 1; white-space: pre; opacity: 1;" transform="translate(300.40999999999997,0)">20</text></g><g class="xtick"><text text-anchor="middle" x="0" y="433" style="font-family: 'Open Sans', verdana, arial, sans-serif; font-size: 12px; fill: rgb(42, 63, 95); fill-opacity: 1; white-space: pre; opacity: 1;" transform="translate(410.61,0)">30</text></g><g class="xtick"><text text-anchor="middle" x="0" y="433" style="font-family: 'Open Sans', verdana, arial, sans-serif; font-size: 12px; fill: rgb(42, 63, 95); fill-opacity: 1; white-space: pre; opacity: 1;" transform="translate(520.8199999999999,0)">40</text></g></g><g class="yaxislayer-above"><g class="ytick"><text text-anchor="end" x="79" y="4.199999999999999" transform="translate(0,404.78)" style="font-family: 'Open Sans', verdana, arial, sans-serif; font-size: 12px; fill: rgb(42, 63, 95); fill-opacity: 1; white-space: pre; opacity: 1;">5.25</text></g><g class="ytick"><text text-anchor="end" x="79" y="4.199999999999999" style="font-family: 'Open Sans', verdana, arial, sans-serif; font-size: 12px; fill: rgb(42, 63, 95); fill-opacity: 1; white-space: pre; opacity: 1;" transform="translate(0,358.32)">5.3</text></g><g class="ytick"><text text-anchor="end" x="79" y="4.199999999999999" style="font-family: 'Open Sans', verdana, arial, sans-serif; font-size: 12px; fill: rgb(42, 63, 95); fill-opacity: 1; white-space: pre; opacity: 1;" transform="translate(0,311.87)">5.35</text></g><g class="ytick"><text text-anchor="end" x="79" y="4.199999999999999" style="font-family: 'Open Sans', verdana, arial, sans-serif; font-size: 12px; fill: rgb(42, 63, 95); fill-opacity: 1; white-space: pre; opacity: 1;" transform="translate(0,265.41999999999996)">5.4</text></g><g class="ytick"><text text-anchor="end" x="79" y="4.199999999999999" style="font-family: 'Open Sans', verdana, arial, sans-serif; font-size: 12px; fill: rgb(42, 63, 95); fill-opacity: 1; white-space: pre; opacity: 1;" transform="translate(0,218.95999999999998)">5.45</text></g><g class="ytick"><text text-anchor="end" x="79" y="4.199999999999999" style="font-family: 'Open Sans', verdana, arial, sans-serif; font-size: 12px; fill: rgb(42, 63, 95); fill-opacity: 1; white-space: pre; opacity: 1;" transform="translate(0,172.51)">5.5</text></g><g class="ytick"><text text-anchor="end" x="79" y="4.199999999999999" style="font-family: 'Open Sans', verdana, arial, sans-serif; font-size: 12px; fill: rgb(42, 63, 95); fill-opacity: 1; white-space: pre; opacity: 1;" transform="translate(0,126.05)">5.55</text></g></g><g class="overaxes-above"/></g></g><g class="polarlayer"/><g class="ternarylayer"/><g class="geolayer"/><g class="funnelarealayer"/><g class="pielayer"/><g class="iciclelayer"/><g class="treemaplayer"/><g class="sunburstlayer"/><g class="glimages"/><defs id="topdefs-4d6a9e"><g class="clips"/></defs><g class="layer-above"><g class="imagelayer"/><g class="shapelayer"/></g><g class="infolayer"><g class="g-gtitle"><text class="gtitle" x="35" y="50" text-anchor="start" dy="0em" style="font-family: 'Open Sans', verdana, arial, sans-serif; font-size: 17px; fill: rgb(42, 63, 95); opacity: 1; font-weight: normal; white-space: pre;">Train Loss: ascad_50-simplified_eff_cnn</text></g><g class="g-xtitle"/><g class="g-ytitle"/></g></svg>