<svg class="main-svg" xmlns="http://www.w3.org/2000/svg" xmlns:xlink="http://www.w3.org/1999/xlink" width="700" height="500" style="" viewBox="0 0 700 500"><rect x="0" y="0" width="700" height="500" style="fill: rgb(255, 255, 255); fill-opacity: 1;"/><defs id="defs-15496e"><g class="clips"><clipPath id="clip15496exyplot" class="plotclip"><rect width="540" height="320"/></clipPath><clipPath class="axesclip" id="clip15496ex"><rect x="80" y="0" width="540" height="500"/></clipPath><clipPath class="axesclip" id="clip15496ey"><rect x="0" y="100" width="700" height="320"/></clipPath><clipPath class="axesclip" id="clip15496exy"><rect x="80" y="100" width="540" height="320"/></clipPath></g><g class="gradients"/><g class="patterns"/></defs><g class="bglayer"><rect class="bg" x="80" y="100" width="540" height="320" style="fill: rgb(229, 236, 246); fill-opacity: 1; stroke-width: 0;"/></g><g class="layer-below"><g class="imagelayer"/><g class="shapelayer"/></g><g class="cartesianlayer"><g class="subplot xy"><g class="layer-subplot"><g class="shapelayer"/><g class="imagelayer"/></g><g class="gridlayer"><g class="x"><path class="xgrid crisp" transform="translate(190.2,0)" d="M0,100v320" style="stroke: rgb(255, 255, 255); stroke-opacity: 1; stroke-width: 1px;"/><path class="xgrid crisp" transform="translate(300.40999999999997,0)" d="M0,100v320" style="stroke: rgb(255, 255, 255); stroke-opacity: 1; stroke-width: 1px;"/><path class="xgrid crisp" transform="translate(410.61,0)" d="M0,100v320" style="stroke: rgb(255, 255, 255); stroke-opacity: 1; stroke-width: 1px;"/><path class="xgrid crisp" transform="translate(520.8199999999999,0)" d="M0,100v320" style="stroke: rgb(255, 255, 255); stroke-opacity: 1; stroke-width: 1px;"/></g><g class="y"><path class="ygrid crisp" transform="translate(0,404.77)" d="M80,0h540" style="stroke: rgb(255, 255, 255); stroke-opacity: 1; stroke-width: 1px;"/><path class="ygrid crisp" transform="translate(0,358.29)" d="M80,0h540" style="stroke: rgb(255, 255, 255); stroke-opacity: 1; stroke-width: 1px;"/><path class="ygrid crisp" transform="translate(0,311.81)" d="M80,0h540" style="stroke: rgb(255, 255, 255); stroke-opacity: 1; stroke-width: 1px;"/><path class="ygrid crisp" transform="translate(0,265.33000000000004)" d="M80,0h540" style="stroke: rgb(255, 255, 255); stroke-opacity: 1; stroke-width: 1px;"/><path class="ygrid crisp" transform="translate(0,218.85)" d="M80,0h540" style="stroke: rgb(255, 255, 255); stroke-opacity: 1; stroke-width: 1px;"/><path class="ygrid crisp" transform="translate(0,172.38)" d="M80,0h540" style="stroke: rgb(255, 255, 255); stroke-opacity: 1; stroke-width: 1px;"/><path class="ygrid crisp" transform="translate(0,125.9)" d="M80,0h540" style="stroke: rgb(255, 255, 255); stroke-opacity: 1; stroke-width: 1px;"/></g></g><g class="zerolinelayer"><path class="xzl zl crisp" transform="translate(80,0)" d="M0,100v320" style="stroke: rgb(255, 255, 255); stroke-opacity: 1; stroke-width: 2px;"/></g><path class="xlines-below"/><path class="ylines-below"/><g class="overlines-below"/><g class="xaxislayer-below"/><g class="yaxislayer-below"/><g class="overaxes-below"/><g class="plot" transform="translate(80,100)" clip-path="url(#clip15496exyplot)"><g class="scatterlayer mlayer"><g class="trace scatter tracebecf5b" style="stroke-miterlimit: 2; opacity: 1;"><g class="fills"/><g class="errorbars"/><g class="lines"><path class="js-line" d="M0,2.23L11.02,22.23L22.04,27.33L33.06,30.19L44.08,31.26L55.1,33.28L66.12,36.22L88.16,55.8L99.18,61.8L110.2,64.44L121.22,69.16L132.24,78.46L143.27,94.75L165.31,109.29L176.33,113.17L198.37,119.31L209.39,120.7L220.41,124L231.43,134.45L242.45,134.92L253.47,145.66L275.51,159.8L286.53,165.55L330.61,195.54L341.63,203.4L363.67,218.44L374.69,225.59L396.73,239.79L407.76,247.8L418.78,255.24L429.8,261.75L440.82,268.03L451.84,268.91L462.86,272.35L473.88,274.89L540,286.03" style="vector-effect: non-scaling-stroke; fill: none; stroke: rgb(99, 110, 250); stroke-opacity: 1; stroke-width: 2px; opacity: 1;"/></g><g class="points"/><g class="text"/></g><g class="trace scatter tracec344df" style="stroke-miterlimit: 2; opacity: 1;"><g class="fills"/><g class="errorbars"/><g class="lines"><path class="js-line" d="M0,0.35L11.02,20.62L22.04,26.96L44.08,32.35L55.1,32.91L66.12,34.28L77.14,34.45L110.2,35.39L121.22,38.29L143.27,56.45L154.29,60.76L176.33,66.25L187.35,66.42L198.37,66.81L209.39,68.02L220.41,69.13L231.43,71.99L253.47,78.56L264.49,82.56L275.51,85.27L286.53,90.29L297.55,92.11L308.57,96.28L330.61,104.65L341.63,107.81L363.67,116.4L374.69,123.24L385.71,129.06L396.73,133.69L418.78,145.06L429.8,150.61L440.82,154.06L451.84,156.27L473.88,160.78L484.9,162.15L528.98,169.29L540,170.54" style="vector-effect: non-scaling-stroke; fill: none; stroke: rgb(239, 85, 59); stroke-opacity: 1; stroke-width: 2px; opacity: 1;"/></g><g class="points"/><g class="text"/></g><g class="trace scatter trace1ed660" style="stroke-miterlimit: 2; opacity: 1;"><g class="fills"/><g class="errorbars"/><g class="lines"><path class="js-line" d="M0,0.36L11.02,20.8L22.04,26.66L33.06,29.82L44.08,31.66L66.12,33.97L77.14,34.7L110.2,35.29L121.22,34.42L176.33,34.38L187.35,33.15L220.41,31.88L231.43,32.67L286.53,41.14L297.55,43.47L385.71,58.31L396.73,60.31L440.82,68.05L451.84,69.12L540,76.1" style="vector-effect: non-scaling-stroke; fill: none; stroke: rgb(0, 204, 150); stroke-opacity: 1; stroke-width: 2px; opacity: 1;"/></g><g class="points"/><g class="text"/></g><g class="trace scatter trace159279" style="stroke-miterlimit: 2; opacity: 1;"><g class="fills"/><g class="errorbars"/><g class="lines"><path class="js-line" d="M0,0.68L11.02,20.86L22.04,26.87L33.06,29.77L44.08,31.85L66.12,33.99L77.14,34.06L110.2,34.97L121.22,34.11L143.27,34.26L154.29,33.47L176.33,33.79L187.35,32.15L198.37,32.54L209.39,31.44L220.41,32.37L231.43,31.71L264.49,37.14L275.51,38.44L297.55,42.4L308.57,44.42L341.63,50.33L352.65,51.87L440.82,67.06L451.84,67.96L540,73.69" style="vector-effect: non-scaling-stroke; fill: none; stroke: rgb(171, 99, 250); stroke-opacity: 1; stroke-width: 2px; opacity: 1;"/></g><g class="points"/><g class="text"/></g><g class="trace scatter trace3852c9" style="stroke-miterlimit: 2; opacity: 1;"><g class="fills"/><g class="errorbars"/><g class="lines"><path class="js-line" d="M0,0.42L11.02,21.06L22.04,26.88L44.08,31.88L55.1,33.23L88.16,35.58L99.18,35.92L110.2,40.43L121.22,51.05L132.24,66.35L143.27,85.16L154.29,98.21L165.31,105.13L176.33,114.14L187.35,113.09L198.37,113.72L209.39,116.03L220.41,119.15L231.43,125.74L253.47,140.99L264.49,146.97L275.51,155.75L286.53,163.12L319.59,185.38L330.61,190.86L341.63,198.11L352.65,203.53L363.67,211.85L374.69,218.93L396.73,230.08L407.76,237.53L429.8,251.04L440.82,255.18L462.86,259.04L473.88,262.06L484.9,263.13L495.92,265.14L528.98,270.26L540,272.34" style="vector-effect: non-scaling-stroke; fill: none; stroke: rgb(255, 161, 90); stroke-opacity: 1; stroke-width: 2px; opacity: 1;"/></g><g class="points"/><g class="text"/></g><g class="trace scatter trace20eab0" style="stroke-miterlimit: 2; opacity: 1;"><g class="fills"/><g class="errorbars"/><g class="lines"><path class="js-line" d="M0,0.29L11.02,20.95L22.04,26.63L33.06,29.9L44.08,31.7L66.12,34.12L77.14,34.43L99.18,35.62L110.2,35.35L132.24,34.57L143.27,34.34L154.29,34.71L165.31,33.77L176.33,33.55L187.35,31.98L198.37,32.39L209.39,31.65L231.43,32.54L242.45,33.89L286.53,40.31L297.55,42.62L330.61,48.3L341.63,50.22L396.73,59.63L407.76,61.95L440.82,68.09L451.84,69.08L528.98,73.87L540,74.44" style="vector-effect: non-scaling-stroke; fill: none; stroke: rgb(25, 211, 243); stroke-opacity: 1; stroke-width: 2px; opacity: 1;"/></g><g class="points"/><g class="text"/></g><g class="trace scatter trace6db4f9" style="stroke-miterlimit: 2; opacity: 1;"><g class="fills"/><g class="errorbars"/><g class="lines"><path class="js-line" d="M0,0.38L11.02,20.63L22.04,27.22L44.08,32.01L55.1,33.19L77.14,34.79L88.16,34.64L121.22,34.61L132.24,34.33L143.27,34.64L154.29,33.66L165.31,34.28L176.33,34.03L187.35,32.64L198.37,32.46L209.39,31.7L220.41,32.09L231.43,32.16L242.45,34.36L264.49,37.46L275.51,39.22L297.55,42.96L308.57,45.19L418.78,63.39L429.8,65.49L451.84,67.66L462.86,68.25L540,72.64" style="vector-effect: non-scaling-stroke; fill: none; stroke: rgb(255, 102, 146); stroke-opacity: 1; stroke-width: 2px; opacity: 1;"/></g><g class="points"/><g class="text"/></g><g class="trace scatter traceb64183" style="stroke-miterlimit: 2; opacity: 1;"><g class="fills"/><g class="errorbars"/><g class="lines"><path class="js-line" d="M0,3.9L11.02,22.66L22.04,27.05L44.08,30.77L55.1,32.25L110.2,34.84L121.22,34.74L143.27,35.03L154.29,36.64L165.31,44.1L176.33,54.83L187.35,58.36L198.37,59.63L209.39,59.77L220.41,61.45L231.43,64.33L242.45,68.26L253.47,69.29L264.49,72.24L275.51,73.84L286.53,77.61L396.73,107.09L407.76,110.6L429.8,117.58L440.82,119.96L484.9,124.65L495.92,125.37L517.96,127.47L528.98,128.46L540,129.37" style="vector-effect: non-scaling-stroke; fill: none; stroke: rgb(182, 232, 128); stroke-opacity: 1; stroke-width: 2px; opacity: 1;"/></g><g class="points"/><g class="text"/></g><g class="trace scatter trace9eda5f" style="stroke-miterlimit: 2; opacity: 1;"><g class="fills"/><g class="errorbars"/><g class="lines"><path class="js-line" d="M0,0.35L11.02,20.47L22.04,26.76L33.06,29.62L44.08,31.43L55.1,33.03L66.12,33.77L88.16,34.67L99.18,33.99L110.2,34.87L121.22,34.31L176.33,33.51L187.35,32.5L198.37,32.4L209.39,31.46L220.41,31.58L231.43,32.48L253.47,35.23L264.49,37.39L286.53,40.54L297.55,42.99L308.57,44.48L319.59,46.82L418.78,64.02L429.8,66.24L451.84,68.73L462.86,69.77L540,75.04" style="vector-effect: non-scaling-stroke; fill: none; stroke: rgb(255, 151, 255); stroke-opacity: 1; stroke-width: 2px; opacity: 1;"/></g><g class="points"/><g class="text"/></g><g class="trace scatter trace299929" style="stroke-miterlimit: 2; opacity: 1;"><g class="fills"/><g class="errorbars"/><g class="lines"><path class="js-line" d="M0,0.52L11.02,20.75L22.04,26.77L33.06,29.61L44.08,31.48L66.12,33.76L77.14,34.05L110.2,35.22L121.22,34.82L143.27,34.91L154.29,33.62L176.33,33.81L187.35,32.35L198.37,32.36L209.39,31.58L231.43,32.29L242.45,33.61L308.57,45.17L319.59,47.11L352.65,52.45L363.67,54.25L385.71,58.54L396.73,60.27L440.82,68.68L451.84,70.15L484.9,75.17L495.92,77.19L517.96,80.92L528.98,82.4L540,83.58" style="vector-effect: non-scaling-stroke; fill: none; stroke: rgb(254, 203, 82); stroke-opacity: 1; stroke-width: 2px; opacity: 1;"/></g><g class="points"/><g class="text"/></g><g class="trace scatter trace962177" style="stroke-miterlimit: 2; opacity: 1;"><g class="fills"/><g class="errorbars"/><g class="lines"><path class="js-line" d="M0,0.66L11.02,20.99L22.04,26.63L33.06,29.77L44.08,31.31L55.1,32.93L66.12,33.42L88.16,34.98L99.18,34.76L110.2,35.66L121.22,34.64L132.24,34.28L143.27,35.06L154.29,33.79L165.31,33.86L198.37,32.45L209.39,31.37L231.43,31.48L242.45,33.55L264.49,35.95L275.51,37.96L286.53,39.73L297.55,42.27L319.59,45.86L330.61,47.38L341.63,49.81L352.65,51.34L440.82,66.42L451.84,67.3L540,72.45" style="vector-effect: non-scaling-stroke; fill: none; stroke: rgb(99, 110, 250); stroke-opacity: 1; stroke-width: 2px; opacity: 1;"/></g><g class="points"/><g class="text"/></g><g class="trace scatter trace833b61" style="stroke-miterlimit: 2; opacity: 1;"><g class="fills"/><g class="errorbars"/><g class="lines"><path class="js-line" d="M0,0.7L11.02,20.95L22.04,26.76L33.06,29.57L44.08,31.4L55.1,33.06L66.12,33.87L110.2,35.03L121.22,34.6L176.33,33.76L187.35,32.13L198.37,32.45L209.39,31.36L231.43,31.87L242.45,33.37L264.49,36.86L275.51,38.14L308.57,45.02L319.59,46.69L385.71,58.12L396.73,59.81L429.8,65.53L440.82,66.83L473.88,68.97L484.9,69.63L540,72.88" style="vector-effect: non-scaling-stroke; fill: none; stroke: rgb(239, 85, 59); stroke-opacity: 1; stroke-width: 2px; opacity: 1;"/></g><g class="points"/><g class="text"/></g><g class="trace scatter traceebaccb" style="stroke-miterlimit: 2; opacity: 1;"><g class="fills"/><g class="errorbars"/><g class="lines"><path class="js-line" d="M0,0.14L11.02,21.04L22.04,26.77L44.08,31.63L55.1,33.68L110.2,35.34L121.22,34.69L143.27,35.29L154.29,34.1L176.33,34.23L187.35,32.72L198.37,33.16L209.39,31.26L220.41,32.17L231.43,32.01L264.49,37.9L275.51,39.38L286.53,40.63L297.55,43.02L363.67,53.96L374.69,56.13L440.82,67.46L451.84,68.41L540,74.38" style="vector-effect: non-scaling-stroke; fill: none; stroke: rgb(0, 204, 150); stroke-opacity: 1; stroke-width: 2px; opacity: 1;"/></g><g class="points"/><g class="text"/></g><g class="trace scatter tracef5040f" style="stroke-miterlimit: 2; opacity: 1;"><g class="fills"/><g class="errorbars"/><g class="lines"><path class="js-line" d="M0,0.07L11.02,20.65L22.04,26.52L33.06,29.63L44.08,31.69L66.12,33.44L77.14,34.04L99.18,34.82L110.2,34.53L132.24,34.03L143.27,34.69L154.29,33.72L165.31,34.2L176.33,33.73L187.35,32.38L198.37,32.83L209.39,32.15L231.43,32.86L242.45,34.19L363.67,53.46L374.69,55.9L396.73,59.4L407.76,61.82L418.78,64.17L429.8,67.5L451.84,74.44L462.86,79.04L484.9,88.97L495.92,92.57L506.94,96.18L517.96,98.56L540,102.03" style="vector-effect: non-scaling-stroke; fill: none; stroke: rgb(171, 99, 250); stroke-opacity: 1; stroke-width: 2px; opacity: 1;"/></g><g class="points"/><g class="text"/></g><g class="trace scatter trace77b13c" style="stroke-miterlimit: 2; opacity: 1;"><g class="fills"/><g class="errorbars"/><g class="lines"><path class="js-line" d="M0,0.24L11.02,20.85L22.04,26.84L44.08,31.7L55.1,33.16L88.16,34.91L99.18,35.17L110.2,35.47L121.22,34.81L165.31,33.98L176.33,33.37L187.35,32.13L198.37,32.01L220.41,31.28L231.43,32.51L275.51,38.46L286.53,40.67L330.61,48.85L341.63,51.3L363.67,55.29L374.69,57.52L440.82,70.84L451.84,72.08L540,81.57" style="vector-effect: non-scaling-stroke; fill: none; stroke: rgb(255, 161, 90); stroke-opacity: 1; stroke-width: 2px; opacity: 1;"/></g><g class="points"/><g class="text"/></g><g class="trace scatter tracef2e059" style="stroke-miterlimit: 2; opacity: 1;"><g class="fills"/><g class="errorbars"/><g class="lines"><path class="js-line" d="M0,0.32L11.02,20.99L22.04,26.43L33.06,29.56L44.08,31.63L66.12,33.93L77.14,34.22L110.2,35.67L121.22,34.77L143.27,35.37L154.29,34.09L165.31,34.71L176.33,34.24L187.35,33.09L198.37,32.73L209.39,31.48L220.41,32L231.43,32.23L242.45,34.46L253.47,35.96L264.49,38.29L275.51,39.1L286.53,41.04L297.55,43.62L308.57,45.29L341.63,51.09L352.65,52.77L396.73,61.15L407.76,63.34L440.82,69.13L451.84,70.26L528.98,76.63L540,77.35" style="vector-effect: non-scaling-stroke; fill: none; stroke: rgb(25, 211, 243); stroke-opacity: 1; stroke-width: 2px; opacity: 1;"/></g><g class="points"/><g class="text"/></g><g class="trace scatter traced69381" style="stroke-miterlimit: 2; opacity: 1;"><g class="fills"/><g class="errorbars"/><g class="lines"><path class="js-line" d="M0,0.34L11.02,20.94L22.04,27.36L33.06,30.08L44.08,32.02L66.12,33.98L77.14,34.23L88.16,35.14L99.18,34.8L110.2,35.31L121.22,34.24L143.27,34.56L154.29,33.44L176.33,33.85L187.35,32.52L220.41,31.76L231.43,32.39L253.47,34.8L264.49,36.71L275.51,37.74L286.53,39.83L308.57,43.97L319.59,46.12L363.67,53.98L374.69,56.43L440.82,68.87L451.84,69.74L506.94,73.62L517.96,74.31L540,75.58" style="vector-effect: non-scaling-stroke; fill: none; stroke: rgb(255, 102, 146); stroke-opacity: 1; stroke-width: 2px; opacity: 1;"/></g><g class="points"/><g class="text"/></g><g class="trace scatter traceb372d3" style="stroke-miterlimit: 2; opacity: 1;"><g class="fills"/><g class="errorbars"/><g class="lines"><path class="js-line" d="M0,0.13L11.02,20.81L22.04,26.9L44.08,31.95L55.1,33.11L66.12,33.96L77.14,33.96L110.2,35.02L121.22,34.25L154.29,34.13L165.31,33.91L176.33,33.86L187.35,32.2L198.37,32.53L209.39,31.52L231.43,31.74L242.45,33.34L286.53,40.36L297.55,42.45L308.57,44.22L319.59,46.79L341.63,50.32L352.65,52.06L396.73,60.34L407.76,62.76L440.82,69.06L451.84,70.04L495.92,73.16L506.94,73.92L540,75.92" style="vector-effect: non-scaling-stroke; fill: none; stroke: rgb(182, 232, 128); stroke-opacity: 1; stroke-width: 2px; opacity: 1;"/></g><g class="points"/><g class="text"/></g><g class="trace scatter traceb7e1f7" style="stroke-miterlimit: 2; opacity: 1;"><g class="fills"/><g class="errorbars"/><g class="lines"><path class="js-line" d="M0,0.34L11.02,20.91L22.04,26.64L33.06,29.78L44.08,31.77L77.14,34.61L88.16,37.03L99.18,44.33L110.2,52.87L132.24,66.92L143.27,74.43L165.31,84.6L176.33,88.49L187.35,90.26L198.37,91.04L220.41,98.82L231.43,104.67L253.47,114.41L264.49,120.41L319.59,147.04L330.61,151.98L341.63,155.83L352.65,160.51L385.71,178.1L396.73,181.9L407.76,188.19L418.78,193.11L429.8,198.76L440.82,201.52L451.84,204.24L462.86,206.14L473.88,208.56L484.9,210.07L528.98,215.88L540,216.5" style="vector-effect: non-scaling-stroke; fill: none; stroke: rgb(255, 151, 255); stroke-opacity: 1; stroke-width: 2px; opacity: 1;"/></g><g class="points"/><g class="text"/></g><g class="trace scatter traceb417a9" style="stroke-miterlimit: 2; opacity: 1;"><g class="fills"/><g class="errorbars"/><g class="lines"><path class="js-line" d="M0,0.62L11.02,21.06L22.04,27.07L33.06,29.86L44.08,31.84L66.12,33.99L77.14,34.29L88.16,35.09L99.18,34.54L110.2,35.14L121.22,34.42L143.27,34.69L154.29,33.79L176.33,33.51L187.35,31.83L198.37,32.16L209.39,31.65L231.43,31.85L242.45,33.3L264.49,36.5L275.51,38.04L374.69,56.73L385.71,58.84L440.82,69.27L451.84,70.21L517.96,74.39L528.98,75.12L540,75.76" style="vector-effect: non-scaling-stroke; fill: none; stroke: rgb(254, 203, 82); stroke-opacity: 1; stroke-width: 2px; opacity: 1;"/></g><g class="points"/><g class="text"/></g><g class="trace scatter trace835b31" style="stroke-miterlimit: 2; opacity: 1;"><g class="fills"/><g class="errorbars"/><g class="lines"><path class="js-line" d="M0,4.35L11.02,21.17L22.04,26.6L55.1,32.67L66.12,33.03L110.2,35.02L121.22,34.7L187.35,33.49L198.37,31.94L220.41,31.61L231.43,32.29L242.45,33.31L253.47,35.12L264.49,36.88L275.51,37.73L319.59,44.53L330.61,46.58L352.65,49.61L363.67,51.44L374.69,52.78L385.71,55.13L418.78,61.39L429.8,64.15L451.84,69.5L462.86,73.22L495.92,85.4L506.94,88.65L528.98,93.3L540,94.93" style="vector-effect: non-scaling-stroke; fill: none; stroke: rgb(99, 110, 250); stroke-opacity: 1; stroke-width: 2px; opacity: 1;"/></g><g class="points"/><g class="text"/></g><g class="trace scatter tracebada24" style="stroke-miterlimit: 2; opacity: 1;"><g class="fills"/><g class="errorbars"/><g class="lines"><path class="js-line" d="M0,0.24L11.02,21.12L22.04,26.87L33.06,29.83L44.08,31.55L77.14,34.27L88.16,34.74L110.2,34.72L121.22,33.98L143.27,34.73L154.29,33.55L176.33,33.63L187.35,32.43L198.37,32.65L209.39,31.03L220.41,31.94L231.43,32.09L253.47,35.49L264.49,37.4L385.71,57.92L396.73,59.66L429.8,65.69L440.82,67.24L495.92,70.95L506.94,71.66L540,73.83" style="vector-effect: non-scaling-stroke; fill: none; stroke: rgb(239, 85, 59); stroke-opacity: 1; stroke-width: 2px; opacity: 1;"/></g><g class="points"/><g class="text"/></g><g class="trace scatter trace90d684" style="stroke-miterlimit: 2; opacity: 1;"><g class="fills"/><g class="errorbars"/><g class="lines"><path class="js-line" d="M0,0.35L11.02,21.01L22.04,27.29L33.06,30.25L44.08,31.64L55.1,33.28L66.12,34.02L88.16,35.61L99.18,35.07L110.2,36.61L121.22,42.46L132.24,55.02L143.27,65.25L165.31,81.32L176.33,86.57L187.35,91.27L198.37,92.16L209.39,97.93L220.41,101.52L242.45,114.39L253.47,119.04L275.51,131.84L286.53,137.18L297.55,142.32L308.57,149.09L341.63,162.32L352.65,167.19L385.71,183.55L396.73,187.89L407.76,193.52L418.78,197.99L429.8,204.53L440.82,207.16L462.86,211.3L473.88,213.4L495.92,215.94L506.94,217.33L540,222.14" style="vector-effect: non-scaling-stroke; fill: none; stroke: rgb(0, 204, 150); stroke-opacity: 1; stroke-width: 2px; opacity: 1;"/></g><g class="points"/><g class="text"/></g><g class="trace scatter trace9e92a2" style="stroke-miterlimit: 2; opacity: 1;"><g class="fills"/><g class="errorbars"/><g class="lines"><path class="js-line" d="M0,0.5L11.02,20.65L22.04,26.91L33.06,29.76L44.08,31.52L55.1,33.01L66.12,33.66L99.18,35.99L110.2,44.32L121.22,52.43L132.24,62.55L154.29,76.08L165.31,80.45L176.33,84.94L187.35,86.41L198.37,88.73L209.39,93.52L220.41,97.73L231.43,106L253.47,116.63L264.49,123.88L286.53,137.77L297.55,142.13L308.57,149.2L319.59,154.37L341.63,165.06L352.65,169.21L374.69,183.64L385.71,189.4L396.73,193.97L407.76,200.86L429.8,212.97L440.82,216.19L462.86,221.38L473.88,223.42L540,232.54" style="vector-effect: non-scaling-stroke; fill: none; stroke: rgb(171, 99, 250); stroke-opacity: 1; stroke-width: 2px; opacity: 1;"/></g><g class="points"/><g class="text"/></g><g class="trace scatter tracec9abca" style="stroke-miterlimit: 2; opacity: 1;"><g class="fills"/><g class="errorbars"/><g class="lines"><path class="js-line" d="M0,0.62L11.02,20.84L22.04,26.98L33.06,29.78L44.08,31.7L55.1,33.64L66.12,34.23L77.14,34.96L88.16,37.41L110.2,55.98L121.22,66.42L154.29,86.12L165.31,89.61L176.33,92.99L187.35,94.54L198.37,95.05L209.39,99.41L220.41,102.91L231.43,108.34L242.45,113.2L253.47,116.22L264.49,122.31L275.51,127.23L286.53,133.87L297.55,138.16L319.59,149L330.61,153.86L341.63,158.76L352.65,162.77L363.67,169.59L374.69,175.23L396.73,185.53L407.76,191.31L418.78,195.91L429.8,202.35L451.84,207.96L462.86,210.15L506.94,216.31L517.96,217.94L528.98,220L540,221.25" style="vector-effect: non-scaling-stroke; fill: none; stroke: rgb(255, 161, 90); stroke-opacity: 1; stroke-width: 2px; opacity: 1;"/></g><g class="points"/><g class="text"/></g><g class="trace scatter tracec34d62" style="stroke-miterlimit: 2; opacity: 1;"><g class="fills"/><g class="errorbars"/><g class="lines"><path class="js-line" d="M0,0.91L11.02,20.97L22.04,26.92L33.06,29.8L44.08,31.81L66.12,34.06L77.14,34.17L99.18,35.28L110.2,35.28L165.31,34.02L176.33,33.89L187.35,32.03L198.37,32.85L209.39,31.85L220.41,31.97L231.43,32.06L242.45,34.11L275.51,38.32L286.53,40.5L330.61,48.18L341.63,50.45L374.69,56.05L385.71,58.09L440.82,68.06L451.84,69.12L540,76.35" style="vector-effect: non-scaling-stroke; fill: none; stroke: rgb(25, 211, 243); stroke-opacity: 1; stroke-width: 2px; opacity: 1;"/></g><g class="points"/><g class="text"/></g><g class="trace scatter trace19c660" style="stroke-miterlimit: 2; opacity: 1;"><g class="fills"/><g class="errorbars"/><g class="lines"><path class="js-line" d="M0,0.28L11.02,21.06L22.04,26.71L33.06,30.11L44.08,32.02L66.12,34.6L77.14,34.45L110.2,35.33L121.22,34.74L132.24,34.48L143.27,35.16L176.33,34.09L187.35,32.64L198.37,32.59L209.39,31.63L220.41,31.6L231.43,32.72L253.47,35.36L264.49,37.33L286.53,40.24L297.55,42.71L352.65,52.36L363.67,54.35L407.76,64.92L418.78,68.01L462.86,81.17L473.88,84.31L495.92,90.76L506.94,93.6L528.98,97.71L540,98.99" style="vector-effect: non-scaling-stroke; fill: none; stroke: rgb(255, 102, 146); stroke-opacity: 1; stroke-width: 2px; opacity: 1;"/></g><g class="points"/><g class="text"/></g><g class="trace scatter tracecfaa18" style="stroke-miterlimit: 2; opacity: 1;"><g class="fills"/><g class="errorbars"/><g class="lines"><path class="js-line" d="M0,0.2L11.02,20.76L22.04,26.51L33.06,29.69L44.08,32.03L66.12,33.56L77.14,34.05L99.18,34.46L110.2,34.58L132.24,34.05L143.27,34.6L165.31,33.72L176.33,33.44L187.35,31.96L198.37,32.58L209.39,31.37L220.41,31.84L231.43,32.04L242.45,33.68L264.49,36.8L275.51,38.54L286.53,39.85L297.55,42.38L440.82,66.87L451.84,67.83L540,73.03" style="vector-effect: non-scaling-stroke; fill: none; stroke: rgb(182, 232, 128); stroke-opacity: 1; stroke-width: 2px; opacity: 1;"/></g><g class="points"/><g class="text"/></g><g class="trace scatter trace807261" style="stroke-miterlimit: 2; opacity: 1;"><g class="fills"/><g class="errorbars"/><g class="lines"><path class="js-line" d="M0,0.56L11.02,20.8L22.04,26.9L33.06,29.88L44.08,31.89L66.12,33.86L77.14,34.54L88.16,34.93L99.18,34.42L110.2,35.12L121.22,34.24L143.27,34.88L154.29,33.73L176.33,33.94L187.35,32.26L198.37,32.44L209.39,31.51L231.43,31.54L242.45,33.22L275.51,38.31L286.53,40.67L319.59,47.1L330.61,48.59L418.78,65.62L429.8,68.11L451.84,70.88L462.86,71.84L540,77.2" style="vector-effect: non-scaling-stroke; fill: none; stroke: rgb(255, 151, 255); stroke-opacity: 1; stroke-width: 2px; opacity: 1;"/></g><g class="points"/><g class="text"/></g><g class="trace scatter tracee8543b" style="stroke-miterlimit: 2; opacity: 1;"><g class="fills"/><g class="errorbars"/><g class="lines"><path class="js-line" d="M0,0L11.02,20.97L22.04,26.92L33.06,29.77L44.08,31.57L55.1,33.63L66.12,33.96L88.16,34.88L99.18,34.3L110.2,35.11L121.22,34.54L154.29,34.17L165.31,34.1L176.33,34.09L187.35,32.85L231.43,31.95L242.45,33.94L264.49,36.71L275.51,38.33L363.67,53.47L374.69,55.78L429.8,65.94L440.82,67.35L506.94,72.96L517.96,73.85L540,75.37" style="vector-effect: non-scaling-stroke; fill: none; stroke: rgb(254, 203, 82); stroke-opacity: 1; stroke-width: 2px; opacity: 1;"/></g><g class="points"/><g class="text"/></g><g class="trace scatter trace044509" style="stroke-miterlimit: 2; opacity: 1;"><g class="fills"/><g class="errorbars"/><g class="lines"><path class="js-line" d="M0,2.52L11.02,22.14L22.04,27.39L44.08,31.88L55.1,33.11L66.12,35.98L77.14,43.81L99.18,81.45L110.2,94.32L121.22,105.2L132.24,113.51L143.27,116.5L154.29,123.46L165.31,124.31L176.33,128.64L187.35,131.71L198.37,131.23L209.39,132.43L220.41,136.78L231.43,143.12L242.45,151.79L253.47,159.88L264.49,166.74L275.51,172.61L286.53,181.55L297.55,191.47L308.57,195.86L319.59,203.33L330.61,212.4L341.63,216.87L352.65,226.34L385.71,246.89L396.73,255.44L440.82,282.7L451.84,284.37L473.88,288.63L484.9,291.4L506.94,295.12L517.96,297.45L540,300.23" style="vector-effect: non-scaling-stroke; fill: none; stroke: rgb(99, 110, 250); stroke-opacity: 1; stroke-width: 2px; opacity: 1;"/></g><g class="points"/><g class="text"/></g><g class="trace scatter trace685a93" style="stroke-miterlimit: 2; opacity: 1;"><g class="fills"/><g class="errorbars"/><g class="lines"><path class="js-line" d="M0,0.53L11.02,20.71L22.04,26.83L33.06,29.85L44.08,31.86L66.12,34.12L77.14,34.23L99.18,34.85L110.2,35.26L121.22,34.49L132.24,34.49L143.27,34.85L154.29,33.84L176.33,33.72L187.35,32.24L231.43,32.12L242.45,33.38L275.51,38.12L286.53,40.35L330.61,47.95L341.63,50.48L363.67,54.2L374.69,56.53L407.76,63.15L418.78,65.25L440.82,69.08L451.84,69.97L540,75.26" style="vector-effect: non-scaling-stroke; fill: none; stroke: rgb(239, 85, 59); stroke-opacity: 1; stroke-width: 2px; opacity: 1;"/></g><g class="points"/><g class="text"/></g><g class="trace scatter trace609e23" style="stroke-miterlimit: 2; opacity: 1;"><g class="fills"/><g class="errorbars"/><g class="lines"><path class="js-line" d="M0,0.4L11.02,20.39L22.04,26.69L33.06,29.77L44.08,31.67L66.12,34.05L77.14,34.68L110.2,35.48L121.22,34.95L132.24,34.38L143.27,35.01L165.31,33.86L176.33,33.83L187.35,32.39L198.37,32.48L209.39,31.47L220.41,32.01L242.45,34.04L253.47,35.56L286.53,40.76L297.55,42.87L363.67,53.85L374.69,56.31L396.73,59.79L407.76,62.11L451.84,69.24L462.86,69.97L540,74.87" style="vector-effect: non-scaling-stroke; fill: none; stroke: rgb(0, 204, 150); stroke-opacity: 1; stroke-width: 2px; opacity: 1;"/></g><g class="points"/><g class="text"/></g><g class="trace scatter trace57de3e" style="stroke-miterlimit: 2; opacity: 1;"><g class="fills"/><g class="errorbars"/><g class="lines"><path class="js-line" d="M0,0.29L11.02,21.03L22.04,26.95L33.06,30.09L44.08,31.8L55.1,33.52L66.12,34.44L88.16,35.19L99.18,34.56L110.2,35.27L121.22,34.96L165.31,33.48L176.33,33.66L187.35,32.16L198.37,32.37L209.39,31.59L220.41,31.62L231.43,32.3L242.45,33.97L264.49,37.44L275.51,38.96L297.55,43.08L308.57,45.4L440.82,69.79L451.84,70.68L540,75.93" style="vector-effect: non-scaling-stroke; fill: none; stroke: rgb(171, 99, 250); stroke-opacity: 1; stroke-width: 2px; opacity: 1;"/></g><g class="points"/><g class="text"/></g><g class="trace scatter trace941d95" style="stroke-miterlimit: 2; opacity: 1;"><g class="fills"/><g class="errorbars"/><g class="lines"><path class="js-line" d="M0,0.14L11.02,21.3L22.04,26.84L33.06,30.06L44.08,31.73L55.1,33.32L66.12,33.86L99.18,35.76L110.2,42.18L132.24,65.85L143.27,74.46L154.29,81.25L165.31,86.15L176.33,90.61L187.35,92.15L198.37,94.57L209.39,98.08L220.41,102.37L231.43,108.68L253.47,120.28L264.49,126.83L297.55,145.06L308.57,151.74L319.59,158.33L330.61,162.66L341.63,168.22L352.65,172.34L374.69,185.51L385.71,190.67L396.73,194.98L407.76,201.56L418.78,206.57L429.8,212.59L440.82,215.78L451.84,218.03L473.88,222.46L484.9,224.04L495.92,225.96L506.94,226.76L528.98,230.4L540,231.67" style="vector-effect: non-scaling-stroke; fill: none; stroke: rgb(255, 161, 90); stroke-opacity: 1; stroke-width: 2px; opacity: 1;"/></g><g class="points"/><g class="text"/></g><g class="trace scatter tracec74343" style="stroke-miterlimit: 2; opacity: 1;"><g class="fills"/><g class="errorbars"/><g class="lines"><path class="js-line" d="M0,0.49L11.02,20.87L22.04,26.69L33.06,29.7L44.08,31.66L55.1,33.18L66.12,33.92L99.18,34.7L110.2,35.22L132.24,34.53L143.27,34.92L165.31,33.83L176.33,34.13L187.35,32.41L198.37,32.42L209.39,31.6L220.41,32.14L231.43,32.53L242.45,33.82L253.47,35.14L264.49,37.26L396.73,60.77L407.76,63.05L440.82,69.36L451.84,70.48L495.92,73.85L506.94,74.62L540,76.65" style="vector-effect: non-scaling-stroke; fill: none; stroke: rgb(25, 211, 243); stroke-opacity: 1; stroke-width: 2px; opacity: 1;"/></g><g class="points"/><g class="text"/></g><g class="trace scatter trace7e5a4e" style="stroke-miterlimit: 2; opacity: 1;"><g class="fills"/><g class="errorbars"/><g class="lines"><path class="js-line" d="M0,0.46L11.02,20.99L22.04,26.76L33.06,29.81L44.08,31.74L66.12,34.31L77.14,34.9L99.18,36.04L110.2,43.64L121.22,53.83L132.24,65.09L154.29,80.6L165.31,85.45L176.33,89.73L187.35,91.55L198.37,92.91L209.39,97.02L220.41,100.55L231.43,107.18L242.45,113.39L253.47,118.23L275.51,129.58L286.53,136.9L308.57,151.19L319.59,156.77L330.61,161.15L341.63,167.48L352.65,172.3L363.67,179.1L385.71,191.26L396.73,196.1L407.76,202.35L418.78,207.6L429.8,213.73L440.82,216.76L451.84,219.25L462.86,220.77L484.9,224.85L495.92,226.22L506.94,227L517.96,228.71L540,232.22" style="vector-effect: non-scaling-stroke; fill: none; stroke: rgb(255, 102, 146); stroke-opacity: 1; stroke-width: 2px; opacity: 1;"/></g><g class="points"/><g class="text"/></g><g class="trace scatter trace1cc947" style="stroke-miterlimit: 2; opacity: 1;"><g class="fills"/><g class="errorbars"/><g class="lines"><path class="js-line" d="M0,0.22L11.02,21.3L22.04,27.15L33.06,29.88L44.08,31.37L55.1,33.44L66.12,33.88L77.14,34.52L88.16,37.3L99.18,45.66L110.2,55.74L121.22,66.78L132.24,73.58L143.27,80.12L154.29,84.52L165.31,89.18L176.33,91.61L187.35,92.34L198.37,91.69L209.39,96.24L220.41,99.18L242.45,111.2L253.47,115.92L264.49,121.88L275.51,126.87L286.53,133.7L297.55,138.33L319.59,150.07L330.61,154.7L341.63,158.79L352.65,164.05L363.67,169.48L374.69,176.71L407.76,192.48L418.78,198L429.8,204.05L440.82,207.03L473.88,214.12L484.9,214.79L495.92,216.92L506.94,217.92L540,222.82" style="vector-effect: non-scaling-stroke; fill: none; stroke: rgb(182, 232, 128); stroke-opacity: 1; stroke-width: 2px; opacity: 1;"/></g><g class="points"/><g class="text"/></g><g class="trace scatter trace37a3a4" style="stroke-miterlimit: 2; opacity: 1;"><g class="fills"/><g class="errorbars"/><g class="lines"><path class="js-line" d="M0,0.5L11.02,20.71L22.04,26.7L44.08,32.16L55.1,32.97L66.12,34.62L77.14,34.63L121.22,34.88L132.24,34.3L143.27,35.21L154.29,34.56L165.31,33.64L176.33,33.94L187.35,32.55L198.37,32.34L209.39,31.4L220.41,31.77L231.43,32.24L242.45,33.95L286.53,41.09L297.55,43.16L330.61,49.02L341.63,51.47L396.73,61.88L407.76,64.01L440.82,69.64L451.84,70.69L540,76.12" style="vector-effect: non-scaling-stroke; fill: none; stroke: rgb(255, 151, 255); stroke-opacity: 1; stroke-width: 2px; opacity: 1;"/></g><g class="points"/><g class="text"/></g><g class="trace scatter trace499623" style="stroke-miterlimit: 2; opacity: 1;"><g class="fills"/><g class="errorbars"/><g class="lines"><path class="js-line" d="M0,0.53L11.02,20.81L22.04,26.73L33.06,29.66L44.08,31.78L66.12,33.94L77.14,34.14L121.22,34.51L132.24,34.31L154.29,33.84L165.31,33.36L176.33,33.98L187.35,32.59L198.37,32.82L209.39,31.84L231.43,32.19L242.45,33.92L297.55,43.04L308.57,45.12L374.69,56.45L385.71,58.02L440.82,66.84L451.84,67.81L540,72.41" style="vector-effect: non-scaling-stroke; fill: none; stroke: rgb(254, 203, 82); stroke-opacity: 1; stroke-width: 2px; opacity: 1;"/></g><g class="points"/><g class="text"/></g><g class="trace scatter trace74c816" style="stroke-miterlimit: 2; opacity: 1;"><g class="fills"/><g class="errorbars"/><g class="lines"><path class="js-line" d="M0,0.14L11.02,20.33L22.04,26.72L33.06,29.82L44.08,31.83L66.12,33.75L77.14,34.37L143.27,34.24L154.29,33.9L176.33,33.53L187.35,32.51L231.43,31.97L242.45,33.76L275.51,38.19L286.53,40.18L308.57,44.83L319.59,46.28L374.69,56.31L385.71,58.11L440.82,67.56L451.84,68.64L540,75.32" style="vector-effect: non-scaling-stroke; fill: none; stroke: rgb(99, 110, 250); stroke-opacity: 1; stroke-width: 2px; opacity: 1;"/></g><g class="points"/><g class="text"/></g><g class="trace scatter trace94953d" style="stroke-miterlimit: 2; opacity: 1;"><g class="fills"/><g class="errorbars"/><g class="lines"><path class="js-line" d="M0,0.2L11.02,20.93L22.04,26.85L33.06,29.88L44.08,31.68L66.12,33.81L77.14,34.65L88.16,35.46L99.18,34.71L110.2,35.64L121.22,34.78L176.33,33.89L187.35,32.04L198.37,32.25L209.39,31.26L231.43,31.97L242.45,33.73L253.47,34.88L264.49,36.81L286.53,40.52L297.55,42.42L396.73,60.84L407.76,63.33L440.82,69.65L451.84,70.66L506.94,75.8L517.96,76.92L540,78.6" style="vector-effect: non-scaling-stroke; fill: none; stroke: rgb(239, 85, 59); stroke-opacity: 1; stroke-width: 2px; opacity: 1;"/></g><g class="points"/><g class="text"/></g><g class="trace scatter trace55dfd4" style="stroke-miterlimit: 2; opacity: 1;"><g class="fills"/><g class="errorbars"/><g class="lines"><path class="js-line" d="M0,2.55L11.02,22.38L22.04,27.62L44.08,31.34L55.1,32.27L77.14,35.19L88.16,44.99L110.2,78.11L121.22,87.76L132.24,97.48L143.27,104.1L154.29,110.6L165.31,115.1L187.35,123.4L198.37,122.39L220.41,127.88L231.43,137.7L242.45,144.71L253.47,153.18L264.49,163.34L275.51,171.1L297.55,191.21L308.57,198.53L319.59,206.74L330.61,217.95L341.63,226.32L352.65,235.74L407.76,276.74L418.78,283.98L440.82,298.76L451.84,300.53L473.88,304.86L484.9,308.08L540,317.56" style="vector-effect: non-scaling-stroke; fill: none; stroke: rgb(0, 204, 150); stroke-opacity: 1; stroke-width: 2px; opacity: 1;"/></g><g class="points"/><g class="text"/></g><g class="trace scatter trace4f7fd7" style="stroke-miterlimit: 2; opacity: 1;"><g class="fills"/><g class="errorbars"/><g class="lines"><path class="js-line" d="M0,0.38L11.02,20.93L22.04,26.68L33.06,29.87L44.08,31.54L66.12,34.02L77.14,34.44L110.2,35.25L121.22,34.58L176.33,34.11L187.35,32.28L198.37,32.58L209.39,32.02L231.43,32.12L242.45,34.07L286.53,41.02L297.55,43.45L429.8,65.48L440.82,66.86L517.96,72.11L528.98,72.84L540,73.52" style="vector-effect: non-scaling-stroke; fill: none; stroke: rgb(171, 99, 250); stroke-opacity: 1; stroke-width: 2px; opacity: 1;"/></g><g class="points"/><g class="text"/></g><g class="trace scatter tracea8ea00" style="stroke-miterlimit: 2; opacity: 1;"><g class="fills"/><g class="errorbars"/><g class="lines"><path class="js-line" d="M0,0.54L11.02,20.89L22.04,27.23L44.08,32.28L55.1,33.12L66.12,33.97L77.14,34.04L88.16,34.89L99.18,34.58L110.2,35.05L121.22,34.29L143.27,34.24L154.29,33.23L176.33,33.55L187.35,32.3L198.37,32.17L209.39,31.28L220.41,32.04L231.43,31.99L286.53,40.02L297.55,42.82L363.67,53.93L374.69,55.99L429.8,65.87L440.82,67.31L484.9,70.52L495.92,71.39L540,74.08" style="vector-effect: non-scaling-stroke; fill: none; stroke: rgb(255, 161, 90); stroke-opacity: 1; stroke-width: 2px; opacity: 1;"/></g><g class="points"/><g class="text"/></g><g class="trace scatter trace8dbc24" style="stroke-miterlimit: 2; opacity: 1;"><g class="fills"/><g class="errorbars"/><g class="lines"><path class="js-line" d="M0,0.29L11.02,20.57L22.04,26.92L44.08,32.05L55.1,32.92L66.12,34.26L77.14,34.7L143.27,34.72L154.29,33.67L176.33,33.67L187.35,32.01L198.37,32.45L209.39,31.13L231.43,31.97L242.45,33.84L253.47,34.7L264.49,37.04L286.53,40.41L297.55,42.83L330.61,48.36L341.63,50.45L407.76,63.85L418.78,66.01L440.82,70.13L451.84,71.06L540,76.86" style="vector-effect: non-scaling-stroke; fill: none; stroke: rgb(25, 211, 243); stroke-opacity: 1; stroke-width: 2px; opacity: 1;"/></g><g class="points"/><g class="text"/></g><g class="trace scatter trace39d1e6" style="stroke-miterlimit: 2; opacity: 1;"><g class="fills"/><g class="errorbars"/><g class="lines"><path class="js-line" d="M0,0.13L11.02,20.85L22.04,26.67L44.08,31.98L55.1,33.09L66.12,34.12L77.14,34.33L110.2,34.97L121.22,34.64L176.33,33.8L187.35,32.43L198.37,32.29L209.39,31.34L231.43,32.25L242.45,33.69L253.47,35.14L264.49,37.4L275.51,38.82L286.53,41.13L330.61,49.06L341.63,51.63L363.67,54.86L374.69,56.93L429.8,68.09L440.82,70.29L495.92,79.04L506.94,80.79L540,84.9" style="vector-effect: non-scaling-stroke; fill: none; stroke: rgb(255, 102, 146); stroke-opacity: 1; stroke-width: 2px; opacity: 1;"/></g><g class="points"/><g class="text"/></g><g class="trace scatter tracedd1b43" style="stroke-miterlimit: 2; opacity: 1;"><g class="fills"/><g class="errorbars"/><g class="lines"><path class="js-line" d="M0,0.32L11.02,21.34L22.04,26.77L33.06,29.96L44.08,31.84L77.14,34.34L88.16,34.62L121.22,34.42L132.24,34.44L154.29,33.65L165.31,33.55L176.33,33.25L187.35,31.92L198.37,32.5L209.39,31.44L231.43,31.76L242.45,33.44L275.51,38.71L286.53,39.94L429.8,65.64L440.82,67.21L473.88,69.86L484.9,70.53L540,73.95" style="vector-effect: non-scaling-stroke; fill: none; stroke: rgb(182, 232, 128); stroke-opacity: 1; stroke-width: 2px; opacity: 1;"/></g><g class="points"/><g class="text"/></g><g class="trace scatter traceb413bb" style="stroke-miterlimit: 2; opacity: 1;"><g class="fills"/><g class="errorbars"/><g class="lines"><path class="js-line" d="M0,3.24L11.02,22.03L22.04,27.45L33.06,29.82L44.08,31.42L55.1,32.16L66.12,34.74L77.14,38.16L88.16,48.85L99.18,58.27L110.2,64.51L121.22,73.81L132.24,86.3L143.27,96.17L154.29,103.74L165.31,108.73L176.33,112.4L187.35,119.12L198.37,119.97L220.41,127.7L231.43,134.44L242.45,142.96L253.47,150L264.49,157.67L275.51,162.88L286.53,170.67L297.55,180.68L308.57,186.01L319.59,192.92L341.63,207.38L352.65,214.05L363.67,220.98L374.69,226.77L385.71,235.34L396.73,242.29L429.8,263.27L440.82,268.87L451.84,271.39L462.86,272.82L484.9,278.66L495.92,279.15L506.94,281.06L517.96,284.54L540,286.83" style="vector-effect: non-scaling-stroke; fill: none; stroke: rgb(255, 151, 255); stroke-opacity: 1; stroke-width: 2px; opacity: 1;"/></g><g class="points"/><g class="text"/></g><g class="trace scatter trace518923" style="stroke-miterlimit: 2; opacity: 1;"><g class="fills"/><g class="errorbars"/><g class="lines"><path class="js-line" d="M0,0.3L11.02,21.31L22.04,26.67L33.06,29.98L44.08,31.48L55.1,33.64L66.12,33.94L110.2,35.26L121.22,34.55L143.27,35.14L154.29,33.86L165.31,34.49L176.33,34.27L187.35,32.98L198.37,32.46L220.41,32.21L231.43,32.67L242.45,33.71L253.47,35.88L308.57,44.93L319.59,47.2L330.61,48.43L341.63,50.77L374.69,57.11L385.71,59.31L418.78,65.72L429.8,67.8L451.84,70.2L462.86,71.02L528.98,74.64L540,75.21" style="vector-effect: non-scaling-stroke; fill: none; stroke: rgb(254, 203, 82); stroke-opacity: 1; stroke-width: 2px; opacity: 1;"/></g><g class="points"/><g class="text"/></g><g class="trace scatter trace76dd3e" style="stroke-miterlimit: 2; opacity: 1;"><g class="fills"/><g class="errorbars"/><g class="lines"><path class="js-line" d="M0,2.66L11.02,22.01L22.04,27.29L44.08,31.32L55.1,32.65L77.14,36.6L88.16,46.22L99.18,67.73L110.2,82.92L132.24,102.89L143.27,108.51L165.31,118.98L176.33,121.29L187.35,124.76L198.37,124.83L220.41,127.2L231.43,137.3L253.47,154.92L264.49,161.71L275.51,167.09L286.53,175.68L297.55,185.25L308.57,190.22L341.63,211.42L352.65,219.83L363.67,227.63L374.69,234.03L396.73,249.37L407.76,258.67L418.78,263.83L429.8,270.91L440.82,277.19L451.84,279.52L473.88,284.03L484.9,286.72L506.94,289.84L517.96,293.11L540,295.87" style="vector-effect: non-scaling-stroke; fill: none; stroke: rgb(99, 110, 250); stroke-opacity: 1; stroke-width: 2px; opacity: 1;"/></g><g class="points"/><g class="text"/></g><g class="trace scatter traceda2aa4" style="stroke-miterlimit: 2; opacity: 1;"><g class="fills"/><g class="errorbars"/><g class="lines"><path class="js-line" d="M0,0.62L11.02,20.75L22.04,26.93L33.06,29.83L44.08,31.74L66.12,34.43L77.14,34.16L88.16,35.04L99.18,35.04L110.2,35.49L121.22,34.78L165.31,33.84L176.33,34.2L209.39,31.78L220.41,32.38L231.43,32.62L242.45,34.07L253.47,35.3L264.49,37.61L275.51,38.84L286.53,40.93L319.59,47.46L330.61,48.71L352.65,52.7L363.67,54.76L440.82,69.13L451.84,70.1L528.98,74.82L540,75.32" style="vector-effect: non-scaling-stroke; fill: none; stroke: rgb(239, 85, 59); stroke-opacity: 1; stroke-width: 2px; opacity: 1;"/></g><g class="points"/><g class="text"/></g><g class="trace scatter trace564966" style="stroke-miterlimit: 2; opacity: 1;"><g class="fills"/><g class="errorbars"/><g class="lines"><path class="js-line" d="M0,2.42L11.02,22.24L22.04,27.32L33.06,30.33L44.08,31.92L66.12,36.09L77.14,43.22L99.18,80.29L110.2,94.33L121.22,104.43L132.24,113.27L143.27,117.17L154.29,119.69L165.31,121.55L176.33,126.33L187.35,128.8L198.37,129.07L209.39,129.47L220.41,132.11L231.43,141.04L242.45,147.18L275.51,168.66L286.53,177.49L297.55,185.42L308.57,191.89L341.63,212.64L352.65,221.38L374.69,234.74L385.71,242.61L396.73,249.93L407.76,258.61L429.8,271.42L440.82,278.6L462.86,282.27L473.88,285.21L484.9,287.74L495.92,289.46L506.94,290.51L517.96,293.98L540,296.68" style="vector-effect: non-scaling-stroke; fill: none; stroke: rgb(0, 204, 150); stroke-opacity: 1; stroke-width: 2px; opacity: 1;"/></g><g class="points"/><g class="text"/></g><g class="trace scatter trace5ed24d" style="stroke-miterlimit: 2; opacity: 1;"><g class="fills"/><g class="errorbars"/><g class="lines"><path class="js-line" d="M0,0.38L11.02,20.87L22.04,26.82L33.06,29.91L44.08,31.6L55.1,33.23L66.12,33.77L77.14,34.16L88.16,35.49L99.18,38.59L110.2,47.93L132.24,65.53L143.27,73.11L176.33,87.63L187.35,89.78L198.37,90.45L209.39,93.8L220.41,96.21L231.43,103.17L242.45,109.74L253.47,114.09L264.49,119.58L275.51,125.94L308.57,143.65L319.59,148.46L330.61,151.58L341.63,157.94L352.65,162L363.67,168.5L374.69,174.44L385.71,179.21L396.73,183.78L407.76,189.89L418.78,194.47L429.8,201.35L451.84,206.4L462.86,208.47L473.88,210.7L484.9,211.29L506.94,214.42L517.96,215.76L528.98,218.02L540,219.42" style="vector-effect: non-scaling-stroke; fill: none; stroke: rgb(171, 99, 250); stroke-opacity: 1; stroke-width: 2px; opacity: 1;"/></g><g class="points"/><g class="text"/></g><g class="trace scatter tracef1efad" style="stroke-miterlimit: 2; opacity: 1;"><g class="fills"/><g class="errorbars"/><g class="lines"><path class="js-line" d="M0,0.37L11.02,20.89L22.04,26.6L33.06,30.03L44.08,31.58L55.1,33.44L66.12,34.36L77.14,34.35L88.16,35.58L99.18,40.87L110.2,49.38L121.22,57.34L132.24,60.69L143.27,65.15L154.29,67.09L165.31,68.25L176.33,70.57L187.35,71.12L198.37,70.21L209.39,70.76L220.41,72.32L242.45,77.61L253.47,81.53L264.49,84.88L275.51,87.13L286.53,91.85L297.55,93.77L330.61,106.7L341.63,109.94L352.65,114.75L363.67,117.97L374.69,124.99L385.71,130.37L396.73,134.7L407.76,141.53L429.8,152.51L440.82,156.27L473.88,163.75L484.9,165.71L495.92,168.29L506.94,169.68L540,174.35" style="vector-effect: non-scaling-stroke; fill: none; stroke: rgb(255, 161, 90); stroke-opacity: 1; stroke-width: 2px; opacity: 1;"/></g><g class="points"/><g class="text"/></g><g class="trace scatter trace65129b" style="stroke-miterlimit: 2; opacity: 1;"><g class="fills"/><g class="errorbars"/><g class="lines"><path class="js-line" d="M0,0.57L11.02,20.74L22.04,26.9L44.08,32.22L55.1,33.18L77.14,34.58L88.16,34.5L110.2,35.49L121.22,34.31L176.33,33.36L187.35,32.05L198.37,32.35L209.39,31.34L231.43,32.17L242.45,33.84L286.53,40.6L297.55,42.79L363.67,54.38L374.69,56.62L429.8,68.12L440.82,69.75L495.92,74.11L506.94,74.99L540,77.18" style="vector-effect: non-scaling-stroke; fill: none; stroke: rgb(25, 211, 243); stroke-opacity: 1; stroke-width: 2px; opacity: 1;"/></g><g class="points"/><g class="text"/></g><g class="trace scatter trace0a3d93" style="stroke-miterlimit: 2; opacity: 1;"><g class="fills"/><g class="errorbars"/><g class="lines"><path class="js-line" d="M0,0.32L11.02,21.24L22.04,26.95L44.08,31.99L55.1,33.06L66.12,34.33L77.14,33.99L88.16,35.11L99.18,34.79L110.2,35.14L121.22,34.67L154.29,34.06L165.31,35.42L176.33,44.36L187.35,54.51L198.37,61.41L209.39,66.46L220.41,72.95L231.43,80.79L264.49,100.38L275.51,105.8L297.55,119.16L308.57,125.39L319.59,129.63L330.61,134.8L341.63,142.5L352.65,146.21L363.67,152.35L374.69,160.01L396.73,169L407.76,175.28L418.78,179.89L429.8,185.88L440.82,188.84L451.84,190.78L473.88,195.36L484.9,196.58L540,203.58" style="vector-effect: non-scaling-stroke; fill: none; stroke: rgb(255, 102, 146); stroke-opacity: 1; stroke-width: 2px; opacity: 1;"/></g><g class="points"/><g class="text"/></g><g class="trace scatter trace46a7ca" style="stroke-miterlimit: 2; opacity: 1;"><g class="fills"/><g class="errorbars"/><g class="lines"><path class="js-line" d="M0,0.53L11.02,20.81L22.04,26.53L33.06,30.02L44.08,31.72L55.1,33.18L66.12,33.45L77.14,34.72L88.16,35.18L99.18,34.72L110.2,35.14L132.24,34.68L143.27,34.52L165.31,33.69L176.33,33.82L187.35,32.02L198.37,32.42L209.39,31.55L220.41,31.85L231.43,32.21L242.45,33.73L253.47,34.95L264.49,37.01L286.53,40.06L297.55,42.39L341.63,50.2L352.65,51.64L440.82,67.23L451.84,68.14L540,74.24" style="vector-effect: non-scaling-stroke; fill: none; stroke: rgb(182, 232, 128); stroke-opacity: 1; stroke-width: 2px; opacity: 1;"/></g><g class="points"/><g class="text"/></g><g class="trace scatter trace119c61" style="stroke-miterlimit: 2; opacity: 1;"><g class="fills"/><g class="errorbars"/><g class="lines"><path class="js-line" d="M0,0.14L11.02,21.19L22.04,27.06L33.06,29.9L44.08,31.86L66.12,33.99L77.14,34.4L110.2,35.56L121.22,34.14L143.27,34.78L154.29,34.32L176.33,34.08L187.35,32.73L198.37,33.05L209.39,31.99L231.43,32.34L242.45,33.91L330.61,48.45L341.63,50.69L352.65,51.93L363.67,54L429.8,65.52L440.82,66.9L540,73.49" style="vector-effect: non-scaling-stroke; fill: none; stroke: rgb(255, 151, 255); stroke-opacity: 1; stroke-width: 2px; opacity: 1;"/></g><g class="points"/><g class="text"/></g><g class="trace scatter trace1ab362" style="stroke-miterlimit: 2; opacity: 1;"><g class="fills"/><g class="errorbars"/><g class="lines"><path class="js-line" d="M0,2.98L11.02,22.31L22.04,27.61L44.08,31.49L55.1,32.05L77.14,34.06L88.16,43.94L99.18,58.58L110.2,69.21L121.22,76.31L132.24,90.55L143.27,108.72L154.29,118.77L165.31,124.58L176.33,127.95L187.35,132.81L198.37,133.42L209.39,135.31L220.41,139.34L231.43,148.12L242.45,154.96L253.47,164.79L264.49,172.53L275.51,179.51L286.53,189.69L297.55,198.39L308.57,204.22L319.59,212.25L330.61,222.29L341.63,228.22L352.65,237.43L363.67,247.18L374.69,253.59L407.76,279.13L418.78,286.26L429.8,294.21L440.82,300.77L462.86,305.31L473.88,307.64L484.9,310.56L495.92,311.99L506.94,314.07L517.96,317.11L540,320" style="vector-effect: non-scaling-stroke; fill: none; stroke: rgb(254, 203, 82); stroke-opacity: 1; stroke-width: 2px; opacity: 1;"/></g><g class="points"/><g class="text"/></g><g class="trace scatter tracea8a478" style="stroke-miterlimit: 2; opacity: 1;"><g class="fills"/><g class="errorbars"/><g class="lines"><path class="js-line" d="M0,0.29L11.02,20.57L22.04,26.59L33.06,29.64L44.08,31.9L66.12,34.39L77.14,34.29L88.16,35.2L99.18,35.18L176.33,33.72L187.35,32.36L220.41,31.55L231.43,32.45L275.51,38.19L286.53,40.28L308.57,44.5L319.59,46.49L352.65,51.69L363.67,53.75L385.71,57.59L396.73,59.38L440.82,67.02L451.84,67.99L517.96,72.77L528.98,73.39L540,74.02" style="vector-effect: non-scaling-stroke; fill: none; stroke: rgb(99, 110, 250); stroke-opacity: 1; stroke-width: 2px; opacity: 1;"/></g><g class="points"/><g class="text"/></g><g class="trace scatter tracee74738" style="stroke-miterlimit: 2; opacity: 1;"><g class="fills"/><g class="errorbars"/><g class="lines"><path class="js-line" d="M0,2.46L11.02,22.52L22.04,27.62L44.08,31.5L55.1,32.48L66.12,34.1L77.14,36.48L88.16,47.84L99.18,70.13L110.2,83.98L121.22,93.99L132.24,102.14L143.27,107.38L154.29,112.01L165.31,115.71L176.33,118.94L187.35,123.68L198.37,122.73L209.39,123.52L220.41,126.66L231.43,133.47L242.45,142.73L253.47,149.77L275.51,163.79L286.53,172.78L297.55,183.11L308.57,189.54L330.61,204.37L341.63,213.23L352.65,221.35L363.67,228.28L385.71,242.67L396.73,251.38L407.76,260.05L418.78,266.33L429.8,273.97L440.82,280.4L462.86,284.54L473.88,287.53L495.92,292.35L506.94,293.6L517.96,296.61L528.98,298.19L540,299.48" style="vector-effect: non-scaling-stroke; fill: none; stroke: rgb(239, 85, 59); stroke-opacity: 1; stroke-width: 2px; opacity: 1;"/></g><g class="points"/><g class="text"/></g><g class="trace scatter tracefa3c44" style="stroke-miterlimit: 2; opacity: 1;"><g class="fills"/><g class="errorbars"/><g class="lines"><path class="js-line" d="M0,0.1L11.02,20.81L22.04,27.29L44.08,31.7L55.1,32.93L88.16,34.77L99.18,34.97L110.2,35.18L121.22,34.49L176.33,33.32L187.35,31.73L198.37,32.43L209.39,31.4L231.43,31.91L242.45,33.72L264.49,36.51L275.51,38.85L363.67,54.21L374.69,56.27L440.82,67.43L451.84,68.32L540,74.62" style="vector-effect: non-scaling-stroke; fill: none; stroke: rgb(0, 204, 150); stroke-opacity: 1; stroke-width: 2px; opacity: 1;"/></g><g class="points"/><g class="text"/></g><g class="trace scatter traced88ecf" style="stroke-miterlimit: 2; opacity: 1;"><g class="fills"/><g class="errorbars"/><g class="lines"><path class="js-line" d="M0,0.42L11.02,20.93L22.04,26.83L33.06,30.03L44.08,32.38L88.16,35.62L99.18,37.45L110.2,44.57L121.22,53.46L143.27,71.48L154.29,86.06L165.31,98.16L176.33,107.57L187.35,108.75L198.37,112.56L209.39,113.9L220.41,117.67L253.47,138.58L264.49,146L286.53,161.18L297.55,167.34L308.57,175.78L319.59,182.7L341.63,196.67L352.65,201.37L363.67,210.96L374.69,217.92L418.78,245.5L429.8,253.4L440.82,257.79L451.84,259.61L473.88,264.51L484.9,266.19L517.96,271.17L528.98,273.28L540,275.05" style="vector-effect: non-scaling-stroke; fill: none; stroke: rgb(171, 99, 250); stroke-opacity: 1; stroke-width: 2px; opacity: 1;"/></g><g class="points"/><g class="text"/></g><g class="trace scatter tracedd6d8c" style="stroke-miterlimit: 2; opacity: 1;"><g class="fills"/><g class="errorbars"/><g class="lines"><path class="js-line" d="M0,0.32L11.02,20.74L22.04,26.66L33.06,29.83L44.08,31.85L77.14,34.49L88.16,35.17L99.18,34.25L110.2,35.05L121.22,34.36L132.24,34.52L143.27,34.91L154.29,33.67L176.33,33.7L187.35,32.3L209.39,31.74L220.41,31.08L231.43,31.99L242.45,33.68L308.57,43.67L319.59,45.8L363.67,53.25L374.69,55.59L396.73,59.06L407.76,61.12L440.82,66.7L451.84,67.77L517.96,73.08L528.98,73.76L540,74.47" style="vector-effect: non-scaling-stroke; fill: none; stroke: rgb(255, 161, 90); stroke-opacity: 1; stroke-width: 2px; opacity: 1;"/></g><g class="points"/><g class="text"/></g><g class="trace scatter tracebe617a" style="stroke-miterlimit: 2; opacity: 1;"><g class="fills"/><g class="errorbars"/><g class="lines"><path class="js-line" d="M0,0.29L11.02,21.03L22.04,27.26L44.08,31.8L55.1,33.16L99.18,34.74L110.2,34.84L165.31,33.72L176.33,33.94L187.35,32.01L198.37,32.3L209.39,31.53L220.41,31.75L231.43,31.77L242.45,33.53L253.47,34.72L264.49,36.75L330.61,47.98L341.63,50.62L363.67,54.5L374.69,57.02L440.82,69.1L451.84,70.1L540,75.25" style="vector-effect: non-scaling-stroke; fill: none; stroke: rgb(25, 211, 243); stroke-opacity: 1; stroke-width: 2px; opacity: 1;"/></g><g class="points"/><g class="text"/></g><g class="trace scatter tracefc7cb0" style="stroke-miterlimit: 2; opacity: 1;"><g class="fills"/><g class="errorbars"/><g class="lines"><path class="js-line" d="M0,0.34L11.02,20.65L22.04,26.49L44.08,31.68L55.1,33.04L66.12,34.13L77.14,34.33L110.2,35.32L121.22,34.49L143.27,34.77L154.29,33.68L176.33,34.05L187.35,32.66L209.39,31.13L220.41,32.06L231.43,31.61L242.45,33.86L264.49,37.11L275.51,38.66L297.55,42.83L308.57,44.96L440.82,70.13L451.84,71.25L540,76.87" style="vector-effect: non-scaling-stroke; fill: none; stroke: rgb(255, 102, 146); stroke-opacity: 1; stroke-width: 2px; opacity: 1;"/></g><g class="points"/><g class="text"/></g><g class="trace scatter tracee1f33e" style="stroke-miterlimit: 2; opacity: 1;"><g class="fills"/><g class="errorbars"/><g class="lines"><path class="js-line" d="M0,0.03L11.02,20.51L22.04,26.64L33.06,29.9L44.08,31.47L55.1,33.41L66.12,33.87L88.16,34.61L99.18,36.18L110.2,41.65L121.22,49.71L143.27,61L154.29,63.3L209.39,78.46L220.41,83.6L231.43,89.85L242.45,97.95L264.49,109.86L275.51,114.4L286.53,121.14L297.55,125.17L308.57,133.07L319.59,137.36L330.61,141.25L341.63,146.71L363.67,158.52L374.69,164.27L407.76,178.99L418.78,184.37L429.8,189.82L440.82,193.09L462.86,197.06L473.88,198.75L484.9,199.83L495.92,201.85L517.96,204.39L528.98,206.02L540,207.32" style="vector-effect: non-scaling-stroke; fill: none; stroke: rgb(182, 232, 128); stroke-opacity: 1; stroke-width: 2px; opacity: 1;"/></g><g class="points"/><g class="text"/></g><g class="trace scatter trace8f5001" style="stroke-miterlimit: 2; opacity: 1;"><g class="fills"/><g class="errorbars"/><g class="lines"><path class="js-line" d="M0,0.24L11.02,20.78L22.04,26.81L33.06,29.76L44.08,31.55L55.1,33.33L66.12,34.08L99.18,34.14L110.2,35.12L121.22,34.23L132.24,34.24L143.27,34.62L154.29,33.84L176.33,33.42L187.35,32.04L198.37,32.24L209.39,31.61L220.41,31.14L231.43,31.61L286.53,39.83L297.55,42.07L341.63,49.8L352.65,51.3L440.82,66.23L451.84,67.01L540,71.8" style="vector-effect: non-scaling-stroke; fill: none; stroke: rgb(255, 151, 255); stroke-opacity: 1; stroke-width: 2px; opacity: 1;"/></g><g class="points"/><g class="text"/></g><g class="trace scatter trace11d310" style="stroke-miterlimit: 2; opacity: 1;"><g class="fills"/><g class="errorbars"/><g class="lines"><path class="js-line" d="M0,0.12L11.02,21.08L22.04,26.81L33.06,29.75L44.08,31.71L66.12,34.16L77.14,34.6L99.18,34.98L110.2,35.05L176.33,33.67L187.35,31.8L198.37,32.42L209.39,31.53L231.43,32.11L242.45,33.86L253.47,34.93L264.49,37.13L341.63,50.39L352.65,51.87L440.82,68.35L451.84,69.47L528.98,76.53L540,77.32" style="vector-effect: non-scaling-stroke; fill: none; stroke: rgb(254, 203, 82); stroke-opacity: 1; stroke-width: 2px; opacity: 1;"/></g><g class="points"/><g class="text"/></g><g class="trace scatter tracee5964e" style="stroke-miterlimit: 2; opacity: 1;"><g class="fills"/><g class="errorbars"/><g class="lines"><path class="js-line" d="M0,0.57L11.02,20.6L22.04,26.73L33.06,29.55L44.08,31.53L77.14,34.82L88.16,35.05L121.22,34.71L132.24,38.5L143.27,48.7L154.29,56.66L176.33,73.55L187.35,76.74L220.41,88.98L231.43,93.51L242.45,98.42L253.47,104.67L264.49,110.27L275.51,113.57L286.53,120.37L297.55,125.44L308.57,132.48L319.59,137.59L330.61,141.03L341.63,147.99L352.65,152.68L363.67,159.13L385.71,170.46L396.73,174.88L407.76,180.94L418.78,186.09L429.8,191.88L440.82,194.87L451.84,197.19L462.86,198.74L473.88,201.13L484.9,202.24L540,209.42" style="vector-effect: non-scaling-stroke; fill: none; stroke: rgb(99, 110, 250); stroke-opacity: 1; stroke-width: 2px; opacity: 1;"/></g><g class="points"/><g class="text"/></g><g class="trace scatter trace7230d9" style="stroke-miterlimit: 2; opacity: 1;"><g class="fills"/><g class="errorbars"/><g class="lines"><path class="js-line" d="M0,2.66L11.02,21.93L22.04,27.45L33.06,30.36L44.08,31.53L55.1,32.44L66.12,34.78L77.14,36.65L88.16,45.7L110.2,67.82L121.22,81.97L132.24,94.65L143.27,104.3L154.29,110.1L165.31,112.52L176.33,116.87L187.35,120.38L198.37,120.31L209.39,123.43L220.41,127.29L231.43,135.84L242.45,143.67L253.47,153.48L264.49,161.26L275.51,168.1L286.53,176.06L297.55,186.23L319.59,200.86L330.61,210.33L341.63,217.25L352.65,227.12L363.67,235.05L374.69,243.97L385.71,250.96L396.73,259.78L407.76,268.52L418.78,275.08L429.8,282.85L440.82,289.65L473.88,296.53L484.9,299.45L506.94,302.84L517.96,305.73L540,309.31" style="vector-effect: non-scaling-stroke; fill: none; stroke: rgb(239, 85, 59); stroke-opacity: 1; stroke-width: 2px; opacity: 1;"/></g><g class="points"/><g class="text"/></g><g class="trace scatter trace9494fd" style="stroke-miterlimit: 2; opacity: 1;"><g class="fills"/><g class="errorbars"/><g class="lines"><path class="js-line" d="M0,0.79L11.02,21.09L22.04,26.96L33.06,29.72L44.08,31.56L66.12,33.98L77.14,34.02L88.16,35.57L99.18,40.69L110.2,50.47L121.22,57.71L132.24,62.3L143.27,65.93L165.31,68.89L176.33,69.81L187.35,71.08L198.37,69.65L220.41,72.37L231.43,75.45L264.49,85.16L275.51,88.61L286.53,93.93L297.55,96.54L319.59,107.45L330.61,111.93L363.67,125.8L374.69,131.92L385.71,137.44L396.73,141.44L407.76,148.05L418.78,153.24L429.8,159.06L440.82,162.7L484.9,171.67L495.92,173.47L528.98,177.99L540,179.71" style="vector-effect: non-scaling-stroke; fill: none; stroke: rgb(0, 204, 150); stroke-opacity: 1; stroke-width: 2px; opacity: 1;"/></g><g class="points"/><g class="text"/></g><g class="trace scatter trace0bc04b" style="stroke-miterlimit: 2; opacity: 1;"><g class="fills"/><g class="errorbars"/><g class="lines"><path class="js-line" d="M0,0.66L11.02,20.95L22.04,27.1L44.08,31.97L55.1,33.54L66.12,34.68L77.14,34.72L110.2,35.95L121.22,35.24L132.24,37.12L143.27,47.4L154.29,60.04L165.31,68.15L176.33,76.16L187.35,80.06L198.37,82.81L209.39,87.01L220.41,91.63L231.43,98.76L264.49,115.95L275.51,120.55L286.53,127.92L297.55,132.9L308.57,139.95L319.59,143.42L341.63,154.95L352.65,157.93L374.69,170.94L385.71,175.47L407.76,185.79L418.78,190.88L429.8,196.96L440.82,199.95L473.88,205.96L484.9,206.87L506.94,209.7L517.96,211.27L540,214.28" style="vector-effect: non-scaling-stroke; fill: none; stroke: rgb(171, 99, 250); stroke-opacity: 1; stroke-width: 2px; opacity: 1;"/></g><g class="points"/><g class="text"/></g><g class="trace scatter tracef6281c" style="stroke-miterlimit: 2; opacity: 1;"><g class="fills"/><g class="errorbars"/><g class="lines"><path class="js-line" d="M0,0.35L11.02,21.17L22.04,26.61L33.06,29.76L44.08,31.57L55.1,33.36L66.12,34.31L77.14,36.41L88.16,43.48L110.2,62.77L121.22,72.49L132.24,78.4L143.27,85.34L154.29,89.5L165.31,92.65L176.33,94.55L187.35,95.47L198.37,95.7L209.39,97.51L220.41,101.59L231.43,106.64L242.45,113.3L253.47,117.82L286.53,135.88L297.55,142.73L319.59,155.99L330.61,160.07L341.63,166.52L352.65,170.96L363.67,179.02L374.69,185.51L396.73,195.25L407.76,202.61L418.78,206.52L429.8,213.95L473.88,224.13L484.9,225.42L506.94,228.16L517.96,230.25L540,233.38" style="vector-effect: non-scaling-stroke; fill: none; stroke: rgb(255, 161, 90); stroke-opacity: 1; stroke-width: 2px; opacity: 1;"/></g><g class="points"/><g class="text"/></g><g class="trace scatter traceaa2ce7" style="stroke-miterlimit: 2; opacity: 1;"><g class="fills"/><g class="errorbars"/><g class="lines"><path class="js-line" d="M0,0.3L11.02,20.83L22.04,26.91L44.08,31.96L55.1,33.14L77.14,34.55L88.16,34.92L143.27,34.34L154.29,33.46L165.31,33.53L176.33,32.76L187.35,31.61L198.37,31.89L220.41,31.93L231.43,32.33L253.47,34.73L264.49,36.81L319.59,45.66L330.61,47.43L374.69,54.19L385.71,55.67L418.78,61.25L429.8,63.64L451.84,66.9L462.86,68.06L540,73.24" style="vector-effect: non-scaling-stroke; fill: none; stroke: rgb(25, 211, 243); stroke-opacity: 1; stroke-width: 2px; opacity: 1;"/></g><g class="points"/><g class="text"/></g><g class="trace scatter trace597dc0" style="stroke-miterlimit: 2; opacity: 1;"><g class="fills"/><g class="errorbars"/><g class="lines"><path class="js-line" d="M0,2.04L11.02,22.3L22.04,27.31L44.08,31.75L55.1,32.56L66.12,36.36L77.14,42.95L88.16,57.06L99.18,78.52L110.2,94.87L121.22,103.49L132.24,110.59L143.27,113.79L154.29,117.49L165.31,119.54L176.33,121.8L187.35,125.34L198.37,125.11L209.39,128.15L220.41,130.06L231.43,140.13L242.45,148.65L253.47,155.83L264.49,164.16L275.51,169.73L286.53,176.33L297.55,186.52L308.57,191.56L319.59,198.64L330.61,206.62L341.63,212.75L363.67,228.03L374.69,233.81L385.71,240.75L396.73,248.59L407.76,256.9L418.78,263.1L429.8,271.07L440.82,276.95L484.9,286.36L495.92,287.71L506.94,289.09L517.96,292.65L528.98,294.36L540,295.27" style="vector-effect: non-scaling-stroke; fill: none; stroke: rgb(255, 102, 146); stroke-opacity: 1; stroke-width: 2px; opacity: 1;"/></g><g class="points"/><g class="text"/></g><g class="trace scatter trace5002db" style="stroke-miterlimit: 2; opacity: 1;"><g class="fills"/><g class="errorbars"/><g class="lines"><path class="js-line" d="M0,0.71L11.02,20.63L22.04,26.89L44.08,31.68L55.1,33.52L88.16,34.82L99.18,34.91L110.2,35.37L121.22,34.4L132.24,34.33L143.27,35.03L154.29,34.02L165.31,34.06L209.39,32.08L220.41,32.21L231.43,32.51L242.45,34.18L286.53,41.25L297.55,43.6L341.63,52.34L352.65,54.11L429.8,69.19L440.82,70.8L495.92,74.95L506.94,75.73L540,78.03" style="vector-effect: non-scaling-stroke; fill: none; stroke: rgb(182, 232, 128); stroke-opacity: 1; stroke-width: 2px; opacity: 1;"/></g><g class="points"/><g class="text"/></g><g class="trace scatter trace7a88aa" style="stroke-miterlimit: 2; opacity: 1;"><g class="fills"/><g class="errorbars"/><g class="lines"><path class="js-line" d="M0,0.18L11.02,20.81L22.04,26.76L33.06,29.68L44.08,31.78L66.12,34.35L77.14,34.23L99.18,35.46L110.2,40.8L121.22,49.78L132.24,57.31L143.27,63.38L154.29,65.14L176.33,68.65L187.35,69.98L198.37,68.9L209.39,70.22L220.41,71.33L231.43,74.36L242.45,76.78L253.47,80.61L275.51,85.9L286.53,90.74L297.55,92.86L308.57,96.85L330.61,104.68L341.63,108.02L352.65,112.84L363.67,116.35L385.71,127.09L396.73,131.27L407.76,137.55L418.78,142.43L429.8,148.26L440.82,151.8L506.94,164.08L517.96,165.64L540,168.57" style="vector-effect: non-scaling-stroke; fill: none; stroke: rgb(255, 151, 255); stroke-opacity: 1; stroke-width: 2px; opacity: 1;"/></g><g class="points"/><g class="text"/></g><g class="trace scatter trace009bfe" style="stroke-miterlimit: 2; opacity: 1;"><g class="fills"/><g class="errorbars"/><g class="lines"><path class="js-line" d="M0,0.21L11.02,20.82L22.04,26.78L44.08,32.32L55.1,33.21L77.14,34.53L88.16,35.04L99.18,34.5L110.2,35.23L132.24,34.52L143.27,34.78L154.29,33.81L165.31,33.65L176.33,33.52L187.35,32.42L209.39,31.46L220.41,32.12L231.43,31.65L242.45,33.69L286.53,40.09L297.55,42.16L341.63,50.13L352.65,51.8L396.73,59.19L407.76,61.67L440.82,67.68L451.84,68.63L506.94,72.13L517.96,72.85L540,73.99" style="vector-effect: non-scaling-stroke; fill: none; stroke: rgb(254, 203, 82); stroke-opacity: 1; stroke-width: 2px; opacity: 1;"/></g><g class="points"/><g class="text"/></g><g class="trace scatter trace69cea5" style="stroke-miterlimit: 2; opacity: 1;"><g class="fills"/><g class="errorbars"/><g class="lines"><path class="js-line" d="M0,0.48L11.02,20.81L22.04,26.76L33.06,29.81L44.08,31.87L66.12,34.03L77.14,34.44L88.16,35.28L99.18,35.2L143.27,35.16L154.29,34.28L165.31,34.92L176.33,37.57L187.35,46.95L198.37,53.05L209.39,57.47L220.41,60.71L242.45,68.53L253.47,72.3L286.53,82.52L297.55,85.14L319.59,93.35L330.61,96.52L363.67,107.96L374.69,114.01L396.73,124.99L407.76,131.96L429.8,143.77L440.82,147.67L462.86,152.68L473.88,154.15L495.92,157.81L506.94,159.81L517.96,160.89L528.98,162.76L540,164.09" style="vector-effect: non-scaling-stroke; fill: none; stroke: rgb(99, 110, 250); stroke-opacity: 1; stroke-width: 2px; opacity: 1;"/></g><g class="points"/><g class="text"/></g><g class="trace scatter tracec7949e" style="stroke-miterlimit: 2; opacity: 1;"><g class="fills"/><g class="errorbars"/><g class="lines"><path class="js-line" d="M0,0.48L11.02,21.03L22.04,26.79L33.06,29.73L44.08,31.75L66.12,34.51L77.14,34.57L88.16,35.13L99.18,34.82L110.2,35.21L121.22,34.6L165.31,34.02L176.33,33.67L187.35,32.03L198.37,32.2L209.39,31.36L220.41,31.88L231.43,32.06L242.45,33.55L264.49,37.51L275.51,38.35L308.57,44.59L319.59,46.63L363.67,53.83L374.69,56.13L440.82,67.21L451.84,68.07L540,73.44" style="vector-effect: non-scaling-stroke; fill: none; stroke: rgb(239, 85, 59); stroke-opacity: 1; stroke-width: 2px; opacity: 1;"/></g><g class="points"/><g class="text"/></g><g class="trace scatter trace10f65a" style="stroke-miterlimit: 2; opacity: 1;"><g class="fills"/><g class="errorbars"/><g class="lines"><path class="js-line" d="M0,0.48L11.02,20.68L22.04,26.74L33.06,30L44.08,31.86L66.12,33.96L77.14,34.19L99.18,35.13L110.2,35.2L132.24,34.6L143.27,34.82L165.31,33.8L176.33,33.98L187.35,32.34L198.37,31.85L209.39,31.33L220.41,31.71L231.43,31.72L242.45,33.91L275.51,39.03L286.53,40.94L341.63,50.95L352.65,52.58L363.67,54.22L374.69,56.69L440.82,68.14L451.84,69.27L540,76.6" style="vector-effect: non-scaling-stroke; fill: none; stroke: rgb(0, 204, 150); stroke-opacity: 1; stroke-width: 2px; opacity: 1;"/></g><g class="points"/><g class="text"/></g><g class="trace scatter trace129a0e" style="stroke-miterlimit: 2; opacity: 1;"><g class="fills"/><g class="errorbars"/><g class="lines"><path class="js-line" d="M0,2.55L11.02,22.27L22.04,27.42L44.08,32.12L55.1,32.35L77.14,35.79L88.16,43.99L99.18,64.13L110.2,81.68L121.22,94.77L132.24,104.04L154.29,114.63L165.31,116.61L198.37,126.14L209.39,126.32L220.41,131.57L231.43,139.72L242.45,147.18L253.47,156.69L264.49,165.09L275.51,170.39L286.53,178.9L297.55,188.56L341.63,216.7L352.65,224.78L374.69,238.11L385.71,245.89L396.73,252.3L407.76,260.66L418.78,266.98L429.8,274.46L440.82,279.88L451.84,282.74L462.86,284.58L473.88,287.47L484.9,290.43L495.92,291.19L506.94,292.73L517.96,295.72L540,299.2" style="vector-effect: non-scaling-stroke; fill: none; stroke: rgb(171, 99, 250); stroke-opacity: 1; stroke-width: 2px; opacity: 1;"/></g><g class="points"/><g class="text"/></g><g class="trace scatter trace065b6e" style="stroke-miterlimit: 2; opacity: 1;"><g class="fills"/><g class="errorbars"/><g class="lines"><path class="js-line" d="M0,0.45L11.02,20.91L22.04,26.77L33.06,30.1L44.08,32.17L88.16,35.67L99.18,37.31L121.22,54.73L132.24,61.56L143.27,68.76L154.29,74.88L165.31,85.78L176.33,94.8L187.35,97.52L198.37,99.2L231.43,115.31L242.45,122.97L253.47,127.74L264.49,133.96L275.51,140.45L286.53,147.82L297.55,153.45L308.57,160.93L319.59,167.03L330.61,171.22L341.63,179.27L352.65,183.87L374.69,200.01L385.71,204.94L396.73,211.43L407.76,219.26L418.78,225.03L429.8,232.93L440.82,237.34L451.84,239.94L473.88,244.97L484.9,246.29L506.94,249.97L517.96,251.48L540,255.53" style="vector-effect: non-scaling-stroke; fill: none; stroke: rgb(255, 161, 90); stroke-opacity: 1; stroke-width: 2px; opacity: 1;"/></g><g class="points"/><g class="text"/></g><g class="trace scatter tracee54282" style="stroke-miterlimit: 2; opacity: 1;"><g class="fills"/><g class="errorbars"/><g class="lines"><path class="js-line" d="M0,0.36L11.02,20.61L22.04,26.7L33.06,29.62L44.08,31.65L55.1,33.3L66.12,34.08L88.16,34.83L99.18,34.82L110.2,35.38L121.22,34.53L176.33,33.27L187.35,32.27L198.37,32.22L209.39,31.07L231.43,32.46L242.45,33.99L286.53,40.59L297.55,42.73L374.69,56.29L385.71,58.48L407.76,62.69L418.78,65.06L440.82,69.16L451.84,70.1L517.96,74.4L528.98,75.03L540,75.6" style="vector-effect: non-scaling-stroke; fill: none; stroke: rgb(25, 211, 243); stroke-opacity: 1; stroke-width: 2px; opacity: 1;"/></g><g class="points"/><g class="text"/></g><g class="trace scatter trace75a2b4" style="stroke-miterlimit: 2; opacity: 1;"><g class="fills"/><g class="errorbars"/><g class="lines"><path class="js-line" d="M0,0.33L11.02,20.94L22.04,26.79L33.06,29.94L44.08,31.52L55.1,33.13L66.12,33.86L99.18,35.02L110.2,35.29L132.24,34.59L143.27,34.53L154.29,33.71L165.31,33.93L176.33,33.9L187.35,32.26L198.37,32.84L209.39,31.99L231.43,32.8L242.45,34.08L286.53,41.24L297.55,43.37L385.71,59.24L396.73,61.32L429.8,68.36L440.82,70.02L506.94,74.5L517.96,75.21L540,76.52" style="vector-effect: non-scaling-stroke; fill: none; stroke: rgb(255, 102, 146); stroke-opacity: 1; stroke-width: 2px; opacity: 1;"/></g><g class="points"/><g class="text"/></g><g class="trace scatter tracea9cedf" style="stroke-miterlimit: 2; opacity: 1;"><g class="fills"/><g class="errorbars"/><g class="lines"><path class="js-line" d="M0,0.16L11.02,20.96L22.04,26.97L33.06,30.13L44.08,31.66L77.14,34.27L88.16,34.96L143.27,34.73L154.29,33.65L176.33,33.87L187.35,38.13L209.39,55.62L220.41,61.79L242.45,71.57L253.47,74.44L286.53,85.9L297.55,88.83L341.63,104.09L352.65,107.26L363.67,111.26L374.69,116.14L385.71,121.18L396.73,124.31L407.76,130.41L418.78,134.57L429.8,139.24L440.82,142.68L473.88,148.38L484.9,149.61L495.92,151.92L506.94,153.21L540,157.14" style="vector-effect: non-scaling-stroke; fill: none; stroke: rgb(182, 232, 128); stroke-opacity: 1; stroke-width: 2px; opacity: 1;"/></g><g class="points"/><g class="text"/></g><g class="trace scatter trace5a5e90" style="stroke-miterlimit: 2; opacity: 1;"><g class="fills"/><g class="errorbars"/><g class="lines"><path class="js-line" d="M0,0.39L11.02,20.94L22.04,26.91L33.06,29.57L44.08,31.3L66.12,33.95L77.14,34.13L110.2,35.24L121.22,34.19L143.27,35.17L154.29,33.9L176.33,33.86L187.35,32.42L198.37,32.61L209.39,31.5L231.43,32.15L242.45,33.75L330.61,48.41L341.63,50.49L396.73,60.87L407.76,63.05L429.8,67.46L440.82,69L462.86,70.74L473.88,71.4L540,75.52" style="vector-effect: non-scaling-stroke; fill: none; stroke: rgb(255, 151, 255); stroke-opacity: 1; stroke-width: 2px; opacity: 1;"/></g><g class="points"/><g class="text"/></g><g class="trace scatter tracebb5d23" style="stroke-miterlimit: 2; opacity: 1;"><g class="fills"/><g class="errorbars"/><g class="lines"><path class="js-line" d="M0,0.44L11.02,20.41L22.04,26.86L33.06,29.92L44.08,32.09L66.12,33.92L77.14,34.28L99.18,34.49L110.2,35.09L121.22,34L132.24,34.45L176.33,33.56L187.35,32.27L198.37,32.54L209.39,31.71L231.43,31.72L242.45,33.92L253.47,34.78L264.49,37.19L286.53,40.25L297.55,41.72L396.73,59.79L407.76,61.99L440.82,67.35L451.84,68.27L528.98,72.99L540,73.57" style="vector-effect: non-scaling-stroke; fill: none; stroke: rgb(254, 203, 82); stroke-opacity: 1; stroke-width: 2px; opacity: 1;"/></g><g class="points"/><g class="text"/></g><g class="trace scatter trace91d91b" style="stroke-miterlimit: 2; opacity: 1;"><g class="fills"/><g class="errorbars"/><g class="lines"><path class="js-line" d="M0,2.83L11.02,22.46L22.04,27.53L44.08,31.65L55.1,32.78L77.14,35.67L88.16,42.03L99.18,63.49L110.2,80.48L121.22,93.36L132.24,103.27L154.29,114.22L165.31,118.09L187.35,125.82L198.37,126.32L209.39,128.28L220.41,132.1L253.47,155.79L264.49,163.48L286.53,177.71L297.55,188.14L308.57,192.35L319.59,200.78L330.61,209.23L341.63,214.82L352.65,223.59L363.67,230L385.71,244.05L396.73,252.01L407.76,260.14L418.78,265.37L440.82,278.78L451.84,280.96L462.86,282.25L473.88,285L484.9,287.73L495.92,288.82L528.98,295.49L540,296.37" style="vector-effect: non-scaling-stroke; fill: none; stroke: rgb(99, 110, 250); stroke-opacity: 1; stroke-width: 2px; opacity: 1;"/></g><g class="points"/><g class="text"/></g><g class="trace scatter trace05ec1f" style="stroke-miterlimit: 2; opacity: 1;"><g class="fills"/><g class="errorbars"/><g class="lines"><path class="js-line" d="M0,0.58L11.02,20.7L22.04,26.68L33.06,29.51L44.08,31.38L66.12,33.98L77.14,34.28L88.16,35.1L99.18,34.48L110.2,35.23L121.22,34.55L132.24,34.11L143.27,35.1L154.29,34.1L165.31,34.25L176.33,34.35L187.35,33.01L220.41,32.49L231.43,32.88L242.45,34.06L253.47,36.04L264.49,37.96L275.51,38.96L308.57,45.38L319.59,46.89L374.69,56.44L385.71,58.23L440.82,67.49L451.84,68.39L540,73.78" style="vector-effect: non-scaling-stroke; fill: none; stroke: rgb(239, 85, 59); stroke-opacity: 1; stroke-width: 2px; opacity: 1;"/></g><g class="points"/><g class="text"/></g><g class="trace scatter trace3ab60f" style="stroke-miterlimit: 2; opacity: 1;"><g class="fills"/><g class="errorbars"/><g class="lines"><path class="js-line" d="M0,0.5L11.02,21.05L22.04,26.6L33.06,30.09L44.08,31.31L66.12,34.18L77.14,34.14L88.16,34.99L99.18,34.62L110.2,34.99L121.22,34.52L143.27,34.57L154.29,33.54L176.33,34.07L187.35,32.53L198.37,32.63L209.39,31.72L231.43,31.91L242.45,33.76L253.47,34.61L264.49,36.92L275.51,38.14L286.53,40.51L341.63,50.31L352.65,52.16L440.82,66.84L451.84,67.72L540,72.87" style="vector-effect: non-scaling-stroke; fill: none; stroke: rgb(0, 204, 150); stroke-opacity: 1; stroke-width: 2px; opacity: 1;"/></g><g class="points"/><g class="text"/></g><g class="trace scatter tracecbd0c0" style="stroke-miterlimit: 2; opacity: 1;"><g class="fills"/><g class="errorbars"/><g class="lines"><path class="js-line" d="M0,0.4L11.02,20.93L22.04,26.7L33.06,29.9L44.08,31.79L77.14,34.49L88.16,34.95L176.33,33.73L187.35,31.79L198.37,32.02L209.39,31.32L220.41,31.26L231.43,32.13L242.45,33.06L253.47,34.75L286.53,40.02L297.55,42.22L308.57,44.48L319.59,45.79L363.67,53.34L374.69,55.5L440.82,66.76L451.84,67.81L540,73.78" style="vector-effect: non-scaling-stroke; fill: none; stroke: rgb(171, 99, 250); stroke-opacity: 1; stroke-width: 2px; opacity: 1;"/></g><g class="points"/><g class="text"/></g><g class="trace scatter traced9014f" style="stroke-miterlimit: 2; opacity: 1;"><g class="fills"/><g class="errorbars"/><g class="lines"><path class="js-line" d="M0,2.31L11.02,22.29L22.04,27.06L33.06,29.85L44.08,31.58L55.1,32.65L66.12,34.6L77.14,35.92L88.16,39.12L110.2,67.07L121.22,84.48L132.24,101.24L143.27,107.42L154.29,112.24L165.31,115.39L187.35,119.88L198.37,119.96L220.41,123.2L231.43,131.94L286.53,167.59L297.55,176.68L319.59,187.9L330.61,195.71L341.63,201.89L352.65,209.26L374.69,222.68L385.71,230.6L429.8,257.82L440.82,263.47L451.84,266.14L462.86,267.71L484.9,272.82L495.92,274.38L506.94,275.79L517.96,278.99L540,281.63" style="vector-effect: non-scaling-stroke; fill: none; stroke: rgb(255, 161, 90); stroke-opacity: 1; stroke-width: 2px; opacity: 1;"/></g><g class="points"/><g class="text"/></g><g class="trace scatter trace44fc92" style="stroke-miterlimit: 2; opacity: 1;"><g class="fills"/><g class="errorbars"/><g class="lines"><path class="js-line" d="M0,0.31L11.02,20.78L22.04,26.78L33.06,29.97L44.08,31.69L55.1,33.78L66.12,33.88L99.18,34.53L110.2,35.09L121.22,34.41L132.24,34.64L154.29,33.96L165.31,33.41L176.33,33.57L187.35,32.15L198.37,32.36L209.39,31.74L231.43,32.05L242.45,33.55L253.47,34.59L264.49,36.75L275.51,38.07L286.53,40.33L308.57,43.73L319.59,46.18L330.61,47.7L341.63,50.21L352.65,51.71L363.67,53.99L429.8,67.47L440.82,68.96L473.88,71.56L484.9,72.25L540,75.67" style="vector-effect: non-scaling-stroke; fill: none; stroke: rgb(25, 211, 243); stroke-opacity: 1; stroke-width: 2px; opacity: 1;"/></g><g class="points"/><g class="text"/></g><g class="trace scatter trace266787" style="stroke-miterlimit: 2; opacity: 1;"><g class="fills"/><g class="errorbars"/><g class="lines"><path class="js-line" d="M0,2.48L11.02,22.32L22.04,27.58L44.08,32.03L55.1,32.58L77.14,38.16L88.16,51.3L99.18,71.74L110.2,85.24L121.22,93.88L132.24,101.15L154.29,111.93L165.31,115.33L176.33,119.37L187.35,124.25L198.37,125.24L209.39,127.27L220.41,131.58L231.43,138.63L253.47,154.24L264.49,160.69L275.51,166.06L286.53,173.14L297.55,182.15L308.57,186.84L319.59,193.52L330.61,201.23L341.63,207.29L352.65,214.64L363.67,221.54L374.69,227.03L385.71,235.04L396.73,241.82L407.76,249.61L418.78,254.8L440.82,268.35L451.84,270.5L462.86,272.03L473.88,274.71L484.9,276.91L495.92,278.33L528.98,284.45L540,285.82" style="vector-effect: non-scaling-stroke; fill: none; stroke: rgb(255, 102, 146); stroke-opacity: 1; stroke-width: 2px; opacity: 1;"/></g><g class="points"/><g class="text"/></g><g class="trace scatter trace588322" style="stroke-miterlimit: 2; opacity: 1;"><g class="fills"/><g class="errorbars"/><g class="lines"><path class="js-line" d="M0,2.32L11.02,22.51L22.04,27.11L33.06,29.54L44.08,31.2L55.1,31.65L66.12,33.05L77.14,33.92L88.16,37.81L99.18,50.96L110.2,59.95L121.22,64.37L132.24,75.21L143.27,87.64L154.29,96.23L165.31,104.89L176.33,110.09L187.35,114.91L198.37,116.65L220.41,124.58L231.43,132.96L242.45,139.43L253.47,148.65L264.49,156.83L275.51,162.47L286.53,169.86L297.55,179.92L308.57,184.75L319.59,193.58L330.61,198.98L341.63,207.02L374.69,231.17L385.71,238.21L396.73,247.54L407.76,255.26L418.78,261.86L429.8,269.96L440.82,276.11L451.84,278.92L462.86,280.18L473.88,283.26L484.9,285.97L495.92,287.64L506.94,289.28L517.96,292.63L528.98,293.32L540,294.85" style="vector-effect: non-scaling-stroke; fill: none; stroke: rgb(182, 232, 128); stroke-opacity: 1; stroke-width: 2px; opacity: 1;"/></g><g class="points"/><g class="text"/></g><g class="trace scatter traceb6b7d9" style="stroke-miterlimit: 2; opacity: 1;"><g class="fills"/><g class="errorbars"/><g class="lines"><path class="js-line" d="M0,0.21L11.02,20.86L22.04,26.54L33.06,29.76L44.08,31.54L77.14,34.25L88.16,34.38L110.2,35.18L121.22,34.17L143.27,35.27L154.29,33.67L176.33,33.69L187.35,32.38L198.37,32.77L209.39,31.71L220.41,31.58L231.43,32.27L275.51,38.94L286.53,40.98L341.63,50.6L352.65,52.14L385.71,58.27L396.73,60.15L429.8,66.22L440.82,67.55L484.9,70.58L495.92,71.3L540,74.02" style="vector-effect: non-scaling-stroke; fill: none; stroke: rgb(255, 151, 255); stroke-opacity: 1; stroke-width: 2px; opacity: 1;"/></g><g class="points"/><g class="text"/></g><g class="trace scatter trace77158a" style="stroke-miterlimit: 2; opacity: 1;"><g class="fills"/><g class="errorbars"/><g class="lines"><path class="js-line" d="M0,0.52L11.02,21.03L22.04,27.14L44.08,32.15L55.1,33.37L77.14,34.5L88.16,34.98L110.2,35.49L121.22,34.53L143.27,34.53L154.29,33.73L176.33,33.56L187.35,31.57L198.37,31.96L209.39,31.05L231.43,31.83L242.45,33.2L264.49,36.45L275.51,37.97L319.59,46.32L330.61,47.95L440.82,69.59L451.84,70.51L517.96,75.17L528.98,75.94L540,76.54" style="vector-effect: non-scaling-stroke; fill: none; stroke: rgb(254, 203, 82); stroke-opacity: 1; stroke-width: 2px; opacity: 1;"/></g><g class="points"/><g class="text"/></g></g></g><g class="overplot"/><path class="xlines-above crisp" d="M0,0" style="fill: none;"/><path class="ylines-above crisp" d="M0,0" style="fill: none;"/><g class="overlines-above"/><g class="xaxislayer-above"><g class="xtick"><text text-anchor="middle" x="0" y="433" transform="translate(80,0)" style="font-family: 'Open Sans', verdana, arial, sans-serif; font-size: 12px; fill: rgb(42, 63, 95); fill-opacity: 1; white-space: pre; opacity: 1;">0</text></g><g class="xtick"><text text-anchor="middle" x="0" y="433" style="font-family: 'Open Sans', verdana, arial, sans-serif; font-size: 12px; fill: rgb(42, 63, 95); fill-opacity: 1; white-space: pre; opacity: 1;" transform="translate(190.2,0)">10</text></g><g class="xtick"><text text-anchor="middle" x="0" y="433" style="font-family: 'Open Sans', verdana, arial, sans-serif; font-size: 12px; fill: rgb(42, 63, 95); fill-opacity: 1; white-space: pre; opacity: 1;" transform="translate(300.40999999999997,0)">20</text></g><g class="xtick"><text text-anchor="middle" x="0" y="433" style="font-family: 'Open Sans', verdana, arial, sans-serif; font-size: 12px; fill: rgb(42, 63, 95); fill-opacity: 1; white-space: pre; opacity: 1;" transform="translate(410.61,0)">30</text></g><g class="xtick"><text text-anchor="middle" x="0" y="433" style="font-family: 'Open Sans', verdana, arial, sans-serif; font-size: 12px; fill: rgb(42, 63, 95); fill-opacity: 1; white-space: pre; opacity: 1;" transform="translate(520.8199999999999,0)">40</text></g></g><g class="yaxislayer-above"><g class="ytick"><text text-anchor="end" x="79" y="4.199999999999999" transform="translate(0,404.77)" style="font-family: 'Open Sans', verdana, arial, sans-serif; font-size: 12px; fill: rgb(42, 63, 95); fill-opacity: 1; white-space: pre; opacity: 1;">5.25</text></g><g class="ytick"><text text-anchor="end" x="79" y="4.199999999999999" style="font-family: 'Open Sans', verdana, arial, sans-serif; font-size: 12px; fill: rgb(42, 63, 95); fill-opacity: 1; white-space: pre; opacity: 1;" transform="translate(0,358.29)">5.3</text></g><g class="ytick"><text text-anchor="end" x="79" y="4.199999999999999" style="font-family: 'Open Sans', verdana, arial, sans-serif; font-size: 12px; fill: rgb(42, 63, 95); fill-opacity: 1; white-space: pre; opacity: 1;" transform="translate(0,311.81)">5.35</text></g><g class="ytick"><text text-anchor="end" x="79" y="4.199999999999999" style="font-family: 'Open Sans', verdana, arial, sans-serif; font-size: 12px; fill: rgb(42, 63, 95); fill-opacity: 1; white-space: pre; opacity: 1;" transform="translate(0,265.33000000000004)">5.4</text></g><g class="ytick"><text text-anchor="end" x="79" y="4.199999999999999" style="font-family: 'Open Sans', verdana, arial, sans-serif; font-size: 12px; fill: rgb(42, 63, 95); fill-opacity: 1; white-space: pre; opacity: 1;" transform="translate(0,218.85)">5.45</text></g><g class="ytick"><text text-anchor="end" x="79" y="4.199999999999999" style="font-family: 'Open Sans', verdana, arial, sans-serif; font-size: 12px; fill: rgb(42, 63, 95); fill-opacity: 1; white-space: pre; opacity: 1;" transform="translate(0,172.38)">5.5</text></g><g class="ytick"><text text-anchor="end" x="79" y="4.199999999999999" style="font-family: 'Open Sans', verdana, arial, sans-serif; font-size: 12px; fill: rgb(42, 63, 95); fill-opacity: 1; white-space: pre; opacity: 1;" transform="translate(0,125.9)">5.55</text></g></g><g class="overaxes-above"/></g></g><g class="polarlayer"/><g class="ternarylayer"/><g class="geolayer"/><g class="funnelarealayer"/><g class="pielayer"/><g class="iciclelayer"/><g class="treemaplayer"/><g class="sunburstlayer"/><g class="glimages"/><defs id="topdefs-15496e"><g class="clips"/></defs><g class="layer-above"><g class="imagelayer"/><g class="shapelayer"/></g><g class="infolayer"><g class="g-gtitle"><text class="gtitle" x="35" y="50" text-anchor="start" dy="0em" style="font-family: 'Open Sans', verdana, arial, sans-serif; font-size: 17px; fill: rgb(42, 63, 95); opacity: 1; font-weight: normal; white-space: pre;">Train Loss: ascad_50-simplified_eff_cnn</text></g><g class="g-xtitle"/><g class="g-ytitle"/></g></svg>