<svg class="main-svg" xmlns="http://www.w3.org/2000/svg" xmlns:xlink="http://www.w3.org/1999/xlink" width="700" height="500" style="" viewBox="0 0 700 500"><rect x="0" y="0" width="700" height="500" style="fill: rgb(255, 255, 255); fill-opacity: 1;"/><defs id="defs-778d9c"><g class="clips"><clipPath id="clip778d9cxyplot" class="plotclip"><rect width="540" height="320"/></clipPath><clipPath class="axesclip" id="clip778d9cx"><rect x="80" y="0" width="540" height="500"/></clipPath><clipPath class="axesclip" id="clip778d9cy"><rect x="0" y="100" width="700" height="320"/></clipPath><clipPath class="axesclip" id="clip778d9cxy"><rect x="80" y="100" width="540" height="320"/></clipPath></g><g class="gradients"/><g class="patterns"/></defs><g class="bglayer"><rect class="bg" x="80" y="100" width="540" height="320" style="fill: rgb(229, 236, 246); fill-opacity: 1; stroke-width: 0;"/></g><g class="layer-below"><g class="imagelayer"/><g class="shapelayer"/></g><g class="cartesianlayer"><g class="subplot xy"><g class="layer-subplot"><g class="shapelayer"/><g class="imagelayer"/></g><g class="gridlayer"><g class="x"><path class="xgrid crisp" transform="translate(190.2,0)" d="M0,100v320" style="stroke: rgb(255, 255, 255); stroke-opacity: 1; stroke-width: 1px;"/><path class="xgrid crisp" transform="translate(300.40999999999997,0)" d="M0,100v320" style="stroke: rgb(255, 255, 255); stroke-opacity: 1; stroke-width: 1px;"/><path class="xgrid crisp" transform="translate(410.61,0)" d="M0,100v320" style="stroke: rgb(255, 255, 255); stroke-opacity: 1; stroke-width: 1px;"/><path class="xgrid crisp" transform="translate(520.8199999999999,0)" d="M0,100v320" style="stroke: rgb(255, 255, 255); stroke-opacity: 1; stroke-width: 1px;"/></g><g class="y"><path class="ygrid crisp" transform="translate(0,393.21)" d="M80,0h540" style="stroke: rgb(255, 255, 255); stroke-opacity: 1; stroke-width: 1px;"/><path class="ygrid crisp" transform="translate(0,345.28)" d="M80,0h540" style="stroke: rgb(255, 255, 255); stroke-opacity: 1; stroke-width: 1px;"/><path class="ygrid crisp" transform="translate(0,297.35)" d="M80,0h540" style="stroke: rgb(255, 255, 255); stroke-opacity: 1; stroke-width: 1px;"/><path class="ygrid crisp" transform="translate(0,249.42)" d="M80,0h540" style="stroke: rgb(255, 255, 255); stroke-opacity: 1; stroke-width: 1px;"/><path class="ygrid crisp" transform="translate(0,201.49)" d="M80,0h540" style="stroke: rgb(255, 255, 255); stroke-opacity: 1; stroke-width: 1px;"/><path class="ygrid crisp" transform="translate(0,153.56)" d="M80,0h540" style="stroke: rgb(255, 255, 255); stroke-opacity: 1; stroke-width: 1px;"/><path class="ygrid crisp" transform="translate(0,105.64)" d="M80,0h540" style="stroke: rgb(255, 255, 255); stroke-opacity: 1; stroke-width: 1px;"/></g></g><g class="zerolinelayer"><path class="xzl zl crisp" transform="translate(80,0)" d="M0,100v320" style="stroke: rgb(255, 255, 255); stroke-opacity: 1; stroke-width: 2px;"/></g><path class="xlines-below"/><path class="ylines-below"/><g class="overlines-below"/><g class="xaxislayer-below"/><g class="yaxislayer-below"/><g class="overaxes-below"/><g class="plot" transform="translate(80,100)" clip-path="url(#clip778d9cxyplot)"><g class="scatterlayer mlayer"><g class="trace scatter trace93d812" style="stroke-miterlimit: 2; opacity: 1;"><g class="fills"/><g class="errorbars"/><g class="lines"><path class="js-line" d="M0,0.2L11.02,2.25L22.04,10.83L33.06,26.35L44.08,43.78L55.1,62.07L66.12,75.47L88.16,90.31L99.18,95.41L110.2,100.25L121.22,103.19L132.24,106.77L143.27,109.03L154.29,111.63L165.31,116.24L176.33,119.24L187.35,124.11L209.39,131.86L220.41,133.94L231.43,140.77L242.45,143.66L253.47,148.91L264.49,152.47L286.53,159.94L297.55,162.66L308.57,164.82L319.59,168.99L330.61,171.61L341.63,173.18L363.67,178.75L374.69,180.24L396.73,185.7L407.76,187.13L429.8,192.67L440.82,193.56L484.9,196.34L495.92,196.97L540,199.5" style="vector-effect: non-scaling-stroke; fill: none; stroke: rgb(99, 110, 250); stroke-opacity: 1; stroke-width: 2px; opacity: 1;"/></g><g class="points"/><g class="text"/></g><g class="trace scatter tracedd56b9" style="stroke-miterlimit: 2; opacity: 1;"><g class="fills"/><g class="errorbars"/><g class="lines"><path class="js-line" d="M0,0.16L11.02,2.22L22.04,10.61L33.06,26.21L44.08,43.93L55.1,61.53L66.12,74.76L77.14,83.66L88.16,91.33L99.18,96.81L110.2,100.75L121.22,102.91L132.24,106.65L154.29,108.99L165.31,112.74L176.33,116.77L187.35,124.08L209.39,135.44L220.41,140.04L231.43,144.71L242.45,148.22L253.47,152.71L264.49,154.63L275.51,158.53L286.53,161.59L297.55,163.56L308.57,166.64L319.59,170.67L330.61,172.35L341.63,174.24L352.65,176.95L374.69,180.58L385.71,183.22L396.73,185.51L407.76,186.98L429.8,191.98L440.82,193.5L473.88,195.39L484.9,195.99L495.92,196.32L506.94,197.46L528.98,197.99L540,198.96" style="vector-effect: non-scaling-stroke; fill: none; stroke: rgb(239, 85, 59); stroke-opacity: 1; stroke-width: 2px; opacity: 1;"/></g><g class="points"/><g class="text"/></g><g class="trace scatter tracefa3881" style="stroke-miterlimit: 2; opacity: 1;"><g class="fills"/><g class="errorbars"/><g class="lines"><path class="js-line" d="M0,0.19L11.02,2.29L22.04,10.99L44.08,40.68L55.1,58.58L66.12,71.34L77.14,78.15L88.16,84.91L99.18,90.36L110.2,94.83L121.22,98.08L132.24,102.18L143.27,104.22L165.31,107.9L176.33,110.52L187.35,110.9L198.37,113.89L220.41,122.67L231.43,128.78L242.45,132.89L253.47,139.2L264.49,142.68L275.51,147.01L286.53,151.45L297.55,154.89L308.57,157.68L319.59,162.02L330.61,164.77L341.63,166.74L352.65,170.43L363.67,172.53L385.71,176.83L396.73,179.92L407.76,181.53L418.78,184.19L429.8,186.66L440.82,188.1L462.86,189.6L473.88,190.07L506.94,192.65L517.96,192.59L540,194.15" style="vector-effect: non-scaling-stroke; fill: none; stroke: rgb(0, 204, 150); stroke-opacity: 1; stroke-width: 2px; opacity: 1;"/></g><g class="points"/><g class="text"/></g><g class="trace scatter trace599594" style="stroke-miterlimit: 2; opacity: 1;"><g class="fills"/><g class="errorbars"/><g class="lines"><path class="js-line" d="M0,0.17L11.02,2.26L22.04,10.65L33.06,26.4L44.08,43.9L55.1,61.1L66.12,72.49L88.16,86.31L99.18,91.95L110.2,95.42L121.22,100.41L132.24,103.91L143.27,106.47L154.29,110.53L165.31,115.58L176.33,118.17L187.35,123.09L209.39,133.42L220.41,137.16L231.43,142.67L242.45,145.65L253.47,151.16L264.49,153.45L286.53,160.22L297.55,162.98L308.57,165.48L319.59,168.99L330.61,171.78L341.63,172.65L352.65,175.48L363.67,177.26L396.73,185.06L407.76,186.05L429.8,191.76L440.82,192.82L462.86,194.15L473.88,194.93L540,198.57" style="vector-effect: non-scaling-stroke; fill: none; stroke: rgb(171, 99, 250); stroke-opacity: 1; stroke-width: 2px; opacity: 1;"/></g><g class="points"/><g class="text"/></g><g class="trace scatter trace62f33f" style="stroke-miterlimit: 2; opacity: 1;"><g class="fills"/><g class="errorbars"/><g class="lines"><path class="js-line" d="M0,0.18L11.02,2.39L22.04,11.2L44.08,41.07L55.1,60.55L66.12,74.06L77.14,82.14L88.16,90.03L99.18,95.35L110.2,100.21L121.22,103.13L132.24,107.04L143.27,108.63L154.29,110.77L165.31,113.68L187.35,118.06L198.37,122.73L209.39,126.15L220.41,132.63L231.43,140.53L242.45,145.76L253.47,150.95L264.49,154L275.51,158.45L286.53,161L297.55,165.01L308.57,167.61L330.61,173.27L341.63,174.78L363.67,179.78L374.69,181.21L396.73,186.7L407.76,187.3L429.8,192.73L440.82,193.78L462.86,195.49L473.88,196.12L495.92,196.86L506.94,198.23L540,199.6" style="vector-effect: non-scaling-stroke; fill: none; stroke: rgb(255, 161, 90); stroke-opacity: 1; stroke-width: 2px; opacity: 1;"/></g><g class="points"/><g class="text"/></g><g class="trace scatter trace945870" style="stroke-miterlimit: 2; opacity: 1;"><g class="fills"/><g class="errorbars"/><g class="lines"><path class="js-line" d="M0,0.19L11.02,2.3L22.04,10.9L33.06,26.74L44.08,44.78L55.1,61.59L66.12,73.29L77.14,80.73L88.16,86.89L99.18,93.19L110.2,96.44L132.24,103.52L143.27,105.21L154.29,108.78L165.31,114.12L187.35,119.52L198.37,123.23L209.39,128.01L220.41,133.81L231.43,139.85L242.45,145.03L275.51,156.29L286.53,157.88L308.57,163.08L319.59,167.03L330.61,169.67L341.63,171.41L363.67,176.25L374.69,177.48L396.73,182.71L407.76,183.91L429.8,189.5L440.82,190.71L517.96,195.15L528.98,195.83L540,196.56" style="vector-effect: non-scaling-stroke; fill: none; stroke: rgb(25, 211, 243); stroke-opacity: 1; stroke-width: 2px; opacity: 1;"/></g><g class="points"/><g class="text"/></g><g class="trace scatter traceebd877" style="stroke-miterlimit: 2; opacity: 1;"><g class="fills"/><g class="errorbars"/><g class="lines"><path class="js-line" d="M0,0.18L11.02,2.26L22.04,10.25L44.08,39.92L55.1,58.97L66.12,72.12L77.14,81.01L88.16,88.89L99.18,94.72L110.2,99.81L121.22,102.78L132.24,106.7L143.27,108.89L154.29,111.38L165.31,114.76L187.35,124.44L198.37,128.49L209.39,135.48L220.41,140.21L231.43,145.33L242.45,149.27L275.51,159.2L286.53,161.45L297.55,165.23L308.57,167.32L330.61,172.76L341.63,174.24L352.65,177.6L363.67,179.26L374.69,179.83L385.71,183.49L396.73,186.22L407.76,186.98L429.8,192.28L440.82,193.33L462.86,194.98L473.88,195.29L517.96,197.9L528.98,198.46L540,199.19" style="vector-effect: non-scaling-stroke; fill: none; stroke: rgb(255, 102, 146); stroke-opacity: 1; stroke-width: 2px; opacity: 1;"/></g><g class="points"/><g class="text"/></g><g class="trace scatter trace42a7e1" style="stroke-miterlimit: 2; opacity: 1;"><g class="fills"/><g class="errorbars"/><g class="lines"><path class="js-line" d="M0,0.19L11.02,2.37L22.04,10.7L44.08,40.04L55.1,56.59L66.12,71.83L77.14,79.9L88.16,88.63L99.18,94.09L110.2,99.29L121.22,102.29L154.29,110.49L165.31,114.96L187.35,119.88L198.37,121.04L209.39,124.8L220.41,127.4L231.43,132.8L242.45,136.51L264.49,147.87L275.51,151.83L286.53,155.03L297.55,159.41L308.57,162.27L319.59,165.92L330.61,169.15L341.63,171.09L352.65,174.41L363.67,176.68L374.69,178.41L385.71,181.33L396.73,184.3L407.76,185.16L429.8,190.92L440.82,192.47L484.9,195.25L495.92,195.78L506.94,196.83L517.96,196.65L540,198.36" style="vector-effect: non-scaling-stroke; fill: none; stroke: rgb(182, 232, 128); stroke-opacity: 1; stroke-width: 2px; opacity: 1;"/></g><g class="points"/><g class="text"/></g><g class="trace scatter trace999e4a" style="stroke-miterlimit: 2; opacity: 1;"><g class="fills"/><g class="errorbars"/><g class="lines"><path class="js-line" d="M0,0.16L11.02,2.32L22.04,10.79L44.08,42.72L55.1,62.11L66.12,75.42L77.14,83.77L88.16,91.07L99.18,95.97L110.2,101.17L121.22,104.45L132.24,108.49L143.27,110.59L154.29,111.96L165.31,114.92L176.33,118.48L187.35,120.86L209.39,125.04L220.41,128.59L231.43,133.09L242.45,138.59L253.47,145.69L264.49,149.76L286.53,158.71L297.55,162.44L308.57,164.15L319.59,168.69L330.61,171.14L341.63,172.4L363.67,178.48L374.69,180.05L396.73,185.44L407.76,186.8L429.8,191.8L440.82,193.26L473.88,195.39L484.9,195.85L540,199.06" style="vector-effect: non-scaling-stroke; fill: none; stroke: rgb(255, 151, 255); stroke-opacity: 1; stroke-width: 2px; opacity: 1;"/></g><g class="points"/><g class="text"/></g><g class="trace scatter trace08c08e" style="stroke-miterlimit: 2; opacity: 1;"><g class="fills"/><g class="errorbars"/><g class="lines"><path class="js-line" d="M0,0.2L11.02,2.37L22.04,10.78L33.06,26.46L44.08,43.89L55.1,59.91L66.12,71.45L77.14,79.89L88.16,86.73L99.18,93.16L110.2,97.21L132.24,103.95L143.27,105.33L154.29,107.53L165.31,110.76L176.33,115.57L187.35,118.32L198.37,120.44L209.39,124.78L220.41,129.81L231.43,135.95L242.45,141.73L253.47,146.22L297.55,159.7L308.57,162.42L330.61,169.41L341.63,170.67L352.65,173.69L363.67,175.68L374.69,177.3L385.71,180.5L396.73,183.2L407.76,184.1L429.8,189.6L440.82,190.94L462.86,192.47L473.88,193.16L506.94,195.45L517.96,195.44L540,196.91" style="vector-effect: non-scaling-stroke; fill: none; stroke: rgb(254, 203, 82); stroke-opacity: 1; stroke-width: 2px; opacity: 1;"/></g><g class="points"/><g class="text"/></g><g class="trace scatter traceeb1cf7" style="stroke-miterlimit: 2; opacity: 1;"><g class="fills"/><g class="errorbars"/><g class="lines"><path class="js-line" d="M0,0.16L11.02,2.32L22.04,10.91L33.06,27.08L44.08,45.39L55.1,62.26L66.12,74.03L88.16,88.99L99.18,94.71L110.2,99.15L121.22,102.4L132.24,106.12L143.27,110.7L154.29,113.4L165.31,118.7L198.37,133.46L209.39,136.31L242.45,147.88L253.47,152.45L264.49,155.86L275.51,158.35L286.53,162.54L297.55,165.49L330.61,174.84L341.63,177.04L363.67,182.05L374.69,183.73L385.71,187.09L396.73,189.63L407.76,190.53L418.78,193.2L429.8,195.8L440.82,197.27L506.94,201.77L517.96,201.89L540,203.17" style="vector-effect: non-scaling-stroke; fill: none; stroke: rgb(99, 110, 250); stroke-opacity: 1; stroke-width: 2px; opacity: 1;"/></g><g class="points"/><g class="text"/></g><g class="trace scatter traced3758d" style="stroke-miterlimit: 2; opacity: 1;"><g class="fills"/><g class="errorbars"/><g class="lines"><path class="js-line" d="M0,0.17L11.02,2.26L22.04,10.65L33.06,26.4L44.08,43.9L55.1,61.1L66.12,72.49L88.16,86.31L99.18,91.95L110.2,95.42L121.22,100.41L132.24,103.91L143.27,106.47L154.29,110.53L165.31,115.58L176.33,118.17L187.35,123.09L209.39,133.42L220.41,137.16L231.43,142.67L242.45,145.65L253.47,151.16L264.49,153.45L286.53,160.22L297.55,162.98L308.57,165.48L319.59,168.99L330.61,171.78L341.63,172.65L352.65,175.48L363.67,177.26L396.73,185.06L407.76,186.05L429.8,191.76L440.82,192.82L462.86,194.15L473.88,194.93L540,198.57" style="vector-effect: non-scaling-stroke; fill: none; stroke: rgb(239, 85, 59); stroke-opacity: 1; stroke-width: 2px; opacity: 1;"/></g><g class="points"/><g class="text"/></g><g class="trace scatter trace5b5622" style="stroke-miterlimit: 2; opacity: 1;"><g class="fills"/><g class="errorbars"/><g class="lines"><path class="js-line" d="M0,0.16L11.02,2.24L22.04,10.54L33.06,25.94L44.08,43.66L55.1,61.62L66.12,75.53L88.16,90.77L99.18,95.31L121.22,103.36L132.24,106.34L143.27,109.14L154.29,114.22L165.31,121.48L176.33,126.91L187.35,131.9L198.37,135.69L209.39,139.89L220.41,141.53L231.43,146.24L242.45,149.64L253.47,153.06L264.49,154.51L297.55,163.28L308.57,165.04L319.59,168.75L330.61,171.02L341.63,172.34L352.65,175.78L374.69,178.52L385.71,181.65L396.73,184.34L407.76,185.41L429.8,190.59L440.82,191.65L473.88,194.05L484.9,194.26L540,197.66" style="vector-effect: non-scaling-stroke; fill: none; stroke: rgb(0, 204, 150); stroke-opacity: 1; stroke-width: 2px; opacity: 1;"/></g><g class="points"/><g class="text"/></g><g class="trace scatter trace84bceb" style="stroke-miterlimit: 2; opacity: 1;"><g class="fills"/><g class="errorbars"/><g class="lines"><path class="js-line" d="M0,0.17L11.02,2.3L22.04,10.42L55.1,56.32L66.12,69.02L88.16,84.2L99.18,89.42L110.2,94.44L121.22,97.03L132.24,102.01L143.27,104.21L154.29,105.52L165.31,108.43L187.35,115.31L198.37,118.21L209.39,121.94L220.41,127.13L231.43,133.06L242.45,141L264.49,151.91L275.51,155.9L297.55,163.12L308.57,164.61L319.59,169.06L330.61,172.03L341.63,173.27L352.65,177.25L363.67,178.78L374.69,181.14L407.76,187.02L418.78,189.9L429.8,192.83L440.82,193.88L462.86,195.49L473.88,195.95L540,200.12" style="vector-effect: non-scaling-stroke; fill: none; stroke: rgb(171, 99, 250); stroke-opacity: 1; stroke-width: 2px; opacity: 1;"/></g><g class="points"/><g class="text"/></g><g class="trace scatter trace31cc34" style="stroke-miterlimit: 2; opacity: 1;"><g class="fills"/><g class="errorbars"/><g class="lines"><path class="js-line" d="M0,0.17L11.02,2.26L22.04,10.65L33.06,26.4L44.08,43.9L55.1,61.1L66.12,72.49L88.16,86.31L99.18,91.95L110.2,95.42L121.22,100.41L132.24,103.91L143.27,106.47L154.29,110.53L165.31,115.58L176.33,118.17L187.35,123.09L209.39,133.42L220.41,137.16L231.43,142.66L242.45,145.32L253.47,151.15L264.49,153.68L297.55,162.8L308.57,165.38L319.59,169.07L330.61,171.75L341.63,172.77L352.65,175.56L363.67,177.33L374.69,180.04L385.71,182.13L396.73,185.01L407.76,186.06L418.78,188.94L429.8,191.82L440.82,192.89L462.86,194.19L473.88,194.97L540,198.59" style="vector-effect: non-scaling-stroke; fill: none; stroke: rgb(255, 161, 90); stroke-opacity: 1; stroke-width: 2px; opacity: 1;"/></g><g class="points"/><g class="text"/></g><g class="trace scatter trace2166a6" style="stroke-miterlimit: 2; opacity: 1;"><g class="fills"/><g class="errorbars"/><g class="lines"><path class="js-line" d="M0,0.16L11.02,2.27L22.04,10.82L44.08,42.92L55.1,61.64L66.12,74.61L77.14,82.5L88.16,89.8L99.18,95.2L121.22,104.32L132.24,108.56L154.29,118.26L165.31,126.43L176.33,132.99L187.35,137.24L198.37,139.27L209.39,143.16L220.41,146.11L231.43,150.68L242.45,153.12L253.47,156.44L297.55,168.66L308.57,170.47L319.59,174.4L330.61,176.57L341.63,177.89L352.65,180.92L374.69,184.51L385.71,187.58L396.73,190.18L407.76,191.42L429.8,196.49L440.82,197.45L451.84,198.69L462.86,199.09L495.92,200.62L506.94,201.86L540,203.19" style="vector-effect: non-scaling-stroke; fill: none; stroke: rgb(25, 211, 243); stroke-opacity: 1; stroke-width: 2px; opacity: 1;"/></g><g class="points"/><g class="text"/></g><g class="trace scatter trace276bb7" style="stroke-miterlimit: 2; opacity: 1;"><g class="fills"/><g class="errorbars"/><g class="lines"><path class="js-line" d="M0,0.18L11.02,2.28L22.04,10.82L55.1,60.65L66.12,72.15L77.14,80.8L88.16,88.15L99.18,94.59L110.2,99.42L132.24,106.75L143.27,108.96L154.29,111.36L165.31,116.93L176.33,121.56L187.35,124.89L220.41,138.26L231.43,144.1L253.47,152.38L264.49,154.81L275.51,158.52L286.53,160.96L297.55,164.06L308.57,166.17L330.61,172.9L341.63,173.72L352.65,177.05L363.67,179.03L374.69,180.59L385.71,183.4L396.73,185.54L407.76,186.91L429.8,191.9L440.82,193.4L473.88,195.31L484.9,195.69L517.96,197.78L528.98,198.16L540,198.92" style="vector-effect: non-scaling-stroke; fill: none; stroke: rgb(255, 102, 146); stroke-opacity: 1; stroke-width: 2px; opacity: 1;"/></g><g class="points"/><g class="text"/></g><g class="trace scatter tracea599ab" style="stroke-miterlimit: 2; opacity: 1;"><g class="fills"/><g class="errorbars"/><g class="lines"><path class="js-line" d="M0,0.18L11.02,2.24L22.04,10.8L33.06,26.85L44.08,44.38L55.1,60.58L66.12,72.49L77.14,80.31L88.16,86.86L99.18,92.64L110.2,96.28L121.22,99.78L132.24,104.08L143.27,105.99L154.29,109.17L165.31,115.19L176.33,118.26L187.35,121.92L198.37,123.5L220.41,136.29L231.43,142.01L275.51,157.44L286.53,159.37L297.55,163.12L308.57,165.11L330.61,171.47L341.63,172.14L352.65,175.19L363.67,177.45L374.69,178.99L385.71,182.12L418.78,187.99L429.8,190.69L440.82,192.24L451.84,193.03L495.92,195.28L506.94,196.71L528.98,197.09L540,197.97" style="vector-effect: non-scaling-stroke; fill: none; stroke: rgb(182, 232, 128); stroke-opacity: 1; stroke-width: 2px; opacity: 1;"/></g><g class="points"/><g class="text"/></g><g class="trace scatter traced05471" style="stroke-miterlimit: 2; opacity: 1;"><g class="fills"/><g class="errorbars"/><g class="lines"><path class="js-line" d="M0,0.17L11.02,2.26L22.04,10.65L33.06,26.4L44.08,43.9L55.1,61.1L66.12,72.49L88.16,86.31L99.18,91.95L110.2,95.42L121.22,100.41L132.24,103.91L143.27,106.47L154.29,110.53L165.31,115.58L176.33,118.17L187.35,123.09L209.39,133.42L220.41,137.16L231.43,142.67L242.45,145.65L253.47,151.16L264.49,153.45L286.53,160.22L297.55,162.98L308.57,165.48L319.59,168.99L330.61,171.78L341.63,172.65L352.65,175.48L363.67,177.26L396.73,185.06L407.76,186.05L429.8,191.76L440.82,192.82L462.86,194.15L473.88,194.93L540,198.57" style="vector-effect: non-scaling-stroke; fill: none; stroke: rgb(255, 151, 255); stroke-opacity: 1; stroke-width: 2px; opacity: 1;"/></g><g class="points"/><g class="text"/></g><g class="trace scatter trace659863" style="stroke-miterlimit: 2; opacity: 1;"><g class="fills"/><g class="errorbars"/><g class="lines"><path class="js-line" d="M0,0.17L11.02,2.26L22.04,10.65L33.06,26.4L44.08,43.9L55.1,61.1L66.12,72.49L88.16,86.31L99.18,91.95L110.2,95.42L121.22,100.41L132.24,103.91L143.27,106.47L154.29,110.53L165.31,115.58L176.33,118.17L187.35,123.09L209.39,133.42L220.41,137.16L231.43,142.67L242.45,145.65L253.47,151.16L264.49,153.45L286.53,160.22L297.55,162.98L308.57,165.48L319.59,168.99L330.61,171.78L341.63,172.65L352.65,175.48L363.67,177.26L396.73,185.06L407.76,186.05L429.8,191.76L440.82,192.82L462.86,194.15L473.88,194.93L540,198.57" style="vector-effect: non-scaling-stroke; fill: none; stroke: rgb(254, 203, 82); stroke-opacity: 1; stroke-width: 2px; opacity: 1;"/></g><g class="points"/><g class="text"/></g><g class="trace scatter trace4b909d" style="stroke-miterlimit: 2; opacity: 1;"><g class="fills"/><g class="errorbars"/><g class="lines"><path class="js-line" d="M0,0.05L11.02,2.4L22.04,10.56L33.06,30.34L44.08,55.64L55.1,74.64L66.12,86.98L77.14,92.79L88.16,96.63L99.18,101.42L110.2,104.3L121.22,108.38L132.24,111.05L154.29,119.08L165.31,121.58L176.33,124.58L187.35,124.29L198.37,127.86L209.39,127.48L220.41,130.79L231.43,132.6L242.45,135.76L253.47,137.88L264.49,139.94L275.51,142.93L286.53,144.07L297.55,147.15L308.57,148.2L319.59,151.99L341.63,156.22L352.65,158.03L396.73,169.02L407.76,171.42L418.78,173.01L429.8,175.69L451.84,178.63L462.86,178.78L528.98,183.14L540,183.6" style="vector-effect: non-scaling-stroke; fill: none; stroke: rgb(99, 110, 250); stroke-opacity: 1; stroke-width: 2px; opacity: 1;"/></g><g class="points"/><g class="text"/></g><g class="trace scatter trace6cd45e" style="stroke-miterlimit: 2; opacity: 1;"><g class="fills"/><g class="errorbars"/><g class="lines"><path class="js-line" d="M0,0.07L11.02,2.35L22.04,10.25L33.06,28.44L44.08,50.91L55.1,70.12L66.12,83.76L77.14,90.93L88.16,96.41L99.18,102.7L110.2,105.78L121.22,111.54L132.24,116.25L143.27,122.11L154.29,129.15L165.31,130.47L176.33,134.42L187.35,136.6L198.37,140.31L209.39,143.11L220.41,148.37L231.43,151.6L242.45,156.73L264.49,162.45L275.51,165.83L286.53,170.16L297.55,172.83L308.57,175.34L319.59,179.05L363.67,188.15L374.69,190.68L407.76,197.32L418.78,198.94L440.82,202.71L451.84,203.59L473.88,204.32L484.9,205.18L495.92,206.19L506.94,206.25L540,207.89" style="vector-effect: non-scaling-stroke; fill: none; stroke: rgb(239, 85, 59); stroke-opacity: 1; stroke-width: 2px; opacity: 1;"/></g><g class="points"/><g class="text"/></g><g class="trace scatter trace872425" style="stroke-miterlimit: 2; opacity: 1;"><g class="fills"/><g class="errorbars"/><g class="lines"><path class="js-line" d="M0,0.05L11.02,2.25L22.04,9.27L33.06,26.96L44.08,52.25L55.1,72.02L66.12,85.12L99.18,103.8L110.2,109.08L121.22,115.41L132.24,119.87L154.29,130.94L165.31,134.55L187.35,144.8L198.37,149.46L220.41,157.01L231.43,160.67L242.45,165.05L253.47,167.98L264.49,170.4L275.51,174.04L297.55,178.94L308.57,180.43L319.59,183.72L330.61,185.67L374.69,194.65L385.71,197.14L440.82,206.2L451.84,207.11L528.98,211.35L540,211.7" style="vector-effect: non-scaling-stroke; fill: none; stroke: rgb(0, 204, 150); stroke-opacity: 1; stroke-width: 2px; opacity: 1;"/></g><g class="points"/><g class="text"/></g><g class="trace scatter trace255f95" style="stroke-miterlimit: 2; opacity: 1;"><g class="fills"/><g class="errorbars"/><g class="lines"><path class="js-line" d="M0,0.03L11.02,2.39L22.04,10.44L33.06,30.74L44.08,56.27L55.1,73.61L66.12,85.05L77.14,91.4L88.16,95.85L99.18,100.57L110.2,103.71L121.22,108.4L132.24,110.78L154.29,121.17L165.31,123.37L176.33,125.86L187.35,126.15L198.37,128.57L209.39,128.3L220.41,132.34L231.43,134.79L253.47,141.3L264.49,145.52L297.55,161.49L308.57,164.81L319.59,169.14L330.61,171.74L374.69,182.36L385.71,185.6L407.76,189.29L418.78,191.72L440.82,195.14L451.84,196.28L473.88,197.31L484.9,198.04L495.92,199.01L506.94,199.22L540,201.04" style="vector-effect: non-scaling-stroke; fill: none; stroke: rgb(171, 99, 250); stroke-opacity: 1; stroke-width: 2px; opacity: 1;"/></g><g class="points"/><g class="text"/></g><g class="trace scatter trace77fade" style="stroke-miterlimit: 2; opacity: 1;"><g class="fills"/><g class="errorbars"/><g class="lines"><path class="js-line" d="M0,0.05L11.02,2.31L22.04,10.19L33.06,30.11L44.08,54.62L55.1,71.31L66.12,83.45L77.14,91.17L88.16,96.5L99.18,102.33L110.2,105.54L121.22,111.33L132.24,115.46L154.29,123.05L165.31,123.63L176.33,126.34L187.35,127.24L198.37,129.63L209.39,129.38L231.43,135.85L242.45,141.78L253.47,147.12L264.49,154.44L286.53,165.51L297.55,168.73L308.57,171.44L319.59,175.04L341.63,179.61L352.65,182.17L396.73,192.61L407.76,194.68L440.82,199.59L451.84,201.13L484.9,202.79L495.92,203.87L517.96,204.74L528.98,205.25L540,205.56" style="vector-effect: non-scaling-stroke; fill: none; stroke: rgb(255, 161, 90); stroke-opacity: 1; stroke-width: 2px; opacity: 1;"/></g><g class="points"/><g class="text"/></g><g class="trace scatter trace158e57" style="stroke-miterlimit: 2; opacity: 1;"><g class="fills"/><g class="errorbars"/><g class="lines"><path class="js-line" d="M0,0.07L11.02,2.31L22.04,9.39L33.06,27.1L44.08,50.75L55.1,69.14L66.12,81.85L77.14,88.64L88.16,93.1L99.18,98.34L110.2,101.8L121.22,106.4L132.24,109.39L143.27,113.2L154.29,118.22L165.31,123.09L176.33,130.35L198.37,139.42L209.39,142.47L231.43,150.98L242.45,155.18L286.53,167.57L297.55,171.08L308.57,172.05L319.59,176.53L352.65,182.03L363.67,184.87L374.69,188.11L385.71,190.22L407.76,194.34L418.78,196.41L440.82,200.22L451.84,200.99L495.92,204.14L506.94,203.95L528.98,205.12L540,205.96" style="vector-effect: non-scaling-stroke; fill: none; stroke: rgb(25, 211, 243); stroke-opacity: 1; stroke-width: 2px; opacity: 1;"/></g><g class="points"/><g class="text"/></g><g class="trace scatter trace60de02" style="stroke-miterlimit: 2; opacity: 1;"><g class="fills"/><g class="errorbars"/><g class="lines"><path class="js-line" d="M0,0.07L11.02,2.3L22.04,10.01L33.06,28.13L44.08,52.81L55.1,71.44L66.12,83.65L77.14,90.91L88.16,96.06L110.2,104.71L121.22,109.26L143.27,114.98L154.29,119.22L165.31,123.05L176.33,127.86L187.35,132.16L198.37,137.51L220.41,148.93L231.43,156.19L242.45,161.15L253.47,164.02L264.49,166.37L275.51,169.9L308.57,177.84L319.59,181.47L352.65,186.35L363.67,189.5L418.78,200.32L429.8,201.82L451.84,204.8L462.86,205.23L473.88,205.14L484.9,206.04L506.94,207.4L517.96,208.11L540,208.83" style="vector-effect: non-scaling-stroke; fill: none; stroke: rgb(255, 102, 146); stroke-opacity: 1; stroke-width: 2px; opacity: 1;"/></g><g class="points"/><g class="text"/></g><g class="trace scatter traceaff2ce" style="stroke-miterlimit: 2; opacity: 1;"><g class="fills"/><g class="errorbars"/><g class="lines"><path class="js-line" d="M0,0.07L11.02,2.42L22.04,9.78L33.06,28.54L44.08,52.72L55.1,71.66L66.12,84.1L77.14,90.8L88.16,95.47L99.18,99.95L110.2,103.29L121.22,107.93L132.24,110.33L143.27,113.92L154.29,119.01L165.31,122.01L176.33,125.88L187.35,129.38L198.37,133.94L209.39,138.59L220.41,145.19L231.43,149.36L242.45,154.47L297.55,169.61L308.57,171.45L319.59,175.1L330.61,177.89L341.63,179.96L352.65,181.22L374.69,186.85L385.71,189.48L418.78,195.58L429.8,197.9L440.82,199.41L451.84,200.14L484.9,202.11L495.92,203.11L540,204.55" style="vector-effect: non-scaling-stroke; fill: none; stroke: rgb(182, 232, 128); stroke-opacity: 1; stroke-width: 2px; opacity: 1;"/></g><g class="points"/><g class="text"/></g><g class="trace scatter traceb0f5e7" style="stroke-miterlimit: 2; opacity: 1;"><g class="fills"/><g class="errorbars"/><g class="lines"><path class="js-line" d="M0,0.05L11.02,2.33L22.04,10.01L33.06,29.49L44.08,56.45L55.1,76.24L66.12,87.87L99.18,102.27L110.2,105.17L121.22,110.2L132.24,116.06L143.27,121.86L154.29,128.79L165.31,135.3L176.33,140.86L187.35,143.07L198.37,147.25L209.39,148.86L220.41,153.08L231.43,155.78L242.45,159.38L264.49,163.81L275.51,167.36L297.55,172.64L308.57,173.94L319.59,177.47L330.61,180L341.63,182.28L352.65,183.04L396.73,192.63L407.76,194.62L440.82,199.89L451.84,200.94L473.88,201.28L484.9,202.02L506.94,203.6L517.96,204.03L540,204.75" style="vector-effect: non-scaling-stroke; fill: none; stroke: rgb(255, 151, 255); stroke-opacity: 1; stroke-width: 2px; opacity: 1;"/></g><g class="points"/><g class="text"/></g><g class="trace scatter trace556054" style="stroke-miterlimit: 2; opacity: 1;"><g class="fills"/><g class="errorbars"/><g class="lines"><path class="js-line" d="M0,0.04L11.02,2.38L22.04,9.65L33.06,27.17L44.08,50.34L55.1,68.79L66.12,82.7L77.14,89.7L88.16,95.79L99.18,101.95L110.2,106.66L121.22,113.85L132.24,116.75L143.27,119.39L154.29,122.83L165.31,124.26L176.33,127.06L187.35,127.44L198.37,131.37L209.39,134.36L220.41,141.29L231.43,145.98L242.45,152.17L275.51,160.4L286.53,164.4L297.55,166.97L308.57,168.04L319.59,171.68L330.61,173.57L341.63,176.47L352.65,177.88L363.67,181.86L374.69,184.84L396.73,190.61L407.76,192.7L429.8,197.45L440.82,198.79L473.88,201.29L484.9,201.67L495.92,202.69L506.94,202.94L540,204.15" style="vector-effect: non-scaling-stroke; fill: none; stroke: rgb(254, 203, 82); stroke-opacity: 1; stroke-width: 2px; opacity: 1;"/></g><g class="points"/><g class="text"/></g><g class="trace scatter trace7f3231" style="stroke-miterlimit: 2; opacity: 1;"><g class="fills"/><g class="errorbars"/><g class="lines"><path class="js-line" d="M0,0.05L11.02,2.36L22.04,10.61L33.06,31.15L44.08,58.19L55.1,75.44L66.12,86.71L88.16,98.08L99.18,103.47L110.2,106.53L121.22,111.66L132.24,115.09L143.27,120.48L165.31,131L176.33,136.32L198.37,143.92L209.39,145.72L220.41,149.94L231.43,152.85L242.45,157.66L253.47,159.07L297.55,170.72L308.57,172.06L319.59,175.58L330.61,177.6L352.65,180.95L363.67,183.64L385.71,188.74L396.73,190.83L440.82,197.91L451.84,198.76L540,203.31" style="vector-effect: non-scaling-stroke; fill: none; stroke: rgb(99, 110, 250); stroke-opacity: 1; stroke-width: 2px; opacity: 1;"/></g><g class="points"/><g class="text"/></g><g class="trace scatter traceb5187a" style="stroke-miterlimit: 2; opacity: 1;"><g class="fills"/><g class="errorbars"/><g class="lines"><path class="js-line" d="M0,0.05L11.02,2.45L22.04,10.59L33.06,30.98L44.08,56.4L55.1,74.37L66.12,86.54L77.14,92.44L88.16,96.42L99.18,101.2L110.2,103.75L121.22,108.19L132.24,110.83L154.29,119.75L165.31,121.78L176.33,125.14L187.35,126.37L198.37,129.55L209.39,130.27L231.43,140.59L242.45,148.87L253.47,157.84L264.49,163.44L297.55,175.67L308.57,177.48L319.59,180.84L330.61,183.3L352.65,186.77L363.67,189.96L407.76,198.92L418.78,200.56L440.82,204.29L451.84,205.11L473.88,206.02L484.9,206.86L495.92,207.89L506.94,207.77L528.98,209.11L540,209.56" style="vector-effect: non-scaling-stroke; fill: none; stroke: rgb(239, 85, 59); stroke-opacity: 1; stroke-width: 2px; opacity: 1;"/></g><g class="points"/><g class="text"/></g><g class="trace scatter trace0e9317" style="stroke-miterlimit: 2; opacity: 1;"><g class="fills"/><g class="errorbars"/><g class="lines"><path class="js-line" d="M0,0.05L11.02,2.32L22.04,10.4L33.06,30.46L44.08,55.58L55.1,73.12L66.12,85.63L77.14,92.29L88.16,96.97L110.2,106.44L121.22,112.28L132.24,117.51L143.27,124.52L154.29,130.06L165.31,133.01L176.33,138.35L187.35,142.43L198.37,145.5L209.39,146.5L242.45,158.08L253.47,160.14L264.49,163.26L275.51,167.5L286.53,170.47L297.55,172.65L330.61,180.83L341.63,182.84L363.67,187.22L374.69,189.39L385.71,192.69L396.73,194.72L440.82,202.28L451.84,203.3L540,207.9" style="vector-effect: non-scaling-stroke; fill: none; stroke: rgb(0, 204, 150); stroke-opacity: 1; stroke-width: 2px; opacity: 1;"/></g><g class="points"/><g class="text"/></g><g class="trace scatter traced911f8" style="stroke-miterlimit: 2; opacity: 1;"><g class="fills"/><g class="errorbars"/><g class="lines"><path class="js-line" d="M0,0.08L11.02,2.36L22.04,9.38L33.06,26.53L44.08,50.48L55.1,71.61L66.12,85.35L88.16,97.37L99.18,102.81L110.2,105.98L121.22,112.46L154.29,122.5L165.31,123.72L176.33,127.1L187.35,127.09L209.39,132.96L220.41,141.18L242.45,152.52L253.47,154.72L275.51,160.21L286.53,163.45L297.55,166.28L308.57,167.7L319.59,170.71L330.61,172.93L341.63,175.1L352.65,176.05L374.69,182.16L385.71,184.01L429.8,191.84L440.82,193.51L484.9,196.4L495.92,196.81L540,198.58" style="vector-effect: non-scaling-stroke; fill: none; stroke: rgb(171, 99, 250); stroke-opacity: 1; stroke-width: 2px; opacity: 1;"/></g><g class="points"/><g class="text"/></g><g class="trace scatter tracef20c7f" style="stroke-miterlimit: 2; opacity: 1;"><g class="fills"/><g class="errorbars"/><g class="lines"><path class="js-line" d="M0,0.05L11.02,2.25L22.04,9.64L33.06,28.07L44.08,51.42L55.1,69.52L66.12,81.58L77.14,88.34L88.16,93.72L99.18,98.58L110.2,101.67L121.22,105.83L132.24,108.47L143.27,109.97L154.29,113.88L165.31,116.53L176.33,119.96L187.35,122.66L198.37,127.99L209.39,133.24L220.41,139.36L264.49,154.66L275.51,157.93L308.57,164.96L319.59,168.92L341.63,173.11L352.65,174.58L374.69,180.42L385.71,182.83L396.73,184.39L407.76,187.47L429.8,191.17L440.82,192.76L528.98,197.64L540,197.95" style="vector-effect: non-scaling-stroke; fill: none; stroke: rgb(255, 161, 90); stroke-opacity: 1; stroke-width: 2px; opacity: 1;"/></g><g class="points"/><g class="text"/></g><g class="trace scatter trace0b1469" style="stroke-miterlimit: 2; opacity: 1;"><g class="fills"/><g class="errorbars"/><g class="lines"><path class="js-line" d="M0,0.03L11.02,2.38L22.04,10.05L33.06,29.62L44.08,56.03L55.1,73.71L66.12,85.51L77.14,91.54L88.16,96.43L99.18,101.47L110.2,105.28L121.22,111.39L132.24,116.02L154.29,123.34L165.31,124.55L176.33,126.54L187.35,127.56L209.39,130.97L220.41,133.77L231.43,137.67L242.45,143.03L275.51,156.94L286.53,161.08L297.55,164.75L308.57,167.3L319.59,171.32L330.61,173.57L341.63,176.46L352.65,177.84L385.71,186.53L396.73,188.71L407.76,191.21L418.78,192.7L440.82,196.52L451.84,197.6L473.88,198.54L484.9,199.57L528.98,201.72L540,202.03" style="vector-effect: non-scaling-stroke; fill: none; stroke: rgb(25, 211, 243); stroke-opacity: 1; stroke-width: 2px; opacity: 1;"/></g><g class="points"/><g class="text"/></g><g class="trace scatter tracef811a2" style="stroke-miterlimit: 2; opacity: 1;"><g class="fills"/><g class="errorbars"/><g class="lines"><path class="js-line" d="M0,0.05L11.02,2.39L22.04,10.22L33.06,31.04L44.08,58.63L55.1,77.22L66.12,88.23L77.14,93.89L88.16,98.06L99.18,102.6L110.2,105.51L121.22,109.59L132.24,112.27L143.27,117.64L154.29,121.95L165.31,123.08L176.33,125.64L187.35,125.6L198.37,127.99L209.39,128.44L220.41,131.12L231.43,132.89L242.45,136.14L253.47,138.1L264.49,141.19L297.55,151.86L308.57,153.97L319.59,159.83L330.61,163.63L341.63,167.42L352.65,170.35L385.71,181L396.73,183.14L429.8,190.53L440.82,192.14L495.92,196.08L506.94,196.13L528.98,197.39L540,197.95" style="vector-effect: non-scaling-stroke; fill: none; stroke: rgb(255, 102, 146); stroke-opacity: 1; stroke-width: 2px; opacity: 1;"/></g><g class="points"/><g class="text"/></g><g class="trace scatter traced768d2" style="stroke-miterlimit: 2; opacity: 1;"><g class="fills"/><g class="errorbars"/><g class="lines"><path class="js-line" d="M0,0.03L11.02,2.4L22.04,10.3L33.06,29.78L44.08,53.75L55.1,70.57L66.12,83.2L77.14,90.5L88.16,95.72L99.18,101.06L110.2,104.75L121.22,110.43L132.24,113.34L143.27,118.65L154.29,122.07L176.33,124.99L187.35,125.08L198.37,128.19L209.39,127.87L220.41,130.73L231.43,131.91L253.47,139.15L264.49,145.02L275.51,151.51L286.53,160.29L297.55,166.41L308.57,169.51L319.59,173.9L330.61,176.25L341.63,178.85L352.65,180.43L374.69,185.88L385.71,188.69L440.82,198.2L451.84,198.82L473.88,199.84L484.9,200.69L528.98,202.82L540,203.07" style="vector-effect: non-scaling-stroke; fill: none; stroke: rgb(182, 232, 128); stroke-opacity: 1; stroke-width: 2px; opacity: 1;"/></g><g class="points"/><g class="text"/></g><g class="trace scatter trace99f23d" style="stroke-miterlimit: 2; opacity: 1;"><g class="fills"/><g class="errorbars"/><g class="lines"><path class="js-line" d="M0,0.04L11.02,2.38L22.04,9.97L33.06,29.37L44.08,53.57L55.1,69.56L66.12,80.12L77.14,87.13L88.16,92.18L110.2,104.02L121.22,111.13L132.24,115.36L143.27,120.72L154.29,127.04L165.31,131L198.37,143.84L209.39,146.39L220.41,151.11L231.43,153.77L242.45,158.03L253.47,160.08L264.49,163.77L275.51,166.42L297.55,172.05L308.57,172.62L319.59,176.6L330.61,178.75L341.63,179.7L352.65,181.48L385.71,189.01L396.73,190.84L440.82,198.04L451.84,199.02L484.9,200.35L495.92,201.66L506.94,201.46L517.96,202.15L540,203.2" style="vector-effect: non-scaling-stroke; fill: none; stroke: rgb(255, 151, 255); stroke-opacity: 1; stroke-width: 2px; opacity: 1;"/></g><g class="points"/><g class="text"/></g><g class="trace scatter tracebe2c3b" style="stroke-miterlimit: 2; opacity: 1;"><g class="fills"/><g class="errorbars"/><g class="lines"><path class="js-line" d="M0,0.06L11.02,2.44L22.04,10.38L33.06,30.35L44.08,54.23L55.1,71.9L66.12,84.94L77.14,91.14L88.16,94.86L99.18,99.78L110.2,102.1L121.22,106.27L132.24,109.45L143.27,112.82L154.29,117.2L176.33,122.68L187.35,123.85L198.37,125.97L209.39,127.26L220.41,129.57L231.43,131L253.47,138.2L264.49,143.34L275.51,150.26L286.53,156.13L297.55,160.61L308.57,163.76L319.59,168.1L330.61,171.04L352.65,175L363.67,178.39L385.71,184.2L396.73,186.11L440.82,193.92L451.84,194.58L484.9,196.75L495.92,197.57L517.96,198.42L528.98,198.67L540,199.01" style="vector-effect: non-scaling-stroke; fill: none; stroke: rgb(254, 203, 82); stroke-opacity: 1; stroke-width: 2px; opacity: 1;"/></g><g class="points"/><g class="text"/></g><g class="trace scatter trace0f1d1d" style="stroke-miterlimit: 2; opacity: 1;"><g class="fills"/><g class="errorbars"/><g class="lines"><path class="js-line" d="M0,0.07L11.02,2.31L22.04,9.77L33.06,29.07L44.08,54.67L55.1,72.67L66.12,85.18L77.14,91.64L88.16,97.03L99.18,101.98L110.2,105.32L121.22,111.02L132.24,115.26L143.27,122.48L154.29,128.76L176.33,139.51L187.35,142.52L198.37,145.94L209.39,147.53L231.43,153.74L242.45,158.46L253.47,160.24L264.49,163.34L286.53,169.67L297.55,171.6L341.63,181.64L352.65,182.76L363.67,186.08L374.69,188.29L385.71,191.01L396.73,192.8L429.8,198.72L440.82,200.24L462.86,201.87L473.88,202.06L495.92,204.24L506.94,204.41L540,205.73" style="vector-effect: non-scaling-stroke; fill: none; stroke: rgb(99, 110, 250); stroke-opacity: 1; stroke-width: 2px; opacity: 1;"/></g><g class="points"/><g class="text"/></g><g class="trace scatter tracef8f2c4" style="stroke-miterlimit: 2; opacity: 1;"><g class="fills"/><g class="errorbars"/><g class="lines"><path class="js-line" d="M0,0.02L11.02,2.38L22.04,10.97L33.06,33.12L44.08,58.61L55.1,74.47L66.12,85.43L77.14,91.54L88.16,95.91L110.2,104.46L121.22,110.49L154.29,122.63L165.31,123.92L176.33,125.85L187.35,125.7L198.37,129.25L209.39,129.53L231.43,134.57L242.45,137.85L264.49,143.34L275.51,147.62L286.53,151.61L297.55,156.71L308.57,162.77L319.59,170.54L341.63,178.61L352.65,181.87L374.69,188.29L385.71,191.97L407.76,196.3L418.78,199L440.82,202.04L451.84,203.27L473.88,204.32L484.9,205.36L495.92,206.32L506.94,206.41L540,208.04" style="vector-effect: non-scaling-stroke; fill: none; stroke: rgb(239, 85, 59); stroke-opacity: 1; stroke-width: 2px; opacity: 1;"/></g><g class="points"/><g class="text"/></g><g class="trace scatter tracee15c4a" style="stroke-miterlimit: 2; opacity: 1;"><g class="fills"/><g class="errorbars"/><g class="lines"><path class="js-line" d="M0,0.07L11.02,2.36L22.04,9.32L33.06,25.51L44.08,48.61L55.1,66.39L66.12,78.58L77.14,85.6L88.16,91.47L121.22,108.1L132.24,112.3L143.27,117.26L154.29,120.36L176.33,125.05L187.35,125.61L198.37,128.62L209.39,128.58L242.45,136.78L253.47,138.48L286.53,145.93L297.55,148.53L308.57,149.98L319.59,153.12L330.61,155.75L341.63,160.12L352.65,164.41L363.67,170.18L374.69,175.61L385.71,179.45L418.78,187.73L429.8,189.47L440.82,191.59L451.84,192.72L473.88,194.32L484.9,194.96L495.92,195.94L506.94,196.14L540,197.62" style="vector-effect: non-scaling-stroke; fill: none; stroke: rgb(0, 204, 150); stroke-opacity: 1; stroke-width: 2px; opacity: 1;"/></g><g class="points"/><g class="text"/></g><g class="trace scatter trace02a4d5" style="stroke-miterlimit: 2; opacity: 1;"><g class="fills"/><g class="errorbars"/><g class="lines"><path class="js-line" d="M0,0.05L11.02,2.29L22.04,9.48L33.06,27.12L44.08,49.91L55.1,69.7L66.12,83.2L77.14,90.25L88.16,95.74L99.18,101.73L110.2,104.93L121.22,110.76L132.24,112.88L143.27,117.37L154.29,119.91L165.31,121.26L176.33,124.41L187.35,124.71L198.37,126.62L209.39,126.54L220.41,129.37L231.43,131.69L242.45,134.88L253.47,137.39L264.49,140.9L297.55,156.05L308.57,158.34L319.59,162.73L330.61,164.43L341.63,167.13L352.65,169.03L385.71,177.85L396.73,179.58L429.8,185.51L440.82,187.18L495.92,190.91L506.94,191.04L540,192.43" style="vector-effect: non-scaling-stroke; fill: none; stroke: rgb(171, 99, 250); stroke-opacity: 1; stroke-width: 2px; opacity: 1;"/></g><g class="points"/><g class="text"/></g><g class="trace scatter trace00609f" style="stroke-miterlimit: 2; opacity: 1;"><g class="fills"/><g class="errorbars"/><g class="lines"><path class="js-line" d="M0,0.05L11.02,2.4L22.04,10.91L33.06,31.33L44.08,58L55.1,76.35L66.12,87.9L77.14,93.4L88.16,97.24L99.18,101.7L110.2,104.29L121.22,108.31L132.24,111.11L143.27,115.06L154.29,119.99L176.33,125.82L187.35,126.2L198.37,129.21L209.39,128.89L231.43,135.12L242.45,137.47L253.47,138.9L264.49,141.72L308.57,153.87L319.59,159.41L330.61,164.52L341.63,168.22L352.65,171.72L363.67,176.16L407.76,187.99L418.78,189.56L440.82,193.48L451.84,194.77L484.9,196.5L495.92,197.57L517.96,198.59L528.98,199.09L540,199.46" style="vector-effect: non-scaling-stroke; fill: none; stroke: rgb(255, 161, 90); stroke-opacity: 1; stroke-width: 2px; opacity: 1;"/></g><g class="points"/><g class="text"/></g><g class="trace scatter tracefe006c" style="stroke-miterlimit: 2; opacity: 1;"><g class="fills"/><g class="errorbars"/><g class="lines"><path class="js-line" d="M0,0.02L11.02,2.39L22.04,10.95L33.06,32.06L44.08,55.48L55.1,72.18L66.12,85.44L77.14,92.32L88.16,97.36L99.18,101.68L110.2,104.04L121.22,108.1L132.24,110.33L143.27,111.7L154.29,113.84L165.31,115.18L176.33,119.09L187.35,120.3L198.37,124.35L209.39,125.46L220.41,128.63L231.43,129.84L242.45,133.51L253.47,134.52L264.49,137.3L286.53,142.34L297.55,144.44L308.57,145.25L319.59,147.98L341.63,152.38L352.65,153.16L374.69,158.21L385.71,160.36L440.82,169.14L451.84,170.14L473.88,170.73L484.9,171.78L495.92,172.6L506.94,172.58L528.98,173.89L540,174.36" style="vector-effect: non-scaling-stroke; fill: none; stroke: rgb(25, 211, 243); stroke-opacity: 1; stroke-width: 2px; opacity: 1;"/></g><g class="points"/><g class="text"/></g><g class="trace scatter trace76fffe" style="stroke-miterlimit: 2; opacity: 1;"><g class="fills"/><g class="errorbars"/><g class="lines"><path class="js-line" d="M0,0.02L11.02,2.39L22.04,11.21L33.06,32.54L44.08,56.02L55.1,72.13L66.12,84.21L77.14,90.64L88.16,94.77L99.18,100.13L110.2,103.39L121.22,109.66L132.24,114.55L154.29,120.91L165.31,122.54L176.33,125.37L187.35,124.7L198.37,126.77L209.39,127.09L231.43,130.9L242.45,134.12L253.47,135.96L264.49,138.67L297.55,145.53L308.57,146.89L319.59,149.65L330.61,151.49L363.67,157.11L374.69,159.67L385.71,162.27L396.73,163.93L407.76,166.08L418.78,167.43L440.82,171.38L451.84,172.05L484.9,173.82L495.92,174.95L506.94,174.9L517.96,175.69L540,176.58" style="vector-effect: non-scaling-stroke; fill: none; stroke: rgb(255, 102, 146); stroke-opacity: 1; stroke-width: 2px; opacity: 1;"/></g><g class="points"/><g class="text"/></g><g class="trace scatter trace5795ef" style="stroke-miterlimit: 2; opacity: 1;"><g class="fills"/><g class="errorbars"/><g class="lines"><path class="js-line" d="M0,0.02L11.02,2.39L22.04,10.32L33.06,29.14L44.08,55.57L55.1,73.11L66.12,83.9L77.14,90.04L88.16,95.1L99.18,100.22L110.2,103.78L121.22,109.58L132.24,112.66L143.27,117.27L154.29,120.91L165.31,122.22L176.33,125.67L187.35,125.72L198.37,128.77L209.39,128.49L220.41,131.33L231.43,132.67L242.45,136.01L264.49,139.47L275.51,141.72L297.55,146.89L308.57,148.1L319.59,151.04L330.61,152.53L363.67,158.3L374.69,161.55L396.73,165.71L407.76,168.19L440.82,174.2L451.84,175.62L462.86,175.41L473.88,176.61L484.9,177.12L495.92,178.49L506.94,178.53L517.96,179.51L540,180.11" style="vector-effect: non-scaling-stroke; fill: none; stroke: rgb(182, 232, 128); stroke-opacity: 1; stroke-width: 2px; opacity: 1;"/></g><g class="points"/><g class="text"/></g><g class="trace scatter trace66c4ba" style="stroke-miterlimit: 2; opacity: 1;"><g class="fills"/><g class="errorbars"/><g class="lines"><path class="js-line" d="M0,0.03L11.02,2.43L22.04,10.35L33.06,30.97L44.08,54.27L55.1,70.24L66.12,81.94L77.14,89.5L88.16,94.47L99.18,100.5L110.2,105.37L121.22,111.91L132.24,116.57L154.29,124.72L165.31,126.02L187.35,133.88L198.37,141.52L209.39,146.23L220.41,152.39L242.45,160.98L253.47,164.27L264.49,166.84L275.51,170.74L297.55,176.77L308.57,178.21L319.59,181.92L330.61,183.64L341.63,185.98L352.65,187.01L363.67,190.33L374.69,192.82L396.73,197.12L407.76,198.84L440.82,204.23L451.84,204.95L495.92,207.66L506.94,207.69L528.98,208.95L540,209.48" style="vector-effect: non-scaling-stroke; fill: none; stroke: rgb(255, 151, 255); stroke-opacity: 1; stroke-width: 2px; opacity: 1;"/></g><g class="points"/><g class="text"/></g><g class="trace scatter tracef766d5" style="stroke-miterlimit: 2; opacity: 1;"><g class="fills"/><g class="errorbars"/><g class="lines"><path class="js-line" d="M0,0.03L11.02,2.33L22.04,9.95L33.06,29.56L44.08,56.52L55.1,75.75L66.12,87.45L77.14,93.48L88.16,98.57L99.18,103.14L110.2,105.99L121.22,109.76L132.24,112.02L154.29,119.71L165.31,121.85L176.33,125.48L187.35,125.33L198.37,128.92L209.39,129.49L220.41,131.43L231.43,134.49L286.53,146.71L297.55,149.28L308.57,150.26L319.59,153.71L341.63,158L352.65,160.68L396.73,178.08L407.76,181.2L429.8,186.47L440.82,188.34L451.84,189.65L462.86,190.14L495.92,193.08L506.94,193.27L528.98,194.96L540,194.85" style="vector-effect: non-scaling-stroke; fill: none; stroke: rgb(254, 203, 82); stroke-opacity: 1; stroke-width: 2px; opacity: 1;"/></g><g class="points"/><g class="text"/></g><g class="trace scatter trace9e11b1" style="stroke-miterlimit: 2; opacity: 1;"><g class="fills"/><g class="errorbars"/><g class="lines"><path class="js-line" d="M0,0.08L11.02,2.31L22.04,9.83L33.06,28.86L44.08,56.36L55.1,74L66.12,85.12L77.14,91.3L88.16,95.46L99.18,100.51L110.2,103.31L121.22,107.9L132.24,110.5L154.29,116.58L165.31,118.39L176.33,123.7L187.35,127.04L198.37,133.57L209.39,137.15L220.41,140.77L231.43,145.4L242.45,149.84L253.47,153.47L286.53,164.6L297.55,167.58L308.57,169.28L319.59,173.38L352.65,178.94L363.67,181.76L385.71,187.18L396.73,189.24L418.78,193.2L429.8,194.91L451.84,197.68L462.86,197.77L495.92,200.06L506.94,200.42L540,201.99" style="vector-effect: non-scaling-stroke; fill: none; stroke: rgb(99, 110, 250); stroke-opacity: 1; stroke-width: 2px; opacity: 1;"/></g><g class="points"/><g class="text"/></g><g class="trace scatter trace1128b8" style="stroke-miterlimit: 2; opacity: 1;"><g class="fills"/><g class="errorbars"/><g class="lines"><path class="js-line" d="M0,0.02L11.02,2.41L22.04,10.71L33.06,31.26L44.08,55.4L55.1,72.38L66.12,84.28L77.14,90.5L88.16,94.42L99.18,99.16L110.2,101.91L143.27,116.39L154.29,120.49L176.33,124.03L187.35,124.83L198.37,127.94L209.39,128.1L231.43,132.95L242.45,135.45L253.47,138.82L264.49,140.45L286.53,146.51L297.55,150.15L308.57,153.1L319.59,158.24L330.61,162.42L341.63,165.38L352.65,168.29L363.67,172.26L385.71,178.78L396.73,181.35L418.78,185.93L429.8,188.01L440.82,189.8L451.84,190.47L528.98,195.04L540,195.51" style="vector-effect: non-scaling-stroke; fill: none; stroke: rgb(239, 85, 59); stroke-opacity: 1; stroke-width: 2px; opacity: 1;"/></g><g class="points"/><g class="text"/></g><g class="trace scatter trace9b0f17" style="stroke-miterlimit: 2; opacity: 1;"><g class="fills"/><g class="errorbars"/><g class="lines"><path class="js-line" d="M0,0.06L11.02,2.35L22.04,10.12L33.06,29.31L44.08,55.08L55.1,73.42L66.12,85.19L77.14,91.02L88.16,95.21L110.2,103.67L121.22,109.55L132.24,113.18L143.27,117.73L154.29,120.73L165.31,122.2L176.33,125L187.35,124.68L198.37,127.54L209.39,127.06L264.49,138.38L275.51,140.48L286.53,141.86L297.55,145.69L308.57,146.41L319.59,149.58L330.61,151.15L341.63,153.54L352.65,154.99L363.67,157.64L385.71,163.83L396.73,165.76L429.8,172.79L440.82,174.21L451.84,175.59L462.86,176.02L495.92,178.95L506.94,178.97L528.98,180.5L540,180.93" style="vector-effect: non-scaling-stroke; fill: none; stroke: rgb(0, 204, 150); stroke-opacity: 1; stroke-width: 2px; opacity: 1;"/></g><g class="points"/><g class="text"/></g><g class="trace scatter tracef6d5f4" style="stroke-miterlimit: 2; opacity: 1;"><g class="fills"/><g class="errorbars"/><g class="lines"><path class="js-line" d="M0,0.07L11.02,2.43L22.04,10.28L33.06,29.64L44.08,55.08L55.1,73.2L66.12,84.67L77.14,90.66L88.16,95.36L99.18,99.59L110.2,102.74L121.22,107.79L132.24,110.75L154.29,119.6L165.31,121.43L176.33,123.94L187.35,124.88L198.37,128.13L209.39,129.2L220.41,132.77L231.43,135.29L242.45,140.9L253.47,148.75L264.49,153.51L275.51,159.27L330.61,175.08L341.63,176.92L407.76,191.67L418.78,193.25L440.82,196.98L451.84,197.96L473.88,198.79L484.9,199.66L540,202.63" style="vector-effect: non-scaling-stroke; fill: none; stroke: rgb(171, 99, 250); stroke-opacity: 1; stroke-width: 2px; opacity: 1;"/></g><g class="points"/><g class="text"/></g><g class="trace scatter tracea3cbe2" style="stroke-miterlimit: 2; opacity: 1;"><g class="fills"/><g class="errorbars"/><g class="lines"><path class="js-line" d="M0,0.02L11.02,2.32L22.04,10.62L33.06,31.71L44.08,56.35L55.1,71.99L66.12,83.28L77.14,89.78L88.16,94.71L99.18,99.68L110.2,102.96L121.22,108.63L132.24,113.37L154.29,122.7L165.31,124.04L176.33,126.67L187.35,126.69L198.37,130.11L209.39,130.38L220.41,132.81L231.43,134.46L242.45,138.48L253.47,141.11L264.49,144.6L275.51,149.4L297.55,159.25L308.57,162.12L319.59,166.74L330.61,169.1L341.63,172.15L352.65,173.83L374.69,180.29L385.71,183.48L429.8,191.4L440.82,192.8L451.84,193.97L462.86,194.16L495.92,196.77L506.94,196.76L528.98,197.9L540,198.23" style="vector-effect: non-scaling-stroke; fill: none; stroke: rgb(255, 161, 90); stroke-opacity: 1; stroke-width: 2px; opacity: 1;"/></g><g class="points"/><g class="text"/></g><g class="trace scatter trace40cefa" style="stroke-miterlimit: 2; opacity: 1;"><g class="fills"/><g class="errorbars"/><g class="lines"><path class="js-line" d="M0,0.06L11.02,2.31L22.04,9.67L33.06,27.89L44.08,53.28L55.1,71.04L66.12,83.47L77.14,90.32L88.16,95.56L99.18,100.97L110.2,104.26L121.22,108.66L132.24,110.96L154.29,118.71L165.31,120.96L176.33,123.83L187.35,125.27L198.37,129.75L209.39,132.3L286.53,169.77L297.55,172.61L330.61,181.05L341.63,182.83L352.65,184.89L363.67,187.83L396.73,194.83L407.76,197.05L440.82,202.1L451.84,203.25L540,207.75" style="vector-effect: non-scaling-stroke; fill: none; stroke: rgb(25, 211, 243); stroke-opacity: 1; stroke-width: 2px; opacity: 1;"/></g><g class="points"/><g class="text"/></g><g class="trace scatter trace20f538" style="stroke-miterlimit: 2; opacity: 1;"><g class="fills"/><g class="errorbars"/><g class="lines"><path class="js-line" d="M0,0.05L11.02,2.32L22.04,9.38L33.06,26.22L44.08,51.69L55.1,72.08L66.12,85.33L77.14,91.55L88.16,96.64L99.18,101.11L110.2,103.98L121.22,108.66L132.24,109.24L154.29,116.32L165.31,119.03L176.33,122.24L187.35,122.46L198.37,125.92L209.39,125.82L220.41,129.09L231.43,131.05L242.45,134.35L253.47,136.86L264.49,139.49L275.51,143.87L297.55,155.18L308.57,159.69L319.59,165.24L330.61,168.86L385.71,183.11L396.73,185.06L429.8,191L440.82,192.83L473.88,194.92L484.9,195.37L495.92,196.72L506.94,196.55L528.98,198.19L540,198.27" style="vector-effect: non-scaling-stroke; fill: none; stroke: rgb(255, 102, 146); stroke-opacity: 1; stroke-width: 2px; opacity: 1;"/></g><g class="points"/><g class="text"/></g><g class="trace scatter tracea3bf1b" style="stroke-miterlimit: 2; opacity: 1;"><g class="fills"/><g class="errorbars"/><g class="lines"><path class="js-line" d="M0,0.05L11.02,2.32L22.04,10.48L33.06,32.29L44.08,56.7L55.1,71.87L66.12,82.76L77.14,89.87L88.16,95.34L99.18,101.62L110.2,106.84L121.22,114.12L132.24,119.17L143.27,125.66L154.29,133.08L165.31,139.3L176.33,144.06L187.35,146.52L198.37,150.54L231.43,158.68L242.45,163.38L253.47,166.05L264.49,167.87L286.53,173.55L297.55,176.14L308.57,178.4L319.59,181.43L341.63,184.98L352.65,185.98L363.67,189.81L374.69,191.36L385.71,194.25L396.73,195.95L407.76,198.61L418.78,200.24L440.82,203.53L451.84,204.72L473.88,205.7L484.9,206.19L495.92,207.48L506.94,207.44L540,208.92" style="vector-effect: non-scaling-stroke; fill: none; stroke: rgb(182, 232, 128); stroke-opacity: 1; stroke-width: 2px; opacity: 1;"/></g><g class="points"/><g class="text"/></g><g class="trace scatter traceab1d97" style="stroke-miterlimit: 2; opacity: 1;"><g class="fills"/><g class="errorbars"/><g class="lines"><path class="js-line" d="M0,0.04L11.02,2.34L22.04,9.73L33.06,27.22L44.08,51.47L55.1,69.2L66.12,81.49L77.14,88.9L88.16,93.93L110.2,103.25L121.22,109.09L132.24,114.13L143.27,118.08L154.29,121.73L165.31,123.39L176.33,126.26L187.35,126.34L198.37,128.36L209.39,127.98L220.41,131.79L231.43,133.67L253.47,138.14L264.49,141.32L275.51,143.79L286.53,147.75L308.57,156.04L319.59,161.83L341.63,169.24L352.65,172.02L385.71,182.37L396.73,184.39L418.78,188.62L429.8,190.75L451.84,193.6L462.86,193.77L484.9,195.46L495.92,196.43L540,198.24" style="vector-effect: non-scaling-stroke; fill: none; stroke: rgb(255, 151, 255); stroke-opacity: 1; stroke-width: 2px; opacity: 1;"/></g><g class="points"/><g class="text"/></g><g class="trace scatter traced2383f" style="stroke-miterlimit: 2; opacity: 1;"><g class="fills"/><g class="errorbars"/><g class="lines"><path class="js-line" d="M0,0.02L11.02,2.38L22.04,10.63L33.06,31.5L44.08,54.3L55.1,71.2L66.12,85.21L77.14,92.04L88.16,97.08L99.18,101.95L110.2,104.58L121.22,108.96L132.24,112.08L143.27,115.51L154.29,120.27L165.31,121.87L176.33,124.7L187.35,124.63L198.37,127.34L209.39,128.01L220.41,129.95L264.49,139.48L275.51,142.74L308.57,147.79L319.59,151.34L352.65,155.17L363.67,158.81L374.69,160.67L385.71,163.41L396.73,164.74L407.76,167.03L440.82,172.34L451.84,173.49L473.88,174.66L484.9,175.28L495.92,176.17L506.94,176.06L517.96,177.25L528.98,177.56L540,178" style="vector-effect: non-scaling-stroke; fill: none; stroke: rgb(254, 203, 82); stroke-opacity: 1; stroke-width: 2px; opacity: 1;"/></g><g class="points"/><g class="text"/></g><g class="trace scatter trace1941ad" style="stroke-miterlimit: 2; opacity: 1;"><g class="fills"/><g class="errorbars"/><g class="lines"><path class="js-line" d="M0,0.07L11.02,2.27L22.04,10.05L33.06,28.59L44.08,56.2L55.1,73.57L66.12,84.83L77.14,90.97L88.16,95.42L99.18,100.8L110.2,104.21L121.22,109.53L132.24,113.08L154.29,123.5L165.31,126.95L198.37,139.02L209.39,141.63L220.41,146.42L231.43,149.45L242.45,153.94L253.47,156.02L275.51,162.2L286.53,165.85L308.57,168.88L319.59,172.49L341.63,177.44L352.65,178.67L363.67,181.6L374.69,183.71L385.71,186.66L396.73,188.27L418.78,192.01L429.8,193.87L451.84,196.38L462.86,196.79L540,200.94" style="vector-effect: non-scaling-stroke; fill: none; stroke: rgb(99, 110, 250); stroke-opacity: 1; stroke-width: 2px; opacity: 1;"/></g><g class="points"/><g class="text"/></g><g class="trace scatter trace64af17" style="stroke-miterlimit: 2; opacity: 1;"><g class="fills"/><g class="errorbars"/><g class="lines"><path class="js-line" d="M0,0.05L11.02,2.42L22.04,10.57L33.06,29.25L44.08,54.5L55.1,72.78L66.12,85.44L77.14,91.55L88.16,95.93L99.18,100.32L110.2,103.39L121.22,107.8L132.24,110.42L143.27,113.6L154.29,117.67L176.33,125.51L187.35,126.64L231.43,145.13L242.45,149.64L286.53,161.96L297.55,164.4L308.57,166.33L319.59,170.34L330.61,172.03L341.63,175.37L352.65,177.29L363.67,181.78L407.76,192.08L418.78,193.42L440.82,197.43L451.84,198.44L540,203.07" style="vector-effect: non-scaling-stroke; fill: none; stroke: rgb(239, 85, 59); stroke-opacity: 1; stroke-width: 2px; opacity: 1;"/></g><g class="points"/><g class="text"/></g><g class="trace scatter trace527f57" style="stroke-miterlimit: 2; opacity: 1;"><g class="fills"/><g class="errorbars"/><g class="lines"><path class="js-line" d="M0,0.05L11.02,2.4L22.04,10.37L33.06,29.88L44.08,53.95L55.1,71.47L66.12,83.57L77.14,90.11L88.16,95.19L99.18,101.06L110.2,103.49L121.22,108.77L132.24,113.01L154.29,121.95L165.31,123.18L176.33,126.2L187.35,126.66L198.37,129.57L209.39,130.77L220.41,136.06L231.43,143.63L242.45,151.06L253.47,156.34L264.49,161.56L275.51,165.95L286.53,169.98L297.55,172.87L308.57,175.11L319.59,178.41L330.61,181.11L341.63,182.75L407.76,197.34L418.78,199.1L440.82,202.59L451.84,203.69L484.9,205.2L495.92,206.59L528.98,207.4L540,208.3" style="vector-effect: non-scaling-stroke; fill: none; stroke: rgb(0, 204, 150); stroke-opacity: 1; stroke-width: 2px; opacity: 1;"/></g><g class="points"/><g class="text"/></g><g class="trace scatter traceffbd91" style="stroke-miterlimit: 2; opacity: 1;"><g class="fills"/><g class="errorbars"/><g class="lines"><path class="js-line" d="M0,0.02L11.02,2.35L22.04,10.23L33.06,30.48L44.08,57.13L55.1,74.74L66.12,85.75L77.14,91.4L88.16,95.6L99.18,100.65L110.2,104.2L121.22,109.65L132.24,113.88L143.27,119.17L154.29,123.36L165.31,125.31L176.33,128.35L187.35,130.83L198.37,136.26L220.41,147.49L231.43,152.36L242.45,156.92L253.47,159.44L264.49,162.01L275.51,166.26L297.55,171.86L308.57,173.66L319.59,177.44L330.61,179.52L352.65,183.3L363.67,186.23L396.73,193.36L407.76,195.02L429.8,199.13L440.82,200.43L462.86,201.98L473.88,202.4L495.92,203.98L506.94,204.27L528.98,205.58L540,206" style="vector-effect: non-scaling-stroke; fill: none; stroke: rgb(171, 99, 250); stroke-opacity: 1; stroke-width: 2px; opacity: 1;"/></g><g class="points"/><g class="text"/></g><g class="trace scatter trace94f70b" style="stroke-miterlimit: 2; opacity: 1;"><g class="fills"/><g class="errorbars"/><g class="lines"><path class="js-line" d="M0,0.05L11.02,2.27L22.04,9.95L33.06,28.7L44.08,53.03L55.1,70.78L66.12,83.07L77.14,89.71L88.16,95.2L99.18,101.01L110.2,104.06L121.22,109.73L132.24,114.46L154.29,122.26L165.31,123.44L176.33,126.84L187.35,127.56L198.37,129.93L209.39,129.87L231.43,134.22L242.45,136.51L253.47,138.34L264.49,141.92L275.51,144.75L286.53,148.76L297.55,153.02L308.57,156.06L319.59,161.75L330.61,165.07L385.71,181.48L396.73,183.73L429.8,189.99L440.82,191.33L451.84,192.52L462.86,192.95L528.98,196.78L540,196.85" style="vector-effect: non-scaling-stroke; fill: none; stroke: rgb(255, 161, 90); stroke-opacity: 1; stroke-width: 2px; opacity: 1;"/></g><g class="points"/><g class="text"/></g><g class="trace scatter trace5edf8b" style="stroke-miterlimit: 2; opacity: 1;"><g class="fills"/><g class="errorbars"/><g class="lines"><path class="js-line" d="M0,0.03L11.02,2.38L22.04,10.19L33.06,29.79L44.08,55.16L55.1,72.43L66.12,84.18L77.14,90.06L88.16,94.65L99.18,99.39L110.2,102.63L121.22,108.16L132.24,111.55L143.27,116.54L154.29,120.59L176.33,125.07L187.35,126L198.37,128.57L209.39,129.91L231.43,137.05L242.45,142.17L253.47,148L264.49,152.55L275.51,157.67L286.53,161.77L297.55,165.15L308.57,167.54L319.59,171.06L330.61,173.71L341.63,176.01L352.65,177.46L374.69,183.57L385.71,186.59L440.82,196.09L451.84,196.94L473.88,197.97L484.9,198.74L540,201.52" style="vector-effect: non-scaling-stroke; fill: none; stroke: rgb(25, 211, 243); stroke-opacity: 1; stroke-width: 2px; opacity: 1;"/></g><g class="points"/><g class="text"/></g><g class="trace scatter tracee93d75" style="stroke-miterlimit: 2; opacity: 1;"><g class="fills"/><g class="errorbars"/><g class="lines"><path class="js-line" d="M0,0.07L11.02,2.43L22.04,10.19L33.06,29.17L44.08,54.34L55.1,72.75L66.12,85.7L77.14,92.62L88.16,97.78L99.18,102.67L110.2,105.7L121.22,111.64L132.24,115.55L143.27,120.58L154.29,123.96L176.33,127.42L187.35,127.8L198.37,130.48L209.39,130.95L231.43,135.26L242.45,137.34L264.49,145.28L275.51,151.13L286.53,157.52L297.55,161.83L330.61,173.66L341.63,176.08L352.65,178.25L363.67,181.33L385.71,187.57L396.73,189.6L429.8,195.67L440.82,197.51L495.92,201.19L506.94,201.44L517.96,202.3L528.98,202.32L540,202.98" style="vector-effect: non-scaling-stroke; fill: none; stroke: rgb(255, 102, 146); stroke-opacity: 1; stroke-width: 2px; opacity: 1;"/></g><g class="points"/><g class="text"/></g><g class="trace scatter trace386558" style="stroke-miterlimit: 2; opacity: 1;"><g class="fills"/><g class="errorbars"/><g class="lines"><path class="js-line" d="M0,0.05L11.02,2.41L22.04,10.24L33.06,29.72L44.08,56.97L55.1,76.26L66.12,87.54L77.14,93.22L88.16,97.05L99.18,102.02L110.2,104.26L121.22,109.82L132.24,113.97L154.29,122.35L165.31,123.66L176.33,126.44L187.35,126.44L198.37,129.92L209.39,130.37L220.41,134.56L231.43,141.45L242.45,149.76L253.47,154.58L264.49,157.42L275.51,163.18L286.53,167.17L297.55,170.08L308.57,171.53L319.59,176.34L341.63,179.85L352.65,181.93L374.69,187.25L385.71,190.01L429.8,197.42L440.82,199.27L473.88,201.28L484.9,201.71L517.96,203.92L528.98,204.04L540,204.68" style="vector-effect: non-scaling-stroke; fill: none; stroke: rgb(182, 232, 128); stroke-opacity: 1; stroke-width: 2px; opacity: 1;"/></g><g class="points"/><g class="text"/></g><g class="trace scatter trace12a98c" style="stroke-miterlimit: 2; opacity: 1;"><g class="fills"/><g class="errorbars"/><g class="lines"><path class="js-line" d="M0,0.03L11.02,2.36L22.04,10.51L33.06,30.42L44.08,56.23L55.1,73.85L66.12,85.86L77.14,92.17L88.16,96.7L99.18,101.21L110.2,103.7L121.22,107.56L132.24,110.47L143.27,112.99L154.29,117.06L187.35,123.76L198.37,125.25L209.39,126.22L220.41,129.52L231.43,131.76L242.45,135.13L253.47,139.18L264.49,144.62L286.53,155.14L297.55,160.39L308.57,163.47L319.59,168L363.67,178.59L374.69,181.67L385.71,184.56L396.73,186.43L440.82,194.31L451.84,195.16L473.88,196.23L484.9,197L517.96,199.01L528.98,199.36L540,199.32" style="vector-effect: non-scaling-stroke; fill: none; stroke: rgb(255, 151, 255); stroke-opacity: 1; stroke-width: 2px; opacity: 1;"/></g><g class="points"/><g class="text"/></g><g class="trace scatter trace3d7c54" style="stroke-miterlimit: 2; opacity: 1;"><g class="fills"/><g class="errorbars"/><g class="lines"><path class="js-line" d="M0,0.05L11.02,2.35L22.04,9.44L33.06,26.17L44.08,49.81L55.1,71.12L66.12,85.02L77.14,91.88L88.16,97.6L99.18,103.2L110.2,106.44L121.22,112.2L132.24,115.13L143.27,119.13L154.29,122.17L165.31,124.09L176.33,127L187.35,130.87L198.37,135.89L220.41,144.31L231.43,147.86L242.45,152.2L253.47,154.17L297.55,165.98L308.57,168.08L319.59,171.81L330.61,173.96L341.63,176.56L352.65,178.37L385.71,186.74L396.73,189.04L440.82,196.22L451.84,197.07L484.9,198.67L495.92,199.8L517.96,200.52L528.98,200.99L540,201.39" style="vector-effect: non-scaling-stroke; fill: none; stroke: rgb(254, 203, 82); stroke-opacity: 1; stroke-width: 2px; opacity: 1;"/></g><g class="points"/><g class="text"/></g><g class="trace scatter tracef418e5" style="stroke-miterlimit: 2; opacity: 1;"><g class="fills"/><g class="errorbars"/><g class="lines"><path class="js-line" d="M0,0.06L11.02,2.35L22.04,10.01L33.06,29.55L44.08,54.92L55.1,71.42L66.12,83.39L77.14,89.86L88.16,95.05L99.18,101.69L110.2,105.46L143.27,121.1L154.29,125.13L165.31,129.1L176.33,136.14L198.37,145.43L209.39,146.95L242.45,157.82L253.47,160.39L264.49,162.56L275.51,165.98L297.55,171.24L308.57,172.67L330.61,178.04L341.63,179.28L352.65,180.48L363.67,183.97L385.71,188.54L396.73,189.84L407.76,192.45L418.78,194.22L451.84,198.51L462.86,198.88L517.96,201.88L528.98,202.02L540,202.86" style="vector-effect: non-scaling-stroke; fill: none; stroke: rgb(99, 110, 250); stroke-opacity: 1; stroke-width: 2px; opacity: 1;"/></g><g class="points"/><g class="text"/></g><g class="trace scatter tracedcdf69" style="stroke-miterlimit: 2; opacity: 1;"><g class="fills"/><g class="errorbars"/><g class="lines"><path class="js-line" d="M0,0.09L11.02,2.32L22.04,9.49L33.06,27L44.08,54.69L55.1,72.94L66.12,84.12L77.14,90.24L88.16,94.59L99.18,99.78L110.2,103.37L121.22,108.9L132.24,112.4L143.27,117.42L154.29,121.48L165.31,123.47L176.33,126.92L187.35,127.77L198.37,130.33L209.39,130.73L220.41,134.36L231.43,135.41L242.45,139.19L264.49,146.16L275.51,151.86L286.53,157.05L297.55,160.99L308.57,164.91L319.59,169.82L341.63,176.35L352.65,177.61L374.69,183.95L385.71,186.73L440.82,196.07L451.84,197.48L473.88,198.28L484.9,199.35L540,201.81" style="vector-effect: non-scaling-stroke; fill: none; stroke: rgb(239, 85, 59); stroke-opacity: 1; stroke-width: 2px; opacity: 1;"/></g><g class="points"/><g class="text"/></g><g class="trace scatter tracef2a832" style="stroke-miterlimit: 2; opacity: 1;"><g class="fills"/><g class="errorbars"/><g class="lines"><path class="js-line" d="M0,0.18L11.02,2.35L22.04,11.22L44.08,41.53L55.1,59.29L66.12,71.89L77.14,79.85L88.16,87.69L99.18,93.81L110.2,97.68L121.22,100.74L132.24,105.14L143.27,107.66L154.29,109.45L165.31,113.77L187.35,119.98L198.37,122.08L231.43,138.36L242.45,141.82L253.47,148.26L264.49,151.44L275.51,155.33L286.53,158.35L297.55,162.28L308.57,165.29L319.59,168.96L330.61,171.6L341.63,173.29L352.65,176.6L374.69,180.5L385.71,183.26L396.73,185.85L407.76,187.67L429.8,192.8L440.82,194.16L451.84,195.36L462.86,195.64L540,200.05" style="vector-effect: non-scaling-stroke; fill: none; stroke: rgb(0, 204, 150); stroke-opacity: 1; stroke-width: 2px; opacity: 1;"/></g><g class="points"/><g class="text"/></g><g class="trace scatter trace1e0600" style="stroke-miterlimit: 2; opacity: 1;"><g class="fills"/><g class="errorbars"/><g class="lines"><path class="js-line" d="M0,0.09L11.02,2.32L22.04,9.67L33.06,27.23L44.08,50.64L55.1,70.74L66.12,84.21L77.14,91.22L88.16,96.54L99.18,102.07L110.2,105.19L132.24,115.09L143.27,121.91L154.29,129.55L165.31,133.67L176.33,138.85L187.35,140.32L209.39,145.55L220.41,149.77L231.43,151.52L242.45,155.84L275.51,162.9L286.53,166.39L308.57,170.18L319.59,173.19L330.61,175.8L341.63,177.02L352.65,179.6L363.67,181.3L385.71,186.68L396.73,188.43L451.84,196.33L462.86,196.81L528.98,199.94L540,200.51" style="vector-effect: non-scaling-stroke; fill: none; stroke: rgb(171, 99, 250); stroke-opacity: 1; stroke-width: 2px; opacity: 1;"/></g><g class="points"/><g class="text"/></g><g class="trace scatter trace1bc954" style="stroke-miterlimit: 2; opacity: 1;"><g class="fills"/><g class="errorbars"/><g class="lines"><path class="js-line" d="M0,0.03L11.02,2.37L22.04,10.54L33.06,30.61L44.08,54.31L55.1,70.7L66.12,83.67L77.14,90.73L88.16,94.98L99.18,99.94L110.2,101.9L154.29,119.38L165.31,121L176.33,123.14L187.35,123.87L198.37,125.58L209.39,126.47L253.47,134.43L264.49,137.21L286.53,141.36L297.55,143.1L308.57,144.63L319.59,148.12L352.65,152.66L363.67,155.12L396.73,162.08L407.76,163.64L440.82,168.85L451.84,169.93L484.9,171.64L495.92,172.44L506.94,172.41L517.96,173.2L540,174.1" style="vector-effect: non-scaling-stroke; fill: none; stroke: rgb(255, 161, 90); stroke-opacity: 1; stroke-width: 2px; opacity: 1;"/></g><g class="points"/><g class="text"/></g><g class="trace scatter tracec8403f" style="stroke-miterlimit: 2; opacity: 1;"><g class="fills"/><g class="errorbars"/><g class="lines"><path class="js-line" d="M0,0.05L11.02,2.45L22.04,10.98L33.06,30.96L44.08,55.62L55.1,71.2L66.12,82.62L77.14,89.73L88.16,95.04L99.18,100.95L110.2,104.13L121.22,110.12L132.24,113.83L143.27,118.39L154.29,121.75L176.33,125.48L187.35,125.91L198.37,128.51L209.39,128.3L253.47,138.03L264.49,140.21L319.59,151.1L330.61,152.7L363.67,157.8L374.69,160.02L385.71,162.45L396.73,164.04L440.82,170.7L451.84,171.84L473.88,172.47L484.9,173.14L495.92,174.07L506.94,174.08L528.98,175.38L540,175.88" style="vector-effect: non-scaling-stroke; fill: none; stroke: rgb(25, 211, 243); stroke-opacity: 1; stroke-width: 2px; opacity: 1;"/></g><g class="points"/><g class="text"/></g><g class="trace scatter trace027075" style="stroke-miterlimit: 2; opacity: 1;"><g class="fills"/><g class="errorbars"/><g class="lines"><path class="js-line" d="M0,0.17L11.02,2.26L22.04,10.65L33.06,26.4L44.08,43.9L55.1,61.1L66.12,72.49L88.16,86.31L99.18,91.95L110.2,95.42L121.22,100.41L132.24,103.91L143.27,106.47L154.29,110.53L165.31,115.58L176.33,118.17L187.35,123.09L209.39,133.42L220.41,137.45L231.43,142.89L242.45,145.67L253.47,151.34L264.49,153.58L286.53,160.47L297.55,163.18L308.57,165.49L319.59,169.12L330.61,171.79L341.63,172.63L352.65,175.55L363.67,177.48L396.73,185.1L407.76,186.2L429.8,191.84L440.82,192.91L462.86,194.26L473.88,195.01L540,198.64" style="vector-effect: non-scaling-stroke; fill: none; stroke: rgb(255, 102, 146); stroke-opacity: 1; stroke-width: 2px; opacity: 1;"/></g><g class="points"/><g class="text"/></g><g class="trace scatter trace7026dc" style="stroke-miterlimit: 2; opacity: 1;"><g class="fills"/><g class="errorbars"/><g class="lines"><path class="js-line" d="M0,0.03L11.02,2.42L22.04,10.39L33.06,29.78L44.08,55.37L55.1,71.99L66.12,83.97L77.14,90.51L88.16,96.02L99.18,101.13L110.2,105.33L121.22,110.87L132.24,114.27L143.27,118.69L154.29,121.59L165.31,122.27L176.33,124.65L187.35,125.35L198.37,127.13L209.39,127.74L220.41,130.03L231.43,132.15L242.45,135.73L253.47,138.19L264.49,141.51L275.51,145.92L286.53,152.14L297.55,157.85L308.57,162.45L319.59,167.35L330.61,170.82L341.63,174.55L352.65,176.28L385.71,185.15L396.73,187.35L418.78,191.5L429.8,193.25L440.82,195.07L451.84,195.92L506.94,199.11L517.96,199.7L540,200.57" style="vector-effect: non-scaling-stroke; fill: none; stroke: rgb(182, 232, 128); stroke-opacity: 1; stroke-width: 2px; opacity: 1;"/></g><g class="points"/><g class="text"/></g><g class="trace scatter tracef78ca5" style="stroke-miterlimit: 2; opacity: 1;"><g class="fills"/><g class="errorbars"/><g class="lines"><path class="js-line" d="M0,0.02L11.02,2.41L22.04,10.19L33.06,30.31L44.08,54.35L55.1,70.6L66.12,82.15L77.14,89.23L88.16,94.26L99.18,99.52L110.2,103.44L132.24,113.53L143.27,117.76L154.29,122.26L165.31,123.38L176.33,125.89L187.35,126.32L198.37,128.85L209.39,129.15L231.43,133.38L242.45,137.89L253.47,140.41L264.49,146.18L286.53,157.35L297.55,161.96L308.57,163.54L319.59,168.28L352.65,174.72L363.67,177.88L374.69,180.08L385.71,183.34L440.82,192.82L451.84,193.66L473.88,194.63L484.9,195.46L495.92,196.52L506.94,196.77L540,198.42" style="vector-effect: non-scaling-stroke; fill: none; stroke: rgb(255, 151, 255); stroke-opacity: 1; stroke-width: 2px; opacity: 1;"/></g><g class="points"/><g class="text"/></g><g class="trace scatter trace70925b" style="stroke-miterlimit: 2; opacity: 1;"><g class="fills"/><g class="errorbars"/><g class="lines"><path class="js-line" d="M0,0.04L11.02,2.47L22.04,10.55L33.06,28.16L44.08,53.62L55.1,72.88L66.12,85.92L77.14,92.04L88.16,97.01L99.18,101.73L110.2,104.47L121.22,109.09L132.24,112.66L143.27,119.22L154.29,123.9L165.31,126.63L176.33,132.13L198.37,143.17L209.39,145.66L220.41,148.76L231.43,152.82L242.45,156.34L253.47,159.02L297.55,172.02L308.57,174.14L330.61,180.09L341.63,182.25L352.65,183.54L363.67,186.2L385.71,191.31L396.73,193.5L429.8,199.15L440.82,200.57L528.98,205.51L540,205.7" style="vector-effect: non-scaling-stroke; fill: none; stroke: rgb(254, 203, 82); stroke-opacity: 1; stroke-width: 2px; opacity: 1;"/></g><g class="points"/><g class="text"/></g><g class="trace scatter trace6c60ae" style="stroke-miterlimit: 2; opacity: 1;"><g class="fills"/><g class="errorbars"/><g class="lines"><path class="js-line" d="M0,0.05L11.02,2.3L22.04,9.4L33.06,26.58L44.08,51.17L55.1,69.53L66.12,81.94L77.14,89.1L88.16,94.42L110.2,103.94L121.22,110.86L132.24,115.37L143.27,118.73L154.29,121.94L165.31,123.27L176.33,125.6L187.35,126.15L198.37,128.36L209.39,129.51L231.43,133.61L242.45,137.32L253.47,140.07L264.49,144.16L286.53,154.22L297.55,158.07L308.57,161.28L319.59,165.66L363.67,175.14L374.69,178.61L385.71,181.36L396.73,183.2L407.76,185.66L418.78,187.02L429.8,189.24L440.82,190.64L451.84,191.76L462.86,192.04L484.9,193.37L495.92,194.48L517.96,195.24L528.98,195.87L540,195.93" style="vector-effect: non-scaling-stroke; fill: none; stroke: rgb(99, 110, 250); stroke-opacity: 1; stroke-width: 2px; opacity: 1;"/></g><g class="points"/><g class="text"/></g><g class="trace scatter tracefd375b" style="stroke-miterlimit: 2; opacity: 1;"><g class="fills"/><g class="errorbars"/><g class="lines"><path class="js-line" d="M0,0.03L11.02,2.39L22.04,10.39L33.06,31.88L44.08,55.63L55.1,72.22L66.12,84.96L77.14,91.41L88.16,95.64L99.18,100.49L110.2,103.51L121.22,107.92L132.24,110.36L143.27,113.2L154.29,118.18L165.31,119.85L176.33,122.75L187.35,123.51L198.37,126.33L209.39,126.9L220.41,129.07L231.43,131.13L242.45,133.96L253.47,135.69L264.49,138.67L275.51,141.25L286.53,142.1L297.55,145.64L308.57,146.75L319.59,149.72L330.61,151.67L341.63,152.76L352.65,154.92L396.73,165.8L407.76,167.83L429.8,172.2L440.82,174.06L451.84,175.27L462.86,175.52L528.98,179.64L540,179.89" style="vector-effect: non-scaling-stroke; fill: none; stroke: rgb(239, 85, 59); stroke-opacity: 1; stroke-width: 2px; opacity: 1;"/></g><g class="points"/><g class="text"/></g><g class="trace scatter trace727f07" style="stroke-miterlimit: 2; opacity: 1;"><g class="fills"/><g class="errorbars"/><g class="lines"><path class="js-line" d="M0,0.02L11.02,2.42L22.04,10.72L33.06,30.96L44.08,54.79L55.1,70.58L66.12,82.16L77.14,88.32L88.16,93.27L99.18,98.72L110.2,102.45L121.22,109.03L132.24,113.45L143.27,117.38L154.29,119.97L176.33,124.69L187.35,124.92L198.37,126.97L209.39,127.36L220.41,131.25L231.43,132.79L242.45,135.9L253.47,140.78L264.49,145.1L275.51,151.24L286.53,156.68L297.55,160.34L308.57,163.31L319.59,167.32L341.63,172.83L352.65,174.22L374.69,180.52L385.71,183.21L440.82,192.58L451.84,193.57L540,197.79" style="vector-effect: non-scaling-stroke; fill: none; stroke: rgb(0, 204, 150); stroke-opacity: 1; stroke-width: 2px; opacity: 1;"/></g><g class="points"/><g class="text"/></g><g class="trace scatter tracebb699c" style="stroke-miterlimit: 2; opacity: 1;"><g class="fills"/><g class="errorbars"/><g class="lines"><path class="js-line" d="M0,0.06L11.02,2.35L22.04,10.17L33.06,29.34L44.08,55.53L55.1,73.99L66.12,85.8L77.14,91.83L88.16,96.55L110.2,104.38L121.22,111.93L154.29,130.62L165.31,134.37L176.33,138.83L187.35,142.18L198.37,145.48L209.39,146.91L231.43,152.72L242.45,157.5L253.47,159.11L264.49,162.3L297.55,170.74L308.57,173.04L319.59,176.34L330.61,178.16L352.65,181.45L363.67,184.89L374.69,186.42L385.71,189.56L440.82,198.14L451.84,199.49L462.86,199.49L473.88,200.42L528.98,203.35L540,203.55" style="vector-effect: non-scaling-stroke; fill: none; stroke: rgb(171, 99, 250); stroke-opacity: 1; stroke-width: 2px; opacity: 1;"/></g><g class="points"/><g class="text"/></g><g class="trace scatter traceeeb0b8" style="stroke-miterlimit: 2; opacity: 1;"><g class="fills"/><g class="errorbars"/><g class="lines"><path class="js-line" d="M0,0.04L11.02,2.39L22.04,10.04L33.06,28.64L44.08,51.95L55.1,69.21L66.12,80.92L77.14,87.94L88.16,93.55L110.2,102.67L121.22,108.66L154.29,121.27L165.31,123.32L176.33,125.68L187.35,125.97L209.39,130.33L220.41,132.32L231.43,135.99L242.45,141.87L253.47,147.55L264.49,154.34L286.53,162.94L297.55,166.18L308.57,168.94L319.59,172.81L341.63,177.85L352.65,179.45L374.69,185.86L385.71,188.1L429.8,196.42L440.82,198.11L451.84,199.27L462.86,199.62L540,203.68" style="vector-effect: non-scaling-stroke; fill: none; stroke: rgb(255, 161, 90); stroke-opacity: 1; stroke-width: 2px; opacity: 1;"/></g><g class="points"/><g class="text"/></g><g class="trace scatter traced7f783" style="stroke-miterlimit: 2; opacity: 1;"><g class="fills"/><g class="errorbars"/><g class="lines"><path class="js-line" d="M0,0.05L11.02,2.41L22.04,10.05L33.06,29.04L44.08,54.92L55.1,73.93L66.12,86.93L77.14,93.44L88.16,98.02L99.18,103L110.2,105.3L121.22,109.81L132.24,113.23L143.27,117.96L154.29,121.83L165.31,123.14L176.33,126.19L187.35,126.49L198.37,129.7L209.39,131.52L220.41,137.7L242.45,152.58L253.47,156.8L286.53,167.86L297.55,171.21L341.63,181.62L352.65,183.18L374.69,188.67L385.71,191.26L440.82,201.19L451.84,202.09L473.88,202.97L484.9,203.75L506.94,205.02L517.96,205.69L540,206.47" style="vector-effect: non-scaling-stroke; fill: none; stroke: rgb(25, 211, 243); stroke-opacity: 1; stroke-width: 2px; opacity: 1;"/></g><g class="points"/><g class="text"/></g><g class="trace scatter trace1a7555" style="stroke-miterlimit: 2; opacity: 1;"><g class="fills"/><g class="errorbars"/><g class="lines"><path class="js-line" d="M0,0.02L11.02,2.42L22.04,10.22L33.06,29.35L44.08,55.26L55.1,73.64L66.12,85.89L77.14,92.47L88.16,97.02L99.18,101.75L110.2,104.33L121.22,108.88L132.24,111.96L154.29,120.58L165.31,122.6L176.33,126.09L187.35,126.23L198.37,129.24L209.39,129.29L231.43,134.41L242.45,136.43L275.51,145.07L286.53,149.41L308.57,160.57L319.59,167.51L341.63,175.19L352.65,177.32L374.69,183.72L385.71,186.76L407.76,191.24L418.78,193.04L440.82,196.94L451.84,197.97L484.9,199.43L495.92,200.74L506.94,200.81L517.96,201.8L540,202.47" style="vector-effect: non-scaling-stroke; fill: none; stroke: rgb(255, 102, 146); stroke-opacity: 1; stroke-width: 2px; opacity: 1;"/></g><g class="points"/><g class="text"/></g><g class="trace scatter tracee83f17" style="stroke-miterlimit: 2; opacity: 1;"><g class="fills"/><g class="errorbars"/><g class="lines"><path class="js-line" d="M0,0.08L11.02,2.41L22.04,9.72L33.06,27.88L44.08,51.84L55.1,70.44L66.12,82.71L77.14,89.95L88.16,95.25L99.18,100.75L110.2,103.75L121.22,108.6L132.24,110.19L143.27,113.88L154.29,118.94L165.31,121.27L176.33,125.46L187.35,128.46L198.37,133.84L209.39,137.93L220.41,142.99L242.45,152.44L253.47,156.19L286.53,166.62L297.55,169.3L308.57,170.95L319.59,174.25L330.61,175.66L341.63,178.1L352.65,179.52L363.67,182.92L385.71,187.73L396.73,189.54L407.76,192.31L418.78,193.87L451.84,198.32L462.86,198.88L484.9,200.14L495.92,201.34L506.94,201.14L517.96,201.85L540,202.66" style="vector-effect: non-scaling-stroke; fill: none; stroke: rgb(182, 232, 128); stroke-opacity: 1; stroke-width: 2px; opacity: 1;"/></g><g class="points"/><g class="text"/></g><g class="trace scatter trace552ef8" style="stroke-miterlimit: 2; opacity: 1;"><g class="fills"/><g class="errorbars"/><g class="lines"><path class="js-line" d="M0,0.05L11.02,2.4L22.04,9.89L33.06,28.32L44.08,54.12L55.1,73.56L66.12,85.48L77.14,91.32L88.16,96.16L99.18,100.98L110.2,103.7L121.22,108.28L132.24,110.97L143.27,113.99L154.29,119.06L165.31,123.3L176.33,129.5L220.41,147.17L231.43,150.84L253.47,158.81L264.49,162.02L297.55,171.97L308.57,172.99L319.59,176.9L330.61,178.86L352.65,182.87L363.67,186.42L407.76,195.17L418.78,196.46L440.82,200.21L451.84,201.09L462.86,201.17L473.88,202.22L528.98,204.91L540,205.23" style="vector-effect: non-scaling-stroke; fill: none; stroke: rgb(255, 151, 255); stroke-opacity: 1; stroke-width: 2px; opacity: 1;"/></g><g class="points"/><g class="text"/></g><g class="trace scatter tracea85d1c" style="stroke-miterlimit: 2; opacity: 1;"><g class="fills"/><g class="errorbars"/><g class="lines"><path class="js-line" d="M0,0.06L11.02,2.27L22.04,10L33.06,30.13L44.08,55.03L55.1,72.55L66.12,84.11L77.14,90.66L88.16,95.7L99.18,100.99L110.2,104.12L121.22,111.06L132.24,115.58L143.27,119.22L154.29,122.04L165.31,123.27L176.33,125.27L187.35,125.86L198.37,128.95L209.39,131.35L220.41,137.76L242.45,149.59L253.47,153.12L286.53,163.7L297.55,166.73L308.57,168.2L319.59,172.2L341.63,176.2L352.65,177.54L363.67,180.97L374.69,183.01L396.73,187.66L407.76,189.89L451.84,196.25L462.86,196.47L506.94,199.12L517.96,199.83L540,200.66" style="vector-effect: non-scaling-stroke; fill: none; stroke: rgb(254, 203, 82); stroke-opacity: 1; stroke-width: 2px; opacity: 1;"/></g><g class="points"/><g class="text"/></g><g class="trace scatter trace3c0209" style="stroke-miterlimit: 2; opacity: 1;"><g class="fills"/><g class="errorbars"/><g class="lines"><path class="js-line" d="M0,0.06L11.02,2.34L22.04,10.26L33.06,30.11L44.08,56.09L55.1,73.9L66.12,85.55L77.14,91.75L88.16,96.21L99.18,101.06L110.2,104.58L121.22,110.06L132.24,114.64L154.29,129.89L165.31,134.45L176.33,139.43L187.35,143.52L198.37,146.91L209.39,148.98L220.41,151.85L231.43,155.56L242.45,159.21L253.47,161.2L286.53,169.97L297.55,172.96L308.57,174.79L319.59,177.98L330.61,180.53L341.63,182.02L363.67,186.54L374.69,189L396.73,193.75L407.76,195.83L429.8,199.95L440.82,201.32L451.84,202.29L462.86,202.29L506.94,205.42L517.96,205.95L540,206.36" style="vector-effect: non-scaling-stroke; fill: none; stroke: rgb(99, 110, 250); stroke-opacity: 1; stroke-width: 2px; opacity: 1;"/></g><g class="points"/><g class="text"/></g><g class="trace scatter tracec8c58c" style="stroke-miterlimit: 2; opacity: 1;"><g class="fills"/><g class="errorbars"/><g class="lines"><path class="js-line" d="M0,0.03L11.02,2.46L22.04,10.7L33.06,30.3L44.08,55.73L55.1,73.43L66.12,84.74L77.14,91.02L88.16,95.14L132.24,113.01L143.27,117.17L154.29,120.18L165.31,121.84L176.33,123.56L187.35,124.39L209.39,128.21L220.41,131.46L231.43,135.57L242.45,142.41L253.47,148.67L264.49,152.75L286.53,161.3L297.55,164.11L330.61,172.82L341.63,175.13L352.65,176.16L363.67,179.28L385.71,184.85L396.73,186.8L429.8,192.83L440.82,194.23L451.84,195.45L462.86,195.77L495.92,197.8L506.94,198.37L540,199.91" style="vector-effect: non-scaling-stroke; fill: none; stroke: rgb(239, 85, 59); stroke-opacity: 1; stroke-width: 2px; opacity: 1;"/></g><g class="points"/><g class="text"/></g><g class="trace scatter trace1ddf82" style="stroke-miterlimit: 2; opacity: 1;"><g class="fills"/><g class="errorbars"/><g class="lines"><path class="js-line" d="M0,0.02L11.02,2.42L22.04,10.57L33.06,30.48L44.08,55.18L55.1,72.76L66.12,85.13L77.14,91.1L88.16,95.37L110.2,103.27L121.22,108.57L154.29,122.66L165.31,124.66L176.33,126.86L187.35,127.43L198.37,130.39L209.39,131.53L231.43,138.4L242.45,144.9L297.55,167.18L308.57,169.41L330.61,176.38L341.63,177.62L363.67,182.84L374.69,185.41L385.71,188.36L396.73,190.37L429.8,196.9L440.82,198.02L462.86,199.67L473.88,200.04L495.92,201.86L506.94,202.16L540,203.57" style="vector-effect: non-scaling-stroke; fill: none; stroke: rgb(0, 204, 150); stroke-opacity: 1; stroke-width: 2px; opacity: 1;"/></g><g class="points"/><g class="text"/></g><g class="trace scatter tracecd6997" style="stroke-miterlimit: 2; opacity: 1;"><g class="fills"/><g class="errorbars"/><g class="lines"><path class="js-line" d="M0,0.03L11.02,2.28L22.04,9.88L33.06,29.03L44.08,56.05L55.1,75.35L66.12,87.71L77.14,93.89L88.16,98.37L99.18,103.16L110.2,105.63L121.22,109.17L132.24,111.44L154.29,119.42L165.31,121.58L176.33,124.39L187.35,125L198.37,128.41L209.39,128.39L220.41,131.95L231.43,133.59L264.49,146.47L275.51,154.94L286.53,162.01L297.55,166.86L308.57,170.14L319.59,174.77L330.61,176.55L341.63,179.34L352.65,181.15L363.67,184.82L407.76,194.02L418.78,195.98L440.82,199.55L451.84,200.68L462.86,200.72L473.88,201.64L528.98,204.71L540,205.26" style="vector-effect: non-scaling-stroke; fill: none; stroke: rgb(171, 99, 250); stroke-opacity: 1; stroke-width: 2px; opacity: 1;"/></g><g class="points"/><g class="text"/></g><g class="trace scatter trace1ad62d" style="stroke-miterlimit: 2; opacity: 1;"><g class="fills"/><g class="errorbars"/><g class="lines"><path class="js-line" d="M0,0.04L11.02,2.49L22.04,10.44L33.06,29.68L44.08,53.4L55.1,70.43L66.12,82.86L77.14,89.55L88.16,93.79L99.18,98.7L110.2,102.45L121.22,108.24L132.24,111.61L143.27,115.91L154.29,118.61L176.33,122.79L187.35,123.78L198.37,126.03L209.39,126.96L220.41,129.85L231.43,131.07L253.47,136.46L264.49,138.84L297.55,146.36L308.57,147.4L319.59,151.21L330.61,153.83L352.65,159.29L363.67,163.74L385.71,172.26L396.73,174.92L429.8,182.98L440.82,184.53L451.84,185.86L462.86,186.16L495.92,189.3L506.94,189.71L540,191.43" style="vector-effect: non-scaling-stroke; fill: none; stroke: rgb(255, 161, 90); stroke-opacity: 1; stroke-width: 2px; opacity: 1;"/></g><g class="points"/><g class="text"/></g><g class="trace scatter trace8f0926" style="stroke-miterlimit: 2; opacity: 1;"><g class="fills"/><g class="errorbars"/><g class="lines"><path class="js-line" d="M0,0.08L11.02,2.36L22.04,9.97L33.06,28L44.08,53.79L55.1,73.34L66.12,85.91L77.14,91.92L88.16,96.63L99.18,101.56L110.2,104.33L121.22,108.12L132.24,109.8L154.29,115.36L165.31,118.43L176.33,122.89L187.35,124.39L198.37,127.13L209.39,128.64L220.41,131.6L231.43,136.13L242.45,141.83L253.47,145.84L286.53,157.93L297.55,160.76L308.57,163.54L319.59,167.71L330.61,169.02L341.63,171.46L352.65,173.26L363.67,176.41L385.71,182.14L396.73,183.94L407.76,186.24L418.78,187.77L440.82,191.52L451.84,192.48L473.88,193.43L484.9,194.26L506.94,195.56L517.96,196.16L540,196.83" style="vector-effect: non-scaling-stroke; fill: none; stroke: rgb(25, 211, 243); stroke-opacity: 1; stroke-width: 2px; opacity: 1;"/></g><g class="points"/><g class="text"/></g><g class="trace scatter trace9481e4" style="stroke-miterlimit: 2; opacity: 1;"><g class="fills"/><g class="errorbars"/><g class="lines"><path class="js-line" d="M0,0.03L11.02,2.47L22.04,10.86L33.06,30.39L44.08,54.98L55.1,71.29L66.12,83.75L77.14,91.15L88.16,96L99.18,100.58L110.2,103.67L143.27,116.81L154.29,123.32L165.31,128.53L176.33,132.8L187.35,137.13L198.37,140.65L220.41,147.44L231.43,151.45L242.45,156.1L253.47,157.87L286.53,166.86L297.55,169.42L319.59,173.64L330.61,176.47L341.63,178.32L352.65,179.32L363.67,182.48L374.69,184.84L396.73,189.9L407.76,191.34L429.8,195.48L440.82,196.84L495.92,200.44L506.94,200.67L528.98,201.79L540,202.23" style="vector-effect: non-scaling-stroke; fill: none; stroke: rgb(255, 102, 146); stroke-opacity: 1; stroke-width: 2px; opacity: 1;"/></g><g class="points"/><g class="text"/></g><g class="trace scatter traced69db5" style="stroke-miterlimit: 2; opacity: 1;"><g class="fills"/><g class="errorbars"/><g class="lines"><path class="js-line" d="M0,0.03L11.02,2.37L22.04,9.94L33.06,28.32L44.08,52.52L55.1,71.79L66.12,84.44L77.14,90.35L88.16,94.92L99.18,99.99L110.2,103.25L121.22,108.25L132.24,110.69L154.29,119.68L165.31,120.95L176.33,125.26L187.35,125.65L198.37,127.61L209.39,127.91L220.41,131.22L231.43,133.1L242.45,136.05L253.47,137.67L275.51,142.17L286.53,145.48L308.57,149.82L319.59,153.06L352.65,161.38L363.67,165.41L385.71,172.37L396.73,175.08L418.78,179.56L429.8,181.75L451.84,184.33L462.86,184.66L495.92,187.52L506.94,187.8L540,189.32" style="vector-effect: non-scaling-stroke; fill: none; stroke: rgb(182, 232, 128); stroke-opacity: 1; stroke-width: 2px; opacity: 1;"/></g><g class="points"/><g class="text"/></g><g class="trace scatter traceee8d50" style="stroke-miterlimit: 2; opacity: 1;"><g class="fills"/><g class="errorbars"/><g class="lines"><path class="js-line" d="M0,0.04L11.02,2.36L22.04,10.19L33.06,31.55L44.08,55.55L55.1,70.78L66.12,81.23L77.14,87.59L88.16,92.07L99.18,97.75L110.2,101L121.22,107.33L132.24,111.51L154.29,119.62L165.31,122.34L187.35,133.21L198.37,139.25L231.43,150.33L242.45,155.33L253.47,157.26L264.49,160.37L275.51,163.84L286.53,166.49L297.55,169.66L308.57,170.88L319.59,174.27L330.61,176.83L352.65,180.76L363.67,183.83L385.71,189.49L396.73,191.46L440.82,198.99L451.84,200.04L484.9,201.94L495.92,202.94L517.96,203.65L528.98,204.19L540,204.67" style="vector-effect: non-scaling-stroke; fill: none; stroke: rgb(255, 151, 255); stroke-opacity: 1; stroke-width: 2px; opacity: 1;"/></g><g class="points"/><g class="text"/></g><g class="trace scatter trace72b0a6" style="stroke-miterlimit: 2; opacity: 1;"><g class="fills"/><g class="errorbars"/><g class="lines"><path class="js-line" d="M0,0.05L11.02,2.42L22.04,10.78L33.06,32.11L44.08,58.06L55.1,74.74L66.12,85.51L77.14,92.08L88.16,95.81L99.18,100.95L110.2,103.68L121.22,108.22L132.24,111.1L154.29,120.14L165.31,123.42L187.35,128.14L198.37,133.24L209.39,137.83L220.41,143.31L231.43,147.84L242.45,154.12L264.49,160.33L275.51,164.07L297.55,169.84L308.57,172.14L319.59,175.78L330.61,178.15L341.63,180.65L352.65,181.25L374.69,187.39L385.71,190.32L429.8,197.85L440.82,199.09L451.84,200.26L462.86,200.67L517.96,203.96L528.98,204.24L540,204.92" style="vector-effect: non-scaling-stroke; fill: none; stroke: rgb(254, 203, 82); stroke-opacity: 1; stroke-width: 2px; opacity: 1;"/></g><g class="points"/><g class="text"/></g></g></g><g class="overplot"/><path class="xlines-above crisp" d="M0,0" style="fill: none;"/><path class="ylines-above crisp" d="M0,0" style="fill: none;"/><g class="overlines-above"/><g class="xaxislayer-above"><g class="xtick"><text text-anchor="middle" x="0" y="433" transform="translate(80,0)" style="font-family: 'Open Sans', verdana, arial, sans-serif; font-size: 12px; fill: rgb(42, 63, 95); fill-opacity: 1; white-space: pre; opacity: 1;">0</text></g><g class="xtick"><text text-anchor="middle" x="0" y="433" style="font-family: 'Open Sans', verdana, arial, sans-serif; font-size: 12px; fill: rgb(42, 63, 95); fill-opacity: 1; white-space: pre; opacity: 1;" transform="translate(190.2,0)">10</text></g><g class="xtick"><text text-anchor="middle" x="0" y="433" style="font-family: 'Open Sans', verdana, arial, sans-serif; font-size: 12px; fill: rgb(42, 63, 95); fill-opacity: 1; white-space: pre; opacity: 1;" transform="translate(300.40999999999997,0)">20</text></g><g class="xtick"><text text-anchor="middle" x="0" y="433" style="font-family: 'Open Sans', verdana, arial, sans-serif; font-size: 12px; fill: rgb(42, 63, 95); fill-opacity: 1; white-space: pre; opacity: 1;" transform="translate(410.61,0)">30</text></g><g class="xtick"><text text-anchor="middle" x="0" y="433" style="font-family: 'Open Sans', verdana, arial, sans-serif; font-size: 12px; fill: rgb(42, 63, 95); fill-opacity: 1; white-space: pre; opacity: 1;" transform="translate(520.8199999999999,0)">40</text></g></g><g class="yaxislayer-above"><g class="ytick"><text text-anchor="end" x="79" y="4.199999999999999" transform="translate(0,393.21)" style="font-family: 'Open Sans', verdana, arial, sans-serif; font-size: 12px; fill: rgb(42, 63, 95); fill-opacity: 1; white-space: pre; opacity: 1;">2.5</text></g><g class="ytick"><text text-anchor="end" x="79" y="4.199999999999999" style="font-family: 'Open Sans', verdana, arial, sans-serif; font-size: 12px; fill: rgb(42, 63, 95); fill-opacity: 1; white-space: pre; opacity: 1;" transform="translate(0,345.28)">3</text></g><g class="ytick"><text text-anchor="end" x="79" y="4.199999999999999" style="font-family: 'Open Sans', verdana, arial, sans-serif; font-size: 12px; fill: rgb(42, 63, 95); fill-opacity: 1; white-space: pre; opacity: 1;" transform="translate(0,297.35)">3.5</text></g><g class="ytick"><text text-anchor="end" x="79" y="4.199999999999999" style="font-family: 'Open Sans', verdana, arial, sans-serif; font-size: 12px; fill: rgb(42, 63, 95); fill-opacity: 1; white-space: pre; opacity: 1;" transform="translate(0,249.42)">4</text></g><g class="ytick"><text text-anchor="end" x="79" y="4.199999999999999" style="font-family: 'Open Sans', verdana, arial, sans-serif; font-size: 12px; fill: rgb(42, 63, 95); fill-opacity: 1; white-space: pre; opacity: 1;" transform="translate(0,201.49)">4.5</text></g><g class="ytick"><text text-anchor="end" x="79" y="4.199999999999999" style="font-family: 'Open Sans', verdana, arial, sans-serif; font-size: 12px; fill: rgb(42, 63, 95); fill-opacity: 1; white-space: pre; opacity: 1;" transform="translate(0,153.56)">5</text></g><g class="ytick"><text text-anchor="end" x="79" y="4.199999999999999" style="font-family: 'Open Sans', verdana, arial, sans-serif; font-size: 12px; fill: rgb(42, 63, 95); fill-opacity: 1; white-space: pre; opacity: 1;" transform="translate(0,105.64)">5.5</text></g></g><g class="overaxes-above"/></g></g><g class="polarlayer"/><g class="ternarylayer"/><g class="geolayer"/><g class="funnelarealayer"/><g class="pielayer"/><g class="iciclelayer"/><g class="treemaplayer"/><g class="sunburstlayer"/><g class="glimages"/><defs id="topdefs-778d9c"><g class="clips"/></defs><g class="layer-above"><g class="imagelayer"/><g class="shapelayer"/></g><g class="infolayer"><g class="g-gtitle"><text class="gtitle" x="35" y="50" text-anchor="start" dy="0em" style="font-family: 'Open Sans', verdana, arial, sans-serif; font-size: 17px; fill: rgb(42, 63, 95); opacity: 1; font-weight: normal; white-space: pre;">Train Loss: aes_rd-simplified_eff_cnn (with early stopping)</text></g><g class="g-xtitle"/><g class="g-ytitle"/></g></svg>