<svg class="main-svg" xmlns="http://www.w3.org/2000/svg" xmlns:xlink="http://www.w3.org/1999/xlink" width="700" height="500" style="" viewBox="0 0 700 500"><rect x="0" y="0" width="700" height="500" style="fill: rgb(255, 255, 255); fill-opacity: 1;"/><defs id="defs-c4e28d"><g class="clips"><clipPath id="clipc4e28dxyplot" class="plotclip"><rect width="540" height="320"/></clipPath><clipPath class="axesclip" id="clipc4e28dx"><rect x="80" y="0" width="540" height="500"/></clipPath><clipPath class="axesclip" id="clipc4e28dy"><rect x="0" y="100" width="700" height="320"/></clipPath><clipPath class="axesclip" id="clipc4e28dxy"><rect x="80" y="100" width="540" height="320"/></clipPath></g><g class="gradients"/><g class="patterns"/></defs><g class="bglayer"><rect class="bg" x="80" y="100" width="540" height="320" style="fill: rgb(229, 236, 246); fill-opacity: 1; stroke-width: 0;"/></g><g class="layer-below"><g class="imagelayer"/><g class="shapelayer"/></g><g class="cartesianlayer"><g class="subplot xy"><g class="layer-subplot"><g class="shapelayer"/><g class="imagelayer"/></g><g class="gridlayer"><g class="x"><path class="xgrid crisp" transform="translate(190.2,0)" d="M0,100v320" style="stroke: rgb(255, 255, 255); stroke-opacity: 1; stroke-width: 1px;"/><path class="xgrid crisp" transform="translate(300.40999999999997,0)" d="M0,100v320" style="stroke: rgb(255, 255, 255); stroke-opacity: 1; stroke-width: 1px;"/><path class="xgrid crisp" transform="translate(410.61,0)" d="M0,100v320" style="stroke: rgb(255, 255, 255); stroke-opacity: 1; stroke-width: 1px;"/><path class="xgrid crisp" transform="translate(520.8199999999999,0)" d="M0,100v320" style="stroke: rgb(255, 255, 255); stroke-opacity: 1; stroke-width: 1px;"/></g><g class="y"><path class="ygrid crisp" transform="translate(0,393.21)" d="M80,0h540" style="stroke: rgb(255, 255, 255); stroke-opacity: 1; stroke-width: 1px;"/><path class="ygrid crisp" transform="translate(0,345.27)" d="M80,0h540" style="stroke: rgb(255, 255, 255); stroke-opacity: 1; stroke-width: 1px;"/><path class="ygrid crisp" transform="translate(0,297.33000000000004)" d="M80,0h540" style="stroke: rgb(255, 255, 255); stroke-opacity: 1; stroke-width: 1px;"/><path class="ygrid crisp" transform="translate(0,249.39)" d="M80,0h540" style="stroke: rgb(255, 255, 255); stroke-opacity: 1; stroke-width: 1px;"/><path class="ygrid crisp" transform="translate(0,201.45)" d="M80,0h540" style="stroke: rgb(255, 255, 255); stroke-opacity: 1; stroke-width: 1px;"/><path class="ygrid crisp" transform="translate(0,153.52)" d="M80,0h540" style="stroke: rgb(255, 255, 255); stroke-opacity: 1; stroke-width: 1px;"/><path class="ygrid crisp" transform="translate(0,105.58)" d="M80,0h540" style="stroke: rgb(255, 255, 255); stroke-opacity: 1; stroke-width: 1px;"/></g></g><g class="zerolinelayer"><path class="xzl zl crisp" transform="translate(80,0)" d="M0,100v320" style="stroke: rgb(255, 255, 255); stroke-opacity: 1; stroke-width: 2px;"/></g><path class="xlines-below"/><path class="ylines-below"/><g class="overlines-below"/><g class="xaxislayer-below"/><g class="yaxislayer-below"/><g class="overaxes-below"/><g class="plot" transform="translate(80,100)" clip-path="url(#clipc4e28dxyplot)"><g class="scatterlayer mlayer"><g class="trace scatter trace07375c" style="stroke-miterlimit: 2; opacity: 1;"><g class="fills"/><g class="errorbars"/><g class="lines"><path class="js-line" d="M0,0.14L11.02,2.2L22.04,10.78L33.06,26.29L44.08,43.73L55.1,62.02L66.12,75.42L88.16,90.27L99.18,95.37L110.2,100.21L121.22,103.15L132.24,106.73L143.27,108.99L154.29,111.59L165.31,116.2L176.33,119.2L187.35,124.07L209.39,131.83L220.41,133.91L231.43,140.73L242.45,143.63L253.47,148.88L264.49,152.44L286.53,159.91L297.55,162.63L308.57,164.79L319.59,168.96L330.61,171.59L341.63,173.15L363.67,178.73L374.69,180.21L396.73,185.67L407.76,187.11L429.8,192.65L440.82,193.54L484.9,196.32L495.92,196.95L540,199.48" style="vector-effect: non-scaling-stroke; fill: none; stroke: rgb(99, 110, 250); stroke-opacity: 1; stroke-width: 2px; opacity: 1;"/></g><g class="points"/><g class="text"/></g><g class="trace scatter trace71d0a8" style="stroke-miterlimit: 2; opacity: 1;"><g class="fills"/><g class="errorbars"/><g class="lines"><path class="js-line" d="M0,0.1L11.02,2.17L22.04,10.55L33.06,26.16L44.08,43.88L55.1,61.48L66.12,74.72L77.14,83.62L88.16,91.29L99.18,96.77L110.2,100.71L121.22,102.87L132.24,106.61L154.29,108.95L165.31,112.7L176.33,116.73L187.35,124.05L209.39,135.41L220.41,140.01L231.43,144.68L242.45,148.19L253.47,152.68L264.49,154.6L275.51,158.5L286.53,161.57L297.55,163.53L308.57,166.61L319.59,170.64L330.61,172.32L341.63,174.21L352.65,176.93L374.69,180.56L385.71,183.2L396.73,185.49L407.76,186.96L429.8,191.96L440.82,193.47L473.88,195.36L484.9,195.97L495.92,196.3L506.94,197.44L528.98,197.97L540,198.94" style="vector-effect: non-scaling-stroke; fill: none; stroke: rgb(239, 85, 59); stroke-opacity: 1; stroke-width: 2px; opacity: 1;"/></g><g class="points"/><g class="text"/></g><g class="trace scatter tracebb26af" style="stroke-miterlimit: 2; opacity: 1;"><g class="fills"/><g class="errorbars"/><g class="lines"><path class="js-line" d="M0,0.13L11.02,2.23L22.04,10.93L44.08,40.63L55.1,58.53L66.12,71.3L77.14,78.11L88.16,84.87L99.18,90.32L110.2,94.79L121.22,98.04L132.24,102.14L143.27,104.18L165.31,107.87L176.33,110.48L187.35,110.86L198.37,113.86L220.41,122.64L231.43,128.75L242.45,132.85L253.47,139.17L264.49,142.65L275.51,146.98L286.53,151.42L297.55,154.86L308.57,157.65L319.59,161.99L330.61,164.74L341.63,166.71L352.65,170.4L363.67,172.51L385.71,176.8L396.73,179.9L407.76,181.5L418.78,184.16L429.8,186.64L440.82,188.08L462.86,189.57L473.88,190.05L506.94,192.63L517.96,192.57L540,194.13" style="vector-effect: non-scaling-stroke; fill: none; stroke: rgb(0, 204, 150); stroke-opacity: 1; stroke-width: 2px; opacity: 1;"/></g><g class="points"/><g class="text"/></g><g class="trace scatter trace44bffb" style="stroke-miterlimit: 2; opacity: 1;"><g class="fills"/><g class="errorbars"/><g class="lines"><path class="js-line" d="M0,0.11L11.02,2.2L22.04,10.6L33.06,26.35L44.08,43.85L55.1,61.05L66.12,72.44L88.16,86.27L99.18,91.91L110.2,95.38L121.22,100.37L132.24,103.87L143.27,106.43L154.29,110.5L165.31,115.55L176.33,118.13L187.35,123.05L209.39,133.39L220.41,137.13L231.43,142.64L242.45,145.62L253.47,151.13L264.49,153.42L286.53,160.19L297.55,162.95L308.57,165.45L319.59,168.96L330.61,171.76L341.63,172.62L352.65,175.45L363.67,177.24L396.73,185.04L407.76,186.02L429.8,191.73L440.82,192.8L462.86,194.13L473.88,194.91L540,198.55" style="vector-effect: non-scaling-stroke; fill: none; stroke: rgb(171, 99, 250); stroke-opacity: 1; stroke-width: 2px; opacity: 1;"/></g><g class="points"/><g class="text"/></g><g class="trace scatter traceffed9d" style="stroke-miterlimit: 2; opacity: 1;"><g class="fills"/><g class="errorbars"/><g class="lines"><path class="js-line" d="M0,0.12L11.02,2.33L22.04,11.15L44.08,41.02L55.1,60.51L66.12,74.01L77.14,82.1L88.16,89.99L99.18,95.31L110.2,100.17L121.22,103.09L132.24,107.01L143.27,108.59L154.29,110.73L165.31,113.64L187.35,118.03L198.37,122.69L209.39,126.11L220.41,132.6L231.43,140.5L242.45,145.73L253.47,150.92L264.49,153.97L275.51,158.42L286.53,160.97L297.55,164.98L308.57,167.58L330.61,173.25L341.63,174.75L363.67,179.75L374.69,181.19L396.73,186.68L407.76,187.28L429.8,192.71L440.82,193.75L462.86,195.47L473.88,196.1L495.92,196.84L506.94,198.21L540,199.58" style="vector-effect: non-scaling-stroke; fill: none; stroke: rgb(255, 161, 90); stroke-opacity: 1; stroke-width: 2px; opacity: 1;"/></g><g class="points"/><g class="text"/></g><g class="trace scatter tracef856f6" style="stroke-miterlimit: 2; opacity: 1;"><g class="fills"/><g class="errorbars"/><g class="lines"><path class="js-line" d="M0,0.13L11.02,2.25L22.04,10.84L33.06,26.69L44.08,44.73L55.1,61.54L66.12,73.25L77.14,80.69L88.16,86.85L99.18,93.15L110.2,96.4L132.24,103.48L143.27,105.17L154.29,108.74L165.31,114.08L187.35,119.48L198.37,123.2L209.39,127.98L220.41,133.78L231.43,139.82L242.45,145L275.51,156.26L286.53,157.85L308.57,163.05L319.59,167L330.61,169.64L341.63,171.38L363.67,176.23L374.69,177.45L396.73,182.68L407.76,183.88L429.8,189.48L440.82,190.68L517.96,195.13L528.98,195.81L540,196.53" style="vector-effect: non-scaling-stroke; fill: none; stroke: rgb(25, 211, 243); stroke-opacity: 1; stroke-width: 2px; opacity: 1;"/></g><g class="points"/><g class="text"/></g><g class="trace scatter trace090424" style="stroke-miterlimit: 2; opacity: 1;"><g class="fills"/><g class="errorbars"/><g class="lines"><path class="js-line" d="M0,0.12L11.02,2.21L22.04,10.19L44.08,39.87L55.1,58.92L66.12,72.07L77.14,80.97L88.16,88.85L99.18,94.68L110.2,99.77L121.22,102.75L132.24,106.66L143.27,108.85L154.29,111.34L165.31,114.73L187.35,124.4L198.37,128.46L209.39,135.45L220.41,140.18L231.43,145.3L242.45,149.24L275.51,159.17L286.53,161.42L297.55,165.2L308.57,167.29L330.61,172.73L341.63,174.21L352.65,177.57L363.67,179.23L374.69,179.8L385.71,183.47L396.73,186.19L407.76,186.96L429.8,192.26L440.82,193.3L462.86,194.96L473.88,195.27L517.96,197.87L528.98,198.44L540,199.17" style="vector-effect: non-scaling-stroke; fill: none; stroke: rgb(255, 102, 146); stroke-opacity: 1; stroke-width: 2px; opacity: 1;"/></g><g class="points"/><g class="text"/></g><g class="trace scatter trace640bea" style="stroke-miterlimit: 2; opacity: 1;"><g class="fills"/><g class="errorbars"/><g class="lines"><path class="js-line" d="M0,0.14L11.02,2.32L22.04,10.65L44.08,39.99L55.1,56.55L66.12,71.78L77.14,79.86L88.16,88.59L99.18,94.05L110.2,99.25L121.22,102.25L154.29,110.45L165.31,114.93L187.35,119.84L198.37,121L209.39,124.76L220.41,127.37L231.43,132.77L242.45,136.48L264.49,147.83L275.51,151.8L286.53,155L297.55,159.38L319.59,165.89L330.61,169.12L341.63,171.06L352.65,174.38L385.71,181.3L396.73,184.28L407.76,185.13L418.78,188.31L429.8,190.9L440.82,192.45L484.9,195.22L495.92,195.76L506.94,196.8L517.96,196.63L540,198.34" style="vector-effect: non-scaling-stroke; fill: none; stroke: rgb(182, 232, 128); stroke-opacity: 1; stroke-width: 2px; opacity: 1;"/></g><g class="points"/><g class="text"/></g><g class="trace scatter trace92aa0d" style="stroke-miterlimit: 2; opacity: 1;"><g class="fills"/><g class="errorbars"/><g class="lines"><path class="js-line" d="M0,0.1L11.02,2.26L22.04,10.73L44.08,42.67L55.1,62.06L66.12,75.38L77.14,83.72L88.16,91.02L99.18,95.93L110.2,101.13L121.22,104.41L132.24,108.45L143.27,110.55L154.29,111.92L165.31,114.88L176.33,118.44L187.35,120.82L209.39,125L220.41,128.56L231.43,133.06L242.45,138.56L253.47,145.66L264.49,149.73L286.53,158.68L297.55,162.41L308.57,164.12L319.59,168.66L330.61,171.11L341.63,172.38L363.67,178.46L374.69,180.02L396.73,185.41L407.76,186.78L429.8,191.78L440.82,193.24L473.88,195.37L484.9,195.83L540,199.04" style="vector-effect: non-scaling-stroke; fill: none; stroke: rgb(255, 151, 255); stroke-opacity: 1; stroke-width: 2px; opacity: 1;"/></g><g class="points"/><g class="text"/></g><g class="trace scatter trace876b55" style="stroke-miterlimit: 2; opacity: 1;"><g class="fills"/><g class="errorbars"/><g class="lines"><path class="js-line" d="M0,0.14L11.02,2.32L22.04,10.72L33.06,26.41L44.08,43.84L55.1,59.87L66.12,71.4L77.14,79.85L88.16,86.68L99.18,93.12L110.2,97.17L132.24,103.91L143.27,105.29L154.29,107.49L165.31,110.72L176.33,115.53L187.35,118.28L198.37,120.4L209.39,124.75L220.41,129.77L231.43,135.92L242.45,141.69L253.47,146.19L297.55,159.68L308.57,162.39L330.61,169.38L341.63,170.64L352.65,173.66L363.67,175.65L374.69,177.27L385.71,180.47L396.73,183.18L407.76,184.08L429.8,189.58L440.82,190.92L462.86,192.44L473.88,193.13L506.94,195.43L517.96,195.41L540,196.89" style="vector-effect: non-scaling-stroke; fill: none; stroke: rgb(254, 203, 82); stroke-opacity: 1; stroke-width: 2px; opacity: 1;"/></g><g class="points"/><g class="text"/></g><g class="trace scatter trace79afee" style="stroke-miterlimit: 2; opacity: 1;"><g class="fills"/><g class="errorbars"/><g class="lines"><path class="js-line" d="M0,0.1L11.02,2.26L22.04,10.85L33.06,27.02L44.08,45.34L55.1,62.22L66.12,73.98L88.16,88.95L99.18,94.67L110.2,99.11L121.22,102.36L132.24,106.08L143.27,110.66L154.29,113.36L165.31,118.66L198.37,133.43L209.39,136.28L242.45,147.85L253.47,152.41L264.49,155.83L275.51,158.32L286.53,162.51L297.55,165.46L330.61,174.81L341.63,177.02L363.67,182.03L374.69,183.71L385.71,187.07L396.73,189.61L407.76,190.51L418.78,193.18L429.8,195.78L440.82,197.24L506.94,201.75L517.96,201.87L540,203.15" style="vector-effect: non-scaling-stroke; fill: none; stroke: rgb(99, 110, 250); stroke-opacity: 1; stroke-width: 2px; opacity: 1;"/></g><g class="points"/><g class="text"/></g><g class="trace scatter trace1dfc71" style="stroke-miterlimit: 2; opacity: 1;"><g class="fills"/><g class="errorbars"/><g class="lines"><path class="js-line" d="M0,0.11L11.02,2.2L22.04,10.6L33.06,26.35L44.08,43.85L55.1,61.05L66.12,72.44L88.16,86.27L99.18,91.91L110.2,95.38L121.22,100.37L132.24,103.87L143.27,106.43L154.29,110.5L165.31,115.55L176.33,118.13L187.35,123.05L209.39,133.39L220.41,137.13L231.43,142.64L242.45,145.62L253.47,151.13L264.49,153.42L286.53,160.19L297.55,162.95L308.57,165.45L319.59,168.96L330.61,171.76L341.63,172.62L352.65,175.45L363.67,177.24L396.73,185.04L407.76,186.02L429.8,191.73L440.82,192.8L462.86,194.13L473.88,194.91L540,198.55" style="vector-effect: non-scaling-stroke; fill: none; stroke: rgb(239, 85, 59); stroke-opacity: 1; stroke-width: 2px; opacity: 1;"/></g><g class="points"/><g class="text"/></g><g class="trace scatter trace3452b1" style="stroke-miterlimit: 2; opacity: 1;"><g class="fills"/><g class="errorbars"/><g class="lines"><path class="js-line" d="M0,0.11L11.02,2.18L22.04,10.49L33.06,25.89L44.08,43.61L55.1,61.58L66.12,75.49L88.16,90.73L99.18,95.27L121.22,103.32L132.24,106.3L143.27,109.1L154.29,114.19L165.31,121.45L176.33,126.88L187.35,131.86L198.37,135.65L209.39,139.85L220.41,141.49L231.43,146.21L242.45,149.61L253.47,153.03L264.49,154.48L297.55,163.25L308.57,165.01L319.59,168.73L330.61,170.99L341.63,172.31L352.65,175.75L374.69,178.49L385.71,181.62L396.73,184.31L407.76,185.39L429.8,190.56L440.82,191.62L473.88,194.03L484.9,194.24L540,197.63" style="vector-effect: non-scaling-stroke; fill: none; stroke: rgb(0, 204, 150); stroke-opacity: 1; stroke-width: 2px; opacity: 1;"/></g><g class="points"/><g class="text"/></g><g class="trace scatter tracecc7acd" style="stroke-miterlimit: 2; opacity: 1;"><g class="fills"/><g class="errorbars"/><g class="lines"><path class="js-line" d="M0,0.11L11.02,2.24L22.04,10.36L55.1,56.27L66.12,68.97L88.16,84.16L99.18,89.38L110.2,94.4L121.22,96.99L132.24,101.97L143.27,104.17L154.29,105.48L165.31,108.39L187.35,115.27L198.37,118.17L209.39,121.91L220.41,127.09L231.43,133.03L242.45,140.97L264.49,151.88L275.51,155.87L297.55,163.09L308.57,164.58L319.59,169.03L330.61,172.01L341.63,173.24L352.65,177.23L363.67,178.76L374.69,181.11L407.76,186.99L418.78,189.87L429.8,192.81L440.82,193.86L462.86,195.46L473.88,195.93L540,200.1" style="vector-effect: non-scaling-stroke; fill: none; stroke: rgb(171, 99, 250); stroke-opacity: 1; stroke-width: 2px; opacity: 1;"/></g><g class="points"/><g class="text"/></g><g class="trace scatter tracece4a16" style="stroke-miterlimit: 2; opacity: 1;"><g class="fills"/><g class="errorbars"/><g class="lines"><path class="js-line" d="M0,0.11L11.02,2.2L22.04,10.6L33.06,26.35L44.08,43.85L55.1,61.05L66.12,72.44L88.16,86.27L99.18,91.91L110.2,95.38L121.22,100.37L132.24,103.87L143.27,106.43L154.29,110.5L165.31,115.55L176.33,118.13L187.35,123.05L209.39,133.39L220.41,137.13L231.43,142.63L242.45,145.29L253.47,151.11L264.49,153.65L297.55,162.77L308.57,165.35L319.59,169.05L330.61,171.72L341.63,172.74L352.65,175.53L363.67,177.3L374.69,180.01L385.71,182.11L396.73,184.99L407.76,186.03L418.78,188.92L429.8,191.8L440.82,192.87L462.86,194.17L473.88,194.95L540,198.56" style="vector-effect: non-scaling-stroke; fill: none; stroke: rgb(255, 161, 90); stroke-opacity: 1; stroke-width: 2px; opacity: 1;"/></g><g class="points"/><g class="text"/></g><g class="trace scatter trace9a83e7" style="stroke-miterlimit: 2; opacity: 1;"><g class="fills"/><g class="errorbars"/><g class="lines"><path class="js-line" d="M0,0.11L11.02,2.21L22.04,10.76L44.08,42.87L55.1,61.59L66.12,74.56L77.14,82.45L88.16,89.76L99.18,95.16L121.22,104.28L132.24,108.52L154.29,118.23L165.31,126.4L176.33,132.95L187.35,137.21L198.37,139.24L209.39,143.13L220.41,146.08L231.43,150.65L242.45,153.09L253.47,156.41L297.55,168.63L308.57,170.45L319.59,174.37L330.61,176.55L341.63,177.87L352.65,180.9L374.69,184.49L385.71,187.55L396.73,190.15L407.76,191.39L429.8,196.47L440.82,197.43L451.84,198.67L462.86,199.07L495.92,200.59L506.94,201.84L540,203.17" style="vector-effect: non-scaling-stroke; fill: none; stroke: rgb(25, 211, 243); stroke-opacity: 1; stroke-width: 2px; opacity: 1;"/></g><g class="points"/><g class="text"/></g><g class="trace scatter tracebacd05" style="stroke-miterlimit: 2; opacity: 1;"><g class="fills"/><g class="errorbars"/><g class="lines"><path class="js-line" d="M0,0.12L11.02,2.22L22.04,10.76L55.1,60.6L66.12,72.11L77.14,80.76L88.16,88.11L99.18,94.55L110.2,99.38L132.24,106.71L143.27,108.92L154.29,111.32L165.31,116.89L176.33,121.52L187.35,124.86L220.41,138.23L231.43,144.07L253.47,152.35L264.49,154.78L275.51,158.49L286.53,160.93L297.55,164.03L308.57,166.14L330.61,172.88L341.63,173.69L352.65,177.03L363.67,179L374.69,180.57L385.71,183.37L396.73,185.52L407.76,186.89L429.8,191.87L440.82,193.38L473.88,195.29L484.9,195.67L517.96,197.75L528.98,198.14L540,198.89" style="vector-effect: non-scaling-stroke; fill: none; stroke: rgb(255, 102, 146); stroke-opacity: 1; stroke-width: 2px; opacity: 1;"/></g><g class="points"/><g class="text"/></g><g class="trace scatter trace93f847" style="stroke-miterlimit: 2; opacity: 1;"><g class="fills"/><g class="errorbars"/><g class="lines"><path class="js-line" d="M0,0.12L11.02,2.18L22.04,10.75L33.06,26.8L44.08,44.33L55.1,60.53L66.12,72.44L77.14,80.27L88.16,86.81L99.18,92.6L110.2,96.24L121.22,99.74L132.24,104.04L143.27,105.95L154.29,109.13L165.31,115.15L176.33,118.22L187.35,121.88L198.37,123.46L220.41,136.25L231.43,141.97L275.51,157.42L286.53,159.34L297.55,163.09L308.57,165.08L330.61,171.45L341.63,172.11L352.65,175.16L363.67,177.43L374.69,178.97L385.71,182.1L418.78,187.96L429.8,190.66L451.84,193.01L462.86,193.53L495.92,195.26L506.94,196.68L528.98,197.07L540,197.95" style="vector-effect: non-scaling-stroke; fill: none; stroke: rgb(182, 232, 128); stroke-opacity: 1; stroke-width: 2px; opacity: 1;"/></g><g class="points"/><g class="text"/></g><g class="trace scatter tracedcde75" style="stroke-miterlimit: 2; opacity: 1;"><g class="fills"/><g class="errorbars"/><g class="lines"><path class="js-line" d="M0,0.11L11.02,2.2L22.04,10.6L33.06,26.35L44.08,43.85L55.1,61.05L66.12,72.44L88.16,86.27L99.18,91.91L110.2,95.38L121.22,100.37L132.24,103.87L143.27,106.43L154.29,110.5L165.31,115.55L176.33,118.13L187.35,123.05L209.39,133.39L220.41,137.13L231.43,142.64L242.45,145.62L253.47,151.13L264.49,153.42L286.53,160.19L297.55,162.95L308.57,165.45L319.59,168.96L330.61,171.76L341.63,172.62L352.65,175.45L363.67,177.24L396.73,185.04L407.76,186.02L429.8,191.73L440.82,192.8L462.86,194.13L473.88,194.91L540,198.55" style="vector-effect: non-scaling-stroke; fill: none; stroke: rgb(255, 151, 255); stroke-opacity: 1; stroke-width: 2px; opacity: 1;"/></g><g class="points"/><g class="text"/></g><g class="trace scatter trace344831" style="stroke-miterlimit: 2; opacity: 1;"><g class="fills"/><g class="errorbars"/><g class="lines"><path class="js-line" d="M0,0.11L11.02,2.2L22.04,10.6L33.06,26.35L44.08,43.85L55.1,61.05L66.12,72.44L88.16,86.27L99.18,91.91L110.2,95.38L121.22,100.37L132.24,103.87L143.27,106.43L154.29,110.5L165.31,115.55L176.33,118.13L187.35,123.05L209.39,133.39L220.41,137.13L231.43,142.64L242.45,145.62L253.47,151.13L264.49,153.42L286.53,160.19L297.55,162.95L308.57,165.45L319.59,168.96L330.61,171.76L341.63,172.62L352.65,175.45L363.67,177.24L396.73,185.04L407.76,186.02L429.8,191.73L440.82,192.8L462.86,194.13L473.88,194.91L540,198.55" style="vector-effect: non-scaling-stroke; fill: none; stroke: rgb(254, 203, 82); stroke-opacity: 1; stroke-width: 2px; opacity: 1;"/></g><g class="points"/><g class="text"/></g></g></g><g class="overplot"/><path class="xlines-above crisp" d="M0,0" style="fill: none;"/><path class="ylines-above crisp" d="M0,0" style="fill: none;"/><g class="overlines-above"/><g class="xaxislayer-above"><g class="xtick"><text text-anchor="middle" x="0" y="433" transform="translate(80,0)" style="font-family: 'Open Sans', verdana, arial, sans-serif; font-size: 12px; fill: rgb(42, 63, 95); fill-opacity: 1; white-space: pre; opacity: 1;">0</text></g><g class="xtick"><text text-anchor="middle" x="0" y="433" style="font-family: 'Open Sans', verdana, arial, sans-serif; font-size: 12px; fill: rgb(42, 63, 95); fill-opacity: 1; white-space: pre; opacity: 1;" transform="translate(190.2,0)">10</text></g><g class="xtick"><text text-anchor="middle" x="0" y="433" style="font-family: 'Open Sans', verdana, arial, sans-serif; font-size: 12px; fill: rgb(42, 63, 95); fill-opacity: 1; white-space: pre; opacity: 1;" transform="translate(300.40999999999997,0)">20</text></g><g class="xtick"><text text-anchor="middle" x="0" y="433" style="font-family: 'Open Sans', verdana, arial, sans-serif; font-size: 12px; fill: rgb(42, 63, 95); fill-opacity: 1; white-space: pre; opacity: 1;" transform="translate(410.61,0)">30</text></g><g class="xtick"><text text-anchor="middle" x="0" y="433" style="font-family: 'Open Sans', verdana, arial, sans-serif; font-size: 12px; fill: rgb(42, 63, 95); fill-opacity: 1; white-space: pre; opacity: 1;" transform="translate(520.8199999999999,0)">40</text></g></g><g class="yaxislayer-above"><g class="ytick"><text text-anchor="end" x="79" y="4.199999999999999" transform="translate(0,393.21)" style="font-family: 'Open Sans', verdana, arial, sans-serif; font-size: 12px; fill: rgb(42, 63, 95); fill-opacity: 1; white-space: pre; opacity: 1;">2.5</text></g><g class="ytick"><text text-anchor="end" x="79" y="4.199999999999999" style="font-family: 'Open Sans', verdana, arial, sans-serif; font-size: 12px; fill: rgb(42, 63, 95); fill-opacity: 1; white-space: pre; opacity: 1;" transform="translate(0,345.27)">3</text></g><g class="ytick"><text text-anchor="end" x="79" y="4.199999999999999" style="font-family: 'Open Sans', verdana, arial, sans-serif; font-size: 12px; fill: rgb(42, 63, 95); fill-opacity: 1; white-space: pre; opacity: 1;" transform="translate(0,297.33000000000004)">3.5</text></g><g class="ytick"><text text-anchor="end" x="79" y="4.199999999999999" style="font-family: 'Open Sans', verdana, arial, sans-serif; font-size: 12px; fill: rgb(42, 63, 95); fill-opacity: 1; white-space: pre; opacity: 1;" transform="translate(0,249.39)">4</text></g><g class="ytick"><text text-anchor="end" x="79" y="4.199999999999999" style="font-family: 'Open Sans', verdana, arial, sans-serif; font-size: 12px; fill: rgb(42, 63, 95); fill-opacity: 1; white-space: pre; opacity: 1;" transform="translate(0,201.45)">4.5</text></g><g class="ytick"><text text-anchor="end" x="79" y="4.199999999999999" style="font-family: 'Open Sans', verdana, arial, sans-serif; font-size: 12px; fill: rgb(42, 63, 95); fill-opacity: 1; white-space: pre; opacity: 1;" transform="translate(0,153.52)">5</text></g><g class="ytick"><text text-anchor="end" x="79" y="4.199999999999999" style="font-family: 'Open Sans', verdana, arial, sans-serif; font-size: 12px; fill: rgb(42, 63, 95); fill-opacity: 1; white-space: pre; opacity: 1;" transform="translate(0,105.58)">5.5</text></g></g><g class="overaxes-above"/></g></g><g class="polarlayer"/><g class="ternarylayer"/><g class="geolayer"/><g class="funnelarealayer"/><g class="pielayer"/><g class="iciclelayer"/><g class="treemaplayer"/><g class="sunburstlayer"/><g class="glimages"/><defs id="topdefs-c4e28d"><g class="clips"/></defs><g class="layer-above"><g class="imagelayer"/><g class="shapelayer"/></g><g class="infolayer"><g class="g-gtitle"><text class="gtitle" x="35" y="50" text-anchor="start" dy="0em" style="font-family: 'Open Sans', verdana, arial, sans-serif; font-size: 17px; fill: rgb(42, 63, 95); opacity: 1; font-weight: normal; white-space: pre;">Train Loss: aes_rd-simplified_eff_cnn (with early stopping)</text></g><g class="g-xtitle"/><g class="g-ytitle"/></g></svg>