<svg class="main-svg" xmlns="http://www.w3.org/2000/svg" xmlns:xlink="http://www.w3.org/1999/xlink" width="700" height="500" style="" viewBox="0 0 700 500"><rect x="0" y="0" width="700" height="500" style="fill: rgb(255, 255, 255); fill-opacity: 1;"/><defs id="defs-d037cc"><g class="clips"><clipPath id="clipd037ccxyplot" class="plotclip"><rect width="540" height="320"/></clipPath><clipPath class="axesclip" id="clipd037ccx"><rect x="80" y="0" width="540" height="500"/></clipPath><clipPath class="axesclip" id="clipd037ccy"><rect x="0" y="100" width="700" height="320"/></clipPath><clipPath class="axesclip" id="clipd037ccxy"><rect x="80" y="100" width="540" height="320"/></clipPath></g><g class="gradients"/><g class="patterns"/></defs><g class="bglayer"><rect class="bg" x="80" y="100" width="540" height="320" style="fill: rgb(229, 236, 246); fill-opacity: 1; stroke-width: 0;"/></g><g class="layer-below"><g class="imagelayer"/><g class="shapelayer"/></g><g class="cartesianlayer"><g class="subplot xy"><g class="layer-subplot"><g class="shapelayer"/><g class="imagelayer"/></g><g class="gridlayer"><g class="x"><path class="xgrid crisp" transform="translate(188.43,0)" d="M0,100v320" style="stroke: rgb(255, 255, 255); stroke-opacity: 1; stroke-width: 1px;"/><path class="xgrid crisp" transform="translate(296.87,0)" d="M0,100v320" style="stroke: rgb(255, 255, 255); stroke-opacity: 1; stroke-width: 1px;"/><path class="xgrid crisp" transform="translate(405.3,0)" d="M0,100v320" style="stroke: rgb(255, 255, 255); stroke-opacity: 1; stroke-width: 1px;"/><path class="xgrid crisp" transform="translate(513.73,0)" d="M0,100v320" style="stroke: rgb(255, 255, 255); stroke-opacity: 1; stroke-width: 1px;"/></g><g class="y"><path class="ygrid crisp" transform="translate(0,374.51)" d="M80,0h540" style="stroke: rgb(255, 255, 255); stroke-opacity: 1; stroke-width: 1px;"/><path class="ygrid crisp" transform="translate(0,329.01)" d="M80,0h540" style="stroke: rgb(255, 255, 255); stroke-opacity: 1; stroke-width: 1px;"/><path class="ygrid crisp" transform="translate(0,283.52)" d="M80,0h540" style="stroke: rgb(255, 255, 255); stroke-opacity: 1; stroke-width: 1px;"/><path class="ygrid crisp" transform="translate(0,238.02)" d="M80,0h540" style="stroke: rgb(255, 255, 255); stroke-opacity: 1; stroke-width: 1px;"/><path class="ygrid crisp" transform="translate(0,192.53)" d="M80,0h540" style="stroke: rgb(255, 255, 255); stroke-opacity: 1; stroke-width: 1px;"/><path class="ygrid crisp" transform="translate(0,147.04)" d="M80,0h540" style="stroke: rgb(255, 255, 255); stroke-opacity: 1; stroke-width: 1px;"/><path class="ygrid crisp" transform="translate(0,101.54)" d="M80,0h540" style="stroke: rgb(255, 255, 255); stroke-opacity: 1; stroke-width: 1px;"/></g></g><g class="zerolinelayer"><path class="xzl zl crisp" transform="translate(80,0)" d="M0,100v320" style="stroke: rgb(255, 255, 255); stroke-opacity: 1; stroke-width: 2px;"/><path class="yzl zl crisp" transform="translate(0,420)" d="M80,0h540" style="stroke: rgb(255, 255, 255); stroke-opacity: 1; stroke-width: 2px;"/></g><path class="xlines-below"/><path class="ylines-below"/><g class="overlines-below"/><g class="xaxislayer-below"/><g class="yaxislayer-below"/><g class="overaxes-below"/><g class="plot" transform="translate(80,100)" clip-path="url(#clipd037ccxyplot)"><g class="scatterlayer mlayer"><g class="trace scatter tracec17571" style="stroke-miterlimit: 2; opacity: 1;"><g class="fills"/><g class="errorbars"/><g class="lines"><path class="js-line" d="M0,46.91L2.17,84.11L4.34,93.04L6.51,56.78L8.67,39.77L10.84,44.78L13.01,60.33L15.18,68.53L17.35,44.38L19.52,61.45L21.69,60.43L23.86,78.72L26.02,80.32L28.19,100.99L30.36,100.28L32.53,103.93L34.7,109.43L36.87,115.16L39.04,128.48L43.37,106.13L45.54,110.98L47.71,113.64L49.88,105.36L54.22,108.69L56.39,112.16L58.55,111.87L60.72,105L62.89,108.05L65.06,103.54L67.23,106.01L69.4,104.64L71.57,107.3L73.73,105.59L80.24,102.43L82.41,95.96L86.75,80L88.92,82.93L91.08,76.07L93.25,64.79L97.59,73.85L99.76,61.02L101.93,52.03L104.1,49.69L106.27,42.42L108.43,44.73L110.6,44.37L112.77,48.43L114.94,44.48L117.11,45.21L119.28,46.72L121.45,42.8L123.61,42.29L125.78,37.82L127.95,42.45L130.12,49.4L132.29,51.04L134.46,50.05L136.63,43.79L138.8,50.79L143.13,65.45L145.3,67.77L147.47,59.56L149.64,63.53L151.81,70.71L153.98,67.13L156.14,64.93L158.31,61.34L160.48,67.29L162.65,58.83L164.82,49.86L166.99,46.43L171.33,50.68L173.49,56.1L175.66,57.54L177.83,56.97L180,57.36L182.17,53.41L186.51,60.23L188.67,53.56L190.84,47.53L193.01,43.81L195.18,50.38L197.35,48.91L199.52,48.17L201.69,51L210.36,57.56L212.53,55.22L214.7,58.83L216.87,59.19L221.2,52.56L223.37,59.81L225.54,56.83L227.71,59.04L229.88,58.45L232.05,64.53L234.22,60.75L236.39,60.73L240.72,54.04L242.89,57.39L245.06,61.33L247.23,59.61L249.4,64.04L251.57,65.96L253.73,62.83L255.9,65.22L258.07,68.28L260.24,74.84L264.58,71.81L266.75,72.83L271.08,75.8L273.25,73.62L275.42,71.38L277.59,78.88L281.93,82.08L284.1,79.4L286.27,80.97L288.43,79.87L290.6,81.5L292.77,79.27L294.94,84.19L297.11,78.33L301.45,73.94L303.61,71.31L305.78,73.64L307.95,79.9L310.12,74.65L312.29,74.37L314.46,71.55L316.63,72.21L318.8,73.44L320.96,79.16L323.13,80.98L325.3,72.74L327.47,70.42L329.64,72.24L331.81,71.7L333.98,73.98L336.14,77.33L338.31,77.04L340.48,77.24L342.65,73.72L344.82,75.11L346.99,79.15L353.49,74.52L355.66,64.01L357.83,62.95L360,63.38L362.17,67.91L364.34,67.23L366.51,70.16L368.67,69.59L370.84,75.92L373.01,76.77L377.35,73.39L379.52,68.96L381.69,71.82L383.86,69.28L386.02,63.14L388.19,67.53L390.36,62.97L392.53,66.86L399.04,65.43L401.2,62.97L403.37,57.62L405.54,54.89L407.71,54.37L409.88,51.68L412.05,49.55L414.22,49.35L416.39,53.25L418.55,53.01L422.89,53.25L425.06,58.6L427.23,59.66L429.4,59.27L431.57,55.6L433.73,55.01L438.07,52.48L440.24,53.04L442.41,54.89L444.58,50.51L446.75,48.5L448.92,52.27L451.08,51.55L453.25,53.61L455.42,50.5L457.59,52.64L461.93,48.76L464.1,46.06L466.27,44.75L468.43,49.11L470.6,51.49L472.77,48.85L477.11,43.05L479.28,37.73L481.45,43.21L483.61,44.93L485.78,43.91L487.95,45.28L490.12,45.6L492.29,43.83L496.63,46.84L498.8,41.09L500.96,38.97L503.13,40.28L507.47,40.08L509.64,36.15L513.98,40.3L516.14,43.67L518.31,46.74L520.48,42.68L522.65,45.38L524.82,45.5L526.99,45.79L529.16,44.34L531.33,47.74L533.49,43.55L535.66,45.97L537.83,45.63L540,41.79" style="vector-effect: non-scaling-stroke; fill: none; stroke: rgb(99, 110, 250); stroke-opacity: 1; stroke-width: 2px; opacity: 1;"/></g><g class="points"/><g class="text"/></g><g class="trace scatter trace0e00a7" style="stroke-miterlimit: 2; opacity: 1;"><g class="fills"/><g class="errorbars"/><g class="lines"><path class="js-line" d="M0,46.91L2.17,84.11L4.34,93.04L6.51,56.78L8.67,39.77L10.84,44.78L13.01,60.33L15.18,68.53L17.35,44.38L19.52,61.45L21.69,60.43L23.86,78.72L26.02,80.32L28.19,100.99L30.36,100.28L32.53,103.93L34.7,109.43L36.87,115.16L39.04,128.48L43.37,106.13L45.54,110.98L47.71,113.64L49.88,105.36L54.22,108.69L56.39,112.16L58.55,111.87L60.72,105L62.89,108.05L65.06,103.54L67.23,106.01L69.4,104.64L71.57,107.3L73.73,105.59L80.24,102.43L82.41,95.96L86.75,80L88.92,82.93L91.08,76.07L93.25,64.79L97.59,73.85L99.76,61.02L101.93,52.03L104.1,49.69L106.27,42.42L108.43,44.73L110.6,44.37L112.77,48.43L114.94,44.48L117.11,45.21L119.28,46.72L121.45,42.8L123.61,42.29L125.78,37.82L127.95,42.45L130.12,49.4L132.29,51.04L134.46,50.05L136.63,43.79L138.8,50.79L143.13,65.45L145.3,67.77L147.47,59.56L149.64,63.53L151.81,70.71L153.98,67.13L156.14,64.93L158.31,61.34L160.48,67.29L162.65,58.83L164.82,49.86L166.99,46.43L171.33,50.68L173.49,56.1L175.66,57.54L177.83,56.97L180,57.36L182.17,53.41L186.51,60.23L188.67,53.56L190.84,47.53L193.01,43.81L195.18,50.38L197.35,48.91L199.52,48.17L201.69,51L210.36,57.56L212.53,55.22L214.7,58.83L216.87,59.19L221.2,52.56L223.37,59.81L225.54,56.83L227.71,59.04L229.88,58.45L232.05,64.53L234.22,60.75L236.39,60.73L240.72,54.04L242.89,57.39L245.06,61.33L247.23,59.61L249.4,64.04L251.57,65.96L253.73,62.83L255.9,65.22L258.07,68.28L260.24,74.84L264.58,71.81L266.75,72.83L271.08,75.8L273.25,73.62L275.42,71.38L277.59,78.88L281.93,82.08L284.1,79.4L286.27,80.97L288.43,79.87L290.6,81.5L292.77,79.27L294.94,84.19L297.11,78.33L301.45,73.94L303.61,71.31L305.78,73.64L307.95,79.9L310.12,74.65L312.29,74.37L314.46,71.55L316.63,72.21L318.8,73.44L320.96,79.16L323.13,80.98L325.3,72.74L327.47,70.42L329.64,72.24L331.81,71.7L333.98,73.98L336.14,77.33L338.31,77.04L340.48,77.24L342.65,73.72L344.82,75.11L346.99,79.15L353.49,74.52L355.66,64.01L357.83,62.95L360,63.38L362.17,67.91L364.34,67.23L366.51,70.16L368.67,69.59L370.84,75.92L373.01,76.77L377.35,73.39L379.52,68.96L381.69,71.82L383.86,69.28L386.02,63.14L388.19,67.53L390.36,62.97L392.53,66.86L399.04,65.43L401.2,62.97L403.37,57.62L405.54,54.89L407.71,54.37L409.88,51.68L412.05,49.55L414.22,49.35L416.39,53.25L418.55,53.01L422.89,53.25L425.06,58.6L427.23,59.66L429.4,59.27L431.57,55.6L433.73,55.01L438.07,52.48L440.24,53.04L442.41,54.89L444.58,50.51L446.75,48.5L448.92,52.27L451.08,51.55L453.25,53.61L455.42,50.5L457.59,52.64L461.93,48.76L464.1,46.06L466.27,44.75L468.43,49.11L470.6,51.49L472.77,48.85L477.11,43.05L479.28,37.73L481.45,43.21L483.61,44.93L485.78,43.91L487.95,45.28L490.12,45.6L492.29,43.83L496.63,46.84L498.8,41.09L500.96,38.97L503.13,40.28L507.47,40.08L509.64,36.15L513.98,40.3L516.14,43.67L518.31,46.74L520.48,42.68L522.65,45.38L524.82,45.5L526.99,45.79L529.16,44.34L531.33,47.74L533.49,43.55L535.66,45.97L537.83,45.63L540,41.79" style="vector-effect: non-scaling-stroke; fill: none; stroke: rgb(239, 85, 59); stroke-opacity: 1; stroke-width: 2px; opacity: 1;"/></g><g class="points"/><g class="text"/></g><g class="trace scatter traced43e30" style="stroke-miterlimit: 2; opacity: 1;"><g class="fills"/><g class="errorbars"/><g class="lines"><path class="js-line" d="M0,113.57L2.17,62.08L4.34,63.01L6.51,72.09L8.67,93.47L10.84,84.3L13.01,92.28L15.18,88.6L17.35,82.37L19.52,102.37L21.69,111.71L23.86,109.45L26.02,110.78L28.19,95.66L30.36,102.73L32.53,100.47L34.7,86.44L36.87,69.84L39.04,73.76L41.2,75.73L43.37,84.06L45.54,83.93L47.71,90.43L49.88,91.36L52.05,82.62L54.22,92.21L56.39,85.95L58.55,89.6L60.72,82.83L62.89,81.55L65.06,81.54L71.57,77.57L73.73,89.72L75.9,84.84L78.07,83.61L80.24,92.08L82.41,87.31L84.58,85.9L86.75,76.99L91.08,72.83L93.25,75.86L95.42,76.4L97.59,76.04L99.76,74.25L101.93,73.99L108.43,80.69L110.6,72.82L112.77,71.69L114.94,61.83L117.11,54.74L119.28,63.24L121.45,59.38L123.61,53.46L125.78,56.88L127.95,52.55L130.12,56.94L132.29,55.55L134.46,58.59L136.63,55.57L138.8,54.12L140.96,46.25L143.13,45.99L145.3,43.93L147.47,44.8L149.64,38.75L151.81,38.61L153.98,37.51L156.14,39.34L158.31,34.22L160.48,31.8L162.65,26.16L164.82,31.33L166.99,24.86L169.16,23.75L171.33,17.5L173.49,21.36L175.66,21.7L177.83,26.41L180,28.9L182.17,28.67L184.34,25.67L186.51,26.59L188.67,28.83L190.84,29.04L193.01,33.03L195.18,36.93L197.35,37.61L199.52,39.92L201.69,49.31L206.02,38.59L208.19,40.55L210.36,37.93L212.53,32.26L216.87,39.02L219.04,39L221.2,42.16L223.37,43.15L225.54,41.03L227.71,36.41L232.05,42.63L234.22,40.88L236.39,41.1L238.55,43.88L240.72,40.84L242.89,33.66L245.06,30.74L247.23,26.32L249.4,24.34L251.57,27.23L255.9,31.31L258.07,32.93L262.41,27.81L264.58,30.77L268.92,33.8L271.08,27.91L273.25,31.42L275.42,26.8L277.59,28.74L279.76,28.18L281.93,26.19L284.1,27.72L286.27,23.9L288.43,24.52L290.6,22.42L292.77,23.1L294.94,24.12L297.11,22.55L301.45,22.81L303.61,26.72L305.78,27.45L307.95,25.19L312.29,25.72L314.46,23.54L316.63,22.11L318.8,23.22L320.96,26.36L323.13,21.72L325.3,21.46L327.47,25.39L329.64,21.31L331.81,20.78L336.14,23.48L338.31,27.03L340.48,29.11L342.65,26.7L344.82,30.07L346.99,31.72L349.16,33.97L351.33,32.76L353.49,29.58L355.66,27.98L357.83,25.77L360,27.38L364.34,24.45L366.51,30.5L368.67,31.41L370.84,30.28L373.01,27.07L375.18,29.4L377.35,34.68L379.52,36.05L381.69,34.59L383.86,40.4L386.02,42.08L388.19,42.09L390.36,39.61L392.53,43.92L394.7,42.15L396.87,43.41L403.37,38.48L405.54,35.59L409.88,44.98L412.05,46.42L418.55,41.18L420.72,41.1L422.89,43.27L425.06,40.53L427.23,40.44L429.4,43.73L431.57,45.81L433.73,48.96L435.9,48.01L438.07,45.59L440.24,49.37L442.41,50.22L444.58,52.44L446.75,51.71L451.08,56.57L453.25,55.4L455.42,52.15L457.59,53.76L459.76,51.97L461.93,52.07L464.1,54.37L466.27,51.23L468.43,53.69L470.6,52.4L472.77,54.22L474.94,57.76L477.11,55.06L479.28,50L481.45,51.52L483.61,54.52L487.95,45.03L490.12,49.52L492.29,50.62L494.46,48.29L496.63,45.57L498.8,46.13L500.96,45.82L503.13,48.04L505.3,44.41L507.47,44.4L511.81,45.74L513.98,42.63L516.14,39.47L518.31,38.26L520.48,38.61L522.65,41.5L524.82,42.86L526.99,43.04L531.33,45.66L533.49,45.79L535.66,46.79L537.83,43.51L540,41.14" style="vector-effect: non-scaling-stroke; fill: none; stroke: rgb(0, 204, 150); stroke-opacity: 1; stroke-width: 2px; opacity: 1;"/></g><g class="points"/><g class="text"/></g><g class="trace scatter trace803c5d" style="stroke-miterlimit: 2; opacity: 1;"><g class="fills"/><g class="errorbars"/><g class="lines"><path class="js-line" d="M0,113.57L2.17,62.08L4.34,63.01L6.51,72.09L8.67,93.47L10.84,84.3L13.01,92.28L15.18,88.6L17.35,82.37L19.52,102.37L21.69,111.71L23.86,109.45L26.02,110.78L28.19,95.66L30.36,102.73L32.53,100.47L34.7,86.44L36.87,69.84L39.04,73.76L41.2,75.73L43.37,84.06L45.54,83.93L47.71,90.43L49.88,91.36L52.05,82.62L54.22,92.21L56.39,85.95L58.55,89.6L60.72,82.83L62.89,81.55L65.06,81.54L71.57,77.57L73.73,89.72L75.9,84.84L78.07,83.61L80.24,92.08L82.41,87.31L84.58,85.9L86.75,76.99L91.08,72.83L93.25,75.86L95.42,76.4L97.59,76.04L99.76,74.25L101.93,73.99L108.43,80.69L110.6,72.82L112.77,71.69L114.94,61.83L117.11,54.74L119.28,63.24L121.45,59.38L123.61,53.46L125.78,56.88L127.95,52.55L130.12,56.94L132.29,55.55L134.46,58.59L136.63,55.57L138.8,54.12L140.96,46.25L143.13,45.99L145.3,43.93L147.47,44.8L149.64,38.75L151.81,38.61L153.98,37.51L156.14,39.34L158.31,34.22L160.48,31.8L162.65,26.16L164.82,31.33L166.99,24.86L169.16,23.75L171.33,17.5L173.49,21.36L175.66,21.7L177.83,26.41L180,28.9L182.17,28.67L184.34,25.67L186.51,26.59L188.67,28.83L190.84,29.04L193.01,33.03L195.18,36.93L197.35,37.61L199.52,39.92L201.69,49.31L206.02,38.59L208.19,40.55L210.36,37.93L212.53,32.26L216.87,39.02L219.04,39L221.2,42.16L223.37,43.15L225.54,41.03L227.71,36.41L232.05,42.63L234.22,40.88L236.39,41.1L238.55,43.88L240.72,40.84L242.89,33.66L245.06,30.74L247.23,26.32L249.4,24.34L251.57,27.23L255.9,31.31L258.07,32.93L262.41,27.81L264.58,30.77L268.92,33.8L271.08,27.91L273.25,31.42L275.42,26.8L277.59,28.74L279.76,28.18L281.93,26.19L284.1,27.72L286.27,23.9L288.43,24.52L290.6,22.42L292.77,23.1L294.94,24.12L297.11,22.55L301.45,22.81L303.61,26.72L305.78,27.45L307.95,25.19L312.29,25.72L314.46,23.54L316.63,22.11L318.8,23.22L320.96,26.36L323.13,21.72L325.3,21.46L327.47,25.39L329.64,21.31L331.81,20.78L336.14,23.48L338.31,27.03L340.48,29.11L342.65,26.7L344.82,30.07L346.99,31.72L349.16,33.97L351.33,32.76L353.49,29.58L355.66,27.98L357.83,25.77L360,27.38L364.34,24.45L366.51,30.5L368.67,31.41L370.84,30.28L373.01,27.07L375.18,29.4L377.35,34.68L379.52,36.05L381.69,34.59L383.86,40.4L386.02,42.08L388.19,42.09L390.36,39.61L392.53,43.92L394.7,42.15L396.87,43.41L403.37,38.48L405.54,35.59L409.88,44.98L412.05,46.42L418.55,41.18L420.72,41.1L422.89,43.27L425.06,40.53L427.23,40.44L429.4,43.73L431.57,45.81L433.73,48.96L435.9,48.01L438.07,45.59L440.24,49.37L442.41,50.22L444.58,52.44L446.75,51.71L451.08,56.57L453.25,55.4L455.42,52.15L457.59,53.76L459.76,51.97L461.93,52.07L464.1,54.37L466.27,51.23L468.43,53.69L470.6,52.4L472.77,54.22L474.94,57.76L477.11,55.06L479.28,50L481.45,51.52L483.61,54.52L487.95,45.03L490.12,49.52L492.29,50.62L494.46,48.29L496.63,45.57L498.8,46.13L500.96,45.82L503.13,48.04L505.3,44.41L507.47,44.4L511.81,45.74L513.98,42.63L516.14,39.47L518.31,38.26L520.48,38.61L522.65,41.5L524.82,42.86L526.99,43.04L531.33,45.66L533.49,45.79L535.66,46.79L537.83,43.51L540,41.14" style="vector-effect: non-scaling-stroke; fill: none; stroke: rgb(171, 99, 250); stroke-opacity: 1; stroke-width: 2px; opacity: 1;"/></g><g class="points"/><g class="text"/></g><g class="trace scatter trace008dd3" style="stroke-miterlimit: 2; opacity: 1;"><g class="fills"/><g class="errorbars"/><g class="lines"><path class="js-line" d="M0,113.57L2.17,62.08L4.34,63.01L6.51,72.09L8.67,93.47L10.84,84.3L13.01,92.28L15.18,88.6L17.35,82.37L19.52,102.37L21.69,111.71L23.86,109.45L26.02,110.78L28.19,95.66L30.36,102.73L32.53,100.47L34.7,86.44L36.87,69.84L39.04,73.76L41.2,75.73L43.37,84.06L45.54,83.93L47.71,90.43L49.88,91.36L52.05,82.62L54.22,92.21L56.39,85.95L58.55,89.6L60.72,82.83L62.89,81.55L65.06,81.54L71.57,77.57L73.73,89.72L75.9,84.84L78.07,83.61L80.24,92.08L82.41,87.31L84.58,85.9L86.75,76.99L91.08,72.83L93.25,75.86L95.42,76.4L97.59,76.04L99.76,74.25L101.93,73.99L108.43,80.69L110.6,72.82L112.77,71.69L114.94,61.83L117.11,54.74L119.28,63.24L121.45,59.38L123.61,53.46L125.78,56.88L127.95,52.55L130.12,56.94L132.29,55.55L134.46,58.59L136.63,55.57L138.8,54.12L140.96,46.25L143.13,45.99L145.3,43.93L147.47,44.8L149.64,38.75L151.81,38.61L153.98,37.51L156.14,39.34L158.31,34.22L160.48,31.8L162.65,26.16L164.82,31.33L166.99,24.86L169.16,23.75L171.33,17.5L173.49,21.36L175.66,21.7L177.83,26.41L180,28.9L182.17,28.67L184.34,25.67L186.51,26.59L188.67,28.83L190.84,29.04L193.01,33.03L195.18,36.93L197.35,37.61L199.52,39.92L201.69,49.31L206.02,38.59L208.19,40.55L210.36,37.93L212.53,32.26L216.87,39.02L219.04,39L221.2,42.16L223.37,43.15L225.54,41.03L227.71,36.41L232.05,42.63L234.22,40.88L236.39,41.1L238.55,43.88L240.72,40.84L242.89,33.66L245.06,30.74L247.23,26.32L249.4,24.34L251.57,27.23L255.9,31.31L258.07,32.93L262.41,27.81L264.58,30.77L268.92,33.8L271.08,27.91L273.25,31.42L275.42,26.8L277.59,28.74L279.76,28.18L281.93,26.19L284.1,27.72L286.27,23.9L288.43,24.52L290.6,22.42L292.77,23.1L294.94,24.12L297.11,22.55L301.45,22.81L303.61,26.72L305.78,27.45L307.95,25.19L312.29,25.72L314.46,23.54L316.63,22.11L318.8,23.22L320.96,26.36L323.13,21.72L325.3,21.46L327.47,25.39L329.64,21.31L331.81,20.78L336.14,23.48L338.31,27.03L340.48,29.11L342.65,26.7L344.82,30.07L346.99,31.72L349.16,33.97L351.33,32.76L353.49,29.58L355.66,27.98L357.83,25.77L360,27.38L364.34,24.45L366.51,30.5L368.67,31.41L370.84,30.28L373.01,27.07L375.18,29.4L377.35,34.68L379.52,36.05L381.69,34.59L383.86,40.4L386.02,42.08L388.19,42.09L390.36,39.61L392.53,43.92L394.7,42.15L396.87,43.41L403.37,38.48L405.54,35.59L409.88,44.98L412.05,46.42L418.55,41.18L420.72,41.1L422.89,43.27L425.06,40.53L427.23,40.44L429.4,43.73L431.57,45.81L433.73,48.96L435.9,48.01L438.07,45.59L440.24,49.37L442.41,50.22L444.58,52.44L446.75,51.71L451.08,56.57L453.25,55.4L455.42,52.15L457.59,53.76L459.76,51.97L461.93,52.07L464.1,54.37L466.27,51.23L468.43,53.69L470.6,52.4L472.77,54.22L474.94,57.76L477.11,55.06L479.28,50L481.45,51.52L483.61,54.52L487.95,45.03L490.12,49.52L492.29,50.62L494.46,48.29L496.63,45.57L498.8,46.13L500.96,45.82L503.13,48.04L505.3,44.41L507.47,44.4L511.81,45.74L513.98,42.63L516.14,39.47L518.31,38.26L520.48,38.61L522.65,41.5L524.82,42.86L526.99,43.04L531.33,45.66L533.49,45.79L535.66,46.79L537.83,43.51L540,41.14" style="vector-effect: non-scaling-stroke; fill: none; stroke: rgb(255, 161, 90); stroke-opacity: 1; stroke-width: 2px; opacity: 1;"/></g><g class="points"/><g class="text"/></g><g class="trace scatter tracecfae94" style="stroke-miterlimit: 2; opacity: 1;"><g class="fills"/><g class="errorbars"/><g class="lines"><path class="js-line" d="M0,46.91L2.17,84.11L4.34,93.04L6.51,56.78L8.67,39.77L10.84,44.78L13.01,60.33L15.18,68.53L17.35,44.38L19.52,61.45L21.69,60.43L23.86,78.72L26.02,80.32L28.19,100.99L30.36,100.28L32.53,103.93L34.7,109.43L36.87,115.16L39.04,128.48L43.37,106.13L45.54,110.98L47.71,113.64L49.88,105.36L54.22,108.69L56.39,112.16L58.55,111.87L60.72,105L62.89,108.05L65.06,103.54L67.23,106.01L69.4,104.64L71.57,107.3L73.73,105.59L80.24,102.43L82.41,95.96L86.75,80L88.92,82.93L91.08,76.07L93.25,64.79L97.59,73.85L99.76,61.02L101.93,52.03L104.1,49.69L106.27,42.42L108.43,44.73L110.6,44.37L112.77,48.43L114.94,44.48L117.11,45.21L119.28,46.72L121.45,42.8L123.61,42.29L125.78,37.82L127.95,42.45L130.12,49.4L132.29,51.04L134.46,50.05L136.63,43.79L138.8,50.79L143.13,65.45L145.3,67.77L147.47,59.56L149.64,63.53L151.81,70.71L153.98,67.13L156.14,64.93L158.31,61.34L160.48,67.29L162.65,58.83L164.82,49.86L166.99,46.43L171.33,50.68L173.49,56.1L175.66,57.54L177.83,56.97L180,57.36L182.17,53.41L186.51,60.23L188.67,53.56L190.84,47.53L193.01,43.81L195.18,50.38L197.35,48.91L199.52,48.17L201.69,51L210.36,57.56L212.53,55.22L214.7,58.83L216.87,59.19L221.2,52.56L223.37,59.81L225.54,56.83L227.71,59.04L229.88,58.45L232.05,64.53L234.22,60.75L236.39,60.73L240.72,54.04L242.89,57.39L245.06,61.33L247.23,59.61L249.4,64.04L251.57,65.96L253.73,62.83L255.9,65.22L258.07,68.28L260.24,74.84L264.58,71.81L266.75,72.83L271.08,75.8L273.25,73.62L275.42,71.38L277.59,78.88L281.93,82.08L284.1,79.4L286.27,80.97L288.43,79.87L290.6,81.5L292.77,79.27L294.94,84.19L297.11,78.33L301.45,73.94L303.61,71.31L305.78,73.64L307.95,79.9L310.12,74.65L312.29,74.37L314.46,71.55L316.63,72.21L318.8,73.44L320.96,79.16L323.13,80.98L325.3,72.74L327.47,70.42L329.64,72.24L331.81,71.7L333.98,73.98L336.14,77.33L338.31,77.04L340.48,77.24L342.65,73.72L344.82,75.11L346.99,79.15L353.49,74.52L355.66,64.01L357.83,62.95L360,63.38L362.17,67.91L364.34,67.23L366.51,70.16L368.67,69.59L370.84,75.92L373.01,76.77L377.35,73.39L379.52,68.96L381.69,71.82L383.86,69.28L386.02,63.14L388.19,67.53L390.36,62.97L392.53,66.86L399.04,65.43L401.2,62.97L403.37,57.62L405.54,54.89L407.71,54.37L409.88,51.68L412.05,49.55L414.22,49.35L416.39,53.25L418.55,53.01L422.89,53.25L425.06,58.6L427.23,59.66L429.4,59.27L431.57,55.6L433.73,55.01L438.07,52.48L440.24,53.04L442.41,54.89L444.58,50.51L446.75,48.5L448.92,52.27L451.08,51.55L453.25,53.61L455.42,50.5L457.59,52.64L461.93,48.76L464.1,46.06L466.27,44.75L468.43,49.11L470.6,51.49L472.77,48.85L477.11,43.05L479.28,37.73L481.45,43.21L483.61,44.93L485.78,43.91L487.95,45.28L490.12,45.6L492.29,43.83L496.63,46.84L498.8,41.09L500.96,38.97L503.13,40.28L507.47,40.08L509.64,36.15L513.98,40.3L516.14,43.67L518.31,46.74L520.48,42.68L522.65,45.38L524.82,45.5L526.99,45.79L529.16,44.34L531.33,47.74L533.49,43.55L535.66,45.97L537.83,45.63L540,41.79" style="vector-effect: non-scaling-stroke; fill: none; stroke: rgb(25, 211, 243); stroke-opacity: 1; stroke-width: 2px; opacity: 1;"/></g><g class="points"/><g class="text"/></g><g class="trace scatter tracee9fa45" style="stroke-miterlimit: 2; opacity: 1;"><g class="fills"/><g class="errorbars"/><g class="lines"><path class="js-line" d="M0,113.57L2.17,62.08L4.34,63.01L6.51,72.09L8.67,93.47L10.84,84.3L13.01,92.28L15.18,88.6L17.35,82.37L19.52,102.37L21.69,111.71L23.86,109.45L26.02,110.78L28.19,95.66L30.36,102.73L32.53,100.47L34.7,86.44L36.87,69.84L39.04,73.76L41.2,75.73L43.37,84.06L45.54,83.93L47.71,90.43L49.88,91.36L52.05,82.62L54.22,92.21L56.39,85.95L58.55,89.6L60.72,82.83L62.89,81.55L65.06,81.54L71.57,77.57L73.73,89.72L75.9,84.84L78.07,83.61L80.24,92.08L82.41,87.31L84.58,85.9L86.75,76.99L91.08,72.83L93.25,75.86L95.42,76.4L97.59,76.04L99.76,74.25L101.93,73.99L108.43,80.69L110.6,72.82L112.77,71.69L114.94,61.83L117.11,54.74L119.28,63.24L121.45,59.38L123.61,53.46L125.78,56.88L127.95,52.55L130.12,56.94L132.29,55.55L134.46,58.59L136.63,55.57L138.8,54.12L140.96,46.25L143.13,45.99L145.3,43.93L147.47,44.8L149.64,38.75L151.81,38.61L153.98,37.51L156.14,39.34L158.31,34.22L160.48,31.8L162.65,26.16L164.82,31.33L166.99,24.86L169.16,23.75L171.33,17.5L173.49,21.36L175.66,21.7L177.83,26.41L180,28.9L182.17,28.67L184.34,25.67L186.51,26.59L188.67,28.83L190.84,29.04L193.01,33.03L195.18,36.93L197.35,37.61L199.52,39.92L201.69,49.31L206.02,38.59L208.19,40.55L210.36,37.93L212.53,32.26L216.87,39.02L219.04,39L221.2,42.16L223.37,43.15L225.54,41.03L227.71,36.41L232.05,42.63L234.22,40.88L236.39,41.1L238.55,43.88L240.72,40.84L242.89,33.66L245.06,30.74L247.23,26.32L249.4,24.34L251.57,27.23L255.9,31.31L258.07,32.93L262.41,27.81L264.58,30.77L268.92,33.8L271.08,27.91L273.25,31.42L275.42,26.8L277.59,28.74L279.76,28.18L281.93,26.19L284.1,27.72L286.27,23.9L288.43,24.52L290.6,22.42L292.77,23.1L294.94,24.12L297.11,22.55L301.45,22.81L303.61,26.72L305.78,27.45L307.95,25.19L312.29,25.72L314.46,23.54L316.63,22.11L318.8,23.22L320.96,26.36L323.13,21.72L325.3,21.46L327.47,25.39L329.64,21.31L331.81,20.78L336.14,23.48L338.31,27.03L340.48,29.11L342.65,26.7L344.82,30.07L346.99,31.72L349.16,33.97L351.33,32.76L353.49,29.58L355.66,27.98L357.83,25.77L360,27.38L364.34,24.45L366.51,30.5L368.67,31.41L370.84,30.28L373.01,27.07L375.18,29.4L377.35,34.68L379.52,36.05L381.69,34.59L383.86,40.4L386.02,42.08L388.19,42.09L390.36,39.61L392.53,43.92L394.7,42.15L396.87,43.41L403.37,38.48L405.54,35.59L409.88,44.98L412.05,46.42L418.55,41.18L420.72,41.1L422.89,43.27L425.06,40.53L427.23,40.44L429.4,43.73L431.57,45.81L433.73,48.96L435.9,48.01L438.07,45.59L440.24,49.37L442.41,50.22L444.58,52.44L446.75,51.71L451.08,56.57L453.25,55.4L455.42,52.15L457.59,53.76L459.76,51.97L461.93,52.07L464.1,54.37L466.27,51.23L468.43,53.69L470.6,52.4L472.77,54.22L474.94,57.76L477.11,55.06L479.28,50L481.45,51.52L483.61,54.52L487.95,45.03L490.12,49.52L492.29,50.62L494.46,48.29L496.63,45.57L498.8,46.13L500.96,45.82L503.13,48.04L505.3,44.41L507.47,44.4L511.81,45.74L513.98,42.63L516.14,39.47L518.31,38.26L520.48,38.61L522.65,41.5L524.82,42.86L526.99,43.04L531.33,45.66L533.49,45.79L535.66,46.79L537.83,43.51L540,41.14" style="vector-effect: non-scaling-stroke; fill: none; stroke: rgb(255, 102, 146); stroke-opacity: 1; stroke-width: 2px; opacity: 1;"/></g><g class="points"/><g class="text"/></g><g class="trace scatter trace42c55e" style="stroke-miterlimit: 2; opacity: 1;"><g class="fills"/><g class="errorbars"/><g class="lines"><path class="js-line" d="M0,46.91L2.17,84.11L4.34,93.04L6.51,56.78L8.67,39.77L10.84,44.78L13.01,60.33L15.18,68.53L17.35,44.38L19.52,61.45L21.69,60.43L23.86,78.72L26.02,80.32L28.19,100.99L30.36,100.28L32.53,103.93L34.7,109.43L36.87,115.16L39.04,128.48L43.37,106.13L45.54,110.98L47.71,113.64L49.88,105.36L54.22,108.69L56.39,112.16L58.55,111.87L60.72,105L62.89,108.05L65.06,103.54L67.23,106.01L69.4,104.64L71.57,107.3L73.73,105.59L80.24,102.43L82.41,95.96L86.75,80L88.92,82.93L91.08,76.07L93.25,64.79L97.59,73.85L99.76,61.02L101.93,52.03L104.1,49.69L106.27,42.42L108.43,44.73L110.6,44.37L112.77,48.43L114.94,44.48L117.11,45.21L119.28,46.72L121.45,42.8L123.61,42.29L125.78,37.82L127.95,42.45L130.12,49.4L132.29,51.04L134.46,50.05L136.63,43.79L138.8,50.79L143.13,65.45L145.3,67.77L147.47,59.56L149.64,63.53L151.81,70.71L153.98,67.13L156.14,64.93L158.31,61.34L160.48,67.29L162.65,58.83L164.82,49.86L166.99,46.43L171.33,50.68L173.49,56.1L175.66,57.54L177.83,56.97L180,57.36L182.17,53.41L186.51,60.23L188.67,53.56L190.84,47.53L193.01,43.81L195.18,50.38L197.35,48.91L199.52,48.17L201.69,51L210.36,57.56L212.53,55.22L214.7,58.83L216.87,59.19L221.2,52.56L223.37,59.81L225.54,56.83L227.71,59.04L229.88,58.45L232.05,64.53L234.22,60.75L236.39,60.73L240.72,54.04L242.89,57.39L245.06,61.33L247.23,59.61L249.4,64.04L251.57,65.96L253.73,62.83L255.9,65.22L258.07,68.28L260.24,74.84L264.58,71.81L266.75,72.83L271.08,75.8L273.25,73.62L275.42,71.38L277.59,78.88L281.93,82.08L284.1,79.4L286.27,80.97L288.43,79.87L290.6,81.5L292.77,79.27L294.94,84.19L297.11,78.33L301.45,73.94L303.61,71.31L305.78,73.64L307.95,79.9L310.12,74.65L312.29,74.37L314.46,71.55L316.63,72.21L318.8,73.44L320.96,79.16L323.13,80.98L325.3,72.74L327.47,70.42L329.64,72.24L331.81,71.7L333.98,73.98L336.14,77.33L338.31,77.04L340.48,77.24L342.65,73.72L344.82,75.11L346.99,79.15L353.49,74.52L355.66,64.01L357.83,62.95L360,63.38L362.17,67.91L364.34,67.23L366.51,70.16L368.67,69.59L370.84,75.92L373.01,76.77L377.35,73.39L379.52,68.96L381.69,71.82L383.86,69.28L386.02,63.14L388.19,67.53L390.36,62.97L392.53,66.86L399.04,65.43L401.2,62.97L403.37,57.62L405.54,54.89L407.71,54.37L409.88,51.68L412.05,49.55L414.22,49.35L416.39,53.25L418.55,53.01L422.89,53.25L425.06,58.6L427.23,59.66L429.4,59.27L431.57,55.6L433.73,55.01L438.07,52.48L440.24,53.04L442.41,54.89L444.58,50.51L446.75,48.5L448.92,52.27L451.08,51.55L453.25,53.61L455.42,50.5L457.59,52.64L461.93,48.76L464.1,46.06L466.27,44.75L468.43,49.11L470.6,51.49L472.77,48.85L477.11,43.05L479.28,37.73L481.45,43.21L483.61,44.93L485.78,43.91L487.95,45.28L490.12,45.6L492.29,43.83L496.63,46.84L498.8,41.09L500.96,38.97L503.13,40.28L507.47,40.08L509.64,36.15L513.98,40.3L516.14,43.67L518.31,46.74L520.48,42.68L522.65,45.38L524.82,45.5L526.99,45.79L529.16,44.34L531.33,47.74L533.49,43.55L535.66,45.97L537.83,45.63L540,41.79" style="vector-effect: non-scaling-stroke; fill: none; stroke: rgb(182, 232, 128); stroke-opacity: 1; stroke-width: 2px; opacity: 1;"/></g><g class="points"/><g class="text"/></g><g class="trace scatter trace59e5dc" style="stroke-miterlimit: 2; opacity: 1;"><g class="fills"/><g class="errorbars"/><g class="lines"><path class="js-line" d="M0,46.91L2.17,84.11L4.34,93.04L6.51,56.78L8.67,39.77L10.84,44.78L13.01,60.33L15.18,68.53L17.35,44.38L19.52,61.45L21.69,60.43L23.86,78.72L26.02,80.32L28.19,100.99L30.36,100.28L32.53,103.93L34.7,109.43L36.87,115.16L39.04,128.48L43.37,106.13L45.54,110.98L47.71,113.64L49.88,105.36L54.22,108.69L56.39,112.16L58.55,111.87L60.72,105L62.89,108.05L65.06,103.54L67.23,106.01L69.4,104.64L71.57,107.3L73.73,105.59L80.24,102.43L82.41,95.96L86.75,80L88.92,82.93L91.08,76.07L93.25,64.79L97.59,73.85L99.76,61.02L101.93,52.03L104.1,49.69L106.27,42.42L108.43,44.73L110.6,44.37L112.77,48.43L114.94,44.48L117.11,45.21L119.28,46.72L121.45,42.8L123.61,42.29L125.78,37.82L127.95,42.45L130.12,49.4L132.29,51.04L134.46,50.05L136.63,43.79L138.8,50.79L143.13,65.45L145.3,67.77L147.47,59.56L149.64,63.53L151.81,70.71L153.98,67.13L156.14,64.93L158.31,61.34L160.48,67.29L162.65,58.83L164.82,49.86L166.99,46.43L171.33,50.68L173.49,56.1L175.66,57.54L177.83,56.97L180,57.36L182.17,53.41L186.51,60.23L188.67,53.56L190.84,47.53L193.01,43.81L195.18,50.38L197.35,48.91L199.52,48.17L201.69,51L210.36,57.56L212.53,55.22L214.7,58.83L216.87,59.19L221.2,52.56L223.37,59.81L225.54,56.83L227.71,59.04L229.88,58.45L232.05,64.53L234.22,60.75L236.39,60.73L240.72,54.04L242.89,57.39L245.06,61.33L247.23,59.61L249.4,64.04L251.57,65.96L253.73,62.83L255.9,65.22L258.07,68.28L260.24,74.84L264.58,71.81L266.75,72.83L271.08,75.8L273.25,73.62L275.42,71.38L277.59,78.88L281.93,82.08L284.1,79.4L286.27,80.97L288.43,79.87L290.6,81.5L292.77,79.27L294.94,84.19L297.11,78.33L301.45,73.94L303.61,71.31L305.78,73.64L307.95,79.9L310.12,74.65L312.29,74.37L314.46,71.55L316.63,72.21L318.8,73.44L320.96,79.16L323.13,80.98L325.3,72.74L327.47,70.42L329.64,72.24L331.81,71.7L333.98,73.98L336.14,77.33L338.31,77.04L340.48,77.24L342.65,73.72L344.82,75.11L346.99,79.15L353.49,74.52L355.66,64.01L357.83,62.95L360,63.38L362.17,67.91L364.34,67.23L366.51,70.16L368.67,69.59L370.84,75.92L373.01,76.77L377.35,73.39L379.52,68.96L381.69,71.82L383.86,69.28L386.02,63.14L388.19,67.53L390.36,62.97L392.53,66.86L399.04,65.43L401.2,62.97L403.37,57.62L405.54,54.89L407.71,54.37L409.88,51.68L412.05,49.55L414.22,49.35L416.39,53.25L418.55,53.01L422.89,53.25L425.06,58.6L427.23,59.66L429.4,59.27L431.57,55.6L433.73,55.01L438.07,52.48L440.24,53.04L442.41,54.89L444.58,50.51L446.75,48.5L448.92,52.27L451.08,51.55L453.25,53.61L455.42,50.5L457.59,52.64L461.93,48.76L464.1,46.06L466.27,44.75L468.43,49.11L470.6,51.49L472.77,48.85L477.11,43.05L479.28,37.73L481.45,43.21L483.61,44.93L485.78,43.91L487.95,45.28L490.12,45.6L492.29,43.83L496.63,46.84L498.8,41.09L500.96,38.97L503.13,40.28L507.47,40.08L509.64,36.15L513.98,40.3L516.14,43.67L518.31,46.74L520.48,42.68L522.65,45.38L524.82,45.5L526.99,45.79L529.16,44.34L531.33,47.74L533.49,43.55L535.66,45.97L537.83,45.63L540,41.79" style="vector-effect: non-scaling-stroke; fill: none; stroke: rgb(255, 151, 255); stroke-opacity: 1; stroke-width: 2px; opacity: 1;"/></g><g class="points"/><g class="text"/></g><g class="trace scatter tracea181cf" style="stroke-miterlimit: 2; opacity: 1;"><g class="fills"/><g class="errorbars"/><g class="lines"><path class="js-line" d="M0,46.91L2.17,84.11L4.34,93.04L6.51,56.78L8.67,39.77L10.84,44.78L13.01,60.33L15.18,68.53L17.35,44.38L19.52,61.45L21.69,60.43L23.86,78.72L26.02,80.32L28.19,100.99L30.36,100.28L32.53,103.93L34.7,109.43L36.87,115.16L39.04,128.48L43.37,106.13L45.54,110.98L47.71,113.64L49.88,105.36L54.22,108.69L56.39,112.16L58.55,111.87L60.72,105L62.89,108.05L65.06,103.54L67.23,106.01L69.4,104.64L71.57,107.3L73.73,105.59L80.24,102.43L82.41,95.96L86.75,80L88.92,82.93L91.08,76.07L93.25,64.79L97.59,73.85L99.76,61.02L101.93,52.03L104.1,49.69L106.27,42.42L108.43,44.73L110.6,44.37L112.77,48.43L114.94,44.48L117.11,45.21L119.28,46.72L121.45,42.8L123.61,42.29L125.78,37.82L127.95,42.45L130.12,49.4L132.29,51.04L134.46,50.05L136.63,43.79L138.8,50.79L143.13,65.45L145.3,67.77L147.47,59.56L149.64,63.53L151.81,70.71L153.98,67.13L156.14,64.93L158.31,61.34L160.48,67.29L162.65,58.83L164.82,49.86L166.99,46.43L171.33,50.68L173.49,56.1L175.66,57.54L177.83,56.97L180,57.36L182.17,53.41L186.51,60.23L188.67,53.56L190.84,47.53L193.01,43.81L195.18,50.38L197.35,48.91L199.52,48.17L201.69,51L210.36,57.56L212.53,55.22L214.7,58.83L216.87,59.19L221.2,52.56L223.37,59.81L225.54,56.83L227.71,59.04L229.88,58.45L232.05,64.53L234.22,60.75L236.39,60.73L240.72,54.04L242.89,57.39L245.06,61.33L247.23,59.61L249.4,64.04L251.57,65.96L253.73,62.83L255.9,65.22L258.07,68.28L260.24,74.84L264.58,71.81L266.75,72.83L271.08,75.8L273.25,73.62L275.42,71.38L277.59,78.88L281.93,82.08L284.1,79.4L286.27,80.97L288.43,79.87L290.6,81.5L292.77,79.27L294.94,84.19L297.11,78.33L301.45,73.94L303.61,71.31L305.78,73.64L307.95,79.9L310.12,74.65L312.29,74.37L314.46,71.55L316.63,72.21L318.8,73.44L320.96,79.16L323.13,80.98L325.3,72.74L327.47,70.42L329.64,72.24L331.81,71.7L333.98,73.98L336.14,77.33L338.31,77.04L340.48,77.24L342.65,73.72L344.82,75.11L346.99,79.15L353.49,74.52L355.66,64.01L357.83,62.95L360,63.38L362.17,67.91L364.34,67.23L366.51,70.16L368.67,69.59L370.84,75.92L373.01,76.77L377.35,73.39L379.52,68.96L381.69,71.82L383.86,69.28L386.02,63.14L388.19,67.53L390.36,62.97L392.53,66.86L399.04,65.43L401.2,62.97L403.37,57.62L405.54,54.89L407.71,54.37L409.88,51.68L412.05,49.55L414.22,49.35L416.39,53.25L418.55,53.01L422.89,53.25L425.06,58.6L427.23,59.66L429.4,59.27L431.57,55.6L433.73,55.01L438.07,52.48L440.24,53.04L442.41,54.89L444.58,50.51L446.75,48.5L448.92,52.27L451.08,51.55L453.25,53.61L455.42,50.5L457.59,52.64L461.93,48.76L464.1,46.06L466.27,44.75L468.43,49.11L470.6,51.49L472.77,48.85L477.11,43.05L479.28,37.73L481.45,43.21L483.61,44.93L485.78,43.91L487.95,45.28L490.12,45.6L492.29,43.83L496.63,46.84L498.8,41.09L500.96,38.97L503.13,40.28L507.47,40.08L509.64,36.15L513.98,40.3L516.14,43.67L518.31,46.74L520.48,42.68L522.65,45.38L524.82,45.5L526.99,45.79L529.16,44.34L531.33,47.74L533.49,43.55L535.66,45.97L537.83,45.63L540,41.79" style="vector-effect: non-scaling-stroke; fill: none; stroke: rgb(254, 203, 82); stroke-opacity: 1; stroke-width: 2px; opacity: 1;"/></g><g class="points"/><g class="text"/></g><g class="trace scatter tracead5290" style="stroke-miterlimit: 2; opacity: 1;"><g class="fills"/><g class="errorbars"/><g class="lines"><path class="js-line" d="M0,46.91L2.17,84.11L4.34,93.04L6.51,56.78L8.67,39.77L10.84,44.78L13.01,60.33L15.18,68.53L17.35,44.38L19.52,61.45L21.69,60.43L23.86,78.72L26.02,80.32L28.19,100.99L30.36,100.28L32.53,103.93L34.7,109.43L36.87,115.16L39.04,128.48L43.37,106.13L45.54,110.98L47.71,113.64L49.88,105.36L54.22,108.69L56.39,112.16L58.55,111.87L60.72,105L62.89,108.05L65.06,103.54L67.23,106.01L69.4,104.64L71.57,107.3L73.73,105.59L80.24,102.43L82.41,95.96L86.75,80L88.92,82.93L91.08,76.07L93.25,64.79L97.59,73.85L99.76,61.02L101.93,52.03L104.1,49.69L106.27,42.42L108.43,44.73L110.6,44.37L112.77,48.43L114.94,44.48L117.11,45.21L119.28,46.72L121.45,42.8L123.61,42.29L125.78,37.82L127.95,42.45L130.12,49.4L132.29,51.04L134.46,50.05L136.63,43.79L138.8,50.79L143.13,65.45L145.3,67.77L147.47,59.56L149.64,63.53L151.81,70.71L153.98,67.13L156.14,64.93L158.31,61.34L160.48,67.29L162.65,58.83L164.82,49.86L166.99,46.43L171.33,50.68L173.49,56.1L175.66,57.54L177.83,56.97L180,57.36L182.17,53.41L186.51,60.23L188.67,53.56L190.84,47.53L193.01,43.81L195.18,50.38L197.35,48.91L199.52,48.17L201.69,51L210.36,57.56L212.53,55.22L214.7,58.83L216.87,59.19L221.2,52.56L223.37,59.81L225.54,56.83L227.71,59.04L229.88,58.45L232.05,64.53L234.22,60.75L236.39,60.73L240.72,54.04L242.89,57.39L245.06,61.33L247.23,59.61L249.4,64.04L251.57,65.96L253.73,62.83L255.9,65.22L258.07,68.28L260.24,74.84L264.58,71.81L266.75,72.83L271.08,75.8L273.25,73.62L275.42,71.38L277.59,78.88L281.93,82.08L284.1,79.4L286.27,80.97L288.43,79.87L290.6,81.5L292.77,79.27L294.94,84.19L297.11,78.33L301.45,73.94L303.61,71.31L305.78,73.64L307.95,79.9L310.12,74.65L312.29,74.37L314.46,71.55L316.63,72.21L318.8,73.44L320.96,79.16L323.13,80.98L325.3,72.74L327.47,70.42L329.64,72.24L331.81,71.7L333.98,73.98L336.14,77.33L338.31,77.04L340.48,77.24L342.65,73.72L344.82,75.11L346.99,79.15L353.49,74.52L355.66,64.01L357.83,62.95L360,63.38L362.17,67.91L364.34,67.23L366.51,70.16L368.67,69.59L370.84,75.92L373.01,76.77L377.35,73.39L379.52,68.96L381.69,71.82L383.86,69.28L386.02,63.14L388.19,67.53L390.36,62.97L392.53,66.86L399.04,65.43L401.2,62.97L403.37,57.62L405.54,54.89L407.71,54.37L409.88,51.68L412.05,49.55L414.22,49.35L416.39,53.25L418.55,53.01L422.89,53.25L425.06,58.6L427.23,59.66L429.4,59.27L431.57,55.6L433.73,55.01L438.07,52.48L440.24,53.04L442.41,54.89L444.58,50.51L446.75,48.5L448.92,52.27L451.08,51.55L453.25,53.61L455.42,50.5L457.59,52.64L461.93,48.76L464.1,46.06L466.27,44.75L468.43,49.11L470.6,51.49L472.77,48.85L477.11,43.05L479.28,37.73L481.45,43.21L483.61,44.93L485.78,43.91L487.95,45.28L490.12,45.6L492.29,43.83L496.63,46.84L498.8,41.09L500.96,38.97L503.13,40.28L507.47,40.08L509.64,36.15L513.98,40.3L516.14,43.67L518.31,46.74L520.48,42.68L522.65,45.38L524.82,45.5L526.99,45.79L529.16,44.34L531.33,47.74L533.49,43.55L535.66,45.97L537.83,45.63L540,41.79" style="vector-effect: non-scaling-stroke; fill: none; stroke: rgb(99, 110, 250); stroke-opacity: 1; stroke-width: 2px; opacity: 1;"/></g><g class="points"/><g class="text"/></g><g class="trace scatter tracec638d4" style="stroke-miterlimit: 2; opacity: 1;"><g class="fills"/><g class="errorbars"/><g class="lines"><path class="js-line" d="M0,46.91L2.17,84.11L4.34,93.04L6.51,56.78L8.67,39.77L10.84,44.78L13.01,60.33L15.18,68.53L17.35,44.38L19.52,61.45L21.69,60.43L23.86,78.72L26.02,80.32L28.19,100.99L30.36,100.28L32.53,103.93L34.7,109.43L36.87,115.16L39.04,128.48L43.37,106.13L45.54,110.98L47.71,113.64L49.88,105.36L54.22,108.69L56.39,112.16L58.55,111.87L60.72,105L62.89,108.05L65.06,103.54L67.23,106.01L69.4,104.64L71.57,107.3L73.73,105.59L80.24,102.43L82.41,95.96L86.75,80L88.92,82.93L91.08,76.07L93.25,64.79L97.59,73.85L99.76,61.02L101.93,52.03L104.1,49.69L106.27,42.42L108.43,44.73L110.6,44.37L112.77,48.43L114.94,44.48L117.11,45.21L119.28,46.72L121.45,42.8L123.61,42.29L125.78,37.82L127.95,42.45L130.12,49.4L132.29,51.04L134.46,50.05L136.63,43.79L138.8,50.79L143.13,65.45L145.3,67.77L147.47,59.56L149.64,63.53L151.81,70.71L153.98,67.13L156.14,64.93L158.31,61.34L160.48,67.29L162.65,58.83L164.82,49.86L166.99,46.43L171.33,50.68L173.49,56.1L175.66,57.54L177.83,56.97L180,57.36L182.17,53.41L186.51,60.23L188.67,53.56L190.84,47.53L193.01,43.81L195.18,50.38L197.35,48.91L199.52,48.17L201.69,51L210.36,57.56L212.53,55.22L214.7,58.83L216.87,59.19L221.2,52.56L223.37,59.81L225.54,56.83L227.71,59.04L229.88,58.45L232.05,64.53L234.22,60.75L236.39,60.73L240.72,54.04L242.89,57.39L245.06,61.33L247.23,59.61L249.4,64.04L251.57,65.96L253.73,62.83L255.9,65.22L258.07,68.28L260.24,74.84L264.58,71.81L266.75,72.83L271.08,75.8L273.25,73.62L275.42,71.38L277.59,78.88L281.93,82.08L284.1,79.4L286.27,80.97L288.43,79.87L290.6,81.5L292.77,79.27L294.94,84.19L297.11,78.33L301.45,73.94L303.61,71.31L305.78,73.64L307.95,79.9L310.12,74.65L312.29,74.37L314.46,71.55L316.63,72.21L318.8,73.44L320.96,79.16L323.13,80.98L325.3,72.74L327.47,70.42L329.64,72.24L331.81,71.7L333.98,73.98L336.14,77.33L338.31,77.04L340.48,77.24L342.65,73.72L344.82,75.11L346.99,79.15L353.49,74.52L355.66,64.01L357.83,62.95L360,63.38L362.17,67.91L364.34,67.23L366.51,70.16L368.67,69.59L370.84,75.92L373.01,76.77L377.35,73.39L379.52,68.96L381.69,71.82L383.86,69.28L386.02,63.14L388.19,67.53L390.36,62.97L392.53,66.86L399.04,65.43L401.2,62.97L403.37,57.62L405.54,54.89L407.71,54.37L409.88,51.68L412.05,49.55L414.22,49.35L416.39,53.25L418.55,53.01L422.89,53.25L425.06,58.6L427.23,59.66L429.4,59.27L431.57,55.6L433.73,55.01L438.07,52.48L440.24,53.04L442.41,54.89L444.58,50.51L446.75,48.5L448.92,52.27L451.08,51.55L453.25,53.61L455.42,50.5L457.59,52.64L461.93,48.76L464.1,46.06L466.27,44.75L468.43,49.11L470.6,51.49L472.77,48.85L477.11,43.05L479.28,37.73L481.45,43.21L483.61,44.93L485.78,43.91L487.95,45.28L490.12,45.6L492.29,43.83L496.63,46.84L498.8,41.09L500.96,38.97L503.13,40.28L507.47,40.08L509.64,36.15L513.98,40.3L516.14,43.67L518.31,46.74L520.48,42.68L522.65,45.38L524.82,45.5L526.99,45.79L529.16,44.34L531.33,47.74L533.49,43.55L535.66,45.97L537.83,45.63L540,41.79" style="vector-effect: non-scaling-stroke; fill: none; stroke: rgb(239, 85, 59); stroke-opacity: 1; stroke-width: 2px; opacity: 1;"/></g><g class="points"/><g class="text"/></g><g class="trace scatter tracea45722" style="stroke-miterlimit: 2; opacity: 1;"><g class="fills"/><g class="errorbars"/><g class="lines"><path class="js-line" d="M0,46.91L2.17,84.11L4.34,93.04L6.51,56.78L8.67,39.77L10.84,44.78L13.01,60.33L15.18,68.53L17.35,44.38L19.52,61.45L21.69,60.43L23.86,78.72L26.02,80.32L28.19,100.99L30.36,100.28L32.53,103.93L34.7,109.43L36.87,115.16L39.04,128.48L43.37,106.13L45.54,110.98L47.71,113.64L49.88,105.36L54.22,108.69L56.39,112.16L58.55,111.87L60.72,105L62.89,108.05L65.06,103.54L67.23,106.01L69.4,104.64L71.57,107.3L73.73,105.59L80.24,102.43L82.41,95.96L86.75,80L88.92,82.93L91.08,76.07L93.25,64.79L97.59,73.85L99.76,61.02L101.93,52.03L104.1,49.69L106.27,42.42L108.43,44.73L110.6,44.37L112.77,48.43L114.94,44.48L117.11,45.21L119.28,46.72L121.45,42.8L123.61,42.29L125.78,37.82L127.95,42.45L130.12,49.4L132.29,51.04L134.46,50.05L136.63,43.79L138.8,50.79L143.13,65.45L145.3,67.77L147.47,59.56L149.64,63.53L151.81,70.71L153.98,67.13L156.14,64.93L158.31,61.34L160.48,67.29L162.65,58.83L164.82,49.86L166.99,46.43L171.33,50.68L173.49,56.1L175.66,57.54L177.83,56.97L180,57.36L182.17,53.41L186.51,60.23L188.67,53.56L190.84,47.53L193.01,43.81L195.18,50.38L197.35,48.91L199.52,48.17L201.69,51L210.36,57.56L212.53,55.22L214.7,58.83L216.87,59.19L221.2,52.56L223.37,59.81L225.54,56.83L227.71,59.04L229.88,58.45L232.05,64.53L234.22,60.75L236.39,60.73L240.72,54.04L242.89,57.39L245.06,61.33L247.23,59.61L249.4,64.04L251.57,65.96L253.73,62.83L255.9,65.22L258.07,68.28L260.24,74.84L264.58,71.81L266.75,72.83L271.08,75.8L273.25,73.62L275.42,71.38L277.59,78.88L281.93,82.08L284.1,79.4L286.27,80.97L288.43,79.87L290.6,81.5L292.77,79.27L294.94,84.19L297.11,78.33L301.45,73.94L303.61,71.31L305.78,73.64L307.95,79.9L310.12,74.65L312.29,74.37L314.46,71.55L316.63,72.21L318.8,73.44L320.96,79.16L323.13,80.98L325.3,72.74L327.47,70.42L329.64,72.24L331.81,71.7L333.98,73.98L336.14,77.33L338.31,77.04L340.48,77.24L342.65,73.72L344.82,75.11L346.99,79.15L353.49,74.52L355.66,64.01L357.83,62.95L360,63.38L362.17,67.91L364.34,67.23L366.51,70.16L368.67,69.59L370.84,75.92L373.01,76.77L377.35,73.39L379.52,68.96L381.69,71.82L383.86,69.28L386.02,63.14L388.19,67.53L390.36,62.97L392.53,66.86L399.04,65.43L401.2,62.97L403.37,57.62L405.54,54.89L407.71,54.37L409.88,51.68L412.05,49.55L414.22,49.35L416.39,53.25L418.55,53.01L422.89,53.25L425.06,58.6L427.23,59.66L429.4,59.27L431.57,55.6L433.73,55.01L438.07,52.48L440.24,53.04L442.41,54.89L444.58,50.51L446.75,48.5L448.92,52.27L451.08,51.55L453.25,53.61L455.42,50.5L457.59,52.64L461.93,48.76L464.1,46.06L466.27,44.75L468.43,49.11L470.6,51.49L472.77,48.85L477.11,43.05L479.28,37.73L481.45,43.21L483.61,44.93L485.78,43.91L487.95,45.28L490.12,45.6L492.29,43.83L496.63,46.84L498.8,41.09L500.96,38.97L503.13,40.28L507.47,40.08L509.64,36.15L513.98,40.3L516.14,43.67L518.31,46.74L520.48,42.68L522.65,45.38L524.82,45.5L526.99,45.79L529.16,44.34L531.33,47.74L533.49,43.55L535.66,45.97L537.83,45.63L540,41.79" style="vector-effect: non-scaling-stroke; fill: none; stroke: rgb(0, 204, 150); stroke-opacity: 1; stroke-width: 2px; opacity: 1;"/></g><g class="points"/><g class="text"/></g><g class="trace scatter trace2bd34b" style="stroke-miterlimit: 2; opacity: 1;"><g class="fills"/><g class="errorbars"/><g class="lines"><path class="js-line" d="M0,46.91L2.17,84.11L4.34,93.04L6.51,56.78L8.67,39.77L10.84,44.78L13.01,60.33L15.18,68.53L17.35,44.38L19.52,61.45L21.69,60.43L23.86,78.72L26.02,80.32L28.19,100.99L30.36,100.28L32.53,103.93L34.7,109.43L36.87,115.16L39.04,128.48L43.37,106.13L45.54,110.98L47.71,113.64L49.88,105.36L54.22,108.69L56.39,112.16L58.55,111.87L60.72,105L62.89,108.05L65.06,103.54L67.23,106.01L69.4,104.64L71.57,107.3L73.73,105.59L80.24,102.43L82.41,95.96L86.75,80L88.92,82.93L91.08,76.07L93.25,64.79L97.59,73.85L99.76,61.02L101.93,52.03L104.1,49.69L106.27,42.42L108.43,44.73L110.6,44.37L112.77,48.43L114.94,44.48L117.11,45.21L119.28,46.72L121.45,42.8L123.61,42.29L125.78,37.82L127.95,42.45L130.12,49.4L132.29,51.04L134.46,50.05L136.63,43.79L138.8,50.79L143.13,65.45L145.3,67.77L147.47,59.56L149.64,63.53L151.81,70.71L153.98,67.13L156.14,64.93L158.31,61.34L160.48,67.29L162.65,58.83L164.82,49.86L166.99,46.43L171.33,50.68L173.49,56.1L175.66,57.54L177.83,56.97L180,57.36L182.17,53.41L186.51,60.23L188.67,53.56L190.84,47.53L193.01,43.81L195.18,50.38L197.35,48.91L199.52,48.17L201.69,51L210.36,57.56L212.53,55.22L214.7,58.83L216.87,59.19L221.2,52.56L223.37,59.81L225.54,56.83L227.71,59.04L229.88,58.45L232.05,64.53L234.22,60.75L236.39,60.73L240.72,54.04L242.89,57.39L245.06,61.33L247.23,59.61L249.4,64.04L251.57,65.96L253.73,62.83L255.9,65.22L258.07,68.28L260.24,74.84L264.58,71.81L266.75,72.83L271.08,75.8L273.25,73.62L275.42,71.38L277.59,78.88L281.93,82.08L284.1,79.4L286.27,80.97L288.43,79.87L290.6,81.5L292.77,79.27L294.94,84.19L297.11,78.33L301.45,73.94L303.61,71.31L305.78,73.64L307.95,79.9L310.12,74.65L312.29,74.37L314.46,71.55L316.63,72.21L318.8,73.44L320.96,79.16L323.13,80.98L325.3,72.74L327.47,70.42L329.64,72.24L331.81,71.7L333.98,73.98L336.14,77.33L338.31,77.04L340.48,77.24L342.65,73.72L344.82,75.11L346.99,79.15L353.49,74.52L355.66,64.01L357.83,62.95L360,63.38L362.17,67.91L364.34,67.23L366.51,70.16L368.67,69.59L370.84,75.92L373.01,76.77L377.35,73.39L379.52,68.96L381.69,71.82L383.86,69.28L386.02,63.14L388.19,67.53L390.36,62.97L392.53,66.86L399.04,65.43L401.2,62.97L403.37,57.62L405.54,54.89L407.71,54.37L409.88,51.68L412.05,49.55L414.22,49.35L416.39,53.25L418.55,53.01L422.89,53.25L425.06,58.6L427.23,59.66L429.4,59.27L431.57,55.6L433.73,55.01L438.07,52.48L440.24,53.04L442.41,54.89L444.58,50.51L446.75,48.5L448.92,52.27L451.08,51.55L453.25,53.61L455.42,50.5L457.59,52.64L461.93,48.76L464.1,46.06L466.27,44.75L468.43,49.11L470.6,51.49L472.77,48.85L477.11,43.05L479.28,37.73L481.45,43.21L483.61,44.93L485.78,43.91L487.95,45.28L490.12,45.6L492.29,43.83L496.63,46.84L498.8,41.09L500.96,38.97L503.13,40.28L507.47,40.08L509.64,36.15L513.98,40.3L516.14,43.67L518.31,46.74L520.48,42.68L522.65,45.38L524.82,45.5L526.99,45.79L529.16,44.34L531.33,47.74L533.49,43.55L535.66,45.97L537.83,45.63L540,41.79" style="vector-effect: non-scaling-stroke; fill: none; stroke: rgb(171, 99, 250); stroke-opacity: 1; stroke-width: 2px; opacity: 1;"/></g><g class="points"/><g class="text"/></g><g class="trace scatter tracefbf82c" style="stroke-miterlimit: 2; opacity: 1;"><g class="fills"/><g class="errorbars"/><g class="lines"><path class="js-line" d="M0,46.91L2.17,84.11L4.34,93.04L6.51,56.78L8.67,39.77L10.84,44.78L13.01,60.33L15.18,68.53L17.35,44.38L19.52,61.45L21.69,60.43L23.86,78.72L26.02,80.32L28.19,100.99L30.36,100.28L32.53,103.93L34.7,109.43L36.87,115.16L39.04,128.48L43.37,106.13L45.54,110.98L47.71,113.64L49.88,105.36L54.22,108.69L56.39,112.16L58.55,111.87L60.72,105L62.89,108.05L65.06,103.54L67.23,106.01L69.4,104.64L71.57,107.3L73.73,105.59L80.24,102.43L82.41,95.96L86.75,80L88.92,82.93L91.08,76.07L93.25,64.79L97.59,73.85L99.76,61.02L101.93,52.03L104.1,49.69L106.27,42.42L108.43,44.73L110.6,44.37L112.77,48.43L114.94,44.48L117.11,45.21L119.28,46.72L121.45,42.8L123.61,42.29L125.78,37.82L127.95,42.45L130.12,49.4L132.29,51.04L134.46,50.05L136.63,43.79L138.8,50.79L143.13,65.45L145.3,67.77L147.47,59.56L149.64,63.53L151.81,70.71L153.98,67.13L156.14,64.93L158.31,61.34L160.48,67.29L162.65,58.83L164.82,49.86L166.99,46.43L171.33,50.68L173.49,56.1L175.66,57.54L177.83,56.97L180,57.36L182.17,53.41L186.51,60.23L188.67,53.56L190.84,47.53L193.01,43.81L195.18,50.38L197.35,48.91L199.52,48.17L201.69,51L210.36,57.56L212.53,55.22L214.7,58.83L216.87,59.19L221.2,52.56L223.37,59.81L225.54,56.83L227.71,59.04L229.88,58.45L232.05,64.53L234.22,60.75L236.39,60.73L240.72,54.04L242.89,57.39L245.06,61.33L247.23,59.61L249.4,64.04L251.57,65.96L253.73,62.83L255.9,65.22L258.07,68.28L260.24,74.84L264.58,71.81L266.75,72.83L271.08,75.8L273.25,73.62L275.42,71.38L277.59,78.88L281.93,82.08L284.1,79.4L286.27,80.97L288.43,79.87L290.6,81.5L292.77,79.27L294.94,84.19L297.11,78.33L301.45,73.94L303.61,71.31L305.78,73.64L307.95,79.9L310.12,74.65L312.29,74.37L314.46,71.55L316.63,72.21L318.8,73.44L320.96,79.16L323.13,80.98L325.3,72.74L327.47,70.42L329.64,72.24L331.81,71.7L333.98,73.98L336.14,77.33L338.31,77.04L340.48,77.24L342.65,73.72L344.82,75.11L346.99,79.15L353.49,74.52L355.66,64.01L357.83,62.95L360,63.38L362.17,67.91L364.34,67.23L366.51,70.16L368.67,69.59L370.84,75.92L373.01,76.77L377.35,73.39L379.52,68.96L381.69,71.82L383.86,69.28L386.02,63.14L388.19,67.53L390.36,62.97L392.53,66.86L399.04,65.43L401.2,62.97L403.37,57.62L405.54,54.89L407.71,54.37L409.88,51.68L412.05,49.55L414.22,49.35L416.39,53.25L418.55,53.01L422.89,53.25L425.06,58.6L427.23,59.66L429.4,59.27L431.57,55.6L433.73,55.01L438.07,52.48L440.24,53.04L442.41,54.89L444.58,50.51L446.75,48.5L448.92,52.27L451.08,51.55L453.25,53.61L455.42,50.5L457.59,52.64L461.93,48.76L464.1,46.06L466.27,44.75L468.43,49.11L470.6,51.49L472.77,48.85L477.11,43.05L479.28,37.73L481.45,43.21L483.61,44.93L485.78,43.91L487.95,45.28L490.12,45.6L492.29,43.83L496.63,46.84L498.8,41.09L500.96,38.97L503.13,40.28L507.47,40.08L509.64,36.15L513.98,40.3L516.14,43.67L518.31,46.74L520.48,42.68L522.65,45.38L524.82,45.5L526.99,45.79L529.16,44.34L531.33,47.74L533.49,43.55L535.66,45.97L537.83,45.63L540,41.79" style="vector-effect: non-scaling-stroke; fill: none; stroke: rgb(255, 161, 90); stroke-opacity: 1; stroke-width: 2px; opacity: 1;"/></g><g class="points"/><g class="text"/></g><g class="trace scatter trace47aad1" style="stroke-miterlimit: 2; opacity: 1;"><g class="fills"/><g class="errorbars"/><g class="lines"><path class="js-line" d="M0,46.91L2.17,84.11L4.34,93.04L6.51,56.78L8.67,39.77L10.84,44.78L13.01,60.33L15.18,68.53L17.35,44.38L19.52,61.45L21.69,60.43L23.86,78.72L26.02,80.32L28.19,100.99L30.36,100.28L32.53,103.93L34.7,109.43L36.87,115.16L39.04,128.48L43.37,106.13L45.54,110.98L47.71,113.64L49.88,105.36L54.22,108.69L56.39,112.16L58.55,111.87L60.72,105L62.89,108.05L65.06,103.54L67.23,106.01L69.4,104.64L71.57,107.3L73.73,105.59L80.24,102.43L82.41,95.96L86.75,80L88.92,82.93L91.08,76.07L93.25,64.79L97.59,73.85L99.76,61.02L101.93,52.03L104.1,49.69L106.27,42.42L108.43,44.73L110.6,44.37L112.77,48.43L114.94,44.48L117.11,45.21L119.28,46.72L121.45,42.8L123.61,42.29L125.78,37.82L127.95,42.45L130.12,49.4L132.29,51.04L134.46,50.05L136.63,43.79L138.8,50.79L143.13,65.45L145.3,67.77L147.47,59.56L149.64,63.53L151.81,70.71L153.98,67.13L156.14,64.93L158.31,61.34L160.48,67.29L162.65,58.83L164.82,49.86L166.99,46.43L171.33,50.68L173.49,56.1L175.66,57.54L177.83,56.97L180,57.36L182.17,53.41L186.51,60.23L188.67,53.56L190.84,47.53L193.01,43.81L195.18,50.38L197.35,48.91L199.52,48.17L201.69,51L210.36,57.56L212.53,55.22L214.7,58.83L216.87,59.19L221.2,52.56L223.37,59.81L225.54,56.83L227.71,59.04L229.88,58.45L232.05,64.53L234.22,60.75L236.39,60.73L240.72,54.04L242.89,57.39L245.06,61.33L247.23,59.61L249.4,64.04L251.57,65.96L253.73,62.83L255.9,65.22L258.07,68.28L260.24,74.84L264.58,71.81L266.75,72.83L271.08,75.8L273.25,73.62L275.42,71.38L277.59,78.88L281.93,82.08L284.1,79.4L286.27,80.97L288.43,79.87L290.6,81.5L292.77,79.27L294.94,84.19L297.11,78.33L301.45,73.94L303.61,71.31L305.78,73.64L307.95,79.9L310.12,74.65L312.29,74.37L314.46,71.55L316.63,72.21L318.8,73.44L320.96,79.16L323.13,80.98L325.3,72.74L327.47,70.42L329.64,72.24L331.81,71.7L333.98,73.98L336.14,77.33L338.31,77.04L340.48,77.24L342.65,73.72L344.82,75.11L346.99,79.15L353.49,74.52L355.66,64.01L357.83,62.95L360,63.38L362.17,67.91L364.34,67.23L366.51,70.16L368.67,69.59L370.84,75.92L373.01,76.77L377.35,73.39L379.52,68.96L381.69,71.82L383.86,69.28L386.02,63.14L388.19,67.53L390.36,62.97L392.53,66.86L399.04,65.43L401.2,62.97L403.37,57.62L405.54,54.89L407.71,54.37L409.88,51.68L412.05,49.55L414.22,49.35L416.39,53.25L418.55,53.01L422.89,53.25L425.06,58.6L427.23,59.66L429.4,59.27L431.57,55.6L433.73,55.01L438.07,52.48L440.24,53.04L442.41,54.89L444.58,50.51L446.75,48.5L448.92,52.27L451.08,51.55L453.25,53.61L455.42,50.5L457.59,52.64L461.93,48.76L464.1,46.06L466.27,44.75L468.43,49.11L470.6,51.49L472.77,48.85L477.11,43.05L479.28,37.73L481.45,43.21L483.61,44.93L485.78,43.91L487.95,45.28L490.12,45.6L492.29,43.83L496.63,46.84L498.8,41.09L500.96,38.97L503.13,40.28L507.47,40.08L509.64,36.15L513.98,40.3L516.14,43.67L518.31,46.74L520.48,42.68L522.65,45.38L524.82,45.5L526.99,45.79L529.16,44.34L531.33,47.74L533.49,43.55L535.66,45.97L537.83,45.63L540,41.79" style="vector-effect: non-scaling-stroke; fill: none; stroke: rgb(25, 211, 243); stroke-opacity: 1; stroke-width: 2px; opacity: 1;"/></g><g class="points"/><g class="text"/></g><g class="trace scatter trace848c80" style="stroke-miterlimit: 2; opacity: 1;"><g class="fills"/><g class="errorbars"/><g class="lines"><path class="js-line" d="M0,46.91L2.17,84.11L4.34,93.04L6.51,56.78L8.67,39.77L10.84,44.78L13.01,60.33L15.18,68.53L17.35,44.38L19.52,61.45L21.69,60.43L23.86,78.72L26.02,80.32L28.19,100.99L30.36,100.28L32.53,103.93L34.7,109.43L36.87,115.16L39.04,128.48L43.37,106.13L45.54,110.98L47.71,113.64L49.88,105.36L54.22,108.69L56.39,112.16L58.55,111.87L60.72,105L62.89,108.05L65.06,103.54L67.23,106.01L69.4,104.64L71.57,107.3L73.73,105.59L80.24,102.43L82.41,95.96L86.75,80L88.92,82.93L91.08,76.07L93.25,64.79L97.59,73.85L99.76,61.02L101.93,52.03L104.1,49.69L106.27,42.42L108.43,44.73L110.6,44.37L112.77,48.43L114.94,44.48L117.11,45.21L119.28,46.72L121.45,42.8L123.61,42.29L125.78,37.82L127.95,42.45L130.12,49.4L132.29,51.04L134.46,50.05L136.63,43.79L138.8,50.79L143.13,65.45L145.3,67.77L147.47,59.56L149.64,63.53L151.81,70.71L153.98,67.13L156.14,64.93L158.31,61.34L160.48,67.29L162.65,58.83L164.82,49.86L166.99,46.43L171.33,50.68L173.49,56.1L175.66,57.54L177.83,56.97L180,57.36L182.17,53.41L186.51,60.23L188.67,53.56L190.84,47.53L193.01,43.81L195.18,50.38L197.35,48.91L199.52,48.17L201.69,51L210.36,57.56L212.53,55.22L214.7,58.83L216.87,59.19L221.2,52.56L223.37,59.81L225.54,56.83L227.71,59.04L229.88,58.45L232.05,64.53L234.22,60.75L236.39,60.73L240.72,54.04L242.89,57.39L245.06,61.33L247.23,59.61L249.4,64.04L251.57,65.96L253.73,62.83L255.9,65.22L258.07,68.28L260.24,74.84L264.58,71.81L266.75,72.83L271.08,75.8L273.25,73.62L275.42,71.38L277.59,78.88L281.93,82.08L284.1,79.4L286.27,80.97L288.43,79.87L290.6,81.5L292.77,79.27L294.94,84.19L297.11,78.33L301.45,73.94L303.61,71.31L305.78,73.64L307.95,79.9L310.12,74.65L312.29,74.37L314.46,71.55L316.63,72.21L318.8,73.44L320.96,79.16L323.13,80.98L325.3,72.74L327.47,70.42L329.64,72.24L331.81,71.7L333.98,73.98L336.14,77.33L338.31,77.04L340.48,77.24L342.65,73.72L344.82,75.11L346.99,79.15L353.49,74.52L355.66,64.01L357.83,62.95L360,63.38L362.17,67.91L364.34,67.23L366.51,70.16L368.67,69.59L370.84,75.92L373.01,76.77L377.35,73.39L379.52,68.96L381.69,71.82L383.86,69.28L386.02,63.14L388.19,67.53L390.36,62.97L392.53,66.86L399.04,65.43L401.2,62.97L403.37,57.62L405.54,54.89L407.71,54.37L409.88,51.68L412.05,49.55L414.22,49.35L416.39,53.25L418.55,53.01L422.89,53.25L425.06,58.6L427.23,59.66L429.4,59.27L431.57,55.6L433.73,55.01L438.07,52.48L440.24,53.04L442.41,54.89L444.58,50.51L446.75,48.5L448.92,52.27L451.08,51.55L453.25,53.61L455.42,50.5L457.59,52.64L461.93,48.76L464.1,46.06L466.27,44.75L468.43,49.11L470.6,51.49L472.77,48.85L477.11,43.05L479.28,37.73L481.45,43.21L483.61,44.93L485.78,43.91L487.95,45.28L490.12,45.6L492.29,43.83L496.63,46.84L498.8,41.09L500.96,38.97L503.13,40.28L507.47,40.08L509.64,36.15L513.98,40.3L516.14,43.67L518.31,46.74L520.48,42.68L522.65,45.38L524.82,45.5L526.99,45.79L529.16,44.34L531.33,47.74L533.49,43.55L535.66,45.97L537.83,45.63L540,41.79" style="vector-effect: non-scaling-stroke; fill: none; stroke: rgb(255, 102, 146); stroke-opacity: 1; stroke-width: 2px; opacity: 1;"/></g><g class="points"/><g class="text"/></g><g class="trace scatter trace814732" style="stroke-miterlimit: 2; opacity: 1;"><g class="fills"/><g class="errorbars"/><g class="lines"><path class="js-line" d="M0,46.91L2.17,84.11L4.34,93.04L6.51,56.78L8.67,39.77L10.84,44.78L13.01,60.33L15.18,68.53L17.35,44.38L19.52,61.45L21.69,60.43L23.86,78.72L26.02,80.32L28.19,100.99L30.36,100.28L32.53,103.93L34.7,109.43L36.87,115.16L39.04,128.48L43.37,106.13L45.54,110.98L47.71,113.64L49.88,105.36L54.22,108.69L56.39,112.16L58.55,111.87L60.72,105L62.89,108.05L65.06,103.54L67.23,106.01L69.4,104.64L71.57,107.3L73.73,105.59L80.24,102.43L82.41,95.96L86.75,80L88.92,82.93L91.08,76.07L93.25,64.79L97.59,73.85L99.76,61.02L101.93,52.03L104.1,49.69L106.27,42.42L108.43,44.73L110.6,44.37L112.77,48.43L114.94,44.48L117.11,45.21L119.28,46.72L121.45,42.8L123.61,42.29L125.78,37.82L127.95,42.45L130.12,49.4L132.29,51.04L134.46,50.05L136.63,43.79L138.8,50.79L143.13,65.45L145.3,67.77L147.47,59.56L149.64,63.53L151.81,70.71L153.98,67.13L156.14,64.93L158.31,61.34L160.48,67.29L162.65,58.83L164.82,49.86L166.99,46.43L171.33,50.68L173.49,56.1L175.66,57.54L177.83,56.97L180,57.36L182.17,53.41L186.51,60.23L188.67,53.56L190.84,47.53L193.01,43.81L195.18,50.38L197.35,48.91L199.52,48.17L201.69,51L210.36,57.56L212.53,55.22L214.7,58.83L216.87,59.19L221.2,52.56L223.37,59.81L225.54,56.83L227.71,59.04L229.88,58.45L232.05,64.53L234.22,60.75L236.39,60.73L240.72,54.04L242.89,57.39L245.06,61.33L247.23,59.61L249.4,64.04L251.57,65.96L253.73,62.83L255.9,65.22L258.07,68.28L260.24,74.84L264.58,71.81L266.75,72.83L271.08,75.8L273.25,73.62L275.42,71.38L277.59,78.88L281.93,82.08L284.1,79.4L286.27,80.97L288.43,79.87L290.6,81.5L292.77,79.27L294.94,84.19L297.11,78.33L301.45,73.94L303.61,71.31L305.78,73.64L307.95,79.9L310.12,74.65L312.29,74.37L314.46,71.55L316.63,72.21L318.8,73.44L320.96,79.16L323.13,80.98L325.3,72.74L327.47,70.42L329.64,72.24L331.81,71.7L333.98,73.98L336.14,77.33L338.31,77.04L340.48,77.24L342.65,73.72L344.82,75.11L346.99,79.15L353.49,74.52L355.66,64.01L357.83,62.95L360,63.38L362.17,67.91L364.34,67.23L366.51,70.16L368.67,69.59L370.84,75.92L373.01,76.77L377.35,73.39L379.52,68.96L381.69,71.82L383.86,69.28L386.02,63.14L388.19,67.53L390.36,62.97L392.53,66.86L399.04,65.43L401.2,62.97L403.37,57.62L405.54,54.89L407.71,54.37L409.88,51.68L412.05,49.55L414.22,49.35L416.39,53.25L418.55,53.01L422.89,53.25L425.06,58.6L427.23,59.66L429.4,59.27L431.57,55.6L433.73,55.01L438.07,52.48L440.24,53.04L442.41,54.89L444.58,50.51L446.75,48.5L448.92,52.27L451.08,51.55L453.25,53.61L455.42,50.5L457.59,52.64L461.93,48.76L464.1,46.06L466.27,44.75L468.43,49.11L470.6,51.49L472.77,48.85L477.11,43.05L479.28,37.73L481.45,43.21L483.61,44.93L485.78,43.91L487.95,45.28L490.12,45.6L492.29,43.83L496.63,46.84L498.8,41.09L500.96,38.97L503.13,40.28L507.47,40.08L509.64,36.15L513.98,40.3L516.14,43.67L518.31,46.74L520.48,42.68L522.65,45.38L524.82,45.5L526.99,45.79L529.16,44.34L531.33,47.74L533.49,43.55L535.66,45.97L537.83,45.63L540,41.79" style="vector-effect: non-scaling-stroke; fill: none; stroke: rgb(182, 232, 128); stroke-opacity: 1; stroke-width: 2px; opacity: 1;"/></g><g class="points"/><g class="text"/></g><g class="trace scatter trace1c5cda" style="stroke-miterlimit: 2; opacity: 1;"><g class="fills"/><g class="errorbars"/><g class="lines"><path class="js-line" d="M0,46.91L2.17,84.11L4.34,93.04L6.51,56.78L8.67,39.77L10.84,44.78L13.01,60.33L15.18,68.53L17.35,44.38L19.52,61.45L21.69,60.43L23.86,78.72L26.02,80.32L28.19,100.99L30.36,100.28L32.53,103.93L34.7,109.43L36.87,115.16L39.04,128.48L43.37,106.13L45.54,110.98L47.71,113.64L49.88,105.36L54.22,108.69L56.39,112.16L58.55,111.87L60.72,105L62.89,108.05L65.06,103.54L67.23,106.01L69.4,104.64L71.57,107.3L73.73,105.59L80.24,102.43L82.41,95.96L86.75,80L88.92,82.93L91.08,76.07L93.25,64.79L97.59,73.85L99.76,61.02L101.93,52.03L104.1,49.69L106.27,42.42L108.43,44.73L110.6,44.37L112.77,48.43L114.94,44.48L117.11,45.21L119.28,46.72L121.45,42.8L123.61,42.29L125.78,37.82L127.95,42.45L130.12,49.4L132.29,51.04L134.46,50.05L136.63,43.79L138.8,50.79L143.13,65.45L145.3,67.77L147.47,59.56L149.64,63.53L151.81,70.71L153.98,67.13L156.14,64.93L158.31,61.34L160.48,67.29L162.65,58.83L164.82,49.86L166.99,46.43L171.33,50.68L173.49,56.1L175.66,57.54L177.83,56.97L180,57.36L182.17,53.41L186.51,60.23L188.67,53.56L190.84,47.53L193.01,43.81L195.18,50.38L197.35,48.91L199.52,48.17L201.69,51L210.36,57.56L212.53,55.22L214.7,58.83L216.87,59.19L221.2,52.56L223.37,59.81L225.54,56.83L227.71,59.04L229.88,58.45L232.05,64.53L234.22,60.75L236.39,60.73L240.72,54.04L242.89,57.39L245.06,61.33L247.23,59.61L249.4,64.04L251.57,65.96L253.73,62.83L255.9,65.22L258.07,68.28L260.24,74.84L264.58,71.81L266.75,72.83L271.08,75.8L273.25,73.62L275.42,71.38L277.59,78.88L281.93,82.08L284.1,79.4L286.27,80.97L288.43,79.87L290.6,81.5L292.77,79.27L294.94,84.19L297.11,78.33L301.45,73.94L303.61,71.31L305.78,73.64L307.95,79.9L310.12,74.65L312.29,74.37L314.46,71.55L316.63,72.21L318.8,73.44L320.96,79.16L323.13,80.98L325.3,72.74L327.47,70.42L329.64,72.24L331.81,71.7L333.98,73.98L336.14,77.33L338.31,77.04L340.48,77.24L342.65,73.72L344.82,75.11L346.99,79.15L353.49,74.52L355.66,64.01L357.83,62.95L360,63.38L362.17,67.91L364.34,67.23L366.51,70.16L368.67,69.59L370.84,75.92L373.01,76.77L377.35,73.39L379.52,68.96L381.69,71.82L383.86,69.28L386.02,63.14L388.19,67.53L390.36,62.97L392.53,66.86L399.04,65.43L401.2,62.97L403.37,57.62L405.54,54.89L407.71,54.37L409.88,51.68L412.05,49.55L414.22,49.35L416.39,53.25L418.55,53.01L422.89,53.25L425.06,58.6L427.23,59.66L429.4,59.27L431.57,55.6L433.73,55.01L438.07,52.48L440.24,53.04L442.41,54.89L444.58,50.51L446.75,48.5L448.92,52.27L451.08,51.55L453.25,53.61L455.42,50.5L457.59,52.64L461.93,48.76L464.1,46.06L466.27,44.75L468.43,49.11L470.6,51.49L472.77,48.85L477.11,43.05L479.28,37.73L481.45,43.21L483.61,44.93L485.78,43.91L487.95,45.28L490.12,45.6L492.29,43.83L496.63,46.84L498.8,41.09L500.96,38.97L503.13,40.28L507.47,40.08L509.64,36.15L513.98,40.3L516.14,43.67L518.31,46.74L520.48,42.68L522.65,45.38L524.82,45.5L526.99,45.79L529.16,44.34L531.33,47.74L533.49,43.55L535.66,45.97L537.83,45.63L540,41.79" style="vector-effect: non-scaling-stroke; fill: none; stroke: rgb(255, 151, 255); stroke-opacity: 1; stroke-width: 2px; opacity: 1;"/></g><g class="points"/><g class="text"/></g><g class="trace scatter trace7c75ba" style="stroke-miterlimit: 2; opacity: 1;"><g class="fills"/><g class="errorbars"/><g class="lines"><path class="js-line" d="M0,46.91L2.17,84.11L4.34,93.04L6.51,56.78L8.67,39.77L10.84,44.78L13.01,60.33L15.18,68.53L17.35,44.38L19.52,61.45L21.69,60.43L23.86,78.72L26.02,80.32L28.19,100.99L30.36,100.28L32.53,103.93L34.7,109.43L36.87,115.16L39.04,128.48L43.37,106.13L45.54,110.98L47.71,113.64L49.88,105.36L54.22,108.69L56.39,112.16L58.55,111.87L60.72,105L62.89,108.05L65.06,103.54L67.23,106.01L69.4,104.64L71.57,107.3L73.73,105.59L80.24,102.43L82.41,95.96L86.75,80L88.92,82.93L91.08,76.07L93.25,64.79L97.59,73.85L99.76,61.02L101.93,52.03L104.1,49.69L106.27,42.42L108.43,44.73L110.6,44.37L112.77,48.43L114.94,44.48L117.11,45.21L119.28,46.72L121.45,42.8L123.61,42.29L125.78,37.82L127.95,42.45L130.12,49.4L132.29,51.04L134.46,50.05L136.63,43.79L138.8,50.79L143.13,65.45L145.3,67.77L147.47,59.56L149.64,63.53L151.81,70.71L153.98,67.13L156.14,64.93L158.31,61.34L160.48,67.29L162.65,58.83L164.82,49.86L166.99,46.43L171.33,50.68L173.49,56.1L175.66,57.54L177.83,56.97L180,57.36L182.17,53.41L186.51,60.23L188.67,53.56L190.84,47.53L193.01,43.81L195.18,50.38L197.35,48.91L199.52,48.17L201.69,51L210.36,57.56L212.53,55.22L214.7,58.83L216.87,59.19L221.2,52.56L223.37,59.81L225.54,56.83L227.71,59.04L229.88,58.45L232.05,64.53L234.22,60.75L236.39,60.73L240.72,54.04L242.89,57.39L245.06,61.33L247.23,59.61L249.4,64.04L251.57,65.96L253.73,62.83L255.9,65.22L258.07,68.28L260.24,74.84L264.58,71.81L266.75,72.83L271.08,75.8L273.25,73.62L275.42,71.38L277.59,78.88L281.93,82.08L284.1,79.4L286.27,80.97L288.43,79.87L290.6,81.5L292.77,79.27L294.94,84.19L297.11,78.33L301.45,73.94L303.61,71.31L305.78,73.64L307.95,79.9L310.12,74.65L312.29,74.37L314.46,71.55L316.63,72.21L318.8,73.44L320.96,79.16L323.13,80.98L325.3,72.74L327.47,70.42L329.64,72.24L331.81,71.7L333.98,73.98L336.14,77.33L338.31,77.04L340.48,77.24L342.65,73.72L344.82,75.11L346.99,79.15L353.49,74.52L355.66,64.01L357.83,62.95L360,63.38L362.17,67.91L364.34,67.23L366.51,70.16L368.67,69.59L370.84,75.92L373.01,76.77L377.35,73.39L379.52,68.96L381.69,71.82L383.86,69.28L386.02,63.14L388.19,67.53L390.36,62.97L392.53,66.86L399.04,65.43L401.2,62.97L403.37,57.62L405.54,54.89L407.71,54.37L409.88,51.68L412.05,49.55L414.22,49.35L416.39,53.25L418.55,53.01L422.89,53.25L425.06,58.6L427.23,59.66L429.4,59.27L431.57,55.6L433.73,55.01L438.07,52.48L440.24,53.04L442.41,54.89L444.58,50.51L446.75,48.5L448.92,52.27L451.08,51.55L453.25,53.61L455.42,50.5L457.59,52.64L461.93,48.76L464.1,46.06L466.27,44.75L468.43,49.11L470.6,51.49L472.77,48.85L477.11,43.05L479.28,37.73L481.45,43.21L483.61,44.93L485.78,43.91L487.95,45.28L490.12,45.6L492.29,43.83L496.63,46.84L498.8,41.09L500.96,38.97L503.13,40.28L507.47,40.08L509.64,36.15L513.98,40.3L516.14,43.67L518.31,46.74L520.48,42.68L522.65,45.38L524.82,45.5L526.99,45.79L529.16,44.34L531.33,47.74L533.49,43.55L535.66,45.97L537.83,45.63L540,41.79" style="vector-effect: non-scaling-stroke; fill: none; stroke: rgb(254, 203, 82); stroke-opacity: 1; stroke-width: 2px; opacity: 1;"/></g><g class="points"/><g class="text"/></g></g></g><g class="overplot"/><path class="xlines-above crisp" d="M0,0" style="fill: none;"/><path class="ylines-above crisp" d="M0,0" style="fill: none;"/><g class="overlines-above"/><g class="xaxislayer-above"><g class="xtick"><text text-anchor="middle" x="0" y="433" transform="translate(80,0)" style="font-family: 'Open Sans', verdana, arial, sans-serif; font-size: 12px; fill: rgb(42, 63, 95); fill-opacity: 1; white-space: pre; opacity: 1;">0</text></g><g class="xtick"><text text-anchor="middle" x="0" y="433" style="font-family: 'Open Sans', verdana, arial, sans-serif; font-size: 12px; fill: rgb(42, 63, 95); fill-opacity: 1; white-space: pre; opacity: 1;" transform="translate(188.43,0)">50</text></g><g class="xtick"><text text-anchor="middle" x="0" y="433" style="font-family: 'Open Sans', verdana, arial, sans-serif; font-size: 12px; fill: rgb(42, 63, 95); fill-opacity: 1; white-space: pre; opacity: 1;" transform="translate(296.87,0)">100</text></g><g class="xtick"><text text-anchor="middle" x="0" y="433" style="font-family: 'Open Sans', verdana, arial, sans-serif; font-size: 12px; fill: rgb(42, 63, 95); fill-opacity: 1; white-space: pre; opacity: 1;" transform="translate(405.3,0)">150</text></g><g class="xtick"><text text-anchor="middle" x="0" y="433" style="font-family: 'Open Sans', verdana, arial, sans-serif; font-size: 12px; fill: rgb(42, 63, 95); fill-opacity: 1; white-space: pre; opacity: 1;" transform="translate(513.73,0)">200</text></g></g><g class="yaxislayer-above"><g class="ytick"><text text-anchor="end" x="79" y="4.199999999999999" transform="translate(0,420)" style="font-family: 'Open Sans', verdana, arial, sans-serif; font-size: 12px; fill: rgb(42, 63, 95); fill-opacity: 1; white-space: pre; opacity: 1;">0</text></g><g class="ytick"><text text-anchor="end" x="79" y="4.199999999999999" style="font-family: 'Open Sans', verdana, arial, sans-serif; font-size: 12px; fill: rgb(42, 63, 95); fill-opacity: 1; white-space: pre; opacity: 1;" transform="translate(0,374.51)">1000</text></g><g class="ytick"><text text-anchor="end" x="79" y="4.199999999999999" style="font-family: 'Open Sans', verdana, arial, sans-serif; font-size: 12px; fill: rgb(42, 63, 95); fill-opacity: 1; white-space: pre; opacity: 1;" transform="translate(0,329.01)">2000</text></g><g class="ytick"><text text-anchor="end" x="79" y="4.199999999999999" style="font-family: 'Open Sans', verdana, arial, sans-serif; font-size: 12px; fill: rgb(42, 63, 95); fill-opacity: 1; white-space: pre; opacity: 1;" transform="translate(0,283.52)">3000</text></g><g class="ytick"><text text-anchor="end" x="79" y="4.199999999999999" style="font-family: 'Open Sans', verdana, arial, sans-serif; font-size: 12px; fill: rgb(42, 63, 95); fill-opacity: 1; white-space: pre; opacity: 1;" transform="translate(0,238.02)">4000</text></g><g class="ytick"><text text-anchor="end" x="79" y="4.199999999999999" style="font-family: 'Open Sans', verdana, arial, sans-serif; font-size: 12px; fill: rgb(42, 63, 95); fill-opacity: 1; white-space: pre; opacity: 1;" transform="translate(0,192.53)">5000</text></g><g class="ytick"><text text-anchor="end" x="79" y="4.199999999999999" style="font-family: 'Open Sans', verdana, arial, sans-serif; font-size: 12px; fill: rgb(42, 63, 95); fill-opacity: 1; white-space: pre; opacity: 1;" transform="translate(0,147.04)">6000</text></g><g class="ytick"><text text-anchor="end" x="79" y="4.199999999999999" style="font-family: 'Open Sans', verdana, arial, sans-serif; font-size: 12px; fill: rgb(42, 63, 95); fill-opacity: 1; white-space: pre; opacity: 1;" transform="translate(0,101.54)">7000</text></g></g><g class="overaxes-above"/></g></g><g class="polarlayer"/><g class="ternarylayer"/><g class="geolayer"/><g class="funnelarealayer"/><g class="pielayer"/><g class="iciclelayer"/><g class="treemaplayer"/><g class="sunburstlayer"/><g class="glimages"/><defs id="topdefs-d037cc"><g class="clips"/></defs><g class="layer-above"><g class="imagelayer"/><g class="shapelayer"/></g><g class="infolayer"><g class="g-gtitle"><text class="gtitle" x="35" y="50" text-anchor="start" dy="0em" style="font-family: 'Open Sans', verdana, arial, sans-serif; font-size: 17px; fill: rgb(42, 63, 95); opacity: 1; font-weight: normal; white-space: pre;">Rank Variance: ascad_100-ascad_mlp (with early stopping)</text></g><g class="g-xtitle"/><g class="g-ytitle"/></g></svg>