<svg class="main-svg" xmlns="http://www.w3.org/2000/svg" xmlns:xlink="http://www.w3.org/1999/xlink" width="700" height="500" style="" viewBox="0 0 700 500"><rect x="0" y="0" width="700" height="500" style="fill: rgb(255, 255, 255); fill-opacity: 1;"/><defs id="defs-0eb42c"><g class="clips"><clipPath id="clip0eb42cxyplot" class="plotclip"><rect width="540" height="320"/></clipPath><clipPath class="axesclip" id="clip0eb42cx"><rect x="80" y="0" width="540" height="500"/></clipPath><clipPath class="axesclip" id="clip0eb42cy"><rect x="0" y="100" width="700" height="320"/></clipPath><clipPath class="axesclip" id="clip0eb42cxy"><rect x="80" y="100" width="540" height="320"/></clipPath></g><g class="gradients"/><g class="patterns"/></defs><g class="bglayer"><rect class="bg" x="80" y="100" width="540" height="320" style="fill: rgb(229, 236, 246); fill-opacity: 1; stroke-width: 0;"/></g><g class="layer-below"><g class="imagelayer"/><g class="shapelayer"/></g><g class="cartesianlayer"><g class="subplot xy"><g class="layer-subplot"><g class="shapelayer"/><g class="imagelayer"/></g><g class="gridlayer"><g class="x"><path class="xgrid crisp" transform="translate(190.2,0)" d="M0,100v320" style="stroke: rgb(255, 255, 255); stroke-opacity: 1; stroke-width: 1px;"/><path class="xgrid crisp" transform="translate(300.40999999999997,0)" d="M0,100v320" style="stroke: rgb(255, 255, 255); stroke-opacity: 1; stroke-width: 1px;"/><path class="xgrid crisp" transform="translate(410.61,0)" d="M0,100v320" style="stroke: rgb(255, 255, 255); stroke-opacity: 1; stroke-width: 1px;"/><path class="xgrid crisp" transform="translate(520.8199999999999,0)" d="M0,100v320" style="stroke: rgb(255, 255, 255); stroke-opacity: 1; stroke-width: 1px;"/></g><g class="y"><path class="ygrid crisp" transform="translate(0,344.05)" d="M80,0h540" style="stroke: rgb(255, 255, 255); stroke-opacity: 1; stroke-width: 1px;"/><path class="ygrid crisp" transform="translate(0,265.81)" d="M80,0h540" style="stroke: rgb(255, 255, 255); stroke-opacity: 1; stroke-width: 1px;"/><path class="ygrid crisp" transform="translate(0,187.57)" d="M80,0h540" style="stroke: rgb(255, 255, 255); stroke-opacity: 1; stroke-width: 1px;"/><path class="ygrid crisp" transform="translate(0,109.33)" d="M80,0h540" style="stroke: rgb(255, 255, 255); stroke-opacity: 1; stroke-width: 1px;"/></g></g><g class="zerolinelayer"><path class="xzl zl crisp" transform="translate(80,0)" d="M0,100v320" style="stroke: rgb(255, 255, 255); stroke-opacity: 1; stroke-width: 2px;"/></g><path class="xlines-below"/><path class="ylines-below"/><g class="overlines-below"/><g class="xaxislayer-below"/><g class="yaxislayer-below"/><g class="overaxes-below"/><g class="plot" transform="translate(80,100)" clip-path="url(#clip0eb42cxyplot)"><g class="scatterlayer mlayer"><g class="trace scatter trace8468db" style="stroke-miterlimit: 2; opacity: 1;"><g class="fills"/><g class="errorbars"/><g class="lines"><path class="js-line" d="M0,1.44L11.02,8.39L22.04,25.41L33.06,51.48L44.08,71.79L88.16,128.96L99.18,141.84L110.2,153.45L121.22,163.45L132.24,172.69L143.27,180.5L165.31,193.49L176.33,198.89L187.35,204.02L198.37,208.19L220.41,216.54L231.43,219.91L264.49,229.87L275.51,232.76L330.61,245.4L341.63,247.47L352.65,249.31L363.67,251.97L462.86,268.37L473.88,269.96L495.92,272.28L506.94,273.83L540,278.1" style="vector-effect: non-scaling-stroke; fill: none; stroke: rgb(99, 110, 250); stroke-opacity: 1; stroke-width: 2px; opacity: 1;"/></g><g class="points"/><g class="text"/></g><g class="trace scatter trace715177" style="stroke-miterlimit: 2; opacity: 1;"><g class="fills"/><g class="errorbars"/><g class="lines"><path class="js-line" d="M0,1.51L11.02,8.43L22.04,25.79L33.06,51.89L44.08,72.28L88.16,130.78L99.18,143.51L110.2,155.06L121.22,164.84L132.24,174.01L143.27,181.63L165.31,194.37L176.33,199.67L187.35,204.74L198.37,208.9L220.41,217.15L231.43,220.49L253.47,227.33L264.49,230.44L308.57,241.31L319.59,243.58L363.67,252.39L374.69,254.34L429.8,263.6L440.82,265.49L484.9,271.33L495.92,272.61L540,278.44" style="vector-effect: non-scaling-stroke; fill: none; stroke: rgb(239, 85, 59); stroke-opacity: 1; stroke-width: 2px; opacity: 1;"/></g><g class="points"/><g class="text"/></g><g class="trace scatter tracee6b3a2" style="stroke-miterlimit: 2; opacity: 1;"><g class="fills"/><g class="errorbars"/><g class="lines"><path class="js-line" d="M0,1.49L11.02,8.61L22.04,25.88L33.06,51.84L44.08,71.81L99.18,140.96L110.2,152.65L132.24,172.08L143.27,179.93L165.31,193.02L176.33,198.42L187.35,203.58L198.37,207.78L220.41,216.14L231.43,219.38L253.47,226.39L264.49,229.5L297.55,237.91L308.57,240.56L374.69,253.71L385.71,255.48L429.8,262.72L440.82,264.71L473.88,269.85L484.9,270.74L540,278.24" style="vector-effect: non-scaling-stroke; fill: none; stroke: rgb(0, 204, 150); stroke-opacity: 1; stroke-width: 2px; opacity: 1;"/></g><g class="points"/><g class="text"/></g><g class="trace scatter traceb637f8" style="stroke-miterlimit: 2; opacity: 1;"><g class="fills"/><g class="errorbars"/><g class="lines"><path class="js-line" d="M0,0.18L11.02,5.89L22.04,16.93L44.08,59.72L55.1,76.79L77.14,107.49L88.16,121.48L99.18,134.92L110.2,146.21L121.22,156.11L132.24,164.41L143.27,172L154.29,178.6L165.31,184.38L176.33,189.09L198.37,198.45L209.39,202.59L231.43,209.99L242.45,213.28L319.59,231.84L330.61,234.45L352.65,237.99L363.67,240.64L429.8,251.58L440.82,253.13L451.84,254.35L462.86,256.45L540,266.56" style="vector-effect: non-scaling-stroke; fill: none; stroke: rgb(171, 99, 250); stroke-opacity: 1; stroke-width: 2px; opacity: 1;"/></g><g class="points"/><g class="text"/></g><g class="trace scatter trace31f3ba" style="stroke-miterlimit: 2; opacity: 1;"><g class="fills"/><g class="errorbars"/><g class="lines"><path class="js-line" d="M0,1.45L11.02,8.36L22.04,25.23L33.06,51.2L44.08,71.48L88.16,128.01L99.18,140.91L110.2,152.61L121.22,162.73L132.24,172.12L143.27,179.94L165.31,193.05L176.33,198.5L187.35,203.67L198.37,207.87L220.41,216.27L231.43,219.71L264.49,229.7L275.51,232.53L330.61,245.21L341.63,247.26L396.73,257.19L407.76,259.59L429.8,262.91L440.82,264.81L484.9,270.86L495.92,272.17L540,277.97" style="vector-effect: non-scaling-stroke; fill: none; stroke: rgb(255, 161, 90); stroke-opacity: 1; stroke-width: 2px; opacity: 1;"/></g><g class="points"/><g class="text"/></g><g class="trace scatter trace0d70eb" style="stroke-miterlimit: 2; opacity: 1;"><g class="fills"/><g class="errorbars"/><g class="lines"><path class="js-line" d="M0,1.41L11.02,8.43L22.04,25.34L33.06,51.39L44.08,71.72L88.16,128.91L99.18,141.8L110.2,153.42L121.22,163.42L132.24,172.74L143.27,180.5L165.31,193.46L176.33,198.87L187.35,204L198.37,208.18L220.41,216.53L231.43,219.9L264.49,229.87L275.51,232.74L330.61,245.41L341.63,247.57L352.65,249.3L363.67,252L451.84,266.7L462.86,268.41L484.9,271.01L495.92,272.27L528.98,276.99L540,278.11" style="vector-effect: non-scaling-stroke; fill: none; stroke: rgb(25, 211, 243); stroke-opacity: 1; stroke-width: 2px; opacity: 1;"/></g><g class="points"/><g class="text"/></g><g class="trace scatter trace4974dd" style="stroke-miterlimit: 2; opacity: 1;"><g class="fills"/><g class="errorbars"/><g class="lines"><path class="js-line" d="M0,1.46L11.02,8.39L22.04,25.61L33.06,51.64L44.08,71.92L88.16,129.04L99.18,141.91L110.2,153.52L121.22,163.54L132.24,172.82L143.27,180.55L165.31,193.54L176.33,198.95L187.35,204.07L198.37,208.24L220.41,216.6L231.43,219.98L264.49,229.94L275.51,232.81L330.61,245.49L341.63,247.56L352.65,249.39L363.67,252.03L451.84,266.73L462.86,268.44L484.9,271.05L495.92,272.35L540,278.15" style="vector-effect: non-scaling-stroke; fill: none; stroke: rgb(255, 102, 146); stroke-opacity: 1; stroke-width: 2px; opacity: 1;"/></g><g class="points"/><g class="text"/></g><g class="trace scatter tracef85082" style="stroke-miterlimit: 2; opacity: 1;"><g class="fills"/><g class="errorbars"/><g class="lines"><path class="js-line" d="M0,1.45L11.02,8.4L22.04,25.49L33.06,51.55L44.08,71.79L88.16,128.66L99.18,141.55L110.2,153.18L121.22,163.24L132.24,172.55L143.27,180.33L165.31,193.35L176.33,198.78L187.35,203.93L198.37,208.1L220.41,216.48L231.43,219.87L264.49,229.84L275.51,232.71L330.61,245.36L341.63,247.42L396.73,257.47L407.76,259.7L429.8,263.06L440.82,264.96L484.9,270.97L495.92,272.26L540,278.07" style="vector-effect: non-scaling-stroke; fill: none; stroke: rgb(182, 232, 128); stroke-opacity: 1; stroke-width: 2px; opacity: 1;"/></g><g class="points"/><g class="text"/></g><g class="trace scatter trace874a7f" style="stroke-miterlimit: 2; opacity: 1;"><g class="fills"/><g class="errorbars"/><g class="lines"><path class="js-line" d="M0,1.45L11.02,8.38L22.04,25.3L33.06,51.32L44.08,71.55L88.16,127.98L99.18,140.9L110.2,152.58L121.22,162.75L132.24,172.03L143.27,179.89L165.31,193.01L176.33,198.48L187.35,203.65L198.37,207.84L220.41,216.25L231.43,219.67L264.49,229.65L275.51,232.51L330.61,245.17L341.63,247.25L396.73,257.14L407.76,259.51L429.8,262.85L440.82,264.77L484.9,270.84L495.92,272.07L540,277.99" style="vector-effect: non-scaling-stroke; fill: none; stroke: rgb(255, 151, 255); stroke-opacity: 1; stroke-width: 2px; opacity: 1;"/></g><g class="points"/><g class="text"/></g><g class="trace scatter trace968136" style="stroke-miterlimit: 2; opacity: 1;"><g class="fills"/><g class="errorbars"/><g class="lines"><path class="js-line" d="M0,1.45L11.02,8.37L22.04,25.24L33.06,51.22L44.08,71.47L88.16,127.86L99.18,140.79L110.2,152.48L121.22,162.66L132.24,171.96L143.27,179.84L165.31,192.97L176.33,198.43L187.35,203.6L198.37,207.81L220.41,216.23L231.43,219.64L264.49,229.63L275.51,232.49L330.61,245.16L341.63,247.24L352.65,249.05L363.67,251.72L473.88,269.7L484.9,270.81L517.96,275.03L528.98,276.74L540,277.91" style="vector-effect: non-scaling-stroke; fill: none; stroke: rgb(254, 203, 82); stroke-opacity: 1; stroke-width: 2px; opacity: 1;"/></g><g class="points"/><g class="text"/></g><g class="trace scatter traceb8482b" style="stroke-miterlimit: 2; opacity: 1;"><g class="fills"/><g class="errorbars"/><g class="lines"><path class="js-line" d="M0,1.45L11.02,8.36L22.04,25.23L33.06,51.2L44.08,71.48L88.16,128.01L99.18,140.91L110.2,152.61L121.22,162.73L132.24,172.12L143.27,179.94L165.31,193.05L176.33,198.5L187.35,203.67L198.37,207.87L220.41,216.27L231.43,219.71L264.49,229.7L275.51,232.53L330.61,245.21L341.63,247.26L396.73,257.19L407.76,259.59L429.8,262.91L440.82,264.81L484.9,270.86L495.92,272.17L540,277.97" style="vector-effect: non-scaling-stroke; fill: none; stroke: rgb(99, 110, 250); stroke-opacity: 1; stroke-width: 2px; opacity: 1;"/></g><g class="points"/><g class="text"/></g><g class="trace scatter trace9892f8" style="stroke-miterlimit: 2; opacity: 1;"><g class="fills"/><g class="errorbars"/><g class="lines"><path class="js-line" d="M0,1.41L11.02,8.28L22.04,24.97L33.06,51.11L44.08,71.7L88.16,129.63L99.18,142.47L110.2,154.05L121.22,164.01L132.24,173.22L143.27,180.92L165.31,193.84L176.33,199.19L187.35,204.35L198.37,208.52L220.41,216.87L231.43,220.23L253.47,227.09L264.49,230.21L308.57,241.09L319.59,243.38L374.69,254.07L385.71,255.72L407.76,260L418.78,261.24L451.84,266.78L462.86,268.53L484.9,271.09L495.92,272.37L540,278.25" style="vector-effect: non-scaling-stroke; fill: none; stroke: rgb(239, 85, 59); stroke-opacity: 1; stroke-width: 2px; opacity: 1;"/></g><g class="points"/><g class="text"/></g><g class="trace scatter trace62fe6b" style="stroke-miterlimit: 2; opacity: 1;"><g class="fills"/><g class="errorbars"/><g class="lines"><path class="js-line" d="M0,1.45L11.02,8.36L22.04,25.24L33.06,51.21L44.08,71.48L88.16,128.01L99.18,140.92L110.2,152.61L121.22,162.75L132.24,172.05L143.27,179.91L165.31,193.03L176.33,198.49L187.35,203.66L198.37,207.87L220.41,216.26L231.43,219.69L264.49,229.67L275.51,232.54L330.61,245.18L341.63,247.24L396.73,257.13L407.76,259.55L429.8,262.9L440.82,264.79L484.9,270.84L495.92,272.01L540,277.93" style="vector-effect: non-scaling-stroke; fill: none; stroke: rgb(0, 204, 150); stroke-opacity: 1; stroke-width: 2px; opacity: 1;"/></g><g class="points"/><g class="text"/></g><g class="trace scatter trace79161d" style="stroke-miterlimit: 2; opacity: 1;"><g class="fills"/><g class="errorbars"/><g class="lines"><path class="js-line" d="M0,1.45L11.02,8.36L22.04,25.23L33.06,51.2L44.08,71.48L88.16,128.01L99.18,140.91L110.2,152.61L121.22,162.73L132.24,172.12L143.27,179.94L165.31,193.05L176.33,198.5L187.35,203.67L198.37,207.87L220.41,216.27L231.43,219.71L264.49,229.7L275.51,232.53L330.61,245.21L341.63,247.26L396.73,257.19L407.76,259.59L429.8,262.91L440.82,264.81L484.9,270.86L495.92,272.17L540,277.97" style="vector-effect: non-scaling-stroke; fill: none; stroke: rgb(171, 99, 250); stroke-opacity: 1; stroke-width: 2px; opacity: 1;"/></g><g class="points"/><g class="text"/></g><g class="trace scatter trace45f577" style="stroke-miterlimit: 2; opacity: 1;"><g class="fills"/><g class="errorbars"/><g class="lines"><path class="js-line" d="M0,1.51L11.02,8.17L22.04,25.14L33.06,50.96L44.08,70.97L88.16,124.84L99.18,137.64L110.2,149.57L121.22,160.08L132.24,169.69L143.27,177.83L165.31,191.39L176.33,196.97L187.35,202.32L198.37,206.66L231.43,218.75L242.45,222.34L275.51,231.76L286.53,234.36L308.57,239.97L319.59,242.1L374.69,252.82L385.71,254.39L407.76,258.65L418.78,259.94L451.84,265.49L462.86,267.26L484.9,269.95L495.92,271.03L517.96,274.32L528.98,276.1L540,277.21" style="vector-effect: non-scaling-stroke; fill: none; stroke: rgb(255, 161, 90); stroke-opacity: 1; stroke-width: 2px; opacity: 1;"/></g><g class="points"/><g class="text"/></g><g class="trace scatter trace41cca1" style="stroke-miterlimit: 2; opacity: 1;"><g class="fills"/><g class="errorbars"/><g class="lines"><path class="js-line" d="M0,1.45L11.02,8.37L22.04,25.3L33.06,51.31L44.08,71.56L88.16,128.08L99.18,141L110.2,152.67L121.22,162.78L132.24,172.1L143.27,179.95L165.31,193.06L176.33,198.51L187.35,203.67L198.37,207.87L220.41,216.26L231.43,219.68L264.49,229.67L275.51,232.55L330.61,245.2L341.63,247.22L396.73,257.2L407.76,259.57L429.8,262.91L440.82,264.8L484.9,270.86L495.92,272.13L540,277.95" style="vector-effect: non-scaling-stroke; fill: none; stroke: rgb(25, 211, 243); stroke-opacity: 1; stroke-width: 2px; opacity: 1;"/></g><g class="points"/><g class="text"/></g><g class="trace scatter trace26d14d" style="stroke-miterlimit: 2; opacity: 1;"><g class="fills"/><g class="errorbars"/><g class="lines"><path class="js-line" d="M0,1.45L11.02,8.38L22.04,25.32L33.06,51.33L44.08,71.57L88.16,128.11L99.18,141L110.2,152.7L121.22,162.81L132.24,172.1L143.27,179.97L165.31,193.07L176.33,198.53L187.35,203.69L198.37,207.88L220.41,216.28L231.43,219.71L264.49,229.69L275.51,232.53L330.61,245.22L341.63,247.27L352.65,249.14L363.67,251.79L462.86,268.22L473.88,269.82L506.94,273.67L517.96,275.09L540,277.96" style="vector-effect: non-scaling-stroke; fill: none; stroke: rgb(255, 102, 146); stroke-opacity: 1; stroke-width: 2px; opacity: 1;"/></g><g class="points"/><g class="text"/></g><g class="trace scatter trace04e0b0" style="stroke-miterlimit: 2; opacity: 1;"><g class="fills"/><g class="errorbars"/><g class="lines"><path class="js-line" d="M0,1.45L11.02,8.36L22.04,25.22L33.06,51.19L44.08,71.45L88.16,127.94L99.18,140.86L110.2,152.56L121.22,162.68L132.24,172.01L143.27,179.88L165.31,193L176.33,198.46L187.35,203.64L198.37,207.85L220.41,216.24L231.43,219.68L264.49,229.66L275.51,232.53L330.61,245.19L341.63,247.21L440.82,264.8L451.84,266.46L473.88,269.8L484.9,270.84L540,277.98" style="vector-effect: non-scaling-stroke; fill: none; stroke: rgb(182, 232, 128); stroke-opacity: 1; stroke-width: 2px; opacity: 1;"/></g><g class="points"/><g class="text"/></g><g class="trace scatter trace246464" style="stroke-miterlimit: 2; opacity: 1;"><g class="fills"/><g class="errorbars"/><g class="lines"><path class="js-line" d="M0,1.52L11.02,8.5L22.04,25.97L33.06,52.16L44.08,72.52L88.16,131.24L99.18,143.95L110.2,155.45L121.22,165.19L132.24,174.29L143.27,181.9L165.31,194.58L176.33,199.86L187.35,204.95L198.37,209.08L220.41,217.3L231.43,220.65L253.47,227.47L264.49,230.6L308.57,241.41L319.59,243.74L363.67,252.45L374.69,254.48L396.73,258.29L407.76,260.23L418.78,261.57L429.8,263.67L462.86,268.86L473.88,270.45L495.92,272.65L506.94,274.13L540,278.49" style="vector-effect: non-scaling-stroke; fill: none; stroke: rgb(255, 151, 255); stroke-opacity: 1; stroke-width: 2px; opacity: 1;"/></g><g class="points"/><g class="text"/></g><g class="trace scatter trace40bf2e" style="stroke-miterlimit: 2; opacity: 1;"><g class="fills"/><g class="errorbars"/><g class="lines"><path class="js-line" d="M0,1.49L11.02,8.61L22.04,25.91L33.06,51.84L44.08,71.8L99.18,140.87L110.2,152.57L132.24,172.02L143.27,179.88L165.31,192.98L176.33,198.39L187.35,203.54L198.37,207.75L220.41,216.12L231.43,219.37L253.47,226.37L264.49,229.47L308.57,240.55L319.59,242.79L341.63,247.38L352.65,249.16L374.69,253.7L385.71,255.44L440.82,264.69L451.84,266.46L473.88,269.83L484.9,270.7L540,278.19" style="vector-effect: non-scaling-stroke; fill: none; stroke: rgb(254, 203, 82); stroke-opacity: 1; stroke-width: 2px; opacity: 1;"/></g><g class="points"/><g class="text"/></g><g class="trace scatter trace45ec7b" style="stroke-miterlimit: 2; opacity: 1;"><g class="fills"/><g class="errorbars"/><g class="lines"><path class="js-line" d="M0,1.44L11.02,8.38L22.04,25.46L33.06,51.5L44.08,71.8L88.16,128.77L99.18,141.65L110.2,153.27L121.22,163.32L132.24,172.55L143.27,180.38L165.31,193.38L176.33,198.79L187.35,203.93L198.37,208.11L220.41,216.48L231.43,219.85L264.49,229.83L275.51,232.73L330.61,245.41L341.63,247.55L352.65,249.3L363.67,251.96L462.86,268.42L473.88,269.99L495.92,272.25L506.94,273.87L540,278.12" style="vector-effect: non-scaling-stroke; fill: none; stroke: rgb(99, 110, 250); stroke-opacity: 1; stroke-width: 2px; opacity: 1;"/></g><g class="points"/><g class="text"/></g><g class="trace scatter trace20a014" style="stroke-miterlimit: 2; opacity: 1;"><g class="fills"/><g class="errorbars"/><g class="lines"><path class="js-line" d="M0,1.44L11.02,8.39L22.04,25.42L33.06,51.48L44.08,71.79L88.16,128.96L99.18,141.84L110.2,153.44L121.22,163.46L132.24,172.69L143.27,180.49L165.31,193.49L176.33,198.88L187.35,204.01L198.37,208.17L220.41,216.55L231.43,219.91L264.49,229.88L275.51,232.73L330.61,245.41L341.63,247.5L352.65,249.31L363.67,251.97L451.84,266.66L462.86,268.33L484.9,270.99L495.92,272.29L540,278.07" style="vector-effect: non-scaling-stroke; fill: none; stroke: rgb(239, 85, 59); stroke-opacity: 1; stroke-width: 2px; opacity: 1;"/></g><g class="points"/><g class="text"/></g><g class="trace scatter tracee6566a" style="stroke-miterlimit: 2; opacity: 1;"><g class="fills"/><g class="errorbars"/><g class="lines"><path class="js-line" d="M0,1.45L11.02,8.36L22.04,25.22L33.06,51.19L44.08,71.45L88.16,127.94L99.18,140.86L110.2,152.56L121.22,162.68L132.24,172.01L143.27,179.88L165.31,193L176.33,198.46L187.35,203.63L198.37,207.84L220.41,216.24L231.43,219.68L264.49,229.66L275.51,232.53L330.61,245.2L341.63,247.22L396.73,257.16L407.76,259.56L429.8,262.9L440.82,264.8L484.9,270.84L495.92,272.16L540,277.97" style="vector-effect: non-scaling-stroke; fill: none; stroke: rgb(0, 204, 150); stroke-opacity: 1; stroke-width: 2px; opacity: 1;"/></g><g class="points"/><g class="text"/></g><g class="trace scatter trace5c2553" style="stroke-miterlimit: 2; opacity: 1;"><g class="fills"/><g class="errorbars"/><g class="lines"><path class="js-line" d="M0,1.45L11.02,8.36L22.04,25.22L33.06,51.19L44.08,71.45L88.16,127.94L99.18,140.86L110.2,152.56L121.22,162.68L132.24,172.01L143.27,179.89L165.31,193L176.33,198.46L187.35,203.64L198.37,207.85L220.41,216.25L231.43,219.68L264.49,229.66L275.51,232.53L330.61,245.18L341.63,247.19L440.82,264.8L451.84,266.47L473.88,269.81L484.9,270.85L540,277.98" style="vector-effect: non-scaling-stroke; fill: none; stroke: rgb(171, 99, 250); stroke-opacity: 1; stroke-width: 2px; opacity: 1;"/></g><g class="points"/><g class="text"/></g><g class="trace scatter trace7f018c" style="stroke-miterlimit: 2; opacity: 1;"><g class="fills"/><g class="errorbars"/><g class="lines"><path class="js-line" d="M0,1.46L11.02,8.36L22.04,25.38L33.06,51.37L44.08,71.57L88.16,127.87L99.18,140.72L110.2,152.47L121.22,162.63L132.24,171.98L143.27,179.8L165.31,192.98L176.33,198.42L187.35,203.62L198.37,207.85L220.41,216.31L231.43,219.73L264.49,229.73L275.51,232.58L330.61,245.24L341.63,247.1L407.76,259.62L418.78,260.98L451.84,266.5L462.86,268.25L484.9,270.84L495.92,272.16L540,278" style="vector-effect: non-scaling-stroke; fill: none; stroke: rgb(255, 161, 90); stroke-opacity: 1; stroke-width: 2px; opacity: 1;"/></g><g class="points"/><g class="text"/></g><g class="trace scatter traceb96798" style="stroke-miterlimit: 2; opacity: 1;"><g class="fills"/><g class="errorbars"/><g class="lines"><path class="js-line" d="M0,1.45L11.02,8.37L22.04,25.29L33.06,51.3L44.08,71.53L88.16,127.97L99.18,140.88L110.2,152.57L121.22,162.75L132.24,172.03L143.27,179.89L165.31,193.01L176.33,198.48L187.35,203.64L198.37,207.86L220.41,216.25L231.43,219.67L264.49,229.65L275.51,232.52L330.61,245.19L341.63,247.25L396.73,257.15L407.76,259.53L429.8,262.87L440.82,264.79L484.9,270.84L495.92,272.11L540,277.93" style="vector-effect: non-scaling-stroke; fill: none; stroke: rgb(25, 211, 243); stroke-opacity: 1; stroke-width: 2px; opacity: 1;"/></g><g class="points"/><g class="text"/></g><g class="trace scatter traceed2e7f" style="stroke-miterlimit: 2; opacity: 1;"><g class="fills"/><g class="errorbars"/><g class="lines"><path class="js-line" d="M0,2.2L11.02,12.44L22.04,31.36L33.06,52.25L44.08,68.03L55.1,80.15L66.12,89.31L88.16,106.71L99.18,115.94L110.2,124.77L121.22,134.6L132.24,144.34L143.27,152.77L165.31,167.6L176.33,173.59L198.37,184.56L209.39,189.47L253.47,204.92L264.49,208.19L308.57,219.17L319.59,221.78L374.69,233.27L385.71,235.09L440.82,243.75L451.84,245.59L540,257.34" style="vector-effect: non-scaling-stroke; fill: none; stroke: rgb(255, 102, 146); stroke-opacity: 1; stroke-width: 2px; opacity: 1;"/></g><g class="points"/><g class="text"/></g><g class="trace scatter trace16dde7" style="stroke-miterlimit: 2; opacity: 1;"><g class="fills"/><g class="errorbars"/><g class="lines"><path class="js-line" d="M0,1.45L11.02,8.36L22.04,25.22L33.06,51.19L44.08,71.45L88.16,127.94L99.18,140.86L110.2,152.56L121.22,162.68L132.24,172.01L143.27,179.88L165.31,193L176.33,198.46L187.35,203.64L198.37,207.85L220.41,216.25L231.43,219.68L264.49,229.66L275.51,232.53L330.61,245.18L341.63,247.19L440.82,264.8L451.84,266.46L473.88,269.8L484.9,270.85L540,277.98" style="vector-effect: non-scaling-stroke; fill: none; stroke: rgb(182, 232, 128); stroke-opacity: 1; stroke-width: 2px; opacity: 1;"/></g><g class="points"/><g class="text"/></g><g class="trace scatter trace121577" style="stroke-miterlimit: 2; opacity: 1;"><g class="fills"/><g class="errorbars"/><g class="lines"><path class="js-line" d="M0,1.44L11.02,8.39L22.04,25.44L33.06,51.48L44.08,71.78L88.16,128.8L99.18,141.69L110.2,153.31L121.22,163.36L132.24,172.59L143.27,180.41L165.31,193.41L176.33,198.83L187.35,203.97L198.37,208.13L220.41,216.51L231.43,219.9L264.49,229.84L275.51,232.73L330.61,245.36L341.63,247.47L352.65,249.26L363.67,251.94L473.88,269.94L484.9,270.97L540,278.08" style="vector-effect: non-scaling-stroke; fill: none; stroke: rgb(255, 151, 255); stroke-opacity: 1; stroke-width: 2px; opacity: 1;"/></g><g class="points"/><g class="text"/></g><g class="trace scatter traced78d2f" style="stroke-miterlimit: 2; opacity: 1;"><g class="fills"/><g class="errorbars"/><g class="lines"><path class="js-line" d="M0,1.52L11.02,8.54L22.04,26.15L33.06,52.43L44.08,72.77L88.16,131.77L99.18,144.43L110.2,155.87L121.22,165.56L132.24,174.62L143.27,182.2L165.31,194.82L176.33,200.07L187.35,205.1L198.37,209.26L220.41,217.46L231.43,220.78L253.47,227.61L264.49,230.73L308.57,241.56L319.59,243.87L374.69,254.54L385.71,256.26L407.76,260.36L418.78,261.66L440.82,265.62L451.84,267.22L473.88,270.52L484.9,271.46L517.96,275.77L528.98,277.38L540,278.55" style="vector-effect: non-scaling-stroke; fill: none; stroke: rgb(254, 203, 82); stroke-opacity: 1; stroke-width: 2px; opacity: 1;"/></g><g class="points"/><g class="text"/></g><g class="trace scatter trace1a80e4" style="stroke-miterlimit: 2; opacity: 1;"><g class="fills"/><g class="errorbars"/><g class="lines"><path class="js-line" d="M0,1.45L11.02,8.36L22.04,25.22L33.06,51.19L44.08,71.46L88.16,128.01L99.18,140.92L110.2,152.61L121.22,162.77L132.24,172.06L143.27,179.93L165.31,193.04L176.33,198.51L187.35,203.68L198.37,207.89L220.41,216.28L231.43,219.71L264.49,229.7L275.51,232.54L330.61,245.2L341.63,247.24L440.82,264.81L451.84,266.47L473.88,269.81L484.9,270.85L540,277.98" style="vector-effect: non-scaling-stroke; fill: none; stroke: rgb(99, 110, 250); stroke-opacity: 1; stroke-width: 2px; opacity: 1;"/></g><g class="points"/><g class="text"/></g><g class="trace scatter trace26d836" style="stroke-miterlimit: 2; opacity: 1;"><g class="fills"/><g class="errorbars"/><g class="lines"><path class="js-line" d="M0,1.45L11.02,8.36L22.04,25.22L33.06,51.19L44.08,71.45L88.16,127.95L99.18,140.86L110.2,152.56L121.22,162.68L132.24,172.01L143.27,179.89L165.31,193L176.33,198.46L187.35,203.64L198.37,207.84L220.41,216.24L231.43,219.68L264.49,229.66L275.51,232.53L330.61,245.18L341.63,247.19L440.82,264.8L451.84,266.46L473.88,269.8L484.9,270.85L540,277.98" style="vector-effect: non-scaling-stroke; fill: none; stroke: rgb(239, 85, 59); stroke-opacity: 1; stroke-width: 2px; opacity: 1;"/></g><g class="points"/><g class="text"/></g><g class="trace scatter trace02395e" style="stroke-miterlimit: 2; opacity: 1;"><g class="fills"/><g class="errorbars"/><g class="lines"><path class="js-line" d="M0,1.5L11.02,8.2L22.04,25.25L33.06,51.12L44.08,71.16L99.18,138.98L110.2,150.82L132.24,170.72L143.27,178.68L165.31,192.09L176.33,197.64L187.35,202.91L198.37,207.16L220.41,215.68L231.43,219.17L264.49,229.2L275.51,232.11L330.61,244.71L341.63,246.83L396.73,256.64L407.76,259.07L429.8,262.43L440.82,264.32L484.9,270.51L495.92,271.43L528.98,276.53L540,277.72" style="vector-effect: non-scaling-stroke; fill: none; stroke: rgb(0, 204, 150); stroke-opacity: 1; stroke-width: 2px; opacity: 1;"/></g><g class="points"/><g class="text"/></g><g class="trace scatter traceb39adf" style="stroke-miterlimit: 2; opacity: 1;"><g class="fills"/><g class="errorbars"/><g class="lines"><path class="js-line" d="M0,1.45L11.02,8.38L22.04,25.31L33.06,51.32L44.08,71.56L88.16,128.08L99.18,140.98L110.2,152.68L121.22,162.84L132.24,172.11L143.27,179.97L165.31,193.07L176.33,198.53L187.35,203.7L198.37,207.91L220.41,216.31L231.43,219.71L264.49,229.71L275.51,232.54L330.61,245.22L341.63,247.33L352.65,249.1L363.67,251.77L473.88,269.83L484.9,270.86L517.96,275.03L528.98,276.8L540,277.97" style="vector-effect: non-scaling-stroke; fill: none; stroke: rgb(171, 99, 250); stroke-opacity: 1; stroke-width: 2px; opacity: 1;"/></g><g class="points"/><g class="text"/></g><g class="trace scatter trace01d518" style="stroke-miterlimit: 2; opacity: 1;"><g class="fills"/><g class="errorbars"/><g class="lines"><path class="js-line" d="M0,2.23L11.02,12.51L22.04,31.48L33.06,52.39L44.08,68.15L55.1,80.28L66.12,89.6L77.14,98.13L88.16,107.73L132.24,147.17L143.27,155.68L165.31,170.07L176.33,176.01L198.37,186.53L209.39,191.28L253.47,206.56L264.49,209.48L297.55,217.77L308.57,219.94L341.63,227.19L352.65,229.23L407.76,239.11L418.78,240.32L429.8,241.53L440.82,243.56L506.94,252.65L517.96,253.95L528.98,254.66L540,256.36" style="vector-effect: non-scaling-stroke; fill: none; stroke: rgb(255, 161, 90); stroke-opacity: 1; stroke-width: 2px; opacity: 1;"/></g><g class="points"/><g class="text"/></g><g class="trace scatter trace698c6f" style="stroke-miterlimit: 2; opacity: 1;"><g class="fills"/><g class="errorbars"/><g class="lines"><path class="js-line" d="M0,1.46L11.02,8.48L22.04,25.71L33.06,51.74L44.08,71.9L88.16,128.35L99.18,141.16L110.2,152.86L121.22,162.99L132.24,172.26L143.27,180.09L165.31,193.19L176.33,198.62L187.35,203.79L198.37,207.97L220.41,216.4L231.43,219.84L264.49,229.79L275.51,232.67L330.61,245.29L341.63,247.24L407.76,259.6L418.78,260.97L451.84,266.5L462.86,268.24L484.9,270.89L495.92,272.16L540,278.04" style="vector-effect: non-scaling-stroke; fill: none; stroke: rgb(25, 211, 243); stroke-opacity: 1; stroke-width: 2px; opacity: 1;"/></g><g class="points"/><g class="text"/></g><g class="trace scatter tracefa4609" style="stroke-miterlimit: 2; opacity: 1;"><g class="fills"/><g class="errorbars"/><g class="lines"><path class="js-line" d="M0,1.47L11.02,8.38L22.04,25.45L33.06,51.52L44.08,71.75L88.16,128.38L99.18,141.25L110.2,152.94L121.22,163.05L132.24,172.36L143.27,180.15L165.31,193.23L176.33,198.67L187.35,203.83L198.37,208.01L220.41,216.43L231.43,219.82L264.49,229.81L275.51,232.66L330.61,245.31L341.63,247.33L429.8,263.05L440.82,264.9L473.88,269.93L484.9,270.94L517.96,275.09L528.98,276.88L540,278.03" style="vector-effect: non-scaling-stroke; fill: none; stroke: rgb(255, 102, 146); stroke-opacity: 1; stroke-width: 2px; opacity: 1;"/></g><g class="points"/><g class="text"/></g><g class="trace scatter tracefef457" style="stroke-miterlimit: 2; opacity: 1;"><g class="fills"/><g class="errorbars"/><g class="lines"><path class="js-line" d="M0,1.45L11.02,8.36L22.04,25.22L33.06,51.19L44.08,71.45L88.16,127.94L99.18,140.86L110.2,152.56L121.22,162.68L132.24,172.01L143.27,179.88L165.31,193L176.33,198.46L187.35,203.63L198.37,207.84L220.41,216.25L231.43,219.66L264.49,229.66L275.51,232.52L330.61,245.17L341.63,247.24L396.73,257.14L407.76,259.52L429.8,262.91L440.82,264.79L484.9,270.84L495.92,272.16L540,277.98" style="vector-effect: non-scaling-stroke; fill: none; stroke: rgb(182, 232, 128); stroke-opacity: 1; stroke-width: 2px; opacity: 1;"/></g><g class="points"/><g class="text"/></g><g class="trace scatter trace92c1dc" style="stroke-miterlimit: 2; opacity: 1;"><g class="fills"/><g class="errorbars"/><g class="lines"><path class="js-line" d="M0,2.25L11.02,12.47L22.04,31.48L33.06,52.43L44.08,68.24L55.1,80.29L66.12,89.44L88.16,106.74L99.18,115.89L121.22,134.39L132.24,144.1L154.29,160.21L165.31,167.39L187.35,179.26L198.37,184.44L209.39,189.34L220.41,193.28L253.47,204.94L264.49,208.19L308.57,219.02L319.59,221.88L385.71,234.89L396.73,236.63L418.78,240.43L429.8,241.5L451.84,245.45L462.86,247.05L473.88,248.18L484.9,250.17L540,257.42" style="vector-effect: non-scaling-stroke; fill: none; stroke: rgb(255, 151, 255); stroke-opacity: 1; stroke-width: 2px; opacity: 1;"/></g><g class="points"/><g class="text"/></g><g class="trace scatter trace4f2403" style="stroke-miterlimit: 2; opacity: 1;"><g class="fills"/><g class="errorbars"/><g class="lines"><path class="js-line" d="M0,1.44L11.02,8.39L22.04,25.44L33.06,51.49L44.08,71.79L88.16,128.8L99.18,141.68L110.2,153.3L121.22,163.34L132.24,172.64L143.27,180.41L165.31,193.42L176.33,198.83L187.35,203.98L198.37,208.15L220.41,216.51L231.43,219.91L264.49,229.86L275.51,232.74L330.61,245.38L341.63,247.48L352.65,249.31L363.67,251.95L451.84,266.63L462.86,268.32L484.9,270.98L495.92,272.29L540,278.05" style="vector-effect: non-scaling-stroke; fill: none; stroke: rgb(254, 203, 82); stroke-opacity: 1; stroke-width: 2px; opacity: 1;"/></g><g class="points"/><g class="text"/></g><g class="trace scatter tracee106b0" style="stroke-miterlimit: 2; opacity: 1;"><g class="fills"/><g class="errorbars"/><g class="lines"><path class="js-line" d="M0,1.45L11.02,8.37L22.04,25.3L33.06,51.31L44.08,71.55L88.16,128L99.18,140.91L110.2,152.6L121.22,162.73L132.24,172.05L143.27,179.91L165.31,193.02L176.33,198.49L187.35,203.66L198.37,207.87L220.41,216.26L231.43,219.67L264.49,229.66L275.51,232.53L330.61,245.18L341.63,247.25L396.73,257.14L407.76,259.54L429.8,262.88L440.82,264.79L484.9,270.84L495.92,272.11L540,277.97" style="vector-effect: non-scaling-stroke; fill: none; stroke: rgb(99, 110, 250); stroke-opacity: 1; stroke-width: 2px; opacity: 1;"/></g><g class="points"/><g class="text"/></g><g class="trace scatter traceb312db" style="stroke-miterlimit: 2; opacity: 1;"><g class="fills"/><g class="errorbars"/><g class="lines"><path class="js-line" d="M0,2.3L11.02,12.69L22.04,31.76L33.06,52.67L44.08,68.53L55.1,80.74L66.12,90.49L77.14,99.75L88.16,110.29L121.22,141.88L132.24,151.61L143.27,159.85L154.29,167.1L176.33,179.29L187.35,184.61L209.39,194L220.41,197.69L253.47,209.02L264.49,211.72L297.55,219.93L308.57,221.87L341.63,228.98L352.65,230.87L418.78,241.61L429.8,242.63L451.84,246.42L462.86,247.85L484.9,250.89L495.92,252.34L517.96,254.94L528.98,256.02L540,257.6" style="vector-effect: non-scaling-stroke; fill: none; stroke: rgb(239, 85, 59); stroke-opacity: 1; stroke-width: 2px; opacity: 1;"/></g><g class="points"/><g class="text"/></g><g class="trace scatter traceff76f4" style="stroke-miterlimit: 2; opacity: 1;"><g class="fills"/><g class="errorbars"/><g class="lines"><path class="js-line" d="M0,2.32L11.02,12.72L22.04,31.87L33.06,52.68L44.08,68.29L55.1,80.35L66.12,89.6L77.14,98.02L88.16,107.4L132.24,146.18L143.27,154.64L165.31,169.2L176.33,175.16L198.37,185.8L209.39,190.7L231.43,198.32L242.45,202.56L264.49,209.09L275.51,212L341.63,227.15L352.65,229.31L407.76,239.32L418.78,240.57L440.82,243.9L451.84,245.53L517.96,254.42L528.98,255.28L540,257.01" style="vector-effect: non-scaling-stroke; fill: none; stroke: rgb(0, 204, 150); stroke-opacity: 1; stroke-width: 2px; opacity: 1;"/></g><g class="points"/><g class="text"/></g><g class="trace scatter tracead5395" style="stroke-miterlimit: 2; opacity: 1;"><g class="fills"/><g class="errorbars"/><g class="lines"><path class="js-line" d="M0,1.48L11.02,8.66L22.04,26.01L33.06,52.08L44.08,72L99.18,141.08L110.2,152.75L132.24,172.18L143.27,180.01L165.31,193.08L176.33,198.51L187.35,203.66L198.37,207.86L220.41,216.21L231.43,219.49L253.47,226.46L264.49,229.62L308.57,240.61L319.59,242.8L341.63,247.42L352.65,249.18L374.69,253.76L385.71,255.46L462.86,268.27L473.88,269.87L495.92,272.13L506.94,273.84L540,278.17" style="vector-effect: non-scaling-stroke; fill: none; stroke: rgb(171, 99, 250); stroke-opacity: 1; stroke-width: 2px; opacity: 1;"/></g><g class="points"/><g class="text"/></g><g class="trace scatter trace1a3d38" style="stroke-miterlimit: 2; opacity: 1;"><g class="fills"/><g class="errorbars"/><g class="lines"><path class="js-line" d="M0,2.31L11.02,12.59L22.04,31.66L33.06,52.43L44.08,68.1L55.1,80.16L66.12,89.35L77.14,97.72L88.16,107.07L132.24,145.89L143.27,154.39L165.31,168.96L176.33,174.98L198.37,185.6L209.39,190.46L253.47,205.87L264.49,208.83L297.55,217.2L308.57,219.54L341.63,226.76L352.65,228.81L385.71,235.23L396.73,236.79L407.76,238.92L418.78,240.17L440.82,243.47L451.84,245.11L495.92,250.75L506.94,252.72L540,256.52" style="vector-effect: non-scaling-stroke; fill: none; stroke: rgb(255, 161, 90); stroke-opacity: 1; stroke-width: 2px; opacity: 1;"/></g><g class="points"/><g class="text"/></g><g class="trace scatter tracebaf008" style="stroke-miterlimit: 2; opacity: 1;"><g class="fills"/><g class="errorbars"/><g class="lines"><path class="js-line" d="M0,1.5L11.02,8.4L22.04,25.63L33.06,51.72L44.08,71.94L88.16,128.85L99.18,141.72L110.2,153.33L121.22,163.37L132.24,172.66L143.27,180.43L165.31,193.44L176.33,198.86L187.35,204L198.37,208.17L220.41,216.54L231.43,219.94L264.49,229.9L275.51,232.76L330.61,245.42L341.63,247.43L440.82,264.98L451.84,266.64L473.88,269.95L484.9,270.99L540,278.09" style="vector-effect: non-scaling-stroke; fill: none; stroke: rgb(25, 211, 243); stroke-opacity: 1; stroke-width: 2px; opacity: 1;"/></g><g class="points"/><g class="text"/></g><g class="trace scatter tracea74051" style="stroke-miterlimit: 2; opacity: 1;"><g class="fills"/><g class="errorbars"/><g class="lines"><path class="js-line" d="M0,1.45L11.02,8.38L22.04,25.29L33.06,51.32L44.08,71.54L88.16,127.9L99.18,140.83L110.2,152.51L121.22,162.7L132.24,171.98L143.27,179.85L165.31,192.98L176.33,198.45L187.35,203.61L198.37,207.82L220.41,216.23L231.43,219.65L264.49,229.64L275.51,232.51L330.61,245.17L341.63,247.19L451.84,266.41L462.86,268.11L484.9,270.81L495.92,272.01L540,277.93" style="vector-effect: non-scaling-stroke; fill: none; stroke: rgb(255, 102, 146); stroke-opacity: 1; stroke-width: 2px; opacity: 1;"/></g><g class="points"/><g class="text"/></g><g class="trace scatter trace5b742a" style="stroke-miterlimit: 2; opacity: 1;"><g class="fills"/><g class="errorbars"/><g class="lines"><path class="js-line" d="M0,1.46L11.02,8.42L22.04,25.59L33.06,51.63L44.08,71.76L88.16,128.11L99.18,140.97L110.2,152.68L121.22,162.8L132.24,172.15L143.27,179.95L165.31,193.08L176.33,198.5L187.35,203.71L198.37,207.92L220.41,216.37L231.43,219.79L264.49,229.77L275.51,232.64L330.61,245.24L341.63,247.23L407.76,259.69L418.78,261.03L451.84,266.53L462.86,268.27L484.9,270.86L495.92,272.2L540,278.05" style="vector-effect: non-scaling-stroke; fill: none; stroke: rgb(182, 232, 128); stroke-opacity: 1; stroke-width: 2px; opacity: 1;"/></g><g class="points"/><g class="text"/></g><g class="trace scatter tracebe97b3" style="stroke-miterlimit: 2; opacity: 1;"><g class="fills"/><g class="errorbars"/><g class="lines"><path class="js-line" d="M0,1.45L11.02,8.38L22.04,25.31L33.06,51.33L44.08,71.57L88.16,128.04L99.18,140.93L110.2,152.64L121.22,162.78L132.24,172.07L143.27,179.93L165.31,193.05L176.33,198.5L187.35,203.67L198.37,207.88L220.41,216.28L231.43,219.68L264.49,229.68L275.51,232.54L330.61,245.22L341.63,247.3L352.65,249.14L363.67,251.78L473.88,269.83L484.9,270.86L517.96,275.04L528.98,276.79L540,277.97" style="vector-effect: non-scaling-stroke; fill: none; stroke: rgb(255, 151, 255); stroke-opacity: 1; stroke-width: 2px; opacity: 1;"/></g><g class="points"/><g class="text"/></g><g class="trace scatter trace20bd51" style="stroke-miterlimit: 2; opacity: 1;"><g class="fills"/><g class="errorbars"/><g class="lines"><path class="js-line" d="M0,1.45L11.02,8.36L22.04,25.24L33.06,51.21L44.08,71.48L88.16,128.01L99.18,140.92L110.2,152.61L121.22,162.74L132.24,172.12L143.27,179.94L165.31,193.05L176.33,198.5L187.35,203.67L198.37,207.87L220.41,216.28L231.43,219.71L264.49,229.7L275.51,232.54L330.61,245.21L341.63,247.26L396.73,257.19L407.76,259.59L429.8,262.91L440.82,264.81L484.9,270.86L495.92,272.17L540,277.98" style="vector-effect: non-scaling-stroke; fill: none; stroke: rgb(254, 203, 82); stroke-opacity: 1; stroke-width: 2px; opacity: 1;"/></g><g class="points"/><g class="text"/></g><g class="trace scatter trace1a6f4c" style="stroke-miterlimit: 2; opacity: 1;"><g class="fills"/><g class="errorbars"/><g class="lines"><path class="js-line" d="M0,1.47L11.02,8.55L22.04,25.84L33.06,51.91L44.08,72L88.16,128.75L99.18,141.6L110.2,153.23L121.22,163.28L132.24,172.6L143.27,180.36L165.31,193.4L176.33,198.79L187.35,203.96L198.37,208.14L220.41,216.54L231.43,219.89L253.47,226.74L264.49,229.89L308.57,240.86L319.59,243.05L341.63,247.38L352.65,249.42L374.69,253.86L385.71,255.65L451.84,266.7L462.86,268.4L484.9,271L495.92,272.32L540,278.1" style="vector-effect: non-scaling-stroke; fill: none; stroke: rgb(99, 110, 250); stroke-opacity: 1; stroke-width: 2px; opacity: 1;"/></g><g class="points"/><g class="text"/></g><g class="trace scatter traced91a9b" style="stroke-miterlimit: 2; opacity: 1;"><g class="fills"/><g class="errorbars"/><g class="lines"><path class="js-line" d="M0,1.45L11.02,8.36L22.04,25.23L33.06,51.2L44.08,71.46L88.16,127.95L99.18,140.86L110.2,152.56L121.22,162.68L132.24,172.01L143.27,179.88L165.31,193L176.33,198.46L187.35,203.63L198.37,207.84L220.41,216.25L231.43,219.66L264.49,229.66L275.51,232.52L330.61,245.17L341.63,247.23L440.82,264.79L451.84,266.46L473.88,269.79L484.9,270.84L540,277.95" style="vector-effect: non-scaling-stroke; fill: none; stroke: rgb(239, 85, 59); stroke-opacity: 1; stroke-width: 2px; opacity: 1;"/></g><g class="points"/><g class="text"/></g><g class="trace scatter trace10dd29" style="stroke-miterlimit: 2; opacity: 1;"><g class="fills"/><g class="errorbars"/><g class="lines"><path class="js-line" d="M0,2.15L11.02,12.35L22.04,31.17L33.06,52.11L44.08,67.9L55.1,79.98L66.12,89.04L88.16,105.74L99.18,114.39L110.2,122.57L121.22,131.79L132.24,141.21L143.27,149.11L165.31,164.12L176.33,170.1L187.35,176.45L198.37,181.84L220.41,191.26L231.43,195.31L253.47,203.44L264.49,206.88L319.59,220.92L330.61,223.26L352.65,228.19L363.67,229.97L374.69,232.71L385.71,234.39L418.78,240.01L429.8,241.54L451.84,245.2L462.86,246.61L495.92,251.07L506.94,252.75L540,256.92" style="vector-effect: non-scaling-stroke; fill: none; stroke: rgb(0, 204, 150); stroke-opacity: 1; stroke-width: 2px; opacity: 1;"/></g><g class="points"/><g class="text"/></g><g class="trace scatter trace3983c4" style="stroke-miterlimit: 2; opacity: 1;"><g class="fills"/><g class="errorbars"/><g class="lines"><path class="js-line" d="M0,1.38L11.02,8.29L22.04,24.84L33.06,50.92L44.08,71.53L88.16,129.45L99.18,142.28L110.2,153.93L121.22,163.92L132.24,173.14L143.27,180.83L165.31,193.77L176.33,199.13L187.35,204.26L198.37,208.42L220.41,216.8L231.43,220.17L253.47,227L264.49,230.15L308.57,241.03L319.59,243.32L374.69,254.12L385.71,255.74L407.76,259.99L418.78,261.23L440.82,265.1L451.84,266.77L473.88,270.06L484.9,271.08L517.96,275.34L528.98,277.08L540,278.22" style="vector-effect: non-scaling-stroke; fill: none; stroke: rgb(171, 99, 250); stroke-opacity: 1; stroke-width: 2px; opacity: 1;"/></g><g class="points"/><g class="text"/></g><g class="trace scatter tracee9bf8d" style="stroke-miterlimit: 2; opacity: 1;"><g class="fills"/><g class="errorbars"/><g class="lines"><path class="js-line" d="M0,1.45L11.02,8.37L22.04,25.32L33.06,51.32L44.08,71.57L88.16,128.13L99.18,141.02L110.2,152.72L121.22,162.87L132.24,172.14L143.27,179.99L165.31,193.09L176.33,198.55L187.35,203.71L198.37,207.91L220.41,216.31L231.43,219.72L264.49,229.71L275.51,232.57L330.61,245.23L341.63,247.33L352.65,249.12L363.67,251.78L462.86,268.21L473.88,269.82L506.94,273.6L517.96,274.98L540,277.99" style="vector-effect: non-scaling-stroke; fill: none; stroke: rgb(255, 161, 90); stroke-opacity: 1; stroke-width: 2px; opacity: 1;"/></g><g class="points"/><g class="text"/></g><g class="trace scatter trace7360a6" style="stroke-miterlimit: 2; opacity: 1;"><g class="fills"/><g class="errorbars"/><g class="lines"><path class="js-line" d="M0,2.26L11.02,12.49L22.04,31.5L33.06,52.39L44.08,68.17L55.1,80.34L66.12,89.79L77.14,98.55L88.16,108.4L132.24,148.68L143.27,157.1L165.31,171.25L176.33,177.08L198.37,187.52L209.39,192.19L253.47,207.34L264.49,210.17L297.55,218.39L308.57,220.32L330.61,225.29L341.63,227.74L407.76,239.38L418.78,240.6L429.8,241.82L440.82,243.82L473.88,248.1L484.9,249.84L540,256.54" style="vector-effect: non-scaling-stroke; fill: none; stroke: rgb(25, 211, 243); stroke-opacity: 1; stroke-width: 2px; opacity: 1;"/></g><g class="points"/><g class="text"/></g><g class="trace scatter trace0b0c75" style="stroke-miterlimit: 2; opacity: 1;"><g class="fills"/><g class="errorbars"/><g class="lines"><path class="js-line" d="M0,1.45L11.02,8.36L22.04,25.23L33.06,51.2L44.08,71.48L88.16,128.01L99.18,140.91L110.2,152.61L121.22,162.73L132.24,172.12L143.27,179.94L165.31,193.05L176.33,198.5L187.35,203.67L198.37,207.87L220.41,216.28L231.43,219.71L264.49,229.7L275.51,232.53L330.61,245.23L341.63,247.27L396.73,257.21L407.76,259.57L429.8,262.93L440.82,264.82L484.9,270.86L495.92,272.18L540,277.97" style="vector-effect: non-scaling-stroke; fill: none; stroke: rgb(255, 102, 146); stroke-opacity: 1; stroke-width: 2px; opacity: 1;"/></g><g class="points"/><g class="text"/></g><g class="trace scatter trace319683" style="stroke-miterlimit: 2; opacity: 1;"><g class="fills"/><g class="errorbars"/><g class="lines"><path class="js-line" d="M0,1.45L11.02,8.4L22.04,25.48L33.06,51.52L44.08,71.78L88.16,128.69L99.18,141.57L110.2,153.2L121.22,163.28L132.24,172.5L143.27,180.33L165.31,193.36L176.33,198.77L187.35,203.92L198.37,208.09L220.41,216.48L231.43,219.87L264.49,229.81L275.51,232.7L330.61,245.34L341.63,247.41L352.65,249.25L363.67,251.9L462.86,268.31L473.88,269.92L506.94,273.76L517.96,275.12L540,278.03" style="vector-effect: non-scaling-stroke; fill: none; stroke: rgb(182, 232, 128); stroke-opacity: 1; stroke-width: 2px; opacity: 1;"/></g><g class="points"/><g class="text"/></g><g class="trace scatter tracee68fa0" style="stroke-miterlimit: 2; opacity: 1;"><g class="fills"/><g class="errorbars"/><g class="lines"><path class="js-line" d="M0,2.23L11.02,12.57L22.04,31.58L33.06,52.46L44.08,68.19L55.1,80.24L66.12,89.32L88.16,106.29L99.18,115.2L110.2,123.58L121.22,133.12L132.24,142.72L143.27,150.94L165.31,165.87L176.33,171.88L187.35,177.96L198.37,183.17L209.39,188.23L220.41,192.31L253.47,204.17L264.49,207.49L308.57,218.56L319.59,221.38L385.71,234.63L396.73,236.53L418.78,240.18L429.8,241.6L462.86,246.94L473.88,247.98L495.92,251.48L506.94,252.89L540,257.14" style="vector-effect: non-scaling-stroke; fill: none; stroke: rgb(255, 151, 255); stroke-opacity: 1; stroke-width: 2px; opacity: 1;"/></g><g class="points"/><g class="text"/></g><g class="trace scatter traceba2447" style="stroke-miterlimit: 2; opacity: 1;"><g class="fills"/><g class="errorbars"/><g class="lines"><path class="js-line" d="M0,1.45L11.02,8.36L22.04,25.26L33.06,51.26L44.08,71.52L88.16,128.05L99.18,140.96L110.2,152.65L121.22,162.82L132.24,172.09L143.27,179.95L165.31,193.06L176.33,198.53L187.35,203.7L198.37,207.9L220.41,216.3L231.43,219.72L264.49,229.7L275.51,232.57L330.61,245.2L341.63,247.29L352.65,249.15L363.67,251.79L473.88,269.82L484.9,270.86L540,277.98" style="vector-effect: non-scaling-stroke; fill: none; stroke: rgb(254, 203, 82); stroke-opacity: 1; stroke-width: 2px; opacity: 1;"/></g><g class="points"/><g class="text"/></g><g class="trace scatter traced3ba15" style="stroke-miterlimit: 2; opacity: 1;"><g class="fills"/><g class="errorbars"/><g class="lines"><path class="js-line" d="M0,2.35L11.02,12.76L22.04,31.86L33.06,52.78L44.08,68.55L55.1,80.73L66.12,90.38L77.14,99.51L88.16,109.89L121.22,141.3L132.24,151.03L143.27,159.31L154.29,166.6L176.33,178.85L187.35,184.2L209.39,193.66L220.41,197.37L253.47,208.67L264.49,211.38L297.55,219.61L308.57,221.56L341.63,228.67L352.65,230.64L374.69,234.75L385.71,236.68L440.82,244.52L451.84,246.23L484.9,250.62L495.92,252.09L540,257.27" style="vector-effect: non-scaling-stroke; fill: none; stroke: rgb(99, 110, 250); stroke-opacity: 1; stroke-width: 2px; opacity: 1;"/></g><g class="points"/><g class="text"/></g><g class="trace scatter tracea70d6b" style="stroke-miterlimit: 2; opacity: 1;"><g class="fills"/><g class="errorbars"/><g class="lines"><path class="js-line" d="M0,1.51L11.02,8.47L22.04,25.91L33.06,52.04L44.08,72.42L88.16,131.05L99.18,143.75L110.2,155.29L121.22,165.04L132.24,174.16L143.27,181.78L165.31,194.5L176.33,199.77L187.35,204.85L198.37,209.01L220.41,217.24L231.43,220.57L253.47,227.42L264.49,230.54L308.57,241.36L319.59,243.7L363.67,252.39L374.69,254.42L396.73,258.25L407.76,260.21L418.78,261.54L429.8,263.64L462.86,268.83L473.88,270.43L495.92,272.62L506.94,274.11L540,278.47" style="vector-effect: non-scaling-stroke; fill: none; stroke: rgb(239, 85, 59); stroke-opacity: 1; stroke-width: 2px; opacity: 1;"/></g><g class="points"/><g class="text"/></g><g class="trace scatter tracee174b1" style="stroke-miterlimit: 2; opacity: 1;"><g class="fills"/><g class="errorbars"/><g class="lines"><path class="js-line" d="M0,1.52L11.02,8.19L22.04,25.36L33.06,51.21L44.08,71.22L99.18,139.07L110.2,150.92L132.24,170.8L143.27,178.76L165.31,192.15L176.33,197.68L187.35,202.93L198.37,207.22L220.41,215.7L231.43,219.14L264.49,229.21L275.51,232.14L330.61,244.76L341.63,246.94L352.65,248.72L363.67,251.36L473.88,269.45L484.9,270.55L506.94,273.18L517.96,274.8L540,277.75" style="vector-effect: non-scaling-stroke; fill: none; stroke: rgb(0, 204, 150); stroke-opacity: 1; stroke-width: 2px; opacity: 1;"/></g><g class="points"/><g class="text"/></g><g class="trace scatter tracebf45b3" style="stroke-miterlimit: 2; opacity: 1;"><g class="fills"/><g class="errorbars"/><g class="lines"><path class="js-line" d="M0,1.47L11.02,8.34L22.04,25.37L33.06,51.46L44.08,71.73L88.16,128.71L99.18,141.61L110.2,153.26L121.22,163.33L132.24,172.64L143.27,180.39L165.31,193.42L176.33,198.83L187.35,203.94L198.37,208.15L220.41,216.57L231.43,219.95L264.49,229.9L275.51,232.78L330.61,245.38L341.63,247.34L407.76,259.79L418.78,261.15L451.84,266.69L462.86,268.41L484.9,270.99L495.92,272.29L540,278.1" style="vector-effect: non-scaling-stroke; fill: none; stroke: rgb(171, 99, 250); stroke-opacity: 1; stroke-width: 2px; opacity: 1;"/></g><g class="points"/><g class="text"/></g><g class="trace scatter trace289906" style="stroke-miterlimit: 2; opacity: 1;"><g class="fills"/><g class="errorbars"/><g class="lines"><path class="js-line" d="M0,1.45L11.02,8.36L22.04,25.22L33.06,51.2L44.08,71.46L88.16,127.97L99.18,140.88L110.2,152.58L121.22,162.7L132.24,172.03L143.27,179.9L165.31,193.01L176.33,198.47L187.35,203.65L198.37,207.85L220.41,216.25L231.43,219.68L264.49,229.66L275.51,232.54L330.61,245.19L341.63,247.2L440.82,264.8L451.84,266.46L473.88,269.8L484.9,270.84L540,277.98" style="vector-effect: non-scaling-stroke; fill: none; stroke: rgb(255, 161, 90); stroke-opacity: 1; stroke-width: 2px; opacity: 1;"/></g><g class="points"/><g class="text"/></g><g class="trace scatter tracee7237d" style="stroke-miterlimit: 2; opacity: 1;"><g class="fills"/><g class="errorbars"/><g class="lines"><path class="js-line" d="M0,1.49L11.02,8.43L22.04,25.39L33.06,51.45L44.08,71.66L88.16,128.19L99.18,141.08L110.2,152.75L121.22,162.87L132.24,172.15L143.27,179.98L165.31,193.08L176.33,198.5L187.35,203.67L198.37,207.84L220.41,216.22L231.43,219.57L253.47,226.49L264.49,229.6L308.57,240.6L319.59,242.85L374.69,253.62L385.71,255.4L396.73,256.98L407.76,259.38L429.8,262.81L440.82,264.78L484.9,270.77L495.92,272.15L540,277.97" style="vector-effect: non-scaling-stroke; fill: none; stroke: rgb(25, 211, 243); stroke-opacity: 1; stroke-width: 2px; opacity: 1;"/></g><g class="points"/><g class="text"/></g><g class="trace scatter trace9f25e5" style="stroke-miterlimit: 2; opacity: 1;"><g class="fills"/><g class="errorbars"/><g class="lines"><path class="js-line" d="M0,1.5L11.02,8.4L22.04,25.44L33.06,51.43L44.08,71.52L88.16,126.66L99.18,139.45L110.2,151.25L121.22,161.54L132.24,171.02L143.27,178.98L165.31,192.34L176.33,197.84L187.35,203.13L198.37,207.43L220.41,215.93L231.43,219.37L264.49,229.46L275.51,232.27L330.61,244.9L341.63,246.88L407.76,259.16L418.78,260.5L451.84,265.84L462.86,267.68L484.9,270.5L495.92,270.69L506.94,273.41L517.96,274.76L540,277.77" style="vector-effect: non-scaling-stroke; fill: none; stroke: rgb(255, 102, 146); stroke-opacity: 1; stroke-width: 2px; opacity: 1;"/></g><g class="points"/><g class="text"/></g><g class="trace scatter traceb0a797" style="stroke-miterlimit: 2; opacity: 1;"><g class="fills"/><g class="errorbars"/><g class="lines"><path class="js-line" d="M0,1.46L11.02,8.35L22.04,25.43L33.06,51.46L44.08,71.66L88.16,127.95L99.18,140.78L110.2,152.53L121.22,162.7L132.24,172.04L143.27,179.85L165.31,193.02L176.33,198.46L187.35,203.66L198.37,207.88L220.41,216.33L231.43,219.74L264.49,229.76L275.51,232.6L330.61,245.29L341.63,247.09L385.71,255.4L396.73,257.48L407.76,259.73L418.78,261L451.84,266.5L462.86,268.26L484.9,270.85L495.92,272.18L540,278.09" style="vector-effect: non-scaling-stroke; fill: none; stroke: rgb(182, 232, 128); stroke-opacity: 1; stroke-width: 2px; opacity: 1;"/></g><g class="points"/><g class="text"/></g><g class="trace scatter traceea1d6b" style="stroke-miterlimit: 2; opacity: 1;"><g class="fills"/><g class="errorbars"/><g class="lines"><path class="js-line" d="M0,2.26L11.02,12.45L22.04,31.48L33.06,52.31L44.08,68.04L55.1,80.1L66.12,89.15L88.16,106.35L99.18,115.44L110.2,124.15L121.22,133.9L132.24,143.59L143.27,151.98L165.31,166.98L176.33,173.03L198.37,184.12L209.39,189.02L253.47,204.82L264.49,207.99L319.59,221.68L330.61,223.91L374.69,233.07L385.71,234.76L418.78,240.22L429.8,241.36L451.84,245.33L462.86,246.91L473.88,247.94L484.9,250.02L540,257.26" style="vector-effect: non-scaling-stroke; fill: none; stroke: rgb(255, 151, 255); stroke-opacity: 1; stroke-width: 2px; opacity: 1;"/></g><g class="points"/><g class="text"/></g><g class="trace scatter trace228de9" style="stroke-miterlimit: 2; opacity: 1;"><g class="fills"/><g class="errorbars"/><g class="lines"><path class="js-line" d="M0,1.45L11.02,8.36L22.04,25.23L33.06,51.2L44.08,71.48L88.16,128.01L99.18,140.91L110.2,152.61L121.22,162.73L132.24,172.12L143.27,179.94L165.31,193.05L176.33,198.5L187.35,203.67L198.37,207.87L220.41,216.27L231.43,219.71L264.49,229.7L275.51,232.53L330.61,245.21L341.63,247.26L396.73,257.19L407.76,259.59L429.8,262.91L440.82,264.81L484.9,270.86L495.92,272.17L540,277.97" style="vector-effect: non-scaling-stroke; fill: none; stroke: rgb(254, 203, 82); stroke-opacity: 1; stroke-width: 2px; opacity: 1;"/></g><g class="points"/><g class="text"/></g><g class="trace scatter trace40fca3" style="stroke-miterlimit: 2; opacity: 1;"><g class="fills"/><g class="errorbars"/><g class="lines"><path class="js-line" d="M0,1.44L11.02,8.42L22.04,25.45L33.06,51.51L44.08,71.83L88.16,128.95L99.18,141.83L110.2,153.42L121.22,163.46L132.24,172.66L143.27,180.47L165.31,193.47L176.33,198.87L187.35,204L198.37,208.18L220.41,216.54L231.43,219.93L264.49,229.86L275.51,232.75L330.61,245.38L341.63,247.46L352.65,249.3L363.67,251.95L462.86,268.31L473.88,269.95L506.94,273.79L517.96,275.19L540,278.07" style="vector-effect: non-scaling-stroke; fill: none; stroke: rgb(99, 110, 250); stroke-opacity: 1; stroke-width: 2px; opacity: 1;"/></g><g class="points"/><g class="text"/></g><g class="trace scatter tracea44f16" style="stroke-miterlimit: 2; opacity: 1;"><g class="fills"/><g class="errorbars"/><g class="lines"><path class="js-line" d="M0,1.44L11.02,8.38L22.04,25.36L33.06,51.36L44.08,71.7L88.16,128.73L99.18,141.61L110.2,153.24L121.22,163.28L132.24,172.54L143.27,180.36L165.31,193.37L176.33,198.79L187.35,203.94L198.37,208.11L220.41,216.5L231.43,219.86L264.49,229.82L275.51,232.72L330.61,245.35L341.63,247.46L352.65,249.29L363.67,251.94L462.86,268.3L473.88,269.94L495.92,272.29L506.94,273.8L540,278.06" style="vector-effect: non-scaling-stroke; fill: none; stroke: rgb(239, 85, 59); stroke-opacity: 1; stroke-width: 2px; opacity: 1;"/></g><g class="points"/><g class="text"/></g><g class="trace scatter trace3a6e3d" style="stroke-miterlimit: 2; opacity: 1;"><g class="fills"/><g class="errorbars"/><g class="lines"><path class="js-line" d="M0,1.45L11.02,8.37L22.04,25.27L33.06,51.29L44.08,71.52L88.16,127.87L99.18,140.8L110.2,152.48L121.22,162.67L132.24,171.96L143.27,179.83L165.31,192.96L176.33,198.42L187.35,203.6L198.37,207.81L220.41,216.21L231.43,219.65L264.49,229.63L275.51,232.49L330.61,245.14L341.63,247.22L352.65,249.08L363.67,251.71L473.88,269.73L484.9,270.81L517.96,275.02L528.98,276.74L540,277.9" style="vector-effect: non-scaling-stroke; fill: none; stroke: rgb(0, 204, 150); stroke-opacity: 1; stroke-width: 2px; opacity: 1;"/></g><g class="points"/><g class="text"/></g><g class="trace scatter trace98668b" style="stroke-miterlimit: 2; opacity: 1;"><g class="fills"/><g class="errorbars"/><g class="lines"><path class="js-line" d="M0,2.24L11.02,12.37L22.04,31.39L33.06,52.25L44.08,67.96L55.1,80.03L66.12,89.08L88.16,106.03L99.18,114.87L110.2,123.24L121.22,132.78L132.24,142.32L143.27,150.48L165.31,165.52L176.33,171.54L187.35,177.66L198.37,182.89L209.39,188L220.41,192.14L253.47,203.98L264.49,207.35L308.57,218.5L319.59,221.29L385.71,234.63L396.73,236.51L418.78,240.21L429.8,241.57L462.86,246.94L473.88,247.96L495.92,251.37L506.94,252.85L540,257.13" style="vector-effect: non-scaling-stroke; fill: none; stroke: rgb(171, 99, 250); stroke-opacity: 1; stroke-width: 2px; opacity: 1;"/></g><g class="points"/><g class="text"/></g><g class="trace scatter trace7acd5f" style="stroke-miterlimit: 2; opacity: 1;"><g class="fills"/><g class="errorbars"/><g class="lines"><path class="js-line" d="M0,2.21L11.02,12.37L22.04,31.43L33.06,52.31L44.08,68.08L55.1,80.15L66.12,89.31L77.14,97.58L88.16,106.8L121.22,134.76L132.24,144.5L154.29,160.64L165.31,167.77L187.35,179.52L198.37,184.71L209.39,189.66L220.41,193.52L253.47,205.15L264.49,208.35L319.59,221.95L330.61,224.28L352.65,228.9L363.67,230.88L385.71,235.26L396.73,236.84L407.76,239.11L418.78,240.54L429.8,241.7L440.82,243.84L462.86,247.22L473.88,248.29L495.92,251.48L506.94,253.33L540,257.47" style="vector-effect: non-scaling-stroke; fill: none; stroke: rgb(255, 161, 90); stroke-opacity: 1; stroke-width: 2px; opacity: 1;"/></g><g class="points"/><g class="text"/></g><g class="trace scatter traceed64c5" style="stroke-miterlimit: 2; opacity: 1;"><g class="fills"/><g class="errorbars"/><g class="lines"><path class="js-line" d="M0,2.22L11.02,12.5L22.04,31.41L33.06,52.33L44.08,68.05L55.1,80.11L66.12,89.1L88.16,105.73L99.18,114.33L110.2,122.41L121.22,131.56L132.24,140.95L143.27,148.75L165.31,163.64L176.33,169.66L187.35,175.97L198.37,181.36L220.41,190.89L231.43,195.01L253.47,203.26L264.49,206.65L308.57,218.17L319.59,220.84L374.69,232.65L385.71,234.28L418.78,239.83L429.8,241.43L451.84,245.08L462.86,246.53L540,256.74" style="vector-effect: non-scaling-stroke; fill: none; stroke: rgb(25, 211, 243); stroke-opacity: 1; stroke-width: 2px; opacity: 1;"/></g><g class="points"/><g class="text"/></g><g class="trace scatter trace2f0bda" style="stroke-miterlimit: 2; opacity: 1;"><g class="fills"/><g class="errorbars"/><g class="lines"><path class="js-line" d="M0,1.45L11.02,8.36L22.04,25.23L33.06,51.2L44.08,71.48L88.16,128.01L99.18,140.91L110.2,152.61L121.22,162.73L132.24,172.12L143.27,179.94L165.31,193.05L176.33,198.5L187.35,203.67L198.37,207.87L220.41,216.27L231.43,219.71L264.49,229.7L275.51,232.53L330.61,245.21L341.63,247.26L396.73,257.19L407.76,259.59L429.8,262.91L440.82,264.81L484.9,270.86L495.92,272.17L540,277.97" style="vector-effect: non-scaling-stroke; fill: none; stroke: rgb(255, 102, 146); stroke-opacity: 1; stroke-width: 2px; opacity: 1;"/></g><g class="points"/><g class="text"/></g><g class="trace scatter trace801570" style="stroke-miterlimit: 2; opacity: 1;"><g class="fills"/><g class="errorbars"/><g class="lines"><path class="js-line" d="M0,1.41L11.02,8.26L22.04,24.76L33.06,50.83L44.08,71.4L88.16,128.51L99.18,141.33L110.2,153.04L121.22,163.14L132.24,172.41L143.27,180.23L165.31,193.32L176.33,198.73L187.35,203.91L198.37,208.16L220.41,216.57L231.43,219.9L253.47,226.75L264.49,229.95L308.57,240.88L319.59,243.09L374.69,253.72L385.71,255.37L462.86,268.22L473.88,269.86L506.94,273.69L517.96,275.16L540,278.06" style="vector-effect: non-scaling-stroke; fill: none; stroke: rgb(182, 232, 128); stroke-opacity: 1; stroke-width: 2px; opacity: 1;"/></g><g class="points"/><g class="text"/></g><g class="trace scatter tracebf2f1a" style="stroke-miterlimit: 2; opacity: 1;"><g class="fills"/><g class="errorbars"/><g class="lines"><path class="js-line" d="M0,1.46L11.02,8.53L22.04,25.68L33.06,51.68L44.08,71.7L99.18,140.4L110.2,152.13L132.24,171.69L143.27,179.58L165.31,192.78L176.33,198.25L187.35,203.46L198.37,207.67L220.41,216.1L231.43,219.52L253.47,226.37L264.49,229.56L308.57,240.52L319.59,242.8L363.67,251.71L374.69,253.58L473.88,269.79L484.9,270.82L517.96,274.97L528.98,276.74L540,277.9" style="vector-effect: non-scaling-stroke; fill: none; stroke: rgb(255, 151, 255); stroke-opacity: 1; stroke-width: 2px; opacity: 1;"/></g><g class="points"/><g class="text"/></g><g class="trace scatter trace909949" style="stroke-miterlimit: 2; opacity: 1;"><g class="fills"/><g class="errorbars"/><g class="lines"><path class="js-line" d="M0,1.45L11.02,8.49L22.04,25.66L33.06,51.78L44.08,71.92L88.16,128.4L99.18,141.25L110.2,152.93L121.22,163.01L132.24,172.34L143.27,180.12L165.31,193.22L176.33,198.65L187.35,203.83L198.37,208.03L220.41,216.45L231.43,219.85L264.49,229.82L275.51,232.69L330.61,245.31L341.63,247.22L407.76,259.68L418.78,261.03L451.84,266.55L462.86,268.3L484.9,270.9L495.92,272.23L540,278.09" style="vector-effect: non-scaling-stroke; fill: none; stroke: rgb(254, 203, 82); stroke-opacity: 1; stroke-width: 2px; opacity: 1;"/></g><g class="points"/><g class="text"/></g><g class="trace scatter trace0ffb1e" style="stroke-miterlimit: 2; opacity: 1;"><g class="fills"/><g class="errorbars"/><g class="lines"><path class="js-line" d="M0,1.45L11.02,8.36L22.04,25.23L33.06,51.2L44.08,71.48L88.16,128.01L99.18,140.92L110.2,152.61L121.22,162.73L132.24,172.12L143.27,179.93L165.31,193.04L176.33,198.49L187.35,203.66L198.37,207.88L220.41,216.28L231.43,219.69L264.49,229.68L275.51,232.55L330.61,245.2L341.63,247.28L352.65,249.13L363.67,251.77L462.86,268.19L473.88,269.79L506.94,273.61L517.96,274.99L540,277.98" style="vector-effect: non-scaling-stroke; fill: none; stroke: rgb(99, 110, 250); stroke-opacity: 1; stroke-width: 2px; opacity: 1;"/></g><g class="points"/><g class="text"/></g><g class="trace scatter trace93a669" style="stroke-miterlimit: 2; opacity: 1;"><g class="fills"/><g class="errorbars"/><g class="lines"><path class="js-line" d="M0,1.45L11.02,8.36L22.04,25.23L33.06,51.2L44.08,71.48L88.16,128.01L99.18,140.91L110.2,152.61L121.22,162.73L132.24,172.12L143.27,179.94L165.31,193.05L176.33,198.5L187.35,203.67L198.37,207.87L220.41,216.27L231.43,219.71L264.49,229.7L275.51,232.53L330.61,245.21L341.63,247.26L396.73,257.19L407.76,259.59L429.8,262.91L440.82,264.81L484.9,270.86L495.92,272.17L540,277.97" style="vector-effect: non-scaling-stroke; fill: none; stroke: rgb(239, 85, 59); stroke-opacity: 1; stroke-width: 2px; opacity: 1;"/></g><g class="points"/><g class="text"/></g><g class="trace scatter trace5ff2c7" style="stroke-miterlimit: 2; opacity: 1;"><g class="fills"/><g class="errorbars"/><g class="lines"><path class="js-line" d="M0,2.23L11.02,12.56L22.04,31.45L33.06,52.36L44.08,68.07L55.1,80.13L66.12,89.18L88.16,105.92L99.18,114.61L110.2,122.8L121.22,132.03L132.24,141.47L143.27,149.39L165.31,164.39L176.33,170.37L187.35,176.7L198.37,182.05L220.41,191.45L231.43,195.48L253.47,203.59L264.49,206.97L308.57,218.33L319.59,221.01L385.71,234.48L396.73,236.49L440.82,243.58L451.84,245.32L473.88,248.03L484.9,249.89L495.92,250.92L506.94,252.82L540,256.97" style="vector-effect: non-scaling-stroke; fill: none; stroke: rgb(0, 204, 150); stroke-opacity: 1; stroke-width: 2px; opacity: 1;"/></g><g class="points"/><g class="text"/></g><g class="trace scatter trace0de2f3" style="stroke-miterlimit: 2; opacity: 1;"><g class="fills"/><g class="errorbars"/><g class="lines"><path class="js-line" d="M0,2.34L11.02,12.73L22.04,31.89L33.06,52.78L44.08,68.53L55.1,80.73L66.12,90.41L77.14,99.61L88.16,110.03L121.22,141.56L132.24,151.28L143.27,159.56L154.29,166.84L176.33,179.13L187.35,184.39L209.39,193.86L220.41,197.5L253.47,208.96L264.49,211.67L297.55,219.95L308.57,221.95L341.63,229.05L352.65,231L374.69,235.06L385.71,237.03L429.8,242.65L440.82,244.86L495.92,252.33L506.94,253.73L540,257.61" style="vector-effect: non-scaling-stroke; fill: none; stroke: rgb(171, 99, 250); stroke-opacity: 1; stroke-width: 2px; opacity: 1;"/></g><g class="points"/><g class="text"/></g><g class="trace scatter traceba8041" style="stroke-miterlimit: 2; opacity: 1;"><g class="fills"/><g class="errorbars"/><g class="lines"><path class="js-line" d="M0,1.49L11.02,8.66L22.04,25.96L33.06,52.08L44.08,72.11L88.16,128.89L99.18,141.68L110.2,153.35L121.22,163.33L132.24,172.68L143.27,180.43L165.31,193.43L176.33,198.79L187.35,203.95L198.37,208.13L220.41,216.48L231.43,219.78L253.47,226.73L264.49,229.85L308.57,240.76L319.59,243.04L341.63,247.61L352.65,249.46L374.69,253.94L385.71,255.74L451.84,266.79L462.86,268.49L484.9,271.03L495.92,272.33L540,278.28" style="vector-effect: non-scaling-stroke; fill: none; stroke: rgb(255, 161, 90); stroke-opacity: 1; stroke-width: 2px; opacity: 1;"/></g><g class="points"/><g class="text"/></g><g class="trace scatter tracee358ce" style="stroke-miterlimit: 2; opacity: 1;"><g class="fills"/><g class="errorbars"/><g class="lines"><path class="js-line" d="M0,2.23L11.02,12.42L22.04,31.39L33.06,52.27L44.08,68.06L55.1,80.16L66.12,89.49L77.14,98L88.16,107.56L132.24,147.01L143.27,155.53L165.31,169.92L176.33,175.89L198.37,186.44L209.39,191.18L231.43,198.78L242.45,202.94L264.49,209.39L275.51,212.26L330.61,224.76L341.63,227.09L407.76,238.99L418.78,240.19L429.8,241.43L440.82,243.46L517.96,253.82L528.98,254.49L540,256.23" style="vector-effect: non-scaling-stroke; fill: none; stroke: rgb(25, 211, 243); stroke-opacity: 1; stroke-width: 2px; opacity: 1;"/></g><g class="points"/><g class="text"/></g><g class="trace scatter trace3e2c2e" style="stroke-miterlimit: 2; opacity: 1;"><g class="fills"/><g class="errorbars"/><g class="lines"><path class="js-line" d="M0,1.44L11.02,8.42L22.04,25.45L33.06,51.52L44.08,71.77L88.16,128.61L99.18,141.49L110.2,153.12L121.22,163.19L132.24,172.44L143.27,180.27L165.31,193.31L176.33,198.73L187.35,203.86L198.37,208.05L220.41,216.42L231.43,219.8L253.47,226.61L264.49,229.78L308.57,240.72L319.59,242.94L341.63,247.47L352.65,249.21L363.67,251.9L374.69,253.74L473.88,269.9L484.9,270.91L540,277.91" style="vector-effect: non-scaling-stroke; fill: none; stroke: rgb(255, 102, 146); stroke-opacity: 1; stroke-width: 2px; opacity: 1;"/></g><g class="points"/><g class="text"/></g><g class="trace scatter trace709ad7" style="stroke-miterlimit: 2; opacity: 1;"><g class="fills"/><g class="errorbars"/><g class="lines"><path class="js-line" d="M0,1.45L11.02,8.41L22.04,25.43L33.06,51.48L44.08,71.79L88.16,129.13L99.18,142.02L110.2,153.61L121.22,163.61L132.24,172.88L143.27,180.61L165.31,193.58L176.33,198.96L187.35,204.08L198.37,208.24L220.41,216.62L231.43,219.96L253.47,226.79L264.49,229.96L308.57,240.86L319.59,243.14L363.67,252.03L374.69,253.97L473.88,270.05L484.9,271.03L517.96,275.29L528.98,277L540,278.24" style="vector-effect: non-scaling-stroke; fill: none; stroke: rgb(182, 232, 128); stroke-opacity: 1; stroke-width: 2px; opacity: 1;"/></g><g class="points"/><g class="text"/></g><g class="trace scatter trace309a01" style="stroke-miterlimit: 2; opacity: 1;"><g class="fills"/><g class="errorbars"/><g class="lines"><path class="js-line" d="M0,2.23L11.02,12.46L22.04,31.43L33.06,52.27L44.08,68.02L55.1,80.13L66.12,89.39L77.14,97.84L88.16,107.24L132.24,146.31L143.27,154.83L165.31,169.36L176.33,175.36L198.37,185.96L209.39,190.76L231.43,198.44L242.45,202.6L264.49,209.01L275.51,211.92L330.61,224.52L341.63,226.8L385.71,235.28L396.73,236.75L407.76,238.9L418.78,239.99L440.82,243.41L451.84,245.04L495.92,250.84L506.94,252.56L517.96,253.88L528.98,254.44L540,256.29" style="vector-effect: non-scaling-stroke; fill: none; stroke: rgb(255, 151, 255); stroke-opacity: 1; stroke-width: 2px; opacity: 1;"/></g><g class="points"/><g class="text"/></g><g class="trace scatter trace2f6fe2" style="stroke-miterlimit: 2; opacity: 1;"><g class="fills"/><g class="errorbars"/><g class="lines"><path class="js-line" d="M0,1.45L11.02,8.36L22.04,25.23L33.06,51.2L44.08,71.48L88.16,128.01L99.18,140.91L110.2,152.61L121.22,162.73L132.24,172.12L143.27,179.94L165.31,193.05L176.33,198.5L187.35,203.67L198.37,207.87L220.41,216.28L231.43,219.71L264.49,229.7L275.51,232.53L330.61,245.23L341.63,247.27L396.73,257.21L407.76,259.57L429.8,262.93L440.82,264.82L484.9,270.86L495.92,272.18L540,277.97" style="vector-effect: non-scaling-stroke; fill: none; stroke: rgb(254, 203, 82); stroke-opacity: 1; stroke-width: 2px; opacity: 1;"/></g><g class="points"/><g class="text"/></g><g class="trace scatter tracefb17ea" style="stroke-miterlimit: 2; opacity: 1;"><g class="fills"/><g class="errorbars"/><g class="lines"><path class="js-line" d="M0,1.45L11.02,8.36L22.04,25.23L33.06,51.2L44.08,71.48L88.16,128.01L99.18,140.91L110.2,152.61L121.22,162.73L132.24,172.12L143.27,179.94L165.31,193.05L176.33,198.5L187.35,203.67L198.37,207.87L220.41,216.27L231.43,219.71L264.49,229.7L275.51,232.53L330.61,245.21L341.63,247.26L396.73,257.19L407.76,259.59L429.8,262.91L440.82,264.81L484.9,270.86L495.92,272.17L540,277.97" style="vector-effect: non-scaling-stroke; fill: none; stroke: rgb(99, 110, 250); stroke-opacity: 1; stroke-width: 2px; opacity: 1;"/></g><g class="points"/><g class="text"/></g><g class="trace scatter trace46be64" style="stroke-miterlimit: 2; opacity: 1;"><g class="fills"/><g class="errorbars"/><g class="lines"><path class="js-line" d="M0,1.45L11.02,8.36L22.04,25.23L33.06,51.2L44.08,71.48L88.16,128.01L99.18,140.91L110.2,152.61L121.22,162.73L132.24,172.12L143.27,179.94L165.31,193.05L176.33,198.5L187.35,203.67L198.37,207.87L220.41,216.27L231.43,219.71L264.49,229.7L275.51,232.53L330.61,245.21L341.63,247.26L396.73,257.19L407.76,259.59L429.8,262.91L440.82,264.81L484.9,270.86L495.92,272.17L540,277.97" style="vector-effect: non-scaling-stroke; fill: none; stroke: rgb(239, 85, 59); stroke-opacity: 1; stroke-width: 2px; opacity: 1;"/></g><g class="points"/><g class="text"/></g><g class="trace scatter traceed79ed" style="stroke-miterlimit: 2; opacity: 1;"><g class="fills"/><g class="errorbars"/><g class="lines"><path class="js-line" d="M0,1.45L11.02,8.38L22.04,25.31L33.06,51.32L44.08,71.57L88.16,128.12L99.18,141.01L110.2,152.71L121.22,162.86L132.24,172.14L143.27,179.99L165.31,193.09L176.33,198.55L187.35,203.71L198.37,207.92L220.41,216.31L231.43,219.72L264.49,229.72L275.51,232.55L330.61,245.23L341.63,247.3L396.73,257.18L407.76,259.57L429.8,262.91L440.82,264.82L484.9,270.86L495.92,272.19L540,277.99" style="vector-effect: non-scaling-stroke; fill: none; stroke: rgb(0, 204, 150); stroke-opacity: 1; stroke-width: 2px; opacity: 1;"/></g><g class="points"/><g class="text"/></g><g class="trace scatter tracea0afe9" style="stroke-miterlimit: 2; opacity: 1;"><g class="fills"/><g class="errorbars"/><g class="lines"><path class="js-line" d="M0,1.41L11.02,8.46L22.04,25.37L33.06,51.45L44.08,71.7L88.16,128.34L99.18,141.22L110.2,152.89L121.22,162.96L132.24,172.34L143.27,180.13L165.31,193.21L176.33,198.63L187.35,203.8L198.37,207.99L220.41,216.38L231.43,219.81L264.49,229.77L275.51,232.66L330.61,245.28L341.63,247.35L352.65,249.2L363.67,251.88L462.86,268.27L473.88,269.87L506.94,273.73L517.96,275.04L540,278.1" style="vector-effect: non-scaling-stroke; fill: none; stroke: rgb(171, 99, 250); stroke-opacity: 1; stroke-width: 2px; opacity: 1;"/></g><g class="points"/><g class="text"/></g><g class="trace scatter trace4a7196" style="stroke-miterlimit: 2; opacity: 1;"><g class="fills"/><g class="errorbars"/><g class="lines"><path class="js-line" d="M0,1.45L11.02,8.36L22.04,25.26L33.06,51.26L44.08,71.52L88.16,128.06L99.18,140.97L110.2,152.65L121.22,162.82L132.24,172.1L143.27,179.96L165.31,193.06L176.33,198.53L187.35,203.7L198.37,207.9L220.41,216.31L231.43,219.72L264.49,229.7L275.51,232.56L330.61,245.21L341.63,247.23L440.82,264.81L451.84,266.47L473.88,269.8L484.9,270.86L540,277.97" style="vector-effect: non-scaling-stroke; fill: none; stroke: rgb(255, 161, 90); stroke-opacity: 1; stroke-width: 2px; opacity: 1;"/></g><g class="points"/><g class="text"/></g><g class="trace scatter trace0801d9" style="stroke-miterlimit: 2; opacity: 1;"><g class="fills"/><g class="errorbars"/><g class="lines"><path class="js-line" d="M0,1.5L11.02,8.67L22.04,26.06L33.06,52.08L44.08,72.01L99.18,141.26L110.2,152.95L132.24,172.33L143.27,180.15L165.31,193.19L176.33,198.58L187.35,203.74L198.37,207.93L220.41,216.27L231.43,219.56L253.47,226.52L264.49,229.57L297.55,238L308.57,240.64L374.69,253.79L385.71,255.51L440.82,264.77L451.84,266.49L473.88,269.9L484.9,270.83L540,278.28" style="vector-effect: non-scaling-stroke; fill: none; stroke: rgb(25, 211, 243); stroke-opacity: 1; stroke-width: 2px; opacity: 1;"/></g><g class="points"/><g class="text"/></g><g class="trace scatter trace3a2eb4" style="stroke-miterlimit: 2; opacity: 1;"><g class="fills"/><g class="errorbars"/><g class="lines"><path class="js-line" d="M0,1.45L11.02,8.37L22.04,25.28L33.06,51.3L44.08,71.53L88.16,127.95L99.18,140.88L110.2,152.57L121.22,162.72L132.24,172.01L143.27,179.88L165.31,193L176.33,198.47L187.35,203.64L198.37,207.84L220.41,216.24L231.43,219.68L264.49,229.65L275.51,232.52L330.61,245.17L341.63,247.23L396.73,257.16L407.76,259.49L429.8,262.88L440.82,264.78L484.9,270.83L495.92,272.15L540,277.96" style="vector-effect: non-scaling-stroke; fill: none; stroke: rgb(255, 102, 146); stroke-opacity: 1; stroke-width: 2px; opacity: 1;"/></g><g class="points"/><g class="text"/></g><g class="trace scatter trace9d4fd6" style="stroke-miterlimit: 2; opacity: 1;"><g class="fills"/><g class="errorbars"/><g class="lines"><path class="js-line" d="M0,1.46L11.02,8.38L22.04,25.53L33.06,51.53L44.08,71.71L88.16,128.03L99.18,140.89L110.2,152.59L121.22,162.75L132.24,172.11L143.27,179.91L165.31,193.06L176.33,198.5L187.35,203.69L198.37,207.9L220.41,216.35L231.43,219.76L264.49,229.74L275.51,232.61L330.61,245.27L341.63,247.23L396.73,257.47L407.76,259.71L429.8,263.05L440.82,264.89L484.9,270.88L495.92,272.2L540,278.03" style="vector-effect: non-scaling-stroke; fill: none; stroke: rgb(182, 232, 128); stroke-opacity: 1; stroke-width: 2px; opacity: 1;"/></g><g class="points"/><g class="text"/></g><g class="trace scatter trace7a74a0" style="stroke-miterlimit: 2; opacity: 1;"><g class="fills"/><g class="errorbars"/><g class="lines"><path class="js-line" d="M0,1.45L11.02,8.36L22.04,25.22L33.06,51.19L44.08,71.45L88.16,127.94L99.18,140.86L110.2,152.56L121.22,162.68L132.24,172.01L143.27,179.88L165.31,193L176.33,198.46L187.35,203.63L198.37,207.84L220.41,216.24L231.43,219.67L264.49,229.66L275.51,232.53L330.61,245.17L341.63,247.19L440.82,264.8L451.84,266.46L473.88,269.8L484.9,270.85L540,277.98" style="vector-effect: non-scaling-stroke; fill: none; stroke: rgb(255, 151, 255); stroke-opacity: 1; stroke-width: 2px; opacity: 1;"/></g><g class="points"/><g class="text"/></g><g class="trace scatter trace789a7d" style="stroke-miterlimit: 2; opacity: 1;"><g class="fills"/><g class="errorbars"/><g class="lines"><path class="js-line" d="M0,2.22L11.02,12.53L22.04,31.59L33.06,52.56L44.08,68.31L55.1,80.4L66.12,89.49L77.14,97.46L88.16,106.4L121.22,132.18L132.24,141.48L165.31,163.52L176.33,169.3L198.37,180.76L209.39,185.9L242.45,198.47L253.47,202.37L275.51,209.01L286.53,211.7L308.57,217.51L319.59,220.16L374.69,232L385.71,233.85L418.78,239.83L429.8,241.23L462.86,246.33L473.88,247.58L484.9,249.8L495.92,251.06L540,256.89" style="vector-effect: non-scaling-stroke; fill: none; stroke: rgb(254, 203, 82); stroke-opacity: 1; stroke-width: 2px; opacity: 1;"/></g><g class="points"/><g class="text"/></g></g></g><g class="overplot"/><path class="xlines-above crisp" d="M0,0" style="fill: none;"/><path class="ylines-above crisp" d="M0,0" style="fill: none;"/><g class="overlines-above"/><g class="xaxislayer-above"><g class="xtick"><text text-anchor="middle" x="0" y="433" transform="translate(80,0)" style="font-family: 'Open Sans', verdana, arial, sans-serif; font-size: 12px; fill: rgb(42, 63, 95); fill-opacity: 1; white-space: pre; opacity: 1;">0</text></g><g class="xtick"><text text-anchor="middle" x="0" y="433" style="font-family: 'Open Sans', verdana, arial, sans-serif; font-size: 12px; fill: rgb(42, 63, 95); fill-opacity: 1; white-space: pre; opacity: 1;" transform="translate(190.2,0)">10</text></g><g class="xtick"><text text-anchor="middle" x="0" y="433" style="font-family: 'Open Sans', verdana, arial, sans-serif; font-size: 12px; fill: rgb(42, 63, 95); fill-opacity: 1; white-space: pre; opacity: 1;" transform="translate(300.40999999999997,0)">20</text></g><g class="xtick"><text text-anchor="middle" x="0" y="433" style="font-family: 'Open Sans', verdana, arial, sans-serif; font-size: 12px; fill: rgb(42, 63, 95); fill-opacity: 1; white-space: pre; opacity: 1;" transform="translate(410.61,0)">30</text></g><g class="xtick"><text text-anchor="middle" x="0" y="433" style="font-family: 'Open Sans', verdana, arial, sans-serif; font-size: 12px; fill: rgb(42, 63, 95); fill-opacity: 1; white-space: pre; opacity: 1;" transform="translate(520.8199999999999,0)">40</text></g></g><g class="yaxislayer-above"><g class="ytick"><text text-anchor="end" x="79" y="4.199999999999999" transform="translate(0,344.05)" style="font-family: 'Open Sans', verdana, arial, sans-serif; font-size: 12px; fill: rgb(42, 63, 95); fill-opacity: 1; white-space: pre; opacity: 1;">4</text></g><g class="ytick"><text text-anchor="end" x="79" y="4.199999999999999" style="font-family: 'Open Sans', verdana, arial, sans-serif; font-size: 12px; fill: rgb(42, 63, 95); fill-opacity: 1; white-space: pre; opacity: 1;" transform="translate(0,265.81)">4.5</text></g><g class="ytick"><text text-anchor="end" x="79" y="4.199999999999999" style="font-family: 'Open Sans', verdana, arial, sans-serif; font-size: 12px; fill: rgb(42, 63, 95); fill-opacity: 1; white-space: pre; opacity: 1;" transform="translate(0,187.57)">5</text></g><g class="ytick"><text text-anchor="end" x="79" y="4.199999999999999" style="font-family: 'Open Sans', verdana, arial, sans-serif; font-size: 12px; fill: rgb(42, 63, 95); fill-opacity: 1; white-space: pre; opacity: 1;" transform="translate(0,109.33)">5.5</text></g></g><g class="overaxes-above"/></g></g><g class="polarlayer"/><g class="ternarylayer"/><g class="geolayer"/><g class="funnelarealayer"/><g class="pielayer"/><g class="iciclelayer"/><g class="treemaplayer"/><g class="sunburstlayer"/><g class="glimages"/><defs id="topdefs-0eb42c"><g class="clips"/></defs><g class="layer-above"><g class="imagelayer"/><g class="shapelayer"/></g><g class="infolayer"><g class="g-gtitle"><text class="gtitle" x="35" y="50" text-anchor="start" dy="0em" style="font-family: 'Open Sans', verdana, arial, sans-serif; font-size: 17px; fill: rgb(42, 63, 95); opacity: 1; font-weight: normal; white-space: pre;">Train Loss: dpav4-simplified_eff_cnn (with early stopping)</text></g><g class="g-xtitle"/><g class="g-ytitle"/></g></svg>