<svg class="main-svg" xmlns="http://www.w3.org/2000/svg" xmlns:xlink="http://www.w3.org/1999/xlink" width="700" height="500" style="" viewBox="0 0 700 500"><rect x="0" y="0" width="700" height="500" style="fill: rgb(255, 255, 255); fill-opacity: 1;"/><defs id="defs-7330d7"><g class="clips"><clipPath id="clip7330d7xyplot" class="plotclip"><rect width="540" height="320"/></clipPath><clipPath class="axesclip" id="clip7330d7x"><rect x="80" y="0" width="540" height="500"/></clipPath><clipPath class="axesclip" id="clip7330d7y"><rect x="0" y="100" width="700" height="320"/></clipPath><clipPath class="axesclip" id="clip7330d7xy"><rect x="80" y="100" width="540" height="320"/></clipPath></g><g class="gradients"/><g class="patterns"/></defs><g class="bglayer"><rect class="bg" x="80" y="100" width="540" height="320" style="fill: rgb(237, 237, 237); fill-opacity: 1; stroke-width: 0;"/></g><g class="layer-below"><g class="imagelayer"/><g class="shapelayer"/></g><g class="cartesianlayer"><g class="subplot xy"><g class="layer-subplot"><g class="shapelayer"/><g class="imagelayer"/></g><g class="gridlayer"><g class="x"><path class="xgrid crisp" transform="translate(222.11,0)" d="M0,100v320" style="stroke: rgb(255, 255, 255); stroke-opacity: 1; stroke-width: 1px;"/><path class="xgrid crisp" transform="translate(364.21,0)" d="M0,100v320" style="stroke: rgb(255, 255, 255); stroke-opacity: 1; stroke-width: 1px;"/><path class="xgrid crisp" transform="translate(506.32,0)" d="M0,100v320" style="stroke: rgb(255, 255, 255); stroke-opacity: 1; stroke-width: 1px;"/></g><g class="y"><path class="ygrid crisp" transform="translate(0,402.83)" d="M80,0h540" style="stroke: rgb(255, 255, 255); stroke-opacity: 1; stroke-width: 1px;"/><path class="ygrid crisp" transform="translate(0,359.58)" d="M80,0h540" style="stroke: rgb(255, 255, 255); stroke-opacity: 1; stroke-width: 1px;"/><path class="ygrid crisp" transform="translate(0,316.34000000000003)" d="M80,0h540" style="stroke: rgb(255, 255, 255); stroke-opacity: 1; stroke-width: 1px;"/><path class="ygrid crisp" transform="translate(0,273.09000000000003)" d="M80,0h540" style="stroke: rgb(255, 255, 255); stroke-opacity: 1; stroke-width: 1px;"/><path class="ygrid crisp" transform="translate(0,229.84)" d="M80,0h540" style="stroke: rgb(255, 255, 255); stroke-opacity: 1; stroke-width: 1px;"/><path class="ygrid crisp" transform="translate(0,186.59)" d="M80,0h540" style="stroke: rgb(255, 255, 255); stroke-opacity: 1; stroke-width: 1px;"/><path class="ygrid crisp" transform="translate(0,143.34)" d="M80,0h540" style="stroke: rgb(255, 255, 255); stroke-opacity: 1; stroke-width: 1px;"/></g></g><g class="zerolinelayer"><path class="xzl zl crisp" transform="translate(80,0)" d="M0,100v320" style="stroke: rgb(255, 255, 255); stroke-opacity: 1; stroke-width: 1px;"/></g><path class="xlines-below"/><path class="ylines-below"/><g class="overlines-below"/><g class="xaxislayer-below"/><g class="yaxislayer-below"/><g class="overaxes-below"/><g class="plot" transform="translate(80,100)" clip-path="url(#clip7330d7xyplot)"><g class="scatterlayer mlayer"><g class="trace scatter trace197335" style="stroke-miterlimit: 2; opacity: 1;"><g class="fills"/><g class="errorbars"/><g class="lines"><path class="js-line" d="M0,316.95L28.42,297.64L56.84,290.27L85.26,294.6L113.68,293.22L142.11,292.63L170.53,285.91L227.37,272.49L255.79,262.08L284.21,258.01L312.63,241.85L341.05,226.03L369.47,206.81L426.32,149.75L454.74,110.08L483.16,74.64L511.58,40.4L540,4.71" style="vector-effect: non-scaling-stroke; fill: none; stroke: rgb(248, 118, 109); stroke-opacity: 1; stroke-width: 2px; opacity: 1;"/></g><g class="points"/><g class="text"/></g><g class="trace scatter traceabbbcc" style="stroke-miterlimit: 2; opacity: 1;"><g class="fills"/><g class="errorbars"/><g class="lines"><path class="js-line" d="M0,315.93L28.42,294.08L56.84,291.9L85.26,285.95L113.68,278.23L142.11,279.76L170.53,277.39L198.95,281.56L227.37,278.67L255.79,278.17L284.21,276.56L312.63,264.08L341.05,258.2L369.47,242.21L397.89,227.29L426.32,211.54L454.74,182.8L483.16,153.16L511.58,120.03L540,84.43" style="vector-effect: non-scaling-stroke; fill: none; stroke: rgb(163, 165, 0); stroke-opacity: 1; stroke-width: 2px; opacity: 1;"/></g><g class="points"/><g class="text"/></g><g class="trace scatter trace973a15" style="stroke-miterlimit: 2; opacity: 1;"><g class="fills"/><g class="errorbars"/><g class="lines"><path class="js-line" d="M0,315.18L28.42,293.69L56.84,290.44L113.68,285.43L142.11,288.8L170.53,280.98L198.95,281.04L227.37,273.16L255.79,269.5L284.21,261.59L312.63,247.43L341.05,234.16L369.47,215.92L397.89,191.54L426.32,164.72L483.16,98.34L511.58,66.67L540,36.14" style="vector-effect: non-scaling-stroke; fill: none; stroke: rgb(0, 191, 125); stroke-opacity: 1; stroke-width: 2px; opacity: 1;"/></g><g class="points"/><g class="text"/></g><g class="trace scatter trace953ed6" style="stroke-miterlimit: 2; opacity: 1;"><g class="fills"/><g class="errorbars"/><g class="lines"><path class="js-line" d="M0,317.06L28.42,294.84L56.84,289.17L85.26,288.37L113.68,284.79L142.11,287.3L170.53,287.49L198.95,280.69L227.37,275.71L255.79,268.82L284.21,264.85L312.63,261.75L341.05,250.86L397.89,221.2L426.32,203.27L454.74,179.59L483.16,154.52L511.58,128.89L540,92.42" style="vector-effect: non-scaling-stroke; fill: none; stroke: rgb(0, 176, 246); stroke-opacity: 1; stroke-width: 2px; opacity: 1;"/></g><g class="points"/><g class="text"/></g><g class="trace scatter trace629c95" style="stroke-miterlimit: 2; opacity: 1;"><g class="fills"/><g class="errorbars"/><g class="lines"><path class="js-line" d="M0,314.65L28.42,295.75L56.84,290.45L85.26,290.34L113.68,296.5L142.11,291.05L170.53,292.54L198.95,286.9L227.37,279.18L255.79,279.55L284.21,267.6L341.05,247.43L369.47,232L397.89,212.06L426.32,187.48L454.74,160.85L483.16,127.35L511.58,94.02L540,63.42" style="vector-effect: non-scaling-stroke; fill: none; stroke: rgb(231, 107, 243); stroke-opacity: 1; stroke-width: 2px; opacity: 1;"/></g><g class="points"/><g class="text"/></g><g class="trace scatter trace0178f7" style="stroke-miterlimit: 2; opacity: 1;"><g class="fills"/><g class="errorbars"/><g class="lines"><path class="js-line" d="M0,318.25L28.42,299.1L56.84,294.51L113.68,295.25L142.11,291.97L170.53,291.92L198.95,287.4L227.37,278.35L255.79,275.42L284.21,266.43L312.63,259.12L341.05,247.87L369.47,238.32L397.89,219.12L426.32,198.38L454.74,173.68L483.16,142.23L511.58,112.51L540,78.06" style="vector-effect: non-scaling-stroke; fill: none; stroke: rgb(248, 118, 109); stroke-opacity: 1; stroke-width: 2px; opacity: 1;"/></g><g class="points"/><g class="text"/></g><g class="trace scatter trace946feb" style="stroke-miterlimit: 2; opacity: 1;"><g class="fills"/><g class="errorbars"/><g class="lines"><path class="js-line" d="M0,316.91L28.42,294.82L56.84,290.46L85.26,287.22L113.68,288.99L142.11,290.3L170.53,288.99L198.95,280.5L227.37,277.86L255.79,273.45L284.21,268.1L312.63,262.05L341.05,249.67L397.89,212.35L426.32,186.69L454.74,163.83L483.16,142.27L511.58,117.37L540,80.3" style="vector-effect: non-scaling-stroke; fill: none; stroke: rgb(163, 165, 0); stroke-opacity: 1; stroke-width: 2px; opacity: 1;"/></g><g class="points"/><g class="text"/></g><g class="trace scatter trace0cc3f3" style="stroke-miterlimit: 2; opacity: 1;"><g class="fills"/><g class="errorbars"/><g class="lines"><path class="js-line" d="M0,318.68L28.42,293.52L56.84,291.04L85.26,288.52L113.68,288.34L142.11,293.99L170.53,290.16L198.95,281.76L227.37,281.37L255.79,271.42L284.21,268.7L312.63,260.65L341.05,247.84L369.47,238.27L397.89,220.1L426.32,192.87L454.74,162.24L483.16,132.09L511.58,100.28L540,71.31" style="vector-effect: non-scaling-stroke; fill: none; stroke: rgb(0, 191, 125); stroke-opacity: 1; stroke-width: 2px; opacity: 1;"/></g><g class="points"/><g class="text"/></g><g class="trace scatter trace3b6760" style="stroke-miterlimit: 2; opacity: 1;"><g class="fills"/><g class="errorbars"/><g class="lines"><path class="js-line" d="M0,316.19L28.42,294.6L56.84,290.51L85.26,290.54L113.68,293.01L142.11,288.31L170.53,288.59L198.95,280.74L227.37,280.14L255.79,276.13L284.21,275.63L312.63,261.88L341.05,257.05L369.47,238.13L397.89,215.48L426.32,193.04L454.74,162.14L483.16,131.49L511.58,99.19L540,62.88" style="vector-effect: non-scaling-stroke; fill: none; stroke: rgb(0, 176, 246); stroke-opacity: 1; stroke-width: 2px; opacity: 1;"/></g><g class="points"/><g class="text"/></g><g class="trace scatter trace64b083" style="stroke-miterlimit: 2; opacity: 1;"><g class="fills"/><g class="errorbars"/><g class="lines"><path class="js-line" d="M0,316.98L28.42,293.39L56.84,290.11L113.68,286.41L142.11,286.78L170.53,284.8L198.95,281.14L227.37,272.63L255.79,269.7L312.63,253.1L341.05,235.17L369.47,218.08L397.89,191.41L426.32,159.17L454.74,131.58L483.16,93.94L511.58,57.64L540,25.24" style="vector-effect: non-scaling-stroke; fill: none; stroke: rgb(231, 107, 243); stroke-opacity: 1; stroke-width: 2px; opacity: 1;"/></g><g class="points"/><g class="text"/></g><g class="trace scatter trace25d813" style="stroke-miterlimit: 2; opacity: 1;"><g class="fills"/><g class="errorbars"/><g class="lines"><path class="js-line" d="M0,315.15L28.42,293.81L56.84,293.53L85.26,290.01L113.68,292.51L142.11,290.98L170.53,292.07L198.95,281.08L227.37,275.92L255.79,271.36L284.21,262.42L312.63,249.4L341.05,230.84L369.47,215.42L397.89,189.09L426.32,161.45L454.74,130.12L483.16,93.42L511.58,60.69L540,22.55" style="vector-effect: non-scaling-stroke; fill: none; stroke: rgb(248, 118, 109); stroke-opacity: 1; stroke-width: 2px; opacity: 1;"/></g><g class="points"/><g class="text"/></g><g class="trace scatter trace695df8" style="stroke-miterlimit: 2; opacity: 1;"><g class="fills"/><g class="errorbars"/><g class="lines"><path class="js-line" d="M0,315.6L28.42,291.11L56.84,289.23L113.68,280.22L142.11,277.18L170.53,274.59L198.95,270.53L227.37,269.03L255.79,265.72L284.21,263.96L312.63,256.49L341.05,251.24L369.47,241.13L397.89,227.05L426.32,210.97L454.74,185.92L483.16,166.23L511.58,143.46L540,113.84" style="vector-effect: non-scaling-stroke; fill: none; stroke: rgb(163, 165, 0); stroke-opacity: 1; stroke-width: 2px; opacity: 1;"/></g><g class="points"/><g class="text"/></g><g class="trace scatter trace0a11f4" style="stroke-miterlimit: 2; opacity: 1;"><g class="fills"/><g class="errorbars"/><g class="lines"><path class="js-line" d="M0,315.29L28.42,292.42L56.84,289.58L85.26,284.19L113.68,277.64L142.11,273.54L170.53,270.44L198.95,271.07L227.37,266.78L255.79,260.47L284.21,257.35L312.63,252.69L341.05,240.3L369.47,229.97L397.89,221.61L426.32,205.33L454.74,184.95L483.16,160.71L511.58,126.49L540,95.04" style="vector-effect: non-scaling-stroke; fill: none; stroke: rgb(0, 191, 125); stroke-opacity: 1; stroke-width: 2px; opacity: 1;"/></g><g class="points"/><g class="text"/></g><g class="trace scatter trace495c39" style="stroke-miterlimit: 2; opacity: 1;"><g class="fills"/><g class="errorbars"/><g class="lines"><path class="js-line" d="M0,311.9L28.42,294.77L56.84,288.75L85.26,286.47L113.68,287.71L142.11,286.48L170.53,287.38L198.95,284.61L227.37,283.5L255.79,269.53L284.21,260.13L312.63,254.76L341.05,244.65L397.89,218.66L426.32,183.36L454.74,158.54L483.16,122.5L511.58,89.87L540,58.89" style="vector-effect: non-scaling-stroke; fill: none; stroke: rgb(0, 176, 246); stroke-opacity: 1; stroke-width: 2px; opacity: 1;"/></g><g class="points"/><g class="text"/></g><g class="trace scatter tracea058a7" style="stroke-miterlimit: 2; opacity: 1;"><g class="fills"/><g class="errorbars"/><g class="lines"><path class="js-line" d="M0,316.53L28.42,295.65L56.84,295.2L85.26,293.28L113.68,294.14L142.11,288.8L170.53,286.94L227.37,275.17L255.79,270.89L284.21,261.37L312.63,252.75L341.05,238.01L369.47,219.94L426.32,173.44L454.74,141.53L540,43.38" style="vector-effect: non-scaling-stroke; fill: none; stroke: rgb(231, 107, 243); stroke-opacity: 1; stroke-width: 2px; opacity: 1;"/></g><g class="points"/><g class="text"/></g><g class="trace scatter trace5a63aa" style="stroke-miterlimit: 2; opacity: 1;"><g class="fills"/><g class="errorbars"/><g class="lines"><path class="js-line" d="M0,314.71L28.42,293.89L56.84,289.28L85.26,282.64L113.68,281.18L198.95,269.92L227.37,271.02L255.79,270.61L284.21,271L312.63,261.42L341.05,252.85L369.47,237.66L397.89,218.2L426.32,194.39L454.74,172.55L483.16,139.03L511.58,110.99L540,75.37" style="vector-effect: non-scaling-stroke; fill: none; stroke: rgb(248, 118, 109); stroke-opacity: 1; stroke-width: 2px; opacity: 1;"/></g><g class="points"/><g class="text"/></g><g class="trace scatter trace7b2ef7" style="stroke-miterlimit: 2; opacity: 1;"><g class="fills"/><g class="errorbars"/><g class="lines"><path class="js-line" d="M0,315.96L28.42,295.06L56.84,288.54L113.68,284.43L142.11,288.37L170.53,282.31L198.95,280.1L227.37,276.13L255.79,268.88L284.21,258.96L312.63,251.62L341.05,240.62L369.47,221.44L397.89,196.15L426.32,174.21L454.74,143.98L483.16,110.57L511.58,79.55L540,37.96" style="vector-effect: non-scaling-stroke; fill: none; stroke: rgb(163, 165, 0); stroke-opacity: 1; stroke-width: 2px; opacity: 1;"/></g><g class="points"/><g class="text"/></g><g class="trace scatter trace8f4be1" style="stroke-miterlimit: 2; opacity: 1;"><g class="fills"/><g class="errorbars"/><g class="lines"><path class="js-line" d="M0,316.64L28.42,296.5L56.84,292.09L85.26,288.57L113.68,288.32L142.11,286.72L170.53,288.02L227.37,278.72L255.79,273.46L312.63,264.88L341.05,254.38L369.47,235.88L397.89,226.33L426.32,203.05L454.74,177.38L483.16,144.54L511.58,116.89L540,91.57" style="vector-effect: non-scaling-stroke; fill: none; stroke: rgb(0, 191, 125); stroke-opacity: 1; stroke-width: 2px; opacity: 1;"/></g><g class="points"/><g class="text"/></g><g class="trace scatter trace086c3a" style="stroke-miterlimit: 2; opacity: 1;"><g class="fills"/><g class="errorbars"/><g class="lines"><path class="js-line" d="M0,316.94L28.42,295.94L56.84,289.14L85.26,288.44L113.68,290.38L170.53,287.78L198.95,284L255.79,269.46L284.21,264.34L312.63,257.16L341.05,240.3L369.47,227.09L397.89,205.81L426.32,184.31L454.74,155.48L483.16,119.95L511.58,88.09L540,54.93" style="vector-effect: non-scaling-stroke; fill: none; stroke: rgb(0, 176, 246); stroke-opacity: 1; stroke-width: 2px; opacity: 1;"/></g><g class="points"/><g class="text"/></g><g class="trace scatter trace5121c5" style="stroke-miterlimit: 2; opacity: 1;"><g class="fills"/><g class="errorbars"/><g class="lines"><path class="js-line" d="M0,313.84L28.42,294.46L56.84,287L113.68,279.73L142.11,277.98L170.53,279.41L198.95,274.07L227.37,275.12L255.79,274.1L312.63,262.79L341.05,254.55L397.89,230.21L426.32,201.66L454.74,182.3L483.16,143.37L511.58,116.64L540,95.53" style="vector-effect: non-scaling-stroke; fill: none; stroke: rgb(231, 107, 243); stroke-opacity: 1; stroke-width: 2px; opacity: 1;"/></g><g class="points"/><g class="text"/></g><g class="trace scatter trace97624a" style="stroke-miterlimit: 2; opacity: 1;"><g class="fills"/><g class="errorbars"/><g class="lines"><path class="js-line" d="M0,316.64L28.42,294.89L56.84,289.19L85.26,287.77L113.68,292.09L142.11,290.06L170.53,279.32L198.95,279.77L227.37,275.97L255.79,266.12L284.21,259.8L312.63,255.06L341.05,241.54L369.47,223.85L397.89,201.3L426.32,176.62L454.74,146.45L483.16,120.53L511.58,92.96L540,61" style="vector-effect: non-scaling-stroke; fill: none; stroke: rgb(248, 118, 109); stroke-opacity: 1; stroke-width: 2px; opacity: 1;"/></g><g class="points"/><g class="text"/></g><g class="trace scatter trace15bff5" style="stroke-miterlimit: 2; opacity: 1;"><g class="fills"/><g class="errorbars"/><g class="lines"><path class="js-line" d="M0,315.8L28.42,294.52L56.84,293.35L85.26,292.55L113.68,297.6L170.53,289.94L198.95,289.31L227.37,289.37L255.79,287.25L284.21,278.55L312.63,272.79L341.05,260.57L369.47,245.73L397.89,227.64L426.32,208.4L454.74,182.74L483.16,158.46L511.58,129.55L540,95.73" style="vector-effect: non-scaling-stroke; fill: none; stroke: rgb(163, 165, 0); stroke-opacity: 1; stroke-width: 2px; opacity: 1;"/></g><g class="points"/><g class="text"/></g><g class="trace scatter trace19f480" style="stroke-miterlimit: 2; opacity: 1;"><g class="fills"/><g class="errorbars"/><g class="lines"><path class="js-line" d="M0,317.43L28.42,295.55L56.84,288.32L85.26,294.28L113.68,289.53L142.11,292.02L170.53,288.8L198.95,285.37L227.37,279.48L255.79,268.68L284.21,266.07L312.63,264.43L341.05,253.91L369.47,236.89L397.89,214.45L426.32,194.41L454.74,166.49L483.16,132.83L511.58,100.73L540,65.28" style="vector-effect: non-scaling-stroke; fill: none; stroke: rgb(0, 191, 125); stroke-opacity: 1; stroke-width: 2px; opacity: 1;"/></g><g class="points"/><g class="text"/></g><g class="trace scatter trace78a198" style="stroke-miterlimit: 2; opacity: 1;"><g class="fills"/><g class="errorbars"/><g class="lines"><path class="js-line" d="M0,316.55L28.42,293.03L56.84,292.02L85.26,290.24L113.68,290.11L142.11,289.16L170.53,286.29L198.95,284.68L227.37,280.13L255.79,277.6L284.21,270.2L312.63,254.92L341.05,243.41L369.47,226.22L397.89,198.56L426.32,174.01L454.74,140.2L511.58,69.8L540,35.68" style="vector-effect: non-scaling-stroke; fill: none; stroke: rgb(0, 176, 246); stroke-opacity: 1; stroke-width: 2px; opacity: 1;"/></g><g class="points"/><g class="text"/></g><g class="trace scatter trace99914b" style="stroke-miterlimit: 2; opacity: 1;"><g class="fills"/><g class="errorbars"/><g class="lines"><path class="js-line" d="M0,318.86L28.42,292.04L56.84,289.93L85.26,286.92L113.68,280.81L142.11,279.44L170.53,281.85L198.95,279.38L227.37,279.53L255.79,270.94L284.21,263.63L312.63,256.46L341.05,244.69L369.47,228.07L397.89,207.89L454.74,158.76L483.16,132.64L511.58,98.94L540,69.18" style="vector-effect: non-scaling-stroke; fill: none; stroke: rgb(231, 107, 243); stroke-opacity: 1; stroke-width: 2px; opacity: 1;"/></g><g class="points"/><g class="text"/></g><g class="trace scatter trace705e08" style="stroke-miterlimit: 2; opacity: 1;"><g class="fills"/><g class="errorbars"/><g class="lines"><path class="js-line" d="M0,317.96L28.42,295.02L56.84,290.98L85.26,290.77L113.68,289.27L142.11,287.6L170.53,293.87L198.95,286.25L227.37,280.02L255.79,277.8L284.21,279.96L312.63,272.94L341.05,258.04L369.47,243.94L397.89,223.1L426.32,191.88L454.74,169.11L483.16,139.46L511.58,111.34L540,76.36" style="vector-effect: non-scaling-stroke; fill: none; stroke: rgb(248, 118, 109); stroke-opacity: 1; stroke-width: 2px; opacity: 1;"/></g><g class="points"/><g class="text"/></g><g class="trace scatter trace7aa7ed" style="stroke-miterlimit: 2; opacity: 1;"><g class="fills"/><g class="errorbars"/><g class="lines"><path class="js-line" d="M0,315.84L28.42,293.01L56.84,293.02L85.26,291.64L113.68,295.1L142.11,292.27L170.53,283.09L198.95,283.14L227.37,274.07L255.79,271.95L284.21,263.13L312.63,254.83L341.05,241.48L369.47,228.53L397.89,207.55L426.32,185.89L454.74,160.86L483.16,130.04L511.58,101.16L540,68.56" style="vector-effect: non-scaling-stroke; fill: none; stroke: rgb(163, 165, 0); stroke-opacity: 1; stroke-width: 2px; opacity: 1;"/></g><g class="points"/><g class="text"/></g><g class="trace scatter tracebeb09e" style="stroke-miterlimit: 2; opacity: 1;"><g class="fills"/><g class="errorbars"/><g class="lines"><path class="js-line" d="M0,313.96L28.42,295.38L56.84,293.73L85.26,289.7L113.68,288.79L142.11,287.94L170.53,285.34L227.37,275.15L255.79,267.98L284.21,257.27L312.63,239.55L341.05,223.99L369.47,198.79L397.89,173.53L426.32,137.53L454.74,103.88L483.16,68.67L511.58,32.75L540,0" style="vector-effect: non-scaling-stroke; fill: none; stroke: rgb(0, 191, 125); stroke-opacity: 1; stroke-width: 2px; opacity: 1;"/></g><g class="points"/><g class="text"/></g><g class="trace scatter trace280a24" style="stroke-miterlimit: 2; opacity: 1;"><g class="fills"/><g class="errorbars"/><g class="lines"><path class="js-line" d="M0,316.8L28.42,294.03L56.84,289.09L85.26,286.21L113.68,287.96L142.11,285.95L170.53,285.65L198.95,281.38L227.37,272.93L255.79,265.6L284.21,259.57L312.63,249.51L341.05,232.59L369.47,215.24L397.89,187.99L454.74,127.74L483.16,87.16L540,15.98" style="vector-effect: non-scaling-stroke; fill: none; stroke: rgb(0, 176, 246); stroke-opacity: 1; stroke-width: 2px; opacity: 1;"/></g><g class="points"/><g class="text"/></g><g class="trace scatter traceee5a69" style="stroke-miterlimit: 2; opacity: 1;"><g class="fills"/><g class="errorbars"/><g class="lines"><path class="js-line" d="M0,313.24L28.42,297.66L56.84,291.48L85.26,291.98L113.68,286.87L142.11,285.05L170.53,287.49L198.95,287.14L227.37,278.4L255.79,272.56L284.21,263.43L312.63,256.73L341.05,240.52L369.47,224.17L397.89,205.43L426.32,181.14L454.74,151.37L483.16,121.13L511.58,88.96L540,55.06" style="vector-effect: non-scaling-stroke; fill: none; stroke: rgb(231, 107, 243); stroke-opacity: 1; stroke-width: 2px; opacity: 1;"/></g><g class="points"/><g class="text"/></g><g class="trace scatter traceb26655" style="stroke-miterlimit: 2; opacity: 1;"><g class="fills"/><g class="errorbars"/><g class="lines"><path class="js-line" d="M0,317.39L28.42,294.53L56.84,289.52L85.26,284.36L113.68,282.42L142.11,280.09L170.53,278.53L198.95,282.42L227.37,275.62L255.79,272.98L284.21,272.14L312.63,265.72L341.05,258.41L369.47,243.35L397.89,223.87L426.32,202.08L454.74,174.01L511.58,121.24L540,80.26" style="vector-effect: non-scaling-stroke; fill: none; stroke: rgb(248, 118, 109); stroke-opacity: 1; stroke-width: 2px; opacity: 1;"/></g><g class="points"/><g class="text"/></g><g class="trace scatter traceed2d87" style="stroke-miterlimit: 2; opacity: 1;"><g class="fills"/><g class="errorbars"/><g class="lines"><path class="js-line" d="M0,314.23L28.42,293.89L56.84,288.83L85.26,284.22L113.68,285.01L142.11,286.61L170.53,286.43L198.95,285.55L227.37,279.61L255.79,280.45L284.21,277.1L312.63,265.07L341.05,258.18L369.47,249.58L397.89,237.54L426.32,219.9L454.74,196.92L483.16,175.77L511.58,150.09L540,120.17" style="vector-effect: non-scaling-stroke; fill: none; stroke: rgb(163, 165, 0); stroke-opacity: 1; stroke-width: 2px; opacity: 1;"/></g><g class="points"/><g class="text"/></g><g class="trace scatter tracefb36e1" style="stroke-miterlimit: 2; opacity: 1;"><g class="fills"/><g class="errorbars"/><g class="lines"><path class="js-line" d="M0,316.74L28.42,296.41L56.84,293.74L85.26,289.52L113.68,293.62L142.11,290.84L170.53,284.63L198.95,283.02L227.37,276.48L255.79,273.76L284.21,275.37L312.63,264.86L341.05,250.14L397.89,208.42L426.32,185.34L454.74,158.08L483.16,123.49L540,65.11" style="vector-effect: non-scaling-stroke; fill: none; stroke: rgb(0, 191, 125); stroke-opacity: 1; stroke-width: 2px; opacity: 1;"/></g><g class="points"/><g class="text"/></g><g class="trace scatter trace1ba2d2" style="stroke-miterlimit: 2; opacity: 1;"><g class="fills"/><g class="errorbars"/><g class="lines"><path class="js-line" d="M0,315.83L28.42,294.38L56.84,291.67L85.26,286.34L113.68,285.73L142.11,279.79L170.53,276.43L198.95,280.97L227.37,278.31L255.79,273.58L284.21,270.72L312.63,264.85L341.05,257.06L369.47,246.91L397.89,232.23L426.32,215.57L454.74,195.31L483.16,171.74L511.58,142.35L540,112.2" style="vector-effect: non-scaling-stroke; fill: none; stroke: rgb(0, 176, 246); stroke-opacity: 1; stroke-width: 2px; opacity: 1;"/></g><g class="points"/><g class="text"/></g><g class="trace scatter trace032b16" style="stroke-miterlimit: 2; opacity: 1;"><g class="fills"/><g class="errorbars"/><g class="lines"><path class="js-line" d="M0,312.72L28.42,294.6L56.84,289.09L85.26,288.54L113.68,286.84L170.53,286.27L198.95,283.72L227.37,277.92L255.79,276.31L284.21,270.94L312.63,263.16L341.05,247.63L369.47,243.51L397.89,227.35L426.32,209.24L454.74,173.27L483.16,148L511.58,118.34L540,87.3" style="vector-effect: non-scaling-stroke; fill: none; stroke: rgb(231, 107, 243); stroke-opacity: 1; stroke-width: 2px; opacity: 1;"/></g><g class="points"/><g class="text"/></g><g class="trace scatter trace5a28b9" style="stroke-miterlimit: 2; opacity: 1;"><g class="fills"/><g class="errorbars"/><g class="lines"><path class="js-line" d="M0,317.37L28.42,297.66L56.84,292.49L85.26,290.69L113.68,289.65L142.11,291.01L170.53,287.17L198.95,279.66L227.37,274.91L255.79,266.07L284.21,260.47L312.63,249.01L341.05,234.89L369.47,221.11L397.89,201.03L426.32,175.42L454.74,142.97L511.58,72.12L540,41.31" style="vector-effect: non-scaling-stroke; fill: none; stroke: rgb(248, 118, 109); stroke-opacity: 1; stroke-width: 2px; opacity: 1;"/></g><g class="points"/><g class="text"/></g><g class="trace scatter tracee5c390" style="stroke-miterlimit: 2; opacity: 1;"><g class="fills"/><g class="errorbars"/><g class="lines"><path class="js-line" d="M0,315.87L28.42,297.07L56.84,292.42L85.26,293.08L113.68,295.87L142.11,292.41L170.53,286.06L198.95,282.21L227.37,280.84L255.79,273.6L284.21,270.25L341.05,243.09L369.47,220.53L397.89,199.65L426.32,167.87L511.58,68.9L540,29.16" style="vector-effect: non-scaling-stroke; fill: none; stroke: rgb(163, 165, 0); stroke-opacity: 1; stroke-width: 2px; opacity: 1;"/></g><g class="points"/><g class="text"/></g><g class="trace scatter trace57e3b5" style="stroke-miterlimit: 2; opacity: 1;"><g class="fills"/><g class="errorbars"/><g class="lines"><path class="js-line" d="M0,317.9L28.42,295.68L56.84,289.57L113.68,294.11L142.11,291.78L170.53,286.77L198.95,285.19L227.37,277.41L255.79,278.05L284.21,267.57L312.63,258.64L341.05,246.56L369.47,229.13L397.89,211.32L426.32,188.05L483.16,127.53L511.58,94.32L540,62.48" style="vector-effect: non-scaling-stroke; fill: none; stroke: rgb(0, 191, 125); stroke-opacity: 1; stroke-width: 2px; opacity: 1;"/></g><g class="points"/><g class="text"/></g><g class="trace scatter tracecf08f0" style="stroke-miterlimit: 2; opacity: 1;"><g class="fills"/><g class="errorbars"/><g class="lines"><path class="js-line" d="M0,316.31L28.42,295.59L56.84,288.44L85.26,288.73L113.68,285.74L142.11,287.95L170.53,282.76L198.95,282.51L227.37,279.2L284.21,267.61L312.63,258.96L341.05,249.83L369.47,243.63L397.89,223.15L426.32,200.58L454.74,173.41L483.16,147.54L511.58,115.69L540,82.21" style="vector-effect: non-scaling-stroke; fill: none; stroke: rgb(0, 176, 246); stroke-opacity: 1; stroke-width: 2px; opacity: 1;"/></g><g class="points"/><g class="text"/></g><g class="trace scatter trace60bcfb" style="stroke-miterlimit: 2; opacity: 1;"><g class="fills"/><g class="errorbars"/><g class="lines"><path class="js-line" d="M0,315.21L28.42,293.27L56.84,291.82L85.26,287.79L113.68,290.89L142.11,291.9L170.53,289.75L198.95,281.49L227.37,275.73L255.79,268.38L284.21,258.34L341.05,231.04L369.47,210.95L397.89,180.3L426.32,148.51L454.74,117.92L483.16,78.45L511.58,41.23L540,2.08" style="vector-effect: non-scaling-stroke; fill: none; stroke: rgb(231, 107, 243); stroke-opacity: 1; stroke-width: 2px; opacity: 1;"/></g><g class="points"/><g class="text"/></g><g class="trace scatter trace370169" style="stroke-miterlimit: 2; opacity: 1;"><g class="fills"/><g class="errorbars"/><g class="lines"><path class="js-line" d="M0,314.63L28.42,292.09L56.84,291.04L85.26,288.14L113.68,281.77L142.11,276.36L170.53,277.35L198.95,272.08L227.37,268.34L284.21,265.21L312.63,262.26L341.05,260.1L369.47,250.97L397.89,237.67L426.32,227.33L454.74,212.47L483.16,194.16L511.58,172.42L540,146.45" style="vector-effect: non-scaling-stroke; fill: none; stroke: rgb(248, 118, 109); stroke-opacity: 1; stroke-width: 2px; opacity: 1;"/></g><g class="points"/><g class="text"/></g><g class="trace scatter trace810f64" style="stroke-miterlimit: 2; opacity: 1;"><g class="fills"/><g class="errorbars"/><g class="lines"><path class="js-line" d="M0,315.43L28.42,293.86L56.84,289.35L85.26,285.17L113.68,284.7L142.11,288.89L170.53,286.29L198.95,286.01L227.37,287.73L255.79,282.96L284.21,284.91L312.63,279.55L341.05,272.11L397.89,243.74L426.32,229.22L454.74,216.01L483.16,190.5L511.58,169.41L540,141.17" style="vector-effect: non-scaling-stroke; fill: none; stroke: rgb(163, 165, 0); stroke-opacity: 1; stroke-width: 2px; opacity: 1;"/></g><g class="points"/><g class="text"/></g><g class="trace scatter trace7360ff" style="stroke-miterlimit: 2; opacity: 1;"><g class="fills"/><g class="errorbars"/><g class="lines"><path class="js-line" d="M0,317.47L28.42,296.02L56.84,288.36L85.26,288.9L113.68,290.36L142.11,288.06L170.53,290.33L227.37,283.78L255.79,277.1L284.21,274.4L312.63,267.06L341.05,256.21L369.47,240.38L397.89,218.39L426.32,193.74L454.74,164.14L483.16,127.81L511.58,91.51L540,56.57" style="vector-effect: non-scaling-stroke; fill: none; stroke: rgb(0, 191, 125); stroke-opacity: 1; stroke-width: 2px; opacity: 1;"/></g><g class="points"/><g class="text"/></g><g class="trace scatter trace53dd4b" style="stroke-miterlimit: 2; opacity: 1;"><g class="fills"/><g class="errorbars"/><g class="lines"><path class="js-line" d="M0,312.25L28.42,294.22L56.84,287.82L113.68,282.03L142.11,280.75L170.53,276.61L198.95,277.33L227.37,279.47L255.79,274.65L284.21,268.88L312.63,269.92L341.05,262.23L369.47,250.33L397.89,238.02L426.32,221.73L454.74,211.47L483.16,185.31L511.58,165.1L540,133.78" style="vector-effect: non-scaling-stroke; fill: none; stroke: rgb(0, 176, 246); stroke-opacity: 1; stroke-width: 2px; opacity: 1;"/></g><g class="points"/><g class="text"/></g><g class="trace scatter tracecb90f3" style="stroke-miterlimit: 2; opacity: 1;"><g class="fills"/><g class="errorbars"/><g class="lines"><path class="js-line" d="M0,314.26L28.42,295.82L56.84,291.25L85.26,286.77L113.68,284.42L142.11,275.32L170.53,274.55L198.95,274.79L227.37,270.23L255.79,272.14L284.21,269.87L312.63,261.82L341.05,251.91L369.47,244.3L397.89,225.79L426.32,197.66L454.74,179.65L483.16,141.53L511.58,111.77L540,81.76" style="vector-effect: non-scaling-stroke; fill: none; stroke: rgb(231, 107, 243); stroke-opacity: 1; stroke-width: 2px; opacity: 1;"/></g><g class="points"/><g class="text"/></g><g class="trace scatter trace64d153" style="stroke-miterlimit: 2; opacity: 1;"><g class="fills"/><g class="errorbars"/><g class="lines"><path class="js-line" d="M0,315.75L28.42,295.1L56.84,292.07L85.26,286.42L113.68,281.87L142.11,283.74L170.53,282.69L198.95,285.92L227.37,275.49L255.79,270.01L284.21,262.18L312.63,254.65L341.05,239.21L369.47,226.01L397.89,201.3L426.32,177.76L454.74,142L483.16,113.5L511.58,82.9L540,49.01" style="vector-effect: non-scaling-stroke; fill: none; stroke: rgb(248, 118, 109); stroke-opacity: 1; stroke-width: 2px; opacity: 1;"/></g><g class="points"/><g class="text"/></g><g class="trace scatter trace31db65" style="stroke-miterlimit: 2; opacity: 1;"><g class="fills"/><g class="errorbars"/><g class="lines"><path class="js-line" d="M0,313.99L28.42,292.84L56.84,292.33L85.26,292.5L113.68,294.41L142.11,289.65L170.53,288.08L198.95,281.35L227.37,273.36L255.79,267.38L284.21,258.42L312.63,249.9L341.05,237.48L369.47,212.84L397.89,191.51L426.32,163.96L454.74,133.18L483.16,100.1L511.58,63.61L540,34.67" style="vector-effect: non-scaling-stroke; fill: none; stroke: rgb(163, 165, 0); stroke-opacity: 1; stroke-width: 2px; opacity: 1;"/></g><g class="points"/><g class="text"/></g><g class="trace scatter traceb3698b" style="stroke-miterlimit: 2; opacity: 1;"><g class="fills"/><g class="errorbars"/><g class="lines"><path class="js-line" d="M0,313.02L28.42,295.41L56.84,289.08L85.26,292.5L113.68,291.13L142.11,290.54L170.53,286.4L198.95,280.76L227.37,276.21L255.79,267.67L284.21,264.63L312.63,248.09L341.05,236L369.47,217.87L397.89,193.52L426.32,165.26L454.74,133.52L483.16,106.26L511.58,67.66L540,30.9" style="vector-effect: non-scaling-stroke; fill: none; stroke: rgb(0, 191, 125); stroke-opacity: 1; stroke-width: 2px; opacity: 1;"/></g><g class="points"/><g class="text"/></g><g class="trace scatter traced4de8c" style="stroke-miterlimit: 2; opacity: 1;"><g class="fills"/><g class="errorbars"/><g class="lines"><path class="js-line" d="M0,320L28.42,295.87L56.84,290.92L85.26,288.99L113.68,281.2L142.11,284.67L170.53,281.04L198.95,286.67L227.37,282.09L255.79,279.29L284.21,271.39L312.63,262.98L341.05,251.64L369.47,234.43L397.89,213.6L426.32,194.6L454.74,161.69L483.16,138.65L511.58,111.66L540,77.01" style="vector-effect: non-scaling-stroke; fill: none; stroke: rgb(0, 176, 246); stroke-opacity: 1; stroke-width: 2px; opacity: 1;"/></g><g class="points"/><g class="text"/></g><g class="trace scatter trace161f25" style="stroke-miterlimit: 2; opacity: 1;"><g class="fills"/><g class="errorbars"/><g class="lines"><path class="js-line" d="M0,317.92L28.42,294.3L56.84,291.86L85.26,289.45L113.68,290.81L142.11,290.31L170.53,287.77L198.95,280.92L227.37,273.16L255.79,270.07L284.21,259.32L312.63,252.29L341.05,238.67L369.47,220.77L397.89,193.6L426.32,167.62L454.74,134.98L483.16,100.3L511.58,62.65L540,18.96" style="vector-effect: non-scaling-stroke; fill: none; stroke: rgb(231, 107, 243); stroke-opacity: 1; stroke-width: 2px; opacity: 1;"/></g><g class="points"/><g class="text"/></g></g></g><g class="overplot"/><path class="xlines-above crisp" d="" style="fill: none; stroke-width: 1px; stroke: rgb(0, 0, 0); stroke-opacity: 0;"/><path class="ylines-above crisp" d="" style="fill: none; stroke-width: 1px; stroke: rgb(0, 0, 0); stroke-opacity: 0;"/><g class="overlines-above"/><g class="xaxislayer-above"><path class="xtick ticks crisp" d="M0,421v5" transform="translate(80,0)" style="stroke: rgb(51, 51, 51); stroke-opacity: 1; stroke-width: 1px;"/><path class="xtick ticks crisp" d="M0,421v5" transform="translate(222.11,0)" style="stroke: rgb(51, 51, 51); stroke-opacity: 1; stroke-width: 1px;"/><path class="xtick ticks crisp" d="M0,421v5" transform="translate(364.21,0)" style="stroke: rgb(51, 51, 51); stroke-opacity: 1; stroke-width: 1px;"/><path class="xtick ticks crisp" d="M0,421v5" transform="translate(506.32,0)" style="stroke: rgb(51, 51, 51); stroke-opacity: 1; stroke-width: 1px;"/><g class="xtick"><text text-anchor="middle" x="0" y="440.4" transform="translate(80,0)" style="font-family: 'Open Sans', verdana, arial, sans-serif; font-size: 12px; fill: rgb(51, 51, 51); fill-opacity: 1; white-space: pre; opacity: 1;">0</text></g><g class="xtick"><text text-anchor="middle" x="0" y="440.4" style="font-family: 'Open Sans', verdana, arial, sans-serif; font-size: 12px; fill: rgb(51, 51, 51); fill-opacity: 1; white-space: pre; opacity: 1;" transform="translate(222.11,0)">5</text></g><g class="xtick"><text text-anchor="middle" x="0" y="440.4" style="font-family: 'Open Sans', verdana, arial, sans-serif; font-size: 12px; fill: rgb(51, 51, 51); fill-opacity: 1; white-space: pre; opacity: 1;" transform="translate(364.21,0)">10</text></g><g class="xtick"><text text-anchor="middle" x="0" y="440.4" style="font-family: 'Open Sans', verdana, arial, sans-serif; font-size: 12px; fill: rgb(51, 51, 51); fill-opacity: 1; white-space: pre; opacity: 1;" transform="translate(506.32,0)">15</text></g></g><g class="yaxislayer-above"><path class="ytick ticks crisp" d="M79,0h-5" transform="translate(0,402.83)" style="stroke: rgb(51, 51, 51); stroke-opacity: 1; stroke-width: 1px;"/><path class="ytick ticks crisp" d="M79,0h-5" transform="translate(0,359.58)" style="stroke: rgb(51, 51, 51); stroke-opacity: 1; stroke-width: 1px;"/><path class="ytick ticks crisp" d="M79,0h-5" transform="translate(0,316.34000000000003)" style="stroke: rgb(51, 51, 51); stroke-opacity: 1; stroke-width: 1px;"/><path class="ytick ticks crisp" d="M79,0h-5" transform="translate(0,273.09000000000003)" style="stroke: rgb(51, 51, 51); stroke-opacity: 1; stroke-width: 1px;"/><path class="ytick ticks crisp" d="M79,0h-5" transform="translate(0,229.84)" style="stroke: rgb(51, 51, 51); stroke-opacity: 1; stroke-width: 1px;"/><path class="ytick ticks crisp" d="M79,0h-5" transform="translate(0,186.59)" style="stroke: rgb(51, 51, 51); stroke-opacity: 1; stroke-width: 1px;"/><path class="ytick ticks crisp" d="M79,0h-5" transform="translate(0,143.34)" style="stroke: rgb(51, 51, 51); stroke-opacity: 1; stroke-width: 1px;"/><path class="ytick ticks crisp" d="M79,0h-5" transform="translate(0,100.1)" style="stroke: rgb(51, 51, 51); stroke-opacity: 1; stroke-width: 1px;"/><g class="ytick"><text text-anchor="end" x="71.6" y="4.199999999999999" transform="translate(0,402.83)" style="font-family: 'Open Sans', verdana, arial, sans-serif; font-size: 12px; fill: rgb(51, 51, 51); fill-opacity: 1; white-space: pre; opacity: 1;">0.26</text></g><g class="ytick"><text text-anchor="end" x="71.6" y="4.199999999999999" style="font-family: 'Open Sans', verdana, arial, sans-serif; font-size: 12px; fill: rgb(51, 51, 51); fill-opacity: 1; white-space: pre; opacity: 1;" transform="translate(0,359.58)">0.28</text></g><g class="ytick"><text text-anchor="end" x="71.6" y="4.199999999999999" style="font-family: 'Open Sans', verdana, arial, sans-serif; font-size: 12px; fill: rgb(51, 51, 51); fill-opacity: 1; white-space: pre; opacity: 1;" transform="translate(0,316.34000000000003)">0.3</text></g><g class="ytick"><text text-anchor="end" x="71.6" y="4.199999999999999" style="font-family: 'Open Sans', verdana, arial, sans-serif; font-size: 12px; fill: rgb(51, 51, 51); fill-opacity: 1; white-space: pre; opacity: 1;" transform="translate(0,273.09000000000003)">0.32</text></g><g class="ytick"><text text-anchor="end" x="71.6" y="4.199999999999999" style="font-family: 'Open Sans', verdana, arial, sans-serif; font-size: 12px; fill: rgb(51, 51, 51); fill-opacity: 1; white-space: pre; opacity: 1;" transform="translate(0,229.84)">0.34</text></g><g class="ytick"><text text-anchor="end" x="71.6" y="4.199999999999999" style="font-family: 'Open Sans', verdana, arial, sans-serif; font-size: 12px; fill: rgb(51, 51, 51); fill-opacity: 1; white-space: pre; opacity: 1;" transform="translate(0,186.59)">0.36</text></g><g class="ytick"><text text-anchor="end" x="71.6" y="4.199999999999999" style="font-family: 'Open Sans', verdana, arial, sans-serif; font-size: 12px; fill: rgb(51, 51, 51); fill-opacity: 1; white-space: pre; opacity: 1;" transform="translate(0,143.34)">0.38</text></g><g class="ytick"><text text-anchor="end" x="71.6" y="4.199999999999999" style="font-family: 'Open Sans', verdana, arial, sans-serif; font-size: 12px; fill: rgb(51, 51, 51); fill-opacity: 1; white-space: pre; opacity: 1;" transform="translate(0,100.1)">0.4</text></g></g><g class="overaxes-above"/></g></g><g class="polarlayer"/><g class="ternarylayer"/><g class="geolayer"/><g class="funnelarealayer"/><g class="pielayer"/><g class="iciclelayer"/><g class="treemaplayer"/><g class="sunburstlayer"/><g class="glimages"/><defs id="topdefs-7330d7"><g class="clips"/></defs><g class="layer-above"><g class="imagelayer"/><g class="shapelayer"/></g><g class="infolayer"><g class="g-gtitle"><text class="gtitle" x="350" y="50" text-anchor="middle" dy="0em" style="font-family: 'Open Sans', verdana, arial, sans-serif; font-size: 17px; fill: rgb(51, 51, 51); opacity: 1; font-weight: normal; white-space: pre;">Train Accuracy: ascad_r_0_noisy-aisy_hw_mlp (early_stopping)</text></g><g class="g-xtitle"/><g class="g-ytitle"/></g></svg>