<svg class="main-svg" xmlns="http://www.w3.org/2000/svg" xmlns:xlink="http://www.w3.org/1999/xlink" width="700" height="500" style="" viewBox="0 0 700 500"><rect x="0" y="0" width="700" height="500" style="fill: rgb(255, 255, 255); fill-opacity: 1;"/><defs id="defs-059ed6"><g class="clips"><clipPath id="clip059ed6xyplot" class="plotclip"><rect width="540" height="320"/></clipPath><clipPath class="axesclip" id="clip059ed6x"><rect x="80" y="0" width="540" height="500"/></clipPath><clipPath class="axesclip" id="clip059ed6y"><rect x="0" y="100" width="700" height="320"/></clipPath><clipPath class="axesclip" id="clip059ed6xy"><rect x="80" y="100" width="540" height="320"/></clipPath></g><g class="gradients"/><g class="patterns"/></defs><g class="bglayer"><rect class="bg" x="80" y="100" width="540" height="320" style="fill: rgb(229, 236, 246); fill-opacity: 1; stroke-width: 0;"/></g><g class="layer-below"><g class="imagelayer"/><g class="shapelayer"/></g><g class="cartesianlayer"><g class="subplot xy"><g class="layer-subplot"><g class="shapelayer"/><g class="imagelayer"/></g><g class="gridlayer"><g class="x"><path class="xgrid crisp" transform="translate(222.11,0)" d="M0,100v320" style="stroke: rgb(255, 255, 255); stroke-opacity: 1; stroke-width: 1px;"/><path class="xgrid crisp" transform="translate(364.21,0)" d="M0,100v320" style="stroke: rgb(255, 255, 255); stroke-opacity: 1; stroke-width: 1px;"/><path class="xgrid crisp" transform="translate(506.32,0)" d="M0,100v320" style="stroke: rgb(255, 255, 255); stroke-opacity: 1; stroke-width: 1px;"/></g><g class="y"><path class="ygrid crisp" transform="translate(0,365.28)" d="M80,0h540" style="stroke: rgb(255, 255, 255); stroke-opacity: 1; stroke-width: 1px;"/><path class="ygrid crisp" transform="translate(0,302.51)" d="M80,0h540" style="stroke: rgb(255, 255, 255); stroke-opacity: 1; stroke-width: 1px;"/><path class="ygrid crisp" transform="translate(0,239.73)" d="M80,0h540" style="stroke: rgb(255, 255, 255); stroke-opacity: 1; stroke-width: 1px;"/><path class="ygrid crisp" transform="translate(0,176.95999999999998)" d="M80,0h540" style="stroke: rgb(255, 255, 255); stroke-opacity: 1; stroke-width: 1px;"/><path class="ygrid crisp" transform="translate(0,114.18)" d="M80,0h540" style="stroke: rgb(255, 255, 255); stroke-opacity: 1; stroke-width: 1px;"/></g></g><g class="zerolinelayer"><path class="xzl zl crisp" transform="translate(80,0)" d="M0,100v320" style="stroke: rgb(255, 255, 255); stroke-opacity: 1; stroke-width: 2px;"/></g><path class="xlines-below"/><path class="ylines-below"/><g class="overlines-below"/><g class="xaxislayer-below"/><g class="yaxislayer-below"/><g class="overaxes-below"/><g class="plot" transform="translate(80,100)" clip-path="url(#clip059ed6xyplot)"><g class="scatterlayer mlayer"><g class="trace scatter trace84b9ea" style="stroke-miterlimit: 2; opacity: 1;"><g class="fills"/><g class="errorbars"/><g class="lines"><path class="js-line" d="M0,4.85L28.42,48.82L56.84,71.4L85.26,95.58L113.68,125.19L142.11,152.03L170.53,177.01L198.95,196.36L227.37,209.31L284.21,229.97L312.63,237.69L341.05,246.22L369.47,252.03L397.89,258.6L426.32,262.97L454.74,267.21L483.16,274.73L511.58,277.75L540,284.29" style="vector-effect: non-scaling-stroke; fill: none; stroke: rgb(99, 110, 250); stroke-opacity: 1; stroke-width: 2px; opacity: 1;"/></g><g class="points"/><g class="text"/></g><g class="trace scatter tracec77046" style="stroke-miterlimit: 2; opacity: 1;"><g class="fills"/><g class="errorbars"/><g class="lines"><path class="js-line" d="M0,4.65L28.42,48.92L56.84,71.55L85.26,95.99L113.68,125.43L142.11,152.97L170.53,177.68L198.95,196.92L227.37,209.81L284.21,230.4L312.63,238.07L341.05,246.35L369.47,252.32L397.89,258.96L426.32,262.95L454.74,267.4L483.16,274.94L511.58,277.8L540,284.44" style="vector-effect: non-scaling-stroke; fill: none; stroke: rgb(239, 85, 59); stroke-opacity: 1; stroke-width: 2px; opacity: 1;"/></g><g class="points"/><g class="text"/></g><g class="trace scatter trace9d0c3e" style="stroke-miterlimit: 2; opacity: 1;"><g class="fills"/><g class="errorbars"/><g class="lines"><path class="js-line" d="M0,4.64L28.42,48.81L56.84,71.46L85.26,95.91L113.68,125.04L142.11,152.44L170.53,177.05L198.95,196.45L227.37,209.51L255.79,219.45L284.21,230.22L312.63,237.87L341.05,246.35L369.47,252.15L397.89,258.94L426.32,262.74L454.74,267.38L483.16,274.74L511.58,277.67L540,284.48" style="vector-effect: non-scaling-stroke; fill: none; stroke: rgb(0, 204, 150); stroke-opacity: 1; stroke-width: 2px; opacity: 1;"/></g><g class="points"/><g class="text"/></g><g class="trace scatter trace246883" style="stroke-miterlimit: 2; opacity: 1;"><g class="fills"/><g class="errorbars"/><g class="lines"><path class="js-line" d="M0,4.76L28.42,49.04L56.84,71.88L85.26,96.16L113.68,125.72L142.11,153.14L170.53,177.77L198.95,196.9L227.37,209.81L284.21,230.18L312.63,237.97L341.05,246.47L369.47,252.33L397.89,259.02L426.32,263.13L454.74,267.48L483.16,274.95L511.58,277.98L540,284.71" style="vector-effect: non-scaling-stroke; fill: none; stroke: rgb(171, 99, 250); stroke-opacity: 1; stroke-width: 2px; opacity: 1;"/></g><g class="points"/><g class="text"/></g><g class="trace scatter trace3fd2cf" style="stroke-miterlimit: 2; opacity: 1;"><g class="fills"/><g class="errorbars"/><g class="lines"><path class="js-line" d="M0,4.79L28.42,48.73L56.84,71.61L85.26,96.12L113.68,125.98L142.11,153.19L170.53,177.96L198.95,197.21L227.37,209.78L284.21,230.44L312.63,237.95L341.05,246.7L369.47,252.08L397.89,258.83L426.32,262.89L454.74,267.41L483.16,274.67L511.58,277.74L540,284.47" style="vector-effect: non-scaling-stroke; fill: none; stroke: rgb(255, 161, 90); stroke-opacity: 1; stroke-width: 2px; opacity: 1;"/></g><g class="points"/><g class="text"/></g><g class="trace scatter trace911f8d" style="stroke-miterlimit: 2; opacity: 1;"><g class="fills"/><g class="errorbars"/><g class="lines"><path class="js-line" d="M0,4.78L28.42,48.92L56.84,71.7L85.26,96.23L113.68,125.61L142.11,152.94L170.53,177.59L198.95,196.97L227.37,209.48L284.21,230.31L312.63,238.02L341.05,246.59L369.47,252.03L397.89,258.92L426.32,262.91L454.74,267.52L483.16,274.89L511.58,277.64L540,284.44" style="vector-effect: non-scaling-stroke; fill: none; stroke: rgb(25, 211, 243); stroke-opacity: 1; stroke-width: 2px; opacity: 1;"/></g><g class="points"/><g class="text"/></g><g class="trace scatter trace2695fa" style="stroke-miterlimit: 2; opacity: 1;"><g class="fills"/><g class="errorbars"/><g class="lines"><path class="js-line" d="M0,4.77L28.42,48.78L56.84,71.26L85.26,95.63L113.68,124.84L142.11,152.32L170.53,177.1L198.95,196.48L227.37,209.41L284.21,230.25L312.63,238L341.05,246.77L369.47,252.35L397.89,258.75L426.32,263.13L454.74,267.43L483.16,274.92L511.58,277.9L540,284.74" style="vector-effect: non-scaling-stroke; fill: none; stroke: rgb(255, 102, 146); stroke-opacity: 1; stroke-width: 2px; opacity: 1;"/></g><g class="points"/><g class="text"/></g><g class="trace scatter trace1fb582" style="stroke-miterlimit: 2; opacity: 1;"><g class="fills"/><g class="errorbars"/><g class="lines"><path class="js-line" d="M0,4.78L28.42,48.97L56.84,71.85L85.26,96.33L113.68,126.3L142.11,153.65L170.53,178.21L198.95,197.41L227.37,209.86L284.21,230.21L312.63,237.94L341.05,246.38L369.47,252.01L397.89,258.74L426.32,263.04L454.74,267.41L483.16,274.71L511.58,277.82L540,284.58" style="vector-effect: non-scaling-stroke; fill: none; stroke: rgb(182, 232, 128); stroke-opacity: 1; stroke-width: 2px; opacity: 1;"/></g><g class="points"/><g class="text"/></g><g class="trace scatter tracedfef10" style="stroke-miterlimit: 2; opacity: 1;"><g class="fills"/><g class="errorbars"/><g class="lines"><path class="js-line" d="M0,4.64L28.42,48.91L56.84,71.81L85.26,96.13L113.68,125.6L142.11,153L170.53,177.45L198.95,196.98L227.37,209.71L284.21,230.15L312.63,237.97L341.05,246.42L369.47,252.05L397.89,258.77L426.32,263.02L454.74,267.31L483.16,274.89L511.58,277.71L540,284.62" style="vector-effect: non-scaling-stroke; fill: none; stroke: rgb(255, 151, 255); stroke-opacity: 1; stroke-width: 2px; opacity: 1;"/></g><g class="points"/><g class="text"/></g><g class="trace scatter trace2d1816" style="stroke-miterlimit: 2; opacity: 1;"><g class="fills"/><g class="errorbars"/><g class="lines"><path class="js-line" d="M0,0.03L28.42,46.83L56.84,73.98L85.26,104.57L113.68,142.26L142.11,173.64L170.53,202.34L227.37,236.26L255.79,247.36L284.21,260.69L312.63,269.16L341.05,277.96L369.47,283.89L397.89,291.33L426.32,300.24L454.74,303.89L483.16,310.12L511.58,316.18L540,319.93" style="vector-effect: non-scaling-stroke; fill: none; stroke: rgb(254, 203, 82); stroke-opacity: 1; stroke-width: 2px; opacity: 1;"/></g><g class="points"/><g class="text"/></g><g class="trace scatter trace96ae11" style="stroke-miterlimit: 2; opacity: 1;"><g class="fills"/><g class="errorbars"/><g class="lines"><path class="js-line" d="M0,4.96L28.42,48.92L56.84,71.6L85.26,96.21L113.68,125.69L142.11,152.96L170.53,177.71L198.95,196.94L227.37,209.62L284.21,230.21L312.63,237.99L341.05,246.48L369.47,252.29L397.89,258.97L426.32,263.01L454.74,267.5L483.16,274.89L511.58,277.93L540,284.67" style="vector-effect: non-scaling-stroke; fill: none; stroke: rgb(99, 110, 250); stroke-opacity: 1; stroke-width: 2px; opacity: 1;"/></g><g class="points"/><g class="text"/></g><g class="trace scatter trace9c8723" style="stroke-miterlimit: 2; opacity: 1;"><g class="fills"/><g class="errorbars"/><g class="lines"><path class="js-line" d="M0,4.73L28.42,48.91L56.84,71.4L85.26,95.85L113.68,125.29L142.11,152.78L170.53,177.44L198.95,196.93L227.37,209.74L284.21,230.43L312.63,238.09L341.05,246.64L369.47,252.21L397.89,259.06L426.32,263L454.74,267.44L483.16,274.84L511.58,277.88L540,284.56" style="vector-effect: non-scaling-stroke; fill: none; stroke: rgb(239, 85, 59); stroke-opacity: 1; stroke-width: 2px; opacity: 1;"/></g><g class="points"/><g class="text"/></g><g class="trace scatter tracecbdddb" style="stroke-miterlimit: 2; opacity: 1;"><g class="fills"/><g class="errorbars"/><g class="lines"><path class="js-line" d="M0,4.77L28.42,48.87L56.84,71.62L85.26,96.14L113.68,125.58L142.11,152.98L170.53,177.51L198.95,197.08L227.37,209.63L284.21,230.23L312.63,237.99L341.05,246.53L369.47,252.21L397.89,258.81L426.32,263.04L454.74,267.67L483.16,275.04L511.58,277.94L540,284.67" style="vector-effect: non-scaling-stroke; fill: none; stroke: rgb(0, 204, 150); stroke-opacity: 1; stroke-width: 2px; opacity: 1;"/></g><g class="points"/><g class="text"/></g><g class="trace scatter tracec37511" style="stroke-miterlimit: 2; opacity: 1;"><g class="fills"/><g class="errorbars"/><g class="lines"><path class="js-line" d="M0,4.72L28.42,48.93L56.84,71.74L85.26,96.46L113.68,126.16L142.11,153.63L170.53,178.19L198.95,197.32L227.37,210.23L284.21,230.56L312.63,238.07L341.05,246.48L369.47,252.17L397.89,258.99L426.32,263.36L454.74,267.54L483.16,275.01L511.58,278.27L540,284.41" style="vector-effect: non-scaling-stroke; fill: none; stroke: rgb(171, 99, 250); stroke-opacity: 1; stroke-width: 2px; opacity: 1;"/></g><g class="points"/><g class="text"/></g><g class="trace scatter trace0d4528" style="stroke-miterlimit: 2; opacity: 1;"><g class="fills"/><g class="errorbars"/><g class="lines"><path class="js-line" d="M0,4.83L28.42,49.11L56.84,71.98L85.26,96.54L113.68,126.34L142.11,153.79L170.53,178.24L198.95,197.4L227.37,210.12L284.21,230.55L312.63,237.88L341.05,246.59L369.47,252.15L397.89,258.86L426.32,263.22L454.74,267.69L483.16,275.1L511.58,278.12L540,284.62" style="vector-effect: non-scaling-stroke; fill: none; stroke: rgb(255, 161, 90); stroke-opacity: 1; stroke-width: 2px; opacity: 1;"/></g><g class="points"/><g class="text"/></g><g class="trace scatter trace2ecc9b" style="stroke-miterlimit: 2; opacity: 1;"><g class="fills"/><g class="errorbars"/><g class="lines"><path class="js-line" d="M0,4.74L28.42,48.95L56.84,71.41L85.26,95.71L113.68,125.03L142.11,152.53L170.53,177.05L198.95,196.67L227.37,209.18L284.21,229.95L312.63,237.9L341.05,246.33L369.47,252.05L397.89,258.58L426.32,262.72L454.74,267.06L483.16,274.54L511.58,277.85L540,284.34" style="vector-effect: non-scaling-stroke; fill: none; stroke: rgb(25, 211, 243); stroke-opacity: 1; stroke-width: 2px; opacity: 1;"/></g><g class="points"/><g class="text"/></g><g class="trace scatter tracef409b2" style="stroke-miterlimit: 2; opacity: 1;"><g class="fills"/><g class="errorbars"/><g class="lines"><path class="js-line" d="M0,4.64L28.42,49.09L56.84,71.87L85.26,96.52L113.68,126.31L142.11,153.55L170.53,178.26L198.95,197.35L227.37,209.96L284.21,230.41L312.63,238.24L341.05,246.55L369.47,252.26L397.89,259L426.32,263.1L454.74,267.41L483.16,274.85L511.58,277.85L540,284.51" style="vector-effect: non-scaling-stroke; fill: none; stroke: rgb(255, 102, 146); stroke-opacity: 1; stroke-width: 2px; opacity: 1;"/></g><g class="points"/><g class="text"/></g><g class="trace scatter trace887c8b" style="stroke-miterlimit: 2; opacity: 1;"><g class="fills"/><g class="errorbars"/><g class="lines"><path class="js-line" d="M0,4.68L28.42,48.75L56.84,71.45L85.26,95.76L113.68,124.98L142.11,152.23L170.53,176.91L198.95,196.26L227.37,209.21L284.21,229.89L312.63,237.51L341.05,246.31L369.47,252L397.89,258.71L426.32,262.89L454.74,267.58L483.16,274.88L511.58,277.81L540,284.63" style="vector-effect: non-scaling-stroke; fill: none; stroke: rgb(182, 232, 128); stroke-opacity: 1; stroke-width: 2px; opacity: 1;"/></g><g class="points"/><g class="text"/></g><g class="trace scatter tracef0c82a" style="stroke-miterlimit: 2; opacity: 1;"><g class="fills"/><g class="errorbars"/><g class="lines"><path class="js-line" d="M0,4.66L28.42,48.97L56.84,71.53L85.26,95.37L113.68,124.77L142.11,152.3L170.53,177.22L198.95,196.64L227.37,209.61L284.21,230.34L312.63,238.02L341.05,246.52L369.47,252.11L397.89,258.86L426.32,262.77L454.74,267.34L483.16,274.81L511.58,277.72L540,284.52" style="vector-effect: non-scaling-stroke; fill: none; stroke: rgb(255, 151, 255); stroke-opacity: 1; stroke-width: 2px; opacity: 1;"/></g><g class="points"/><g class="text"/></g><g class="trace scatter trace1a6de3" style="stroke-miterlimit: 2; opacity: 1;"><g class="fills"/><g class="errorbars"/><g class="lines"><path class="js-line" d="M0,4.74L28.42,49.18L56.84,71.55L85.26,96.1L113.68,125.93L142.11,153.34L170.53,178.08L198.95,197.13L227.37,209.91L284.21,230.56L312.63,238.14L341.05,246.49L369.47,252.27L397.89,258.8L426.32,262.87L454.74,267.32L483.16,274.93L511.58,277.52L540,284.47" style="vector-effect: non-scaling-stroke; fill: none; stroke: rgb(254, 203, 82); stroke-opacity: 1; stroke-width: 2px; opacity: 1;"/></g><g class="points"/><g class="text"/></g><g class="trace scatter tracee7b299" style="stroke-miterlimit: 2; opacity: 1;"><g class="fills"/><g class="errorbars"/><g class="lines"><path class="js-line" d="M0,4.78L28.42,48.99L56.84,71.97L85.26,96.47L113.68,126.22L142.11,153.62L170.53,178.1L198.95,197.26L227.37,210.04L284.21,230.23L312.63,238.07L341.05,246.69L369.47,252.16L397.89,258.88L426.32,263.08L454.74,267.21L483.16,274.95L511.58,277.8L540,284.47" style="vector-effect: non-scaling-stroke; fill: none; stroke: rgb(99, 110, 250); stroke-opacity: 1; stroke-width: 2px; opacity: 1;"/></g><g class="points"/><g class="text"/></g></g></g><g class="overplot"/><path class="xlines-above crisp" d="M0,0" style="fill: none;"/><path class="ylines-above crisp" d="M0,0" style="fill: none;"/><g class="overlines-above"/><g class="xaxislayer-above"><g class="xtick"><text text-anchor="middle" x="0" y="433" transform="translate(80,0)" style="font-family: 'Open Sans', verdana, arial, sans-serif; font-size: 12px; fill: rgb(42, 63, 95); fill-opacity: 1; white-space: pre; opacity: 1;">0</text></g><g class="xtick"><text text-anchor="middle" x="0" y="433" style="font-family: 'Open Sans', verdana, arial, sans-serif; font-size: 12px; fill: rgb(42, 63, 95); fill-opacity: 1; white-space: pre; opacity: 1;" transform="translate(222.11,0)">5</text></g><g class="xtick"><text text-anchor="middle" x="0" y="433" style="font-family: 'Open Sans', verdana, arial, sans-serif; font-size: 12px; fill: rgb(42, 63, 95); fill-opacity: 1; white-space: pre; opacity: 1;" transform="translate(364.21,0)">10</text></g><g class="xtick"><text text-anchor="middle" x="0" y="433" style="font-family: 'Open Sans', verdana, arial, sans-serif; font-size: 12px; fill: rgb(42, 63, 95); fill-opacity: 1; white-space: pre; opacity: 1;" transform="translate(506.32,0)">15</text></g></g><g class="yaxislayer-above"><g class="ytick"><text text-anchor="end" x="79" y="4.199999999999999" transform="translate(0,365.28)" style="font-family: 'Open Sans', verdana, arial, sans-serif; font-size: 12px; fill: rgb(42, 63, 95); fill-opacity: 1; white-space: pre; opacity: 1;">5.51</text></g><g class="ytick"><text text-anchor="end" x="79" y="4.199999999999999" style="font-family: 'Open Sans', verdana, arial, sans-serif; font-size: 12px; fill: rgb(42, 63, 95); fill-opacity: 1; white-space: pre; opacity: 1;" transform="translate(0,302.51)">5.52</text></g><g class="ytick"><text text-anchor="end" x="79" y="4.199999999999999" style="font-family: 'Open Sans', verdana, arial, sans-serif; font-size: 12px; fill: rgb(42, 63, 95); fill-opacity: 1; white-space: pre; opacity: 1;" transform="translate(0,239.73)">5.53</text></g><g class="ytick"><text text-anchor="end" x="79" y="4.199999999999999" style="font-family: 'Open Sans', verdana, arial, sans-serif; font-size: 12px; fill: rgb(42, 63, 95); fill-opacity: 1; white-space: pre; opacity: 1;" transform="translate(0,176.95999999999998)">5.54</text></g><g class="ytick"><text text-anchor="end" x="79" y="4.199999999999999" style="font-family: 'Open Sans', verdana, arial, sans-serif; font-size: 12px; fill: rgb(42, 63, 95); fill-opacity: 1; white-space: pre; opacity: 1;" transform="translate(0,114.18)">5.55</text></g></g><g class="overaxes-above"/></g></g><g class="polarlayer"/><g class="ternarylayer"/><g class="geolayer"/><g class="funnelarealayer"/><g class="pielayer"/><g class="iciclelayer"/><g class="treemaplayer"/><g class="sunburstlayer"/><g class="glimages"/><defs id="topdefs-059ed6"><g class="clips"/></defs><g class="layer-above"><g class="imagelayer"/><g class="shapelayer"/></g><g class="infolayer"><g class="g-gtitle"><text class="gtitle" x="35" y="50" text-anchor="start" dy="0em" style="font-family: 'Open Sans', verdana, arial, sans-serif; font-size: 17px; fill: rgb(42, 63, 95); opacity: 1; font-weight: normal; white-space: pre;">Train Loss: aes_hd-eff_cnn</text></g><g class="g-xtitle"/><g class="g-ytitle"/></g></svg>