<svg class="main-svg" xmlns="http://www.w3.org/2000/svg" xmlns:xlink="http://www.w3.org/1999/xlink" width="700" height="500" style="" viewBox="0 0 700 500"><rect x="0" y="0" width="700" height="500" style="fill: rgb(255, 255, 255); fill-opacity: 1;"/><defs id="defs-10d5f2"><g class="clips"><clipPath id="clip10d5f2xyplot" class="plotclip"><rect width="540" height="320"/></clipPath><clipPath class="axesclip" id="clip10d5f2x"><rect x="80" y="0" width="540" height="500"/></clipPath><clipPath class="axesclip" id="clip10d5f2y"><rect x="0" y="100" width="700" height="320"/></clipPath><clipPath class="axesclip" id="clip10d5f2xy"><rect x="80" y="100" width="540" height="320"/></clipPath></g><g class="gradients"/><g class="patterns"/></defs><g class="bglayer"><rect class="bg" x="80" y="100" width="540" height="320" style="fill: rgb(237, 237, 237); fill-opacity: 1; stroke-width: 0;"/></g><g class="layer-below"><g class="imagelayer"/><g class="shapelayer"/></g><g class="cartesianlayer"><g class="subplot xy"><g class="layer-subplot"><g class="shapelayer"/><g class="imagelayer"/></g><g class="gridlayer"><g class="x"><path class="xgrid crisp" transform="translate(222.11,0)" d="M0,100v320" style="stroke: rgb(255, 255, 255); stroke-opacity: 1; stroke-width: 1px;"/><path class="xgrid crisp" transform="translate(364.21,0)" d="M0,100v320" style="stroke: rgb(255, 255, 255); stroke-opacity: 1; stroke-width: 1px;"/><path class="xgrid crisp" transform="translate(506.32,0)" d="M0,100v320" style="stroke: rgb(255, 255, 255); stroke-opacity: 1; stroke-width: 1px;"/></g><g class="y"><path class="ygrid crisp" transform="translate(0,410.2)" d="M80,0h540" style="stroke: rgb(255, 255, 255); stroke-opacity: 1; stroke-width: 1px;"/><path class="ygrid crisp" transform="translate(0,359.07)" d="M80,0h540" style="stroke: rgb(255, 255, 255); stroke-opacity: 1; stroke-width: 1px;"/><path class="ygrid crisp" transform="translate(0,307.94)" d="M80,0h540" style="stroke: rgb(255, 255, 255); stroke-opacity: 1; stroke-width: 1px;"/><path class="ygrid crisp" transform="translate(0,256.8)" d="M80,0h540" style="stroke: rgb(255, 255, 255); stroke-opacity: 1; stroke-width: 1px;"/><path class="ygrid crisp" transform="translate(0,205.67000000000002)" d="M80,0h540" style="stroke: rgb(255, 255, 255); stroke-opacity: 1; stroke-width: 1px;"/><path class="ygrid crisp" transform="translate(0,154.54)" d="M80,0h540" style="stroke: rgb(255, 255, 255); stroke-opacity: 1; stroke-width: 1px;"/><path class="ygrid crisp" transform="translate(0,103.41)" d="M80,0h540" style="stroke: rgb(255, 255, 255); stroke-opacity: 1; stroke-width: 1px;"/></g></g><g class="zerolinelayer"><path class="xzl zl crisp" transform="translate(80,0)" d="M0,100v320" style="stroke: rgb(255, 255, 255); stroke-opacity: 1; stroke-width: 1px;"/></g><path class="xlines-below"/><path class="ylines-below"/><g class="overlines-below"/><g class="xaxislayer-below"/><g class="yaxislayer-below"/><g class="overaxes-below"/><g class="plot" transform="translate(80,100)" clip-path="url(#clip10d5f2xyplot)"><g class="scatterlayer mlayer"><g class="trace scatter tracef3fbdd" style="stroke-miterlimit: 2; opacity: 1;"><g class="fills"/><g class="errorbars"/><g class="lines"><path class="js-line" d="M0,311.9L28.42,313.32L56.84,272.13L85.26,247.42L113.68,248.42L142.11,222.57L170.53,225.55L198.95,213.33L227.37,208.5L255.79,192.17L284.21,176.97L312.63,166.46L341.05,153.25L369.47,142.46L397.89,128.54L426.32,107.09L454.74,98.43L483.16,80.82L511.58,75.42L540,58.52" style="vector-effect: non-scaling-stroke; fill: none; stroke: rgb(248, 118, 109); stroke-opacity: 1; stroke-width: 2px; opacity: 1;"/></g><g class="points"/><g class="text"/></g><g class="trace scatter trace501222" style="stroke-miterlimit: 2; opacity: 1;"><g class="fills"/><g class="errorbars"/><g class="lines"><path class="js-line" d="M0,306.36L28.42,310.34L56.84,275.83L85.26,255.52L113.68,244.15L142.11,230.8L170.53,227.54L198.95,206.8L227.37,191.32L255.79,185.49L284.21,178.39L312.63,158.51L341.05,141.89L369.47,130.39L397.89,103.68L426.32,88.06L454.74,73.72L483.16,48.43L511.58,36.08L540,13.35" style="vector-effect: non-scaling-stroke; fill: none; stroke: rgb(163, 165, 0); stroke-opacity: 1; stroke-width: 2px; opacity: 1;"/></g><g class="points"/><g class="text"/></g><g class="trace scatter trace7ffa1e" style="stroke-miterlimit: 2; opacity: 1;"><g class="fills"/><g class="errorbars"/><g class="lines"><path class="js-line" d="M0,313.04L28.42,303.81L56.84,255.23L85.26,240.18L113.68,236.63L142.11,226.4L170.53,226.12L227.37,206.23L255.79,198.99L284.21,175.55L312.63,174.42L341.05,161.07L369.47,134.93L397.89,117.89L426.32,116.47L454.74,102.83L483.16,76.84L511.58,64.91L540,50.71" style="vector-effect: non-scaling-stroke; fill: none; stroke: rgb(0, 191, 125); stroke-opacity: 1; stroke-width: 2px; opacity: 1;"/></g><g class="points"/><g class="text"/></g><g class="trace scatter tracef2663d" style="stroke-miterlimit: 2; opacity: 1;"><g class="fills"/><g class="errorbars"/><g class="lines"><path class="js-line" d="M0,311.76L28.42,316.17L56.84,283.78L85.26,249.98L113.68,236.06L142.11,234.92L170.53,222.14L198.95,223.13L227.37,200.69L255.79,192.31L284.21,181.66L312.63,165.47L341.05,146.29L369.47,146.15L397.89,124.42L426.32,103.12L454.74,92.75L483.16,83.94L511.58,58.94L540,60.08" style="vector-effect: non-scaling-stroke; fill: none; stroke: rgb(0, 176, 246); stroke-opacity: 1; stroke-width: 2px; opacity: 1;"/></g><g class="points"/><g class="text"/></g><g class="trace scatter tracef591e0" style="stroke-miterlimit: 2; opacity: 1;"><g class="fills"/><g class="errorbars"/><g class="lines"><path class="js-line" d="M0,317.59L28.42,318.44L56.84,286.76L85.26,248.13L113.68,231.8L142.11,236.06L170.53,224.7L198.95,214.33L227.37,191.32L255.79,193.02L284.21,175.69L312.63,164.76L341.05,143.74L369.47,137.2L397.89,120.3L426.32,108.94L454.74,103.12L483.16,84.08L511.58,59.65L540,52.98" style="vector-effect: non-scaling-stroke; fill: none; stroke: rgb(231, 107, 243); stroke-opacity: 1; stroke-width: 2px; opacity: 1;"/></g><g class="points"/><g class="text"/></g><g class="trace scatter trace417939" style="stroke-miterlimit: 2; opacity: 1;"><g class="fills"/><g class="errorbars"/><g class="lines"><path class="js-line" d="M0,314.6L28.42,299.12L56.84,266.31L85.26,260.63L113.68,248.98L142.11,241.6L170.53,226.97L198.95,222.14L227.37,210.92L255.79,197.43L284.21,189.19L312.63,169.87L341.05,157.37L369.47,136.21L397.89,130.39L426.32,107.94L454.74,109.93L483.16,82.66L511.58,73.86L540,54.68" style="vector-effect: non-scaling-stroke; fill: none; stroke: rgb(248, 118, 109); stroke-opacity: 1; stroke-width: 2px; opacity: 1;"/></g><g class="points"/><g class="text"/></g><g class="trace scatter trace0c9e1d" style="stroke-miterlimit: 2; opacity: 1;"><g class="fills"/><g class="errorbars"/><g class="lines"><path class="js-line" d="M0,315.03L28.42,301.54L56.84,279.95L85.26,251.97L113.68,239.18L142.11,230.38L170.53,220.72L198.95,214.9L227.37,199.41L255.79,192.6L284.21,173.99L312.63,153.54L341.05,139.62L369.47,133.65L397.89,101.13L426.32,93.17L454.74,78.83L483.16,50.14L511.58,44.03L540,12.78" style="vector-effect: non-scaling-stroke; fill: none; stroke: rgb(163, 165, 0); stroke-opacity: 1; stroke-width: 2px; opacity: 1;"/></g><g class="points"/><g class="text"/></g><g class="trace scatter trace2714a8" style="stroke-miterlimit: 2; opacity: 1;"><g class="fills"/><g class="errorbars"/><g class="lines"><path class="js-line" d="M0,315.03L28.42,310.2L56.84,283.5L85.26,252.25L113.68,234.21L142.11,240.32L170.53,223.42L198.95,212.06L227.37,203.68L255.79,185.35L284.21,173L312.63,168.74L341.05,155.67L369.47,134.51L397.89,121.01L426.32,96.44L454.74,82.81L483.16,59.51L511.58,54.82L540,36.22" style="vector-effect: non-scaling-stroke; fill: none; stroke: rgb(0, 191, 125); stroke-opacity: 1; stroke-width: 2px; opacity: 1;"/></g><g class="points"/><g class="text"/></g><g class="trace scatter trace514389" style="stroke-miterlimit: 2; opacity: 1;"><g class="fills"/><g class="errorbars"/><g class="lines"><path class="js-line" d="M0,315.74L28.42,307.64L56.84,285.91L85.26,250.97L113.68,235.92L142.11,215.89L170.53,222.57L198.95,208.79L227.37,206.09L284.21,173.42L312.63,162.34L341.05,138.06L369.47,144.16L397.89,121.3L426.32,89.76L454.74,93.03L483.16,75.99L511.58,75.7L540,55.96" style="vector-effect: non-scaling-stroke; fill: none; stroke: rgb(0, 176, 246); stroke-opacity: 1; stroke-width: 2px; opacity: 1;"/></g><g class="points"/><g class="text"/></g><g class="trace scatter traced08178" style="stroke-miterlimit: 2; opacity: 1;"><g class="fills"/><g class="errorbars"/><g class="lines"><path class="js-line" d="M0,309.49L28.42,319.29L56.84,300.68L85.26,256.37L113.68,232.79L142.11,234.92L170.53,220.29L198.95,209.36L227.37,206.8L255.79,188.05L284.21,172.85L312.63,151.12L341.05,142.89L369.47,131.52L397.89,96.58L426.32,88.77L454.74,78.4L511.58,31.96L540,10.94" style="vector-effect: non-scaling-stroke; fill: none; stroke: rgb(231, 107, 243); stroke-opacity: 1; stroke-width: 2px; opacity: 1;"/></g><g class="points"/><g class="text"/></g><g class="trace scatter trace8f6f07" style="stroke-miterlimit: 2; opacity: 1;"><g class="fills"/><g class="errorbars"/><g class="lines"><path class="js-line" d="M0,309.77L28.42,309.21L56.84,301.96L85.26,252.96L113.68,238.05L142.11,228.81L170.53,229.95L198.95,211.49L227.37,213.76L255.79,204.95L284.21,186.06L312.63,165.04L341.05,150.84L369.47,146.15L397.89,119.88L426.32,104.68L454.74,91.47L483.16,74L511.58,60.36L540,41.05" style="vector-effect: non-scaling-stroke; fill: none; stroke: rgb(248, 118, 109); stroke-opacity: 1; stroke-width: 2px; opacity: 1;"/></g><g class="points"/><g class="text"/></g><g class="trace scatter traceff6849" style="stroke-miterlimit: 2; opacity: 1;"><g class="fills"/><g class="errorbars"/><g class="lines"><path class="js-line" d="M0,316.73L28.42,305.94L56.84,266.6L85.26,251.54L113.68,246.57L142.11,232.08L170.53,226.4L198.95,208.5L227.37,197.14L255.79,192.6L284.21,168.17L312.63,170.58L341.05,161.78L369.47,135.78L397.89,125.27L426.32,107.66L454.74,85.36L483.16,78.83L511.58,39.63L540,34.94" style="vector-effect: non-scaling-stroke; fill: none; stroke: rgb(163, 165, 0); stroke-opacity: 1; stroke-width: 2px; opacity: 1;"/></g><g class="points"/><g class="text"/></g><g class="trace scatter traceb41514" style="stroke-miterlimit: 2; opacity: 1;"><g class="fills"/><g class="errorbars"/><g class="lines"><path class="js-line" d="M0,304.8L28.42,302.67L56.84,274.41L85.26,253.95L113.68,239.18L142.11,222.85L170.53,212.2L198.95,207.94L227.37,198.14L255.79,180.1L284.21,165.61L312.63,156.8L341.05,141.89L397.89,91.04L426.32,96.01L454.74,60.08L483.16,45.31L511.58,29.4L540,4.97" style="vector-effect: non-scaling-stroke; fill: none; stroke: rgb(0, 191, 125); stroke-opacity: 1; stroke-width: 2px; opacity: 1;"/></g><g class="points"/><g class="text"/></g><g class="trace scatter traceea1802" style="stroke-miterlimit: 2; opacity: 1;"><g class="fills"/><g class="errorbars"/><g class="lines"><path class="js-line" d="M0,312.19L28.42,304.38L56.84,302.53L85.26,253.53L113.68,242.73L142.11,239.18L170.53,225.55L198.95,206.23L227.37,201.54L255.79,188.34L284.21,176.69L312.63,172L341.05,144.73L369.47,142.32L397.89,132.37L426.32,100.42L454.74,97.86L483.16,60.51L511.58,63.77L540,44.74" style="vector-effect: non-scaling-stroke; fill: none; stroke: rgb(0, 176, 246); stroke-opacity: 1; stroke-width: 2px; opacity: 1;"/></g><g class="points"/><g class="text"/></g><g class="trace scatter trace2f36a7" style="stroke-miterlimit: 2; opacity: 1;"><g class="fills"/><g class="errorbars"/><g class="lines"><path class="js-line" d="M0,315.88L28.42,303.81L56.84,270L85.26,247.28L113.68,237.76L142.11,224.55L170.53,225.12L198.95,210.21L227.37,197.71L255.79,193.59L284.21,183.36L341.05,157.8L369.47,141.46L397.89,114.48L426.32,111.64L454.74,83.94L483.16,72.29L511.58,60.22L540,50.14" style="vector-effect: non-scaling-stroke; fill: none; stroke: rgb(231, 107, 243); stroke-opacity: 1; stroke-width: 2px; opacity: 1;"/></g><g class="points"/><g class="text"/></g><g class="trace scatter trace61f35e" style="stroke-miterlimit: 2; opacity: 1;"><g class="fills"/><g class="errorbars"/><g class="lines"><path class="js-line" d="M0,303.52L28.42,318.15L56.84,284.49L85.26,257.36L113.68,239.47L142.11,234.07L170.53,217.59L198.95,200.41L227.37,203.53L255.79,190.18L284.21,175.69L312.63,161.49L341.05,138.06L369.47,128.26L397.89,108.23L426.32,103.4L454.74,63.35L483.16,53.4L511.58,19.74L540,0" style="vector-effect: non-scaling-stroke; fill: none; stroke: rgb(248, 118, 109); stroke-opacity: 1; stroke-width: 2px; opacity: 1;"/></g><g class="points"/><g class="text"/></g><g class="trace scatter tracefad929" style="stroke-miterlimit: 2; opacity: 1;"><g class="fills"/><g class="errorbars"/><g class="lines"><path class="js-line" d="M0,310.63L28.42,316.02L56.84,287.33L85.26,247.14L113.68,232.93L142.11,229.67L170.53,218.87L198.95,206.09L227.37,190.32L255.79,189.33L284.21,175.27L312.63,152.97L341.05,158.37L369.47,121.72L397.89,122.15L426.32,96.58L454.74,75.14L483.16,66.61L511.58,43.04L540,30.4" style="vector-effect: non-scaling-stroke; fill: none; stroke: rgb(163, 165, 0); stroke-opacity: 1; stroke-width: 2px; opacity: 1;"/></g><g class="points"/><g class="text"/></g><g class="trace scatter tracea6b794" style="stroke-miterlimit: 2; opacity: 1;"><g class="fills"/><g class="errorbars"/><g class="lines"><path class="js-line" d="M0,314.18L28.42,310.48L56.84,298.27L85.26,262.19L113.68,242.02L142.11,225.55L170.53,229.67L227.37,208.36L255.79,196.01L284.21,194.02L312.63,163.48L341.05,173.85L369.47,156.24L397.89,141.75L426.32,107.66L454.74,116.32L483.16,102.12L511.58,73L540,58.66" style="vector-effect: non-scaling-stroke; fill: none; stroke: rgb(0, 191, 125); stroke-opacity: 1; stroke-width: 2px; opacity: 1;"/></g><g class="points"/><g class="text"/></g><g class="trace scatter trace67873a" style="stroke-miterlimit: 2; opacity: 1;"><g class="fills"/><g class="errorbars"/><g class="lines"><path class="js-line" d="M0,311.34L28.42,307.79L56.84,274.41L85.26,261.91L113.68,246.57L142.11,237.19L170.53,232.22L198.95,221.71L227.37,217.17L255.79,198.28L284.21,191.6L341.05,153.25L369.47,146.44L397.89,130.81L426.32,118.17L454.74,102.12L483.16,106.95L511.58,75.56L540,57.81" style="vector-effect: non-scaling-stroke; fill: none; stroke: rgb(0, 176, 246); stroke-opacity: 1; stroke-width: 2px; opacity: 1;"/></g><g class="points"/><g class="text"/></g><g class="trace scatter trace5a1825" style="stroke-miterlimit: 2; opacity: 1;"><g class="fills"/><g class="errorbars"/><g class="lines"><path class="js-line" d="M0,306.93L28.42,311.48L56.84,287.62L85.26,251.26L113.68,240.18L142.11,226.12L170.53,216.32L198.95,209.64L227.37,198.85L255.79,184.64L284.21,173.14L312.63,160.64L341.05,134.36L369.47,119.73L397.89,108.8L426.32,87.07L454.74,64.34L483.16,61.78L511.58,38.21L540,6.96" style="vector-effect: non-scaling-stroke; fill: none; stroke: rgb(231, 107, 243); stroke-opacity: 1; stroke-width: 2px; opacity: 1;"/></g><g class="points"/><g class="text"/></g><g class="trace scatter trace845af5" style="stroke-miterlimit: 2; opacity: 1;"><g class="fills"/><g class="errorbars"/><g class="lines"><path class="js-line" d="M0,320L28.42,311.76L56.84,284.92L85.26,242.45L113.68,238.19L142.11,228.53L170.53,224.13L198.95,207.94L227.37,197.71L255.79,191.6L284.21,164.47L312.63,160.5L341.05,140.75L369.47,123.99L397.89,115.05L426.32,94.45L454.74,65.48L483.16,64.77L511.58,43.75L540,16.05" style="vector-effect: non-scaling-stroke; fill: none; stroke: rgb(248, 118, 109); stroke-opacity: 1; stroke-width: 2px; opacity: 1;"/></g><g class="points"/><g class="text"/></g><g class="trace scatter traceb3ca85" style="stroke-miterlimit: 2; opacity: 1;"><g class="fills"/><g class="errorbars"/><g class="lines"><path class="js-line" d="M0,314.6L28.42,297.84L56.84,259.78L85.26,252.53L113.68,242.73L142.11,236.34L170.53,206.94L198.95,208.93L227.37,199.98L255.79,186.49L284.21,167.74L312.63,154.25L341.05,136.07L369.47,123.28L397.89,104.39L426.32,89.76L454.74,67.75L483.16,66.05L511.58,39.77L540,21.59" style="vector-effect: non-scaling-stroke; fill: none; stroke: rgb(163, 165, 0); stroke-opacity: 1; stroke-width: 2px; opacity: 1;"/></g><g class="points"/><g class="text"/></g><g class="trace scatter trace245ae4" style="stroke-miterlimit: 2; opacity: 1;"><g class="fills"/><g class="errorbars"/><g class="lines"><path class="js-line" d="M0,313.89L28.42,310.91L56.84,276.4L85.26,250.4L113.68,241.6L142.11,237.76L170.53,216.46L198.95,211.34L227.37,201.4L255.79,194.87L284.21,185.21L312.63,167.46L341.05,157.51L369.47,130.24L397.89,125.7L426.32,113.34L454.74,93.6L483.16,75.14L511.58,63.2L540,53.69" style="vector-effect: non-scaling-stroke; fill: none; stroke: rgb(0, 191, 125); stroke-opacity: 1; stroke-width: 2px; opacity: 1;"/></g><g class="points"/><g class="text"/></g><g class="trace scatter trace81d36f" style="stroke-miterlimit: 2; opacity: 1;"><g class="fills"/><g class="errorbars"/><g class="lines"><path class="js-line" d="M0,312.9L28.42,299.12L56.84,272.85L85.26,248.42L113.68,241.03L142.11,235.06L170.53,215.46L198.95,203.68L227.37,199.84L255.79,189.19L284.21,188.62L312.63,168.02L341.05,150.13L369.47,139.62L397.89,116.18L426.32,94.45L454.74,82.52L483.16,56.81L511.58,60.79L540,34.09" style="vector-effect: non-scaling-stroke; fill: none; stroke: rgb(0, 176, 246); stroke-opacity: 1; stroke-width: 2px; opacity: 1;"/></g><g class="points"/><g class="text"/></g><g class="trace scatter tracefb7cdb" style="stroke-miterlimit: 2; opacity: 1;"><g class="fills"/><g class="errorbars"/><g class="lines"><path class="js-line" d="M0,316.02L28.42,318.15L56.84,275.12L85.26,257.36L113.68,258.5L142.11,250.83L170.53,236.63L198.95,227.54L227.37,227.25L255.79,214.19L284.21,197.57L312.63,189.76L341.05,181.09L369.47,167.46L397.89,161.78L426.32,141.04L454.74,136.35L483.16,137.2L511.58,105.53L540,108.94" style="vector-effect: non-scaling-stroke; fill: none; stroke: rgb(231, 107, 243); stroke-opacity: 1; stroke-width: 2px; opacity: 1;"/></g><g class="points"/><g class="text"/></g><g class="trace scatter trace028a54" style="stroke-miterlimit: 2; opacity: 1;"><g class="fills"/><g class="errorbars"/><g class="lines"><path class="js-line" d="M0,308.92L28.42,313.61L56.84,285.34L85.26,258.5L113.68,241.46L170.53,229.38L198.95,208.08L227.37,203.11L255.79,193.45L284.21,176.97L312.63,156.95L341.05,154.39L369.47,135.93L397.89,118.31L426.32,104.25L454.74,87.35L483.16,50.14L511.58,44.03L540,44.6" style="vector-effect: non-scaling-stroke; fill: none; stroke: rgb(248, 118, 109); stroke-opacity: 1; stroke-width: 2px; opacity: 1;"/></g><g class="points"/><g class="text"/></g><g class="trace scatter trace91cae8" style="stroke-miterlimit: 2; opacity: 1;"><g class="fills"/><g class="errorbars"/><g class="lines"><path class="js-line" d="M0,306.51L28.42,305.37L56.84,291.59L85.26,249.27L113.68,239.04L142.11,245.43L170.53,216.17L227.37,198.7L255.79,185.21L284.21,177.4L312.63,165.04L341.05,146.86L369.47,133.65L397.89,125.56L426.32,103.68L454.74,78.97L483.16,86.64L511.58,65.05L540,36.22" style="vector-effect: non-scaling-stroke; fill: none; stroke: rgb(163, 165, 0); stroke-opacity: 1; stroke-width: 2px; opacity: 1;"/></g><g class="points"/><g class="text"/></g><g class="trace scatter trace916989" style="stroke-miterlimit: 2; opacity: 1;"><g class="fills"/><g class="errorbars"/><g class="lines"><path class="js-line" d="M0,318.72L28.42,310.48L56.84,283.07L85.26,253.24L113.68,236.77L142.11,237.19L170.53,219.16L198.95,204.39L227.37,192.88L255.79,195.15L284.21,178.25L312.63,165.61L341.05,148.28L369.47,134.51L397.89,111.78L426.32,112.21L454.74,85.5L483.16,59.8L511.58,46.73L540,38.35" style="vector-effect: non-scaling-stroke; fill: none; stroke: rgb(0, 191, 125); stroke-opacity: 1; stroke-width: 2px; opacity: 1;"/></g><g class="points"/><g class="text"/></g><g class="trace scatter trace0640ed" style="stroke-miterlimit: 2; opacity: 1;"><g class="fills"/><g class="errorbars"/><g class="lines"><path class="js-line" d="M0,315.17L28.42,316.31L56.84,288.18L85.26,248.27L113.68,242.31L142.11,225.97L170.53,222.14L198.95,210.07L227.37,196.43L255.79,193.45L284.21,170.58L312.63,153.68L341.05,130.24L369.47,116.75L397.89,110.93L426.32,91.47L454.74,66.05L483.16,66.76L511.58,39.91L540,12.21" style="vector-effect: non-scaling-stroke; fill: none; stroke: rgb(0, 176, 246); stroke-opacity: 1; stroke-width: 2px; opacity: 1;"/></g><g class="points"/><g class="text"/></g><g class="trace scatter traceed1330" style="stroke-miterlimit: 2; opacity: 1;"><g class="fills"/><g class="errorbars"/><g class="lines"><path class="js-line" d="M0,316.59L28.42,315.03L56.84,294.58L85.26,252.68L113.68,243.16L142.11,233.36L170.53,232.79L198.95,220.01L227.37,198.42L255.79,198.99L284.21,193.59L312.63,173.56L341.05,154.96L369.47,153.68L397.89,127.55L454.74,113.77L483.16,98.14L511.58,85.65L540,89.2" style="vector-effect: non-scaling-stroke; fill: none; stroke: rgb(231, 107, 243); stroke-opacity: 1; stroke-width: 2px; opacity: 1;"/></g><g class="points"/><g class="text"/></g><g class="trace scatter tracefa0586" style="stroke-miterlimit: 2; opacity: 1;"><g class="fills"/><g class="errorbars"/><g class="lines"><path class="js-line" d="M0,314.89L28.42,307.64L56.84,292.73L85.26,252.39L113.68,236.06L142.11,230.8L170.53,220.01L198.95,211.49L227.37,204.24L255.79,193.59L284.21,176.12L312.63,170.72L341.05,143.88L369.47,138.34L397.89,136.64L426.32,118.03L454.74,114.05L483.16,81.81L511.58,71.87L540,67.04" style="vector-effect: non-scaling-stroke; fill: none; stroke: rgb(248, 118, 109); stroke-opacity: 1; stroke-width: 2px; opacity: 1;"/></g><g class="points"/><g class="text"/></g><g class="trace scatter trace14808c" style="stroke-miterlimit: 2; opacity: 1;"><g class="fills"/><g class="errorbars"/><g class="lines"><path class="js-line" d="M0,316.59L28.42,314.32L56.84,271.85L85.26,247.71L113.68,245.72L142.11,225.12L170.53,218.3L198.95,210.21L227.37,196.15L255.79,195.86L284.21,163.62L312.63,164.62L341.05,151.12L369.47,130.67L397.89,116.61L426.32,97.58L454.74,100.7L483.16,70.59L511.58,50.42L540,34.94" style="vector-effect: non-scaling-stroke; fill: none; stroke: rgb(163, 165, 0); stroke-opacity: 1; stroke-width: 2px; opacity: 1;"/></g><g class="points"/><g class="text"/></g><g class="trace scatter tracefe7f00" style="stroke-miterlimit: 2; opacity: 1;"><g class="fills"/><g class="errorbars"/><g class="lines"><path class="js-line" d="M0,316.02L28.42,311.05L56.84,309.35L85.26,283.64L113.68,248.98L142.11,234.5L170.53,224.55L198.95,209.36L227.37,206.37L255.79,197.99L284.21,181.09L312.63,171.29L341.05,156.95L369.47,144.45L397.89,123.85L454.74,98.29L483.16,81.95L511.58,73.57L540,61.36" style="vector-effect: non-scaling-stroke; fill: none; stroke: rgb(0, 191, 125); stroke-opacity: 1; stroke-width: 2px; opacity: 1;"/></g><g class="points"/><g class="text"/></g><g class="trace scatter tracedbdd2b" style="stroke-miterlimit: 2; opacity: 1;"><g class="fills"/><g class="errorbars"/><g class="lines"><path class="js-line" d="M0,311.19L56.84,306.22L85.26,257.93L113.68,250.26L142.11,222.71L170.53,216.32L198.95,203.11L227.37,207.79L255.79,194.73L284.21,182.23L312.63,174.13L341.05,149.42L369.47,131.95L397.89,114.05L426.32,111.78L454.74,86.07L483.16,56.1L511.58,51.27L540,17.9" style="vector-effect: non-scaling-stroke; fill: none; stroke: rgb(0, 176, 246); stroke-opacity: 1; stroke-width: 2px; opacity: 1;"/></g><g class="points"/><g class="text"/></g><g class="trace scatter traced1802e" style="stroke-miterlimit: 2; opacity: 1;"><g class="fills"/><g class="errorbars"/><g class="lines"><path class="js-line" d="M0,309.77L28.42,309.21L56.84,279.09L85.26,254.1L113.68,235.63L142.11,220.58L170.53,218.02L198.95,205.38L227.37,189.76L255.79,188.19L284.21,172L312.63,158.79L341.05,150.41L369.47,144.31L397.89,124.85L426.32,115.33L454.74,89.05L483.16,73.72L511.58,63.91L540,44.6" style="vector-effect: non-scaling-stroke; fill: none; stroke: rgb(231, 107, 243); stroke-opacity: 1; stroke-width: 2px; opacity: 1;"/></g><g class="points"/><g class="text"/></g><g class="trace scatter traceea8d01" style="stroke-miterlimit: 2; opacity: 1;"><g class="fills"/><g class="errorbars"/><g class="lines"><path class="js-line" d="M0,306.79L28.42,309.77L56.84,286.91L85.26,258.36L113.68,246.57L142.11,228.53L170.53,214.33L198.95,218.73L227.37,203.53L255.79,198.28L284.21,181.09L312.63,162.06L341.05,160.21L369.47,155.1L397.89,142.6L426.32,111.78L454.74,112.92L483.16,93.32L511.58,76.41L540,82.81" style="vector-effect: non-scaling-stroke; fill: none; stroke: rgb(248, 118, 109); stroke-opacity: 1; stroke-width: 2px; opacity: 1;"/></g><g class="points"/><g class="text"/></g><g class="trace scatter tracec0d967" style="stroke-miterlimit: 2; opacity: 1;"><g class="fills"/><g class="errorbars"/><g class="lines"><path class="js-line" d="M0,316.02L28.42,310.63L56.84,272.7L85.26,252.68L113.68,236.06L142.11,224.98L170.53,215.32L198.95,195.3L227.37,209.21L255.79,202.68L284.21,184.78L312.63,165.18L341.05,155.53L369.47,148.99L397.89,135.07L426.32,115.19L454.74,96.3L483.16,102.83L511.58,79.68L540,53.55" style="vector-effect: non-scaling-stroke; fill: none; stroke: rgb(163, 165, 0); stroke-opacity: 1; stroke-width: 2px; opacity: 1;"/></g><g class="points"/><g class="text"/></g><g class="trace scatter traceb0ce9a" style="stroke-miterlimit: 2; opacity: 1;"><g class="fills"/><g class="errorbars"/><g class="lines"><path class="js-line" d="M0,317.73L28.42,308.21L56.84,296.56L85.26,258.5L113.68,233.64L142.11,228.81L170.53,225.97L198.95,203.82L227.37,187.2L255.79,192.03L284.21,173.28L312.63,163.2L341.05,145.02L369.47,130.67L397.89,120.02L426.32,89.48L454.74,84.08L483.16,53.12L511.58,33.52L540,23.29" style="vector-effect: non-scaling-stroke; fill: none; stroke: rgb(0, 191, 125); stroke-opacity: 1; stroke-width: 2px; opacity: 1;"/></g><g class="points"/><g class="text"/></g><g class="trace scatter trace94b48e" style="stroke-miterlimit: 2; opacity: 1;"><g class="fills"/><g class="errorbars"/><g class="lines"><path class="js-line" d="M0,311.9L28.42,308.64L56.84,289.04L85.26,247.28L113.68,240.32L142.11,235.06L170.53,215.61L198.95,213.33L227.37,199.41L284.21,178.25L312.63,166.89L341.05,161.92L369.47,141.89L397.89,131.52L426.32,114.48L454.74,98.43L483.16,88.63L511.58,85.08L540,70.16" style="vector-effect: non-scaling-stroke; fill: none; stroke: rgb(0, 176, 246); stroke-opacity: 1; stroke-width: 2px; opacity: 1;"/></g><g class="points"/><g class="text"/></g><g class="trace scatter trace3c8de3" style="stroke-miterlimit: 2; opacity: 1;"><g class="fills"/><g class="errorbars"/><g class="lines"><path class="js-line" d="M0,307.64L28.42,301.54L56.84,258.22L85.26,258.07L113.68,243.73L170.53,225.41L198.95,219.44L227.37,203.68L255.79,198.14L284.21,185.07L312.63,179.25L341.05,156.66L369.47,151.69L397.89,117.32L426.32,119.88L454.74,97.15L483.16,72.01L511.58,66.19L540,46.16" style="vector-effect: non-scaling-stroke; fill: none; stroke: rgb(231, 107, 243); stroke-opacity: 1; stroke-width: 2px; opacity: 1;"/></g><g class="points"/><g class="text"/></g><g class="trace scatter trace983c87" style="stroke-miterlimit: 2; opacity: 1;"><g class="fills"/><g class="errorbars"/><g class="lines"><path class="js-line" d="M0,312.9L28.42,313.47L56.84,270.57L85.26,245.72L113.68,236.06L142.11,229.67L170.53,214.04L198.95,213.76L227.37,194.59L255.79,191.18L284.21,178.96L312.63,159.64L341.05,159.5L369.47,124.85L397.89,120.59L426.32,104.54L454.74,84.94L483.16,71.58L511.58,52.98L540,36.79" style="vector-effect: non-scaling-stroke; fill: none; stroke: rgb(248, 118, 109); stroke-opacity: 1; stroke-width: 2px; opacity: 1;"/></g><g class="points"/><g class="text"/></g><g class="trace scatter tracee20999" style="stroke-miterlimit: 2; opacity: 1;"><g class="fills"/><g class="errorbars"/><g class="lines"><path class="js-line" d="M0,313.32L28.42,298.55L56.84,263.04L85.26,247.14L113.68,227.39L170.53,226.12L198.95,202.25L227.37,200.69L255.79,194.02L284.21,166.04L312.63,163.34L341.05,137.63L369.47,127.69L397.89,115.19L426.32,108.23L454.74,90.33L483.16,65.34L511.58,63.2L540,50.14" style="vector-effect: non-scaling-stroke; fill: none; stroke: rgb(163, 165, 0); stroke-opacity: 1; stroke-width: 2px; opacity: 1;"/></g><g class="points"/><g class="text"/></g><g class="trace scatter tracef3ec12" style="stroke-miterlimit: 2; opacity: 1;"><g class="fills"/><g class="errorbars"/><g class="lines"><path class="js-line" d="M0,312.61L28.42,308.35L56.84,260.2L85.26,250.12L113.68,242.59L142.11,233.5L170.53,228.1L198.95,208.65L227.37,191.46L255.79,189.19L284.21,174.84L312.63,160.36L341.05,140.61L369.47,129.53L397.89,112.92L426.32,98.43L454.74,77.69L483.16,73.29L511.58,66.9L540,43.89" style="vector-effect: non-scaling-stroke; fill: none; stroke: rgb(0, 191, 125); stroke-opacity: 1; stroke-width: 2px; opacity: 1;"/></g><g class="points"/><g class="text"/></g><g class="trace scatter traceaff874" style="stroke-miterlimit: 2; opacity: 1;"><g class="fills"/><g class="errorbars"/><g class="lines"><path class="js-line" d="M0,312.9L28.42,313.32L56.84,300.68L85.26,258.36L113.68,237.91L142.11,228.67L170.53,234.21L198.95,218.87L227.37,196.86L255.79,193.87L284.21,186.49L312.63,177.11L341.05,157.8L369.47,143.31L397.89,126.84L426.32,109.51L454.74,81.38L483.16,60.93L511.58,54.97L540,27.55" style="vector-effect: non-scaling-stroke; fill: none; stroke: rgb(0, 176, 246); stroke-opacity: 1; stroke-width: 2px; opacity: 1;"/></g><g class="points"/><g class="text"/></g><g class="trace scatter trace81753a" style="stroke-miterlimit: 2; opacity: 1;"><g class="fills"/><g class="errorbars"/><g class="lines"><path class="js-line" d="M0,310.34L28.42,312.33L56.84,267.16L85.26,249.84L113.68,242.73L142.11,224.13L170.53,218.87L198.95,207.08L227.37,193.02L255.79,191.89L284.21,164.47L312.63,157.23L341.05,144.02L369.47,117.04L397.89,101.84L426.32,95.3L454.74,56.81L483.16,48.86L511.58,21.45L540,12.21" style="vector-effect: non-scaling-stroke; fill: none; stroke: rgb(231, 107, 243); stroke-opacity: 1; stroke-width: 2px; opacity: 1;"/></g><g class="points"/><g class="text"/></g><g class="trace scatter trace038eb4" style="stroke-miterlimit: 2; opacity: 1;"><g class="fills"/><g class="errorbars"/><g class="lines"><path class="js-line" d="M0,311.76L28.42,311.05L56.84,273.56L85.26,252.68L113.68,246.28L170.53,226.54L198.95,212.06L227.37,192.31L255.79,190.61L284.21,183.22L312.63,156.8L341.05,151.26L369.47,134.08L397.89,114.19L426.32,102.12L454.74,79.4L483.16,55.39L511.58,65.48L540,36.36" style="vector-effect: non-scaling-stroke; fill: none; stroke: rgb(248, 118, 109); stroke-opacity: 1; stroke-width: 2px; opacity: 1;"/></g><g class="points"/><g class="text"/></g><g class="trace scatter trace43e86c" style="stroke-miterlimit: 2; opacity: 1;"><g class="fills"/><g class="errorbars"/><g class="lines"><path class="js-line" d="M0,310.63L28.42,311.62L56.84,291.31L85.26,241.88L113.68,240.6L142.11,233.5L170.53,233.5L198.95,213.62L227.37,211.2L255.79,197.43L284.21,176.4L312.63,165.18L341.05,156.24L369.47,140.19L397.89,128.11L426.32,101.84L454.74,85.93L483.16,71.58L511.58,61.64L540,33.38" style="vector-effect: non-scaling-stroke; fill: none; stroke: rgb(163, 165, 0); stroke-opacity: 1; stroke-width: 2px; opacity: 1;"/></g><g class="points"/><g class="text"/></g><g class="trace scatter trace228a75" style="stroke-miterlimit: 2; opacity: 1;"><g class="fills"/><g class="errorbars"/><g class="lines"><path class="js-line" d="M0,310.77L28.42,296.28L56.84,265.03L85.26,248.98L113.68,236.06L142.11,237.19L170.53,217.17L198.95,202.11L227.37,200.83L255.79,182.09L284.21,178.68L341.05,161.49L369.47,132.66L397.89,130.81L426.32,117.04L454.74,100.84L483.16,83.66L511.58,75.85L540,46.44" style="vector-effect: non-scaling-stroke; fill: none; stroke: rgb(0, 191, 125); stroke-opacity: 1; stroke-width: 2px; opacity: 1;"/></g><g class="points"/><g class="text"/></g><g class="trace scatter traceddd6d3" style="stroke-miterlimit: 2; opacity: 1;"><g class="fills"/><g class="errorbars"/><g class="lines"><path class="js-line" d="M0,314.18L28.42,310.2L56.84,268.44L85.26,254.81L113.68,246.85L142.11,226.83L170.53,205.81L198.95,213.9L227.37,187.77L255.79,174.27L284.21,156.8L312.63,152.26L341.05,139.19L369.47,111.64L397.89,97.72L426.32,73L454.74,56.1L483.16,29.54L511.58,23.72L540,2.84" style="vector-effect: non-scaling-stroke; fill: none; stroke: rgb(0, 176, 246); stroke-opacity: 1; stroke-width: 2px; opacity: 1;"/></g><g class="points"/><g class="text"/></g><g class="trace scatter trace39c8e9" style="stroke-miterlimit: 2; opacity: 1;"><g class="fills"/><g class="errorbars"/><g class="lines"><path class="js-line" d="M0,312.19L28.42,304.38L56.84,267.31L85.26,253.1L113.68,241.46L142.11,227.82L170.53,216.6L198.95,208.08L227.37,202.25L255.79,182.37L284.21,171.58L312.63,167.46L341.05,145.44L369.47,121.3L397.89,105.67L426.32,87.21L454.74,88.34L483.16,73.29L511.58,51.84L540,18.46" style="vector-effect: non-scaling-stroke; fill: none; stroke: rgb(231, 107, 243); stroke-opacity: 1; stroke-width: 2px; opacity: 1;"/></g><g class="points"/><g class="text"/></g></g></g><g class="overplot"/><path class="xlines-above crisp" d="" style="fill: none; stroke-width: 1px; stroke: rgb(0, 0, 0); stroke-opacity: 0;"/><path class="ylines-above crisp" d="" style="fill: none; stroke-width: 1px; stroke: rgb(0, 0, 0); stroke-opacity: 0;"/><g class="overlines-above"/><g class="xaxislayer-above"><path class="xtick ticks crisp" d="M0,421v5" transform="translate(80,0)" style="stroke: rgb(51, 51, 51); stroke-opacity: 1; stroke-width: 1px;"/><path class="xtick ticks crisp" d="M0,421v5" transform="translate(222.11,0)" style="stroke: rgb(51, 51, 51); stroke-opacity: 1; stroke-width: 1px;"/><path class="xtick ticks crisp" d="M0,421v5" transform="translate(364.21,0)" style="stroke: rgb(51, 51, 51); stroke-opacity: 1; stroke-width: 1px;"/><path class="xtick ticks crisp" d="M0,421v5" transform="translate(506.32,0)" style="stroke: rgb(51, 51, 51); stroke-opacity: 1; stroke-width: 1px;"/><g class="xtick"><text text-anchor="middle" x="0" y="440.4" transform="translate(80,0)" style="font-family: 'Open Sans', verdana, arial, sans-serif; font-size: 12px; fill: rgb(51, 51, 51); fill-opacity: 1; white-space: pre; opacity: 1;">0</text></g><g class="xtick"><text text-anchor="middle" x="0" y="440.4" style="font-family: 'Open Sans', verdana, arial, sans-serif; font-size: 12px; fill: rgb(51, 51, 51); fill-opacity: 1; white-space: pre; opacity: 1;" transform="translate(222.11,0)">5</text></g><g class="xtick"><text text-anchor="middle" x="0" y="440.4" style="font-family: 'Open Sans', verdana, arial, sans-serif; font-size: 12px; fill: rgb(51, 51, 51); fill-opacity: 1; white-space: pre; opacity: 1;" transform="translate(364.21,0)">10</text></g><g class="xtick"><text text-anchor="middle" x="0" y="440.4" style="font-family: 'Open Sans', verdana, arial, sans-serif; font-size: 12px; fill: rgb(51, 51, 51); fill-opacity: 1; white-space: pre; opacity: 1;" transform="translate(506.32,0)">15</text></g></g><g class="yaxislayer-above"><path class="ytick ticks crisp" d="M79,0h-5" transform="translate(0,410.2)" style="stroke: rgb(51, 51, 51); stroke-opacity: 1; stroke-width: 1px;"/><path class="ytick ticks crisp" d="M79,0h-5" transform="translate(0,359.07)" style="stroke: rgb(51, 51, 51); stroke-opacity: 1; stroke-width: 1px;"/><path class="ytick ticks crisp" d="M79,0h-5" transform="translate(0,307.94)" style="stroke: rgb(51, 51, 51); stroke-opacity: 1; stroke-width: 1px;"/><path class="ytick ticks crisp" d="M79,0h-5" transform="translate(0,256.8)" style="stroke: rgb(51, 51, 51); stroke-opacity: 1; stroke-width: 1px;"/><path class="ytick ticks crisp" d="M79,0h-5" transform="translate(0,205.67000000000002)" style="stroke: rgb(51, 51, 51); stroke-opacity: 1; stroke-width: 1px;"/><path class="ytick ticks crisp" d="M79,0h-5" transform="translate(0,154.54)" style="stroke: rgb(51, 51, 51); stroke-opacity: 1; stroke-width: 1px;"/><path class="ytick ticks crisp" d="M79,0h-5" transform="translate(0,103.41)" style="stroke: rgb(51, 51, 51); stroke-opacity: 1; stroke-width: 1px;"/><g class="ytick"><text text-anchor="end" x="71.6" y="4.199999999999999" transform="translate(0,410.2)" style="font-family: 'Open Sans', verdana, arial, sans-serif; font-size: 12px; fill: rgb(51, 51, 51); fill-opacity: 1; white-space: pre; opacity: 1;">0.004</text></g><g class="ytick"><text text-anchor="end" x="71.6" y="4.199999999999999" style="font-family: 'Open Sans', verdana, arial, sans-serif; font-size: 12px; fill: rgb(51, 51, 51); fill-opacity: 1; white-space: pre; opacity: 1;" transform="translate(0,359.07)">0.006</text></g><g class="ytick"><text text-anchor="end" x="71.6" y="4.199999999999999" style="font-family: 'Open Sans', verdana, arial, sans-serif; font-size: 12px; fill: rgb(51, 51, 51); fill-opacity: 1; white-space: pre; opacity: 1;" transform="translate(0,307.94)">0.008</text></g><g class="ytick"><text text-anchor="end" x="71.6" y="4.199999999999999" style="font-family: 'Open Sans', verdana, arial, sans-serif; font-size: 12px; fill: rgb(51, 51, 51); fill-opacity: 1; white-space: pre; opacity: 1;" transform="translate(0,256.8)">0.01</text></g><g class="ytick"><text text-anchor="end" x="71.6" y="4.199999999999999" style="font-family: 'Open Sans', verdana, arial, sans-serif; font-size: 12px; fill: rgb(51, 51, 51); fill-opacity: 1; white-space: pre; opacity: 1;" transform="translate(0,205.67000000000002)">0.012</text></g><g class="ytick"><text text-anchor="end" x="71.6" y="4.199999999999999" style="font-family: 'Open Sans', verdana, arial, sans-serif; font-size: 12px; fill: rgb(51, 51, 51); fill-opacity: 1; white-space: pre; opacity: 1;" transform="translate(0,154.54)">0.014</text></g><g class="ytick"><text text-anchor="end" x="71.6" y="4.199999999999999" style="font-family: 'Open Sans', verdana, arial, sans-serif; font-size: 12px; fill: rgb(51, 51, 51); fill-opacity: 1; white-space: pre; opacity: 1;" transform="translate(0,103.41)">0.016</text></g></g><g class="overaxes-above"/></g></g><g class="polarlayer"/><g class="ternarylayer"/><g class="geolayer"/><g class="funnelarealayer"/><g class="pielayer"/><g class="iciclelayer"/><g class="treemaplayer"/><g class="sunburstlayer"/><g class="glimages"/><defs id="topdefs-10d5f2"><g class="clips"/></defs><g class="layer-above"><g class="imagelayer"/><g class="shapelayer"/></g><g class="infolayer"><g class="g-gtitle"><text class="gtitle" x="350" y="50" text-anchor="middle" dy="0em" style="font-family: 'Open Sans', verdana, arial, sans-serif; font-size: 17px; fill: rgb(51, 51, 51); opacity: 1; font-weight: normal; white-space: pre;">Train Accuracy: ascad_v1_vk_0_noisy-aisy_id_mlp (early_stopping)</text></g><g class="g-xtitle"/><g class="g-ytitle"/></g></svg>