<svg class="main-svg" xmlns="http://www.w3.org/2000/svg" xmlns:xlink="http://www.w3.org/1999/xlink" width="700" height="500" style="" viewBox="0 0 700 500"><rect x="0" y="0" width="700" height="500" style="fill: rgb(255, 255, 255); fill-opacity: 1;"/><defs id="defs-07ed87"><g class="clips"><clipPath id="clip07ed87xyplot" class="plotclip"><rect width="540" height="320"/></clipPath><clipPath class="axesclip" id="clip07ed87x"><rect x="80" y="0" width="540" height="500"/></clipPath><clipPath class="axesclip" id="clip07ed87y"><rect x="0" y="100" width="700" height="320"/></clipPath><clipPath class="axesclip" id="clip07ed87xy"><rect x="80" y="100" width="540" height="320"/></clipPath></g><g class="gradients"/><g class="patterns"/></defs><g class="bglayer"><rect class="bg" x="80" y="100" width="540" height="320" style="fill: rgb(229, 236, 246); fill-opacity: 1; stroke-width: 0;"/></g><g class="layer-below"><g class="imagelayer"/><g class="shapelayer"/></g><g class="cartesianlayer"><g class="subplot xy"><g class="layer-subplot"><g class="shapelayer"/><g class="imagelayer"/></g><g class="gridlayer"><g class="x"><path class="xgrid crisp" transform="translate(188.43,0)" d="M0,100v320" style="stroke: rgb(255, 255, 255); stroke-opacity: 1; stroke-width: 1px;"/><path class="xgrid crisp" transform="translate(296.87,0)" d="M0,100v320" style="stroke: rgb(255, 255, 255); stroke-opacity: 1; stroke-width: 1px;"/><path class="xgrid crisp" transform="translate(405.3,0)" d="M0,100v320" style="stroke: rgb(255, 255, 255); stroke-opacity: 1; stroke-width: 1px;"/><path class="xgrid crisp" transform="translate(513.73,0)" d="M0,100v320" style="stroke: rgb(255, 255, 255); stroke-opacity: 1; stroke-width: 1px;"/></g><g class="y"><path class="ygrid crisp" transform="translate(0,371.37)" d="M80,0h540" style="stroke: rgb(255, 255, 255); stroke-opacity: 1; stroke-width: 1px;"/><path class="ygrid crisp" transform="translate(0,322.73)" d="M80,0h540" style="stroke: rgb(255, 255, 255); stroke-opacity: 1; stroke-width: 1px;"/><path class="ygrid crisp" transform="translate(0,274.1)" d="M80,0h540" style="stroke: rgb(255, 255, 255); stroke-opacity: 1; stroke-width: 1px;"/><path class="ygrid crisp" transform="translate(0,225.45999999999998)" d="M80,0h540" style="stroke: rgb(255, 255, 255); stroke-opacity: 1; stroke-width: 1px;"/><path class="ygrid crisp" transform="translate(0,176.82999999999998)" d="M80,0h540" style="stroke: rgb(255, 255, 255); stroke-opacity: 1; stroke-width: 1px;"/><path class="ygrid crisp" transform="translate(0,128.2)" d="M80,0h540" style="stroke: rgb(255, 255, 255); stroke-opacity: 1; stroke-width: 1px;"/></g></g><g class="zerolinelayer"><path class="xzl zl crisp" transform="translate(80,0)" d="M0,100v320" style="stroke: rgb(255, 255, 255); stroke-opacity: 1; stroke-width: 2px;"/><path class="yzl zl crisp" transform="translate(0,420)" d="M80,0h540" style="stroke: rgb(255, 255, 255); stroke-opacity: 1; stroke-width: 2px;"/></g><path class="xlines-below"/><path class="ylines-below"/><g class="overlines-below"/><g class="xaxislayer-below"/><g class="yaxislayer-below"/><g class="overaxes-below"/><g class="plot" transform="translate(80,100)" clip-path="url(#clip07ed87xyplot)"><g class="scatterlayer mlayer"><g class="trace scatter trace10620c" style="stroke-miterlimit: 2; opacity: 1;"><g class="fills"/><g class="errorbars"/><g class="lines"><path class="js-line" d="M0,42.25L4.34,145.38L6.51,162.33L8.67,176.32L10.84,138.48L13.01,141.43L15.18,148.39L17.35,153.59L19.52,134.33L21.69,147.56L23.86,154.12L26.02,158.09L28.19,160.46L30.36,188.88L32.53,198.2L34.7,198.08L36.87,210.01L39.04,204.87L41.2,193.86L45.54,184.03L47.71,190.01L52.05,199.85L54.22,209.94L56.39,229.36L58.55,239.6L60.72,248.07L62.89,249.38L65.06,250.87L67.23,257.14L69.4,257.01L71.57,259.57L73.73,261.16L75.9,265.59L78.07,259.41L80.24,260.3L82.41,264.14L84.58,263.27L86.75,262.51L88.92,260.01L91.08,254.32L93.25,256.57L95.42,256.96L97.59,254.91L99.76,260.35L101.93,260.76L104.1,259.44L106.27,263.22L108.43,262.1L110.6,267.24L114.94,270.21L117.11,279.83L121.45,281.18L123.61,284.25L125.78,282.63L127.95,282L130.12,283.91L132.29,280.67L136.63,289.97L138.8,289.15L140.96,288.6L143.13,292.73L145.3,292.7L147.47,295.2L149.64,295.21L151.81,298.29L153.98,300.9L156.14,300.05L158.31,299.5L160.48,298.1L162.65,300.9L164.82,302.01L166.99,301.35L169.16,301.87L171.33,303.78L173.49,304.49L177.83,302.63L180,304.28L184.34,304.35L186.51,304.59L188.67,304.51L190.84,305.7L195.18,306.16L197.35,305.49L199.52,304.08L201.69,305.12L206.02,306.88L208.19,306.84L214.7,308.38L216.87,309.08L221.2,308.58L223.37,309.85L229.88,309.34L232.05,309.54L234.22,308.78L236.39,309.23L240.72,310.42L242.89,310.14L245.06,309.67L247.23,310.36L255.9,309.09L258.07,309.74L262.41,309.96L264.58,308.87L273.25,311.66L275.42,311.4L279.76,312.33L281.93,311.93L292.77,312.77L294.94,312.95L303.61,312.69L305.78,312.53L342.65,313.38L344.82,313.64L362.17,314.28L364.34,314.01L377.35,314.52L379.52,314.94L383.86,314.78L386.02,315.14L405.54,316.03L407.71,315.88L422.89,316.1L425.06,316.32L513.98,315.99L516.14,316.21L522.65,316.36L524.82,316.45L535.66,316.31L537.83,316.23L540,316.51" style="vector-effect: non-scaling-stroke; fill: none; stroke: rgb(99, 110, 250); stroke-opacity: 1; stroke-width: 2px; opacity: 1;"/></g><g class="points"/><g class="text"/></g><g class="trace scatter trace05a016" style="stroke-miterlimit: 2; opacity: 1;"><g class="fills"/><g class="errorbars"/><g class="lines"><path class="js-line" d="M0,73.16L2.17,81.14L4.34,136.88L6.51,172L8.67,185.81L10.84,186.46L13.01,184.34L15.18,184.41L17.35,190.4L19.52,182.36L21.69,194.86L23.86,193.83L26.02,185.17L30.36,219.06L32.53,219.49L34.7,226.6L36.87,240.96L39.04,252.04L41.2,247.19L43.37,249.63L45.54,247.78L47.71,251.03L49.88,250.32L52.05,251.08L54.22,258.48L58.55,275.74L60.72,276.26L62.89,282.8L65.06,279.29L67.23,280.09L69.4,276.54L73.73,283.32L75.9,283.53L78.07,284.07L80.24,281.61L82.41,283.73L84.58,280.42L86.75,283.54L88.92,283.38L91.08,287.84L93.25,286.02L95.42,288.76L97.59,286.89L104.1,286.32L106.27,289.69L108.43,292.15L110.6,291.02L112.77,291.38L114.94,290.75L119.28,290.27L121.45,291.45L123.61,290.7L125.78,291.43L127.95,292.76L130.12,292.95L132.29,292.41L134.46,293.51L138.8,292.98L140.96,293.43L145.3,293.8L147.47,295.53L149.64,293.4L151.81,295.25L153.98,295.8L156.14,294.93L158.31,295.25L160.48,293.82L164.82,293.1L166.99,290.17L169.16,290.77L171.33,290.57L173.49,292.41L175.66,292.53L177.83,293.61L180,293.37L182.17,293.2L184.34,295.32L186.51,294.42L188.67,296.66L190.84,296.43L193.01,294.97L195.18,293.8L197.35,293.78L199.52,295.02L201.69,294.49L203.86,293.51L206.02,296.78L208.19,294.47L210.36,296.18L212.53,296.34L214.7,297.96L216.87,298.95L219.04,298.36L225.54,297.6L227.71,298.13L229.88,297.03L232.05,298.06L236.39,301.15L238.55,300.2L240.72,300.79L242.89,299.87L249.4,300.54L251.57,299.48L253.73,299.77L255.9,298.98L262.41,300.42L264.58,300.13L266.75,300.51L268.92,302.06L275.42,301.21L277.59,302.39L279.76,301.62L281.93,302.52L286.27,302.72L288.43,303.29L290.6,303.91L292.77,303.63L299.28,305.92L301.45,305.66L310.12,308.38L312.29,307.42L323.13,308.14L325.3,308.63L338.31,307.13L340.48,307.46L373.01,310.02L375.18,309.8L388.19,311.16L390.36,311.43L394.7,311.37L396.87,311.57L414.22,312.18L416.39,312.28L420.72,312.03L422.89,312.13L427.23,311.33L429.4,310.77L435.9,311.04L438.07,311.06L444.58,312.03L446.75,311.76L466.27,312.65L468.43,312.43L474.94,312.59L477.11,312.51L483.61,311.44L485.78,311.49L535.66,312.47L537.83,312.18L540,312.45" style="vector-effect: non-scaling-stroke; fill: none; stroke: rgb(239, 85, 59); stroke-opacity: 1; stroke-width: 2px; opacity: 1;"/></g><g class="points"/><g class="text"/></g><g class="trace scatter traceef26c7" style="stroke-miterlimit: 2; opacity: 1;"><g class="fills"/><g class="errorbars"/><g class="lines"><path class="js-line" d="M0,70.45L2.17,105.77L4.34,112.46L6.51,109.65L8.67,168.68L13.01,160.75L15.18,178.36L17.35,194.87L19.52,196.36L21.69,204.59L23.86,196.68L26.02,188.86L28.19,212.09L30.36,234.27L32.53,214.23L34.7,214.81L36.87,233.35L39.04,229.17L41.2,237.36L43.37,243.48L45.54,239.59L47.71,243.86L49.88,249.98L52.05,252.22L54.22,252.08L56.39,258.77L58.55,261.54L60.72,263.14L62.89,273.53L65.06,269.03L67.23,268.82L69.4,264.54L71.57,266.05L73.73,267.63L75.9,271L78.07,273.36L80.24,272.87L82.41,276.44L84.58,274.26L88.92,268.2L91.08,269.89L93.25,272.72L95.42,272.54L99.76,278.52L101.93,280.22L104.1,279.38L106.27,282.9L108.43,278.78L110.6,278.39L112.77,277.1L114.94,276.96L119.28,279.22L121.45,277.19L125.78,278.41L127.95,280.89L130.12,280.42L132.29,283.31L136.63,291.83L138.8,293.5L149.64,301.95L151.81,301.45L153.98,302.81L156.14,302.83L158.31,302.91L160.48,302.2L162.65,303.83L164.82,303.69L169.16,304.43L171.33,304.64L173.49,305.96L175.66,305.76L177.83,304.42L180,305.93L182.17,305.51L184.34,307.72L188.67,308.12L190.84,308.64L197.35,308.1L199.52,308.81L206.02,309.19L208.19,307.68L212.53,309.4L214.7,308.85L216.87,310.01L219.04,308.02L221.2,309.93L223.37,310.36L229.88,310.49L232.05,309.63L234.22,310.95L236.39,310.67L240.72,311.87L242.89,312.01L251.57,311.32L253.73,312.11L258.07,312.54L260.24,312.77L264.58,313.04L266.75,313.26L275.42,314.69L277.59,314.61L284.1,315.26L286.27,315L290.6,314.88L292.77,314.88L297.11,315.2L299.28,315.23L316.63,315.41L318.8,315.64L320.96,315.27L323.13,315.66L331.81,315.3L333.98,315.89L336.14,315.41L338.31,315.82L342.65,315.39L344.82,315.5L357.83,315.96L360,315.89L370.84,315.61L373.01,316.04L403.37,316.14L405.54,316.07L435.9,316.24L438.07,316.52L451.08,316.42L453.25,316.74L470.6,317.28L472.77,317.39L496.63,317.19L498.8,317.08L531.33,316.85L533.49,316.89L540,316.78" style="vector-effect: non-scaling-stroke; fill: none; stroke: rgb(0, 204, 150); stroke-opacity: 1; stroke-width: 2px; opacity: 1;"/></g><g class="points"/><g class="text"/></g><g class="trace scatter tracef41c39" style="stroke-miterlimit: 2; opacity: 1;"><g class="fills"/><g class="errorbars"/><g class="lines"><path class="js-line" d="M0,70.45L2.17,105.77L4.34,112.46L6.51,109.65L8.67,168.68L13.01,160.75L15.18,178.36L17.35,194.87L19.52,196.36L21.69,204.59L23.86,196.68L26.02,188.86L28.19,212.09L30.36,234.27L32.53,214.23L34.7,214.81L36.87,233.35L39.04,229.17L41.2,237.36L43.37,243.48L45.54,239.59L47.71,243.86L49.88,249.98L52.05,252.22L54.22,252.08L56.39,258.77L58.55,261.54L60.72,263.14L62.89,273.53L65.06,269.03L67.23,268.82L69.4,264.54L71.57,266.05L73.73,267.63L75.9,271L78.07,273.36L80.24,272.87L82.41,276.44L84.58,274.26L88.92,268.2L91.08,269.89L93.25,272.72L95.42,272.54L99.76,278.52L101.93,280.22L104.1,279.38L106.27,282.9L108.43,278.78L110.6,278.39L112.77,277.1L114.94,276.96L119.28,279.22L121.45,277.19L125.78,278.41L127.95,280.89L130.12,280.42L132.29,283.31L136.63,291.83L138.8,293.5L149.64,301.95L151.81,301.45L153.98,302.81L156.14,302.83L158.31,302.91L160.48,302.2L162.65,303.83L164.82,303.69L169.16,304.43L171.33,304.64L173.49,305.96L175.66,305.76L177.83,304.42L180,305.93L182.17,305.51L184.34,307.72L188.67,308.12L190.84,308.64L197.35,308.1L199.52,308.81L206.02,309.19L208.19,307.68L212.53,309.4L214.7,308.85L216.87,310.01L219.04,308.02L221.2,309.93L223.37,310.36L229.88,310.49L232.05,309.63L234.22,310.95L236.39,310.67L240.72,311.87L242.89,312.01L251.57,311.32L253.73,312.11L258.07,312.54L260.24,312.77L264.58,313.04L266.75,313.26L275.42,314.69L277.59,314.61L284.1,315.26L286.27,315L290.6,314.88L292.77,314.88L297.11,315.2L299.28,315.23L316.63,315.41L318.8,315.64L320.96,315.27L323.13,315.66L331.81,315.3L333.98,315.89L336.14,315.41L338.31,315.82L342.65,315.39L344.82,315.5L357.83,315.96L360,315.89L370.84,315.61L373.01,316.04L403.37,316.14L405.54,316.07L435.9,316.24L438.07,316.52L451.08,316.42L453.25,316.74L470.6,317.28L472.77,317.39L496.63,317.19L498.8,317.08L531.33,316.85L533.49,316.89L540,316.78" style="vector-effect: non-scaling-stroke; fill: none; stroke: rgb(171, 99, 250); stroke-opacity: 1; stroke-width: 2px; opacity: 1;"/></g><g class="points"/><g class="text"/></g><g class="trace scatter traceefe148" style="stroke-miterlimit: 2; opacity: 1;"><g class="fills"/><g class="errorbars"/><g class="lines"><path class="js-line" d="M0,49.73L2.17,73.04L4.34,80.8L8.67,135.08L10.84,132.74L13.01,167.98L15.18,163.38L17.35,187.29L19.52,172.08L21.69,176.7L23.86,171.24L26.02,181.27L28.19,186.71L30.36,191.74L32.53,193.8L34.7,203.44L36.87,220.03L39.04,221.05L41.2,241.42L45.54,228.3L47.71,238.31L49.88,240.35L52.05,254.55L54.22,251.3L56.39,261.75L58.55,265.09L60.72,266.57L62.89,274.6L65.06,279.46L71.57,282.7L73.73,279.99L75.9,279.99L78.07,278.28L80.24,277L82.41,286.05L84.58,285.28L86.75,286.56L91.08,289.42L93.25,295.23L95.42,296.42L97.59,292.92L99.76,291.06L101.93,294.99L104.1,292.8L106.27,292.24L108.43,292.17L110.6,298.53L112.77,295.79L114.94,296.17L117.11,299.07L119.28,299.62L121.45,300.44L123.61,300.33L125.78,300.14L127.95,301.35L130.12,301.67L132.29,298.21L134.46,301.05L136.63,302.17L138.8,304.59L140.96,304.63L143.13,305.66L145.3,305.84L149.64,305.25L151.81,307.36L153.98,308.46L156.14,307.97L162.65,309.33L164.82,309.07L173.49,311.28L175.66,311.98L180,312.95L182.17,312.65L188.67,312.09L190.84,311.59L195.18,310.52L197.35,309.99L203.86,310.08L206.02,310.77L210.36,309.85L212.53,310.33L232.05,312.17L234.22,311.95L236.39,313.06L238.55,312.83L242.89,314.02L245.06,314.2L264.58,315.71L266.75,315.61L271.08,315.92L273.25,315.42L284.1,315.58L286.27,315.32L294.94,315.91L297.11,315.74L316.63,315.73L318.8,315.9L323.13,316.03L325.3,315.84L338.31,316.37L340.48,316.05L346.99,315.74L349.16,315.81L353.49,316.06L355.66,316.65L386.02,317.42L388.19,317.69L407.71,317.78L409.88,317.46L416.39,317.69L418.55,317.73L440.24,317.71L442.41,317.75L479.28,318.24L481.45,318.43L498.8,318.28L500.96,318.31L520.48,318.28L522.65,318.35L540,318.53" style="vector-effect: non-scaling-stroke; fill: none; stroke: rgb(255, 161, 90); stroke-opacity: 1; stroke-width: 2px; opacity: 1;"/></g><g class="points"/><g class="text"/></g><g class="trace scatter trace74ce8b" style="stroke-miterlimit: 2; opacity: 1;"><g class="fills"/><g class="errorbars"/><g class="lines"><path class="js-line" d="M0,49.73L2.17,73.04L4.34,80.8L8.67,135.08L10.84,132.74L13.01,167.98L15.18,163.38L17.35,187.29L19.52,172.08L21.69,176.7L23.86,171.24L26.02,181.27L28.19,186.71L30.36,191.74L32.53,193.8L34.7,203.44L36.87,220.03L39.04,221.05L41.2,241.42L45.54,228.3L47.71,238.31L49.88,240.35L52.05,254.55L54.22,251.3L56.39,261.75L58.55,265.09L60.72,266.57L62.89,274.6L65.06,279.46L71.57,282.7L73.73,279.99L75.9,279.99L78.07,278.28L80.24,277L82.41,286.05L84.58,285.28L86.75,286.56L91.08,289.42L93.25,295.23L95.42,296.42L97.59,292.92L99.76,291.06L101.93,294.99L104.1,292.8L106.27,292.24L108.43,292.17L110.6,298.53L112.77,295.79L114.94,296.17L117.11,299.07L119.28,299.62L121.45,300.44L123.61,300.33L125.78,300.14L127.95,301.35L130.12,301.67L132.29,298.21L134.46,301.05L136.63,302.17L138.8,304.59L140.96,304.63L143.13,305.66L145.3,305.84L149.64,305.25L151.81,307.36L153.98,308.46L156.14,307.97L162.65,309.33L164.82,309.07L173.49,311.28L175.66,311.98L180,312.95L182.17,312.65L188.67,312.09L190.84,311.59L195.18,310.52L197.35,309.99L203.86,310.08L206.02,310.77L210.36,309.85L212.53,310.33L232.05,312.17L234.22,311.95L236.39,313.06L238.55,312.83L242.89,314.02L245.06,314.2L264.58,315.71L266.75,315.61L271.08,315.92L273.25,315.42L284.1,315.58L286.27,315.32L294.94,315.91L297.11,315.74L316.63,315.73L318.8,315.9L323.13,316.03L325.3,315.84L338.31,316.37L340.48,316.05L346.99,315.74L349.16,315.81L353.49,316.06L355.66,316.65L386.02,317.42L388.19,317.69L407.71,317.78L409.88,317.46L416.39,317.69L418.55,317.73L440.24,317.71L442.41,317.75L479.28,318.24L481.45,318.43L498.8,318.28L500.96,318.31L520.48,318.28L522.65,318.35L540,318.53" style="vector-effect: non-scaling-stroke; fill: none; stroke: rgb(25, 211, 243); stroke-opacity: 1; stroke-width: 2px; opacity: 1;"/></g><g class="points"/><g class="text"/></g><g class="trace scatter trace781c20" style="stroke-miterlimit: 2; opacity: 1;"><g class="fills"/><g class="errorbars"/><g class="lines"><path class="js-line" d="M0,70.45L2.17,105.77L4.34,112.46L6.51,109.65L8.67,168.68L13.01,160.75L15.18,178.36L17.35,194.87L19.52,196.36L21.69,204.59L23.86,196.68L26.02,188.86L28.19,212.09L30.36,234.27L32.53,214.23L34.7,214.81L36.87,233.35L39.04,229.17L41.2,237.36L43.37,243.48L45.54,239.59L47.71,243.86L49.88,249.98L52.05,252.22L54.22,252.08L56.39,258.77L58.55,261.54L60.72,263.14L62.89,273.53L65.06,269.03L67.23,268.82L69.4,264.54L71.57,266.05L73.73,267.63L75.9,271L78.07,273.36L80.24,272.87L82.41,276.44L84.58,274.26L88.92,268.2L91.08,269.89L93.25,272.72L95.42,272.54L99.76,278.52L101.93,280.22L104.1,279.38L106.27,282.9L108.43,278.78L110.6,278.39L112.77,277.1L114.94,276.96L119.28,279.22L121.45,277.19L125.78,278.41L127.95,280.89L130.12,280.42L132.29,283.31L136.63,291.83L138.8,293.5L149.64,301.95L151.81,301.45L153.98,302.81L156.14,302.83L158.31,302.91L160.48,302.2L162.65,303.83L164.82,303.69L169.16,304.43L171.33,304.64L173.49,305.96L175.66,305.76L177.83,304.42L180,305.93L182.17,305.51L184.34,307.72L188.67,308.12L190.84,308.64L197.35,308.1L199.52,308.81L206.02,309.19L208.19,307.68L212.53,309.4L214.7,308.85L216.87,310.01L219.04,308.02L221.2,309.93L223.37,310.36L229.88,310.49L232.05,309.63L234.22,310.95L236.39,310.67L240.72,311.87L242.89,312.01L251.57,311.32L253.73,312.11L258.07,312.54L260.24,312.77L264.58,313.04L266.75,313.26L275.42,314.69L277.59,314.61L284.1,315.26L286.27,315L290.6,314.88L292.77,314.88L297.11,315.2L299.28,315.23L316.63,315.41L318.8,315.64L320.96,315.27L323.13,315.66L331.81,315.3L333.98,315.89L336.14,315.41L338.31,315.82L342.65,315.39L344.82,315.5L357.83,315.96L360,315.89L370.84,315.61L373.01,316.04L403.37,316.14L405.54,316.07L435.9,316.24L438.07,316.52L451.08,316.42L453.25,316.74L470.6,317.28L472.77,317.39L496.63,317.19L498.8,317.08L531.33,316.85L533.49,316.89L540,316.78" style="vector-effect: non-scaling-stroke; fill: none; stroke: rgb(255, 102, 146); stroke-opacity: 1; stroke-width: 2px; opacity: 1;"/></g><g class="points"/><g class="text"/></g><g class="trace scatter tracef34afb" style="stroke-miterlimit: 2; opacity: 1;"><g class="fills"/><g class="errorbars"/><g class="lines"><path class="js-line" d="M0,70.45L2.17,105.77L4.34,112.46L6.51,109.65L8.67,168.68L13.01,160.75L15.18,178.36L17.35,194.87L19.52,196.36L21.69,204.59L23.86,196.68L26.02,188.86L28.19,212.09L30.36,234.27L32.53,214.23L34.7,214.81L36.87,233.35L39.04,229.17L41.2,237.36L43.37,243.48L45.54,239.59L47.71,243.86L49.88,249.98L52.05,252.22L54.22,252.08L56.39,258.77L58.55,261.54L60.72,263.14L62.89,273.53L65.06,269.03L67.23,268.82L69.4,264.54L71.57,266.05L73.73,267.63L75.9,271L78.07,273.36L80.24,272.87L82.41,276.44L84.58,274.26L88.92,268.2L91.08,269.89L93.25,272.72L95.42,272.54L99.76,278.52L101.93,280.22L104.1,279.38L106.27,282.9L108.43,278.78L110.6,278.39L112.77,277.1L114.94,276.96L119.28,279.22L121.45,277.19L125.78,278.41L127.95,280.89L130.12,280.42L132.29,283.31L136.63,291.83L138.8,293.5L149.64,301.95L151.81,301.45L153.98,302.81L156.14,302.83L158.31,302.91L160.48,302.2L162.65,303.83L164.82,303.69L169.16,304.43L171.33,304.64L173.49,305.96L175.66,305.76L177.83,304.42L180,305.93L182.17,305.51L184.34,307.72L188.67,308.12L190.84,308.64L197.35,308.1L199.52,308.81L206.02,309.19L208.19,307.68L212.53,309.4L214.7,308.85L216.87,310.01L219.04,308.02L221.2,309.93L223.37,310.36L229.88,310.49L232.05,309.63L234.22,310.95L236.39,310.67L240.72,311.87L242.89,312.01L251.57,311.32L253.73,312.11L258.07,312.54L260.24,312.77L264.58,313.04L266.75,313.26L275.42,314.69L277.59,314.61L284.1,315.26L286.27,315L290.6,314.88L292.77,314.88L297.11,315.2L299.28,315.23L316.63,315.41L318.8,315.64L320.96,315.27L323.13,315.66L331.81,315.3L333.98,315.89L336.14,315.41L338.31,315.82L342.65,315.39L344.82,315.5L357.83,315.96L360,315.89L370.84,315.61L373.01,316.04L403.37,316.14L405.54,316.07L435.9,316.24L438.07,316.52L451.08,316.42L453.25,316.74L470.6,317.28L472.77,317.39L496.63,317.19L498.8,317.08L531.33,316.85L533.49,316.89L540,316.78" style="vector-effect: non-scaling-stroke; fill: none; stroke: rgb(182, 232, 128); stroke-opacity: 1; stroke-width: 2px; opacity: 1;"/></g><g class="points"/><g class="text"/></g><g class="trace scatter trace8dbbd4" style="stroke-miterlimit: 2; opacity: 1;"><g class="fills"/><g class="errorbars"/><g class="lines"><path class="js-line" d="M0,73.16L2.17,81.14L4.34,136.88L6.51,172L8.67,185.81L10.84,186.46L13.01,184.34L15.18,184.41L17.35,190.4L19.52,182.36L21.69,194.86L23.86,193.83L26.02,185.17L30.36,219.06L32.53,219.49L34.7,226.6L36.87,240.96L39.04,252.04L41.2,247.19L43.37,249.63L45.54,247.78L47.71,251.03L49.88,250.32L52.05,251.08L54.22,258.48L58.55,275.74L60.72,276.26L62.89,282.8L65.06,279.29L67.23,280.09L69.4,276.54L73.73,283.32L75.9,283.53L78.07,284.07L80.24,281.61L82.41,283.73L84.58,280.42L86.75,283.54L88.92,283.38L91.08,287.84L93.25,286.02L95.42,288.76L97.59,286.89L104.1,286.32L106.27,289.69L108.43,292.15L110.6,291.02L112.77,291.38L114.94,290.75L119.28,290.27L121.45,291.45L123.61,290.7L125.78,291.43L127.95,292.76L130.12,292.95L132.29,292.41L134.46,293.51L138.8,292.98L140.96,293.43L145.3,293.8L147.47,295.53L149.64,293.4L151.81,295.25L153.98,295.8L156.14,294.93L158.31,295.25L160.48,293.82L164.82,293.1L166.99,290.17L169.16,290.77L171.33,290.57L173.49,292.41L175.66,292.53L177.83,293.61L180,293.37L182.17,293.2L184.34,295.32L186.51,294.42L188.67,296.66L190.84,296.43L193.01,294.97L195.18,293.8L197.35,293.78L199.52,295.02L201.69,294.49L203.86,293.51L206.02,296.78L208.19,294.47L210.36,296.18L212.53,296.34L214.7,297.96L216.87,298.95L219.04,298.36L225.54,297.6L227.71,298.13L229.88,297.03L232.05,298.06L236.39,301.15L238.55,300.2L240.72,300.79L242.89,299.87L249.4,300.54L251.57,299.48L253.73,299.77L255.9,298.98L262.41,300.42L264.58,300.13L266.75,300.51L268.92,302.06L275.42,301.21L277.59,302.39L279.76,301.62L281.93,302.52L286.27,302.72L288.43,303.29L290.6,303.91L292.77,303.63L299.28,305.92L301.45,305.66L310.12,308.38L312.29,307.42L323.13,308.14L325.3,308.63L338.31,307.13L340.48,307.46L373.01,310.02L375.18,309.8L388.19,311.16L390.36,311.43L394.7,311.37L396.87,311.57L414.22,312.18L416.39,312.28L420.72,312.03L422.89,312.13L427.23,311.33L429.4,310.77L435.9,311.04L438.07,311.06L444.58,312.03L446.75,311.76L466.27,312.65L468.43,312.43L474.94,312.59L477.11,312.51L483.61,311.44L485.78,311.49L535.66,312.47L537.83,312.18L540,312.45" style="vector-effect: non-scaling-stroke; fill: none; stroke: rgb(255, 151, 255); stroke-opacity: 1; stroke-width: 2px; opacity: 1;"/></g><g class="points"/><g class="text"/></g><g class="trace scatter trace934c09" style="stroke-miterlimit: 2; opacity: 1;"><g class="fills"/><g class="errorbars"/><g class="lines"><path class="js-line" d="M0,73.16L2.17,81.14L4.34,136.88L6.51,172L8.67,185.81L10.84,186.46L13.01,184.34L15.18,184.41L17.35,190.4L19.52,182.36L21.69,194.86L23.86,193.83L26.02,185.17L30.36,219.06L32.53,219.49L34.7,226.6L36.87,240.96L39.04,252.04L41.2,247.19L43.37,249.63L45.54,247.78L47.71,251.03L49.88,250.32L52.05,251.08L54.22,258.48L58.55,275.74L60.72,276.26L62.89,282.8L65.06,279.29L67.23,280.09L69.4,276.54L73.73,283.32L75.9,283.53L78.07,284.07L80.24,281.61L82.41,283.73L84.58,280.42L86.75,283.54L88.92,283.38L91.08,287.84L93.25,286.02L95.42,288.76L97.59,286.89L104.1,286.32L106.27,289.69L108.43,292.15L110.6,291.02L112.77,291.38L114.94,290.75L119.28,290.27L121.45,291.45L123.61,290.7L125.78,291.43L127.95,292.76L130.12,292.95L132.29,292.41L134.46,293.51L138.8,292.98L140.96,293.43L145.3,293.8L147.47,295.53L149.64,293.4L151.81,295.25L153.98,295.8L156.14,294.93L158.31,295.25L160.48,293.82L164.82,293.1L166.99,290.17L169.16,290.77L171.33,290.57L173.49,292.41L175.66,292.53L177.83,293.61L180,293.37L182.17,293.2L184.34,295.32L186.51,294.42L188.67,296.66L190.84,296.43L193.01,294.97L195.18,293.8L197.35,293.78L199.52,295.02L201.69,294.49L203.86,293.51L206.02,296.78L208.19,294.47L210.36,296.18L212.53,296.34L214.7,297.96L216.87,298.95L219.04,298.36L225.54,297.6L227.71,298.13L229.88,297.03L232.05,298.06L236.39,301.15L238.55,300.2L240.72,300.79L242.89,299.87L249.4,300.54L251.57,299.48L253.73,299.77L255.9,298.98L262.41,300.42L264.58,300.13L266.75,300.51L268.92,302.06L275.42,301.21L277.59,302.39L279.76,301.62L281.93,302.52L286.27,302.72L288.43,303.29L290.6,303.91L292.77,303.63L299.28,305.92L301.45,305.66L310.12,308.38L312.29,307.42L323.13,308.14L325.3,308.63L338.31,307.13L340.48,307.46L373.01,310.02L375.18,309.8L388.19,311.16L390.36,311.43L394.7,311.37L396.87,311.57L414.22,312.18L416.39,312.28L420.72,312.03L422.89,312.13L427.23,311.33L429.4,310.77L435.9,311.04L438.07,311.06L444.58,312.03L446.75,311.76L466.27,312.65L468.43,312.43L474.94,312.59L477.11,312.51L483.61,311.44L485.78,311.49L535.66,312.47L537.83,312.18L540,312.45" style="vector-effect: non-scaling-stroke; fill: none; stroke: rgb(254, 203, 82); stroke-opacity: 1; stroke-width: 2px; opacity: 1;"/></g><g class="points"/><g class="text"/></g><g class="trace scatter trace75bd05" style="stroke-miterlimit: 2; opacity: 1;"><g class="fills"/><g class="errorbars"/><g class="lines"><path class="js-line" d="M0,70.45L2.17,105.77L4.34,112.46L6.51,109.65L8.67,168.68L13.01,160.75L15.18,178.36L17.35,194.87L19.52,196.36L21.69,204.59L23.86,196.68L26.02,188.86L28.19,212.09L30.36,234.27L32.53,214.23L34.7,214.81L36.87,233.35L39.04,229.17L41.2,237.36L43.37,243.48L45.54,239.59L47.71,243.86L49.88,249.98L52.05,252.22L54.22,252.08L56.39,258.77L58.55,261.54L60.72,263.14L62.89,273.53L65.06,269.03L67.23,268.82L69.4,264.54L71.57,266.05L73.73,267.63L75.9,271L78.07,273.36L80.24,272.87L82.41,276.44L84.58,274.26L88.92,268.2L91.08,269.89L93.25,272.72L95.42,272.54L99.76,278.52L101.93,280.22L104.1,279.38L106.27,282.9L108.43,278.78L110.6,278.39L112.77,277.1L114.94,276.96L119.28,279.22L121.45,277.19L125.78,278.41L127.95,280.89L130.12,280.42L132.29,283.31L136.63,291.83L138.8,293.5L149.64,301.95L151.81,301.45L153.98,302.81L156.14,302.83L158.31,302.91L160.48,302.2L162.65,303.83L164.82,303.69L169.16,304.43L171.33,304.64L173.49,305.96L175.66,305.76L177.83,304.42L180,305.93L182.17,305.51L184.34,307.72L188.67,308.12L190.84,308.64L197.35,308.1L199.52,308.81L206.02,309.19L208.19,307.68L212.53,309.4L214.7,308.85L216.87,310.01L219.04,308.02L221.2,309.93L223.37,310.36L229.88,310.49L232.05,309.63L234.22,310.95L236.39,310.67L240.72,311.87L242.89,312.01L251.57,311.32L253.73,312.11L258.07,312.54L260.24,312.77L264.58,313.04L266.75,313.26L275.42,314.69L277.59,314.61L284.1,315.26L286.27,315L290.6,314.88L292.77,314.88L297.11,315.2L299.28,315.23L316.63,315.41L318.8,315.64L320.96,315.27L323.13,315.66L331.81,315.3L333.98,315.89L336.14,315.41L338.31,315.82L342.65,315.39L344.82,315.5L357.83,315.96L360,315.89L370.84,315.61L373.01,316.04L403.37,316.14L405.54,316.07L435.9,316.24L438.07,316.52L451.08,316.42L453.25,316.74L470.6,317.28L472.77,317.39L496.63,317.19L498.8,317.08L531.33,316.85L533.49,316.89L540,316.78" style="vector-effect: non-scaling-stroke; fill: none; stroke: rgb(99, 110, 250); stroke-opacity: 1; stroke-width: 2px; opacity: 1;"/></g><g class="points"/><g class="text"/></g><g class="trace scatter trace6b3bbc" style="stroke-miterlimit: 2; opacity: 1;"><g class="fills"/><g class="errorbars"/><g class="lines"><path class="js-line" d="M0,73.16L2.17,81.14L4.34,136.88L6.51,172L8.67,185.81L10.84,186.46L13.01,184.34L15.18,184.41L17.35,190.4L19.52,182.36L21.69,194.86L23.86,193.83L26.02,185.17L30.36,219.06L32.53,219.49L34.7,226.6L36.87,240.96L39.04,252.04L41.2,247.19L43.37,249.63L45.54,247.78L47.71,251.03L49.88,250.32L52.05,251.08L54.22,258.48L58.55,275.74L60.72,276.26L62.89,282.8L65.06,279.29L67.23,280.09L69.4,276.54L73.73,283.32L75.9,283.53L78.07,284.07L80.24,281.61L82.41,283.73L84.58,280.42L86.75,283.54L88.92,283.38L91.08,287.84L93.25,286.02L95.42,288.76L97.59,286.89L104.1,286.32L106.27,289.69L108.43,292.15L110.6,291.02L112.77,291.38L114.94,290.75L119.28,290.27L121.45,291.45L123.61,290.7L125.78,291.43L127.95,292.76L130.12,292.95L132.29,292.41L134.46,293.51L138.8,292.98L140.96,293.43L145.3,293.8L147.47,295.53L149.64,293.4L151.81,295.25L153.98,295.8L156.14,294.93L158.31,295.25L160.48,293.82L164.82,293.1L166.99,290.17L169.16,290.77L171.33,290.57L173.49,292.41L175.66,292.53L177.83,293.61L180,293.37L182.17,293.2L184.34,295.32L186.51,294.42L188.67,296.66L190.84,296.43L193.01,294.97L195.18,293.8L197.35,293.78L199.52,295.02L201.69,294.49L203.86,293.51L206.02,296.78L208.19,294.47L210.36,296.18L212.53,296.34L214.7,297.96L216.87,298.95L219.04,298.36L225.54,297.6L227.71,298.13L229.88,297.03L232.05,298.06L236.39,301.15L238.55,300.2L240.72,300.79L242.89,299.87L249.4,300.54L251.57,299.48L253.73,299.77L255.9,298.98L262.41,300.42L264.58,300.13L266.75,300.51L268.92,302.06L275.42,301.21L277.59,302.39L279.76,301.62L281.93,302.52L286.27,302.72L288.43,303.29L290.6,303.91L292.77,303.63L299.28,305.92L301.45,305.66L310.12,308.38L312.29,307.42L323.13,308.14L325.3,308.63L338.31,307.13L340.48,307.46L373.01,310.02L375.18,309.8L388.19,311.16L390.36,311.43L394.7,311.37L396.87,311.57L414.22,312.18L416.39,312.28L420.72,312.03L422.89,312.13L427.23,311.33L429.4,310.77L435.9,311.04L438.07,311.06L444.58,312.03L446.75,311.76L466.27,312.65L468.43,312.43L474.94,312.59L477.11,312.51L483.61,311.44L485.78,311.49L535.66,312.47L537.83,312.18L540,312.45" style="vector-effect: non-scaling-stroke; fill: none; stroke: rgb(239, 85, 59); stroke-opacity: 1; stroke-width: 2px; opacity: 1;"/></g><g class="points"/><g class="text"/></g><g class="trace scatter trace4d9a2d" style="stroke-miterlimit: 2; opacity: 1;"><g class="fills"/><g class="errorbars"/><g class="lines"><path class="js-line" d="M0,73.16L2.17,81.14L4.34,136.88L6.51,172L8.67,185.81L10.84,186.46L13.01,184.34L15.18,184.41L17.35,190.4L19.52,182.36L21.69,194.86L23.86,193.83L26.02,185.17L30.36,219.06L32.53,219.49L34.7,226.6L36.87,240.96L39.04,252.04L41.2,247.19L43.37,249.63L45.54,247.78L47.71,251.03L49.88,250.32L52.05,251.08L54.22,258.48L58.55,275.74L60.72,276.26L62.89,282.8L65.06,279.29L67.23,280.09L69.4,276.54L73.73,283.32L75.9,283.53L78.07,284.07L80.24,281.61L82.41,283.73L84.58,280.42L86.75,283.54L88.92,283.38L91.08,287.84L93.25,286.02L95.42,288.76L97.59,286.89L104.1,286.32L106.27,289.69L108.43,292.15L110.6,291.02L112.77,291.38L114.94,290.75L119.28,290.27L121.45,291.45L123.61,290.7L125.78,291.43L127.95,292.76L130.12,292.95L132.29,292.41L134.46,293.51L138.8,292.98L140.96,293.43L145.3,293.8L147.47,295.53L149.64,293.4L151.81,295.25L153.98,295.8L156.14,294.93L158.31,295.25L160.48,293.82L164.82,293.1L166.99,290.17L169.16,290.77L171.33,290.57L173.49,292.41L175.66,292.53L177.83,293.61L180,293.37L182.17,293.2L184.34,295.32L186.51,294.42L188.67,296.66L190.84,296.43L193.01,294.97L195.18,293.8L197.35,293.78L199.52,295.02L201.69,294.49L203.86,293.51L206.02,296.78L208.19,294.47L210.36,296.18L212.53,296.34L214.7,297.96L216.87,298.95L219.04,298.36L225.54,297.6L227.71,298.13L229.88,297.03L232.05,298.06L236.39,301.15L238.55,300.2L240.72,300.79L242.89,299.87L249.4,300.54L251.57,299.48L253.73,299.77L255.9,298.98L262.41,300.42L264.58,300.13L266.75,300.51L268.92,302.06L275.42,301.21L277.59,302.39L279.76,301.62L281.93,302.52L286.27,302.72L288.43,303.29L290.6,303.91L292.77,303.63L299.28,305.92L301.45,305.66L310.12,308.38L312.29,307.42L323.13,308.14L325.3,308.63L338.31,307.13L340.48,307.46L373.01,310.02L375.18,309.8L388.19,311.16L390.36,311.43L394.7,311.37L396.87,311.57L414.22,312.18L416.39,312.28L420.72,312.03L422.89,312.13L427.23,311.33L429.4,310.77L435.9,311.04L438.07,311.06L444.58,312.03L446.75,311.76L466.27,312.65L468.43,312.43L474.94,312.59L477.11,312.51L483.61,311.44L485.78,311.49L535.66,312.47L537.83,312.18L540,312.45" style="vector-effect: non-scaling-stroke; fill: none; stroke: rgb(0, 204, 150); stroke-opacity: 1; stroke-width: 2px; opacity: 1;"/></g><g class="points"/><g class="text"/></g><g class="trace scatter tracecfe5d6" style="stroke-miterlimit: 2; opacity: 1;"><g class="fills"/><g class="errorbars"/><g class="lines"><path class="js-line" d="M0,73.16L2.17,81.14L4.34,136.88L6.51,172L8.67,185.81L10.84,186.46L13.01,184.34L15.18,184.41L17.35,190.4L19.52,182.36L21.69,194.86L23.86,193.83L26.02,185.17L30.36,219.06L32.53,219.49L34.7,226.6L36.87,240.96L39.04,252.04L41.2,247.19L43.37,249.63L45.54,247.78L47.71,251.03L49.88,250.32L52.05,251.08L54.22,258.48L58.55,275.74L60.72,276.26L62.89,282.8L65.06,279.29L67.23,280.09L69.4,276.54L73.73,283.32L75.9,283.53L78.07,284.07L80.24,281.61L82.41,283.73L84.58,280.42L86.75,283.54L88.92,283.38L91.08,287.84L93.25,286.02L95.42,288.76L97.59,286.89L104.1,286.32L106.27,289.69L108.43,292.15L110.6,291.02L112.77,291.38L114.94,290.75L119.28,290.27L121.45,291.45L123.61,290.7L125.78,291.43L127.95,292.76L130.12,292.95L132.29,292.41L134.46,293.51L138.8,292.98L140.96,293.43L145.3,293.8L147.47,295.53L149.64,293.4L151.81,295.25L153.98,295.8L156.14,294.93L158.31,295.25L160.48,293.82L164.82,293.1L166.99,290.17L169.16,290.77L171.33,290.57L173.49,292.41L175.66,292.53L177.83,293.61L180,293.37L182.17,293.2L184.34,295.32L186.51,294.42L188.67,296.66L190.84,296.43L193.01,294.97L195.18,293.8L197.35,293.78L199.52,295.02L201.69,294.49L203.86,293.51L206.02,296.78L208.19,294.47L210.36,296.18L212.53,296.34L214.7,297.96L216.87,298.95L219.04,298.36L225.54,297.6L227.71,298.13L229.88,297.03L232.05,298.06L236.39,301.15L238.55,300.2L240.72,300.79L242.89,299.87L249.4,300.54L251.57,299.48L253.73,299.77L255.9,298.98L262.41,300.42L264.58,300.13L266.75,300.51L268.92,302.06L275.42,301.21L277.59,302.39L279.76,301.62L281.93,302.52L286.27,302.72L288.43,303.29L290.6,303.91L292.77,303.63L299.28,305.92L301.45,305.66L310.12,308.38L312.29,307.42L323.13,308.14L325.3,308.63L338.31,307.13L340.48,307.46L373.01,310.02L375.18,309.8L388.19,311.16L390.36,311.43L394.7,311.37L396.87,311.57L414.22,312.18L416.39,312.28L420.72,312.03L422.89,312.13L427.23,311.33L429.4,310.77L435.9,311.04L438.07,311.06L444.58,312.03L446.75,311.76L466.27,312.65L468.43,312.43L474.94,312.59L477.11,312.51L483.61,311.44L485.78,311.49L535.66,312.47L537.83,312.18L540,312.45" style="vector-effect: non-scaling-stroke; fill: none; stroke: rgb(171, 99, 250); stroke-opacity: 1; stroke-width: 2px; opacity: 1;"/></g><g class="points"/><g class="text"/></g><g class="trace scatter trace517b23" style="stroke-miterlimit: 2; opacity: 1;"><g class="fills"/><g class="errorbars"/><g class="lines"><path class="js-line" d="M0,73.16L2.17,81.14L4.34,136.88L6.51,172L8.67,185.81L10.84,186.46L13.01,184.34L15.18,184.41L17.35,190.4L19.52,182.36L21.69,194.86L23.86,193.83L26.02,185.17L30.36,219.06L32.53,219.49L34.7,226.6L36.87,240.96L39.04,252.04L41.2,247.19L43.37,249.63L45.54,247.78L47.71,251.03L49.88,250.32L52.05,251.08L54.22,258.48L58.55,275.74L60.72,276.26L62.89,282.8L65.06,279.29L67.23,280.09L69.4,276.54L73.73,283.32L75.9,283.53L78.07,284.07L80.24,281.61L82.41,283.73L84.58,280.42L86.75,283.54L88.92,283.38L91.08,287.84L93.25,286.02L95.42,288.76L97.59,286.89L104.1,286.32L106.27,289.69L108.43,292.15L110.6,291.02L112.77,291.38L114.94,290.75L119.28,290.27L121.45,291.45L123.61,290.7L125.78,291.43L127.95,292.76L130.12,292.95L132.29,292.41L134.46,293.51L138.8,292.98L140.96,293.43L145.3,293.8L147.47,295.53L149.64,293.4L151.81,295.25L153.98,295.8L156.14,294.93L158.31,295.25L160.48,293.82L164.82,293.1L166.99,290.17L169.16,290.77L171.33,290.57L173.49,292.41L175.66,292.53L177.83,293.61L180,293.37L182.17,293.2L184.34,295.32L186.51,294.42L188.67,296.66L190.84,296.43L193.01,294.97L195.18,293.8L197.35,293.78L199.52,295.02L201.69,294.49L203.86,293.51L206.02,296.78L208.19,294.47L210.36,296.18L212.53,296.34L214.7,297.96L216.87,298.95L219.04,298.36L225.54,297.6L227.71,298.13L229.88,297.03L232.05,298.06L236.39,301.15L238.55,300.2L240.72,300.79L242.89,299.87L249.4,300.54L251.57,299.48L253.73,299.77L255.9,298.98L262.41,300.42L264.58,300.13L266.75,300.51L268.92,302.06L275.42,301.21L277.59,302.39L279.76,301.62L281.93,302.52L286.27,302.72L288.43,303.29L290.6,303.91L292.77,303.63L299.28,305.92L301.45,305.66L310.12,308.38L312.29,307.42L323.13,308.14L325.3,308.63L338.31,307.13L340.48,307.46L373.01,310.02L375.18,309.8L388.19,311.16L390.36,311.43L394.7,311.37L396.87,311.57L414.22,312.18L416.39,312.28L420.72,312.03L422.89,312.13L427.23,311.33L429.4,310.77L435.9,311.04L438.07,311.06L444.58,312.03L446.75,311.76L466.27,312.65L468.43,312.43L474.94,312.59L477.11,312.51L483.61,311.44L485.78,311.49L535.66,312.47L537.83,312.18L540,312.45" style="vector-effect: non-scaling-stroke; fill: none; stroke: rgb(255, 161, 90); stroke-opacity: 1; stroke-width: 2px; opacity: 1;"/></g><g class="points"/><g class="text"/></g><g class="trace scatter trace09d913" style="stroke-miterlimit: 2; opacity: 1;"><g class="fills"/><g class="errorbars"/><g class="lines"><path class="js-line" d="M0,73.16L2.17,81.14L4.34,136.88L6.51,172L8.67,185.81L10.84,186.46L13.01,184.34L15.18,184.41L17.35,190.4L19.52,182.36L21.69,194.86L23.86,193.83L26.02,185.17L30.36,219.06L32.53,219.49L34.7,226.6L36.87,240.96L39.04,252.04L41.2,247.19L43.37,249.63L45.54,247.78L47.71,251.03L49.88,250.32L52.05,251.08L54.22,258.48L58.55,275.74L60.72,276.26L62.89,282.8L65.06,279.29L67.23,280.09L69.4,276.54L73.73,283.32L75.9,283.53L78.07,284.07L80.24,281.61L82.41,283.73L84.58,280.42L86.75,283.54L88.92,283.38L91.08,287.84L93.25,286.02L95.42,288.76L97.59,286.89L104.1,286.32L106.27,289.69L108.43,292.15L110.6,291.02L112.77,291.38L114.94,290.75L119.28,290.27L121.45,291.45L123.61,290.7L125.78,291.43L127.95,292.76L130.12,292.95L132.29,292.41L134.46,293.51L138.8,292.98L140.96,293.43L145.3,293.8L147.47,295.53L149.64,293.4L151.81,295.25L153.98,295.8L156.14,294.93L158.31,295.25L160.48,293.82L164.82,293.1L166.99,290.17L169.16,290.77L171.33,290.57L173.49,292.41L175.66,292.53L177.83,293.61L180,293.37L182.17,293.2L184.34,295.32L186.51,294.42L188.67,296.66L190.84,296.43L193.01,294.97L195.18,293.8L197.35,293.78L199.52,295.02L201.69,294.49L203.86,293.51L206.02,296.78L208.19,294.47L210.36,296.18L212.53,296.34L214.7,297.96L216.87,298.95L219.04,298.36L225.54,297.6L227.71,298.13L229.88,297.03L232.05,298.06L236.39,301.15L238.55,300.2L240.72,300.79L242.89,299.87L249.4,300.54L251.57,299.48L253.73,299.77L255.9,298.98L262.41,300.42L264.58,300.13L266.75,300.51L268.92,302.06L275.42,301.21L277.59,302.39L279.76,301.62L281.93,302.52L286.27,302.72L288.43,303.29L290.6,303.91L292.77,303.63L299.28,305.92L301.45,305.66L310.12,308.38L312.29,307.42L323.13,308.14L325.3,308.63L338.31,307.13L340.48,307.46L373.01,310.02L375.18,309.8L388.19,311.16L390.36,311.43L394.7,311.37L396.87,311.57L414.22,312.18L416.39,312.28L420.72,312.03L422.89,312.13L427.23,311.33L429.4,310.77L435.9,311.04L438.07,311.06L444.58,312.03L446.75,311.76L466.27,312.65L468.43,312.43L474.94,312.59L477.11,312.51L483.61,311.44L485.78,311.49L535.66,312.47L537.83,312.18L540,312.45" style="vector-effect: non-scaling-stroke; fill: none; stroke: rgb(25, 211, 243); stroke-opacity: 1; stroke-width: 2px; opacity: 1;"/></g><g class="points"/><g class="text"/></g><g class="trace scatter trace1fdaac" style="stroke-miterlimit: 2; opacity: 1;"><g class="fills"/><g class="errorbars"/><g class="lines"><path class="js-line" d="M0,73.16L2.17,81.14L4.34,136.88L6.51,172L8.67,185.81L10.84,186.46L13.01,184.34L15.18,184.41L17.35,190.4L19.52,182.36L21.69,194.86L23.86,193.83L26.02,185.17L30.36,219.06L32.53,219.49L34.7,226.6L36.87,240.96L39.04,252.04L41.2,247.19L43.37,249.63L45.54,247.78L47.71,251.03L49.88,250.32L52.05,251.08L54.22,258.48L58.55,275.74L60.72,276.26L62.89,282.8L65.06,279.29L67.23,280.09L69.4,276.54L73.73,283.32L75.9,283.53L78.07,284.07L80.24,281.61L82.41,283.73L84.58,280.42L86.75,283.54L88.92,283.38L91.08,287.84L93.25,286.02L95.42,288.76L97.59,286.89L104.1,286.32L106.27,289.69L108.43,292.15L110.6,291.02L112.77,291.38L114.94,290.75L119.28,290.27L121.45,291.45L123.61,290.7L125.78,291.43L127.95,292.76L130.12,292.95L132.29,292.41L134.46,293.51L138.8,292.98L140.96,293.43L145.3,293.8L147.47,295.53L149.64,293.4L151.81,295.25L153.98,295.8L156.14,294.93L158.31,295.25L160.48,293.82L164.82,293.1L166.99,290.17L169.16,290.77L171.33,290.57L173.49,292.41L175.66,292.53L177.83,293.61L180,293.37L182.17,293.2L184.34,295.32L186.51,294.42L188.67,296.66L190.84,296.43L193.01,294.97L195.18,293.8L197.35,293.78L199.52,295.02L201.69,294.49L203.86,293.51L206.02,296.78L208.19,294.47L210.36,296.18L212.53,296.34L214.7,297.96L216.87,298.95L219.04,298.36L225.54,297.6L227.71,298.13L229.88,297.03L232.05,298.06L236.39,301.15L238.55,300.2L240.72,300.79L242.89,299.87L249.4,300.54L251.57,299.48L253.73,299.77L255.9,298.98L262.41,300.42L264.58,300.13L266.75,300.51L268.92,302.06L275.42,301.21L277.59,302.39L279.76,301.62L281.93,302.52L286.27,302.72L288.43,303.29L290.6,303.91L292.77,303.63L299.28,305.92L301.45,305.66L310.12,308.38L312.29,307.42L323.13,308.14L325.3,308.63L338.31,307.13L340.48,307.46L373.01,310.02L375.18,309.8L388.19,311.16L390.36,311.43L394.7,311.37L396.87,311.57L414.22,312.18L416.39,312.28L420.72,312.03L422.89,312.13L427.23,311.33L429.4,310.77L435.9,311.04L438.07,311.06L444.58,312.03L446.75,311.76L466.27,312.65L468.43,312.43L474.94,312.59L477.11,312.51L483.61,311.44L485.78,311.49L535.66,312.47L537.83,312.18L540,312.45" style="vector-effect: non-scaling-stroke; fill: none; stroke: rgb(255, 102, 146); stroke-opacity: 1; stroke-width: 2px; opacity: 1;"/></g><g class="points"/><g class="text"/></g><g class="trace scatter traced75a86" style="stroke-miterlimit: 2; opacity: 1;"><g class="fills"/><g class="errorbars"/><g class="lines"><path class="js-line" d="M0,73.16L2.17,81.14L4.34,136.88L6.51,172L8.67,185.81L10.84,186.46L13.01,184.34L15.18,184.41L17.35,190.4L19.52,182.36L21.69,194.86L23.86,193.83L26.02,185.17L30.36,219.06L32.53,219.49L34.7,226.6L36.87,240.96L39.04,252.04L41.2,247.19L43.37,249.63L45.54,247.78L47.71,251.03L49.88,250.32L52.05,251.08L54.22,258.48L58.55,275.74L60.72,276.26L62.89,282.8L65.06,279.29L67.23,280.09L69.4,276.54L73.73,283.32L75.9,283.53L78.07,284.07L80.24,281.61L82.41,283.73L84.58,280.42L86.75,283.54L88.92,283.38L91.08,287.84L93.25,286.02L95.42,288.76L97.59,286.89L104.1,286.32L106.27,289.69L108.43,292.15L110.6,291.02L112.77,291.38L114.94,290.75L119.28,290.27L121.45,291.45L123.61,290.7L125.78,291.43L127.95,292.76L130.12,292.95L132.29,292.41L134.46,293.51L138.8,292.98L140.96,293.43L145.3,293.8L147.47,295.53L149.64,293.4L151.81,295.25L153.98,295.8L156.14,294.93L158.31,295.25L160.48,293.82L164.82,293.1L166.99,290.17L169.16,290.77L171.33,290.57L173.49,292.41L175.66,292.53L177.83,293.61L180,293.37L182.17,293.2L184.34,295.32L186.51,294.42L188.67,296.66L190.84,296.43L193.01,294.97L195.18,293.8L197.35,293.78L199.52,295.02L201.69,294.49L203.86,293.51L206.02,296.78L208.19,294.47L210.36,296.18L212.53,296.34L214.7,297.96L216.87,298.95L219.04,298.36L225.54,297.6L227.71,298.13L229.88,297.03L232.05,298.06L236.39,301.15L238.55,300.2L240.72,300.79L242.89,299.87L249.4,300.54L251.57,299.48L253.73,299.77L255.9,298.98L262.41,300.42L264.58,300.13L266.75,300.51L268.92,302.06L275.42,301.21L277.59,302.39L279.76,301.62L281.93,302.52L286.27,302.72L288.43,303.29L290.6,303.91L292.77,303.63L299.28,305.92L301.45,305.66L310.12,308.38L312.29,307.42L323.13,308.14L325.3,308.63L338.31,307.13L340.48,307.46L373.01,310.02L375.18,309.8L388.19,311.16L390.36,311.43L394.7,311.37L396.87,311.57L414.22,312.18L416.39,312.28L420.72,312.03L422.89,312.13L427.23,311.33L429.4,310.77L435.9,311.04L438.07,311.06L444.58,312.03L446.75,311.76L466.27,312.65L468.43,312.43L474.94,312.59L477.11,312.51L483.61,311.44L485.78,311.49L535.66,312.47L537.83,312.18L540,312.45" style="vector-effect: non-scaling-stroke; fill: none; stroke: rgb(182, 232, 128); stroke-opacity: 1; stroke-width: 2px; opacity: 1;"/></g><g class="points"/><g class="text"/></g><g class="trace scatter trace03b5d4" style="stroke-miterlimit: 2; opacity: 1;"><g class="fills"/><g class="errorbars"/><g class="lines"><path class="js-line" d="M0,73.16L2.17,81.14L4.34,136.88L6.51,172L8.67,185.81L10.84,186.46L13.01,184.34L15.18,184.41L17.35,190.4L19.52,182.36L21.69,194.86L23.86,193.83L26.02,185.17L30.36,219.06L32.53,219.49L34.7,226.6L36.87,240.96L39.04,252.04L41.2,247.19L43.37,249.63L45.54,247.78L47.71,251.03L49.88,250.32L52.05,251.08L54.22,258.48L58.55,275.74L60.72,276.26L62.89,282.8L65.06,279.29L67.23,280.09L69.4,276.54L73.73,283.32L75.9,283.53L78.07,284.07L80.24,281.61L82.41,283.73L84.58,280.42L86.75,283.54L88.92,283.38L91.08,287.84L93.25,286.02L95.42,288.76L97.59,286.89L104.1,286.32L106.27,289.69L108.43,292.15L110.6,291.02L112.77,291.38L114.94,290.75L119.28,290.27L121.45,291.45L123.61,290.7L125.78,291.43L127.95,292.76L130.12,292.95L132.29,292.41L134.46,293.51L138.8,292.98L140.96,293.43L145.3,293.8L147.47,295.53L149.64,293.4L151.81,295.25L153.98,295.8L156.14,294.93L158.31,295.25L160.48,293.82L164.82,293.1L166.99,290.17L169.16,290.77L171.33,290.57L173.49,292.41L175.66,292.53L177.83,293.61L180,293.37L182.17,293.2L184.34,295.32L186.51,294.42L188.67,296.66L190.84,296.43L193.01,294.97L195.18,293.8L197.35,293.78L199.52,295.02L201.69,294.49L203.86,293.51L206.02,296.78L208.19,294.47L210.36,296.18L212.53,296.34L214.7,297.96L216.87,298.95L219.04,298.36L225.54,297.6L227.71,298.13L229.88,297.03L232.05,298.06L236.39,301.15L238.55,300.2L240.72,300.79L242.89,299.87L249.4,300.54L251.57,299.48L253.73,299.77L255.9,298.98L262.41,300.42L264.58,300.13L266.75,300.51L268.92,302.06L275.42,301.21L277.59,302.39L279.76,301.62L281.93,302.52L286.27,302.72L288.43,303.29L290.6,303.91L292.77,303.63L299.28,305.92L301.45,305.66L310.12,308.38L312.29,307.42L323.13,308.14L325.3,308.63L338.31,307.13L340.48,307.46L373.01,310.02L375.18,309.8L388.19,311.16L390.36,311.43L394.7,311.37L396.87,311.57L414.22,312.18L416.39,312.28L420.72,312.03L422.89,312.13L427.23,311.33L429.4,310.77L435.9,311.04L438.07,311.06L444.58,312.03L446.75,311.76L466.27,312.65L468.43,312.43L474.94,312.59L477.11,312.51L483.61,311.44L485.78,311.49L535.66,312.47L537.83,312.18L540,312.45" style="vector-effect: non-scaling-stroke; fill: none; stroke: rgb(255, 151, 255); stroke-opacity: 1; stroke-width: 2px; opacity: 1;"/></g><g class="points"/><g class="text"/></g><g class="trace scatter trace7752d6" style="stroke-miterlimit: 2; opacity: 1;"><g class="fills"/><g class="errorbars"/><g class="lines"><path class="js-line" d="M0,73.16L2.17,81.14L4.34,136.88L6.51,172L8.67,185.81L10.84,186.46L13.01,184.34L15.18,184.41L17.35,190.4L19.52,182.36L21.69,194.86L23.86,193.83L26.02,185.17L30.36,219.06L32.53,219.49L34.7,226.6L36.87,240.96L39.04,252.04L41.2,247.19L43.37,249.63L45.54,247.78L47.71,251.03L49.88,250.32L52.05,251.08L54.22,258.48L58.55,275.74L60.72,276.26L62.89,282.8L65.06,279.29L67.23,280.09L69.4,276.54L73.73,283.32L75.9,283.53L78.07,284.07L80.24,281.61L82.41,283.73L84.58,280.42L86.75,283.54L88.92,283.38L91.08,287.84L93.25,286.02L95.42,288.76L97.59,286.89L104.1,286.32L106.27,289.69L108.43,292.15L110.6,291.02L112.77,291.38L114.94,290.75L119.28,290.27L121.45,291.45L123.61,290.7L125.78,291.43L127.95,292.76L130.12,292.95L132.29,292.41L134.46,293.51L138.8,292.98L140.96,293.43L145.3,293.8L147.47,295.53L149.64,293.4L151.81,295.25L153.98,295.8L156.14,294.93L158.31,295.25L160.48,293.82L164.82,293.1L166.99,290.17L169.16,290.77L171.33,290.57L173.49,292.41L175.66,292.53L177.83,293.61L180,293.37L182.17,293.2L184.34,295.32L186.51,294.42L188.67,296.66L190.84,296.43L193.01,294.97L195.18,293.8L197.35,293.78L199.52,295.02L201.69,294.49L203.86,293.51L206.02,296.78L208.19,294.47L210.36,296.18L212.53,296.34L214.7,297.96L216.87,298.95L219.04,298.36L225.54,297.6L227.71,298.13L229.88,297.03L232.05,298.06L236.39,301.15L238.55,300.2L240.72,300.79L242.89,299.87L249.4,300.54L251.57,299.48L253.73,299.77L255.9,298.98L262.41,300.42L264.58,300.13L266.75,300.51L268.92,302.06L275.42,301.21L277.59,302.39L279.76,301.62L281.93,302.52L286.27,302.72L288.43,303.29L290.6,303.91L292.77,303.63L299.28,305.92L301.45,305.66L310.12,308.38L312.29,307.42L323.13,308.14L325.3,308.63L338.31,307.13L340.48,307.46L373.01,310.02L375.18,309.8L388.19,311.16L390.36,311.43L394.7,311.37L396.87,311.57L414.22,312.18L416.39,312.28L420.72,312.03L422.89,312.13L427.23,311.33L429.4,310.77L435.9,311.04L438.07,311.06L444.58,312.03L446.75,311.76L466.27,312.65L468.43,312.43L474.94,312.59L477.11,312.51L483.61,311.44L485.78,311.49L535.66,312.47L537.83,312.18L540,312.45" style="vector-effect: non-scaling-stroke; fill: none; stroke: rgb(254, 203, 82); stroke-opacity: 1; stroke-width: 2px; opacity: 1;"/></g><g class="points"/><g class="text"/></g><g class="trace scatter traceb05ef2" style="stroke-miterlimit: 2; opacity: 1;"><g class="fills"/><g class="errorbars"/><g class="lines"><path class="js-line" d="M0,73.16L2.17,81.14L4.34,136.88L6.51,172L8.67,185.81L10.84,186.46L13.01,184.34L15.18,184.41L17.35,190.4L19.52,182.36L21.69,194.86L23.86,193.83L26.02,185.17L30.36,219.06L32.53,219.49L34.7,226.6L36.87,240.96L39.04,252.04L41.2,247.19L43.37,249.63L45.54,247.78L47.71,251.03L49.88,250.32L52.05,251.08L54.22,258.48L58.55,275.74L60.72,276.26L62.89,282.8L65.06,279.29L67.23,280.09L69.4,276.54L73.73,283.32L75.9,283.53L78.07,284.07L80.24,281.61L82.41,283.73L84.58,280.42L86.75,283.54L88.92,283.38L91.08,287.84L93.25,286.02L95.42,288.76L97.59,286.89L104.1,286.32L106.27,289.69L108.43,292.15L110.6,291.02L112.77,291.38L114.94,290.75L119.28,290.27L121.45,291.45L123.61,290.7L125.78,291.43L127.95,292.76L130.12,292.95L132.29,292.41L134.46,293.51L138.8,292.98L140.96,293.43L145.3,293.8L147.47,295.53L149.64,293.4L151.81,295.25L153.98,295.8L156.14,294.93L158.31,295.25L160.48,293.82L164.82,293.1L166.99,290.17L169.16,290.77L171.33,290.57L173.49,292.41L175.66,292.53L177.83,293.61L180,293.37L182.17,293.2L184.34,295.32L186.51,294.42L188.67,296.66L190.84,296.43L193.01,294.97L195.18,293.8L197.35,293.78L199.52,295.02L201.69,294.49L203.86,293.51L206.02,296.78L208.19,294.47L210.36,296.18L212.53,296.34L214.7,297.96L216.87,298.95L219.04,298.36L225.54,297.6L227.71,298.13L229.88,297.03L232.05,298.06L236.39,301.15L238.55,300.2L240.72,300.79L242.89,299.87L249.4,300.54L251.57,299.48L253.73,299.77L255.9,298.98L262.41,300.42L264.58,300.13L266.75,300.51L268.92,302.06L275.42,301.21L277.59,302.39L279.76,301.62L281.93,302.52L286.27,302.72L288.43,303.29L290.6,303.91L292.77,303.63L299.28,305.92L301.45,305.66L310.12,308.38L312.29,307.42L323.13,308.14L325.3,308.63L338.31,307.13L340.48,307.46L373.01,310.02L375.18,309.8L388.19,311.16L390.36,311.43L394.7,311.37L396.87,311.57L414.22,312.18L416.39,312.28L420.72,312.03L422.89,312.13L427.23,311.33L429.4,310.77L435.9,311.04L438.07,311.06L444.58,312.03L446.75,311.76L466.27,312.65L468.43,312.43L474.94,312.59L477.11,312.51L483.61,311.44L485.78,311.49L535.66,312.47L537.83,312.18L540,312.45" style="vector-effect: non-scaling-stroke; fill: none; stroke: rgb(99, 110, 250); stroke-opacity: 1; stroke-width: 2px; opacity: 1;"/></g><g class="points"/><g class="text"/></g></g></g><g class="overplot"/><path class="xlines-above crisp" d="M0,0" style="fill: none;"/><path class="ylines-above crisp" d="M0,0" style="fill: none;"/><g class="overlines-above"/><g class="xaxislayer-above"><g class="xtick"><text text-anchor="middle" x="0" y="433" transform="translate(80,0)" style="font-family: 'Open Sans', verdana, arial, sans-serif; font-size: 12px; fill: rgb(42, 63, 95); fill-opacity: 1; white-space: pre; opacity: 1;">0</text></g><g class="xtick"><text text-anchor="middle" x="0" y="433" style="font-family: 'Open Sans', verdana, arial, sans-serif; font-size: 12px; fill: rgb(42, 63, 95); fill-opacity: 1; white-space: pre; opacity: 1;" transform="translate(188.43,0)">50</text></g><g class="xtick"><text text-anchor="middle" x="0" y="433" style="font-family: 'Open Sans', verdana, arial, sans-serif; font-size: 12px; fill: rgb(42, 63, 95); fill-opacity: 1; white-space: pre; opacity: 1;" transform="translate(296.87,0)">100</text></g><g class="xtick"><text text-anchor="middle" x="0" y="433" style="font-family: 'Open Sans', verdana, arial, sans-serif; font-size: 12px; fill: rgb(42, 63, 95); fill-opacity: 1; white-space: pre; opacity: 1;" transform="translate(405.3,0)">150</text></g><g class="xtick"><text text-anchor="middle" x="0" y="433" style="font-family: 'Open Sans', verdana, arial, sans-serif; font-size: 12px; fill: rgb(42, 63, 95); fill-opacity: 1; white-space: pre; opacity: 1;" transform="translate(513.73,0)">200</text></g></g><g class="yaxislayer-above"><g class="ytick"><text text-anchor="end" x="79" y="4.199999999999999" transform="translate(0,420)" style="font-family: 'Open Sans', verdana, arial, sans-serif; font-size: 12px; fill: rgb(42, 63, 95); fill-opacity: 1; white-space: pre; opacity: 1;">0</text></g><g class="ytick"><text text-anchor="end" x="79" y="4.199999999999999" style="font-family: 'Open Sans', verdana, arial, sans-serif; font-size: 12px; fill: rgb(42, 63, 95); fill-opacity: 1; white-space: pre; opacity: 1;" transform="translate(0,371.37)">1000</text></g><g class="ytick"><text text-anchor="end" x="79" y="4.199999999999999" style="font-family: 'Open Sans', verdana, arial, sans-serif; font-size: 12px; fill: rgb(42, 63, 95); fill-opacity: 1; white-space: pre; opacity: 1;" transform="translate(0,322.73)">2000</text></g><g class="ytick"><text text-anchor="end" x="79" y="4.199999999999999" style="font-family: 'Open Sans', verdana, arial, sans-serif; font-size: 12px; fill: rgb(42, 63, 95); fill-opacity: 1; white-space: pre; opacity: 1;" transform="translate(0,274.1)">3000</text></g><g class="ytick"><text text-anchor="end" x="79" y="4.199999999999999" style="font-family: 'Open Sans', verdana, arial, sans-serif; font-size: 12px; fill: rgb(42, 63, 95); fill-opacity: 1; white-space: pre; opacity: 1;" transform="translate(0,225.45999999999998)">4000</text></g><g class="ytick"><text text-anchor="end" x="79" y="4.199999999999999" style="font-family: 'Open Sans', verdana, arial, sans-serif; font-size: 12px; fill: rgb(42, 63, 95); fill-opacity: 1; white-space: pre; opacity: 1;" transform="translate(0,176.82999999999998)">5000</text></g><g class="ytick"><text text-anchor="end" x="79" y="4.199999999999999" style="font-family: 'Open Sans', verdana, arial, sans-serif; font-size: 12px; fill: rgb(42, 63, 95); fill-opacity: 1; white-space: pre; opacity: 1;" transform="translate(0,128.2)">6000</text></g></g><g class="overaxes-above"/></g></g><g class="polarlayer"/><g class="ternarylayer"/><g class="geolayer"/><g class="funnelarealayer"/><g class="pielayer"/><g class="iciclelayer"/><g class="treemaplayer"/><g class="sunburstlayer"/><g class="glimages"/><defs id="topdefs-07ed87"><g class="clips"/></defs><g class="layer-above"><g class="imagelayer"/><g class="shapelayer"/></g><g class="infolayer"><g class="g-gtitle"><text class="gtitle" x="35" y="50" text-anchor="start" dy="0em" style="font-family: 'Open Sans', verdana, arial, sans-serif; font-size: 17px; fill: rgb(42, 63, 95); opacity: 1; font-weight: normal; white-space: pre;">Rank Variance: ascad_0-ascad_mlp_fn</text></g><g class="g-xtitle"/><g class="g-ytitle"/></g></svg>