<svg class="main-svg" xmlns="http://www.w3.org/2000/svg" xmlns:xlink="http://www.w3.org/1999/xlink" width="700" height="500" style="" viewBox="0 0 700 500"><rect x="0" y="0" width="700" height="500" style="fill: rgb(255, 255, 255); fill-opacity: 1;"/><defs id="defs-1dc97d"><g class="clips"><clipPath id="clip1dc97dxyplot" class="plotclip"><rect width="540" height="320"/></clipPath><clipPath class="axesclip" id="clip1dc97dx"><rect x="80" y="0" width="540" height="500"/></clipPath><clipPath class="axesclip" id="clip1dc97dy"><rect x="0" y="100" width="700" height="320"/></clipPath><clipPath class="axesclip" id="clip1dc97dxy"><rect x="80" y="100" width="540" height="320"/></clipPath></g><g class="gradients"/><g class="patterns"/></defs><g class="bglayer"><rect class="bg" x="80" y="100" width="540" height="320" style="fill: rgb(237, 237, 237); fill-opacity: 1; stroke-width: 0;"/></g><g class="layer-below"><g class="imagelayer"/><g class="shapelayer"/></g><g class="cartesianlayer"><g class="subplot xy"><g class="layer-subplot"><g class="shapelayer"/><g class="imagelayer"/></g><g class="gridlayer"><g class="x"><path class="xgrid crisp" transform="translate(188.43,0)" d="M0,100v320" style="stroke: rgb(255, 255, 255); stroke-opacity: 1; stroke-width: 1px;"/><path class="xgrid crisp" transform="translate(296.87,0)" d="M0,100v320" style="stroke: rgb(255, 255, 255); stroke-opacity: 1; stroke-width: 1px;"/><path class="xgrid crisp" transform="translate(405.3,0)" d="M0,100v320" style="stroke: rgb(255, 255, 255); stroke-opacity: 1; stroke-width: 1px;"/><path class="xgrid crisp" transform="translate(513.73,0)" d="M0,100v320" style="stroke: rgb(255, 255, 255); stroke-opacity: 1; stroke-width: 1px;"/></g><g class="y"><path class="ygrid crisp" transform="translate(0,383.44)" d="M80,0h540" style="stroke: rgb(255, 255, 255); stroke-opacity: 1; stroke-width: 1px;"/><path class="ygrid crisp" transform="translate(0,346.87)" d="M80,0h540" style="stroke: rgb(255, 255, 255); stroke-opacity: 1; stroke-width: 1px;"/><path class="ygrid crisp" transform="translate(0,310.31)" d="M80,0h540" style="stroke: rgb(255, 255, 255); stroke-opacity: 1; stroke-width: 1px;"/><path class="ygrid crisp" transform="translate(0,273.75)" d="M80,0h540" style="stroke: rgb(255, 255, 255); stroke-opacity: 1; stroke-width: 1px;"/><path class="ygrid crisp" transform="translate(0,237.18)" d="M80,0h540" style="stroke: rgb(255, 255, 255); stroke-opacity: 1; stroke-width: 1px;"/><path class="ygrid crisp" transform="translate(0,200.62)" d="M80,0h540" style="stroke: rgb(255, 255, 255); stroke-opacity: 1; stroke-width: 1px;"/><path class="ygrid crisp" transform="translate(0,164.06)" d="M80,0h540" style="stroke: rgb(255, 255, 255); stroke-opacity: 1; stroke-width: 1px;"/><path class="ygrid crisp" transform="translate(0,127.5)" d="M80,0h540" style="stroke: rgb(255, 255, 255); stroke-opacity: 1; stroke-width: 1px;"/></g></g><g class="zerolinelayer"><path class="xzl zl crisp" transform="translate(80,0)" d="M0,100v320" style="stroke: rgb(255, 255, 255); stroke-opacity: 1; stroke-width: 1px;"/><path class="yzl zl crisp" transform="translate(0,420)" d="M80,0h540" style="stroke: rgb(255, 255, 255); stroke-opacity: 1; stroke-width: 1px;"/></g><path class="xlines-below"/><path class="ylines-below"/><g class="overlines-below"/><g class="xaxislayer-below"/><g class="yaxislayer-below"/><g class="overaxes-below"/><g class="plot" transform="translate(80,100)" clip-path="url(#clip1dc97dxyplot)"><g class="scatterlayer mlayer"><g class="trace scatter tracec82d67" style="stroke-miterlimit: 2; opacity: 1;"><g class="fills"/><g class="errorbars"/><g class="lines"><path class="js-line" d="M0,14.26L6.51,148.34L8.67,186.11L10.84,198.9L13.01,206L15.18,218.72L17.35,225.52L21.69,243.07L23.86,244.28L28.19,257.7L30.36,261.86L32.53,265.67L34.7,265.81L36.87,272.36L39.04,271.41L41.2,276.12L43.37,276.67L45.54,276.6L47.71,278.5L49.88,279.56L52.05,284.39L54.22,285.27L56.39,288.15L58.55,289.25L60.72,289.43L67.23,291.88L69.4,292.1L71.57,293.75L73.73,294.22L75.9,296.09L78.07,296.64L91.08,299.74L93.25,301.06L99.76,301.9L101.93,303.18L106.27,305.81L108.43,305.74L110.6,306.62L112.77,306.44L114.94,306.4L117.11,307.2L119.28,306.87L121.45,307.35L127.95,308.48L130.12,308.85L138.8,311.3L140.96,311.3L147.47,312.32L149.64,312.07L156.14,313.64L158.31,313.67L169.16,314.81L171.33,314.44L180,314.88L182.17,314.41L199.52,316.42L201.69,316.34L216.87,316.78L219.04,316.38L229.88,317.37L232.05,317.18L251.57,317.4L253.73,317.84L331.81,318.94L333.98,318.9L342.65,319.31L344.82,319.16L422.89,319.74L425.06,319.82L446.75,319.82L448.92,319.78L464.1,319.85L466.27,319.78L540,319.96" style="vector-effect: non-scaling-stroke; fill: none; stroke: rgb(248, 118, 109); stroke-opacity: 1; stroke-width: 2px; opacity: 1;"/></g><g class="points"/><g class="text"/></g><g class="trace scatter trace9d6b66" style="stroke-miterlimit: 2; opacity: 1;"><g class="fills"/><g class="errorbars"/><g class="lines"><path class="js-line" d="M0,24.72L4.34,115.8L6.51,142.89L8.67,182.71L10.84,199.85L13.01,205.3L15.18,214.19L19.52,231.22L21.69,245.96L23.86,245.05L26.02,252.69L32.53,264.9L34.7,268.34L36.87,274.95L39.04,273.78L41.2,277.77L43.37,278.87L45.54,280.88L47.71,281.54L49.88,280.51L52.05,284.17L54.22,284.42L56.39,287.82L71.57,294.55L73.73,296.12L75.9,298.32L78.07,299.31L86.75,302.12L88.92,301.72L95.42,304.35L97.59,304.2L106.27,307.86L108.43,307.68L114.94,308.3L117.11,309.47L119.28,308.41L121.45,308.7L127.95,309.43L130.12,309.4L145.3,312.58L147.47,312.36L151.81,311.85L153.98,312.32L162.65,313.78L164.82,314.26L171.33,314.92L173.49,315.28L188.67,315.76L190.84,315.69L197.35,316.23L199.52,316.09L208.19,316.78L210.36,316.56L221.2,317.04L223.37,317L301.45,319.2L303.61,319.05L310.12,319.31L312.29,319.27L318.8,319.27L320.96,319.31L338.31,319.41L340.48,319.49L368.67,319.71L370.84,319.85L540,320" style="vector-effect: non-scaling-stroke; fill: none; stroke: rgb(163, 165, 0); stroke-opacity: 1; stroke-width: 2px; opacity: 1;"/></g><g class="points"/><g class="text"/></g><g class="trace scatter trace675654" style="stroke-miterlimit: 2; opacity: 1;"><g class="fills"/><g class="errorbars"/><g class="lines"><path class="js-line" d="M0,28.88L4.34,100.62L6.51,152.03L10.84,202.85L13.01,207.97L15.18,221.9L17.35,229.36L21.69,250.82L23.86,251.19L30.36,269.47L32.53,269.73L34.7,273.16L36.87,279.23L39.04,279.6L41.2,281.32L43.37,284.64L45.54,285.96L47.71,287.2L49.88,287.28L52.05,291.01L54.22,291.55L56.39,294L58.55,295.17L60.72,294.92L62.89,296.38L67.23,297.7L69.4,298.57L73.73,299.71L75.9,301.06L82.41,302.3L84.58,302.08L86.75,303.25L88.92,303.55L93.25,306.44L95.42,306.51L106.27,309.29L108.43,309.51L112.77,310.24L114.94,310.82L119.28,310.27L121.45,309.65L125.78,311.12L127.95,311.44L132.29,312.14L134.46,313.02L177.83,316.89L180,316.86L188.67,316.71L190.84,316.82L197.35,316.82L199.52,317.11L206.02,317.4L208.19,317.44L225.54,317.59L227.71,317.92L232.05,318.1L234.22,317.88L264.58,318.83L266.75,318.72L275.42,319.09L277.59,319.09L379.52,319.78L381.69,319.78L405.54,319.85L407.71,319.85L453.25,319.96L455.42,319.96L540,319.96" style="vector-effect: non-scaling-stroke; fill: none; stroke: rgb(0, 191, 125); stroke-opacity: 1; stroke-width: 2px; opacity: 1;"/></g><g class="points"/><g class="text"/></g><g class="trace scatter traceac55f9" style="stroke-miterlimit: 2; opacity: 1;"><g class="fills"/><g class="errorbars"/><g class="lines"><path class="js-line" d="M0,25.41L8.67,180.04L10.84,198.1L13.01,202.3L15.18,214.73L17.35,220.77L19.52,229.69L21.69,240.44L23.86,243.51L26.02,254.37L28.19,258.79L32.53,266.91L34.7,270.38L36.87,275.39L39.04,275.98L43.37,281.46L45.54,283.8L47.71,284.46L49.88,284.06L52.05,287.93L54.22,289.95L56.39,292.47L58.55,293.49L60.72,293.75L62.89,295.03L71.57,298.24L73.73,299.27L78.07,301.28L80.24,300.48L86.75,302.56L88.92,303.07L93.25,304.57L95.42,303.99L99.76,304.02L101.93,305.12L110.6,307.09L112.77,306.65L119.28,308.7L121.45,308.37L134.46,310.93L136.63,311.59L138.8,312.32L140.96,312.21L145.3,313.09L147.47,313.46L151.81,313.13L153.98,313.6L162.65,314.04L164.82,314.26L180,315.36L182.17,314.84L199.52,315.36L201.69,315.65L214.7,316.27L216.87,316.05L221.2,316.01L223.37,316.49L229.88,317.22L232.05,317.04L240.72,317.07L242.89,316.93L249.4,316.86L251.57,316.71L271.08,318.14L273.25,318.21L297.11,318.68L299.28,318.68L312.29,318.94L314.46,318.9L323.13,319.12L325.3,319.2L466.27,319.93L468.43,319.96L540,319.96" style="vector-effect: non-scaling-stroke; fill: none; stroke: rgb(0, 176, 246); stroke-opacity: 1; stroke-width: 2px; opacity: 1;"/></g><g class="points"/><g class="text"/></g><g class="trace scatter trace03f969" style="stroke-miterlimit: 2; opacity: 1;"><g class="fills"/><g class="errorbars"/><g class="lines"><path class="js-line" d="M0,25.7L2.17,74.37L4.34,102.08L8.67,179.16L10.84,192.54L13.01,206.29L15.18,214.22L19.52,229.32L21.69,240L23.86,239.12L26.02,250.68L28.19,258.65L30.36,261.24L34.7,269.03L36.87,276.86L39.04,277L41.2,280.04L43.37,282.52L45.54,282.82L47.71,284.68L49.88,283.36L52.05,286.44L54.22,287.24L58.55,291.99L60.72,292.91L65.06,293.09L67.23,294.11L69.4,294.15L71.57,295.76L78.07,299.16L80.24,298.76L82.41,300.04L84.58,299.34L88.92,300.51L91.08,301.32L106.27,304.68L108.43,304.83L119.28,306.36L121.45,306.18L127.95,307.09L130.12,307.09L134.46,308.23L136.63,308.88L140.96,309.54L143.13,309.69L149.64,310.71L151.81,310.6L162.65,311.96L164.82,312.1L169.16,313.16L171.33,313.42L180,314L182.17,313.78L188.67,314.19L190.84,314.73L195.18,314.3L197.35,314.52L206.02,315.06L208.19,315.28L225.54,316.01L227.71,316.38L234.22,316.38L236.39,316.56L253.73,317.15L255.9,317.59L266.75,318.06L268.92,318.06L366.51,319.23L368.67,319.2L386.02,319.6L388.19,319.6L405.54,319.74L407.71,319.82L427.23,319.82L429.4,319.82L468.43,319.85L470.6,319.85L509.64,319.85L511.81,319.85L540,319.93" style="vector-effect: non-scaling-stroke; fill: none; stroke: rgb(231, 107, 243); stroke-opacity: 1; stroke-width: 2px; opacity: 1;"/></g><g class="points"/><g class="text"/></g><g class="trace scatter trace22981a" style="stroke-miterlimit: 2; opacity: 1;"><g class="fills"/><g class="errorbars"/><g class="lines"><path class="js-line" d="M0,28.15L4.34,102.63L6.51,147.82L8.67,183.47L10.84,198.61L19.52,232.14L21.69,242.78L23.86,243.33L26.02,252.07L30.36,263.29L32.53,265.23L34.7,268.67L36.87,274.7L39.04,275.32L41.2,278.76L45.54,283.73L47.71,285.16L49.88,284.5L52.05,288.92L54.22,289.47L56.39,292.47L58.55,293.56L60.72,293.75L62.89,294.22L65.06,295.8L67.23,296.09L69.4,297.44L75.9,301.43L78.07,301.02L80.24,300.55L82.41,301.17L86.75,301.79L88.92,302.78L93.25,303.84L95.42,303.51L97.59,304.39L99.76,304.39L101.93,304.9L104.1,306.4L114.94,307.64L117.11,308.63L130.12,310.71L132.29,310.75L136.63,312.25L138.8,312.65L140.96,312.29L143.13,312.94L149.64,313.24L151.81,312.83L156.14,313.93L158.31,313.89L162.65,314.37L164.82,314.37L177.83,315.9L180,315.72L214.7,317.37L216.87,317.18L219.04,316.97L221.2,317.59L268.92,318.98L271.08,319.2L284.1,319.16L286.27,319.23L301.45,319.31L303.61,319.27L314.46,319.45L316.63,319.45L364.34,319.63L366.51,319.63L412.05,319.78L414.22,319.71L442.41,319.93L444.58,319.93L540,319.96" style="vector-effect: non-scaling-stroke; fill: none; stroke: rgb(248, 118, 109); stroke-opacity: 1; stroke-width: 2px; opacity: 1;"/></g><g class="points"/><g class="text"/></g><g class="trace scatter trace1dff9c" style="stroke-miterlimit: 2; opacity: 1;"><g class="fills"/><g class="errorbars"/><g class="lines"><path class="js-line" d="M0,32.83L6.51,151.48L8.67,182.34L10.84,202.19L13.01,210.16L21.69,247.02L23.86,245.59L26.02,255.17L28.19,259.63L30.36,262.41L32.53,263.95L34.7,266.14L36.87,273.27L39.04,273.38L41.2,275.5L43.37,276.78L45.54,279.74L47.71,280.33L49.88,281.79L52.05,285.19L54.22,286.76L56.39,289.32L58.55,289.95L67.23,293.46L69.4,293.16L71.57,295.28L73.73,296.27L82.41,300.69L84.58,300.48L88.92,302.52L91.08,303.22L95.42,303.07L97.59,303.33L99.76,303.99L101.93,305.89L104.1,306.18L106.27,307.28L110.6,307.71L112.77,308.41L114.94,308.3L117.11,309.25L121.45,309.43L123.61,310.05L136.63,311.66L138.8,312.69L147.47,313.24L149.64,312.65L156.14,313.53L158.31,314.04L166.99,314.52L169.16,314.99L180,316.45L182.17,316.16L190.84,316.31L193.01,316.56L199.52,316.64L201.69,316.82L262.41,318.65L264.58,318.76L336.14,319.49L338.31,319.56L540,319.89" style="vector-effect: non-scaling-stroke; fill: none; stroke: rgb(163, 165, 0); stroke-opacity: 1; stroke-width: 2px; opacity: 1;"/></g><g class="points"/><g class="text"/></g><g class="trace scatter trace2af3c0" style="stroke-miterlimit: 2; opacity: 1;"><g class="fills"/><g class="errorbars"/><g class="lines"><path class="js-line" d="M0,15.54L8.67,184.1L10.84,198.06L17.35,216.6L19.52,223.07L21.69,235.98L23.86,234.81L26.02,245.48L28.19,250.75L34.7,260.62L36.87,266.03L39.04,266.91L41.2,270.13L43.37,273.67L45.54,275.06L47.71,277.99L49.88,279.56L52.05,283.03L54.22,283.95L58.55,288.88L60.72,290.64L65.06,291.88L67.23,292.39L71.57,293.78L73.73,294.44L78.07,296.97L80.24,296.23L82.41,295.98L84.58,296.78L86.75,297.37L88.92,297.18L91.08,297.48L93.25,298.9L95.42,298.65L97.59,300.04L106.27,302.52L108.43,302.38L112.77,303.29L114.94,303.44L117.11,305.34L119.28,305.27L121.45,305.3L123.61,306.11L127.95,306.76L130.12,306.25L134.46,307.64L136.63,308.34L143.13,309.73L145.3,309.62L149.64,310.16L151.81,310.2L166.99,312.39L169.16,312.5L180,313.2L182.17,312.94L206.02,314.48L208.19,315.1L212.53,314.92L214.7,314.88L221.2,314.77L223.37,315.39L229.88,315.87L232.05,315.58L268.92,317.26L271.08,317.4L286.27,317.88L288.43,318.21L299.28,317.92L301.45,318.1L338.31,318.83L340.48,318.98L370.84,319.31L373.01,319.27L396.87,319.74L399.04,319.63L448.92,319.82L451.08,319.82L513.98,319.96L516.14,319.93L540,319.93" style="vector-effect: non-scaling-stroke; fill: none; stroke: rgb(0, 191, 125); stroke-opacity: 1; stroke-width: 2px; opacity: 1;"/></g><g class="points"/><g class="text"/></g><g class="trace scatter tracecefccd" style="stroke-miterlimit: 2; opacity: 1;"><g class="fills"/><g class="errorbars"/><g class="lines"><path class="js-line" d="M0,57L4.34,115.72L6.51,164.64L8.67,195.32L10.84,209.36L13.01,214L15.18,224.35L17.35,231.96L19.52,242.45L21.69,251.74L23.86,251.41L30.36,275.06L32.53,275.72L34.7,275.87L36.87,281.35L39.04,282.01L41.2,285.3L43.37,287.9L45.54,289.07L52.05,293.38L54.22,293.71L56.39,295.98L58.55,296.82L60.72,296.45L62.89,297.73L65.06,298.72L67.23,298.79L73.73,299.96L75.9,302.05L80.24,302.3L82.41,303.47L95.42,306.8L97.59,306.91L101.93,308.01L104.1,308.7L106.27,309.36L108.43,308.7L110.6,308.45L112.77,308.96L127.95,311.55L130.12,312.29L147.47,314L149.64,313.82L153.98,314.44L156.14,314.77L169.16,315.58L171.33,315.43L177.83,316.2L180,316.2L190.84,316.34L193.01,316.49L216.87,316.93L219.04,316.86L232.05,317.59L234.22,317.55L249.4,317.88L251.57,317.62L273.25,318.54L275.42,318.5L290.6,318.9L292.77,318.9L303.61,318.94L305.78,319.2L316.63,319.27L318.8,319.31L333.98,319.2L336.14,319.31L351.33,319.34L353.49,319.31L425.06,319.63L427.23,319.63L485.78,319.96L487.95,319.96L540,319.96" style="vector-effect: non-scaling-stroke; fill: none; stroke: rgb(0, 176, 246); stroke-opacity: 1; stroke-width: 2px; opacity: 1;"/></g><g class="points"/><g class="text"/></g><g class="trace scatter traceb84bfd" style="stroke-miterlimit: 2; opacity: 1;"><g class="fills"/><g class="errorbars"/><g class="lines"><path class="js-line" d="M0,34.41L2.17,77.29L4.34,98.57L8.67,181.46L10.84,197.59L17.35,221.9L19.52,231.26L21.69,242.27L23.86,243.29L30.36,261.35L32.53,262.96L34.7,264.5L36.87,271.48L39.04,271.04L41.2,275.21L43.37,277.77L45.54,279.05L49.88,283.99L52.05,287.57L54.22,287.13L56.39,291.15L65.06,293.86L67.23,293.67L69.4,293.56L71.57,295.58L80.24,297L82.41,298.43L84.58,298.06L86.75,299.23L88.92,299.34L91.08,300.44L93.25,300.66L95.42,299.89L101.93,303.22L104.1,303.73L110.6,305.52L112.77,304.83L121.45,306.18L123.61,306.25L134.46,308.52L136.63,309.29L140.96,309.25L143.13,310.31L145.3,310.13L147.47,310.71L151.81,310.42L153.98,310.75L156.14,311.59L158.31,311.3L160.48,312.32L162.65,312.39L169.16,312.25L171.33,312.14L177.83,313.64L180,313.53L182.17,313.24L184.34,313.78L188.67,313.31L190.84,313.49L203.86,314.19L206.02,313.97L212.53,314.55L214.7,314.26L240.72,316.09L242.89,315.8L251.57,315.8L253.73,316.49L260.24,316.97L262.41,317.15L271.08,317.51L273.25,317.66L301.45,318.54L303.61,318.46L318.8,318.98L320.96,318.79L370.84,319.45L373.01,319.56L399.04,319.45L401.2,319.52L453.25,319.85L455.42,319.85L540,319.93" style="vector-effect: non-scaling-stroke; fill: none; stroke: rgb(231, 107, 243); stroke-opacity: 1; stroke-width: 2px; opacity: 1;"/></g><g class="points"/><g class="text"/></g><g class="trace scatter tracec7dd38" style="stroke-miterlimit: 2; opacity: 1;"><g class="fills"/><g class="errorbars"/><g class="lines"><path class="js-line" d="M0,35.43L8.67,192.47L10.84,206.95L17.35,227.42L19.52,237.99L21.69,249.14L23.86,249.51L28.19,266.54L30.36,269.18L34.7,271.41L36.87,277L39.04,274.48L41.2,277.51L45.54,282.01L47.71,283.66L49.88,283.22L52.05,286.58L54.22,287.9L56.39,290.9L62.89,293.75L65.06,294.44L78.07,299.56L80.24,298.65L84.58,298.94L86.75,300.22L91.08,301.86L93.25,302.85L99.76,303.25L101.93,305.3L104.1,305.34L106.27,306.36L110.6,306.4L112.77,306.44L117.11,308.08L119.28,307.31L127.95,309.47L130.12,309.32L138.8,312.43L140.96,312.43L147.47,313.05L149.64,312.98L156.14,313.2L158.31,313.6L164.82,314.48L166.99,314.95L173.49,315.25L175.66,315.69L186.51,315.8L188.67,316.09L193.01,316.27L195.18,316.45L245.06,318.03L247.23,317.95L281.93,319.16L284.1,319.01L292.77,319.31L294.94,319.31L312.29,319.45L314.46,319.45L351.33,319.49L353.49,319.49L383.86,319.6L386.02,319.74L435.9,319.71L438.07,319.78L540,319.96" style="vector-effect: non-scaling-stroke; fill: none; stroke: rgb(248, 118, 109); stroke-opacity: 1; stroke-width: 2px; opacity: 1;"/></g><g class="points"/><g class="text"/></g><g class="trace scatter trace97f72e" style="stroke-miterlimit: 2; opacity: 1;"><g class="fills"/><g class="errorbars"/><g class="lines"><path class="js-line" d="M0,25.37L6.51,142.05L8.67,172.29L10.84,190.27L13.01,199.41L15.18,213.6L17.35,221.21L19.52,231.66L21.69,246L23.86,245.45L26.02,253.42L30.36,265.16L32.53,265.27L34.7,268.78L36.87,275.54L39.04,275.83L41.2,278.87L45.54,280.99L47.71,283.51L49.88,283.55L52.05,287.64L56.39,290.16L58.55,291.12L65.06,295.8L67.23,295.76L71.57,297.51L73.73,298.28L75.9,300.22L78.07,300.07L80.24,300.18L82.41,301.28L95.42,303.51L97.59,303.73L104.1,305.3L106.27,306.03L108.43,305.89L110.6,306.69L114.94,307.02L117.11,307.9L119.28,307.35L121.45,307.86L130.12,310.09L132.29,310.13L136.63,311.74L138.8,311.85L147.47,313.27L149.64,313.13L153.98,313.13L156.14,313.13L162.65,314.11L164.82,314.11L173.49,315.58L175.66,315.43L188.67,315.43L190.84,315.8L203.86,316.71L206.02,317.15L275.42,318.87L277.59,318.76L299.28,319.09L301.45,319.23L338.31,319.38L340.48,319.45L364.34,319.52L366.51,319.52L420.72,319.82L422.89,319.82L540,319.96" style="vector-effect: non-scaling-stroke; fill: none; stroke: rgb(163, 165, 0); stroke-opacity: 1; stroke-width: 2px; opacity: 1;"/></g><g class="points"/><g class="text"/></g><g class="trace scatter trace50757f" style="stroke-miterlimit: 2; opacity: 1;"><g class="fills"/><g class="errorbars"/><g class="lines"><path class="js-line" d="M0,39.31L4.34,99.67L6.51,145.63L8.67,179.56L10.84,197.73L15.18,213.56L17.35,222.34L19.52,230.24L21.69,242.89L23.86,243L26.02,253.86L28.19,257.84L30.36,264.1L34.7,268.56L36.87,274.04L39.04,273.53L41.2,277.59L47.71,283.55L49.88,283.22L52.05,287.31L54.22,287.5L58.55,291.3L60.72,291.55L73.73,297.84L75.9,300.55L80.24,300.88L82.41,302.19L86.75,303L88.92,303.8L93.25,305.48L95.42,305.37L99.76,305.56L101.93,307.06L104.1,307.2L106.27,308.78L121.45,310.13L123.61,310.93L140.96,313.89L143.13,314L151.81,314.66L153.98,314.63L160.48,315.39L162.65,315.25L166.99,315.87L169.16,315.83L180,316.82L182.17,316.89L197.35,317.04L199.52,317.37L232.05,317.84L234.22,317.59L284.1,318.83L286.27,318.83L297.11,319.09L299.28,319.09L403.37,319.85L405.54,319.85L540,320" style="vector-effect: non-scaling-stroke; fill: none; stroke: rgb(0, 191, 125); stroke-opacity: 1; stroke-width: 2px; opacity: 1;"/></g><g class="points"/><g class="text"/></g><g class="trace scatter trace2c8d2d" style="stroke-miterlimit: 2; opacity: 1;"><g class="fills"/><g class="errorbars"/><g class="lines"><path class="js-line" d="M0,0L2.17,44.35L4.34,68.85L8.67,146.73L10.84,157.51L13.01,176.09L15.18,182.82L17.35,194.59L19.52,199.89L21.69,211.22L23.86,215.21L28.19,232.32L30.36,238.21L34.7,240.88L36.87,247.82L39.04,249.14L41.2,254.26L43.37,254.84L45.54,254.11L47.71,252.8L49.88,255.87L52.05,260.18L54.22,262.82L60.72,268.48L62.89,268.15L69.4,269.54L71.57,271.22L73.73,273.27L75.9,274.22L80.24,274.22L82.41,275.32L86.75,275.58L88.92,274.88L93.25,275.61L95.42,274.3L97.59,273.97L99.76,274.63L101.93,275.98L104.1,276.34L106.27,278.54L108.43,278.28L110.6,279.89L112.77,279.31L119.28,282.96L121.45,282.38L125.78,283.25L127.95,282.89L130.12,282.38L132.29,283.03L136.63,285.34L138.8,285.92L145.3,288.59L147.47,288.63L151.81,288.92L153.98,289.98L158.31,290.24L160.48,290.42L166.99,291.44L169.16,293.2L171.33,292.58L173.49,293.27L180,292.8L182.17,292.61L206.02,295.25L208.19,296.78L216.87,295.94L219.04,296.49L225.54,298.83L227.71,299.56L232.05,300.69L234.22,300.11L236.39,301.43L238.55,301.5L242.89,301.35L245.06,301.43L255.9,302.82L258.07,302.82L262.41,303.51L264.58,303.84L281.93,305.23L284.1,305.67L290.6,306.69L292.77,306.76L297.11,307.2L299.28,306.84L305.78,308.34L307.95,308.41L314.46,309.21L316.63,309.47L325.3,309.54L327.47,309.25L333.98,310.09L336.14,310.09L344.82,311.01L346.99,311.01L357.83,311.48L360,311.33L366.51,311.99L368.67,311.81L394.7,312.91L396.87,312.83L418.55,313.09L420.72,313.56L431.57,314.26L433.73,314.22L440.24,314.84L442.41,314.55L457.59,314.95L459.76,314.92L490.12,315.5L492.29,315.8L503.13,316.38L505.3,316.16L516.14,316.42L518.31,316.71L540,317.07" style="vector-effect: non-scaling-stroke; fill: none; stroke: rgb(0, 176, 246); stroke-opacity: 1; stroke-width: 2px; opacity: 1;"/></g><g class="points"/><g class="text"/></g><g class="trace scatter trace10c729" style="stroke-miterlimit: 2; opacity: 1;"><g class="fills"/><g class="errorbars"/><g class="lines"><path class="js-line" d="M0,28.63L2.17,57.77L4.34,98.24L8.67,165.01L10.84,178.21L13.01,197.29L15.18,205.59L17.35,215.65L19.52,220L21.69,231.26L23.86,228.34L30.36,252.61L32.53,256.05L34.7,258.54L36.87,266.33L39.04,267.06L41.2,270.24L43.37,274.15L45.54,275.69L47.71,276.12L49.88,275.47L52.05,279.74L54.22,280.84L56.39,282.34L58.55,282.38L67.23,287.75L69.4,288.63L71.57,289.73L73.73,289.54L78.07,292.32L80.24,292.32L82.41,293.24L84.58,293.24L86.75,293.02L88.92,294.3L93.25,296.09L95.42,295.61L99.76,296.2L101.93,297.55L104.1,297.84L106.27,299.12L119.28,301.72L121.45,301.76L127.95,303.4L130.12,303.51L132.29,303.44L134.46,304.17L147.47,307.82L149.64,307.86L156.14,309.51L158.31,309.91L160.48,309.32L162.65,310.13L169.16,310.46L171.33,311.08L180,311.22L182.17,310.82L184.34,311.52L186.51,311.15L193.01,311.74L195.18,311.55L206.02,312.98L208.19,312.8L232.05,314.37L234.22,314.19L238.55,314.37L240.72,314.55L251.57,314.37L253.73,314.63L260.24,314.77L262.41,314.73L271.08,315.43L273.25,315.8L297.11,316.93L299.28,316.82L307.95,317.29L310.12,317.48L320.96,317.77L323.13,317.88L333.98,317.73L336.14,317.99L422.89,319.16L425.06,319.09L431.57,319.41L433.73,319.27L464.1,319.56L466.27,319.41L540,319.52" style="vector-effect: non-scaling-stroke; fill: none; stroke: rgb(231, 107, 243); stroke-opacity: 1; stroke-width: 2px; opacity: 1;"/></g><g class="points"/><g class="text"/></g><g class="trace scatter traceb81272" style="stroke-miterlimit: 2; opacity: 1;"><g class="fills"/><g class="errorbars"/><g class="lines"><path class="js-line" d="M0,31.3L6.51,138.68L8.67,175.69L15.18,207.64L17.35,214.52L21.69,235.65L23.86,237.84L28.19,253.97L30.36,260.29L32.53,263.11L34.7,264.31L36.87,271.08L39.04,271.92L43.37,280.4L45.54,281.35L49.88,283.62L52.05,285.89L54.22,286.8L56.39,289.8L58.55,291.7L60.72,292.21L62.89,291.88L65.06,293.16L67.23,293.16L69.4,295.47L71.57,296.34L73.73,295.94L75.9,298.17L78.07,297.84L82.41,298.46L84.58,299.12L88.92,300.44L91.08,300.22L93.25,301.54L95.42,301.72L99.76,302.01L101.93,303.4L104.1,303.95L106.27,305.52L108.43,304.68L110.6,305.34L112.77,305.08L114.94,305.67L117.11,306.73L119.28,306.65L130.12,308.63L132.29,308.81L147.47,310.64L149.64,310.42L151.81,309.73L153.98,310.27L164.82,311.77L166.99,312.14L177.83,313.64L180,312.65L184.34,312.21L186.51,312.58L195.18,313.38L197.35,313.13L201.69,314.22L203.86,314L216.87,314.88L219.04,314.44L225.54,315.06L227.71,314.92L236.39,315.47L238.55,315.58L253.73,316.31L255.9,316.01L266.75,316.78L268.92,316.93L281.93,317.51L284.1,317.59L301.45,318.21L303.61,318.17L327.47,318.68L329.64,318.72L375.18,319.31L377.35,319.34L540,319.96" style="vector-effect: non-scaling-stroke; fill: none; stroke: rgb(248, 118, 109); stroke-opacity: 1; stroke-width: 2px; opacity: 1;"/></g><g class="points"/><g class="text"/></g><g class="trace scatter tracead8aed" style="stroke-miterlimit: 2; opacity: 1;"><g class="fills"/><g class="errorbars"/><g class="lines"><path class="js-line" d="M0,41.61L4.34,116.12L6.51,158.76L8.67,190.49L10.84,204.72L13.01,211.77L15.18,221.72L17.35,227.42L19.52,237.48L21.69,249.8L23.86,249.73L28.19,263.07L30.36,266.07L32.53,270.97L34.7,271.44L36.87,277.37L39.04,278.46L41.2,281.39L43.37,283.03L45.54,286.18L47.71,287.24L49.88,288.85L52.05,292.47L54.22,292.61L56.39,295.36L62.89,298.83L65.06,299.78L69.4,300.77L71.57,302.38L78.07,305.01L80.24,304.94L82.41,306.47L84.58,306.29L88.92,307.09L91.08,308.04L99.76,309.47L101.93,310.31L106.27,311.92L108.43,310.9L112.77,311.08L114.94,311.37L119.28,311.92L121.45,311.99L138.8,313.86L140.96,314.37L160.48,315.28L162.65,314.92L177.83,316.34L180,316.09L197.35,316.05L199.52,316.2L214.7,316.6L216.87,316.31L242.89,317.88L245.06,317.84L255.9,318.32L258.07,318.35L266.75,318.54L268.92,318.68L277.59,318.79L279.76,318.76L323.13,319.52L325.3,319.38L355.66,319.63L357.83,319.6L540,320" style="vector-effect: non-scaling-stroke; fill: none; stroke: rgb(163, 165, 0); stroke-opacity: 1; stroke-width: 2px; opacity: 1;"/></g><g class="points"/><g class="text"/></g><g class="trace scatter trace7f4d12" style="stroke-miterlimit: 2; opacity: 1;"><g class="fills"/><g class="errorbars"/><g class="lines"><path class="js-line" d="M0,28.52L2.17,66.36L4.34,89.91L8.67,164.68L10.84,181.94L13.01,188.59L15.18,199.41L19.52,211.81L21.69,226.4L23.86,229.65L26.02,235.14L30.36,253.82L32.53,255.9L34.7,258.83L36.87,266.11L39.04,267.35L41.2,270.64L43.37,270.35L45.54,272.03L47.71,273.38L49.88,273.78L52.05,278.76L54.22,280L58.55,283.4L60.72,283.44L65.06,285.34L67.23,286.25L71.57,288.7L73.73,289.62L75.9,291.63L78.07,292.47L82.41,293.13L84.58,292.83L91.08,295.03L93.25,295.1L95.42,295.32L97.59,294.41L108.43,300.4L110.6,300.48L117.11,301.46L119.28,302.56L123.61,303.22L125.78,303.44L130.12,304.31L132.29,304.5L143.13,306.95L145.3,306.91L151.81,306.84L153.98,307.71L164.82,308.41L166.99,309.07L177.83,310.82L180,310.57L195.18,311.7L197.35,312.39L203.86,313.27L206.02,313.38L212.53,313.93L214.7,313.56L221.2,313.67L223.37,314.22L232.05,315.03L234.22,314.66L242.89,315.14L245.06,315.1L258.07,315.76L260.24,315.8L277.59,316.89L279.76,316.6L286.27,316.97L288.43,317.15L294.94,317.33L297.11,317.4L314.46,317.99L316.63,318.21L323.13,318.32L325.3,318.14L344.82,318.46L346.99,318.35L375.18,319.05L377.35,319.12L440.24,319.56L442.41,319.56L455.42,319.63L457.59,319.56L505.3,319.71L507.47,319.71L540,319.82" style="vector-effect: non-scaling-stroke; fill: none; stroke: rgb(0, 191, 125); stroke-opacity: 1; stroke-width: 2px; opacity: 1;"/></g><g class="points"/><g class="text"/></g><g class="trace scatter trace5aa5df" style="stroke-miterlimit: 2; opacity: 1;"><g class="fills"/><g class="errorbars"/><g class="lines"><path class="js-line" d="M0,32.87L2.17,79.09L4.34,103.69L8.67,182.45L10.84,196.53L13.01,203.77L15.18,217L21.69,245.67L23.86,243.84L30.36,266.11L32.53,267.64L34.7,268.92L36.87,275.9L39.04,274.63L41.2,277.7L43.37,279.89L45.54,280.33L47.71,284.57L49.88,284.06L52.05,287.13L54.22,288.45L56.39,292.03L58.55,293.78L60.72,293.38L62.89,294.26L67.23,296.45L69.4,297.33L75.9,302.08L78.07,301.94L82.41,302.6L84.58,303.18L88.92,303.69L91.08,304.75L93.25,305.59L95.42,305.05L99.76,305.85L101.93,307.2L106.27,309.1L108.43,308.63L112.77,308.56L114.94,309.21L117.11,310.16L119.28,310.05L123.61,310.2L125.78,310.82L127.95,311.15L130.12,310.71L134.46,311.66L136.63,312.36L145.3,313.13L147.47,313.42L151.81,313.42L153.98,313.75L166.99,315.43L169.16,315.54L173.49,315.8L175.66,316.09L186.51,316.05L188.67,315.98L216.87,317.15L219.04,317.07L229.88,318.14L232.05,317.99L249.4,318.17L251.57,318.21L279.76,318.9L281.93,318.98L377.35,319.74L379.52,319.71L444.58,319.89L446.75,319.89L540,320" style="vector-effect: non-scaling-stroke; fill: none; stroke: rgb(0, 176, 246); stroke-opacity: 1; stroke-width: 2px; opacity: 1;"/></g><g class="points"/><g class="text"/></g><g class="trace scatter trace7ec12e" style="stroke-miterlimit: 2; opacity: 1;"><g class="fills"/><g class="errorbars"/><g class="lines"><path class="js-line" d="M0,48.45L8.67,190.16L10.84,205.74L13.01,207.17L15.18,218.68L17.35,224.79L19.52,234.33L21.69,246.91L23.86,248.01L26.02,256.2L28.19,261.32L30.36,267.75L32.53,267.46L34.7,270.16L36.87,278.06L39.04,279.52L41.2,282.23L43.37,284.5L45.54,285.34L47.71,288.08L49.88,287.09L52.05,290.38L54.22,291.44L58.55,295.54L60.72,296.2L62.89,296.93L65.06,298.54L71.57,302.56L73.73,302.85L78.07,304.5L80.24,303.99L84.58,304.06L86.75,304.94L93.25,306.69L95.42,307.31L101.93,308.41L104.1,309.29L108.43,309.62L110.6,309.69L119.28,309.73L121.45,309.25L130.12,310.93L132.29,310.38L136.63,311.96L138.8,311.81L140.96,311.92L143.13,313.05L147.47,314.08L149.64,314.04L153.98,314.08L156.14,314.52L160.48,314.66L162.65,314.92L166.99,315.14L169.16,315.21L180,315.83L182.17,315.8L188.67,316.16L190.84,316.16L201.69,316.78L203.86,316.82L223.37,317.29L225.54,317.59L255.9,317.62L258.07,317.92L264.58,318.32L266.75,318.35L307.95,319.31L310.12,319.16L388.19,319.89L390.36,319.85L448.92,319.74L451.08,319.78L498.8,319.93L500.96,319.93L540,319.96" style="vector-effect: non-scaling-stroke; fill: none; stroke: rgb(231, 107, 243); stroke-opacity: 1; stroke-width: 2px; opacity: 1;"/></g><g class="points"/><g class="text"/></g><g class="trace scatter trace5c5af3" style="stroke-miterlimit: 2; opacity: 1;"><g class="fills"/><g class="errorbars"/><g class="lines"><path class="js-line" d="M0,32.76L8.67,175.25L10.84,189.58L19.52,223.03L21.69,234.77L23.86,234.88L26.02,244.97L28.19,252.18L30.36,256.53L32.53,259.31L34.7,263.4L36.87,271.37L39.04,271.7L41.2,276.78L43.37,279.56L47.71,283.22L49.88,283.11L52.05,286.62L54.22,288.15L58.55,292.14L60.72,293.46L65.06,294.48L67.23,296.05L73.73,297.07L75.9,298.79L80.24,300.26L82.41,301.32L86.75,302.19L88.92,302.85L91.08,303.36L93.25,304.75L95.42,304.1L97.59,305.12L110.6,308.23L112.77,308.45L114.94,308.26L117.11,309.54L130.12,310.53L132.29,311.26L138.8,313.13L140.96,312.91L147.47,314.11L149.64,313.97L162.65,315.1L164.82,315.58L247.23,317.92L249.4,317.92L258.07,318.54L260.24,318.72L273.25,318.68L275.42,318.79L344.82,319.49L346.99,319.41L540,319.82" style="vector-effect: non-scaling-stroke; fill: none; stroke: rgb(248, 118, 109); stroke-opacity: 1; stroke-width: 2px; opacity: 1;"/></g><g class="points"/><g class="text"/></g><g class="trace scatter traceaebb66" style="stroke-miterlimit: 2; opacity: 1;"><g class="fills"/><g class="errorbars"/><g class="lines"><path class="js-line" d="M0,4.57L4.34,104.68L6.51,141.02L8.67,173.13L10.84,185.81L17.35,205.37L19.52,215.21L23.86,232.36L26.02,240.44L30.36,253.46L32.53,258.65L34.7,261.97L36.87,272.8L41.2,275.28L43.37,277.33L47.71,282.16L49.88,283.07L52.05,286.8L54.22,287.06L58.55,291.85L60.72,291.99L67.23,295.87L69.4,296.49L78.07,299.49L80.24,299.63L82.41,300.77L84.58,300.62L93.25,302.71L95.42,302.74L99.76,302.93L101.93,303.84L104.1,304.39L106.27,305.74L110.6,306.29L112.77,306.54L117.11,307.93L119.28,307.28L123.61,308.26L125.78,309.32L132.29,310.02L134.46,311.19L147.47,313.2L149.64,312.61L160.48,314.55L162.65,314.66L166.99,314.77L169.16,315.03L184.34,314.99L186.51,314.73L195.18,315.87L197.35,316.34L203.86,316.38L206.02,316.34L210.36,316.64L212.53,316.6L229.88,317.37L232.05,317.11L266.75,318.28L268.92,318.21L307.95,318.87L310.12,318.87L429.4,319.89L431.57,319.89L451.08,319.96L453.25,320L540,320" style="vector-effect: non-scaling-stroke; fill: none; stroke: rgb(163, 165, 0); stroke-opacity: 1; stroke-width: 2px; opacity: 1;"/></g><g class="points"/><g class="text"/></g><g class="trace scatter trace8ea1a8" style="stroke-miterlimit: 2; opacity: 1;"><g class="fills"/><g class="errorbars"/><g class="lines"><path class="js-line" d="M0,13.56L2.17,47.28L4.34,96.82L8.67,178.46L10.84,187.93L15.18,208.99L17.35,217.33L19.52,227.68L21.69,241.94L23.86,241.83L26.02,250.68L30.36,261.13L32.53,265.27L34.7,264.94L36.87,272.69L39.04,272.91L41.2,277.99L43.37,283.14L45.54,283.29L49.88,285.59L52.05,288.52L54.22,289.98L56.39,293.35L58.55,294.99L60.72,294.63L62.89,294.59L65.06,296.05L67.23,297L69.4,296.89L73.73,298.28L75.9,300.55L78.07,300.44L80.24,301.13L82.41,300.91L84.58,301.76L88.92,302.63L91.08,303.4L93.25,304.46L95.42,304.35L99.76,304.83L101.93,305.59L106.27,307.06L108.43,306.65L132.29,309.87L134.46,310.38L136.63,311.74L138.8,311.96L143.13,312.94L145.3,313.71L149.64,313.64L151.81,313.56L162.65,314.63L164.82,314.66L173.49,315.65L175.66,316.12L195.18,316.05L197.35,316.31L210.36,316.34L212.53,316.09L216.87,316.09L219.04,315.87L229.88,317.62L232.05,317.59L240.72,317.62L242.89,317.59L407.71,319.71L409.88,319.67L457.59,319.89L459.76,319.85L540,319.96" style="vector-effect: non-scaling-stroke; fill: none; stroke: rgb(0, 191, 125); stroke-opacity: 1; stroke-width: 2px; opacity: 1;"/></g><g class="points"/><g class="text"/></g><g class="trace scatter traceb1de7c" style="stroke-miterlimit: 2; opacity: 1;"><g class="fills"/><g class="errorbars"/><g class="lines"><path class="js-line" d="M0,35.21L8.67,181.76L10.84,202.16L13.01,206.25L15.18,219.41L17.35,223.36L19.52,234L21.69,246.58L23.86,248.52L30.36,269.32L32.53,270.6L34.7,270.6L36.87,275.83L39.04,276.42L41.2,280.11L43.37,282.52L45.54,283.66L49.88,285.96L52.05,289.95L54.22,289.76L56.39,293.02L62.89,295.03L65.06,296.34L67.23,295.83L69.4,296.34L71.57,298.14L73.73,298.61L78.07,300L80.24,300.51L88.92,301.94L91.08,303.51L93.25,304.61L95.42,304.83L97.59,304.42L99.76,305.01L101.93,307.09L104.1,306.84L110.6,307.5L112.77,307.75L117.11,309.43L119.28,309.91L132.29,311.19L134.46,311.7L136.63,312.18L138.8,311.88L147.47,312.83L149.64,312.54L151.81,312.36L153.98,313.31L171.33,315.25L173.49,315.17L180,315.76L182.17,315.25L193.01,316.01L195.18,316.05L201.69,316.71L203.86,316.42L214.7,316.78L216.87,316.56L225.54,316.93L227.71,317.04L234.22,317.37L236.39,317.51L247.23,317.81L249.4,317.77L255.9,318.03L258.07,318.1L286.27,318.24L288.43,318.5L307.95,318.87L310.12,318.87L318.8,319.12L320.96,319.2L383.86,319.71L386.02,319.82L540,320" style="vector-effect: non-scaling-stroke; fill: none; stroke: rgb(0, 176, 246); stroke-opacity: 1; stroke-width: 2px; opacity: 1;"/></g><g class="points"/><g class="text"/></g><g class="trace scatter tracef7c046" style="stroke-miterlimit: 2; opacity: 1;"><g class="fills"/><g class="errorbars"/><g class="lines"><path class="js-line" d="M0,24.1L2.17,66L4.34,91.01L8.67,172.69L10.84,186.62L17.35,220.44L19.52,227.68L21.69,240.55L23.86,239.63L26.02,250.64L28.19,254.88L30.36,257.15L32.53,260.91L34.7,260.66L36.87,265.52L43.37,276.49L45.54,278.39L47.71,278.21L49.88,279.96L52.05,283.18L54.22,283.58L56.39,286.11L58.55,287.31L62.89,289.8L65.06,290.53L69.4,291.15L71.57,292.36L75.9,294L78.07,293.97L80.24,293.78L82.41,295.58L84.58,295.43L86.75,296.6L91.08,297.33L93.25,297.73L99.76,297.15L101.93,297.88L104.1,297.92L106.27,299.12L112.77,300.88L114.94,301.13L119.28,302.34L121.45,302.12L125.78,303.03L127.95,303.03L130.12,302.74L132.29,303.62L136.63,306.03L138.8,305.89L147.47,308.19L149.64,307.71L151.81,307.68L153.98,308.56L162.65,309.76L164.82,309.91L175.66,309.73L177.83,310.09L180,310.46L182.17,309.73L186.51,310.27L188.67,310.71L195.18,311.22L197.35,311.44L208.19,313.35L210.36,313.16L223.37,313.16L225.54,313.42L232.05,313.86L234.22,313.67L245.06,313.6L247.23,313.93L253.73,314.04L255.9,314.77L260.24,315.06L262.41,315.14L268.92,315.17L271.08,315.28L349.16,318.35L351.33,317.88L357.83,318.21L360,318.03L388.19,318.76L390.36,318.83L412.05,319.05L414.22,318.9L459.76,319.12L461.93,319.05L529.16,319.74L531.33,319.71L540,319.85" style="vector-effect: non-scaling-stroke; fill: none; stroke: rgb(231, 107, 243); stroke-opacity: 1; stroke-width: 2px; opacity: 1;"/></g><g class="points"/><g class="text"/></g><g class="trace scatter trace61b77d" style="stroke-miterlimit: 2; opacity: 1;"><g class="fills"/><g class="errorbars"/><g class="lines"><path class="js-line" d="M0,24.79L6.51,123.4L8.67,162.82L13.01,186.4L15.18,198.54L17.35,208.85L19.52,214L21.69,227.57L23.86,230.35L30.36,252.47L32.53,255.06L34.7,255.9L36.87,263.07L39.04,264.06L41.2,267.31L43.37,270.2L45.54,270.16L49.88,272.72L52.05,275.72L54.22,277.51L56.39,281.86L60.72,284.79L62.89,285.67L67.23,287.2L69.4,286.65L73.73,288.08L75.9,289.91L78.07,291.44L80.24,291.55L82.41,292.39L84.58,292.14L99.76,294.3L101.93,296.2L110.6,299.34L112.77,299.38L114.94,299.71L117.11,300.91L121.45,300.07L123.61,300.51L130.12,300.8L132.29,300.73L136.63,303.22L138.8,303.18L143.13,305.05L145.3,304.86L160.48,307.17L162.65,307.28L166.99,307.97L169.16,308.67L173.49,309.18L175.66,309.91L180,309.76L182.17,309.29L186.51,309.25L188.67,310.13L190.84,310.38L193.01,309.8L197.35,310.57L199.52,311.26L203.86,311.52L206.02,311.96L210.36,312.25L212.53,312.36L221.2,312.69L223.37,313.27L240.72,314.37L242.89,314.37L249.4,314.22L251.57,314.41L264.58,315.47L266.75,315.69L297.11,316.89L299.28,316.78L305.78,317.29L307.95,317.37L312.29,317.33L314.46,317.55L323.13,318.35L325.3,318.17L368.67,318.17L370.84,318.32L375.18,318.57L377.35,318.5L399.04,318.54L401.2,318.5L412.05,318.57L414.22,318.57L433.73,318.79L435.9,319.09L448.92,319.16L451.08,319.2L464.1,319.23L466.27,319.23L540,319.41" style="vector-effect: non-scaling-stroke; fill: none; stroke: rgb(248, 118, 109); stroke-opacity: 1; stroke-width: 2px; opacity: 1;"/></g><g class="points"/><g class="text"/></g><g class="trace scatter tracecbf3f2" style="stroke-miterlimit: 2; opacity: 1;"><g class="fills"/><g class="errorbars"/><g class="lines"><path class="js-line" d="M0,29.36L4.34,99.6L6.51,143.8L8.67,174.7L10.84,186.07L13.01,193.86L15.18,206.51L17.35,218.46L19.52,222.38L21.69,235.1L23.86,237.26L26.02,241.83L28.19,250.64L32.53,260.18L34.7,262.38L36.87,272.03L39.04,271.44L41.2,275.65L43.37,277.15L49.88,280.33L52.05,282.96L54.22,283.14L56.39,285.81L58.55,285.48L60.72,286.14L65.06,289.21L67.23,289.43L69.4,289.07L71.57,291.26L75.9,292.54L78.07,294.08L80.24,293.97L82.41,295.43L84.58,295.25L86.75,296.12L88.92,296.42L91.08,298.14L93.25,299.56L95.42,298.65L97.59,299.82L99.76,299.82L101.93,301.46L104.1,301.83L106.27,303.69L108.43,302.52L110.6,303.58L112.77,303.8L127.95,308.26L130.12,307.86L132.29,307.64L134.46,308.19L138.8,309.25L140.96,309.18L145.3,310.13L147.47,309.95L158.31,312.1L160.48,312.1L166.99,312.8L169.16,312.8L175.66,313.16L177.83,313.42L184.34,313.31L186.51,313.38L193.01,314.33L195.18,314.15L203.86,315.03L206.02,314.7L212.53,314.81L214.7,314.66L234.22,315.98L236.39,315.61L249.4,316.16L251.57,316.12L260.24,316.89L262.41,316.89L273.25,317.33L275.42,317.48L281.93,317.22L284.1,317.55L292.77,317.73L294.94,317.95L305.78,318.21L307.95,318.35L314.46,318.1L316.63,318.32L338.31,318.87L340.48,318.83L407.71,319.45L409.88,319.16L477.11,319.71L479.28,319.71L513.98,319.78L516.14,319.82L540,319.89" style="vector-effect: non-scaling-stroke; fill: none; stroke: rgb(163, 165, 0); stroke-opacity: 1; stroke-width: 2px; opacity: 1;"/></g><g class="points"/><g class="text"/></g><g class="trace scatter trace305a67" style="stroke-miterlimit: 2; opacity: 1;"><g class="fills"/><g class="errorbars"/><g class="lines"><path class="js-line" d="M0,31.85L4.34,114.41L6.51,157.59L8.67,187.06L10.84,203.8L13.01,211.48L15.18,222.6L21.69,249.58L23.86,250.46L28.19,263.22L30.36,267.09L34.7,271.81L36.87,278.1L39.04,278.35L41.2,281.79L45.54,285.59L47.71,286.98L49.88,287.71L52.05,290.57L54.22,290.75L56.39,293.78L60.72,296.78L62.89,297.15L67.23,298.65L69.4,298.5L71.57,299.12L73.73,300.69L75.9,302.67L78.07,302.3L82.41,303.69L84.58,302.71L88.92,304.13L91.08,304.9L93.25,305.92L95.42,305.85L104.1,307.75L106.27,309.32L121.45,311.48L123.61,311.77L132.29,311.66L134.46,312.32L136.63,313.09L138.8,313.05L158.31,315.36L160.48,315.28L166.99,315.76L169.16,315.8L193.01,315.76L195.18,316.05L201.69,316.42L203.86,316.31L214.7,316.38L216.87,316.2L223.37,316.49L225.54,316.75L245.06,317.07L247.23,317.15L273.25,318.54L275.42,318.5L303.61,318.94L305.78,319.2L327.47,319.09L329.64,319.16L383.86,319.6L386.02,319.49L401.2,319.52L403.37,319.52L420.72,319.67L422.89,319.6L453.25,319.78L455.42,319.89L540,320" style="vector-effect: non-scaling-stroke; fill: none; stroke: rgb(0, 191, 125); stroke-opacity: 1; stroke-width: 2px; opacity: 1;"/></g><g class="points"/><g class="text"/></g><g class="trace scatter trace346f70" style="stroke-miterlimit: 2; opacity: 1;"><g class="fills"/><g class="errorbars"/><g class="lines"><path class="js-line" d="M0,13.2L2.17,65.52L4.34,91.77L8.67,171.19L10.84,186.11L13.01,200.91L15.18,207.75L19.52,227.09L21.69,243.73L23.86,245.59L26.02,257.26L28.19,261.68L30.36,261.06L32.53,259.2L34.7,260L36.87,267.71L39.04,269.07L43.37,274.73L45.54,275.43L49.88,277.55L52.05,280.22L56.39,284.61L58.55,284.79L62.89,286.65L65.06,286.76L73.73,289.32L75.9,291.26L78.07,289.8L80.24,290.86L82.41,292.29L84.58,291.96L86.75,293.49L88.92,293.6L91.08,294.41L93.25,294.15L99.76,295.72L101.93,296.42L104.1,296.34L106.27,297.51L112.77,298.46L114.94,299.49L117.11,300.8L119.28,300.29L121.45,301.21L123.61,301.02L132.29,302.41L134.46,303.62L138.8,305.74L140.96,305.85L145.3,306.18L147.47,306.69L149.64,306.11L151.81,306.44L158.31,307.5L160.48,307.64L164.82,308.45L166.99,308.7L180,309.87L182.17,309.32L190.84,310.93L193.01,310.68L199.52,311.33L201.69,312.07L210.36,312.25L212.53,312.8L216.87,312.87L219.04,312.65L221.2,312.58L223.37,313.38L232.05,313.82L234.22,313.46L240.72,313.97L242.89,314.04L249.4,314.44L251.57,314.55L264.58,315.25L266.75,315.5L290.6,316.49L292.77,316.53L301.45,316.89L303.61,316.86L320.96,317.33L323.13,317.66L336.14,317.55L338.31,317.95L346.99,318.5L349.16,318.46L362.17,318.39L364.34,318.5L373.01,318.54L375.18,318.65L403.37,319.38L405.54,319.34L540,319.74" style="vector-effect: non-scaling-stroke; fill: none; stroke: rgb(0, 176, 246); stroke-opacity: 1; stroke-width: 2px; opacity: 1;"/></g><g class="points"/><g class="text"/></g><g class="trace scatter trace1aec48" style="stroke-miterlimit: 2; opacity: 1;"><g class="fills"/><g class="errorbars"/><g class="lines"><path class="js-line" d="M0,32.14L6.51,157.99L8.67,185.48L10.84,198.79L13.01,200.55L17.35,219.34L19.52,225.52L21.69,244.1L23.86,245.34L28.19,258.35L30.36,262.96L32.53,263.84L34.7,266.03L36.87,274.66L39.04,273.97L41.2,275.9L43.37,275.54L45.54,276.97L47.71,276.89L49.88,277.66L52.05,282.12L54.22,283.58L56.39,286.07L58.55,288.88L60.72,290.27L65.06,290.9L67.23,292.07L71.57,293.86L73.73,294.48L75.9,295.83L78.07,296.16L86.75,297.37L88.92,298.57L99.76,301.13L101.93,302.23L110.6,303.4L112.77,303.44L117.11,305.37L119.28,304.75L123.61,305.27L125.78,305.78L145.3,310.02L147.47,310.35L149.64,310.2L151.81,310.82L162.65,311.77L164.82,312.07L169.16,312.8L171.33,313.09L177.83,314.48L180,314.3L197.35,315.36L199.52,315.65L214.7,316.67L216.87,316.49L221.2,316.78L223.37,316.93L255.9,317.92L258.07,318.39L281.93,318.87L284.1,318.83L375.18,319.49L377.35,319.6L390.36,319.67L392.53,319.67L540,319.93" style="vector-effect: non-scaling-stroke; fill: none; stroke: rgb(231, 107, 243); stroke-opacity: 1; stroke-width: 2px; opacity: 1;"/></g><g class="points"/><g class="text"/></g><g class="trace scatter tracea8bc59" style="stroke-miterlimit: 2; opacity: 1;"><g class="fills"/><g class="errorbars"/><g class="lines"><path class="js-line" d="M0,28.37L4.34,100.66L6.51,149.87L8.67,182.23L10.84,198.57L13.01,203.8L15.18,214.81L19.52,235.72L21.69,246.44L23.86,248.63L26.02,256.16L28.19,261.02L30.36,267.75L34.7,269.91L36.87,276.23L39.04,275.1L41.2,279.52L45.54,283.14L47.71,284.53L49.88,283.91L52.05,287.17L54.22,288.08L56.39,290.82L67.23,295.14L69.4,295.5L73.73,297.11L75.9,299.85L78.07,300.29L80.24,299.82L82.41,301.43L84.58,301.9L86.75,301.79L88.92,302.67L93.25,304.68L95.42,304.13L97.59,304.86L99.76,304.68L104.1,307.06L106.27,307.53L119.28,309.25L121.45,309.1L127.95,310.86L130.12,310.79L132.29,311.04L134.46,312.07L138.8,312.43L140.96,312.29L147.47,313.78L149.64,313.53L158.31,314.41L160.48,314.81L166.99,315.43L169.16,315.98L173.49,315.8L175.66,316.16L186.51,316.16L188.67,316.09L203.86,317.04L206.02,316.89L216.87,317.15L219.04,317.18L225.54,317.77L227.71,317.88L260.24,318.5L262.41,318.68L286.27,318.9L288.43,319.12L351.33,319.56L353.49,319.56L368.67,319.63L370.84,319.67L416.39,319.78L418.55,319.74L440.24,319.85L442.41,319.85L540,319.96" style="vector-effect: non-scaling-stroke; fill: none; stroke: rgb(248, 118, 109); stroke-opacity: 1; stroke-width: 2px; opacity: 1;"/></g><g class="points"/><g class="text"/></g><g class="trace scatter tracec77479" style="stroke-miterlimit: 2; opacity: 1;"><g class="fills"/><g class="errorbars"/><g class="lines"><path class="js-line" d="M0,26.76L4.34,98.94L6.51,146.51L8.67,183.47L10.84,190.97L15.18,209.4L17.35,218.32L19.52,225.59L21.69,239.45L23.86,241.97L26.02,252.43L30.36,264.06L32.53,265.78L34.7,268.81L36.87,275.8L39.04,275.47L41.2,278.61L45.54,283.88L47.71,285.37L49.88,286.29L52.05,289.8L54.22,290.86L56.39,294.33L67.23,299.09L69.4,299.45L71.57,299.23L73.73,299.93L75.9,301.46L78.07,301.24L80.24,300.88L82.41,301.68L86.75,301.94L88.92,302.49L93.25,304.75L95.42,304.5L97.59,305.89L99.76,305.7L104.1,307.46L106.27,307.39L108.43,306.8L110.6,307.57L114.94,308.85L117.11,310.2L123.61,310.49L125.78,310.97L130.12,310.02L132.29,311.33L143.13,313.49L145.3,313.67L151.81,313.86L153.98,314.08L160.48,314.77L162.65,314.63L171.33,315.17L173.49,315.54L214.7,316.97L216.87,317.04L245.06,317.62L247.23,317.84L255.9,317.95L258.07,318.39L277.59,318.5L279.76,318.5L299.28,318.57L301.45,318.65L310.12,318.79L312.29,318.83L329.64,318.9L331.81,318.98L342.65,319.2L344.82,319.27L353.49,319.2L355.66,319.27L540,319.96" style="vector-effect: non-scaling-stroke; fill: none; stroke: rgb(163, 165, 0); stroke-opacity: 1; stroke-width: 2px; opacity: 1;"/></g><g class="points"/><g class="text"/></g><g class="trace scatter trace9b2359" style="stroke-miterlimit: 2; opacity: 1;"><g class="fills"/><g class="errorbars"/><g class="lines"><path class="js-line" d="M0,40.66L2.17,66.76L4.34,107.53L6.51,146.65L8.67,170.86L13.01,196.97L15.18,205.63L19.52,223.07L21.69,235.03L28.19,256.56L30.36,263.29L32.53,264.94L34.7,269.36L36.87,277.62L39.04,278.68L41.2,280.26L43.37,283.51L49.88,285.85L52.05,289.62L54.22,290.05L56.39,292.43L60.72,294.15L62.89,295.25L65.06,296.16L67.23,295.5L71.57,298.54L73.73,298.28L75.9,299.96L78.07,300.18L95.42,304.5L97.59,304.13L104.1,306.33L106.27,307.06L112.77,306.73L114.94,307.06L119.28,308.04L121.45,307.46L127.95,309.47L130.12,309.29L138.8,311.88L140.96,312.14L149.64,313.38L151.81,313.2L160.48,313.64L162.65,313.82L171.33,314.99L173.49,315.54L195.18,315.69L197.35,316.12L201.69,316.64L203.86,316.56L216.87,316.6L219.04,316.56L225.54,316.93L227.71,317.07L238.55,317.48L240.72,317.62L247.23,317.73L249.4,317.81L260.24,318.1L262.41,318.35L331.81,319.2L333.98,319.12L342.65,319.34L344.82,319.34L379.52,319.56L381.69,319.6L407.71,319.78L409.88,319.74L540,319.89" style="vector-effect: non-scaling-stroke; fill: none; stroke: rgb(0, 191, 125); stroke-opacity: 1; stroke-width: 2px; opacity: 1;"/></g><g class="points"/><g class="text"/></g><g class="trace scatter tracee14883" style="stroke-miterlimit: 2; opacity: 1;"><g class="fills"/><g class="errorbars"/><g class="lines"><path class="js-line" d="M0,45.41L2.17,73.02L4.34,117.66L8.67,192.1L10.84,207.42L13.01,213.24L15.18,223.51L21.69,249.18L23.86,250.05L30.36,269.95L32.53,271.88L36.87,277.04L39.04,277.33L43.37,282.71L45.54,285.3L47.71,287.79L49.88,287.68L52.05,291.63L54.22,291.37L56.39,294.73L58.55,296.42L67.23,298.68L69.4,299.71L75.9,302.82L78.07,303L84.58,305.59L86.75,305.59L93.25,307.75L95.42,307.53L101.93,309.95L104.1,310.64L108.43,311.85L110.6,311.85L121.45,313.09L123.61,312.69L127.95,313.86L130.12,313.75L132.29,313.35L134.46,314L138.8,314.52L140.96,314.52L147.47,315.54L149.64,315.43L153.98,315.5L156.14,315.83L164.82,316.64L166.99,316.97L175.66,317.26L177.83,317.48L186.51,317.26L188.67,317.4L197.35,317.73L199.52,317.99L223.37,318.14L225.54,318.32L242.89,318.72L245.06,318.76L284.1,319.34L286.27,319.27L303.61,319.41L305.78,319.45L357.83,319.71L360,319.67L540,320" style="vector-effect: non-scaling-stroke; fill: none; stroke: rgb(0, 176, 246); stroke-opacity: 1; stroke-width: 2px; opacity: 1;"/></g><g class="points"/><g class="text"/></g><g class="trace scatter tracea93531" style="stroke-miterlimit: 2; opacity: 1;"><g class="fills"/><g class="errorbars"/><g class="lines"><path class="js-line" d="M0,36.97L2.17,59.96L4.34,104.64L8.67,189.4L10.84,201.39L17.35,225.52L19.52,235.17L21.69,245.85L23.86,245.59L30.36,264.5L32.53,267.46L34.7,270.31L36.87,276.89L39.04,277.95L41.2,281.68L47.71,287.57L49.88,288.34L52.05,290.6L54.22,291.37L58.55,296.38L60.72,297.07L65.06,298.65L67.23,298.32L73.73,300.26L75.9,301.9L78.07,302.6L80.24,302.01L82.41,303.95L84.58,304.42L88.92,305.3L91.08,306.58L101.93,308.08L104.1,308.63L112.77,310.02L114.94,309.73L117.11,310.35L119.28,310.13L123.61,311.04L125.78,311.52L138.8,313.13L140.96,312.8L145.3,313.75L147.47,314.15L180,316.16L182.17,316.05L208.19,317.59L210.36,317.62L214.7,317.37L216.87,317.48L221.2,317.59L223.37,317.66L234.22,318.06L236.39,318.17L249.4,318.43L251.57,318.5L258.07,318.9L260.24,319.01L275.42,319.27L277.59,319.23L286.27,319.27L288.43,319.56L342.65,319.85L344.82,319.82L399.04,319.85L401.2,319.82L540,319.96" style="vector-effect: non-scaling-stroke; fill: none; stroke: rgb(231, 107, 243); stroke-opacity: 1; stroke-width: 2px; opacity: 1;"/></g><g class="points"/><g class="text"/></g><g class="trace scatter trace068608" style="stroke-miterlimit: 2; opacity: 1;"><g class="fills"/><g class="errorbars"/><g class="lines"><path class="js-line" d="M0,36.27L6.51,157.4L8.67,186.54L10.84,202.3L13.01,211.92L15.18,221.61L17.35,224.94L19.52,233.71L21.69,247.71L23.86,248.48L26.02,257.48L30.36,266L32.53,268.15L34.7,271.26L36.87,276.64L39.04,276.42L41.2,278.57L43.37,281.43L45.54,282.71L47.71,285.23L49.88,285.19L52.05,290.02L54.22,290.68L56.39,294.19L58.55,294.3L62.89,295.9L65.06,296.27L67.23,297.55L69.4,297.7L71.57,298.98L73.73,298.76L78.07,300.69L80.24,300.48L82.41,302.12L84.58,302.52L91.08,303.69L93.25,304.68L99.76,304.35L101.93,305.45L106.27,308.23L108.43,308.23L132.29,310.75L134.46,312.14L143.13,313.67L145.3,313.67L153.98,314.48L156.14,314.95L160.48,315.28L162.65,315.32L182.17,316.23L184.34,315.94L197.35,317.04L199.52,317.07L214.7,316.86L216.87,317.11L227.71,317.51L229.88,317.92L236.39,317.59L238.55,317.88L249.4,318.28L251.57,318.14L305.78,319.6L307.95,319.63L540,320" style="vector-effect: non-scaling-stroke; fill: none; stroke: rgb(248, 118, 109); stroke-opacity: 1; stroke-width: 2px; opacity: 1;"/></g><g class="points"/><g class="text"/></g><g class="trace scatter tracebb6f8d" style="stroke-miterlimit: 2; opacity: 1;"><g class="fills"/><g class="errorbars"/><g class="lines"><path class="js-line" d="M0,22.96L8.67,182.96L10.84,195.47L19.52,229.25L21.69,240.59L23.86,240.91L26.02,249.1L30.36,262.85L32.53,263.22L34.7,265.63L36.87,271.52L39.04,271.59L41.2,275.14L43.37,277.62L45.54,278.9L47.71,282.27L49.88,282.63L52.05,287.17L54.22,287.5L56.39,290.9L58.55,291.44L65.06,294.55L67.23,294.77L71.57,297.7L73.73,297.99L75.9,299.45L78.07,299.67L88.92,301.65L91.08,302.74L93.25,303.44L95.42,302.67L97.59,303.62L99.76,303.66L104.1,305.16L106.27,305.37L121.45,308.23L123.61,308.23L125.78,309.03L127.95,309.03L132.29,309.18L134.46,310.42L136.63,310.13L138.8,310.79L156.14,311.88L158.31,312.21L173.49,314.44L175.66,314.66L180,314.7L182.17,314.41L186.51,314.26L188.67,314.33L197.35,314.95L199.52,315.32L208.19,315.43L210.36,315.1L216.87,315.32L219.04,315.25L229.88,316.56L232.05,316.45L242.89,316.49L245.06,316.6L258.07,317L260.24,317L281.93,317.84L284.1,317.81L297.11,318.14L299.28,318.35L338.31,319.01L340.48,319.09L368.67,319.27L370.84,319.38L390.36,319.74L392.53,319.74L540,320" style="vector-effect: non-scaling-stroke; fill: none; stroke: rgb(163, 165, 0); stroke-opacity: 1; stroke-width: 2px; opacity: 1;"/></g><g class="points"/><g class="text"/></g><g class="trace scatter traceb10d41" style="stroke-miterlimit: 2; opacity: 1;"><g class="fills"/><g class="errorbars"/><g class="lines"><path class="js-line" d="M0,45.85L2.17,72.5L4.34,109.1L6.51,158.65L8.67,186.62L10.84,206.07L13.01,212.65L17.35,231.81L19.52,240.4L21.69,252.69L23.86,251.48L32.53,267.68L34.7,269.76L36.87,275.69L39.04,275.28L43.37,280.4L45.54,282.67L47.71,283.25L49.88,282.67L52.05,287.17L54.22,288.26L56.39,291.37L58.55,292.91L60.72,294.77L62.89,294.73L65.06,295.9L67.23,296.16L71.57,297.66L73.73,298.79L75.9,300.15L78.07,300.22L80.24,300.51L82.41,301.83L84.58,301.21L86.75,302.74L88.92,302.74L91.08,303.62L93.25,304.53L95.42,304.57L101.93,306.33L104.1,306.98L106.27,307.64L108.43,306.65L114.94,308.96L117.11,309.1L123.61,309.8L125.78,310.35L127.95,310.82L130.12,310.42L136.63,312.18L138.8,312.21L166.99,314.95L169.16,315.28L195.18,315.94L197.35,316.49L216.87,316.67L219.04,316.34L229.88,317.55L232.05,317.37L242.89,317.55L245.06,317.62L284.1,318.43L286.27,318.32L290.6,318.65L292.77,318.68L346.99,318.94L349.16,318.83L442.41,319.56L444.58,319.6L470.6,319.85L472.77,319.89L513.98,319.93L516.14,319.85L540,319.93" style="vector-effect: non-scaling-stroke; fill: none; stroke: rgb(0, 191, 125); stroke-opacity: 1; stroke-width: 2px; opacity: 1;"/></g><g class="points"/><g class="text"/></g><g class="trace scatter tracef4a776" style="stroke-miterlimit: 2; opacity: 1;"><g class="fills"/><g class="errorbars"/><g class="lines"><path class="js-line" d="M0,17.15L6.51,158.03L8.67,190.42L10.84,202.56L13.01,208.56L19.52,239.38L21.69,251.19L23.86,248.52L26.02,255.17L30.36,267.42L32.53,268.78L34.7,270.79L36.87,275.47L39.04,275.83L41.2,280.11L43.37,282.01L45.54,282.78L47.71,284.9L49.88,285.89L52.05,290.57L54.22,291.85L56.39,294.77L58.55,296.05L60.72,297.77L62.89,297.84L69.4,298.98L71.57,299.96L73.73,300.73L75.9,302.71L78.07,303.69L80.24,302.96L82.41,303.88L84.58,303.58L86.75,305.19L88.92,304.97L91.08,306L93.25,305.92L95.42,305.63L97.59,306.14L99.76,306L101.93,307.2L112.77,308.3L114.94,308.88L117.11,308.78L119.28,309.84L132.29,311.01L134.46,312.07L140.96,312.69L143.13,313.27L149.64,314.33L151.81,314.19L162.65,314.88L164.82,315.43L173.49,315.87L175.66,316.01L180,316.16L182.17,316.2L188.67,316.42L190.84,316.34L206.02,317.22L208.19,317.15L216.87,316.93L219.04,316.67L229.88,317.95L232.05,317.95L236.39,317.92L238.55,318.17L255.9,318.72L258.07,318.76L360,319.74L362.17,319.67L390.36,319.89L392.53,319.89L540,319.96" style="vector-effect: non-scaling-stroke; fill: none; stroke: rgb(0, 176, 246); stroke-opacity: 1; stroke-width: 2px; opacity: 1;"/></g><g class="points"/><g class="text"/></g><g class="trace scatter tracef3917c" style="stroke-miterlimit: 2; opacity: 1;"><g class="fills"/><g class="errorbars"/><g class="lines"><path class="js-line" d="M0,28.59L6.51,142.3L8.67,174.84L13.01,202.41L15.18,212.58L21.69,242.27L23.86,243.77L28.19,256.34L30.36,261.97L32.53,264.9L34.7,269.98L36.87,275.87L39.04,276.16L41.2,277.29L43.37,281.65L45.54,282.71L47.71,284.68L49.88,284.72L52.05,288.48L58.55,293.02L60.72,292.32L62.89,293.35L65.06,293.13L71.57,297.29L73.73,297.51L78.07,300.51L80.24,299.74L91.08,301.9L93.25,303.33L99.76,304.02L101.93,305.59L104.1,305.67L106.27,306.95L110.6,306.91L112.77,307.42L119.28,308.81L121.45,308.59L125.78,309.91L127.95,310.09L132.29,310.02L134.46,311.04L143.13,312.61L145.3,312.69L153.98,312.72L156.14,313.2L162.65,314.19L164.82,314.44L177.83,315.65L180,315.47L188.67,315.54L190.84,315.8L197.35,315.98L199.52,316.2L214.7,316.49L216.87,316.31L221.2,316.71L223.37,316.86L251.57,317.55L253.73,317.77L294.94,318.61L297.11,318.65L320.96,319.16L323.13,319.12L396.87,319.78L399.04,319.67L422.89,319.71L425.06,319.74L540,320" style="vector-effect: non-scaling-stroke; fill: none; stroke: rgb(231, 107, 243); stroke-opacity: 1; stroke-width: 2px; opacity: 1;"/></g><g class="points"/><g class="text"/></g><g class="trace scatter trace71aabf" style="stroke-miterlimit: 2; opacity: 1;"><g class="fills"/><g class="errorbars"/><g class="lines"><path class="js-line" d="M0,12.18L2.17,45.81L4.34,91.48L8.67,157.15L10.84,166.03L13.01,186.36L15.18,194.26L17.35,203.33L19.52,204.42L21.69,217.22L23.86,219.34L28.19,235.25L30.36,236.75L32.53,240.37L34.7,245.52L36.87,253.02L39.04,254.48L41.2,254.84L43.37,258.5L47.71,262.71L49.88,263.51L52.05,266L54.22,267.31L58.55,270.2L60.72,270.57L65.06,273.75L67.23,275.1L69.4,275.9L71.57,278.68L75.9,280.84L78.07,280.77L82.41,281.32L84.58,281.79L93.25,285.41L95.42,285.3L97.59,286.8L99.76,286.65L104.1,289.84L106.27,291.19L110.6,293.31L112.77,293.35L114.94,293.78L117.11,293.42L123.61,293.89L125.78,294.88L130.12,294.66L132.29,294.66L136.63,295.65L138.8,296.23L140.96,296.75L143.13,298.14L149.64,297.84L151.81,298.39L153.98,299.6L156.14,299.31L158.31,299.09L160.48,299.78L162.65,300.11L164.82,299.49L171.33,300.62L173.49,301.57L180,301.83L182.17,301.32L197.35,304.75L199.52,305.34L201.69,305.27L203.86,306.03L206.02,305.67L208.19,307.17L214.7,307.24L216.87,307.68L219.04,306.98L221.2,307.82L232.05,308.96L234.22,308.56L240.72,308.52L242.89,308.34L247.23,309.25L249.4,309.36L255.9,310.57L258.07,310.57L266.75,310.75L268.92,310.9L277.59,311.48L279.76,311.59L312.29,313.71L314.46,313.46L323.13,313.86L325.3,313.75L342.65,314L344.82,314.33L353.49,314.66L355.66,314.63L383.86,315.47L386.02,315.69L392.53,315.76L394.7,315.94L399.04,316.38L401.2,316.45L429.4,317.18L431.57,317.26L438.07,317.44L440.24,317.37L516.14,317.99L518.31,318.17L540,318.1" style="vector-effect: non-scaling-stroke; fill: none; stroke: rgb(248, 118, 109); stroke-opacity: 1; stroke-width: 2px; opacity: 1;"/></g><g class="points"/><g class="text"/></g><g class="trace scatter tracee48250" style="stroke-miterlimit: 2; opacity: 1;"><g class="fills"/><g class="errorbars"/><g class="lines"><path class="js-line" d="M0,30.46L4.34,104.9L6.51,157.51L8.67,190.64L10.84,206.18L17.35,226.65L19.52,236.97L21.69,247.68L23.86,250.42L28.19,263.58L30.36,266.84L32.53,269.14L34.7,269.84L36.87,276.27L39.04,276.16L41.2,280.73L43.37,283.29L45.54,283.29L47.71,285.3L49.88,285.05L52.05,288.81L54.22,289.73L56.39,292.76L60.72,294.37L62.89,295.1L67.23,296.86L69.4,296.27L73.73,298.06L75.9,299.74L78.07,300.33L80.24,299.71L82.41,300.8L84.58,300.66L91.08,302.05L93.25,302.89L99.76,303.95L101.93,304.9L106.27,306.8L108.43,306.73L114.94,307.93L117.11,308.7L119.28,309.4L121.45,309.21L127.95,310.42L130.12,310.86L134.46,311.77L136.63,312.5L143.13,312.54L145.3,312.54L162.65,314.88L164.82,314.88L173.49,315.76L175.66,315.87L212.53,316.78L214.7,316.71L221.2,316.89L223.37,317.15L234.22,317.48L236.39,317.37L245.06,317.88L247.23,318.03L255.9,318.32L258.07,318.54L288.43,318.61L290.6,318.87L303.61,318.83L305.78,319.12L360,319.38L362.17,319.34L407.71,319.56L409.88,319.45L427.23,319.6L429.4,319.6L540,319.96" style="vector-effect: non-scaling-stroke; fill: none; stroke: rgb(163, 165, 0); stroke-opacity: 1; stroke-width: 2px; opacity: 1;"/></g><g class="points"/><g class="text"/></g><g class="trace scatter trace81dbf3" style="stroke-miterlimit: 2; opacity: 1;"><g class="fills"/><g class="errorbars"/><g class="lines"><path class="js-line" d="M0,39.71L2.17,63.69L4.34,99.31L8.67,179.16L10.84,196.31L13.01,203.77L15.18,216.97L19.52,235.47L21.69,248.81L23.86,248.3L26.02,253.35L30.36,264.75L32.53,267.17L34.7,269.43L36.87,276.12L39.04,275.72L41.2,279.45L47.71,284.9L49.88,284.83L52.05,288.67L54.22,288.81L56.39,292.58L58.55,294.55L62.89,296.23L65.06,297.48L67.23,297.11L69.4,298.9L75.9,302.63L78.07,302.52L80.24,302.89L82.41,304.46L84.58,304.53L86.75,305.52L97.59,308.52L99.76,308.74L101.93,309.32L104.1,309.03L106.27,310.13L108.43,309.62L117.11,311.01L119.28,310.79L132.29,312.32L134.46,313.2L138.8,314.26L140.96,314.19L149.64,314.95L151.81,314.84L156.14,315.54L158.31,315.39L177.83,316.86L180,316.6L227.71,317.92L229.88,318.1L242.89,317.81L245.06,318.03L260.24,318.61L262.41,318.72L323.13,319.27L325.3,319.09L429.4,319.85L431.57,319.82L468.43,319.74L470.6,319.85L518.31,320L520.48,320L540,319.96" style="vector-effect: non-scaling-stroke; fill: none; stroke: rgb(0, 191, 125); stroke-opacity: 1; stroke-width: 2px; opacity: 1;"/></g><g class="points"/><g class="text"/></g><g class="trace scatter tracef82d82" style="stroke-miterlimit: 2; opacity: 1;"><g class="fills"/><g class="errorbars"/><g class="lines"><path class="js-line" d="M0,31.08L8.67,180.88L10.84,192.91L13.01,199.63L15.18,214.22L19.52,225.89L21.69,239.45L23.86,241.28L26.02,249.62L30.36,264.97L32.53,265.05L34.7,267.5L36.87,275.5L39.04,274.55L41.2,277.51L43.37,281.28L45.54,283.51L47.71,285.52L49.88,284.94L52.05,288.56L54.22,288.63L58.55,292.87L60.72,291.66L62.89,292.5L65.06,294.41L69.4,296.49L71.57,297.11L78.07,300.69L80.24,301.5L84.58,302.01L86.75,302.93L88.92,302.82L91.08,303.99L93.25,305.27L95.42,305.27L101.93,306.54L104.1,307.31L106.27,308.08L108.43,307.35L119.28,308.85L121.45,308.81L130.12,311.01L132.29,310.86L138.8,312.25L140.96,312.76L149.64,313.2L151.81,312.91L158.31,313.89L160.48,313.97L173.49,315.76L175.66,315.61L184.34,315.36L186.51,314.88L190.84,315.47L193.01,315.58L212.53,316.23L214.7,316.01L219.04,315.8L221.2,316.12L245.06,317.18L247.23,317.18L286.27,318.39L288.43,318.65L405.54,319.71L407.71,319.71L472.77,319.89L474.94,319.89L540,319.89" style="vector-effect: non-scaling-stroke; fill: none; stroke: rgb(0, 176, 246); stroke-opacity: 1; stroke-width: 2px; opacity: 1;"/></g><g class="points"/><g class="text"/></g><g class="trace scatter traceb811e4" style="stroke-miterlimit: 2; opacity: 1;"><g class="fills"/><g class="errorbars"/><g class="lines"><path class="js-line" d="M0,51.08L4.34,112.65L6.51,157.66L8.67,187.97L10.84,204.42L13.01,209.03L15.18,216.75L19.52,232.91L21.69,244.57L23.86,245.01L26.02,253.93L28.19,261.1L30.36,265.05L32.53,266.14L34.7,270.13L36.87,277.15L39.04,277.48L45.54,286.65L47.71,289.36L49.88,289.98L52.05,292.1L54.22,292.76L56.39,296.53L58.55,298.46L60.72,298.46L65.06,301.65L67.23,301.79L71.57,303.8L73.73,303.03L78.07,305.7L80.24,305.23L82.41,306.54L84.58,306.4L93.25,309.18L95.42,309.07L99.76,309.36L101.93,310.24L114.94,310.82L117.11,311.74L121.45,310.82L123.61,311.63L136.63,313.71L138.8,314.15L140.96,313.71L143.13,314.73L147.47,315.14L149.64,315.21L153.98,314.88L156.14,315.47L184.34,317L186.51,316.89L195.18,317.55L197.35,317.59L351.33,319.71L353.49,319.67L377.35,319.74L379.52,319.67L420.72,319.71L422.89,319.71L540,320" style="vector-effect: non-scaling-stroke; fill: none; stroke: rgb(231, 107, 243); stroke-opacity: 1; stroke-width: 2px; opacity: 1;"/></g><g class="points"/><g class="text"/></g><g class="trace scatter trace896273" style="stroke-miterlimit: 2; opacity: 1;"><g class="fills"/><g class="errorbars"/><g class="lines"><path class="js-line" d="M0,43.25L4.34,108.37L6.51,154L8.67,191.74L10.84,202.34L21.69,247.06L23.86,248.26L28.19,264.06L30.36,269.14L32.53,272.65L34.7,274.52L36.87,280.73L39.04,279.82L43.37,285.48L45.54,286.47L47.71,288.74L49.88,288.92L52.05,292.58L54.22,293.2L56.39,296.05L58.55,296.6L65.06,299.85L67.23,300.11L69.4,299.56L71.57,300.48L86.75,303.62L88.92,304.53L91.08,305.16L93.25,306.91L95.42,305.74L97.59,306.69L104.1,308.15L106.27,309.03L114.94,309.95L117.11,311.08L123.61,311.55L125.78,311.92L127.95,312.69L130.12,312.29L149.64,314.41L151.81,314.3L156.14,315.36L158.31,315.32L166.99,315.98L169.16,316.31L229.88,318.76L232.05,318.65L340.48,319.45L342.65,319.41L540,319.89" style="vector-effect: non-scaling-stroke; fill: none; stroke: rgb(248, 118, 109); stroke-opacity: 1; stroke-width: 2px; opacity: 1;"/></g><g class="points"/><g class="text"/></g><g class="trace scatter tracea975e4" style="stroke-miterlimit: 2; opacity: 1;"><g class="fills"/><g class="errorbars"/><g class="lines"><path class="js-line" d="M0,22.38L2.17,35.87L4.34,76.6L8.67,142.41L10.84,156.49L15.18,183.95L17.35,203.77L19.52,211.33L21.69,222.27L23.86,223.14L26.02,230.2L30.36,241.32L32.53,244.61L34.7,247.31L36.87,254.33L41.2,260.15L43.37,261.54L45.54,262.74L47.71,262.63L49.88,262.49L52.05,265.48L54.22,265.01L56.39,265.48L58.55,265.48L60.72,268.48L65.06,271.48L67.23,271.74L69.4,271.48L71.57,272.58L75.9,275.54L78.07,275.76L80.24,274.08L82.41,274.33L86.75,274.04L88.92,273.89L93.25,275.43L95.42,274.44L99.76,274.37L101.93,276.27L104.1,277.07L106.27,279.63L108.43,279.49L110.6,281.06L114.94,280.99L117.11,282.52L123.61,283.77L125.78,283.77L127.95,283.22L130.12,285.01L134.46,286.87L136.63,288.01L143.13,290.09L145.3,289.87L147.47,289.95L149.64,289.18L151.81,289.14L153.98,289.91L156.14,289.84L158.31,290.75L160.48,290.68L162.65,291.37L164.82,290.9L166.99,291.59L171.33,293.05L173.49,293.35L177.83,293.75L180,293.2L182.17,292.32L184.34,292.72L186.51,293.24L188.67,292.91L201.69,297.11L203.86,296.67L212.53,298.83L214.7,298.98L221.2,298.9L223.37,299.85L225.54,299.82L227.71,301.02L229.88,302.16L232.05,301.72L234.22,301.13L236.39,302.16L240.72,302.52L242.89,302.89L245.06,303.95L247.23,303.69L251.57,303.84L253.73,304.97L268.92,304.64L271.08,305.16L279.76,304.86L281.93,305.52L288.43,306.62L290.6,306.73L301.45,308.48L303.61,308.34L323.13,308.96L325.3,308.3L336.14,308.7L338.31,308.3L342.65,309.51L344.82,309.4L346.99,309.1L349.16,309.95L353.49,309.4L355.66,310.2L362.17,309.95L364.34,309.69L381.69,310.13L383.86,310.71L388.19,311.7L390.36,311.81L394.7,311.96L396.87,312.36L403.37,313.05L405.54,313.35L425.06,314.26L427.23,314.59L442.41,314.48L444.58,314.92L455.42,315.54L457.59,315.9L464.1,315.83L466.27,316.2L492.29,316.42L494.46,316.49L503.13,316.71L505.3,316.71L526.99,317.44L529.16,317.59L540,317.59" style="vector-effect: non-scaling-stroke; fill: none; stroke: rgb(163, 165, 0); stroke-opacity: 1; stroke-width: 2px; opacity: 1;"/></g><g class="points"/><g class="text"/></g><g class="trace scatter tracebeb552" style="stroke-miterlimit: 2; opacity: 1;"><g class="fills"/><g class="errorbars"/><g class="lines"><path class="js-line" d="M0,51.3L2.17,58.06L4.34,89.4L8.67,170.16L10.84,187.68L13.01,192.32L15.18,205.27L19.52,233.67L21.69,246.54L23.86,246.44L26.02,251.52L30.36,265.08L32.53,267.28L34.7,268.96L36.87,274.88L39.04,275.58L41.2,279.09L43.37,280.55L45.54,284.1L47.71,286.69L49.88,286.44L52.05,290.57L54.22,290.82L58.55,295.14L60.72,295.5L65.06,297.95L67.23,297.92L71.57,300.62L73.73,300.18L75.9,301.79L78.07,302.3L86.75,304.79L88.92,305.27L91.08,306.87L93.25,307.28L95.42,307.02L97.59,307.86L106.27,310.27L108.43,309.91L114.94,310.35L117.11,311.44L125.78,312.07L127.95,312.54L130.12,312.1L132.29,313.13L145.3,315.58L147.47,315.87L153.98,315.39L156.14,315.72L175.66,316.67L177.83,317L182.17,317.11L184.34,317.22L188.67,317.11L190.84,317.44L199.52,317.7L201.69,317.88L249.4,318.83L251.57,318.79L260.24,319.49L262.41,319.45L292.77,319.45L294.94,319.6L540,320" style="vector-effect: non-scaling-stroke; fill: none; stroke: rgb(0, 191, 125); stroke-opacity: 1; stroke-width: 2px; opacity: 1;"/></g><g class="points"/><g class="text"/></g><g class="trace scatter traced53a8b" style="stroke-miterlimit: 2; opacity: 1;"><g class="fills"/><g class="errorbars"/><g class="lines"><path class="js-line" d="M0,28.67L4.34,108.88L6.51,150.13L10.84,194.52L13.01,202.78L21.69,245.41L23.86,245.3L28.19,258.94L30.36,264.1L34.7,267.31L36.87,274.63L39.04,275.54L41.2,279.09L43.37,280.95L45.54,281.06L47.71,283.88L49.88,285.23L52.05,288.7L54.22,289.36L58.55,293.38L60.72,294.44L62.89,295.76L65.06,295.54L69.4,295.36L71.57,296.42L75.9,298.98L78.07,298.94L82.41,301.39L84.58,300.95L91.08,303.25L93.25,305.16L110.6,309.14L112.77,309.07L117.11,310.49L119.28,309.91L125.78,310.64L127.95,311.41L130.12,310.97L132.29,311.44L138.8,312.83L140.96,313.42L149.64,313.93L151.81,314.08L162.65,314.84L164.82,314.92L171.33,315.76L173.49,316.09L188.67,316.01L190.84,316.31L203.86,317.11L206.02,317.15L210.36,317.37L212.53,317.18L221.2,317L223.37,317.07L238.55,317.59L240.72,317.7L245.06,317.77L247.23,317.88L327.47,319.2L329.64,319.2L360,319.27L362.17,319.31L399.04,319.85L401.2,319.82L464.1,319.96L466.27,319.96L507.47,320L509.64,320L540,320" style="vector-effect: non-scaling-stroke; fill: none; stroke: rgb(0, 176, 246); stroke-opacity: 1; stroke-width: 2px; opacity: 1;"/></g><g class="points"/><g class="text"/></g><g class="trace scatter tracec9cb84" style="stroke-miterlimit: 2; opacity: 1;"><g class="fills"/><g class="errorbars"/><g class="lines"><path class="js-line" d="M0,32.18L8.67,185.34L10.84,202.38L15.18,216.05L17.35,227.17L19.52,232.76L21.69,244.2L23.86,245.16L26.02,253.64L30.36,264.17L32.53,265.96L34.7,265.96L36.87,271.99L39.04,270.9L41.2,275.17L43.37,276.89L45.54,280L47.71,281.86L49.88,281.5L52.05,285.59L54.22,286.73L56.39,289.36L58.55,289.91L69.4,296.09L71.57,297L73.73,297.95L75.9,300.15L80.24,300.99L82.41,301.39L84.58,300.88L86.75,301.65L88.92,301.72L91.08,302.96L101.93,304.57L104.1,305.63L106.27,306.87L108.43,306.58L112.77,306.8L114.94,307.86L119.28,309.32L121.45,309.47L127.95,310.82L130.12,310.38L134.46,311.88L136.63,312.39L145.3,313.38L147.47,313.05L151.81,312.72L153.98,313.46L164.82,314.73L166.99,314.7L177.83,315.83L180,315.76L184.34,315.43L186.51,315.43L190.84,316.12L193.01,316.2L203.86,316.71L206.02,316.97L225.54,317.44L227.71,317.51L242.89,317.84L245.06,317.88L264.58,318.76L266.75,318.83L281.93,318.9L284.1,318.9L301.45,319.05L303.61,318.9L314.46,319.12L316.63,319.27L333.98,319.38L336.14,319.52L375.18,319.67L377.35,319.71L540,319.89" style="vector-effect: non-scaling-stroke; fill: none; stroke: rgb(231, 107, 243); stroke-opacity: 1; stroke-width: 2px; opacity: 1;"/></g><g class="points"/><g class="text"/></g></g></g><g class="overplot"/><path class="xlines-above crisp" d="" style="fill: none; stroke-width: 1px; stroke: rgb(0, 0, 0); stroke-opacity: 0;"/><path class="ylines-above crisp" d="" style="fill: none; stroke-width: 1px; stroke: rgb(0, 0, 0); stroke-opacity: 0;"/><g class="overlines-above"/><g class="xaxislayer-above"><path class="xtick ticks crisp" d="M0,421v5" transform="translate(80,0)" style="stroke: rgb(51, 51, 51); stroke-opacity: 1; stroke-width: 1px;"/><path class="xtick ticks crisp" d="M0,421v5" transform="translate(188.43,0)" style="stroke: rgb(51, 51, 51); stroke-opacity: 1; stroke-width: 1px;"/><path class="xtick ticks crisp" d="M0,421v5" transform="translate(296.87,0)" style="stroke: rgb(51, 51, 51); stroke-opacity: 1; stroke-width: 1px;"/><path class="xtick ticks crisp" d="M0,421v5" transform="translate(405.3,0)" style="stroke: rgb(51, 51, 51); stroke-opacity: 1; stroke-width: 1px;"/><path class="xtick ticks crisp" d="M0,421v5" transform="translate(513.73,0)" style="stroke: rgb(51, 51, 51); stroke-opacity: 1; stroke-width: 1px;"/><g class="xtick"><text text-anchor="middle" x="0" y="440.4" transform="translate(80,0)" style="font-family: 'Open Sans', verdana, arial, sans-serif; font-size: 12px; fill: rgb(51, 51, 51); fill-opacity: 1; white-space: pre; opacity: 1;">0</text></g><g class="xtick"><text text-anchor="middle" x="0" y="440.4" style="font-family: 'Open Sans', verdana, arial, sans-serif; font-size: 12px; fill: rgb(51, 51, 51); fill-opacity: 1; white-space: pre; opacity: 1;" transform="translate(188.43,0)">50</text></g><g class="xtick"><text text-anchor="middle" x="0" y="440.4" style="font-family: 'Open Sans', verdana, arial, sans-serif; font-size: 12px; fill: rgb(51, 51, 51); fill-opacity: 1; white-space: pre; opacity: 1;" transform="translate(296.87,0)">100</text></g><g class="xtick"><text text-anchor="middle" x="0" y="440.4" style="font-family: 'Open Sans', verdana, arial, sans-serif; font-size: 12px; fill: rgb(51, 51, 51); fill-opacity: 1; white-space: pre; opacity: 1;" transform="translate(405.3,0)">150</text></g><g class="xtick"><text text-anchor="middle" x="0" y="440.4" style="font-family: 'Open Sans', verdana, arial, sans-serif; font-size: 12px; fill: rgb(51, 51, 51); fill-opacity: 1; white-space: pre; opacity: 1;" transform="translate(513.73,0)">200</text></g></g><g class="yaxislayer-above"><path class="ytick ticks crisp" d="M79,0h-5" transform="translate(0,420)" style="stroke: rgb(51, 51, 51); stroke-opacity: 1; stroke-width: 1px;"/><path class="ytick ticks crisp" d="M79,0h-5" transform="translate(0,383.44)" style="stroke: rgb(51, 51, 51); stroke-opacity: 1; stroke-width: 1px;"/><path class="ytick ticks crisp" d="M79,0h-5" transform="translate(0,346.87)" style="stroke: rgb(51, 51, 51); stroke-opacity: 1; stroke-width: 1px;"/><path class="ytick ticks crisp" d="M79,0h-5" transform="translate(0,310.31)" style="stroke: rgb(51, 51, 51); stroke-opacity: 1; stroke-width: 1px;"/><path class="ytick ticks crisp" d="M79,0h-5" transform="translate(0,273.75)" style="stroke: rgb(51, 51, 51); stroke-opacity: 1; stroke-width: 1px;"/><path class="ytick ticks crisp" d="M79,0h-5" transform="translate(0,237.18)" style="stroke: rgb(51, 51, 51); stroke-opacity: 1; stroke-width: 1px;"/><path class="ytick ticks crisp" d="M79,0h-5" transform="translate(0,200.62)" style="stroke: rgb(51, 51, 51); stroke-opacity: 1; stroke-width: 1px;"/><path class="ytick ticks crisp" d="M79,0h-5" transform="translate(0,164.06)" style="stroke: rgb(51, 51, 51); stroke-opacity: 1; stroke-width: 1px;"/><path class="ytick ticks crisp" d="M79,0h-5" transform="translate(0,127.5)" style="stroke: rgb(51, 51, 51); stroke-opacity: 1; stroke-width: 1px;"/><g class="ytick"><text text-anchor="end" x="71.6" y="4.199999999999999" transform="translate(0,420)" style="font-family: 'Open Sans', verdana, arial, sans-serif; font-size: 12px; fill: rgb(51, 51, 51); fill-opacity: 1; white-space: pre; opacity: 1;">0</text></g><g class="ytick"><text text-anchor="end" x="71.6" y="4.199999999999999" style="font-family: 'Open Sans', verdana, arial, sans-serif; font-size: 12px; fill: rgb(51, 51, 51); fill-opacity: 1; white-space: pre; opacity: 1;" transform="translate(0,383.44)">10</text></g><g class="ytick"><text text-anchor="end" x="71.6" y="4.199999999999999" style="font-family: 'Open Sans', verdana, arial, sans-serif; font-size: 12px; fill: rgb(51, 51, 51); fill-opacity: 1; white-space: pre; opacity: 1;" transform="translate(0,346.87)">20</text></g><g class="ytick"><text text-anchor="end" x="71.6" y="4.199999999999999" style="font-family: 'Open Sans', verdana, arial, sans-serif; font-size: 12px; fill: rgb(51, 51, 51); fill-opacity: 1; white-space: pre; opacity: 1;" transform="translate(0,310.31)">30</text></g><g class="ytick"><text text-anchor="end" x="71.6" y="4.199999999999999" style="font-family: 'Open Sans', verdana, arial, sans-serif; font-size: 12px; fill: rgb(51, 51, 51); fill-opacity: 1; white-space: pre; opacity: 1;" transform="translate(0,273.75)">40</text></g><g class="ytick"><text text-anchor="end" x="71.6" y="4.199999999999999" style="font-family: 'Open Sans', verdana, arial, sans-serif; font-size: 12px; fill: rgb(51, 51, 51); fill-opacity: 1; white-space: pre; opacity: 1;" transform="translate(0,237.18)">50</text></g><g class="ytick"><text text-anchor="end" x="71.6" y="4.199999999999999" style="font-family: 'Open Sans', verdana, arial, sans-serif; font-size: 12px; fill: rgb(51, 51, 51); fill-opacity: 1; white-space: pre; opacity: 1;" transform="translate(0,200.62)">60</text></g><g class="ytick"><text text-anchor="end" x="71.6" y="4.199999999999999" style="font-family: 'Open Sans', verdana, arial, sans-serif; font-size: 12px; fill: rgb(51, 51, 51); fill-opacity: 1; white-space: pre; opacity: 1;" transform="translate(0,164.06)">70</text></g><g class="ytick"><text text-anchor="end" x="71.6" y="4.199999999999999" style="font-family: 'Open Sans', verdana, arial, sans-serif; font-size: 12px; fill: rgb(51, 51, 51); fill-opacity: 1; white-space: pre; opacity: 1;" transform="translate(0,127.5)">80</text></g></g><g class="overaxes-above"/></g></g><g class="polarlayer"/><g class="ternarylayer"/><g class="geolayer"/><g class="funnelarealayer"/><g class="pielayer"/><g class="iciclelayer"/><g class="treemaplayer"/><g class="sunburstlayer"/><g class="glimages"/><defs id="topdefs-1dc97d"><g class="clips"/></defs><g class="layer-above"><g class="imagelayer"/><g class="shapelayer"/></g><g class="infolayer"><g class="g-gtitle"><text class="gtitle" x="350" y="50" text-anchor="middle" dy="0em" style="font-family: 'Open Sans', verdana, arial, sans-serif; font-size: 17px; fill: rgb(51, 51, 51); opacity: 1; font-weight: normal; white-space: pre;">Average Rank: ascad_0-s_eff_cnn_id (original)</text></g><g class="g-xtitle"/><g class="g-ytitle"/></g></svg>