<svg class="main-svg" xmlns="http://www.w3.org/2000/svg" xmlns:xlink="http://www.w3.org/1999/xlink" width="700" height="500" style="" viewBox="0 0 700 500"><rect x="0" y="0" width="700" height="500" style="fill: rgb(255, 255, 255); fill-opacity: 1;"/><defs id="defs-986914"><g class="clips"><clipPath id="clip986914xyplot" class="plotclip"><rect width="540" height="320"/></clipPath><clipPath class="axesclip" id="clip986914x"><rect x="80" y="0" width="540" height="500"/></clipPath><clipPath class="axesclip" id="clip986914y"><rect x="0" y="100" width="700" height="320"/></clipPath><clipPath class="axesclip" id="clip986914xy"><rect x="80" y="100" width="540" height="320"/></clipPath></g><g class="gradients"/><g class="patterns"/></defs><g class="bglayer"><rect class="bg" x="80" y="100" width="540" height="320" style="fill: rgb(229, 236, 246); fill-opacity: 1; stroke-width: 0;"/></g><g class="layer-below"><g class="imagelayer"/><g class="shapelayer"/></g><g class="cartesianlayer"><g class="subplot xy"><g class="layer-subplot"><g class="shapelayer"/><g class="imagelayer"/></g><g class="gridlayer"><g class="x"><path class="xgrid crisp" transform="translate(188.43,0)" d="M0,100v320" style="stroke: rgb(255, 255, 255); stroke-opacity: 1; stroke-width: 1px;"/><path class="xgrid crisp" transform="translate(296.87,0)" d="M0,100v320" style="stroke: rgb(255, 255, 255); stroke-opacity: 1; stroke-width: 1px;"/><path class="xgrid crisp" transform="translate(405.3,0)" d="M0,100v320" style="stroke: rgb(255, 255, 255); stroke-opacity: 1; stroke-width: 1px;"/><path class="xgrid crisp" transform="translate(513.73,0)" d="M0,100v320" style="stroke: rgb(255, 255, 255); stroke-opacity: 1; stroke-width: 1px;"/></g><g class="y"><path class="ygrid crisp" transform="translate(0,374.05)" d="M80,0h540" style="stroke: rgb(255, 255, 255); stroke-opacity: 1; stroke-width: 1px;"/><path class="ygrid crisp" transform="translate(0,328.1)" d="M80,0h540" style="stroke: rgb(255, 255, 255); stroke-opacity: 1; stroke-width: 1px;"/><path class="ygrid crisp" transform="translate(0,282.15)" d="M80,0h540" style="stroke: rgb(255, 255, 255); stroke-opacity: 1; stroke-width: 1px;"/><path class="ygrid crisp" transform="translate(0,236.2)" d="M80,0h540" style="stroke: rgb(255, 255, 255); stroke-opacity: 1; stroke-width: 1px;"/><path class="ygrid crisp" transform="translate(0,190.25)" d="M80,0h540" style="stroke: rgb(255, 255, 255); stroke-opacity: 1; stroke-width: 1px;"/><path class="ygrid crisp" transform="translate(0,144.3)" d="M80,0h540" style="stroke: rgb(255, 255, 255); stroke-opacity: 1; stroke-width: 1px;"/></g></g><g class="zerolinelayer"><path class="xzl zl crisp" transform="translate(80,0)" d="M0,100v320" style="stroke: rgb(255, 255, 255); stroke-opacity: 1; stroke-width: 2px;"/><path class="yzl zl crisp" transform="translate(0,420)" d="M80,0h540" style="stroke: rgb(255, 255, 255); stroke-opacity: 1; stroke-width: 2px;"/></g><path class="xlines-below"/><path class="ylines-below"/><g class="overlines-below"/><g class="xaxislayer-below"/><g class="yaxislayer-below"/><g class="overaxes-below"/><g class="plot" transform="translate(80,100)" clip-path="url(#clip986914xyplot)"><g class="scatterlayer mlayer"><g class="trace scatter tracec38123" style="stroke-miterlimit: 2; opacity: 1;"><g class="fills"/><g class="errorbars"/><g class="lines"><path class="js-line" d="M0,98.66L2.17,62.84L4.34,58.2L6.51,54.47L8.67,56.05L10.84,61.01L13.01,68.26L15.18,72.66L17.35,81.93L19.52,63.06L21.69,56.59L23.86,72.76L26.02,59.85L28.19,65.31L30.36,57.24L32.53,67.57L34.7,63.82L36.87,62.04L39.04,64.01L41.2,62.49L43.37,63.67L45.54,58.65L47.71,58.8L49.88,70.26L52.05,63L54.22,76.7L56.39,79.27L58.55,79.24L60.72,87.61L65.06,101.98L67.23,100.55L69.4,91.31L71.57,94.32L73.73,90.16L75.9,95.82L80.24,79.1L82.41,71.44L84.58,69.76L86.75,58.97L88.92,54.21L91.08,59.5L95.42,43.87L97.59,41.59L99.76,32.76L101.93,42.41L104.1,48.61L106.27,46.23L110.6,38.55L112.77,45.12L114.94,54.34L117.11,51.18L119.28,48.1L121.45,41.85L123.61,38.12L125.78,36.42L127.95,42.02L130.12,29.11L132.29,31.9L134.46,26.21L136.63,25.96L138.8,22.57L140.96,21.09L143.13,28.06L145.3,26.71L147.47,32.39L149.64,27.01L151.81,29.75L153.98,24.98L156.14,24.65L158.31,23.41L160.48,20.74L162.65,25.84L164.82,22.86L169.16,24.36L171.33,26.28L173.49,31.02L175.66,30.74L177.83,37.18L180,40.9L182.17,41.04L184.34,43.73L188.67,49.5L190.84,56.72L193.01,51.83L195.18,50.93L197.35,50.38L199.52,56.21L201.69,63.31L203.86,64.88L206.02,65.41L208.19,61.54L210.36,61.71L212.53,64.4L214.7,55.99L216.87,60.13L219.04,59.04L221.2,56.77L223.37,61.06L225.54,67.18L227.71,67.98L229.88,67.76L232.05,64.06L234.22,71.01L238.55,65.96L240.72,67.5L242.89,67.87L245.06,66.89L247.23,74.05L249.4,71.25L253.73,73.68L255.9,72.2L258.07,76.44L260.24,72.24L262.41,72.02L264.58,69.67L266.75,65.63L268.92,69.76L271.08,69.83L273.25,59.88L275.42,57.1L277.59,64.38L279.76,61.29L281.93,59.67L284.1,57.91L286.27,61.36L288.43,60.96L290.6,62.76L292.77,58.04L294.94,60.14L297.11,62.46L299.28,61.51L301.45,55.81L303.61,57.56L305.78,60.09L307.95,60.64L310.12,60.39L312.29,58.78L314.46,65.54L316.63,65.41L318.8,65.99L320.96,60.22L323.13,56.17L325.3,59.67L329.64,58.11L331.81,61.04L333.98,59.61L336.14,61.73L338.31,65.31L340.48,63.64L342.65,63.74L344.82,68.1L346.99,67.84L349.16,69.16L351.33,64.95L353.49,66.63L355.66,65.54L357.83,66.81L360,65.54L362.17,67.55L364.34,69.08L366.51,68.56L368.67,74.12L370.84,72.17L373.01,72.46L375.18,74.74L377.35,79.72L379.52,76.88L381.69,76.12L383.86,80.58L386.02,79.07L388.19,79.84L390.36,82.23L392.53,79.39L394.7,80.69L396.87,79.49L399.04,79.03L401.2,81.74L403.37,78.21L405.54,78.51L409.88,77.65L412.05,78.3L414.22,80.83L416.39,81.69L418.55,80.18L420.72,82.44L425.06,77.25L427.23,80.21L429.4,74.33L431.57,75.11L433.73,75.48L435.9,77.5L438.07,80.05L440.24,79.14L442.41,75.69L444.58,79.12L446.75,77.39L448.92,76.98L451.08,76.05L453.25,76.7L457.59,79.03L459.76,77.23L461.93,77.17L464.1,81.33L466.27,82.31L468.43,80.23L470.6,81.85L472.77,86.97L477.11,93.42L479.28,97.28L481.45,94.08L483.61,94.6L485.78,97.51L487.95,95.05L490.12,97.74L492.29,98.25L494.46,97.98L496.63,98.53L498.8,95.11L500.96,98.9L505.3,95.9L507.47,100.6L511.81,100.37L513.98,104.11L516.14,105.4L518.31,111.86L520.48,113.42L522.65,114.03L529.16,111.41L531.33,107.26L533.49,107.9L535.66,113.8L540,115.45" style="vector-effect: non-scaling-stroke; fill: none; stroke: rgb(99, 110, 250); stroke-opacity: 1; stroke-width: 2px; opacity: 1;"/></g><g class="points"/><g class="text"/></g><g class="trace scatter trace0fe46c" style="stroke-miterlimit: 2; opacity: 1;"><g class="fills"/><g class="errorbars"/><g class="lines"><path class="js-line" d="M0,98.66L2.17,62.84L4.34,58.2L6.51,54.47L8.67,56.05L10.84,61.01L13.01,68.26L15.18,72.66L17.35,81.93L19.52,63.06L21.69,56.59L23.86,72.76L26.02,59.85L28.19,65.31L30.36,57.24L32.53,67.57L34.7,63.82L36.87,62.04L39.04,64.01L41.2,62.49L43.37,63.67L45.54,58.65L47.71,58.8L49.88,70.26L52.05,63L54.22,76.7L56.39,79.27L58.55,79.24L60.72,87.61L65.06,101.98L67.23,100.55L69.4,91.31L71.57,94.32L73.73,90.16L75.9,95.82L80.24,79.1L82.41,71.44L84.58,69.76L86.75,58.97L88.92,54.21L91.08,59.5L95.42,43.87L97.59,41.59L99.76,32.76L101.93,42.41L104.1,48.61L106.27,46.23L110.6,38.55L112.77,45.12L114.94,54.34L117.11,51.18L119.28,48.1L121.45,41.85L123.61,38.12L125.78,36.42L127.95,42.02L130.12,29.11L132.29,31.9L134.46,26.21L136.63,25.96L138.8,22.57L140.96,21.09L143.13,28.06L145.3,26.71L147.47,32.39L149.64,27.01L151.81,29.75L153.98,24.98L156.14,24.65L158.31,23.41L160.48,20.74L162.65,25.84L164.82,22.86L169.16,24.36L171.33,26.28L173.49,31.02L175.66,30.74L177.83,37.18L180,40.9L182.17,41.04L184.34,43.73L188.67,49.5L190.84,56.72L193.01,51.83L195.18,50.93L197.35,50.38L199.52,56.21L201.69,63.31L203.86,64.88L206.02,65.41L208.19,61.54L210.36,61.71L212.53,64.4L214.7,55.99L216.87,60.13L219.04,59.04L221.2,56.77L223.37,61.06L225.54,67.18L227.71,67.98L229.88,67.76L232.05,64.06L234.22,71.01L238.55,65.96L240.72,67.5L242.89,67.87L245.06,66.89L247.23,74.05L249.4,71.25L253.73,73.68L255.9,72.2L258.07,76.44L260.24,72.24L262.41,72.02L264.58,69.67L266.75,65.63L268.92,69.76L271.08,69.83L273.25,59.88L275.42,57.1L277.59,64.38L279.76,61.29L281.93,59.67L284.1,57.91L286.27,61.36L288.43,60.96L290.6,62.76L292.77,58.04L294.94,60.14L297.11,62.46L299.28,61.51L301.45,55.81L303.61,57.56L305.78,60.09L307.95,60.64L310.12,60.39L312.29,58.78L314.46,65.54L316.63,65.41L318.8,65.99L320.96,60.22L323.13,56.17L325.3,59.67L329.64,58.11L331.81,61.04L333.98,59.61L336.14,61.73L338.31,65.31L340.48,63.64L342.65,63.74L344.82,68.1L346.99,67.84L349.16,69.16L351.33,64.95L353.49,66.63L355.66,65.54L357.83,66.81L360,65.54L362.17,67.55L364.34,69.08L366.51,68.56L368.67,74.12L370.84,72.17L373.01,72.46L375.18,74.74L377.35,79.72L379.52,76.88L381.69,76.12L383.86,80.58L386.02,79.07L388.19,79.84L390.36,82.23L392.53,79.39L394.7,80.69L396.87,79.49L399.04,79.03L401.2,81.74L403.37,78.21L405.54,78.51L409.88,77.65L412.05,78.3L414.22,80.83L416.39,81.69L418.55,80.18L420.72,82.44L425.06,77.25L427.23,80.21L429.4,74.33L431.57,75.11L433.73,75.48L435.9,77.5L438.07,80.05L440.24,79.14L442.41,75.69L444.58,79.12L446.75,77.39L448.92,76.98L451.08,76.05L453.25,76.7L457.59,79.03L459.76,77.23L461.93,77.17L464.1,81.33L466.27,82.31L468.43,80.23L470.6,81.85L472.77,86.97L477.11,93.42L479.28,97.28L481.45,94.08L483.61,94.6L485.78,97.51L487.95,95.05L490.12,97.74L492.29,98.25L494.46,97.98L496.63,98.53L498.8,95.11L500.96,98.9L505.3,95.9L507.47,100.6L511.81,100.37L513.98,104.11L516.14,105.4L518.31,111.86L520.48,113.42L522.65,114.03L529.16,111.41L531.33,107.26L533.49,107.9L535.66,113.8L540,115.45" style="vector-effect: non-scaling-stroke; fill: none; stroke: rgb(239, 85, 59); stroke-opacity: 1; stroke-width: 2px; opacity: 1;"/></g><g class="points"/><g class="text"/></g><g class="trace scatter trace85f7b9" style="stroke-miterlimit: 2; opacity: 1;"><g class="fills"/><g class="errorbars"/><g class="lines"><path class="js-line" d="M0,98.66L2.17,62.84L4.34,58.2L6.51,54.47L8.67,56.05L10.84,61.01L13.01,68.26L15.18,72.66L17.35,81.93L19.52,63.06L21.69,56.59L23.86,72.76L26.02,59.85L28.19,65.31L30.36,57.24L32.53,67.57L34.7,63.82L36.87,62.04L39.04,64.01L41.2,62.49L43.37,63.67L45.54,58.65L47.71,58.8L49.88,70.26L52.05,63L54.22,76.7L56.39,79.27L58.55,79.24L60.72,87.61L65.06,101.98L67.23,100.55L69.4,91.31L71.57,94.32L73.73,90.16L75.9,95.82L80.24,79.1L82.41,71.44L84.58,69.76L86.75,58.97L88.92,54.21L91.08,59.5L95.42,43.87L97.59,41.59L99.76,32.76L101.93,42.41L104.1,48.61L106.27,46.23L110.6,38.55L112.77,45.12L114.94,54.34L117.11,51.18L119.28,48.1L121.45,41.85L123.61,38.12L125.78,36.42L127.95,42.02L130.12,29.11L132.29,31.9L134.46,26.21L136.63,25.96L138.8,22.57L140.96,21.09L143.13,28.06L145.3,26.71L147.47,32.39L149.64,27.01L151.81,29.75L153.98,24.98L156.14,24.65L158.31,23.41L160.48,20.74L162.65,25.84L164.82,22.86L169.16,24.36L171.33,26.28L173.49,31.02L175.66,30.74L177.83,37.18L180,40.9L182.17,41.04L184.34,43.73L188.67,49.5L190.84,56.72L193.01,51.83L195.18,50.93L197.35,50.38L199.52,56.21L201.69,63.31L203.86,64.88L206.02,65.41L208.19,61.54L210.36,61.71L212.53,64.4L214.7,55.99L216.87,60.13L219.04,59.04L221.2,56.77L223.37,61.06L225.54,67.18L227.71,67.98L229.88,67.76L232.05,64.06L234.22,71.01L238.55,65.96L240.72,67.5L242.89,67.87L245.06,66.89L247.23,74.05L249.4,71.25L253.73,73.68L255.9,72.2L258.07,76.44L260.24,72.24L262.41,72.02L264.58,69.67L266.75,65.63L268.92,69.76L271.08,69.83L273.25,59.88L275.42,57.1L277.59,64.38L279.76,61.29L281.93,59.67L284.1,57.91L286.27,61.36L288.43,60.96L290.6,62.76L292.77,58.04L294.94,60.14L297.11,62.46L299.28,61.51L301.45,55.81L303.61,57.56L305.78,60.09L307.95,60.64L310.12,60.39L312.29,58.78L314.46,65.54L316.63,65.41L318.8,65.99L320.96,60.22L323.13,56.17L325.3,59.67L329.64,58.11L331.81,61.04L333.98,59.61L336.14,61.73L338.31,65.31L340.48,63.64L342.65,63.74L344.82,68.1L346.99,67.84L349.16,69.16L351.33,64.95L353.49,66.63L355.66,65.54L357.83,66.81L360,65.54L362.17,67.55L364.34,69.08L366.51,68.56L368.67,74.12L370.84,72.17L373.01,72.46L375.18,74.74L377.35,79.72L379.52,76.88L381.69,76.12L383.86,80.58L386.02,79.07L388.19,79.84L390.36,82.23L392.53,79.39L394.7,80.69L396.87,79.49L399.04,79.03L401.2,81.74L403.37,78.21L405.54,78.51L409.88,77.65L412.05,78.3L414.22,80.83L416.39,81.69L418.55,80.18L420.72,82.44L425.06,77.25L427.23,80.21L429.4,74.33L431.57,75.11L433.73,75.48L435.9,77.5L438.07,80.05L440.24,79.14L442.41,75.69L444.58,79.12L446.75,77.39L448.92,76.98L451.08,76.05L453.25,76.7L457.59,79.03L459.76,77.23L461.93,77.17L464.1,81.33L466.27,82.31L468.43,80.23L470.6,81.85L472.77,86.97L477.11,93.42L479.28,97.28L481.45,94.08L483.61,94.6L485.78,97.51L487.95,95.05L490.12,97.74L492.29,98.25L494.46,97.98L496.63,98.53L498.8,95.11L500.96,98.9L505.3,95.9L507.47,100.6L511.81,100.37L513.98,104.11L516.14,105.4L518.31,111.86L520.48,113.42L522.65,114.03L529.16,111.41L531.33,107.26L533.49,107.9L535.66,113.8L540,115.45" style="vector-effect: non-scaling-stroke; fill: none; stroke: rgb(0, 204, 150); stroke-opacity: 1; stroke-width: 2px; opacity: 1;"/></g><g class="points"/><g class="text"/></g><g class="trace scatter trace0a27c8" style="stroke-miterlimit: 2; opacity: 1;"><g class="fills"/><g class="errorbars"/><g class="lines"><path class="js-line" d="M0,98.66L2.17,62.84L4.34,58.2L6.51,54.47L8.67,56.05L10.84,61.01L13.01,68.26L15.18,72.66L17.35,81.93L19.52,63.06L21.69,56.59L23.86,72.76L26.02,59.85L28.19,65.31L30.36,57.24L32.53,67.57L34.7,63.82L36.87,62.04L39.04,64.01L41.2,62.49L43.37,63.67L45.54,58.65L47.71,58.8L49.88,70.26L52.05,63L54.22,76.7L56.39,79.27L58.55,79.24L60.72,87.61L65.06,101.98L67.23,100.55L69.4,91.31L71.57,94.32L73.73,90.16L75.9,95.82L80.24,79.1L82.41,71.44L84.58,69.76L86.75,58.97L88.92,54.21L91.08,59.5L95.42,43.87L97.59,41.59L99.76,32.76L101.93,42.41L104.1,48.61L106.27,46.23L110.6,38.55L112.77,45.12L114.94,54.34L117.11,51.18L119.28,48.1L121.45,41.85L123.61,38.12L125.78,36.42L127.95,42.02L130.12,29.11L132.29,31.9L134.46,26.21L136.63,25.96L138.8,22.57L140.96,21.09L143.13,28.06L145.3,26.71L147.47,32.39L149.64,27.01L151.81,29.75L153.98,24.98L156.14,24.65L158.31,23.41L160.48,20.74L162.65,25.84L164.82,22.86L169.16,24.36L171.33,26.28L173.49,31.02L175.66,30.74L177.83,37.18L180,40.9L182.17,41.04L184.34,43.73L188.67,49.5L190.84,56.72L193.01,51.83L195.18,50.93L197.35,50.38L199.52,56.21L201.69,63.31L203.86,64.88L206.02,65.41L208.19,61.54L210.36,61.71L212.53,64.4L214.7,55.99L216.87,60.13L219.04,59.04L221.2,56.77L223.37,61.06L225.54,67.18L227.71,67.98L229.88,67.76L232.05,64.06L234.22,71.01L238.55,65.96L240.72,67.5L242.89,67.87L245.06,66.89L247.23,74.05L249.4,71.25L253.73,73.68L255.9,72.2L258.07,76.44L260.24,72.24L262.41,72.02L264.58,69.67L266.75,65.63L268.92,69.76L271.08,69.83L273.25,59.88L275.42,57.1L277.59,64.38L279.76,61.29L281.93,59.67L284.1,57.91L286.27,61.36L288.43,60.96L290.6,62.76L292.77,58.04L294.94,60.14L297.11,62.46L299.28,61.51L301.45,55.81L303.61,57.56L305.78,60.09L307.95,60.64L310.12,60.39L312.29,58.78L314.46,65.54L316.63,65.41L318.8,65.99L320.96,60.22L323.13,56.17L325.3,59.67L329.64,58.11L331.81,61.04L333.98,59.61L336.14,61.73L338.31,65.31L340.48,63.64L342.65,63.74L344.82,68.1L346.99,67.84L349.16,69.16L351.33,64.95L353.49,66.63L355.66,65.54L357.83,66.81L360,65.54L362.17,67.55L364.34,69.08L366.51,68.56L368.67,74.12L370.84,72.17L373.01,72.46L375.18,74.74L377.35,79.72L379.52,76.88L381.69,76.12L383.86,80.58L386.02,79.07L388.19,79.84L390.36,82.23L392.53,79.39L394.7,80.69L396.87,79.49L399.04,79.03L401.2,81.74L403.37,78.21L405.54,78.51L409.88,77.65L412.05,78.3L414.22,80.83L416.39,81.69L418.55,80.18L420.72,82.44L425.06,77.25L427.23,80.21L429.4,74.33L431.57,75.11L433.73,75.48L435.9,77.5L438.07,80.05L440.24,79.14L442.41,75.69L444.58,79.12L446.75,77.39L448.92,76.98L451.08,76.05L453.25,76.7L457.59,79.03L459.76,77.23L461.93,77.17L464.1,81.33L466.27,82.31L468.43,80.23L470.6,81.85L472.77,86.97L477.11,93.42L479.28,97.28L481.45,94.08L483.61,94.6L485.78,97.51L487.95,95.05L490.12,97.74L492.29,98.25L494.46,97.98L496.63,98.53L498.8,95.11L500.96,98.9L505.3,95.9L507.47,100.6L511.81,100.37L513.98,104.11L516.14,105.4L518.31,111.86L520.48,113.42L522.65,114.03L529.16,111.41L531.33,107.26L533.49,107.9L535.66,113.8L540,115.45" style="vector-effect: non-scaling-stroke; fill: none; stroke: rgb(171, 99, 250); stroke-opacity: 1; stroke-width: 2px; opacity: 1;"/></g><g class="points"/><g class="text"/></g><g class="trace scatter trace382302" style="stroke-miterlimit: 2; opacity: 1;"><g class="fills"/><g class="errorbars"/><g class="lines"><path class="js-line" d="M0,98.66L2.17,62.84L4.34,58.2L6.51,54.47L8.67,56.05L10.84,61.01L13.01,68.26L15.18,72.66L17.35,81.93L19.52,63.06L21.69,56.59L23.86,72.76L26.02,59.85L28.19,65.31L30.36,57.24L32.53,67.57L34.7,63.82L36.87,62.04L39.04,64.01L41.2,62.49L43.37,63.67L45.54,58.65L47.71,58.8L49.88,70.26L52.05,63L54.22,76.7L56.39,79.27L58.55,79.24L60.72,87.61L65.06,101.98L67.23,100.55L69.4,91.31L71.57,94.32L73.73,90.16L75.9,95.82L80.24,79.1L82.41,71.44L84.58,69.76L86.75,58.97L88.92,54.21L91.08,59.5L95.42,43.87L97.59,41.59L99.76,32.76L101.93,42.41L104.1,48.61L106.27,46.23L110.6,38.55L112.77,45.12L114.94,54.34L117.11,51.18L119.28,48.1L121.45,41.85L123.61,38.12L125.78,36.42L127.95,42.02L130.12,29.11L132.29,31.9L134.46,26.21L136.63,25.96L138.8,22.57L140.96,21.09L143.13,28.06L145.3,26.71L147.47,32.39L149.64,27.01L151.81,29.75L153.98,24.98L156.14,24.65L158.31,23.41L160.48,20.74L162.65,25.84L164.82,22.86L169.16,24.36L171.33,26.28L173.49,31.02L175.66,30.74L177.83,37.18L180,40.9L182.17,41.04L184.34,43.73L188.67,49.5L190.84,56.72L193.01,51.83L195.18,50.93L197.35,50.38L199.52,56.21L201.69,63.31L203.86,64.88L206.02,65.41L208.19,61.54L210.36,61.71L212.53,64.4L214.7,55.99L216.87,60.13L219.04,59.04L221.2,56.77L223.37,61.06L225.54,67.18L227.71,67.98L229.88,67.76L232.05,64.06L234.22,71.01L238.55,65.96L240.72,67.5L242.89,67.87L245.06,66.89L247.23,74.05L249.4,71.25L253.73,73.68L255.9,72.2L258.07,76.44L260.24,72.24L262.41,72.02L264.58,69.67L266.75,65.63L268.92,69.76L271.08,69.83L273.25,59.88L275.42,57.1L277.59,64.38L279.76,61.29L281.93,59.67L284.1,57.91L286.27,61.36L288.43,60.96L290.6,62.76L292.77,58.04L294.94,60.14L297.11,62.46L299.28,61.51L301.45,55.81L303.61,57.56L305.78,60.09L307.95,60.64L310.12,60.39L312.29,58.78L314.46,65.54L316.63,65.41L318.8,65.99L320.96,60.22L323.13,56.17L325.3,59.67L329.64,58.11L331.81,61.04L333.98,59.61L336.14,61.73L338.31,65.31L340.48,63.64L342.65,63.74L344.82,68.1L346.99,67.84L349.16,69.16L351.33,64.95L353.49,66.63L355.66,65.54L357.83,66.81L360,65.54L362.17,67.55L364.34,69.08L366.51,68.56L368.67,74.12L370.84,72.17L373.01,72.46L375.18,74.74L377.35,79.72L379.52,76.88L381.69,76.12L383.86,80.58L386.02,79.07L388.19,79.84L390.36,82.23L392.53,79.39L394.7,80.69L396.87,79.49L399.04,79.03L401.2,81.74L403.37,78.21L405.54,78.51L409.88,77.65L412.05,78.3L414.22,80.83L416.39,81.69L418.55,80.18L420.72,82.44L425.06,77.25L427.23,80.21L429.4,74.33L431.57,75.11L433.73,75.48L435.9,77.5L438.07,80.05L440.24,79.14L442.41,75.69L444.58,79.12L446.75,77.39L448.92,76.98L451.08,76.05L453.25,76.7L457.59,79.03L459.76,77.23L461.93,77.17L464.1,81.33L466.27,82.31L468.43,80.23L470.6,81.85L472.77,86.97L477.11,93.42L479.28,97.28L481.45,94.08L483.61,94.6L485.78,97.51L487.95,95.05L490.12,97.74L492.29,98.25L494.46,97.98L496.63,98.53L498.8,95.11L500.96,98.9L505.3,95.9L507.47,100.6L511.81,100.37L513.98,104.11L516.14,105.4L518.31,111.86L520.48,113.42L522.65,114.03L529.16,111.41L531.33,107.26L533.49,107.9L535.66,113.8L540,115.45" style="vector-effect: non-scaling-stroke; fill: none; stroke: rgb(255, 161, 90); stroke-opacity: 1; stroke-width: 2px; opacity: 1;"/></g><g class="points"/><g class="text"/></g><g class="trace scatter tracefcc3e3" style="stroke-miterlimit: 2; opacity: 1;"><g class="fills"/><g class="errorbars"/><g class="lines"><path class="js-line" d="M0,98.66L2.17,62.84L4.34,58.2L6.51,54.47L8.67,56.05L10.84,61.01L13.01,68.26L15.18,72.66L17.35,81.93L19.52,63.06L21.69,56.59L23.86,72.76L26.02,59.85L28.19,65.31L30.36,57.24L32.53,67.57L34.7,63.82L36.87,62.04L39.04,64.01L41.2,62.49L43.37,63.67L45.54,58.65L47.71,58.8L49.88,70.26L52.05,63L54.22,76.7L56.39,79.27L58.55,79.24L60.72,87.61L65.06,101.98L67.23,100.55L69.4,91.31L71.57,94.32L73.73,90.16L75.9,95.82L80.24,79.1L82.41,71.44L84.58,69.76L86.75,58.97L88.92,54.21L91.08,59.5L95.42,43.87L97.59,41.59L99.76,32.76L101.93,42.41L104.1,48.61L106.27,46.23L110.6,38.55L112.77,45.12L114.94,54.34L117.11,51.18L119.28,48.1L121.45,41.85L123.61,38.12L125.78,36.42L127.95,42.02L130.12,29.11L132.29,31.9L134.46,26.21L136.63,25.96L138.8,22.57L140.96,21.09L143.13,28.06L145.3,26.71L147.47,32.39L149.64,27.01L151.81,29.75L153.98,24.98L156.14,24.65L158.31,23.41L160.48,20.74L162.65,25.84L164.82,22.86L169.16,24.36L171.33,26.28L173.49,31.02L175.66,30.74L177.83,37.18L180,40.9L182.17,41.04L184.34,43.73L188.67,49.5L190.84,56.72L193.01,51.83L195.18,50.93L197.35,50.38L199.52,56.21L201.69,63.31L203.86,64.88L206.02,65.41L208.19,61.54L210.36,61.71L212.53,64.4L214.7,55.99L216.87,60.13L219.04,59.04L221.2,56.77L223.37,61.06L225.54,67.18L227.71,67.98L229.88,67.76L232.05,64.06L234.22,71.01L238.55,65.96L240.72,67.5L242.89,67.87L245.06,66.89L247.23,74.05L249.4,71.25L253.73,73.68L255.9,72.2L258.07,76.44L260.24,72.24L262.41,72.02L264.58,69.67L266.75,65.63L268.92,69.76L271.08,69.83L273.25,59.88L275.42,57.1L277.59,64.38L279.76,61.29L281.93,59.67L284.1,57.91L286.27,61.36L288.43,60.96L290.6,62.76L292.77,58.04L294.94,60.14L297.11,62.46L299.28,61.51L301.45,55.81L303.61,57.56L305.78,60.09L307.95,60.64L310.12,60.39L312.29,58.78L314.46,65.54L316.63,65.41L318.8,65.99L320.96,60.22L323.13,56.17L325.3,59.67L329.64,58.11L331.81,61.04L333.98,59.61L336.14,61.73L338.31,65.31L340.48,63.64L342.65,63.74L344.82,68.1L346.99,67.84L349.16,69.16L351.33,64.95L353.49,66.63L355.66,65.54L357.83,66.81L360,65.54L362.17,67.55L364.34,69.08L366.51,68.56L368.67,74.12L370.84,72.17L373.01,72.46L375.18,74.74L377.35,79.72L379.52,76.88L381.69,76.12L383.86,80.58L386.02,79.07L388.19,79.84L390.36,82.23L392.53,79.39L394.7,80.69L396.87,79.49L399.04,79.03L401.2,81.74L403.37,78.21L405.54,78.51L409.88,77.65L412.05,78.3L414.22,80.83L416.39,81.69L418.55,80.18L420.72,82.44L425.06,77.25L427.23,80.21L429.4,74.33L431.57,75.11L433.73,75.48L435.9,77.5L438.07,80.05L440.24,79.14L442.41,75.69L444.58,79.12L446.75,77.39L448.92,76.98L451.08,76.05L453.25,76.7L457.59,79.03L459.76,77.23L461.93,77.17L464.1,81.33L466.27,82.31L468.43,80.23L470.6,81.85L472.77,86.97L477.11,93.42L479.28,97.28L481.45,94.08L483.61,94.6L485.78,97.51L487.95,95.05L490.12,97.74L492.29,98.25L494.46,97.98L496.63,98.53L498.8,95.11L500.96,98.9L505.3,95.9L507.47,100.6L511.81,100.37L513.98,104.11L516.14,105.4L518.31,111.86L520.48,113.42L522.65,114.03L529.16,111.41L531.33,107.26L533.49,107.9L535.66,113.8L540,115.45" style="vector-effect: non-scaling-stroke; fill: none; stroke: rgb(25, 211, 243); stroke-opacity: 1; stroke-width: 2px; opacity: 1;"/></g><g class="points"/><g class="text"/></g><g class="trace scatter trace75c4f0" style="stroke-miterlimit: 2; opacity: 1;"><g class="fills"/><g class="errorbars"/><g class="lines"><path class="js-line" d="M0,98.66L2.17,62.84L4.34,58.2L6.51,54.47L8.67,56.05L10.84,61.01L13.01,68.26L15.18,72.66L17.35,81.93L19.52,63.06L21.69,56.59L23.86,72.76L26.02,59.85L28.19,65.31L30.36,57.24L32.53,67.57L34.7,63.82L36.87,62.04L39.04,64.01L41.2,62.49L43.37,63.67L45.54,58.65L47.71,58.8L49.88,70.26L52.05,63L54.22,76.7L56.39,79.27L58.55,79.24L60.72,87.61L65.06,101.98L67.23,100.55L69.4,91.31L71.57,94.32L73.73,90.16L75.9,95.82L80.24,79.1L82.41,71.44L84.58,69.76L86.75,58.97L88.92,54.21L91.08,59.5L95.42,43.87L97.59,41.59L99.76,32.76L101.93,42.41L104.1,48.61L106.27,46.23L110.6,38.55L112.77,45.12L114.94,54.34L117.11,51.18L119.28,48.1L121.45,41.85L123.61,38.12L125.78,36.42L127.95,42.02L130.12,29.11L132.29,31.9L134.46,26.21L136.63,25.96L138.8,22.57L140.96,21.09L143.13,28.06L145.3,26.71L147.47,32.39L149.64,27.01L151.81,29.75L153.98,24.98L156.14,24.65L158.31,23.41L160.48,20.74L162.65,25.84L164.82,22.86L169.16,24.36L171.33,26.28L173.49,31.02L175.66,30.74L177.83,37.18L180,40.9L182.17,41.04L184.34,43.73L188.67,49.5L190.84,56.72L193.01,51.83L195.18,50.93L197.35,50.38L199.52,56.21L201.69,63.31L203.86,64.88L206.02,65.41L208.19,61.54L210.36,61.71L212.53,64.4L214.7,55.99L216.87,60.13L219.04,59.04L221.2,56.77L223.37,61.06L225.54,67.18L227.71,67.98L229.88,67.76L232.05,64.06L234.22,71.01L238.55,65.96L240.72,67.5L242.89,67.87L245.06,66.89L247.23,74.05L249.4,71.25L253.73,73.68L255.9,72.2L258.07,76.44L260.24,72.24L262.41,72.02L264.58,69.67L266.75,65.63L268.92,69.76L271.08,69.83L273.25,59.88L275.42,57.1L277.59,64.38L279.76,61.29L281.93,59.67L284.1,57.91L286.27,61.36L288.43,60.96L290.6,62.76L292.77,58.04L294.94,60.14L297.11,62.46L299.28,61.51L301.45,55.81L303.61,57.56L305.78,60.09L307.95,60.64L310.12,60.39L312.29,58.78L314.46,65.54L316.63,65.41L318.8,65.99L320.96,60.22L323.13,56.17L325.3,59.67L329.64,58.11L331.81,61.04L333.98,59.61L336.14,61.73L338.31,65.31L340.48,63.64L342.65,63.74L344.82,68.1L346.99,67.84L349.16,69.16L351.33,64.95L353.49,66.63L355.66,65.54L357.83,66.81L360,65.54L362.17,67.55L364.34,69.08L366.51,68.56L368.67,74.12L370.84,72.17L373.01,72.46L375.18,74.74L377.35,79.72L379.52,76.88L381.69,76.12L383.86,80.58L386.02,79.07L388.19,79.84L390.36,82.23L392.53,79.39L394.7,80.69L396.87,79.49L399.04,79.03L401.2,81.74L403.37,78.21L405.54,78.51L409.88,77.65L412.05,78.3L414.22,80.83L416.39,81.69L418.55,80.18L420.72,82.44L425.06,77.25L427.23,80.21L429.4,74.33L431.57,75.11L433.73,75.48L435.9,77.5L438.07,80.05L440.24,79.14L442.41,75.69L444.58,79.12L446.75,77.39L448.92,76.98L451.08,76.05L453.25,76.7L457.59,79.03L459.76,77.23L461.93,77.17L464.1,81.33L466.27,82.31L468.43,80.23L470.6,81.85L472.77,86.97L477.11,93.42L479.28,97.28L481.45,94.08L483.61,94.6L485.78,97.51L487.95,95.05L490.12,97.74L492.29,98.25L494.46,97.98L496.63,98.53L498.8,95.11L500.96,98.9L505.3,95.9L507.47,100.6L511.81,100.37L513.98,104.11L516.14,105.4L518.31,111.86L520.48,113.42L522.65,114.03L529.16,111.41L531.33,107.26L533.49,107.9L535.66,113.8L540,115.45" style="vector-effect: non-scaling-stroke; fill: none; stroke: rgb(255, 102, 146); stroke-opacity: 1; stroke-width: 2px; opacity: 1;"/></g><g class="points"/><g class="text"/></g><g class="trace scatter tracee2cbe7" style="stroke-miterlimit: 2; opacity: 1;"><g class="fills"/><g class="errorbars"/><g class="lines"><path class="js-line" d="M0,98.66L2.17,62.84L4.34,58.2L6.51,54.47L8.67,56.05L10.84,61.01L13.01,68.26L15.18,72.66L17.35,81.93L19.52,63.06L21.69,56.59L23.86,72.76L26.02,59.85L28.19,65.31L30.36,57.24L32.53,67.57L34.7,63.82L36.87,62.04L39.04,64.01L41.2,62.49L43.37,63.67L45.54,58.65L47.71,58.8L49.88,70.26L52.05,63L54.22,76.7L56.39,79.27L58.55,79.24L60.72,87.61L65.06,101.98L67.23,100.55L69.4,91.31L71.57,94.32L73.73,90.16L75.9,95.82L80.24,79.1L82.41,71.44L84.58,69.76L86.75,58.97L88.92,54.21L91.08,59.5L95.42,43.87L97.59,41.59L99.76,32.76L101.93,42.41L104.1,48.61L106.27,46.23L110.6,38.55L112.77,45.12L114.94,54.34L117.11,51.18L119.28,48.1L121.45,41.85L123.61,38.12L125.78,36.42L127.95,42.02L130.12,29.11L132.29,31.9L134.46,26.21L136.63,25.96L138.8,22.57L140.96,21.09L143.13,28.06L145.3,26.71L147.47,32.39L149.64,27.01L151.81,29.75L153.98,24.98L156.14,24.65L158.31,23.41L160.48,20.74L162.65,25.84L164.82,22.86L169.16,24.36L171.33,26.28L173.49,31.02L175.66,30.74L177.83,37.18L180,40.9L182.17,41.04L184.34,43.73L188.67,49.5L190.84,56.72L193.01,51.83L195.18,50.93L197.35,50.38L199.52,56.21L201.69,63.31L203.86,64.88L206.02,65.41L208.19,61.54L210.36,61.71L212.53,64.4L214.7,55.99L216.87,60.13L219.04,59.04L221.2,56.77L223.37,61.06L225.54,67.18L227.71,67.98L229.88,67.76L232.05,64.06L234.22,71.01L238.55,65.96L240.72,67.5L242.89,67.87L245.06,66.89L247.23,74.05L249.4,71.25L253.73,73.68L255.9,72.2L258.07,76.44L260.24,72.24L262.41,72.02L264.58,69.67L266.75,65.63L268.92,69.76L271.08,69.83L273.25,59.88L275.42,57.1L277.59,64.38L279.76,61.29L281.93,59.67L284.1,57.91L286.27,61.36L288.43,60.96L290.6,62.76L292.77,58.04L294.94,60.14L297.11,62.46L299.28,61.51L301.45,55.81L303.61,57.56L305.78,60.09L307.95,60.64L310.12,60.39L312.29,58.78L314.46,65.54L316.63,65.41L318.8,65.99L320.96,60.22L323.13,56.17L325.3,59.67L329.64,58.11L331.81,61.04L333.98,59.61L336.14,61.73L338.31,65.31L340.48,63.64L342.65,63.74L344.82,68.1L346.99,67.84L349.16,69.16L351.33,64.95L353.49,66.63L355.66,65.54L357.83,66.81L360,65.54L362.17,67.55L364.34,69.08L366.51,68.56L368.67,74.12L370.84,72.17L373.01,72.46L375.18,74.74L377.35,79.72L379.52,76.88L381.69,76.12L383.86,80.58L386.02,79.07L388.19,79.84L390.36,82.23L392.53,79.39L394.7,80.69L396.87,79.49L399.04,79.03L401.2,81.74L403.37,78.21L405.54,78.51L409.88,77.65L412.05,78.3L414.22,80.83L416.39,81.69L418.55,80.18L420.72,82.44L425.06,77.25L427.23,80.21L429.4,74.33L431.57,75.11L433.73,75.48L435.9,77.5L438.07,80.05L440.24,79.14L442.41,75.69L444.58,79.12L446.75,77.39L448.92,76.98L451.08,76.05L453.25,76.7L457.59,79.03L459.76,77.23L461.93,77.17L464.1,81.33L466.27,82.31L468.43,80.23L470.6,81.85L472.77,86.97L477.11,93.42L479.28,97.28L481.45,94.08L483.61,94.6L485.78,97.51L487.95,95.05L490.12,97.74L492.29,98.25L494.46,97.98L496.63,98.53L498.8,95.11L500.96,98.9L505.3,95.9L507.47,100.6L511.81,100.37L513.98,104.11L516.14,105.4L518.31,111.86L520.48,113.42L522.65,114.03L529.16,111.41L531.33,107.26L533.49,107.9L535.66,113.8L540,115.45" style="vector-effect: non-scaling-stroke; fill: none; stroke: rgb(182, 232, 128); stroke-opacity: 1; stroke-width: 2px; opacity: 1;"/></g><g class="points"/><g class="text"/></g><g class="trace scatter trace9dab2c" style="stroke-miterlimit: 2; opacity: 1;"><g class="fills"/><g class="errorbars"/><g class="lines"><path class="js-line" d="M0,98.66L2.17,62.84L4.34,58.2L6.51,54.47L8.67,56.05L10.84,61.01L13.01,68.26L15.18,72.66L17.35,81.93L19.52,63.06L21.69,56.59L23.86,72.76L26.02,59.85L28.19,65.31L30.36,57.24L32.53,67.57L34.7,63.82L36.87,62.04L39.04,64.01L41.2,62.49L43.37,63.67L45.54,58.65L47.71,58.8L49.88,70.26L52.05,63L54.22,76.7L56.39,79.27L58.55,79.24L60.72,87.61L65.06,101.98L67.23,100.55L69.4,91.31L71.57,94.32L73.73,90.16L75.9,95.82L80.24,79.1L82.41,71.44L84.58,69.76L86.75,58.97L88.92,54.21L91.08,59.5L95.42,43.87L97.59,41.59L99.76,32.76L101.93,42.41L104.1,48.61L106.27,46.23L110.6,38.55L112.77,45.12L114.94,54.34L117.11,51.18L119.28,48.1L121.45,41.85L123.61,38.12L125.78,36.42L127.95,42.02L130.12,29.11L132.29,31.9L134.46,26.21L136.63,25.96L138.8,22.57L140.96,21.09L143.13,28.06L145.3,26.71L147.47,32.39L149.64,27.01L151.81,29.75L153.98,24.98L156.14,24.65L158.31,23.41L160.48,20.74L162.65,25.84L164.82,22.86L169.16,24.36L171.33,26.28L173.49,31.02L175.66,30.74L177.83,37.18L180,40.9L182.17,41.04L184.34,43.73L188.67,49.5L190.84,56.72L193.01,51.83L195.18,50.93L197.35,50.38L199.52,56.21L201.69,63.31L203.86,64.88L206.02,65.41L208.19,61.54L210.36,61.71L212.53,64.4L214.7,55.99L216.87,60.13L219.04,59.04L221.2,56.77L223.37,61.06L225.54,67.18L227.71,67.98L229.88,67.76L232.05,64.06L234.22,71.01L238.55,65.96L240.72,67.5L242.89,67.87L245.06,66.89L247.23,74.05L249.4,71.25L253.73,73.68L255.9,72.2L258.07,76.44L260.24,72.24L262.41,72.02L264.58,69.67L266.75,65.63L268.92,69.76L271.08,69.83L273.25,59.88L275.42,57.1L277.59,64.38L279.76,61.29L281.93,59.67L284.1,57.91L286.27,61.36L288.43,60.96L290.6,62.76L292.77,58.04L294.94,60.14L297.11,62.46L299.28,61.51L301.45,55.81L303.61,57.56L305.78,60.09L307.95,60.64L310.12,60.39L312.29,58.78L314.46,65.54L316.63,65.41L318.8,65.99L320.96,60.22L323.13,56.17L325.3,59.67L329.64,58.11L331.81,61.04L333.98,59.61L336.14,61.73L338.31,65.31L340.48,63.64L342.65,63.74L344.82,68.1L346.99,67.84L349.16,69.16L351.33,64.95L353.49,66.63L355.66,65.54L357.83,66.81L360,65.54L362.17,67.55L364.34,69.08L366.51,68.56L368.67,74.12L370.84,72.17L373.01,72.46L375.18,74.74L377.35,79.72L379.52,76.88L381.69,76.12L383.86,80.58L386.02,79.07L388.19,79.84L390.36,82.23L392.53,79.39L394.7,80.69L396.87,79.49L399.04,79.03L401.2,81.74L403.37,78.21L405.54,78.51L409.88,77.65L412.05,78.3L414.22,80.83L416.39,81.69L418.55,80.18L420.72,82.44L425.06,77.25L427.23,80.21L429.4,74.33L431.57,75.11L433.73,75.48L435.9,77.5L438.07,80.05L440.24,79.14L442.41,75.69L444.58,79.12L446.75,77.39L448.92,76.98L451.08,76.05L453.25,76.7L457.59,79.03L459.76,77.23L461.93,77.17L464.1,81.33L466.27,82.31L468.43,80.23L470.6,81.85L472.77,86.97L477.11,93.42L479.28,97.28L481.45,94.08L483.61,94.6L485.78,97.51L487.95,95.05L490.12,97.74L492.29,98.25L494.46,97.98L496.63,98.53L498.8,95.11L500.96,98.9L505.3,95.9L507.47,100.6L511.81,100.37L513.98,104.11L516.14,105.4L518.31,111.86L520.48,113.42L522.65,114.03L529.16,111.41L531.33,107.26L533.49,107.9L535.66,113.8L540,115.45" style="vector-effect: non-scaling-stroke; fill: none; stroke: rgb(255, 151, 255); stroke-opacity: 1; stroke-width: 2px; opacity: 1;"/></g><g class="points"/><g class="text"/></g><g class="trace scatter tracef742b8" style="stroke-miterlimit: 2; opacity: 1;"><g class="fills"/><g class="errorbars"/><g class="lines"><path class="js-line" d="M0,98.66L2.17,62.84L4.34,58.2L6.51,54.47L8.67,56.05L10.84,61.01L13.01,68.26L15.18,72.66L17.35,81.93L19.52,63.06L21.69,56.59L23.86,72.76L26.02,59.85L28.19,65.31L30.36,57.24L32.53,67.57L34.7,63.82L36.87,62.04L39.04,64.01L41.2,62.49L43.37,63.67L45.54,58.65L47.71,58.8L49.88,70.26L52.05,63L54.22,76.7L56.39,79.27L58.55,79.24L60.72,87.61L65.06,101.98L67.23,100.55L69.4,91.31L71.57,94.32L73.73,90.16L75.9,95.82L80.24,79.1L82.41,71.44L84.58,69.76L86.75,58.97L88.92,54.21L91.08,59.5L95.42,43.87L97.59,41.59L99.76,32.76L101.93,42.41L104.1,48.61L106.27,46.23L110.6,38.55L112.77,45.12L114.94,54.34L117.11,51.18L119.28,48.1L121.45,41.85L123.61,38.12L125.78,36.42L127.95,42.02L130.12,29.11L132.29,31.9L134.46,26.21L136.63,25.96L138.8,22.57L140.96,21.09L143.13,28.06L145.3,26.71L147.47,32.39L149.64,27.01L151.81,29.75L153.98,24.98L156.14,24.65L158.31,23.41L160.48,20.74L162.65,25.84L164.82,22.86L169.16,24.36L171.33,26.28L173.49,31.02L175.66,30.74L177.83,37.18L180,40.9L182.17,41.04L184.34,43.73L188.67,49.5L190.84,56.72L193.01,51.83L195.18,50.93L197.35,50.38L199.52,56.21L201.69,63.31L203.86,64.88L206.02,65.41L208.19,61.54L210.36,61.71L212.53,64.4L214.7,55.99L216.87,60.13L219.04,59.04L221.2,56.77L223.37,61.06L225.54,67.18L227.71,67.98L229.88,67.76L232.05,64.06L234.22,71.01L238.55,65.96L240.72,67.5L242.89,67.87L245.06,66.89L247.23,74.05L249.4,71.25L253.73,73.68L255.9,72.2L258.07,76.44L260.24,72.24L262.41,72.02L264.58,69.67L266.75,65.63L268.92,69.76L271.08,69.83L273.25,59.88L275.42,57.1L277.59,64.38L279.76,61.29L281.93,59.67L284.1,57.91L286.27,61.36L288.43,60.96L290.6,62.76L292.77,58.04L294.94,60.14L297.11,62.46L299.28,61.51L301.45,55.81L303.61,57.56L305.78,60.09L307.95,60.64L310.12,60.39L312.29,58.78L314.46,65.54L316.63,65.41L318.8,65.99L320.96,60.22L323.13,56.17L325.3,59.67L329.64,58.11L331.81,61.04L333.98,59.61L336.14,61.73L338.31,65.31L340.48,63.64L342.65,63.74L344.82,68.1L346.99,67.84L349.16,69.16L351.33,64.95L353.49,66.63L355.66,65.54L357.83,66.81L360,65.54L362.17,67.55L364.34,69.08L366.51,68.56L368.67,74.12L370.84,72.17L373.01,72.46L375.18,74.74L377.35,79.72L379.52,76.88L381.69,76.12L383.86,80.58L386.02,79.07L388.19,79.84L390.36,82.23L392.53,79.39L394.7,80.69L396.87,79.49L399.04,79.03L401.2,81.74L403.37,78.21L405.54,78.51L409.88,77.65L412.05,78.3L414.22,80.83L416.39,81.69L418.55,80.18L420.72,82.44L425.06,77.25L427.23,80.21L429.4,74.33L431.57,75.11L433.73,75.48L435.9,77.5L438.07,80.05L440.24,79.14L442.41,75.69L444.58,79.12L446.75,77.39L448.92,76.98L451.08,76.05L453.25,76.7L457.59,79.03L459.76,77.23L461.93,77.17L464.1,81.33L466.27,82.31L468.43,80.23L470.6,81.85L472.77,86.97L477.11,93.42L479.28,97.28L481.45,94.08L483.61,94.6L485.78,97.51L487.95,95.05L490.12,97.74L492.29,98.25L494.46,97.98L496.63,98.53L498.8,95.11L500.96,98.9L505.3,95.9L507.47,100.6L511.81,100.37L513.98,104.11L516.14,105.4L518.31,111.86L520.48,113.42L522.65,114.03L529.16,111.41L531.33,107.26L533.49,107.9L535.66,113.8L540,115.45" style="vector-effect: non-scaling-stroke; fill: none; stroke: rgb(254, 203, 82); stroke-opacity: 1; stroke-width: 2px; opacity: 1;"/></g><g class="points"/><g class="text"/></g><g class="trace scatter trace40b8f4" style="stroke-miterlimit: 2; opacity: 1;"><g class="fills"/><g class="errorbars"/><g class="lines"><path class="js-line" d="M0,98.66L2.17,62.84L4.34,58.2L6.51,54.47L8.67,56.05L10.84,61.01L13.01,68.26L15.18,72.66L17.35,81.93L19.52,63.06L21.69,56.59L23.86,72.76L26.02,59.85L28.19,65.31L30.36,57.24L32.53,67.57L34.7,63.82L36.87,62.04L39.04,64.01L41.2,62.49L43.37,63.67L45.54,58.65L47.71,58.8L49.88,70.26L52.05,63L54.22,76.7L56.39,79.27L58.55,79.24L60.72,87.61L65.06,101.98L67.23,100.55L69.4,91.31L71.57,94.32L73.73,90.16L75.9,95.82L80.24,79.1L82.41,71.44L84.58,69.76L86.75,58.97L88.92,54.21L91.08,59.5L95.42,43.87L97.59,41.59L99.76,32.76L101.93,42.41L104.1,48.61L106.27,46.23L110.6,38.55L112.77,45.12L114.94,54.34L117.11,51.18L119.28,48.1L121.45,41.85L123.61,38.12L125.78,36.42L127.95,42.02L130.12,29.11L132.29,31.9L134.46,26.21L136.63,25.96L138.8,22.57L140.96,21.09L143.13,28.06L145.3,26.71L147.47,32.39L149.64,27.01L151.81,29.75L153.98,24.98L156.14,24.65L158.31,23.41L160.48,20.74L162.65,25.84L164.82,22.86L169.16,24.36L171.33,26.28L173.49,31.02L175.66,30.74L177.83,37.18L180,40.9L182.17,41.04L184.34,43.73L188.67,49.5L190.84,56.72L193.01,51.83L195.18,50.93L197.35,50.38L199.52,56.21L201.69,63.31L203.86,64.88L206.02,65.41L208.19,61.54L210.36,61.71L212.53,64.4L214.7,55.99L216.87,60.13L219.04,59.04L221.2,56.77L223.37,61.06L225.54,67.18L227.71,67.98L229.88,67.76L232.05,64.06L234.22,71.01L238.55,65.96L240.72,67.5L242.89,67.87L245.06,66.89L247.23,74.05L249.4,71.25L253.73,73.68L255.9,72.2L258.07,76.44L260.24,72.24L262.41,72.02L264.58,69.67L266.75,65.63L268.92,69.76L271.08,69.83L273.25,59.88L275.42,57.1L277.59,64.38L279.76,61.29L281.93,59.67L284.1,57.91L286.27,61.36L288.43,60.96L290.6,62.76L292.77,58.04L294.94,60.14L297.11,62.46L299.28,61.51L301.45,55.81L303.61,57.56L305.78,60.09L307.95,60.64L310.12,60.39L312.29,58.78L314.46,65.54L316.63,65.41L318.8,65.99L320.96,60.22L323.13,56.17L325.3,59.67L329.64,58.11L331.81,61.04L333.98,59.61L336.14,61.73L338.31,65.31L340.48,63.64L342.65,63.74L344.82,68.1L346.99,67.84L349.16,69.16L351.33,64.95L353.49,66.63L355.66,65.54L357.83,66.81L360,65.54L362.17,67.55L364.34,69.08L366.51,68.56L368.67,74.12L370.84,72.17L373.01,72.46L375.18,74.74L377.35,79.72L379.52,76.88L381.69,76.12L383.86,80.58L386.02,79.07L388.19,79.84L390.36,82.23L392.53,79.39L394.7,80.69L396.87,79.49L399.04,79.03L401.2,81.74L403.37,78.21L405.54,78.51L409.88,77.65L412.05,78.3L414.22,80.83L416.39,81.69L418.55,80.18L420.72,82.44L425.06,77.25L427.23,80.21L429.4,74.33L431.57,75.11L433.73,75.48L435.9,77.5L438.07,80.05L440.24,79.14L442.41,75.69L444.58,79.12L446.75,77.39L448.92,76.98L451.08,76.05L453.25,76.7L457.59,79.03L459.76,77.23L461.93,77.17L464.1,81.33L466.27,82.31L468.43,80.23L470.6,81.85L472.77,86.97L477.11,93.42L479.28,97.28L481.45,94.08L483.61,94.6L485.78,97.51L487.95,95.05L490.12,97.74L492.29,98.25L494.46,97.98L496.63,98.53L498.8,95.11L500.96,98.9L505.3,95.9L507.47,100.6L511.81,100.37L513.98,104.11L516.14,105.4L518.31,111.86L520.48,113.42L522.65,114.03L529.16,111.41L531.33,107.26L533.49,107.9L535.66,113.8L540,115.45" style="vector-effect: non-scaling-stroke; fill: none; stroke: rgb(99, 110, 250); stroke-opacity: 1; stroke-width: 2px; opacity: 1;"/></g><g class="points"/><g class="text"/></g><g class="trace scatter trace6eedc8" style="stroke-miterlimit: 2; opacity: 1;"><g class="fills"/><g class="errorbars"/><g class="lines"><path class="js-line" d="M0,98.66L2.17,62.84L4.34,58.2L6.51,54.47L8.67,56.05L10.84,61.01L13.01,68.26L15.18,72.66L17.35,81.93L19.52,63.06L21.69,56.59L23.86,72.76L26.02,59.85L28.19,65.31L30.36,57.24L32.53,67.57L34.7,63.82L36.87,62.04L39.04,64.01L41.2,62.49L43.37,63.67L45.54,58.65L47.71,58.8L49.88,70.26L52.05,63L54.22,76.7L56.39,79.27L58.55,79.24L60.72,87.61L65.06,101.98L67.23,100.55L69.4,91.31L71.57,94.32L73.73,90.16L75.9,95.82L80.24,79.1L82.41,71.44L84.58,69.76L86.75,58.97L88.92,54.21L91.08,59.5L95.42,43.87L97.59,41.59L99.76,32.76L101.93,42.41L104.1,48.61L106.27,46.23L110.6,38.55L112.77,45.12L114.94,54.34L117.11,51.18L119.28,48.1L121.45,41.85L123.61,38.12L125.78,36.42L127.95,42.02L130.12,29.11L132.29,31.9L134.46,26.21L136.63,25.96L138.8,22.57L140.96,21.09L143.13,28.06L145.3,26.71L147.47,32.39L149.64,27.01L151.81,29.75L153.98,24.98L156.14,24.65L158.31,23.41L160.48,20.74L162.65,25.84L164.82,22.86L169.16,24.36L171.33,26.28L173.49,31.02L175.66,30.74L177.83,37.18L180,40.9L182.17,41.04L184.34,43.73L188.67,49.5L190.84,56.72L193.01,51.83L195.18,50.93L197.35,50.38L199.52,56.21L201.69,63.31L203.86,64.88L206.02,65.41L208.19,61.54L210.36,61.71L212.53,64.4L214.7,55.99L216.87,60.13L219.04,59.04L221.2,56.77L223.37,61.06L225.54,67.18L227.71,67.98L229.88,67.76L232.05,64.06L234.22,71.01L238.55,65.96L240.72,67.5L242.89,67.87L245.06,66.89L247.23,74.05L249.4,71.25L253.73,73.68L255.9,72.2L258.07,76.44L260.24,72.24L262.41,72.02L264.58,69.67L266.75,65.63L268.92,69.76L271.08,69.83L273.25,59.88L275.42,57.1L277.59,64.38L279.76,61.29L281.93,59.67L284.1,57.91L286.27,61.36L288.43,60.96L290.6,62.76L292.77,58.04L294.94,60.14L297.11,62.46L299.28,61.51L301.45,55.81L303.61,57.56L305.78,60.09L307.95,60.64L310.12,60.39L312.29,58.78L314.46,65.54L316.63,65.41L318.8,65.99L320.96,60.22L323.13,56.17L325.3,59.67L329.64,58.11L331.81,61.04L333.98,59.61L336.14,61.73L338.31,65.31L340.48,63.64L342.65,63.74L344.82,68.1L346.99,67.84L349.16,69.16L351.33,64.95L353.49,66.63L355.66,65.54L357.83,66.81L360,65.54L362.17,67.55L364.34,69.08L366.51,68.56L368.67,74.12L370.84,72.17L373.01,72.46L375.18,74.74L377.35,79.72L379.52,76.88L381.69,76.12L383.86,80.58L386.02,79.07L388.19,79.84L390.36,82.23L392.53,79.39L394.7,80.69L396.87,79.49L399.04,79.03L401.2,81.74L403.37,78.21L405.54,78.51L409.88,77.65L412.05,78.3L414.22,80.83L416.39,81.69L418.55,80.18L420.72,82.44L425.06,77.25L427.23,80.21L429.4,74.33L431.57,75.11L433.73,75.48L435.9,77.5L438.07,80.05L440.24,79.14L442.41,75.69L444.58,79.12L446.75,77.39L448.92,76.98L451.08,76.05L453.25,76.7L457.59,79.03L459.76,77.23L461.93,77.17L464.1,81.33L466.27,82.31L468.43,80.23L470.6,81.85L472.77,86.97L477.11,93.42L479.28,97.28L481.45,94.08L483.61,94.6L485.78,97.51L487.95,95.05L490.12,97.74L492.29,98.25L494.46,97.98L496.63,98.53L498.8,95.11L500.96,98.9L505.3,95.9L507.47,100.6L511.81,100.37L513.98,104.11L516.14,105.4L518.31,111.86L520.48,113.42L522.65,114.03L529.16,111.41L531.33,107.26L533.49,107.9L535.66,113.8L540,115.45" style="vector-effect: non-scaling-stroke; fill: none; stroke: rgb(239, 85, 59); stroke-opacity: 1; stroke-width: 2px; opacity: 1;"/></g><g class="points"/><g class="text"/></g><g class="trace scatter trace3402f4" style="stroke-miterlimit: 2; opacity: 1;"><g class="fills"/><g class="errorbars"/><g class="lines"><path class="js-line" d="M0,98.66L2.17,62.84L4.34,58.2L6.51,54.47L8.67,56.05L10.84,61.01L13.01,68.26L15.18,72.66L17.35,81.93L19.52,63.06L21.69,56.59L23.86,72.76L26.02,59.85L28.19,65.31L30.36,57.24L32.53,67.57L34.7,63.82L36.87,62.04L39.04,64.01L41.2,62.49L43.37,63.67L45.54,58.65L47.71,58.8L49.88,70.26L52.05,63L54.22,76.7L56.39,79.27L58.55,79.24L60.72,87.61L65.06,101.98L67.23,100.55L69.4,91.31L71.57,94.32L73.73,90.16L75.9,95.82L80.24,79.1L82.41,71.44L84.58,69.76L86.75,58.97L88.92,54.21L91.08,59.5L95.42,43.87L97.59,41.59L99.76,32.76L101.93,42.41L104.1,48.61L106.27,46.23L110.6,38.55L112.77,45.12L114.94,54.34L117.11,51.18L119.28,48.1L121.45,41.85L123.61,38.12L125.78,36.42L127.95,42.02L130.12,29.11L132.29,31.9L134.46,26.21L136.63,25.96L138.8,22.57L140.96,21.09L143.13,28.06L145.3,26.71L147.47,32.39L149.64,27.01L151.81,29.75L153.98,24.98L156.14,24.65L158.31,23.41L160.48,20.74L162.65,25.84L164.82,22.86L169.16,24.36L171.33,26.28L173.49,31.02L175.66,30.74L177.83,37.18L180,40.9L182.17,41.04L184.34,43.73L188.67,49.5L190.84,56.72L193.01,51.83L195.18,50.93L197.35,50.38L199.52,56.21L201.69,63.31L203.86,64.88L206.02,65.41L208.19,61.54L210.36,61.71L212.53,64.4L214.7,55.99L216.87,60.13L219.04,59.04L221.2,56.77L223.37,61.06L225.54,67.18L227.71,67.98L229.88,67.76L232.05,64.06L234.22,71.01L238.55,65.96L240.72,67.5L242.89,67.87L245.06,66.89L247.23,74.05L249.4,71.25L253.73,73.68L255.9,72.2L258.07,76.44L260.24,72.24L262.41,72.02L264.58,69.67L266.75,65.63L268.92,69.76L271.08,69.83L273.25,59.88L275.42,57.1L277.59,64.38L279.76,61.29L281.93,59.67L284.1,57.91L286.27,61.36L288.43,60.96L290.6,62.76L292.77,58.04L294.94,60.14L297.11,62.46L299.28,61.51L301.45,55.81L303.61,57.56L305.78,60.09L307.95,60.64L310.12,60.39L312.29,58.78L314.46,65.54L316.63,65.41L318.8,65.99L320.96,60.22L323.13,56.17L325.3,59.67L329.64,58.11L331.81,61.04L333.98,59.61L336.14,61.73L338.31,65.31L340.48,63.64L342.65,63.74L344.82,68.1L346.99,67.84L349.16,69.16L351.33,64.95L353.49,66.63L355.66,65.54L357.83,66.81L360,65.54L362.17,67.55L364.34,69.08L366.51,68.56L368.67,74.12L370.84,72.17L373.01,72.46L375.18,74.74L377.35,79.72L379.52,76.88L381.69,76.12L383.86,80.58L386.02,79.07L388.19,79.84L390.36,82.23L392.53,79.39L394.7,80.69L396.87,79.49L399.04,79.03L401.2,81.74L403.37,78.21L405.54,78.51L409.88,77.65L412.05,78.3L414.22,80.83L416.39,81.69L418.55,80.18L420.72,82.44L425.06,77.25L427.23,80.21L429.4,74.33L431.57,75.11L433.73,75.48L435.9,77.5L438.07,80.05L440.24,79.14L442.41,75.69L444.58,79.12L446.75,77.39L448.92,76.98L451.08,76.05L453.25,76.7L457.59,79.03L459.76,77.23L461.93,77.17L464.1,81.33L466.27,82.31L468.43,80.23L470.6,81.85L472.77,86.97L477.11,93.42L479.28,97.28L481.45,94.08L483.61,94.6L485.78,97.51L487.95,95.05L490.12,97.74L492.29,98.25L494.46,97.98L496.63,98.53L498.8,95.11L500.96,98.9L505.3,95.9L507.47,100.6L511.81,100.37L513.98,104.11L516.14,105.4L518.31,111.86L520.48,113.42L522.65,114.03L529.16,111.41L531.33,107.26L533.49,107.9L535.66,113.8L540,115.45" style="vector-effect: non-scaling-stroke; fill: none; stroke: rgb(0, 204, 150); stroke-opacity: 1; stroke-width: 2px; opacity: 1;"/></g><g class="points"/><g class="text"/></g><g class="trace scatter trace007eff" style="stroke-miterlimit: 2; opacity: 1;"><g class="fills"/><g class="errorbars"/><g class="lines"><path class="js-line" d="M0,98.66L2.17,62.84L4.34,58.2L6.51,54.47L8.67,56.05L10.84,61.01L13.01,68.26L15.18,72.66L17.35,81.93L19.52,63.06L21.69,56.59L23.86,72.76L26.02,59.85L28.19,65.31L30.36,57.24L32.53,67.57L34.7,63.82L36.87,62.04L39.04,64.01L41.2,62.49L43.37,63.67L45.54,58.65L47.71,58.8L49.88,70.26L52.05,63L54.22,76.7L56.39,79.27L58.55,79.24L60.72,87.61L65.06,101.98L67.23,100.55L69.4,91.31L71.57,94.32L73.73,90.16L75.9,95.82L80.24,79.1L82.41,71.44L84.58,69.76L86.75,58.97L88.92,54.21L91.08,59.5L95.42,43.87L97.59,41.59L99.76,32.76L101.93,42.41L104.1,48.61L106.27,46.23L110.6,38.55L112.77,45.12L114.94,54.34L117.11,51.18L119.28,48.1L121.45,41.85L123.61,38.12L125.78,36.42L127.95,42.02L130.12,29.11L132.29,31.9L134.46,26.21L136.63,25.96L138.8,22.57L140.96,21.09L143.13,28.06L145.3,26.71L147.47,32.39L149.64,27.01L151.81,29.75L153.98,24.98L156.14,24.65L158.31,23.41L160.48,20.74L162.65,25.84L164.82,22.86L169.16,24.36L171.33,26.28L173.49,31.02L175.66,30.74L177.83,37.18L180,40.9L182.17,41.04L184.34,43.73L188.67,49.5L190.84,56.72L193.01,51.83L195.18,50.93L197.35,50.38L199.52,56.21L201.69,63.31L203.86,64.88L206.02,65.41L208.19,61.54L210.36,61.71L212.53,64.4L214.7,55.99L216.87,60.13L219.04,59.04L221.2,56.77L223.37,61.06L225.54,67.18L227.71,67.98L229.88,67.76L232.05,64.06L234.22,71.01L238.55,65.96L240.72,67.5L242.89,67.87L245.06,66.89L247.23,74.05L249.4,71.25L253.73,73.68L255.9,72.2L258.07,76.44L260.24,72.24L262.41,72.02L264.58,69.67L266.75,65.63L268.92,69.76L271.08,69.83L273.25,59.88L275.42,57.1L277.59,64.38L279.76,61.29L281.93,59.67L284.1,57.91L286.27,61.36L288.43,60.96L290.6,62.76L292.77,58.04L294.94,60.14L297.11,62.46L299.28,61.51L301.45,55.81L303.61,57.56L305.78,60.09L307.95,60.64L310.12,60.39L312.29,58.78L314.46,65.54L316.63,65.41L318.8,65.99L320.96,60.22L323.13,56.17L325.3,59.67L329.64,58.11L331.81,61.04L333.98,59.61L336.14,61.73L338.31,65.31L340.48,63.64L342.65,63.74L344.82,68.1L346.99,67.84L349.16,69.16L351.33,64.95L353.49,66.63L355.66,65.54L357.83,66.81L360,65.54L362.17,67.55L364.34,69.08L366.51,68.56L368.67,74.12L370.84,72.17L373.01,72.46L375.18,74.74L377.35,79.72L379.52,76.88L381.69,76.12L383.86,80.58L386.02,79.07L388.19,79.84L390.36,82.23L392.53,79.39L394.7,80.69L396.87,79.49L399.04,79.03L401.2,81.74L403.37,78.21L405.54,78.51L409.88,77.65L412.05,78.3L414.22,80.83L416.39,81.69L418.55,80.18L420.72,82.44L425.06,77.25L427.23,80.21L429.4,74.33L431.57,75.11L433.73,75.48L435.9,77.5L438.07,80.05L440.24,79.14L442.41,75.69L444.58,79.12L446.75,77.39L448.92,76.98L451.08,76.05L453.25,76.7L457.59,79.03L459.76,77.23L461.93,77.17L464.1,81.33L466.27,82.31L468.43,80.23L470.6,81.85L472.77,86.97L477.11,93.42L479.28,97.28L481.45,94.08L483.61,94.6L485.78,97.51L487.95,95.05L490.12,97.74L492.29,98.25L494.46,97.98L496.63,98.53L498.8,95.11L500.96,98.9L505.3,95.9L507.47,100.6L511.81,100.37L513.98,104.11L516.14,105.4L518.31,111.86L520.48,113.42L522.65,114.03L529.16,111.41L531.33,107.26L533.49,107.9L535.66,113.8L540,115.45" style="vector-effect: non-scaling-stroke; fill: none; stroke: rgb(171, 99, 250); stroke-opacity: 1; stroke-width: 2px; opacity: 1;"/></g><g class="points"/><g class="text"/></g><g class="trace scatter trace751973" style="stroke-miterlimit: 2; opacity: 1;"><g class="fills"/><g class="errorbars"/><g class="lines"><path class="js-line" d="M0,98.66L2.17,62.84L4.34,58.2L6.51,54.47L8.67,56.05L10.84,61.01L13.01,68.26L15.18,72.66L17.35,81.93L19.52,63.06L21.69,56.59L23.86,72.76L26.02,59.85L28.19,65.31L30.36,57.24L32.53,67.57L34.7,63.82L36.87,62.04L39.04,64.01L41.2,62.49L43.37,63.67L45.54,58.65L47.71,58.8L49.88,70.26L52.05,63L54.22,76.7L56.39,79.27L58.55,79.24L60.72,87.61L65.06,101.98L67.23,100.55L69.4,91.31L71.57,94.32L73.73,90.16L75.9,95.82L80.24,79.1L82.41,71.44L84.58,69.76L86.75,58.97L88.92,54.21L91.08,59.5L95.42,43.87L97.59,41.59L99.76,32.76L101.93,42.41L104.1,48.61L106.27,46.23L110.6,38.55L112.77,45.12L114.94,54.34L117.11,51.18L119.28,48.1L121.45,41.85L123.61,38.12L125.78,36.42L127.95,42.02L130.12,29.11L132.29,31.9L134.46,26.21L136.63,25.96L138.8,22.57L140.96,21.09L143.13,28.06L145.3,26.71L147.47,32.39L149.64,27.01L151.81,29.75L153.98,24.98L156.14,24.65L158.31,23.41L160.48,20.74L162.65,25.84L164.82,22.86L169.16,24.36L171.33,26.28L173.49,31.02L175.66,30.74L177.83,37.18L180,40.9L182.17,41.04L184.34,43.73L188.67,49.5L190.84,56.72L193.01,51.83L195.18,50.93L197.35,50.38L199.52,56.21L201.69,63.31L203.86,64.88L206.02,65.41L208.19,61.54L210.36,61.71L212.53,64.4L214.7,55.99L216.87,60.13L219.04,59.04L221.2,56.77L223.37,61.06L225.54,67.18L227.71,67.98L229.88,67.76L232.05,64.06L234.22,71.01L238.55,65.96L240.72,67.5L242.89,67.87L245.06,66.89L247.23,74.05L249.4,71.25L253.73,73.68L255.9,72.2L258.07,76.44L260.24,72.24L262.41,72.02L264.58,69.67L266.75,65.63L268.92,69.76L271.08,69.83L273.25,59.88L275.42,57.1L277.59,64.38L279.76,61.29L281.93,59.67L284.1,57.91L286.27,61.36L288.43,60.96L290.6,62.76L292.77,58.04L294.94,60.14L297.11,62.46L299.28,61.51L301.45,55.81L303.61,57.56L305.78,60.09L307.95,60.64L310.12,60.39L312.29,58.78L314.46,65.54L316.63,65.41L318.8,65.99L320.96,60.22L323.13,56.17L325.3,59.67L329.64,58.11L331.81,61.04L333.98,59.61L336.14,61.73L338.31,65.31L340.48,63.64L342.65,63.74L344.82,68.1L346.99,67.84L349.16,69.16L351.33,64.95L353.49,66.63L355.66,65.54L357.83,66.81L360,65.54L362.17,67.55L364.34,69.08L366.51,68.56L368.67,74.12L370.84,72.17L373.01,72.46L375.18,74.74L377.35,79.72L379.52,76.88L381.69,76.12L383.86,80.58L386.02,79.07L388.19,79.84L390.36,82.23L392.53,79.39L394.7,80.69L396.87,79.49L399.04,79.03L401.2,81.74L403.37,78.21L405.54,78.51L409.88,77.65L412.05,78.3L414.22,80.83L416.39,81.69L418.55,80.18L420.72,82.44L425.06,77.25L427.23,80.21L429.4,74.33L431.57,75.11L433.73,75.48L435.9,77.5L438.07,80.05L440.24,79.14L442.41,75.69L444.58,79.12L446.75,77.39L448.92,76.98L451.08,76.05L453.25,76.7L457.59,79.03L459.76,77.23L461.93,77.17L464.1,81.33L466.27,82.31L468.43,80.23L470.6,81.85L472.77,86.97L477.11,93.42L479.28,97.28L481.45,94.08L483.61,94.6L485.78,97.51L487.95,95.05L490.12,97.74L492.29,98.25L494.46,97.98L496.63,98.53L498.8,95.11L500.96,98.9L505.3,95.9L507.47,100.6L511.81,100.37L513.98,104.11L516.14,105.4L518.31,111.86L520.48,113.42L522.65,114.03L529.16,111.41L531.33,107.26L533.49,107.9L535.66,113.8L540,115.45" style="vector-effect: non-scaling-stroke; fill: none; stroke: rgb(255, 161, 90); stroke-opacity: 1; stroke-width: 2px; opacity: 1;"/></g><g class="points"/><g class="text"/></g><g class="trace scatter traceb4a3c2" style="stroke-miterlimit: 2; opacity: 1;"><g class="fills"/><g class="errorbars"/><g class="lines"><path class="js-line" d="M0,98.66L2.17,62.84L4.34,58.2L6.51,54.47L8.67,56.05L10.84,61.01L13.01,68.26L15.18,72.66L17.35,81.93L19.52,63.06L21.69,56.59L23.86,72.76L26.02,59.85L28.19,65.31L30.36,57.24L32.53,67.57L34.7,63.82L36.87,62.04L39.04,64.01L41.2,62.49L43.37,63.67L45.54,58.65L47.71,58.8L49.88,70.26L52.05,63L54.22,76.7L56.39,79.27L58.55,79.24L60.72,87.61L65.06,101.98L67.23,100.55L69.4,91.31L71.57,94.32L73.73,90.16L75.9,95.82L80.24,79.1L82.41,71.44L84.58,69.76L86.75,58.97L88.92,54.21L91.08,59.5L95.42,43.87L97.59,41.59L99.76,32.76L101.93,42.41L104.1,48.61L106.27,46.23L110.6,38.55L112.77,45.12L114.94,54.34L117.11,51.18L119.28,48.1L121.45,41.85L123.61,38.12L125.78,36.42L127.95,42.02L130.12,29.11L132.29,31.9L134.46,26.21L136.63,25.96L138.8,22.57L140.96,21.09L143.13,28.06L145.3,26.71L147.47,32.39L149.64,27.01L151.81,29.75L153.98,24.98L156.14,24.65L158.31,23.41L160.48,20.74L162.65,25.84L164.82,22.86L169.16,24.36L171.33,26.28L173.49,31.02L175.66,30.74L177.83,37.18L180,40.9L182.17,41.04L184.34,43.73L188.67,49.5L190.84,56.72L193.01,51.83L195.18,50.93L197.35,50.38L199.52,56.21L201.69,63.31L203.86,64.88L206.02,65.41L208.19,61.54L210.36,61.71L212.53,64.4L214.7,55.99L216.87,60.13L219.04,59.04L221.2,56.77L223.37,61.06L225.54,67.18L227.71,67.98L229.88,67.76L232.05,64.06L234.22,71.01L238.55,65.96L240.72,67.5L242.89,67.87L245.06,66.89L247.23,74.05L249.4,71.25L253.73,73.68L255.9,72.2L258.07,76.44L260.24,72.24L262.41,72.02L264.58,69.67L266.75,65.63L268.92,69.76L271.08,69.83L273.25,59.88L275.42,57.1L277.59,64.38L279.76,61.29L281.93,59.67L284.1,57.91L286.27,61.36L288.43,60.96L290.6,62.76L292.77,58.04L294.94,60.14L297.11,62.46L299.28,61.51L301.45,55.81L303.61,57.56L305.78,60.09L307.95,60.64L310.12,60.39L312.29,58.78L314.46,65.54L316.63,65.41L318.8,65.99L320.96,60.22L323.13,56.17L325.3,59.67L329.64,58.11L331.81,61.04L333.98,59.61L336.14,61.73L338.31,65.31L340.48,63.64L342.65,63.74L344.82,68.1L346.99,67.84L349.16,69.16L351.33,64.95L353.49,66.63L355.66,65.54L357.83,66.81L360,65.54L362.17,67.55L364.34,69.08L366.51,68.56L368.67,74.12L370.84,72.17L373.01,72.46L375.18,74.74L377.35,79.72L379.52,76.88L381.69,76.12L383.86,80.58L386.02,79.07L388.19,79.84L390.36,82.23L392.53,79.39L394.7,80.69L396.87,79.49L399.04,79.03L401.2,81.74L403.37,78.21L405.54,78.51L409.88,77.65L412.05,78.3L414.22,80.83L416.39,81.69L418.55,80.18L420.72,82.44L425.06,77.25L427.23,80.21L429.4,74.33L431.57,75.11L433.73,75.48L435.9,77.5L438.07,80.05L440.24,79.14L442.41,75.69L444.58,79.12L446.75,77.39L448.92,76.98L451.08,76.05L453.25,76.7L457.59,79.03L459.76,77.23L461.93,77.17L464.1,81.33L466.27,82.31L468.43,80.23L470.6,81.85L472.77,86.97L477.11,93.42L479.28,97.28L481.45,94.08L483.61,94.6L485.78,97.51L487.95,95.05L490.12,97.74L492.29,98.25L494.46,97.98L496.63,98.53L498.8,95.11L500.96,98.9L505.3,95.9L507.47,100.6L511.81,100.37L513.98,104.11L516.14,105.4L518.31,111.86L520.48,113.42L522.65,114.03L529.16,111.41L531.33,107.26L533.49,107.9L535.66,113.8L540,115.45" style="vector-effect: non-scaling-stroke; fill: none; stroke: rgb(25, 211, 243); stroke-opacity: 1; stroke-width: 2px; opacity: 1;"/></g><g class="points"/><g class="text"/></g><g class="trace scatter traceb1a6e6" style="stroke-miterlimit: 2; opacity: 1;"><g class="fills"/><g class="errorbars"/><g class="lines"><path class="js-line" d="M0,98.66L2.17,62.84L4.34,58.2L6.51,54.47L8.67,56.05L10.84,61.01L13.01,68.26L15.18,72.66L17.35,81.93L19.52,63.06L21.69,56.59L23.86,72.76L26.02,59.85L28.19,65.31L30.36,57.24L32.53,67.57L34.7,63.82L36.87,62.04L39.04,64.01L41.2,62.49L43.37,63.67L45.54,58.65L47.71,58.8L49.88,70.26L52.05,63L54.22,76.7L56.39,79.27L58.55,79.24L60.72,87.61L65.06,101.98L67.23,100.55L69.4,91.31L71.57,94.32L73.73,90.16L75.9,95.82L80.24,79.1L82.41,71.44L84.58,69.76L86.75,58.97L88.92,54.21L91.08,59.5L95.42,43.87L97.59,41.59L99.76,32.76L101.93,42.41L104.1,48.61L106.27,46.23L110.6,38.55L112.77,45.12L114.94,54.34L117.11,51.18L119.28,48.1L121.45,41.85L123.61,38.12L125.78,36.42L127.95,42.02L130.12,29.11L132.29,31.9L134.46,26.21L136.63,25.96L138.8,22.57L140.96,21.09L143.13,28.06L145.3,26.71L147.47,32.39L149.64,27.01L151.81,29.75L153.98,24.98L156.14,24.65L158.31,23.41L160.48,20.74L162.65,25.84L164.82,22.86L169.16,24.36L171.33,26.28L173.49,31.02L175.66,30.74L177.83,37.18L180,40.9L182.17,41.04L184.34,43.73L188.67,49.5L190.84,56.72L193.01,51.83L195.18,50.93L197.35,50.38L199.52,56.21L201.69,63.31L203.86,64.88L206.02,65.41L208.19,61.54L210.36,61.71L212.53,64.4L214.7,55.99L216.87,60.13L219.04,59.04L221.2,56.77L223.37,61.06L225.54,67.18L227.71,67.98L229.88,67.76L232.05,64.06L234.22,71.01L238.55,65.96L240.72,67.5L242.89,67.87L245.06,66.89L247.23,74.05L249.4,71.25L253.73,73.68L255.9,72.2L258.07,76.44L260.24,72.24L262.41,72.02L264.58,69.67L266.75,65.63L268.92,69.76L271.08,69.83L273.25,59.88L275.42,57.1L277.59,64.38L279.76,61.29L281.93,59.67L284.1,57.91L286.27,61.36L288.43,60.96L290.6,62.76L292.77,58.04L294.94,60.14L297.11,62.46L299.28,61.51L301.45,55.81L303.61,57.56L305.78,60.09L307.95,60.64L310.12,60.39L312.29,58.78L314.46,65.54L316.63,65.41L318.8,65.99L320.96,60.22L323.13,56.17L325.3,59.67L329.64,58.11L331.81,61.04L333.98,59.61L336.14,61.73L338.31,65.31L340.48,63.64L342.65,63.74L344.82,68.1L346.99,67.84L349.16,69.16L351.33,64.95L353.49,66.63L355.66,65.54L357.83,66.81L360,65.54L362.17,67.55L364.34,69.08L366.51,68.56L368.67,74.12L370.84,72.17L373.01,72.46L375.18,74.74L377.35,79.72L379.52,76.88L381.69,76.12L383.86,80.58L386.02,79.07L388.19,79.84L390.36,82.23L392.53,79.39L394.7,80.69L396.87,79.49L399.04,79.03L401.2,81.74L403.37,78.21L405.54,78.51L409.88,77.65L412.05,78.3L414.22,80.83L416.39,81.69L418.55,80.18L420.72,82.44L425.06,77.25L427.23,80.21L429.4,74.33L431.57,75.11L433.73,75.48L435.9,77.5L438.07,80.05L440.24,79.14L442.41,75.69L444.58,79.12L446.75,77.39L448.92,76.98L451.08,76.05L453.25,76.7L457.59,79.03L459.76,77.23L461.93,77.17L464.1,81.33L466.27,82.31L468.43,80.23L470.6,81.85L472.77,86.97L477.11,93.42L479.28,97.28L481.45,94.08L483.61,94.6L485.78,97.51L487.95,95.05L490.12,97.74L492.29,98.25L494.46,97.98L496.63,98.53L498.8,95.11L500.96,98.9L505.3,95.9L507.47,100.6L511.81,100.37L513.98,104.11L516.14,105.4L518.31,111.86L520.48,113.42L522.65,114.03L529.16,111.41L531.33,107.26L533.49,107.9L535.66,113.8L540,115.45" style="vector-effect: non-scaling-stroke; fill: none; stroke: rgb(255, 102, 146); stroke-opacity: 1; stroke-width: 2px; opacity: 1;"/></g><g class="points"/><g class="text"/></g><g class="trace scatter trace55980e" style="stroke-miterlimit: 2; opacity: 1;"><g class="fills"/><g class="errorbars"/><g class="lines"><path class="js-line" d="M0,98.66L2.17,62.84L4.34,58.2L6.51,54.47L8.67,56.05L10.84,61.01L13.01,68.26L15.18,72.66L17.35,81.93L19.52,63.06L21.69,56.59L23.86,72.76L26.02,59.85L28.19,65.31L30.36,57.24L32.53,67.57L34.7,63.82L36.87,62.04L39.04,64.01L41.2,62.49L43.37,63.67L45.54,58.65L47.71,58.8L49.88,70.26L52.05,63L54.22,76.7L56.39,79.27L58.55,79.24L60.72,87.61L65.06,101.98L67.23,100.55L69.4,91.31L71.57,94.32L73.73,90.16L75.9,95.82L80.24,79.1L82.41,71.44L84.58,69.76L86.75,58.97L88.92,54.21L91.08,59.5L95.42,43.87L97.59,41.59L99.76,32.76L101.93,42.41L104.1,48.61L106.27,46.23L110.6,38.55L112.77,45.12L114.94,54.34L117.11,51.18L119.28,48.1L121.45,41.85L123.61,38.12L125.78,36.42L127.95,42.02L130.12,29.11L132.29,31.9L134.46,26.21L136.63,25.96L138.8,22.57L140.96,21.09L143.13,28.06L145.3,26.71L147.47,32.39L149.64,27.01L151.81,29.75L153.98,24.98L156.14,24.65L158.31,23.41L160.48,20.74L162.65,25.84L164.82,22.86L169.16,24.36L171.33,26.28L173.49,31.02L175.66,30.74L177.83,37.18L180,40.9L182.17,41.04L184.34,43.73L188.67,49.5L190.84,56.72L193.01,51.83L195.18,50.93L197.35,50.38L199.52,56.21L201.69,63.31L203.86,64.88L206.02,65.41L208.19,61.54L210.36,61.71L212.53,64.4L214.7,55.99L216.87,60.13L219.04,59.04L221.2,56.77L223.37,61.06L225.54,67.18L227.71,67.98L229.88,67.76L232.05,64.06L234.22,71.01L238.55,65.96L240.72,67.5L242.89,67.87L245.06,66.89L247.23,74.05L249.4,71.25L253.73,73.68L255.9,72.2L258.07,76.44L260.24,72.24L262.41,72.02L264.58,69.67L266.75,65.63L268.92,69.76L271.08,69.83L273.25,59.88L275.42,57.1L277.59,64.38L279.76,61.29L281.93,59.67L284.1,57.91L286.27,61.36L288.43,60.96L290.6,62.76L292.77,58.04L294.94,60.14L297.11,62.46L299.28,61.51L301.45,55.81L303.61,57.56L305.78,60.09L307.95,60.64L310.12,60.39L312.29,58.78L314.46,65.54L316.63,65.41L318.8,65.99L320.96,60.22L323.13,56.17L325.3,59.67L329.64,58.11L331.81,61.04L333.98,59.61L336.14,61.73L338.31,65.31L340.48,63.64L342.65,63.74L344.82,68.1L346.99,67.84L349.16,69.16L351.33,64.95L353.49,66.63L355.66,65.54L357.83,66.81L360,65.54L362.17,67.55L364.34,69.08L366.51,68.56L368.67,74.12L370.84,72.17L373.01,72.46L375.18,74.74L377.35,79.72L379.52,76.88L381.69,76.12L383.86,80.58L386.02,79.07L388.19,79.84L390.36,82.23L392.53,79.39L394.7,80.69L396.87,79.49L399.04,79.03L401.2,81.74L403.37,78.21L405.54,78.51L409.88,77.65L412.05,78.3L414.22,80.83L416.39,81.69L418.55,80.18L420.72,82.44L425.06,77.25L427.23,80.21L429.4,74.33L431.57,75.11L433.73,75.48L435.9,77.5L438.07,80.05L440.24,79.14L442.41,75.69L444.58,79.12L446.75,77.39L448.92,76.98L451.08,76.05L453.25,76.7L457.59,79.03L459.76,77.23L461.93,77.17L464.1,81.33L466.27,82.31L468.43,80.23L470.6,81.85L472.77,86.97L477.11,93.42L479.28,97.28L481.45,94.08L483.61,94.6L485.78,97.51L487.95,95.05L490.12,97.74L492.29,98.25L494.46,97.98L496.63,98.53L498.8,95.11L500.96,98.9L505.3,95.9L507.47,100.6L511.81,100.37L513.98,104.11L516.14,105.4L518.31,111.86L520.48,113.42L522.65,114.03L529.16,111.41L531.33,107.26L533.49,107.9L535.66,113.8L540,115.45" style="vector-effect: non-scaling-stroke; fill: none; stroke: rgb(182, 232, 128); stroke-opacity: 1; stroke-width: 2px; opacity: 1;"/></g><g class="points"/><g class="text"/></g><g class="trace scatter trace0e65b9" style="stroke-miterlimit: 2; opacity: 1;"><g class="fills"/><g class="errorbars"/><g class="lines"><path class="js-line" d="M0,98.66L2.17,62.84L4.34,58.2L6.51,54.47L8.67,56.05L10.84,61.01L13.01,68.26L15.18,72.66L17.35,81.93L19.52,63.06L21.69,56.59L23.86,72.76L26.02,59.85L28.19,65.31L30.36,57.24L32.53,67.57L34.7,63.82L36.87,62.04L39.04,64.01L41.2,62.49L43.37,63.67L45.54,58.65L47.71,58.8L49.88,70.26L52.05,63L54.22,76.7L56.39,79.27L58.55,79.24L60.72,87.61L65.06,101.98L67.23,100.55L69.4,91.31L71.57,94.32L73.73,90.16L75.9,95.82L80.24,79.1L82.41,71.44L84.58,69.76L86.75,58.97L88.92,54.21L91.08,59.5L95.42,43.87L97.59,41.59L99.76,32.76L101.93,42.41L104.1,48.61L106.27,46.23L110.6,38.55L112.77,45.12L114.94,54.34L117.11,51.18L119.28,48.1L121.45,41.85L123.61,38.12L125.78,36.42L127.95,42.02L130.12,29.11L132.29,31.9L134.46,26.21L136.63,25.96L138.8,22.57L140.96,21.09L143.13,28.06L145.3,26.71L147.47,32.39L149.64,27.01L151.81,29.75L153.98,24.98L156.14,24.65L158.31,23.41L160.48,20.74L162.65,25.84L164.82,22.86L169.16,24.36L171.33,26.28L173.49,31.02L175.66,30.74L177.83,37.18L180,40.9L182.17,41.04L184.34,43.73L188.67,49.5L190.84,56.72L193.01,51.83L195.18,50.93L197.35,50.38L199.52,56.21L201.69,63.31L203.86,64.88L206.02,65.41L208.19,61.54L210.36,61.71L212.53,64.4L214.7,55.99L216.87,60.13L219.04,59.04L221.2,56.77L223.37,61.06L225.54,67.18L227.71,67.98L229.88,67.76L232.05,64.06L234.22,71.01L238.55,65.96L240.72,67.5L242.89,67.87L245.06,66.89L247.23,74.05L249.4,71.25L253.73,73.68L255.9,72.2L258.07,76.44L260.24,72.24L262.41,72.02L264.58,69.67L266.75,65.63L268.92,69.76L271.08,69.83L273.25,59.88L275.42,57.1L277.59,64.38L279.76,61.29L281.93,59.67L284.1,57.91L286.27,61.36L288.43,60.96L290.6,62.76L292.77,58.04L294.94,60.14L297.11,62.46L299.28,61.51L301.45,55.81L303.61,57.56L305.78,60.09L307.95,60.64L310.12,60.39L312.29,58.78L314.46,65.54L316.63,65.41L318.8,65.99L320.96,60.22L323.13,56.17L325.3,59.67L329.64,58.11L331.81,61.04L333.98,59.61L336.14,61.73L338.31,65.31L340.48,63.64L342.65,63.74L344.82,68.1L346.99,67.84L349.16,69.16L351.33,64.95L353.49,66.63L355.66,65.54L357.83,66.81L360,65.54L362.17,67.55L364.34,69.08L366.51,68.56L368.67,74.12L370.84,72.17L373.01,72.46L375.18,74.74L377.35,79.72L379.52,76.88L381.69,76.12L383.86,80.58L386.02,79.07L388.19,79.84L390.36,82.23L392.53,79.39L394.7,80.69L396.87,79.49L399.04,79.03L401.2,81.74L403.37,78.21L405.54,78.51L409.88,77.65L412.05,78.3L414.22,80.83L416.39,81.69L418.55,80.18L420.72,82.44L425.06,77.25L427.23,80.21L429.4,74.33L431.57,75.11L433.73,75.48L435.9,77.5L438.07,80.05L440.24,79.14L442.41,75.69L444.58,79.12L446.75,77.39L448.92,76.98L451.08,76.05L453.25,76.7L457.59,79.03L459.76,77.23L461.93,77.17L464.1,81.33L466.27,82.31L468.43,80.23L470.6,81.85L472.77,86.97L477.11,93.42L479.28,97.28L481.45,94.08L483.61,94.6L485.78,97.51L487.95,95.05L490.12,97.74L492.29,98.25L494.46,97.98L496.63,98.53L498.8,95.11L500.96,98.9L505.3,95.9L507.47,100.6L511.81,100.37L513.98,104.11L516.14,105.4L518.31,111.86L520.48,113.42L522.65,114.03L529.16,111.41L531.33,107.26L533.49,107.9L535.66,113.8L540,115.45" style="vector-effect: non-scaling-stroke; fill: none; stroke: rgb(255, 151, 255); stroke-opacity: 1; stroke-width: 2px; opacity: 1;"/></g><g class="points"/><g class="text"/></g><g class="trace scatter trace33863c" style="stroke-miterlimit: 2; opacity: 1;"><g class="fills"/><g class="errorbars"/><g class="lines"><path class="js-line" d="M0,80.01L2.17,95.59L4.34,76.67L6.51,75.03L8.67,77.52L10.84,71.05L13.01,54.7L17.35,72.8L19.52,89.16L21.69,81.16L23.86,62.21L26.02,67.08L28.19,68.57L30.36,67.48L32.53,42.59L34.7,34.1L36.87,43.88L39.04,43.71L41.2,41.16L45.54,67.19L47.71,65.33L49.88,57.32L52.05,58.51L54.22,54.04L56.39,43.36L58.55,42.24L60.72,28.28L62.89,37.25L65.06,37.87L67.23,41.94L69.4,36.49L71.57,33.96L73.73,34.13L75.9,28.79L78.07,38.87L82.41,48.13L84.58,45.92L86.75,49.53L88.92,56.7L91.08,63.71L93.25,60.18L95.42,57.72L97.59,63.85L99.76,64.86L101.93,64.11L104.1,70.37L106.27,69.02L108.43,77.22L110.6,75.4L112.77,79.39L114.94,74.83L117.11,76.46L119.28,75.13L121.45,73.41L123.61,80.46L127.95,86.21L130.12,76.92L132.29,76.95L134.46,83.91L136.63,86.55L138.8,87.27L143.13,84.05L145.3,80.76L147.47,82.73L149.64,83.24L151.81,78.88L153.98,77.2L156.14,75.53L158.31,75.72L160.48,75.74L162.65,68.79L166.99,65.29L169.16,68.85L171.33,67.6L173.49,68.65L175.66,71.65L177.83,69.5L180,60.59L182.17,55.64L184.34,66.68L186.51,63.11L188.67,65.9L190.84,63.82L193.01,66.17L195.18,72.7L199.52,72.38L201.69,74.6L203.86,77.59L206.02,81.95L208.19,84.97L210.36,89.91L212.53,93.59L214.7,93.21L216.87,97.94L219.04,95.83L221.2,95.39L223.37,98.44L225.54,103.56L227.71,96.48L229.88,96.47L232.05,92.27L234.22,87.87L236.39,88.55L238.55,81.88L240.72,78.82L242.89,81.91L245.06,87.67L247.23,84.63L249.4,83.22L253.73,87.53L255.9,82.92L258.07,88.55L260.24,88.83L264.58,81.38L266.75,82.55L271.08,87.51L273.25,88.86L275.42,91.72L277.59,88.33L279.76,86.11L281.93,87.09L284.1,78.98L286.27,83.65L288.43,87.41L290.6,86.17L294.94,79.87L297.11,78.65L301.45,78.44L303.61,76.43L305.78,76.75L307.95,75.59L310.12,73.01L312.29,74.81L314.46,72.76L316.63,74.65L320.96,72.2L323.13,66.5L325.3,66.6L327.47,71.12L329.64,71.54L331.81,74.17L336.14,69.89L338.31,68.66L340.48,71.04L342.65,66.59L344.82,67.26L346.99,64.63L349.16,72.65L351.33,72.09L353.49,70.8L355.66,74L357.83,66.25L360,72.19L362.17,67.69L364.34,71.16L366.51,75.45L368.67,75.08L370.84,72.61L373.01,77.92L375.18,75.02L377.35,82.7L379.52,83.12L381.69,87.95L383.86,87.02L386.02,88.03L388.19,90.76L390.36,91.05L392.53,89.87L394.7,81.5L396.87,80.84L399.04,74.78L401.2,70.81L403.37,70.31L405.54,70.11L407.71,67.82L409.88,69.57L412.05,69.52L414.22,63.83L416.39,63.39L418.55,63.67L420.72,60.98L422.89,67.93L425.06,62.39L427.23,61.81L429.4,59.19L433.73,63.13L435.9,66.65L438.07,67.15L440.24,66.55L442.41,69.34L444.58,68.25L446.75,70.41L448.92,69.61L451.08,66L453.25,69.31L455.42,67.54L457.59,70.72L459.76,66.38L461.93,70.48L464.1,74.34L466.27,73.2L468.43,71.67L470.6,66.07L472.77,63.64L474.94,65.01L477.11,61.94L479.28,63.07L481.45,63.35L483.61,65.2L485.78,70.86L487.95,72.32L490.12,70.37L492.29,74.36L494.46,75.84L496.63,74.85L498.8,76.54L500.96,75.71L503.13,76.92L505.3,76.28L507.47,76.96L509.64,78.51L511.81,75.26L513.98,78.77L516.14,79.65L518.31,81.63L522.65,80.1L524.82,78.02L526.99,77.31L529.16,79.78L531.33,76.4L533.49,81.25L537.83,78.51L540,78.14" style="vector-effect: non-scaling-stroke; fill: none; stroke: rgb(254, 203, 82); stroke-opacity: 1; stroke-width: 2px; opacity: 1;"/></g><g class="points"/><g class="text"/></g></g></g><g class="overplot"/><path class="xlines-above crisp" d="M0,0" style="fill: none;"/><path class="ylines-above crisp" d="M0,0" style="fill: none;"/><g class="overlines-above"/><g class="xaxislayer-above"><g class="xtick"><text text-anchor="middle" x="0" y="433" transform="translate(80,0)" style="font-family: 'Open Sans', verdana, arial, sans-serif; font-size: 12px; fill: rgb(42, 63, 95); fill-opacity: 1; white-space: pre; opacity: 1;">0</text></g><g class="xtick"><text text-anchor="middle" x="0" y="433" style="font-family: 'Open Sans', verdana, arial, sans-serif; font-size: 12px; fill: rgb(42, 63, 95); fill-opacity: 1; white-space: pre; opacity: 1;" transform="translate(188.43,0)">50</text></g><g class="xtick"><text text-anchor="middle" x="0" y="433" style="font-family: 'Open Sans', verdana, arial, sans-serif; font-size: 12px; fill: rgb(42, 63, 95); fill-opacity: 1; white-space: pre; opacity: 1;" transform="translate(296.87,0)">100</text></g><g class="xtick"><text text-anchor="middle" x="0" y="433" style="font-family: 'Open Sans', verdana, arial, sans-serif; font-size: 12px; fill: rgb(42, 63, 95); fill-opacity: 1; white-space: pre; opacity: 1;" transform="translate(405.3,0)">150</text></g><g class="xtick"><text text-anchor="middle" x="0" y="433" style="font-family: 'Open Sans', verdana, arial, sans-serif; font-size: 12px; fill: rgb(42, 63, 95); fill-opacity: 1; white-space: pre; opacity: 1;" transform="translate(513.73,0)">200</text></g></g><g class="yaxislayer-above"><g class="ytick"><text text-anchor="end" x="79" y="4.199999999999999" transform="translate(0,420)" style="font-family: 'Open Sans', verdana, arial, sans-serif; font-size: 12px; fill: rgb(42, 63, 95); fill-opacity: 1; white-space: pre; opacity: 1;">0</text></g><g class="ytick"><text text-anchor="end" x="79" y="4.199999999999999" style="font-family: 'Open Sans', verdana, arial, sans-serif; font-size: 12px; fill: rgb(42, 63, 95); fill-opacity: 1; white-space: pre; opacity: 1;" transform="translate(0,374.05)">1000</text></g><g class="ytick"><text text-anchor="end" x="79" y="4.199999999999999" style="font-family: 'Open Sans', verdana, arial, sans-serif; font-size: 12px; fill: rgb(42, 63, 95); fill-opacity: 1; white-space: pre; opacity: 1;" transform="translate(0,328.1)">2000</text></g><g class="ytick"><text text-anchor="end" x="79" y="4.199999999999999" style="font-family: 'Open Sans', verdana, arial, sans-serif; font-size: 12px; fill: rgb(42, 63, 95); fill-opacity: 1; white-space: pre; opacity: 1;" transform="translate(0,282.15)">3000</text></g><g class="ytick"><text text-anchor="end" x="79" y="4.199999999999999" style="font-family: 'Open Sans', verdana, arial, sans-serif; font-size: 12px; fill: rgb(42, 63, 95); fill-opacity: 1; white-space: pre; opacity: 1;" transform="translate(0,236.2)">4000</text></g><g class="ytick"><text text-anchor="end" x="79" y="4.199999999999999" style="font-family: 'Open Sans', verdana, arial, sans-serif; font-size: 12px; fill: rgb(42, 63, 95); fill-opacity: 1; white-space: pre; opacity: 1;" transform="translate(0,190.25)">5000</text></g><g class="ytick"><text text-anchor="end" x="79" y="4.199999999999999" style="font-family: 'Open Sans', verdana, arial, sans-serif; font-size: 12px; fill: rgb(42, 63, 95); fill-opacity: 1; white-space: pre; opacity: 1;" transform="translate(0,144.3)">6000</text></g></g><g class="overaxes-above"/></g></g><g class="polarlayer"/><g class="ternarylayer"/><g class="geolayer"/><g class="funnelarealayer"/><g class="pielayer"/><g class="iciclelayer"/><g class="treemaplayer"/><g class="sunburstlayer"/><g class="glimages"/><defs id="topdefs-986914"><g class="clips"/></defs><g class="layer-above"><g class="imagelayer"/><g class="shapelayer"/></g><g class="infolayer"><g class="g-gtitle"><text class="gtitle" x="35" y="50" text-anchor="start" dy="0em" style="font-family: 'Open Sans', verdana, arial, sans-serif; font-size: 17px; fill: rgb(42, 63, 95); opacity: 1; font-weight: normal; white-space: pre;">Rank Variance: ascad_50-ascad_mlp (with early stopping)</text></g><g class="g-xtitle"/><g class="g-ytitle"/></g></svg>