<svg class="main-svg" xmlns="http://www.w3.org/2000/svg" xmlns:xlink="http://www.w3.org/1999/xlink" width="700" height="500" style="" viewBox="0 0 700 500"><rect x="0" y="0" width="700" height="500" style="fill: rgb(255, 255, 255); fill-opacity: 1;"/><defs id="defs-792334"><g class="clips"><clipPath id="clip792334xyplot" class="plotclip"><rect width="540" height="320"/></clipPath><clipPath class="axesclip" id="clip792334x"><rect x="80" y="0" width="540" height="500"/></clipPath><clipPath class="axesclip" id="clip792334y"><rect x="0" y="100" width="700" height="320"/></clipPath><clipPath class="axesclip" id="clip792334xy"><rect x="80" y="100" width="540" height="320"/></clipPath></g><g class="gradients"/><g class="patterns"/></defs><g class="bglayer"><rect class="bg" x="80" y="100" width="540" height="320" style="fill: rgb(229, 236, 246); fill-opacity: 1; stroke-width: 0;"/></g><g class="layer-below"><g class="imagelayer"/><g class="shapelayer"/></g><g class="cartesianlayer"><g class="subplot xy"><g class="layer-subplot"><g class="shapelayer"/><g class="imagelayer"/></g><g class="gridlayer"><g class="x"><path class="xgrid crisp" transform="translate(215.68,0)" d="M0,100v320" style="stroke: rgb(255, 255, 255); stroke-opacity: 1; stroke-width: 1px;"/><path class="xgrid crisp" transform="translate(351.36,0)" d="M0,100v320" style="stroke: rgb(255, 255, 255); stroke-opacity: 1; stroke-width: 1px;"/><path class="xgrid crisp" transform="translate(487.04,0)" d="M0,100v320" style="stroke: rgb(255, 255, 255); stroke-opacity: 1; stroke-width: 1px;"/></g><g class="y"><path class="ygrid crisp" transform="translate(0,387.77)" d="M80,0h540" style="stroke: rgb(255, 255, 255); stroke-opacity: 1; stroke-width: 1px;"/><path class="ygrid crisp" transform="translate(0,317.64)" d="M80,0h540" style="stroke: rgb(255, 255, 255); stroke-opacity: 1; stroke-width: 1px;"/><path class="ygrid crisp" transform="translate(0,247.52)" d="M80,0h540" style="stroke: rgb(255, 255, 255); stroke-opacity: 1; stroke-width: 1px;"/><path class="ygrid crisp" transform="translate(0,177.4)" d="M80,0h540" style="stroke: rgb(255, 255, 255); stroke-opacity: 1; stroke-width: 1px;"/><path class="ygrid crisp" transform="translate(0,107.28)" d="M80,0h540" style="stroke: rgb(255, 255, 255); stroke-opacity: 1; stroke-width: 1px;"/></g></g><g class="zerolinelayer"><path class="xzl zl crisp" transform="translate(80,0)" d="M0,100v320" style="stroke: rgb(255, 255, 255); stroke-opacity: 1; stroke-width: 2px;"/></g><path class="xlines-below"/><path class="ylines-below"/><g class="overlines-below"/><g class="xaxislayer-below"/><g class="yaxislayer-below"/><g class="overaxes-below"/><g class="plot" transform="translate(80,100)" clip-path="url(#clip792334xyplot)"><g class="scatterlayer mlayer"><g class="trace scatter trace526a16" style="stroke-miterlimit: 2; opacity: 1;"><g class="fills"/><g class="errorbars"/><g class="lines"><path class="js-line" d="M0,0L2.71,261.46L5.43,273.42L8.14,277.23L10.85,278.98L16.28,280.95L18.99,281.51L32.56,283.48L35.28,283.7L67.84,286.57L70.55,286.73L189.95,294.81L192.66,294.95L469.45,309.76L472.16,309.83L540,313.28" style="vector-effect: non-scaling-stroke; fill: none; stroke: rgb(99, 110, 250); stroke-opacity: 1; stroke-width: 2px; opacity: 1;"/></g><g class="points"/><g class="text"/></g><g class="trace scatter traced79852" style="stroke-miterlimit: 2; opacity: 1;"><g class="fills"/><g class="errorbars"/><g class="lines"><path class="js-line" d="M0,0L2.71,261.46L5.43,273.42L8.14,277.23L10.85,278.98L16.28,280.95L18.99,281.51L32.56,283.48L35.28,283.7L67.84,286.57L70.55,286.73L189.95,294.81L192.66,294.95L469.45,309.76L472.16,309.83L540,313.28" style="vector-effect: non-scaling-stroke; fill: none; stroke: rgb(239, 85, 59); stroke-opacity: 1; stroke-width: 2px; opacity: 1;"/></g><g class="points"/><g class="text"/></g><g class="trace scatter traceb517e8" style="stroke-miterlimit: 2; opacity: 1;"><g class="fills"/><g class="errorbars"/><g class="lines"><path class="js-line" d="M0,0L2.71,261.46L5.43,273.42L8.14,277.23L10.85,278.98L16.28,280.95L18.99,281.51L32.56,283.48L35.28,283.7L67.84,286.57L70.55,286.73L189.95,294.81L192.66,294.95L469.45,309.76L472.16,309.83L540,313.28" style="vector-effect: non-scaling-stroke; fill: none; stroke: rgb(0, 204, 150); stroke-opacity: 1; stroke-width: 2px; opacity: 1;"/></g><g class="points"/><g class="text"/></g><g class="trace scatter trace1e5559" style="stroke-miterlimit: 2; opacity: 1;"><g class="fills"/><g class="errorbars"/><g class="lines"><path class="js-line" d="M0,0L2.71,261.46L5.43,273.42L8.14,277.23L10.85,278.98L16.28,280.95L18.99,281.51L32.56,283.48L35.28,283.7L67.84,286.57L70.55,286.73L189.95,294.81L192.66,294.95L469.45,309.76L472.16,309.83L540,313.28" style="vector-effect: non-scaling-stroke; fill: none; stroke: rgb(171, 99, 250); stroke-opacity: 1; stroke-width: 2px; opacity: 1;"/></g><g class="points"/><g class="text"/></g><g class="trace scatter trace792f0d" style="stroke-miterlimit: 2; opacity: 1;"><g class="fills"/><g class="errorbars"/><g class="lines"><path class="js-line" d="M0,0L2.71,261.46L5.43,273.42L8.14,277.23L10.85,278.98L16.28,280.95L18.99,281.51L32.56,283.48L35.28,283.7L67.84,286.57L70.55,286.73L189.95,294.81L192.66,294.95L469.45,309.76L472.16,309.83L540,313.28" style="vector-effect: non-scaling-stroke; fill: none; stroke: rgb(255, 161, 90); stroke-opacity: 1; stroke-width: 2px; opacity: 1;"/></g><g class="points"/><g class="text"/></g><g class="trace scatter trace00cb30" style="stroke-miterlimit: 2; opacity: 1;"><g class="fills"/><g class="errorbars"/><g class="lines"><path class="js-line" d="M0,0L2.71,261.46L5.43,273.42L8.14,277.23L10.85,278.98L16.28,280.95L18.99,281.51L32.56,283.48L35.28,283.7L67.84,286.57L70.55,286.73L189.95,294.81L192.66,294.95L469.45,309.76L472.16,309.83L540,313.28" style="vector-effect: non-scaling-stroke; fill: none; stroke: rgb(25, 211, 243); stroke-opacity: 1; stroke-width: 2px; opacity: 1;"/></g><g class="points"/><g class="text"/></g><g class="trace scatter traceb8e01c" style="stroke-miterlimit: 2; opacity: 1;"><g class="fills"/><g class="errorbars"/><g class="lines"><path class="js-line" d="M0,0L2.71,261.46L5.43,273.42L8.14,277.23L10.85,278.98L16.28,280.95L18.99,281.51L32.56,283.48L35.28,283.7L67.84,286.57L70.55,286.73L189.95,294.81L192.66,294.95L469.45,309.76L472.16,309.83L540,313.28" style="vector-effect: non-scaling-stroke; fill: none; stroke: rgb(255, 102, 146); stroke-opacity: 1; stroke-width: 2px; opacity: 1;"/></g><g class="points"/><g class="text"/></g><g class="trace scatter tracea0b7af" style="stroke-miterlimit: 2; opacity: 1;"><g class="fills"/><g class="errorbars"/><g class="lines"><path class="js-line" d="M0,0L2.71,261.46L5.43,273.42L8.14,277.23L10.85,278.98L16.28,280.95L18.99,281.51L32.56,283.48L35.28,283.7L67.84,286.57L70.55,286.73L189.95,294.81L192.66,294.95L469.45,309.76L472.16,309.83L540,313.28" style="vector-effect: non-scaling-stroke; fill: none; stroke: rgb(182, 232, 128); stroke-opacity: 1; stroke-width: 2px; opacity: 1;"/></g><g class="points"/><g class="text"/></g><g class="trace scatter tracee5f662" style="stroke-miterlimit: 2; opacity: 1;"><g class="fills"/><g class="errorbars"/><g class="lines"><path class="js-line" d="M0,0L2.71,261.46L5.43,273.42L8.14,277.23L10.85,278.98L16.28,280.95L18.99,281.51L32.56,283.48L35.28,283.7L67.84,286.57L70.55,286.73L189.95,294.81L192.66,294.95L469.45,309.76L472.16,309.83L540,313.28" style="vector-effect: non-scaling-stroke; fill: none; stroke: rgb(255, 151, 255); stroke-opacity: 1; stroke-width: 2px; opacity: 1;"/></g><g class="points"/><g class="text"/></g><g class="trace scatter trace5edf4b" style="stroke-miterlimit: 2; opacity: 1;"><g class="fills"/><g class="errorbars"/><g class="lines"><path class="js-line" d="M0,0L2.71,261.46L5.43,273.42L8.14,277.23L10.85,278.98L16.28,280.95L18.99,281.51L32.56,283.48L35.28,283.7L67.84,286.57L70.55,286.73L189.95,294.81L192.66,294.95L469.45,309.76L472.16,309.83L540,313.28" style="vector-effect: non-scaling-stroke; fill: none; stroke: rgb(254, 203, 82); stroke-opacity: 1; stroke-width: 2px; opacity: 1;"/></g><g class="points"/><g class="text"/></g><g class="trace scatter tracef7fe89" style="stroke-miterlimit: 2; opacity: 1;"><g class="fills"/><g class="errorbars"/><g class="lines"><path class="js-line" d="M0,0L2.71,261.46L5.43,273.42L8.14,277.23L10.85,278.98L16.28,280.95L18.99,281.51L32.56,283.48L35.28,283.7L67.84,286.57L70.55,286.73L189.95,294.81L192.66,294.95L469.45,309.76L472.16,309.83L540,313.28" style="vector-effect: non-scaling-stroke; fill: none; stroke: rgb(99, 110, 250); stroke-opacity: 1; stroke-width: 2px; opacity: 1;"/></g><g class="points"/><g class="text"/></g><g class="trace scatter tracecb5463" style="stroke-miterlimit: 2; opacity: 1;"><g class="fills"/><g class="errorbars"/><g class="lines"><path class="js-line" d="M0,0L2.71,261.46L5.43,273.42L8.14,277.23L10.85,278.98L16.28,280.95L18.99,281.51L32.56,283.48L35.28,283.7L67.84,286.57L70.55,286.73L189.95,294.81L192.66,294.95L469.45,309.76L472.16,309.83L540,313.28" style="vector-effect: non-scaling-stroke; fill: none; stroke: rgb(239, 85, 59); stroke-opacity: 1; stroke-width: 2px; opacity: 1;"/></g><g class="points"/><g class="text"/></g><g class="trace scatter tracef97f0b" style="stroke-miterlimit: 2; opacity: 1;"><g class="fills"/><g class="errorbars"/><g class="lines"><path class="js-line" d="M0,0L2.71,261.46L5.43,273.42L8.14,277.23L10.85,278.98L16.28,280.95L18.99,281.51L32.56,283.48L35.28,283.7L67.84,286.57L70.55,286.73L189.95,294.81L192.66,294.95L469.45,309.76L472.16,309.83L540,313.28" style="vector-effect: non-scaling-stroke; fill: none; stroke: rgb(0, 204, 150); stroke-opacity: 1; stroke-width: 2px; opacity: 1;"/></g><g class="points"/><g class="text"/></g><g class="trace scatter trace4186fc" style="stroke-miterlimit: 2; opacity: 1;"><g class="fills"/><g class="errorbars"/><g class="lines"><path class="js-line" d="M0,0L2.71,261.46L5.43,273.42L8.14,277.23L10.85,278.98L16.28,280.95L18.99,281.51L32.56,283.48L35.28,283.7L67.84,286.57L70.55,286.73L189.95,294.81L192.66,294.95L469.45,309.76L472.16,309.83L540,313.28" style="vector-effect: non-scaling-stroke; fill: none; stroke: rgb(171, 99, 250); stroke-opacity: 1; stroke-width: 2px; opacity: 1;"/></g><g class="points"/><g class="text"/></g><g class="trace scatter trace00a141" style="stroke-miterlimit: 2; opacity: 1;"><g class="fills"/><g class="errorbars"/><g class="lines"><path class="js-line" d="M0,0L2.71,261.46L5.43,273.42L8.14,277.23L10.85,278.98L16.28,280.95L18.99,281.51L32.56,283.48L35.28,283.7L67.84,286.57L70.55,286.73L189.95,294.81L192.66,294.95L469.45,309.76L472.16,309.83L540,313.28" style="vector-effect: non-scaling-stroke; fill: none; stroke: rgb(255, 161, 90); stroke-opacity: 1; stroke-width: 2px; opacity: 1;"/></g><g class="points"/><g class="text"/></g><g class="trace scatter trace3aecc4" style="stroke-miterlimit: 2; opacity: 1;"><g class="fills"/><g class="errorbars"/><g class="lines"><path class="js-line" d="M0,0L2.71,261.46L5.43,273.42L8.14,277.23L10.85,278.98L16.28,280.95L18.99,281.51L32.56,283.48L35.28,283.7L67.84,286.57L70.55,286.73L189.95,294.81L192.66,294.95L469.45,309.76L472.16,309.83L540,313.28" style="vector-effect: non-scaling-stroke; fill: none; stroke: rgb(25, 211, 243); stroke-opacity: 1; stroke-width: 2px; opacity: 1;"/></g><g class="points"/><g class="text"/></g><g class="trace scatter traced87e25" style="stroke-miterlimit: 2; opacity: 1;"><g class="fills"/><g class="errorbars"/><g class="lines"><path class="js-line" d="M0,0L2.71,261.46L5.43,273.42L8.14,277.23L10.85,278.98L16.28,280.95L18.99,281.51L32.56,283.48L35.28,283.7L67.84,286.57L70.55,286.73L189.95,294.81L192.66,294.95L469.45,309.76L472.16,309.83L540,313.28" style="vector-effect: non-scaling-stroke; fill: none; stroke: rgb(255, 102, 146); stroke-opacity: 1; stroke-width: 2px; opacity: 1;"/></g><g class="points"/><g class="text"/></g><g class="trace scatter trace1c7d73" style="stroke-miterlimit: 2; opacity: 1;"><g class="fills"/><g class="errorbars"/><g class="lines"><path class="js-line" d="M0,0L2.71,261.46L5.43,273.42L8.14,277.23L10.85,278.98L16.28,280.95L18.99,281.51L32.56,283.48L35.28,283.7L67.84,286.57L70.55,286.73L189.95,294.81L192.66,294.95L469.45,309.76L472.16,309.83L540,313.28" style="vector-effect: non-scaling-stroke; fill: none; stroke: rgb(182, 232, 128); stroke-opacity: 1; stroke-width: 2px; opacity: 1;"/></g><g class="points"/><g class="text"/></g><g class="trace scatter trace7bba20" style="stroke-miterlimit: 2; opacity: 1;"><g class="fills"/><g class="errorbars"/><g class="lines"><path class="js-line" d="M0,0L2.71,261.46L5.43,273.42L8.14,277.23L10.85,278.98L16.28,280.95L18.99,281.51L32.56,283.48L35.28,283.7L67.84,286.57L70.55,286.73L189.95,294.81L192.66,294.95L469.45,309.76L472.16,309.83L540,313.28" style="vector-effect: non-scaling-stroke; fill: none; stroke: rgb(255, 151, 255); stroke-opacity: 1; stroke-width: 2px; opacity: 1;"/></g><g class="points"/><g class="text"/></g><g class="trace scatter trace19e7b8" style="stroke-miterlimit: 2; opacity: 1;"><g class="fills"/><g class="errorbars"/><g class="lines"><path class="js-line" d="M0,37.58L2.71,263.15L5.43,273.95L8.14,277.38L10.85,279.22L18.99,281.6L21.71,281.98L37.99,283.88L40.7,284.1L62.41,286L65.13,286.2L157.39,292.68L160.1,292.91L436.88,307.84L439.6,307.92L466.73,309.35L469.45,309.48L504.72,311.22L507.44,311.4L540,312.98" style="vector-effect: non-scaling-stroke; fill: none; stroke: rgb(254, 203, 82); stroke-opacity: 1; stroke-width: 2px; opacity: 1;"/></g><g class="points"/><g class="text"/></g></g></g><g class="overplot"/><path class="xlines-above crisp" d="M0,0" style="fill: none;"/><path class="ylines-above crisp" d="M0,0" style="fill: none;"/><g class="overlines-above"/><g class="xaxislayer-above"><g class="xtick"><text text-anchor="middle" x="0" y="433" transform="translate(80,0)" style="font-family: 'Open Sans', verdana, arial, sans-serif; font-size: 12px; fill: rgb(42, 63, 95); fill-opacity: 1; white-space: pre; opacity: 1;">0</text></g><g class="xtick"><text text-anchor="middle" x="0" y="433" style="font-family: 'Open Sans', verdana, arial, sans-serif; font-size: 12px; fill: rgb(42, 63, 95); fill-opacity: 1; white-space: pre; opacity: 1;" transform="translate(215.68,0)">50</text></g><g class="xtick"><text text-anchor="middle" x="0" y="433" style="font-family: 'Open Sans', verdana, arial, sans-serif; font-size: 12px; fill: rgb(42, 63, 95); fill-opacity: 1; white-space: pre; opacity: 1;" transform="translate(351.36,0)">100</text></g><g class="xtick"><text text-anchor="middle" x="0" y="433" style="font-family: 'Open Sans', verdana, arial, sans-serif; font-size: 12px; fill: rgb(42, 63, 95); fill-opacity: 1; white-space: pre; opacity: 1;" transform="translate(487.04,0)">150</text></g></g><g class="yaxislayer-above"><g class="ytick"><text text-anchor="end" x="79" y="4.199999999999999" transform="translate(0,387.77)" style="font-family: 'Open Sans', verdana, arial, sans-serif; font-size: 12px; fill: rgb(42, 63, 95); fill-opacity: 1; white-space: pre; opacity: 1;">5.5</text></g><g class="ytick"><text text-anchor="end" x="79" y="4.199999999999999" style="font-family: 'Open Sans', verdana, arial, sans-serif; font-size: 12px; fill: rgb(42, 63, 95); fill-opacity: 1; white-space: pre; opacity: 1;" transform="translate(0,317.64)">6</text></g><g class="ytick"><text text-anchor="end" x="79" y="4.199999999999999" style="font-family: 'Open Sans', verdana, arial, sans-serif; font-size: 12px; fill: rgb(42, 63, 95); fill-opacity: 1; white-space: pre; opacity: 1;" transform="translate(0,247.52)">6.5</text></g><g class="ytick"><text text-anchor="end" x="79" y="4.199999999999999" style="font-family: 'Open Sans', verdana, arial, sans-serif; font-size: 12px; fill: rgb(42, 63, 95); fill-opacity: 1; white-space: pre; opacity: 1;" transform="translate(0,177.4)">7</text></g><g class="ytick"><text text-anchor="end" x="79" y="4.199999999999999" style="font-family: 'Open Sans', verdana, arial, sans-serif; font-size: 12px; fill: rgb(42, 63, 95); fill-opacity: 1; white-space: pre; opacity: 1;" transform="translate(0,107.28)">7.5</text></g></g><g class="overaxes-above"/></g></g><g class="polarlayer"/><g class="ternarylayer"/><g class="geolayer"/><g class="funnelarealayer"/><g class="pielayer"/><g class="iciclelayer"/><g class="treemaplayer"/><g class="sunburstlayer"/><g class="glimages"/><defs id="topdefs-792334"><g class="clips"/></defs><g class="layer-above"><g class="imagelayer"/><g class="shapelayer"/></g><g class="infolayer"><g class="g-gtitle"><text class="gtitle" x="35" y="50" text-anchor="start" dy="0em" style="font-family: 'Open Sans', verdana, arial, sans-serif; font-size: 17px; fill: rgb(42, 63, 95); opacity: 1; font-weight: normal; white-space: pre;">Train Loss: ascad_50-ascad_mlp (with early stopping)</text></g><g class="g-xtitle"/><g class="g-ytitle"/></g></svg>