<svg class="main-svg" xmlns="http://www.w3.org/2000/svg" xmlns:xlink="http://www.w3.org/1999/xlink" width="700" height="500" style="" viewBox="0 0 700 500"><rect x="0" y="0" width="700" height="500" style="fill: rgb(255, 255, 255); fill-opacity: 1;"/><defs id="defs-0d2a87"><g class="clips"><clipPath id="clip0d2a87xyplot" class="plotclip"><rect width="444" height="320"/></clipPath><clipPath class="axesclip" id="clip0d2a87x"><rect x="80" y="0" width="444" height="500"/></clipPath><clipPath class="axesclip" id="clip0d2a87y"><rect x="0" y="100" width="700" height="320"/></clipPath><clipPath class="axesclip" id="clip0d2a87xy"><rect x="80" y="100" width="444" height="320"/></clipPath></g><g class="gradients"/><g class="patterns"/></defs><g class="bglayer"><rect class="bg" x="80" y="100" width="444" height="320" style="fill: rgb(229, 236, 246); fill-opacity: 1; stroke-width: 0;"/></g><g class="layer-below"><g class="imagelayer"/><g class="shapelayer"/></g><g class="cartesianlayer"><g class="subplot xy"><g class="layer-subplot"><g class="shapelayer"/><g class="imagelayer"/></g><g class="gridlayer"><g class="x"/><g class="y"><path class="ygrid crisp" transform="translate(0,418.58)" d="M80,0h444" style="stroke: rgb(255, 255, 255); stroke-opacity: 1; stroke-width: 1px;"/><path class="ygrid crisp" transform="translate(0,376)" d="M80,0h444" style="stroke: rgb(255, 255, 255); stroke-opacity: 1; stroke-width: 1px;"/><path class="ygrid crisp" transform="translate(0,333.41999999999996)" d="M80,0h444" style="stroke: rgb(255, 255, 255); stroke-opacity: 1; stroke-width: 1px;"/><path class="ygrid crisp" transform="translate(0,290.84000000000003)" d="M80,0h444" style="stroke: rgb(255, 255, 255); stroke-opacity: 1; stroke-width: 1px;"/><path class="ygrid crisp" transform="translate(0,248.25)" d="M80,0h444" style="stroke: rgb(255, 255, 255); stroke-opacity: 1; stroke-width: 1px;"/><path class="ygrid crisp" transform="translate(0,205.67000000000002)" d="M80,0h444" style="stroke: rgb(255, 255, 255); stroke-opacity: 1; stroke-width: 1px;"/><path class="ygrid crisp" transform="translate(0,163.09)" d="M80,0h444" style="stroke: rgb(255, 255, 255); stroke-opacity: 1; stroke-width: 1px;"/><path class="ygrid crisp" transform="translate(0,120.51)" d="M80,0h444" style="stroke: rgb(255, 255, 255); stroke-opacity: 1; stroke-width: 1px;"/></g></g><g class="zerolinelayer"/><path class="xlines-below"/><path class="ylines-below"/><g class="overlines-below"/><g class="xaxislayer-below"/><g class="yaxislayer-below"/><g class="overaxes-below"/><g class="plot" transform="translate(80,100)" clip-path="url(#clip0d2a87xyplot)"><g class="violinlayer mlayer"><g class="trace violins" style="opacity: 1;"><path class="violin" d="M114.38,93.64Q115.15,93.56 115.63,93.52C116.27,93.47 117.03,93.43 117.88,93.39C118.97,93.34 120.26,93.31 121.64,93.27C123.35,93.22 125.3,93.19 127.35,93.15C129.75,93.1 132.44,93.06 135.18,93.02C138.19,92.98 141.48,92.94 144.67,92.9C147.92,92.86 151.38,92.82 154.52,92.78C157.39,92.74 160.41,92.7 162.75,92.65C164.48,92.61 167.26,92.63 167.27,92.53C167.27,92.5 167.03,92.44 166.78,92.41C165.95,92.3 163.41,92.33 161.39,92.29C158.81,92.24 155.6,92.2 152.55,92.16C149.29,92.12 145.75,92.08 142.44,92.04C139.25,92 136,91.96 133.05,91.92C130.41,91.88 127.84,91.84 125.56,91.79C123.65,91.75 121.85,91.72 120.3,91.67C119.07,91.63 117.94,91.6 116.99,91.55C116.27,91.51 115.62,91.47 115.09,91.42C114.7,91.38 114.36,91.35 114.09,91.3C113.9,91.26 113.74,91.23 113.61,91.18C113.52,91.14 113.44,91.1 113.39,91.05C113.35,91.01 113.32,90.97 113.3,90.93C113.28,90.89 113.28,90.85 113.27,90.81C113.26,90.77 113.25,90.72 113.25,90.68C113.25,90.64 113.25,90.6 113.25,90.56C113.25,90.52 113.25,90.48 113.25,90.44C113.25,90.4 113.25,90.36 113.25,90.32C113.25,90.28 113.25,90.23 113.25,90.19C113.25,90.15 113.25,90.11 113.25,90.07C113.25,90.03 113.25,89.99 113.25,89.95C113.25,89.91 113.25,89.86 113.25,89.82C113.25,89.78 113.25,89.74 113.25,89.7C113.25,89.66 113.25,89.62 113.25,89.58C113.25,89.54 113.25,89.49 113.25,89.45C113.25,89.41 113.25,89.37 113.25,89.33C113.25,89.29 113.25,89.25 113.25,89.21C113.25,89.17 113.25,89.12 113.25,89.08C113.25,89.04 113.25,89 113.25,88.96C113.25,88.92 113.25,88.88 113.25,88.84C113.25,88.8 113.25,88.76 113.25,88.72C113.25,88.68 113.25,88.63 113.25,88.59C113.25,88.55 113.25,88.51 113.25,88.47C113.25,88.43 113.25,88.39 113.25,88.35C113.25,88.31 113.25,88.26 113.25,88.22C113.25,88.18 113.25,88.14 113.25,88.1C113.25,88.06 113.25,88.02 113.25,87.98C113.25,87.94 113.25,87.89 113.25,87.85C113.25,87.81 113.25,87.77 113.25,87.73C113.25,87.69 113.25,87.65 113.25,87.61C113.25,87.57 113.25,87.52 113.25,87.48C113.25,87.44 113.25,87.4 113.25,87.36C113.25,87.32 113.25,87.28 113.25,87.24C113.25,87.2 113.25,87.16 113.25,87.12C113.25,87.08 113.25,87.03 113.25,86.99C113.25,86.95 113.25,86.91 113.25,86.87C113.25,86.83 113.25,86.79 113.25,86.75C113.25,86.71 113.25,86.66 113.25,86.62C113.25,86.58 113.25,86.54 113.25,86.5C113.25,86.46 113.25,86.42 113.25,86.38C113.25,86.34 113.25,86.29 113.25,86.25C113.25,86.21 113.25,86.17 113.25,86.13C113.25,86.09 113.25,86.05 113.25,86.01C113.25,85.97 113.25,85.92 113.25,85.88C113.25,85.84 113.25,85.8 113.25,85.76C113.25,85.72 113.25,85.68 113.25,85.64C113.25,85.6 113.25,85.55 113.25,85.51C113.25,85.47 113.25,85.43 113.25,85.39C113.25,85.35 113.25,85.31 113.25,85.27C113.25,85.23 113.25,85.19 113.25,85.15C113.25,85.11 113.25,85.06 113.25,85.02C113.25,84.98 113.25,84.94 113.25,84.9C113.25,84.86 113.25,84.82 113.25,84.78C113.25,84.74 113.25,84.69 113.25,84.65C113.25,84.61 113.25,84.57 113.25,84.53C113.25,84.49 113.25,84.45 113.25,84.41C113.25,84.37 113.25,84.32 113.25,84.28C113.25,84.24 113.25,84.2 113.25,84.16C113.25,84.12 113.25,84.08 113.25,84.04C113.25,84 113.25,83.95 113.25,83.91C113.25,83.87 113.25,83.83 113.25,83.79C113.25,83.75 113.25,83.71 113.25,83.67C113.25,83.63 113.25,83.59 113.25,83.55C113.25,83.51 113.25,83.46 113.25,83.42C113.25,83.38 113.25,83.34 113.25,83.3C113.25,83.26 113.25,83.22 113.25,83.18C113.25,83.14 113.25,83.09 113.25,83.05C113.25,83.01 113.25,82.97 113.25,82.93C113.25,82.89 113.25,82.85 113.25,82.81C113.25,82.77 113.25,82.72 113.25,82.68C113.25,82.64 113.25,82.6 113.25,82.56C113.25,82.52 113.26,82.48 113.26,82.44C113.27,82.4 113.27,82.35 113.28,82.31C113.29,82.27 113.3,82.23 113.32,82.19C113.34,82.15 113.36,82.11 113.38,82.07C113.41,82.03 113.44,81.99 113.47,81.95C113.51,81.91 113.55,81.86 113.59,81.82C113.63,81.78 113.67,81.74 113.71,81.7C113.75,81.66 113.79,81.62 113.82,81.58C113.85,81.54 113.88,81.49 113.89,81.45C113.9,81.41 113.89,81.37 113.88,81.33C113.87,81.29 113.84,81.25 113.81,81.21C113.78,81.17 113.74,81.12 113.7,81.08C113.66,81.04 113.61,81 113.57,80.96C113.53,80.92 113.48,80.88 113.45,80.84C113.42,80.8 113.39,80.75 113.37,80.71C113.35,80.67 113.33,80.63 113.31,80.59C113.3,80.55 113.29,80.51 113.28,80.47C113.27,80.43 113.27,80.38 113.26,80.34C113.26,80.3 113.25,80.26 113.25,80.22C113.25,80.18 113.25,80.14 113.25,80.1C113.25,80.06 113.25,80.02 113.25,79.98C113.25,79.94 113.25,79.89 113.25,79.85C113.25,79.81 113.25,79.77 113.25,79.73C113.25,79.69 113.25,79.65 113.25,79.61C113.25,79.57 113.25,79.52 113.25,79.48C113.25,79.44 113.25,79.4 113.25,79.36C113.25,79.32 113.25,79.28 113.25,79.24C113.25,79.2 113.25,79.15 113.25,79.11C113.25,79.07 113.25,79.03 113.25,78.99C113.25,78.95 113.25,78.91 113.25,78.87C113.25,78.83 113.25,78.78 113.25,78.74C113.25,78.7 113.25,78.66 113.25,78.62C113.25,78.58 113.25,78.54 113.25,78.5C113.25,78.46 113.25,78.42 113.25,78.38C113.25,78.34 113.25,78.29 113.25,78.25C113.25,78.21 113.25,78.17 113.25,78.13C113.25,78.09 113.25,78.05 113.25,78.01C113.25,77.97 113.25,77.92 113.25,77.88C113.25,77.84 113.25,77.8 113.25,77.76C113.25,77.72 113.25,77.68 113.25,77.64C113.25,77.6 113.25,77.55 113.25,77.51C113.25,77.47 113.25,77.43 113.25,77.39C113.25,77.35 113.25,77.31 113.25,77.27C113.25,77.23 113.25,77.18 113.25,77.14C113.25,77.1 113.25,77.06 113.25,77.02C113.25,76.98 113.25,76.94 113.25,76.9C113.25,76.86 113.25,76.82 113.25,76.78C113.25,76.74 113.25,76.69 113.25,76.65C113.25,76.61 113.25,76.57 113.25,76.53C113.25,76.49 113.25,76.45 113.25,76.41C113.25,76.37 113.25,76.32 113.25,76.28C113.25,76.24 113.25,76.2 113.25,76.16C113.25,76.12 113.25,76.08 113.25,76.04C113.25,76 113.25,75.95 113.25,75.91C113.25,75.87 113.25,75.83 113.25,75.79C113.25,75.75 113.25,75.71 113.25,75.67C113.25,75.63 113.25,75.58 113.25,75.54C113.25,75.5 113.25,75.46 113.25,75.42C113.25,75.38 113.25,75.34 113.25,75.3C113.25,75.26 113.25,75.21 113.25,75.17C113.25,75.13 113.25,75.09 113.25,75.05C113.25,75.01 113.25,74.97 113.25,74.93C113.25,74.89 113.25,74.85 113.25,74.81C113.25,74.77 113.25,74.72 113.25,74.68C113.25,74.64 113.25,74.6 113.25,74.56C113.25,74.52 113.25,74.48 113.25,74.44C113.25,74.4 113.25,74.35 113.25,74.31C113.25,74.27 113.25,74.23 113.25,74.19C113.25,74.15 113.25,74.11 113.25,74.07C113.25,74.03 113.25,73.98 113.25,73.94C113.25,73.9 113.25,73.86 113.25,73.82C113.25,73.78 113.25,73.74 113.25,73.7C113.25,73.66 113.25,73.61 113.25,73.57C113.25,73.53 113.25,73.49 113.25,73.45C113.25,73.41 113.25,73.37 113.25,73.33C113.25,73.29 113.25,73.25 113.25,73.21C113.25,73.17 113.25,73.12 113.25,73.08C113.25,73.04 113.25,73 113.25,72.96C113.25,72.92 113.25,72.88 113.25,72.84C113.25,72.8 113.25,72.75 113.25,72.71C113.25,72.67 113.25,72.63 113.25,72.59C113.25,72.55 113.25,72.51 113.25,72.47C113.25,72.43 113.25,72.38 113.25,72.34C113.25,72.3 113.25,72.26 113.25,72.22C113.25,72.18 113.25,72.14 113.25,72.1C113.25,72.06 113.25,72.01 113.25,71.97C113.25,71.93 113.25,71.89 113.25,71.85C113.25,71.81 113.25,71.77 113.25,71.73C113.25,71.69 113.25,71.65 113.25,71.61C113.25,71.57 113.25,71.52 113.25,71.48C113.25,71.44 113.25,71.4 113.25,71.36C113.25,71.32 113.25,71.28 113.25,71.24C113.25,71.2 113.25,71.15 113.25,71.11C113.25,71.07 113.25,71.03 113.25,70.99C113.25,70.95 113.25,70.91 113.25,70.87C113.25,70.83 113.25,70.78 113.25,70.74C113.25,70.7 113.25,70.66 113.25,70.62C113.25,70.58 113.25,70.54 113.25,70.5C113.25,70.46 113.25,70.41 113.25,70.37C113.25,70.33 113.25,70.29 113.25,70.25C113.25,70.21 113.25,70.17 113.25,70.13C113.25,70.09 113.25,70.05 113.25,70.01C113.25,69.97 113.25,69.92 113.25,69.88C113.25,69.84 113.25,69.8 113.25,69.76C113.25,69.72 113.25,69.68 113.25,69.64C113.25,69.6 113.25,69.55 113.25,69.51C113.25,69.47 113.25,69.43 113.25,69.39C113.25,69.35 113.26,69.31 113.26,69.27C113.27,69.23 113.27,69.18 113.28,69.14C113.29,69.1 113.3,69.06 113.31,69.02C113.33,68.98 113.34,68.94 113.37,68.9C113.4,68.86 113.44,68.81 113.48,68.77C113.52,68.73 113.57,68.69 113.63,68.65C113.69,68.61 113.77,68.57 113.85,68.53C113.93,68.49 114.01,68.44 114.1,68.4C114.19,68.36 114.29,68.32 114.38,68.28C114.47,68.24 114.56,68.2 114.64,68.16C114.71,68.12 114.78,68.09 114.83,68.04C114.87,68 114.91,67.95 114.92,67.91C114.93,67.87 114.91,67.83 114.88,67.79C114.85,67.74 114.77,67.71 114.71,67.67C114.63,67.62 114.53,67.58 114.44,67.54C114.34,67.5 114.23,67.46 114.13,67.42C114.03,67.38 113.93,67.34 113.84,67.3C113.76,67.26 113.68,67.21 113.61,67.17C113.55,67.13 113.5,67.09 113.45,67.05C113.41,67.01 113.38,66.97 113.35,66.93C113.32,66.89 113.3,66.84 113.29,66.8C113.28,66.76 113.28,66.72 113.27,66.68C113.27,66.64 113.26,66.6 113.26,66.56C113.26,66.52 113.25,66.48 113.25,66.44C113.25,66.4 113.25,66.35 113.25,66.31C113.25,66.27 113.25,66.23 113.25,66.19C113.25,66.15 113.25,66.11 113.25,66.07C113.25,66.03 113.25,65.98 113.25,65.94C113.25,65.9 113.25,65.86 113.25,65.82C113.25,65.78 113.25,65.74 113.25,65.7C113.25,65.66 113.25,65.61 113.25,65.57C113.25,65.53 113.25,65.49 113.25,65.45C113.25,65.41 113.25,65.37 113.25,65.33C113.25,65.29 113.25,65.24 113.25,65.2C113.25,65.16 113.25,65.12 113.25,65.08C113.25,65.04 113.25,65 113.25,64.96C113.25,64.92 113.25,64.88 113.25,64.84C113.25,64.8 113.25,64.75 113.25,64.71C113.25,64.67 113.25,64.63 113.25,64.59C113.25,64.55 113.25,64.51 113.25,64.47C113.25,64.43 113.25,64.38 113.25,64.34C113.25,64.3 113.25,64.26 113.25,64.22C113.25,64.18 113.25,64.14 113.25,64.1C113.25,64.06 113.25,64.01 113.25,63.97C113.25,63.93 113.25,63.89 113.25,63.85C113.25,63.81 113.25,63.77 113.25,63.73C113.25,63.69 113.25,63.64 113.25,63.6C113.25,63.56 113.25,63.52 113.25,63.48C113.25,63.44 113.25,63.4 113.25,63.36C113.25,63.32 113.25,63.27 113.25,63.23C113.25,63.19 113.25,63.15 113.25,63.11C113.25,63.07 113.25,63.03 113.25,62.99C113.25,62.95 113.25,62.91 113.25,62.87C113.25,62.83 113.25,62.78 113.25,62.74C113.25,62.7 113.25,62.66 113.25,62.62C113.25,62.58 113.25,62.54 113.25,62.5C113.25,62.46 113.25,62.41 113.25,62.37C113.25,62.33 113.25,62.29 113.25,62.25C113.25,62.21 113.26,62.17 113.26,62.13C113.26,62.09 113.26,62.04 113.27,62C113.28,61.96 113.29,61.92 113.31,61.88C113.33,61.84 113.35,61.8 113.38,61.76C113.41,61.72 113.45,61.67 113.5,61.63C113.55,61.59 113.62,61.55 113.68,61.51C113.75,61.47 113.83,61.43 113.91,61.39C113.99,61.35 114.09,61.31 114.17,61.27C114.25,61.23 114.33,61.19 114.39,61.14C114.44,61.1 114.5,61.06 114.52,61.02C114.54,60.98 114.54,60.94 114.52,60.9C114.5,60.85 114.44,60.81 114.39,60.77C114.33,60.72 114.24,60.69 114.17,60.65C114.09,60.61 114.01,60.57 113.94,60.53C113.87,60.49 113.81,60.45 113.76,60.4C113.72,60.36 113.68,60.32 113.66,60.28C113.65,60.24 113.65,60.2 113.66,60.16C113.67,60.12 113.7,60.07 113.72,60.03C113.75,59.99 113.78,59.95 113.81,59.91C113.84,59.87 113.87,59.83 113.88,59.79C113.89,59.75 113.89,59.71 113.89,59.67C113.89,59.63 113.87,59.58 113.85,59.54C113.83,59.5 113.79,59.46 113.75,59.42C113.71,59.38 113.66,59.34 113.62,59.3C113.58,59.26 113.54,59.21 113.5,59.17C113.46,59.13 113.43,59.09 113.4,59.05C113.37,59.01 113.35,58.97 113.33,58.93C113.31,58.89 113.3,58.84 113.29,58.8C113.28,58.76 113.28,58.72 113.27,58.68C113.27,58.64 113.26,58.6 113.26,58.56C113.26,58.52 113.25,58.47 113.25,58.43C113.25,58.39 113.25,58.35 113.25,58.31C113.25,58.27 113.25,58.23 113.25,58.19C113.25,58.15 113.25,58.1 113.25,58.06C113.25,58.02 113.25,57.98 113.25,57.94C113.25,57.9 113.25,57.86 113.25,57.82C113.25,57.78 113.25,57.74 113.25,57.7C113.25,57.66 113.25,57.61 113.25,57.57C113.25,57.53 113.25,57.49 113.25,57.45C113.25,57.41 113.25,57.37 113.25,57.33C113.25,57.29 113.25,57.24 113.25,57.2C113.25,57.16 113.25,57.12 113.25,57.08C113.25,57.04 113.26,57 113.26,56.96C113.26,56.92 113.26,56.87 113.27,56.83C113.27,56.79 113.28,56.75 113.29,56.71C113.3,56.67 113.32,56.63 113.34,56.59C113.36,56.55 113.38,56.5 113.41,56.46C113.44,56.42 113.48,56.38 113.52,56.34C113.56,56.3 113.6,56.26 113.64,56.22C113.68,56.18 113.73,56.14 113.77,56.1C113.81,56.06 113.84,56.01 113.86,55.97C113.88,55.93 113.89,55.89 113.89,55.85C113.89,55.81 113.88,55.77 113.86,55.73C113.84,55.69 113.8,55.64 113.76,55.6C113.72,55.56 113.68,55.52 113.64,55.48C113.6,55.44 113.55,55.4 113.51,55.36C113.47,55.32 113.44,55.27 113.41,55.23Q113.38,55.19 113.34,55.11L113.16,55.11Q113.12,55.19 113.09,55.23C113.06,55.27 113.03,55.32 112.99,55.36C112.95,55.4 112.9,55.44 112.86,55.48C112.82,55.52 112.78,55.56 112.74,55.6C112.7,55.64 112.66,55.69 112.64,55.73C112.62,55.77 112.61,55.81 112.61,55.85C112.61,55.89 112.62,55.93 112.64,55.97C112.66,56.01 112.69,56.06 112.73,56.1C112.77,56.14 112.82,56.18 112.86,56.22C112.9,56.26 112.94,56.3 112.98,56.34C113.02,56.38 113.06,56.42 113.09,56.46C113.12,56.5 113.14,56.55 113.16,56.59C113.18,56.63 113.2,56.67 113.21,56.71C113.22,56.75 113.23,56.79 113.23,56.83C113.24,56.87 113.24,56.92 113.24,56.96C113.24,57 113.25,57.04 113.25,57.08C113.25,57.12 113.25,57.16 113.25,57.2C113.25,57.24 113.25,57.29 113.25,57.33C113.25,57.37 113.25,57.41 113.25,57.45C113.25,57.49 113.25,57.53 113.25,57.57C113.25,57.61 113.25,57.66 113.25,57.7C113.25,57.74 113.25,57.78 113.25,57.82C113.25,57.86 113.25,57.9 113.25,57.94C113.25,57.98 113.25,58.02 113.25,58.06C113.25,58.1 113.25,58.15 113.25,58.19C113.25,58.23 113.25,58.27 113.25,58.31C113.25,58.35 113.25,58.39 113.25,58.43C113.25,58.47 113.24,58.52 113.24,58.56C113.24,58.6 113.23,58.64 113.23,58.68C113.22,58.72 113.22,58.76 113.21,58.8C113.2,58.84 113.19,58.89 113.17,58.93C113.15,58.97 113.13,59.01 113.1,59.05C113.07,59.09 113.04,59.13 113,59.17C112.96,59.21 112.92,59.26 112.88,59.3C112.84,59.34 112.79,59.38 112.75,59.42C112.71,59.46 112.67,59.5 112.65,59.54C112.63,59.58 112.61,59.63 112.61,59.67C112.61,59.71 112.61,59.75 112.62,59.79C112.63,59.83 112.66,59.87 112.69,59.91C112.72,59.95 112.75,59.99 112.78,60.03C112.8,60.07 112.83,60.12 112.84,60.16C112.85,60.2 112.85,60.24 112.84,60.28C112.82,60.32 112.78,60.36 112.74,60.4C112.69,60.45 112.63,60.49 112.56,60.53C112.49,60.57 112.41,60.61 112.33,60.65C112.26,60.69 112.17,60.72 112.11,60.77C112.06,60.81 112,60.85 111.98,60.9C111.96,60.94 111.96,60.98 111.98,61.02C112,61.06 112.06,61.1 112.11,61.14C112.17,61.19 112.25,61.23 112.33,61.27C112.41,61.31 112.51,61.35 112.59,61.39C112.67,61.43 112.75,61.47 112.82,61.51C112.88,61.55 112.95,61.59 113,61.63C113.05,61.67 113.09,61.72 113.12,61.76C113.15,61.8 113.17,61.84 113.19,61.88C113.21,61.92 113.22,61.96 113.23,62C113.24,62.04 113.24,62.09 113.24,62.13C113.24,62.17 113.25,62.21 113.25,62.25C113.25,62.29 113.25,62.33 113.25,62.37C113.25,62.41 113.25,62.46 113.25,62.5C113.25,62.54 113.25,62.58 113.25,62.62C113.25,62.66 113.25,62.7 113.25,62.74C113.25,62.78 113.25,62.83 113.25,62.87C113.25,62.91 113.25,62.95 113.25,62.99C113.25,63.03 113.25,63.07 113.25,63.11C113.25,63.15 113.25,63.19 113.25,63.23C113.25,63.27 113.25,63.32 113.25,63.36C113.25,63.4 113.25,63.44 113.25,63.48C113.25,63.52 113.25,63.56 113.25,63.6C113.25,63.64 113.25,63.69 113.25,63.73C113.25,63.77 113.25,63.81 113.25,63.85C113.25,63.89 113.25,63.93 113.25,63.97C113.25,64.01 113.25,64.06 113.25,64.1C113.25,64.14 113.25,64.18 113.25,64.22C113.25,64.26 113.25,64.3 113.25,64.34C113.25,64.38 113.25,64.43 113.25,64.47C113.25,64.51 113.25,64.55 113.25,64.59C113.25,64.63 113.25,64.67 113.25,64.71C113.25,64.75 113.25,64.8 113.25,64.84C113.25,64.88 113.25,64.92 113.25,64.96C113.25,65 113.25,65.04 113.25,65.08C113.25,65.12 113.25,65.16 113.25,65.2C113.25,65.24 113.25,65.29 113.25,65.33C113.25,65.37 113.25,65.41 113.25,65.45C113.25,65.49 113.25,65.53 113.25,65.57C113.25,65.61 113.25,65.66 113.25,65.7C113.25,65.74 113.25,65.78 113.25,65.82C113.25,65.86 113.25,65.9 113.25,65.94C113.25,65.98 113.25,66.03 113.25,66.07C113.25,66.11 113.25,66.15 113.25,66.19C113.25,66.23 113.25,66.27 113.25,66.31C113.25,66.35 113.25,66.4 113.25,66.44C113.25,66.48 113.24,66.52 113.24,66.56C113.24,66.6 113.23,66.64 113.23,66.68C113.22,66.72 113.22,66.76 113.21,66.8C113.2,66.84 113.18,66.89 113.15,66.93C113.12,66.97 113.09,67.01 113.05,67.05C113,67.09 112.95,67.13 112.89,67.17C112.82,67.21 112.74,67.26 112.66,67.3C112.57,67.34 112.47,67.38 112.37,67.42C112.27,67.46 112.16,67.5 112.06,67.54C111.97,67.58 111.87,67.62 111.79,67.67C111.73,67.71 111.65,67.74 111.62,67.79C111.59,67.83 111.57,67.87 111.58,67.91C111.59,67.95 111.63,68 111.67,68.04C111.72,68.09 111.79,68.12 111.86,68.16C111.94,68.2 112.03,68.24 112.12,68.28C112.21,68.32 112.31,68.36 112.4,68.4C112.49,68.44 112.57,68.49 112.65,68.53C112.73,68.57 112.81,68.61 112.87,68.65C112.93,68.69 112.98,68.73 113.02,68.77C113.06,68.81 113.1,68.86 113.13,68.9C113.16,68.94 113.17,68.98 113.19,69.02C113.2,69.06 113.21,69.1 113.22,69.14C113.23,69.18 113.23,69.23 113.24,69.27C113.24,69.31 113.25,69.35 113.25,69.39C113.25,69.43 113.25,69.47 113.25,69.51C113.25,69.55 113.25,69.6 113.25,69.64C113.25,69.68 113.25,69.72 113.25,69.76C113.25,69.8 113.25,69.84 113.25,69.88C113.25,69.92 113.25,69.97 113.25,70.01C113.25,70.05 113.25,70.09 113.25,70.13C113.25,70.17 113.25,70.21 113.25,70.25C113.25,70.29 113.25,70.33 113.25,70.37C113.25,70.41 113.25,70.46 113.25,70.5C113.25,70.54 113.25,70.58 113.25,70.62C113.25,70.66 113.25,70.7 113.25,70.74C113.25,70.78 113.25,70.83 113.25,70.87C113.25,70.91 113.25,70.95 113.25,70.99C113.25,71.03 113.25,71.07 113.25,71.11C113.25,71.15 113.25,71.2 113.25,71.24C113.25,71.28 113.25,71.32 113.25,71.36C113.25,71.4 113.25,71.44 113.25,71.48C113.25,71.52 113.25,71.57 113.25,71.61C113.25,71.65 113.25,71.69 113.25,71.73C113.25,71.77 113.25,71.81 113.25,71.85C113.25,71.89 113.25,71.93 113.25,71.97C113.25,72.01 113.25,72.06 113.25,72.1C113.25,72.14 113.25,72.18 113.25,72.22C113.25,72.26 113.25,72.3 113.25,72.34C113.25,72.38 113.25,72.43 113.25,72.47C113.25,72.51 113.25,72.55 113.25,72.59C113.25,72.63 113.25,72.67 113.25,72.71C113.25,72.75 113.25,72.8 113.25,72.84C113.25,72.88 113.25,72.92 113.25,72.96C113.25,73 113.25,73.04 113.25,73.08C113.25,73.12 113.25,73.17 113.25,73.21C113.25,73.25 113.25,73.29 113.25,73.33C113.25,73.37 113.25,73.41 113.25,73.45C113.25,73.49 113.25,73.53 113.25,73.57C113.25,73.61 113.25,73.66 113.25,73.7C113.25,73.74 113.25,73.78 113.25,73.82C113.25,73.86 113.25,73.9 113.25,73.94C113.25,73.98 113.25,74.03 113.25,74.07C113.25,74.11 113.25,74.15 113.25,74.19C113.25,74.23 113.25,74.27 113.25,74.31C113.25,74.35 113.25,74.4 113.25,74.44C113.25,74.48 113.25,74.52 113.25,74.56C113.25,74.6 113.25,74.64 113.25,74.68C113.25,74.72 113.25,74.77 113.25,74.81C113.25,74.85 113.25,74.89 113.25,74.93C113.25,74.97 113.25,75.01 113.25,75.05C113.25,75.09 113.25,75.13 113.25,75.17C113.25,75.21 113.25,75.26 113.25,75.3C113.25,75.34 113.25,75.38 113.25,75.42C113.25,75.46 113.25,75.5 113.25,75.54C113.25,75.58 113.25,75.63 113.25,75.67C113.25,75.71 113.25,75.75 113.25,75.79C113.25,75.83 113.25,75.87 113.25,75.91C113.25,75.95 113.25,76 113.25,76.04C113.25,76.08 113.25,76.12 113.25,76.16C113.25,76.2 113.25,76.24 113.25,76.28C113.25,76.32 113.25,76.37 113.25,76.41C113.25,76.45 113.25,76.49 113.25,76.53C113.25,76.57 113.25,76.61 113.25,76.65C113.25,76.69 113.25,76.74 113.25,76.78C113.25,76.82 113.25,76.86 113.25,76.9C113.25,76.94 113.25,76.98 113.25,77.02C113.25,77.06 113.25,77.1 113.25,77.14C113.25,77.18 113.25,77.23 113.25,77.27C113.25,77.31 113.25,77.35 113.25,77.39C113.25,77.43 113.25,77.47 113.25,77.51C113.25,77.55 113.25,77.6 113.25,77.64C113.25,77.68 113.25,77.72 113.25,77.76C113.25,77.8 113.25,77.84 113.25,77.88C113.25,77.92 113.25,77.97 113.25,78.01C113.25,78.05 113.25,78.09 113.25,78.13C113.25,78.17 113.25,78.21 113.25,78.25C113.25,78.29 113.25,78.34 113.25,78.38C113.25,78.42 113.25,78.46 113.25,78.5C113.25,78.54 113.25,78.58 113.25,78.62C113.25,78.66 113.25,78.7 113.25,78.74C113.25,78.78 113.25,78.83 113.25,78.87C113.25,78.91 113.25,78.95 113.25,78.99C113.25,79.03 113.25,79.07 113.25,79.11C113.25,79.15 113.25,79.2 113.25,79.24C113.25,79.28 113.25,79.32 113.25,79.36C113.25,79.4 113.25,79.44 113.25,79.48C113.25,79.52 113.25,79.57 113.25,79.61C113.25,79.65 113.25,79.69 113.25,79.73C113.25,79.77 113.25,79.81 113.25,79.85C113.25,79.89 113.25,79.94 113.25,79.98C113.25,80.02 113.25,80.06 113.25,80.1C113.25,80.14 113.25,80.18 113.25,80.22C113.25,80.26 113.24,80.3 113.24,80.34C113.23,80.38 113.23,80.43 113.22,80.47C113.21,80.51 113.2,80.55 113.19,80.59C113.17,80.63 113.15,80.67 113.13,80.71C113.11,80.75 113.08,80.8 113.05,80.84C113.02,80.88 112.97,80.92 112.93,80.96C112.89,81 112.84,81.04 112.8,81.08C112.76,81.12 112.72,81.17 112.69,81.21C112.66,81.25 112.63,81.29 112.62,81.33C112.61,81.37 112.6,81.41 112.61,81.45C112.62,81.49 112.65,81.54 112.68,81.58C112.71,81.62 112.75,81.66 112.79,81.7C112.83,81.74 112.87,81.78 112.91,81.82C112.95,81.86 112.99,81.91 113.03,81.95C113.06,81.99 113.09,82.03 113.12,82.07C113.14,82.11 113.16,82.15 113.18,82.19C113.2,82.23 113.21,82.27 113.22,82.31C113.23,82.35 113.23,82.4 113.24,82.44C113.24,82.48 113.25,82.52 113.25,82.56C113.25,82.6 113.25,82.64 113.25,82.68C113.25,82.72 113.25,82.77 113.25,82.81C113.25,82.85 113.25,82.89 113.25,82.93C113.25,82.97 113.25,83.01 113.25,83.05C113.25,83.09 113.25,83.14 113.25,83.18C113.25,83.22 113.25,83.26 113.25,83.3C113.25,83.34 113.25,83.38 113.25,83.42C113.25,83.46 113.25,83.51 113.25,83.55C113.25,83.59 113.25,83.63 113.25,83.67C113.25,83.71 113.25,83.75 113.25,83.79C113.25,83.83 113.25,83.87 113.25,83.91C113.25,83.95 113.25,84 113.25,84.04C113.25,84.08 113.25,84.12 113.25,84.16C113.25,84.2 113.25,84.24 113.25,84.28C113.25,84.32 113.25,84.37 113.25,84.41C113.25,84.45 113.25,84.49 113.25,84.53C113.25,84.57 113.25,84.61 113.25,84.65C113.25,84.69 113.25,84.74 113.25,84.78C113.25,84.82 113.25,84.86 113.25,84.9C113.25,84.94 113.25,84.98 113.25,85.02C113.25,85.06 113.25,85.11 113.25,85.15C113.25,85.19 113.25,85.23 113.25,85.27C113.25,85.31 113.25,85.35 113.25,85.39C113.25,85.43 113.25,85.47 113.25,85.51C113.25,85.55 113.25,85.6 113.25,85.64C113.25,85.68 113.25,85.72 113.25,85.76C113.25,85.8 113.25,85.84 113.25,85.88C113.25,85.92 113.25,85.97 113.25,86.01C113.25,86.05 113.25,86.09 113.25,86.13C113.25,86.17 113.25,86.21 113.25,86.25C113.25,86.29 113.25,86.34 113.25,86.38C113.25,86.42 113.25,86.46 113.25,86.5C113.25,86.54 113.25,86.58 113.25,86.62C113.25,86.66 113.25,86.71 113.25,86.75C113.25,86.79 113.25,86.83 113.25,86.87C113.25,86.91 113.25,86.95 113.25,86.99C113.25,87.03 113.25,87.08 113.25,87.12C113.25,87.16 113.25,87.2 113.25,87.24C113.25,87.28 113.25,87.32 113.25,87.36C113.25,87.4 113.25,87.44 113.25,87.48C113.25,87.52 113.25,87.57 113.25,87.61C113.25,87.65 113.25,87.69 113.25,87.73C113.25,87.77 113.25,87.81 113.25,87.85C113.25,87.89 113.25,87.94 113.25,87.98C113.25,88.02 113.25,88.06 113.25,88.1C113.25,88.14 113.25,88.18 113.25,88.22C113.25,88.26 113.25,88.31 113.25,88.35C113.25,88.39 113.25,88.43 113.25,88.47C113.25,88.51 113.25,88.55 113.25,88.59C113.25,88.63 113.25,88.68 113.25,88.72C113.25,88.76 113.25,88.8 113.25,88.84C113.25,88.88 113.25,88.92 113.25,88.96C113.25,89 113.25,89.04 113.25,89.08C113.25,89.12 113.25,89.17 113.25,89.21C113.25,89.25 113.25,89.29 113.25,89.33C113.25,89.37 113.25,89.41 113.25,89.45C113.25,89.49 113.25,89.54 113.25,89.58C113.25,89.62 113.25,89.66 113.25,89.7C113.25,89.74 113.25,89.78 113.25,89.82C113.25,89.86 113.25,89.91 113.25,89.95C113.25,89.99 113.25,90.03 113.25,90.07C113.25,90.11 113.25,90.15 113.25,90.19C113.25,90.23 113.25,90.28 113.25,90.32C113.25,90.36 113.25,90.4 113.25,90.44C113.25,90.48 113.25,90.52 113.25,90.56C113.25,90.6 113.25,90.64 113.25,90.68C113.25,90.72 113.24,90.77 113.23,90.81C113.22,90.85 113.22,90.89 113.2,90.93C113.18,90.97 113.15,91.01 113.11,91.05C113.06,91.1 112.98,91.14 112.89,91.18C112.76,91.23 112.6,91.26 112.41,91.3C112.14,91.35 111.8,91.38 111.41,91.42C110.88,91.47 110.23,91.51 109.51,91.55C108.56,91.6 107.43,91.63 106.2,91.67C104.65,91.72 102.85,91.75 100.94,91.79C98.66,91.84 96.09,91.88 93.45,91.92C90.5,91.96 87.25,92 84.06,92.04C80.75,92.08 77.21,92.12 73.95,92.16C70.9,92.2 67.69,92.24 65.11,92.29C63.09,92.33 60.55,92.3 59.72,92.41C59.47,92.44 59.23,92.5 59.23,92.53C59.24,92.63 62.02,92.61 63.75,92.65C66.09,92.7 69.11,92.74 71.98,92.78C75.12,92.82 78.58,92.86 81.83,92.9C85.02,92.94 88.31,92.98 91.32,93.02C94.06,93.06 96.75,93.1 99.15,93.15C101.2,93.19 103.15,93.22 104.86,93.27C106.24,93.31 107.53,93.34 108.62,93.39C109.47,93.43 110.23,93.47 110.87,93.52Q111.35,93.56 112.12,93.64Z" style="vector-effect: non-scaling-stroke; stroke-width: 2px; stroke: rgb(99, 110, 250); stroke-opacity: 1; fill: rgb(99, 110, 250); fill-opacity: 0.5;"/><g class="points"><path class="point" transform="translate(40.63,92.9)" d="M3,0A3,3 0 1,1 0,-3A3,3 0 0,1 3,0Z" style="opacity: 1; stroke-width: 0px; fill: rgb(99, 110, 250); fill-opacity: 1;"/><path class="point" transform="translate(21.89,92.9)" d="M3,0A3,3 0 1,1 0,-3A3,3 0 0,1 3,0Z" style="opacity: 1; stroke-width: 0px; fill: rgb(99, 110, 250); fill-opacity: 1;"/><path class="point" transform="translate(44.78,92.9)" d="M3,0A3,3 0 1,1 0,-3A3,3 0 0,1 3,0Z" style="opacity: 1; stroke-width: 0px; fill: rgb(99, 110, 250); fill-opacity: 1;"/><path class="point" transform="translate(18.51,92.9)" d="M3,0A3,3 0 1,1 0,-3A3,3 0 0,1 3,0Z" style="opacity: 1; stroke-width: 0px; fill: rgb(99, 110, 250); fill-opacity: 1;"/><path class="point" transform="translate(28.68,92.9)" d="M3,0A3,3 0 1,1 0,-3A3,3 0 0,1 3,0Z" style="opacity: 1; stroke-width: 0px; fill: rgb(99, 110, 250); fill-opacity: 1;"/><path class="point" transform="translate(40.15,92.9)" d="M3,0A3,3 0 1,1 0,-3A3,3 0 0,1 3,0Z" style="opacity: 1; stroke-width: 0px; fill: rgb(99, 110, 250); fill-opacity: 1;"/><path class="point" transform="translate(31.65,92.9)" d="M3,0A3,3 0 1,1 0,-3A3,3 0 0,1 3,0Z" style="opacity: 1; stroke-width: 0px; fill: rgb(99, 110, 250); fill-opacity: 1;"/><path class="point" transform="translate(36.6,92.9)" d="M3,0A3,3 0 1,1 0,-3A3,3 0 0,1 3,0Z" style="opacity: 1; stroke-width: 0px; fill: rgb(99, 110, 250); fill-opacity: 1;"/><path class="point" transform="translate(27.39,92.9)" d="M3,0A3,3 0 1,1 0,-3A3,3 0 0,1 3,0Z" style="opacity: 1; stroke-width: 0px; fill: rgb(99, 110, 250); fill-opacity: 1;"/><path class="point" transform="translate(21.14,92.47)" d="M3,0A3,3 0 1,1 0,-3A3,3 0 0,1 3,0Z" style="opacity: 1; stroke-width: 0px; fill: rgb(99, 110, 250); fill-opacity: 1;"/><path class="point" transform="translate(36.26,92.47)" d="M3,0A3,3 0 1,1 0,-3A3,3 0 0,1 3,0Z" style="opacity: 1; stroke-width: 0px; fill: rgb(99, 110, 250); fill-opacity: 1;"/><path class="point" transform="translate(27.24,92.47)" d="M3,0A3,3 0 1,1 0,-3A3,3 0 0,1 3,0Z" style="opacity: 1; stroke-width: 0px; fill: rgb(99, 110, 250); fill-opacity: 1;"/><path class="point" transform="translate(41.8,92.47)" d="M3,0A3,3 0 1,1 0,-3A3,3 0 0,1 3,0Z" style="opacity: 1; stroke-width: 0px; fill: rgb(99, 110, 250); fill-opacity: 1;"/><path class="point" transform="translate(17.5,92.47)" d="M3,0A3,3 0 1,1 0,-3A3,3 0 0,1 3,0Z" style="opacity: 1; stroke-width: 0px; fill: rgb(99, 110, 250); fill-opacity: 1;"/><path class="point" transform="translate(22.84,92.47)" d="M3,0A3,3 0 1,1 0,-3A3,3 0 0,1 3,0Z" style="opacity: 1; stroke-width: 0px; fill: rgb(99, 110, 250); fill-opacity: 1;"/><path class="point" transform="translate(46.55,92.47)" d="M3,0A3,3 0 1,1 0,-3A3,3 0 0,1 3,0Z" style="opacity: 1; stroke-width: 0px; fill: rgb(99, 110, 250); fill-opacity: 1;"/><path class="point" transform="translate(28.15,92.47)" d="M3,0A3,3 0 1,1 0,-3A3,3 0 0,1 3,0Z" style="opacity: 1; stroke-width: 0px; fill: rgb(99, 110, 250); fill-opacity: 1;"/><path class="point" transform="translate(18.3,92.47)" d="M3,0A3,3 0 1,1 0,-3A3,3 0 0,1 3,0Z" style="opacity: 1; stroke-width: 0px; fill: rgb(99, 110, 250); fill-opacity: 1;"/><path class="point" transform="translate(26.86,92.47)" d="M3,0A3,3 0 1,1 0,-3A3,3 0 0,1 3,0Z" style="opacity: 1; stroke-width: 0px; fill: rgb(99, 110, 250); fill-opacity: 1;"/><path class="point" transform="translate(31.87,92.47)" d="M3,0A3,3 0 1,1 0,-3A3,3 0 0,1 3,0Z" style="opacity: 1; stroke-width: 0px; fill: rgb(99, 110, 250); fill-opacity: 1;"/><path class="point" transform="translate(39.51,92.47)" d="M3,0A3,3 0 1,1 0,-3A3,3 0 0,1 3,0Z" style="opacity: 1; stroke-width: 0px; fill: rgb(99, 110, 250); fill-opacity: 1;"/><path class="point" transform="translate(34.02,92.47)" d="M3,0A3,3 0 1,1 0,-3A3,3 0 0,1 3,0Z" style="opacity: 1; stroke-width: 0px; fill: rgb(99, 110, 250); fill-opacity: 1;"/><path class="point" transform="translate(27.64,92.47)" d="M3,0A3,3 0 1,1 0,-3A3,3 0 0,1 3,0Z" style="opacity: 1; stroke-width: 0px; fill: rgb(99, 110, 250); fill-opacity: 1;"/><path class="point" transform="translate(18.67,92.47)" d="M3,0A3,3 0 1,1 0,-3A3,3 0 0,1 3,0Z" style="opacity: 1; stroke-width: 0px; fill: rgb(99, 110, 250); fill-opacity: 1;"/><path class="point" transform="translate(32.17,92.47)" d="M3,0A3,3 0 1,1 0,-3A3,3 0 0,1 3,0Z" style="opacity: 1; stroke-width: 0px; fill: rgb(99, 110, 250); fill-opacity: 1;"/><path class="point" transform="translate(27.48,92.47)" d="M3,0A3,3 0 1,1 0,-3A3,3 0 0,1 3,0Z" style="opacity: 1; stroke-width: 0px; fill: rgb(99, 110, 250); fill-opacity: 1;"/><path class="point" transform="translate(39.76,92.47)" d="M3,0A3,3 0 1,1 0,-3A3,3 0 0,1 3,0Z" style="opacity: 1; stroke-width: 0px; fill: rgb(99, 110, 250); fill-opacity: 1;"/><path class="point" transform="translate(30.78,92.47)" d="M3,0A3,3 0 1,1 0,-3A3,3 0 0,1 3,0Z" style="opacity: 1; stroke-width: 0px; fill: rgb(99, 110, 250); fill-opacity: 1;"/><path class="point" transform="translate(21.61,92.47)" d="M3,0A3,3 0 1,1 0,-3A3,3 0 0,1 3,0Z" style="opacity: 1; stroke-width: 0px; fill: rgb(99, 110, 250); fill-opacity: 1;"/><path class="point" transform="translate(17.1,92.47)" d="M3,0A3,3 0 1,1 0,-3A3,3 0 0,1 3,0Z" style="opacity: 1; stroke-width: 0px; fill: rgb(99, 110, 250); fill-opacity: 1;"/><path class="point" transform="translate(41.36,92.47)" d="M3,0A3,3 0 1,1 0,-3A3,3 0 0,1 3,0Z" style="opacity: 1; stroke-width: 0px; fill: rgb(99, 110, 250); fill-opacity: 1;"/><path class="point" transform="translate(18.37,92.47)" d="M3,0A3,3 0 1,1 0,-3A3,3 0 0,1 3,0Z" style="opacity: 1; stroke-width: 0px; fill: rgb(99, 110, 250); fill-opacity: 1;"/><path class="point" transform="translate(41.85,92.47)" d="M3,0A3,3 0 1,1 0,-3A3,3 0 0,1 3,0Z" style="opacity: 1; stroke-width: 0px; fill: rgb(99, 110, 250); fill-opacity: 1;"/><path class="point" transform="translate(35.76,92.47)" d="M3,0A3,3 0 1,1 0,-3A3,3 0 0,1 3,0Z" style="opacity: 1; stroke-width: 0px; fill: rgb(99, 110, 250); fill-opacity: 1;"/><path class="point" transform="translate(27.38,92.47)" d="M3,0A3,3 0 1,1 0,-3A3,3 0 0,1 3,0Z" style="opacity: 1; stroke-width: 0px; fill: rgb(99, 110, 250); fill-opacity: 1;"/><path class="point" transform="translate(22.62,92.47)" d="M3,0A3,3 0 1,1 0,-3A3,3 0 0,1 3,0Z" style="opacity: 1; stroke-width: 0px; fill: rgb(99, 110, 250); fill-opacity: 1;"/><path class="point" transform="translate(39.53,92.47)" d="M3,0A3,3 0 1,1 0,-3A3,3 0 0,1 3,0Z" style="opacity: 1; stroke-width: 0px; fill: rgb(99, 110, 250); fill-opacity: 1;"/><path class="point" transform="translate(30.48,92.47)" d="M3,0A3,3 0 1,1 0,-3A3,3 0 0,1 3,0Z" style="opacity: 1; stroke-width: 0px; fill: rgb(99, 110, 250); fill-opacity: 1;"/><path class="point" transform="translate(43.35,92.47)" d="M3,0A3,3 0 1,1 0,-3A3,3 0 0,1 3,0Z" style="opacity: 1; stroke-width: 0px; fill: rgb(99, 110, 250); fill-opacity: 1;"/><path class="point" transform="translate(18.59,92.47)" d="M3,0A3,3 0 1,1 0,-3A3,3 0 0,1 3,0Z" style="opacity: 1; stroke-width: 0px; fill: rgb(99, 110, 250); fill-opacity: 1;"/><path class="point" transform="translate(42.56,92.47)" d="M3,0A3,3 0 1,1 0,-3A3,3 0 0,1 3,0Z" style="opacity: 1; stroke-width: 0px; fill: rgb(99, 110, 250); fill-opacity: 1;"/><path class="point" transform="translate(30.88,92.47)" d="M3,0A3,3 0 1,1 0,-3A3,3 0 0,1 3,0Z" style="opacity: 1; stroke-width: 0px; fill: rgb(99, 110, 250); fill-opacity: 1;"/><path class="point" transform="translate(25.85,92.47)" d="M3,0A3,3 0 1,1 0,-3A3,3 0 0,1 3,0Z" style="opacity: 1; stroke-width: 0px; fill: rgb(99, 110, 250); fill-opacity: 1;"/><path class="point" transform="translate(16.26,92.47)" d="M3,0A3,3 0 1,1 0,-3A3,3 0 0,1 3,0Z" style="opacity: 1; stroke-width: 0px; fill: rgb(99, 110, 250); fill-opacity: 1;"/><path class="point" transform="translate(25.88,92.47)" d="M3,0A3,3 0 1,1 0,-3A3,3 0 0,1 3,0Z" style="opacity: 1; stroke-width: 0px; fill: rgb(99, 110, 250); fill-opacity: 1;"/><path class="point" transform="translate(43.04,92.47)" d="M3,0A3,3 0 1,1 0,-3A3,3 0 0,1 3,0Z" style="opacity: 1; stroke-width: 0px; fill: rgb(99, 110, 250); fill-opacity: 1;"/><path class="point" transform="translate(28.34,92.47)" d="M3,0A3,3 0 1,1 0,-3A3,3 0 0,1 3,0Z" style="opacity: 1; stroke-width: 0px; fill: rgb(99, 110, 250); fill-opacity: 1;"/><path class="point" transform="translate(19.63,92.47)" d="M3,0A3,3 0 1,1 0,-3A3,3 0 0,1 3,0Z" style="opacity: 1; stroke-width: 0px; fill: rgb(99, 110, 250); fill-opacity: 1;"/><path class="point" transform="translate(40.06,92.47)" d="M3,0A3,3 0 1,1 0,-3A3,3 0 0,1 3,0Z" style="opacity: 1; stroke-width: 0px; fill: rgb(99, 110, 250); fill-opacity: 1;"/><path class="point" transform="translate(23.53,92.47)" d="M3,0A3,3 0 1,1 0,-3A3,3 0 0,1 3,0Z" style="opacity: 1; stroke-width: 0px; fill: rgb(99, 110, 250); fill-opacity: 1;"/><path class="point" transform="translate(32.22,92.47)" d="M3,0A3,3 0 1,1 0,-3A3,3 0 0,1 3,0Z" style="opacity: 1; stroke-width: 0px; fill: rgb(99, 110, 250); fill-opacity: 1;"/><path class="point" transform="translate(39.15,92.47)" d="M3,0A3,3 0 1,1 0,-3A3,3 0 0,1 3,0Z" style="opacity: 1; stroke-width: 0px; fill: rgb(99, 110, 250); fill-opacity: 1;"/><path class="point" transform="translate(16.48,92.47)" d="M3,0A3,3 0 1,1 0,-3A3,3 0 0,1 3,0Z" style="opacity: 1; stroke-width: 0px; fill: rgb(99, 110, 250); fill-opacity: 1;"/><path class="point" transform="translate(47.4,92.47)" d="M3,0A3,3 0 1,1 0,-3A3,3 0 0,1 3,0Z" style="opacity: 1; stroke-width: 0px; fill: rgb(99, 110, 250); fill-opacity: 1;"/><path class="point" transform="translate(38.94,92.47)" d="M3,0A3,3 0 1,1 0,-3A3,3 0 0,1 3,0Z" style="opacity: 1; stroke-width: 0px; fill: rgb(99, 110, 250); fill-opacity: 1;"/><path class="point" transform="translate(17.88,92.47)" d="M3,0A3,3 0 1,1 0,-3A3,3 0 0,1 3,0Z" style="opacity: 1; stroke-width: 0px; fill: rgb(99, 110, 250); fill-opacity: 1;"/><path class="point" transform="translate(45.06,92.47)" d="M3,0A3,3 0 1,1 0,-3A3,3 0 0,1 3,0Z" style="opacity: 1; stroke-width: 0px; fill: rgb(99, 110, 250); fill-opacity: 1;"/><path class="point" transform="translate(20.31,92.47)" d="M3,0A3,3 0 1,1 0,-3A3,3 0 0,1 3,0Z" style="opacity: 1; stroke-width: 0px; fill: rgb(99, 110, 250); fill-opacity: 1;"/><path class="point" transform="translate(30.27,92.47)" d="M3,0A3,3 0 1,1 0,-3A3,3 0 0,1 3,0Z" style="opacity: 1; stroke-width: 0px; fill: rgb(99, 110, 250); fill-opacity: 1;"/><path class="point" transform="translate(34.24,92.47)" d="M3,0A3,3 0 1,1 0,-3A3,3 0 0,1 3,0Z" style="opacity: 1; stroke-width: 0px; fill: rgb(99, 110, 250); fill-opacity: 1;"/><path class="point" transform="translate(25.49,92.47)" d="M3,0A3,3 0 1,1 0,-3A3,3 0 0,1 3,0Z" style="opacity: 1; stroke-width: 0px; fill: rgb(99, 110, 250); fill-opacity: 1;"/><path class="point" transform="translate(42.56,92.47)" d="M3,0A3,3 0 1,1 0,-3A3,3 0 0,1 3,0Z" style="opacity: 1; stroke-width: 0px; fill: rgb(99, 110, 250); fill-opacity: 1;"/><path class="point" transform="translate(22.09,92.47)" d="M3,0A3,3 0 1,1 0,-3A3,3 0 0,1 3,0Z" style="opacity: 1; stroke-width: 0px; fill: rgb(99, 110, 250); fill-opacity: 1;"/><path class="point" transform="translate(38.35,92.47)" d="M3,0A3,3 0 1,1 0,-3A3,3 0 0,1 3,0Z" style="opacity: 1; stroke-width: 0px; fill: rgb(99, 110, 250); fill-opacity: 1;"/><path class="point" transform="translate(44.08,92.47)" d="M3,0A3,3 0 1,1 0,-3A3,3 0 0,1 3,0Z" style="opacity: 1; stroke-width: 0px; fill: rgb(99, 110, 250); fill-opacity: 1;"/><path class="point" transform="translate(17,92.47)" d="M3,0A3,3 0 1,1 0,-3A3,3 0 0,1 3,0Z" style="opacity: 1; stroke-width: 0px; fill: rgb(99, 110, 250); fill-opacity: 1;"/><path class="point" transform="translate(23.3,92.47)" d="M3,0A3,3 0 1,1 0,-3A3,3 0 0,1 3,0Z" style="opacity: 1; stroke-width: 0px; fill: rgb(99, 110, 250); fill-opacity: 1;"/><path class="point" transform="translate(40.91,92.47)" d="M3,0A3,3 0 1,1 0,-3A3,3 0 0,1 3,0Z" style="opacity: 1; stroke-width: 0px; fill: rgb(99, 110, 250); fill-opacity: 1;"/><path class="point" transform="translate(28.03,92.47)" d="M3,0A3,3 0 1,1 0,-3A3,3 0 0,1 3,0Z" style="opacity: 1; stroke-width: 0px; fill: rgb(99, 110, 250); fill-opacity: 1;"/><path class="point" transform="translate(33.52,92.47)" d="M3,0A3,3 0 1,1 0,-3A3,3 0 0,1 3,0Z" style="opacity: 1; stroke-width: 0px; fill: rgb(99, 110, 250); fill-opacity: 1;"/><path class="point" transform="translate(46,92.47)" d="M3,0A3,3 0 1,1 0,-3A3,3 0 0,1 3,0Z" style="opacity: 1; stroke-width: 0px; fill: rgb(99, 110, 250); fill-opacity: 1;"/><path class="point" transform="translate(19.68,92.47)" d="M3,0A3,3 0 1,1 0,-3A3,3 0 0,1 3,0Z" style="opacity: 1; stroke-width: 0px; fill: rgb(99, 110, 250); fill-opacity: 1;"/><path class="point" transform="translate(48.36,92.47)" d="M3,0A3,3 0 1,1 0,-3A3,3 0 0,1 3,0Z" style="opacity: 1; stroke-width: 0px; fill: rgb(99, 110, 250); fill-opacity: 1;"/><path class="point" transform="translate(20.14,92.47)" d="M3,0A3,3 0 1,1 0,-3A3,3 0 0,1 3,0Z" style="opacity: 1; stroke-width: 0px; fill: rgb(99, 110, 250); fill-opacity: 1;"/><path class="point" transform="translate(48.21,92.47)" d="M3,0A3,3 0 1,1 0,-3A3,3 0 0,1 3,0Z" style="opacity: 1; stroke-width: 0px; fill: rgb(99, 110, 250); fill-opacity: 1;"/><path class="point" transform="translate(24.36,92.47)" d="M3,0A3,3 0 1,1 0,-3A3,3 0 0,1 3,0Z" style="opacity: 1; stroke-width: 0px; fill: rgb(99, 110, 250); fill-opacity: 1;"/><path class="point" transform="translate(44.42,92.47)" d="M3,0A3,3 0 1,1 0,-3A3,3 0 0,1 3,0Z" style="opacity: 1; stroke-width: 0px; fill: rgb(99, 110, 250); fill-opacity: 1;"/><path class="point" transform="translate(36.8,92.47)" d="M3,0A3,3 0 1,1 0,-3A3,3 0 0,1 3,0Z" style="opacity: 1; stroke-width: 0px; fill: rgb(99, 110, 250); fill-opacity: 1;"/><path class="point" transform="translate(30.04,92.47)" d="M3,0A3,3 0 1,1 0,-3A3,3 0 0,1 3,0Z" style="opacity: 1; stroke-width: 0px; fill: rgb(99, 110, 250); fill-opacity: 1;"/><path class="point" transform="translate(16.96,92.47)" d="M3,0A3,3 0 1,1 0,-3A3,3 0 0,1 3,0Z" style="opacity: 1; stroke-width: 0px; fill: rgb(99, 110, 250); fill-opacity: 1;"/><path class="point" transform="translate(29.54,92.47)" d="M3,0A3,3 0 1,1 0,-3A3,3 0 0,1 3,0Z" style="opacity: 1; stroke-width: 0px; fill: rgb(99, 110, 250); fill-opacity: 1;"/><path class="point" transform="translate(19.61,92.47)" d="M3,0A3,3 0 1,1 0,-3A3,3 0 0,1 3,0Z" style="opacity: 1; stroke-width: 0px; fill: rgb(99, 110, 250); fill-opacity: 1;"/><path class="point" transform="translate(23.9,92.47)" d="M3,0A3,3 0 1,1 0,-3A3,3 0 0,1 3,0Z" style="opacity: 1; stroke-width: 0px; fill: rgb(99, 110, 250); fill-opacity: 1;"/><path class="point" transform="translate(20.38,92.47)" d="M3,0A3,3 0 1,1 0,-3A3,3 0 0,1 3,0Z" style="opacity: 1; stroke-width: 0px; fill: rgb(99, 110, 250); fill-opacity: 1;"/><path class="point" transform="translate(17.21,92.47)" d="M3,0A3,3 0 1,1 0,-3A3,3 0 0,1 3,0Z" style="opacity: 1; stroke-width: 0px; fill: rgb(99, 110, 250); fill-opacity: 1;"/><path class="point" transform="translate(24.19,92.47)" d="M3,0A3,3 0 1,1 0,-3A3,3 0 0,1 3,0Z" style="opacity: 1; stroke-width: 0px; fill: rgb(99, 110, 250); fill-opacity: 1;"/><path class="point" transform="translate(37.28,92.05)" d="M3,0A3,3 0 1,1 0,-3A3,3 0 0,1 3,0Z" style="opacity: 1; stroke-width: 0px; fill: rgb(99, 110, 250); fill-opacity: 1;"/><path class="point" transform="translate(29.66,92.05)" d="M3,0A3,3 0 1,1 0,-3A3,3 0 0,1 3,0Z" style="opacity: 1; stroke-width: 0px; fill: rgb(99, 110, 250); fill-opacity: 1;"/><path class="point" transform="translate(32.67,92.05)" d="M3,0A3,3 0 1,1 0,-3A3,3 0 0,1 3,0Z" style="opacity: 1; stroke-width: 0px; fill: rgb(99, 110, 250); fill-opacity: 1;"/><path class="point" transform="translate(33.18,92.05)" d="M3,0A3,3 0 1,1 0,-3A3,3 0 0,1 3,0Z" style="opacity: 1; stroke-width: 0px; fill: rgb(99, 110, 250); fill-opacity: 1;"/><path class="point" transform="translate(32.46,92.05)" d="M3,0A3,3 0 1,1 0,-3A3,3 0 0,1 3,0Z" style="opacity: 1; stroke-width: 0px; fill: rgb(99, 110, 250); fill-opacity: 1;"/><path class="point" transform="translate(31.18,92.05)" d="M3,0A3,3 0 1,1 0,-3A3,3 0 0,1 3,0Z" style="opacity: 1; stroke-width: 0px; fill: rgb(99, 110, 250); fill-opacity: 1;"/><path class="point" transform="translate(31.62,81.4)" d="M3,0A3,3 0 1,1 0,-3A3,3 0 0,1 3,0Z" style="opacity: 1; stroke-width: 0px; fill: rgb(99, 110, 250); fill-opacity: 1;"/><path class="point" transform="translate(33.89,68.2)" d="M3,0A3,3 0 1,1 0,-3A3,3 0 0,1 3,0Z" style="opacity: 1; stroke-width: 0px; fill: rgb(99, 110, 250); fill-opacity: 1;"/><path class="point" transform="translate(31.36,67.77)" d="M3,0A3,3 0 1,1 0,-3A3,3 0 0,1 3,0Z" style="opacity: 1; stroke-width: 0px; fill: rgb(99, 110, 250); fill-opacity: 1;"/><path class="point" transform="translate(32.39,67.77)" d="M3,0A3,3 0 1,1 0,-3A3,3 0 0,1 3,0Z" style="opacity: 1; stroke-width: 0px; fill: rgb(99, 110, 250); fill-opacity: 1;"/><path class="point" transform="translate(33.13,60.96)" d="M3,0A3,3 0 1,1 0,-3A3,3 0 0,1 3,0Z" style="opacity: 1; stroke-width: 0px; fill: rgb(99, 110, 250); fill-opacity: 1;"/><path class="point" transform="translate(30.86,60.96)" d="M3,0A3,3 0 1,1 0,-3A3,3 0 0,1 3,0Z" style="opacity: 1; stroke-width: 0px; fill: rgb(99, 110, 250); fill-opacity: 1;"/><path class="point" transform="translate(31.92,59.68)" d="M3,0A3,3 0 1,1 0,-3A3,3 0 0,1 3,0Z" style="opacity: 1; stroke-width: 0px; fill: rgb(99, 110, 250); fill-opacity: 1;"/><path class="point" transform="translate(34.01,55.85)" d="M3,0A3,3 0 1,1 0,-3A3,3 0 0,1 3,0Z" style="opacity: 1; stroke-width: 0px; fill: rgb(99, 110, 250); fill-opacity: 1;"/></g></g><g class="trace violins" style="opacity: 1;"><path class="violin" d="M333.78,304Q333.8,302.89 333.81,302.33C333.82,301.77 333.83,301.21 333.85,300.65C333.87,300.09 333.89,299.54 333.91,298.98C333.93,298.42 333.96,297.86 333.98,297.3C334,296.74 334.02,296.19 334.03,295.63C334.05,295.07 334.06,294.51 334.07,293.95C334.08,293.39 334.07,292.84 334.07,292.28C334.07,291.72 334.06,291.16 334.05,290.6C334.04,290.04 334.01,289.49 333.99,288.93C333.97,288.37 333.95,287.81 333.93,287.25C333.91,286.69 333.89,286.14 333.87,285.58C333.85,285.02 333.83,284.46 333.82,283.9C333.81,283.34 333.8,282.79 333.79,282.23C333.78,281.67 333.78,281.11 333.77,280.55C333.77,279.99 333.76,279.44 333.76,278.88C333.76,278.32 333.76,277.76 333.76,277.2C333.76,276.64 333.76,276.09 333.76,275.53C333.76,274.97 333.76,274.41 333.77,273.85C333.78,273.29 333.79,272.74 333.8,272.18C333.81,271.62 333.82,271.06 333.83,270.5C333.84,269.94 333.86,269.39 333.88,268.83C333.9,268.27 333.93,267.71 333.95,267.15C333.97,266.59 333.99,266.04 334.01,265.48C334.03,264.92 334.05,264.36 334.07,263.8C334.08,263.24 334.1,262.69 334.1,262.13C334.1,261.57 334.1,261.02 334.1,260.46C334.1,259.9 334.09,259.34 334.07,258.78C334.06,258.22 334.03,257.67 334.01,257.11C333.99,256.55 333.96,255.99 333.94,255.43C333.92,254.87 333.9,254.32 333.88,253.76C333.86,253.2 333.84,252.64 333.83,252.08C333.82,251.52 333.81,250.97 333.8,250.41C333.79,249.85 333.78,249.29 333.77,248.73C333.76,248.17 333.76,247.62 333.76,247.06C333.76,246.5 333.75,245.94 333.75,245.38C333.75,244.82 333.75,244.27 333.75,243.71C333.75,243.15 333.75,242.59 333.75,242.03C333.75,241.47 333.75,240.92 333.75,240.36C333.75,239.8 333.75,239.24 333.75,238.68C333.75,238.12 333.75,237.57 333.75,237.01C333.75,236.45 333.75,235.89 333.75,235.33C333.75,234.77 333.75,234.22 333.75,233.66C333.75,233.1 333.75,232.54 333.75,231.98C333.75,231.42 333.75,230.87 333.75,230.31C333.75,229.75 333.75,229.19 333.75,228.63C333.75,228.07 333.75,227.52 333.75,226.96C333.75,226.4 333.75,225.84 333.75,225.28C333.75,224.72 333.75,224.17 333.75,223.61C333.75,223.05 333.75,222.49 333.75,221.93C333.75,221.37 333.75,220.82 333.75,220.26C333.75,219.7 333.75,219.15 333.75,218.59C333.75,218.03 333.75,217.47 333.75,216.91C333.75,216.35 333.75,215.8 333.75,215.24C333.75,214.68 333.75,214.12 333.75,213.56C333.75,213 333.75,212.45 333.75,211.89C333.75,211.33 333.75,210.77 333.75,210.21C333.75,209.65 333.75,209.1 333.75,208.54C333.75,207.98 333.75,207.42 333.75,206.86C333.75,206.3 333.75,205.75 333.75,205.19C333.75,204.63 333.75,204.07 333.75,203.51C333.75,202.95 333.75,202.4 333.75,201.84C333.75,201.28 333.75,200.72 333.75,200.16C333.75,199.6 333.75,199.05 333.75,198.49C333.75,197.93 333.75,197.37 333.75,196.81C333.75,196.25 333.76,195.7 333.76,195.14C333.76,194.58 333.76,194.02 333.76,193.46C333.76,192.9 333.77,192.35 333.77,191.79C333.77,191.23 333.78,190.67 333.78,190.11C333.78,189.55 333.79,189 333.79,188.44C333.79,187.88 333.79,187.32 333.79,186.76C333.79,186.2 333.8,185.65 333.8,185.09C333.8,184.53 333.8,183.97 333.8,183.41C333.8,182.85 333.79,182.3 333.79,181.74C333.79,181.18 333.78,180.62 333.78,180.06C333.78,179.5 333.77,178.95 333.77,178.39C333.77,177.83 333.76,177.28 333.76,176.72C333.76,176.16 333.76,175.6 333.76,175.04C333.76,174.48 333.75,173.93 333.75,173.37C333.75,172.81 333.75,172.25 333.75,171.69C333.75,171.13 333.75,170.58 333.75,170.02C333.75,169.46 333.75,168.9 333.75,168.34C333.75,167.78 333.75,167.23 333.75,166.67C333.75,166.11 333.75,165.55 333.75,164.99C333.75,164.43 333.75,163.88 333.75,163.32C333.75,162.76 333.75,162.2 333.75,161.64C333.75,161.08 333.75,160.53 333.75,159.97C333.75,159.41 333.75,158.85 333.75,158.29C333.75,157.73 333.75,157.18 333.75,156.62C333.75,156.06 333.75,155.5 333.75,154.94C333.75,154.38 333.75,153.83 333.75,153.27C333.75,152.71 333.75,152.15 333.75,151.59C333.75,151.03 333.75,150.48 333.75,149.92C333.75,149.36 333.75,148.8 333.75,148.24C333.75,147.68 333.75,147.13 333.75,146.57C333.75,146.01 333.75,145.45 333.75,144.89C333.75,144.33 333.75,143.78 333.75,143.22C333.75,142.66 333.75,142.1 333.75,141.54C333.75,140.98 333.76,140.43 333.76,139.87C333.77,139.31 333.77,138.75 333.78,138.19C333.79,137.63 333.8,137.08 333.82,136.52C333.84,135.96 333.86,135.41 333.9,134.85C333.94,134.29 333.99,133.73 334.05,133.17C334.11,132.61 334.19,132.06 334.28,131.5C334.37,130.94 334.48,130.38 334.6,129.82C334.72,129.26 334.86,128.71 334.98,128.15C335.1,127.59 335.23,127.03 335.34,126.47C335.44,125.91 335.55,125.36 335.61,124.8C335.67,124.24 335.71,123.68 335.72,123.12C335.73,122.56 335.69,122.01 335.65,121.45C335.61,120.89 335.54,120.33 335.47,119.77C335.4,119.21 335.31,118.66 335.25,118.1C335.19,117.54 335.13,116.98 335.1,116.42C335.07,115.86 335.06,115.31 335.07,114.75C335.08,114.19 335.13,113.63 335.18,113.07C335.23,112.51 335.3,111.96 335.36,111.4C335.42,110.84 335.49,110.28 335.53,109.72C335.57,109.16 335.6,108.61 335.6,108.05C335.6,107.49 335.58,106.93 335.53,106.37C335.48,105.81 335.4,105.26 335.31,104.7C335.22,104.14 335.11,103.58 335,103.02C334.89,102.46 334.77,101.91 334.66,101.35C334.55,100.79 334.44,100.23 334.35,99.67C334.26,99.11 334.18,98.56 334.11,98C334.04,97.44 333.99,96.88 333.95,96.32C333.91,95.76 333.88,95.21 333.85,94.65C333.83,94.09 333.81,93.54 333.8,92.98Q333.79,92.42 333.77,91.3L333.73,91.3Q333.71,92.42 333.7,92.98C333.69,93.54 333.67,94.09 333.65,94.65C333.62,95.21 333.59,95.76 333.55,96.32C333.51,96.88 333.46,97.44 333.39,98C333.32,98.56 333.24,99.11 333.15,99.67C333.06,100.23 332.95,100.79 332.84,101.35C332.73,101.91 332.61,102.46 332.5,103.02C332.39,103.58 332.28,104.14 332.19,104.7C332.1,105.26 332.02,105.81 331.97,106.37C331.92,106.93 331.9,107.49 331.9,108.05C331.9,108.61 331.93,109.16 331.97,109.72C332.01,110.28 332.08,110.84 332.14,111.4C332.2,111.96 332.27,112.51 332.32,113.07C332.37,113.63 332.42,114.19 332.43,114.75C332.44,115.31 332.43,115.86 332.4,116.42C332.37,116.98 332.31,117.54 332.25,118.1C332.19,118.66 332.1,119.21 332.03,119.77C331.96,120.33 331.89,120.89 331.85,121.45C331.81,122.01 331.77,122.56 331.78,123.12C331.79,123.68 331.83,124.24 331.89,124.8C331.95,125.36 332.06,125.91 332.16,126.47C332.27,127.03 332.4,127.59 332.52,128.15C332.64,128.71 332.78,129.26 332.9,129.82C333.02,130.38 333.13,130.94 333.22,131.5C333.31,132.06 333.39,132.61 333.45,133.17C333.51,133.73 333.56,134.29 333.6,134.85C333.64,135.41 333.66,135.96 333.68,136.52C333.7,137.08 333.71,137.63 333.72,138.19C333.73,138.75 333.73,139.31 333.74,139.87C333.74,140.43 333.75,140.98 333.75,141.54C333.75,142.1 333.75,142.66 333.75,143.22C333.75,143.78 333.75,144.33 333.75,144.89C333.75,145.45 333.75,146.01 333.75,146.57C333.75,147.13 333.75,147.68 333.75,148.24C333.75,148.8 333.75,149.36 333.75,149.92C333.75,150.48 333.75,151.03 333.75,151.59C333.75,152.15 333.75,152.71 333.75,153.27C333.75,153.83 333.75,154.38 333.75,154.94C333.75,155.5 333.75,156.06 333.75,156.62C333.75,157.18 333.75,157.73 333.75,158.29C333.75,158.85 333.75,159.41 333.75,159.97C333.75,160.53 333.75,161.08 333.75,161.64C333.75,162.2 333.75,162.76 333.75,163.32C333.75,163.88 333.75,164.43 333.75,164.99C333.75,165.55 333.75,166.11 333.75,166.67C333.75,167.23 333.75,167.78 333.75,168.34C333.75,168.9 333.75,169.46 333.75,170.02C333.75,170.58 333.75,171.13 333.75,171.69C333.75,172.25 333.75,172.81 333.75,173.37C333.75,173.93 333.74,174.48 333.74,175.04C333.74,175.6 333.74,176.16 333.74,176.72C333.74,177.28 333.73,177.83 333.73,178.39C333.73,178.95 333.72,179.5 333.72,180.06C333.72,180.62 333.71,181.18 333.71,181.74C333.71,182.3 333.7,182.85 333.7,183.41C333.7,183.97 333.7,184.53 333.7,185.09C333.7,185.65 333.71,186.2 333.71,186.76C333.71,187.32 333.71,187.88 333.71,188.44C333.71,189 333.72,189.55 333.72,190.11C333.72,190.67 333.73,191.23 333.73,191.79C333.73,192.35 333.74,192.9 333.74,193.46C333.74,194.02 333.74,194.58 333.74,195.14C333.74,195.7 333.75,196.25 333.75,196.81C333.75,197.37 333.75,197.93 333.75,198.49C333.75,199.05 333.75,199.6 333.75,200.16C333.75,200.72 333.75,201.28 333.75,201.84C333.75,202.4 333.75,202.95 333.75,203.51C333.75,204.07 333.75,204.63 333.75,205.19C333.75,205.75 333.75,206.3 333.75,206.86C333.75,207.42 333.75,207.98 333.75,208.54C333.75,209.1 333.75,209.65 333.75,210.21C333.75,210.77 333.75,211.33 333.75,211.89C333.75,212.45 333.75,213 333.75,213.56C333.75,214.12 333.75,214.68 333.75,215.24C333.75,215.8 333.75,216.35 333.75,216.91C333.75,217.47 333.75,218.03 333.75,218.59C333.75,219.15 333.75,219.7 333.75,220.26C333.75,220.82 333.75,221.37 333.75,221.93C333.75,222.49 333.75,223.05 333.75,223.61C333.75,224.17 333.75,224.72 333.75,225.28C333.75,225.84 333.75,226.4 333.75,226.96C333.75,227.52 333.75,228.07 333.75,228.63C333.75,229.19 333.75,229.75 333.75,230.31C333.75,230.87 333.75,231.42 333.75,231.98C333.75,232.54 333.75,233.1 333.75,233.66C333.75,234.22 333.75,234.77 333.75,235.33C333.75,235.89 333.75,236.45 333.75,237.01C333.75,237.57 333.75,238.12 333.75,238.68C333.75,239.24 333.75,239.8 333.75,240.36C333.75,240.92 333.75,241.47 333.75,242.03C333.75,242.59 333.75,243.15 333.75,243.71C333.75,244.27 333.75,244.82 333.75,245.38C333.75,245.94 333.74,246.5 333.74,247.06C333.74,247.62 333.74,248.17 333.73,248.73C333.72,249.29 333.71,249.85 333.7,250.41C333.69,250.97 333.68,251.52 333.67,252.08C333.66,252.64 333.64,253.2 333.62,253.76C333.6,254.32 333.58,254.87 333.56,255.43C333.54,255.99 333.51,256.55 333.49,257.11C333.47,257.67 333.44,258.22 333.43,258.78C333.41,259.34 333.4,259.9 333.4,260.46C333.4,261.02 333.4,261.57 333.4,262.13C333.4,262.69 333.42,263.24 333.43,263.8C333.45,264.36 333.47,264.92 333.49,265.48C333.51,266.04 333.53,266.59 333.55,267.15C333.57,267.71 333.6,268.27 333.62,268.83C333.64,269.39 333.66,269.94 333.67,270.5C333.68,271.06 333.69,271.62 333.7,272.18C333.71,272.74 333.72,273.29 333.73,273.85C333.74,274.41 333.74,274.97 333.74,275.53C333.74,276.09 333.74,276.64 333.74,277.2C333.74,277.76 333.74,278.32 333.74,278.88C333.74,279.44 333.73,279.99 333.73,280.55C333.72,281.11 333.72,281.67 333.71,282.23C333.7,282.79 333.69,283.34 333.68,283.9C333.67,284.46 333.65,285.02 333.63,285.58C333.61,286.14 333.59,286.69 333.57,287.25C333.55,287.81 333.53,288.37 333.51,288.93C333.49,289.49 333.46,290.04 333.45,290.6C333.44,291.16 333.43,291.72 333.43,292.28C333.43,292.84 333.42,293.39 333.43,293.95C333.44,294.51 333.45,295.07 333.47,295.63C333.48,296.19 333.5,296.74 333.52,297.3C333.54,297.86 333.57,298.42 333.59,298.98C333.61,299.54 333.63,300.09 333.65,300.65C333.67,301.21 333.68,301.77 333.69,302.33Q333.7,302.89 333.72,304Z" style="vector-effect: non-scaling-stroke; stroke-width: 2px; stroke: rgb(239, 85, 59); stroke-opacity: 1; fill: rgb(239, 85, 59); fill-opacity: 0.5;"/><g class="points"><path class="point" transform="translate(259.04,293.89)" d="M3,0A3,3 0 1,1 0,-3A3,3 0 0,1 3,0Z" style="opacity: 1; stroke-width: 0px; fill: rgb(239, 85, 59); fill-opacity: 1;"/><path class="point" transform="translate(244.21,293.03)" d="M3,0A3,3 0 1,1 0,-3A3,3 0 0,1 3,0Z" style="opacity: 1; stroke-width: 0px; fill: rgb(239, 85, 59); fill-opacity: 1;"/><path class="point" transform="translate(255.41,293.03)" d="M3,0A3,3 0 1,1 0,-3A3,3 0 0,1 3,0Z" style="opacity: 1; stroke-width: 0px; fill: rgb(239, 85, 59); fill-opacity: 1;"/><path class="point" transform="translate(249.69,293.03)" d="M3,0A3,3 0 1,1 0,-3A3,3 0 0,1 3,0Z" style="opacity: 1; stroke-width: 0px; fill: rgb(239, 85, 59); fill-opacity: 1;"/><path class="point" transform="translate(251.78,293.03)" d="M3,0A3,3 0 1,1 0,-3A3,3 0 0,1 3,0Z" style="opacity: 1; stroke-width: 0px; fill: rgb(239, 85, 59); fill-opacity: 1;"/><path class="point" transform="translate(254.79,292.18)" d="M3,0A3,3 0 1,1 0,-3A3,3 0 0,1 3,0Z" style="opacity: 1; stroke-width: 0px; fill: rgb(239, 85, 59); fill-opacity: 1;"/><path class="point" transform="translate(252.57,292.18)" d="M3,0A3,3 0 1,1 0,-3A3,3 0 0,1 3,0Z" style="opacity: 1; stroke-width: 0px; fill: rgb(239, 85, 59); fill-opacity: 1;"/><path class="point" transform="translate(253.86,264.5)" d="M3,0A3,3 0 1,1 0,-3A3,3 0 0,1 3,0Z" style="opacity: 1; stroke-width: 0px; fill: rgb(239, 85, 59); fill-opacity: 1;"/><path class="point" transform="translate(251.49,262.38)" d="M3,0A3,3 0 1,1 0,-3A3,3 0 0,1 3,0Z" style="opacity: 1; stroke-width: 0px; fill: rgb(239, 85, 59); fill-opacity: 1;"/><path class="point" transform="translate(249.91,262.38)" d="M3,0A3,3 0 1,1 0,-3A3,3 0 0,1 3,0Z" style="opacity: 1; stroke-width: 0px; fill: rgb(239, 85, 59); fill-opacity: 1;"/><path class="point" transform="translate(253.3,261.52)" d="M3,0A3,3 0 1,1 0,-3A3,3 0 0,1 3,0Z" style="opacity: 1; stroke-width: 0px; fill: rgb(239, 85, 59); fill-opacity: 1;"/><path class="point" transform="translate(252.14,261.52)" d="M3,0A3,3 0 1,1 0,-3A3,3 0 0,1 3,0Z" style="opacity: 1; stroke-width: 0px; fill: rgb(239, 85, 59); fill-opacity: 1;"/><path class="point" transform="translate(253.92,260.67)" d="M3,0A3,3 0 1,1 0,-3A3,3 0 0,1 3,0Z" style="opacity: 1; stroke-width: 0px; fill: rgb(239, 85, 59); fill-opacity: 1;"/><path class="point" transform="translate(250.86,258.97)" d="M3,0A3,3 0 1,1 0,-3A3,3 0 0,1 3,0Z" style="opacity: 1; stroke-width: 0px; fill: rgb(239, 85, 59); fill-opacity: 1;"/><path class="point" transform="translate(251.61,258.54)" d="M3,0A3,3 0 1,1 0,-3A3,3 0 0,1 3,0Z" style="opacity: 1; stroke-width: 0px; fill: rgb(239, 85, 59); fill-opacity: 1;"/><path class="point" transform="translate(254.41,184.88)" d="M3,0A3,3 0 1,1 0,-3A3,3 0 0,1 3,0Z" style="opacity: 1; stroke-width: 0px; fill: rgb(239, 85, 59); fill-opacity: 1;"/><path class="point" transform="translate(252.24,124.83)" d="M3,0A3,3 0 1,1 0,-3A3,3 0 0,1 3,0Z" style="opacity: 1; stroke-width: 0px; fill: rgb(239, 85, 59); fill-opacity: 1;"/><path class="point" transform="translate(251.07,123.98)" d="M3,0A3,3 0 1,1 0,-3A3,3 0 0,1 3,0Z" style="opacity: 1; stroke-width: 0px; fill: rgb(239, 85, 59); fill-opacity: 1;"/><path class="point" transform="translate(252.08,123.98)" d="M3,0A3,3 0 1,1 0,-3A3,3 0 0,1 3,0Z" style="opacity: 1; stroke-width: 0px; fill: rgb(239, 85, 59); fill-opacity: 1;"/><path class="point" transform="translate(252.67,123.56)" d="M3,0A3,3 0 1,1 0,-3A3,3 0 0,1 3,0Z" style="opacity: 1; stroke-width: 0px; fill: rgb(239, 85, 59); fill-opacity: 1;"/><path class="point" transform="translate(254.01,123.56)" d="M3,0A3,3 0 1,1 0,-3A3,3 0 0,1 3,0Z" style="opacity: 1; stroke-width: 0px; fill: rgb(239, 85, 59); fill-opacity: 1;"/><path class="point" transform="translate(254.52,123.56)" d="M3,0A3,3 0 1,1 0,-3A3,3 0 0,1 3,0Z" style="opacity: 1; stroke-width: 0px; fill: rgb(239, 85, 59); fill-opacity: 1;"/><path class="point" transform="translate(248.14,123.56)" d="M3,0A3,3 0 1,1 0,-3A3,3 0 0,1 3,0Z" style="opacity: 1; stroke-width: 0px; fill: rgb(239, 85, 59); fill-opacity: 1;"/><path class="point" transform="translate(239.17,123.56)" d="M3,0A3,3 0 1,1 0,-3A3,3 0 0,1 3,0Z" style="opacity: 1; stroke-width: 0px; fill: rgb(239, 85, 59); fill-opacity: 1;"/><path class="point" transform="translate(252.67,123.56)" d="M3,0A3,3 0 1,1 0,-3A3,3 0 0,1 3,0Z" style="opacity: 1; stroke-width: 0px; fill: rgb(239, 85, 59); fill-opacity: 1;"/><path class="point" transform="translate(247.98,123.56)" d="M3,0A3,3 0 1,1 0,-3A3,3 0 0,1 3,0Z" style="opacity: 1; stroke-width: 0px; fill: rgb(239, 85, 59); fill-opacity: 1;"/><path class="point" transform="translate(260.26,123.56)" d="M3,0A3,3 0 1,1 0,-3A3,3 0 0,1 3,0Z" style="opacity: 1; stroke-width: 0px; fill: rgb(239, 85, 59); fill-opacity: 1;"/><path class="point" transform="translate(251.28,123.56)" d="M3,0A3,3 0 1,1 0,-3A3,3 0 0,1 3,0Z" style="opacity: 1; stroke-width: 0px; fill: rgb(239, 85, 59); fill-opacity: 1;"/><path class="point" transform="translate(242.11,123.56)" d="M3,0A3,3 0 1,1 0,-3A3,3 0 0,1 3,0Z" style="opacity: 1; stroke-width: 0px; fill: rgb(239, 85, 59); fill-opacity: 1;"/><path class="point" transform="translate(237.6,123.56)" d="M3,0A3,3 0 1,1 0,-3A3,3 0 0,1 3,0Z" style="opacity: 1; stroke-width: 0px; fill: rgb(239, 85, 59); fill-opacity: 1;"/><path class="point" transform="translate(261.86,123.56)" d="M3,0A3,3 0 1,1 0,-3A3,3 0 0,1 3,0Z" style="opacity: 1; stroke-width: 0px; fill: rgb(239, 85, 59); fill-opacity: 1;"/><path class="point" transform="translate(238.87,123.56)" d="M3,0A3,3 0 1,1 0,-3A3,3 0 0,1 3,0Z" style="opacity: 1; stroke-width: 0px; fill: rgb(239, 85, 59); fill-opacity: 1;"/><path class="point" transform="translate(262.35,123.56)" d="M3,0A3,3 0 1,1 0,-3A3,3 0 0,1 3,0Z" style="opacity: 1; stroke-width: 0px; fill: rgb(239, 85, 59); fill-opacity: 1;"/><path class="point" transform="translate(256.26,123.56)" d="M3,0A3,3 0 1,1 0,-3A3,3 0 0,1 3,0Z" style="opacity: 1; stroke-width: 0px; fill: rgb(239, 85, 59); fill-opacity: 1;"/><path class="point" transform="translate(247.88,123.56)" d="M3,0A3,3 0 1,1 0,-3A3,3 0 0,1 3,0Z" style="opacity: 1; stroke-width: 0px; fill: rgb(239, 85, 59); fill-opacity: 1;"/><path class="point" transform="translate(243.12,123.56)" d="M3,0A3,3 0 1,1 0,-3A3,3 0 0,1 3,0Z" style="opacity: 1; stroke-width: 0px; fill: rgb(239, 85, 59); fill-opacity: 1;"/><path class="point" transform="translate(260.03,123.56)" d="M3,0A3,3 0 1,1 0,-3A3,3 0 0,1 3,0Z" style="opacity: 1; stroke-width: 0px; fill: rgb(239, 85, 59); fill-opacity: 1;"/><path class="point" transform="translate(250.98,123.56)" d="M3,0A3,3 0 1,1 0,-3A3,3 0 0,1 3,0Z" style="opacity: 1; stroke-width: 0px; fill: rgb(239, 85, 59); fill-opacity: 1;"/><path class="point" transform="translate(263.85,123.56)" d="M3,0A3,3 0 1,1 0,-3A3,3 0 0,1 3,0Z" style="opacity: 1; stroke-width: 0px; fill: rgb(239, 85, 59); fill-opacity: 1;"/><path class="point" transform="translate(239.09,123.56)" d="M3,0A3,3 0 1,1 0,-3A3,3 0 0,1 3,0Z" style="opacity: 1; stroke-width: 0px; fill: rgb(239, 85, 59); fill-opacity: 1;"/><path class="point" transform="translate(263.06,123.56)" d="M3,0A3,3 0 1,1 0,-3A3,3 0 0,1 3,0Z" style="opacity: 1; stroke-width: 0px; fill: rgb(239, 85, 59); fill-opacity: 1;"/><path class="point" transform="translate(251.38,123.56)" d="M3,0A3,3 0 1,1 0,-3A3,3 0 0,1 3,0Z" style="opacity: 1; stroke-width: 0px; fill: rgb(239, 85, 59); fill-opacity: 1;"/><path class="point" transform="translate(246.35,123.56)" d="M3,0A3,3 0 1,1 0,-3A3,3 0 0,1 3,0Z" style="opacity: 1; stroke-width: 0px; fill: rgb(239, 85, 59); fill-opacity: 1;"/><path class="point" transform="translate(236.76,123.56)" d="M3,0A3,3 0 1,1 0,-3A3,3 0 0,1 3,0Z" style="opacity: 1; stroke-width: 0px; fill: rgb(239, 85, 59); fill-opacity: 1;"/><path class="point" transform="translate(246.38,123.56)" d="M3,0A3,3 0 1,1 0,-3A3,3 0 0,1 3,0Z" style="opacity: 1; stroke-width: 0px; fill: rgb(239, 85, 59); fill-opacity: 1;"/><path class="point" transform="translate(263.54,123.13)" d="M3,0A3,3 0 1,1 0,-3A3,3 0 0,1 3,0Z" style="opacity: 1; stroke-width: 0px; fill: rgb(239, 85, 59); fill-opacity: 1;"/><path class="point" transform="translate(248.84,123.13)" d="M3,0A3,3 0 1,1 0,-3A3,3 0 0,1 3,0Z" style="opacity: 1; stroke-width: 0px; fill: rgb(239, 85, 59); fill-opacity: 1;"/><path class="point" transform="translate(240.13,123.13)" d="M3,0A3,3 0 1,1 0,-3A3,3 0 0,1 3,0Z" style="opacity: 1; stroke-width: 0px; fill: rgb(239, 85, 59); fill-opacity: 1;"/><path class="point" transform="translate(260.56,123.13)" d="M3,0A3,3 0 1,1 0,-3A3,3 0 0,1 3,0Z" style="opacity: 1; stroke-width: 0px; fill: rgb(239, 85, 59); fill-opacity: 1;"/><path class="point" transform="translate(244.03,123.13)" d="M3,0A3,3 0 1,1 0,-3A3,3 0 0,1 3,0Z" style="opacity: 1; stroke-width: 0px; fill: rgb(239, 85, 59); fill-opacity: 1;"/><path class="point" transform="translate(252.72,123.13)" d="M3,0A3,3 0 1,1 0,-3A3,3 0 0,1 3,0Z" style="opacity: 1; stroke-width: 0px; fill: rgb(239, 85, 59); fill-opacity: 1;"/><path class="point" transform="translate(256.4,123.13)" d="M3,0A3,3 0 1,1 0,-3A3,3 0 0,1 3,0Z" style="opacity: 1; stroke-width: 0px; fill: rgb(239, 85, 59); fill-opacity: 1;"/><path class="point" transform="translate(244.83,123.13)" d="M3,0A3,3 0 1,1 0,-3A3,3 0 0,1 3,0Z" style="opacity: 1; stroke-width: 0px; fill: rgb(239, 85, 59); fill-opacity: 1;"/><path class="point" transform="translate(260.33,122.28)" d="M3,0A3,3 0 1,1 0,-3A3,3 0 0,1 3,0Z" style="opacity: 1; stroke-width: 0px; fill: rgb(239, 85, 59); fill-opacity: 1;"/><path class="point" transform="translate(256.09,122.28)" d="M3,0A3,3 0 1,1 0,-3A3,3 0 0,1 3,0Z" style="opacity: 1; stroke-width: 0px; fill: rgb(239, 85, 59); fill-opacity: 1;"/><path class="point" transform="translate(245.53,122.28)" d="M3,0A3,3 0 1,1 0,-3A3,3 0 0,1 3,0Z" style="opacity: 1; stroke-width: 0px; fill: rgb(239, 85, 59); fill-opacity: 1;"/><path class="point" transform="translate(257.4,116.32)" d="M3,0A3,3 0 1,1 0,-3A3,3 0 0,1 3,0Z" style="opacity: 1; stroke-width: 0px; fill: rgb(239, 85, 59); fill-opacity: 1;"/><path class="point" transform="translate(248.38,115.47)" d="M3,0A3,3 0 1,1 0,-3A3,3 0 0,1 3,0Z" style="opacity: 1; stroke-width: 0px; fill: rgb(239, 85, 59); fill-opacity: 1;"/><path class="point" transform="translate(251.99,115.47)" d="M3,0A3,3 0 1,1 0,-3A3,3 0 0,1 3,0Z" style="opacity: 1; stroke-width: 0px; fill: rgb(239, 85, 59); fill-opacity: 1;"/><path class="point" transform="translate(253.48,115.47)" d="M3,0A3,3 0 1,1 0,-3A3,3 0 0,1 3,0Z" style="opacity: 1; stroke-width: 0px; fill: rgb(239, 85, 59); fill-opacity: 1;"/><path class="point" transform="translate(250.19,115.47)" d="M3,0A3,3 0 1,1 0,-3A3,3 0 0,1 3,0Z" style="opacity: 1; stroke-width: 0px; fill: rgb(239, 85, 59); fill-opacity: 1;"/><path class="point" transform="translate(257.9,108.65)" d="M3,0A3,3 0 1,1 0,-3A3,3 0 0,1 3,0Z" style="opacity: 1; stroke-width: 0px; fill: rgb(239, 85, 59); fill-opacity: 1;"/><path class="point" transform="translate(247.33,108.65)" d="M3,0A3,3 0 1,1 0,-3A3,3 0 0,1 3,0Z" style="opacity: 1; stroke-width: 0px; fill: rgb(239, 85, 59); fill-opacity: 1;"/><path class="point" transform="translate(255.98,108.65)" d="M3,0A3,3 0 1,1 0,-3A3,3 0 0,1 3,0Z" style="opacity: 1; stroke-width: 0px; fill: rgb(239, 85, 59); fill-opacity: 1;"/><path class="point" transform="translate(259.02,108.65)" d="M3,0A3,3 0 1,1 0,-3A3,3 0 0,1 3,0Z" style="opacity: 1; stroke-width: 0px; fill: rgb(239, 85, 59); fill-opacity: 1;"/><path class="point" transform="translate(244.63,108.65)" d="M3,0A3,3 0 1,1 0,-3A3,3 0 0,1 3,0Z" style="opacity: 1; stroke-width: 0px; fill: rgb(239, 85, 59); fill-opacity: 1;"/><path class="point" transform="translate(243.8,108.65)" d="M3,0A3,3 0 1,1 0,-3A3,3 0 0,1 3,0Z" style="opacity: 1; stroke-width: 0px; fill: rgb(239, 85, 59); fill-opacity: 1;"/><path class="point" transform="translate(261.41,108.65)" d="M3,0A3,3 0 1,1 0,-3A3,3 0 0,1 3,0Z" style="opacity: 1; stroke-width: 0px; fill: rgb(239, 85, 59); fill-opacity: 1;"/><path class="point" transform="translate(248.53,108.65)" d="M3,0A3,3 0 1,1 0,-3A3,3 0 0,1 3,0Z" style="opacity: 1; stroke-width: 0px; fill: rgb(239, 85, 59); fill-opacity: 1;"/><path class="point" transform="translate(254.02,108.65)" d="M3,0A3,3 0 1,1 0,-3A3,3 0 0,1 3,0Z" style="opacity: 1; stroke-width: 0px; fill: rgb(239, 85, 59); fill-opacity: 1;"/><path class="point" transform="translate(266.5,108.65)" d="M3,0A3,3 0 1,1 0,-3A3,3 0 0,1 3,0Z" style="opacity: 1; stroke-width: 0px; fill: rgb(239, 85, 59); fill-opacity: 1;"/><path class="point" transform="translate(240.18,108.65)" d="M3,0A3,3 0 1,1 0,-3A3,3 0 0,1 3,0Z" style="opacity: 1; stroke-width: 0px; fill: rgb(239, 85, 59); fill-opacity: 1;"/><path class="point" transform="translate(268.86,108.65)" d="M3,0A3,3 0 1,1 0,-3A3,3 0 0,1 3,0Z" style="opacity: 1; stroke-width: 0px; fill: rgb(239, 85, 59); fill-opacity: 1;"/><path class="point" transform="translate(240.64,107.38)" d="M3,0A3,3 0 1,1 0,-3A3,3 0 0,1 3,0Z" style="opacity: 1; stroke-width: 0px; fill: rgb(239, 85, 59); fill-opacity: 1;"/><path class="point" transform="translate(268.71,107.38)" d="M3,0A3,3 0 1,1 0,-3A3,3 0 0,1 3,0Z" style="opacity: 1; stroke-width: 0px; fill: rgb(239, 85, 59); fill-opacity: 1;"/><path class="point" transform="translate(244.86,107.38)" d="M3,0A3,3 0 1,1 0,-3A3,3 0 0,1 3,0Z" style="opacity: 1; stroke-width: 0px; fill: rgb(239, 85, 59); fill-opacity: 1;"/><path class="point" transform="translate(264.92,107.38)" d="M3,0A3,3 0 1,1 0,-3A3,3 0 0,1 3,0Z" style="opacity: 1; stroke-width: 0px; fill: rgb(239, 85, 59); fill-opacity: 1;"/><path class="point" transform="translate(257.3,107.38)" d="M3,0A3,3 0 1,1 0,-3A3,3 0 0,1 3,0Z" style="opacity: 1; stroke-width: 0px; fill: rgb(239, 85, 59); fill-opacity: 1;"/><path class="point" transform="translate(250.54,107.38)" d="M3,0A3,3 0 1,1 0,-3A3,3 0 0,1 3,0Z" style="opacity: 1; stroke-width: 0px; fill: rgb(239, 85, 59); fill-opacity: 1;"/><path class="point" transform="translate(237.46,107.38)" d="M3,0A3,3 0 1,1 0,-3A3,3 0 0,1 3,0Z" style="opacity: 1; stroke-width: 0px; fill: rgb(239, 85, 59); fill-opacity: 1;"/><path class="point" transform="translate(250.04,107.38)" d="M3,0A3,3 0 1,1 0,-3A3,3 0 0,1 3,0Z" style="opacity: 1; stroke-width: 0px; fill: rgb(239, 85, 59); fill-opacity: 1;"/><path class="point" transform="translate(239.2,107.38)" d="M3,0A3,3 0 1,1 0,-3A3,3 0 0,1 3,0Z" style="opacity: 1; stroke-width: 0px; fill: rgb(239, 85, 59); fill-opacity: 1;"/><path class="point" transform="translate(243.8,107.38)" d="M3,0A3,3 0 1,1 0,-3A3,3 0 0,1 3,0Z" style="opacity: 1; stroke-width: 0px; fill: rgb(239, 85, 59); fill-opacity: 1;"/><path class="point" transform="translate(240.03,107.38)" d="M3,0A3,3 0 1,1 0,-3A3,3 0 0,1 3,0Z" style="opacity: 1; stroke-width: 0px; fill: rgb(239, 85, 59); fill-opacity: 1;"/><path class="point" transform="translate(236.63,107.38)" d="M3,0A3,3 0 1,1 0,-3A3,3 0 0,1 3,0Z" style="opacity: 1; stroke-width: 0px; fill: rgb(239, 85, 59); fill-opacity: 1;"/><path class="point" transform="translate(244.11,107.38)" d="M3,0A3,3 0 1,1 0,-3A3,3 0 0,1 3,0Z" style="opacity: 1; stroke-width: 0px; fill: rgb(239, 85, 59); fill-opacity: 1;"/><path class="point" transform="translate(258.15,107.38)" d="M3,0A3,3 0 1,1 0,-3A3,3 0 0,1 3,0Z" style="opacity: 1; stroke-width: 0px; fill: rgb(239, 85, 59); fill-opacity: 1;"/><path class="point" transform="translate(238.76,107.38)" d="M3,0A3,3 0 1,1 0,-3A3,3 0 0,1 3,0Z" style="opacity: 1; stroke-width: 0px; fill: rgb(239, 85, 59); fill-opacity: 1;"/><path class="point" transform="translate(256.36,106.95)" d="M3,0A3,3 0 1,1 0,-3A3,3 0 0,1 3,0Z" style="opacity: 1; stroke-width: 0px; fill: rgb(239, 85, 59); fill-opacity: 1;"/><path class="point" transform="translate(260.58,106.95)" d="M3,0A3,3 0 1,1 0,-3A3,3 0 0,1 3,0Z" style="opacity: 1; stroke-width: 0px; fill: rgb(239, 85, 59); fill-opacity: 1;"/><path class="point" transform="translate(254.67,106.95)" d="M3,0A3,3 0 1,1 0,-3A3,3 0 0,1 3,0Z" style="opacity: 1; stroke-width: 0px; fill: rgb(239, 85, 59); fill-opacity: 1;"/><path class="point" transform="translate(243.22,106.95)" d="M3,0A3,3 0 1,1 0,-3A3,3 0 0,1 3,0Z" style="opacity: 1; stroke-width: 0px; fill: rgb(239, 85, 59); fill-opacity: 1;"/><path class="point" transform="translate(247.21,106.95)" d="M3,0A3,3 0 1,1 0,-3A3,3 0 0,1 3,0Z" style="opacity: 1; stroke-width: 0px; fill: rgb(239, 85, 59); fill-opacity: 1;"/><path class="point" transform="translate(262.33,106.95)" d="M3,0A3,3 0 1,1 0,-3A3,3 0 0,1 3,0Z" style="opacity: 1; stroke-width: 0px; fill: rgb(239, 85, 59); fill-opacity: 1;"/><path class="point" transform="translate(247.72,106.95)" d="M3,0A3,3 0 1,1 0,-3A3,3 0 0,1 3,0Z" style="opacity: 1; stroke-width: 0px; fill: rgb(239, 85, 59); fill-opacity: 1;"/><path class="point" transform="translate(253.75,106.95)" d="M3,0A3,3 0 1,1 0,-3A3,3 0 0,1 3,0Z" style="opacity: 1; stroke-width: 0px; fill: rgb(239, 85, 59); fill-opacity: 1;"/><path class="point" transform="translate(258.05,106.95)" d="M3,0A3,3 0 1,1 0,-3A3,3 0 0,1 3,0Z" style="opacity: 1; stroke-width: 0px; fill: rgb(239, 85, 59); fill-opacity: 1;"/><path class="point" transform="translate(246.08,105.67)" d="M3,0A3,3 0 1,1 0,-3A3,3 0 0,1 3,0Z" style="opacity: 1; stroke-width: 0px; fill: rgb(239, 85, 59); fill-opacity: 1;"/><path class="point" transform="translate(251.71,101.84)" d="M3,0A3,3 0 1,1 0,-3A3,3 0 0,1 3,0Z" style="opacity: 1; stroke-width: 0px; fill: rgb(239, 85, 59); fill-opacity: 1;"/><path class="point" transform="translate(258.7,101.41)" d="M3,0A3,3 0 1,1 0,-3A3,3 0 0,1 3,0Z" style="opacity: 1; stroke-width: 0px; fill: rgb(239, 85, 59); fill-opacity: 1;"/></g></g></g></g><g class="overplot"/><path class="xlines-above crisp" d="M0,0" style="fill: none;"/><path class="ylines-above crisp" d="M0,0" style="fill: none;"/><g class="overlines-above"/><g class="xaxislayer-above"><g class="xtick"><text text-anchor="middle" x="0" y="433" transform="translate(193.25,0)" style="font-family: 'Open Sans', verdana, arial, sans-serif; font-size: 12px; fill: rgb(42, 63, 95); fill-opacity: 1; white-space: pre; opacity: 1;">eff_cnn</text></g><g class="xtick"><text text-anchor="middle" x="0" y="433" transform="translate(413.75,0)" style="font-family: 'Open Sans', verdana, arial, sans-serif; font-size: 12px; fill: rgb(42, 63, 95); fill-opacity: 1; white-space: pre; opacity: 1;">simplified_eff_cnn</text></g></g><g class="yaxislayer-above"><g class="ytick"><text text-anchor="end" x="79" y="4.199999999999999" transform="translate(0,418.58)" style="font-family: 'Open Sans', verdana, arial, sans-serif; font-size: 12px; fill: rgb(42, 63, 95); fill-opacity: 1; white-space: pre; opacity: 1;">1100</text></g><g class="ytick"><text text-anchor="end" x="79" y="4.199999999999999" style="font-family: 'Open Sans', verdana, arial, sans-serif; font-size: 12px; fill: rgb(42, 63, 95); fill-opacity: 1; white-space: pre; opacity: 1;" transform="translate(0,376)">1200</text></g><g class="ytick"><text text-anchor="end" x="79" y="4.199999999999999" style="font-family: 'Open Sans', verdana, arial, sans-serif; font-size: 12px; fill: rgb(42, 63, 95); fill-opacity: 1; white-space: pre; opacity: 1;" transform="translate(0,333.41999999999996)">1300</text></g><g class="ytick"><text text-anchor="end" x="79" y="4.199999999999999" style="font-family: 'Open Sans', verdana, arial, sans-serif; font-size: 12px; fill: rgb(42, 63, 95); fill-opacity: 1; white-space: pre; opacity: 1;" transform="translate(0,290.84000000000003)">1400</text></g><g class="ytick"><text text-anchor="end" x="79" y="4.199999999999999" style="font-family: 'Open Sans', verdana, arial, sans-serif; font-size: 12px; fill: rgb(42, 63, 95); fill-opacity: 1; white-space: pre; opacity: 1;" transform="translate(0,248.25)">1500</text></g><g class="ytick"><text text-anchor="end" x="79" y="4.199999999999999" style="font-family: 'Open Sans', verdana, arial, sans-serif; font-size: 12px; fill: rgb(42, 63, 95); fill-opacity: 1; white-space: pre; opacity: 1;" transform="translate(0,205.67000000000002)">1600</text></g><g class="ytick"><text text-anchor="end" x="79" y="4.199999999999999" style="font-family: 'Open Sans', verdana, arial, sans-serif; font-size: 12px; fill: rgb(42, 63, 95); fill-opacity: 1; white-space: pre; opacity: 1;" transform="translate(0,163.09)">1700</text></g><g class="ytick"><text text-anchor="end" x="79" y="4.199999999999999" style="font-family: 'Open Sans', verdana, arial, sans-serif; font-size: 12px; fill: rgb(42, 63, 95); fill-opacity: 1; white-space: pre; opacity: 1;" transform="translate(0,120.51)">1800</text></g></g><g class="overaxes-above"/></g></g><g class="polarlayer"/><g class="ternarylayer"/><g class="geolayer"/><g class="funnelarealayer"/><g class="pielayer"/><g class="iciclelayer"/><g class="treemaplayer"/><g class="sunburstlayer"/><g class="glimages"/><defs id="topdefs-0d2a87"><g class="clips"/><clipPath id="legend0d2a87"><rect width="155" height="67" x="0" y="0"/></clipPath></defs><g class="layer-above"><g class="imagelayer"/><g class="shapelayer"/></g><g class="infolayer"><g class="legend" pointer-events="all" transform="translate(532.88,100)"><rect class="bg" shape-rendering="crispEdges" width="155" height="67" x="0" y="0" style="stroke: rgb(68, 68, 68); stroke-opacity: 1; fill: rgb(255, 255, 255); fill-opacity: 1; stroke-width: 0px;"/><g class="scrollbox" transform="" clip-path="url(#legend0d2a87)"><text class="legendtitletext" text-anchor="start" x="2" y="18.2" style="font-family: 'Open Sans', verdana, arial, sans-serif; font-size: 14px; fill: rgb(42, 63, 95); fill-opacity: 1; white-space: pre;">model</text><g class="groups" transform=""><g class="traces" transform="translate(0,32.7)" style="opacity: 1;"><text class="legendtext" text-anchor="start" x="40" y="4.680000000000001" style="font-family: 'Open Sans', verdana, arial, sans-serif; font-size: 12px; fill: rgb(42, 63, 95); fill-opacity: 1; white-space: pre;">eff_cnn</text><g class="layers" style="opacity: 1;"><g class="legendfill"/><g class="legendlines"/><g class="legendsymbols"><g class="legendpoints"><path class="legendbox" d="M6,6H-6V-6H6Z" transform="translate(20,0)" style="stroke-width: 2px; fill: rgb(99, 110, 250); fill-opacity: 0.5; stroke: rgb(99, 110, 250); stroke-opacity: 1;"/></g></g></g><rect class="legendtoggle" x="0" y="-9.5" width="149.703125" height="19" style="fill: rgb(0, 0, 0); fill-opacity: 0;"/></g></g><g class="groups" transform=""><g class="traces" transform="translate(0,51.7)" style="opacity: 1;"><text class="legendtext" text-anchor="start" x="40" y="4.680000000000001" style="font-family: 'Open Sans', verdana, arial, sans-serif; font-size: 12px; fill: rgb(42, 63, 95); fill-opacity: 1; white-space: pre;">simplified_eff_cnn</text><g class="layers" style="opacity: 1;"><g class="legendfill"/><g class="legendlines"/><g class="legendsymbols"><g class="legendpoints"><path class="legendbox" d="M6,6H-6V-6H6Z" transform="translate(20,0)" style="stroke-width: 2px; fill: rgb(239, 85, 59); fill-opacity: 0.5; stroke: rgb(239, 85, 59); stroke-opacity: 1;"/></g></g></g><rect class="legendtoggle" x="0" y="-9.5" width="149.703125" height="19" style="fill: rgb(0, 0, 0); fill-opacity: 0;"/></g></g></g><rect class="scrollbar" rx="20" ry="3" width="0" height="0" x="0" y="0" style="fill: rgb(128, 139, 164); fill-opacity: 1;"/></g><g class="g-gtitle"><text class="gtitle" x="35" y="50" text-anchor="start" dy="0em" style="font-family: 'Open Sans', verdana, arial, sans-serif; font-size: 17px; fill: rgb(42, 63, 95); opacity: 1; font-weight: normal; white-space: pre;">Distribution of min traces needed for average rank to be zero</text></g><g class="g-xtitle"><text class="xtitle" x="302" y="460.8" text-anchor="middle" style="font-family: 'Open Sans', verdana, arial, sans-serif; font-size: 14px; fill: rgb(42, 63, 95); opacity: 1; font-weight: normal; white-space: pre;">model</text></g><g class="g-ytitle"><text class="ytitle" transform="rotate(-90,23.684375000000003,260)" x="23.684375000000003" y="260" text-anchor="middle" style="font-family: 'Open Sans', verdana, arial, sans-serif; font-size: 14px; fill: rgb(42, 63, 95); opacity: 1; font-weight: normal; white-space: pre;">min traces needed for average rank to be zero</text></g><g class="annotation" data-index="0" style="opacity: 1;"><g class="annotation-text-g" transform="rotate(0,183.25,125)"><g class="cursor-pointer" transform="translate(147,100)"><rect class="bg" x="0.5" y="0.5" width="72" height="49" style="stroke-width: 1px; stroke: rgb(0, 128, 0); stroke-opacity: 1; fill: rgb(0, 0, 0); fill-opacity: 0;"/><text class="annotation-text" text-anchor="middle" x="36.640625" y="14" style="font-family: 'Open Sans', verdana, arial, sans-serif; font-size: 12px; fill: rgb(42, 63, 95); fill-opacity: 1; white-space: pre;"><tspan class="line" dy="0em" x="36.640625" y="14"> All passed </tspan><tspan class="line" dy="1.3em" x="36.640625" y="14">min: 1630</tspan><tspan class="line" dy="2.6em" x="36.640625" y="14">max: 1717</tspan></text></g></g><g class="annotation-arrow-g" style="opacity: 1;"><path d="M191.41666666666666,149.5L193.25,155" style="stroke-width: 1px; stroke: rgb(42, 63, 95); stroke-opacity: 1; stroke-dasharray: 0px, 0px, 5.79751px, 5.79751px;"/></g></g><g class="annotation" data-index="1" style="opacity: 1;"><g class="annotation-text-g" transform="rotate(0,403.75,125)"><g class="cursor-pointer" transform="translate(367,100)"><rect class="bg" x="0.5" y="0.5" width="72" height="49" style="stroke-width: 1px; stroke: rgb(0, 128, 0); stroke-opacity: 1; fill: rgb(0, 0, 0); fill-opacity: 0;"/><text class="annotation-text" text-anchor="middle" x="36.640625" y="14" style="font-family: 'Open Sans', verdana, arial, sans-serif; font-size: 12px; fill: rgb(42, 63, 95); fill-opacity: 1; white-space: pre;"><tspan class="line" dy="0em" x="36.640625" y="14"> All passed </tspan><tspan class="line" dy="1.3em" x="36.640625" y="14">min: 1158</tspan><tspan class="line" dy="2.6em" x="36.640625" y="14">max: 1610</tspan></text></g></g><g class="annotation-arrow-g" style="opacity: 1;"><path d="M411.9166666666667,149.5L413.75,155" style="stroke-width: 1px; stroke: rgb(42, 63, 95); stroke-opacity: 1; stroke-dasharray: 0px, 0px, 5.79751px, 5.79751px;"/></g></g></g></svg>