<svg class="main-svg" xmlns="http://www.w3.org/2000/svg" xmlns:xlink="http://www.w3.org/1999/xlink" width="700" height="500" style="" viewBox="0 0 700 500"><rect x="0" y="0" width="700" height="500" style="fill: rgb(255, 255, 255); fill-opacity: 1;"/><defs id="defs-4adaba"><g class="clips"><clipPath id="clip4adabaxyplot" class="plotclip"><rect width="444" height="320"/></clipPath><clipPath class="axesclip" id="clip4adabax"><rect x="80" y="0" width="444" height="500"/></clipPath><clipPath class="axesclip" id="clip4adabay"><rect x="0" y="100" width="700" height="320"/></clipPath><clipPath class="axesclip" id="clip4adabaxy"><rect x="80" y="100" width="444" height="320"/></clipPath></g><g class="gradients"/><g class="patterns"/></defs><g class="bglayer"><rect class="bg" x="80" y="100" width="444" height="320" style="fill: rgb(229, 236, 246); fill-opacity: 1; stroke-width: 0;"/></g><g class="layer-below"><g class="imagelayer"/><g class="shapelayer"/></g><g class="cartesianlayer"><g class="subplot xy"><g class="layer-subplot"><g class="shapelayer"/><g class="imagelayer"/></g><g class="gridlayer"><g class="x"/><g class="y"><path class="ygrid crisp" transform="translate(0,355.93)" d="M80,0h444" style="stroke: rgb(255, 255, 255); stroke-opacity: 1; stroke-width: 1px;"/><path class="ygrid crisp" transform="translate(0,305.7)" d="M80,0h444" style="stroke: rgb(255, 255, 255); stroke-opacity: 1; stroke-width: 1px;"/><path class="ygrid crisp" transform="translate(0,255.48)" d="M80,0h444" style="stroke: rgb(255, 255, 255); stroke-opacity: 1; stroke-width: 1px;"/><path class="ygrid crisp" transform="translate(0,205.25)" d="M80,0h444" style="stroke: rgb(255, 255, 255); stroke-opacity: 1; stroke-width: 1px;"/><path class="ygrid crisp" transform="translate(0,155.03)" d="M80,0h444" style="stroke: rgb(255, 255, 255); stroke-opacity: 1; stroke-width: 1px;"/><path class="ygrid crisp" transform="translate(0,104.8)" d="M80,0h444" style="stroke: rgb(255, 255, 255); stroke-opacity: 1; stroke-width: 1px;"/></g></g><g class="zerolinelayer"><path class="yzl zl crisp" transform="translate(0,406.15)" d="M80,0h444" style="stroke: rgb(255, 255, 255); stroke-opacity: 1; stroke-width: 2px;"/></g><path class="xlines-below"/><path class="ylines-below"/><g class="overlines-below"/><g class="xaxislayer-below"/><g class="yaxislayer-below"/><g class="overaxes-below"/><g class="plot" transform="translate(80,100)" clip-path="url(#clip4adabaxyplot)"><g class="violinlayer mlayer"><g class="trace violins" style="opacity: 1;"><path class="violin" d="M113.39,304Q113.47,303.46 113.54,303.19C113.61,302.92 113.7,302.64 113.81,302.37C113.93,302.09 114.07,301.82 114.24,301.56C114.42,301.28 114.63,301.01 114.87,300.75C115.13,300.47 115.42,300.19 115.74,299.93C116.08,299.65 116.45,299.38 116.84,299.12C117.25,298.84 117.7,298.58 118.16,298.31C118.64,298.03 119.15,297.76 119.65,297.49C120.16,297.22 120.7,296.95 121.22,296.68C121.73,296.41 122.25,296.14 122.72,295.86C123.16,295.6 123.61,295.34 123.97,295.05C124.28,294.8 124.61,294.54 124.77,294.24C124.91,293.99 125,293.68 124.96,293.42C124.92,293.14 124.71,292.86 124.49,292.61C124.23,292.31 123.81,292.06 123.42,291.8C122.98,291.51 122.45,291.25 121.95,290.98C121.43,290.7 120.87,290.44 120.34,290.17C119.82,289.9 119.3,289.64 118.82,289.36C118.36,289.1 117.92,288.82 117.52,288.54C117.15,288.28 116.81,288.01 116.51,287.73C116.23,287.47 115.98,287.2 115.76,286.92C115.56,286.66 115.38,286.38 115.23,286.1C115.08,285.83 114.97,285.56 114.86,285.29C114.75,285.02 114.67,284.74 114.59,284.47C114.51,284.2 114.45,283.93 114.39,283.66C114.33,283.39 114.27,283.12 114.22,282.85C114.16,282.58 114.11,282.3 114.06,282.03C114.01,281.76 113.96,281.49 113.91,281.22C113.86,280.95 113.8,280.68 113.76,280.41C113.71,280.14 113.67,279.86 113.64,279.59C113.61,279.32 113.58,279.05 113.56,278.78C113.54,278.51 113.53,278.24 113.53,277.97C113.53,277.7 113.53,277.42 113.54,277.15C113.55,276.88 113.56,276.61 113.57,276.34C113.58,276.07 113.61,275.8 113.62,275.53C113.63,275.26 113.64,274.98 113.65,274.71C113.66,274.44 113.66,274.17 113.66,273.9C113.66,273.63 113.64,273.35 113.62,273.08C113.6,272.81 113.58,272.54 113.56,272.27C113.54,272 113.51,271.73 113.49,271.46C113.46,271.19 113.43,270.91 113.41,270.64C113.39,270.37 113.37,270.1 113.35,269.83C113.33,269.56 113.32,269.29 113.31,269.02C113.3,268.75 113.29,268.47 113.28,268.2C113.27,267.93 113.26,267.66 113.26,267.39C113.26,267.12 113.26,266.85 113.26,266.58C113.26,266.31 113.25,266.03 113.25,265.76C113.25,265.49 113.25,265.22 113.25,264.95C113.25,264.68 113.25,264.41 113.25,264.14C113.25,263.87 113.25,263.59 113.25,263.32C113.25,263.05 113.25,262.78 113.25,262.51C113.25,262.24 113.25,261.96 113.25,261.69C113.25,261.42 113.25,261.15 113.25,260.88C113.25,260.61 113.25,260.34 113.25,260.07C113.25,259.8 113.25,259.52 113.25,259.25C113.25,258.98 113.25,258.71 113.25,258.44C113.25,258.17 113.25,257.9 113.25,257.63C113.25,257.36 113.25,257.08 113.25,256.81C113.25,256.54 113.25,256.27 113.25,256C113.25,255.73 113.25,255.46 113.25,255.19C113.25,254.92 113.25,254.64 113.25,254.37C113.25,254.1 113.25,253.83 113.25,253.56C113.25,253.29 113.25,253.02 113.25,252.75C113.25,252.48 113.25,252.2 113.25,251.93C113.25,251.66 113.25,251.39 113.25,251.12C113.25,250.85 113.25,250.57 113.25,250.3C113.25,250.03 113.25,249.76 113.25,249.49C113.25,249.22 113.25,248.95 113.25,248.68C113.25,248.41 113.25,248.13 113.25,247.86C113.25,247.59 113.25,247.32 113.25,247.05C113.25,246.78 113.25,246.51 113.25,246.24C113.25,245.97 113.25,245.69 113.25,245.42C113.25,245.15 113.25,244.88 113.25,244.61C113.25,244.34 113.25,244.07 113.25,243.8C113.25,243.53 113.25,243.25 113.25,242.98C113.25,242.71 113.25,242.44 113.25,242.17C113.25,241.9 113.25,241.63 113.25,241.36C113.25,241.09 113.25,240.81 113.25,240.54C113.25,240.27 113.25,240 113.25,239.73C113.25,239.46 113.25,239.19 113.25,238.92C113.25,238.65 113.25,238.37 113.25,238.1C113.25,237.83 113.25,237.56 113.25,237.29C113.25,237.02 113.25,236.74 113.25,236.47C113.25,236.2 113.25,235.93 113.25,235.66C113.25,235.39 113.25,235.12 113.25,234.85C113.25,234.58 113.25,234.3 113.25,234.03C113.25,233.76 113.25,233.49 113.25,233.22C113.25,232.95 113.25,232.68 113.25,232.41C113.25,232.14 113.25,231.86 113.25,231.59C113.25,231.32 113.25,231.05 113.25,230.78C113.25,230.51 113.25,230.24 113.25,229.97C113.25,229.7 113.25,229.42 113.25,229.15C113.25,228.88 113.25,228.61 113.25,228.34C113.25,228.07 113.25,227.8 113.25,227.53C113.25,227.26 113.25,226.98 113.25,226.71C113.25,226.44 113.25,226.17 113.25,225.9C113.25,225.63 113.25,225.35 113.25,225.08C113.25,224.81 113.25,224.54 113.25,224.27C113.25,224 113.25,223.73 113.25,223.46C113.25,223.19 113.25,222.91 113.25,222.64C113.25,222.37 113.25,222.1 113.25,221.83C113.25,221.56 113.25,221.29 113.25,221.02C113.25,220.75 113.25,220.47 113.25,220.2C113.25,219.93 113.25,219.66 113.25,219.39C113.25,219.12 113.25,218.85 113.25,218.58C113.25,218.31 113.25,218.03 113.25,217.76C113.25,217.49 113.25,217.22 113.25,216.95C113.25,216.68 113.25,216.41 113.25,216.14C113.25,215.87 113.25,215.59 113.25,215.32C113.25,215.05 113.25,214.78 113.25,214.51C113.25,214.24 113.25,213.96 113.25,213.69C113.25,213.42 113.25,213.15 113.25,212.88C113.25,212.61 113.25,212.34 113.25,212.07C113.25,211.8 113.25,211.52 113.25,211.25C113.25,210.98 113.25,210.71 113.25,210.44C113.25,210.17 113.25,209.9 113.25,209.63C113.25,209.36 113.25,209.08 113.25,208.81C113.25,208.54 113.25,208.27 113.25,208C113.25,207.73 113.25,207.46 113.25,207.19C113.25,206.92 113.25,206.64 113.25,206.37C113.25,206.1 113.25,205.83 113.25,205.56C113.25,205.29 113.25,205.02 113.25,204.75C113.25,204.48 113.25,204.2 113.25,203.93C113.25,203.66 113.25,203.39 113.25,203.12C113.25,202.85 113.25,202.57 113.25,202.3C113.25,202.03 113.25,201.76 113.25,201.49C113.25,201.22 113.25,200.95 113.25,200.68C113.25,200.41 113.25,200.13 113.25,199.86C113.25,199.59 113.25,199.32 113.25,199.05C113.25,198.78 113.25,198.51 113.25,198.24C113.25,197.97 113.25,197.69 113.25,197.42C113.25,197.15 113.25,196.88 113.25,196.61C113.25,196.34 113.25,196.07 113.25,195.8C113.25,195.53 113.25,195.25 113.25,194.98C113.25,194.71 113.25,194.44 113.25,194.17C113.25,193.9 113.25,193.63 113.25,193.36C113.25,193.09 113.26,192.81 113.26,192.54C113.26,192.27 113.26,192 113.26,191.73C113.26,191.46 113.27,191.18 113.28,190.91C113.29,190.64 113.29,190.37 113.3,190.1C113.31,189.83 113.33,189.56 113.34,189.29C113.35,189.02 113.37,188.74 113.38,188.47C113.39,188.2 113.41,187.93 113.42,187.66C113.43,187.39 113.44,187.12 113.45,186.85C113.46,186.58 113.47,186.3 113.47,186.03C113.47,185.76 113.47,185.49 113.46,185.22C113.45,184.95 113.44,184.68 113.43,184.41C113.42,184.14 113.41,183.86 113.39,183.59C113.38,183.32 113.35,183.05 113.34,182.78C113.33,182.51 113.32,182.24 113.31,181.97C113.3,181.7 113.29,181.42 113.28,181.15C113.27,180.88 113.27,180.61 113.27,180.34C113.27,180.07 113.26,179.8 113.26,179.53C113.26,179.26 113.25,178.98 113.25,178.71C113.25,178.44 113.25,178.17 113.25,177.9C113.25,177.63 113.25,177.35 113.25,177.08C113.25,176.81 113.25,176.54 113.25,176.27C113.25,176 113.25,175.73 113.25,175.46C113.25,175.19 113.25,174.91 113.25,174.64C113.25,174.37 113.25,174.1 113.25,173.83C113.25,173.56 113.25,173.29 113.25,173.02C113.25,172.75 113.25,172.47 113.25,172.2C113.25,171.93 113.25,171.66 113.25,171.39C113.25,171.12 113.25,170.85 113.25,170.58C113.25,170.31 113.25,170.03 113.25,169.76C113.25,169.49 113.25,169.22 113.25,168.95C113.25,168.68 113.25,168.41 113.25,168.14C113.25,167.87 113.25,167.59 113.25,167.32C113.25,167.05 113.25,166.78 113.25,166.51C113.25,166.24 113.25,165.96 113.25,165.69C113.25,165.42 113.25,165.15 113.25,164.88C113.25,164.61 113.25,164.34 113.25,164.07C113.25,163.8 113.25,163.52 113.25,163.25C113.25,162.98 113.25,162.71 113.25,162.44C113.25,162.17 113.25,161.9 113.25,161.63C113.25,161.36 113.25,161.08 113.25,160.81C113.25,160.54 113.25,160.27 113.25,160C113.25,159.73 113.25,159.46 113.25,159.19C113.25,158.92 113.25,158.64 113.25,158.37C113.25,158.1 113.25,157.83 113.25,157.56C113.25,157.29 113.25,157.02 113.25,156.75C113.25,156.48 113.25,156.2 113.25,155.93C113.25,155.66 113.25,155.39 113.25,155.12C113.25,154.85 113.25,154.57 113.25,154.3C113.25,154.03 113.25,153.76 113.25,153.49C113.25,153.22 113.25,152.95 113.25,152.68C113.25,152.41 113.25,152.13 113.25,151.86C113.25,151.59 113.25,151.32 113.25,151.05C113.25,150.78 113.25,150.51 113.25,150.24C113.25,149.97 113.26,149.69 113.26,149.42C113.26,149.15 113.27,148.88 113.27,148.61C113.27,148.34 113.27,148.07 113.28,147.8C113.29,147.53 113.3,147.25 113.31,146.98C113.32,146.71 113.34,146.44 113.35,146.17C113.36,145.9 113.38,145.63 113.39,145.36C113.4,145.09 113.42,144.81 113.43,144.54C113.44,144.27 113.45,144 113.46,143.73C113.47,143.46 113.47,143.18 113.47,142.91C113.47,142.64 113.46,142.37 113.45,142.1C113.44,141.83 113.43,141.56 113.42,141.29C113.41,141.02 113.39,140.74 113.37,140.47C113.36,140.2 113.34,139.93 113.33,139.66C113.32,139.39 113.31,139.12 113.3,138.85C113.29,138.58 113.29,138.3 113.28,138.03C113.27,137.76 113.26,137.49 113.26,137.22C113.26,136.95 113.26,136.68 113.26,136.41C113.26,136.14 113.26,135.86 113.26,135.59C113.26,135.32 113.27,135.05 113.27,134.78C113.28,134.51 113.28,134.24 113.29,133.97C113.3,133.7 113.3,133.42 113.32,133.15C113.33,132.88 113.36,132.61 113.38,132.34C113.4,132.07 113.42,131.79 113.45,131.52C113.48,131.25 113.51,130.98 113.54,130.71C113.57,130.44 113.6,130.17 113.62,129.9C113.64,129.63 113.66,129.35 113.67,129.08C113.68,128.81 113.68,128.54 113.68,128.27C113.68,128 113.66,127.73 113.64,127.46C113.62,127.19 113.6,126.91 113.57,126.64C113.55,126.37 113.52,126.1 113.49,125.83C113.46,125.56 113.43,125.29 113.41,125.02C113.38,124.75 113.36,124.47 113.34,124.2C113.32,123.93 113.31,123.66 113.3,123.39C113.29,123.12 113.28,122.85 113.27,122.58C113.26,122.31 113.26,122.03 113.26,121.76C113.26,121.49 113.25,121.22 113.25,120.95C113.25,120.68 113.25,120.41 113.25,120.14C113.25,119.87 113.25,119.59 113.25,119.32C113.25,119.05 113.25,118.78 113.25,118.51C113.25,118.24 113.25,117.96 113.25,117.69C113.25,117.42 113.25,117.15 113.25,116.88C113.25,116.61 113.25,116.34 113.25,116.07C113.25,115.8 113.26,115.52 113.26,115.25C113.26,114.98 113.27,114.71 113.27,114.44C113.28,114.17 113.28,113.9 113.29,113.63C113.3,113.36 113.32,113.08 113.34,112.81C113.36,112.54 113.38,112.27 113.4,112C113.42,111.73 113.44,111.46 113.47,111.19C113.5,110.92 113.53,110.64 113.56,110.37C113.59,110.1 113.61,109.83 113.63,109.56C113.65,109.29 113.66,109.02 113.67,108.75C113.68,108.48 113.68,108.2 113.67,107.93C113.66,107.66 113.65,107.39 113.63,107.12C113.61,106.85 113.58,106.57 113.55,106.3C113.52,106.03 113.5,105.76 113.47,105.49C113.44,105.22 113.41,104.95 113.39,104.68C113.37,104.41 113.36,104.13 113.34,103.86C113.33,103.59 113.31,103.32 113.3,103.05C113.29,102.78 113.29,102.51 113.29,102.24C113.29,101.97 113.29,101.69 113.3,101.42C113.31,101.15 113.32,100.88 113.33,100.61C113.34,100.34 113.36,100.07 113.37,99.8C113.38,99.53 113.4,99.25 113.41,98.98C113.42,98.71 113.44,98.44 113.45,98.17C113.46,97.9 113.47,97.63 113.47,97.36C113.47,97.09 113.47,96.81 113.46,96.54C113.46,96.27 113.45,96 113.44,95.73C113.43,95.46 113.42,95.18 113.4,94.91C113.39,94.64 113.36,94.37 113.35,94.1C113.34,93.83 113.33,93.56 113.32,93.29C113.31,93.02 113.3,92.74 113.29,92.47C113.28,92.2 113.27,91.93 113.27,91.66C113.27,91.39 113.27,91.12 113.27,90.85C113.27,90.58 113.28,90.3 113.29,90.03C113.3,89.76 113.31,89.49 113.32,89.22C113.33,88.95 113.35,88.68 113.37,88.41C113.39,88.14 113.41,87.86 113.44,87.59C113.47,87.32 113.5,87.05 113.53,86.78C113.56,86.51 113.59,86.24 113.61,85.97C113.63,85.7 113.66,85.42 113.67,85.15C113.68,84.88 113.68,84.61 113.68,84.34C113.68,84.07 113.67,83.79 113.65,83.52C113.63,83.25 113.6,82.98 113.58,82.71C113.55,82.44 113.53,82.17 113.5,81.9C113.47,81.63 113.44,81.35 113.41,81.08C113.39,80.81 113.37,80.54 113.35,80.27C113.33,80 113.31,79.73 113.3,79.46C113.29,79.19 113.28,78.91 113.27,78.64C113.26,78.37 113.26,78.1 113.26,77.83C113.26,77.56 113.25,77.29 113.25,77.02C113.25,76.75 113.25,76.47 113.25,76.2C113.25,75.93 113.25,75.66 113.25,75.39C113.25,75.12 113.25,74.85 113.25,74.58C113.25,74.31 113.25,74.03 113.25,73.76C113.25,73.49 113.25,73.22 113.25,72.95C113.25,72.68 113.25,72.41 113.25,72.14C113.25,71.87 113.25,71.59 113.25,71.32C113.25,71.05 113.26,70.78 113.26,70.51C113.26,70.24 113.26,69.96 113.27,69.69C113.27,69.42 113.28,69.15 113.29,68.88C113.3,68.61 113.31,68.34 113.32,68.07C113.33,67.8 113.35,67.52 113.36,67.25C113.37,66.98 113.39,66.71 113.4,66.44C113.41,66.17 113.43,65.9 113.44,65.63C113.45,65.36 113.46,65.08 113.46,64.81C113.46,64.54 113.46,64.27 113.46,64C113.46,63.73 113.45,63.46 113.44,63.19C113.43,62.92 113.42,62.64 113.41,62.37C113.4,62.1 113.38,61.83 113.37,61.56C113.36,61.29 113.35,61.02 113.34,60.75C113.33,60.48 113.32,60.2 113.32,59.93C113.32,59.66 113.32,59.39 113.32,59.12C113.32,58.85 113.34,58.57 113.35,58.3C113.36,58.03 113.38,57.76 113.39,57.49C113.4,57.22 113.41,56.95 113.42,56.68C113.43,56.41 113.45,56.13 113.46,55.86C113.47,55.59 113.47,55.32 113.47,55.05C113.47,54.78 113.46,54.51 113.45,54.24C113.44,53.97 113.43,53.69 113.42,53.42C113.41,53.15 113.39,52.88 113.38,52.61C113.37,52.34 113.35,52.07 113.34,51.8C113.33,51.53 113.31,51.25 113.3,50.98Q113.29,50.71 113.28,50.17L113.22,50.17Q113.21,50.71 113.2,50.98C113.19,51.25 113.17,51.53 113.16,51.8C113.15,52.07 113.13,52.34 113.12,52.61C113.11,52.88 113.09,53.15 113.08,53.42C113.07,53.69 113.06,53.97 113.05,54.24C113.04,54.51 113.03,54.78 113.03,55.05C113.03,55.32 113.03,55.59 113.04,55.86C113.05,56.13 113.07,56.41 113.08,56.68C113.09,56.95 113.1,57.22 113.11,57.49C113.12,57.76 113.14,58.03 113.15,58.3C113.16,58.57 113.18,58.85 113.18,59.12C113.18,59.39 113.18,59.66 113.18,59.93C113.18,60.2 113.17,60.48 113.16,60.75C113.15,61.02 113.14,61.29 113.13,61.56C113.12,61.83 113.1,62.1 113.09,62.37C113.08,62.64 113.07,62.92 113.06,63.19C113.05,63.46 113.04,63.73 113.04,64C113.04,64.27 113.04,64.54 113.04,64.81C113.04,65.08 113.05,65.36 113.06,65.63C113.07,65.9 113.09,66.17 113.1,66.44C113.11,66.71 113.13,66.98 113.14,67.25C113.15,67.52 113.17,67.8 113.18,68.07C113.19,68.34 113.2,68.61 113.21,68.88C113.22,69.15 113.23,69.42 113.23,69.69C113.24,69.96 113.24,70.24 113.24,70.51C113.24,70.78 113.25,71.05 113.25,71.32C113.25,71.59 113.25,71.87 113.25,72.14C113.25,72.41 113.25,72.68 113.25,72.95C113.25,73.22 113.25,73.49 113.25,73.76C113.25,74.03 113.25,74.31 113.25,74.58C113.25,74.85 113.25,75.12 113.25,75.39C113.25,75.66 113.25,75.93 113.25,76.2C113.25,76.47 113.25,76.75 113.25,77.02C113.25,77.29 113.24,77.56 113.24,77.83C113.24,78.1 113.24,78.37 113.23,78.64C113.22,78.91 113.21,79.19 113.2,79.46C113.19,79.73 113.17,80 113.15,80.27C113.13,80.54 113.11,80.81 113.09,81.08C113.06,81.35 113.03,81.63 113,81.9C112.97,82.17 112.95,82.44 112.92,82.71C112.9,82.98 112.87,83.25 112.85,83.52C112.83,83.79 112.82,84.07 112.82,84.34C112.82,84.61 112.82,84.88 112.83,85.15C112.84,85.42 112.87,85.7 112.89,85.97C112.91,86.24 112.94,86.51 112.97,86.78C113,87.05 113.03,87.32 113.06,87.59C113.09,87.86 113.11,88.14 113.13,88.41C113.15,88.68 113.17,88.95 113.18,89.22C113.19,89.49 113.2,89.76 113.21,90.03C113.22,90.3 113.23,90.58 113.23,90.85C113.23,91.12 113.23,91.39 113.23,91.66C113.23,91.93 113.22,92.2 113.21,92.47C113.2,92.74 113.19,93.02 113.18,93.29C113.17,93.56 113.16,93.83 113.15,94.1C113.14,94.37 113.11,94.64 113.1,94.91C113.08,95.18 113.07,95.46 113.06,95.73C113.05,96 113.04,96.27 113.04,96.54C113.03,96.81 113.03,97.09 113.03,97.36C113.03,97.63 113.04,97.9 113.05,98.17C113.06,98.44 113.08,98.71 113.09,98.98C113.1,99.25 113.12,99.53 113.13,99.8C113.14,100.07 113.16,100.34 113.17,100.61C113.18,100.88 113.19,101.15 113.2,101.42C113.21,101.69 113.21,101.97 113.21,102.24C113.21,102.51 113.21,102.78 113.2,103.05C113.19,103.32 113.17,103.59 113.16,103.86C113.14,104.13 113.13,104.41 113.11,104.68C113.09,104.95 113.06,105.22 113.03,105.49C113,105.76 112.98,106.03 112.95,106.3C112.92,106.57 112.89,106.85 112.87,107.12C112.85,107.39 112.84,107.66 112.83,107.93C112.82,108.2 112.82,108.48 112.83,108.75C112.84,109.02 112.85,109.29 112.87,109.56C112.89,109.83 112.91,110.1 112.94,110.37C112.97,110.64 113,110.92 113.03,111.19C113.06,111.46 113.08,111.73 113.1,112C113.12,112.27 113.14,112.54 113.16,112.81C113.18,113.08 113.2,113.36 113.21,113.63C113.22,113.9 113.22,114.17 113.23,114.44C113.23,114.71 113.24,114.98 113.24,115.25C113.24,115.52 113.25,115.8 113.25,116.07C113.25,116.34 113.25,116.61 113.25,116.88C113.25,117.15 113.25,117.42 113.25,117.69C113.25,117.96 113.25,118.24 113.25,118.51C113.25,118.78 113.25,119.05 113.25,119.32C113.25,119.59 113.25,119.87 113.25,120.14C113.25,120.41 113.25,120.68 113.25,120.95C113.25,121.22 113.24,121.49 113.24,121.76C113.24,122.03 113.24,122.31 113.23,122.58C113.22,122.85 113.21,123.12 113.2,123.39C113.19,123.66 113.18,123.93 113.16,124.2C113.14,124.47 113.12,124.75 113.09,125.02C113.07,125.29 113.04,125.56 113.01,125.83C112.98,126.1 112.95,126.37 112.93,126.64C112.9,126.91 112.88,127.19 112.86,127.46C112.84,127.73 112.82,128 112.82,128.27C112.82,128.54 112.82,128.81 112.83,129.08C112.84,129.35 112.86,129.63 112.88,129.9C112.9,130.17 112.93,130.44 112.96,130.71C112.99,130.98 113.02,131.25 113.05,131.52C113.08,131.79 113.1,132.07 113.12,132.34C113.14,132.61 113.17,132.88 113.18,133.15C113.2,133.42 113.2,133.7 113.21,133.97C113.22,134.24 113.22,134.51 113.23,134.78C113.23,135.05 113.24,135.32 113.24,135.59C113.24,135.86 113.24,136.14 113.24,136.41C113.24,136.68 113.24,136.95 113.24,137.22C113.24,137.49 113.23,137.76 113.22,138.03C113.21,138.3 113.21,138.58 113.2,138.85C113.19,139.12 113.18,139.39 113.17,139.66C113.16,139.93 113.14,140.2 113.13,140.47C113.11,140.74 113.09,141.02 113.08,141.29C113.07,141.56 113.06,141.83 113.05,142.1C113.04,142.37 113.03,142.64 113.03,142.91C113.03,143.18 113.03,143.46 113.04,143.73C113.05,144 113.06,144.27 113.07,144.54C113.08,144.81 113.1,145.09 113.11,145.36C113.12,145.63 113.14,145.9 113.15,146.17C113.16,146.44 113.18,146.71 113.19,146.98C113.2,147.25 113.21,147.53 113.22,147.8C113.23,148.07 113.23,148.34 113.23,148.61C113.23,148.88 113.24,149.15 113.24,149.42C113.24,149.69 113.25,149.97 113.25,150.24C113.25,150.51 113.25,150.78 113.25,151.05C113.25,151.32 113.25,151.59 113.25,151.86C113.25,152.13 113.25,152.41 113.25,152.68C113.25,152.95 113.25,153.22 113.25,153.49C113.25,153.76 113.25,154.03 113.25,154.3C113.25,154.57 113.25,154.85 113.25,155.12C113.25,155.39 113.25,155.66 113.25,155.93C113.25,156.2 113.25,156.48 113.25,156.75C113.25,157.02 113.25,157.29 113.25,157.56C113.25,157.83 113.25,158.1 113.25,158.37C113.25,158.64 113.25,158.92 113.25,159.19C113.25,159.46 113.25,159.73 113.25,160C113.25,160.27 113.25,160.54 113.25,160.81C113.25,161.08 113.25,161.36 113.25,161.63C113.25,161.9 113.25,162.17 113.25,162.44C113.25,162.71 113.25,162.98 113.25,163.25C113.25,163.52 113.25,163.8 113.25,164.07C113.25,164.34 113.25,164.61 113.25,164.88C113.25,165.15 113.25,165.42 113.25,165.69C113.25,165.96 113.25,166.24 113.25,166.51C113.25,166.78 113.25,167.05 113.25,167.32C113.25,167.59 113.25,167.87 113.25,168.14C113.25,168.41 113.25,168.68 113.25,168.95C113.25,169.22 113.25,169.49 113.25,169.76C113.25,170.03 113.25,170.31 113.25,170.58C113.25,170.85 113.25,171.12 113.25,171.39C113.25,171.66 113.25,171.93 113.25,172.2C113.25,172.47 113.25,172.75 113.25,173.02C113.25,173.29 113.25,173.56 113.25,173.83C113.25,174.1 113.25,174.37 113.25,174.64C113.25,174.91 113.25,175.19 113.25,175.46C113.25,175.73 113.25,176 113.25,176.27C113.25,176.54 113.25,176.81 113.25,177.08C113.25,177.35 113.25,177.63 113.25,177.9C113.25,178.17 113.25,178.44 113.25,178.71C113.25,178.98 113.24,179.26 113.24,179.53C113.24,179.8 113.23,180.07 113.23,180.34C113.23,180.61 113.23,180.88 113.22,181.15C113.21,181.42 113.2,181.7 113.19,181.97C113.18,182.24 113.17,182.51 113.16,182.78C113.15,183.05 113.12,183.32 113.11,183.59C113.09,183.86 113.08,184.14 113.07,184.41C113.06,184.68 113.05,184.95 113.04,185.22C113.03,185.49 113.03,185.76 113.03,186.03C113.03,186.3 113.04,186.58 113.05,186.85C113.06,187.12 113.07,187.39 113.08,187.66C113.09,187.93 113.11,188.2 113.12,188.47C113.13,188.74 113.15,189.02 113.16,189.29C113.17,189.56 113.19,189.83 113.2,190.1C113.21,190.37 113.21,190.64 113.22,190.91C113.23,191.18 113.24,191.46 113.24,191.73C113.24,192 113.24,192.27 113.24,192.54C113.24,192.81 113.25,193.09 113.25,193.36C113.25,193.63 113.25,193.9 113.25,194.17C113.25,194.44 113.25,194.71 113.25,194.98C113.25,195.25 113.25,195.53 113.25,195.8C113.25,196.07 113.25,196.34 113.25,196.61C113.25,196.88 113.25,197.15 113.25,197.42C113.25,197.69 113.25,197.97 113.25,198.24C113.25,198.51 113.25,198.78 113.25,199.05C113.25,199.32 113.25,199.59 113.25,199.86C113.25,200.13 113.25,200.41 113.25,200.68C113.25,200.95 113.25,201.22 113.25,201.49C113.25,201.76 113.25,202.03 113.25,202.3C113.25,202.57 113.25,202.85 113.25,203.12C113.25,203.39 113.25,203.66 113.25,203.93C113.25,204.2 113.25,204.48 113.25,204.75C113.25,205.02 113.25,205.29 113.25,205.56C113.25,205.83 113.25,206.1 113.25,206.37C113.25,206.64 113.25,206.92 113.25,207.19C113.25,207.46 113.25,207.73 113.25,208C113.25,208.27 113.25,208.54 113.25,208.81C113.25,209.08 113.25,209.36 113.25,209.63C113.25,209.9 113.25,210.17 113.25,210.44C113.25,210.71 113.25,210.98 113.25,211.25C113.25,211.52 113.25,211.8 113.25,212.07C113.25,212.34 113.25,212.61 113.25,212.88C113.25,213.15 113.25,213.42 113.25,213.69C113.25,213.96 113.25,214.24 113.25,214.51C113.25,214.78 113.25,215.05 113.25,215.32C113.25,215.59 113.25,215.87 113.25,216.14C113.25,216.41 113.25,216.68 113.25,216.95C113.25,217.22 113.25,217.49 113.25,217.76C113.25,218.03 113.25,218.31 113.25,218.58C113.25,218.85 113.25,219.12 113.25,219.39C113.25,219.66 113.25,219.93 113.25,220.2C113.25,220.47 113.25,220.75 113.25,221.02C113.25,221.29 113.25,221.56 113.25,221.83C113.25,222.1 113.25,222.37 113.25,222.64C113.25,222.91 113.25,223.19 113.25,223.46C113.25,223.73 113.25,224 113.25,224.27C113.25,224.54 113.25,224.81 113.25,225.08C113.25,225.35 113.25,225.63 113.25,225.9C113.25,226.17 113.25,226.44 113.25,226.71C113.25,226.98 113.25,227.26 113.25,227.53C113.25,227.8 113.25,228.07 113.25,228.34C113.25,228.61 113.25,228.88 113.25,229.15C113.25,229.42 113.25,229.7 113.25,229.97C113.25,230.24 113.25,230.51 113.25,230.78C113.25,231.05 113.25,231.32 113.25,231.59C113.25,231.86 113.25,232.14 113.25,232.41C113.25,232.68 113.25,232.95 113.25,233.22C113.25,233.49 113.25,233.76 113.25,234.03C113.25,234.3 113.25,234.58 113.25,234.85C113.25,235.12 113.25,235.39 113.25,235.66C113.25,235.93 113.25,236.2 113.25,236.47C113.25,236.74 113.25,237.02 113.25,237.29C113.25,237.56 113.25,237.83 113.25,238.1C113.25,238.37 113.25,238.65 113.25,238.92C113.25,239.19 113.25,239.46 113.25,239.73C113.25,240 113.25,240.27 113.25,240.54C113.25,240.81 113.25,241.09 113.25,241.36C113.25,241.63 113.25,241.9 113.25,242.17C113.25,242.44 113.25,242.71 113.25,242.98C113.25,243.25 113.25,243.53 113.25,243.8C113.25,244.07 113.25,244.34 113.25,244.61C113.25,244.88 113.25,245.15 113.25,245.42C113.25,245.69 113.25,245.97 113.25,246.24C113.25,246.51 113.25,246.78 113.25,247.05C113.25,247.32 113.25,247.59 113.25,247.86C113.25,248.13 113.25,248.41 113.25,248.68C113.25,248.95 113.25,249.22 113.25,249.49C113.25,249.76 113.25,250.03 113.25,250.3C113.25,250.57 113.25,250.85 113.25,251.12C113.25,251.39 113.25,251.66 113.25,251.93C113.25,252.2 113.25,252.48 113.25,252.75C113.25,253.02 113.25,253.29 113.25,253.56C113.25,253.83 113.25,254.1 113.25,254.37C113.25,254.64 113.25,254.92 113.25,255.19C113.25,255.46 113.25,255.73 113.25,256C113.25,256.27 113.25,256.54 113.25,256.81C113.25,257.08 113.25,257.36 113.25,257.63C113.25,257.9 113.25,258.17 113.25,258.44C113.25,258.71 113.25,258.98 113.25,259.25C113.25,259.52 113.25,259.8 113.25,260.07C113.25,260.34 113.25,260.61 113.25,260.88C113.25,261.15 113.25,261.42 113.25,261.69C113.25,261.96 113.25,262.24 113.25,262.51C113.25,262.78 113.25,263.05 113.25,263.32C113.25,263.59 113.25,263.87 113.25,264.14C113.25,264.41 113.25,264.68 113.25,264.95C113.25,265.22 113.25,265.49 113.25,265.76C113.25,266.03 113.24,266.31 113.24,266.58C113.24,266.85 113.24,267.12 113.24,267.39C113.24,267.66 113.23,267.93 113.22,268.2C113.21,268.47 113.2,268.75 113.19,269.02C113.18,269.29 113.17,269.56 113.15,269.83C113.13,270.1 113.11,270.37 113.09,270.64C113.07,270.91 113.04,271.19 113.01,271.46C112.99,271.73 112.96,272 112.94,272.27C112.92,272.54 112.9,272.81 112.88,273.08C112.86,273.35 112.84,273.63 112.84,273.9C112.84,274.17 112.84,274.44 112.85,274.71C112.86,274.98 112.87,275.26 112.88,275.53C112.89,275.8 112.92,276.07 112.93,276.34C112.94,276.61 112.95,276.88 112.96,277.15C112.97,277.42 112.97,277.7 112.97,277.97C112.97,278.24 112.96,278.51 112.94,278.78C112.92,279.05 112.89,279.32 112.86,279.59C112.83,279.86 112.79,280.14 112.74,280.41C112.7,280.68 112.64,280.95 112.59,281.22C112.54,281.49 112.49,281.76 112.44,282.03C112.39,282.3 112.34,282.58 112.28,282.85C112.23,283.12 112.17,283.39 112.11,283.66C112.05,283.93 111.99,284.2 111.91,284.47C111.83,284.74 111.75,285.02 111.64,285.29C111.53,285.56 111.42,285.83 111.27,286.1C111.12,286.38 110.94,286.66 110.74,286.92C110.52,287.2 110.27,287.47 109.99,287.73C109.69,288.01 109.35,288.28 108.98,288.54C108.58,288.82 108.14,289.1 107.68,289.36C107.2,289.64 106.68,289.9 106.16,290.17C105.63,290.44 105.07,290.7 104.55,290.98C104.05,291.25 103.52,291.51 103.08,291.8C102.69,292.06 102.27,292.31 102.01,292.61C101.79,292.86 101.58,293.14 101.54,293.42C101.5,293.68 101.59,293.99 101.73,294.24C101.89,294.54 102.22,294.8 102.53,295.05C102.89,295.34 103.34,295.6 103.78,295.86C104.25,296.14 104.77,296.41 105.28,296.68C105.8,296.95 106.34,297.22 106.85,297.49C107.35,297.76 107.86,298.03 108.34,298.31C108.8,298.58 109.25,298.84 109.66,299.12C110.05,299.38 110.42,299.65 110.76,299.93C111.08,300.19 111.37,300.47 111.63,300.75C111.87,301.01 112.08,301.28 112.26,301.56C112.43,301.82 112.57,302.09 112.69,302.37C112.8,302.64 112.89,302.92 112.96,303.19Q113.03,303.46 113.11,304Z" style="vector-effect: non-scaling-stroke; stroke-width: 2px; stroke: rgb(99, 110, 250); stroke-opacity: 1; fill: rgb(99, 110, 250); fill-opacity: 0.5;"/><g class="points"><path class="point" transform="translate(39.98,299.12)" d="M3,0A3,3 0 1,1 0,-3A3,3 0 0,1 3,0Z" style="opacity: 1; stroke-width: 0px; fill: rgb(99, 110, 250); fill-opacity: 1;"/><path class="point" transform="translate(22.28,298.67)" d="M3,0A3,3 0 1,1 0,-3A3,3 0 0,1 3,0Z" style="opacity: 1; stroke-width: 0px; fill: rgb(99, 110, 250); fill-opacity: 1;"/><path class="point" transform="translate(43.27,298.64)" d="M3,0A3,3 0 1,1 0,-3A3,3 0 0,1 3,0Z" style="opacity: 1; stroke-width: 0px; fill: rgb(99, 110, 250); fill-opacity: 1;"/><path class="point" transform="translate(19.75,298.64)" d="M3,0A3,3 0 1,1 0,-3A3,3 0 0,1 3,0Z" style="opacity: 1; stroke-width: 0px; fill: rgb(99, 110, 250); fill-opacity: 1;"/><path class="point" transform="translate(28.59,298.54)" d="M3,0A3,3 0 1,1 0,-3A3,3 0 0,1 3,0Z" style="opacity: 1; stroke-width: 0px; fill: rgb(99, 110, 250); fill-opacity: 1;"/><path class="point" transform="translate(40.33,297.69)" d="M3,0A3,3 0 1,1 0,-3A3,3 0 0,1 3,0Z" style="opacity: 1; stroke-width: 0px; fill: rgb(99, 110, 250); fill-opacity: 1;"/><path class="point" transform="translate(31.61,297.54)" d="M3,0A3,3 0 1,1 0,-3A3,3 0 0,1 3,0Z" style="opacity: 1; stroke-width: 0px; fill: rgb(99, 110, 250); fill-opacity: 1;"/><path class="point" transform="translate(36.91,296.91)" d="M3,0A3,3 0 1,1 0,-3A3,3 0 0,1 3,0Z" style="opacity: 1; stroke-width: 0px; fill: rgb(99, 110, 250); fill-opacity: 1;"/><path class="point" transform="translate(27.24,296.76)" d="M3,0A3,3 0 1,1 0,-3A3,3 0 0,1 3,0Z" style="opacity: 1; stroke-width: 0px; fill: rgb(99, 110, 250); fill-opacity: 1;"/><path class="point" transform="translate(20.73,296.46)" d="M3,0A3,3 0 1,1 0,-3A3,3 0 0,1 3,0Z" style="opacity: 1; stroke-width: 0px; fill: rgb(99, 110, 250); fill-opacity: 1;"/><path class="point" transform="translate(36.55,296.43)" d="M3,0A3,3 0 1,1 0,-3A3,3 0 0,1 3,0Z" style="opacity: 1; stroke-width: 0px; fill: rgb(99, 110, 250); fill-opacity: 1;"/><path class="point" transform="translate(26.88,296.38)" d="M3,0A3,3 0 1,1 0,-3A3,3 0 0,1 3,0Z" style="opacity: 1; stroke-width: 0px; fill: rgb(99, 110, 250); fill-opacity: 1;"/><path class="point" transform="translate(42.49,296.28)" d="M3,0A3,3 0 1,1 0,-3A3,3 0 0,1 3,0Z" style="opacity: 1; stroke-width: 0px; fill: rgb(99, 110, 250); fill-opacity: 1;"/><path class="point" transform="translate(16.44,296)" d="M3,0A3,3 0 1,1 0,-3A3,3 0 0,1 3,0Z" style="opacity: 1; stroke-width: 0px; fill: rgb(99, 110, 250); fill-opacity: 1;"/><path class="point" transform="translate(22.84,295.93)" d="M3,0A3,3 0 1,1 0,-3A3,3 0 0,1 3,0Z" style="opacity: 1; stroke-width: 0px; fill: rgb(99, 110, 250); fill-opacity: 1;"/><path class="point" transform="translate(46.55,295.93)" d="M3,0A3,3 0 1,1 0,-3A3,3 0 0,1 3,0Z" style="opacity: 1; stroke-width: 0px; fill: rgb(99, 110, 250); fill-opacity: 1;"/><path class="point" transform="translate(28.15,295.83)" d="M3,0A3,3 0 1,1 0,-3A3,3 0 0,1 3,0Z" style="opacity: 1; stroke-width: 0px; fill: rgb(99, 110, 250); fill-opacity: 1;"/><path class="point" transform="translate(18.3,295.78)" d="M3,0A3,3 0 1,1 0,-3A3,3 0 0,1 3,0Z" style="opacity: 1; stroke-width: 0px; fill: rgb(99, 110, 250); fill-opacity: 1;"/><path class="point" transform="translate(26.86,295.48)" d="M3,0A3,3 0 1,1 0,-3A3,3 0 0,1 3,0Z" style="opacity: 1; stroke-width: 0px; fill: rgb(99, 110, 250); fill-opacity: 1;"/><path class="point" transform="translate(31.87,295.43)" d="M3,0A3,3 0 1,1 0,-3A3,3 0 0,1 3,0Z" style="opacity: 1; stroke-width: 0px; fill: rgb(99, 110, 250); fill-opacity: 1;"/><path class="point" transform="translate(39.51,295.38)" d="M3,0A3,3 0 1,1 0,-3A3,3 0 0,1 3,0Z" style="opacity: 1; stroke-width: 0px; fill: rgb(99, 110, 250); fill-opacity: 1;"/><path class="point" transform="translate(34.02,295.38)" d="M3,0A3,3 0 1,1 0,-3A3,3 0 0,1 3,0Z" style="opacity: 1; stroke-width: 0px; fill: rgb(99, 110, 250); fill-opacity: 1;"/><path class="point" transform="translate(27.64,295.1)" d="M3,0A3,3 0 1,1 0,-3A3,3 0 0,1 3,0Z" style="opacity: 1; stroke-width: 0px; fill: rgb(99, 110, 250); fill-opacity: 1;"/><path class="point" transform="translate(18.67,294.8)" d="M3,0A3,3 0 1,1 0,-3A3,3 0 0,1 3,0Z" style="opacity: 1; stroke-width: 0px; fill: rgb(99, 110, 250); fill-opacity: 1;"/><path class="point" transform="translate(32.17,294.8)" d="M3,0A3,3 0 1,1 0,-3A3,3 0 0,1 3,0Z" style="opacity: 1; stroke-width: 0px; fill: rgb(99, 110, 250); fill-opacity: 1;"/><path class="point" transform="translate(27.48,294.7)" d="M3,0A3,3 0 1,1 0,-3A3,3 0 0,1 3,0Z" style="opacity: 1; stroke-width: 0px; fill: rgb(99, 110, 250); fill-opacity: 1;"/><path class="point" transform="translate(39.76,294.62)" d="M3,0A3,3 0 1,1 0,-3A3,3 0 0,1 3,0Z" style="opacity: 1; stroke-width: 0px; fill: rgb(99, 110, 250); fill-opacity: 1;"/><path class="point" transform="translate(30.78,294.6)" d="M3,0A3,3 0 1,1 0,-3A3,3 0 0,1 3,0Z" style="opacity: 1; stroke-width: 0px; fill: rgb(99, 110, 250); fill-opacity: 1;"/><path class="point" transform="translate(21.61,294.47)" d="M3,0A3,3 0 1,1 0,-3A3,3 0 0,1 3,0Z" style="opacity: 1; stroke-width: 0px; fill: rgb(99, 110, 250); fill-opacity: 1;"/><path class="point" transform="translate(17.1,294.4)" d="M3,0A3,3 0 1,1 0,-3A3,3 0 0,1 3,0Z" style="opacity: 1; stroke-width: 0px; fill: rgb(99, 110, 250); fill-opacity: 1;"/><path class="point" transform="translate(41.36,294.35)" d="M3,0A3,3 0 1,1 0,-3A3,3 0 0,1 3,0Z" style="opacity: 1; stroke-width: 0px; fill: rgb(99, 110, 250); fill-opacity: 1;"/><path class="point" transform="translate(18.37,294)" d="M3,0A3,3 0 1,1 0,-3A3,3 0 0,1 3,0Z" style="opacity: 1; stroke-width: 0px; fill: rgb(99, 110, 250); fill-opacity: 1;"/><path class="point" transform="translate(41.85,293.87)" d="M3,0A3,3 0 1,1 0,-3A3,3 0 0,1 3,0Z" style="opacity: 1; stroke-width: 0px; fill: rgb(99, 110, 250); fill-opacity: 1;"/><path class="point" transform="translate(35.76,293.64)" d="M3,0A3,3 0 1,1 0,-3A3,3 0 0,1 3,0Z" style="opacity: 1; stroke-width: 0px; fill: rgb(99, 110, 250); fill-opacity: 1;"/><path class="point" transform="translate(27.38,293.62)" d="M3,0A3,3 0 1,1 0,-3A3,3 0 0,1 3,0Z" style="opacity: 1; stroke-width: 0px; fill: rgb(99, 110, 250); fill-opacity: 1;"/><path class="point" transform="translate(22.62,293.62)" d="M3,0A3,3 0 1,1 0,-3A3,3 0 0,1 3,0Z" style="opacity: 1; stroke-width: 0px; fill: rgb(99, 110, 250); fill-opacity: 1;"/><path class="point" transform="translate(39.53,293.59)" d="M3,0A3,3 0 1,1 0,-3A3,3 0 0,1 3,0Z" style="opacity: 1; stroke-width: 0px; fill: rgb(99, 110, 250); fill-opacity: 1;"/><path class="point" transform="translate(30.48,293.57)" d="M3,0A3,3 0 1,1 0,-3A3,3 0 0,1 3,0Z" style="opacity: 1; stroke-width: 0px; fill: rgb(99, 110, 250); fill-opacity: 1;"/><path class="point" transform="translate(43.35,293.47)" d="M3,0A3,3 0 1,1 0,-3A3,3 0 0,1 3,0Z" style="opacity: 1; stroke-width: 0px; fill: rgb(99, 110, 250); fill-opacity: 1;"/><path class="point" transform="translate(18.59,293.44)" d="M3,0A3,3 0 1,1 0,-3A3,3 0 0,1 3,0Z" style="opacity: 1; stroke-width: 0px; fill: rgb(99, 110, 250); fill-opacity: 1;"/><path class="point" transform="translate(42.56,293.34)" d="M3,0A3,3 0 1,1 0,-3A3,3 0 0,1 3,0Z" style="opacity: 1; stroke-width: 0px; fill: rgb(99, 110, 250); fill-opacity: 1;"/><path class="point" transform="translate(30.88,293.29)" d="M3,0A3,3 0 1,1 0,-3A3,3 0 0,1 3,0Z" style="opacity: 1; stroke-width: 0px; fill: rgb(99, 110, 250); fill-opacity: 1;"/><path class="point" transform="translate(25.85,293.14)" d="M3,0A3,3 0 1,1 0,-3A3,3 0 0,1 3,0Z" style="opacity: 1; stroke-width: 0px; fill: rgb(99, 110, 250); fill-opacity: 1;"/><path class="point" transform="translate(16.26,293.07)" d="M3,0A3,3 0 1,1 0,-3A3,3 0 0,1 3,0Z" style="opacity: 1; stroke-width: 0px; fill: rgb(99, 110, 250); fill-opacity: 1;"/><path class="point" transform="translate(25.88,293.04)" d="M3,0A3,3 0 1,1 0,-3A3,3 0 0,1 3,0Z" style="opacity: 1; stroke-width: 0px; fill: rgb(99, 110, 250); fill-opacity: 1;"/><path class="point" transform="translate(43.04,293.02)" d="M3,0A3,3 0 1,1 0,-3A3,3 0 0,1 3,0Z" style="opacity: 1; stroke-width: 0px; fill: rgb(99, 110, 250); fill-opacity: 1;"/><path class="point" transform="translate(28.34,292.94)" d="M3,0A3,3 0 1,1 0,-3A3,3 0 0,1 3,0Z" style="opacity: 1; stroke-width: 0px; fill: rgb(99, 110, 250); fill-opacity: 1;"/><path class="point" transform="translate(19.63,292.79)" d="M3,0A3,3 0 1,1 0,-3A3,3 0 0,1 3,0Z" style="opacity: 1; stroke-width: 0px; fill: rgb(99, 110, 250); fill-opacity: 1;"/><path class="point" transform="translate(40.06,292.77)" d="M3,0A3,3 0 1,1 0,-3A3,3 0 0,1 3,0Z" style="opacity: 1; stroke-width: 0px; fill: rgb(99, 110, 250); fill-opacity: 1;"/><path class="point" transform="translate(23.53,292.71)" d="M3,0A3,3 0 1,1 0,-3A3,3 0 0,1 3,0Z" style="opacity: 1; stroke-width: 0px; fill: rgb(99, 110, 250); fill-opacity: 1;"/><path class="point" transform="translate(32.22,292.71)" d="M3,0A3,3 0 1,1 0,-3A3,3 0 0,1 3,0Z" style="opacity: 1; stroke-width: 0px; fill: rgb(99, 110, 250); fill-opacity: 1;"/><path class="point" transform="translate(39.15,292.64)" d="M3,0A3,3 0 1,1 0,-3A3,3 0 0,1 3,0Z" style="opacity: 1; stroke-width: 0px; fill: rgb(99, 110, 250); fill-opacity: 1;"/><path class="point" transform="translate(16.48,292.54)" d="M3,0A3,3 0 1,1 0,-3A3,3 0 0,1 3,0Z" style="opacity: 1; stroke-width: 0px; fill: rgb(99, 110, 250); fill-opacity: 1;"/><path class="point" transform="translate(47.4,292.54)" d="M3,0A3,3 0 1,1 0,-3A3,3 0 0,1 3,0Z" style="opacity: 1; stroke-width: 0px; fill: rgb(99, 110, 250); fill-opacity: 1;"/><path class="point" transform="translate(38.94,292.49)" d="M3,0A3,3 0 1,1 0,-3A3,3 0 0,1 3,0Z" style="opacity: 1; stroke-width: 0px; fill: rgb(99, 110, 250); fill-opacity: 1;"/><path class="point" transform="translate(17.88,292.46)" d="M3,0A3,3 0 1,1 0,-3A3,3 0 0,1 3,0Z" style="opacity: 1; stroke-width: 0px; fill: rgb(99, 110, 250); fill-opacity: 1;"/><path class="point" transform="translate(45.06,292.36)" d="M3,0A3,3 0 1,1 0,-3A3,3 0 0,1 3,0Z" style="opacity: 1; stroke-width: 0px; fill: rgb(99, 110, 250); fill-opacity: 1;"/><path class="point" transform="translate(20.31,292.36)" d="M3,0A3,3 0 1,1 0,-3A3,3 0 0,1 3,0Z" style="opacity: 1; stroke-width: 0px; fill: rgb(99, 110, 250); fill-opacity: 1;"/><path class="point" transform="translate(30.27,292.31)" d="M3,0A3,3 0 1,1 0,-3A3,3 0 0,1 3,0Z" style="opacity: 1; stroke-width: 0px; fill: rgb(99, 110, 250); fill-opacity: 1;"/><path class="point" transform="translate(34.24,292.21)" d="M3,0A3,3 0 1,1 0,-3A3,3 0 0,1 3,0Z" style="opacity: 1; stroke-width: 0px; fill: rgb(99, 110, 250); fill-opacity: 1;"/><path class="point" transform="translate(25.49,292.16)" d="M3,0A3,3 0 1,1 0,-3A3,3 0 0,1 3,0Z" style="opacity: 1; stroke-width: 0px; fill: rgb(99, 110, 250); fill-opacity: 1;"/><path class="point" transform="translate(42.56,292.11)" d="M3,0A3,3 0 1,1 0,-3A3,3 0 0,1 3,0Z" style="opacity: 1; stroke-width: 0px; fill: rgb(99, 110, 250); fill-opacity: 1;"/><path class="point" transform="translate(22.09,292.04)" d="M3,0A3,3 0 1,1 0,-3A3,3 0 0,1 3,0Z" style="opacity: 1; stroke-width: 0px; fill: rgb(99, 110, 250); fill-opacity: 1;"/><path class="point" transform="translate(38.35,292.01)" d="M3,0A3,3 0 1,1 0,-3A3,3 0 0,1 3,0Z" style="opacity: 1; stroke-width: 0px; fill: rgb(99, 110, 250); fill-opacity: 1;"/><path class="point" transform="translate(44.08,291.58)" d="M3,0A3,3 0 1,1 0,-3A3,3 0 0,1 3,0Z" style="opacity: 1; stroke-width: 0px; fill: rgb(99, 110, 250); fill-opacity: 1;"/><path class="point" transform="translate(17,291.56)" d="M3,0A3,3 0 1,1 0,-3A3,3 0 0,1 3,0Z" style="opacity: 1; stroke-width: 0px; fill: rgb(99, 110, 250); fill-opacity: 1;"/><path class="point" transform="translate(23.3,291.13)" d="M3,0A3,3 0 1,1 0,-3A3,3 0 0,1 3,0Z" style="opacity: 1; stroke-width: 0px; fill: rgb(99, 110, 250); fill-opacity: 1;"/><path class="point" transform="translate(40.5,290.78)" d="M3,0A3,3 0 1,1 0,-3A3,3 0 0,1 3,0Z" style="opacity: 1; stroke-width: 0px; fill: rgb(99, 110, 250); fill-opacity: 1;"/><path class="point" transform="translate(28.43,290.58)" d="M3,0A3,3 0 1,1 0,-3A3,3 0 0,1 3,0Z" style="opacity: 1; stroke-width: 0px; fill: rgb(99, 110, 250); fill-opacity: 1;"/><path class="point" transform="translate(33.47,290.43)" d="M3,0A3,3 0 1,1 0,-3A3,3 0 0,1 3,0Z" style="opacity: 1; stroke-width: 0px; fill: rgb(99, 110, 250); fill-opacity: 1;"/><path class="point" transform="translate(43.17,290.03)" d="M3,0A3,3 0 1,1 0,-3A3,3 0 0,1 3,0Z" style="opacity: 1; stroke-width: 0px; fill: rgb(99, 110, 250); fill-opacity: 1;"/><path class="point" transform="translate(21.7,290.03)" d="M3,0A3,3 0 1,1 0,-3A3,3 0 0,1 3,0Z" style="opacity: 1; stroke-width: 0px; fill: rgb(99, 110, 250); fill-opacity: 1;"/><path class="point" transform="translate(46.18,289.35)" d="M3,0A3,3 0 1,1 0,-3A3,3 0 0,1 3,0Z" style="opacity: 1; stroke-width: 0px; fill: rgb(99, 110, 250); fill-opacity: 1;"/><path class="point" transform="translate(23.62,289.02)" d="M3,0A3,3 0 1,1 0,-3A3,3 0 0,1 3,0Z" style="opacity: 1; stroke-width: 0px; fill: rgb(99, 110, 250); fill-opacity: 1;"/><path class="point" transform="translate(43.23,288.95)" d="M3,0A3,3 0 1,1 0,-3A3,3 0 0,1 3,0Z" style="opacity: 1; stroke-width: 0px; fill: rgb(99, 110, 250); fill-opacity: 1;"/><path class="point" transform="translate(27.4,287.69)" d="M3,0A3,3 0 1,1 0,-3A3,3 0 0,1 3,0Z" style="opacity: 1; stroke-width: 0px; fill: rgb(99, 110, 250); fill-opacity: 1;"/><path class="point" transform="translate(39.33,287.67)" d="M3,0A3,3 0 1,1 0,-3A3,3 0 0,1 3,0Z" style="opacity: 1; stroke-width: 0px; fill: rgb(99, 110, 250); fill-opacity: 1;"/><path class="point" transform="translate(34.73,287.52)" d="M3,0A3,3 0 1,1 0,-3A3,3 0 0,1 3,0Z" style="opacity: 1; stroke-width: 0px; fill: rgb(99, 110, 250); fill-opacity: 1;"/><path class="point" transform="translate(31.31,285.76)" d="M3,0A3,3 0 1,1 0,-3A3,3 0 0,1 3,0Z" style="opacity: 1; stroke-width: 0px; fill: rgb(99, 110, 250); fill-opacity: 1;"/><path class="point" transform="translate(26.2,285.28)" d="M3,0A3,3 0 1,1 0,-3A3,3 0 0,1 3,0Z" style="opacity: 1; stroke-width: 0px; fill: rgb(99, 110, 250); fill-opacity: 1;"/><path class="point" transform="translate(31.8,283.52)" d="M3,0A3,3 0 1,1 0,-3A3,3 0 0,1 3,0Z" style="opacity: 1; stroke-width: 0px; fill: rgb(99, 110, 250); fill-opacity: 1;"/><path class="point" transform="translate(30.46,282.85)" d="M3,0A3,3 0 1,1 0,-3A3,3 0 0,1 3,0Z" style="opacity: 1; stroke-width: 0px; fill: rgb(99, 110, 250); fill-opacity: 1;"/><path class="point" transform="translate(31.11,281.24)" d="M3,0A3,3 0 1,1 0,-3A3,3 0 0,1 3,0Z" style="opacity: 1; stroke-width: 0px; fill: rgb(99, 110, 250); fill-opacity: 1;"/><path class="point" transform="translate(30.64,275.04)" d="M3,0A3,3 0 1,1 0,-3A3,3 0 0,1 3,0Z" style="opacity: 1; stroke-width: 0px; fill: rgb(99, 110, 250); fill-opacity: 1;"/><path class="point" transform="translate(30.32,273.28)" d="M3,0A3,3 0 1,1 0,-3A3,3 0 0,1 3,0Z" style="opacity: 1; stroke-width: 0px; fill: rgb(99, 110, 250); fill-opacity: 1;"/><path class="point" transform="translate(31.2,185.96)" d="M3,0A3,3 0 1,1 0,-3A3,3 0 0,1 3,0Z" style="opacity: 1; stroke-width: 0px; fill: rgb(99, 110, 250); fill-opacity: 1;"/><path class="point" transform="translate(32.84,143.04)" d="M3,0A3,3 0 1,1 0,-3A3,3 0 0,1 3,0Z" style="opacity: 1; stroke-width: 0px; fill: rgb(99, 110, 250); fill-opacity: 1;"/><path class="point" transform="translate(30.66,128.68)" d="M3,0A3,3 0 1,1 0,-3A3,3 0 0,1 3,0Z" style="opacity: 1; stroke-width: 0px; fill: rgb(99, 110, 250); fill-opacity: 1;"/><path class="point" transform="translate(32.63,128.3)" d="M3,0A3,3 0 1,1 0,-3A3,3 0 0,1 3,0Z" style="opacity: 1; stroke-width: 0px; fill: rgb(99, 110, 250); fill-opacity: 1;"/><path class="point" transform="translate(33.07,108.84)" d="M3,0A3,3 0 1,1 0,-3A3,3 0 0,1 3,0Z" style="opacity: 1; stroke-width: 0px; fill: rgb(99, 110, 250); fill-opacity: 1;"/><path class="point" transform="translate(32.48,107.86)" d="M3,0A3,3 0 1,1 0,-3A3,3 0 0,1 3,0Z" style="opacity: 1; stroke-width: 0px; fill: rgb(99, 110, 250); fill-opacity: 1;"/><path class="point" transform="translate(30.72,97.06)" d="M3,0A3,3 0 1,1 0,-3A3,3 0 0,1 3,0Z" style="opacity: 1; stroke-width: 0px; fill: rgb(99, 110, 250); fill-opacity: 1;"/><path class="point" transform="translate(31.32,84.53)" d="M3,0A3,3 0 1,1 0,-3A3,3 0 0,1 3,0Z" style="opacity: 1; stroke-width: 0px; fill: rgb(99, 110, 250); fill-opacity: 1;"/><path class="point" transform="translate(34.61,84.43)" d="M3,0A3,3 0 1,1 0,-3A3,3 0 0,1 3,0Z" style="opacity: 1; stroke-width: 0px; fill: rgb(99, 110, 250); fill-opacity: 1;"/><path class="point" transform="translate(30.82,64.39)" d="M3,0A3,3 0 1,1 0,-3A3,3 0 0,1 3,0Z" style="opacity: 1; stroke-width: 0px; fill: rgb(99, 110, 250); fill-opacity: 1;"/><path class="point" transform="translate(32.5,55.05)" d="M3,0A3,3 0 1,1 0,-3A3,3 0 0,1 3,0Z" style="opacity: 1; stroke-width: 0px; fill: rgb(99, 110, 250); fill-opacity: 1;"/></g></g><g class="trace violins" style="opacity: 1;"><path class="violin" d="M334.27,302.45Q334.62,302.36 334.84,302.32C335.12,302.27 335.45,302.23 335.82,302.19C336.28,302.14 336.82,302.11 337.39,302.07C338.08,302.02 338.86,301.98 339.69,301.94C340.65,301.89 341.71,301.85 342.81,301.81C344.05,301.76 345.39,301.72 346.76,301.68C348.26,301.64 349.85,301.6 351.47,301.56C353.18,301.52 354.97,301.47 356.76,301.43C358.6,301.39 360.5,301.34 362.36,301.3C364.21,301.26 366.1,301.21 367.91,301.17C369.64,301.13 371.37,301.09 372.98,301.05C374.45,301.01 375.9,300.97 377.21,300.92C378.35,300.88 379.44,300.84 380.42,300.79C381.25,300.75 382.01,300.71 382.71,300.66C383.31,300.62 383.86,300.58 384.39,300.54C384.88,300.5 385.34,300.46 385.78,300.41C386.19,300.37 386.61,300.33 386.96,300.28C387.25,300.24 387.65,300.23 387.74,300.15C387.78,300.12 387.79,300.06 387.77,300.03C387.7,299.93 387.16,299.94 386.76,299.9C386.17,299.84 385.37,299.81 384.55,299.77C383.53,299.72 382.34,299.68 381.11,299.64C379.68,299.59 378.1,299.56 376.48,299.52C374.7,299.48 372.79,299.43 370.87,299.39C368.86,299.35 366.74,299.3 364.68,299.26C362.62,299.22 360.51,299.17 358.51,299.13C356.62,299.09 354.73,299.05 353,299.01C351.46,298.97 349.97,298.93 348.64,298.88C347.52,298.84 346.48,298.8 345.56,298.75C344.82,298.71 344.16,298.67 343.56,298.62C343.07,298.58 342.65,298.55 342.24,298.5C341.89,298.46 341.58,298.41 341.27,298.37C340.98,298.33 340.69,298.28 340.42,298.24C340.16,298.2 339.91,298.15 339.67,298.11C339.46,298.07 339.25,298.04 339.07,297.99C338.92,297.95 338.77,297.91 338.65,297.86C338.55,297.82 338.46,297.77 338.37,297.73C338.28,297.69 338.21,297.64 338.12,297.6C338.01,297.55 337.9,297.52 337.77,297.48C337.62,297.43 337.45,297.39 337.27,297.35C337.08,297.3 336.87,297.26 336.66,297.22C336.45,297.18 336.22,297.14 336.02,297.09C335.84,297.05 335.65,297.01 335.5,296.96C335.38,296.92 335.25,296.89 335.17,296.84C335.11,296.8 335.06,296.76 335.04,296.71C335.03,296.67 335.04,296.62 335.05,296.58C335.06,296.54 335.1,296.49 335.11,296.45C335.12,296.41 335.12,296.37 335.11,296.33C335.09,296.28 335.05,296.24 335.01,296.2C334.96,296.15 334.88,296.11 334.81,296.07C334.73,296.02 334.64,295.98 334.55,295.94C334.46,295.9 334.37,295.86 334.29,295.82C334.21,295.78 334.14,295.74 334.08,295.69Q334.02,295.65 333.93,295.56L333.57,295.56Q333.48,295.65 333.42,295.69C333.36,295.74 333.29,295.78 333.21,295.82C333.13,295.86 333.04,295.9 332.95,295.94C332.86,295.98 332.77,296.02 332.69,296.07C332.62,296.11 332.54,296.15 332.49,296.2C332.45,296.24 332.41,296.28 332.39,296.33C332.38,296.37 332.38,296.41 332.39,296.45C332.4,296.49 332.44,296.54 332.45,296.58C332.46,296.62 332.47,296.67 332.46,296.71C332.44,296.76 332.39,296.8 332.33,296.84C332.25,296.89 332.12,296.92 332,296.96C331.85,297.01 331.66,297.05 331.48,297.09C331.28,297.14 331.05,297.18 330.84,297.22C330.63,297.26 330.42,297.3 330.23,297.35C330.05,297.39 329.88,297.43 329.73,297.48C329.6,297.52 329.49,297.55 329.38,297.6C329.29,297.64 329.22,297.69 329.13,297.73C329.04,297.77 328.95,297.82 328.85,297.86C328.73,297.91 328.58,297.95 328.43,297.99C328.25,298.04 328.04,298.07 327.83,298.11C327.59,298.15 327.34,298.2 327.08,298.24C326.81,298.28 326.52,298.33 326.23,298.37C325.92,298.41 325.61,298.46 325.26,298.5C324.85,298.55 324.43,298.58 323.94,298.62C323.34,298.67 322.68,298.71 321.94,298.75C321.02,298.8 319.98,298.84 318.86,298.88C317.53,298.93 316.04,298.97 314.5,299.01C312.77,299.05 310.88,299.09 308.99,299.13C306.99,299.17 304.88,299.22 302.82,299.26C300.76,299.3 298.64,299.35 296.63,299.39C294.71,299.43 292.8,299.48 291.02,299.52C289.4,299.56 287.82,299.59 286.39,299.64C285.16,299.68 283.97,299.72 282.95,299.77C282.13,299.81 281.33,299.84 280.74,299.9C280.34,299.94 279.8,299.93 279.73,300.03C279.71,300.06 279.72,300.12 279.76,300.15C279.85,300.23 280.25,300.24 280.54,300.28C280.89,300.33 281.31,300.37 281.72,300.41C282.16,300.46 282.62,300.5 283.11,300.54C283.64,300.58 284.19,300.62 284.79,300.66C285.49,300.71 286.25,300.75 287.08,300.79C288.06,300.84 289.15,300.88 290.29,300.92C291.6,300.97 293.05,301.01 294.52,301.05C296.13,301.09 297.86,301.13 299.59,301.17C301.4,301.21 303.29,301.26 305.14,301.3C307,301.34 308.9,301.39 310.74,301.43C312.53,301.47 314.32,301.52 316.03,301.56C317.65,301.6 319.24,301.64 320.74,301.68C322.11,301.72 323.45,301.76 324.69,301.81C325.79,301.85 326.85,301.89 327.81,301.94C328.64,301.98 329.42,302.02 330.11,302.07C330.68,302.11 331.22,302.14 331.68,302.19C332.05,302.23 332.38,302.27 332.66,302.32Q332.88,302.36 333.23,302.45Z" style="vector-effect: non-scaling-stroke; stroke-width: 2px; stroke: rgb(239, 85, 59); stroke-opacity: 1; fill: rgb(239, 85, 59); fill-opacity: 0.5;"/><g class="points"><path class="point" transform="translate(256.01,301.68)" d="M3,0A3,3 0 1,1 0,-3A3,3 0 0,1 3,0Z" style="opacity: 1; stroke-width: 0px; fill: rgb(239, 85, 59); fill-opacity: 1;"/><path class="point" transform="translate(248.29,301.6)" d="M3,0A3,3 0 1,1 0,-3A3,3 0 0,1 3,0Z" style="opacity: 1; stroke-width: 0px; fill: rgb(239, 85, 59); fill-opacity: 1;"/><path class="point" transform="translate(258.53,301.58)" d="M3,0A3,3 0 1,1 0,-3A3,3 0 0,1 3,0Z" style="opacity: 1; stroke-width: 0px; fill: rgb(239, 85, 59); fill-opacity: 1;"/><path class="point" transform="translate(246.13,301.43)" d="M3,0A3,3 0 1,1 0,-3A3,3 0 0,1 3,0Z" style="opacity: 1; stroke-width: 0px; fill: rgb(239, 85, 59); fill-opacity: 1;"/><path class="point" transform="translate(250.74,301.28)" d="M3,0A3,3 0 1,1 0,-3A3,3 0 0,1 3,0Z" style="opacity: 1; stroke-width: 0px; fill: rgb(239, 85, 59); fill-opacity: 1;"/><path class="point" transform="translate(257.04,301.28)" d="M3,0A3,3 0 1,1 0,-3A3,3 0 0,1 3,0Z" style="opacity: 1; stroke-width: 0px; fill: rgb(239, 85, 59); fill-opacity: 1;"/><path class="point" transform="translate(252.42,301.28)" d="M3,0A3,3 0 1,1 0,-3A3,3 0 0,1 3,0Z" style="opacity: 1; stroke-width: 0px; fill: rgb(239, 85, 59); fill-opacity: 1;"/><path class="point" transform="translate(254.93,301.28)" d="M3,0A3,3 0 1,1 0,-3A3,3 0 0,1 3,0Z" style="opacity: 1; stroke-width: 0px; fill: rgb(239, 85, 59); fill-opacity: 1;"/><path class="point" transform="translate(249.94,301.25)" d="M3,0A3,3 0 1,1 0,-3A3,3 0 0,1 3,0Z" style="opacity: 1; stroke-width: 0px; fill: rgb(239, 85, 59); fill-opacity: 1;"/><path class="point" transform="translate(245.42,301.23)" d="M3,0A3,3 0 1,1 0,-3A3,3 0 0,1 3,0Z" style="opacity: 1; stroke-width: 0px; fill: rgb(239, 85, 59); fill-opacity: 1;"/><path class="point" transform="translate(255.19,301.2)" d="M3,0A3,3 0 1,1 0,-3A3,3 0 0,1 3,0Z" style="opacity: 1; stroke-width: 0px; fill: rgb(239, 85, 59); fill-opacity: 1;"/><path class="point" transform="translate(249.67,301.1)" d="M3,0A3,3 0 1,1 0,-3A3,3 0 0,1 3,0Z" style="opacity: 1; stroke-width: 0px; fill: rgb(239, 85, 59); fill-opacity: 1;"/><path class="point" transform="translate(258.4,301.03)" d="M3,0A3,3 0 1,1 0,-3A3,3 0 0,1 3,0Z" style="opacity: 1; stroke-width: 0px; fill: rgb(239, 85, 59); fill-opacity: 1;"/><path class="point" transform="translate(243.7,301)" d="M3,0A3,3 0 1,1 0,-3A3,3 0 0,1 3,0Z" style="opacity: 1; stroke-width: 0px; fill: rgb(239, 85, 59); fill-opacity: 1;"/><path class="point" transform="translate(247.17,300.95)" d="M3,0A3,3 0 1,1 0,-3A3,3 0 0,1 3,0Z" style="opacity: 1; stroke-width: 0px; fill: rgb(239, 85, 59); fill-opacity: 1;"/><path class="point" transform="translate(261.52,300.9)" d="M3,0A3,3 0 1,1 0,-3A3,3 0 0,1 3,0Z" style="opacity: 1; stroke-width: 0px; fill: rgb(239, 85, 59); fill-opacity: 1;"/><path class="point" transform="translate(249.72,300.9)" d="M3,0A3,3 0 1,1 0,-3A3,3 0 0,1 3,0Z" style="opacity: 1; stroke-width: 0px; fill: rgb(239, 85, 59); fill-opacity: 1;"/><path class="point" transform="translate(241.08,300.88)" d="M3,0A3,3 0 1,1 0,-3A3,3 0 0,1 3,0Z" style="opacity: 1; stroke-width: 0px; fill: rgb(239, 85, 59); fill-opacity: 1;"/><path class="point" transform="translate(247.88,300.88)" d="M3,0A3,3 0 1,1 0,-3A3,3 0 0,1 3,0Z" style="opacity: 1; stroke-width: 0px; fill: rgb(239, 85, 59); fill-opacity: 1;"/><path class="point" transform="translate(252.46,300.88)" d="M3,0A3,3 0 1,1 0,-3A3,3 0 0,1 3,0Z" style="opacity: 1; stroke-width: 0px; fill: rgb(239, 85, 59); fill-opacity: 1;"/><path class="point" transform="translate(258.81,300.88)" d="M3,0A3,3 0 1,1 0,-3A3,3 0 0,1 3,0Z" style="opacity: 1; stroke-width: 0px; fill: rgb(239, 85, 59); fill-opacity: 1;"/><path class="point" transform="translate(254.13,300.88)" d="M3,0A3,3 0 1,1 0,-3A3,3 0 0,1 3,0Z" style="opacity: 1; stroke-width: 0px; fill: rgb(239, 85, 59); fill-opacity: 1;"/><path class="point" transform="translate(249.14,300.85)" d="M3,0A3,3 0 1,1 0,-3A3,3 0 0,1 3,0Z" style="opacity: 1; stroke-width: 0px; fill: rgb(239, 85, 59); fill-opacity: 1;"/><path class="point" transform="translate(242.11,300.85)" d="M3,0A3,3 0 1,1 0,-3A3,3 0 0,1 3,0Z" style="opacity: 1; stroke-width: 0px; fill: rgb(239, 85, 59); fill-opacity: 1;"/><path class="point" transform="translate(252.68,300.73)" d="M3,0A3,3 0 1,1 0,-3A3,3 0 0,1 3,0Z" style="opacity: 1; stroke-width: 0px; fill: rgb(239, 85, 59); fill-opacity: 1;"/><path class="point" transform="translate(249.01,300.73)" d="M3,0A3,3 0 1,1 0,-3A3,3 0 0,1 3,0Z" style="opacity: 1; stroke-width: 0px; fill: rgb(239, 85, 59); fill-opacity: 1;"/><path class="point" transform="translate(258.62,300.7)" d="M3,0A3,3 0 1,1 0,-3A3,3 0 0,1 3,0Z" style="opacity: 1; stroke-width: 0px; fill: rgb(239, 85, 59); fill-opacity: 1;"/><path class="point" transform="translate(251.51,300.68)" d="M3,0A3,3 0 1,1 0,-3A3,3 0 0,1 3,0Z" style="opacity: 1; stroke-width: 0px; fill: rgb(239, 85, 59); fill-opacity: 1;"/><path class="point" transform="translate(244.42,300.68)" d="M3,0A3,3 0 1,1 0,-3A3,3 0 0,1 3,0Z" style="opacity: 1; stroke-width: 0px; fill: rgb(239, 85, 59); fill-opacity: 1;"/><path class="point" transform="translate(237.6,300.68)" d="M3,0A3,3 0 1,1 0,-3A3,3 0 0,1 3,0Z" style="opacity: 1; stroke-width: 0px; fill: rgb(239, 85, 59); fill-opacity: 1;"/><path class="point" transform="translate(259.87,300.68)" d="M3,0A3,3 0 1,1 0,-3A3,3 0 0,1 3,0Z" style="opacity: 1; stroke-width: 0px; fill: rgb(239, 85, 59); fill-opacity: 1;"/><path class="point" transform="translate(242.5,300.68)" d="M3,0A3,3 0 1,1 0,-3A3,3 0 0,1 3,0Z" style="opacity: 1; stroke-width: 0px; fill: rgb(239, 85, 59); fill-opacity: 1;"/><path class="point" transform="translate(260.25,300.68)" d="M3,0A3,3 0 1,1 0,-3A3,3 0 0,1 3,0Z" style="opacity: 1; stroke-width: 0px; fill: rgb(239, 85, 59); fill-opacity: 1;"/><path class="point" transform="translate(255.33,300.65)" d="M3,0A3,3 0 1,1 0,-3A3,3 0 0,1 3,0Z" style="opacity: 1; stroke-width: 0px; fill: rgb(239, 85, 59); fill-opacity: 1;"/><path class="point" transform="translate(249.15,300.65)" d="M3,0A3,3 0 1,1 0,-3A3,3 0 0,1 3,0Z" style="opacity: 1; stroke-width: 0px; fill: rgb(239, 85, 59); fill-opacity: 1;"/><path class="point" transform="translate(247.71,300.52)" d="M3,0A3,3 0 1,1 0,-3A3,3 0 0,1 3,0Z" style="opacity: 1; stroke-width: 0px; fill: rgb(239, 85, 59); fill-opacity: 1;"/><path class="point" transform="translate(256.53,300.47)" d="M3,0A3,3 0 1,1 0,-3A3,3 0 0,1 3,0Z" style="opacity: 1; stroke-width: 0px; fill: rgb(239, 85, 59); fill-opacity: 1;"/><path class="point" transform="translate(251.81,300.47)" d="M3,0A3,3 0 1,1 0,-3A3,3 0 0,1 3,0Z" style="opacity: 1; stroke-width: 0px; fill: rgb(239, 85, 59); fill-opacity: 1;"/><path class="point" transform="translate(258.37,300.45)" d="M3,0A3,3 0 1,1 0,-3A3,3 0 0,1 3,0Z" style="opacity: 1; stroke-width: 0px; fill: rgb(239, 85, 59); fill-opacity: 1;"/><path class="point" transform="translate(245.79,300.45)" d="M3,0A3,3 0 1,1 0,-3A3,3 0 0,1 3,0Z" style="opacity: 1; stroke-width: 0px; fill: rgb(239, 85, 59); fill-opacity: 1;"/><path class="point" transform="translate(258.84,300.22)" d="M3,0A3,3 0 1,1 0,-3A3,3 0 0,1 3,0Z" style="opacity: 1; stroke-width: 0px; fill: rgb(239, 85, 59); fill-opacity: 1;"/><path class="point" transform="translate(251.89,300.22)" d="M3,0A3,3 0 1,1 0,-3A3,3 0 0,1 3,0Z" style="opacity: 1; stroke-width: 0px; fill: rgb(239, 85, 59); fill-opacity: 1;"/><path class="point" transform="translate(248.81,300.22)" d="M3,0A3,3 0 1,1 0,-3A3,3 0 0,1 3,0Z" style="opacity: 1; stroke-width: 0px; fill: rgb(239, 85, 59); fill-opacity: 1;"/><path class="point" transform="translate(242.52,300.17)" d="M3,0A3,3 0 1,1 0,-3A3,3 0 0,1 3,0Z" style="opacity: 1; stroke-width: 0px; fill: rgb(239, 85, 59); fill-opacity: 1;"/><path class="point" transform="translate(248.67,300.17)" d="M3,0A3,3 0 1,1 0,-3A3,3 0 0,1 3,0Z" style="opacity: 1; stroke-width: 0px; fill: rgb(239, 85, 59); fill-opacity: 1;"/><path class="point" transform="translate(263.54,300.17)" d="M3,0A3,3 0 1,1 0,-3A3,3 0 0,1 3,0Z" style="opacity: 1; stroke-width: 0px; fill: rgb(239, 85, 59); fill-opacity: 1;"/><path class="point" transform="translate(248.84,300.15)" d="M3,0A3,3 0 1,1 0,-3A3,3 0 0,1 3,0Z" style="opacity: 1; stroke-width: 0px; fill: rgb(239, 85, 59); fill-opacity: 1;"/><path class="point" transform="translate(240.13,300.15)" d="M3,0A3,3 0 1,1 0,-3A3,3 0 0,1 3,0Z" style="opacity: 1; stroke-width: 0px; fill: rgb(239, 85, 59); fill-opacity: 1;"/><path class="point" transform="translate(260.56,300.15)" d="M3,0A3,3 0 1,1 0,-3A3,3 0 0,1 3,0Z" style="opacity: 1; stroke-width: 0px; fill: rgb(239, 85, 59); fill-opacity: 1;"/><path class="point" transform="translate(244.03,300.15)" d="M3,0A3,3 0 1,1 0,-3A3,3 0 0,1 3,0Z" style="opacity: 1; stroke-width: 0px; fill: rgb(239, 85, 59); fill-opacity: 1;"/><path class="point" transform="translate(252.72,300.12)" d="M3,0A3,3 0 1,1 0,-3A3,3 0 0,1 3,0Z" style="opacity: 1; stroke-width: 0px; fill: rgb(239, 85, 59); fill-opacity: 1;"/><path class="point" transform="translate(259.65,300.12)" d="M3,0A3,3 0 1,1 0,-3A3,3 0 0,1 3,0Z" style="opacity: 1; stroke-width: 0px; fill: rgb(239, 85, 59); fill-opacity: 1;"/><path class="point" transform="translate(237.14,300.12)" d="M3,0A3,3 0 1,1 0,-3A3,3 0 0,1 3,0Z" style="opacity: 1; stroke-width: 0px; fill: rgb(239, 85, 59); fill-opacity: 1;"/><path class="point" transform="translate(267.75,300.1)" d="M3,0A3,3 0 1,1 0,-3A3,3 0 0,1 3,0Z" style="opacity: 1; stroke-width: 0px; fill: rgb(239, 85, 59); fill-opacity: 1;"/><path class="point" transform="translate(259.37,300.1)" d="M3,0A3,3 0 1,1 0,-3A3,3 0 0,1 3,0Z" style="opacity: 1; stroke-width: 0px; fill: rgb(239, 85, 59); fill-opacity: 1;"/><path class="point" transform="translate(238.52,300.05)" d="M3,0A3,3 0 1,1 0,-3A3,3 0 0,1 3,0Z" style="opacity: 1; stroke-width: 0px; fill: rgb(239, 85, 59); fill-opacity: 1;"/><path class="point" transform="translate(265.43,300.05)" d="M3,0A3,3 0 1,1 0,-3A3,3 0 0,1 3,0Z" style="opacity: 1; stroke-width: 0px; fill: rgb(239, 85, 59); fill-opacity: 1;"/><path class="point" transform="translate(243.4,300.02)" d="M3,0A3,3 0 1,1 0,-3A3,3 0 0,1 3,0Z" style="opacity: 1; stroke-width: 0px; fill: rgb(239, 85, 59); fill-opacity: 1;"/><path class="point" transform="translate(251.28,300.02)" d="M3,0A3,3 0 1,1 0,-3A3,3 0 0,1 3,0Z" style="opacity: 1; stroke-width: 0px; fill: rgb(239, 85, 59); fill-opacity: 1;"/><path class="point" transform="translate(254.21,300.02)" d="M3,0A3,3 0 1,1 0,-3A3,3 0 0,1 3,0Z" style="opacity: 1; stroke-width: 0px; fill: rgb(239, 85, 59); fill-opacity: 1;"/><path class="point" transform="translate(248.01,300)" d="M3,0A3,3 0 1,1 0,-3A3,3 0 0,1 3,0Z" style="opacity: 1; stroke-width: 0px; fill: rgb(239, 85, 59); fill-opacity: 1;"/><path class="point" transform="translate(259.95,300)" d="M3,0A3,3 0 1,1 0,-3A3,3 0 0,1 3,0Z" style="opacity: 1; stroke-width: 0px; fill: rgb(239, 85, 59); fill-opacity: 1;"/><path class="point" transform="translate(246.25,299.92)" d="M3,0A3,3 0 1,1 0,-3A3,3 0 0,1 3,0Z" style="opacity: 1; stroke-width: 0px; fill: rgb(239, 85, 59); fill-opacity: 1;"/><path class="point" transform="translate(256.48,299.87)" d="M3,0A3,3 0 1,1 0,-3A3,3 0 0,1 3,0Z" style="opacity: 1; stroke-width: 0px; fill: rgb(239, 85, 59); fill-opacity: 1;"/><path class="point" transform="translate(260,299.87)" d="M3,0A3,3 0 1,1 0,-3A3,3 0 0,1 3,0Z" style="opacity: 1; stroke-width: 0px; fill: rgb(239, 85, 59); fill-opacity: 1;"/><path class="point" transform="translate(242.99,299.8)" d="M3,0A3,3 0 1,1 0,-3A3,3 0 0,1 3,0Z" style="opacity: 1; stroke-width: 0px; fill: rgb(239, 85, 59); fill-opacity: 1;"/><path class="point" transform="translate(247.02,299.8)" d="M3,0A3,3 0 1,1 0,-3A3,3 0 0,1 3,0Z" style="opacity: 1; stroke-width: 0px; fill: rgb(239, 85, 59); fill-opacity: 1;"/><path class="point" transform="translate(259.13,299.72)" d="M3,0A3,3 0 1,1 0,-3A3,3 0 0,1 3,0Z" style="opacity: 1; stroke-width: 0px; fill: rgb(239, 85, 59); fill-opacity: 1;"/><path class="point" transform="translate(249.92,299.7)" d="M3,0A3,3 0 1,1 0,-3A3,3 0 0,1 3,0Z" style="opacity: 1; stroke-width: 0px; fill: rgb(239, 85, 59); fill-opacity: 1;"/><path class="point" transform="translate(253.49,299.7)" d="M3,0A3,3 0 1,1 0,-3A3,3 0 0,1 3,0Z" style="opacity: 1; stroke-width: 0px; fill: rgb(239, 85, 59); fill-opacity: 1;"/><path class="point" transform="translate(261.18,299.7)" d="M3,0A3,3 0 1,1 0,-3A3,3 0 0,1 3,0Z" style="opacity: 1; stroke-width: 0px; fill: rgb(239, 85, 59); fill-opacity: 1;"/><path class="point" transform="translate(245.02,299.7)" d="M3,0A3,3 0 1,1 0,-3A3,3 0 0,1 3,0Z" style="opacity: 1; stroke-width: 0px; fill: rgb(239, 85, 59); fill-opacity: 1;"/><path class="point" transform="translate(264.02,299.7)" d="M3,0A3,3 0 1,1 0,-3A3,3 0 0,1 3,0Z" style="opacity: 1; stroke-width: 0px; fill: rgb(239, 85, 59); fill-opacity: 1;"/><path class="point" transform="translate(243.8,299.6)" d="M3,0A3,3 0 1,1 0,-3A3,3 0 0,1 3,0Z" style="opacity: 1; stroke-width: 0px; fill: rgb(239, 85, 59); fill-opacity: 1;"/><path class="point" transform="translate(264.52,299.52)" d="M3,0A3,3 0 1,1 0,-3A3,3 0 0,1 3,0Z" style="opacity: 1; stroke-width: 0px; fill: rgb(239, 85, 59); fill-opacity: 1;"/><path class="point" transform="translate(246.92,299.47)" d="M3,0A3,3 0 1,1 0,-3A3,3 0 0,1 3,0Z" style="opacity: 1; stroke-width: 0px; fill: rgb(239, 85, 59); fill-opacity: 1;"/><path class="point" transform="translate(261.72,299.47)" d="M3,0A3,3 0 1,1 0,-3A3,3 0 0,1 3,0Z" style="opacity: 1; stroke-width: 0px; fill: rgb(239, 85, 59); fill-opacity: 1;"/><path class="point" transform="translate(255.93,299.47)" d="M3,0A3,3 0 1,1 0,-3A3,3 0 0,1 3,0Z" style="opacity: 1; stroke-width: 0px; fill: rgb(239, 85, 59); fill-opacity: 1;"/><path class="point" transform="translate(251.11,299.47)" d="M3,0A3,3 0 1,1 0,-3A3,3 0 0,1 3,0Z" style="opacity: 1; stroke-width: 0px; fill: rgb(239, 85, 59); fill-opacity: 1;"/><path class="point" transform="translate(238.93,299.47)" d="M3,0A3,3 0 1,1 0,-3A3,3 0 0,1 3,0Z" style="opacity: 1; stroke-width: 0px; fill: rgb(239, 85, 59); fill-opacity: 1;"/><path class="point" transform="translate(250.04,299.47)" d="M3,0A3,3 0 1,1 0,-3A3,3 0 0,1 3,0Z" style="opacity: 1; stroke-width: 0px; fill: rgb(239, 85, 59); fill-opacity: 1;"/><path class="point" transform="translate(239.34,299.47)" d="M3,0A3,3 0 1,1 0,-3A3,3 0 0,1 3,0Z" style="opacity: 1; stroke-width: 0px; fill: rgb(239, 85, 59); fill-opacity: 1;"/><path class="point" transform="translate(244.66,299.45)" d="M3,0A3,3 0 1,1 0,-3A3,3 0 0,1 3,0Z" style="opacity: 1; stroke-width: 0px; fill: rgb(239, 85, 59); fill-opacity: 1;"/><path class="point" transform="translate(242.1,299.37)" d="M3,0A3,3 0 1,1 0,-3A3,3 0 0,1 3,0Z" style="opacity: 1; stroke-width: 0px; fill: rgb(239, 85, 59); fill-opacity: 1;"/><path class="point" transform="translate(242.84,299.37)" d="M3,0A3,3 0 1,1 0,-3A3,3 0 0,1 3,0Z" style="opacity: 1; stroke-width: 0px; fill: rgb(239, 85, 59); fill-opacity: 1;"/><path class="point" transform="translate(248.23,299.37)" d="M3,0A3,3 0 1,1 0,-3A3,3 0 0,1 3,0Z" style="opacity: 1; stroke-width: 0px; fill: rgb(239, 85, 59); fill-opacity: 1;"/><path class="point" transform="translate(254.78,299.34)" d="M3,0A3,3 0 1,1 0,-3A3,3 0 0,1 3,0Z" style="opacity: 1; stroke-width: 0px; fill: rgb(239, 85, 59); fill-opacity: 1;"/><path class="point" transform="translate(247.42,299.32)" d="M3,0A3,3 0 1,1 0,-3A3,3 0 0,1 3,0Z" style="opacity: 1; stroke-width: 0px; fill: rgb(239, 85, 59); fill-opacity: 1;"/><path class="point" transform="translate(254.06,299.29)" d="M3,0A3,3 0 1,1 0,-3A3,3 0 0,1 3,0Z" style="opacity: 1; stroke-width: 0px; fill: rgb(239, 85, 59); fill-opacity: 1;"/><path class="point" transform="translate(255.54,299.14)" d="M3,0A3,3 0 1,1 0,-3A3,3 0 0,1 3,0Z" style="opacity: 1; stroke-width: 0px; fill: rgb(239, 85, 59); fill-opacity: 1;"/><path class="point" transform="translate(253.35,299.02)" d="M3,0A3,3 0 1,1 0,-3A3,3 0 0,1 3,0Z" style="opacity: 1; stroke-width: 0px; fill: rgb(239, 85, 59); fill-opacity: 1;"/><path class="point" transform="translate(250.07,298.62)" d="M3,0A3,3 0 1,1 0,-3A3,3 0 0,1 3,0Z" style="opacity: 1; stroke-width: 0px; fill: rgb(239, 85, 59); fill-opacity: 1;"/><path class="point" transform="translate(251.3,298.59)" d="M3,0A3,3 0 1,1 0,-3A3,3 0 0,1 3,0Z" style="opacity: 1; stroke-width: 0px; fill: rgb(239, 85, 59); fill-opacity: 1;"/><path class="point" transform="translate(256.72,298.47)" d="M3,0A3,3 0 1,1 0,-3A3,3 0 0,1 3,0Z" style="opacity: 1; stroke-width: 0px; fill: rgb(239, 85, 59); fill-opacity: 1;"/><path class="point" transform="translate(250.95,298.42)" d="M3,0A3,3 0 1,1 0,-3A3,3 0 0,1 3,0Z" style="opacity: 1; stroke-width: 0px; fill: rgb(239, 85, 59); fill-opacity: 1;"/><path class="point" transform="translate(253.09,298.19)" d="M3,0A3,3 0 1,1 0,-3A3,3 0 0,1 3,0Z" style="opacity: 1; stroke-width: 0px; fill: rgb(239, 85, 59); fill-opacity: 1;"/><path class="point" transform="translate(254.81,297.76)" d="M3,0A3,3 0 1,1 0,-3A3,3 0 0,1 3,0Z" style="opacity: 1; stroke-width: 0px; fill: rgb(239, 85, 59); fill-opacity: 1;"/><path class="point" transform="translate(250.09,297.46)" d="M3,0A3,3 0 1,1 0,-3A3,3 0 0,1 3,0Z" style="opacity: 1; stroke-width: 0px; fill: rgb(239, 85, 59); fill-opacity: 1;"/><path class="point" transform="translate(252.31,297.41)" d="M3,0A3,3 0 1,1 0,-3A3,3 0 0,1 3,0Z" style="opacity: 1; stroke-width: 0px; fill: rgb(239, 85, 59); fill-opacity: 1;"/><path class="point" transform="translate(255.18,296.33)" d="M3,0A3,3 0 1,1 0,-3A3,3 0 0,1 3,0Z" style="opacity: 1; stroke-width: 0px; fill: rgb(239, 85, 59); fill-opacity: 1;"/></g></g></g></g><g class="overplot"/><path class="xlines-above crisp" d="M0,0" style="fill: none;"/><path class="ylines-above crisp" d="M0,0" style="fill: none;"/><g class="overlines-above"/><g class="xaxislayer-above"><g class="xtick"><text text-anchor="middle" x="0" y="433" transform="translate(193.25,0)" style="font-family: 'Open Sans', verdana, arial, sans-serif; font-size: 12px; fill: rgb(42, 63, 95); fill-opacity: 1; white-space: pre; opacity: 1;">eff_cnn</text></g><g class="xtick"><text text-anchor="middle" x="0" y="433" transform="translate(413.75,0)" style="font-family: 'Open Sans', verdana, arial, sans-serif; font-size: 12px; fill: rgb(42, 63, 95); fill-opacity: 1; white-space: pre; opacity: 1;">simplified_eff_cnn</text></g></g><g class="yaxislayer-above"><g class="ytick"><text text-anchor="end" x="79" y="4.199999999999999" transform="translate(0,406.15)" style="font-family: 'Open Sans', verdana, arial, sans-serif; font-size: 12px; fill: rgb(42, 63, 95); fill-opacity: 1; white-space: pre; opacity: 1;">0</text></g><g class="ytick"><text text-anchor="end" x="79" y="4.199999999999999" style="font-family: 'Open Sans', verdana, arial, sans-serif; font-size: 12px; fill: rgb(42, 63, 95); fill-opacity: 1; white-space: pre; opacity: 1;" transform="translate(0,355.93)">2k</text></g><g class="ytick"><text text-anchor="end" x="79" y="4.199999999999999" style="font-family: 'Open Sans', verdana, arial, sans-serif; font-size: 12px; fill: rgb(42, 63, 95); fill-opacity: 1; white-space: pre; opacity: 1;" transform="translate(0,305.7)">4k</text></g><g class="ytick"><text text-anchor="end" x="79" y="4.199999999999999" style="font-family: 'Open Sans', verdana, arial, sans-serif; font-size: 12px; fill: rgb(42, 63, 95); fill-opacity: 1; white-space: pre; opacity: 1;" transform="translate(0,255.48)">6k</text></g><g class="ytick"><text text-anchor="end" x="79" y="4.199999999999999" style="font-family: 'Open Sans', verdana, arial, sans-serif; font-size: 12px; fill: rgb(42, 63, 95); fill-opacity: 1; white-space: pre; opacity: 1;" transform="translate(0,205.25)">8k</text></g><g class="ytick"><text text-anchor="end" x="79" y="4.199999999999999" style="font-family: 'Open Sans', verdana, arial, sans-serif; font-size: 12px; fill: rgb(42, 63, 95); fill-opacity: 1; white-space: pre; opacity: 1;" transform="translate(0,155.03)">10k</text></g><g class="ytick"><text text-anchor="end" x="79" y="4.199999999999999" style="font-family: 'Open Sans', verdana, arial, sans-serif; font-size: 12px; fill: rgb(42, 63, 95); fill-opacity: 1; white-space: pre; opacity: 1;" transform="translate(0,104.8)">12k</text></g></g><g class="overaxes-above"/></g></g><g class="polarlayer"/><g class="ternarylayer"/><g class="geolayer"/><g class="funnelarealayer"/><g class="pielayer"/><g class="iciclelayer"/><g class="treemaplayer"/><g class="sunburstlayer"/><g class="glimages"/><defs id="topdefs-4adaba"><g class="clips"/><clipPath id="legend4adaba"><rect width="155" height="67" x="0" y="0"/></clipPath></defs><g class="layer-above"><g class="imagelayer"/><g class="shapelayer"/></g><g class="infolayer"><g class="legend" pointer-events="all" transform="translate(532.88,100)"><rect class="bg" shape-rendering="crispEdges" style="stroke: rgb(68, 68, 68); stroke-opacity: 1; fill: rgb(255, 255, 255); fill-opacity: 1; stroke-width: 0px;" width="155" height="67" x="0" y="0"/><g class="scrollbox" transform="" clip-path="url(#legend4adaba)"><text class="legendtitletext" text-anchor="start" x="2" y="18.2" style="font-family: 'Open Sans', verdana, arial, sans-serif; font-size: 14px; fill: rgb(42, 63, 95); fill-opacity: 1; white-space: pre;">model</text><g class="groups" transform=""><g class="traces" transform="translate(0,32.7)" style="opacity: 1;"><text class="legendtext" text-anchor="start" x="40" y="4.680000000000001" style="font-family: 'Open Sans', verdana, arial, sans-serif; font-size: 12px; fill: rgb(42, 63, 95); fill-opacity: 1; white-space: pre;">eff_cnn</text><g class="layers" style="opacity: 1;"><g class="legendfill"/><g class="legendlines"/><g class="legendsymbols"><g class="legendpoints"><path class="legendbox" d="M6,6H-6V-6H6Z" transform="translate(20,0)" style="stroke-width: 2px; fill: rgb(99, 110, 250); fill-opacity: 0.5; stroke: rgb(99, 110, 250); stroke-opacity: 1;"/></g></g></g><rect class="legendtoggle" x="0" y="-9.5" width="149.703125" height="19" style="fill: rgb(0, 0, 0); fill-opacity: 0;"/></g></g><g class="groups" transform=""><g class="traces" transform="translate(0,51.7)" style="opacity: 1;"><text class="legendtext" text-anchor="start" x="40" y="4.680000000000001" style="font-family: 'Open Sans', verdana, arial, sans-serif; font-size: 12px; fill: rgb(42, 63, 95); fill-opacity: 1; white-space: pre;">simplified_eff_cnn</text><g class="layers" style="opacity: 1;"><g class="legendfill"/><g class="legendlines"/><g class="legendsymbols"><g class="legendpoints"><path class="legendbox" d="M6,6H-6V-6H6Z" transform="translate(20,0)" style="stroke-width: 2px; fill: rgb(239, 85, 59); fill-opacity: 0.5; stroke: rgb(239, 85, 59); stroke-opacity: 1;"/></g></g></g><rect class="legendtoggle" x="0" y="-9.5" width="149.703125" height="19" style="fill: rgb(0, 0, 0); fill-opacity: 0;"/></g></g></g><rect class="scrollbar" rx="20" ry="3" width="0" height="0" style="fill: rgb(128, 139, 164); fill-opacity: 1;" x="0" y="0"/></g><g class="g-gtitle"><text class="gtitle" x="35" y="50" text-anchor="start" dy="0em" style="font-family: 'Open Sans', verdana, arial, sans-serif; font-size: 17px; fill: rgb(42, 63, 95); opacity: 1; font-weight: normal; white-space: pre;">Distribution of min traces needed for average rank to be zero</text></g><g class="g-xtitle"><text class="xtitle" x="302" y="460.8" text-anchor="middle" style="font-family: 'Open Sans', verdana, arial, sans-serif; font-size: 14px; fill: rgb(42, 63, 95); opacity: 1; font-weight: normal; white-space: pre;">model</text></g><g class="g-ytitle"><text class="ytitle" transform="rotate(-90,31.840625000000003,260)" x="31.840625000000003" y="260" text-anchor="middle" style="font-family: 'Open Sans', verdana, arial, sans-serif; font-size: 14px; fill: rgb(42, 63, 95); opacity: 1; font-weight: normal; white-space: pre;">min traces needed for average rank to be zero</text></g><g class="annotation" data-index="0" style="opacity: 1;"><g class="annotation-text-g" transform="rotate(0,183.25,125)"><g class="cursor-pointer" transform="translate(136,100)"><rect class="bg" x="0.5" y="0.5" width="93" height="49" style="stroke-width: 1px; stroke: rgb(255, 0, 0); stroke-opacity: 1; fill: rgb(0, 0, 0); fill-opacity: 0;"/><text class="annotation-text" text-anchor="middle" x="46.84375" y="14" style="font-family: 'Open Sans', verdana, arial, sans-serif; font-size: 12px; fill: rgb(42, 63, 95); fill-opacity: 1; white-space: pre;"><tspan class="line" dy="0em" x="46.84375" y="14"> 4.00 % failed </tspan><tspan class="line" dy="1.3em" x="46.84375" y="14">min: 280</tspan><tspan class="line" dy="2.6em" x="46.84375" y="14">max: inf</tspan></text></g></g><g class="annotation-arrow-g" style="opacity: 1;"><path d="M191.41666666666666,149.5L193.25,155" style="stroke-width: 1px; stroke: rgb(42, 63, 95); stroke-opacity: 1; stroke-dasharray: 0px, 0px, 5.79751px, 5.79751px;"/></g></g><g class="annotation" data-index="1" style="opacity: 1;"><g class="annotation-text-g" transform="rotate(0,403.75,125)"><g class="cursor-pointer" transform="translate(367,100)"><rect class="bg" x="0.5" y="0.5" width="72" height="49" style="stroke-width: 1px; stroke: rgb(0, 128, 0); stroke-opacity: 1; fill: rgb(0, 0, 0); fill-opacity: 0;"/><text class="annotation-text" text-anchor="middle" x="36.640625" y="14" style="font-family: 'Open Sans', verdana, arial, sans-serif; font-size: 12px; fill: rgb(42, 63, 95); fill-opacity: 1; white-space: pre;"><tspan class="line" dy="0em" x="36.640625" y="14"> All passed </tspan><tspan class="line" dy="1.3em" x="36.640625" y="14">min: 178</tspan><tspan class="line" dy="2.6em" x="36.640625" y="14">max: 391</tspan></text></g></g><g class="annotation-arrow-g" style="opacity: 1;"><path d="M411.9166666666667,149.5L413.75,155" style="stroke-width: 1px; stroke: rgb(42, 63, 95); stroke-opacity: 1; stroke-dasharray: 0px, 0px, 5.79751px, 5.79751px;"/></g></g></g></svg>