<svg class="main-svg" xmlns="http://www.w3.org/2000/svg" xmlns:xlink="http://www.w3.org/1999/xlink" width="700" height="500" style="" viewBox="0 0 700 500"><rect x="0" y="0" width="700" height="500" style="fill: rgb(255, 255, 255); fill-opacity: 1;"/><defs id="defs-a74624"><g class="clips"><clipPath id="clipa74624xyplot" class="plotclip"><rect width="444" height="320"/></clipPath><clipPath class="axesclip" id="clipa74624x"><rect x="80" y="0" width="444" height="500"/></clipPath><clipPath class="axesclip" id="clipa74624y"><rect x="0" y="100" width="700" height="320"/></clipPath><clipPath class="axesclip" id="clipa74624xy"><rect x="80" y="100" width="444" height="320"/></clipPath></g><g class="gradients"/><g class="patterns"/></defs><g class="bglayer"><rect class="bg" x="80" y="100" width="444" height="320" style="fill: rgb(229, 236, 246); fill-opacity: 1; stroke-width: 0;"/></g><g class="layer-below"><g class="imagelayer"/><g class="shapelayer"/></g><g class="cartesianlayer"><g class="subplot xy"><g class="layer-subplot"><g class="shapelayer"/><g class="imagelayer"/></g><g class="gridlayer"><g class="x"/><g class="y"><path class="ygrid crisp" transform="translate(0,356.93)" d="M80,0h444" style="stroke: rgb(255, 255, 255); stroke-opacity: 1; stroke-width: 1px;"/><path class="ygrid crisp" transform="translate(0,306.4)" d="M80,0h444" style="stroke: rgb(255, 255, 255); stroke-opacity: 1; stroke-width: 1px;"/><path class="ygrid crisp" transform="translate(0,255.88)" d="M80,0h444" style="stroke: rgb(255, 255, 255); stroke-opacity: 1; stroke-width: 1px;"/><path class="ygrid crisp" transform="translate(0,205.35)" d="M80,0h444" style="stroke: rgb(255, 255, 255); stroke-opacity: 1; stroke-width: 1px;"/><path class="ygrid crisp" transform="translate(0,154.82)" d="M80,0h444" style="stroke: rgb(255, 255, 255); stroke-opacity: 1; stroke-width: 1px;"/><path class="ygrid crisp" transform="translate(0,104.3)" d="M80,0h444" style="stroke: rgb(255, 255, 255); stroke-opacity: 1; stroke-width: 1px;"/></g></g><g class="zerolinelayer"><path class="yzl zl crisp" transform="translate(0,407.46)" d="M80,0h444" style="stroke: rgb(255, 255, 255); stroke-opacity: 1; stroke-width: 2px;"/></g><path class="xlines-below"/><path class="ylines-below"/><g class="overlines-below"/><g class="xaxislayer-below"/><g class="yaxislayer-below"/><g class="overaxes-below"/><g class="plot" transform="translate(80,100)" clip-path="url(#clipa74624xyplot)"><g class="violinlayer mlayer"><g class="trace violins" style="opacity: 1;"><path class="violin" d="M281.5,304Q281.59,303.46 281.66,303.19C281.73,302.92 281.82,302.64 281.93,302.37C282.04,302.09 282.18,301.82 282.34,301.56C282.51,301.28 282.7,301.02 282.91,300.75C283.12,300.47 283.36,300.2 283.6,299.93C283.84,299.66 284.11,299.39 284.36,299.12C284.61,298.85 284.86,298.59 285.08,298.31C285.29,298.04 285.5,297.77 285.66,297.49C285.81,297.23 285.95,296.96 286.03,296.68C286.11,296.41 286.16,296.13 286.15,295.86C286.14,295.59 286.09,295.31 286,295.05C285.91,294.77 285.77,294.5 285.61,294.24C285.44,293.96 285.22,293.69 285,293.42C284.77,293.14 284.52,292.88 284.27,292.61C284.02,292.34 283.75,292.07 283.51,291.8C283.27,291.53 283.03,291.26 282.82,290.98C282.62,290.71 282.42,290.45 282.26,290.17C282.1,289.91 281.97,289.64 281.86,289.36C281.75,289.09 281.67,288.81 281.61,288.54C281.55,288.27 281.51,288 281.48,287.73C281.45,287.46 281.43,287.19 281.41,286.92C281.39,286.65 281.39,286.37 281.38,286.1C281.37,285.83 281.36,285.56 281.36,285.29C281.36,285.02 281.36,284.74 281.36,284.47C281.36,284.2 281.36,283.93 281.36,283.66C281.36,283.39 281.36,283.12 281.36,282.85C281.36,282.58 281.36,282.3 281.36,282.03C281.36,281.76 281.36,281.49 281.36,281.22C281.36,280.95 281.36,280.68 281.36,280.41C281.36,280.14 281.36,279.86 281.36,279.59C281.36,279.32 281.36,279.05 281.36,278.78C281.36,278.51 281.36,278.24 281.36,277.97C281.36,277.7 281.36,277.42 281.36,277.15C281.36,276.88 281.36,276.61 281.36,276.34C281.36,276.07 281.36,275.8 281.36,275.53C281.36,275.26 281.36,274.98 281.36,274.71C281.36,274.44 281.36,274.17 281.36,273.9C281.36,273.63 281.36,273.35 281.36,273.08C281.36,272.81 281.36,272.54 281.36,272.27C281.36,272 281.36,271.73 281.36,271.46C281.36,271.19 281.36,270.91 281.36,270.64C281.36,270.37 281.36,270.1 281.36,269.83C281.36,269.56 281.36,269.29 281.36,269.02C281.36,268.75 281.36,268.47 281.36,268.2C281.36,267.93 281.36,267.66 281.36,267.39C281.36,267.12 281.36,266.85 281.36,266.58C281.36,266.31 281.36,266.03 281.36,265.76C281.36,265.49 281.36,265.22 281.36,264.95C281.36,264.68 281.36,264.41 281.36,264.14C281.36,263.87 281.36,263.59 281.36,263.32C281.36,263.05 281.36,262.78 281.36,262.51C281.36,262.24 281.36,261.96 281.36,261.69C281.36,261.42 281.36,261.15 281.36,260.88C281.36,260.61 281.36,260.34 281.36,260.07C281.36,259.8 281.36,259.52 281.36,259.25C281.36,258.98 281.36,258.71 281.36,258.44C281.36,258.17 281.36,257.9 281.36,257.63C281.36,257.36 281.36,257.08 281.36,256.81C281.36,256.54 281.36,256.27 281.36,256C281.36,255.73 281.36,255.46 281.36,255.19C281.36,254.92 281.36,254.64 281.36,254.37C281.36,254.1 281.36,253.83 281.36,253.56C281.36,253.29 281.36,253.02 281.36,252.75C281.36,252.48 281.36,252.2 281.36,251.93C281.36,251.66 281.36,251.39 281.36,251.12C281.36,250.85 281.36,250.58 281.36,250.31C281.36,250.04 281.36,249.76 281.36,249.49C281.36,249.22 281.36,248.95 281.36,248.68C281.36,248.41 281.36,248.13 281.36,247.86C281.36,247.59 281.36,247.32 281.36,247.05C281.36,246.78 281.36,246.51 281.36,246.24C281.36,245.97 281.36,245.69 281.36,245.42C281.36,245.15 281.36,244.88 281.36,244.61C281.36,244.34 281.36,244.07 281.36,243.8C281.36,243.53 281.36,243.25 281.36,242.98C281.36,242.71 281.36,242.44 281.36,242.17C281.36,241.9 281.36,241.63 281.36,241.36C281.36,241.09 281.36,240.81 281.36,240.54C281.36,240.27 281.36,240 281.36,239.73C281.36,239.46 281.36,239.19 281.36,238.92C281.36,238.65 281.36,238.37 281.36,238.1C281.36,237.83 281.36,237.56 281.36,237.29C281.36,237.02 281.36,236.74 281.36,236.47C281.36,236.2 281.36,235.93 281.36,235.66C281.36,235.39 281.36,235.12 281.36,234.85C281.36,234.58 281.36,234.3 281.36,234.03C281.36,233.76 281.36,233.49 281.36,233.22C281.36,232.95 281.36,232.68 281.36,232.41C281.36,232.14 281.36,231.86 281.36,231.59C281.36,231.32 281.36,231.05 281.36,230.78C281.36,230.51 281.36,230.24 281.36,229.97C281.36,229.7 281.36,229.42 281.36,229.15C281.36,228.88 281.36,228.61 281.36,228.34C281.36,228.07 281.36,227.8 281.36,227.53C281.36,227.26 281.36,226.98 281.36,226.71C281.36,226.44 281.36,226.17 281.36,225.9C281.36,225.63 281.36,225.35 281.36,225.08C281.36,224.81 281.36,224.54 281.36,224.27C281.36,224 281.36,223.73 281.36,223.46C281.36,223.19 281.36,222.91 281.36,222.64C281.36,222.37 281.36,222.1 281.36,221.83C281.36,221.56 281.36,221.29 281.36,221.02C281.36,220.75 281.36,220.47 281.36,220.2C281.36,219.93 281.36,219.66 281.36,219.39C281.36,219.12 281.36,218.85 281.36,218.58C281.36,218.31 281.36,218.03 281.36,217.76C281.36,217.49 281.36,217.22 281.36,216.95C281.36,216.68 281.36,216.41 281.36,216.14C281.36,215.87 281.36,215.59 281.36,215.32C281.36,215.05 281.36,214.78 281.36,214.51C281.36,214.24 281.36,213.96 281.36,213.69C281.36,213.42 281.36,213.15 281.36,212.88C281.36,212.61 281.36,212.34 281.36,212.07C281.36,211.8 281.36,211.52 281.36,211.25C281.36,210.98 281.36,210.71 281.36,210.44C281.36,210.17 281.36,209.9 281.36,209.63C281.36,209.36 281.36,209.08 281.36,208.81C281.36,208.54 281.36,208.27 281.36,208C281.36,207.73 281.36,207.46 281.36,207.19C281.36,206.92 281.36,206.64 281.36,206.37C281.36,206.1 281.36,205.83 281.36,205.56C281.36,205.29 281.36,205.02 281.36,204.75C281.36,204.48 281.36,204.2 281.36,203.93C281.36,203.66 281.36,203.39 281.36,203.12C281.36,202.85 281.36,202.57 281.36,202.3C281.36,202.03 281.36,201.76 281.36,201.49C281.36,201.22 281.36,200.95 281.36,200.68C281.36,200.41 281.36,200.13 281.36,199.86C281.36,199.59 281.36,199.32 281.36,199.05C281.36,198.78 281.36,198.51 281.36,198.24C281.36,197.97 281.36,197.69 281.36,197.42C281.36,197.15 281.36,196.88 281.36,196.61C281.36,196.34 281.36,196.07 281.36,195.8C281.36,195.53 281.36,195.25 281.36,194.98C281.36,194.71 281.36,194.44 281.36,194.17C281.36,193.9 281.36,193.63 281.36,193.36C281.36,193.09 281.36,192.81 281.36,192.54C281.36,192.27 281.36,192 281.36,191.73C281.36,191.46 281.36,191.19 281.36,190.92C281.36,190.65 281.36,190.37 281.36,190.1C281.36,189.83 281.36,189.56 281.36,189.29C281.36,189.02 281.36,188.74 281.36,188.47C281.36,188.2 281.36,187.93 281.36,187.66C281.36,187.39 281.36,187.12 281.36,186.85C281.36,186.58 281.36,186.3 281.36,186.03C281.36,185.76 281.36,185.49 281.36,185.22C281.36,184.95 281.36,184.68 281.36,184.41C281.36,184.14 281.36,183.86 281.36,183.59C281.36,183.32 281.36,183.05 281.36,182.78C281.36,182.51 281.36,182.24 281.36,181.97C281.36,181.7 281.36,181.42 281.36,181.15C281.36,180.88 281.36,180.61 281.36,180.34C281.36,180.07 281.36,179.8 281.36,179.53C281.36,179.26 281.36,178.98 281.36,178.71C281.36,178.44 281.36,178.17 281.36,177.9C281.36,177.63 281.36,177.35 281.36,177.08C281.36,176.81 281.36,176.54 281.36,176.27C281.36,176 281.36,175.73 281.36,175.46C281.36,175.19 281.36,174.91 281.36,174.64C281.36,174.37 281.36,174.1 281.36,173.83C281.36,173.56 281.36,173.29 281.36,173.02C281.36,172.75 281.36,172.47 281.36,172.2C281.36,171.93 281.36,171.66 281.36,171.39C281.36,171.12 281.36,170.85 281.36,170.58C281.36,170.31 281.36,170.03 281.36,169.76C281.36,169.49 281.36,169.22 281.36,168.95C281.36,168.68 281.36,168.41 281.36,168.14C281.36,167.87 281.36,167.59 281.36,167.32C281.36,167.05 281.36,166.78 281.36,166.51C281.36,166.24 281.36,165.96 281.36,165.69C281.36,165.42 281.36,165.15 281.36,164.88C281.36,164.61 281.36,164.34 281.36,164.07C281.36,163.8 281.36,163.52 281.36,163.25C281.36,162.98 281.36,162.71 281.36,162.44C281.36,162.17 281.36,161.9 281.36,161.63C281.36,161.36 281.36,161.08 281.36,160.81C281.36,160.54 281.36,160.27 281.36,160C281.36,159.73 281.36,159.46 281.36,159.19C281.36,158.92 281.36,158.64 281.36,158.37C281.36,158.1 281.36,157.83 281.36,157.56C281.36,157.29 281.36,157.02 281.36,156.75C281.36,156.48 281.36,156.2 281.36,155.93C281.36,155.66 281.36,155.39 281.36,155.12C281.36,154.85 281.36,154.57 281.36,154.3C281.36,154.03 281.36,153.76 281.36,153.49C281.36,153.22 281.36,152.95 281.36,152.68C281.36,152.41 281.36,152.13 281.36,151.86C281.36,151.59 281.36,151.32 281.36,151.05C281.36,150.78 281.36,150.51 281.36,150.24C281.36,149.97 281.36,149.69 281.36,149.42C281.36,149.15 281.36,148.88 281.36,148.61C281.36,148.34 281.36,148.07 281.36,147.8C281.36,147.53 281.36,147.25 281.36,146.98C281.36,146.71 281.36,146.44 281.36,146.17C281.36,145.9 281.36,145.63 281.36,145.36C281.36,145.09 281.36,144.81 281.36,144.54C281.36,144.27 281.36,144 281.36,143.73C281.36,143.46 281.36,143.19 281.36,142.92C281.36,142.65 281.36,142.37 281.36,142.1C281.36,141.83 281.36,141.56 281.36,141.29C281.36,141.02 281.36,140.74 281.36,140.47C281.36,140.2 281.36,139.93 281.36,139.66C281.36,139.39 281.36,139.12 281.36,138.85C281.36,138.58 281.36,138.3 281.36,138.03C281.36,137.76 281.36,137.49 281.36,137.22C281.36,136.95 281.36,136.68 281.36,136.41C281.36,136.14 281.36,135.86 281.36,135.59C281.36,135.32 281.36,135.05 281.36,134.78C281.36,134.51 281.36,134.24 281.36,133.97C281.36,133.7 281.36,133.42 281.36,133.15C281.36,132.88 281.36,132.61 281.36,132.34C281.36,132.07 281.36,131.8 281.36,131.53C281.36,131.26 281.36,130.98 281.36,130.71C281.36,130.44 281.36,130.17 281.36,129.9C281.36,129.63 281.36,129.35 281.36,129.08C281.36,128.81 281.36,128.54 281.36,128.27C281.36,128 281.36,127.73 281.36,127.46C281.36,127.19 281.36,126.91 281.36,126.64C281.36,126.37 281.36,126.1 281.36,125.83C281.36,125.56 281.36,125.29 281.36,125.02C281.36,124.75 281.36,124.47 281.36,124.2C281.36,123.93 281.36,123.66 281.36,123.39C281.36,123.12 281.36,122.85 281.36,122.58C281.36,122.31 281.36,122.03 281.36,121.76C281.36,121.49 281.36,121.22 281.36,120.95C281.36,120.68 281.36,120.41 281.36,120.14C281.36,119.87 281.36,119.59 281.36,119.32C281.36,119.05 281.36,118.78 281.36,118.51C281.36,118.24 281.36,117.96 281.36,117.69C281.36,117.42 281.36,117.15 281.36,116.88C281.36,116.61 281.36,116.34 281.36,116.07C281.36,115.8 281.36,115.52 281.36,115.25C281.36,114.98 281.36,114.71 281.36,114.44C281.36,114.17 281.36,113.9 281.36,113.63C281.36,113.36 281.36,113.08 281.36,112.81C281.36,112.54 281.36,112.27 281.36,112C281.36,111.73 281.36,111.46 281.36,111.19C281.36,110.92 281.36,110.64 281.36,110.37C281.36,110.1 281.36,109.83 281.36,109.56C281.36,109.29 281.36,109.02 281.36,108.75C281.36,108.48 281.36,108.2 281.36,107.93C281.36,107.66 281.36,107.39 281.36,107.12C281.36,106.85 281.36,106.57 281.36,106.3C281.36,106.03 281.36,105.76 281.36,105.49C281.36,105.22 281.36,104.95 281.36,104.68C281.36,104.41 281.36,104.13 281.36,103.86C281.36,103.59 281.36,103.32 281.36,103.05C281.36,102.78 281.36,102.51 281.36,102.24C281.36,101.97 281.36,101.69 281.36,101.42C281.36,101.15 281.36,100.88 281.36,100.61C281.36,100.34 281.36,100.07 281.36,99.8C281.36,99.53 281.36,99.25 281.36,98.98C281.36,98.71 281.36,98.44 281.36,98.17C281.36,97.9 281.36,97.63 281.36,97.36C281.36,97.09 281.36,96.81 281.36,96.54C281.36,96.27 281.36,96 281.36,95.73C281.36,95.46 281.36,95.18 281.36,94.91C281.36,94.64 281.36,94.37 281.36,94.1C281.36,93.83 281.36,93.56 281.36,93.29C281.36,93.02 281.36,92.74 281.36,92.47C281.36,92.2 281.36,91.93 281.36,91.66C281.36,91.39 281.36,91.12 281.36,90.85C281.36,90.58 281.36,90.3 281.36,90.03C281.36,89.76 281.36,89.49 281.36,89.22C281.36,88.95 281.36,88.68 281.36,88.41C281.36,88.14 281.36,87.86 281.36,87.59C281.36,87.32 281.36,87.05 281.36,86.78C281.36,86.51 281.36,86.24 281.36,85.97C281.36,85.7 281.36,85.42 281.36,85.15C281.36,84.88 281.36,84.61 281.36,84.34C281.36,84.07 281.36,83.8 281.36,83.53C281.36,83.26 281.36,82.98 281.36,82.71C281.36,82.44 281.36,82.17 281.36,81.9C281.36,81.63 281.36,81.35 281.36,81.08C281.36,80.81 281.36,80.54 281.36,80.27C281.36,80 281.36,79.73 281.36,79.46C281.36,79.19 281.36,78.91 281.36,78.64C281.36,78.37 281.36,78.1 281.36,77.83C281.36,77.56 281.36,77.29 281.36,77.02C281.36,76.75 281.36,76.47 281.36,76.2C281.36,75.93 281.36,75.66 281.36,75.39C281.36,75.12 281.36,74.85 281.36,74.58C281.36,74.31 281.36,74.03 281.36,73.76C281.36,73.49 281.36,73.22 281.36,72.95C281.36,72.68 281.36,72.41 281.36,72.14C281.36,71.87 281.36,71.59 281.36,71.32C281.36,71.05 281.36,70.78 281.36,70.51C281.36,70.24 281.36,69.96 281.36,69.69C281.36,69.42 281.36,69.15 281.36,68.88C281.36,68.61 281.36,68.34 281.36,68.07C281.36,67.8 281.36,67.52 281.36,67.25C281.36,66.98 281.36,66.71 281.36,66.44C281.36,66.17 281.36,65.9 281.36,65.63C281.36,65.36 281.36,65.08 281.36,64.81C281.36,64.54 281.36,64.27 281.36,64C281.36,63.73 281.36,63.46 281.36,63.19C281.36,62.92 281.36,62.64 281.36,62.37C281.36,62.1 281.37,61.83 281.37,61.56C281.37,61.29 281.38,61.02 281.38,60.75C281.39,60.48 281.39,60.2 281.4,59.93C281.41,59.66 281.42,59.39 281.44,59.12C281.46,58.85 281.48,58.57 281.5,58.3C281.52,58.03 281.55,57.76 281.57,57.49C281.59,57.22 281.62,56.95 281.64,56.68C281.66,56.41 281.68,56.13 281.69,55.86C281.7,55.59 281.71,55.32 281.71,55.05C281.71,54.78 281.7,54.51 281.69,54.24C281.68,53.97 281.66,53.69 281.64,53.42C281.62,53.15 281.59,52.88 281.57,52.61C281.55,52.34 281.52,52.07 281.5,51.8C281.48,51.53 281.46,51.25 281.44,50.98Q281.42,50.71 281.4,50.17L281.31,50.17Q281.29,50.71 281.27,50.98C281.25,51.25 281.23,51.53 281.21,51.8C281.19,52.07 281.17,52.34 281.15,52.61C281.13,52.88 281.1,53.15 281.08,53.42C281.06,53.69 281.04,53.97 281.03,54.24C281.02,54.51 281.01,54.78 281.01,55.05C281.01,55.32 281.02,55.59 281.03,55.86C281.04,56.13 281.06,56.41 281.08,56.68C281.1,56.95 281.13,57.22 281.15,57.49C281.17,57.76 281.19,58.03 281.21,58.3C281.23,58.57 281.25,58.85 281.27,59.12C281.29,59.39 281.3,59.66 281.31,59.93C281.32,60.2 281.32,60.48 281.33,60.75C281.34,61.02 281.35,61.29 281.35,61.56C281.35,61.83 281.35,62.1 281.35,62.37C281.35,62.64 281.36,62.92 281.36,63.19C281.36,63.46 281.36,63.73 281.36,64C281.36,64.27 281.36,64.54 281.36,64.81C281.36,65.08 281.36,65.36 281.36,65.63C281.36,65.9 281.36,66.17 281.36,66.44C281.36,66.71 281.36,66.98 281.36,67.25C281.36,67.52 281.36,67.8 281.36,68.07C281.36,68.34 281.36,68.61 281.36,68.88C281.36,69.15 281.36,69.42 281.36,69.69C281.36,69.96 281.36,70.24 281.36,70.51C281.36,70.78 281.36,71.05 281.36,71.32C281.36,71.59 281.36,71.87 281.36,72.14C281.36,72.41 281.36,72.68 281.36,72.95C281.36,73.22 281.36,73.49 281.36,73.76C281.36,74.03 281.36,74.31 281.36,74.58C281.36,74.85 281.36,75.12 281.36,75.39C281.36,75.66 281.36,75.93 281.36,76.2C281.36,76.47 281.36,76.75 281.36,77.02C281.36,77.29 281.36,77.56 281.36,77.83C281.36,78.1 281.36,78.37 281.36,78.64C281.36,78.91 281.36,79.19 281.36,79.46C281.36,79.73 281.36,80 281.36,80.27C281.36,80.54 281.36,80.81 281.36,81.08C281.36,81.35 281.36,81.63 281.36,81.9C281.36,82.17 281.36,82.44 281.36,82.71C281.36,82.98 281.36,83.26 281.36,83.53C281.36,83.8 281.36,84.07 281.36,84.34C281.36,84.61 281.36,84.88 281.36,85.15C281.36,85.42 281.36,85.7 281.36,85.97C281.36,86.24 281.36,86.51 281.36,86.78C281.36,87.05 281.36,87.32 281.36,87.59C281.36,87.86 281.36,88.14 281.36,88.41C281.36,88.68 281.36,88.95 281.36,89.22C281.36,89.49 281.36,89.76 281.36,90.03C281.36,90.3 281.36,90.58 281.36,90.85C281.36,91.12 281.36,91.39 281.36,91.66C281.36,91.93 281.36,92.2 281.36,92.47C281.36,92.74 281.36,93.02 281.36,93.29C281.36,93.56 281.36,93.83 281.36,94.1C281.36,94.37 281.36,94.64 281.36,94.91C281.36,95.18 281.36,95.46 281.36,95.73C281.36,96 281.36,96.27 281.36,96.54C281.36,96.81 281.36,97.09 281.36,97.36C281.36,97.63 281.36,97.9 281.36,98.17C281.36,98.44 281.36,98.71 281.36,98.98C281.36,99.25 281.36,99.53 281.36,99.8C281.36,100.07 281.36,100.34 281.36,100.61C281.36,100.88 281.36,101.15 281.36,101.42C281.36,101.69 281.36,101.97 281.36,102.24C281.36,102.51 281.36,102.78 281.36,103.05C281.36,103.32 281.36,103.59 281.36,103.86C281.36,104.13 281.36,104.41 281.36,104.68C281.36,104.95 281.36,105.22 281.36,105.49C281.36,105.76 281.36,106.03 281.36,106.3C281.36,106.57 281.36,106.85 281.36,107.12C281.36,107.39 281.36,107.66 281.36,107.93C281.36,108.2 281.36,108.48 281.36,108.75C281.36,109.02 281.36,109.29 281.36,109.56C281.36,109.83 281.36,110.1 281.36,110.37C281.36,110.64 281.36,110.92 281.36,111.19C281.36,111.46 281.36,111.73 281.36,112C281.36,112.27 281.36,112.54 281.36,112.81C281.36,113.08 281.36,113.36 281.36,113.63C281.36,113.9 281.36,114.17 281.36,114.44C281.36,114.71 281.36,114.98 281.36,115.25C281.36,115.52 281.36,115.8 281.36,116.07C281.36,116.34 281.36,116.61 281.36,116.88C281.36,117.15 281.36,117.42 281.36,117.69C281.36,117.96 281.36,118.24 281.36,118.51C281.36,118.78 281.36,119.05 281.36,119.32C281.36,119.59 281.36,119.87 281.36,120.14C281.36,120.41 281.36,120.68 281.36,120.95C281.36,121.22 281.36,121.49 281.36,121.76C281.36,122.03 281.36,122.31 281.36,122.58C281.36,122.85 281.36,123.12 281.36,123.39C281.36,123.66 281.36,123.93 281.36,124.2C281.36,124.47 281.36,124.75 281.36,125.02C281.36,125.29 281.36,125.56 281.36,125.83C281.36,126.1 281.36,126.37 281.36,126.64C281.36,126.91 281.36,127.19 281.36,127.46C281.36,127.73 281.36,128 281.36,128.27C281.36,128.54 281.36,128.81 281.36,129.08C281.36,129.35 281.36,129.63 281.36,129.9C281.36,130.17 281.36,130.44 281.36,130.71C281.36,130.98 281.36,131.26 281.36,131.53C281.36,131.8 281.36,132.07 281.36,132.34C281.36,132.61 281.36,132.88 281.36,133.15C281.36,133.42 281.36,133.7 281.36,133.97C281.36,134.24 281.36,134.51 281.36,134.78C281.36,135.05 281.36,135.32 281.36,135.59C281.36,135.86 281.36,136.14 281.36,136.41C281.36,136.68 281.36,136.95 281.36,137.22C281.36,137.49 281.36,137.76 281.36,138.03C281.36,138.3 281.36,138.58 281.36,138.85C281.36,139.12 281.36,139.39 281.36,139.66C281.36,139.93 281.36,140.2 281.36,140.47C281.36,140.74 281.36,141.02 281.36,141.29C281.36,141.56 281.36,141.83 281.36,142.1C281.36,142.37 281.36,142.65 281.36,142.92C281.36,143.19 281.36,143.46 281.36,143.73C281.36,144 281.36,144.27 281.36,144.54C281.36,144.81 281.36,145.09 281.36,145.36C281.36,145.63 281.36,145.9 281.36,146.17C281.36,146.44 281.36,146.71 281.36,146.98C281.36,147.25 281.36,147.53 281.36,147.8C281.36,148.07 281.36,148.34 281.36,148.61C281.36,148.88 281.36,149.15 281.36,149.42C281.36,149.69 281.36,149.97 281.36,150.24C281.36,150.51 281.36,150.78 281.36,151.05C281.36,151.32 281.36,151.59 281.36,151.86C281.36,152.13 281.36,152.41 281.36,152.68C281.36,152.95 281.36,153.22 281.36,153.49C281.36,153.76 281.36,154.03 281.36,154.3C281.36,154.57 281.36,154.85 281.36,155.12C281.36,155.39 281.36,155.66 281.36,155.93C281.36,156.2 281.36,156.48 281.36,156.75C281.36,157.02 281.36,157.29 281.36,157.56C281.36,157.83 281.36,158.1 281.36,158.37C281.36,158.64 281.36,158.92 281.36,159.19C281.36,159.46 281.36,159.73 281.36,160C281.36,160.27 281.36,160.54 281.36,160.81C281.36,161.08 281.36,161.36 281.36,161.63C281.36,161.9 281.36,162.17 281.36,162.44C281.36,162.71 281.36,162.98 281.36,163.25C281.36,163.52 281.36,163.8 281.36,164.07C281.36,164.34 281.36,164.61 281.36,164.88C281.36,165.15 281.36,165.42 281.36,165.69C281.36,165.96 281.36,166.24 281.36,166.51C281.36,166.78 281.36,167.05 281.36,167.32C281.36,167.59 281.36,167.87 281.36,168.14C281.36,168.41 281.36,168.68 281.36,168.95C281.36,169.22 281.36,169.49 281.36,169.76C281.36,170.03 281.36,170.31 281.36,170.58C281.36,170.85 281.36,171.12 281.36,171.39C281.36,171.66 281.36,171.93 281.36,172.2C281.36,172.47 281.36,172.75 281.36,173.02C281.36,173.29 281.36,173.56 281.36,173.83C281.36,174.1 281.36,174.37 281.36,174.64C281.36,174.91 281.36,175.19 281.36,175.46C281.36,175.73 281.36,176 281.36,176.27C281.36,176.54 281.36,176.81 281.36,177.08C281.36,177.35 281.36,177.63 281.36,177.9C281.36,178.17 281.36,178.44 281.36,178.71C281.36,178.98 281.36,179.26 281.36,179.53C281.36,179.8 281.36,180.07 281.36,180.34C281.36,180.61 281.36,180.88 281.36,181.15C281.36,181.42 281.36,181.7 281.36,181.97C281.36,182.24 281.36,182.51 281.36,182.78C281.36,183.05 281.36,183.32 281.36,183.59C281.36,183.86 281.36,184.14 281.36,184.41C281.36,184.68 281.36,184.95 281.36,185.22C281.36,185.49 281.36,185.76 281.36,186.03C281.36,186.3 281.36,186.58 281.36,186.85C281.36,187.12 281.36,187.39 281.36,187.66C281.36,187.93 281.36,188.2 281.36,188.47C281.36,188.74 281.36,189.02 281.36,189.29C281.36,189.56 281.36,189.83 281.36,190.1C281.36,190.37 281.36,190.65 281.36,190.92C281.36,191.19 281.36,191.46 281.36,191.73C281.36,192 281.36,192.27 281.36,192.54C281.36,192.81 281.36,193.09 281.36,193.36C281.36,193.63 281.36,193.9 281.36,194.17C281.36,194.44 281.36,194.71 281.36,194.98C281.36,195.25 281.36,195.53 281.36,195.8C281.36,196.07 281.36,196.34 281.36,196.61C281.36,196.88 281.36,197.15 281.36,197.42C281.36,197.69 281.36,197.97 281.36,198.24C281.36,198.51 281.36,198.78 281.36,199.05C281.36,199.32 281.36,199.59 281.36,199.86C281.36,200.13 281.36,200.41 281.36,200.68C281.36,200.95 281.36,201.22 281.36,201.49C281.36,201.76 281.36,202.03 281.36,202.3C281.36,202.57 281.36,202.85 281.36,203.12C281.36,203.39 281.36,203.66 281.36,203.93C281.36,204.2 281.36,204.48 281.36,204.75C281.36,205.02 281.36,205.29 281.36,205.56C281.36,205.83 281.36,206.1 281.36,206.37C281.36,206.64 281.36,206.92 281.36,207.19C281.36,207.46 281.36,207.73 281.36,208C281.36,208.27 281.36,208.54 281.36,208.81C281.36,209.08 281.36,209.36 281.36,209.63C281.36,209.9 281.36,210.17 281.36,210.44C281.36,210.71 281.36,210.98 281.36,211.25C281.36,211.52 281.36,211.8 281.36,212.07C281.36,212.34 281.36,212.61 281.36,212.88C281.36,213.15 281.36,213.42 281.36,213.69C281.36,213.96 281.36,214.24 281.36,214.51C281.36,214.78 281.36,215.05 281.36,215.32C281.36,215.59 281.36,215.87 281.36,216.14C281.36,216.41 281.36,216.68 281.36,216.95C281.36,217.22 281.36,217.49 281.36,217.76C281.36,218.03 281.36,218.31 281.36,218.58C281.36,218.85 281.36,219.12 281.36,219.39C281.36,219.66 281.36,219.93 281.36,220.2C281.36,220.47 281.36,220.75 281.36,221.02C281.36,221.29 281.36,221.56 281.36,221.83C281.36,222.1 281.36,222.37 281.36,222.64C281.36,222.91 281.36,223.19 281.36,223.46C281.36,223.73 281.36,224 281.36,224.27C281.36,224.54 281.36,224.81 281.36,225.08C281.36,225.35 281.36,225.63 281.36,225.9C281.36,226.17 281.36,226.44 281.36,226.71C281.36,226.98 281.36,227.26 281.36,227.53C281.36,227.8 281.36,228.07 281.36,228.34C281.36,228.61 281.36,228.88 281.36,229.15C281.36,229.42 281.36,229.7 281.36,229.97C281.36,230.24 281.36,230.51 281.36,230.78C281.36,231.05 281.36,231.32 281.36,231.59C281.36,231.86 281.36,232.14 281.36,232.41C281.36,232.68 281.36,232.95 281.36,233.22C281.36,233.49 281.36,233.76 281.36,234.03C281.36,234.3 281.36,234.58 281.36,234.85C281.36,235.12 281.36,235.39 281.36,235.66C281.36,235.93 281.36,236.2 281.36,236.47C281.36,236.74 281.36,237.02 281.36,237.29C281.36,237.56 281.36,237.83 281.36,238.1C281.36,238.37 281.36,238.65 281.36,238.92C281.36,239.19 281.36,239.46 281.36,239.73C281.36,240 281.36,240.27 281.36,240.54C281.36,240.81 281.36,241.09 281.36,241.36C281.36,241.63 281.36,241.9 281.36,242.17C281.36,242.44 281.36,242.71 281.36,242.98C281.36,243.25 281.36,243.53 281.36,243.8C281.36,244.07 281.36,244.34 281.36,244.61C281.36,244.88 281.36,245.15 281.36,245.42C281.36,245.69 281.36,245.97 281.36,246.24C281.36,246.51 281.36,246.78 281.36,247.05C281.36,247.32 281.36,247.59 281.36,247.86C281.36,248.13 281.36,248.41 281.36,248.68C281.36,248.95 281.36,249.22 281.36,249.49C281.36,249.76 281.36,250.04 281.36,250.31C281.36,250.58 281.36,250.85 281.36,251.12C281.36,251.39 281.36,251.66 281.36,251.93C281.36,252.2 281.36,252.48 281.36,252.75C281.36,253.02 281.36,253.29 281.36,253.56C281.36,253.83 281.36,254.1 281.36,254.37C281.36,254.64 281.36,254.92 281.36,255.19C281.36,255.46 281.36,255.73 281.36,256C281.36,256.27 281.36,256.54 281.36,256.81C281.36,257.08 281.36,257.36 281.36,257.63C281.36,257.9 281.36,258.17 281.36,258.44C281.36,258.71 281.36,258.98 281.36,259.25C281.36,259.52 281.36,259.8 281.36,260.07C281.36,260.34 281.36,260.61 281.36,260.88C281.36,261.15 281.36,261.42 281.36,261.69C281.36,261.96 281.36,262.24 281.36,262.51C281.36,262.78 281.36,263.05 281.36,263.32C281.36,263.59 281.36,263.87 281.36,264.14C281.36,264.41 281.36,264.68 281.36,264.95C281.36,265.22 281.36,265.49 281.36,265.76C281.36,266.03 281.36,266.31 281.36,266.58C281.36,266.85 281.36,267.12 281.36,267.39C281.36,267.66 281.36,267.93 281.36,268.2C281.36,268.47 281.36,268.75 281.36,269.02C281.36,269.29 281.36,269.56 281.36,269.83C281.36,270.1 281.36,270.37 281.36,270.64C281.36,270.91 281.36,271.19 281.36,271.46C281.36,271.73 281.36,272 281.36,272.27C281.36,272.54 281.36,272.81 281.36,273.08C281.36,273.35 281.36,273.63 281.36,273.9C281.36,274.17 281.36,274.44 281.36,274.71C281.36,274.98 281.36,275.26 281.36,275.53C281.36,275.8 281.36,276.07 281.36,276.34C281.36,276.61 281.36,276.88 281.36,277.15C281.36,277.42 281.36,277.7 281.36,277.97C281.36,278.24 281.36,278.51 281.36,278.78C281.36,279.05 281.36,279.32 281.36,279.59C281.36,279.86 281.36,280.14 281.36,280.41C281.36,280.68 281.36,280.95 281.36,281.22C281.36,281.49 281.36,281.76 281.36,282.03C281.36,282.3 281.36,282.58 281.36,282.85C281.36,283.12 281.36,283.39 281.36,283.66C281.36,283.93 281.36,284.2 281.36,284.47C281.36,284.74 281.35,285.02 281.35,285.29C281.35,285.56 281.35,285.83 281.34,286.1C281.33,286.37 281.33,286.65 281.31,286.92C281.29,287.19 281.27,287.46 281.24,287.73C281.2,288 281.16,288.27 281.1,288.54C281.03,288.81 280.95,289.09 280.85,289.36C280.74,289.64 280.61,289.91 280.46,290.17C280.3,290.45 280.1,290.71 279.9,290.98C279.69,291.26 279.45,291.53 279.21,291.8C278.97,292.07 278.7,292.34 278.45,292.61C278.2,292.88 277.94,293.14 277.71,293.42C277.49,293.69 277.28,293.96 277.11,294.24C276.95,294.5 276.8,294.77 276.71,295.05C276.62,295.31 276.57,295.59 276.56,295.86C276.55,296.13 276.6,296.41 276.68,296.68C276.76,296.96 276.9,297.23 277.05,297.49C277.21,297.77 277.43,298.04 277.64,298.31C277.86,298.59 278.12,298.85 278.36,299.12C278.61,299.39 278.87,299.66 279.11,299.93C279.35,300.2 279.59,300.47 279.81,300.75C280.02,301.02 280.21,301.28 280.38,301.56C280.54,301.82 280.68,302.09 280.79,302.37C280.9,302.64 280.99,302.92 281.06,303.19Q281.13,303.46 281.21,304Z" style="vector-effect: non-scaling-stroke; stroke-width: 2px; stroke: rgb(0, 204, 150); stroke-opacity: 1; fill: rgb(0, 204, 150); fill-opacity: 0.5;"/><g class="points"><path class="point" transform="translate(245.65,299.12)" d="M3,0A3,3 0 1,1 0,-3A3,3 0 0,1 3,0Z" style="opacity: 1; stroke-width: 0px; fill: rgb(0, 204, 150); fill-opacity: 1;"/><path class="point" transform="translate(237.3,298.56)" d="M3,0A3,3 0 1,1 0,-3A3,3 0 0,1 3,0Z" style="opacity: 1; stroke-width: 0px; fill: rgb(0, 204, 150); fill-opacity: 1;"/><path class="point" transform="translate(247.02,297.91)" d="M3,0A3,3 0 1,1 0,-3A3,3 0 0,1 3,0Z" style="opacity: 1; stroke-width: 0px; fill: rgb(0, 204, 150); fill-opacity: 1;"/><path class="point" transform="translate(235.18,297.8)" d="M3,0A3,3 0 1,1 0,-3A3,3 0 0,1 3,0Z" style="opacity: 1; stroke-width: 0px; fill: rgb(0, 204, 150); fill-opacity: 1;"/><path class="point" transform="translate(239.63,297.78)" d="M3,0A3,3 0 1,1 0,-3A3,3 0 0,1 3,0Z" style="opacity: 1; stroke-width: 0px; fill: rgb(0, 204, 150); fill-opacity: 1;"/><path class="point" transform="translate(245.25,297.63)" d="M3,0A3,3 0 1,1 0,-3A3,3 0 0,1 3,0Z" style="opacity: 1; stroke-width: 0px; fill: rgb(0, 204, 150); fill-opacity: 1;"/><path class="point" transform="translate(241.25,296.52)" d="M3,0A3,3 0 1,1 0,-3A3,3 0 0,1 3,0Z" style="opacity: 1; stroke-width: 0px; fill: rgb(0, 204, 150); fill-opacity: 1;"/><path class="point" transform="translate(243.56,296.49)" d="M3,0A3,3 0 1,1 0,-3A3,3 0 0,1 3,0Z" style="opacity: 1; stroke-width: 0px; fill: rgb(0, 204, 150); fill-opacity: 1;"/><path class="point" transform="translate(239.27,296.42)" d="M3,0A3,3 0 1,1 0,-3A3,3 0 0,1 3,0Z" style="opacity: 1; stroke-width: 0px; fill: rgb(0, 204, 150); fill-opacity: 1;"/><path class="point" transform="translate(236.52,296.19)" d="M3,0A3,3 0 1,1 0,-3A3,3 0 0,1 3,0Z" style="opacity: 1; stroke-width: 0px; fill: rgb(0, 204, 150); fill-opacity: 1;"/><path class="point" transform="translate(243.36,295.38)" d="M3,0A3,3 0 1,1 0,-3A3,3 0 0,1 3,0Z" style="opacity: 1; stroke-width: 0px; fill: rgb(0, 204, 150); fill-opacity: 1;"/><path class="point" transform="translate(238.92,294.62)" d="M3,0A3,3 0 1,1 0,-3A3,3 0 0,1 3,0Z" style="opacity: 1; stroke-width: 0px; fill: rgb(0, 204, 150); fill-opacity: 1;"/><path class="point" transform="translate(246.48,294.12)" d="M3,0A3,3 0 1,1 0,-3A3,3 0 0,1 3,0Z" style="opacity: 1; stroke-width: 0px; fill: rgb(0, 204, 150); fill-opacity: 1;"/><path class="point" transform="translate(240.65,293.96)" d="M3,0A3,3 0 1,1 0,-3A3,3 0 0,1 3,0Z" style="opacity: 1; stroke-width: 0px; fill: rgb(0, 204, 150); fill-opacity: 1;"/><path class="point" transform="translate(241.02,293.69)" d="M3,0A3,3 0 1,1 0,-3A3,3 0 0,1 3,0Z" style="opacity: 1; stroke-width: 0px; fill: rgb(0, 204, 150); fill-opacity: 1;"/><path class="point" transform="translate(242.21,293.66)" d="M3,0A3,3 0 1,1 0,-3A3,3 0 0,1 3,0Z" style="opacity: 1; stroke-width: 0px; fill: rgb(0, 204, 150); fill-opacity: 1;"/><path class="point" transform="translate(241.32,293.46)" d="M3,0A3,3 0 1,1 0,-3A3,3 0 0,1 3,0Z" style="opacity: 1; stroke-width: 0px; fill: rgb(0, 204, 150); fill-opacity: 1;"/><path class="point" transform="translate(240.92,293.41)" d="M3,0A3,3 0 1,1 0,-3A3,3 0 0,1 3,0Z" style="opacity: 1; stroke-width: 0px; fill: rgb(0, 204, 150); fill-opacity: 1;"/><path class="point" transform="translate(241.3,55.05)" d="M3,0A3,3 0 1,1 0,-3A3,3 0 0,1 3,0Z" style="opacity: 1; stroke-width: 0px; fill: rgb(0, 204, 150); fill-opacity: 1;"/></g></g><g class="trace violins" style="opacity: 1;"><path class="violin" d="M390.19,303.22Q390.42,303.15 390.56,303.12C390.73,303.08 390.93,303.04 391.14,303.01C391.38,302.97 391.65,302.94 391.92,302.91C392.22,302.87 392.55,302.84 392.88,302.8C393.22,302.76 393.57,302.73 393.91,302.69C394.24,302.66 394.58,302.63 394.9,302.59C395.21,302.56 395.51,302.52 395.8,302.48C396.08,302.45 396.34,302.41 396.61,302.38C396.89,302.34 397.17,302.3 397.47,302.27C397.81,302.23 398.17,302.2 398.57,302.17C399.04,302.13 399.57,302.09 400.13,302.06C400.79,302.02 401.52,301.99 402.29,301.96C403.16,301.92 404.11,301.89 405.07,301.85C406.1,301.81 407.21,301.77 408.28,301.74C409.36,301.7 410.49,301.68 411.52,301.64C412.47,301.61 413.44,301.57 414.24,301.53C414.87,301.5 415.57,301.49 415.94,301.43C416.13,301.4 416.35,301.35 416.35,301.32C416.35,301.28 415.87,301.25 415.56,301.22C415.12,301.18 414.52,301.14 413.96,301.11C413.35,301.07 412.68,301.05 412.04,301.01C411.4,300.98 410.77,300.94 410.14,300.9C409.52,300.86 408.92,300.82 408.31,300.79C407.69,300.75 407.08,300.72 406.43,300.69C405.74,300.65 405.04,300.61 404.31,300.58C403.54,300.54 402.73,300.51 401.92,300.48C401.08,300.44 400.21,300.41 399.36,300.37C398.52,300.34 397.67,300.31 396.86,300.27C396.1,300.24 395.34,300.2 394.65,300.16C394.03,300.13 393.43,300.1 392.89,300.06C392.43,300.03 391.99,299.99 391.61,299.95C391.3,299.92 391.02,299.88 390.78,299.84Q390.59,299.81 390.28,299.74L389.29,299.74Q388.98,299.81 388.79,299.84C388.55,299.88 388.27,299.92 387.96,299.95C387.58,299.99 387.14,300.03 386.68,300.06C386.14,300.1 385.54,300.13 384.92,300.16C384.23,300.2 383.47,300.24 382.71,300.27C381.9,300.31 381.05,300.34 380.21,300.37C379.36,300.41 378.49,300.44 377.65,300.48C376.84,300.51 376.03,300.54 375.26,300.58C374.53,300.61 373.83,300.65 373.14,300.69C372.49,300.72 371.88,300.75 371.26,300.79C370.65,300.82 370.05,300.86 369.44,300.9C368.81,300.94 368.17,300.98 367.53,301.01C366.89,301.05 366.22,301.07 365.61,301.11C365.05,301.14 364.45,301.18 364.01,301.22C363.7,301.25 363.22,301.28 363.22,301.32C363.22,301.35 363.44,301.4 363.63,301.43C364,301.49 364.7,301.5 365.33,301.53C366.13,301.57 367.1,301.61 368.05,301.64C369.08,301.68 370.21,301.7 371.29,301.74C372.36,301.77 373.47,301.81 374.5,301.85C375.46,301.89 376.41,301.92 377.28,301.96C378.05,301.99 378.78,302.02 379.44,302.06C380,302.09 380.53,302.13 381,302.17C381.4,302.2 381.76,302.23 382.1,302.27C382.4,302.3 382.68,302.34 382.96,302.38C383.23,302.41 383.49,302.45 383.77,302.48C384.06,302.52 384.36,302.56 384.67,302.59C384.99,302.63 385.33,302.66 385.66,302.69C386,302.73 386.35,302.76 386.69,302.8C387.02,302.84 387.35,302.87 387.65,302.91C387.92,302.94 388.19,302.97 388.43,303.01C388.64,303.04 388.84,303.08 389.01,303.12Q389.15,303.15 389.38,303.22Z" style="vector-effect: non-scaling-stroke; stroke-width: 2px; stroke: rgb(171, 99, 250); stroke-opacity: 1; fill: rgb(171, 99, 250); fill-opacity: 0.5;"/><g class="points"><path class="point" transform="translate(352.35,302.58)" d="M3,0A3,3 0 1,1 0,-3A3,3 0 0,1 3,0Z" style="opacity: 1; stroke-width: 0px; fill: rgb(171, 99, 250); fill-opacity: 1;"/><path class="point" transform="translate(346.76,302.35)" d="M3,0A3,3 0 1,1 0,-3A3,3 0 0,1 3,0Z" style="opacity: 1; stroke-width: 0px; fill: rgb(171, 99, 250); fill-opacity: 1;"/><path class="point" transform="translate(353.93,302)" d="M3,0A3,3 0 1,1 0,-3A3,3 0 0,1 3,0Z" style="opacity: 1; stroke-width: 0px; fill: rgb(171, 99, 250); fill-opacity: 1;"/><path class="point" transform="translate(345.28,301.82)" d="M3,0A3,3 0 1,1 0,-3A3,3 0 0,1 3,0Z" style="opacity: 1; stroke-width: 0px; fill: rgb(171, 99, 250); fill-opacity: 1;"/><path class="point" transform="translate(348.52,301.64)" d="M3,0A3,3 0 1,1 0,-3A3,3 0 0,1 3,0Z" style="opacity: 1; stroke-width: 0px; fill: rgb(171, 99, 250); fill-opacity: 1;"/><path class="point" transform="translate(353.04,301.54)" d="M3,0A3,3 0 1,1 0,-3A3,3 0 0,1 3,0Z" style="opacity: 1; stroke-width: 0px; fill: rgb(171, 99, 250); fill-opacity: 1;"/><path class="point" transform="translate(349.7,301.49)" d="M3,0A3,3 0 1,1 0,-3A3,3 0 0,1 3,0Z" style="opacity: 1; stroke-width: 0px; fill: rgb(171, 99, 250); fill-opacity: 1;"/><path class="point" transform="translate(352.25,301.39)" d="M3,0A3,3 0 1,1 0,-3A3,3 0 0,1 3,0Z" style="opacity: 1; stroke-width: 0px; fill: rgb(171, 99, 250); fill-opacity: 1;"/><path class="point" transform="translate(347.4,301.39)" d="M3,0A3,3 0 1,1 0,-3A3,3 0 0,1 3,0Z" style="opacity: 1; stroke-width: 0px; fill: rgb(171, 99, 250); fill-opacity: 1;"/><path class="point" transform="translate(344.1,301.37)" d="M3,0A3,3 0 1,1 0,-3A3,3 0 0,1 3,0Z" style="opacity: 1; stroke-width: 0px; fill: rgb(171, 99, 250); fill-opacity: 1;"/><path class="point" transform="translate(351.96,301.29)" d="M3,0A3,3 0 1,1 0,-3A3,3 0 0,1 3,0Z" style="opacity: 1; stroke-width: 0px; fill: rgb(171, 99, 250); fill-opacity: 1;"/><path class="point" transform="translate(347.4,301.29)" d="M3,0A3,3 0 1,1 0,-3A3,3 0 0,1 3,0Z" style="opacity: 1; stroke-width: 0px; fill: rgb(171, 99, 250); fill-opacity: 1;"/><path class="point" transform="translate(354.99,301.29)" d="M3,0A3,3 0 1,1 0,-3A3,3 0 0,1 3,0Z" style="opacity: 1; stroke-width: 0px; fill: rgb(171, 99, 250); fill-opacity: 1;"/><path class="point" transform="translate(342.68,301.11)" d="M3,0A3,3 0 1,1 0,-3A3,3 0 0,1 3,0Z" style="opacity: 1; stroke-width: 0px; fill: rgb(171, 99, 250); fill-opacity: 1;"/><path class="point" transform="translate(346.03,300.94)" d="M3,0A3,3 0 1,1 0,-3A3,3 0 0,1 3,0Z" style="opacity: 1; stroke-width: 0px; fill: rgb(171, 99, 250); fill-opacity: 1;"/><path class="point" transform="translate(355.84,300.76)" d="M3,0A3,3 0 1,1 0,-3A3,3 0 0,1 3,0Z" style="opacity: 1; stroke-width: 0px; fill: rgb(171, 99, 250); fill-opacity: 1;"/><path class="point" transform="translate(348.36,300.74)" d="M3,0A3,3 0 1,1 0,-3A3,3 0 0,1 3,0Z" style="opacity: 1; stroke-width: 0px; fill: rgb(171, 99, 250); fill-opacity: 1;"/><path class="point" transform="translate(344.89,300.68)" d="M3,0A3,3 0 1,1 0,-3A3,3 0 0,1 3,0Z" style="opacity: 1; stroke-width: 0px; fill: rgb(171, 99, 250); fill-opacity: 1;"/><path class="point" transform="translate(347.93,300.58)" d="M3,0A3,3 0 1,1 0,-3A3,3 0 0,1 3,0Z" style="opacity: 1; stroke-width: 0px; fill: rgb(171, 99, 250); fill-opacity: 1;"/><path class="point" transform="translate(349.8,300.38)" d="M3,0A3,3 0 1,1 0,-3A3,3 0 0,1 3,0Z" style="opacity: 1; stroke-width: 0px; fill: rgb(171, 99, 250); fill-opacity: 1;"/></g></g></g></g><g class="overplot"/><path class="xlines-above crisp" d="M0,0" style="fill: none;"/><path class="ylines-above crisp" d="M0,0" style="fill: none;"/><g class="overlines-above"/><g class="xaxislayer-above"><g class="xtick"><text text-anchor="middle" x="0" y="433" transform="translate(144.5,0)" style="font-family: 'Open Sans', verdana, arial, sans-serif; font-size: 12px; fill: rgb(42, 63, 95); fill-opacity: 1; white-space: pre; opacity: 1;">ascad_mlp</text></g><g class="xtick"><text text-anchor="middle" x="0" y="433" transform="translate(252.93,0)" style="font-family: 'Open Sans', verdana, arial, sans-serif; font-size: 12px; fill: rgb(42, 63, 95); fill-opacity: 1; white-space: pre; opacity: 1;">ascad_mlp_fn</text></g><g class="xtick"><text text-anchor="middle" x="0" y="433" transform="translate(361.36,0)" style="font-family: 'Open Sans', verdana, arial, sans-serif; font-size: 12px; fill: rgb(42, 63, 95); fill-opacity: 1; white-space: pre; opacity: 1;">eff_cnn</text></g><g class="xtick"><text text-anchor="middle" x="0" y="433" transform="translate(469.79,0)" style="font-family: 'Open Sans', verdana, arial, sans-serif; font-size: 12px; fill: rgb(42, 63, 95); fill-opacity: 1; white-space: pre; opacity: 1;">simplified_eff_cnn</text></g></g><g class="yaxislayer-above"><g class="ytick"><text text-anchor="end" x="79" y="4.199999999999999" transform="translate(0,407.46)" style="font-family: 'Open Sans', verdana, arial, sans-serif; font-size: 12px; fill: rgb(42, 63, 95); fill-opacity: 1; white-space: pre; opacity: 1;">0</text></g><g class="ytick"><text text-anchor="end" x="79" y="4.199999999999999" style="font-family: 'Open Sans', verdana, arial, sans-serif; font-size: 12px; fill: rgb(42, 63, 95); fill-opacity: 1; white-space: pre; opacity: 1;" transform="translate(0,356.93)">2k</text></g><g class="ytick"><text text-anchor="end" x="79" y="4.199999999999999" style="font-family: 'Open Sans', verdana, arial, sans-serif; font-size: 12px; fill: rgb(42, 63, 95); fill-opacity: 1; white-space: pre; opacity: 1;" transform="translate(0,306.4)">4k</text></g><g class="ytick"><text text-anchor="end" x="79" y="4.199999999999999" style="font-family: 'Open Sans', verdana, arial, sans-serif; font-size: 12px; fill: rgb(42, 63, 95); fill-opacity: 1; white-space: pre; opacity: 1;" transform="translate(0,255.88)">6k</text></g><g class="ytick"><text text-anchor="end" x="79" y="4.199999999999999" style="font-family: 'Open Sans', verdana, arial, sans-serif; font-size: 12px; fill: rgb(42, 63, 95); fill-opacity: 1; white-space: pre; opacity: 1;" transform="translate(0,205.35)">8k</text></g><g class="ytick"><text text-anchor="end" x="79" y="4.199999999999999" style="font-family: 'Open Sans', verdana, arial, sans-serif; font-size: 12px; fill: rgb(42, 63, 95); fill-opacity: 1; white-space: pre; opacity: 1;" transform="translate(0,154.82)">10k</text></g><g class="ytick"><text text-anchor="end" x="79" y="4.199999999999999" style="font-family: 'Open Sans', verdana, arial, sans-serif; font-size: 12px; fill: rgb(42, 63, 95); fill-opacity: 1; white-space: pre; opacity: 1;" transform="translate(0,104.3)">12k</text></g></g><g class="overaxes-above"/></g></g><g class="polarlayer"/><g class="ternarylayer"/><g class="geolayer"/><g class="funnelarealayer"/><g class="pielayer"/><g class="iciclelayer"/><g class="treemaplayer"/><g class="sunburstlayer"/><g class="glimages"/><defs id="topdefs-a74624"><g class="clips"/><clipPath id="legenda74624"><rect width="155" height="105" x="0" y="0"/></clipPath></defs><g class="layer-above"><g class="imagelayer"/><g class="shapelayer"/></g><g class="infolayer"><g class="legend" pointer-events="all" transform="translate(532.88,100)"><rect class="bg" shape-rendering="crispEdges" width="155" height="105" x="0" y="0" style="stroke: rgb(68, 68, 68); stroke-opacity: 1; fill: rgb(255, 255, 255); fill-opacity: 1; stroke-width: 0px;"/><g class="scrollbox" transform="" clip-path="url(#legenda74624)"><text class="legendtitletext" text-anchor="start" x="2" y="18.2" style="font-family: 'Open Sans', verdana, arial, sans-serif; font-size: 14px; fill: rgb(42, 63, 95); fill-opacity: 1; white-space: pre;">model</text><g class="groups" transform=""><g class="traces" transform="translate(0,32.7)" style="opacity: 1;"><text class="legendtext" text-anchor="start" x="40" y="4.680000000000001" style="font-family: 'Open Sans', verdana, arial, sans-serif; font-size: 12px; fill: rgb(42, 63, 95); fill-opacity: 1; white-space: pre;">ascad_mlp</text><g class="layers" style="opacity: 1;"><g class="legendfill"/><g class="legendlines"/><g class="legendsymbols"><g class="legendpoints"><path class="legendbox" d="M6,6H-6V-6H6Z" transform="translate(20,0)" style="stroke-width: 2px; fill: rgb(99, 110, 250); fill-opacity: 0.5; stroke: rgb(99, 110, 250); stroke-opacity: 1;"/></g></g></g><rect class="legendtoggle" x="0" y="-9.5" width="149.703125" height="19" style="fill: rgb(0, 0, 0); fill-opacity: 0;"/></g></g><g class="groups" transform=""><g class="traces" transform="translate(0,51.7)" style="opacity: 1;"><text class="legendtext" text-anchor="start" x="40" y="4.680000000000001" style="font-family: 'Open Sans', verdana, arial, sans-serif; font-size: 12px; fill: rgb(42, 63, 95); fill-opacity: 1; white-space: pre;">ascad_mlp_fn</text><g class="layers" style="opacity: 1;"><g class="legendfill"/><g class="legendlines"/><g class="legendsymbols"><g class="legendpoints"><path class="legendbox" d="M6,6H-6V-6H6Z" transform="translate(20,0)" style="stroke-width: 2px; fill: rgb(239, 85, 59); fill-opacity: 0.5; stroke: rgb(239, 85, 59); stroke-opacity: 1;"/></g></g></g><rect class="legendtoggle" x="0" y="-9.5" width="149.703125" height="19" style="fill: rgb(0, 0, 0); fill-opacity: 0;"/></g></g><g class="groups" transform=""><g class="traces" transform="translate(0,70.7)" style="opacity: 1;"><text class="legendtext" text-anchor="start" x="40" y="4.680000000000001" style="font-family: 'Open Sans', verdana, arial, sans-serif; font-size: 12px; fill: rgb(42, 63, 95); fill-opacity: 1; white-space: pre;">eff_cnn</text><g class="layers" style="opacity: 1;"><g class="legendfill"/><g class="legendlines"/><g class="legendsymbols"><g class="legendpoints"><path class="legendbox" d="M6,6H-6V-6H6Z" transform="translate(20,0)" style="stroke-width: 2px; fill: rgb(0, 204, 150); fill-opacity: 0.5; stroke: rgb(0, 204, 150); stroke-opacity: 1;"/></g></g></g><rect class="legendtoggle" x="0" y="-9.5" width="149.703125" height="19" style="fill: rgb(0, 0, 0); fill-opacity: 0;"/></g></g><g class="groups" transform=""><g class="traces" transform="translate(0,89.7)" style="opacity: 1;"><text class="legendtext" text-anchor="start" x="40" y="4.680000000000001" style="font-family: 'Open Sans', verdana, arial, sans-serif; font-size: 12px; fill: rgb(42, 63, 95); fill-opacity: 1; white-space: pre;">simplified_eff_cnn</text><g class="layers" style="opacity: 1;"><g class="legendfill"/><g class="legendlines"/><g class="legendsymbols"><g class="legendpoints"><path class="legendbox" d="M6,6H-6V-6H6Z" transform="translate(20,0)" style="stroke-width: 2px; fill: rgb(171, 99, 250); fill-opacity: 0.5; stroke: rgb(171, 99, 250); stroke-opacity: 1;"/></g></g></g><rect class="legendtoggle" x="0" y="-9.5" width="149.703125" height="19" style="fill: rgb(0, 0, 0); fill-opacity: 0;"/></g></g></g><rect class="scrollbar" rx="20" ry="3" width="0" height="0" x="0" y="0" style="fill: rgb(128, 139, 164); fill-opacity: 1;"/></g><g class="g-gtitle"><text class="gtitle" x="35" y="50" text-anchor="start" dy="0em" style="font-family: 'Open Sans', verdana, arial, sans-serif; font-size: 17px; fill: rgb(42, 63, 95); opacity: 1; font-weight: normal; white-space: pre;">Distribution of min traces needed for average rank to be zero</text></g><g class="g-xtitle"><text class="xtitle" x="302" y="460.8" text-anchor="middle" style="font-family: 'Open Sans', verdana, arial, sans-serif; font-size: 14px; fill: rgb(42, 63, 95); opacity: 1; font-weight: normal; white-space: pre;">model</text></g><g class="g-ytitle"><text class="ytitle" transform="rotate(-90,31.840625000000003,260)" x="31.840625000000003" y="260" text-anchor="middle" style="font-family: 'Open Sans', verdana, arial, sans-serif; font-size: 14px; fill: rgb(42, 63, 95); opacity: 1; font-weight: normal; white-space: pre;">min traces needed for average rank to be zero</text></g><g class="annotation" data-index="0" style="opacity: 1;"><g class="annotation-text-g" transform="rotate(0,134.5,125)"><g class="cursor-pointer" transform="translate(80,100)"><rect class="bg" x="0.5" y="0.5" width="108" height="49" style="stroke-width: 1px; stroke: rgb(255, 0, 0); stroke-opacity: 1; fill: rgb(0, 0, 0); fill-opacity: 0;"/><text class="annotation-text" text-anchor="middle" x="54.46875" y="14" style="font-family: 'Open Sans', verdana, arial, sans-serif; font-size: 12px; fill: rgb(42, 63, 95); fill-opacity: 1; white-space: pre;"><tspan class="line" dy="0em" x="54.46875" y="14"> 100.00 % failed </tspan><tspan class="line" dy="1.3em" x="54.46875" y="14">min: inf</tspan><tspan class="line" dy="2.6em" x="54.46875" y="14">max: inf</tspan></text></g></g><g class="annotation-arrow-g" style="opacity: 1;"><path d="M142.66666666666666,149.5L144.5,155" style="stroke-width: 1px; stroke: rgb(42, 63, 95); stroke-opacity: 1; stroke-dasharray: 0px, 0px, 5.79751px, 5.79751px;"/></g></g><g class="annotation" data-index="1" style="opacity: 1;"><g class="annotation-text-g" transform="rotate(0,242.93,125)"><g class="cursor-pointer" transform="translate(188,100)"><rect class="bg" x="0.5" y="0.5" width="108" height="49" style="stroke-width: 1px; stroke: rgb(255, 0, 0); stroke-opacity: 1; fill: rgb(0, 0, 0); fill-opacity: 0;"/><text class="annotation-text" text-anchor="middle" x="54.46875" y="14" style="font-family: 'Open Sans', verdana, arial, sans-serif; font-size: 12px; fill: rgb(42, 63, 95); fill-opacity: 1; white-space: pre;"><tspan class="line" dy="0em" x="54.46875" y="14"> 100.00 % failed </tspan><tspan class="line" dy="1.3em" x="54.46875" y="14">min: inf</tspan><tspan class="line" dy="2.6em" x="54.46875" y="14">max: inf</tspan></text></g></g><g class="annotation-arrow-g" style="opacity: 1;"><path d="M251.09666666666666,149.5L252.93,155" style="stroke-width: 1px; stroke: rgb(42, 63, 95); stroke-opacity: 1; stroke-dasharray: 0px, 0px, 5.79751px, 5.79751px;"/></g></g><g class="annotation" data-index="2" style="opacity: 1;"><g class="annotation-text-g" transform="rotate(0,351.36,125)"><g class="cursor-pointer" transform="translate(304,100)"><rect class="bg" x="0.5" y="0.5" width="93" height="49" style="stroke-width: 1px; stroke: rgb(255, 0, 0); stroke-opacity: 1; fill: rgb(0, 0, 0); fill-opacity: 0;"/><text class="annotation-text" text-anchor="middle" x="46.84375" y="14" style="font-family: 'Open Sans', verdana, arial, sans-serif; font-size: 12px; fill: rgb(42, 63, 95); fill-opacity: 1; white-space: pre;"><tspan class="line" dy="0em" x="46.84375" y="14"> 5.00 % failed </tspan><tspan class="line" dy="1.3em" x="46.84375" y="14">min: 330</tspan><tspan class="line" dy="2.6em" x="46.84375" y="14">max: inf</tspan></text></g></g><g class="annotation-arrow-g" style="opacity: 1;"><path d="M359.5266666666667,149.5L361.36,155" style="stroke-width: 1px; stroke: rgb(42, 63, 95); stroke-opacity: 1; stroke-dasharray: 0px, 0px, 5.7975px, 5.7975px;"/></g></g><g class="annotation" data-index="3" style="opacity: 1;"><g class="annotation-text-g" transform="rotate(0,459.79,125)"><g class="cursor-pointer" transform="translate(423,100)"><rect class="bg" x="0.5" y="0.5" width="72" height="49" style="stroke-width: 1px; stroke: rgb(0, 128, 0); stroke-opacity: 1; fill: rgb(0, 0, 0); fill-opacity: 0;"/><text class="annotation-text" text-anchor="middle" x="36.640625" y="14" style="font-family: 'Open Sans', verdana, arial, sans-serif; font-size: 12px; fill: rgb(42, 63, 95); fill-opacity: 1; white-space: pre;"><tspan class="line" dy="0em" x="36.640625" y="14"> All passed </tspan><tspan class="line" dy="1.3em" x="36.640625" y="14">min: 193</tspan><tspan class="line" dy="2.6em" x="36.640625" y="14">max: 280</tspan></text></g></g><g class="annotation-arrow-g" style="opacity: 1;"><path d="M467.9566666666667,149.5L469.79,155" style="stroke-width: 1px; stroke: rgb(42, 63, 95); stroke-opacity: 1; stroke-dasharray: 0px, 0px, 5.79751px, 5.79751px;"/></g></g></g></svg>