<svg class="main-svg" xmlns="http://www.w3.org/2000/svg" xmlns:xlink="http://www.w3.org/1999/xlink" width="700" height="500" style="" viewBox="0 0 700 500"><rect x="0" y="0" width="700" height="500" style="fill: rgb(255, 255, 255); fill-opacity: 1;"/><defs id="defs-4ae964"><g class="clips"><clipPath id="clip4ae964xyplot" class="plotclip"><rect width="444" height="320"/></clipPath><clipPath class="axesclip" id="clip4ae964x"><rect x="80" y="0" width="444" height="500"/></clipPath><clipPath class="axesclip" id="clip4ae964y"><rect x="0" y="100" width="700" height="320"/></clipPath><clipPath class="axesclip" id="clip4ae964xy"><rect x="80" y="100" width="444" height="320"/></clipPath></g><g class="gradients"/><g class="patterns"/></defs><g class="bglayer"><rect class="bg" x="80" y="100" width="444" height="320" style="fill: rgb(229, 236, 246); fill-opacity: 1; stroke-width: 0;"/></g><g class="layer-below"><g class="imagelayer"/><g class="shapelayer"/></g><g class="cartesianlayer"><g class="subplot xy"><g class="layer-subplot"><g class="shapelayer"/><g class="imagelayer"/></g><g class="gridlayer"><g class="x"/><g class="y"><path class="ygrid crisp" transform="translate(0,356.55)" d="M80,0h444" style="stroke: rgb(255, 255, 255); stroke-opacity: 1; stroke-width: 1px;"/><path class="ygrid crisp" transform="translate(0,306.12)" d="M80,0h444" style="stroke: rgb(255, 255, 255); stroke-opacity: 1; stroke-width: 1px;"/><path class="ygrid crisp" transform="translate(0,255.69)" d="M80,0h444" style="stroke: rgb(255, 255, 255); stroke-opacity: 1; stroke-width: 1px;"/><path class="ygrid crisp" transform="translate(0,205.26)" d="M80,0h444" style="stroke: rgb(255, 255, 255); stroke-opacity: 1; stroke-width: 1px;"/><path class="ygrid crisp" transform="translate(0,154.82)" d="M80,0h444" style="stroke: rgb(255, 255, 255); stroke-opacity: 1; stroke-width: 1px;"/><path class="ygrid crisp" transform="translate(0,104.39)" d="M80,0h444" style="stroke: rgb(255, 255, 255); stroke-opacity: 1; stroke-width: 1px;"/></g></g><g class="zerolinelayer"><path class="yzl zl crisp" transform="translate(0,406.99)" d="M80,0h444" style="stroke: rgb(255, 255, 255); stroke-opacity: 1; stroke-width: 2px;"/></g><path class="xlines-below"/><path class="ylines-below"/><g class="overlines-below"/><g class="xaxislayer-below"/><g class="yaxislayer-below"/><g class="overaxes-below"/><g class="plot" transform="translate(80,100)" clip-path="url(#clip4ae964xyplot)"><g class="violinlayer mlayer"><g class="trace violins" style="opacity: 1;"><path class="violin" d="M113.41,304Q113.52,303.46 113.61,303.19C113.7,302.91 113.82,302.63 113.97,302.37C114.13,302.09 114.34,301.82 114.57,301.56C114.83,301.28 115.13,301.01 115.46,300.75C115.82,300.46 116.24,300.19 116.66,299.93C117.11,299.65 117.6,299.39 118.09,299.12C118.59,298.85 119.13,298.59 119.63,298.31C120.12,298.04 120.62,297.77 121.06,297.49C121.47,297.23 121.88,296.97 122.2,296.68C122.48,296.42 122.74,296.15 122.89,295.86C123.02,295.6 123.1,295.32 123.08,295.05C123.06,294.78 122.92,294.5 122.77,294.24C122.6,293.95 122.34,293.68 122.07,293.42C121.78,293.14 121.43,292.87 121.08,292.61C120.72,292.33 120.33,292.07 119.95,291.8C119.57,291.53 119.18,291.26 118.81,290.98C118.45,290.71 118.09,290.45 117.76,290.17C117.44,289.91 117.14,289.64 116.86,289.36C116.59,289.09 116.34,288.82 116.11,288.54C115.89,288.27 115.69,288 115.5,287.73C115.32,287.46 115.15,287.19 115,286.92C114.85,286.65 114.72,286.38 114.6,286.1C114.48,285.83 114.38,285.56 114.29,285.29C114.2,285.02 114.13,284.74 114.06,284.47C114,284.2 113.95,283.93 113.9,283.66C113.86,283.39 113.82,283.12 113.79,282.85C113.76,282.58 113.73,282.3 113.7,282.03C113.67,281.76 113.65,281.49 113.62,281.22C113.59,280.95 113.56,280.68 113.53,280.41C113.5,280.14 113.48,279.86 113.45,279.59C113.43,279.32 113.4,279.05 113.38,278.78C113.36,278.51 113.34,278.24 113.33,277.97C113.31,277.7 113.3,277.42 113.29,277.15C113.28,276.88 113.28,276.61 113.27,276.34C113.27,276.07 113.26,275.8 113.26,275.53C113.26,275.26 113.25,274.98 113.25,274.71C113.25,274.44 113.25,274.17 113.25,273.9C113.25,273.63 113.25,273.35 113.25,273.08C113.25,272.81 113.25,272.54 113.25,272.27C113.25,272 113.25,271.73 113.25,271.46C113.25,271.19 113.25,270.91 113.25,270.64C113.25,270.37 113.25,270.1 113.25,269.83C113.25,269.56 113.25,269.29 113.25,269.02C113.25,268.75 113.25,268.47 113.25,268.2C113.25,267.93 113.25,267.66 113.25,267.39C113.25,267.12 113.25,266.85 113.25,266.58C113.25,266.31 113.25,266.03 113.25,265.76C113.25,265.49 113.25,265.22 113.25,264.95C113.25,264.68 113.25,264.41 113.25,264.14C113.25,263.87 113.25,263.59 113.25,263.32C113.25,263.05 113.25,262.78 113.25,262.51C113.25,262.24 113.25,261.96 113.25,261.69C113.25,261.42 113.25,261.15 113.25,260.88C113.25,260.61 113.25,260.34 113.25,260.07C113.25,259.8 113.25,259.52 113.25,259.25C113.25,258.98 113.25,258.71 113.25,258.44C113.25,258.17 113.25,257.9 113.25,257.63C113.25,257.36 113.25,257.08 113.25,256.81C113.25,256.54 113.25,256.27 113.25,256C113.25,255.73 113.25,255.46 113.25,255.19C113.25,254.92 113.25,254.64 113.25,254.37C113.25,254.1 113.25,253.83 113.25,253.56C113.25,253.29 113.25,253.02 113.25,252.75C113.25,252.48 113.25,252.2 113.25,251.93C113.25,251.66 113.25,251.39 113.25,251.12C113.25,250.85 113.25,250.57 113.25,250.3C113.25,250.03 113.25,249.76 113.25,249.49C113.25,249.22 113.25,248.95 113.25,248.68C113.25,248.41 113.25,248.13 113.25,247.86C113.25,247.59 113.25,247.32 113.25,247.05C113.25,246.78 113.25,246.51 113.25,246.24C113.25,245.97 113.25,245.69 113.25,245.42C113.25,245.15 113.25,244.88 113.25,244.61C113.25,244.34 113.25,244.07 113.25,243.8C113.25,243.53 113.25,243.25 113.25,242.98C113.25,242.71 113.25,242.44 113.25,242.17C113.25,241.9 113.25,241.63 113.25,241.36C113.25,241.09 113.25,240.81 113.25,240.54C113.25,240.27 113.25,240 113.25,239.73C113.25,239.46 113.25,239.19 113.25,238.92C113.25,238.65 113.25,238.37 113.25,238.1C113.25,237.83 113.25,237.56 113.25,237.29C113.25,237.02 113.25,236.74 113.25,236.47C113.25,236.2 113.25,235.93 113.25,235.66C113.25,235.39 113.25,235.12 113.25,234.85C113.25,234.58 113.25,234.3 113.25,234.03C113.25,233.76 113.25,233.49 113.25,233.22C113.25,232.95 113.25,232.68 113.25,232.41C113.25,232.14 113.25,231.86 113.25,231.59C113.25,231.32 113.25,231.05 113.25,230.78C113.25,230.51 113.25,230.24 113.25,229.97C113.25,229.7 113.25,229.42 113.25,229.15C113.25,228.88 113.25,228.61 113.25,228.34C113.25,228.07 113.25,227.8 113.25,227.53C113.25,227.26 113.25,226.98 113.25,226.71C113.25,226.44 113.25,226.17 113.25,225.9C113.25,225.63 113.25,225.35 113.25,225.08C113.25,224.81 113.25,224.54 113.25,224.27C113.25,224 113.25,223.73 113.25,223.46C113.25,223.19 113.25,222.91 113.25,222.64C113.25,222.37 113.25,222.1 113.25,221.83C113.25,221.56 113.25,221.29 113.25,221.02C113.25,220.75 113.25,220.47 113.25,220.2C113.25,219.93 113.25,219.66 113.25,219.39C113.25,219.12 113.25,218.85 113.25,218.58C113.25,218.31 113.25,218.03 113.25,217.76C113.25,217.49 113.25,217.22 113.25,216.95C113.25,216.68 113.25,216.41 113.25,216.14C113.25,215.87 113.25,215.59 113.25,215.32C113.25,215.05 113.25,214.78 113.25,214.51C113.25,214.24 113.25,213.96 113.25,213.69C113.25,213.42 113.25,213.15 113.25,212.88C113.25,212.61 113.25,212.34 113.25,212.07C113.25,211.8 113.25,211.52 113.25,211.25C113.25,210.98 113.25,210.71 113.25,210.44C113.25,210.17 113.25,209.9 113.25,209.63C113.25,209.36 113.25,209.08 113.25,208.81C113.25,208.54 113.25,208.27 113.25,208C113.25,207.73 113.25,207.46 113.25,207.19C113.25,206.92 113.25,206.64 113.25,206.37C113.25,206.1 113.25,205.83 113.25,205.56C113.25,205.29 113.25,205.02 113.25,204.75C113.25,204.48 113.25,204.2 113.25,203.93C113.25,203.66 113.25,203.39 113.25,203.12C113.25,202.85 113.25,202.57 113.25,202.3C113.25,202.03 113.25,201.76 113.25,201.49C113.25,201.22 113.25,200.95 113.25,200.68C113.25,200.41 113.25,200.13 113.25,199.86C113.25,199.59 113.25,199.32 113.25,199.05C113.25,198.78 113.25,198.51 113.25,198.24C113.25,197.97 113.25,197.69 113.25,197.42C113.25,197.15 113.25,196.88 113.25,196.61C113.25,196.34 113.25,196.07 113.25,195.8C113.25,195.53 113.25,195.25 113.25,194.98C113.25,194.71 113.25,194.44 113.25,194.17C113.25,193.9 113.25,193.63 113.25,193.36C113.25,193.09 113.25,192.81 113.25,192.54C113.25,192.27 113.25,192 113.25,191.73C113.25,191.46 113.25,191.19 113.25,190.92C113.25,190.65 113.25,190.37 113.25,190.1C113.25,189.83 113.25,189.56 113.25,189.29C113.25,189.02 113.25,188.74 113.25,188.47C113.25,188.2 113.25,187.93 113.25,187.66C113.25,187.39 113.25,187.12 113.25,186.85C113.25,186.58 113.25,186.3 113.25,186.03C113.25,185.76 113.25,185.49 113.25,185.22C113.25,184.95 113.25,184.68 113.25,184.41C113.25,184.14 113.25,183.86 113.25,183.59C113.25,183.32 113.25,183.05 113.25,182.78C113.25,182.51 113.25,182.24 113.25,181.97C113.25,181.7 113.25,181.42 113.25,181.15C113.25,180.88 113.25,180.61 113.25,180.34C113.25,180.07 113.25,179.8 113.25,179.53C113.25,179.26 113.25,178.98 113.25,178.71C113.25,178.44 113.25,178.17 113.25,177.9C113.25,177.63 113.25,177.35 113.25,177.08C113.25,176.81 113.25,176.54 113.25,176.27C113.25,176 113.25,175.73 113.25,175.46C113.25,175.19 113.25,174.91 113.25,174.64C113.25,174.37 113.25,174.1 113.25,173.83C113.25,173.56 113.25,173.29 113.25,173.02C113.25,172.75 113.25,172.47 113.25,172.2C113.25,171.93 113.25,171.66 113.25,171.39C113.25,171.12 113.25,170.85 113.25,170.58C113.25,170.31 113.25,170.03 113.25,169.76C113.25,169.49 113.25,169.22 113.25,168.95C113.25,168.68 113.25,168.41 113.25,168.14C113.25,167.87 113.25,167.59 113.25,167.32C113.25,167.05 113.25,166.78 113.25,166.51C113.25,166.24 113.25,165.96 113.25,165.69C113.25,165.42 113.25,165.15 113.25,164.88C113.25,164.61 113.25,164.34 113.25,164.07C113.25,163.8 113.25,163.52 113.25,163.25C113.25,162.98 113.25,162.71 113.25,162.44C113.25,162.17 113.25,161.9 113.25,161.63C113.25,161.36 113.25,161.08 113.25,160.81C113.25,160.54 113.25,160.27 113.25,160C113.25,159.73 113.25,159.46 113.25,159.19C113.25,158.92 113.25,158.64 113.25,158.37C113.25,158.1 113.25,157.83 113.25,157.56C113.25,157.29 113.25,157.02 113.25,156.75C113.25,156.48 113.25,156.2 113.25,155.93C113.25,155.66 113.25,155.39 113.25,155.12C113.25,154.85 113.25,154.57 113.25,154.3C113.25,154.03 113.25,153.76 113.25,153.49C113.25,153.22 113.25,152.95 113.25,152.68C113.25,152.41 113.25,152.13 113.25,151.86C113.25,151.59 113.25,151.32 113.25,151.05C113.25,150.78 113.25,150.51 113.25,150.24C113.25,149.97 113.25,149.69 113.25,149.42C113.25,149.15 113.25,148.88 113.25,148.61C113.25,148.34 113.25,148.07 113.25,147.8C113.25,147.53 113.25,147.25 113.25,146.98C113.25,146.71 113.25,146.44 113.25,146.17C113.25,145.9 113.25,145.63 113.25,145.36C113.25,145.09 113.25,144.81 113.25,144.54C113.25,144.27 113.25,144 113.25,143.73C113.25,143.46 113.25,143.18 113.25,142.91C113.25,142.64 113.25,142.37 113.25,142.1C113.25,141.83 113.25,141.56 113.25,141.29C113.25,141.02 113.25,140.74 113.25,140.47C113.25,140.2 113.25,139.93 113.25,139.66C113.25,139.39 113.25,139.12 113.25,138.85C113.25,138.58 113.25,138.3 113.25,138.03C113.25,137.76 113.25,137.49 113.25,137.22C113.25,136.95 113.25,136.68 113.25,136.41C113.25,136.14 113.25,135.86 113.25,135.59C113.25,135.32 113.25,135.05 113.25,134.78C113.25,134.51 113.25,134.24 113.25,133.97C113.25,133.7 113.25,133.42 113.25,133.15C113.25,132.88 113.25,132.61 113.25,132.34C113.25,132.07 113.25,131.8 113.25,131.53C113.25,131.26 113.26,130.98 113.26,130.71C113.26,130.44 113.26,130.17 113.26,129.9C113.26,129.63 113.27,129.35 113.28,129.08C113.29,128.81 113.29,128.54 113.3,128.27C113.31,128 113.32,127.73 113.33,127.46C113.34,127.19 113.36,126.91 113.37,126.64C113.38,126.37 113.39,126.1 113.4,125.83C113.41,125.56 113.42,125.29 113.43,125.02C113.44,124.75 113.43,124.47 113.43,124.2C113.43,123.93 113.43,123.66 113.42,123.39C113.41,123.12 113.4,122.85 113.39,122.58C113.38,122.31 113.37,122.03 113.36,121.76C113.35,121.49 113.34,121.22 113.33,120.95C113.32,120.68 113.31,120.41 113.31,120.14C113.31,119.87 113.32,119.59 113.32,119.32C113.32,119.05 113.32,118.78 113.33,118.51C113.34,118.24 113.35,117.96 113.36,117.69C113.37,117.42 113.39,117.15 113.4,116.88C113.41,116.61 113.42,116.34 113.42,116.07C113.43,115.8 113.43,115.52 113.43,115.25C113.43,114.98 113.42,114.71 113.42,114.44C113.41,114.17 113.41,113.9 113.4,113.63C113.39,113.36 113.37,113.08 113.36,112.81C113.35,112.54 113.34,112.27 113.33,112C113.32,111.73 113.31,111.46 113.3,111.19C113.29,110.92 113.29,110.64 113.28,110.37C113.27,110.1 113.26,109.83 113.26,109.56C113.26,109.29 113.26,109.02 113.26,108.75C113.26,108.48 113.25,108.2 113.25,107.93C113.25,107.66 113.25,107.39 113.25,107.12C113.25,106.85 113.25,106.57 113.25,106.3C113.25,106.03 113.25,105.76 113.25,105.49C113.25,105.22 113.25,104.95 113.25,104.68C113.25,104.41 113.25,104.13 113.25,103.86C113.25,103.59 113.25,103.32 113.25,103.05C113.25,102.78 113.25,102.51 113.25,102.24C113.25,101.97 113.25,101.69 113.25,101.42C113.25,101.15 113.25,100.88 113.25,100.61C113.25,100.34 113.25,100.07 113.25,99.8C113.25,99.53 113.25,99.25 113.25,98.98C113.25,98.71 113.25,98.44 113.25,98.17C113.25,97.9 113.25,97.63 113.25,97.36C113.25,97.09 113.25,96.81 113.25,96.54C113.25,96.27 113.25,96 113.25,95.73C113.25,95.46 113.25,95.18 113.25,94.91C113.25,94.64 113.25,94.37 113.25,94.1C113.25,93.83 113.25,93.56 113.25,93.29C113.25,93.02 113.25,92.74 113.25,92.47C113.25,92.2 113.25,91.93 113.25,91.66C113.25,91.39 113.25,91.12 113.25,90.85C113.25,90.58 113.25,90.3 113.25,90.03C113.25,89.76 113.25,89.49 113.25,89.22C113.25,88.95 113.25,88.68 113.25,88.41C113.25,88.14 113.25,87.86 113.25,87.59C113.25,87.32 113.25,87.05 113.25,86.78C113.25,86.51 113.25,86.24 113.25,85.97C113.25,85.7 113.25,85.42 113.25,85.15C113.25,84.88 113.25,84.61 113.25,84.34C113.25,84.07 113.25,83.8 113.25,83.53C113.25,83.26 113.25,82.98 113.25,82.71C113.25,82.44 113.25,82.17 113.25,81.9C113.25,81.63 113.25,81.35 113.25,81.08C113.25,80.81 113.25,80.54 113.25,80.27C113.25,80 113.25,79.73 113.25,79.46C113.25,79.19 113.25,78.91 113.25,78.64C113.25,78.37 113.25,78.1 113.25,77.83C113.25,77.56 113.25,77.29 113.25,77.02C113.25,76.75 113.25,76.47 113.25,76.2C113.25,75.93 113.25,75.66 113.25,75.39C113.25,75.12 113.25,74.85 113.25,74.58C113.25,74.31 113.25,74.03 113.25,73.76C113.25,73.49 113.25,73.22 113.25,72.95C113.25,72.68 113.25,72.41 113.25,72.14C113.25,71.87 113.25,71.59 113.25,71.32C113.25,71.05 113.25,70.78 113.25,70.51C113.25,70.24 113.25,69.96 113.25,69.69C113.25,69.42 113.25,69.15 113.25,68.88C113.25,68.61 113.25,68.34 113.25,68.07C113.25,67.8 113.25,67.52 113.25,67.25C113.25,66.98 113.25,66.71 113.25,66.44C113.25,66.17 113.25,65.9 113.25,65.63C113.25,65.36 113.25,65.08 113.25,64.81C113.25,64.54 113.25,64.27 113.25,64C113.25,63.73 113.25,63.46 113.25,63.19C113.25,62.92 113.26,62.64 113.26,62.37C113.26,62.1 113.27,61.83 113.27,61.56C113.28,61.29 113.28,61.02 113.29,60.75C113.3,60.48 113.31,60.2 113.32,59.93C113.33,59.66 113.35,59.39 113.37,59.12C113.39,58.85 113.42,58.57 113.44,58.3C113.46,58.03 113.49,57.76 113.51,57.49C113.53,57.22 113.56,56.95 113.57,56.68C113.59,56.41 113.6,56.13 113.6,55.86C113.6,55.59 113.6,55.32 113.6,55.05C113.6,54.78 113.58,54.51 113.57,54.24C113.55,53.97 113.53,53.69 113.51,53.42C113.49,53.15 113.45,52.88 113.43,52.61C113.41,52.34 113.39,52.07 113.37,51.8C113.35,51.53 113.33,51.25 113.32,50.98Q113.31,50.71 113.29,50.17L113.21,50.17Q113.19,50.71 113.18,50.98C113.17,51.25 113.15,51.53 113.13,51.8C113.11,52.07 113.09,52.34 113.07,52.61C113.05,52.88 113.01,53.15 112.99,53.42C112.97,53.69 112.95,53.97 112.93,54.24C112.92,54.51 112.9,54.78 112.9,55.05C112.9,55.32 112.9,55.59 112.9,55.86C112.9,56.13 112.91,56.41 112.93,56.68C112.94,56.95 112.97,57.22 112.99,57.49C113.01,57.76 113.04,58.03 113.06,58.3C113.08,58.57 113.11,58.85 113.13,59.12C113.15,59.39 113.17,59.66 113.18,59.93C113.19,60.2 113.2,60.48 113.21,60.75C113.22,61.02 113.22,61.29 113.23,61.56C113.23,61.83 113.24,62.1 113.24,62.37C113.24,62.64 113.25,62.92 113.25,63.19C113.25,63.46 113.25,63.73 113.25,64C113.25,64.27 113.25,64.54 113.25,64.81C113.25,65.08 113.25,65.36 113.25,65.63C113.25,65.9 113.25,66.17 113.25,66.44C113.25,66.71 113.25,66.98 113.25,67.25C113.25,67.52 113.25,67.8 113.25,68.07C113.25,68.34 113.25,68.61 113.25,68.88C113.25,69.15 113.25,69.42 113.25,69.69C113.25,69.96 113.25,70.24 113.25,70.51C113.25,70.78 113.25,71.05 113.25,71.32C113.25,71.59 113.25,71.87 113.25,72.14C113.25,72.41 113.25,72.68 113.25,72.95C113.25,73.22 113.25,73.49 113.25,73.76C113.25,74.03 113.25,74.31 113.25,74.58C113.25,74.85 113.25,75.12 113.25,75.39C113.25,75.66 113.25,75.93 113.25,76.2C113.25,76.47 113.25,76.75 113.25,77.02C113.25,77.29 113.25,77.56 113.25,77.83C113.25,78.1 113.25,78.37 113.25,78.64C113.25,78.91 113.25,79.19 113.25,79.46C113.25,79.73 113.25,80 113.25,80.27C113.25,80.54 113.25,80.81 113.25,81.08C113.25,81.35 113.25,81.63 113.25,81.9C113.25,82.17 113.25,82.44 113.25,82.71C113.25,82.98 113.25,83.26 113.25,83.53C113.25,83.8 113.25,84.07 113.25,84.34C113.25,84.61 113.25,84.88 113.25,85.15C113.25,85.42 113.25,85.7 113.25,85.97C113.25,86.24 113.25,86.51 113.25,86.78C113.25,87.05 113.25,87.32 113.25,87.59C113.25,87.86 113.25,88.14 113.25,88.41C113.25,88.68 113.25,88.95 113.25,89.22C113.25,89.49 113.25,89.76 113.25,90.03C113.25,90.3 113.25,90.58 113.25,90.85C113.25,91.12 113.25,91.39 113.25,91.66C113.25,91.93 113.25,92.2 113.25,92.47C113.25,92.74 113.25,93.02 113.25,93.29C113.25,93.56 113.25,93.83 113.25,94.1C113.25,94.37 113.25,94.64 113.25,94.91C113.25,95.18 113.25,95.46 113.25,95.73C113.25,96 113.25,96.27 113.25,96.54C113.25,96.81 113.25,97.09 113.25,97.36C113.25,97.63 113.25,97.9 113.25,98.17C113.25,98.44 113.25,98.71 113.25,98.98C113.25,99.25 113.25,99.53 113.25,99.8C113.25,100.07 113.25,100.34 113.25,100.61C113.25,100.88 113.25,101.15 113.25,101.42C113.25,101.69 113.25,101.97 113.25,102.24C113.25,102.51 113.25,102.78 113.25,103.05C113.25,103.32 113.25,103.59 113.25,103.86C113.25,104.13 113.25,104.41 113.25,104.68C113.25,104.95 113.25,105.22 113.25,105.49C113.25,105.76 113.25,106.03 113.25,106.3C113.25,106.57 113.25,106.85 113.25,107.12C113.25,107.39 113.25,107.66 113.25,107.93C113.25,108.2 113.24,108.48 113.24,108.75C113.24,109.02 113.24,109.29 113.24,109.56C113.24,109.83 113.23,110.1 113.22,110.37C113.21,110.64 113.21,110.92 113.2,111.19C113.19,111.46 113.18,111.73 113.17,112C113.16,112.27 113.15,112.54 113.14,112.81C113.13,113.08 113.11,113.36 113.1,113.63C113.09,113.9 113.09,114.17 113.08,114.44C113.08,114.71 113.07,114.98 113.07,115.25C113.07,115.52 113.07,115.8 113.08,116.07C113.08,116.34 113.09,116.61 113.1,116.88C113.11,117.15 113.13,117.42 113.14,117.69C113.15,117.96 113.16,118.24 113.17,118.51C113.18,118.78 113.18,119.05 113.18,119.32C113.18,119.59 113.19,119.87 113.19,120.14C113.19,120.41 113.18,120.68 113.17,120.95C113.16,121.22 113.15,121.49 113.14,121.76C113.13,122.03 113.12,122.31 113.11,122.58C113.1,122.85 113.09,123.12 113.08,123.39C113.07,123.66 113.07,123.93 113.07,124.2C113.07,124.47 113.06,124.75 113.07,125.02C113.08,125.29 113.09,125.56 113.1,125.83C113.11,126.1 113.12,126.37 113.13,126.64C113.14,126.91 113.16,127.19 113.17,127.46C113.18,127.73 113.19,128 113.2,128.27C113.21,128.54 113.21,128.81 113.22,129.08C113.23,129.35 113.24,129.63 113.24,129.9C113.24,130.17 113.24,130.44 113.24,130.71C113.24,130.98 113.25,131.26 113.25,131.53C113.25,131.8 113.25,132.07 113.25,132.34C113.25,132.61 113.25,132.88 113.25,133.15C113.25,133.42 113.25,133.7 113.25,133.97C113.25,134.24 113.25,134.51 113.25,134.78C113.25,135.05 113.25,135.32 113.25,135.59C113.25,135.86 113.25,136.14 113.25,136.41C113.25,136.68 113.25,136.95 113.25,137.22C113.25,137.49 113.25,137.76 113.25,138.03C113.25,138.3 113.25,138.58 113.25,138.85C113.25,139.12 113.25,139.39 113.25,139.66C113.25,139.93 113.25,140.2 113.25,140.47C113.25,140.74 113.25,141.02 113.25,141.29C113.25,141.56 113.25,141.83 113.25,142.1C113.25,142.37 113.25,142.64 113.25,142.91C113.25,143.18 113.25,143.46 113.25,143.73C113.25,144 113.25,144.27 113.25,144.54C113.25,144.81 113.25,145.09 113.25,145.36C113.25,145.63 113.25,145.9 113.25,146.17C113.25,146.44 113.25,146.71 113.25,146.98C113.25,147.25 113.25,147.53 113.25,147.8C113.25,148.07 113.25,148.34 113.25,148.61C113.25,148.88 113.25,149.15 113.25,149.42C113.25,149.69 113.25,149.97 113.25,150.24C113.25,150.51 113.25,150.78 113.25,151.05C113.25,151.32 113.25,151.59 113.25,151.86C113.25,152.13 113.25,152.41 113.25,152.68C113.25,152.95 113.25,153.22 113.25,153.49C113.25,153.76 113.25,154.03 113.25,154.3C113.25,154.57 113.25,154.85 113.25,155.12C113.25,155.39 113.25,155.66 113.25,155.93C113.25,156.2 113.25,156.48 113.25,156.75C113.25,157.02 113.25,157.29 113.25,157.56C113.25,157.83 113.25,158.1 113.25,158.37C113.25,158.64 113.25,158.92 113.25,159.19C113.25,159.46 113.25,159.73 113.25,160C113.25,160.27 113.25,160.54 113.25,160.81C113.25,161.08 113.25,161.36 113.25,161.63C113.25,161.9 113.25,162.17 113.25,162.44C113.25,162.71 113.25,162.98 113.25,163.25C113.25,163.52 113.25,163.8 113.25,164.07C113.25,164.34 113.25,164.61 113.25,164.88C113.25,165.15 113.25,165.42 113.25,165.69C113.25,165.96 113.25,166.24 113.25,166.51C113.25,166.78 113.25,167.05 113.25,167.32C113.25,167.59 113.25,167.87 113.25,168.14C113.25,168.41 113.25,168.68 113.25,168.95C113.25,169.22 113.25,169.49 113.25,169.76C113.25,170.03 113.25,170.31 113.25,170.58C113.25,170.85 113.25,171.12 113.25,171.39C113.25,171.66 113.25,171.93 113.25,172.2C113.25,172.47 113.25,172.75 113.25,173.02C113.25,173.29 113.25,173.56 113.25,173.83C113.25,174.1 113.25,174.37 113.25,174.64C113.25,174.91 113.25,175.19 113.25,175.46C113.25,175.73 113.25,176 113.25,176.27C113.25,176.54 113.25,176.81 113.25,177.08C113.25,177.35 113.25,177.63 113.25,177.9C113.25,178.17 113.25,178.44 113.25,178.71C113.25,178.98 113.25,179.26 113.25,179.53C113.25,179.8 113.25,180.07 113.25,180.34C113.25,180.61 113.25,180.88 113.25,181.15C113.25,181.42 113.25,181.7 113.25,181.97C113.25,182.24 113.25,182.51 113.25,182.78C113.25,183.05 113.25,183.32 113.25,183.59C113.25,183.86 113.25,184.14 113.25,184.41C113.25,184.68 113.25,184.95 113.25,185.22C113.25,185.49 113.25,185.76 113.25,186.03C113.25,186.3 113.25,186.58 113.25,186.85C113.25,187.12 113.25,187.39 113.25,187.66C113.25,187.93 113.25,188.2 113.25,188.47C113.25,188.74 113.25,189.02 113.25,189.29C113.25,189.56 113.25,189.83 113.25,190.1C113.25,190.37 113.25,190.65 113.25,190.92C113.25,191.19 113.25,191.46 113.25,191.73C113.25,192 113.25,192.27 113.25,192.54C113.25,192.81 113.25,193.09 113.25,193.36C113.25,193.63 113.25,193.9 113.25,194.17C113.25,194.44 113.25,194.71 113.25,194.98C113.25,195.25 113.25,195.53 113.25,195.8C113.25,196.07 113.25,196.34 113.25,196.61C113.25,196.88 113.25,197.15 113.25,197.42C113.25,197.69 113.25,197.97 113.25,198.24C113.25,198.51 113.25,198.78 113.25,199.05C113.25,199.32 113.25,199.59 113.25,199.86C113.25,200.13 113.25,200.41 113.25,200.68C113.25,200.95 113.25,201.22 113.25,201.49C113.25,201.76 113.25,202.03 113.25,202.3C113.25,202.57 113.25,202.85 113.25,203.12C113.25,203.39 113.25,203.66 113.25,203.93C113.25,204.2 113.25,204.48 113.25,204.75C113.25,205.02 113.25,205.29 113.25,205.56C113.25,205.83 113.25,206.1 113.25,206.37C113.25,206.64 113.25,206.92 113.25,207.19C113.25,207.46 113.25,207.73 113.25,208C113.25,208.27 113.25,208.54 113.25,208.81C113.25,209.08 113.25,209.36 113.25,209.63C113.25,209.9 113.25,210.17 113.25,210.44C113.25,210.71 113.25,210.98 113.25,211.25C113.25,211.52 113.25,211.8 113.25,212.07C113.25,212.34 113.25,212.61 113.25,212.88C113.25,213.15 113.25,213.42 113.25,213.69C113.25,213.96 113.25,214.24 113.25,214.51C113.25,214.78 113.25,215.05 113.25,215.32C113.25,215.59 113.25,215.87 113.25,216.14C113.25,216.41 113.25,216.68 113.25,216.95C113.25,217.22 113.25,217.49 113.25,217.76C113.25,218.03 113.25,218.31 113.25,218.58C113.25,218.85 113.25,219.12 113.25,219.39C113.25,219.66 113.25,219.93 113.25,220.2C113.25,220.47 113.25,220.75 113.25,221.02C113.25,221.29 113.25,221.56 113.25,221.83C113.25,222.1 113.25,222.37 113.25,222.64C113.25,222.91 113.25,223.19 113.25,223.46C113.25,223.73 113.25,224 113.25,224.27C113.25,224.54 113.25,224.81 113.25,225.08C113.25,225.35 113.25,225.63 113.25,225.9C113.25,226.17 113.25,226.44 113.25,226.71C113.25,226.98 113.25,227.26 113.25,227.53C113.25,227.8 113.25,228.07 113.25,228.34C113.25,228.61 113.25,228.88 113.25,229.15C113.25,229.42 113.25,229.7 113.25,229.97C113.25,230.24 113.25,230.51 113.25,230.78C113.25,231.05 113.25,231.32 113.25,231.59C113.25,231.86 113.25,232.14 113.25,232.41C113.25,232.68 113.25,232.95 113.25,233.22C113.25,233.49 113.25,233.76 113.25,234.03C113.25,234.3 113.25,234.58 113.25,234.85C113.25,235.12 113.25,235.39 113.25,235.66C113.25,235.93 113.25,236.2 113.25,236.47C113.25,236.74 113.25,237.02 113.25,237.29C113.25,237.56 113.25,237.83 113.25,238.1C113.25,238.37 113.25,238.65 113.25,238.92C113.25,239.19 113.25,239.46 113.25,239.73C113.25,240 113.25,240.27 113.25,240.54C113.25,240.81 113.25,241.09 113.25,241.36C113.25,241.63 113.25,241.9 113.25,242.17C113.25,242.44 113.25,242.71 113.25,242.98C113.25,243.25 113.25,243.53 113.25,243.8C113.25,244.07 113.25,244.34 113.25,244.61C113.25,244.88 113.25,245.15 113.25,245.42C113.25,245.69 113.25,245.97 113.25,246.24C113.25,246.51 113.25,246.78 113.25,247.05C113.25,247.32 113.25,247.59 113.25,247.86C113.25,248.13 113.25,248.41 113.25,248.68C113.25,248.95 113.25,249.22 113.25,249.49C113.25,249.76 113.25,250.03 113.25,250.3C113.25,250.57 113.25,250.85 113.25,251.12C113.25,251.39 113.25,251.66 113.25,251.93C113.25,252.2 113.25,252.48 113.25,252.75C113.25,253.02 113.25,253.29 113.25,253.56C113.25,253.83 113.25,254.1 113.25,254.37C113.25,254.64 113.25,254.92 113.25,255.19C113.25,255.46 113.25,255.73 113.25,256C113.25,256.27 113.25,256.54 113.25,256.81C113.25,257.08 113.25,257.36 113.25,257.63C113.25,257.9 113.25,258.17 113.25,258.44C113.25,258.71 113.25,258.98 113.25,259.25C113.25,259.52 113.25,259.8 113.25,260.07C113.25,260.34 113.25,260.61 113.25,260.88C113.25,261.15 113.25,261.42 113.25,261.69C113.25,261.96 113.25,262.24 113.25,262.51C113.25,262.78 113.25,263.05 113.25,263.32C113.25,263.59 113.25,263.87 113.25,264.14C113.25,264.41 113.25,264.68 113.25,264.95C113.25,265.22 113.25,265.49 113.25,265.76C113.25,266.03 113.25,266.31 113.25,266.58C113.25,266.85 113.25,267.12 113.25,267.39C113.25,267.66 113.25,267.93 113.25,268.2C113.25,268.47 113.25,268.75 113.25,269.02C113.25,269.29 113.25,269.56 113.25,269.83C113.25,270.1 113.25,270.37 113.25,270.64C113.25,270.91 113.25,271.19 113.25,271.46C113.25,271.73 113.25,272 113.25,272.27C113.25,272.54 113.25,272.81 113.25,273.08C113.25,273.35 113.25,273.63 113.25,273.9C113.25,274.17 113.25,274.44 113.25,274.71C113.25,274.98 113.24,275.26 113.24,275.53C113.24,275.8 113.23,276.07 113.23,276.34C113.22,276.61 113.22,276.88 113.21,277.15C113.2,277.42 113.19,277.7 113.17,277.97C113.16,278.24 113.14,278.51 113.12,278.78C113.1,279.05 113.07,279.32 113.05,279.59C113.02,279.86 113,280.14 112.97,280.41C112.94,280.68 112.91,280.95 112.88,281.22C112.85,281.49 112.83,281.76 112.8,282.03C112.77,282.3 112.74,282.58 112.71,282.85C112.68,283.12 112.64,283.39 112.6,283.66C112.55,283.93 112.5,284.2 112.44,284.47C112.37,284.74 112.3,285.02 112.21,285.29C112.12,285.56 112.02,285.83 111.9,286.1C111.78,286.38 111.65,286.65 111.5,286.92C111.35,287.19 111.18,287.46 111,287.73C110.81,288 110.61,288.27 110.39,288.54C110.16,288.82 109.91,289.09 109.64,289.36C109.36,289.64 109.06,289.91 108.74,290.17C108.41,290.45 108.05,290.71 107.69,290.98C107.32,291.26 106.93,291.53 106.55,291.8C106.17,292.07 105.78,292.33 105.42,292.61C105.07,292.87 104.72,293.14 104.43,293.42C104.16,293.68 103.9,293.95 103.73,294.24C103.58,294.5 103.44,294.78 103.42,295.05C103.4,295.32 103.48,295.6 103.61,295.86C103.76,296.15 104.02,296.42 104.3,296.68C104.62,296.97 105.03,297.23 105.44,297.49C105.88,297.77 106.38,298.04 106.87,298.31C107.37,298.59 107.91,298.85 108.41,299.12C108.9,299.39 109.39,299.65 109.84,299.93C110.26,300.19 110.68,300.46 111.04,300.75C111.37,301.01 111.67,301.28 111.93,301.56C112.16,301.82 112.37,302.09 112.53,302.37C112.68,302.63 112.8,302.91 112.89,303.19Q112.98,303.46 113.09,304Z" style="vector-effect: non-scaling-stroke; stroke-width: 2px; stroke: rgb(99, 110, 250); stroke-opacity: 1; fill: rgb(99, 110, 250); fill-opacity: 0.5;"/><g class="points"><path class="point" transform="translate(40.63,299.12)" d="M3,0A3,3 0 1,1 0,-3A3,3 0 0,1 3,0Z" style="opacity: 1; stroke-width: 0px; fill: rgb(99, 110, 250); fill-opacity: 1;"/><path class="point" transform="translate(21.89,298.69)" d="M3,0A3,3 0 1,1 0,-3A3,3 0 0,1 3,0Z" style="opacity: 1; stroke-width: 0px; fill: rgb(99, 110, 250); fill-opacity: 1;"/><path class="point" transform="translate(44.78,298.66)" d="M3,0A3,3 0 1,1 0,-3A3,3 0 0,1 3,0Z" style="opacity: 1; stroke-width: 0px; fill: rgb(99, 110, 250); fill-opacity: 1;"/><path class="point" transform="translate(18.51,298.41)" d="M3,0A3,3 0 1,1 0,-3A3,3 0 0,1 3,0Z" style="opacity: 1; stroke-width: 0px; fill: rgb(99, 110, 250); fill-opacity: 1;"/><path class="point" transform="translate(28.22,298.11)" d="M3,0A3,3 0 1,1 0,-3A3,3 0 0,1 3,0Z" style="opacity: 1; stroke-width: 0px; fill: rgb(99, 110, 250); fill-opacity: 1;"/><path class="point" transform="translate(40.72,297.98)" d="M3,0A3,3 0 1,1 0,-3A3,3 0 0,1 3,0Z" style="opacity: 1; stroke-width: 0px; fill: rgb(99, 110, 250); fill-opacity: 1;"/><path class="point" transform="translate(31.61,297.76)" d="M3,0A3,3 0 1,1 0,-3A3,3 0 0,1 3,0Z" style="opacity: 1; stroke-width: 0px; fill: rgb(99, 110, 250); fill-opacity: 1;"/><path class="point" transform="translate(36.91,297.63)" d="M3,0A3,3 0 1,1 0,-3A3,3 0 0,1 3,0Z" style="opacity: 1; stroke-width: 0px; fill: rgb(99, 110, 250); fill-opacity: 1;"/><path class="point" transform="translate(27.05,297.45)" d="M3,0A3,3 0 1,1 0,-3A3,3 0 0,1 3,0Z" style="opacity: 1; stroke-width: 0px; fill: rgb(99, 110, 250); fill-opacity: 1;"/><path class="point" transform="translate(20.34,297.38)" d="M3,0A3,3 0 1,1 0,-3A3,3 0 0,1 3,0Z" style="opacity: 1; stroke-width: 0px; fill: rgb(99, 110, 250); fill-opacity: 1;"/><path class="point" transform="translate(36.55,297.35)" d="M3,0A3,3 0 1,1 0,-3A3,3 0 0,1 3,0Z" style="opacity: 1; stroke-width: 0px; fill: rgb(99, 110, 250); fill-opacity: 1;"/><path class="point" transform="translate(26.88,297.35)" d="M3,0A3,3 0 1,1 0,-3A3,3 0 0,1 3,0Z" style="opacity: 1; stroke-width: 0px; fill: rgb(99, 110, 250); fill-opacity: 1;"/><path class="point" transform="translate(42.49,297.33)" d="M3,0A3,3 0 1,1 0,-3A3,3 0 0,1 3,0Z" style="opacity: 1; stroke-width: 0px; fill: rgb(99, 110, 250); fill-opacity: 1;"/><path class="point" transform="translate(16.44,297.25)" d="M3,0A3,3 0 1,1 0,-3A3,3 0 0,1 3,0Z" style="opacity: 1; stroke-width: 0px; fill: rgb(99, 110, 250); fill-opacity: 1;"/><path class="point" transform="translate(22.84,297.18)" d="M3,0A3,3 0 1,1 0,-3A3,3 0 0,1 3,0Z" style="opacity: 1; stroke-width: 0px; fill: rgb(99, 110, 250); fill-opacity: 1;"/><path class="point" transform="translate(46.55,297.13)" d="M3,0A3,3 0 1,1 0,-3A3,3 0 0,1 3,0Z" style="opacity: 1; stroke-width: 0px; fill: rgb(99, 110, 250); fill-opacity: 1;"/><path class="point" transform="translate(28.15,297.05)" d="M3,0A3,3 0 1,1 0,-3A3,3 0 0,1 3,0Z" style="opacity: 1; stroke-width: 0px; fill: rgb(99, 110, 250); fill-opacity: 1;"/><path class="point" transform="translate(18.3,296.98)" d="M3,0A3,3 0 1,1 0,-3A3,3 0 0,1 3,0Z" style="opacity: 1; stroke-width: 0px; fill: rgb(99, 110, 250); fill-opacity: 1;"/><path class="point" transform="translate(26.86,296.8)" d="M3,0A3,3 0 1,1 0,-3A3,3 0 0,1 3,0Z" style="opacity: 1; stroke-width: 0px; fill: rgb(99, 110, 250); fill-opacity: 1;"/><path class="point" transform="translate(31.87,296.65)" d="M3,0A3,3 0 1,1 0,-3A3,3 0 0,1 3,0Z" style="opacity: 1; stroke-width: 0px; fill: rgb(99, 110, 250); fill-opacity: 1;"/><path class="point" transform="translate(39.51,296.57)" d="M3,0A3,3 0 1,1 0,-3A3,3 0 0,1 3,0Z" style="opacity: 1; stroke-width: 0px; fill: rgb(99, 110, 250); fill-opacity: 1;"/><path class="point" transform="translate(34.02,296.37)" d="M3,0A3,3 0 1,1 0,-3A3,3 0 0,1 3,0Z" style="opacity: 1; stroke-width: 0px; fill: rgb(99, 110, 250); fill-opacity: 1;"/><path class="point" transform="translate(27.64,296.22)" d="M3,0A3,3 0 1,1 0,-3A3,3 0 0,1 3,0Z" style="opacity: 1; stroke-width: 0px; fill: rgb(99, 110, 250); fill-opacity: 1;"/><path class="point" transform="translate(18.67,296.22)" d="M3,0A3,3 0 1,1 0,-3A3,3 0 0,1 3,0Z" style="opacity: 1; stroke-width: 0px; fill: rgb(99, 110, 250); fill-opacity: 1;"/><path class="point" transform="translate(32.17,296.19)" d="M3,0A3,3 0 1,1 0,-3A3,3 0 0,1 3,0Z" style="opacity: 1; stroke-width: 0px; fill: rgb(99, 110, 250); fill-opacity: 1;"/><path class="point" transform="translate(27.48,296.07)" d="M3,0A3,3 0 1,1 0,-3A3,3 0 0,1 3,0Z" style="opacity: 1; stroke-width: 0px; fill: rgb(99, 110, 250); fill-opacity: 1;"/><path class="point" transform="translate(39.76,296.04)" d="M3,0A3,3 0 1,1 0,-3A3,3 0 0,1 3,0Z" style="opacity: 1; stroke-width: 0px; fill: rgb(99, 110, 250); fill-opacity: 1;"/><path class="point" transform="translate(30.78,295.99)" d="M3,0A3,3 0 1,1 0,-3A3,3 0 0,1 3,0Z" style="opacity: 1; stroke-width: 0px; fill: rgb(99, 110, 250); fill-opacity: 1;"/><path class="point" transform="translate(21.61,295.97)" d="M3,0A3,3 0 1,1 0,-3A3,3 0 0,1 3,0Z" style="opacity: 1; stroke-width: 0px; fill: rgb(99, 110, 250); fill-opacity: 1;"/><path class="point" transform="translate(17.1,295.84)" d="M3,0A3,3 0 1,1 0,-3A3,3 0 0,1 3,0Z" style="opacity: 1; stroke-width: 0px; fill: rgb(99, 110, 250); fill-opacity: 1;"/><path class="point" transform="translate(41.36,295.79)" d="M3,0A3,3 0 1,1 0,-3A3,3 0 0,1 3,0Z" style="opacity: 1; stroke-width: 0px; fill: rgb(99, 110, 250); fill-opacity: 1;"/><path class="point" transform="translate(18.37,295.74)" d="M3,0A3,3 0 1,1 0,-3A3,3 0 0,1 3,0Z" style="opacity: 1; stroke-width: 0px; fill: rgb(99, 110, 250); fill-opacity: 1;"/><path class="point" transform="translate(41.85,295.69)" d="M3,0A3,3 0 1,1 0,-3A3,3 0 0,1 3,0Z" style="opacity: 1; stroke-width: 0px; fill: rgb(99, 110, 250); fill-opacity: 1;"/><path class="point" transform="translate(35.76,295.64)" d="M3,0A3,3 0 1,1 0,-3A3,3 0 0,1 3,0Z" style="opacity: 1; stroke-width: 0px; fill: rgb(99, 110, 250); fill-opacity: 1;"/><path class="point" transform="translate(27.38,295.56)" d="M3,0A3,3 0 1,1 0,-3A3,3 0 0,1 3,0Z" style="opacity: 1; stroke-width: 0px; fill: rgb(99, 110, 250); fill-opacity: 1;"/><path class="point" transform="translate(22.62,295.54)" d="M3,0A3,3 0 1,1 0,-3A3,3 0 0,1 3,0Z" style="opacity: 1; stroke-width: 0px; fill: rgb(99, 110, 250); fill-opacity: 1;"/><path class="point" transform="translate(39.53,295.54)" d="M3,0A3,3 0 1,1 0,-3A3,3 0 0,1 3,0Z" style="opacity: 1; stroke-width: 0px; fill: rgb(99, 110, 250); fill-opacity: 1;"/><path class="point" transform="translate(30.48,295.46)" d="M3,0A3,3 0 1,1 0,-3A3,3 0 0,1 3,0Z" style="opacity: 1; stroke-width: 0px; fill: rgb(99, 110, 250); fill-opacity: 1;"/><path class="point" transform="translate(43.35,295.21)" d="M3,0A3,3 0 1,1 0,-3A3,3 0 0,1 3,0Z" style="opacity: 1; stroke-width: 0px; fill: rgb(99, 110, 250); fill-opacity: 1;"/><path class="point" transform="translate(18.59,294.98)" d="M3,0A3,3 0 1,1 0,-3A3,3 0 0,1 3,0Z" style="opacity: 1; stroke-width: 0px; fill: rgb(99, 110, 250); fill-opacity: 1;"/><path class="point" transform="translate(42.56,294.93)" d="M3,0A3,3 0 1,1 0,-3A3,3 0 0,1 3,0Z" style="opacity: 1; stroke-width: 0px; fill: rgb(99, 110, 250); fill-opacity: 1;"/><path class="point" transform="translate(30.88,294.78)" d="M3,0A3,3 0 1,1 0,-3A3,3 0 0,1 3,0Z" style="opacity: 1; stroke-width: 0px; fill: rgb(99, 110, 250); fill-opacity: 1;"/><path class="point" transform="translate(25.85,294.66)" d="M3,0A3,3 0 1,1 0,-3A3,3 0 0,1 3,0Z" style="opacity: 1; stroke-width: 0px; fill: rgb(99, 110, 250); fill-opacity: 1;"/><path class="point" transform="translate(16.26,294.38)" d="M3,0A3,3 0 1,1 0,-3A3,3 0 0,1 3,0Z" style="opacity: 1; stroke-width: 0px; fill: rgb(99, 110, 250); fill-opacity: 1;"/><path class="point" transform="translate(25.88,294.38)" d="M3,0A3,3 0 1,1 0,-3A3,3 0 0,1 3,0Z" style="opacity: 1; stroke-width: 0px; fill: rgb(99, 110, 250); fill-opacity: 1;"/><path class="point" transform="translate(43.04,294.28)" d="M3,0A3,3 0 1,1 0,-3A3,3 0 0,1 3,0Z" style="opacity: 1; stroke-width: 0px; fill: rgb(99, 110, 250); fill-opacity: 1;"/><path class="point" transform="translate(28.34,294.18)" d="M3,0A3,3 0 1,1 0,-3A3,3 0 0,1 3,0Z" style="opacity: 1; stroke-width: 0px; fill: rgb(99, 110, 250); fill-opacity: 1;"/><path class="point" transform="translate(19.63,294.05)" d="M3,0A3,3 0 1,1 0,-3A3,3 0 0,1 3,0Z" style="opacity: 1; stroke-width: 0px; fill: rgb(99, 110, 250); fill-opacity: 1;"/><path class="point" transform="translate(40.06,293.67)" d="M3,0A3,3 0 1,1 0,-3A3,3 0 0,1 3,0Z" style="opacity: 1; stroke-width: 0px; fill: rgb(99, 110, 250); fill-opacity: 1;"/><path class="point" transform="translate(23.53,293.52)" d="M3,0A3,3 0 1,1 0,-3A3,3 0 0,1 3,0Z" style="opacity: 1; stroke-width: 0px; fill: rgb(99, 110, 250); fill-opacity: 1;"/><path class="point" transform="translate(32.22,293.44)" d="M3,0A3,3 0 1,1 0,-3A3,3 0 0,1 3,0Z" style="opacity: 1; stroke-width: 0px; fill: rgb(99, 110, 250); fill-opacity: 1;"/><path class="point" transform="translate(39.15,293.42)" d="M3,0A3,3 0 1,1 0,-3A3,3 0 0,1 3,0Z" style="opacity: 1; stroke-width: 0px; fill: rgb(99, 110, 250); fill-opacity: 1;"/><path class="point" transform="translate(16.48,293.39)" d="M3,0A3,3 0 1,1 0,-3A3,3 0 0,1 3,0Z" style="opacity: 1; stroke-width: 0px; fill: rgb(99, 110, 250); fill-opacity: 1;"/><path class="point" transform="translate(47.4,293.39)" d="M3,0A3,3 0 1,1 0,-3A3,3 0 0,1 3,0Z" style="opacity: 1; stroke-width: 0px; fill: rgb(99, 110, 250); fill-opacity: 1;"/><path class="point" transform="translate(38.94,293.24)" d="M3,0A3,3 0 1,1 0,-3A3,3 0 0,1 3,0Z" style="opacity: 1; stroke-width: 0px; fill: rgb(99, 110, 250); fill-opacity: 1;"/><path class="point" transform="translate(17.88,293.22)" d="M3,0A3,3 0 1,1 0,-3A3,3 0 0,1 3,0Z" style="opacity: 1; stroke-width: 0px; fill: rgb(99, 110, 250); fill-opacity: 1;"/><path class="point" transform="translate(45.06,293.22)" d="M3,0A3,3 0 1,1 0,-3A3,3 0 0,1 3,0Z" style="opacity: 1; stroke-width: 0px; fill: rgb(99, 110, 250); fill-opacity: 1;"/><path class="point" transform="translate(20.31,293.22)" d="M3,0A3,3 0 1,1 0,-3A3,3 0 0,1 3,0Z" style="opacity: 1; stroke-width: 0px; fill: rgb(99, 110, 250); fill-opacity: 1;"/><path class="point" transform="translate(30.27,293.22)" d="M3,0A3,3 0 1,1 0,-3A3,3 0 0,1 3,0Z" style="opacity: 1; stroke-width: 0px; fill: rgb(99, 110, 250); fill-opacity: 1;"/><path class="point" transform="translate(34.24,293.14)" d="M3,0A3,3 0 1,1 0,-3A3,3 0 0,1 3,0Z" style="opacity: 1; stroke-width: 0px; fill: rgb(99, 110, 250); fill-opacity: 1;"/><path class="point" transform="translate(25.49,293.12)" d="M3,0A3,3 0 1,1 0,-3A3,3 0 0,1 3,0Z" style="opacity: 1; stroke-width: 0px; fill: rgb(99, 110, 250); fill-opacity: 1;"/><path class="point" transform="translate(42.56,293.02)" d="M3,0A3,3 0 1,1 0,-3A3,3 0 0,1 3,0Z" style="opacity: 1; stroke-width: 0px; fill: rgb(99, 110, 250); fill-opacity: 1;"/><path class="point" transform="translate(22.09,292.97)" d="M3,0A3,3 0 1,1 0,-3A3,3 0 0,1 3,0Z" style="opacity: 1; stroke-width: 0px; fill: rgb(99, 110, 250); fill-opacity: 1;"/><path class="point" transform="translate(38.35,292.74)" d="M3,0A3,3 0 1,1 0,-3A3,3 0 0,1 3,0Z" style="opacity: 1; stroke-width: 0px; fill: rgb(99, 110, 250); fill-opacity: 1;"/><path class="point" transform="translate(44.08,292.56)" d="M3,0A3,3 0 1,1 0,-3A3,3 0 0,1 3,0Z" style="opacity: 1; stroke-width: 0px; fill: rgb(99, 110, 250); fill-opacity: 1;"/><path class="point" transform="translate(17,292.44)" d="M3,0A3,3 0 1,1 0,-3A3,3 0 0,1 3,0Z" style="opacity: 1; stroke-width: 0px; fill: rgb(99, 110, 250); fill-opacity: 1;"/><path class="point" transform="translate(23.3,291.78)" d="M3,0A3,3 0 1,1 0,-3A3,3 0 0,1 3,0Z" style="opacity: 1; stroke-width: 0px; fill: rgb(99, 110, 250); fill-opacity: 1;"/><path class="point" transform="translate(40.91,291.5)" d="M3,0A3,3 0 1,1 0,-3A3,3 0 0,1 3,0Z" style="opacity: 1; stroke-width: 0px; fill: rgb(99, 110, 250); fill-opacity: 1;"/><path class="point" transform="translate(28.03,291.35)" d="M3,0A3,3 0 1,1 0,-3A3,3 0 0,1 3,0Z" style="opacity: 1; stroke-width: 0px; fill: rgb(99, 110, 250); fill-opacity: 1;"/><path class="point" transform="translate(33.42,291.33)" d="M3,0A3,3 0 1,1 0,-3A3,3 0 0,1 3,0Z" style="opacity: 1; stroke-width: 0px; fill: rgb(99, 110, 250); fill-opacity: 1;"/><path class="point" transform="translate(44.07,291)" d="M3,0A3,3 0 1,1 0,-3A3,3 0 0,1 3,0Z" style="opacity: 1; stroke-width: 0px; fill: rgb(99, 110, 250); fill-opacity: 1;"/><path class="point" transform="translate(20.29,290.8)" d="M3,0A3,3 0 1,1 0,-3A3,3 0 0,1 3,0Z" style="opacity: 1; stroke-width: 0px; fill: rgb(99, 110, 250); fill-opacity: 1;"/><path class="point" transform="translate(46.97,290.67)" d="M3,0A3,3 0 1,1 0,-3A3,3 0 0,1 3,0Z" style="opacity: 1; stroke-width: 0px; fill: rgb(99, 110, 250); fill-opacity: 1;"/><path class="point" transform="translate(22.1,290.6)" d="M3,0A3,3 0 1,1 0,-3A3,3 0 0,1 3,0Z" style="opacity: 1; stroke-width: 0px; fill: rgb(99, 110, 250); fill-opacity: 1;"/><path class="point" transform="translate(44.46,289.66)" d="M3,0A3,3 0 1,1 0,-3A3,3 0 0,1 3,0Z" style="opacity: 1; stroke-width: 0px; fill: rgb(99, 110, 250); fill-opacity: 1;"/><path class="point" transform="translate(26.2,289.13)" d="M3,0A3,3 0 1,1 0,-3A3,3 0 0,1 3,0Z" style="opacity: 1; stroke-width: 0px; fill: rgb(99, 110, 250); fill-opacity: 1;"/><path class="point" transform="translate(41.77,289.08)" d="M3,0A3,3 0 1,1 0,-3A3,3 0 0,1 3,0Z" style="opacity: 1; stroke-width: 0px; fill: rgb(99, 110, 250); fill-opacity: 1;"/><path class="point" transform="translate(34.79,288.58)" d="M3,0A3,3 0 1,1 0,-3A3,3 0 0,1 3,0Z" style="opacity: 1; stroke-width: 0px; fill: rgb(99, 110, 250); fill-opacity: 1;"/><path class="point" transform="translate(31.08,287.87)" d="M3,0A3,3 0 1,1 0,-3A3,3 0 0,1 3,0Z" style="opacity: 1; stroke-width: 0px; fill: rgb(99, 110, 250); fill-opacity: 1;"/><path class="point" transform="translate(30.36,287.17)" d="M3,0A3,3 0 1,1 0,-3A3,3 0 0,1 3,0Z" style="opacity: 1; stroke-width: 0px; fill: rgb(99, 110, 250); fill-opacity: 1;"/><path class="point" transform="translate(31.9,286.84)" d="M3,0A3,3 0 1,1 0,-3A3,3 0 0,1 3,0Z" style="opacity: 1; stroke-width: 0px; fill: rgb(99, 110, 250); fill-opacity: 1;"/><path class="point" transform="translate(30.83,286.81)" d="M3,0A3,3 0 1,1 0,-3A3,3 0 0,1 3,0Z" style="opacity: 1; stroke-width: 0px; fill: rgb(99, 110, 250); fill-opacity: 1;"/><path class="point" transform="translate(31.3,282.9)" d="M3,0A3,3 0 1,1 0,-3A3,3 0 0,1 3,0Z" style="opacity: 1; stroke-width: 0px; fill: rgb(99, 110, 250); fill-opacity: 1;"/><path class="point" transform="translate(30.98,281.72)" d="M3,0A3,3 0 1,1 0,-3A3,3 0 0,1 3,0Z" style="opacity: 1; stroke-width: 0px; fill: rgb(99, 110, 250); fill-opacity: 1;"/><path class="point" transform="translate(30.74,124.4)" d="M3,0A3,3 0 1,1 0,-3A3,3 0 0,1 3,0Z" style="opacity: 1; stroke-width: 0px; fill: rgb(99, 110, 250); fill-opacity: 1;"/><path class="point" transform="translate(31.48,115.22)" d="M3,0A3,3 0 1,1 0,-3A3,3 0 0,1 3,0Z" style="opacity: 1; stroke-width: 0px; fill: rgb(99, 110, 250); fill-opacity: 1;"/><path class="point" transform="translate(32.65,55.88)" d="M3,0A3,3 0 1,1 0,-3A3,3 0 0,1 3,0Z" style="opacity: 1; stroke-width: 0px; fill: rgb(99, 110, 250); fill-opacity: 1;"/><path class="point" transform="translate(31.19,55.05)" d="M3,0A3,3 0 1,1 0,-3A3,3 0 0,1 3,0Z" style="opacity: 1; stroke-width: 0px; fill: rgb(99, 110, 250); fill-opacity: 1;"/></g></g><g class="trace violins" style="opacity: 1;"><path class="violin" d="M334.18,303.04Q334.44,302.97 334.59,302.94C334.78,302.9 335,302.87 335.24,302.84C335.52,302.8 335.84,302.78 336.17,302.75C336.55,302.72 336.96,302.68 337.39,302.65C337.86,302.61 338.37,302.58 338.88,302.55C339.42,302.52 339.99,302.49 340.56,302.46C341.14,302.43 341.74,302.39 342.34,302.36C342.95,302.33 343.56,302.29 344.17,302.26C344.78,302.23 345.4,302.19 346.02,302.16C346.65,302.13 347.27,302.1 347.91,302.07C348.56,302.04 349.21,302 349.89,301.97C350.6,301.94 351.32,301.9 352.07,301.87C352.88,301.84 353.71,301.81 354.58,301.78C355.52,301.75 356.5,301.71 357.53,301.68C358.66,301.65 359.84,301.61 361.07,301.58C362.41,301.55 363.83,301.52 365.28,301.49C366.83,301.46 368.47,301.42 370.11,301.39C371.82,301.36 373.61,301.32 375.35,301.29C377.07,301.26 378.85,301.22 380.48,301.19C381.96,301.16 383.49,301.14 384.73,301.1C385.7,301.07 386.83,301.07 387.33,301C387.54,300.97 387.77,300.93 387.77,300.9C387.77,300.85 386.71,300.84 386.03,300.81C385.08,300.77 383.8,300.74 382.59,300.71C381.23,300.67 379.71,300.64 378.24,300.61C376.74,300.58 375.19,300.54 373.69,300.51C372.23,300.48 370.77,300.45 369.35,300.42C367.97,300.39 366.63,300.35 365.28,300.32C363.95,300.29 362.65,300.25 361.33,300.22C360.01,300.19 358.68,300.16 357.36,300.13C356.05,300.1 354.72,300.06 353.44,300.03C352.21,300 350.97,299.96 349.81,299.93C348.75,299.9 347.7,299.88 346.77,299.84C345.99,299.81 345.23,299.78 344.61,299.74C344.15,299.71 343.7,299.69 343.4,299.64C343.23,299.61 343.01,299.59 342.99,299.54C342.98,299.51 343.02,299.48 343.05,299.45C343.09,299.41 343.2,299.39 343.21,299.35C343.22,299.32 343.19,299.28 343.15,299.25C343.07,299.2 342.87,299.19 342.7,299.16C342.46,299.12 342.15,299.09 341.85,299.06C341.5,299.02 341.11,298.99 340.72,298.96C340.31,298.93 339.87,298.89 339.45,298.86C339.04,298.83 338.61,298.8 338.22,298.77C337.86,298.74 337.49,298.71 337.17,298.67C336.9,298.64 336.62,298.61 336.41,298.57C336.25,298.54 336.07,298.53 336,298.48C335.96,298.45 335.93,298.41 335.94,298.38C335.95,298.34 336.08,298.31 336.17,298.28C336.29,298.24 336.44,298.22 336.58,298.19C336.72,298.16 336.88,298.12 337.02,298.09C337.15,298.06 337.28,298.03 337.39,297.99C337.48,297.96 337.56,297.93 337.63,297.89C337.68,297.86 337.73,297.83 337.77,297.8C337.81,297.77 337.84,297.73 337.89,297.7C337.95,297.66 338.02,297.63 338.1,297.6C338.2,297.56 338.33,297.54 338.46,297.51C338.6,297.48 338.76,297.45 338.89,297.41C339.01,297.38 339.17,297.36 339.23,297.31C339.26,297.28 339.29,297.24 339.28,297.21C339.26,297.16 339.06,297.15 338.92,297.12C338.71,297.08 338.43,297.05 338.16,297.02C337.85,296.98 337.5,296.95 337.17,296.92C336.83,296.89 336.47,296.86 336.14,296.83C335.83,296.8 335.53,296.77 335.26,296.73C335.03,296.7 334.8,296.67 334.61,296.63Q334.45,296.6 334.19,296.54L333.31,296.54Q333.05,296.6 332.89,296.63C332.7,296.67 332.47,296.7 332.24,296.73C331.97,296.77 331.67,296.8 331.36,296.83C331.03,296.86 330.67,296.89 330.33,296.92C330,296.95 329.65,296.98 329.34,297.02C329.07,297.05 328.79,297.08 328.58,297.12C328.44,297.15 328.24,297.16 328.22,297.21C328.21,297.24 328.24,297.28 328.27,297.31C328.33,297.36 328.49,297.38 328.61,297.41C328.74,297.45 328.9,297.48 329.04,297.51C329.17,297.54 329.3,297.56 329.4,297.6C329.48,297.63 329.55,297.66 329.61,297.7C329.66,297.73 329.69,297.77 329.73,297.8C329.77,297.83 329.82,297.86 329.87,297.89C329.94,297.93 330.02,297.96 330.11,297.99C330.22,298.03 330.35,298.06 330.48,298.09C330.62,298.12 330.78,298.16 330.92,298.19C331.06,298.22 331.21,298.24 331.33,298.28C331.42,298.31 331.55,298.34 331.56,298.38C331.57,298.41 331.54,298.45 331.5,298.48C331.43,298.53 331.25,298.54 331.09,298.57C330.88,298.61 330.6,298.64 330.33,298.67C330.01,298.71 329.64,298.74 329.28,298.77C328.89,298.8 328.46,298.83 328.05,298.86C327.63,298.89 327.19,298.93 326.78,298.96C326.39,298.99 326,299.02 325.65,299.06C325.35,299.09 325.04,299.12 324.8,299.16C324.63,299.19 324.43,299.2 324.35,299.25C324.31,299.28 324.28,299.32 324.29,299.35C324.3,299.39 324.41,299.41 324.45,299.45C324.48,299.48 324.52,299.51 324.51,299.54C324.49,299.59 324.27,299.61 324.1,299.64C323.8,299.69 323.35,299.71 322.89,299.74C322.27,299.78 321.51,299.81 320.73,299.84C319.8,299.88 318.75,299.9 317.69,299.93C316.53,299.96 315.29,300 314.06,300.03C312.78,300.06 311.45,300.1 310.14,300.13C308.82,300.16 307.49,300.19 306.17,300.22C304.85,300.25 303.55,300.29 302.22,300.32C300.87,300.35 299.53,300.39 298.15,300.42C296.73,300.45 295.27,300.48 293.81,300.51C292.31,300.54 290.76,300.58 289.26,300.61C287.79,300.64 286.27,300.67 284.91,300.71C283.7,300.74 282.42,300.77 281.47,300.81C280.79,300.84 279.73,300.85 279.73,300.9C279.73,300.93 279.96,300.97 280.17,301C280.67,301.07 281.8,301.07 282.77,301.1C284.01,301.14 285.54,301.16 287.02,301.19C288.65,301.22 290.43,301.26 292.15,301.29C293.89,301.32 295.68,301.36 297.39,301.39C299.03,301.42 300.67,301.46 302.22,301.49C303.67,301.52 305.09,301.55 306.43,301.58C307.66,301.61 308.84,301.65 309.97,301.68C311,301.71 311.98,301.75 312.92,301.78C313.79,301.81 314.62,301.84 315.43,301.87C316.18,301.9 316.9,301.94 317.61,301.97C318.29,302 318.94,302.04 319.59,302.07C320.23,302.1 320.85,302.13 321.48,302.16C322.1,302.19 322.72,302.23 323.33,302.26C323.94,302.29 324.55,302.33 325.16,302.36C325.76,302.39 326.36,302.43 326.94,302.46C327.51,302.49 328.08,302.52 328.62,302.55C329.13,302.58 329.64,302.61 330.11,302.65C330.54,302.68 330.95,302.72 331.33,302.75C331.66,302.78 331.98,302.8 332.26,302.84C332.5,302.87 332.72,302.9 332.91,302.94Q333.06,302.97 333.32,303.04Z" style="vector-effect: non-scaling-stroke; stroke-width: 2px; stroke: rgb(239, 85, 59); stroke-opacity: 1; fill: rgb(239, 85, 59); fill-opacity: 0.5;"/><g class="points"><path class="point" transform="translate(255.69,302.45)" d="M3,0A3,3 0 1,1 0,-3A3,3 0 0,1 3,0Z" style="opacity: 1; stroke-width: 0px; fill: rgb(239, 85, 59); fill-opacity: 1;"/><path class="point" transform="translate(248.72,302.45)" d="M3,0A3,3 0 1,1 0,-3A3,3 0 0,1 3,0Z" style="opacity: 1; stroke-width: 0px; fill: rgb(239, 85, 59); fill-opacity: 1;"/><path class="point" transform="translate(257.06,302.27)" d="M3,0A3,3 0 1,1 0,-3A3,3 0 0,1 3,0Z" style="opacity: 1; stroke-width: 0px; fill: rgb(239, 85, 59); fill-opacity: 1;"/><path class="point" transform="translate(247.77,302.12)" d="M3,0A3,3 0 1,1 0,-3A3,3 0 0,1 3,0Z" style="opacity: 1; stroke-width: 0px; fill: rgb(239, 85, 59); fill-opacity: 1;"/><path class="point" transform="translate(251.35,302.07)" d="M3,0A3,3 0 1,1 0,-3A3,3 0 0,1 3,0Z" style="opacity: 1; stroke-width: 0px; fill: rgb(239, 85, 59); fill-opacity: 1;"/><path class="point" transform="translate(255.78,302.07)" d="M3,0A3,3 0 1,1 0,-3A3,3 0 0,1 3,0Z" style="opacity: 1; stroke-width: 0px; fill: rgb(239, 85, 59); fill-opacity: 1;"/><path class="point" transform="translate(252.5,302.07)" d="M3,0A3,3 0 1,1 0,-3A3,3 0 0,1 3,0Z" style="opacity: 1; stroke-width: 0px; fill: rgb(239, 85, 59); fill-opacity: 1;"/><path class="point" transform="translate(254.61,301.89)" d="M3,0A3,3 0 1,1 0,-3A3,3 0 0,1 3,0Z" style="opacity: 1; stroke-width: 0px; fill: rgb(239, 85, 59); fill-opacity: 1;"/><path class="point" transform="translate(250.29,301.87)" d="M3,0A3,3 0 1,1 0,-3A3,3 0 0,1 3,0Z" style="opacity: 1; stroke-width: 0px; fill: rgb(239, 85, 59); fill-opacity: 1;"/><path class="point" transform="translate(247.7,301.72)" d="M3,0A3,3 0 1,1 0,-3A3,3 0 0,1 3,0Z" style="opacity: 1; stroke-width: 0px; fill: rgb(239, 85, 59); fill-opacity: 1;"/><path class="point" transform="translate(254.5,301.72)" d="M3,0A3,3 0 1,1 0,-3A3,3 0 0,1 3,0Z" style="opacity: 1; stroke-width: 0px; fill: rgb(239, 85, 59); fill-opacity: 1;"/><path class="point" transform="translate(250.56,301.69)" d="M3,0A3,3 0 1,1 0,-3A3,3 0 0,1 3,0Z" style="opacity: 1; stroke-width: 0px; fill: rgb(239, 85, 59); fill-opacity: 1;"/><path class="point" transform="translate(257.41,301.69)" d="M3,0A3,3 0 1,1 0,-3A3,3 0 0,1 3,0Z" style="opacity: 1; stroke-width: 0px; fill: rgb(239, 85, 59); fill-opacity: 1;"/><path class="point" transform="translate(245.31,301.69)" d="M3,0A3,3 0 1,1 0,-3A3,3 0 0,1 3,0Z" style="opacity: 1; stroke-width: 0px; fill: rgb(239, 85, 59); fill-opacity: 1;"/><path class="point" transform="translate(247.86,301.54)" d="M3,0A3,3 0 1,1 0,-3A3,3 0 0,1 3,0Z" style="opacity: 1; stroke-width: 0px; fill: rgb(239, 85, 59); fill-opacity: 1;"/><path class="point" transform="translate(260.14,301.51)" d="M3,0A3,3 0 1,1 0,-3A3,3 0 0,1 3,0Z" style="opacity: 1; stroke-width: 0px; fill: rgb(239, 85, 59); fill-opacity: 1;"/><path class="point" transform="translate(250.53,301.49)" d="M3,0A3,3 0 1,1 0,-3A3,3 0 0,1 3,0Z" style="opacity: 1; stroke-width: 0px; fill: rgb(239, 85, 59); fill-opacity: 1;"/><path class="point" transform="translate(245.52,301.44)" d="M3,0A3,3 0 1,1 0,-3A3,3 0 0,1 3,0Z" style="opacity: 1; stroke-width: 0px; fill: rgb(239, 85, 59); fill-opacity: 1;"/><path class="point" transform="translate(250.12,301.44)" d="M3,0A3,3 0 1,1 0,-3A3,3 0 0,1 3,0Z" style="opacity: 1; stroke-width: 0px; fill: rgb(239, 85, 59); fill-opacity: 1;"/><path class="point" transform="translate(252.52,301.36)" d="M3,0A3,3 0 1,1 0,-3A3,3 0 0,1 3,0Z" style="opacity: 1; stroke-width: 0px; fill: rgb(239, 85, 59); fill-opacity: 1;"/><path class="point" transform="translate(256.79,301.36)" d="M3,0A3,3 0 1,1 0,-3A3,3 0 0,1 3,0Z" style="opacity: 1; stroke-width: 0px; fill: rgb(239, 85, 59); fill-opacity: 1;"/><path class="point" transform="translate(253.72,301.36)" d="M3,0A3,3 0 1,1 0,-3A3,3 0 0,1 3,0Z" style="opacity: 1; stroke-width: 0px; fill: rgb(239, 85, 59); fill-opacity: 1;"/><path class="point" transform="translate(249.92,301.34)" d="M3,0A3,3 0 1,1 0,-3A3,3 0 0,1 3,0Z" style="opacity: 1; stroke-width: 0px; fill: rgb(239, 85, 59); fill-opacity: 1;"/><path class="point" transform="translate(244.81,301.29)" d="M3,0A3,3 0 1,1 0,-3A3,3 0 0,1 3,0Z" style="opacity: 1; stroke-width: 0px; fill: rgb(239, 85, 59); fill-opacity: 1;"/><path class="point" transform="translate(252.68,301.24)" d="M3,0A3,3 0 1,1 0,-3A3,3 0 0,1 3,0Z" style="opacity: 1; stroke-width: 0px; fill: rgb(239, 85, 59); fill-opacity: 1;"/><path class="point" transform="translate(249.95,301.21)" d="M3,0A3,3 0 1,1 0,-3A3,3 0 0,1 3,0Z" style="opacity: 1; stroke-width: 0px; fill: rgb(239, 85, 59); fill-opacity: 1;"/><path class="point" transform="translate(257.12,301.19)" d="M3,0A3,3 0 1,1 0,-3A3,3 0 0,1 3,0Z" style="opacity: 1; stroke-width: 0px; fill: rgb(239, 85, 59); fill-opacity: 1;"/><path class="point" transform="translate(251.88,301.19)" d="M3,0A3,3 0 1,1 0,-3A3,3 0 0,1 3,0Z" style="opacity: 1; stroke-width: 0px; fill: rgb(239, 85, 59); fill-opacity: 1;"/><path class="point" transform="translate(246.22,301.16)" d="M3,0A3,3 0 1,1 0,-3A3,3 0 0,1 3,0Z" style="opacity: 1; stroke-width: 0px; fill: rgb(239, 85, 59); fill-opacity: 1;"/><path class="point" transform="translate(242.36,301.16)" d="M3,0A3,3 0 1,1 0,-3A3,3 0 0,1 3,0Z" style="opacity: 1; stroke-width: 0px; fill: rgb(239, 85, 59); fill-opacity: 1;"/><path class="point" transform="translate(259.41,301.09)" d="M3,0A3,3 0 1,1 0,-3A3,3 0 0,1 3,0Z" style="opacity: 1; stroke-width: 0px; fill: rgb(239, 85, 59); fill-opacity: 1;"/><path class="point" transform="translate(242.58,301.09)" d="M3,0A3,3 0 1,1 0,-3A3,3 0 0,1 3,0Z" style="opacity: 1; stroke-width: 0px; fill: rgb(239, 85, 59); fill-opacity: 1;"/><path class="point" transform="translate(259.31,301.06)" d="M3,0A3,3 0 1,1 0,-3A3,3 0 0,1 3,0Z" style="opacity: 1; stroke-width: 0px; fill: rgb(239, 85, 59); fill-opacity: 1;"/><path class="point" transform="translate(255.31,301.04)" d="M3,0A3,3 0 1,1 0,-3A3,3 0 0,1 3,0Z" style="opacity: 1; stroke-width: 0px; fill: rgb(239, 85, 59); fill-opacity: 1;"/><path class="point" transform="translate(249.18,301.04)" d="M3,0A3,3 0 1,1 0,-3A3,3 0 0,1 3,0Z" style="opacity: 1; stroke-width: 0px; fill: rgb(239, 85, 59); fill-opacity: 1;"/><path class="point" transform="translate(244.41,301.04)" d="M3,0A3,3 0 1,1 0,-3A3,3 0 0,1 3,0Z" style="opacity: 1; stroke-width: 0px; fill: rgb(239, 85, 59); fill-opacity: 1;"/><path class="point" transform="translate(258.5,301.01)" d="M3,0A3,3 0 1,1 0,-3A3,3 0 0,1 3,0Z" style="opacity: 1; stroke-width: 0px; fill: rgb(239, 85, 59); fill-opacity: 1;"/><path class="point" transform="translate(251.21,300.98)" d="M3,0A3,3 0 1,1 0,-3A3,3 0 0,1 3,0Z" style="opacity: 1; stroke-width: 0px; fill: rgb(239, 85, 59); fill-opacity: 1;"/><path class="point" transform="translate(263.49,300.98)" d="M3,0A3,3 0 1,1 0,-3A3,3 0 0,1 3,0Z" style="opacity: 1; stroke-width: 0px; fill: rgb(239, 85, 59); fill-opacity: 1;"/><path class="point" transform="translate(240.91,300.98)" d="M3,0A3,3 0 1,1 0,-3A3,3 0 0,1 3,0Z" style="opacity: 1; stroke-width: 0px; fill: rgb(239, 85, 59); fill-opacity: 1;"/><path class="point" transform="translate(261.68,300.96)" d="M3,0A3,3 0 1,1 0,-3A3,3 0 0,1 3,0Z" style="opacity: 1; stroke-width: 0px; fill: rgb(239, 85, 59); fill-opacity: 1;"/><path class="point" transform="translate(251.42,300.93)" d="M3,0A3,3 0 1,1 0,-3A3,3 0 0,1 3,0Z" style="opacity: 1; stroke-width: 0px; fill: rgb(239, 85, 59); fill-opacity: 1;"/><path class="point" transform="translate(246.35,300.93)" d="M3,0A3,3 0 1,1 0,-3A3,3 0 0,1 3,0Z" style="opacity: 1; stroke-width: 0px; fill: rgb(239, 85, 59); fill-opacity: 1;"/><path class="point" transform="translate(236.76,300.93)" d="M3,0A3,3 0 1,1 0,-3A3,3 0 0,1 3,0Z" style="opacity: 1; stroke-width: 0px; fill: rgb(239, 85, 59); fill-opacity: 1;"/><path class="point" transform="translate(247.23,300.91)" d="M3,0A3,3 0 1,1 0,-3A3,3 0 0,1 3,0Z" style="opacity: 1; stroke-width: 0px; fill: rgb(239, 85, 59); fill-opacity: 1;"/><path class="point" transform="translate(262.09,300.91)" d="M3,0A3,3 0 1,1 0,-3A3,3 0 0,1 3,0Z" style="opacity: 1; stroke-width: 0px; fill: rgb(239, 85, 59); fill-opacity: 1;"/><path class="point" transform="translate(248.96,300.91)" d="M3,0A3,3 0 1,1 0,-3A3,3 0 0,1 3,0Z" style="opacity: 1; stroke-width: 0px; fill: rgb(239, 85, 59); fill-opacity: 1;"/><path class="point" transform="translate(240.53,300.91)" d="M3,0A3,3 0 1,1 0,-3A3,3 0 0,1 3,0Z" style="opacity: 1; stroke-width: 0px; fill: rgb(239, 85, 59); fill-opacity: 1;"/><path class="point" transform="translate(260.31,300.91)" d="M3,0A3,3 0 1,1 0,-3A3,3 0 0,1 3,0Z" style="opacity: 1; stroke-width: 0px; fill: rgb(239, 85, 59); fill-opacity: 1;"/><path class="point" transform="translate(244.03,300.86)" d="M3,0A3,3 0 1,1 0,-3A3,3 0 0,1 3,0Z" style="opacity: 1; stroke-width: 0px; fill: rgb(239, 85, 59); fill-opacity: 1;"/><path class="point" transform="translate(252.72,300.83)" d="M3,0A3,3 0 1,1 0,-3A3,3 0 0,1 3,0Z" style="opacity: 1; stroke-width: 0px; fill: rgb(239, 85, 59); fill-opacity: 1;"/><path class="point" transform="translate(259.65,300.83)" d="M3,0A3,3 0 1,1 0,-3A3,3 0 0,1 3,0Z" style="opacity: 1; stroke-width: 0px; fill: rgb(239, 85, 59); fill-opacity: 1;"/><path class="point" transform="translate(237.48,300.83)" d="M3,0A3,3 0 1,1 0,-3A3,3 0 0,1 3,0Z" style="opacity: 1; stroke-width: 0px; fill: rgb(239, 85, 59); fill-opacity: 1;"/><path class="point" transform="translate(267.42,300.83)" d="M3,0A3,3 0 1,1 0,-3A3,3 0 0,1 3,0Z" style="opacity: 1; stroke-width: 0px; fill: rgb(239, 85, 59); fill-opacity: 1;"/><path class="point" transform="translate(257.64,300.83)" d="M3,0A3,3 0 1,1 0,-3A3,3 0 0,1 3,0Z" style="opacity: 1; stroke-width: 0px; fill: rgb(239, 85, 59); fill-opacity: 1;"/><path class="point" transform="translate(241.38,300.83)" d="M3,0A3,3 0 1,1 0,-3A3,3 0 0,1 3,0Z" style="opacity: 1; stroke-width: 0px; fill: rgb(239, 85, 59); fill-opacity: 1;"/><path class="point" transform="translate(262.12,300.83)" d="M3,0A3,3 0 1,1 0,-3A3,3 0 0,1 3,0Z" style="opacity: 1; stroke-width: 0px; fill: rgb(239, 85, 59); fill-opacity: 1;"/><path class="point" transform="translate(245.03,300.81)" d="M3,0A3,3 0 1,1 0,-3A3,3 0 0,1 3,0Z" style="opacity: 1; stroke-width: 0px; fill: rgb(239, 85, 59); fill-opacity: 1;"/><path class="point" transform="translate(251.46,300.81)" d="M3,0A3,3 0 1,1 0,-3A3,3 0 0,1 3,0Z" style="opacity: 1; stroke-width: 0px; fill: rgb(239, 85, 59); fill-opacity: 1;"/><path class="point" transform="translate(253.8,300.68)" d="M3,0A3,3 0 1,1 0,-3A3,3 0 0,1 3,0Z" style="opacity: 1; stroke-width: 0px; fill: rgb(239, 85, 59); fill-opacity: 1;"/><path class="point" transform="translate(249.11,300.68)" d="M3,0A3,3 0 1,1 0,-3A3,3 0 0,1 3,0Z" style="opacity: 1; stroke-width: 0px; fill: rgb(239, 85, 59); fill-opacity: 1;"/><path class="point" transform="translate(258.27,300.66)" d="M3,0A3,3 0 1,1 0,-3A3,3 0 0,1 3,0Z" style="opacity: 1; stroke-width: 0px; fill: rgb(239, 85, 59); fill-opacity: 1;"/><path class="point" transform="translate(247.28,300.61)" d="M3,0A3,3 0 1,1 0,-3A3,3 0 0,1 3,0Z" style="opacity: 1; stroke-width: 0px; fill: rgb(239, 85, 59); fill-opacity: 1;"/><path class="point" transform="translate(256.01,300.61)" d="M3,0A3,3 0 1,1 0,-3A3,3 0 0,1 3,0Z" style="opacity: 1; stroke-width: 0px; fill: rgb(239, 85, 59); fill-opacity: 1;"/><path class="point" transform="translate(260.37,300.51)" d="M3,0A3,3 0 1,1 0,-3A3,3 0 0,1 3,0Z" style="opacity: 1; stroke-width: 0px; fill: rgb(239, 85, 59); fill-opacity: 1;"/><path class="point" transform="translate(243.4,300.51)" d="M3,0A3,3 0 1,1 0,-3A3,3 0 0,1 3,0Z" style="opacity: 1; stroke-width: 0px; fill: rgb(239, 85, 59); fill-opacity: 1;"/><path class="point" transform="translate(248.1,300.51)" d="M3,0A3,3 0 1,1 0,-3A3,3 0 0,1 3,0Z" style="opacity: 1; stroke-width: 0px; fill: rgb(239, 85, 59); fill-opacity: 1;"/><path class="point" transform="translate(257.58,300.48)" d="M3,0A3,3 0 1,1 0,-3A3,3 0 0,1 3,0Z" style="opacity: 1; stroke-width: 0px; fill: rgb(239, 85, 59); fill-opacity: 1;"/><path class="point" transform="translate(250.47,300.48)" d="M3,0A3,3 0 1,1 0,-3A3,3 0 0,1 3,0Z" style="opacity: 1; stroke-width: 0px; fill: rgb(239, 85, 59); fill-opacity: 1;"/><path class="point" transform="translate(253.56,300.46)" d="M3,0A3,3 0 1,1 0,-3A3,3 0 0,1 3,0Z" style="opacity: 1; stroke-width: 0px; fill: rgb(239, 85, 59); fill-opacity: 1;"/><path class="point" transform="translate(261.61,300.43)" d="M3,0A3,3 0 1,1 0,-3A3,3 0 0,1 3,0Z" style="opacity: 1; stroke-width: 0px; fill: rgb(239, 85, 59); fill-opacity: 1;"/><path class="point" transform="translate(245.4,300.3)" d="M3,0A3,3 0 1,1 0,-3A3,3 0 0,1 3,0Z" style="opacity: 1; stroke-width: 0px; fill: rgb(239, 85, 59); fill-opacity: 1;"/><path class="point" transform="translate(261.74,300.3)" d="M3,0A3,3 0 1,1 0,-3A3,3 0 0,1 3,0Z" style="opacity: 1; stroke-width: 0px; fill: rgb(239, 85, 59); fill-opacity: 1;"/><path class="point" transform="translate(246.47,300.28)" d="M3,0A3,3 0 1,1 0,-3A3,3 0 0,1 3,0Z" style="opacity: 1; stroke-width: 0px; fill: rgb(239, 85, 59); fill-opacity: 1;"/><path class="point" transform="translate(261.31,300.28)" d="M3,0A3,3 0 1,1 0,-3A3,3 0 0,1 3,0Z" style="opacity: 1; stroke-width: 0px; fill: rgb(239, 85, 59); fill-opacity: 1;"/><path class="point" transform="translate(248.5,300.28)" d="M3,0A3,3 0 1,1 0,-3A3,3 0 0,1 3,0Z" style="opacity: 1; stroke-width: 0px; fill: rgb(239, 85, 59); fill-opacity: 1;"/><path class="point" transform="translate(260.6,300.23)" d="M3,0A3,3 0 1,1 0,-3A3,3 0 0,1 3,0Z" style="opacity: 1; stroke-width: 0px; fill: rgb(239, 85, 59); fill-opacity: 1;"/><path class="point" transform="translate(255.28,300.18)" d="M3,0A3,3 0 1,1 0,-3A3,3 0 0,1 3,0Z" style="opacity: 1; stroke-width: 0px; fill: rgb(239, 85, 59); fill-opacity: 1;"/><path class="point" transform="translate(251.59,300.13)" d="M3,0A3,3 0 1,1 0,-3A3,3 0 0,1 3,0Z" style="opacity: 1; stroke-width: 0px; fill: rgb(239, 85, 59); fill-opacity: 1;"/><path class="point" transform="translate(246.69,300.13)" d="M3,0A3,3 0 1,1 0,-3A3,3 0 0,1 3,0Z" style="opacity: 1; stroke-width: 0px; fill: rgb(239, 85, 59); fill-opacity: 1;"/><path class="point" transform="translate(251.8,300.1)" d="M3,0A3,3 0 1,1 0,-3A3,3 0 0,1 3,0Z" style="opacity: 1; stroke-width: 0px; fill: rgb(239, 85, 59); fill-opacity: 1;"/><path class="point" transform="translate(248.41,300.08)" d="M3,0A3,3 0 1,1 0,-3A3,3 0 0,1 3,0Z" style="opacity: 1; stroke-width: 0px; fill: rgb(239, 85, 59); fill-opacity: 1;"/><path class="point" transform="translate(249.8,300)" d="M3,0A3,3 0 1,1 0,-3A3,3 0 0,1 3,0Z" style="opacity: 1; stroke-width: 0px; fill: rgb(239, 85, 59); fill-opacity: 1;"/><path class="point" transform="translate(248.44,299.93)" d="M3,0A3,3 0 1,1 0,-3A3,3 0 0,1 3,0Z" style="opacity: 1; stroke-width: 0px; fill: rgb(239, 85, 59); fill-opacity: 1;"/><path class="point" transform="translate(247.37,299.67)" d="M3,0A3,3 0 1,1 0,-3A3,3 0 0,1 3,0Z" style="opacity: 1; stroke-width: 0px; fill: rgb(239, 85, 59); fill-opacity: 1;"/><path class="point" transform="translate(250.05,299.47)" d="M3,0A3,3 0 1,1 0,-3A3,3 0 0,1 3,0Z" style="opacity: 1; stroke-width: 0px; fill: rgb(239, 85, 59); fill-opacity: 1;"/><path class="point" transform="translate(254.27,299.3)" d="M3,0A3,3 0 1,1 0,-3A3,3 0 0,1 3,0Z" style="opacity: 1; stroke-width: 0px; fill: rgb(239, 85, 59); fill-opacity: 1;"/><path class="point" transform="translate(248.73,299.3)" d="M3,0A3,3 0 1,1 0,-3A3,3 0 0,1 3,0Z" style="opacity: 1; stroke-width: 0px; fill: rgb(239, 85, 59); fill-opacity: 1;"/><path class="point" transform="translate(253.55,299.3)" d="M3,0A3,3 0 1,1 0,-3A3,3 0 0,1 3,0Z" style="opacity: 1; stroke-width: 0px; fill: rgb(239, 85, 59); fill-opacity: 1;"/><path class="point" transform="translate(254.52,299.27)" d="M3,0A3,3 0 1,1 0,-3A3,3 0 0,1 3,0Z" style="opacity: 1; stroke-width: 0px; fill: rgb(239, 85, 59); fill-opacity: 1;"/><path class="point" transform="translate(253.18,299.12)" d="M3,0A3,3 0 1,1 0,-3A3,3 0 0,1 3,0Z" style="opacity: 1; stroke-width: 0px; fill: rgb(239, 85, 59); fill-opacity: 1;"/><path class="point" transform="translate(250.67,298.92)" d="M3,0A3,3 0 1,1 0,-3A3,3 0 0,1 3,0Z" style="opacity: 1; stroke-width: 0px; fill: rgb(239, 85, 59); fill-opacity: 1;"/><path class="point" transform="translate(251.53,298.84)" d="M3,0A3,3 0 1,1 0,-3A3,3 0 0,1 3,0Z" style="opacity: 1; stroke-width: 0px; fill: rgb(239, 85, 59); fill-opacity: 1;"/><path class="point" transform="translate(256.02,298.14)" d="M3,0A3,3 0 1,1 0,-3A3,3 0 0,1 3,0Z" style="opacity: 1; stroke-width: 0px; fill: rgb(239, 85, 59); fill-opacity: 1;"/><path class="point" transform="translate(250.94,297.88)" d="M3,0A3,3 0 1,1 0,-3A3,3 0 0,1 3,0Z" style="opacity: 1; stroke-width: 0px; fill: rgb(239, 85, 59); fill-opacity: 1;"/><path class="point" transform="translate(253.1,297.78)" d="M3,0A3,3 0 1,1 0,-3A3,3 0 0,1 3,0Z" style="opacity: 1; stroke-width: 0px; fill: rgb(239, 85, 59); fill-opacity: 1;"/><path class="point" transform="translate(254.79,297.25)" d="M3,0A3,3 0 1,1 0,-3A3,3 0 0,1 3,0Z" style="opacity: 1; stroke-width: 0px; fill: rgb(239, 85, 59); fill-opacity: 1;"/><path class="point" transform="translate(250.07,297.25)" d="M3,0A3,3 0 1,1 0,-3A3,3 0 0,1 3,0Z" style="opacity: 1; stroke-width: 0px; fill: rgb(239, 85, 59); fill-opacity: 1;"/><path class="point" transform="translate(252.2,297.18)" d="M3,0A3,3 0 1,1 0,-3A3,3 0 0,1 3,0Z" style="opacity: 1; stroke-width: 0px; fill: rgb(239, 85, 59); fill-opacity: 1;"/><path class="point" transform="translate(256.31,297.13)" d="M3,0A3,3 0 1,1 0,-3A3,3 0 0,1 3,0Z" style="opacity: 1; stroke-width: 0px; fill: rgb(239, 85, 59); fill-opacity: 1;"/></g></g></g></g><g class="overplot"/><path class="xlines-above crisp" d="M0,0" style="fill: none;"/><path class="ylines-above crisp" d="M0,0" style="fill: none;"/><g class="overlines-above"/><g class="xaxislayer-above"><g class="xtick"><text text-anchor="middle" x="0" y="433" transform="translate(193.25,0)" style="font-family: 'Open Sans', verdana, arial, sans-serif; font-size: 12px; fill: rgb(42, 63, 95); fill-opacity: 1; white-space: pre; opacity: 1;">eff_cnn</text></g><g class="xtick"><text text-anchor="middle" x="0" y="433" transform="translate(413.75,0)" style="font-family: 'Open Sans', verdana, arial, sans-serif; font-size: 12px; fill: rgb(42, 63, 95); fill-opacity: 1; white-space: pre; opacity: 1;">simplified_eff_cnn</text></g></g><g class="yaxislayer-above"><g class="ytick"><text text-anchor="end" x="79" y="4.199999999999999" transform="translate(0,406.99)" style="font-family: 'Open Sans', verdana, arial, sans-serif; font-size: 12px; fill: rgb(42, 63, 95); fill-opacity: 1; white-space: pre; opacity: 1;">0</text></g><g class="ytick"><text text-anchor="end" x="79" y="4.199999999999999" style="font-family: 'Open Sans', verdana, arial, sans-serif; font-size: 12px; fill: rgb(42, 63, 95); fill-opacity: 1; white-space: pre; opacity: 1;" transform="translate(0,356.55)">2k</text></g><g class="ytick"><text text-anchor="end" x="79" y="4.199999999999999" style="font-family: 'Open Sans', verdana, arial, sans-serif; font-size: 12px; fill: rgb(42, 63, 95); fill-opacity: 1; white-space: pre; opacity: 1;" transform="translate(0,306.12)">4k</text></g><g class="ytick"><text text-anchor="end" x="79" y="4.199999999999999" style="font-family: 'Open Sans', verdana, arial, sans-serif; font-size: 12px; fill: rgb(42, 63, 95); fill-opacity: 1; white-space: pre; opacity: 1;" transform="translate(0,255.69)">6k</text></g><g class="ytick"><text text-anchor="end" x="79" y="4.199999999999999" style="font-family: 'Open Sans', verdana, arial, sans-serif; font-size: 12px; fill: rgb(42, 63, 95); fill-opacity: 1; white-space: pre; opacity: 1;" transform="translate(0,205.26)">8k</text></g><g class="ytick"><text text-anchor="end" x="79" y="4.199999999999999" style="font-family: 'Open Sans', verdana, arial, sans-serif; font-size: 12px; fill: rgb(42, 63, 95); fill-opacity: 1; white-space: pre; opacity: 1;" transform="translate(0,154.82)">10k</text></g><g class="ytick"><text text-anchor="end" x="79" y="4.199999999999999" style="font-family: 'Open Sans', verdana, arial, sans-serif; font-size: 12px; fill: rgb(42, 63, 95); fill-opacity: 1; white-space: pre; opacity: 1;" transform="translate(0,104.39)">12k</text></g></g><g class="overaxes-above"/></g></g><g class="polarlayer"/><g class="ternarylayer"/><g class="geolayer"/><g class="funnelarealayer"/><g class="pielayer"/><g class="iciclelayer"/><g class="treemaplayer"/><g class="sunburstlayer"/><g class="glimages"/><defs id="topdefs-4ae964"><g class="clips"/><clipPath id="legend4ae964"><rect width="155" height="67" x="0" y="0"/></clipPath></defs><g class="layer-above"><g class="imagelayer"/><g class="shapelayer"/></g><g class="infolayer"><g class="legend" pointer-events="all" transform="translate(532.88,100)"><rect class="bg" shape-rendering="crispEdges" width="155" height="67" x="0" y="0" style="stroke: rgb(68, 68, 68); stroke-opacity: 1; fill: rgb(255, 255, 255); fill-opacity: 1; stroke-width: 0px;"/><g class="scrollbox" transform="" clip-path="url(#legend4ae964)"><text class="legendtitletext" text-anchor="start" x="2" y="18.2" style="font-family: 'Open Sans', verdana, arial, sans-serif; font-size: 14px; fill: rgb(42, 63, 95); fill-opacity: 1; white-space: pre;">model</text><g class="groups" transform=""><g class="traces" transform="translate(0,32.7)" style="opacity: 1;"><text class="legendtext" text-anchor="start" x="40" y="4.680000000000001" style="font-family: 'Open Sans', verdana, arial, sans-serif; font-size: 12px; fill: rgb(42, 63, 95); fill-opacity: 1; white-space: pre;">eff_cnn</text><g class="layers" style="opacity: 1;"><g class="legendfill"/><g class="legendlines"/><g class="legendsymbols"><g class="legendpoints"><path class="legendbox" d="M6,6H-6V-6H6Z" transform="translate(20,0)" style="stroke-width: 2px; fill: rgb(99, 110, 250); fill-opacity: 0.5; stroke: rgb(99, 110, 250); stroke-opacity: 1;"/></g></g></g><rect class="legendtoggle" x="0" y="-9.5" width="149.703125" height="19" style="fill: rgb(0, 0, 0); fill-opacity: 0;"/></g></g><g class="groups" transform=""><g class="traces" transform="translate(0,51.7)" style="opacity: 1;"><text class="legendtext" text-anchor="start" x="40" y="4.680000000000001" style="font-family: 'Open Sans', verdana, arial, sans-serif; font-size: 12px; fill: rgb(42, 63, 95); fill-opacity: 1; white-space: pre;">simplified_eff_cnn</text><g class="layers" style="opacity: 1;"><g class="legendfill"/><g class="legendlines"/><g class="legendsymbols"><g class="legendpoints"><path class="legendbox" d="M6,6H-6V-6H6Z" transform="translate(20,0)" style="stroke-width: 2px; fill: rgb(239, 85, 59); fill-opacity: 0.5; stroke: rgb(239, 85, 59); stroke-opacity: 1;"/></g></g></g><rect class="legendtoggle" x="0" y="-9.5" width="149.703125" height="19" style="fill: rgb(0, 0, 0); fill-opacity: 0;"/></g></g></g><rect class="scrollbar" rx="20" ry="3" width="0" height="0" x="0" y="0" style="fill: rgb(128, 139, 164); fill-opacity: 1;"/></g><g class="g-gtitle"><text class="gtitle" x="35" y="50" text-anchor="start" dy="0em" style="font-family: 'Open Sans', verdana, arial, sans-serif; font-size: 17px; fill: rgb(42, 63, 95); opacity: 1; font-weight: normal; white-space: pre;">Distribution of min traces needed for average rank to be zero</text></g><g class="g-xtitle"><text class="xtitle" x="302" y="460.8" text-anchor="middle" style="font-family: 'Open Sans', verdana, arial, sans-serif; font-size: 14px; fill: rgb(42, 63, 95); opacity: 1; font-weight: normal; white-space: pre;">model</text></g><g class="g-ytitle"><text class="ytitle" transform="rotate(-90,31.840625000000003,260)" x="31.840625000000003" y="260" text-anchor="middle" style="font-family: 'Open Sans', verdana, arial, sans-serif; font-size: 14px; fill: rgb(42, 63, 95); opacity: 1; font-weight: normal; white-space: pre;">min traces needed for average rank to be zero</text></g><g class="annotation" data-index="0" style="opacity: 1;"><g class="annotation-text-g" transform="rotate(0,183.25,125)"><g class="cursor-pointer" transform="translate(133,100)"><rect class="bg" x="0.5" y="0.5" width="100" height="49" style="stroke-width: 1px; stroke: rgb(255, 0, 0); stroke-opacity: 1; fill: rgb(0, 0, 0); fill-opacity: 0;"/><text class="annotation-text" text-anchor="middle" x="50.65625" y="14" style="font-family: 'Open Sans', verdana, arial, sans-serif; font-size: 12px; fill: rgb(42, 63, 95); fill-opacity: 1; white-space: pre;"><tspan class="line" dy="0em" x="50.65625" y="14"> 12.00 % failed </tspan><tspan class="line" dy="1.3em" x="50.65625" y="14">min: 312</tspan><tspan class="line" dy="2.6em" x="50.65625" y="14">max: inf</tspan></text></g></g><g class="annotation-arrow-g" style="opacity: 1;"><path d="M191.41666666666666,149.5L193.25,155" style="stroke-width: 1px; stroke: rgb(42, 63, 95); stroke-opacity: 1; stroke-dasharray: 0px, 0px, 5.79751px, 5.79751px;"/></g></g><g class="annotation" data-index="1" style="opacity: 1;"><g class="annotation-text-g" transform="rotate(0,403.75,125)"><g class="cursor-pointer" transform="translate(367,100)"><rect class="bg" x="0.5" y="0.5" width="72" height="49" style="stroke-width: 1px; stroke: rgb(0, 128, 0); stroke-opacity: 1; fill: rgb(0, 0, 0); fill-opacity: 0;"/><text class="annotation-text" text-anchor="middle" x="36.640625" y="14" style="font-family: 'Open Sans', verdana, arial, sans-serif; font-size: 12px; fill: rgb(42, 63, 95); fill-opacity: 1; white-space: pre;"><tspan class="line" dy="0em" x="36.640625" y="14"> All passed </tspan><tspan class="line" dy="1.3em" x="36.640625" y="14">min: 180</tspan><tspan class="line" dy="2.6em" x="36.640625" y="14">max: 391</tspan></text></g></g><g class="annotation-arrow-g" style="opacity: 1;"><path d="M411.9166666666667,149.5L413.75,155" style="stroke-width: 1px; stroke: rgb(42, 63, 95); stroke-opacity: 1; stroke-dasharray: 0px, 0px, 5.79751px, 5.79751px;"/></g></g></g></svg>