<svg class="main-svg" xmlns="http://www.w3.org/2000/svg" xmlns:xlink="http://www.w3.org/1999/xlink" width="700" height="500" style="" viewBox="0 0 700 500"><rect x="0" y="0" width="700" height="500" style="fill: rgb(255, 255, 255); fill-opacity: 1;"/><defs id="defs-fda3a1"><g class="clips"><clipPath id="clipfda3a1xyplot" class="plotclip"><rect width="540" height="320"/></clipPath><clipPath class="axesclip" id="clipfda3a1x"><rect x="80" y="0" width="540" height="500"/></clipPath><clipPath class="axesclip" id="clipfda3a1y"><rect x="0" y="100" width="700" height="320"/></clipPath><clipPath class="axesclip" id="clipfda3a1xy"><rect x="80" y="100" width="540" height="320"/></clipPath></g><g class="gradients"/><g class="patterns"/></defs><g class="bglayer"><rect class="bg" x="80" y="100" width="540" height="320" style="fill: rgb(229, 236, 246); fill-opacity: 1; stroke-width: 0;"/></g><g class="layer-below"><g class="imagelayer"/><g class="shapelayer"/></g><g class="cartesianlayer"><g class="subplot xy"><g class="layer-subplot"><g class="shapelayer"/><g class="imagelayer"/></g><g class="gridlayer"><g class="x"><path class="xgrid crisp" transform="translate(188.43,0)" d="M0,100v320" style="stroke: rgb(255, 255, 255); stroke-opacity: 1; stroke-width: 1px;"/><path class="xgrid crisp" transform="translate(296.87,0)" d="M0,100v320" style="stroke: rgb(255, 255, 255); stroke-opacity: 1; stroke-width: 1px;"/><path class="xgrid crisp" transform="translate(405.3,0)" d="M0,100v320" style="stroke: rgb(255, 255, 255); stroke-opacity: 1; stroke-width: 1px;"/><path class="xgrid crisp" transform="translate(513.73,0)" d="M0,100v320" style="stroke: rgb(255, 255, 255); stroke-opacity: 1; stroke-width: 1px;"/></g><g class="y"><path class="ygrid crisp" transform="translate(0,355.64)" d="M80,0h540" style="stroke: rgb(255, 255, 255); stroke-opacity: 1; stroke-width: 1px;"/><path class="ygrid crisp" transform="translate(0,291.28999999999996)" d="M80,0h540" style="stroke: rgb(255, 255, 255); stroke-opacity: 1; stroke-width: 1px;"/><path class="ygrid crisp" transform="translate(0,226.93)" d="M80,0h540" style="stroke: rgb(255, 255, 255); stroke-opacity: 1; stroke-width: 1px;"/><path class="ygrid crisp" transform="translate(0,162.57999999999998)" d="M80,0h540" style="stroke: rgb(255, 255, 255); stroke-opacity: 1; stroke-width: 1px;"/></g></g><g class="zerolinelayer"><path class="xzl zl crisp" transform="translate(80,0)" d="M0,100v320" style="stroke: rgb(255, 255, 255); stroke-opacity: 1; stroke-width: 2px;"/><path class="yzl zl crisp" transform="translate(0,420)" d="M80,0h540" style="stroke: rgb(255, 255, 255); stroke-opacity: 1; stroke-width: 2px;"/></g><path class="xlines-below"/><path class="ylines-below"/><g class="overlines-below"/><g class="xaxislayer-below"/><g class="yaxislayer-below"/><g class="overaxes-below"/><g class="plot" transform="translate(80,100)" clip-path="url(#clipfda3a1xyplot)"><g class="scatterlayer mlayer"><g class="trace scatter tracebe0103" style="stroke-miterlimit: 2; opacity: 1;"><g class="fills"/><g class="errorbars"/><g class="lines"><path class="js-line" d="M0,191.6L6.51,234.34L8.67,244.96L10.84,249.79L13.01,252.25L15.18,254L17.35,258.31L19.52,259.94L21.69,267.38L23.86,269.82L26.02,275.14L28.19,279.24L30.36,281.1L32.53,280.6L34.7,280.96L39.04,285.49L41.2,285.9L45.54,288.11L47.71,290.47L52.05,294.18L54.22,294.68L58.55,298.6L60.72,299.77L65.06,300.28L67.23,300.18L71.57,301.89L73.73,302.11L80.24,303.67L82.41,304.43L86.75,304.97L88.92,305.38L97.59,308.13L99.76,308.33L106.27,309.55L108.43,309.65L112.77,309.45L114.94,310.15L119.28,310.8L121.45,311.02L125.78,311.76L127.95,311.49L136.63,312.3L138.8,312.73L143.13,313.22L145.3,313.38L164.82,313.24L166.99,313.64L182.17,314.45L184.34,314.53L193.01,315.12L195.18,315.46L223.37,316.2L225.54,316.27L251.57,317.25L253.73,317.13L279.76,317.49L281.93,317.57L323.13,318.03L325.3,317.98L357.83,318.19L360,318.15L422.89,319.18L425.06,319.16L440.24,319.27L442.41,319.21L496.63,319.3L498.8,319.25L524.82,319.51L526.99,319.5L540,319.54" style="vector-effect: non-scaling-stroke; fill: none; stroke: rgb(99, 110, 250); stroke-opacity: 1; stroke-width: 2px; opacity: 1;"/></g><g class="points"/><g class="text"/></g><g class="trace scatter trace1a632b" style="stroke-miterlimit: 2; opacity: 1;"><g class="fills"/><g class="errorbars"/><g class="lines"><path class="js-line" d="M0,155.28L2.17,154.43L4.34,159.86L6.51,156.5L8.67,151.32L10.84,150.44L13.01,151.51L15.18,155.92L17.35,154.31L19.52,149.12L21.69,154.17L23.86,152.43L26.02,152.92L28.19,157.62L30.36,156.94L32.53,153.92L34.7,154.26L36.87,154.95L39.04,158.58L41.2,158.55L43.37,161.98L45.54,161.83L47.71,160.8L49.88,163.24L52.05,162.34L54.22,159.59L56.39,160.95L58.55,159.42L60.72,160.41L65.06,156.33L67.23,154.2L69.4,155.43L71.57,155.25L75.9,160.72L78.07,161.71L80.24,159.73L82.41,162.02L84.58,161.17L86.75,165.2L91.08,165.95L93.25,167.84L95.42,168.35L97.59,169.83L99.76,168.7L101.93,169.4L104.1,168.79L106.27,171.64L108.43,172.91L110.6,170.53L112.77,170.26L114.94,171.46L117.11,172.15L119.28,170.26L123.61,174.17L125.78,173.86L130.12,169.52L132.29,169.07L134.46,168.74L136.63,170.9L138.8,171.08L140.96,170.03L143.13,169.58L145.3,171.34L147.47,170.37L149.64,170.35L151.81,170.32L153.98,168.47L156.14,168.66L158.31,170.39L160.48,170.63L162.65,169.73L164.82,171.7L166.99,170.59L169.16,169.51L171.33,171.22L175.66,174.81L177.83,173.84L182.17,172.96L184.34,173.27L188.67,175.9L190.84,175.86L193.01,176.35L195.18,174.8L197.35,175.74L199.52,173.17L201.69,172.23L203.86,173.22L206.02,174.18L208.19,176.51L210.36,178.28L212.53,178.14L216.87,178.33L219.04,179.38L223.37,179.4L225.54,179.51L227.71,180.72L229.88,179.63L232.05,180.86L234.22,180.9L236.39,181.98L238.55,181.13L242.89,181.76L245.06,183.08L247.23,184.07L249.4,183.31L255.9,183.82L258.07,183L266.75,181.42L268.92,178.92L273.25,178.28L275.42,177.26L277.59,177.89L279.76,176.76L284.1,175.68L286.27,177.89L294.94,177.36L297.11,176.68L299.28,178.29L301.45,178.65L310.12,177.92L312.29,177.13L316.63,177.59L318.8,177.75L323.13,178.25L325.3,177.85L327.47,178.29L329.64,177.57L336.14,179.78L338.31,178.75L340.48,179.04L342.65,178.16L346.99,180.23L349.16,180.01L351.33,179.38L353.49,180L355.66,180.44L357.83,179.23L362.17,181.21L364.34,180.22L366.51,181.71L368.67,181.2L375.18,181.88L377.35,182.6L381.69,183.21L383.86,182.43L392.53,183.84L394.7,184.31L405.54,182.7L407.71,182.96L409.88,183.39L412.05,182.49L414.22,183.39L416.39,183.16L422.89,183.23L425.06,182.27L438.07,186.3L440.24,186.53L444.58,185.77L446.75,185.73L451.08,184.33L453.25,185.38L457.59,185.78L459.76,186.64L461.93,187.66L464.1,187.29L468.43,190.14L470.6,190.52L472.77,192.14L474.94,191.48L481.45,191.39L483.61,189.53L485.78,189.62L487.95,190.65L492.29,190.14L494.46,190.99L500.96,191.71L503.13,190.95L505.3,192.46L507.47,192.59L511.81,192.95L513.98,193.8L516.14,193.23L518.31,194.28L524.82,194.48L526.99,193.86L529.16,194.12L531.33,195.34L537.83,195.68L540,195.1" style="vector-effect: non-scaling-stroke; fill: none; stroke: rgb(239, 85, 59); stroke-opacity: 1; stroke-width: 2px; opacity: 1;"/></g><g class="points"/><g class="text"/></g><g class="trace scatter trace2e47f2" style="stroke-miterlimit: 2; opacity: 1;"><g class="fills"/><g class="errorbars"/><g class="lines"><path class="js-line" d="M0,167.49L4.34,195.52L6.51,197.43L8.67,208.16L10.84,213.65L13.01,212.17L15.18,213.39L19.52,222.62L21.69,230.64L23.86,231.83L26.02,236.97L28.19,240.15L30.36,241.36L32.53,241.23L34.7,246L36.87,248.57L39.04,248.62L43.37,252.71L45.54,252.56L47.71,254.55L49.88,253.77L52.05,255.97L54.22,255.49L56.39,258.81L58.55,260.51L60.72,262.66L62.89,263.65L65.06,264.64L67.23,264.37L71.57,267.31L73.73,267.18L75.9,269.76L78.07,271.01L80.24,271.35L82.41,275.38L84.58,275L86.75,276.21L88.92,275.53L91.08,278.1L93.25,280.52L95.42,281.41L101.93,284.08L104.1,285.2L110.6,287.55L112.77,288.09L123.61,288.5L125.78,289.29L130.12,289.01L132.29,290.04L138.8,292.58L140.96,292.67L147.47,296.46L149.64,296.48L153.98,296.01L156.14,296.95L158.31,297.63L160.48,297.49L164.82,297.41L166.99,298.94L177.83,302.57L180,303.2L186.51,303.33L188.67,304L223.37,309.82L225.54,309.64L238.55,311.69L240.72,311.45L242.89,311.34L245.06,312.01L251.57,312.25L253.73,312.87L264.58,313.56L266.75,313.65L277.59,314.3L279.76,314.25L284.1,314.35L286.27,314.66L301.45,315.21L303.61,315.33L318.8,316.06L320.96,315.88L349.16,316.2L351.33,316.23L357.83,316.27L360,316.46L414.22,318.08L416.39,317.86L429.4,317.95L431.57,318.06L490.12,318.75L492.29,318.7L522.65,319.23L524.82,319.27L540,319.24" style="vector-effect: non-scaling-stroke; fill: none; stroke: rgb(0, 204, 150); stroke-opacity: 1; stroke-width: 2px; opacity: 1;"/></g><g class="points"/><g class="text"/></g><g class="trace scatter trace5a2f1a" style="stroke-miterlimit: 2; opacity: 1;"><g class="fills"/><g class="errorbars"/><g class="lines"><path class="js-line" d="M0,158.06L2.17,153.54L4.34,156.36L8.67,152.65L10.84,148.33L13.01,151.14L15.18,155.75L17.35,151.89L19.52,151.88L21.69,156.42L23.86,154.58L28.19,158.03L30.36,150.51L32.53,150.85L34.7,152.83L36.87,152.59L39.04,157.88L43.37,165.1L45.54,162.88L47.71,161.36L49.88,163.96L52.05,165.37L54.22,161.71L56.39,161.15L58.55,162.15L62.89,164.89L65.06,162.69L67.23,158.76L69.4,158.69L71.57,158.3L73.73,158.98L75.9,160.36L78.07,159.03L82.41,160.95L84.58,161L88.92,163.05L91.08,163.18L95.42,164.41L97.59,165.2L99.76,164.14L101.93,164.57L106.27,168.53L108.43,166.86L112.77,163.78L114.94,161.36L117.11,164.38L119.28,162.33L134.46,156.8L136.63,157.22L138.8,157.85L140.96,156.25L143.13,155.71L145.3,156.9L147.47,157.16L149.64,156.56L151.81,157.34L153.98,156.45L156.14,156.37L158.31,157.68L160.48,157.49L162.65,156.11L166.99,156.33L169.16,154.71L173.49,157.32L175.66,157.82L180,157.85L182.17,156.07L186.51,157.46L188.67,157.09L190.84,157.88L193.01,156.98L199.52,159.94L201.69,159.7L203.86,161.36L206.02,161.26L210.36,163.1L212.53,161.65L214.7,162.38L216.87,160.63L221.2,163.09L223.37,162.6L229.88,163.33L232.05,163.27L234.22,162.19L236.39,161.96L238.55,163.64L240.72,163.68L247.23,166.09L249.4,167.35L253.73,167.66L255.9,168.43L260.24,168.31L262.41,169.1L264.58,167.26L266.75,167.94L273.25,164.4L275.42,163.09L277.59,163.69L279.76,162.47L284.1,161.4L286.27,162.01L290.6,162.43L292.77,161.21L297.11,160.86L299.28,161.9L307.95,162.18L310.12,161.74L312.29,160.24L314.46,161.15L318.8,160.41L320.96,159.9L323.13,158.6L325.3,158.42L329.64,158.56L331.81,157.67L333.98,157.9L336.14,157.04L338.31,157.89L340.48,157.03L342.65,155.5L344.82,155.56L349.16,153.23L351.33,151.69L353.49,152.03L355.66,153.89L357.83,154.81L360,153.5L366.51,155.43L368.67,154.86L375.18,154.52L377.35,155.29L379.52,154.56L381.69,155.87L383.86,156.58L386.02,156.41L390.36,155.46L392.53,156.2L399.04,157.05L401.2,156.94L407.71,155.62L409.88,156.2L414.22,154.08L416.39,154.3L420.72,155.33L422.89,154.68L425.06,154.83L427.23,155.95L429.4,155.77L431.57,157.3L433.73,157.18L435.9,156.05L438.07,155.52L440.24,156.68L446.75,155.82L448.92,156.1L451.08,155.8L453.25,156.27L457.59,155.17L459.76,155.34L466.27,155.44L468.43,157.17L472.77,159.63L474.94,159.9L477.11,159.07L479.28,159.05L483.61,160.4L485.78,160.46L492.29,158.97L494.46,159.74L503.13,158.64L505.3,159.32L507.47,159.41L509.64,158.65L511.81,157.93L513.98,158.62L518.31,158L520.48,158.71L524.82,160.36L526.99,160.42L533.49,161.79L535.66,161.57L537.83,162.02L540,161.08" style="vector-effect: non-scaling-stroke; fill: none; stroke: rgb(171, 99, 250); stroke-opacity: 1; stroke-width: 2px; opacity: 1;"/></g><g class="points"/><g class="text"/></g><g class="trace scatter trace20b554" style="stroke-miterlimit: 2; opacity: 1;"><g class="fills"/><g class="errorbars"/><g class="lines"><path class="js-line" d="M0,189.77L4.34,227.8L6.51,240.17L8.67,243.2L10.84,253.04L15.18,261.08L17.35,262.57L19.52,264.44L21.69,269.17L23.86,270.38L26.02,274.58L28.19,279.22L30.36,279.83L32.53,278.94L34.7,278.98L41.2,282.69L43.37,287.41L45.54,287.27L47.71,288.21L52.05,288.41L54.22,288.81L56.39,290.23L58.55,290.72L60.72,290.73L62.89,289.66L65.06,290.64L67.23,290.68L73.73,291.14L75.9,292.21L84.58,292.67L86.75,294.35L95.42,295.97L97.59,296.28L101.93,296.23L104.1,297L108.43,297.53L110.6,297.63L117.11,296.94L119.28,297.53L127.95,298.39L130.12,298.07L136.63,298.93L138.8,299.59L153.98,299.5L156.14,299.68L166.99,300.02L169.16,300.2L188.67,300.31L190.84,300.59L195.18,300.85L197.35,301.45L206.02,302.48L208.19,302.24L216.87,302.13L219.04,302.04L227.71,302.51L229.88,302.51L262.41,304.1L264.58,304.48L271.08,304.67L273.25,304.99L279.76,305.49L281.93,305.65L286.27,305.74L288.43,305.82L307.95,305.89L310.12,306.22L318.8,305.89L320.96,306.03L325.3,306.64L327.47,306.6L346.99,306.51L349.16,306.28L368.67,306.41L370.84,306.46L388.19,307.62L390.36,307.44L416.39,307.89L418.55,307.75L429.4,308.61L431.57,308.87L451.08,308.82L453.25,308.71L459.76,309.15L461.93,309.07L470.6,309.75L472.77,309.86L481.45,309.69L483.61,309.64L498.8,309.51L500.96,309.46L522.65,310.35L524.82,310.28L540,310.73" style="vector-effect: non-scaling-stroke; fill: none; stroke: rgb(255, 161, 90); stroke-opacity: 1; stroke-width: 2px; opacity: 1;"/></g><g class="points"/><g class="text"/></g><g class="trace scatter trace2b1580" style="stroke-miterlimit: 2; opacity: 1;"><g class="fills"/><g class="errorbars"/><g class="lines"><path class="js-line" d="M0,190.05L4.34,198.27L6.51,208.41L10.84,226.74L13.01,232.17L15.18,232.09L17.35,236.26L19.52,239.54L21.69,244.42L23.86,246.15L26.02,253.34L30.36,260.12L32.53,257.07L34.7,259.33L36.87,263.7L39.04,266.65L41.2,267.82L43.37,270.12L45.54,270.55L47.71,274.2L49.88,274.27L52.05,275.72L54.22,275.62L60.72,282.97L62.89,283.86L65.06,283.64L67.23,282.26L71.57,286.07L73.73,286.51L78.07,289.15L80.24,289.64L82.41,291.7L84.58,291.49L88.92,292.15L91.08,294.23L101.93,299.38L104.1,299.75L106.27,300.81L108.43,300.95L125.78,303.67L127.95,303.32L132.29,304.04L134.46,304.35L138.8,305.19L140.96,304.71L145.3,305.88L147.47,306.29L156.14,306.82L158.31,307.45L193.01,310.72L195.18,310.71L201.69,311.25L203.86,311.25L214.7,311.93L216.87,311.78L227.71,312.86L229.88,312.65L238.55,313.19L240.72,313.6L268.92,314.67L271.08,314.83L279.76,314.68L281.93,314.85L351.33,316.6L353.49,316.41L375.18,316.95L377.35,317.18L396.87,317.37L399.04,317.43L535.66,318.92L537.83,318.89L540,318.98" style="vector-effect: non-scaling-stroke; fill: none; stroke: rgb(25, 211, 243); stroke-opacity: 1; stroke-width: 2px; opacity: 1;"/></g><g class="points"/><g class="text"/></g><g class="trace scatter trace26650b" style="stroke-miterlimit: 2; opacity: 1;"><g class="fills"/><g class="errorbars"/><g class="lines"><path class="js-line" d="M0,198.52L6.51,237.23L8.67,243.57L10.84,250.91L13.01,250.66L28.19,276.55L30.36,278.86L32.53,278.34L34.7,279.8L36.87,282.51L39.04,283.87L41.2,286.95L43.37,288.22L45.54,288.52L47.71,289.62L49.88,289.91L52.05,292.19L58.55,297.6L60.72,297.95L65.06,299.24L67.23,299.84L71.57,302.01L73.73,301.65L75.9,302.92L78.07,303.31L82.41,305.01L84.58,304.64L88.92,305.53L91.08,306.25L95.42,306.9L97.59,307.52L125.78,310.77L127.95,310.54L134.46,310.89L136.63,311.04L143.13,311.67L145.3,311.74L193.01,314.56L195.18,314.62L201.69,315.21L203.86,315.24L212.53,315.55L214.7,315.47L221.2,315.42L223.37,315.53L236.39,315.7L238.55,315.97L448.92,319.36L451.08,319.25L505.3,319.27L507.47,319.28L540,319.47" style="vector-effect: non-scaling-stroke; fill: none; stroke: rgb(255, 102, 146); stroke-opacity: 1; stroke-width: 2px; opacity: 1;"/></g><g class="points"/><g class="text"/></g><g class="trace scatter trace93af65" style="stroke-miterlimit: 2; opacity: 1;"><g class="fills"/><g class="errorbars"/><g class="lines"><path class="js-line" d="M0,192.36L2.17,203.56L4.34,220.57L6.51,228.78L8.67,242.05L10.84,249.79L13.01,248.71L17.35,255.86L19.52,260.42L23.86,271.3L26.02,275.52L28.19,278.17L30.36,279.44L32.53,278.43L34.7,278.75L36.87,279.88L39.04,283.41L43.37,288.72L45.54,287.85L49.88,290.27L52.05,293.2L54.22,293.85L56.39,296.01L60.72,298.84L62.89,298.9L65.06,300.51L67.23,300.58L69.4,302.02L71.57,302.44L73.73,302.44L75.9,304.35L84.58,306.55L86.75,307.75L104.1,310.87L106.27,311.99L112.77,312.23L114.94,312.35L119.28,313.13L121.45,313.17L127.95,313.24L130.12,313.41L140.96,313.68L143.13,314.05L180,315.57L182.17,315.43L197.35,316.2L199.52,316.27L212.53,317.12L214.7,317.05L221.2,317.41L223.37,317.48L247.23,318.15L249.4,317.94L290.6,318.94L292.77,318.94L307.95,318.97L310.12,319.02L373.01,319.45L375.18,319.47L540,319.82" style="vector-effect: non-scaling-stroke; fill: none; stroke: rgb(182, 232, 128); stroke-opacity: 1; stroke-width: 2px; opacity: 1;"/></g><g class="points"/><g class="text"/></g><g class="trace scatter tracef2faed" style="stroke-miterlimit: 2; opacity: 1;"><g class="fills"/><g class="errorbars"/><g class="lines"><path class="js-line" d="M0,201.82L4.34,243.11L6.51,252.76L8.67,260.57L10.84,264.15L13.01,264.09L15.18,268.77L17.35,270.94L19.52,274.62L21.69,280.46L23.86,282.31L28.19,288.03L30.36,289.78L32.53,288.86L34.7,291.13L36.87,293.14L39.04,293.95L43.37,296.52L45.54,296.38L49.88,297.62L52.05,299.92L56.39,301.68L58.55,302.74L62.89,304.61L65.06,304.54L67.23,304.34L69.4,304.98L75.9,307.7L78.07,307.72L84.58,307.61L86.75,308.03L108.43,311.42L110.6,311.32L125.78,312.47L127.95,312.43L149.64,313.78L151.81,313.76L180,315.39L182.17,315.3L193.01,315.84L195.18,315.97L216.87,316.56L219.04,316.37L234.22,317.04L236.39,317.12L266.75,317.57L268.92,317.61L294.94,318.11L297.11,318.04L314.46,318.26L316.63,318.34L331.81,318.37L333.98,318.37L351.33,318.79L353.49,318.69L435.9,319.54L438.07,319.5L540,319.74" style="vector-effect: non-scaling-stroke; fill: none; stroke: rgb(255, 151, 255); stroke-opacity: 1; stroke-width: 2px; opacity: 1;"/></g><g class="points"/><g class="text"/></g><g class="trace scatter trace16ddb2" style="stroke-miterlimit: 2; opacity: 1;"><g class="fills"/><g class="errorbars"/><g class="lines"><path class="js-line" d="M0,194.37L2.17,216.12L4.34,230.2L6.51,235.93L8.67,247.14L10.84,252.83L13.01,255.72L15.18,260.6L17.35,263.01L19.52,267.4L21.69,273.6L23.86,275.7L26.02,280.74L30.36,284.28L32.53,284.45L36.87,288.59L39.04,289.68L41.2,291.59L43.37,292.42L45.54,293.29L47.71,295.78L56.39,300.59L58.55,301.92L65.06,303.68L67.23,303.69L71.57,305.71L73.73,305.34L80.24,306.09L82.41,307.18L84.58,307.06L86.75,307.81L91.08,308.33L93.25,308.88L119.28,311.85L121.45,311.66L125.78,312.39L127.95,312.26L132.29,312.43L134.46,312.81L180,315.28L182.17,315.03L208.19,316.22L210.36,316.29L268.92,317.8L271.08,317.8L301.45,318.37L303.61,318.37L401.2,319.09L403.37,319.14L500.96,319.29L503.13,319.25L540,319.47" style="vector-effect: non-scaling-stroke; fill: none; stroke: rgb(254, 203, 82); stroke-opacity: 1; stroke-width: 2px; opacity: 1;"/></g><g class="points"/><g class="text"/></g><g class="trace scatter trace4e7e7e" style="stroke-miterlimit: 2; opacity: 1;"><g class="fills"/><g class="errorbars"/><g class="lines"><path class="js-line" d="M0,179.19L2.17,178.17L4.34,193.98L6.51,195.82L8.67,205.24L10.84,205.92L13.01,202.73L15.18,203.16L17.35,206.84L19.52,209.3L21.69,217.86L23.86,219.27L26.02,224.15L28.19,228.6L30.36,229.86L32.53,230.87L34.7,234.47L36.87,235.36L39.04,237.45L41.2,239.71L43.37,243.62L45.54,246.4L47.71,247.52L49.88,245.55L52.05,248.76L54.22,249.99L56.39,252.23L60.72,255.64L62.89,255.76L71.57,258.8L73.73,260.78L80.24,266.16L82.41,267.37L88.92,268.39L91.08,270.42L93.25,272.65L95.42,272.45L97.59,275.43L99.76,276.51L101.93,278.67L104.1,278.14L106.27,278.95L108.43,278.75L114.94,279.98L117.11,281.53L125.78,285.52L127.95,284.98L130.12,285.9L132.29,285.67L140.96,289.2L143.13,290.92L145.3,291.67L147.47,290.94L153.98,292.11L156.14,292.24L158.31,293.87L160.48,293.72L164.82,293.23L166.99,294.71L180,299.19L182.17,299.34L186.51,299.93L188.67,299.56L193.01,300.26L195.18,300.68L201.69,301.16L203.86,301.49L219.04,302.33L221.2,302.75L225.54,303.38L227.71,303.5L229.88,304.41L232.05,304.22L249.4,307.57L251.57,307.63L258.07,307.95L260.24,309.2L268.92,309.87L271.08,309.78L284.1,310.05L286.27,310.58L288.43,311.34L290.6,311.2L299.28,311.23L301.45,311.6L307.95,312.05L310.12,312.08L314.46,312.02L316.63,312.46L327.47,312.51L329.64,312.42L342.65,314.47L344.82,314.13L353.49,314.31L355.66,314.74L366.51,315.8L368.67,315.77L379.52,316.49L381.69,316.73L390.36,316.74L392.53,316.92L472.77,318.34L474.94,318.46L511.81,318.85L513.98,318.94L540,319.21" style="vector-effect: non-scaling-stroke; fill: none; stroke: rgb(99, 110, 250); stroke-opacity: 1; stroke-width: 2px; opacity: 1;"/></g><g class="points"/><g class="text"/></g><g class="trace scatter tracece83dc" style="stroke-miterlimit: 2; opacity: 1;"><g class="fills"/><g class="errorbars"/><g class="lines"><path class="js-line" d="M0,205.04L4.34,233.71L6.51,240.03L10.84,254.63L13.01,255.7L15.18,261.11L17.35,263.74L19.52,266.03L21.69,274.44L23.86,276.59L26.02,280.28L28.19,281.58L30.36,283.76L32.53,283.72L34.7,286.74L41.2,290.31L43.37,292.53L45.54,292.58L47.71,293.83L52.05,295.74L54.22,296.88L65.06,300.77L67.23,300.44L75.9,302.23L78.07,302.44L82.41,303.41L84.58,304.1L101.93,306.78L104.1,306.85L106.27,307.63L108.43,307.5L121.45,308.09L123.61,308.62L127.95,308.78L130.12,308.69L134.46,308.96L136.63,308.97L145.3,309.9L147.47,309.99L180,311.92L182.17,311.88L240.72,314.57L242.89,314.54L310.12,316.9L312.29,316.94L323.13,316.73L325.3,316.8L388.19,317.53L390.36,317.53L455.42,318.78L457.59,318.74L540,318.92" style="vector-effect: non-scaling-stroke; fill: none; stroke: rgb(239, 85, 59); stroke-opacity: 1; stroke-width: 2px; opacity: 1;"/></g><g class="points"/><g class="text"/></g><g class="trace scatter tracec2a096" style="stroke-miterlimit: 2; opacity: 1;"><g class="fills"/><g class="errorbars"/><g class="lines"><path class="js-line" d="M0,183.39L2.17,209.36L4.34,225.5L8.67,247.14L10.84,253.62L13.01,256.88L15.18,256.93L21.69,270.95L23.86,273.7L30.36,282.91L32.53,281.95L34.7,283.77L36.87,287.31L39.04,287.73L41.2,289.51L47.71,294.55L49.88,295.4L52.05,295.79L54.22,297.28L60.72,301.63L62.89,302.33L69.4,303.64L71.57,304.28L82.41,307.76L84.58,307.41L91.08,308.47L93.25,309.21L104.1,310.26L106.27,311.13L112.77,311.48L114.94,311.89L136.63,313.47L138.8,313.53L153.98,314.35L156.14,314.35L166.99,315.51L169.16,315.47L182.17,315.6L184.34,315.41L197.35,316.11L199.52,316.24L329.64,318.94L331.81,318.92L490.12,319.81L492.29,319.77L540,319.85" style="vector-effect: non-scaling-stroke; fill: none; stroke: rgb(0, 204, 150); stroke-opacity: 1; stroke-width: 2px; opacity: 1;"/></g><g class="points"/><g class="text"/></g><g class="trace scatter traced96a5b" style="stroke-miterlimit: 2; opacity: 1;"><g class="fills"/><g class="errorbars"/><g class="lines"><path class="js-line" d="M0,199.17L2.17,208.19L4.34,222.15L8.67,243.88L10.84,249.22L15.18,256.8L17.35,263.1L19.52,264.65L21.69,267.72L23.86,270.28L26.02,276.51L30.36,280.29L32.53,279.02L39.04,285.49L41.2,286.3L47.71,291.83L49.88,291.57L52.05,293.31L54.22,293.51L58.55,297.5L60.72,299.21L65.06,299.88L67.23,300.99L69.4,302.59L71.57,303.04L75.9,303.28L78.07,303.62L93.25,307.58L95.42,307.63L127.95,312.68L130.12,312.62L138.8,313.71L140.96,313.89L145.3,314.58L147.47,314.62L151.81,314.29L153.98,314.61L162.65,314.79L164.82,315.07L177.83,315.77L180,315.83L188.67,315.84L190.84,315.95L199.52,316.24L201.69,316.51L232.05,316.41L234.22,316.76L312.29,318.53L314.46,318.42L323.13,318.57L325.3,318.58L383.86,319.32L386.02,319.33L492.29,319.58L494.46,319.6L540,319.7" style="vector-effect: non-scaling-stroke; fill: none; stroke: rgb(171, 99, 250); stroke-opacity: 1; stroke-width: 2px; opacity: 1;"/></g><g class="points"/><g class="text"/></g><g class="trace scatter trace8e5420" style="stroke-miterlimit: 2; opacity: 1;"><g class="fills"/><g class="errorbars"/><g class="lines"><path class="js-line" d="M0,167.61L4.34,179.06L6.51,191.04L8.67,202.44L10.84,202.23L13.01,202.05L15.18,207.42L19.52,214.84L21.69,222.86L23.86,224.66L26.02,233.38L28.19,238.94L30.36,242.35L32.53,241.54L34.7,245.19L39.04,249.75L41.2,253.96L43.37,256.4L45.54,257.01L49.88,257.32L52.05,260.79L54.22,260.07L56.39,263.48L60.72,266.93L62.89,266.91L71.57,273.23L73.73,272.53L78.07,273.79L80.24,276.57L84.58,278.94L86.75,279.11L91.08,280.25L93.25,282.93L99.76,284.41L101.93,286.95L104.1,286.86L106.27,287.63L110.6,288.61L112.77,287.93L114.94,288.16L117.11,290.67L119.28,290.89L121.45,292.11L125.78,293.28L127.95,292.44L132.29,293.49L134.46,294.81L136.63,296.12L138.8,296.37L140.96,297.33L143.13,299.35L147.47,300.42L149.64,300.29L153.98,300.19L156.14,300.72L158.31,301.84L160.48,301.38L164.82,301.44L166.99,302.26L169.16,302.68L171.33,302.23L175.66,304.31L177.83,304.08L203.86,306.73L206.02,307.44L214.7,307.81L216.87,307.45L219.04,306.91L221.2,307.27L225.54,307.97L227.71,308.54L236.39,308.39L238.55,308.84L242.89,309.41L245.06,309.34L249.4,310.26L251.57,310.35L266.75,311.26L268.92,311.9L279.76,313.29L281.93,313.01L290.6,313.68L292.77,313.67L299.28,313.77L301.45,314.41L329.64,315.29L331.81,315.33L338.31,315.97L340.48,316.59L351.33,316.68L353.49,316.78L366.51,317.46L368.67,317.35L420.72,317.98L422.89,317.95L427.23,317.77L429.4,318.1L513.98,319.47L516.14,319.37L537.83,319.6L540,319.6" style="vector-effect: non-scaling-stroke; fill: none; stroke: rgb(255, 161, 90); stroke-opacity: 1; stroke-width: 2px; opacity: 1;"/></g><g class="points"/><g class="text"/></g><g class="trace scatter tracebb4def" style="stroke-miterlimit: 2; opacity: 1;"><g class="fills"/><g class="errorbars"/><g class="lines"><path class="js-line" d="M0,189.01L2.17,215.95L4.34,233.42L6.51,243.85L8.67,250.07L13.01,257.69L15.18,260L19.52,268.25L21.69,277.08L23.86,278.98L26.02,281.99L30.36,286.78L32.53,285.54L39.04,290.77L41.2,291.53L43.37,293.91L45.54,294.66L47.71,296.29L49.88,295.39L56.39,298.4L58.55,299.07L60.72,301.44L62.89,301.7L67.23,301.47L69.4,303.06L75.9,304.39L78.07,305.15L93.25,308.66L95.42,308.65L101.93,309.72L104.1,310.02L117.11,311.9L119.28,311.87L134.46,312.28L136.63,312.86L151.81,314.22L153.98,313.76L175.66,315.11L177.83,315.35L184.34,315.3L186.51,315.08L223.37,316.54L225.54,316.32L251.57,316.89L253.73,316.76L331.81,318.28L333.98,318.22L344.82,318.52L346.99,318.44L370.84,318.73L373.01,318.71L500.96,319.3L503.13,319.2L540,319.54" style="vector-effect: non-scaling-stroke; fill: none; stroke: rgb(25, 211, 243); stroke-opacity: 1; stroke-width: 2px; opacity: 1;"/></g><g class="points"/><g class="text"/></g><g class="trace scatter trace28d7c2" style="stroke-miterlimit: 2; opacity: 1;"><g class="fills"/><g class="errorbars"/><g class="lines"><path class="js-line" d="M0,191.92L4.34,228.74L6.51,235.3L10.84,251.18L13.01,248.53L19.52,261.36L21.69,269.49L23.86,269.51L26.02,275L28.19,278.21L30.36,279.78L34.7,281.66L36.87,284.31L41.2,287.41L43.37,288.92L49.88,289.92L52.05,292.57L54.22,293.28L56.39,295.25L60.72,300.31L62.89,299.84L67.23,301.12L69.4,301.97L71.57,302.33L73.73,301.83L75.9,303.4L78.07,303.16L86.75,303.24L88.92,304.03L93.25,305.35L95.42,305.21L101.93,306.87L104.1,307.62L106.27,308.56L108.43,308.52L112.77,307.93L114.94,308.04L121.45,308.92L123.61,309.34L130.12,310.46L132.29,310.54L138.8,311.7L140.96,311.85L151.81,312.59L153.98,312.53L199.52,315.52L201.69,315.35L212.53,315.78L214.7,315.7L221.2,315.88L223.37,315.96L294.94,317.79L297.11,317.8L344.82,318.34L346.99,318.3L375.18,318.73L377.35,318.87L412.05,318.91L414.22,318.97L440.24,319.09L442.41,319.09L490.12,319.47L492.29,319.43L540,319.64" style="vector-effect: non-scaling-stroke; fill: none; stroke: rgb(255, 102, 146); stroke-opacity: 1; stroke-width: 2px; opacity: 1;"/></g><g class="points"/><g class="text"/></g><g class="trace scatter trace50671d" style="stroke-miterlimit: 2; opacity: 1;"><g class="fills"/><g class="errorbars"/><g class="lines"><path class="js-line" d="M0,196.39L4.34,205.73L6.51,206.09L10.84,220.64L13.01,217.95L15.18,220.4L17.35,220.74L19.52,224.61L21.69,231.95L23.86,234.56L26.02,240.69L28.19,242.32L30.36,246.76L32.53,245.94L34.7,250.75L39.04,255.1L41.2,259.22L49.88,264.28L52.05,266.8L54.22,265.94L56.39,268.09L58.55,271.13L60.72,272.21L65.06,272.65L67.23,274.35L71.57,276.98L73.73,276.25L75.9,278.86L78.07,279.93L86.75,285.61L88.92,284.41L93.25,289.16L95.42,289.51L104.1,293.41L106.27,295.62L114.94,296.48L117.11,297.76L119.28,297.1L121.45,297.31L123.61,297.6L125.78,299.29L130.12,298.76L132.29,300.58L136.63,302.29L138.8,303.34L140.96,303.63L143.13,304.68L147.47,305.73L149.64,305.46L153.98,305.73L156.14,306.49L164.82,308.18L166.99,308.93L171.33,309.54L173.49,309.47L175.66,310.17L177.83,309.97L182.17,310.32L184.34,310.22L193.01,310.82L195.18,311.22L199.52,311.23L201.69,311.7L206.02,312.02L208.19,312.73L212.53,312.73L214.7,313.59L219.04,313.14L221.2,313.56L229.88,314.08L232.05,313.89L242.89,314.62L245.06,314.95L253.73,316.22L255.9,316.31L266.75,316.65L268.92,316.72L286.27,317.82L288.43,318.04L316.63,318.26L318.8,318.26L325.3,318.15L327.47,318.25L336.14,318.37L338.31,318.43L401.2,319.23L403.37,319.32L457.59,319.63L459.76,319.58L540,319.83" style="vector-effect: non-scaling-stroke; fill: none; stroke: rgb(182, 232, 128); stroke-opacity: 1; stroke-width: 2px; opacity: 1;"/></g><g class="points"/><g class="text"/></g><g class="trace scatter tracec2ca16" style="stroke-miterlimit: 2; opacity: 1;"><g class="fills"/><g class="errorbars"/><g class="lines"><path class="js-line" d="M0,180.58L2.17,181.73L4.34,193.48L6.51,197.82L8.67,206.81L10.84,209.33L13.01,205.05L17.35,208.59L19.52,212.64L21.69,222.81L23.86,221.59L26.02,225.36L28.19,231.92L30.36,237.56L32.53,237.26L34.7,242.14L36.87,244.23L39.04,245.7L41.2,249.72L43.37,251.32L45.54,250.37L49.88,253.02L52.05,256.52L54.22,255.09L56.39,258.17L60.72,265.47L62.89,261.3L65.06,261.57L67.23,263.81L71.57,267.96L73.73,267.27L75.9,269.1L78.07,269.46L82.41,274.13L84.58,274.45L88.92,275.27L91.08,278.14L93.25,281.28L95.42,281.43L99.76,284.18L101.93,285.02L104.1,284.36L106.27,286.07L114.94,287.29L117.11,288.92L119.28,290.45L121.45,290.24L123.61,291.16L125.78,291.13L127.95,291.04L130.12,291.81L138.8,294.95L140.96,294.95L143.13,296.64L145.3,296.73L156.14,297.17L158.31,297.28L160.48,296.96L162.65,297.48L164.82,297.91L166.99,299.5L173.49,301.41L175.66,302.04L180,302.84L182.17,303.07L203.86,305.28L206.02,306.1L212.53,307.22L214.7,308.12L219.04,307.93L221.2,308.36L227.71,308.71L229.88,309.65L236.39,309.87L238.55,310.6L249.4,311.7L251.57,311.14L266.75,312.42L268.92,312.87L271.08,312.44L273.25,312.82L290.6,314.05L292.77,314.07L307.95,314.53L310.12,314.8L314.46,314.61L316.63,315.2L338.31,316.24L340.48,316.49L377.35,317.91L379.52,318L392.53,318.28L394.7,318.35L540,319.65" style="vector-effect: non-scaling-stroke; fill: none; stroke: rgb(255, 151, 255); stroke-opacity: 1; stroke-width: 2px; opacity: 1;"/></g><g class="points"/><g class="text"/></g><g class="trace scatter traceb038ae" style="stroke-miterlimit: 2; opacity: 1;"><g class="fills"/><g class="errorbars"/><g class="lines"><path class="js-line" d="M0,173.39L2.17,176.38L4.34,185.25L8.67,198.29L10.84,197.47L13.01,198.18L15.18,202.78L17.35,206.85L19.52,207.64L21.69,216.53L23.86,217.69L26.02,222.86L28.19,226.07L30.36,230.73L32.53,231.76L34.7,238.23L36.87,240.96L39.04,240.86L41.2,242.94L43.37,245.58L45.54,245.44L47.71,247.65L49.88,247.24L52.05,249.38L54.22,250.01L56.39,252.29L58.55,256.57L60.72,259.36L62.89,259.15L65.06,258.82L67.23,259.48L69.4,260.66L71.57,263.21L73.73,263.77L75.9,265.84L78.07,266.4L80.24,269.21L82.41,270.28L84.58,270.16L86.75,270.64L88.92,272.45L93.25,277.05L95.42,277.47L99.76,279.26L101.93,281.48L106.27,283.52L108.43,283.1L110.6,282.18L112.77,282.38L114.94,282.56L117.11,284.01L119.28,284.04L121.45,285.87L123.61,286.42L125.78,286.16L132.29,287.99L134.46,289.03L140.96,291.52L143.13,293.51L147.47,295.11L149.64,295.39L153.98,295.31L156.14,295.67L158.31,296.5L160.48,295.82L164.82,295.78L166.99,297.15L169.16,297.77L171.33,297.6L177.83,299.64L180,299.99L182.17,300.08L184.34,301.09L193.01,300.1L195.18,300.67L203.86,303.43L206.02,303L216.87,303.76L219.04,303L221.2,303.89L223.37,303.9L227.71,305.3L229.88,306.09L234.22,305.84L236.39,306.52L258.07,308.75L260.24,308.57L279.76,310.64L281.93,310.41L310.12,314.2L312.29,313.99L336.14,315.37L338.31,315.46L401.2,317.48L403.37,317.31L412.05,317.28L414.22,317.31L470.6,317.95L472.77,318.08L481.45,318.33L483.61,318.28L500.96,318.8L503.13,318.74L513.98,318.79L516.14,318.87L540,319.05" style="vector-effect: non-scaling-stroke; fill: none; stroke: rgb(254, 203, 82); stroke-opacity: 1; stroke-width: 2px; opacity: 1;"/></g><g class="points"/><g class="text"/></g></g></g><g class="overplot"/><path class="xlines-above crisp" d="M0,0" style="fill: none;"/><path class="ylines-above crisp" d="M0,0" style="fill: none;"/><g class="overlines-above"/><g class="xaxislayer-above"><g class="xtick"><text text-anchor="middle" x="0" y="433" transform="translate(80,0)" style="font-family: 'Open Sans', verdana, arial, sans-serif; font-size: 12px; fill: rgb(42, 63, 95); fill-opacity: 1; white-space: pre; opacity: 1;">0</text></g><g class="xtick"><text text-anchor="middle" x="0" y="433" style="font-family: 'Open Sans', verdana, arial, sans-serif; font-size: 12px; fill: rgb(42, 63, 95); fill-opacity: 1; white-space: pre; opacity: 1;" transform="translate(188.43,0)">50</text></g><g class="xtick"><text text-anchor="middle" x="0" y="433" style="font-family: 'Open Sans', verdana, arial, sans-serif; font-size: 12px; fill: rgb(42, 63, 95); fill-opacity: 1; white-space: pre; opacity: 1;" transform="translate(296.87,0)">100</text></g><g class="xtick"><text text-anchor="middle" x="0" y="433" style="font-family: 'Open Sans', verdana, arial, sans-serif; font-size: 12px; fill: rgb(42, 63, 95); fill-opacity: 1; white-space: pre; opacity: 1;" transform="translate(405.3,0)">150</text></g><g class="xtick"><text text-anchor="middle" x="0" y="433" style="font-family: 'Open Sans', verdana, arial, sans-serif; font-size: 12px; fill: rgb(42, 63, 95); fill-opacity: 1; white-space: pre; opacity: 1;" transform="translate(513.73,0)">200</text></g></g><g class="yaxislayer-above"><g class="ytick"><text text-anchor="end" x="79" y="4.199999999999999" transform="translate(0,420)" style="font-family: 'Open Sans', verdana, arial, sans-serif; font-size: 12px; fill: rgb(42, 63, 95); fill-opacity: 1; white-space: pre; opacity: 1;">0</text></g><g class="ytick"><text text-anchor="end" x="79" y="4.199999999999999" style="font-family: 'Open Sans', verdana, arial, sans-serif; font-size: 12px; fill: rgb(42, 63, 95); fill-opacity: 1; white-space: pre; opacity: 1;" transform="translate(0,355.64)">50</text></g><g class="ytick"><text text-anchor="end" x="79" y="4.199999999999999" style="font-family: 'Open Sans', verdana, arial, sans-serif; font-size: 12px; fill: rgb(42, 63, 95); fill-opacity: 1; white-space: pre; opacity: 1;" transform="translate(0,291.28999999999996)">100</text></g><g class="ytick"><text text-anchor="end" x="79" y="4.199999999999999" style="font-family: 'Open Sans', verdana, arial, sans-serif; font-size: 12px; fill: rgb(42, 63, 95); fill-opacity: 1; white-space: pre; opacity: 1;" transform="translate(0,226.93)">150</text></g><g class="ytick"><text text-anchor="end" x="79" y="4.199999999999999" style="font-family: 'Open Sans', verdana, arial, sans-serif; font-size: 12px; fill: rgb(42, 63, 95); fill-opacity: 1; white-space: pre; opacity: 1;" transform="translate(0,162.57999999999998)">200</text></g></g><g class="overaxes-above"/></g></g><g class="polarlayer"/><g class="ternarylayer"/><g class="geolayer"/><g class="funnelarealayer"/><g class="pielayer"/><g class="iciclelayer"/><g class="treemaplayer"/><g class="sunburstlayer"/><g class="glimages"/><defs id="topdefs-fda3a1"><g class="clips"/></defs><g class="layer-above"><g class="imagelayer"/><g class="shapelayer"/></g><g class="infolayer"><g class="g-gtitle"><text class="gtitle" x="35" y="50" text-anchor="start" dy="0em" style="font-family: 'Open Sans', verdana, arial, sans-serif; font-size: 17px; fill: rgb(42, 63, 95); opacity: 1; font-weight: normal; white-space: pre;">Average Rank: ascad_100-simplified_eff_cnn</text></g><g class="g-xtitle"/><g class="g-ytitle"/></g></svg>