<svg class="main-svg" xmlns="http://www.w3.org/2000/svg" xmlns:xlink="http://www.w3.org/1999/xlink" width="700" height="500" style="" viewBox="0 0 700 500"><rect x="0" y="0" width="700" height="500" style="fill: rgb(255, 255, 255); fill-opacity: 1;"/><defs id="defs-1542cc"><g class="clips"><clipPath id="clip1542ccxyplot" class="plotclip"><rect width="540" height="320"/></clipPath><clipPath class="axesclip" id="clip1542ccx"><rect x="80" y="0" width="540" height="500"/></clipPath><clipPath class="axesclip" id="clip1542ccy"><rect x="0" y="100" width="700" height="320"/></clipPath><clipPath class="axesclip" id="clip1542ccxy"><rect x="80" y="100" width="540" height="320"/></clipPath></g><g class="gradients"/><g class="patterns"/></defs><g class="bglayer"><rect class="bg" x="80" y="100" width="540" height="320" style="fill: rgb(229, 236, 246); fill-opacity: 1; stroke-width: 0;"/></g><g class="layer-below"><g class="imagelayer"/><g class="shapelayer"/></g><g class="cartesianlayer"><g class="subplot xy"><g class="layer-subplot"><g class="shapelayer"/><g class="imagelayer"/></g><g class="gridlayer"><g class="x"><path class="xgrid crisp" transform="translate(190.2,0)" d="M0,100v320" style="stroke: rgb(255, 255, 255); stroke-opacity: 1; stroke-width: 1px;"/><path class="xgrid crisp" transform="translate(300.40999999999997,0)" d="M0,100v320" style="stroke: rgb(255, 255, 255); stroke-opacity: 1; stroke-width: 1px;"/><path class="xgrid crisp" transform="translate(410.61,0)" d="M0,100v320" style="stroke: rgb(255, 255, 255); stroke-opacity: 1; stroke-width: 1px;"/><path class="xgrid crisp" transform="translate(520.8199999999999,0)" d="M0,100v320" style="stroke: rgb(255, 255, 255); stroke-opacity: 1; stroke-width: 1px;"/></g><g class="y"><path class="ygrid crisp" transform="translate(0,418.59)" d="M80,0h540" style="stroke: rgb(255, 255, 255); stroke-opacity: 1; stroke-width: 1px;"/><path class="ygrid crisp" transform="translate(0,381.2)" d="M80,0h540" style="stroke: rgb(255, 255, 255); stroke-opacity: 1; stroke-width: 1px;"/><path class="ygrid crisp" transform="translate(0,343.81)" d="M80,0h540" style="stroke: rgb(255, 255, 255); stroke-opacity: 1; stroke-width: 1px;"/><path class="ygrid crisp" transform="translate(0,306.41999999999996)" d="M80,0h540" style="stroke: rgb(255, 255, 255); stroke-opacity: 1; stroke-width: 1px;"/><path class="ygrid crisp" transform="translate(0,269.03)" d="M80,0h540" style="stroke: rgb(255, 255, 255); stroke-opacity: 1; stroke-width: 1px;"/><path class="ygrid crisp" transform="translate(0,231.64)" d="M80,0h540" style="stroke: rgb(255, 255, 255); stroke-opacity: 1; stroke-width: 1px;"/><path class="ygrid crisp" transform="translate(0,194.25)" d="M80,0h540" style="stroke: rgb(255, 255, 255); stroke-opacity: 1; stroke-width: 1px;"/><path class="ygrid crisp" transform="translate(0,156.86)" d="M80,0h540" style="stroke: rgb(255, 255, 255); stroke-opacity: 1; stroke-width: 1px;"/><path class="ygrid crisp" transform="translate(0,119.47)" d="M80,0h540" style="stroke: rgb(255, 255, 255); stroke-opacity: 1; stroke-width: 1px;"/></g></g><g class="zerolinelayer"><path class="xzl zl crisp" transform="translate(80,0)" d="M0,100v320" style="stroke: rgb(255, 255, 255); stroke-opacity: 1; stroke-width: 2px;"/></g><path class="xlines-below"/><path class="ylines-below"/><g class="overlines-below"/><g class="xaxislayer-below"/><g class="yaxislayer-below"/><g class="overaxes-below"/><g class="plot" transform="translate(80,100)" clip-path="url(#clip1542ccxyplot)"><g class="scatterlayer mlayer"><g class="trace scatter trace823f4d" style="stroke-miterlimit: 2; opacity: 1;"><g class="fills"/><g class="errorbars"/><g class="lines"><path class="js-line" d="M0,2.38L11.02,17.18L22.04,23.01L55.1,29.05L66.12,29.91L110.2,32.31L121.22,33.35L165.31,37.23L176.33,38.53L187.35,37.96L198.37,39.44L209.39,40.04L220.41,41.61L231.43,43.29L242.45,46.28L253.47,50.15L264.49,53.02L319.59,69.84L330.61,75.64L341.63,85.74L352.65,99.88L363.67,111.66L374.69,120.64L396.73,133.29L407.76,138.22L429.8,147.64L440.82,150.86L495.92,158.51L506.94,159.55L540,162.45" style="vector-effect: non-scaling-stroke; fill: none; stroke: rgb(99, 110, 250); stroke-opacity: 1; stroke-width: 2px; opacity: 1;"/></g><g class="points"/><g class="text"/></g><g class="trace scatter trace1c9275" style="stroke-miterlimit: 2; opacity: 1;"><g class="fills"/><g class="errorbars"/><g class="lines"><path class="js-line" d="M0,0.48L11.02,17.18L22.04,21.96L44.08,28.24L55.1,41.34L66.12,63.82L77.14,79.07L88.16,87.5L99.18,92.74L110.2,105.03L121.22,114.19L132.24,121L143.27,123.45L154.29,126.84L165.31,128.15L176.33,131.27L187.35,131.33L198.37,133.7L209.39,131.53L220.41,133.05L231.43,140.74L242.45,145.44L253.47,151.69L264.49,158.73L275.51,163.33L308.57,183.49L319.59,190.43L330.61,196.72L341.63,201.7L363.67,214.09L374.69,220.46L396.73,230.04L407.76,236.76L418.78,241.53L429.8,247.37L440.82,250.7L451.84,252.52L484.9,257.26L495.92,258.32L528.98,262.65L540,263.46" style="vector-effect: non-scaling-stroke; fill: none; stroke: rgb(239, 85, 59); stroke-opacity: 1; stroke-width: 2px; opacity: 1;"/></g><g class="points"/><g class="text"/></g><g class="trace scatter traceed2505" style="stroke-miterlimit: 2; opacity: 1;"><g class="fills"/><g class="errorbars"/><g class="lines"><path class="js-line" d="M0,0.83L11.02,17.1L22.04,21.68L44.08,27.42L55.1,29.03L88.16,32.63L99.18,32.42L121.22,34.93L132.24,34.89L165.31,37.73L176.33,39.84L187.35,40.35L198.37,48.74L209.39,75.47L220.41,94.59L231.43,108.97L242.45,118.55L253.47,125.14L264.49,133.9L275.51,143.05L286.53,153.92L308.57,172.63L319.59,179.92L330.61,187.16L341.63,192.66L374.69,211.52L385.71,216.85L407.76,227.92L418.78,232.76L429.8,238.09L440.82,241.75L495.92,249.19L506.94,250.59L540,253.9" style="vector-effect: non-scaling-stroke; fill: none; stroke: rgb(0, 204, 150); stroke-opacity: 1; stroke-width: 2px; opacity: 1;"/></g><g class="points"/><g class="text"/></g><g class="trace scatter trace4037a1" style="stroke-miterlimit: 2; opacity: 1;"><g class="fills"/><g class="errorbars"/><g class="lines"><path class="js-line" d="M0,0.83L11.02,16.76L22.04,21.54L44.08,27.41L55.1,29.68L66.12,36.9L77.14,59.72L88.16,78.03L99.18,85.97L110.2,92.38L121.22,96.33L132.24,99.6L143.27,105.05L154.29,113.86L165.31,119.36L176.33,124.89L187.35,127.95L198.37,131.55L209.39,132.23L220.41,136.03L231.43,144.59L253.47,156.9L264.49,165.16L275.51,169.79L286.53,175.5L297.55,181.44L308.57,188.67L319.59,193.7L330.61,200.3L341.63,203.99L352.65,209.91L374.69,220.82L385.71,225.64L396.73,230.1L407.76,236.14L418.78,240.4L429.8,245.82L440.82,249.21L451.84,250.45L484.9,254.93L495.92,256L528.98,260.19L540,260.88" style="vector-effect: non-scaling-stroke; fill: none; stroke: rgb(171, 99, 250); stroke-opacity: 1; stroke-width: 2px; opacity: 1;"/></g><g class="points"/><g class="text"/></g><g class="trace scatter trace7ed0e4" style="stroke-miterlimit: 2; opacity: 1;"><g class="fills"/><g class="errorbars"/><g class="lines"><path class="js-line" d="M0,0.78L11.02,16.74L22.04,21.65L44.08,27.62L55.1,30.18L66.12,43.36L77.14,68.14L88.16,82.03L99.18,87.75L110.2,93.83L121.22,98.48L132.24,108.05L143.27,115.73L154.29,122.18L165.31,123.95L176.33,128.28L187.35,129.2L198.37,132.35L209.39,131.07L220.41,132.1L231.43,139.83L253.47,150.9L264.49,157.8L275.51,162.88L286.53,169.38L297.55,175.58L308.57,182.93L330.61,194.7L341.63,199.09L374.69,216.07L385.71,220.58L396.73,224.95L407.76,231.18L418.78,235.33L429.8,240.8L440.82,244.21L451.84,245.78L517.96,253.79L528.98,255.2L540,255.9" style="vector-effect: non-scaling-stroke; fill: none; stroke: rgb(255, 161, 90); stroke-opacity: 1; stroke-width: 2px; opacity: 1;"/></g><g class="points"/><g class="text"/></g><g class="trace scatter traceee9211" style="stroke-miterlimit: 2; opacity: 1;"><g class="fills"/><g class="errorbars"/><g class="lines"><path class="js-line" d="M0,1.05L11.02,16.76L22.04,21.85L33.06,26.64L44.08,41.47L55.1,62.82L66.12,74.97L77.14,84.15L88.16,90.13L99.18,95.89L110.2,107.17L121.22,114.86L132.24,120.58L176.33,130.37L187.35,130.84L198.37,132.95L209.39,131.44L220.41,133.03L231.43,140.25L253.47,151.9L264.49,159.04L275.51,163.41L286.53,169.32L319.59,186.51L330.61,192.54L341.63,196.84L352.65,202.1L374.69,214.13L385.71,218.64L396.73,222.74L407.76,228.81L418.78,233.56L429.8,239.2L440.82,242.79L451.84,244.18L517.96,252.99L528.98,254.25L540,254.94" style="vector-effect: non-scaling-stroke; fill: none; stroke: rgb(25, 211, 243); stroke-opacity: 1; stroke-width: 2px; opacity: 1;"/></g><g class="points"/><g class="text"/></g><g class="trace scatter trace68ccc0" style="stroke-miterlimit: 2; opacity: 1;"><g class="fills"/><g class="errorbars"/><g class="lines"><path class="js-line" d="M0,0.65L11.02,16.97L22.04,21.24L44.08,27.28L55.1,28.92L77.14,31.73L88.16,42.48L99.18,67.53L110.2,83.54L121.22,90.32L132.24,94.2L143.27,97.57L154.29,99.74L165.31,101.74L176.33,105.76L198.37,123.94L209.39,126.56L220.41,129.87L231.43,138.12L264.49,153.51L275.51,157.27L286.53,162.55L297.55,166.22L308.57,172.03L319.59,176.15L330.61,181.13L341.63,184.93L363.67,193.91L374.69,198.19L396.73,206.93L407.76,212.13L418.78,215.84L429.8,220.76L440.82,223.58L451.84,225.11L540,234.69" style="vector-effect: non-scaling-stroke; fill: none; stroke: rgb(255, 102, 146); stroke-opacity: 1; stroke-width: 2px; opacity: 1;"/></g><g class="points"/><g class="text"/></g><g class="trace scatter trace33e50a" style="stroke-miterlimit: 2; opacity: 1;"><g class="fills"/><g class="errorbars"/><g class="lines"><path class="js-line" d="M0,0.87L11.02,16.72L22.04,21.2L44.08,27.53L55.1,29.87L66.12,40.47L77.14,64L88.16,79.95L99.18,86.5L110.2,92.55L121.22,96.28L132.24,103.36L143.27,113L154.29,119.93L165.31,123.58L176.33,127.14L187.35,129.84L198.37,131.65L209.39,130.23L220.41,132.27L231.43,139.65L253.47,149.37L264.49,155.67L275.51,159.08L286.53,164.71L297.55,170.07L308.57,176.93L352.65,196.07L363.67,200.98L374.69,206.51L385.71,210.85L396.73,215.14L407.76,220.96L418.78,224.95L429.8,230.05L440.82,233.38L451.84,235.08L506.94,241.25L517.96,242.73L540,244.94" style="vector-effect: non-scaling-stroke; fill: none; stroke: rgb(182, 232, 128); stroke-opacity: 1; stroke-width: 2px; opacity: 1;"/></g><g class="points"/><g class="text"/></g><g class="trace scatter trace863b07" style="stroke-miterlimit: 2; opacity: 1;"><g class="fills"/><g class="errorbars"/><g class="lines"><path class="js-line" d="M0,0.46L11.02,16.41L22.04,20.83L44.08,26.62L55.1,28.89L77.14,30.96L88.16,31.87L110.2,33.97L121.22,34.18L132.24,35.72L143.27,36.46L154.29,38.11L165.31,38.08L187.35,40.54L198.37,41.17L209.39,41.8L220.41,43.57L231.43,46.57L242.45,57.35L253.47,79.48L264.49,94.1L275.51,103L286.53,115.76L297.55,128.05L308.57,136.39L319.59,144.6L330.61,151.31L341.63,155.55L352.65,160.89L363.67,166.01L374.69,172.17L385.71,175.91L396.73,181.91L407.76,185.57L418.78,190.37L440.82,198.17L451.84,199.79L495.92,205.2L506.94,206.33L540,209.63" style="vector-effect: non-scaling-stroke; fill: none; stroke: rgb(255, 151, 255); stroke-opacity: 1; stroke-width: 2px; opacity: 1;"/></g><g class="points"/><g class="text"/></g><g class="trace scatter trace6ca0cb" style="stroke-miterlimit: 2; opacity: 1;"><g class="fills"/><g class="errorbars"/><g class="lines"><path class="js-line" d="M0,0.74L11.02,17.12L22.04,21.18L44.08,28.08L55.1,35.26L66.12,57.47L77.14,75.93L88.16,87.31L99.18,100.22L110.2,110.32L121.22,117.09L132.24,121.84L143.27,123.36L154.29,126.61L165.31,127.79L187.35,132.81L198.37,133.85L209.39,131.81L220.41,133.4L231.43,140.63L242.45,145.19L253.47,149.93L264.49,155.71L275.51,160.1L286.53,165.62L297.55,170.72L308.57,177.12L341.63,190.52L352.65,195.78L374.69,206.45L385.71,210.86L396.73,214.77L407.76,220.86L418.78,225.06L429.8,230.17L440.82,233.84L451.84,234.99L528.98,244.37L540,245.14" style="vector-effect: non-scaling-stroke; fill: none; stroke: rgb(254, 203, 82); stroke-opacity: 1; stroke-width: 2px; opacity: 1;"/></g><g class="points"/><g class="text"/></g><g class="trace scatter trace531970" style="stroke-miterlimit: 2; opacity: 1;"><g class="fills"/><g class="errorbars"/><g class="lines"><path class="js-line" d="M0,0.54L11.02,16.91L22.04,21.88L44.08,27.5L55.1,29.15L66.12,30.48L77.14,30.9L88.16,32.87L99.18,33.07L121.22,35.21L132.24,35.5L154.29,38.68L165.31,49.79L176.33,76.52L187.35,88.17L198.37,94.61L209.39,95.27L220.41,99.01L231.43,106.33L242.45,113.73L253.47,118.3L264.49,126.09L275.51,130.93L286.53,137.24L297.55,142.27L330.61,161.17L341.63,166.66L352.65,173.49L363.67,181.73L385.71,197.02L396.73,203.46L407.76,209.92L418.78,215.15L429.8,220.84L440.82,224.44L462.86,228.81L473.88,230.36L528.98,237.35L540,238.25" style="vector-effect: non-scaling-stroke; fill: none; stroke: rgb(99, 110, 250); stroke-opacity: 1; stroke-width: 2px; opacity: 1;"/></g><g class="points"/><g class="text"/></g><g class="trace scatter trace415272" style="stroke-miterlimit: 2; opacity: 1;"><g class="fills"/><g class="errorbars"/><g class="lines"><path class="js-line" d="M0,0.8L11.02,17.06L22.04,21.45L33.06,24.7L44.08,28.89L55.1,43.83L66.12,65.8L77.14,80.08L88.16,87.02L110.2,95.52L121.22,98.63L132.24,101.94L143.27,107.88L154.29,116.45L165.31,121.18L176.33,125.36L187.35,127.32L198.37,130.01L209.39,129.32L220.41,130.97L231.43,139.03L253.47,150.1L264.49,157.25L275.51,162.84L286.53,170.48L308.57,186.19L319.59,192.51L363.67,218.57L374.69,224.64L407.76,242.24L418.78,247.05L429.8,253.01L440.82,257.08L484.9,263.61L495.92,264.91L506.94,266.81L517.96,267.89L528.98,269.57L540,270.35" style="vector-effect: non-scaling-stroke; fill: none; stroke: rgb(239, 85, 59); stroke-opacity: 1; stroke-width: 2px; opacity: 1;"/></g><g class="points"/><g class="text"/></g><g class="trace scatter trace325d5b" style="stroke-miterlimit: 2; opacity: 1;"><g class="fills"/><g class="errorbars"/><g class="lines"><path class="js-line" d="M0,0.76L11.02,16.9L22.04,21.41L44.08,27.74L55.1,40.32L66.12,62.51L77.14,78.23L88.16,86.64L99.18,90.6L110.2,97.86L121.22,107.8L132.24,116.26L143.27,120.14L154.29,124.48L165.31,126.29L187.35,130.9L198.37,132.09L209.39,130.47L220.41,131.61L231.43,138.67L242.45,142.63L253.47,147.33L264.49,152.97L275.51,156.79L286.53,162.27L297.55,167.23L308.57,174.14L319.59,178.22L330.61,183.81L341.63,187.54L352.65,193.22L374.69,203.52L385.71,207.56L396.73,211.85L407.76,217.64L429.8,227.01L440.82,230.41L484.9,235.97L495.92,236.84L528.98,241.21L540,241.83" style="vector-effect: non-scaling-stroke; fill: none; stroke: rgb(0, 204, 150); stroke-opacity: 1; stroke-width: 2px; opacity: 1;"/></g><g class="points"/><g class="text"/></g><g class="trace scatter tracee316d6" style="stroke-miterlimit: 2; opacity: 1;"><g class="fills"/><g class="errorbars"/><g class="lines"><path class="js-line" d="M0,0.27L11.02,16.11L22.04,20.97L55.1,28.9L66.12,30.22L77.14,30.97L88.16,32.79L99.18,35.46L110.2,52.74L121.22,76.02L132.24,87.8L154.29,99.45L165.31,103.84L187.35,114.23L198.37,119.7L209.39,123.05L220.41,129.32L231.43,141.41L242.45,154.71L264.49,174.9L275.51,180.73L286.53,189.9L297.55,197.49L330.61,219.02L341.63,224.95L352.65,229.79L363.67,235.67L374.69,242.85L385.71,247.17L407.76,258.16L418.78,262.61L429.8,268.02L440.82,271.76L451.84,274.02L462.86,275.15L495.92,279.54L506.94,280.71L540,284.5" style="vector-effect: non-scaling-stroke; fill: none; stroke: rgb(171, 99, 250); stroke-opacity: 1; stroke-width: 2px; opacity: 1;"/></g><g class="points"/><g class="text"/></g><g class="trace scatter traced57161" style="stroke-miterlimit: 2; opacity: 1;"><g class="fills"/><g class="errorbars"/><g class="lines"><path class="js-line" d="M0,0.21L11.02,16.35L22.04,20.4L55.1,28.97L66.12,30.43L88.16,32.12L99.18,32.8L132.24,35.61L143.27,36.32L154.29,37.95L165.31,38.29L198.37,43.56L209.39,59.7L220.41,89.48L231.43,106.99L242.45,120.2L253.47,130.68L264.49,140.13L275.51,146.91L297.55,160.84L308.57,166.16L330.61,179.42L341.63,183.64L352.65,189.08L363.67,193.59L374.69,200.32L385.71,204.68L396.73,211.16L407.76,215.61L429.8,225.48L440.82,229.33L473.88,234.83L484.9,236.2L540,242.37" style="vector-effect: non-scaling-stroke; fill: none; stroke: rgb(255, 161, 90); stroke-opacity: 1; stroke-width: 2px; opacity: 1;"/></g><g class="points"/><g class="text"/></g><g class="trace scatter tracee9141d" style="stroke-miterlimit: 2; opacity: 1;"><g class="fills"/><g class="errorbars"/><g class="lines"><path class="js-line" d="M0,0.85L11.02,17.33L22.04,21.76L44.08,27.81L55.1,29.39L77.14,31.27L88.16,34.98L99.18,49.35L110.2,75.27L121.22,86.45L132.24,91.18L143.27,95.82L154.29,98.46L165.31,104.61L176.33,114.58L187.35,120.03L198.37,123.32L209.39,123.72L220.41,126.2L231.43,133.61L242.45,139.46L253.47,143.65L264.49,149.81L275.51,153.28L286.53,158.29L297.55,163.13L308.57,169.44L319.59,172.47L330.61,178.28L352.65,186.19L363.67,191.25L385.71,200.32L396.73,204.35L407.76,209.82L418.78,213.71L429.8,218.89L440.82,221.82L528.98,232.15L540,232.62" style="vector-effect: non-scaling-stroke; fill: none; stroke: rgb(25, 211, 243); stroke-opacity: 1; stroke-width: 2px; opacity: 1;"/></g><g class="points"/><g class="text"/></g><g class="trace scatter trace8b8fc2" style="stroke-miterlimit: 2; opacity: 1;"><g class="fills"/><g class="errorbars"/><g class="lines"><path class="js-line" d="M0,0.88L11.02,17.07L22.04,21.59L44.08,27.3L55.1,28.8L66.12,30.21L77.14,30.72L88.16,32.68L99.18,33.16L121.22,36.63L132.24,51.78L143.27,76.02L154.29,86.82L165.31,92.3L176.33,96.1L198.37,101.19L209.39,101.21L220.41,103.15L231.43,112.33L242.45,123.8L253.47,133.53L264.49,143.64L275.51,148.37L286.53,155.94L297.55,161.35L308.57,168.02L319.59,173.37L330.61,179.07L341.63,183.91L363.67,193.54L374.69,198.41L396.73,207.57L407.76,212.63L429.8,222.21L440.82,225.46L484.9,231.2L495.92,232.37L528.98,236.45L540,237.02" style="vector-effect: non-scaling-stroke; fill: none; stroke: rgb(255, 102, 146); stroke-opacity: 1; stroke-width: 2px; opacity: 1;"/></g><g class="points"/><g class="text"/></g><g class="trace scatter tracedd2413" style="stroke-miterlimit: 2; opacity: 1;"><g class="fills"/><g class="errorbars"/><g class="lines"><path class="js-line" d="M0,1L11.02,16.82L22.04,21.92L44.08,27.47L55.1,29.05L77.14,31.07L88.16,33.1L99.18,33.36L110.2,34.87L132.24,36.56L143.27,45L154.29,70.32L165.31,85.04L176.33,92.6L187.35,96.07L198.37,99.92L209.39,99.29L220.41,101.85L231.43,108.25L242.45,113.85L253.47,116.95L264.49,123.87L275.51,128.46L286.53,138.54L297.55,147.44L308.57,156.7L319.59,164.13L330.61,171.04L341.63,176.35L352.65,181.52L363.67,187.6L418.78,212.75L429.8,217.82L440.82,221.01L451.84,222.95L528.98,232.5L540,233.13" style="vector-effect: non-scaling-stroke; fill: none; stroke: rgb(182, 232, 128); stroke-opacity: 1; stroke-width: 2px; opacity: 1;"/></g><g class="points"/><g class="text"/></g><g class="trace scatter trace14638b" style="stroke-miterlimit: 2; opacity: 1;"><g class="fills"/><g class="errorbars"/><g class="lines"><path class="js-line" d="M0,0.29L11.02,16.62L22.04,20.94L55.1,29.75L66.12,38.5L77.14,65.73L88.16,81.74L110.2,92.86L121.22,97.14L132.24,100.71L143.27,107.46L154.29,117.63L165.31,123.86L176.33,124.6L187.35,128.32L198.37,130.32L209.39,130.71L220.41,132.33L231.43,136.98L242.45,141.05L253.47,147.07L264.49,152.08L275.51,154.68L286.53,159.36L297.55,165.15L308.57,170.41L319.59,174.48L330.61,180.1L341.63,184.29L363.67,192.68L374.69,199.03L385.71,202.66L396.73,207.5L429.8,220.98L440.82,224.55L451.84,226.54L462.86,227.41L484.9,230.48L495.92,231.42L540,235.95" style="vector-effect: non-scaling-stroke; fill: none; stroke: rgb(255, 151, 255); stroke-opacity: 1; stroke-width: 2px; opacity: 1;"/></g><g class="points"/><g class="text"/></g><g class="trace scatter trace82ddf6" style="stroke-miterlimit: 2; opacity: 1;"><g class="fills"/><g class="errorbars"/><g class="lines"><path class="js-line" d="M0,0.81L11.02,16.87L22.04,21.18L33.06,24.61L44.08,31.06L66.12,71.55L77.14,85.99L88.16,94.38L99.18,99.77L132.24,117.66L143.27,124.81L154.29,130.61L165.31,139.47L176.33,150.73L187.35,157.97L198.37,161.78L209.39,162.76L242.45,185.46L253.47,190.14L264.49,198.59L275.51,204.74L286.53,210.22L297.55,218.84L308.57,226.32L319.59,232.23L341.63,243.6L352.65,250.25L374.69,260.9L385.71,266.83L396.73,271.8L407.76,278.12L429.8,288.66L440.82,292.92L484.9,299.07L495.92,299.93L517.96,303.38L528.98,304.46L540,305.72" style="vector-effect: non-scaling-stroke; fill: none; stroke: rgb(254, 203, 82); stroke-opacity: 1; stroke-width: 2px; opacity: 1;"/></g><g class="points"/><g class="text"/></g><g class="trace scatter trace96856d" style="stroke-miterlimit: 2; opacity: 1;"><g class="fills"/><g class="errorbars"/><g class="lines"><path class="js-line" d="M0,0.81L11.02,16.68L22.04,21.42L33.06,25.51L44.08,34.22L55.1,56.29L66.12,71.63L77.14,82.32L88.16,89.91L110.2,110.2L121.22,117L132.24,121.98L143.27,125.32L176.33,131.61L187.35,132.67L198.37,135.61L209.39,135.27L220.41,138.68L231.43,145.65L242.45,153.75L253.47,160.36L264.49,170.2L275.51,177.63L286.53,186.8L297.55,194.06L308.57,201.74L319.59,208.09L330.61,215.26L341.63,221.03L352.65,227.31L363.67,232.61L407.76,255.47L418.78,260.16L429.8,265.72L440.82,269.5L528.98,281.73L540,282.37" style="vector-effect: non-scaling-stroke; fill: none; stroke: rgb(99, 110, 250); stroke-opacity: 1; stroke-width: 2px; opacity: 1;"/></g><g class="points"/><g class="text"/></g><g class="trace scatter traced4b192" style="stroke-miterlimit: 2; opacity: 1;"><g class="fills"/><g class="errorbars"/><g class="lines"><path class="js-line" d="M0,0.46L11.02,16.59L22.04,20.74L44.08,26.57L55.1,29.1L66.12,30.58L77.14,31.18L88.16,32.84L99.18,33.09L121.22,34.15L132.24,35.82L143.27,36.26L154.29,37.75L165.31,39.07L176.33,42.51L187.35,64.82L198.37,96L209.39,116.14L220.41,127.9L242.45,146.83L253.47,153.88L264.49,161.73L275.51,167.22L286.53,174.82L297.55,181.02L319.59,193.59L330.61,200.71L341.63,206.5L352.65,211.44L374.69,224.59L385.71,229.56L407.76,241.15L418.78,245.93L429.8,251.29L440.82,255.01L462.86,258.93L473.88,260.36L495.92,263.49L506.94,264.46L528.98,267.01L540,268.4" style="vector-effect: non-scaling-stroke; fill: none; stroke: rgb(239, 85, 59); stroke-opacity: 1; stroke-width: 2px; opacity: 1;"/></g><g class="points"/><g class="text"/></g><g class="trace scatter trace40cb9e" style="stroke-miterlimit: 2; opacity: 1;"><g class="fills"/><g class="errorbars"/><g class="lines"><path class="js-line" d="M0,0.44L11.02,16.27L22.04,20.58L55.1,28.8L66.12,30.3L121.22,34.24L132.24,35.57L143.27,36.22L154.29,37.78L165.31,38.39L176.33,39.87L187.35,41.69L198.37,47.76L209.39,71.45L220.41,90.88L242.45,128.21L253.47,141.27L264.49,150.02L275.51,157.72L297.55,173.4L308.57,179.83L330.61,195.2L341.63,200.63L352.65,205.85L363.67,212.06L374.69,219.57L385.71,224.25L407.76,235.52L418.78,240.12L429.8,245.21L440.82,248.97L473.88,254.18L484.9,255.68L528.98,260.26L540,261.53" style="vector-effect: non-scaling-stroke; fill: none; stroke: rgb(0, 204, 150); stroke-opacity: 1; stroke-width: 2px; opacity: 1;"/></g><g class="points"/><g class="text"/></g><g class="trace scatter tracee4197a" style="stroke-miterlimit: 2; opacity: 1;"><g class="fills"/><g class="errorbars"/><g class="lines"><path class="js-line" d="M0,0.43L11.02,16.43L22.04,20.46L44.08,26.91L55.1,29.16L99.18,34.45L110.2,42.41L121.22,69.28L132.24,84.84L154.29,99.07L165.31,112.75L176.33,123.32L187.35,130.71L198.37,134.84L209.39,140.09L220.41,145.14L231.43,151.71L264.49,172.95L275.51,177.62L308.57,198.43L319.59,204.69L330.61,211.73L341.63,217.25L363.67,229.14L374.69,236.37L407.76,252.54L418.78,257.58L429.8,263.45L440.82,267.5L484.9,274.49L495.92,275.78L528.98,279.52L540,281" style="vector-effect: non-scaling-stroke; fill: none; stroke: rgb(171, 99, 250); stroke-opacity: 1; stroke-width: 2px; opacity: 1;"/></g><g class="points"/><g class="text"/></g><g class="trace scatter trace40c1bb" style="stroke-miterlimit: 2; opacity: 1;"><g class="fills"/><g class="errorbars"/><g class="lines"><path class="js-line" d="M0,0.61L11.02,17.04L22.04,21.68L33.06,24.88L44.08,27.14L66.12,29.8L77.14,30.14L88.16,31.91L99.18,31.71L121.22,33.93L132.24,33.75L154.29,36.73L165.31,36.64L176.33,38.69L187.35,38.84L198.37,40.91L209.39,42.05L220.41,55.34L231.43,80.11L242.45,94.29L253.47,105.31L275.51,128.73L286.53,138.84L308.57,155.33L319.59,160.97L330.61,167.63L341.63,172.82L385.71,194.81L396.73,199.16L407.76,204.81L418.78,208.82L429.8,213.97L440.82,217.21L473.88,222.03L484.9,223.09L528.98,227.86L540,228.77" style="vector-effect: non-scaling-stroke; fill: none; stroke: rgb(255, 161, 90); stroke-opacity: 1; stroke-width: 2px; opacity: 1;"/></g><g class="points"/><g class="text"/></g><g class="trace scatter trace793f4f" style="stroke-miterlimit: 2; opacity: 1;"><g class="fills"/><g class="errorbars"/><g class="lines"><path class="js-line" d="M0,0.75L11.02,16.87L22.04,21.38L33.06,24.94L44.08,27.66L55.1,30.88L66.12,45.58L77.14,69.49L88.16,82.73L99.18,87.8L110.2,94.08L121.22,97.44L132.24,103.11L143.27,111.78L154.29,118.69L176.33,126.85L187.35,130.11L198.37,132.63L209.39,132.28L220.41,135.76L231.43,141.73L242.45,148.27L253.47,153.32L264.49,158.67L275.51,162.65L330.61,188.78L341.63,193.09L396.73,216.12L407.76,222.32L418.78,225.86L429.8,231.34L440.82,234.19L451.84,235.66L540,245.34" style="vector-effect: non-scaling-stroke; fill: none; stroke: rgb(25, 211, 243); stroke-opacity: 1; stroke-width: 2px; opacity: 1;"/></g><g class="points"/><g class="text"/></g><g class="trace scatter traceee7812" style="stroke-miterlimit: 2; opacity: 1;"><g class="fills"/><g class="errorbars"/><g class="lines"><path class="js-line" d="M0,0.14L11.02,16.35L22.04,20.42L44.08,26.71L55.1,28.93L66.12,30.34L77.14,30.62L88.16,32.09L99.18,32.4L198.37,39.95L209.39,41.35L220.41,43.02L231.43,54.81L242.45,90.01L253.47,115.05L264.49,130.75L275.51,143.12L286.53,153.61L297.55,161.71L319.59,176.66L330.61,184.21L363.67,201.7L374.69,208.81L385.71,213.2L396.73,219.36L429.8,233.92L440.82,237.37L451.84,239.65L462.86,241.09L495.92,245.55L506.94,246.64L540,250.21" style="vector-effect: non-scaling-stroke; fill: none; stroke: rgb(255, 102, 146); stroke-opacity: 1; stroke-width: 2px; opacity: 1;"/></g><g class="points"/><g class="text"/></g><g class="trace scatter trace35c429" style="stroke-miterlimit: 2; opacity: 1;"><g class="fills"/><g class="errorbars"/><g class="lines"><path class="js-line" d="M0,0.36L11.02,16.72L22.04,20.93L55.1,29.05L66.12,30.28L88.16,32.22L99.18,33.41L121.22,35.04L132.24,36.12L143.27,36.21L154.29,37.81L165.31,38.54L176.33,40.06L198.37,41.11L209.39,43.65L231.43,61.82L242.45,66.98L264.49,78.2L275.51,85.79L286.53,105.48L297.55,121.94L308.57,133.01L319.59,141.52L352.65,159.76L363.67,165.19L374.69,171.77L385.71,175.34L396.73,181.33L407.76,185.31L429.8,194.08L440.82,197.63L473.88,202.43L484.9,203.41L540,208.94" style="vector-effect: non-scaling-stroke; fill: none; stroke: rgb(182, 232, 128); stroke-opacity: 1; stroke-width: 2px; opacity: 1;"/></g><g class="points"/><g class="text"/></g><g class="trace scatter trace580fa3" style="stroke-miterlimit: 2; opacity: 1;"><g class="fills"/><g class="errorbars"/><g class="lines"><path class="js-line" d="M0,0L11.02,16.78L22.04,20.56L44.08,26.77L55.1,28.7L66.12,30.16L77.14,30.46L88.16,31.73L99.18,31.73L121.22,32.39L132.24,33.8L165.31,36.47L176.33,37.67L220.41,41.69L231.43,44.63L242.45,47.6L253.47,51.43L297.55,65.97L308.57,70.56L319.59,74.85L330.61,80.64L341.63,90.82L352.65,104.79L363.67,117.36L374.69,127.91L396.73,142.24L407.76,147.17L418.78,152.63L429.8,157.23L440.82,161.03L451.84,162.91L484.9,167.57L495.92,169.1L540,173.83" style="vector-effect: non-scaling-stroke; fill: none; stroke: rgb(255, 151, 255); stroke-opacity: 1; stroke-width: 2px; opacity: 1;"/></g><g class="points"/><g class="text"/></g><g class="trace scatter trace84d73e" style="stroke-miterlimit: 2; opacity: 1;"><g class="fills"/><g class="errorbars"/><g class="lines"><path class="js-line" d="M0,0.16L11.02,16.08L22.04,20.68L44.08,26.43L55.1,28.82L88.16,32.21L99.18,32.98L121.22,33.94L132.24,35.09L143.27,35.65L154.29,37.03L165.31,37.65L176.33,39.08L198.37,40.04L209.39,40.98L220.41,41.96L231.43,44.52L242.45,49.57L253.47,59.09L264.49,68.76L275.51,75.3L286.53,80.92L297.55,85.37L319.59,96.77L330.61,110.32L341.63,126.36L352.65,138.6L374.69,155.92L385.71,161.52L396.73,168.44L407.76,173.17L418.78,178.72L429.8,183.17L440.82,186.86L451.84,188.88L506.94,196.15L517.96,197.33L540,199.43" style="vector-effect: non-scaling-stroke; fill: none; stroke: rgb(254, 203, 82); stroke-opacity: 1; stroke-width: 2px; opacity: 1;"/></g><g class="points"/><g class="text"/></g><g class="trace scatter trace841916" style="stroke-miterlimit: 2; opacity: 1;"><g class="fills"/><g class="errorbars"/><g class="lines"><path class="js-line" d="M0,0.52L11.02,17.27L22.04,21.16L44.08,28.36L55.1,42.68L66.12,64.39L77.14,78.62L88.16,86.56L99.18,90.54L110.2,95.34L121.22,99.05L132.24,108.65L143.27,116.1L154.29,122.09L165.31,124.44L176.33,128.04L187.35,129.87L198.37,131.91L209.39,129.62L220.41,132.02L231.43,139.5L253.47,148.5L264.49,155.31L275.51,158.47L286.53,163.56L308.57,176.05L319.59,180.4L341.63,189.51L352.65,195.06L374.69,205.43L385.71,209.65L396.73,213.88L407.76,219.64L418.78,223.93L429.8,229.2L440.82,232.38L451.84,233.82L484.9,238.04L495.92,238.71L528.98,243.3L540,243.99" style="vector-effect: non-scaling-stroke; fill: none; stroke: rgb(99, 110, 250); stroke-opacity: 1; stroke-width: 2px; opacity: 1;"/></g><g class="points"/><g class="text"/></g><g class="trace scatter trace3e2a65" style="stroke-miterlimit: 2; opacity: 1;"><g class="fills"/><g class="errorbars"/><g class="lines"><path class="js-line" d="M0,0.11L11.02,16.47L22.04,20.74L44.08,26.82L55.1,28.92L66.12,30.23L77.14,30.7L88.16,32.1L99.18,32.43L121.22,33.5L132.24,35.24L220.41,42.01L231.43,44.53L253.47,51.35L264.49,55.11L275.51,58.52L286.53,64.31L297.55,73.64L308.57,92.63L319.59,105.22L330.61,114.54L341.63,121.66L352.65,127.53L374.69,140.19L385.71,145.28L396.73,152.49L407.76,157.37L429.8,170.02L440.82,174.47L473.88,182.09L484.9,183.61L528.98,189.66L540,190.79" style="vector-effect: non-scaling-stroke; fill: none; stroke: rgb(239, 85, 59); stroke-opacity: 1; stroke-width: 2px; opacity: 1;"/></g><g class="points"/><g class="text"/></g><g class="trace scatter trace7348be" style="stroke-miterlimit: 2; opacity: 1;"><g class="fills"/><g class="errorbars"/><g class="lines"><path class="js-line" d="M0,0.85L11.02,16.88L22.04,21.3L44.08,28.38L55.1,40.96L66.12,62.78L77.14,78.35L88.16,86.33L99.18,91.21L121.22,111.81L132.24,119.68L143.27,122.53L154.29,126.64L165.31,128.19L176.33,131.82L198.37,137.37L209.39,137.59L220.41,141.07L231.43,149.34L242.45,154.19L253.47,161.48L264.49,168.73L275.51,173.94L286.53,180.67L297.55,186.45L319.59,200.81L330.61,208.15L341.63,211.91L352.65,217.95L363.67,223.2L374.69,229.9L396.73,239.36L407.76,246.13L429.8,256.32L440.82,260.21L484.9,266.63L495.92,267.77L528.98,272.07L540,272.93" style="vector-effect: non-scaling-stroke; fill: none; stroke: rgb(0, 204, 150); stroke-opacity: 1; stroke-width: 2px; opacity: 1;"/></g><g class="points"/><g class="text"/></g><g class="trace scatter tracef0e72d" style="stroke-miterlimit: 2; opacity: 1;"><g class="fills"/><g class="errorbars"/><g class="lines"><path class="js-line" d="M0,0.2L11.02,16.4L22.04,20.5L44.08,26.68L55.1,29.13L77.14,31.35L88.16,33.95L99.18,50.17L110.2,74.96L121.22,86.81L132.24,92.82L143.27,96.65L154.29,102.96L165.31,111.86L176.33,119.54L198.37,131.53L209.39,135.89L220.41,141.61L231.43,149.09L242.45,157.8L253.47,165.02L286.53,183.56L297.55,191.12L341.63,218.89L352.65,224.34L363.67,230.59L374.69,238.09L385.71,242.36L396.73,248.85L429.8,265.12L440.82,269.45L473.88,274.63L484.9,275.83L517.96,280.3L528.98,281.2L540,282.89" style="vector-effect: non-scaling-stroke; fill: none; stroke: rgb(171, 99, 250); stroke-opacity: 1; stroke-width: 2px; opacity: 1;"/></g><g class="points"/><g class="text"/></g><g class="trace scatter trace1d7f2d" style="stroke-miterlimit: 2; opacity: 1;"><g class="fills"/><g class="errorbars"/><g class="lines"><path class="js-line" d="M0,0.8L11.02,17.16L22.04,21.6L33.06,25.15L44.08,27.45L66.12,30.21L77.14,30.68L88.16,32.61L99.18,32.6L121.22,34.51L132.24,35.45L143.27,36.74L154.29,37.24L165.31,37.79L176.33,39.14L187.35,39.51L198.37,40.96L209.39,41.15L220.41,42.84L231.43,48.42L242.45,67.42L253.47,89.06L264.49,103.1L286.53,120.84L297.55,127.49L308.57,135.22L319.59,141.78L363.67,162.48L374.69,166.64L396.73,176.8L407.76,181.28L429.8,190.05L440.82,193.24L473.88,197.75L484.9,199.08L528.98,203.82L540,204.68" style="vector-effect: non-scaling-stroke; fill: none; stroke: rgb(255, 161, 90); stroke-opacity: 1; stroke-width: 2px; opacity: 1;"/></g><g class="points"/><g class="text"/></g><g class="trace scatter trace9afd2f" style="stroke-miterlimit: 2; opacity: 1;"><g class="fills"/><g class="errorbars"/><g class="lines"><path class="js-line" d="M0,0.96L11.02,16.94L22.04,21.42L44.08,27.72L55.1,33.93L66.12,55.07L77.14,74.56L88.16,84.53L99.18,90.08L121.22,111.02L132.24,118.82L154.29,125.84L165.31,127.31L176.33,130.42L187.35,131.85L198.37,133.93L209.39,131.75L220.41,133.02L231.43,140.65L242.45,144.53L253.47,149.57L264.49,156.05L275.51,159.92L297.55,170.32L308.57,176.99L319.59,180.99L330.61,185.84L363.67,199.98L374.69,205.5L396.73,213.55L407.76,219.73L418.78,223.63L429.8,228.84L440.82,232.02L451.84,233.56L506.94,239.81L517.96,241.42L540,243.47" style="vector-effect: non-scaling-stroke; fill: none; stroke: rgb(25, 211, 243); stroke-opacity: 1; stroke-width: 2px; opacity: 1;"/></g><g class="points"/><g class="text"/></g><g class="trace scatter trace7bee76" style="stroke-miterlimit: 2; opacity: 1;"><g class="fills"/><g class="errorbars"/><g class="lines"><path class="js-line" d="M0,0.63L11.02,17.02L22.04,21.8L44.08,27.42L55.1,29L88.16,32.95L99.18,32.9L110.2,34.38L121.22,34.7L143.27,36.32L154.29,37.48L176.33,38.85L187.35,39.65L198.37,42.06L209.39,47.36L231.43,61.91L242.45,68.97L253.47,82.1L264.49,103.38L275.51,118.41L286.53,129.22L297.55,137.5L308.57,144.61L330.61,156.79L341.63,159.94L352.65,165.98L363.67,170.8L429.8,197.95L440.82,201.06L473.88,205.32L484.9,206.39L540,211.93" style="vector-effect: non-scaling-stroke; fill: none; stroke: rgb(255, 102, 146); stroke-opacity: 1; stroke-width: 2px; opacity: 1;"/></g><g class="points"/><g class="text"/></g><g class="trace scatter traceaa47ee" style="stroke-miterlimit: 2; opacity: 1;"><g class="fills"/><g class="errorbars"/><g class="lines"><path class="js-line" d="M0,0.23L11.02,16.68L22.04,20.41L44.08,26.86L55.1,28.91L66.12,30.48L77.14,30.9L88.16,32.27L99.18,32.26L121.22,33.29L132.24,35.11L143.27,35.51L154.29,37.07L165.31,37.17L176.33,38.65L187.35,39.89L198.37,40.12L231.43,44.49L242.45,48.01L264.49,55.42L275.51,59.55L297.55,66.36L308.57,70.98L330.61,78.99L341.63,84.22L352.65,90.82L363.67,101.4L374.69,115.06L385.71,125.4L396.73,134.57L407.76,140.62L418.78,146.63L429.8,151.59L440.82,155.99L451.84,157.93L495.92,164.35L506.94,165.95L540,169.38" style="vector-effect: non-scaling-stroke; fill: none; stroke: rgb(182, 232, 128); stroke-opacity: 1; stroke-width: 2px; opacity: 1;"/></g><g class="points"/><g class="text"/></g><g class="trace scatter traced20d29" style="stroke-miterlimit: 2; opacity: 1;"><g class="fills"/><g class="errorbars"/><g class="lines"><path class="js-line" d="M0,0.6L11.02,16.49L22.04,20.43L44.08,26.57L55.1,28.8L66.12,30.15L77.14,30.59L99.18,32.45L110.2,33.52L143.27,36.15L154.29,37.49L165.31,37.94L176.33,39.91L198.37,41.92L209.39,55.42L220.41,85.76L231.43,101.93L242.45,123.01L253.47,137.83L264.49,149.12L275.51,156.8L286.53,165.86L297.55,173.2L319.59,187.65L330.61,195.89L363.67,213.66L374.69,221.42L385.71,225.85L396.73,231.75L418.78,242.25L429.8,247.64L440.82,251.26L451.84,253.42L495.92,259.65L506.94,260.8L540,264.68" style="vector-effect: non-scaling-stroke; fill: none; stroke: rgb(255, 151, 255); stroke-opacity: 1; stroke-width: 2px; opacity: 1;"/></g><g class="points"/><g class="text"/></g><g class="trace scatter traceb7505a" style="stroke-miterlimit: 2; opacity: 1;"><g class="fills"/><g class="errorbars"/><g class="lines"><path class="js-line" d="M0,0.58L11.02,16.64L22.04,20.97L55.1,28.79L66.12,29.93L110.2,33.01L121.22,33.2L154.29,36.77L165.31,37.24L176.33,38.67L187.35,39.29L220.41,41.95L231.43,44.41L253.47,50.98L264.49,54.52L297.55,66.48L308.57,73.23L319.59,83.89L330.61,98.69L341.63,110.44L352.65,119.46L363.67,125.57L374.69,132.82L385.71,137.79L396.73,143.95L440.82,160.99L451.84,162.33L484.9,166.71L495.92,167.94L540,172.52" style="vector-effect: non-scaling-stroke; fill: none; stroke: rgb(254, 203, 82); stroke-opacity: 1; stroke-width: 2px; opacity: 1;"/></g><g class="points"/><g class="text"/></g><g class="trace scatter tracec375b2" style="stroke-miterlimit: 2; opacity: 1;"><g class="fills"/><g class="errorbars"/><g class="lines"><path class="js-line" d="M0,0.8L11.02,17.06L22.04,21.22L55.1,31.2L66.12,48.94L77.14,71.35L88.16,82.77L99.18,88.57L110.2,96.25L121.22,107.2L132.24,116.07L154.29,124.36L165.31,126.17L176.33,129.68L187.35,131.82L198.37,133.85L209.39,134.85L220.41,139.02L231.43,147.24L242.45,153.8L253.47,159.46L264.49,168.52L275.51,174.15L330.61,209.56L341.63,213.87L363.67,226.57L374.69,232.5L385.71,238.17L396.73,242.77L407.76,249.65L418.78,254.21L429.8,260.23L440.82,263.75L484.9,270.13L495.92,271.42L528.98,275.7L540,276.55" style="vector-effect: non-scaling-stroke; fill: none; stroke: rgb(99, 110, 250); stroke-opacity: 1; stroke-width: 2px; opacity: 1;"/></g><g class="points"/><g class="text"/></g><g class="trace scatter trace3efc81" style="stroke-miterlimit: 2; opacity: 1;"><g class="fills"/><g class="errorbars"/><g class="lines"><path class="js-line" d="M0,0.44L11.02,16.77L22.04,21.73L44.08,27.33L55.1,29.45L66.12,32.61L77.14,47.25L88.16,71.09L99.18,82.59L110.2,90.36L121.22,96.83L132.24,107.36L143.27,114.61L154.29,120.3L165.31,121.94L176.33,126.19L187.35,127.64L198.37,130.93L209.39,129.01L220.41,130.89L231.43,137.76L242.45,142.46L253.47,148.22L264.49,153.88L275.51,157.85L297.55,168.39L308.57,175.7L319.59,179.39L330.61,185.51L352.65,194.55L363.67,200.41L429.8,229.14L440.82,232.47L540,243.84" style="vector-effect: non-scaling-stroke; fill: none; stroke: rgb(239, 85, 59); stroke-opacity: 1; stroke-width: 2px; opacity: 1;"/></g><g class="points"/><g class="text"/></g><g class="trace scatter tracef82f29" style="stroke-miterlimit: 2; opacity: 1;"><g class="fills"/><g class="errorbars"/><g class="lines"><path class="js-line" d="M0,0.25L11.02,16.15L22.04,20.53L44.08,27.05L55.1,33.62L66.12,59.75L77.14,83L88.16,93.53L99.18,100.86L121.22,115.54L132.24,120.91L143.27,126.66L154.29,134.82L165.31,138.5L176.33,144.01L187.35,149.53L198.37,161.08L209.39,166.48L220.41,173.02L231.43,180.53L242.45,190.72L253.47,197.35L264.49,207L286.53,218.88L297.55,226.21L308.57,233.58L319.59,238.28L330.61,246.06L341.63,252.32L352.65,256.63L363.67,262.82L374.69,270.07L385.71,274.81L396.73,281.34L407.76,286.69L429.8,298.1L440.82,302.39L484.9,309.13L495.92,310.52L517.96,313.63L528.98,314.46L540,316.4" style="vector-effect: non-scaling-stroke; fill: none; stroke: rgb(0, 204, 150); stroke-opacity: 1; stroke-width: 2px; opacity: 1;"/></g><g class="points"/><g class="text"/></g><g class="trace scatter traceed039f" style="stroke-miterlimit: 2; opacity: 1;"><g class="fills"/><g class="errorbars"/><g class="lines"><path class="js-line" d="M0,0.05L11.02,16.49L22.04,20.44L55.1,30.02L66.12,46.49L77.14,71.98L88.16,84.74L132.24,110.79L143.27,115.98L154.29,122.53L165.31,127.2L187.35,139.19L198.37,150.21L220.41,168.22L231.43,176.27L242.45,186.06L253.47,193.07L264.49,203.44L275.51,209.03L286.53,215.84L297.55,224.1L308.57,231.05L319.59,236.97L330.61,245.62L341.63,251.82L352.65,256.23L363.67,263.02L374.69,270.34L385.71,275.24L396.73,282.66L407.76,287.59L429.8,299.06L440.82,303.58L495.92,311.8L506.94,312.97L540,317.49" style="vector-effect: non-scaling-stroke; fill: none; stroke: rgb(171, 99, 250); stroke-opacity: 1; stroke-width: 2px; opacity: 1;"/></g><g class="points"/><g class="text"/></g><g class="trace scatter trace096e6d" style="stroke-miterlimit: 2; opacity: 1;"><g class="fills"/><g class="errorbars"/><g class="lines"><path class="js-line" d="M0,0.27L11.02,16.8L22.04,21.99L44.08,27.44L55.1,29.38L66.12,32.17L77.14,43.6L88.16,69.48L99.18,82.3L110.2,90L121.22,95.26L132.24,102.11L143.27,111.06L154.29,117.24L165.31,120.84L176.33,124.81L187.35,127.16L198.37,128.9L209.39,127.96L220.41,130.48L231.43,136.49L253.47,147.42L264.49,152.73L297.55,167.27L308.57,173.97L319.59,178.01L330.61,183.08L363.67,197.49L374.69,203.46L385.71,207.07L396.73,211.47L407.76,217.68L418.78,221.46L429.8,226.84L440.82,229.81L484.9,235.28L495.92,236.3L528.98,240.39L540,241.13" style="vector-effect: non-scaling-stroke; fill: none; stroke: rgb(255, 161, 90); stroke-opacity: 1; stroke-width: 2px; opacity: 1;"/></g><g class="points"/><g class="text"/></g><g class="trace scatter trace116a57" style="stroke-miterlimit: 2; opacity: 1;"><g class="fills"/><g class="errorbars"/><g class="lines"><path class="js-line" d="M0,0.12L11.02,16.44L22.04,20.48L44.08,26.8L55.1,28.99L66.12,30.45L77.14,31.08L88.16,32.63L99.18,33.41L143.27,36.39L154.29,37.79L165.31,38.1L176.33,39.7L187.35,40.93L198.37,44.06L209.39,53.14L220.41,59.99L231.43,65.69L242.45,72.57L253.47,94.62L264.49,113.15L275.51,123.28L286.53,132.23L319.59,150.78L330.61,155.9L363.67,169.79L374.69,175.36L385.71,178.44L396.73,184.07L407.76,187.42L418.78,192.07L440.82,199.48L451.84,201.23L495.92,206.64L506.94,207.84L540,211.13" style="vector-effect: non-scaling-stroke; fill: none; stroke: rgb(25, 211, 243); stroke-opacity: 1; stroke-width: 2px; opacity: 1;"/></g><g class="points"/><g class="text"/></g><g class="trace scatter trace1c4402" style="stroke-miterlimit: 2; opacity: 1;"><g class="fills"/><g class="errorbars"/><g class="lines"><path class="js-line" d="M0,0.19L11.02,16.12L22.04,20.85L44.08,26.95L55.1,29.02L77.14,30.72L88.16,31.59L143.27,35.82L154.29,37.42L165.31,37.68L176.33,39.15L220.41,41.75L231.43,43.92L275.51,57.66L286.53,61.11L297.55,64.05L308.57,68.55L330.61,74.4L341.63,78.34L363.67,84.49L374.69,88.63L407.76,97.89L418.78,101.65L440.82,107.66L451.84,108.65L484.9,112.16L495.92,112.86L540,116.52" style="vector-effect: non-scaling-stroke; fill: none; stroke: rgb(255, 102, 146); stroke-opacity: 1; stroke-width: 2px; opacity: 1;"/></g><g class="points"/><g class="text"/></g><g class="trace scatter tracec57051" style="stroke-miterlimit: 2; opacity: 1;"><g class="fills"/><g class="errorbars"/><g class="lines"><path class="js-line" d="M0,0.68L11.02,16.95L22.04,21.81L33.06,24.96L44.08,27.24L66.12,30.01L77.14,30.61L88.16,32.14L99.18,31.9L110.2,33.74L121.22,34.27L132.24,34.43L143.27,36.14L165.31,37.49L176.33,39.52L187.35,39.38L198.37,40.8L209.39,41.5L220.41,44.19L231.43,56.53L242.45,80.05L253.47,95.98L264.49,109.07L286.53,132.24L297.55,142.57L308.57,150.3L319.59,156.81L330.61,163.54L341.63,168.26L363.67,180.46L374.69,185.46L385.71,190.56L396.73,194.79L429.8,209.17L440.82,212.2L484.9,218.03L495.92,219.36L540,223.76" style="vector-effect: non-scaling-stroke; fill: none; stroke: rgb(182, 232, 128); stroke-opacity: 1; stroke-width: 2px; opacity: 1;"/></g><g class="points"/><g class="text"/></g><g class="trace scatter tracee3e2e0" style="stroke-miterlimit: 2; opacity: 1;"><g class="fills"/><g class="errorbars"/><g class="lines"><path class="js-line" d="M0,0.32L11.02,16.2L22.04,20.4L55.1,28.81L66.12,30.16L121.22,33.6L132.24,35.23L143.27,35.74L154.29,37.11L165.31,37.68L176.33,39.09L198.37,41.06L209.39,42.62L220.41,60.22L231.43,86.88L242.45,100.82L253.47,112.1L264.49,121.26L275.51,128.02L297.55,142.17L308.57,147.92L319.59,155.08L330.61,163.16L341.63,170.86L352.65,180.33L374.69,198.56L385.71,204.38L396.73,211.36L407.76,217.09L429.8,227.68L440.82,231.47L473.88,237.12L484.9,238.81L528.98,243.95L540,244.99" style="vector-effect: non-scaling-stroke; fill: none; stroke: rgb(255, 151, 255); stroke-opacity: 1; stroke-width: 2px; opacity: 1;"/></g><g class="points"/><g class="text"/></g><g class="trace scatter tracef2ab0b" style="stroke-miterlimit: 2; opacity: 1;"><g class="fills"/><g class="errorbars"/><g class="lines"><path class="js-line" d="M0,0.89L11.02,17.14L22.04,21.16L33.06,24.92L44.08,27.37L66.12,30.23L77.14,30.67L88.16,32.38L99.18,32.51L110.2,33.95L121.22,34.5L132.24,34.8L143.27,36.33L165.31,37.22L176.33,38.65L187.35,39.05L198.37,40.42L209.39,39.88L220.41,41.38L242.45,47.64L253.47,50.62L275.51,57.44L286.53,61.77L297.55,69.95L308.57,86.75L319.59,101.92L330.61,111.98L352.65,124.35L363.67,129.91L374.69,135.55L385.71,139.91L396.73,144.74L407.76,148.66L429.8,157.21L440.82,160.44L473.88,164.45L484.9,165.43L517.96,168.75L528.98,169.77L540,170.64" style="vector-effect: non-scaling-stroke; fill: none; stroke: rgb(254, 203, 82); stroke-opacity: 1; stroke-width: 2px; opacity: 1;"/></g><g class="points"/><g class="text"/></g><g class="trace scatter tracef477e0" style="stroke-miterlimit: 2; opacity: 1;"><g class="fills"/><g class="errorbars"/><g class="lines"><path class="js-line" d="M0,0.47L11.02,16.27L22.04,20.25L44.08,26.52L55.1,28.83L88.16,32.08L99.18,32.24L132.24,34.71L143.27,35.75L154.29,37.56L165.31,44.46L176.33,73.29L187.35,90.82L198.37,102.21L209.39,109.51L231.43,122.93L242.45,130.85L253.47,137.78L264.49,146.02L275.51,151.7L286.53,160.18L297.55,166.87L308.57,174.7L319.59,181.41L330.61,191.87L352.65,206.77L363.67,214.75L374.69,221.97L385.71,227.05L396.73,234.01L407.76,238.68L429.8,249.12L440.82,253.08L462.86,256.37L473.88,258.07L484.9,259.9L495.92,260.95L540,265.97" style="vector-effect: non-scaling-stroke; fill: none; stroke: rgb(99, 110, 250); stroke-opacity: 1; stroke-width: 2px; opacity: 1;"/></g><g class="points"/><g class="text"/></g><g class="trace scatter traced95c9b" style="stroke-miterlimit: 2; opacity: 1;"><g class="fills"/><g class="errorbars"/><g class="lines"><path class="js-line" d="M0,0.96L11.02,16.92L22.04,21.78L44.08,27.44L55.1,28.96L88.16,32.83L99.18,32.95L121.22,35.21L132.24,35.53L143.27,36.96L154.29,37.33L165.31,38.04L176.33,39.64L187.35,39.68L198.37,41.69L209.39,42.26L220.41,46.73L242.45,86.58L253.47,97.9L264.49,107.84L275.51,115.99L286.53,124.99L297.55,135.51L308.57,146.06L319.59,154.83L330.61,161.76L341.63,167.34L374.69,184.64L385.71,189.58L407.76,199.83L418.78,203.96L429.8,208.5L440.82,212.11L473.88,216.56L484.9,217.69L528.98,222.5L540,223.47" style="vector-effect: non-scaling-stroke; fill: none; stroke: rgb(239, 85, 59); stroke-opacity: 1; stroke-width: 2px; opacity: 1;"/></g><g class="points"/><g class="text"/></g><g class="trace scatter trace22c572" style="stroke-miterlimit: 2; opacity: 1;"><g class="fills"/><g class="errorbars"/><g class="lines"><path class="js-line" d="M0,0.71L11.02,17.04L22.04,21.52L33.06,26.29L44.08,39.79L55.1,61.86L66.12,74.63L77.14,84.01L88.16,90.19L99.18,93.98L110.2,104.83L121.22,113.54L132.24,119.61L143.27,121.83L154.29,125.62L187.35,134.15L198.37,136.05L209.39,135.62L220.41,137.57L242.45,148.95L253.47,153.07L264.49,159.15L275.51,162.98L286.53,168.65L297.55,172.74L308.57,179.17L319.59,183.5L330.61,189.29L341.63,193.1L374.69,208.21L385.71,212.51L396.73,217.21L407.76,223.54L418.78,227.02L429.8,232.44L440.82,235.55L451.84,237.15L540,247.46" style="vector-effect: non-scaling-stroke; fill: none; stroke: rgb(0, 204, 150); stroke-opacity: 1; stroke-width: 2px; opacity: 1;"/></g><g class="points"/><g class="text"/></g><g class="trace scatter trace7a8ccd" style="stroke-miterlimit: 2; opacity: 1;"><g class="fills"/><g class="errorbars"/><g class="lines"><path class="js-line" d="M0,0.89L11.02,17.11L22.04,21.8L55.1,31.71L66.12,48.62L77.14,70.9L88.16,82.35L99.18,88.74L110.2,100.74L121.22,110.99L132.24,118.16L154.29,124.9L165.31,126.21L176.33,129.18L187.35,130.38L198.37,132.28L209.39,130.79L220.41,132.56L231.43,138.83L242.45,144.74L253.47,149.59L275.51,159.6L286.53,164.29L297.55,169.73L308.57,176.89L319.59,180.61L330.61,186.47L341.63,190.4L352.65,195.53L374.69,205.91L385.71,210.5L396.73,214.75L407.76,220.32L418.78,224.55L429.8,229.71L440.82,233.18L451.84,234.45L506.94,241.03L517.96,242.4L540,244.42" style="vector-effect: non-scaling-stroke; fill: none; stroke: rgb(171, 99, 250); stroke-opacity: 1; stroke-width: 2px; opacity: 1;"/></g><g class="points"/><g class="text"/></g><g class="trace scatter trace93c74f" style="stroke-miterlimit: 2; opacity: 1;"><g class="fills"/><g class="errorbars"/><g class="lines"><path class="js-line" d="M0,0.3L11.02,16.2L22.04,20.54L44.08,26.61L55.1,28.94L88.16,31.75L99.18,32.29L121.22,33.49L132.24,35.21L143.27,35.89L154.29,37.45L165.31,37.67L176.33,39.27L220.41,42.22L231.43,45.02L253.47,51.58L264.49,55.89L275.51,59.91L286.53,65.6L297.55,76.5L308.57,94.58L319.59,107.43L330.61,117.15L352.65,132.57L363.67,138.84L374.69,147.15L385.71,152.39L396.73,159.66L407.76,164.58L418.78,170.13L429.8,174.54L440.82,178.72L451.84,180.59L484.9,185.78L495.92,186.94L540,191.99" style="vector-effect: non-scaling-stroke; fill: none; stroke: rgb(255, 161, 90); stroke-opacity: 1; stroke-width: 2px; opacity: 1;"/></g><g class="points"/><g class="text"/></g><g class="trace scatter traced84cb0" style="stroke-miterlimit: 2; opacity: 1;"><g class="fills"/><g class="errorbars"/><g class="lines"><path class="js-line" d="M0,0.89L11.02,17.12L22.04,21.82L44.08,27.35L55.1,29.05L77.14,30.75L88.16,32.77L99.18,32.71L110.2,34.17L132.24,34.93L143.27,35.96L154.29,37.15L165.31,37.21L187.35,42.26L198.37,47.4L231.43,61.29L242.45,64.96L253.47,70.46L264.49,74.7L352.65,104.09L363.67,108.77L374.69,115.47L385.71,125.59L396.73,136.1L407.76,144.78L418.78,152.3L429.8,158.38L440.82,162.33L451.84,164.59L484.9,169.84L495.92,171.3L528.98,175.33L540,176.03" style="vector-effect: non-scaling-stroke; fill: none; stroke: rgb(25, 211, 243); stroke-opacity: 1; stroke-width: 2px; opacity: 1;"/></g><g class="points"/><g class="text"/></g><g class="trace scatter trace7fd53c" style="stroke-miterlimit: 2; opacity: 1;"><g class="fills"/><g class="errorbars"/><g class="lines"><path class="js-line" d="M0,0.17L11.02,16.61L22.04,20.64L44.08,26.78L55.1,28.75L66.12,30.22L77.14,30.63L88.16,32.22L99.18,32.76L121.22,33.92L132.24,35.21L143.27,35.64L154.29,36.95L176.33,39.11L187.35,40L198.37,40.82L209.39,42.72L220.41,49.61L231.43,59.11L264.49,78.34L275.51,93.78L286.53,114.6L297.55,126.72L319.59,142.53L330.61,149.82L374.69,174.66L385.71,178.6L396.73,185.07L407.76,189.23L418.78,194.73L429.8,199.33L440.82,202.85L451.84,205.22L484.9,210.14L495.92,211.45L517.96,214.23L528.98,215.32L540,216.47" style="vector-effect: non-scaling-stroke; fill: none; stroke: rgb(255, 102, 146); stroke-opacity: 1; stroke-width: 2px; opacity: 1;"/></g><g class="points"/><g class="text"/></g><g class="trace scatter traceb0b93d" style="stroke-miterlimit: 2; opacity: 1;"><g class="fills"/><g class="errorbars"/><g class="lines"><path class="js-line" d="M0,0.07L11.02,16.53L22.04,20.83L44.08,27.06L55.1,29.16L88.16,32.67L99.18,33.59L121.22,34.8L132.24,36.27L143.27,36.83L154.29,38.39L165.31,39.12L176.33,43.56L198.37,89.63L209.39,104.84L220.41,121.68L231.43,134.41L242.45,143.69L253.47,151.47L264.49,159.83L275.51,165.8L286.53,174.33L297.55,180.68L319.59,193.95L330.61,201.77L363.67,219.42L374.69,226.97L385.71,231.84L396.73,237.77L429.8,253.66L440.82,257.46L451.84,259.74L462.86,261.2L495.92,266.05L506.94,267L528.98,269.65L540,271.11" style="vector-effect: non-scaling-stroke; fill: none; stroke: rgb(182, 232, 128); stroke-opacity: 1; stroke-width: 2px; opacity: 1;"/></g><g class="points"/><g class="text"/></g><g class="trace scatter trace25f198" style="stroke-miterlimit: 2; opacity: 1;"><g class="fills"/><g class="errorbars"/><g class="lines"><path class="js-line" d="M0,1.06L11.02,16.53L22.04,21.79L33.06,25.14L44.08,30.79L55.1,50.88L66.12,69.31L77.14,81.25L88.16,89.41L99.18,97.37L110.2,108.45L121.22,116.87L132.24,122.63L154.29,129.04L165.31,131.23L187.35,138.83L198.37,141.87L209.39,142.18L220.41,146.1L242.45,158.91L253.47,165.01L264.49,173.43L275.51,179.44L286.53,185.85L297.55,193.68L308.57,201.7L319.59,208.44L330.61,216.54L341.63,221.39L363.67,233.88L374.69,239.93L396.73,250.53L407.76,257.56L418.78,261.9L429.8,267.79L440.82,271.54L451.84,273.28L484.9,277.97L495.92,279.38L540,284.67" style="vector-effect: non-scaling-stroke; fill: none; stroke: rgb(255, 151, 255); stroke-opacity: 1; stroke-width: 2px; opacity: 1;"/></g><g class="points"/><g class="text"/></g><g class="trace scatter trace1a6ec3" style="stroke-miterlimit: 2; opacity: 1;"><g class="fills"/><g class="errorbars"/><g class="lines"><path class="js-line" d="M0,0.39L11.02,16.41L22.04,20.57L55.1,28.92L66.12,30.09L121.22,34.2L132.24,35.92L143.27,40.31L154.29,60.02L165.31,79.74L176.33,89.02L209.39,109.03L220.41,114.42L231.43,122.5L242.45,138.83L253.47,151.57L264.49,161.29L286.53,176.69L297.55,184.82L308.57,191.32L319.59,199.46L330.61,206.73L341.63,211.91L363.67,223.88L374.69,230.71L385.71,235.27L396.73,241.19L429.8,255.98L440.82,260.11L495.92,267.64L506.94,268.7L528.98,271.23L540,272.61" style="vector-effect: non-scaling-stroke; fill: none; stroke: rgb(254, 203, 82); stroke-opacity: 1; stroke-width: 2px; opacity: 1;"/></g><g class="points"/><g class="text"/></g><g class="trace scatter tracee80fd7" style="stroke-miterlimit: 2; opacity: 1;"><g class="fills"/><g class="errorbars"/><g class="lines"><path class="js-line" d="M0,0.35L11.02,16.36L22.04,20.22L55.1,28.94L66.12,30.01L143.27,36.08L154.29,37.89L165.31,37.85L176.33,39.83L187.35,40.14L198.37,41.46L220.41,43.4L231.43,46.36L253.47,58.21L264.49,67.01L275.51,79.36L286.53,98.24L297.55,111.63L308.57,122.93L330.61,140.05L341.63,145.72L352.65,152.24L363.67,157.62L374.69,164.32L385.71,169.57L396.73,175.5L407.76,179.64L429.8,188.94L440.82,192.93L484.9,198.94L495.92,199.96L540,204.81" style="vector-effect: non-scaling-stroke; fill: none; stroke: rgb(99, 110, 250); stroke-opacity: 1; stroke-width: 2px; opacity: 1;"/></g><g class="points"/><g class="text"/></g><g class="trace scatter trace9b99b6" style="stroke-miterlimit: 2; opacity: 1;"><g class="fills"/><g class="errorbars"/><g class="lines"><path class="js-line" d="M0,0.11L11.02,16.45L22.04,20.66L44.08,26.49L55.1,28.82L77.14,30.55L88.16,31.69L121.22,32.86L132.24,34.4L143.27,35.05L154.29,36.63L165.31,37.23L176.33,38.85L187.35,40.23L198.37,47.62L209.39,72.01L220.41,89.03L231.43,102.19L242.45,112.96L264.49,129.74L275.51,135.07L286.53,142.05L297.55,148.13L319.59,159.24L330.61,165.91L363.67,181.54L374.69,188.12L385.71,192.17L396.73,198.31L429.8,213.12L440.82,216.8L462.86,220.51L473.88,222.34L540,230.14" style="vector-effect: non-scaling-stroke; fill: none; stroke: rgb(239, 85, 59); stroke-opacity: 1; stroke-width: 2px; opacity: 1;"/></g><g class="points"/><g class="text"/></g><g class="trace scatter trace59ba70" style="stroke-miterlimit: 2; opacity: 1;"><g class="fills"/><g class="errorbars"/><g class="lines"><path class="js-line" d="M0,0.44L11.02,16.32L22.04,20.32L33.06,23.9L44.08,26.48L55.1,28.75L66.12,30.15L77.14,30.81L88.16,32.24L143.27,36.68L154.29,38.35L165.31,45.74L176.33,70.84L187.35,85.35L198.37,91.33L220.41,100.63L231.43,110.64L242.45,123.18L253.47,133.05L264.49,141.5L275.51,147.28L297.55,162.44L308.57,168.76L319.59,175.9L330.61,181.59L341.63,187.57L352.65,192.47L363.67,197.08L374.69,203.84L385.71,208.36L396.73,214.33L418.78,224.11L429.8,228.97L440.82,232.84L451.84,234.63L484.9,239.45L495.92,240.39L517.96,243.18L528.98,244.17L540,245.58" style="vector-effect: non-scaling-stroke; fill: none; stroke: rgb(0, 204, 150); stroke-opacity: 1; stroke-width: 2px; opacity: 1;"/></g><g class="points"/><g class="text"/></g><g class="trace scatter trace08e6d2" style="stroke-miterlimit: 2; opacity: 1;"><g class="fills"/><g class="errorbars"/><g class="lines"><path class="js-line" d="M0,0.24L11.02,16.35L22.04,20.7L44.08,27.05L55.1,33.53L77.14,76.59L88.16,88.85L99.18,94.81L110.2,103.29L132.24,116.18L143.27,119.81L154.29,126.62L165.31,130.1L187.35,140.22L198.37,147.39L209.39,154.35L220.41,167.32L231.43,179.52L242.45,190.25L253.47,197.3L264.49,208.4L275.51,214.46L286.53,222L297.55,229.75L308.57,236.47L319.59,241.27L330.61,250.01L341.63,255.65L352.65,259.9L363.67,267.5L374.69,274.07L385.71,278.34L396.73,285.39L407.76,290.42L418.78,296.33L429.8,301.79L440.82,305.72L451.84,307.94L462.86,309.21L484.9,312.89L495.92,314.11L540,320" style="vector-effect: non-scaling-stroke; fill: none; stroke: rgb(171, 99, 250); stroke-opacity: 1; stroke-width: 2px; opacity: 1;"/></g><g class="points"/><g class="text"/></g><g class="trace scatter tracea725e4" style="stroke-miterlimit: 2; opacity: 1;"><g class="fills"/><g class="errorbars"/><g class="lines"><path class="js-line" d="M0,0.6L11.02,16.15L22.04,20.67L44.08,26.53L55.1,28.92L77.14,31.27L88.16,36.2L99.18,54.36L110.2,78.24L121.22,90.47L132.24,98.65L143.27,104.33L154.29,111.58L165.31,116.67L176.33,120.63L187.35,124.82L198.37,130.34L209.39,136.16L220.41,149.66L242.45,170.2L253.47,177.06L264.49,186.2L275.51,191.01L286.53,199.26L297.55,206.23L319.59,219.11L330.61,225.56L341.63,231.34L352.65,236.03L363.67,241.95L374.69,248.87L385.71,252.77L396.73,258.33L429.8,273.92L440.82,277.27L451.84,279.68L462.86,280.92L495.92,285.19L506.94,286.36L540,290.1" style="vector-effect: non-scaling-stroke; fill: none; stroke: rgb(255, 161, 90); stroke-opacity: 1; stroke-width: 2px; opacity: 1;"/></g><g class="points"/><g class="text"/></g><g class="trace scatter trace8dfaa1" style="stroke-miterlimit: 2; opacity: 1;"><g class="fills"/><g class="errorbars"/><g class="lines"><path class="js-line" d="M0,1.15L11.02,17.39L22.04,21.62L33.06,25.16L44.08,27.32L66.12,30.44L77.14,30.83L88.16,32.8L99.18,33.06L110.2,34.35L121.22,34.74L165.31,37.12L176.33,38.65L220.41,41.45L231.43,44.9L253.47,50.92L264.49,56.14L275.51,69.92L286.53,88.54L297.55,100.99L308.57,110.07L330.61,121.75L341.63,125.71L352.65,131.44L363.67,135.89L374.69,140.79L385.71,144.85L396.73,149.52L407.76,152.94L429.8,161.31L440.82,164.37L484.9,169.06L495.92,170.31L528.98,173.15L540,174.11" style="vector-effect: non-scaling-stroke; fill: none; stroke: rgb(25, 211, 243); stroke-opacity: 1; stroke-width: 2px; opacity: 1;"/></g><g class="points"/><g class="text"/></g><g class="trace scatter traceedf286" style="stroke-miterlimit: 2; opacity: 1;"><g class="fills"/><g class="errorbars"/><g class="lines"><path class="js-line" d="M0,0.44L11.02,16.27L22.04,20.58L55.1,28.8L66.12,30.3L121.22,34.31L132.24,35.55L165.31,38.4L176.33,39.93L187.35,41.73L198.37,53.29L209.39,78.87L220.41,95.09L242.45,130.89L253.47,143.3L264.49,152.46L275.51,160.1L297.55,175.69L308.57,182.75L319.59,189.75L330.61,197.72L341.63,203.41L352.65,208.18L363.67,214.16L374.69,221.79L385.71,226.21L396.73,232.26L429.8,247.08L440.82,250.83L462.86,254.63L473.88,256.25L517.96,261.64L528.98,262.48L540,263.76" style="vector-effect: non-scaling-stroke; fill: none; stroke: rgb(255, 102, 146); stroke-opacity: 1; stroke-width: 2px; opacity: 1;"/></g><g class="points"/><g class="text"/></g><g class="trace scatter tracebb1d65" style="stroke-miterlimit: 2; opacity: 1;"><g class="fills"/><g class="errorbars"/><g class="lines"><path class="js-line" d="M0,0.09L11.02,16.33L22.04,20.95L44.08,27.1L55.1,29.04L77.14,31.47L88.16,40.42L99.18,65.59L110.2,81.74L121.22,89.55L132.24,94.52L176.33,102.93L187.35,110.07L198.37,118.63L209.39,123.3L220.41,126.82L231.43,133.12L242.45,138.01L253.47,144.86L264.49,151.03L275.51,154.78L308.57,175.7L319.59,182.07L341.63,194.34L352.65,198.69L363.67,204.69L374.69,212.08L385.71,216.28L396.73,222.46L407.76,226.67L418.78,231.85L429.8,237.1L440.82,240.65L451.84,242.92L462.86,244.17L495.92,248.84L506.94,250.05L540,253.78" style="vector-effect: non-scaling-stroke; fill: none; stroke: rgb(182, 232, 128); stroke-opacity: 1; stroke-width: 2px; opacity: 1;"/></g><g class="points"/><g class="text"/></g><g class="trace scatter traceed3790" style="stroke-miterlimit: 2; opacity: 1;"><g class="fills"/><g class="errorbars"/><g class="lines"><path class="js-line" d="M0,0.93L11.02,17.31L22.04,21.71L44.08,27.7L55.1,29.2L77.14,31.76L88.16,43.4L99.18,68.06L110.2,83.47L121.22,89.85L132.24,93.88L143.27,97.48L154.29,99.58L165.31,101.82L176.33,108.05L187.35,115.74L198.37,121.2L209.39,122.16L220.41,124.5L231.43,131.82L242.45,137.72L253.47,142.21L264.49,148.47L286.53,156.42L297.55,160.74L308.57,167.78L319.59,170.73L330.61,176.38L341.63,180.14L352.65,183.71L363.67,189.1L385.71,197.92L396.73,201.65L407.76,206.93L418.78,210.88L429.8,215.67L440.82,218.59L484.9,223.71L495.92,224.87L528.98,228.93L540,229.45" style="vector-effect: non-scaling-stroke; fill: none; stroke: rgb(255, 151, 255); stroke-opacity: 1; stroke-width: 2px; opacity: 1;"/></g><g class="points"/><g class="text"/></g><g class="trace scatter trace568d73" style="stroke-miterlimit: 2; opacity: 1;"><g class="fills"/><g class="errorbars"/><g class="lines"><path class="js-line" d="M0,0.12L11.02,16.63L22.04,20.69L44.08,26.79L55.1,28.75L66.12,30.14L77.14,30.54L88.16,31.73L99.18,32.05L110.2,32.89L121.22,32.73L132.24,34.51L143.27,35.26L154.29,36.45L165.31,36.85L187.35,39.7L198.37,40.55L220.41,43.44L231.43,57.39L242.45,80.92L253.47,95.07L264.49,105.96L275.51,114.24L286.53,122.3L297.55,128.39L308.57,134.01L319.59,140.71L341.63,151.46L352.65,156.15L374.69,167.76L385.71,171.62L396.73,177.48L407.76,181.85L429.8,191.16L440.82,194.97L484.9,201.17L495.92,202.37L540,207.14" style="vector-effect: non-scaling-stroke; fill: none; stroke: rgb(254, 203, 82); stroke-opacity: 1; stroke-width: 2px; opacity: 1;"/></g><g class="points"/><g class="text"/></g><g class="trace scatter trace23a84a" style="stroke-miterlimit: 2; opacity: 1;"><g class="fills"/><g class="errorbars"/><g class="lines"><path class="js-line" d="M0,0.5L11.02,16.39L22.04,20.69L55.1,28.88L66.12,30.37L121.22,33.78L132.24,35.02L143.27,35.45L154.29,37L165.31,37.05L176.33,38.77L209.39,40.66L220.41,41.77L242.45,47.39L253.47,51.78L264.49,63.15L275.51,83.26L286.53,98.19L297.55,106.25L319.59,120.2L330.61,125.45L341.63,131.31L352.65,138.15L363.67,146.29L374.69,156.53L385.71,163.15L396.73,171.05L429.8,186.68L440.82,190.28L473.88,196.16L484.9,197.34L528.98,202.51L540,203.62" style="vector-effect: non-scaling-stroke; fill: none; stroke: rgb(99, 110, 250); stroke-opacity: 1; stroke-width: 2px; opacity: 1;"/></g><g class="points"/><g class="text"/></g><g class="trace scatter trace1f839b" style="stroke-miterlimit: 2; opacity: 1;"><g class="fills"/><g class="errorbars"/><g class="lines"><path class="js-line" d="M0,0.37L11.02,16.36L22.04,20.35L55.1,28.67L66.12,29.9L121.22,34.67L132.24,36.69L143.27,38.83L154.29,60.25L165.31,87.99L176.33,101.81L187.35,112.48L198.37,126.29L209.39,137.43L220.41,144.76L242.45,162.2L253.47,169.12L264.49,176.14L275.51,181.29L308.57,201.01L319.59,207.2L330.61,213.98L341.63,218.99L352.65,223.41L363.67,229.59L374.69,236.73L385.71,240.04L396.73,246.12L407.76,251.27L429.8,261.41L440.82,264.95L451.84,267.13L462.86,268.48L495.92,272.83L506.94,274.01L540,277.64" style="vector-effect: non-scaling-stroke; fill: none; stroke: rgb(239, 85, 59); stroke-opacity: 1; stroke-width: 2px; opacity: 1;"/></g><g class="points"/><g class="text"/></g><g class="trace scatter traceb94b73" style="stroke-miterlimit: 2; opacity: 1;"><g class="fills"/><g class="errorbars"/><g class="lines"><path class="js-line" d="M0,0.26L11.02,16.27L22.04,20.51L55.1,28.77L66.12,29.94L110.2,34.38L121.22,34.8L154.29,37.88L165.31,38.3L187.35,41.52L198.37,42.7L209.39,45.23L220.41,48.62L231.43,54.7L242.45,61.92L264.49,75.59L275.51,80.06L286.53,85.05L297.55,88.81L308.57,93.93L319.59,97.79L330.61,102.03L341.63,105.18L407.76,128.52L418.78,134.07L440.82,142.81L451.84,145.32L484.9,152.7L495.92,154.23L517.96,157.93L528.98,159.23L540,160.49" style="vector-effect: non-scaling-stroke; fill: none; stroke: rgb(0, 204, 150); stroke-opacity: 1; stroke-width: 2px; opacity: 1;"/></g><g class="points"/><g class="text"/></g><g class="trace scatter trace706d57" style="stroke-miterlimit: 2; opacity: 1;"><g class="fills"/><g class="errorbars"/><g class="lines"><path class="js-line" d="M0,0.58L11.02,16.32L22.04,20.73L44.08,26.58L55.1,28.89L66.12,30.25L77.14,30.73L165.31,37.31L176.33,38.73L209.39,40.72L220.41,41.82L242.45,47.38L253.47,50.42L275.51,58.23L286.53,63.86L297.55,76.16L308.57,95.22L319.59,106.84L330.61,115.36L341.63,122.64L352.65,128.74L374.69,142.09L385.71,147.45L396.73,154.69L407.76,160.72L418.78,167.05L429.8,171.74L440.82,176.13L451.84,178.66L495.92,185.9L506.94,187.17L540,190.84" style="vector-effect: non-scaling-stroke; fill: none; stroke: rgb(171, 99, 250); stroke-opacity: 1; stroke-width: 2px; opacity: 1;"/></g><g class="points"/><g class="text"/></g><g class="trace scatter trace3bc601" style="stroke-miterlimit: 2; opacity: 1;"><g class="fills"/><g class="errorbars"/><g class="lines"><path class="js-line" d="M0,0.28L11.02,16.45L22.04,20.53L44.08,26.53L55.1,28.95L88.16,32.26L99.18,32.92L143.27,36.2L154.29,37.36L165.31,37.64L176.33,39.37L209.39,40.95L220.41,42.42L242.45,48.73L253.47,58.14L264.49,79.91L275.51,93.7L286.53,103.49L297.55,110.38L308.57,116.07L319.59,122.74L363.67,145.47L374.69,154.77L385.71,161.67L396.73,170.57L429.8,186.91L440.82,190.74L473.88,196.56L484.9,197.89L540,203.89" style="vector-effect: non-scaling-stroke; fill: none; stroke: rgb(255, 161, 90); stroke-opacity: 1; stroke-width: 2px; opacity: 1;"/></g><g class="points"/><g class="text"/></g><g class="trace scatter traced126ea" style="stroke-miterlimit: 2; opacity: 1;"><g class="fills"/><g class="errorbars"/><g class="lines"><path class="js-line" d="M0,0.49L11.02,16.25L22.04,20.32L44.08,26.68L55.1,29.19L66.12,30.89L77.14,43.78L88.16,71.8L99.18,82.24L110.2,89.86L121.22,94.3L132.24,97.53L143.27,99.39L154.29,103.18L165.31,112.87L176.33,119.97L187.35,125.28L198.37,127.6L209.39,128.45L220.41,130.4L231.43,135.88L253.47,146.55L264.49,151.69L275.51,155.08L286.53,160.5L297.55,166.91L308.57,170.96L330.61,181.31L341.63,185.4L363.67,194.25L374.69,200.86L396.73,209.56L407.76,213.73L429.8,222.79L440.82,226.27L451.84,228.2L462.86,229.3L484.9,232.24L495.92,233.2L540,237.63" style="vector-effect: non-scaling-stroke; fill: none; stroke: rgb(25, 211, 243); stroke-opacity: 1; stroke-width: 2px; opacity: 1;"/></g><g class="points"/><g class="text"/></g><g class="trace scatter trace495583" style="stroke-miterlimit: 2; opacity: 1;"><g class="fills"/><g class="errorbars"/><g class="lines"><path class="js-line" d="M0,0.16L11.02,16.41L22.04,20.78L44.08,26.69L55.1,28.76L66.12,30.31L77.14,30.64L99.18,32.35L110.2,32.58L198.37,39.72L209.39,40.66L220.41,43.38L231.43,65.65L242.45,91.22L253.47,108.62L264.49,126.77L275.51,137.56L286.53,148.65L297.55,155.95L308.57,162.85L319.59,170.65L330.61,178.05L341.63,183.47L363.67,195.2L374.69,202.29L385.71,206.79L396.73,212.65L429.8,227.15L440.82,230.91L473.88,235.95L484.9,237.48L540,243.46" style="vector-effect: non-scaling-stroke; fill: none; stroke: rgb(255, 102, 146); stroke-opacity: 1; stroke-width: 2px; opacity: 1;"/></g><g class="points"/><g class="text"/></g><g class="trace scatter trace670cd1" style="stroke-miterlimit: 2; opacity: 1;"><g class="fills"/><g class="errorbars"/><g class="lines"><path class="js-line" d="M0,0.43L11.02,16.68L22.04,20.53L44.08,26.85L55.1,28.83L66.12,30.26L77.14,30.54L99.18,31.88L110.2,32.39L121.22,32.74L132.24,34.48L143.27,34.9L154.29,36.26L165.31,36.78L176.33,38.32L209.39,41.65L220.41,44.77L231.43,56.57L242.45,78.78L253.47,91.2L264.49,99.94L297.55,118.5L308.57,122.32L319.59,128.99L330.61,133.94L363.67,149.45L374.69,156.19L385.71,160.09L396.73,166.24L418.78,175.3L429.8,179.55L440.82,183.06L451.84,185L484.9,189.38L495.92,190.9L540,195.4" style="vector-effect: non-scaling-stroke; fill: none; stroke: rgb(182, 232, 128); stroke-opacity: 1; stroke-width: 2px; opacity: 1;"/></g><g class="points"/><g class="text"/></g><g class="trace scatter trace098f6d" style="stroke-miterlimit: 2; opacity: 1;"><g class="fills"/><g class="errorbars"/><g class="lines"><path class="js-line" d="M0,0.35L11.02,16.5L22.04,20.84L55.1,28.88L66.12,30.13L121.22,33.67L132.24,35.37L143.27,35.65L154.29,37.24L165.31,37.81L176.33,39.17L198.37,40.65L209.39,41.86L220.41,42.79L231.43,45.93L242.45,51.84L253.47,68.9L264.49,98.86L275.51,118.78L286.53,132.77L297.55,144.8L330.61,170.78L341.63,177.21L363.67,189.56L374.69,197.28L385.71,201.68L396.73,208.06L418.78,218.33L429.8,223.02L440.82,226.64L451.84,228.79L517.96,237.31L528.98,238.21L540,239.49" style="vector-effect: non-scaling-stroke; fill: none; stroke: rgb(255, 151, 255); stroke-opacity: 1; stroke-width: 2px; opacity: 1;"/></g><g class="points"/><g class="text"/></g><g class="trace scatter trace43c49e" style="stroke-miterlimit: 2; opacity: 1;"><g class="fills"/><g class="errorbars"/><g class="lines"><path class="js-line" d="M0,0.32L11.02,16.5L22.04,20.54L44.08,26.5L55.1,28.78L66.12,30.18L77.14,30.6L88.16,31.74L99.18,32L121.22,33.04L132.24,34.62L143.27,34.79L154.29,36.07L187.35,38.38L198.37,39.71L220.41,41.19L231.43,43.65L275.51,57.55L286.53,61.53L297.55,64.28L308.57,68.69L319.59,71.48L330.61,75.14L352.65,82.24L363.67,85.11L374.69,89.61L385.71,92.83L396.73,96.49L407.76,99.2L418.78,103.36L429.8,106.53L440.82,109.38L451.84,110.58L495.92,115.21L506.94,116.16L540,119" style="vector-effect: non-scaling-stroke; fill: none; stroke: rgb(254, 203, 82); stroke-opacity: 1; stroke-width: 2px; opacity: 1;"/></g><g class="points"/><g class="text"/></g><g class="trace scatter trace2d0abc" style="stroke-miterlimit: 2; opacity: 1;"><g class="fills"/><g class="errorbars"/><g class="lines"><path class="js-line" d="M0,0.44L11.02,16.27L22.04,20.52L44.08,26.35L55.1,28.76L66.12,30.3L77.14,30.61L110.2,33.22L121.22,33.7L132.24,35.39L143.27,35.76L154.29,37.12L165.31,37.41L176.33,39.18L187.35,39.64L198.37,41.16L209.39,41.87L220.41,46.65L231.43,55.22L242.45,84.12L253.47,110.18L264.49,124.89L275.51,135.55L297.55,153.64L308.57,160.78L330.61,175.56L341.63,181.63L363.67,193.1L374.69,200.63L385.71,205.1L396.73,211.22L429.8,226.36L440.82,230.4L473.88,235.95L484.9,237.19L506.94,240.15L517.96,241.45L540,243.76" style="vector-effect: non-scaling-stroke; fill: none; stroke: rgb(99, 110, 250); stroke-opacity: 1; stroke-width: 2px; opacity: 1;"/></g><g class="points"/><g class="text"/></g><g class="trace scatter traceb0d72e" style="stroke-miterlimit: 2; opacity: 1;"><g class="fills"/><g class="errorbars"/><g class="lines"><path class="js-line" d="M0,0.89L11.02,17.01L22.04,21.28L44.08,27.5L55.1,29.34L66.12,31.96L77.14,43.85L88.16,69.25L99.18,81.85L110.2,89.89L121.22,93.56L143.27,100.02L154.29,107.18L165.31,114.95L176.33,121.66L198.37,127.99L209.39,126.79L220.41,129.03L231.43,136.15L253.47,146.39L264.49,152.59L275.51,155.64L286.53,161L308.57,172.39L319.59,176.91L341.63,186.98L352.65,190.99L374.69,201.48L385.71,205.95L396.73,209.96L407.76,215.67L418.78,219.55L429.8,224.67L440.82,227.78L451.84,229.25L540,239" style="vector-effect: non-scaling-stroke; fill: none; stroke: rgb(239, 85, 59); stroke-opacity: 1; stroke-width: 2px; opacity: 1;"/></g><g class="points"/><g class="text"/></g><g class="trace scatter trace6be2c7" style="stroke-miterlimit: 2; opacity: 1;"><g class="fills"/><g class="errorbars"/><g class="lines"><path class="js-line" d="M0,0.69L11.02,17.06L22.04,21.87L44.08,27.4L55.1,28.98L66.12,30.33L77.14,30.87L88.16,32.75L99.18,32.92L110.2,34.23L121.22,34.74L143.27,36.82L154.29,37.84L165.31,38.58L176.33,42.6L187.35,51.15L198.37,75.55L209.39,96.54L220.41,107.58L231.43,118.39L242.45,126.29L264.49,137.81L275.51,141.67L286.53,148.13L297.55,152.18L308.57,158.8L319.59,162.1L330.61,167.18L341.63,171.3L363.67,179.73L374.69,184.17L429.8,204.91L440.82,207.55L484.9,212.59L495.92,213.29L528.98,217.22L540,217.75" style="vector-effect: non-scaling-stroke; fill: none; stroke: rgb(0, 204, 150); stroke-opacity: 1; stroke-width: 2px; opacity: 1;"/></g><g class="points"/><g class="text"/></g><g class="trace scatter traceadd609" style="stroke-miterlimit: 2; opacity: 1;"><g class="fills"/><g class="errorbars"/><g class="lines"><path class="js-line" d="M0,0.41L11.02,16.29L22.04,20.37L44.08,26.59L55.1,29.01L88.16,31.93L99.18,32.57L132.24,35.62L143.27,35.66L154.29,37.59L165.31,37.65L176.33,39.42L187.35,39.49L220.41,41.76L231.43,44.21L275.51,57.78L286.53,62.65L297.55,69.08L308.57,84.61L319.59,104.08L330.61,118.27L352.65,143.86L363.67,154.25L374.69,163.58L385.71,170.1L396.73,177.12L407.76,182.96L418.78,188.73L429.8,193.38L440.82,197.23L451.84,199.53L495.92,205.86L506.94,207.12L540,210.82" style="vector-effect: non-scaling-stroke; fill: none; stroke: rgb(171, 99, 250); stroke-opacity: 1; stroke-width: 2px; opacity: 1;"/></g><g class="points"/><g class="text"/></g><g class="trace scatter trace7d09cc" style="stroke-miterlimit: 2; opacity: 1;"><g class="fills"/><g class="errorbars"/><g class="lines"><path class="js-line" d="M0,0.69L11.02,16.43L22.04,20.57L44.08,26.79L55.1,28.87L66.12,30.35L77.14,30.61L88.16,32.08L99.18,32.5L121.22,33.88L132.24,35.76L143.27,36.24L154.29,37.98L165.31,38.27L176.33,39.96L220.41,43.44L231.43,47.57L242.45,54.11L253.47,65.5L264.49,72.86L275.51,78.98L286.53,85.86L297.55,99.8L308.57,118.98L319.59,132.92L330.61,142.25L341.63,149.73L363.67,162.25L374.69,169.85L385.71,173.64L396.73,180.37L407.76,184.28L418.78,189.62L440.82,197.25L451.84,199.05L495.92,204.6L506.94,206.01L540,209.26" style="vector-effect: non-scaling-stroke; fill: none; stroke: rgb(255, 161, 90); stroke-opacity: 1; stroke-width: 2px; opacity: 1;"/></g><g class="points"/><g class="text"/></g><g class="trace scatter tracec1351a" style="stroke-miterlimit: 2; opacity: 1;"><g class="fills"/><g class="errorbars"/><g class="lines"><path class="js-line" d="M0,0.38L11.02,16.73L22.04,20.58L33.06,24.53L44.08,27.65L55.1,38.72L66.12,64.7L77.14,79.99L88.16,87.64L99.18,89.28L110.2,95.29L132.24,102.95L143.27,105.89L165.31,114.76L176.33,118.5L198.37,128.73L209.39,131.02L220.41,137.04L231.43,148.41L242.45,165.85L253.47,177.91L264.49,189.36L275.51,198.21L308.57,223.1L319.59,229.8L330.61,238.77L341.63,244.72L352.65,249.91L363.67,257.33L374.69,264.82L385.71,269.58L396.73,276.8L407.76,282.21L440.82,297.8L451.84,299.47L462.86,300.68L473.88,302.9L495.92,306.06L506.94,307.36L540,311.83" style="vector-effect: non-scaling-stroke; fill: none; stroke: rgb(25, 211, 243); stroke-opacity: 1; stroke-width: 2px; opacity: 1;"/></g><g class="points"/><g class="text"/></g><g class="trace scatter trace3ce5a3" style="stroke-miterlimit: 2; opacity: 1;"><g class="fills"/><g class="errorbars"/><g class="lines"><path class="js-line" d="M0,0.36L11.02,16.27L22.04,20.53L44.08,26.37L55.1,28.44L66.12,30.02L77.14,30.62L88.16,31.9L99.18,32.27L121.22,33.32L132.24,34.91L165.31,39.28L176.33,43.63L187.35,50.53L198.37,77.21L209.39,98.16L220.41,109.98L242.45,130.15L253.47,138.06L275.51,151.1L286.53,157.32L319.59,177.57L330.61,183.6L374.69,206.71L385.71,211.37L396.73,217.97L407.76,222.76L429.8,232.02L440.82,236.07L473.88,241.44L484.9,242.59L540,248.88" style="vector-effect: non-scaling-stroke; fill: none; stroke: rgb(255, 102, 146); stroke-opacity: 1; stroke-width: 2px; opacity: 1;"/></g><g class="points"/><g class="text"/></g><g class="trace scatter trace60efc6" style="stroke-miterlimit: 2; opacity: 1;"><g class="fills"/><g class="errorbars"/><g class="lines"><path class="js-line" d="M0,0.46L11.02,16.17L22.04,20.85L55.1,28.98L66.12,29.92L121.22,33.03L132.24,34.5L143.27,35.1L154.29,36.56L165.31,37L176.33,38.67L209.39,40.36L220.41,41.6L242.45,46.97L253.47,50.54L264.49,56.57L275.51,70.16L286.53,89.62L297.55,102.04L341.63,131.12L352.65,137.61L374.69,149.97L385.71,155.73L396.73,162.07L407.76,166.6L418.78,171.81L429.8,175.98L440.82,180.05L451.84,182.08L506.94,189.5L517.96,190.86L540,192.98" style="vector-effect: non-scaling-stroke; fill: none; stroke: rgb(182, 232, 128); stroke-opacity: 1; stroke-width: 2px; opacity: 1;"/></g><g class="points"/><g class="text"/></g><g class="trace scatter trace644944" style="stroke-miterlimit: 2; opacity: 1;"><g class="fills"/><g class="errorbars"/><g class="lines"><path class="js-line" d="M0,0.44L11.02,16.3L22.04,20.23L44.08,26.53L55.1,28.94L77.14,30.8L88.16,31.9L110.2,33.55L121.22,35.16L132.24,45.72L143.27,73.17L154.29,91.42L165.31,99.68L176.33,107.01L187.35,112.22L198.37,119.36L209.39,124.1L231.43,135.88L242.45,147.65L264.49,173.57L275.51,181.64L297.55,199.54L308.57,206.34L330.61,220.82L341.63,226.54L363.67,237.89L374.69,244.58L407.76,259.7L418.78,264.94L429.8,270.05L440.82,274.13L473.88,278.82L484.9,280.51L540,286.76" style="vector-effect: non-scaling-stroke; fill: none; stroke: rgb(255, 151, 255); stroke-opacity: 1; stroke-width: 2px; opacity: 1;"/></g><g class="points"/><g class="text"/></g><g class="trace scatter trace4fe180" style="stroke-miterlimit: 2; opacity: 1;"><g class="fills"/><g class="errorbars"/><g class="lines"><path class="js-line" d="M0,0.1L11.02,16.26L22.04,20.61L55.1,30.35L66.12,47.83L77.14,73.01L88.16,84.69L99.18,88.52L110.2,93.95L121.22,99L132.24,107.38L143.27,116.39L154.29,122.32L165.31,125.96L176.33,127.64L198.37,135.54L209.39,137.4L220.41,140.51L231.43,146.2L264.49,165.24L275.51,168.51L297.55,181.18L308.57,187.66L352.65,209.62L363.67,214.94L374.69,222.05L385.71,225.89L396.73,232.32L407.76,236.79L429.8,247.41L440.82,251.42L473.88,256.75L484.9,258.41L540,264.75" style="vector-effect: non-scaling-stroke; fill: none; stroke: rgb(254, 203, 82); stroke-opacity: 1; stroke-width: 2px; opacity: 1;"/></g><g class="points"/><g class="text"/></g><g class="trace scatter trace793d70" style="stroke-miterlimit: 2; opacity: 1;"><g class="fills"/><g class="errorbars"/><g class="lines"><path class="js-line" d="M0,0.41L11.02,16.39L22.04,20.59L55.1,28.97L66.12,30.2L110.2,33.92L121.22,34.41L132.24,35.74L143.27,36.23L154.29,38.01L165.31,37.63L176.33,39.49L187.35,40.16L220.41,42.14L231.43,45.41L264.49,56.06L275.51,60.05L286.53,63.86L297.55,66.85L308.57,72.25L319.59,76.09L363.67,96.5L374.69,101.78L396.73,111.02L407.76,115.63L429.8,123.73L440.82,126.47L462.86,129.88L473.88,130.9L540,137.04" style="vector-effect: non-scaling-stroke; fill: none; stroke: rgb(99, 110, 250); stroke-opacity: 1; stroke-width: 2px; opacity: 1;"/></g><g class="points"/><g class="text"/></g><g class="trace scatter tracee8b268" style="stroke-miterlimit: 2; opacity: 1;"><g class="fills"/><g class="errorbars"/><g class="lines"><path class="js-line" d="M0,0.44L11.02,16.71L22.04,20.56L55.1,28.98L66.12,30.23L143.27,35.17L154.29,36.62L165.31,37.13L176.33,38.52L209.39,41.85L220.41,41.83L242.45,47.58L253.47,51.41L286.53,62.77L297.55,65.46L308.57,70.11L319.59,73.26L341.63,81.13L352.65,83.99L385.71,96.04L396.73,100.89L407.76,105.13L418.78,111.15L440.82,121.63L451.84,124.6L473.88,130.83L484.9,133.11L517.96,138.96L528.98,140.41L540,141.78" style="vector-effect: non-scaling-stroke; fill: none; stroke: rgb(239, 85, 59); stroke-opacity: 1; stroke-width: 2px; opacity: 1;"/></g><g class="points"/><g class="text"/></g><g class="trace scatter trace06f8ff" style="stroke-miterlimit: 2; opacity: 1;"><g class="fills"/><g class="errorbars"/><g class="lines"><path class="js-line" d="M0,0.4L11.02,16.73L22.04,20.52L55.1,28.92L66.12,30.28L143.27,35.26L154.29,36.76L187.35,38.75L198.37,40.4L220.41,42.12L231.43,44.19L253.47,50.81L264.49,59.5L275.51,79.2L286.53,96.25L308.57,117.9L319.59,130.39L330.61,139.2L341.63,146.42L374.69,165.89L385.71,170.34L396.73,176.87L407.76,180.71L429.8,190.23L440.82,193.86L473.88,198.93L484.9,200.08L540,205.87" style="vector-effect: non-scaling-stroke; fill: none; stroke: rgb(0, 204, 150); stroke-opacity: 1; stroke-width: 2px; opacity: 1;"/></g><g class="points"/><g class="text"/></g><g class="trace scatter trace05ebb7" style="stroke-miterlimit: 2; opacity: 1;"><g class="fills"/><g class="errorbars"/><g class="lines"><path class="js-line" d="M0,0.28L11.02,16.44L22.04,20.88L55.1,28.93L66.12,30.18L88.16,31.88L99.18,33.17L121.22,34.2L132.24,35.42L176.33,39.49L187.35,40.93L198.37,44.15L209.39,53.29L220.41,59.96L231.43,65.1L242.45,70.74L253.47,88.96L264.49,110.26L275.51,121.41L286.53,130.94L297.55,137.41L319.59,150.06L330.61,155.2L352.65,165.84L363.67,170.73L374.69,177.23L385.71,180.66L396.73,186.73L407.76,190.39L429.8,199.49L440.82,202.88L473.88,207.66L484.9,208.79L540,214.27" style="vector-effect: non-scaling-stroke; fill: none; stroke: rgb(171, 99, 250); stroke-opacity: 1; stroke-width: 2px; opacity: 1;"/></g><g class="points"/><g class="text"/></g><g class="trace scatter trace893975" style="stroke-miterlimit: 2; opacity: 1;"><g class="fills"/><g class="errorbars"/><g class="lines"><path class="js-line" d="M0,0.74L11.02,17.19L22.04,21.67L44.08,27.17L55.1,28.97L77.14,30.52L88.16,32.83L99.18,33.11L110.2,36.99L121.22,57.12L132.24,79.72L143.27,89.57L154.29,94.17L176.33,100.66L187.35,104.98L198.37,112.44L209.39,116.83L220.41,121.62L231.43,129.56L253.47,140.71L264.49,146.58L275.51,150.36L286.53,155.49L297.55,159.7L308.57,165.7L319.59,169.44L330.61,174.08L418.78,208.25L429.8,213.27L440.82,216.42L451.84,217.81L528.98,226.51L540,227.11" style="vector-effect: non-scaling-stroke; fill: none; stroke: rgb(255, 161, 90); stroke-opacity: 1; stroke-width: 2px; opacity: 1;"/></g><g class="points"/><g class="text"/></g><g class="trace scatter trace124f9c" style="stroke-miterlimit: 2; opacity: 1;"><g class="fills"/><g class="errorbars"/><g class="lines"><path class="js-line" d="M0,0.57L11.02,16.88L22.04,21.71L55.1,31.11L66.12,48.54L77.14,71.74L88.16,82.76L99.18,88.61L110.2,97.07L121.22,108.24L132.24,117.25L154.29,125.37L165.31,127.04L176.33,129.78L187.35,131.17L198.37,133.13L209.39,131.18L220.41,133.03L231.43,140.43L253.47,150.27L264.49,156.06L275.51,160.18L286.53,165.35L308.57,177.81L319.59,181.98L330.61,187.54L341.63,191.47L363.67,201.76L374.69,207.26L396.73,215.7L407.76,221.98L418.78,225.77L429.8,230.88L440.82,234.15L451.84,235.67L540,245.72" style="vector-effect: non-scaling-stroke; fill: none; stroke: rgb(25, 211, 243); stroke-opacity: 1; stroke-width: 2px; opacity: 1;"/></g><g class="points"/><g class="text"/></g><g class="trace scatter tracefb5c4a" style="stroke-miterlimit: 2; opacity: 1;"><g class="fills"/><g class="errorbars"/><g class="lines"><path class="js-line" d="M0,0.75L11.02,16.99L22.04,21.49L55.1,30.41L66.12,41.44L77.14,65.26L88.16,80.67L99.18,86.56L110.2,93.56L121.22,99.27L132.24,108.87L143.27,116.1L154.29,121.6L176.33,127.89L187.35,129.26L198.37,131.51L209.39,130.52L220.41,132.67L231.43,139.31L242.45,145.36L253.47,150.07L264.49,155.94L275.51,160.52L286.53,166.09L297.55,170.69L308.57,176.8L319.59,181.46L330.61,187.15L341.63,191.58L352.65,196.32L363.67,201.98L385.71,211.22L396.73,215.69L407.76,221.49L418.78,225.67L429.8,230.73L440.82,233.92L528.98,244.36L540,245.14" style="vector-effect: non-scaling-stroke; fill: none; stroke: rgb(255, 102, 146); stroke-opacity: 1; stroke-width: 2px; opacity: 1;"/></g><g class="points"/><g class="text"/></g><g class="trace scatter trace846ec3" style="stroke-miterlimit: 2; opacity: 1;"><g class="fills"/><g class="errorbars"/><g class="lines"><path class="js-line" d="M0,0.93L11.02,17.2L22.04,21.28L33.06,24.71L44.08,27.02L66.12,30.07L77.14,30.46L88.16,32.48L99.18,32.8L110.2,33.96L121.22,34.13L132.24,34.67L143.27,36.04L154.29,37.11L165.31,36.62L176.33,38.38L187.35,39.13L198.37,40.52L209.39,39.66L220.41,41.23L231.43,44.62L242.45,47.17L253.47,50.59L264.49,53.33L275.51,57.11L319.59,72.33L330.61,80.15L341.63,94.18L352.65,106.96L363.67,116.43L374.69,123.84L396.73,135.19L407.76,139.74L429.8,149.23L440.82,152.62L484.9,158.39L495.92,159.68L528.98,162.89L540,163.8" style="vector-effect: non-scaling-stroke; fill: none; stroke: rgb(182, 232, 128); stroke-opacity: 1; stroke-width: 2px; opacity: 1;"/></g><g class="points"/><g class="text"/></g><g class="trace scatter traced69066" style="stroke-miterlimit: 2; opacity: 1;"><g class="fills"/><g class="errorbars"/><g class="lines"><path class="js-line" d="M0,0.44L11.02,16.27L22.04,20.58L55.1,28.8L66.12,30.3L121.22,34.23L132.24,35.71L154.29,37.58L165.31,38.49L187.35,41.98L198.37,52.19L209.39,76.97L220.41,94.02L242.45,130.33L253.47,142.22L264.49,151.63L275.51,159.16L297.55,174.97L308.57,181.48L330.61,196.98L341.63,202.43L352.65,207.34L363.67,213.75L374.69,220.91L385.71,225.64L407.76,236.86L418.78,241.55L429.8,246.58L440.82,250.28L462.86,253.84L473.88,255.41L506.94,259.47L517.96,260.81L540,262.95" style="vector-effect: non-scaling-stroke; fill: none; stroke: rgb(255, 151, 255); stroke-opacity: 1; stroke-width: 2px; opacity: 1;"/></g><g class="points"/><g class="text"/></g><g class="trace scatter tracee906a8" style="stroke-miterlimit: 2; opacity: 1;"><g class="fills"/><g class="errorbars"/><g class="lines"><path class="js-line" d="M0,0.44L11.02,16.27L22.04,20.58L55.1,28.8L66.12,30.3L121.22,34.24L132.24,35.57L143.27,36.22L154.29,37.78L165.31,38.39L176.33,39.87L187.35,41.69L198.37,47.76L209.39,71.45L220.41,90.88L242.45,128.21L253.47,141.27L264.49,150.02L275.51,157.72L297.55,173.4L308.57,179.83L330.61,195.2L341.63,200.63L352.65,205.85L363.67,212.06L374.69,219.57L385.71,224.25L407.76,235.52L418.78,240.12L429.8,245.21L440.82,248.97L473.88,254.18L484.9,255.68L528.98,260.26L540,261.53" style="vector-effect: non-scaling-stroke; fill: none; stroke: rgb(254, 203, 82); stroke-opacity: 1; stroke-width: 2px; opacity: 1;"/></g><g class="points"/><g class="text"/></g></g></g><g class="overplot"/><path class="xlines-above crisp" d="M0,0" style="fill: none;"/><path class="ylines-above crisp" d="M0,0" style="fill: none;"/><g class="overlines-above"/><g class="xaxislayer-above"><g class="xtick"><text text-anchor="middle" x="0" y="433" transform="translate(80,0)" style="font-family: 'Open Sans', verdana, arial, sans-serif; font-size: 12px; fill: rgb(42, 63, 95); fill-opacity: 1; white-space: pre; opacity: 1;">0</text></g><g class="xtick"><text text-anchor="middle" x="0" y="433" style="font-family: 'Open Sans', verdana, arial, sans-serif; font-size: 12px; fill: rgb(42, 63, 95); fill-opacity: 1; white-space: pre; opacity: 1;" transform="translate(190.2,0)">10</text></g><g class="xtick"><text text-anchor="middle" x="0" y="433" style="font-family: 'Open Sans', verdana, arial, sans-serif; font-size: 12px; fill: rgb(42, 63, 95); fill-opacity: 1; white-space: pre; opacity: 1;" transform="translate(300.40999999999997,0)">20</text></g><g class="xtick"><text text-anchor="middle" x="0" y="433" style="font-family: 'Open Sans', verdana, arial, sans-serif; font-size: 12px; fill: rgb(42, 63, 95); fill-opacity: 1; white-space: pre; opacity: 1;" transform="translate(410.61,0)">30</text></g><g class="xtick"><text text-anchor="middle" x="0" y="433" style="font-family: 'Open Sans', verdana, arial, sans-serif; font-size: 12px; fill: rgb(42, 63, 95); fill-opacity: 1; white-space: pre; opacity: 1;" transform="translate(520.8199999999999,0)">40</text></g></g><g class="yaxislayer-above"><g class="ytick"><text text-anchor="end" x="79" y="4.199999999999999" transform="translate(0,418.59)" style="font-family: 'Open Sans', verdana, arial, sans-serif; font-size: 12px; fill: rgb(42, 63, 95); fill-opacity: 1; white-space: pre; opacity: 1;">5.15</text></g><g class="ytick"><text text-anchor="end" x="79" y="4.199999999999999" style="font-family: 'Open Sans', verdana, arial, sans-serif; font-size: 12px; fill: rgb(42, 63, 95); fill-opacity: 1; white-space: pre; opacity: 1;" transform="translate(0,381.2)">5.2</text></g><g class="ytick"><text text-anchor="end" x="79" y="4.199999999999999" style="font-family: 'Open Sans', verdana, arial, sans-serif; font-size: 12px; fill: rgb(42, 63, 95); fill-opacity: 1; white-space: pre; opacity: 1;" transform="translate(0,343.81)">5.25</text></g><g class="ytick"><text text-anchor="end" x="79" y="4.199999999999999" style="font-family: 'Open Sans', verdana, arial, sans-serif; font-size: 12px; fill: rgb(42, 63, 95); fill-opacity: 1; white-space: pre; opacity: 1;" transform="translate(0,306.41999999999996)">5.3</text></g><g class="ytick"><text text-anchor="end" x="79" y="4.199999999999999" style="font-family: 'Open Sans', verdana, arial, sans-serif; font-size: 12px; fill: rgb(42, 63, 95); fill-opacity: 1; white-space: pre; opacity: 1;" transform="translate(0,269.03)">5.35</text></g><g class="ytick"><text text-anchor="end" x="79" y="4.199999999999999" style="font-family: 'Open Sans', verdana, arial, sans-serif; font-size: 12px; fill: rgb(42, 63, 95); fill-opacity: 1; white-space: pre; opacity: 1;" transform="translate(0,231.64)">5.4</text></g><g class="ytick"><text text-anchor="end" x="79" y="4.199999999999999" style="font-family: 'Open Sans', verdana, arial, sans-serif; font-size: 12px; fill: rgb(42, 63, 95); fill-opacity: 1; white-space: pre; opacity: 1;" transform="translate(0,194.25)">5.45</text></g><g class="ytick"><text text-anchor="end" x="79" y="4.199999999999999" style="font-family: 'Open Sans', verdana, arial, sans-serif; font-size: 12px; fill: rgb(42, 63, 95); fill-opacity: 1; white-space: pre; opacity: 1;" transform="translate(0,156.86)">5.5</text></g><g class="ytick"><text text-anchor="end" x="79" y="4.199999999999999" style="font-family: 'Open Sans', verdana, arial, sans-serif; font-size: 12px; fill: rgb(42, 63, 95); fill-opacity: 1; white-space: pre; opacity: 1;" transform="translate(0,119.47)">5.55</text></g></g><g class="overaxes-above"/></g></g><g class="polarlayer"/><g class="ternarylayer"/><g class="geolayer"/><g class="funnelarealayer"/><g class="pielayer"/><g class="iciclelayer"/><g class="treemaplayer"/><g class="sunburstlayer"/><g class="glimages"/><defs id="topdefs-1542cc"><g class="clips"/></defs><g class="layer-above"><g class="imagelayer"/><g class="shapelayer"/></g><g class="infolayer"><g class="g-gtitle"><text class="gtitle" x="35" y="50" text-anchor="start" dy="0em" style="font-family: 'Open Sans', verdana, arial, sans-serif; font-size: 17px; fill: rgb(42, 63, 95); opacity: 1; font-weight: normal; white-space: pre;">Train Loss: ascad_0-eff_cnn</text></g><g class="g-xtitle"/><g class="g-ytitle"/></g></svg>