<svg class="main-svg" xmlns="http://www.w3.org/2000/svg" xmlns:xlink="http://www.w3.org/1999/xlink" width="700" height="500" style="" viewBox="0 0 700 500"><rect x="0" y="0" width="700" height="500" style="fill: rgb(255, 255, 255); fill-opacity: 1;"/><defs id="defs-66b57b"><g class="clips"><clipPath id="clip66b57bxyplot" class="plotclip"><rect width="540" height="320"/></clipPath><clipPath class="axesclip" id="clip66b57bx"><rect x="80" y="0" width="540" height="500"/></clipPath><clipPath class="axesclip" id="clip66b57by"><rect x="0" y="100" width="700" height="320"/></clipPath><clipPath class="axesclip" id="clip66b57bxy"><rect x="80" y="100" width="540" height="320"/></clipPath></g><g class="gradients"/><g class="patterns"/></defs><g class="bglayer"><rect class="bg" x="80" y="100" width="540" height="320" style="fill: rgb(229, 236, 246); fill-opacity: 1; stroke-width: 0;"/></g><g class="layer-below"><g class="imagelayer"/><g class="shapelayer"/></g><g class="cartesianlayer"><g class="subplot xy"><g class="layer-subplot"><g class="shapelayer"/><g class="imagelayer"/></g><g class="gridlayer"><g class="x"><path class="xgrid crisp" transform="translate(188.43,0)" d="M0,100v320" style="stroke: rgb(255, 255, 255); stroke-opacity: 1; stroke-width: 1px;"/><path class="xgrid crisp" transform="translate(296.87,0)" d="M0,100v320" style="stroke: rgb(255, 255, 255); stroke-opacity: 1; stroke-width: 1px;"/><path class="xgrid crisp" transform="translate(405.3,0)" d="M0,100v320" style="stroke: rgb(255, 255, 255); stroke-opacity: 1; stroke-width: 1px;"/><path class="xgrid crisp" transform="translate(513.73,0)" d="M0,100v320" style="stroke: rgb(255, 255, 255); stroke-opacity: 1; stroke-width: 1px;"/></g><g class="y"><path class="ygrid crisp" transform="translate(0,374.51)" d="M80,0h540" style="stroke: rgb(255, 255, 255); stroke-opacity: 1; stroke-width: 1px;"/><path class="ygrid crisp" transform="translate(0,329.01)" d="M80,0h540" style="stroke: rgb(255, 255, 255); stroke-opacity: 1; stroke-width: 1px;"/><path class="ygrid crisp" transform="translate(0,283.52)" d="M80,0h540" style="stroke: rgb(255, 255, 255); stroke-opacity: 1; stroke-width: 1px;"/><path class="ygrid crisp" transform="translate(0,238.02)" d="M80,0h540" style="stroke: rgb(255, 255, 255); stroke-opacity: 1; stroke-width: 1px;"/><path class="ygrid crisp" transform="translate(0,192.53)" d="M80,0h540" style="stroke: rgb(255, 255, 255); stroke-opacity: 1; stroke-width: 1px;"/><path class="ygrid crisp" transform="translate(0,147.04)" d="M80,0h540" style="stroke: rgb(255, 255, 255); stroke-opacity: 1; stroke-width: 1px;"/><path class="ygrid crisp" transform="translate(0,101.54)" d="M80,0h540" style="stroke: rgb(255, 255, 255); stroke-opacity: 1; stroke-width: 1px;"/></g></g><g class="zerolinelayer"><path class="xzl zl crisp" transform="translate(80,0)" d="M0,100v320" style="stroke: rgb(255, 255, 255); stroke-opacity: 1; stroke-width: 2px;"/><path class="yzl zl crisp" transform="translate(0,420)" d="M80,0h540" style="stroke: rgb(255, 255, 255); stroke-opacity: 1; stroke-width: 2px;"/></g><path class="xlines-below"/><path class="ylines-below"/><g class="overlines-below"/><g class="xaxislayer-below"/><g class="yaxislayer-below"/><g class="overaxes-below"/><g class="plot" transform="translate(80,100)" clip-path="url(#clip66b57bxyplot)"><g class="scatterlayer mlayer"><g class="trace scatter trace2eae16" style="stroke-miterlimit: 2; opacity: 1;"><g class="fills"/><g class="errorbars"/><g class="lines"><path class="js-line" d="M0,69.89L6.51,152.64L8.67,166.68L10.84,184.71L13.01,185.61L15.18,197.35L17.35,215.07L21.69,248.08L23.86,249.87L26.02,257.03L28.19,260.98L30.36,267.38L32.53,266.39L36.87,269.54L39.04,277.05L43.37,291.16L45.54,283.95L47.71,284.93L49.88,291.72L54.22,298.39L56.39,299.52L58.55,302.78L60.72,302.61L62.89,305.18L65.06,305.14L67.23,304.44L69.4,305.5L73.73,306.97L75.9,308.99L82.41,312.59L84.58,312.02L86.75,313.69L88.92,313.37L93.25,315.11L95.42,314.63L125.78,317.29L127.95,316.88L147.47,318.5L149.64,318.35L153.98,317.89L156.14,317.96L164.82,317.73L166.99,317.88L182.17,317.94L184.34,318.1L229.88,319.32L232.05,319.31L260.24,319.5L262.41,319.65L373.01,319.89L375.18,319.9L464.1,319.97L466.27,319.97L540,319.99" style="vector-effect: non-scaling-stroke; fill: none; stroke: rgb(99, 110, 250); stroke-opacity: 1; stroke-width: 2px; opacity: 1;"/></g><g class="points"/><g class="text"/></g><g class="trace scatter trace428422" style="stroke-miterlimit: 2; opacity: 1;"><g class="fills"/><g class="errorbars"/><g class="lines"><path class="js-line" d="M0,95.98L4.34,106.56L6.51,125.66L8.67,137.15L10.84,113.99L13.01,99.76L15.18,101.78L17.35,117.61L19.52,119.45L21.69,125.02L23.86,122.47L30.36,160.79L32.53,181.87L34.7,189.06L36.87,189.65L39.04,192.36L41.2,200.57L43.37,197.15L45.54,203.08L47.71,220.37L49.88,212.42L52.05,217.16L54.22,212.91L56.39,214.9L58.55,218.08L60.72,225.37L62.89,219.14L65.06,225.67L67.23,236.02L71.57,244.24L73.73,252.09L78.07,258.73L80.24,261.17L84.58,260.93L86.75,262.95L88.92,265.11L91.08,265.09L93.25,269.14L95.42,270.35L97.59,270.48L99.76,274.03L104.1,267.52L106.27,270.02L108.43,271.02L110.6,270.9L114.94,273.09L117.11,273.43L119.28,274.93L121.45,275.25L123.61,274.94L125.78,273.72L127.95,275.04L130.12,270.59L132.29,271.99L134.46,269.14L136.63,266.64L138.8,268.47L143.13,266.19L145.3,268.64L147.47,268.65L149.64,272.15L151.81,273.16L153.98,272.9L160.48,272.74L162.65,272.24L164.82,270.97L166.99,272.15L173.49,279.81L175.66,279.99L180,281.82L182.17,283.51L184.34,286.06L186.51,285.54L188.67,283.28L190.84,285.12L193.01,285.19L195.18,282.54L197.35,286.3L199.52,286.17L201.69,287.09L203.86,287.02L206.02,288.84L208.19,288.31L210.36,288.18L212.53,289.24L214.7,289.46L216.87,290.95L219.04,290.48L221.2,291.33L223.37,290.21L225.54,290.47L227.71,292.99L229.88,293.13L232.05,293.86L234.22,292.78L236.39,294.8L238.55,294.68L240.72,294.98L242.89,296.3L245.06,297.92L247.23,298.13L251.57,298.97L253.73,299.58L255.9,298.44L258.07,298.21L260.24,296.32L262.41,297.37L266.75,297.98L268.92,296.55L271.08,296.25L273.25,294.75L275.42,294.5L277.59,298.36L279.76,298.3L281.93,299.05L284.1,298.53L286.27,299.52L290.6,300.83L292.77,302.63L303.61,303.35L305.78,303.2L312.29,302.21L314.46,302.45L316.63,303.08L318.8,302.55L323.13,302.26L325.3,301.83L331.81,302.82L333.98,301.66L336.14,302.26L338.31,301.8L353.49,304.09L355.66,303.76L362.17,305.32L364.34,305.03L377.35,305.53L379.52,304.75L383.86,305.15L386.02,305.06L399.04,304.82L401.2,305.02L403.37,306.18L405.54,306.34L409.88,305.64L412.05,306.01L425.06,305.69L427.23,305.85L438.07,306.74L440.24,306.77L453.25,307.16L455.42,307.52L470.6,306.67L472.77,306.77L483.61,306.48L485.78,306.63L509.64,306.03L511.81,305.82L518.31,306.41L520.48,306.25L526.99,306.27L529.16,306.05L540,306.41" style="vector-effect: non-scaling-stroke; fill: none; stroke: rgb(239, 85, 59); stroke-opacity: 1; stroke-width: 2px; opacity: 1;"/></g><g class="points"/><g class="text"/></g><g class="trace scatter trace9ea79a" style="stroke-miterlimit: 2; opacity: 1;"><g class="fills"/><g class="errorbars"/><g class="lines"><path class="js-line" d="M0,77.7L2.17,62.18L4.34,78.03L6.51,71.89L8.67,91.14L10.84,98.13L13.01,76.58L15.18,90.41L17.35,114.68L19.52,118.66L21.69,105.31L23.86,121.6L26.02,121.88L28.19,126.27L30.36,151.67L32.53,134.54L34.7,127.86L36.87,139.01L39.04,145.79L43.37,172.77L45.54,166.36L47.71,170.28L49.88,170.67L52.05,193.66L54.22,189.08L56.39,192.34L58.55,197.06L60.72,195.67L62.89,195.5L65.06,193.92L67.23,197.14L71.57,207.83L73.73,205.73L75.9,211.82L78.07,211.5L80.24,214.39L82.41,215.52L84.58,211.48L86.75,209.83L88.92,206.95L91.08,217.18L93.25,221.12L95.42,226.66L97.59,227.98L99.76,228.06L101.93,237.54L104.1,240.29L106.27,243.59L108.43,244.21L114.94,241.21L117.11,236.81L121.45,239.41L123.61,238.52L125.78,239.06L127.95,234.04L130.12,232.05L132.29,238.52L134.46,246.97L136.63,252.37L138.8,253.76L140.96,249.88L145.3,260.75L147.47,259.94L149.64,258.43L151.81,255.67L153.98,256.65L156.14,258.68L158.31,256.8L160.48,256.07L162.65,261.83L164.82,261.22L166.99,264.34L169.16,264.52L173.49,268.28L175.66,267.68L177.83,267.58L180,265.55L184.34,274.85L186.51,273.35L188.67,275.59L190.84,280.05L193.01,282.55L195.18,280.7L199.52,286.97L201.69,289.07L203.86,287.59L206.02,289.22L208.19,286.87L210.36,288.01L212.53,285.29L214.7,285.43L219.04,284.38L221.2,289.14L225.54,290.21L227.71,291.25L232.05,287.05L234.22,285.99L236.39,284.67L238.55,285.03L240.72,287.31L242.89,286.67L245.06,287.56L247.23,290.73L251.57,290.94L253.73,293.4L258.07,293.69L260.24,295.35L262.41,296.31L264.58,298.93L266.75,296.72L268.92,298.81L271.08,297.47L273.25,299.48L275.42,300.99L277.59,301.1L284.1,301.45L286.27,299.91L288.43,300.15L290.6,299.11L292.77,295.49L294.94,296.82L297.11,297L299.28,298.45L301.45,297.24L303.61,297.59L307.95,295.26L310.12,295.22L314.46,291.99L316.63,294.83L320.96,296.21L323.13,295.97L331.81,298.04L333.98,299.35L336.14,300.79L338.31,299.99L344.82,300.15L346.99,301.62L349.16,301.27L351.33,302.7L353.49,301.46L355.66,306.73L357.83,305.69L360,305.55L362.17,308.07L364.34,308.55L366.51,310.16L368.67,310.4L375.18,312.75L377.35,312.17L379.52,311.8L381.69,312.76L383.86,312.16L386.02,312.66L392.53,314.51L394.7,313.58L401.2,314.64L403.37,314.15L405.54,315.36L407.71,314.85L412.05,314.71L414.22,315.41L422.89,314.67L425.06,314.82L429.4,313.98L431.57,314.64L433.73,313.95L435.9,314.14L438.07,313.08L440.24,313.15L446.75,314.21L448.92,314.4L451.08,313.95L453.25,314.47L457.59,314.67L459.76,315.65L466.27,316.29L468.43,316.35L474.94,318.43L477.11,318.46L492.29,319.12L494.46,319.01L511.81,318.97L513.98,319.36L524.82,319.22L526.99,319.28L540,319.51" style="vector-effect: non-scaling-stroke; fill: none; stroke: rgb(0, 204, 150); stroke-opacity: 1; stroke-width: 2px; opacity: 1;"/></g><g class="points"/><g class="text"/></g><g class="trace scatter trace239950" style="stroke-miterlimit: 2; opacity: 1;"><g class="fills"/><g class="errorbars"/><g class="lines"><path class="js-line" d="M0,78.73L2.17,112.01L4.34,128.42L6.51,152.73L8.67,192.08L10.84,203L13.01,178.17L15.18,175.9L17.35,197.95L21.69,223.29L23.86,223.14L26.02,236.65L28.19,236.7L30.36,250.91L32.53,249.49L34.7,249.02L36.87,259.11L39.04,262.75L41.2,268.16L43.37,278.66L45.54,281.52L47.71,283.08L49.88,281.79L52.05,284.48L54.22,291.14L58.55,300.63L60.72,303.28L62.89,303.95L65.06,300.59L67.23,302.33L69.4,306.4L71.57,307.52L73.73,307.03L82.41,311.99L84.58,311.47L88.92,313.08L91.08,313.08L93.25,314.09L95.42,313.95L127.95,315.03L130.12,314.98L132.29,314.86L134.46,315.75L136.63,316.25L138.8,315.95L153.98,316.63L156.14,316.63L166.99,316.83L169.16,316.93L247.23,319.03L249.4,318.91L281.93,319.35L284.1,319.38L320.96,319.44L323.13,319.47L336.14,319.37L338.31,319.48L425.06,319.94L427.23,319.95L540,319.99" style="vector-effect: non-scaling-stroke; fill: none; stroke: rgb(171, 99, 250); stroke-opacity: 1; stroke-width: 2px; opacity: 1;"/></g><g class="points"/><g class="text"/></g><g class="trace scatter traceb71984" style="stroke-miterlimit: 2; opacity: 1;"><g class="fills"/><g class="errorbars"/><g class="lines"><path class="js-line" d="M0,86.56L2.17,114.11L4.34,120.93L6.51,132.51L8.67,160.34L10.84,174.77L13.01,158.51L15.18,163.62L17.35,187.32L19.52,208.06L21.69,199.87L26.02,221.31L28.19,217.55L32.53,198.73L34.7,224.49L36.87,223.86L39.04,238.71L41.2,231.13L43.37,238.98L45.54,239.84L47.71,242.99L49.88,241.25L52.05,249.05L54.22,253.77L56.39,254.07L60.72,265.6L62.89,266.26L67.23,277.58L69.4,284.33L73.73,280.39L75.9,280.49L80.24,287.29L82.41,290.58L84.58,289.18L86.75,295.64L88.92,296.1L91.08,297.47L93.25,297.77L95.42,297.07L97.59,298.79L99.76,302.36L101.93,301.87L104.1,300.6L108.43,304.79L110.6,304.6L117.11,305.89L119.28,305.32L121.45,304.2L123.61,306.58L125.78,307.73L127.95,307.76L132.29,306.59L134.46,308.23L138.8,309.07L140.96,308.23L143.13,308.57L145.3,307.43L147.47,307.9L149.64,307.43L153.98,307.17L156.14,308.07L158.31,308.73L160.48,307.98L162.65,306.82L164.82,308.64L166.99,308.69L169.16,309.56L171.33,311.7L173.49,311.82L182.17,312.81L184.34,313.05L186.51,313.06L188.67,313.86L190.84,313.9L193.01,312.93L201.69,314.89L203.86,314.6L221.2,315.21L223.37,314.79L234.22,314.53L236.39,315.44L242.89,316.49L245.06,316.56L253.73,317.07L255.9,316.62L266.75,317.05L268.92,317L292.77,318.48L294.94,318.31L307.95,318.16L310.12,318.36L466.27,319.8L468.43,319.79L516.14,319.8L518.31,319.86L540,319.86" style="vector-effect: non-scaling-stroke; fill: none; stroke: rgb(255, 161, 90); stroke-opacity: 1; stroke-width: 2px; opacity: 1;"/></g><g class="points"/><g class="text"/></g><g class="trace scatter trace97d927" style="stroke-miterlimit: 2; opacity: 1;"><g class="fills"/><g class="errorbars"/><g class="lines"><path class="js-line" d="M0,118.05L2.17,99.13L4.34,106.7L6.51,101.09L8.67,142.98L10.84,124.8L13.01,125.09L15.18,128.63L17.35,136.86L19.52,139.76L21.69,150.27L23.86,152.29L26.02,165.4L28.19,153.09L30.36,175.71L32.53,177.66L34.7,191.83L36.87,190.5L39.04,199L41.2,205.67L43.37,203.45L45.54,198.32L47.71,197.11L52.05,215.81L54.22,212.58L56.39,219.93L58.55,222.89L62.89,224.74L65.06,223.02L67.23,225.34L69.4,232.45L71.57,235.89L73.73,235.76L75.9,241.34L78.07,237.94L82.41,241.2L84.58,232.79L86.75,230.13L88.92,232.4L91.08,233.91L93.25,244.46L95.42,245.56L97.59,242.67L101.93,250.65L104.1,247.18L108.43,244.99L110.6,248.61L112.77,248.41L114.94,249.13L119.28,248.87L121.45,251.84L125.78,259.21L127.95,259.13L130.12,258.37L132.29,262.68L134.46,265.4L136.63,270.46L138.8,270.05L140.96,274.13L143.13,281.54L145.3,282.57L149.64,283.18L151.81,279.16L153.98,275.99L156.14,279.32L160.48,280.3L162.65,280.07L169.16,285.74L171.33,289.28L173.49,287.62L175.66,286.99L177.83,286.52L180,284.49L182.17,283.18L184.34,280.46L186.51,279.8L188.67,285.97L190.84,287.26L193.01,284.46L195.18,286.82L197.35,287.63L203.86,286.25L206.02,289.34L210.36,291.38L212.53,290.4L214.7,289.72L216.87,290.62L219.04,288.87L221.2,290.23L225.54,295.66L227.71,296.59L229.88,294.23L232.05,293.91L234.22,293.35L236.39,290.51L238.55,291.02L240.72,294.42L242.89,298.16L245.06,298.03L247.23,299.19L249.4,298.33L251.57,298.46L253.73,300.51L255.9,305.19L258.07,306.68L260.24,308.46L262.41,308.39L264.58,309.65L266.75,309.92L273.25,310.38L275.42,309.62L279.76,310.79L281.93,310.39L284.1,311.79L286.27,312.14L288.43,314.55L290.6,313.71L292.77,314.23L294.94,313.85L297.11,314.3L299.28,313.77L303.61,314.75L305.78,314.66L307.95,315.31L310.12,315.05L314.46,313.58L316.63,314.69L323.13,315.11L325.3,313.9L329.64,312.41L331.81,313.76L333.98,313.2L336.14,314.17L340.48,316.45L342.65,316.29L349.16,315.48L351.33,315.4L353.49,316.89L355.66,317.16L362.17,317.14L364.34,317.58L381.69,317.64L383.86,317.5L392.53,317.19L394.7,317.68L420.72,319.4L422.89,319.46L431.57,319.35L433.73,319.32L485.78,319.78L487.95,319.79L513.98,319.82L516.14,319.85L540,319.94" style="vector-effect: non-scaling-stroke; fill: none; stroke: rgb(25, 211, 243); stroke-opacity: 1; stroke-width: 2px; opacity: 1;"/></g><g class="points"/><g class="text"/></g><g class="trace scatter traced0b1a1" style="stroke-miterlimit: 2; opacity: 1;"><g class="fills"/><g class="errorbars"/><g class="lines"><path class="js-line" d="M0,118.98L2.17,84.42L4.34,69.88L6.51,78.94L8.67,99.61L10.84,92.91L13.01,68.97L15.18,73.41L17.35,102.03L19.52,102.11L21.69,116.01L23.86,110.54L26.02,119.52L28.19,104.29L30.36,119.87L32.53,101.3L34.7,115.59L39.04,138.13L41.2,138.9L43.37,142.67L45.54,144.07L47.71,150.3L49.88,146.64L52.05,158.25L54.22,160.86L56.39,156.62L58.55,158.67L60.72,163.32L62.89,170.34L65.06,181.88L67.23,180.92L69.4,186.04L71.57,182.85L73.73,177.49L75.9,182.38L82.41,195.7L84.58,193.42L86.75,190L88.92,192.5L91.08,198.15L93.25,206.76L95.42,206.25L97.59,204.38L99.76,208.09L101.93,216.87L104.1,218.29L106.27,226.92L110.6,230.68L112.77,233.27L114.94,230.81L117.11,236.83L119.28,239.34L121.45,239.33L125.78,247.06L127.95,249.03L130.12,244.91L132.29,246.74L136.63,246.88L138.8,244.38L143.13,254.91L145.3,258.36L151.81,250.07L153.98,253.99L156.14,256.55L158.31,264.37L160.48,259.5L162.65,259.96L164.82,262.56L166.99,266.54L169.16,268.81L171.33,269.28L173.49,271.93L175.66,271.27L177.83,274.36L180,272.85L184.34,266.78L186.51,265.32L188.67,269.51L190.84,270.44L195.18,269.21L197.35,268.38L199.52,272.95L201.69,275.03L203.86,273.43L206.02,277L208.19,277.57L210.36,275.27L212.53,274.94L214.7,278.65L216.87,279.54L219.04,275.84L221.2,277.02L223.37,276.55L227.71,284.43L229.88,283.55L232.05,282.67L234.22,284.8L236.39,287.98L238.55,286.66L242.89,289.1L245.06,295.08L247.23,295.87L249.4,297.75L253.73,299L255.9,300.01L258.07,299.22L260.24,300.05L262.41,298.89L264.58,299.45L266.75,299.86L268.92,301.07L271.08,300.34L273.25,301.16L275.42,303.02L277.59,302.25L279.76,303.81L281.93,303.14L284.1,304.37L286.27,304.69L294.94,308.4L297.11,308.23L303.61,309.83L305.78,309.77L310.12,311.07L312.29,310.63L314.46,308.58L316.63,310.4L323.13,310.03L325.3,309.11L327.47,308.38L329.64,308.83L331.81,309.17L333.98,310.56L336.14,310.94L338.31,309.3L344.82,309.55L346.99,310.12L351.33,312.36L353.49,312.57L355.66,313.79L357.83,313.73L368.67,314.7L370.84,315.9L377.35,317.29L379.52,317.34L383.86,316.81L386.02,317.03L390.36,317.07L392.53,317.57L414.22,317.06L416.39,316.49L418.55,316.42L420.72,317.11L431.57,316.43L433.73,316.5L440.24,316.88L442.41,317.53L448.92,318.29L451.08,318.15L459.76,318.01L461.93,317.91L477.11,318.85L479.28,318.88L494.46,319.02L496.63,319.1L540,319.5" style="vector-effect: non-scaling-stroke; fill: none; stroke: rgb(255, 102, 146); stroke-opacity: 1; stroke-width: 2px; opacity: 1;"/></g><g class="points"/><g class="text"/></g><g class="trace scatter trace34bfb6" style="stroke-miterlimit: 2; opacity: 1;"><g class="fills"/><g class="errorbars"/><g class="lines"><path class="js-line" d="M0,86.95L2.17,120.65L4.34,116.01L6.51,115.56L8.67,162.56L10.84,158.86L13.01,157.96L15.18,157.45L17.35,180.14L19.52,187.82L21.69,209.24L23.86,210.2L26.02,207.78L28.19,215.62L30.36,215.45L32.53,212.61L34.7,218.88L36.87,224.99L39.04,233.35L41.2,233.62L43.37,242.09L45.54,248.38L47.71,259.93L49.88,256.55L52.05,264.16L54.22,269.91L56.39,282.31L58.55,285.98L60.72,292.98L62.89,293.63L65.06,296.53L67.23,298.75L69.4,302.88L71.57,305.19L73.73,303.96L75.9,304.63L78.07,307.16L82.41,310.41L84.58,310.54L86.75,312.28L88.92,312.17L101.93,314.99L104.1,314.48L108.43,315.42L110.6,315.59L114.94,315.9L117.11,316.02L121.45,315.12L123.61,315.02L134.46,315.78L136.63,316.19L140.96,316.13L143.13,316.82L151.81,316.53L153.98,316.32L177.83,317.68L180,317.63L184.34,317.54L186.51,317.5L203.86,317.77L206.02,317.99L247.23,318.6L249.4,318.48L275.42,318.8L277.59,318.72L294.94,318.73L297.11,318.49L435.9,319.77L438.07,319.75L540,319.96" style="vector-effect: non-scaling-stroke; fill: none; stroke: rgb(182, 232, 128); stroke-opacity: 1; stroke-width: 2px; opacity: 1;"/></g><g class="points"/><g class="text"/></g><g class="trace scatter tracec584bd" style="stroke-miterlimit: 2; opacity: 1;"><g class="fills"/><g class="errorbars"/><g class="lines"><path class="js-line" d="M0,76.58L4.34,105.75L6.51,147.26L10.84,196.08L13.01,189.45L17.35,203.3L19.52,219.4L23.86,253.9L26.02,256.5L28.19,262.43L30.36,264.42L32.53,250.67L34.7,254.84L36.87,265L39.04,268.79L41.2,284.68L43.37,286.37L47.71,293.45L49.88,293.1L52.05,292.89L54.22,295.5L58.55,298.13L60.72,304.01L67.23,302.96L69.4,305.61L71.57,308.29L73.73,309.03L78.07,310.65L80.24,310.63L82.41,310.89L84.58,309.1L86.75,312.29L88.92,312.83L93.25,314.91L95.42,314.72L134.46,317L136.63,316.78L171.33,317.44L173.49,317.88L210.36,318.58L212.53,318.7L221.2,318.71L223.37,318.81L253.73,318.94L255.9,318.93L275.42,318.83L277.59,318.82L305.78,318.72L307.95,318.65L368.67,318.69L370.84,318.86L377.35,319.42L379.52,319.39L414.22,319.76L416.39,319.77L490.12,319.73L492.29,319.69L540,319.84" style="vector-effect: non-scaling-stroke; fill: none; stroke: rgb(255, 151, 255); stroke-opacity: 1; stroke-width: 2px; opacity: 1;"/></g><g class="points"/><g class="text"/></g><g class="trace scatter traceeac8ec" style="stroke-miterlimit: 2; opacity: 1;"><g class="fills"/><g class="errorbars"/><g class="lines"><path class="js-line" d="M0,91.47L2.17,134.35L4.34,158.19L8.67,185L10.84,198.68L13.01,193.37L15.18,211.29L17.35,223.07L19.52,230.65L21.69,239.93L23.86,242.98L26.02,258.45L28.19,253.6L30.36,262.21L32.53,256.49L34.7,257.76L36.87,264.05L39.04,266.66L41.2,273.5L43.37,279.46L45.54,280.87L47.71,287.53L49.88,291.19L52.05,293.9L54.22,299.82L58.55,303.67L60.72,305.55L62.89,306.95L65.06,306.71L75.9,309.72L78.07,309.78L82.41,310.32L84.58,309.67L86.75,311.27L88.92,310.5L91.08,311.59L93.25,314.28L99.76,314.4L101.93,314.66L104.1,313.53L106.27,313.62L117.11,314.3L119.28,313.81L123.61,314.93L125.78,314.37L130.12,314.65L132.29,314.97L136.63,315.93L138.8,315.75L140.96,315.65L143.13,316.68L149.64,316.74L151.81,316.37L158.31,316.6L160.48,316.68L175.66,317.84L177.83,317.47L186.51,317.22L188.67,317.69L199.52,317.89L201.69,317.89L203.86,317.69L206.02,318.34L229.88,318.51L232.05,318.1L253.73,318.75L255.9,318.66L277.59,318.78L279.76,318.93L294.94,318.89L297.11,319.02L314.46,318.64L316.63,318.76L390.36,319.47L392.53,319.61L435.9,319.9L438.07,319.82L531.33,319.69L533.49,319.71L540,319.76" style="vector-effect: non-scaling-stroke; fill: none; stroke: rgb(254, 203, 82); stroke-opacity: 1; stroke-width: 2px; opacity: 1;"/></g><g class="points"/><g class="text"/></g><g class="trace scatter traceb60ef5" style="stroke-miterlimit: 2; opacity: 1;"><g class="fills"/><g class="errorbars"/><g class="lines"><path class="js-line" d="M0,87.78L4.34,138.31L6.51,153.02L10.84,197.74L13.01,176.68L15.18,189.97L17.35,221.13L19.52,227.19L21.69,242.79L23.86,244.61L26.02,254.41L28.19,261.49L30.36,264.03L34.7,260.26L36.87,268.28L39.04,271.12L41.2,270.87L43.37,269.11L45.54,271.34L49.88,277.62L52.05,284.21L54.22,287.93L56.39,293.58L58.55,296.95L60.72,298.35L62.89,298.97L65.06,297.08L67.23,296.76L69.4,300.58L75.9,304.01L78.07,304.07L82.41,307.52L84.58,307.12L86.75,305.01L88.92,306.34L93.25,311.31L95.42,310.67L99.76,310.84L101.93,311.09L114.94,312.65L117.11,312.23L119.28,310.92L121.45,312.3L123.61,312.7L125.78,312.16L127.95,313.2L130.12,312.47L132.29,313.49L134.46,313.47L145.3,313.85L147.47,314.72L153.98,315.08L156.14,315.39L158.31,315L160.48,315.6L171.33,315.79L173.49,316.15L195.18,316.34L197.35,316.5L214.7,317.33L216.87,317.01L223.37,317.35L225.54,317.56L236.39,317.48L238.55,317.88L251.57,318.42L253.73,318.45L277.59,318.76L279.76,318.81L314.46,319.02L316.63,319.21L329.64,318.94L331.81,318.99L401.2,319.84L403.37,319.87L540,319.96" style="vector-effect: non-scaling-stroke; fill: none; stroke: rgb(99, 110, 250); stroke-opacity: 1; stroke-width: 2px; opacity: 1;"/></g><g class="points"/><g class="text"/></g><g class="trace scatter traceaebc14" style="stroke-miterlimit: 2; opacity: 1;"><g class="fills"/><g class="errorbars"/><g class="lines"><path class="js-line" d="M0,105.1L2.17,100.57L4.34,115.35L8.67,167.67L10.84,168.23L13.01,157.4L15.18,181.46L17.35,205.52L19.52,210.79L21.69,227.9L23.86,231.51L26.02,249.05L28.19,255.24L30.36,261.32L32.53,264.88L34.7,262.6L36.87,268.61L39.04,272.6L41.2,279.93L49.88,295.33L52.05,292.57L54.22,297.78L56.39,297.37L58.55,295.3L60.72,299.71L67.23,303.83L69.4,304.09L71.57,304.08L73.73,305.19L78.07,305.92L80.24,306.62L82.41,307.52L84.58,306.3L88.92,308.37L91.08,308.67L93.25,309.04L95.42,308.48L97.59,308.37L99.76,309.43L101.93,310.59L104.1,310.46L121.45,311.62L123.61,312.11L132.29,312.23L134.46,312.38L138.8,312.47L140.96,312.56L151.81,312.65L153.98,312.56L162.65,311.88L164.82,312.27L169.16,312.31L171.33,312.45L177.83,312.35L180,312.35L201.69,313.5L203.86,313.15L208.19,313.8L210.36,314.25L216.87,313.72L219.04,313.98L225.54,314.15L227.71,314.07L234.22,314.47L236.39,314.57L273.25,315.35L275.42,315.27L284.1,315.52L286.27,315.38L329.64,316.09L331.81,316.2L370.84,316.46L373.01,316.61L392.53,316.55L394.7,316.54L407.71,316.93L409.88,316.72L435.9,317.02L438.07,317.27L448.92,317.45L451.08,317.71L457.59,317.78L459.76,317.71L477.11,318.03L479.28,318.07L490.12,317.98L492.29,317.96L526.99,318.19L529.16,318.25L540,318.29" style="vector-effect: non-scaling-stroke; fill: none; stroke: rgb(239, 85, 59); stroke-opacity: 1; stroke-width: 2px; opacity: 1;"/></g><g class="points"/><g class="text"/></g><g class="trace scatter trace7fde74" style="stroke-miterlimit: 2; opacity: 1;"><g class="fills"/><g class="errorbars"/><g class="lines"><path class="js-line" d="M0,95.34L4.34,154.64L6.51,176.55L8.67,206.34L10.84,217.14L13.01,206.8L15.18,217.13L17.35,229.22L19.52,247.78L21.69,245.83L23.86,241.87L26.02,245.33L28.19,252.38L30.36,254.83L32.53,245.75L34.7,252.85L36.87,256.46L39.04,260.59L41.2,269.55L43.37,278.97L45.54,280.2L47.71,281.26L49.88,285.95L52.05,293.27L54.22,294.98L56.39,299.08L58.55,300.83L62.89,304.97L65.06,302.77L67.23,304.12L69.4,304.54L71.57,304.81L73.73,303.89L82.41,308.55L84.58,307.62L97.59,312.92L99.76,312.66L106.27,313.14L108.43,313.24L140.96,315.16L143.13,315.73L158.31,316.36L160.48,316.06L182.17,316.66L184.34,316.67L232.05,317.48L234.22,317.58L288.43,317.86L290.6,317.87L325.3,318.1L327.47,318.1L412.05,318.17L414.22,318.39L540,318.46" style="vector-effect: non-scaling-stroke; fill: none; stroke: rgb(0, 204, 150); stroke-opacity: 1; stroke-width: 2px; opacity: 1;"/></g><g class="points"/><g class="text"/></g><g class="trace scatter trace3b6ffc" style="stroke-miterlimit: 2; opacity: 1;"><g class="fills"/><g class="errorbars"/><g class="lines"><path class="js-line" d="M0,83.62L2.17,70.26L4.34,82.09L8.67,190.61L10.84,200.63L13.01,182.87L15.18,174.52L17.35,203.72L19.52,217.53L21.69,232.2L23.86,237.96L26.02,253.79L28.19,248.69L30.36,247.57L32.53,239.09L34.7,239.7L36.87,249.14L41.2,258.02L43.37,259.26L45.54,260.39L47.71,257.52L49.88,258.16L52.05,255.29L54.22,265.43L56.39,263.38L60.72,274.33L62.89,278.76L65.06,274.56L67.23,274.79L69.4,286.17L71.57,290.14L73.73,286.24L75.9,292.75L78.07,297.29L80.24,297.87L82.41,300.05L84.58,298.21L86.75,302.64L88.92,303.88L93.25,307.68L95.42,307.44L97.59,305.86L99.76,308.13L104.1,306.53L106.27,305.95L108.43,307.43L110.6,307.51L114.94,309.09L117.11,310.46L119.28,309.23L121.45,309.1L125.78,308.27L127.95,309.64L130.12,309.83L132.29,310.89L136.63,311.3L138.8,309.7L145.3,309.73L147.47,310.76L149.64,309.27L151.81,309.91L156.14,309.97L158.31,311.09L162.65,309.49L164.82,310.12L166.99,310.73L169.16,310.2L171.33,310.24L173.49,311.7L182.17,313.27L184.34,312.98L188.67,314.14L190.84,313.79L193.01,313.17L195.18,313.76L203.86,313.53L206.02,314.83L208.19,314.25L210.36,315.01L212.53,315.53L214.7,315.07L216.87,315.16L219.04,314.42L221.2,314.22L223.37,315.18L229.88,315.35L232.05,315.21L240.72,316.1L242.89,316.07L247.23,316.86L249.4,316.6L258.07,316.22L260.24,315.59L266.75,316.23L268.92,316.26L292.77,317.53L294.94,317.57L301.45,317.72L303.61,317.7L336.14,318.21L338.31,318.4L431.57,319.48L433.73,319.48L455.42,319.69L457.59,319.69L540,319.82" style="vector-effect: non-scaling-stroke; fill: none; stroke: rgb(171, 99, 250); stroke-opacity: 1; stroke-width: 2px; opacity: 1;"/></g><g class="points"/><g class="text"/></g><g class="trace scatter tracea32e07" style="stroke-miterlimit: 2; opacity: 1;"><g class="fills"/><g class="errorbars"/><g class="lines"><path class="js-line" d="M0,104.96L4.34,169.23L6.51,179.23L8.67,203.45L10.84,216.69L13.01,201.86L15.18,227.2L17.35,225.79L19.52,231.55L21.69,248.96L23.86,248.18L26.02,249.88L28.19,255.35L30.36,265.55L32.53,262.02L34.7,266.36L36.87,267.24L41.2,289.82L43.37,294.31L45.54,293.82L47.71,294.65L52.05,300.89L54.22,302.93L58.55,306.02L60.72,309.31L62.89,309.89L65.06,311.35L67.23,311.66L69.4,312.84L73.73,311.96L75.9,311.98L82.41,313.64L84.58,312.99L88.92,314.65L91.08,314.67L99.76,314.87L101.93,315.58L106.27,316.39L108.43,316.04L114.94,316.31L117.11,316.8L149.64,317.94L151.81,317.84L160.48,317.66L162.65,317.86L184.34,318.08L186.51,317.97L197.35,318.53L199.52,318.42L227.71,318.95L229.88,318.94L236.39,318.66L238.55,318.74L245.06,318.67L247.23,318.66L286.27,319.45L288.43,319.66L516.14,319.96L518.31,319.96L540,319.98" style="vector-effect: non-scaling-stroke; fill: none; stroke: rgb(255, 161, 90); stroke-opacity: 1; stroke-width: 2px; opacity: 1;"/></g><g class="points"/><g class="text"/></g><g class="trace scatter trace64f889" style="stroke-miterlimit: 2; opacity: 1;"><g class="fills"/><g class="errorbars"/><g class="lines"><path class="js-line" d="M0,99.47L2.17,91.45L4.34,105.61L6.51,117.1L8.67,142.07L10.84,161.65L13.01,155.29L15.18,164.91L17.35,189.69L26.02,222.62L28.19,233.76L30.36,248.28L32.53,241.88L34.7,245.45L36.87,252.49L41.2,262.03L43.37,272.37L45.54,269.2L47.71,271.83L49.88,270.63L52.05,271.21L56.39,282.37L58.55,286.12L60.72,288.11L62.89,295.46L67.23,294.81L69.4,300.52L71.57,301.48L73.73,301.5L82.41,309.04L84.58,308.85L91.08,312.31L93.25,313.32L97.59,312.47L99.76,312.38L104.1,313.36L106.27,313.17L108.43,314.27L110.6,313.86L112.77,313.6L114.94,314.35L140.96,314.83L143.13,315.64L156.14,315.64L158.31,315.44L164.82,315.48L166.99,315.85L175.66,316.12L177.83,316.4L182.17,316.02L184.34,316.19L197.35,316.45L199.52,316.47L223.37,316.67L225.54,316.65L266.75,317.64L268.92,317.31L273.25,317.25L275.42,317.59L338.31,317.67L340.48,317.92L425.06,319.5L427.23,319.5L540,319.62" style="vector-effect: non-scaling-stroke; fill: none; stroke: rgb(25, 211, 243); stroke-opacity: 1; stroke-width: 2px; opacity: 1;"/></g><g class="points"/><g class="text"/></g><g class="trace scatter trace48d6f2" style="stroke-miterlimit: 2; opacity: 1;"><g class="fills"/><g class="errorbars"/><g class="lines"><path class="js-line" d="M0,99.72L2.17,102.73L4.34,93.36L6.51,124.94L8.67,140.87L10.84,160.72L13.01,143.11L15.18,150.54L17.35,176.52L19.52,179.86L21.69,216.48L23.86,216.47L26.02,223.09L28.19,222.61L30.36,226.28L32.53,216.56L34.7,218.71L36.87,238.55L39.04,251.17L43.37,257.91L45.54,269.93L47.71,269.97L49.88,277.32L52.05,284.58L54.22,283.72L56.39,289.55L58.55,290.57L65.06,298.87L67.23,298.98L71.57,303.87L73.73,304.37L80.24,306.43L82.41,308.38L84.58,307.39L86.75,307.86L95.42,309.15L97.59,309.21L99.76,310.33L101.93,310L108.43,312.24L110.6,311.97L125.78,311.4L127.95,312.74L130.12,312.06L132.29,312.33L138.8,312.54L140.96,311.84L145.3,312.76L147.47,312.84L149.64,313.53L151.81,313.26L180,315.5L182.17,315.33L188.67,315.16L190.84,315.09L195.18,314.7L197.35,314.79L201.69,315.1L203.86,314.96L208.19,315.24L210.36,315.55L219.04,315.03L221.2,315.4L229.88,316.07L232.05,315.94L236.39,315.91L238.55,316.32L268.92,317.43L271.08,317.18L275.42,317.37L277.59,317.37L377.35,318.9L379.52,318.8L507.47,319.66L509.64,319.65L540,319.7" style="vector-effect: non-scaling-stroke; fill: none; stroke: rgb(255, 102, 146); stroke-opacity: 1; stroke-width: 2px; opacity: 1;"/></g><g class="points"/><g class="text"/></g><g class="trace scatter tracebcd3b6" style="stroke-miterlimit: 2; opacity: 1;"><g class="fills"/><g class="errorbars"/><g class="lines"><path class="js-line" d="M0,117.29L2.17,105.52L4.34,126.74L6.51,139.37L8.67,174.88L13.01,139.88L15.18,158L17.35,176.8L19.52,181.94L23.86,199.18L26.02,213.11L28.19,216.22L30.36,217.33L32.53,214.47L34.7,214.97L36.87,231.22L39.04,238.96L43.37,259.11L45.54,255.58L47.71,256.29L49.88,261.4L52.05,251.23L54.22,256.97L56.39,260.37L58.55,266.98L62.89,277.94L65.06,279.82L67.23,285.98L69.4,288.32L73.73,292.26L75.9,294.47L80.24,297.29L82.41,300.86L86.75,299.54L88.92,300.4L91.08,302.13L93.25,302.78L95.42,302.87L97.59,305.75L104.1,307.43L106.27,309.32L108.43,305.68L110.6,306.91L114.94,307.05L117.11,309.09L119.28,309.82L121.45,309.19L123.61,311.97L125.78,313.37L130.12,314.3L132.29,315.12L138.8,315.8L140.96,315.2L145.3,316.58L147.47,317.41L158.31,317.1L160.48,317.93L177.83,318.73L180,318.62L199.52,318.8L201.69,318.79L206.02,318.56L208.19,318.88L227.71,319.14L229.88,319.14L238.55,318.96L240.72,319.12L260.24,319.13L262.41,319.2L299.28,319.48L301.45,319.48L349.16,319.76L351.33,319.79L425.06,319.82L427.23,319.91L540,319.98" style="vector-effect: non-scaling-stroke; fill: none; stroke: rgb(182, 232, 128); stroke-opacity: 1; stroke-width: 2px; opacity: 1;"/></g><g class="points"/><g class="text"/></g><g class="trace scatter trace97209b" style="stroke-miterlimit: 2; opacity: 1;"><g class="fills"/><g class="errorbars"/><g class="lines"><path class="js-line" d="M0,108.82L2.17,124.08L4.34,125.32L6.51,132.07L8.67,165.19L10.84,173.66L13.01,153.36L15.18,165.69L17.35,185.81L26.02,225.08L28.19,232.49L30.36,237.67L32.53,228.23L34.7,225.95L36.87,238.79L39.04,251.38L41.2,249.44L43.37,259.75L45.54,264.52L47.71,272.41L49.88,273.57L52.05,278.05L54.22,280.72L60.72,295.61L62.89,300.14L65.06,296.8L67.23,299.31L75.9,305.37L78.07,307.83L82.41,310.73L84.58,310.04L86.75,311.5L88.92,311.96L93.25,313.14L95.42,312.45L99.76,313.53L101.93,313.94L104.1,313.37L106.27,313.73L108.43,314.29L110.6,314.02L119.28,315.28L121.45,314.96L130.12,315.08L132.29,315.57L145.3,316.77L147.47,316.68L151.81,316.81L153.98,316.86L164.82,317.34L166.99,317.64L193.01,318.24L195.18,318.28L208.19,318.31L210.36,318.32L221.2,318.28L223.37,318.45L273.25,319.08L275.42,319.1L320.96,319.22L323.13,319.24L425.06,319.91L427.23,319.92L483.61,319.97L485.78,319.97L540,319.98" style="vector-effect: non-scaling-stroke; fill: none; stroke: rgb(255, 151, 255); stroke-opacity: 1; stroke-width: 2px; opacity: 1;"/></g><g class="points"/><g class="text"/></g><g class="trace scatter trace401939" style="stroke-miterlimit: 2; opacity: 1;"><g class="fills"/><g class="errorbars"/><g class="lines"><path class="js-line" d="M0,102.84L2.17,144.87L4.34,146.11L6.51,150.64L8.67,171.79L10.84,182.62L13.01,166.55L15.18,160.66L17.35,186.95L19.52,202.49L21.69,229.07L26.02,242.24L28.19,241.06L30.36,254.59L32.53,249.57L34.7,248.67L36.87,260.38L41.2,278.87L43.37,281.34L47.71,290L49.88,292.17L52.05,296.31L54.22,295.64L58.55,299.8L60.72,303.36L65.06,303.74L67.23,303.71L69.4,306.76L71.57,308.01L73.73,307.61L75.9,309.55L82.41,312.83L84.58,313.01L97.59,314.19L99.76,314.07L112.77,315.58L114.94,315.89L130.12,315.24L132.29,315.82L156.14,316.89L158.31,317.25L171.33,317.2L173.49,317.72L184.34,317.65L186.51,317.89L208.19,318.57L210.36,318.67L234.22,318.63L236.39,318.57L249.4,318.51L251.57,318.44L264.58,318.62L266.75,318.67L284.1,318.43L286.27,318.4L292.77,318.79L294.94,318.72L305.78,318.78L307.95,318.75L331.81,318.86L333.98,318.98L346.99,319.36L349.16,319.34L540,319.98" style="vector-effect: non-scaling-stroke; fill: none; stroke: rgb(254, 203, 82); stroke-opacity: 1; stroke-width: 2px; opacity: 1;"/></g><g class="points"/><g class="text"/></g></g></g><g class="overplot"/><path class="xlines-above crisp" d="M0,0" style="fill: none;"/><path class="ylines-above crisp" d="M0,0" style="fill: none;"/><g class="overlines-above"/><g class="xaxislayer-above"><g class="xtick"><text text-anchor="middle" x="0" y="433" transform="translate(80,0)" style="font-family: 'Open Sans', verdana, arial, sans-serif; font-size: 12px; fill: rgb(42, 63, 95); fill-opacity: 1; white-space: pre; opacity: 1;">0</text></g><g class="xtick"><text text-anchor="middle" x="0" y="433" style="font-family: 'Open Sans', verdana, arial, sans-serif; font-size: 12px; fill: rgb(42, 63, 95); fill-opacity: 1; white-space: pre; opacity: 1;" transform="translate(188.43,0)">50</text></g><g class="xtick"><text text-anchor="middle" x="0" y="433" style="font-family: 'Open Sans', verdana, arial, sans-serif; font-size: 12px; fill: rgb(42, 63, 95); fill-opacity: 1; white-space: pre; opacity: 1;" transform="translate(296.87,0)">100</text></g><g class="xtick"><text text-anchor="middle" x="0" y="433" style="font-family: 'Open Sans', verdana, arial, sans-serif; font-size: 12px; fill: rgb(42, 63, 95); fill-opacity: 1; white-space: pre; opacity: 1;" transform="translate(405.3,0)">150</text></g><g class="xtick"><text text-anchor="middle" x="0" y="433" style="font-family: 'Open Sans', verdana, arial, sans-serif; font-size: 12px; fill: rgb(42, 63, 95); fill-opacity: 1; white-space: pre; opacity: 1;" transform="translate(513.73,0)">200</text></g></g><g class="yaxislayer-above"><g class="ytick"><text text-anchor="end" x="79" y="4.199999999999999" transform="translate(0,420)" style="font-family: 'Open Sans', verdana, arial, sans-serif; font-size: 12px; fill: rgb(42, 63, 95); fill-opacity: 1; white-space: pre; opacity: 1;">0</text></g><g class="ytick"><text text-anchor="end" x="79" y="4.199999999999999" style="font-family: 'Open Sans', verdana, arial, sans-serif; font-size: 12px; fill: rgb(42, 63, 95); fill-opacity: 1; white-space: pre; opacity: 1;" transform="translate(0,374.51)">1000</text></g><g class="ytick"><text text-anchor="end" x="79" y="4.199999999999999" style="font-family: 'Open Sans', verdana, arial, sans-serif; font-size: 12px; fill: rgb(42, 63, 95); fill-opacity: 1; white-space: pre; opacity: 1;" transform="translate(0,329.01)">2000</text></g><g class="ytick"><text text-anchor="end" x="79" y="4.199999999999999" style="font-family: 'Open Sans', verdana, arial, sans-serif; font-size: 12px; fill: rgb(42, 63, 95); fill-opacity: 1; white-space: pre; opacity: 1;" transform="translate(0,283.52)">3000</text></g><g class="ytick"><text text-anchor="end" x="79" y="4.199999999999999" style="font-family: 'Open Sans', verdana, arial, sans-serif; font-size: 12px; fill: rgb(42, 63, 95); fill-opacity: 1; white-space: pre; opacity: 1;" transform="translate(0,238.02)">4000</text></g><g class="ytick"><text text-anchor="end" x="79" y="4.199999999999999" style="font-family: 'Open Sans', verdana, arial, sans-serif; font-size: 12px; fill: rgb(42, 63, 95); fill-opacity: 1; white-space: pre; opacity: 1;" transform="translate(0,192.53)">5000</text></g><g class="ytick"><text text-anchor="end" x="79" y="4.199999999999999" style="font-family: 'Open Sans', verdana, arial, sans-serif; font-size: 12px; fill: rgb(42, 63, 95); fill-opacity: 1; white-space: pre; opacity: 1;" transform="translate(0,147.04)">6000</text></g><g class="ytick"><text text-anchor="end" x="79" y="4.199999999999999" style="font-family: 'Open Sans', verdana, arial, sans-serif; font-size: 12px; fill: rgb(42, 63, 95); fill-opacity: 1; white-space: pre; opacity: 1;" transform="translate(0,101.54)">7000</text></g></g><g class="overaxes-above"/></g></g><g class="polarlayer"/><g class="ternarylayer"/><g class="geolayer"/><g class="funnelarealayer"/><g class="pielayer"/><g class="iciclelayer"/><g class="treemaplayer"/><g class="sunburstlayer"/><g class="glimages"/><defs id="topdefs-66b57b"><g class="clips"/></defs><g class="layer-above"><g class="imagelayer"/><g class="shapelayer"/></g><g class="infolayer"><g class="g-gtitle"><text class="gtitle" x="35" y="50" text-anchor="start" dy="0em" style="font-family: 'Open Sans', verdana, arial, sans-serif; font-size: 17px; fill: rgb(42, 63, 95); opacity: 1; font-weight: normal; white-space: pre;">Rank Variance: ascad_100-simplified_eff_cnn (with early stopping)</text></g><g class="g-xtitle"/><g class="g-ytitle"/></g></svg>