<svg class="main-svg" xmlns="http://www.w3.org/2000/svg" xmlns:xlink="http://www.w3.org/1999/xlink" width="700" height="500" style="" viewBox="0 0 700 500"><rect x="0" y="0" width="700" height="500" style="fill: rgb(255, 255, 255); fill-opacity: 1;"/><defs id="defs-493231"><g class="clips"><clipPath id="clip493231xyplot" class="plotclip"><rect width="540" height="320"/></clipPath><clipPath class="axesclip" id="clip493231x"><rect x="80" y="0" width="540" height="500"/></clipPath><clipPath class="axesclip" id="clip493231y"><rect x="0" y="100" width="700" height="320"/></clipPath><clipPath class="axesclip" id="clip493231xy"><rect x="80" y="100" width="540" height="320"/></clipPath></g><g class="gradients"/><g class="patterns"/></defs><g class="bglayer"><rect class="bg" x="80" y="100" width="540" height="320" style="fill: rgb(229, 236, 246); fill-opacity: 1; stroke-width: 0;"/></g><g class="layer-below"><g class="imagelayer"/><g class="shapelayer"/></g><g class="cartesianlayer"><g class="subplot xy"><g class="layer-subplot"><g class="shapelayer"/><g class="imagelayer"/></g><g class="gridlayer"><g class="x"><path class="xgrid crisp" transform="translate(190.2,0)" d="M0,100v320" style="stroke: rgb(255, 255, 255); stroke-opacity: 1; stroke-width: 1px;"/><path class="xgrid crisp" transform="translate(300.40999999999997,0)" d="M0,100v320" style="stroke: rgb(255, 255, 255); stroke-opacity: 1; stroke-width: 1px;"/><path class="xgrid crisp" transform="translate(410.61,0)" d="M0,100v320" style="stroke: rgb(255, 255, 255); stroke-opacity: 1; stroke-width: 1px;"/><path class="xgrid crisp" transform="translate(520.8199999999999,0)" d="M0,100v320" style="stroke: rgb(255, 255, 255); stroke-opacity: 1; stroke-width: 1px;"/></g><g class="y"><path class="ygrid crisp" transform="translate(0,374)" d="M80,0h540" style="stroke: rgb(255, 255, 255); stroke-opacity: 1; stroke-width: 1px;"/><path class="ygrid crisp" transform="translate(0,327.73)" d="M80,0h540" style="stroke: rgb(255, 255, 255); stroke-opacity: 1; stroke-width: 1px;"/><path class="ygrid crisp" transform="translate(0,281.45)" d="M80,0h540" style="stroke: rgb(255, 255, 255); stroke-opacity: 1; stroke-width: 1px;"/><path class="ygrid crisp" transform="translate(0,235.18)" d="M80,0h540" style="stroke: rgb(255, 255, 255); stroke-opacity: 1; stroke-width: 1px;"/><path class="ygrid crisp" transform="translate(0,188.91)" d="M80,0h540" style="stroke: rgb(255, 255, 255); stroke-opacity: 1; stroke-width: 1px;"/><path class="ygrid crisp" transform="translate(0,142.63)" d="M80,0h540" style="stroke: rgb(255, 255, 255); stroke-opacity: 1; stroke-width: 1px;"/></g></g><g class="zerolinelayer"><path class="xzl zl crisp" transform="translate(80,0)" d="M0,100v320" style="stroke: rgb(255, 255, 255); stroke-opacity: 1; stroke-width: 2px;"/></g><path class="xlines-below"/><path class="ylines-below"/><g class="overlines-below"/><g class="xaxislayer-below"/><g class="yaxislayer-below"/><g class="overaxes-below"/><g class="plot" transform="translate(80,100)" clip-path="url(#clip493231xyplot)"><g class="scatterlayer mlayer"><g class="trace scatter trace4001e0" style="stroke-miterlimit: 2; opacity: 1;"><g class="fills"/><g class="errorbars"/><g class="lines"><path class="js-line" d="M0,7.67L11.02,39.45L22.04,43.87L55.1,46.12L66.12,46.2L77.14,46.98L88.16,45.84L110.2,44.15L121.22,43.49L143.27,41.32L154.29,39.96L176.33,36.78L187.35,36.23L198.37,34.96L209.39,32.27L231.43,35.16L242.45,37.91L253.47,39.08L264.49,44.29L275.51,52.75L286.53,62.73L297.55,72.62L308.57,81.12L330.61,95.41L341.63,100.89L396.73,131.12L407.76,136.72L429.8,147.92L440.82,152.13L451.84,154.91L462.86,156.5L517.96,164.39L528.98,166.52L540,167.31" style="vector-effect: non-scaling-stroke; fill: none; stroke: rgb(99, 110, 250); stroke-opacity: 1; stroke-width: 2px; opacity: 1;"/></g><g class="points"/><g class="text"/></g><g class="trace scatter traceb18371" style="stroke-miterlimit: 2; opacity: 1;"><g class="fills"/><g class="errorbars"/><g class="lines"><path class="js-line" d="M0,7.43L11.02,35.39L22.04,42.01L33.06,45.35L44.08,46.62L77.14,49.67L88.16,49.01L121.22,52.4L132.24,55.34L143.27,57.1L154.29,60.04L176.33,73.89L187.35,85.86L209.39,108.76L220.41,122.51L242.45,145.03L253.47,159.61L264.49,167.94L275.51,178.29L297.55,196.92L308.57,204.33L319.59,214.82L330.61,223.95L352.65,239.01L363.67,247.51L374.69,254.24L385.71,262.34L418.78,287.17L429.8,294.05L440.82,300.26L451.84,303.29L462.86,306.71L473.88,308L484.9,309.86L495.92,312.7L540,320" style="vector-effect: non-scaling-stroke; fill: none; stroke: rgb(239, 85, 59); stroke-opacity: 1; stroke-width: 2px; opacity: 1;"/></g><g class="points"/><g class="text"/></g><g class="trace scatter trace9a14ef" style="stroke-miterlimit: 2; opacity: 1;"><g class="fills"/><g class="errorbars"/><g class="lines"><path class="js-line" d="M0,9.36L11.02,35.88L22.04,40.81L33.06,43.76L44.08,44.95L66.12,46.34L77.14,46.05L132.24,44.12L143.27,43.4L154.29,41.49L165.31,40.44L176.33,40.58L187.35,38.44L198.37,36.33L209.39,35.78L220.41,34.83L231.43,36.36L242.45,37.97L253.47,41.01L264.49,44.92L275.51,54.51L286.53,66.66L297.55,75.99L308.57,80.9L319.59,87.83L330.61,94.05L341.63,99.3L352.65,106.62L363.67,111.57L385.71,124.99L396.73,131.05L418.78,142.97L429.8,150.19L440.82,155.47L451.84,157.89L462.86,161.16L473.88,163.5L506.94,171.57L517.96,173.34L528.98,175.43L540,176.73" style="vector-effect: non-scaling-stroke; fill: none; stroke: rgb(0, 204, 150); stroke-opacity: 1; stroke-width: 2px; opacity: 1;"/></g><g class="points"/><g class="text"/></g><g class="trace scatter trace580281" style="stroke-miterlimit: 2; opacity: 1;"><g class="fills"/><g class="errorbars"/><g class="lines"><path class="js-line" d="M0,8.81L11.02,36.46L22.04,40.1L33.06,43.14L44.08,45.04L77.14,46.59L88.16,45.82L110.2,44.96L121.22,42.64L143.27,42.23L154.29,40.39L176.33,39.93L187.35,38.51L209.39,37.89L220.41,42.75L231.43,46.55L242.45,54.19L253.47,62.89L264.49,75.93L275.51,94.62L286.53,115.17L297.55,133.09L308.57,148.06L319.59,163.13L330.61,174.49L341.63,188.47L352.65,198.22L374.69,215.89L385.71,226.14L407.76,241.51L418.78,249.01L429.8,258.03L440.82,263.01L451.84,266.4L462.86,268.3L484.9,273.26L495.92,274.97L506.94,277.66L517.96,278.98L540,282.9" style="vector-effect: non-scaling-stroke; fill: none; stroke: rgb(171, 99, 250); stroke-opacity: 1; stroke-width: 2px; opacity: 1;"/></g><g class="points"/><g class="text"/></g><g class="trace scatter trace92b3c2" style="stroke-miterlimit: 2; opacity: 1;"><g class="fills"/><g class="errorbars"/><g class="lines"><path class="js-line" d="M0,5.15L11.02,31.66L22.04,37.62L33.06,42.76L44.08,45.88L55.1,48.23L66.12,49.03L77.14,49.17L88.16,50.42L110.2,50.29L121.22,51.96L132.24,54.36L143.27,59.05L154.29,64.85L165.31,68.09L176.33,71.08L187.35,71.34L198.37,73.23L209.39,72.24L220.41,73.88L231.43,77.7L242.45,80.88L253.47,85.71L275.51,93L286.53,97.59L297.55,102.01L308.57,107.61L319.59,111.08L330.61,117.48L363.67,132.91L374.69,138.85L385.71,145.02L396.73,149.38L418.78,161.36L429.8,166.85L440.82,171.67L451.84,173.35L473.88,176.95L484.9,178.61L517.96,183.73L528.98,185.1L540,186.86" style="vector-effect: non-scaling-stroke; fill: none; stroke: rgb(255, 161, 90); stroke-opacity: 1; stroke-width: 2px; opacity: 1;"/></g><g class="points"/><g class="text"/></g><g class="trace scatter trace3edb8f" style="stroke-miterlimit: 2; opacity: 1;"><g class="fills"/><g class="errorbars"/><g class="lines"><path class="js-line" d="M0,6.38L11.02,33.21L22.04,39.72L33.06,44.71L44.08,46.33L55.1,47.42L66.12,49.28L77.14,48.29L88.16,48.36L110.2,48.58L121.22,47.3L132.24,48.07L143.27,47.54L154.29,48.5L165.31,51.85L187.35,66.46L198.37,71.32L220.41,73.59L231.43,77.96L242.45,80.53L253.47,84.71L264.49,89.17L275.51,91.65L297.55,98.51L308.57,103.63L319.59,108.01L330.61,111.51L352.65,120.09L363.67,125.01L374.69,131.1L385.71,134.64L396.73,140.11L407.76,144.29L429.8,155.11L440.82,159.08L484.9,166.04L495.92,167.79L517.96,170.5L528.98,172.21L540,173.34" style="vector-effect: non-scaling-stroke; fill: none; stroke: rgb(25, 211, 243); stroke-opacity: 1; stroke-width: 2px; opacity: 1;"/></g><g class="points"/><g class="text"/></g><g class="trace scatter trace1c7fa6" style="stroke-miterlimit: 2; opacity: 1;"><g class="fills"/><g class="errorbars"/><g class="lines"><path class="js-line" d="M0,7.58L11.02,34.24L22.04,41.99L33.06,44.94L44.08,45.53L55.1,46.67L66.12,46.86L77.14,47.19L88.16,46.23L110.2,47.19L121.22,46.77L132.24,47.42L143.27,46.73L154.29,48.16L165.31,47.79L176.33,47.74L187.35,49.65L198.37,51.69L209.39,58.29L220.41,75.47L231.43,97.71L253.47,137.1L264.49,151.83L275.51,165.75L286.53,177.43L297.55,185.9L308.57,197.3L352.65,233.8L363.67,242.61L407.76,275.28L418.78,282.45L429.8,291.58L440.82,297.18L462.86,303.13L473.88,305.23L517.96,314.03L528.98,315.19L540,317.56" style="vector-effect: non-scaling-stroke; fill: none; stroke: rgb(255, 102, 146); stroke-opacity: 1; stroke-width: 2px; opacity: 1;"/></g><g class="points"/><g class="text"/></g><g class="trace scatter tracead5e94" style="stroke-miterlimit: 2; opacity: 1;"><g class="fills"/><g class="errorbars"/><g class="lines"><path class="js-line" d="M0,8.3L11.02,39.96L22.04,43.75L33.06,45.36L44.08,46.19L88.16,45.8L99.18,44.69L154.29,39.1L165.31,38.53L176.33,35.45L187.35,34.17L198.37,33.59L209.39,32.21L220.41,31.42L231.43,33.93L253.47,34.96L264.49,37.87L286.53,40.97L297.55,43.08L308.57,45.94L319.59,49.82L330.61,54.31L341.63,60.76L363.67,81.88L374.69,93.8L418.78,137.21L429.8,146.98L440.82,154.4L451.84,159.41L495.92,173.51L506.94,176.49L517.96,179.35L528.98,181.36L540,183.18" style="vector-effect: non-scaling-stroke; fill: none; stroke: rgb(182, 232, 128); stroke-opacity: 1; stroke-width: 2px; opacity: 1;"/></g><g class="points"/><g class="text"/></g><g class="trace scatter trace3528c8" style="stroke-miterlimit: 2; opacity: 1;"><g class="fills"/><g class="errorbars"/><g class="lines"><path class="js-line" d="M0,9.43L11.02,39.08L22.04,43.67L33.06,45.46L44.08,46.24L55.1,47.2L66.12,46.39L77.14,47.03L88.16,45.77L99.18,46.45L110.2,46.01L121.22,45.8L132.24,44.65L187.35,41.08L198.37,42.21L209.39,45.68L220.41,52.74L231.43,62.42L242.45,67.43L264.49,77.39L275.51,81.57L286.53,87.96L297.55,91.55L308.57,97.49L319.59,102.56L330.61,108.49L341.63,112.84L352.65,119.82L363.67,128.57L374.69,141.31L385.71,156.98L396.73,171.44L407.76,184.28L429.8,206.93L440.82,213.87L473.88,224.03L484.9,226.55L506.94,232.2L517.96,234.11L540,238.38" style="vector-effect: non-scaling-stroke; fill: none; stroke: rgb(255, 151, 255); stroke-opacity: 1; stroke-width: 2px; opacity: 1;"/></g><g class="points"/><g class="text"/></g><g class="trace scatter trace41bcdf" style="stroke-miterlimit: 2; opacity: 1;"><g class="fills"/><g class="errorbars"/><g class="lines"><path class="js-line" d="M0,4.12L11.02,35.49L22.04,42.28L33.06,45.25L44.08,47.04L55.1,48.62L66.12,48.66L99.18,48.96L110.2,47.75L121.22,47.4L132.24,48.51L154.29,45.97L165.31,45.77L176.33,47L187.35,53.73L209.39,64.24L220.41,67.53L231.43,71.74L242.45,78.03L253.47,85.08L264.49,98.62L286.53,135.16L297.55,149.43L319.59,173.64L330.61,181.28L341.63,190.23L352.65,201.63L363.67,207.97L374.69,218.69L418.78,250.59L429.8,257.23L440.82,264.6L451.84,266.26L462.86,268.36L473.88,271.4L506.94,278.58L517.96,280.01L540,284.58" style="vector-effect: non-scaling-stroke; fill: none; stroke: rgb(254, 203, 82); stroke-opacity: 1; stroke-width: 2px; opacity: 1;"/></g><g class="points"/><g class="text"/></g><g class="trace scatter trace43c7c0" style="stroke-miterlimit: 2; opacity: 1;"><g class="fills"/><g class="errorbars"/><g class="lines"><path class="js-line" d="M0,6.06L11.02,35.17L22.04,41.28L44.08,46.48L55.1,47.31L66.12,47.76L77.14,46.95L88.16,46.67L99.18,47.24L121.22,47.36L132.24,46.18L154.29,45.22L165.31,46.43L176.33,43.98L187.35,44.55L198.37,44.69L209.39,46.52L220.41,52.73L231.43,65L242.45,87.02L253.47,110.81L275.51,141.33L286.53,154.69L308.57,176.29L319.59,186.02L330.61,195.01L341.63,205.76L374.69,230.28L385.71,237.62L396.73,247.28L407.76,254.28L429.8,270.04L440.82,276.11L473.88,283.57L484.9,285.94L506.94,290.88L517.96,291.7L540,296.32" style="vector-effect: non-scaling-stroke; fill: none; stroke: rgb(99, 110, 250); stroke-opacity: 1; stroke-width: 2px; opacity: 1;"/></g><g class="points"/><g class="text"/></g><g class="trace scatter tracef85350" style="stroke-miterlimit: 2; opacity: 1;"><g class="fills"/><g class="errorbars"/><g class="lines"><path class="js-line" d="M0,7.2L11.02,40.17L22.04,43.71L55.1,45.67L66.12,45.78L88.16,44.98L99.18,44.15L110.2,43.13L121.22,42.99L143.27,40.13L154.29,39.35L165.31,38.51L176.33,36.58L187.35,36.5L198.37,33.52L209.39,34.65L220.41,36.83L231.43,47.86L242.45,57.67L253.47,64.97L264.49,71.22L275.51,77.93L286.53,82.07L297.55,85.63L308.57,91.41L319.59,97.05L330.61,101.02L363.67,116.46L374.69,122.16L385.71,126.2L396.73,132.45L407.76,137.44L418.78,143.25L429.8,148.47L440.82,152.6L462.86,156.24L473.88,157.4L484.9,159.99L495.92,161.16L528.98,165.72L540,166.59" style="vector-effect: non-scaling-stroke; fill: none; stroke: rgb(239, 85, 59); stroke-opacity: 1; stroke-width: 2px; opacity: 1;"/></g><g class="points"/><g class="text"/></g><g class="trace scatter trace64364c" style="stroke-miterlimit: 2; opacity: 1;"><g class="fills"/><g class="errorbars"/><g class="lines"><path class="js-line" d="M0,9.47L11.02,35.03L22.04,37.42L33.06,41.88L44.08,44.78L77.14,47.29L88.16,46.96L110.2,46.49L121.22,46.48L154.29,45.71L165.31,45.54L176.33,46.72L187.35,50.43L198.37,55.83L209.39,69.19L220.41,87.11L231.43,106.73L253.47,135.25L264.49,145.04L275.51,157.83L286.53,169.21L297.55,181.35L308.57,188.73L319.59,201.1L330.61,208.24L374.69,241.99L385.71,248.66L429.8,279.58L440.82,285.45L462.86,290.27L473.88,292.18L484.9,294.41L495.92,295.7L517.96,300.28L528.98,301.65L540,304.12" style="vector-effect: non-scaling-stroke; fill: none; stroke: rgb(0, 204, 150); stroke-opacity: 1; stroke-width: 2px; opacity: 1;"/></g><g class="points"/><g class="text"/></g><g class="trace scatter trace42a128" style="stroke-miterlimit: 2; opacity: 1;"><g class="fills"/><g class="errorbars"/><g class="lines"><path class="js-line" d="M0,12.98L11.02,34.81L22.04,38.58L44.08,45.8L55.1,46.22L66.12,46.54L77.14,45.96L110.2,46.14L121.22,45.34L132.24,44.1L143.27,44L154.29,42.02L165.31,42.13L176.33,40.84L187.35,40.54L198.37,44.75L209.39,52.93L220.41,61.11L231.43,64.6L242.45,70.92L253.47,74.64L275.51,81.78L286.53,87.03L297.55,89.57L308.57,93.34L319.59,99.68L330.61,104.46L341.63,108.58L352.65,114.35L396.73,137.48L407.76,143.14L418.78,149.78L429.8,155.02L440.82,158.84L451.84,161.71L462.86,163.11L473.88,165.41L484.9,166.22L495.92,168.25L540,173.84" style="vector-effect: non-scaling-stroke; fill: none; stroke: rgb(171, 99, 250); stroke-opacity: 1; stroke-width: 2px; opacity: 1;"/></g><g class="points"/><g class="text"/></g><g class="trace scatter trace888861" style="stroke-miterlimit: 2; opacity: 1;"><g class="fills"/><g class="errorbars"/><g class="lines"><path class="js-line" d="M0,9.42L11.02,37.28L22.04,42.55L44.08,46.13L55.1,45.99L77.14,46.9L88.16,46.45L110.2,45L121.22,44.78L132.24,42.98L143.27,43.3L154.29,42.84L165.31,41.44L198.37,40.77L209.39,48.57L220.41,55.46L231.43,63.41L264.49,78.57L275.51,85L297.55,97.87L308.57,106.97L319.59,124.1L330.61,145.09L341.63,161.36L352.65,172.53L363.67,183.88L374.69,192.45L385.71,202.29L396.73,210.66L429.8,234.65L440.82,241.12L495.92,254.24L506.94,255.73L517.96,258.16L528.98,259.72L540,261.9" style="vector-effect: non-scaling-stroke; fill: none; stroke: rgb(255, 161, 90); stroke-opacity: 1; stroke-width: 2px; opacity: 1;"/></g><g class="points"/><g class="text"/></g><g class="trace scatter trace11606e" style="stroke-miterlimit: 2; opacity: 1;"><g class="fills"/><g class="errorbars"/><g class="lines"><path class="js-line" d="M0,4.9L11.02,33.13L22.04,37.21L33.06,41.74L44.08,44.38L55.1,45.26L66.12,45.15L77.14,45.88L88.16,45.12L99.18,44.86L110.2,43.7L121.22,42.16L132.24,42.43L154.29,39.1L165.31,38.3L187.35,36.43L198.37,34.47L209.39,31.76L220.41,32.2L231.43,34.2L242.45,35.21L275.51,42.11L286.53,46.89L297.55,52.4L308.57,57.01L319.59,64.61L330.61,73.68L352.65,93L363.67,100.88L374.69,107.2L385.71,114.96L407.76,129.78L418.78,135.77L429.8,142.15L440.82,147.07L451.84,150.73L462.86,153.16L473.88,155.25L484.9,158.21L506.94,163.21L517.96,165.51L540,168.92" style="vector-effect: non-scaling-stroke; fill: none; stroke: rgb(25, 211, 243); stroke-opacity: 1; stroke-width: 2px; opacity: 1;"/></g><g class="points"/><g class="text"/></g><g class="trace scatter trace1e8288" style="stroke-miterlimit: 2; opacity: 1;"><g class="fills"/><g class="errorbars"/><g class="lines"><path class="js-line" d="M0,6.07L11.02,34.12L22.04,39L33.06,42.3L44.08,44.79L66.12,47.04L77.14,46.43L88.16,47.68L99.18,46.5L110.2,47.49L121.22,46.89L132.24,47.93L143.27,48.04L165.31,48.65L176.33,50.67L187.35,54.14L198.37,63.35L209.39,76.1L220.41,93.4L231.43,113.28L242.45,126.32L264.49,150.64L275.51,158.39L286.53,171.49L297.55,182.63L308.57,190.32L319.59,200L330.61,209.33L341.63,217.43L352.65,228.22L363.67,235.81L385.71,251.47L396.73,260.81L407.76,268.9L418.78,275.53L429.8,283.18L440.82,289.85L473.88,297.31L484.9,298.34L506.94,303.34L517.96,305.04L540,308.86" style="vector-effect: non-scaling-stroke; fill: none; stroke: rgb(255, 102, 146); stroke-opacity: 1; stroke-width: 2px; opacity: 1;"/></g><g class="points"/><g class="text"/></g><g class="trace scatter tracea84c89" style="stroke-miterlimit: 2; opacity: 1;"><g class="fills"/><g class="errorbars"/><g class="lines"><path class="js-line" d="M0,10L11.02,36.42L22.04,42.2L33.06,44.72L44.08,45.39L55.1,45.11L66.12,45.77L88.16,44.78L99.18,43.45L110.2,43.48L121.22,41.36L132.24,40.95L143.27,38.94L154.29,37.16L165.31,36.96L176.33,34.63L187.35,33.92L198.37,32.18L209.39,29.68L231.43,31.13L242.45,32.58L275.51,37.95L286.53,40.84L297.55,42.93L308.57,47.88L319.59,53.41L330.61,60.55L352.65,79.68L363.67,88.4L374.69,96.19L385.71,103.06L407.76,116.5L418.78,122.99L440.82,133.92L451.84,135.87L473.88,140.43L484.9,142.13L517.96,147.12L528.98,148.49L540,150.14" style="vector-effect: non-scaling-stroke; fill: none; stroke: rgb(182, 232, 128); stroke-opacity: 1; stroke-width: 2px; opacity: 1;"/></g><g class="points"/><g class="text"/></g><g class="trace scatter tracea1d6b1" style="stroke-miterlimit: 2; opacity: 1;"><g class="fills"/><g class="errorbars"/><g class="lines"><path class="js-line" d="M0,12.98L11.02,37.02L22.04,40.82L33.06,43.3L44.08,44.94L66.12,46.68L77.14,47.2L88.16,47.64L99.18,47.19L121.22,49.16L132.24,49.54L143.27,52.86L154.29,58.65L165.31,64.31L176.33,68.39L187.35,69.61L198.37,69.94L209.39,71.97L220.41,72.42L231.43,78.72L242.45,87.33L253.47,105.08L264.49,120.97L275.51,136.68L286.53,150.82L297.55,162.5L308.57,173.06L319.59,183.77L330.61,193.27L341.63,200.87L352.65,210.53L363.67,218.81L374.69,228.5L385.71,235.45L396.73,244.84L407.76,252.05L418.78,260.5L429.8,269.12L440.82,274L473.88,282.12L484.9,283.79L540,294.31" style="vector-effect: non-scaling-stroke; fill: none; stroke: rgb(255, 151, 255); stroke-opacity: 1; stroke-width: 2px; opacity: 1;"/></g><g class="points"/><g class="text"/></g><g class="trace scatter trace2e3791" style="stroke-miterlimit: 2; opacity: 1;"><g class="fills"/><g class="errorbars"/><g class="lines"><path class="js-line" d="M0,10.34L11.02,36.97L22.04,41.22L33.06,44.54L44.08,45.14L66.12,46.15L77.14,46.46L110.2,44.6L121.22,42.48L132.24,43.14L143.27,41.13L165.31,39.21L176.33,39.62L187.35,36.78L198.37,36.65L209.39,36.82L220.41,42.43L231.43,52.88L242.45,68.37L253.47,86.61L264.49,103.23L286.53,129.67L297.55,142.38L319.59,160.95L330.61,170.26L352.65,185.8L363.67,194.67L396.73,219.97L407.76,228.37L429.8,244.32L440.82,250.53L451.84,252.43L462.86,255.2L495.92,261.02L506.94,264.51L517.96,265.9L528.98,268.44L540,269.69" style="vector-effect: non-scaling-stroke; fill: none; stroke: rgb(254, 203, 82); stroke-opacity: 1; stroke-width: 2px; opacity: 1;"/></g><g class="points"/><g class="text"/></g><g class="trace scatter tracefc6ac6" style="stroke-miterlimit: 2; opacity: 1;"><g class="fills"/><g class="errorbars"/><g class="lines"><path class="js-line" d="M0,14.2L11.02,38.1L22.04,42.46L33.06,44.51L44.08,44.87L55.1,45.69L66.12,45.33L110.2,42.91L121.22,41.36L132.24,40.8L143.27,38.89L154.29,39.15L165.31,36.33L187.35,33.6L198.37,34.05L209.39,31.59L220.41,32.01L231.43,32.3L242.45,34L253.47,37.5L264.49,42.3L275.51,50.95L286.53,67.71L330.61,130.48L341.63,146.86L352.65,158.81L363.67,172.38L374.69,183.28L385.71,193.12L418.78,221.19L429.8,228.13L440.82,234.93L451.84,238.08L517.96,253.08L528.98,254.4L540,256.01" style="vector-effect: non-scaling-stroke; fill: none; stroke: rgb(99, 110, 250); stroke-opacity: 1; stroke-width: 2px; opacity: 1;"/></g><g class="points"/><g class="text"/></g><g class="trace scatter trace5eced0" style="stroke-miterlimit: 2; opacity: 1;"><g class="fills"/><g class="errorbars"/><g class="lines"><path class="js-line" d="M0,6.38L11.02,34.13L22.04,39.6L33.06,43.29L44.08,44.89L110.2,43.59L121.22,42.61L132.24,41.53L143.27,41.66L154.29,39.72L165.31,39.61L176.33,37.56L187.35,36.43L209.39,34.08L220.41,34.46L231.43,35.21L242.45,36.95L253.47,36.81L264.49,38.9L275.51,39.72L286.53,41.35L319.59,45.55L330.61,47.84L341.63,49.7L352.65,52.36L374.69,57.26L385.71,61.25L418.78,74.13L429.8,78.46L440.82,82.19L451.84,83.95L484.9,89.31L495.92,90.71L528.98,94.54L540,95.66" style="vector-effect: non-scaling-stroke; fill: none; stroke: rgb(239, 85, 59); stroke-opacity: 1; stroke-width: 2px; opacity: 1;"/></g><g class="points"/><g class="text"/></g><g class="trace scatter tracecf132e" style="stroke-miterlimit: 2; opacity: 1;"><g class="fills"/><g class="errorbars"/><g class="lines"><path class="js-line" d="M0,5.81L11.02,36.58L22.04,42.81L33.06,45.22L44.08,45.85L55.1,46.55L66.12,46.49L132.24,45.24L143.27,43.23L176.33,46.16L187.35,50.81L198.37,55.27L209.39,65.81L231.43,103.64L242.45,115.99L253.47,131.26L264.49,141.49L286.53,165.32L297.55,173.88L330.61,204.22L341.63,213.45L363.67,231.83L374.69,239.49L396.73,256.29L407.76,263.41L418.78,272.27L429.8,280.02L440.82,286.01L451.84,289.46L473.88,294.14L484.9,296.47L517.96,303.24L528.98,305.11L540,306.7" style="vector-effect: non-scaling-stroke; fill: none; stroke: rgb(0, 204, 150); stroke-opacity: 1; stroke-width: 2px; opacity: 1;"/></g><g class="points"/><g class="text"/></g><g class="trace scatter trace043c50" style="stroke-miterlimit: 2; opacity: 1;"><g class="fills"/><g class="errorbars"/><g class="lines"><path class="js-line" d="M0,8.11L11.02,36.54L22.04,40.76L33.06,44.29L44.08,45.47L77.14,46.9L88.16,46.55L99.18,45.44L110.2,45.62L121.22,44.75L132.24,45.04L143.27,44.21L154.29,45.16L165.31,49.15L176.33,55.17L198.37,63.92L209.39,63.04L220.41,65.15L231.43,70.19L242.45,74.47L253.47,76.11L264.49,82.75L275.51,86.21L297.55,96.54L308.57,101.49L319.59,106.27L330.61,110.06L341.63,116.56L352.65,121.52L363.67,125.75L374.69,131.77L385.71,136.75L396.73,142.97L407.76,148L418.78,153.89L429.8,159.19L440.82,163.29L462.86,167.28L473.88,168.64L506.94,173.43L517.96,174.96L540,177.62" style="vector-effect: non-scaling-stroke; fill: none; stroke: rgb(171, 99, 250); stroke-opacity: 1; stroke-width: 2px; opacity: 1;"/></g><g class="points"/><g class="text"/></g><g class="trace scatter traceff588a" style="stroke-miterlimit: 2; opacity: 1;"><g class="fills"/><g class="errorbars"/><g class="lines"><path class="js-line" d="M0,4.81L11.02,34.13L22.04,38.06L33.06,43.1L44.08,45.18L77.14,47.47L88.16,47.28L132.24,46.25L143.27,47.3L176.33,46.69L187.35,47.7L198.37,49.58L209.39,56.48L220.41,63.75L231.43,76.61L242.45,92.3L253.47,113.12L264.49,129.42L275.51,142.1L286.53,152.78L297.55,161.44L319.59,180.61L330.61,192.08L341.63,199.66L352.65,210.52L396.73,247.33L407.76,255.17L429.8,269.92L440.82,275.79L451.84,279.57L462.86,281.29L484.9,285.72L495.92,287.64L506.94,290.57L517.96,292.29L528.98,293.26L540,296.07" style="vector-effect: non-scaling-stroke; fill: none; stroke: rgb(255, 161, 90); stroke-opacity: 1; stroke-width: 2px; opacity: 1;"/></g><g class="points"/><g class="text"/></g><g class="trace scatter trace963317" style="stroke-miterlimit: 2; opacity: 1;"><g class="fills"/><g class="errorbars"/><g class="lines"><path class="js-line" d="M0,10.14L11.02,39.57L22.04,43.37L33.06,45.35L44.08,45.54L55.1,46.4L66.12,46.44L88.16,45.22L99.18,45.16L132.24,42.44L143.27,42.58L154.29,41.62L165.31,44.26L187.35,58.97L198.37,63.49L209.39,64.2L220.41,66.64L231.43,70.04L242.45,75.45L264.49,81.75L275.51,87.64L286.53,104.14L297.55,128.59L308.57,148.16L319.59,159.1L330.61,172.91L341.63,180.53L352.65,192.88L363.67,202.04L374.69,213.04L385.71,222.19L396.73,230.37L407.76,239.68L429.8,255.35L440.82,262.53L451.84,266.05L462.86,267.15L473.88,270.58L484.9,272.41L495.92,274.87L506.94,276.31L528.98,281.43L540,282.9" style="vector-effect: non-scaling-stroke; fill: none; stroke: rgb(25, 211, 243); stroke-opacity: 1; stroke-width: 2px; opacity: 1;"/></g><g class="points"/><g class="text"/></g><g class="trace scatter trace249127" style="stroke-miterlimit: 2; opacity: 1;"><g class="fills"/><g class="errorbars"/><g class="lines"><path class="js-line" d="M0,9.39L11.02,37.16L22.04,41.06L44.08,45.97L55.1,46.75L66.12,47.27L77.14,46.76L99.18,47.2L110.2,46.27L121.22,46.71L132.24,45.53L165.31,43.89L176.33,41.71L187.35,41.19L198.37,38.85L220.41,38.71L231.43,40.34L242.45,43.22L253.47,54.74L264.49,67.64L275.51,74.47L286.53,78.51L297.55,83.57L308.57,89.95L319.59,93.18L341.63,103.6L352.65,108.15L385.71,123.23L396.73,127.36L407.76,132.04L418.78,137.96L440.82,146.6L451.84,148.12L517.96,157.2L528.98,158.39L540,159.63" style="vector-effect: non-scaling-stroke; fill: none; stroke: rgb(255, 102, 146); stroke-opacity: 1; stroke-width: 2px; opacity: 1;"/></g><g class="points"/><g class="text"/></g><g class="trace scatter trace81b724" style="stroke-miterlimit: 2; opacity: 1;"><g class="fills"/><g class="errorbars"/><g class="lines"><path class="js-line" d="M0,9.72L11.02,36.56L22.04,41.36L33.06,43.93L44.08,45.31L55.1,46.37L66.12,45.11L88.16,46.56L99.18,45.92L121.22,45.73L132.24,44.55L165.31,42.88L176.33,40.88L187.35,43.05L198.37,47.74L209.39,55.48L220.41,61.31L231.43,67.87L242.45,72.7L253.47,75.88L264.49,80.97L297.55,93.76L308.57,100.16L319.59,103.75L330.61,109.04L341.63,113.68L352.65,119.52L363.67,124.56L374.69,130.63L396.73,142.76L407.76,148.38L429.8,161.17L440.82,165.71L473.88,172.49L484.9,173.63L506.94,177.87L517.96,179.56L540,182.51" style="vector-effect: non-scaling-stroke; fill: none; stroke: rgb(182, 232, 128); stroke-opacity: 1; stroke-width: 2px; opacity: 1;"/></g><g class="points"/><g class="text"/></g><g class="trace scatter trace371ace" style="stroke-miterlimit: 2; opacity: 1;"><g class="fills"/><g class="errorbars"/><g class="lines"><path class="js-line" d="M0,8.04L11.02,38.87L22.04,42.96L44.08,45.3L55.1,45.44L88.16,46.03L99.18,45.49L143.27,44.24L154.29,43.16L176.33,40.59L187.35,40.61L198.37,39.71L209.39,46.52L231.43,67.18L242.45,70.79L264.49,81.23L275.51,84.62L319.59,101.74L330.61,107.34L363.67,122.95L374.69,130.47L385.71,137.56L396.73,147.12L429.8,177L440.82,184.86L473.88,197.94L484.9,201.25L506.94,208.29L517.96,211.07L540,215.04" style="vector-effect: non-scaling-stroke; fill: none; stroke: rgb(255, 151, 255); stroke-opacity: 1; stroke-width: 2px; opacity: 1;"/></g><g class="points"/><g class="text"/></g><g class="trace scatter trace85f883" style="stroke-miterlimit: 2; opacity: 1;"><g class="fills"/><g class="errorbars"/><g class="lines"><path class="js-line" d="M0,8.79L11.02,38.01L22.04,43.12L33.06,45.15L44.08,46.38L55.1,47.07L66.12,46.98L77.14,46.82L88.16,48.34L99.18,46.69L110.2,45.88L143.27,45.27L154.29,45.86L165.31,47.99L176.33,55.84L187.35,63.38L198.37,64.66L209.39,65.84L220.41,68.2L231.43,72.72L242.45,74.89L253.47,80.53L264.49,83.44L286.53,92.39L297.55,96.77L308.57,102.85L319.59,105.79L330.61,112.08L341.63,117.19L363.67,126.87L374.69,132.86L385.71,138.2L396.73,144.46L429.8,161.92L440.82,166.13L484.9,173.43L495.92,174.93L528.98,179.67L540,180.98" style="vector-effect: non-scaling-stroke; fill: none; stroke: rgb(254, 203, 82); stroke-opacity: 1; stroke-width: 2px; opacity: 1;"/></g><g class="points"/><g class="text"/></g><g class="trace scatter trace6b4d9d" style="stroke-miterlimit: 2; opacity: 1;"><g class="fills"/><g class="errorbars"/><g class="lines"><path class="js-line" d="M0,6.1L11.02,35.13L22.04,41L33.06,43.45L44.08,44.78L66.12,45.89L77.14,46.21L110.2,44.71L121.22,44.18L132.24,42.61L143.27,42.78L165.31,40.57L176.33,39.83L198.37,37.24L209.39,37.47L231.43,38.41L242.45,40.17L253.47,42.34L264.49,45.84L330.61,54.32L341.63,56.09L374.69,60.8L385.71,62.95L418.78,69.29L429.8,71.68L440.82,73.51L451.84,74.49L528.98,80.26L540,80.91" style="vector-effect: non-scaling-stroke; fill: none; stroke: rgb(99, 110, 250); stroke-opacity: 1; stroke-width: 2px; opacity: 1;"/></g><g class="points"/><g class="text"/></g><g class="trace scatter trace9b8dbf" style="stroke-miterlimit: 2; opacity: 1;"><g class="fills"/><g class="errorbars"/><g class="lines"><path class="js-line" d="M0,12.39L11.02,38.15L22.04,41.98L33.06,44.14L44.08,45L55.1,45.67L66.12,44.91L88.16,45.03L99.18,43.3L110.2,43.55L121.22,41.9L143.27,40.22L154.29,38.2L198.37,31.55L209.39,32.16L220.41,31.04L231.43,34.18L242.45,34.51L253.47,38.13L264.49,47.41L275.51,57.95L286.53,67.96L297.55,73.77L308.57,81.81L319.59,84.76L330.61,91.19L341.63,95.35L363.67,105.34L374.69,111.95L385.71,116L396.73,120.95L429.8,136.96L440.82,141L473.88,146.19L484.9,147.64L506.94,150.61L517.96,152.45L528.98,153.26L540,154.9" style="vector-effect: non-scaling-stroke; fill: none; stroke: rgb(239, 85, 59); stroke-opacity: 1; stroke-width: 2px; opacity: 1;"/></g><g class="points"/><g class="text"/></g><g class="trace scatter trace614edd" style="stroke-miterlimit: 2; opacity: 1;"><g class="fills"/><g class="errorbars"/><g class="lines"><path class="js-line" d="M0,9.86L11.02,39.07L22.04,41.53L33.06,44.24L44.08,46.07L77.14,47.43L88.16,45.59L99.18,46.69L110.2,45.53L121.22,45.81L132.24,44.47L143.27,44.59L154.29,42.67L198.37,38.84L209.39,41.61L220.41,50.27L231.43,63.07L242.45,67.36L253.47,73.24L275.51,81.72L286.53,85.06L308.57,94.01L319.59,97.17L330.61,103.48L341.63,107.56L363.67,116.76L374.69,122.51L418.78,143.35L429.8,147.92L440.82,152.23L451.84,153.85L506.94,161.7L517.96,163.25L540,166.03" style="vector-effect: non-scaling-stroke; fill: none; stroke: rgb(0, 204, 150); stroke-opacity: 1; stroke-width: 2px; opacity: 1;"/></g><g class="points"/><g class="text"/></g><g class="trace scatter trace5a6167" style="stroke-miterlimit: 2; opacity: 1;"><g class="fills"/><g class="errorbars"/><g class="lines"><path class="js-line" d="M0,8.18L11.02,34L22.04,37.95L33.06,41.8L44.08,43.75L55.1,45.35L66.12,45.69L88.16,45.53L99.18,45.11L143.27,40.55L154.29,38.87L176.33,35.67L187.35,35.75L198.37,31.92L209.39,31.8L242.45,33.83L253.47,35.45L264.49,38.49L275.51,40.48L286.53,44.36L297.55,50.87L319.59,72.77L330.61,83.68L363.67,103.76L374.69,112.19L385.71,118.88L396.73,130.09L429.8,163.25L440.82,170.02L451.84,174.59L462.86,178.16L506.94,190.94L517.96,193.43L540,197.21" style="vector-effect: non-scaling-stroke; fill: none; stroke: rgb(171, 99, 250); stroke-opacity: 1; stroke-width: 2px; opacity: 1;"/></g><g class="points"/><g class="text"/></g><g class="trace scatter trace7184f0" style="stroke-miterlimit: 2; opacity: 1;"><g class="fills"/><g class="errorbars"/><g class="lines"><path class="js-line" d="M0,5.52L11.02,33.89L22.04,39.94L44.08,46.46L55.1,46.81L66.12,47.43L77.14,46.85L88.16,47.56L99.18,46.9L121.22,47.82L132.24,48.19L143.27,48.48L154.29,52.41L165.31,60.42L176.33,67.01L187.35,70.78L198.37,73.72L209.39,81.3L220.41,101.33L231.43,117.31L242.45,129.25L253.47,138.89L264.49,150.87L275.51,161.2L286.53,170.12L297.55,180.51L308.57,189.2L319.59,196.8L330.61,206.18L374.69,238.65L385.71,246.07L429.8,276.65L440.82,282L451.84,284.14L462.86,288.01L473.88,289.2L484.9,292.04L495.92,293.48L506.94,296.12L528.98,299.45L540,301.68" style="vector-effect: non-scaling-stroke; fill: none; stroke: rgb(255, 161, 90); stroke-opacity: 1; stroke-width: 2px; opacity: 1;"/></g><g class="points"/><g class="text"/></g><g class="trace scatter trace12e10d" style="stroke-miterlimit: 2; opacity: 1;"><g class="fills"/><g class="errorbars"/><g class="lines"><path class="js-line" d="M0,8.93L11.02,38.88L22.04,43.18L33.06,44.46L44.08,44.85L66.12,45.97L77.14,45.26L110.2,44.75L121.22,43.44L154.29,41.53L165.31,39.84L176.33,37.7L187.35,37.2L198.37,34.89L209.39,34.27L220.41,33.99L231.43,35.57L242.45,36.89L253.47,39.43L275.51,45.7L286.53,50.06L297.55,57.4L308.57,69.41L330.61,103.09L341.63,117.24L396.73,176.79L407.76,185.69L418.78,196.26L429.8,205.46L440.82,212.59L451.84,216.28L495.92,229.54L506.94,231.91L517.96,234.7L528.98,236.6L540,238.47" style="vector-effect: non-scaling-stroke; fill: none; stroke: rgb(25, 211, 243); stroke-opacity: 1; stroke-width: 2px; opacity: 1;"/></g><g class="points"/><g class="text"/></g><g class="trace scatter trace00825f" style="stroke-miterlimit: 2; opacity: 1;"><g class="fills"/><g class="errorbars"/><g class="lines"><path class="js-line" d="M0,8.75L11.02,35.58L22.04,39.77L33.06,43.68L44.08,45.31L55.1,45.97L66.12,47.45L121.22,51.24L132.24,55.88L143.27,62.43L154.29,67.74L176.33,71.91L187.35,72.56L198.37,72.65L209.39,71.87L220.41,73.65L231.43,78.19L242.45,80.49L253.47,84.55L286.53,95.58L297.55,100.16L308.57,105.64L319.59,108.41L330.61,115.71L341.63,121.15L352.65,126.68L363.67,130.48L407.76,152.57L418.78,159.29L429.8,164.73L440.82,168.92L462.86,172.49L473.88,174.4L517.96,180.83L528.98,182.01L540,183.88" style="vector-effect: non-scaling-stroke; fill: none; stroke: rgb(255, 102, 146); stroke-opacity: 1; stroke-width: 2px; opacity: 1;"/></g><g class="points"/><g class="text"/></g><g class="trace scatter trace5cea9d" style="stroke-miterlimit: 2; opacity: 1;"><g class="fills"/><g class="errorbars"/><g class="lines"><path class="js-line" d="M0,0L11.02,33.51L22.04,39.08L33.06,42.36L44.08,43.44L55.1,44.93L66.12,44.88L77.14,44.58L88.16,45.41L110.2,44.37L121.22,43.92L165.31,39.89L176.33,38.3L198.37,35.47L209.39,36.3L220.41,36.35L231.43,37.47L242.45,40.18L253.47,45.42L264.49,58.23L275.51,66.89L297.55,79.53L308.57,86.4L319.59,89.4L330.61,95.14L352.65,105.21L363.67,110.94L374.69,117.35L385.71,122.51L407.76,133.23L418.78,139.16L429.8,145.09L440.82,149.41L473.88,155.33L484.9,156.86L506.94,160.61L517.96,162.04L540,164.6" style="vector-effect: non-scaling-stroke; fill: none; stroke: rgb(182, 232, 128); stroke-opacity: 1; stroke-width: 2px; opacity: 1;"/></g><g class="points"/><g class="text"/></g><g class="trace scatter tracec967e3" style="stroke-miterlimit: 2; opacity: 1;"><g class="fills"/><g class="errorbars"/><g class="lines"><path class="js-line" d="M0,8.93L11.02,34.14L22.04,39.44L33.06,43.01L44.08,44.26L55.1,45.1L66.12,45.1L77.14,45.23L88.16,46.53L99.18,46.13L110.2,44.64L121.22,46.14L132.24,44.91L154.29,47.66L165.31,54.64L176.33,62.55L187.35,66.66L198.37,68.38L209.39,68.34L231.43,73.34L242.45,77.01L253.47,80.21L264.49,85.7L275.51,89.56L286.53,95.89L297.55,106.18L308.57,124.7L319.59,143.22L330.61,157.98L374.69,204.12L385.71,215.18L407.76,235.6L418.78,245.01L429.8,253.28L440.82,259.25L451.84,263.09L462.86,264.95L473.88,268.26L484.9,270.1L506.94,276.2L517.96,278.37L528.98,279.82L540,282.41" style="vector-effect: non-scaling-stroke; fill: none; stroke: rgb(255, 151, 255); stroke-opacity: 1; stroke-width: 2px; opacity: 1;"/></g><g class="points"/><g class="text"/></g><g class="trace scatter tracea48720" style="stroke-miterlimit: 2; opacity: 1;"><g class="fills"/><g class="errorbars"/><g class="lines"><path class="js-line" d="M0,8.42L11.02,35.84L22.04,41.41L33.06,44.21L44.08,45.43L66.12,47.28L77.14,46.12L88.16,46.77L99.18,45.39L132.24,45.1L143.27,47.14L165.31,54.3L176.33,57.8L187.35,60.9L198.37,63.11L209.39,63.98L220.41,67.57L231.43,75.85L242.45,88.07L253.47,106.71L264.49,122.61L275.51,134.27L286.53,144.16L308.57,167.26L319.59,177.42L352.65,207.45L363.67,216.53L374.69,224.67L385.71,233.8L396.73,242.35L407.76,249.6L418.78,258L429.8,264.81L440.82,269.74L451.84,272.97L462.86,274.61L473.88,278.04L495.92,281.58L506.94,284.03L540,290.27" style="vector-effect: non-scaling-stroke; fill: none; stroke: rgb(254, 203, 82); stroke-opacity: 1; stroke-width: 2px; opacity: 1;"/></g><g class="points"/><g class="text"/></g><g class="trace scatter trace405efd" style="stroke-miterlimit: 2; opacity: 1;"><g class="fills"/><g class="errorbars"/><g class="lines"><path class="js-line" d="M0,3.85L11.02,34.48L22.04,41.82L33.06,44.81L44.08,46.22L77.14,45.96L88.16,47.82L110.2,45.96L121.22,45.97L132.24,47.57L143.27,51.12L154.29,60.81L165.31,65.46L187.35,70.82L198.37,69.77L220.41,72.9L231.43,76.9L253.47,82.9L264.49,86.72L275.51,90.98L286.53,93.97L308.57,103.34L319.59,107.05L330.61,114.16L341.63,118.75L363.67,127.27L374.69,133.39L385.71,139.03L396.73,143.73L429.8,161.06L440.82,165.22L451.84,167.39L462.86,168.7L517.96,176.72L528.98,177.67L540,179.29" style="vector-effect: non-scaling-stroke; fill: none; stroke: rgb(99, 110, 250); stroke-opacity: 1; stroke-width: 2px; opacity: 1;"/></g><g class="points"/><g class="text"/></g><g class="trace scatter trace3b8a24" style="stroke-miterlimit: 2; opacity: 1;"><g class="fills"/><g class="errorbars"/><g class="lines"><path class="js-line" d="M0,6.68L11.02,35.23L22.04,41.77L33.06,45.41L44.08,45.92L55.1,46.67L66.12,46.11L99.18,46.69L110.2,45.59L132.24,45.59L143.27,44.65L187.35,41.26L198.37,38.86L209.39,39.95L220.41,38.75L231.43,40.84L242.45,41.41L253.47,44.15L264.49,45.65L297.55,50L308.57,52.4L330.61,56.96L341.63,59.73L363.67,64.43L374.69,68.37L396.73,76.39L407.76,81.61L418.78,86.97L429.8,93.18L440.82,97.96L451.84,101.05L484.9,109.28L495.92,111.45L528.98,116.61L540,118.01" style="vector-effect: non-scaling-stroke; fill: none; stroke: rgb(239, 85, 59); stroke-opacity: 1; stroke-width: 2px; opacity: 1;"/></g><g class="points"/><g class="text"/></g><g class="trace scatter traced004d2" style="stroke-miterlimit: 2; opacity: 1;"><g class="fills"/><g class="errorbars"/><g class="lines"><path class="js-line" d="M0,9.53L11.02,37.93L22.04,43.18L33.06,45.39L44.08,46.25L88.16,48.73L99.18,49.14L132.24,48.61L143.27,51.72L154.29,56.74L165.31,63.2L187.35,70.54L198.37,70.75L209.39,69.77L220.41,72.79L231.43,77.07L242.45,79.01L253.47,83.32L264.49,86.78L286.53,95.41L297.55,98.82L308.57,105.12L319.59,107.75L330.61,113.86L341.63,118.33L374.69,133.83L385.71,139.4L418.78,155.75L429.8,161.36L440.82,165.68L451.84,167.86L462.86,168.73L473.88,170.85L528.98,178.33L540,179.87" style="vector-effect: non-scaling-stroke; fill: none; stroke: rgb(0, 204, 150); stroke-opacity: 1; stroke-width: 2px; opacity: 1;"/></g><g class="points"/><g class="text"/></g><g class="trace scatter trace2f1034" style="stroke-miterlimit: 2; opacity: 1;"><g class="fills"/><g class="errorbars"/><g class="lines"><path class="js-line" d="M0,9.3L11.02,39.77L22.04,43.66L44.08,46.27L55.1,46.51L66.12,46.81L77.14,45.88L88.16,45.09L99.18,45.74L110.2,44.59L121.22,44.6L132.24,43.21L143.27,42.91L198.37,36.31L209.39,37.08L220.41,37.61L231.43,44.69L242.45,57.44L253.47,66.51L264.49,74.89L275.51,80.39L297.55,90.02L308.57,98.94L319.59,112.62L330.61,129.73L341.63,141.55L352.65,155.26L374.69,178.72L385.71,188.62L418.78,215.54L429.8,223.36L440.82,229.58L451.84,232.57L462.86,236.36L473.88,238.48L484.9,240.78L495.92,243.85L506.94,246.44L517.96,248.04L540,252.09" style="vector-effect: non-scaling-stroke; fill: none; stroke: rgb(171, 99, 250); stroke-opacity: 1; stroke-width: 2px; opacity: 1;"/></g><g class="points"/><g class="text"/></g><g class="trace scatter trace02219d" style="stroke-miterlimit: 2; opacity: 1;"><g class="fills"/><g class="errorbars"/><g class="lines"><path class="js-line" d="M0,11.05L11.02,38.79L22.04,42.78L33.06,44.66L44.08,44.52L77.14,44.57L88.16,43.48L99.18,42.96L110.2,41.54L154.29,36.63L165.31,35.71L176.33,32.5L187.35,32.58L209.39,29.98L220.41,30.01L231.43,31.24L242.45,31.7L253.47,32.51L264.49,34.61L286.53,36.65L297.55,38.81L308.57,40.4L319.59,41.13L330.61,43.15L341.63,44.33L352.65,46.52L363.67,47.89L407.76,58.25L418.78,61.25L429.8,64.91L440.82,67.44L517.96,76.86L528.98,77.95L540,78.78" style="vector-effect: non-scaling-stroke; fill: none; stroke: rgb(255, 161, 90); stroke-opacity: 1; stroke-width: 2px; opacity: 1;"/></g><g class="points"/><g class="text"/></g><g class="trace scatter trace28edb4" style="stroke-miterlimit: 2; opacity: 1;"><g class="fills"/><g class="errorbars"/><g class="lines"><path class="js-line" d="M0,6.09L11.02,34.12L22.04,39.47L33.06,42.96L44.08,45.3L66.12,47.78L77.14,47.18L88.16,47.65L99.18,47.31L121.22,45.28L132.24,45.63L143.27,45.17L154.29,47.83L176.33,61.89L187.35,65.38L209.39,67.05L220.41,69.64L231.43,72.33L242.45,76.99L253.47,81.99L264.49,84.69L286.53,95.25L297.55,98.54L319.59,110.28L330.61,117.18L341.63,122.52L352.65,132.08L363.67,145.4L374.69,159.96L385.71,174.12L396.73,185.53L418.78,205.6L429.8,213.89L440.82,220.92L451.84,224.12L495.92,234.83L506.94,236.79L517.96,239.42L528.98,240.79L540,242.42" style="vector-effect: non-scaling-stroke; fill: none; stroke: rgb(25, 211, 243); stroke-opacity: 1; stroke-width: 2px; opacity: 1;"/></g><g class="points"/><g class="text"/></g><g class="trace scatter trace5c376f" style="stroke-miterlimit: 2; opacity: 1;"><g class="fills"/><g class="errorbars"/><g class="lines"><path class="js-line" d="M0,6.43L11.02,34.26L22.04,41.39L33.06,45.45L44.08,46.73L66.12,48.44L77.14,48.17L88.16,48.71L99.18,46.7L110.2,46.26L121.22,47.1L132.24,46.13L143.27,46.43L154.29,44.51L165.31,46.59L176.33,49.52L187.35,55.25L209.39,65.64L220.41,68.51L231.43,71.54L242.45,76.45L253.47,81.46L264.49,84.99L286.53,93.52L297.55,100.94L308.57,103.48L319.59,109.01L330.61,116.87L341.63,129.46L352.65,146.96L363.67,161.75L374.69,175.71L385.71,185.74L396.73,196.5L407.76,204.96L418.78,213.12L429.8,220.22L440.82,226.76L451.84,229.04L473.88,234.27L484.9,236.5L495.92,239.41L506.94,241.4L528.98,245.16L540,246.87" style="vector-effect: non-scaling-stroke; fill: none; stroke: rgb(255, 102, 146); stroke-opacity: 1; stroke-width: 2px; opacity: 1;"/></g><g class="points"/><g class="text"/></g><g class="trace scatter traceb6d01b" style="stroke-miterlimit: 2; opacity: 1;"><g class="fills"/><g class="errorbars"/><g class="lines"><path class="js-line" d="M0,6.64L11.02,36.6L22.04,41.02L33.06,44.52L44.08,45.73L66.12,47.19L77.14,46.9L99.18,47.42L110.2,46.93L121.22,47.78L132.24,47.51L143.27,47.79L154.29,47.29L165.31,51.53L176.33,58.77L198.37,88.55L209.39,101.22L220.41,113.95L231.43,129.1L242.45,142.01L253.47,151.09L275.51,174.74L286.53,185.56L308.57,201.82L319.59,210.48L330.61,219.9L341.63,228.13L352.65,237.96L363.67,245.14L396.73,269.08L407.76,276.43L429.8,294.07L440.82,298.98L506.94,313.68L517.96,314.05L528.98,317.12L540,318.32" style="vector-effect: non-scaling-stroke; fill: none; stroke: rgb(182, 232, 128); stroke-opacity: 1; stroke-width: 2px; opacity: 1;"/></g><g class="points"/><g class="text"/></g><g class="trace scatter trace6dc8d4" style="stroke-miterlimit: 2; opacity: 1;"><g class="fills"/><g class="errorbars"/><g class="lines"><path class="js-line" d="M0,10.66L11.02,38.95L22.04,43.55L33.06,45.35L44.08,45.72L77.14,46.46L88.16,45.73L99.18,45.77L110.2,45.02L121.22,45.33L132.24,46.56L143.27,49.46L154.29,53.39L165.31,57.58L176.33,62.94L187.35,62.22L198.37,62.74L220.41,66.43L231.43,68.15L242.45,73.79L253.47,78.28L308.57,98.49L319.59,104.2L330.61,110.1L341.63,114.53L374.69,137.38L385.71,146.98L396.73,156.45L407.76,167.12L418.78,178.27L429.8,187.96L440.82,195.62L451.84,200.46L495.92,213.54L506.94,216.01L540,222.09" style="vector-effect: non-scaling-stroke; fill: none; stroke: rgb(255, 151, 255); stroke-opacity: 1; stroke-width: 2px; opacity: 1;"/></g><g class="points"/><g class="text"/></g><g class="trace scatter tracef4b85d" style="stroke-miterlimit: 2; opacity: 1;"><g class="fills"/><g class="errorbars"/><g class="lines"><path class="js-line" d="M0,7.55L11.02,33.3L22.04,38.03L33.06,42.9L44.08,44.4L55.1,45.41L66.12,45.27L77.14,45.57L88.16,44.03L99.18,44.38L110.2,43.47L121.22,44.13L132.24,42.89L154.29,41.16L165.31,41.77L176.33,39.71L187.35,39.06L198.37,37.54L209.39,37.53L220.41,36.31L231.43,42.69L253.47,62.43L264.49,70.62L275.51,76.19L286.53,83.17L297.55,86.39L308.57,93.49L319.59,97.96L330.61,103.38L352.65,111.54L363.67,118.54L396.73,133.95L407.76,139.95L429.8,150.68L440.82,154.99L495.92,163.73L506.94,164.86L528.98,168.05L540,169.05" style="vector-effect: non-scaling-stroke; fill: none; stroke: rgb(254, 203, 82); stroke-opacity: 1; stroke-width: 2px; opacity: 1;"/></g><g class="points"/><g class="text"/></g></g></g><g class="overplot"/><path class="xlines-above crisp" d="M0,0" style="fill: none;"/><path class="ylines-above crisp" d="M0,0" style="fill: none;"/><g class="overlines-above"/><g class="xaxislayer-above"><g class="xtick"><text text-anchor="middle" x="0" y="433" transform="translate(80,0)" style="font-family: 'Open Sans', verdana, arial, sans-serif; font-size: 12px; fill: rgb(42, 63, 95); fill-opacity: 1; white-space: pre; opacity: 1;">0</text></g><g class="xtick"><text text-anchor="middle" x="0" y="433" style="font-family: 'Open Sans', verdana, arial, sans-serif; font-size: 12px; fill: rgb(42, 63, 95); fill-opacity: 1; white-space: pre; opacity: 1;" transform="translate(190.2,0)">10</text></g><g class="xtick"><text text-anchor="middle" x="0" y="433" style="font-family: 'Open Sans', verdana, arial, sans-serif; font-size: 12px; fill: rgb(42, 63, 95); fill-opacity: 1; white-space: pre; opacity: 1;" transform="translate(300.40999999999997,0)">20</text></g><g class="xtick"><text text-anchor="middle" x="0" y="433" style="font-family: 'Open Sans', verdana, arial, sans-serif; font-size: 12px; fill: rgb(42, 63, 95); fill-opacity: 1; white-space: pre; opacity: 1;" transform="translate(410.61,0)">30</text></g><g class="xtick"><text text-anchor="middle" x="0" y="433" style="font-family: 'Open Sans', verdana, arial, sans-serif; font-size: 12px; fill: rgb(42, 63, 95); fill-opacity: 1; white-space: pre; opacity: 1;" transform="translate(520.8199999999999,0)">40</text></g></g><g class="yaxislayer-above"><g class="ytick"><text text-anchor="end" x="79" y="4.199999999999999" transform="translate(0,374)" style="font-family: 'Open Sans', verdana, arial, sans-serif; font-size: 12px; fill: rgb(42, 63, 95); fill-opacity: 1; white-space: pre; opacity: 1;">5.3</text></g><g class="ytick"><text text-anchor="end" x="79" y="4.199999999999999" style="font-family: 'Open Sans', verdana, arial, sans-serif; font-size: 12px; fill: rgb(42, 63, 95); fill-opacity: 1; white-space: pre; opacity: 1;" transform="translate(0,327.73)">5.35</text></g><g class="ytick"><text text-anchor="end" x="79" y="4.199999999999999" style="font-family: 'Open Sans', verdana, arial, sans-serif; font-size: 12px; fill: rgb(42, 63, 95); fill-opacity: 1; white-space: pre; opacity: 1;" transform="translate(0,281.45)">5.4</text></g><g class="ytick"><text text-anchor="end" x="79" y="4.199999999999999" style="font-family: 'Open Sans', verdana, arial, sans-serif; font-size: 12px; fill: rgb(42, 63, 95); fill-opacity: 1; white-space: pre; opacity: 1;" transform="translate(0,235.18)">5.45</text></g><g class="ytick"><text text-anchor="end" x="79" y="4.199999999999999" style="font-family: 'Open Sans', verdana, arial, sans-serif; font-size: 12px; fill: rgb(42, 63, 95); fill-opacity: 1; white-space: pre; opacity: 1;" transform="translate(0,188.91)">5.5</text></g><g class="ytick"><text text-anchor="end" x="79" y="4.199999999999999" style="font-family: 'Open Sans', verdana, arial, sans-serif; font-size: 12px; fill: rgb(42, 63, 95); fill-opacity: 1; white-space: pre; opacity: 1;" transform="translate(0,142.63)">5.55</text></g></g><g class="overaxes-above"/></g></g><g class="polarlayer"/><g class="ternarylayer"/><g class="geolayer"/><g class="funnelarealayer"/><g class="pielayer"/><g class="iciclelayer"/><g class="treemaplayer"/><g class="sunburstlayer"/><g class="glimages"/><defs id="topdefs-493231"><g class="clips"/></defs><g class="layer-above"><g class="imagelayer"/><g class="shapelayer"/></g><g class="infolayer"><g class="g-gtitle"><text class="gtitle" x="35" y="50" text-anchor="start" dy="0em" style="font-family: 'Open Sans', verdana, arial, sans-serif; font-size: 17px; fill: rgb(42, 63, 95); opacity: 1; font-weight: normal; white-space: pre;">Train Loss: ascad_100-s_eff_cnn_id (original)</text></g><g class="g-xtitle"/><g class="g-ytitle"/></g></svg>