<svg class="main-svg" xmlns="http://www.w3.org/2000/svg" xmlns:xlink="http://www.w3.org/1999/xlink" width="700" height="500" style="" viewBox="0 0 700 500"><rect x="0" y="0" width="700" height="500" style="fill: rgb(255, 255, 255); fill-opacity: 1;"/><defs id="defs-5b936f"><g class="clips"><clipPath id="clip5b936fxyplot" class="plotclip"><rect width="540" height="320"/></clipPath><clipPath class="axesclip" id="clip5b936fx"><rect x="80" y="0" width="540" height="500"/></clipPath><clipPath class="axesclip" id="clip5b936fy"><rect x="0" y="100" width="700" height="320"/></clipPath><clipPath class="axesclip" id="clip5b936fxy"><rect x="80" y="100" width="540" height="320"/></clipPath></g><g class="gradients"/><g class="patterns"/></defs><g class="bglayer"><rect class="bg" x="80" y="100" width="540" height="320" style="fill: rgb(237, 237, 237); fill-opacity: 1; stroke-width: 0;"/></g><g class="layer-below"><g class="imagelayer"/><g class="shapelayer"/></g><g class="cartesianlayer"><g class="subplot xy"><g class="layer-subplot"><g class="shapelayer"/><g class="imagelayer"/></g><g class="gridlayer"><g class="x"><path class="xgrid crisp" transform="translate(189.09,0)" d="M0,100v320" style="stroke: rgb(255, 255, 255); stroke-opacity: 1; stroke-width: 1px;"/><path class="xgrid crisp" transform="translate(298.18,0)" d="M0,100v320" style="stroke: rgb(255, 255, 255); stroke-opacity: 1; stroke-width: 1px;"/><path class="xgrid crisp" transform="translate(407.27,0)" d="M0,100v320" style="stroke: rgb(255, 255, 255); stroke-opacity: 1; stroke-width: 1px;"/><path class="xgrid crisp" transform="translate(516.36,0)" d="M0,100v320" style="stroke: rgb(255, 255, 255); stroke-opacity: 1; stroke-width: 1px;"/></g><g class="y"><path class="ygrid crisp" transform="translate(0,405.74)" d="M80,0h540" style="stroke: rgb(255, 255, 255); stroke-opacity: 1; stroke-width: 1px;"/><path class="ygrid crisp" transform="translate(0,358.22)" d="M80,0h540" style="stroke: rgb(255, 255, 255); stroke-opacity: 1; stroke-width: 1px;"/><path class="ygrid crisp" transform="translate(0,310.69)" d="M80,0h540" style="stroke: rgb(255, 255, 255); stroke-opacity: 1; stroke-width: 1px;"/><path class="ygrid crisp" transform="translate(0,263.16999999999996)" d="M80,0h540" style="stroke: rgb(255, 255, 255); stroke-opacity: 1; stroke-width: 1px;"/><path class="ygrid crisp" transform="translate(0,215.64)" d="M80,0h540" style="stroke: rgb(255, 255, 255); stroke-opacity: 1; stroke-width: 1px;"/><path class="ygrid crisp" transform="translate(0,168.12)" d="M80,0h540" style="stroke: rgb(255, 255, 255); stroke-opacity: 1; stroke-width: 1px;"/><path class="ygrid crisp" transform="translate(0,120.59)" d="M80,0h540" style="stroke: rgb(255, 255, 255); stroke-opacity: 1; stroke-width: 1px;"/></g></g><g class="zerolinelayer"><path class="xzl zl crisp" transform="translate(80,0)" d="M0,100v320" style="stroke: rgb(255, 255, 255); stroke-opacity: 1; stroke-width: 1px;"/></g><path class="xlines-below"/><path class="ylines-below"/><g class="overlines-below"/><g class="xaxislayer-below"/><g class="yaxislayer-below"/><g class="overaxes-below"/><g class="plot" transform="translate(80,100)" clip-path="url(#clip5b936fxyplot)"><g class="scatterlayer mlayer"><g class="trace scatter trace74d040" style="stroke-miterlimit: 2; opacity: 1;"><g class="fills"/><g class="errorbars"/><g class="lines"><path class="js-line" d="M0,311.55L5.45,286.73L10.91,284.09L16.36,276.17L21.82,260.33L32.73,246.07L38.18,229.7L43.64,232.87L49.09,224.42L54.55,204.36L60,207.52L65.45,202.24L70.91,191.16L76.36,196.96L81.82,187.99L87.27,201.72L92.73,188.51L98.18,184.82L103.64,202.77L109.09,186.4L114.55,179.01L120,187.99L125.45,172.15L130.91,196.96L136.36,202.24L141.82,165.81L147.27,183.76L152.73,174.26L158.18,176.37L163.64,207.52L169.09,154.19L174.55,176.9L180,207.52L185.45,167.39L190.91,178.48L196.36,174.26L201.82,166.34L207.27,177.95L212.73,180.59L218.18,187.99L223.64,181.65L234.55,174.79L240,171.62L245.45,165.28L250.91,162.64L256.36,164.75L261.82,176.37L267.27,171.62L272.73,153.14L278.18,169.5L283.64,166.86L294.55,134.13L300,138.35L305.45,141.52L310.91,139.41L316.36,147.85L321.82,124.09L327.27,142.05L332.73,147.85L338.18,137.82L343.64,124.09L349.09,132.01L354.55,119.34L360,127.79L365.45,122.51L370.91,107.72L376.36,126.2L381.82,117.76L387.27,106.67L392.73,97.69L398.18,78.15L403.64,98.75L409.09,79.21L414.55,96.11L420,62.84L425.45,77.1L430.91,59.14L436.36,63.89L441.82,55.45L447.27,63.89L452.73,67.06L458.18,67.59L463.64,57.03L469.09,55.45L474.55,58.61L480,59.14L485.45,47L490.91,52.81L496.36,46.47L501.82,55.45L507.27,58.61L512.73,51.75L518.18,51.75L523.64,50.69L529.09,43.83L534.55,49.11L540,44.36" style="vector-effect: non-scaling-stroke; fill: none; stroke: rgb(248, 118, 109); stroke-opacity: 1; stroke-width: 2px; opacity: 1;"/></g><g class="points"/><g class="text"/></g><g class="trace scatter tracef2860a" style="stroke-miterlimit: 2; opacity: 1;"><g class="fills"/><g class="errorbars"/><g class="lines"><path class="js-line" d="M0,309.97L5.45,296.24L10.91,276.7L16.36,283.56L21.82,269.31L27.27,243.43L32.73,223.89L38.18,242.38L43.64,202.24L49.09,214.92L54.55,210.69L60,185.35L65.45,176.37L70.91,198.02L76.36,187.46L81.82,188.51L87.27,201.72L92.73,172.67L98.18,180.59L103.64,167.92L109.09,171.62L114.55,179.01L120,184.29L125.45,191.68L130.91,175.31L136.36,187.99L141.82,187.99L147.27,187.46L152.73,174.26L158.18,191.68L163.64,187.46L169.09,183.23L174.55,180.07L180,200.66L185.45,173.2L196.36,202.24L201.82,190.1L207.27,175.31L212.73,183.76L218.18,203.83L223.64,198.02L229.09,185.87L234.55,182.71L240,201.19L245.45,183.23L250.91,171.09L256.36,171.62L261.82,170.03L267.27,156.83L272.73,170.56L278.18,154.72L283.64,156.83L289.09,171.62L294.55,153.66L300,166.34L305.45,159.47L310.91,148.91L316.36,133.6L321.82,129.9L327.27,150.5L332.73,141.52L338.18,140.99L343.64,137.29L349.09,140.46L354.55,125.68L360,130.96L365.45,119.34L370.91,117.23L376.36,121.98L381.82,113L387.27,105.61L392.73,107.72L398.18,117.23L403.64,112.48L409.09,103.5L414.55,97.16L420,82.9L425.45,85.02L430.91,82.9L436.36,79.74L441.82,75.51L447.27,77.1L452.73,68.65L458.18,73.93L463.64,70.76L469.09,65.48L474.55,70.76L480,69.17L485.45,66.53L490.91,69.7L496.36,64.95L507.27,63.89L512.73,64.42L518.18,64.95L523.64,64.42L529.09,62.31L534.55,61.78L540,62.84" style="vector-effect: non-scaling-stroke; fill: none; stroke: rgb(163, 165, 0); stroke-opacity: 1; stroke-width: 2px; opacity: 1;"/></g><g class="points"/><g class="text"/></g><g class="trace scatter trace4dc029" style="stroke-miterlimit: 2; opacity: 1;"><g class="fills"/><g class="errorbars"/><g class="lines"><path class="js-line" d="M0,310.5L5.45,286.2L10.91,275.64L16.36,264.55L21.82,267.19L27.27,248.71L32.73,246.6L38.18,244.49L43.64,239.21L49.09,214.39L54.55,210.69L60,212.81L65.45,212.81L70.91,209.11L76.36,193.8L81.82,184.29L87.27,185.35L92.73,195.91L98.18,192.74L103.64,184.29L109.09,169.5L114.55,181.65L120,176.9L125.45,167.92L130.91,162.64L136.36,175.31L141.82,173.2L147.27,181.12L152.73,151.55L158.18,162.64L163.64,147.33L169.09,156.3L174.55,149.97L180,161.58L185.45,170.56L190.91,164.22L196.36,155.78L201.82,158.42L207.27,167.92L212.73,170.03L218.18,170.03L223.64,165.81L229.09,172.15L234.55,180.07L240,156.3L245.45,163.17L250.91,162.11L256.36,152.08L261.82,168.98L272.73,135.18L278.18,144.69L283.64,139.41L289.09,146.8L294.55,143.63L300,129.37L305.45,122.51L310.91,137.29L316.36,111.42L321.82,114.59L327.27,118.81L332.73,108.25L338.18,114.59L343.64,98.75L349.09,104.55L354.55,102.44L360,133.6L365.45,101.91L370.91,75.51L376.36,85.02L381.82,82.38L387.27,96.63L392.73,82.38L398.18,71.82L403.64,68.12L409.09,53.86L414.55,48.05L420,50.69L425.45,42.77L430.91,33.27L436.36,43.83L441.82,29.57L447.27,34.32L452.73,30.63L458.18,18.48L463.64,23.76L469.09,35.91L474.55,24.29L480,26.93L485.45,13.73L490.91,16.9L496.36,25.35L501.82,10.03L507.27,21.65L512.73,16.37L518.18,23.23L523.64,19.54L529.09,19.01L534.55,18.48L540,14.79" style="vector-effect: non-scaling-stroke; fill: none; stroke: rgb(0, 191, 125); stroke-opacity: 1; stroke-width: 2px; opacity: 1;"/></g><g class="points"/><g class="text"/></g><g class="trace scatter traceeeb8b2" style="stroke-miterlimit: 2; opacity: 1;"><g class="fills"/><g class="errorbars"/><g class="lines"><path class="js-line" d="M0,312.61L5.45,274.59L10.91,270.36L16.36,259.27L21.82,255.58L32.73,239.21L38.18,228.65L43.64,224.42L49.09,202.24L54.55,193.27L60,190.63L65.45,172.15L70.91,179.54L76.36,153.66L81.82,190.63L87.27,162.11L92.73,155.25L98.18,181.12L103.64,160L109.09,165.28L114.55,162.64L120,155.25L125.45,161.06L130.91,140.99L136.36,163.7L141.82,159.47L147.27,158.94L152.73,170.56L158.18,166.34L163.64,163.17L169.09,158.94L174.55,170.56L180,171.09L185.45,179.01L190.91,175.84L196.36,142.57L201.82,175.84L207.27,178.48L212.73,168.98L223.64,180.59L229.09,150.5L234.55,167.39L240,160.53L245.45,168.45L250.91,162.64L256.36,152.08L261.82,149.97L267.27,137.29L272.73,169.5L278.18,135.71L283.64,146.8L289.09,145.21L294.55,128.84L300,147.85L305.45,142.05L310.91,121.98L316.36,121.45L321.82,125.68L327.27,120.92L332.73,97.16L338.18,105.08L343.64,102.44L349.09,106.67L354.55,99.27L360,82.9L365.45,97.16L370.91,90.3L376.36,85.54L381.82,82.9L387.27,59.14L392.73,80.26L398.18,77.1L403.64,51.22L409.09,59.67L414.55,60.2L420,27.46L425.45,48.58L430.91,39.08L436.36,33.8L441.82,32.21L447.27,21.12L452.73,38.55L458.18,26.4L463.64,35.91L469.09,30.1L474.55,31.16L480,25.35L485.45,22.18L490.91,31.16L496.36,34.85L501.82,23.76L507.27,12.15L512.73,19.01L518.18,14.79L523.64,19.54L529.09,14.26L534.55,14.79L540,9.5" style="vector-effect: non-scaling-stroke; fill: none; stroke: rgb(0, 176, 246); stroke-opacity: 1; stroke-width: 2px; opacity: 1;"/></g><g class="points"/><g class="text"/></g><g class="trace scatter trace322c79" style="stroke-miterlimit: 2; opacity: 1;"><g class="fills"/><g class="errorbars"/><g class="lines"><path class="js-line" d="M0,308.38L5.45,299.41L10.91,276.7L21.82,259.8L27.27,242.9L32.73,233.4L38.18,233.4L43.64,229.17L49.09,208.05L54.55,203.83L60,205.41L70.91,188.51L76.36,211.75L81.82,210.17L87.27,202.24L92.73,202.77L98.18,211.22L103.64,206.47L109.09,192.74L114.55,182.71L120,207.52L125.45,206.47L130.91,181.65L136.36,193.27L141.82,189.57L147.27,193.27L152.73,190.63L158.18,217.56L163.64,196.96L169.09,190.1L174.55,191.16L180,201.19L185.45,192.21L190.91,206.47L196.36,205.41L207.27,182.71L212.73,199.08L218.18,210.69L223.64,202.24L229.09,193.27L234.55,180.59L240,185.87L245.45,181.65L250.91,181.12L256.36,184.82L261.82,161.06L267.27,182.18L272.73,168.98L278.18,153.14L283.64,164.22L289.09,159.47L294.55,161.58L300,171.62L305.45,149.44L310.91,137.82L316.36,145.74L321.82,137.82L327.27,130.43L332.73,144.69L338.18,133.07L343.64,137.82L349.09,131.49L354.55,118.81L360,136.77L365.45,117.76L370.91,135.71L376.36,123.04L381.82,131.49L387.27,111.42L392.73,119.87L398.18,111.42L409.09,116.17L414.55,109.31L425.45,110.89L430.91,104.03L436.36,90.83L441.82,97.69L447.27,97.69L452.73,91.35L458.18,88.71L463.64,80.26L474.55,97.69L480,90.83L485.45,70.23L490.91,81.85L496.36,85.54L501.82,83.43L507.27,86.6L512.73,78.68L518.18,77.1L523.64,76.57L529.09,77.1L534.55,68.12L540,75.51" style="vector-effect: non-scaling-stroke; fill: none; stroke: rgb(231, 107, 243); stroke-opacity: 1; stroke-width: 2px; opacity: 1;"/></g><g class="points"/><g class="text"/></g><g class="trace scatter tracef1d980" style="stroke-miterlimit: 2; opacity: 1;"><g class="fills"/><g class="errorbars"/><g class="lines"><path class="js-line" d="M0,312.08L5.45,282.51L10.91,267.72L16.36,265.08L21.82,258.22L27.27,249.24L32.73,243.43L38.18,252.94L43.64,215.45L49.09,223.37L54.55,221.78L60,211.75L65.45,217.03L70.91,203.3L76.36,199.6L81.82,207L87.27,195.91L92.73,199.6L98.18,187.46L103.64,191.68L109.09,168.98L114.55,176.37L120,185.35L125.45,185.35L130.91,181.12L136.36,191.16L141.82,181.65L147.27,188.51L152.73,184.29L158.18,181.12L163.64,181.12L169.09,166.86L174.55,168.98L180,182.18L185.45,158.42L190.91,195.38L196.36,187.99L201.82,202.24L207.27,195.91L212.73,197.49L218.18,203.83L223.64,175.31L229.09,181.65L234.55,181.12L240,192.21L245.45,189.57L250.91,160L256.36,176.37L261.82,181.65L267.27,167.92L272.73,164.75L278.18,164.22L283.64,162.11L289.09,168.45L294.55,154.19L300,165.28L305.45,151.02L310.91,166.34L316.36,145.74L321.82,156.3L327.27,142.05L332.73,152.61L338.18,133.6L343.64,151.02L349.09,142.05L354.55,118.28L360,142.57L365.45,152.08L370.91,124.62L381.82,128.32L387.27,134.65L392.73,128.84L398.18,114.06L403.64,117.76L409.09,96.11L414.55,116.7L420,99.27L425.45,100.33L430.91,104.55L436.36,87.13L441.82,99.27L452.73,98.75L458.18,93.99L463.64,86.6L469.09,87.66L474.55,79.74L480,76.57L485.45,81.85L490.91,86.07L496.36,86.07L501.82,84.49L507.27,76.04L512.73,80.79L518.18,80.26L523.64,75.51L529.09,74.46L534.55,70.23L540,73.4" style="vector-effect: non-scaling-stroke; fill: none; stroke: rgb(248, 118, 109); stroke-opacity: 1; stroke-width: 2px; opacity: 1;"/></g><g class="points"/><g class="text"/></g><g class="trace scatter trace8c69d7" style="stroke-miterlimit: 2; opacity: 1;"><g class="fills"/><g class="errorbars"/><g class="lines"><path class="js-line" d="M0,303.63L5.45,283.04L10.91,266.67L16.36,266.67L21.82,265.08L27.27,241.85L32.73,236.57L38.18,237.62L43.64,229.17L49.09,204.36L54.55,201.72L65.45,194.85L70.91,175.31L76.36,181.65L81.82,170.56L87.27,158.94L92.73,153.66L98.18,151.02L103.64,140.46L109.09,152.61L114.55,145.21L120,168.45L125.45,150.5L130.91,137.82L136.36,149.44L141.82,159.47L147.27,158.42L152.73,145.21L158.18,167.39L163.64,170.03L169.09,171.62L174.55,148.91L180,163.17L185.45,165.81L190.91,167.39L196.36,178.48L201.82,179.54L207.27,177.43L212.73,166.86L218.18,180.07L223.64,174.79L229.09,172.67L234.55,151.55L240,157.89L245.45,148.38L250.91,158.42L256.36,142.05L261.82,180.07L267.27,137.82L272.73,142.57L278.18,142.05L283.64,134.65L289.09,118.81L294.55,125.15L300,117.23L310.91,137.29L316.36,123.04L321.82,118.81L327.27,111.42L332.73,116.17L338.18,121.98L343.64,89.24L349.09,111.42L354.55,119.34L360,89.77L365.45,103.5L370.91,90.3L376.36,81.32L381.82,86.07L387.27,72.87L392.73,72.87L398.18,71.29L403.64,64.95L409.09,60.73L414.55,52.81L420,51.75L425.45,67.06L430.91,43.83L436.36,32.21L441.82,27.99L447.27,30.1L452.73,25.35L458.18,30.63L463.64,31.68L469.09,21.65L474.55,26.93L480,24.29L485.45,22.71L490.91,30.63L496.36,23.23L501.82,26.93L507.27,21.65L512.73,22.18L518.18,17.95L523.64,22.18L529.09,17.95L534.55,15.31L540,12.15" style="vector-effect: non-scaling-stroke; fill: none; stroke: rgb(163, 165, 0); stroke-opacity: 1; stroke-width: 2px; opacity: 1;"/></g><g class="points"/><g class="text"/></g><g class="trace scatter trace92c114" style="stroke-miterlimit: 2; opacity: 1;"><g class="fills"/><g class="errorbars"/><g class="lines"><path class="js-line" d="M0,296.24L5.45,277.23L10.91,266.67L16.36,266.67L21.82,258.75L27.27,253.99L32.73,241.32L38.18,230.76L43.64,215.97L49.09,212.28L54.55,189.57L60,197.49L65.45,179.01L70.91,168.45L76.36,174.26L81.82,162.11L87.27,164.75L92.73,163.7L98.18,155.78L103.64,168.98L109.09,160L114.55,155.78L120,150.5L125.45,128.32L130.91,140.99L136.36,155.25L141.82,155.25L147.27,146.8L152.73,144.16L158.18,149.44L163.64,161.58L174.55,139.93L180,156.3L185.45,145.74L190.91,147.85L196.36,160.53L201.82,163.17L207.27,165.81L212.73,151.55L218.18,164.22L223.64,169.5L229.09,161.58L234.55,150.5L245.45,151.02L250.91,147.85L256.36,142.05L261.82,148.38L267.27,134.13L272.73,135.71L278.18,140.99L283.64,118.28L289.09,119.87L294.55,137.29L300,125.68L305.45,132.01L310.91,113L316.36,120.92L321.82,104.55L327.27,108.25L332.73,122.51L338.18,87.66L343.64,102.44L349.09,92.94L354.55,97.69L360,101.39L365.45,79.21L370.91,88.71L376.36,96.63L381.82,71.29L387.27,51.75L392.73,65.48L398.18,92.41L403.64,63.37L409.09,54.92L414.55,49.64L420,40.13L425.45,51.22L430.91,30.1L436.36,35.38L441.82,42.24L447.27,35.38L452.73,48.05L458.18,23.76L463.64,25.87L469.09,29.04L474.55,20.07L480,22.18L485.45,23.76L490.91,23.76L496.36,17.95L501.82,7.92L507.27,17.43L512.73,9.5L518.18,15.31L523.64,14.79L534.55,6.86L540,5.28" style="vector-effect: non-scaling-stroke; fill: none; stroke: rgb(0, 191, 125); stroke-opacity: 1; stroke-width: 2px; opacity: 1;"/></g><g class="points"/><g class="text"/></g><g class="trace scatter trace450cb0" style="stroke-miterlimit: 2; opacity: 1;"><g class="fills"/><g class="errorbars"/><g class="lines"><path class="js-line" d="M0,300.46L16.36,274.59L21.82,256.11L27.27,241.32L32.73,243.43L38.18,224.95L43.64,236.04L49.09,218.09L54.55,224.95L60,216.5L65.45,228.12L70.91,209.64L76.36,207.52L81.82,207.52L87.27,189.04L92.73,180.59L98.18,158.94L103.64,179.54L109.09,162.64L114.55,173.2L120,162.64L125.45,147.33L130.91,170.03L136.36,162.64L141.82,166.34L147.27,155.25L152.73,164.75L163.64,179.54L169.09,166.34L174.55,158.42L180,162.11L185.45,167.92L190.91,169.5L196.36,171.62L201.82,167.39L212.73,178.48L218.18,182.71L223.64,167.39L229.09,160L234.55,166.86L240,154.72L245.45,155.25L250.91,165.81L256.36,130.96L261.82,148.91L267.27,142.05L272.73,149.97L278.18,150.5L283.64,127.79L289.09,119.34L294.55,130.96L300,126.73L305.45,114.06L310.91,114.06L316.36,119.87L321.82,111.42L327.27,85.54L332.73,116.17L338.18,119.34L343.64,92.41L349.09,89.77L354.55,93.99L360,89.77L365.45,109.83L370.91,88.18L376.36,83.43L381.82,66.01L387.27,88.71L392.73,66.53L398.18,61.25L403.64,62.84L409.09,68.65L414.55,51.75L420,51.75L425.45,42.24L436.36,45.94L441.82,45.41L447.27,47L452.73,45.41L458.18,42.24L463.64,41.72L469.09,34.85L474.55,34.32L490.91,43.3L496.36,31.68L501.82,25.35L507.27,24.29L512.73,24.82L518.18,30.1L523.64,28.51L529.09,24.82L534.55,22.71L540,25.87" style="vector-effect: non-scaling-stroke; fill: none; stroke: rgb(0, 176, 246); stroke-opacity: 1; stroke-width: 2px; opacity: 1;"/></g><g class="points"/><g class="text"/></g><g class="trace scatter traced266ae" style="stroke-miterlimit: 2; opacity: 1;"><g class="fills"/><g class="errorbars"/><g class="lines"><path class="js-line" d="M0,296.77L5.45,291.49L10.91,276.17L16.36,279.87L21.82,251.88L27.27,264.03L32.73,250.83L38.18,241.32L43.64,227.06L49.09,220.2L54.55,207.52L60,201.19L65.45,201.19L70.91,199.6L76.36,210.17L81.82,189.57L87.27,195.38L92.73,191.16L98.18,192.74L103.64,185.35L109.09,181.65L114.55,189.04L120,184.29L125.45,171.62L130.91,181.12L136.36,190.63L141.82,167.39L147.27,163.17L152.73,173.2L158.18,180.59L163.64,172.15L169.09,183.23L174.55,196.44L180,171.09L185.45,190.63L190.91,182.71L196.36,176.9L201.82,166.34L207.27,160L212.73,172.15L218.18,168.45L223.64,186.4L229.09,167.92L234.55,165.28L240,171.09L245.45,168.45L250.91,132.54L256.36,139.41L261.82,152.08L267.27,161.58L272.73,149.97L278.18,134.65L283.64,146.8L289.09,147.33L294.55,140.99L300,138.88L305.45,117.23L310.91,136.24L316.36,130.96L321.82,121.45L327.27,126.73L332.73,134.13L338.18,130.43L343.64,107.19L349.09,118.81L354.55,118.28L360,110.36L365.45,118.28L370.91,106.67L376.36,88.71L381.82,99.8L387.27,102.97L392.73,88.71L398.18,81.32L403.64,79.74L409.09,80.79L414.55,79.21L420,62.31L425.45,76.04L430.91,48.05L436.36,55.97L441.82,65.48L447.27,55.97L452.73,58.61L458.18,50.17L463.64,53.33L469.09,55.45L480,46.47L485.45,42.77L490.91,43.3L496.36,41.19L501.82,42.77L507.27,38.55L512.73,46.47L518.18,41.72L523.64,36.44L529.09,34.32L534.55,26.93L540,29.04" style="vector-effect: non-scaling-stroke; fill: none; stroke: rgb(231, 107, 243); stroke-opacity: 1; stroke-width: 2px; opacity: 1;"/></g><g class="points"/><g class="text"/></g><g class="trace scatter trace22980f" style="stroke-miterlimit: 2; opacity: 1;"><g class="fills"/><g class="errorbars"/><g class="lines"><path class="js-line" d="M0,311.02L5.45,300.99L10.91,274.59L16.36,275.12L21.82,255.58L27.27,237.1L32.73,246.07L38.18,223.89L43.64,215.97L49.09,205.94L54.55,214.39L60,209.64L65.45,189.04L70.91,193.27L76.36,186.93L81.82,193.27L87.27,187.99L98.18,161.58L103.64,154.72L109.09,145.74L114.55,148.38L120,156.3L125.45,154.72L130.91,146.27L136.36,164.22L141.82,164.75L147.27,142.05L152.73,147.85L158.18,147.85L163.64,136.77L169.09,177.95L174.55,167.92L180,170.56L185.45,172.15L190.91,162.11L196.36,164.22L201.82,164.75L207.27,155.78L212.73,165.81L218.18,157.89L223.64,151.55L229.09,164.75L234.55,173.73L240,169.5L245.45,189.57L250.91,157.36L256.36,164.22L261.82,150.5L267.27,171.62L272.73,147.85L278.18,147.33L283.64,148.38L289.09,138.35L294.55,128.84L300,130.43L305.45,137.82L310.91,140.46L316.36,124.62L321.82,144.16L327.27,134.13L332.73,122.51L338.18,134.13L343.64,106.14L349.09,122.51L354.55,114.59L360,106.14L365.45,108.78L370.91,89.24L376.36,101.91L381.82,100.86L387.27,96.63L392.73,95.58L398.18,82.38L403.64,93.47L409.09,74.98L414.55,83.96L420,78.15L425.45,69.17L430.91,67.59L436.36,68.65L441.82,72.34L447.27,64.95L452.73,64.95L458.18,69.17L463.64,74.46L474.55,62.31L480,69.7L485.45,51.75L490.91,54.39L496.36,55.97L501.82,59.67L507.27,53.33L512.73,55.97L523.64,51.22L529.09,51.22L534.55,57.56L540,53.33" style="vector-effect: non-scaling-stroke; fill: none; stroke: rgb(248, 118, 109); stroke-opacity: 1; stroke-width: 2px; opacity: 1;"/></g><g class="points"/><g class="text"/></g><g class="trace scatter trace18572b" style="stroke-miterlimit: 2; opacity: 1;"><g class="fills"/><g class="errorbars"/><g class="lines"><path class="js-line" d="M0,308.38L10.91,280.92L16.36,275.64L21.82,269.83L27.27,248.18L32.73,237.62L38.18,231.82L43.64,221.78L49.09,202.77L54.55,212.81L60,194.85L65.45,187.46L70.91,185.35L76.36,198.02L81.82,165.28L87.27,175.84L92.73,136.24L98.18,171.09L103.64,169.5L109.09,178.48L114.55,172.67L120,173.2L125.45,164.22L130.91,184.82L136.36,162.64L147.27,175.31L152.73,169.5L158.18,167.39L163.64,187.99L169.09,178.48L174.55,182.18L180,187.99L185.45,165.81L190.91,177.43L196.36,172.15L201.82,162.11L207.27,188.51L212.73,201.72L218.18,184.82L223.64,172.67L229.09,183.23L234.55,179.54L240,173.2L245.45,157.89L250.91,179.01L256.36,158.94L261.82,182.18L267.27,150.5L272.73,161.06L278.18,151.02L283.64,133.6L289.09,154.72L294.55,135.18L300,132.54L305.45,128.32L310.91,125.15L316.36,149.97L321.82,128.32L327.27,113.53L332.73,132.54L338.18,129.9L349.09,109.83L354.55,123.04L360,109.83L365.45,104.55L370.91,97.69L376.36,80.79L381.82,72.34L387.27,79.21L392.73,90.3L398.18,78.15L403.64,86.6L409.09,71.82L414.55,64.95L420,82.38L425.45,60.2L430.91,47L436.36,56.5L441.82,49.64L452.73,48.05L458.18,53.33L463.64,55.97L469.09,47.52L474.55,50.69L480,40.13L485.45,40.13L490.91,41.72L496.36,35.38L501.82,38.02L507.27,48.05L512.73,38.02L518.18,38.55L523.64,36.44L534.55,33.8L540,34.32" style="vector-effect: non-scaling-stroke; fill: none; stroke: rgb(163, 165, 0); stroke-opacity: 1; stroke-width: 2px; opacity: 1;"/></g><g class="points"/><g class="text"/></g><g class="trace scatter trace3361b9" style="stroke-miterlimit: 2; opacity: 1;"><g class="fills"/><g class="errorbars"/><g class="lines"><path class="js-line" d="M0,320L5.45,295.18L10.91,261.39L16.36,270.89L21.82,257.16L27.27,245.02L32.73,228.12L38.18,224.42L43.64,219.67L49.09,229.7L54.55,218.61L65.45,190.1L70.91,209.11L76.36,183.76L81.82,203.83L87.27,181.12L92.73,177.43L98.18,165.81L103.64,161.06L109.09,143.1L114.55,158.42L120,175.31L125.45,151.02L136.36,171.62L141.82,176.37L147.27,175.31L152.73,158.42L158.18,151.55L163.64,165.28L169.09,160.53L174.55,154.72L180,156.83L185.45,168.98L190.91,171.09L196.36,151.55L201.82,185.35L207.27,186.93L212.73,178.48L218.18,162.11L223.64,177.95L229.09,170.56L234.55,178.48L240,138.35L245.45,156.3L250.91,148.91L256.36,167.39L261.82,163.7L267.27,161.06L272.73,162.11L278.18,134.65L283.64,148.91L289.09,136.24L294.55,136.77L300,145.21L305.45,135.18L310.91,130.43L316.36,141.52L321.82,145.74L327.27,113.53L332.73,118.81L338.18,125.68L343.64,111.95L349.09,105.08L354.55,107.72L360,102.97L365.45,98.75L370.91,108.25L376.36,109.31L381.82,107.72L387.27,104.03L392.73,92.41L398.18,98.22L403.64,107.19L409.09,87.13L414.55,92.41L420,60.73L425.45,90.3L430.91,74.46L436.36,75.51L441.82,70.76L447.27,69.7L452.73,72.34L458.18,66.01L463.64,62.31L469.09,63.89L474.55,51.75L480,65.48L485.45,69.17L490.91,55.45L496.36,51.75L501.82,55.45L507.27,50.69L512.73,51.22L518.18,44.88L523.64,46.47L529.09,49.64L534.55,47.52L540,44.36" style="vector-effect: non-scaling-stroke; fill: none; stroke: rgb(0, 191, 125); stroke-opacity: 1; stroke-width: 2px; opacity: 1;"/></g><g class="points"/><g class="text"/></g><g class="trace scatter trace5e4c11" style="stroke-miterlimit: 2; opacity: 1;"><g class="fills"/><g class="errorbars"/><g class="lines"><path class="js-line" d="M0,294.13L10.91,289.9L16.36,269.83L21.82,272.48L27.27,237.1L38.18,240.79L43.64,240.26L49.09,231.29L54.55,217.56L65.45,211.75L70.91,195.91L76.36,205.41L81.82,202.77L87.27,199.08L92.73,213.86L98.18,199.08L103.64,202.77L109.09,216.5L114.55,201.72L120,204.88L125.45,182.18L130.91,187.46L136.36,196.44L147.27,183.23L152.73,182.71L158.18,195.91L163.64,186.4L169.09,192.21L174.55,174.79L180,184.82L185.45,199.6L190.91,190.63L196.36,188.51L201.82,183.76L207.27,207.52L212.73,192.74L218.18,207L223.64,189.04L229.09,177.43L234.55,181.12L240,197.49L245.45,179.54L250.91,173.73L256.36,184.29L261.82,177.95L267.27,167.92L272.73,163.7L278.18,158.94L283.64,170.03L289.09,165.81L294.55,156.3L300,152.08L305.45,144.16L310.91,154.19L316.36,144.69L321.82,145.74L327.27,136.77L332.73,121.45L338.18,134.65L343.64,126.2L349.09,128.32L354.55,129.37L360,117.76L365.45,118.81L370.91,117.76L376.36,108.25L381.82,111.95L387.27,116.17L392.73,105.08L398.18,114.59L403.64,103.5L409.09,96.11L414.55,86.07L420,77.62L425.45,73.4L430.91,86.6L436.36,76.57L441.82,77.62L447.27,87.13L452.73,74.98L458.18,73.93L463.64,73.93L469.09,71.29L474.55,66.01L480,73.93L485.45,72.34L490.91,72.34L496.36,63.89L501.82,60.2L507.27,61.78L512.73,59.67L518.18,61.78L523.64,58.61L529.09,54.39L534.55,58.61L540,57.56" style="vector-effect: non-scaling-stroke; fill: none; stroke: rgb(0, 176, 246); stroke-opacity: 1; stroke-width: 2px; opacity: 1;"/></g><g class="points"/><g class="text"/></g><g class="trace scatter trace41ed64" style="stroke-miterlimit: 2; opacity: 1;"><g class="fills"/><g class="errorbars"/><g class="lines"><path class="js-line" d="M0,310.5L5.45,295.18L10.91,282.51L16.36,262.44L21.82,267.72L27.27,247.13L32.73,243.43L38.18,238.15L43.64,238.15L49.09,234.98L54.55,215.45L60,219.67L65.45,221.25L70.91,221.25L76.36,226.53L81.82,181.12L87.27,190.63L92.73,202.77L98.18,199.08L103.64,196.44L109.09,194.85L114.55,189.57L120,189.57L125.45,187.46L130.91,196.44L136.36,183.23L141.82,185.35L147.27,181.12L152.73,170.03L158.18,171.09L163.64,196.96L169.09,194.32L174.55,187.99L180,198.02L185.45,190.1L190.91,176.9L196.36,187.46L201.82,189.04L207.27,193.8L212.73,195.38L218.18,203.83L229.09,188.51L234.55,175.84L240,173.2L245.45,173.2L250.91,200.66L256.36,175.84L261.82,177.43L267.27,170.56L272.73,182.71L278.18,176.37L283.64,173.73L289.09,163.7L294.55,145.21L300,156.83L305.45,151.02L310.91,172.15L316.36,142.57L321.82,151.02L327.27,147.85L332.73,138.88L338.18,145.21L343.64,127.26L349.09,129.37L354.55,130.43L360,121.98L365.45,127.26L370.91,128.84L376.36,116.17L381.82,121.98L387.27,118.28L392.73,120.4L398.18,99.8L403.64,108.25L409.09,91.35L414.55,98.75L420,84.49L425.45,93.99L430.91,90.3L436.36,82.9L441.82,71.82L447.27,86.07L452.73,85.02L458.18,85.02L463.64,83.43L469.09,71.29L474.55,84.49L480,72.87L485.45,82.38L490.91,72.34L496.36,74.98L501.82,67.59L507.27,70.23L512.73,70.23L518.18,64.95L523.64,68.12L529.09,67.06L540,68.12" style="vector-effect: non-scaling-stroke; fill: none; stroke: rgb(231, 107, 243); stroke-opacity: 1; stroke-width: 2px; opacity: 1;"/></g><g class="points"/><g class="text"/></g><g class="trace scatter tracee2096e" style="stroke-miterlimit: 2; opacity: 1;"><g class="fills"/><g class="errorbars"/><g class="lines"><path class="js-line" d="M0,288.84L5.45,283.04L10.91,269.31L16.36,265.08L21.82,270.89L27.27,246.6L32.73,240.26L38.18,238.68L43.64,233.4L49.09,228.12L54.55,221.78L60,214.39L65.45,199.6L70.91,204.36L76.36,205.41L81.82,205.41L87.27,199.08L92.73,187.46L98.18,210.69L103.64,185.87L109.09,190.63L114.55,205.41L120,185.87L125.45,183.23L130.91,195.91L136.36,195.91L141.82,190.63L147.27,184.82L152.73,195.91L158.18,190.63L163.64,195.91L169.09,198.02L174.55,203.83L185.45,181.65L190.91,203.83L196.36,210.69L201.82,191.16L212.73,211.75L218.18,207L223.64,201.72L229.09,206.47L234.55,187.99L240,201.19L245.45,186.93L250.91,180.07L256.36,177.43L261.82,185.35L267.27,187.46L272.73,170.56L278.18,163.7L283.64,165.81L289.09,164.22L294.55,155.25L300,138.35L305.45,144.69L310.91,136.24L316.36,143.63L321.82,137.82L327.27,120.4L332.73,134.13L338.18,135.18L343.64,109.83L349.09,143.63L354.55,112.48L360,126.2L365.45,128.84L370.91,123.56L376.36,113L381.82,113L387.27,108.78L392.73,112.48L403.64,100.86L409.09,100.86L414.55,105.08L420,87.13L425.45,89.77L430.91,73.4L436.36,71.82L441.82,73.93L447.27,72.34L452.73,68.12L458.18,71.82L463.64,73.4L469.09,68.65L474.55,71.29L480,74.46L485.45,70.76L490.91,68.65L496.36,71.29L501.82,76.57L507.27,61.78L512.73,63.89L518.18,67.59L523.64,63.89L529.09,65.48L534.55,66.01L540,62.31" style="vector-effect: non-scaling-stroke; fill: none; stroke: rgb(248, 118, 109); stroke-opacity: 1; stroke-width: 2px; opacity: 1;"/></g><g class="points"/><g class="text"/></g><g class="trace scatter tracea4f5bc" style="stroke-miterlimit: 2; opacity: 1;"><g class="fills"/><g class="errorbars"/><g class="lines"><path class="js-line" d="M0,309.44L10.91,276.7L16.36,278.81L21.82,262.97L27.27,260.33L32.73,247.13L38.18,226.53L43.64,213.86L49.09,209.64L54.55,202.77L60,174.79L65.45,187.99L70.91,207L76.36,198.55L81.82,201.72L87.27,198.02L92.73,192.74L103.64,186.4L109.09,192.21L114.55,185.87L120,186.93L125.45,191.68L130.91,187.99L136.36,186.4L141.82,197.49L147.27,182.71L152.73,178.48L158.18,197.49L163.64,201.72L169.09,196.96L174.55,179.54L185.45,194.32L190.91,183.23L201.82,189.04L207.27,182.18L218.18,184.82L223.64,194.85L229.09,169.5L234.55,197.49L240,162.64L245.45,167.92L250.91,165.28L256.36,175.84L261.82,182.18L267.27,166.86L272.73,156.83L278.18,156.83L283.64,167.92L289.09,165.81L294.55,146.27L300,160L305.45,132.54L310.91,163.7L316.36,136.77L321.82,155.78L327.27,140.46L332.73,152.08L338.18,134.65L343.64,132.01L360,127.26L365.45,121.98L370.91,120.4L376.36,107.19L381.82,107.72L387.27,123.04L392.73,104.55L398.18,98.75L403.64,99.8L409.09,98.22L420,76.04L425.45,72.34L430.91,78.68L436.36,67.06L441.82,86.07L447.27,70.23L452.73,79.74L458.18,78.68L463.64,67.59L469.09,71.29L474.55,66.01L480,58.09L485.45,65.48L490.91,58.09L496.36,60.2L501.82,71.82L507.27,62.31L512.73,65.48L518.18,61.78L523.64,59.67L529.09,64.95L534.55,59.67L540,63.37" style="vector-effect: non-scaling-stroke; fill: none; stroke: rgb(163, 165, 0); stroke-opacity: 1; stroke-width: 2px; opacity: 1;"/></g><g class="points"/><g class="text"/></g><g class="trace scatter trace55f092" style="stroke-miterlimit: 2; opacity: 1;"><g class="fills"/><g class="errorbars"/><g class="lines"><path class="js-line" d="M0,312.61L5.45,292.01L10.91,276.7L16.36,273.53L21.82,254.52L27.27,240.79L32.73,246.6L38.18,223.89L43.64,224.95L49.09,219.67L54.55,231.82L60,209.11L65.45,194.85L70.91,207L76.36,211.22L81.82,199.08L87.27,199.08L92.73,193.8L98.18,201.72L103.64,181.65L109.09,181.12L114.55,191.68L120,184.29L125.45,173.73L130.91,185.87L136.36,190.63L141.82,200.13L147.27,191.68L152.73,193.27L158.18,179.54L163.64,186.93L169.09,200.13L174.55,194.85L180,192.21L185.45,200.13L190.91,184.82L196.36,207L201.82,198.55L207.27,193.27L212.73,205.94L218.18,199.6L223.64,190.1L229.09,172.67L234.55,193.8L240,191.16L245.45,185.35L250.91,189.04L256.36,197.49L261.82,170.56L267.27,177.95L272.73,156.3L278.18,170.03L283.64,165.81L289.09,170.56L294.55,158.94L300,155.25L305.45,160L310.91,154.72L316.36,154.19L321.82,148.38L327.27,134.65L332.73,136.77L338.18,150.5L343.64,121.45L349.09,132.01L354.55,131.49L360,126.2L365.45,113.53L370.91,107.72L376.36,127.79L381.82,111.95L387.27,104.55L392.73,103.5L398.18,76.57L403.64,95.58L409.09,104.03L414.55,77.1L420,71.82L425.45,86.6L430.91,85.02L436.36,88.71L441.82,75.51L447.27,67.06L452.73,67.59L458.18,72.87L463.64,63.89L469.09,76.57L474.55,67.59L480,64.95L490.91,65.48L496.36,70.76L501.82,51.75L507.27,64.42L512.73,55.97L518.18,56.5L523.64,61.25L529.09,57.56L534.55,57.03L540,54.92" style="vector-effect: non-scaling-stroke; fill: none; stroke: rgb(0, 191, 125); stroke-opacity: 1; stroke-width: 2px; opacity: 1;"/></g><g class="points"/><g class="text"/></g><g class="trace scatter trace5ee97c" style="stroke-miterlimit: 2; opacity: 1;"><g class="fills"/><g class="errorbars"/><g class="lines"><path class="js-line" d="M0,316.83L5.45,281.45L10.91,267.72L16.36,274.59L21.82,260.86L32.73,231.82L38.18,249.24L43.64,239.21L49.09,220.2L54.55,228.65L60,231.29L65.45,209.64L70.91,203.83L76.36,208.58L81.82,210.17L87.27,205.41L92.73,196.44L98.18,200.66L103.64,208.58L109.09,196.96L114.55,171.62L120,176.9L125.45,152.08L130.91,176.9L136.36,165.81L141.82,150.5L147.27,174.26L152.73,160L158.18,148.91L163.64,141.52L169.09,153.14L174.55,179.54L180,157.36L185.45,161.06L190.91,167.39L196.36,172.67L201.82,187.46L207.27,168.45L212.73,161.58L218.18,160.53L223.64,145.74L229.09,168.98L234.55,166.86L240,160.53L245.45,143.1L250.91,172.67L256.36,139.93L261.82,147.33L267.27,128.84L272.73,127.26L278.18,132.01L283.64,127.79L289.09,128.84L294.55,126.2L300,115.12L310.91,106.67L316.36,121.45L321.82,108.78L327.27,118.81L332.73,109.83L338.18,106.67L343.64,90.83L349.09,97.16L354.55,100.33L360,81.32L365.45,94.52L370.91,87.13L376.36,83.96L381.82,85.02L387.27,77.1L392.73,79.74L398.18,77.1L403.64,67.06L409.09,57.56L414.55,59.14L420,47L425.45,57.03L430.91,47.52L436.36,32.21L441.82,39.08L447.27,39.08L452.73,51.22L458.18,38.55L463.64,42.77L469.09,44.36L474.55,35.38L480,37.49L485.45,37.49L490.91,29.57L496.36,41.19L501.82,49.11L507.27,26.93L512.73,33.8L518.18,26.93L523.64,34.85L529.09,24.82L534.55,27.99L540,25.35" style="vector-effect: non-scaling-stroke; fill: none; stroke: rgb(0, 176, 246); stroke-opacity: 1; stroke-width: 2px; opacity: 1;"/></g><g class="points"/><g class="text"/></g><g class="trace scatter tracecb11c4" style="stroke-miterlimit: 2; opacity: 1;"><g class="fills"/><g class="errorbars"/><g class="lines"><path class="js-line" d="M0,302.57L5.45,286.73L10.91,274.06L16.36,263.5L21.82,260.86L27.27,258.75L32.73,239.74L38.18,228.12L43.64,232.34L49.09,223.37L54.55,224.95L60,222.84L65.45,196.96L70.91,207.52L76.36,181.12L81.82,181.65L87.27,157.36L92.73,167.39L98.18,174.79L103.64,187.99L109.09,164.22L114.55,180.07L120,140.99L125.45,169.5L130.91,157.36L136.36,164.22L141.82,173.73L147.27,176.37L152.73,168.98L158.18,150.5L163.64,167.92L169.09,180.07L174.55,173.2L180,189.04L185.45,183.23L190.91,170.03L196.36,183.23L201.82,187.99L207.27,180.59L218.18,179.01L223.64,177.43L229.09,189.04L234.55,180.59L245.45,163.7L250.91,174.26L261.82,152.61L267.27,159.47L272.73,189.04L278.18,171.09L283.64,136.77L289.09,145.74L294.55,132.01L300,147.85L305.45,155.25L310.91,134.65L316.36,127.26L321.82,139.41L327.27,129.37L332.73,121.98L338.18,125.15L343.64,119.34L349.09,116.7L354.55,113L360,120.4L365.45,116.7L370.91,121.45L376.36,105.61L381.82,105.08L387.27,106.14L392.73,89.77L398.18,92.94L403.64,87.13L409.09,79.74L420,79.74L425.45,77.62L430.91,70.23L436.36,73.93L441.82,64.95L447.27,67.06L452.73,55.97L458.18,72.87L463.64,59.67L469.09,66.53L474.55,57.56L480,68.12L485.45,59.14L490.91,55.97L501.82,62.84L507.27,64.95L512.73,61.78L518.18,54.39L523.64,56.5L529.09,50.17L534.55,59.67L540,52.28" style="vector-effect: non-scaling-stroke; fill: none; stroke: rgb(231, 107, 243); stroke-opacity: 1; stroke-width: 2px; opacity: 1;"/></g><g class="points"/><g class="text"/></g><g class="trace scatter trace5d0c5d" style="stroke-miterlimit: 2; opacity: 1;"><g class="fills"/><g class="errorbars"/><g class="lines"><path class="js-line" d="M0,316.83L5.45,287.26L10.91,270.89L16.36,266.14L21.82,248.18L27.27,232.34L32.73,226.53L38.18,220.73L43.64,220.73L49.09,210.17L54.55,204.36L60,213.86L65.45,204.88L70.91,189.04L76.36,187.99L81.82,195.38L87.27,187.99L92.73,187.46L98.18,180.07L103.64,188.51L109.09,193.8L114.55,187.99L120,183.76L125.45,170.03L130.91,202.24L136.36,193.27L141.82,193.8L147.27,196.44L152.73,187.46L158.18,182.18L163.64,187.99L169.09,198.02L174.55,187.99L185.45,181.12L190.91,183.23L196.36,182.18L201.82,195.91L207.27,191.16L212.73,197.49L218.18,180.59L223.64,204.36L229.09,185.35L234.55,202.77L240,188.51L245.45,196.44L250.91,201.72L256.36,196.44L261.82,186.93L267.27,182.18L272.73,163.17L278.18,155.25L283.64,167.92L289.09,157.89L294.55,139.41L300,167.39L305.45,143.1L310.91,161.06L316.36,147.85L321.82,138.35L327.27,154.19L332.73,128.84L338.18,130.96L343.64,140.99L349.09,125.68L354.55,116.17L360,114.06L365.45,115.12L370.91,102.97L376.36,119.34L381.82,108.25L387.27,102.44L392.73,94.52L398.18,103.5L403.64,104.55L409.09,99.8L414.55,86.07L420,96.11L425.45,84.49L430.91,85.02L436.36,83.43L441.82,79.74L447.27,82.38L452.73,79.74L458.18,73.93L463.64,75.51L469.09,78.15L474.55,76.57L480,72.87L485.45,74.98L490.91,74.98L496.36,77.1L501.82,74.46L507.27,74.98L512.73,73.93L518.18,62.84L523.64,71.29L529.09,65.48L534.55,60.73L540,60.2" style="vector-effect: non-scaling-stroke; fill: none; stroke: rgb(248, 118, 109); stroke-opacity: 1; stroke-width: 2px; opacity: 1;"/></g><g class="points"/><g class="text"/></g><g class="trace scatter tracef889ea" style="stroke-miterlimit: 2; opacity: 1;"><g class="fills"/><g class="errorbars"/><g class="lines"><path class="js-line" d="M0,309.44L10.91,280.92L16.36,251.88L21.82,272.48L27.27,249.77L32.73,238.68L38.18,234.98L43.64,231.82L49.09,233.4L54.55,234.46L60,217.56L65.45,212.81L70.91,217.03L76.36,192.74L81.82,199.08L87.27,177.95L92.73,179.54L98.18,186.4L103.64,180.07L109.09,179.54L114.55,176.9L120,176.37L125.45,164.22L130.91,156.3L136.36,157.36L141.82,163.7L147.27,160L152.73,163.17L158.18,155.25L163.64,158.42L169.09,152.08L174.55,163.17L180,176.37L185.45,171.62L190.91,178.48L196.36,176.37L201.82,152.61L207.27,187.46L212.73,165.81L218.18,167.39L223.64,157.89L229.09,173.73L234.55,167.39L240,166.34L245.45,148.38L250.91,174.79L256.36,163.7L261.82,163.17L267.27,163.7L272.73,133.6L278.18,157.89L283.64,148.38L289.09,129.9L294.55,136.77L300,133.6L305.45,124.62L310.91,148.91L316.36,125.15L321.82,133.6L327.27,119.34L332.73,125.68L338.18,134.13L343.64,118.81L349.09,111.95L354.55,109.31L360,104.03L365.45,107.19L370.91,114.59L376.36,107.19L381.82,109.83L387.27,86.6L398.18,86.07L403.64,74.46L409.09,73.4L414.55,74.98L420,59.14L425.45,68.12L430.91,61.25L436.36,52.81L441.82,63.37L447.27,50.69L452.73,47L458.18,53.33L463.64,50.17L469.09,56.5L474.55,47L480,45.41L485.45,33.8L490.91,46.47L496.36,50.69L501.82,40.13L512.73,41.72L518.18,48.05L523.64,44.88L529.09,38.02L534.55,42.24L540,39.08" style="vector-effect: non-scaling-stroke; fill: none; stroke: rgb(163, 165, 0); stroke-opacity: 1; stroke-width: 2px; opacity: 1;"/></g><g class="points"/><g class="text"/></g><g class="trace scatter trace58d101" style="stroke-miterlimit: 2; opacity: 1;"><g class="fills"/><g class="errorbars"/><g class="lines"><path class="js-line" d="M0,298.35L5.45,290.96L10.91,265.61L16.36,256.11L21.82,270.36L27.27,251.35L32.73,240.79L38.18,221.78L43.64,214.92L49.09,224.95L54.55,207.52L60,217.56L65.45,215.45L70.91,209.64L76.36,211.22L81.82,182.71L87.27,186.93L92.73,213.33L98.18,186.93L103.64,207.52L109.09,179.54L114.55,190.1L120,196.44L125.45,181.65L130.91,198.55L136.36,204.88L141.82,181.12L147.27,193.8L152.73,192.21L158.18,190.63L163.64,198.55L169.09,205.41L174.55,199.6L180,208.05L185.45,213.33L190.91,221.25L196.36,189.57L201.82,205.94L207.27,205.41L212.73,204.36L218.18,200.66L223.64,223.89L229.09,202.24L234.55,199.08L240,203.83L245.45,190.1L250.91,195.38L256.36,174.26L261.82,180.07L267.27,189.57L272.73,181.12L278.18,187.99L283.64,166.34L289.09,184.82L294.55,170.56L300,166.34L305.45,180.59L310.91,166.86L316.36,165.28L321.82,138.88L327.27,163.17L332.73,156.83L338.18,129.9L343.64,161.58L349.09,153.66L354.55,155.25L360,148.91L365.45,145.74L370.91,151.02L376.36,127.26L381.82,132.54L387.27,126.2L392.73,127.79L398.18,135.18L403.64,119.34L409.09,110.89L414.55,117.23L420,108.78L425.45,112.48L436.36,98.75L441.82,109.31L447.27,104.55L452.73,103.5L458.18,89.24L463.64,91.88L469.09,90.3L474.55,95.58L480,90.83L485.45,100.86L490.91,92.41L496.36,92.41L501.82,89.77L507.27,90.83L518.18,94.52L523.64,82.9L529.09,81.32L534.55,84.49L540,83.96" style="vector-effect: non-scaling-stroke; fill: none; stroke: rgb(0, 191, 125); stroke-opacity: 1; stroke-width: 2px; opacity: 1;"/></g><g class="points"/><g class="text"/></g><g class="trace scatter trace3bb495" style="stroke-miterlimit: 2; opacity: 1;"><g class="fills"/><g class="errorbars"/><g class="lines"><path class="js-line" d="M0,312.61L5.45,277.23L10.91,266.67L16.36,260.33L21.82,257.69L27.27,238.15L32.73,245.02L38.18,224.95L43.64,226.53L49.09,228.65L54.55,229.17L60,229.7L65.45,202.77L70.91,200.13L76.36,189.57L81.82,186.93L87.27,194.32L92.73,198.02L98.18,168.98L103.64,177.43L109.09,172.67L114.55,186.93L120,167.39L125.45,170.03L130.91,175.31L136.36,179.01L141.82,180.07L147.27,177.95L152.73,164.22L158.18,168.98L163.64,175.31L169.09,163.7L174.55,188.51L180,162.11L185.45,174.26L190.91,173.2L196.36,176.9L201.82,170.56L207.27,176.9L212.73,164.22L218.18,179.01L223.64,175.84L229.09,181.65L234.55,161.06L240,155.78L245.45,150.5L250.91,160.53L256.36,178.48L261.82,152.61L267.27,141.52L272.73,145.21L278.18,146.27L283.64,137.82L289.09,135.71L294.55,138.88L300,158.42L305.45,139.93L310.91,128.32L316.36,113L321.82,120.92L327.27,104.03L332.73,113L338.18,113.53L343.64,100.86L349.09,102.44L354.55,121.45L360,104.55L365.45,96.63L370.91,79.74L376.36,95.05L381.82,77.1L387.27,86.6L392.73,84.49L398.18,74.98L403.64,74.98L409.09,64.95L414.55,72.87L420,47L425.45,49.11L430.91,51.75L436.36,33.8L441.82,55.97L447.27,42.77L452.73,38.55L458.18,41.72L463.64,38.55L469.09,34.32L474.55,39.08L480,35.91L485.45,23.76L490.91,37.49L496.36,24.29L501.82,21.65L507.27,26.4L512.73,34.32L518.18,28.51L523.64,25.35L529.09,29.57L534.55,15.31L540,13.73" style="vector-effect: non-scaling-stroke; fill: none; stroke: rgb(0, 176, 246); stroke-opacity: 1; stroke-width: 2px; opacity: 1;"/></g><g class="points"/><g class="text"/></g><g class="trace scatter trace1cea9a" style="stroke-miterlimit: 2; opacity: 1;"><g class="fills"/><g class="errorbars"/><g class="lines"><path class="js-line" d="M0,292.01L10.91,271.42L16.36,256.11L21.82,253.47L27.27,262.44L32.73,251.88L38.18,239.21L43.64,239.21L49.09,237.1L54.55,241.85L60,217.03L65.45,227.06L70.91,225.48L76.36,202.77L81.82,207.52L87.27,195.38L92.73,207L98.18,205.94L103.64,203.83L109.09,193.27L114.55,204.88L120,178.48L125.45,184.82L130.91,183.23L136.36,170.03L141.82,155.25L147.27,182.18L152.73,159.47L158.18,182.71L163.64,183.76L169.09,179.54L174.55,187.46L180,180.59L185.45,195.91L190.91,169.5L196.36,174.79L201.82,167.92L207.27,177.95L212.73,183.23L218.18,182.18L223.64,195.91L229.09,188.51L234.55,175.84L240,157.36L245.45,165.28L250.91,172.15L256.36,173.2L261.82,167.92L267.27,155.25L272.73,167.92L278.18,162.11L283.64,160.53L289.09,157.89L294.55,143.63L300,139.93L305.45,160.53L310.91,155.78L316.36,168.98L321.82,142.57L327.27,120.4L332.73,138.88L338.18,123.04L343.64,118.28L349.09,131.49L354.55,114.59L360,110.36L365.45,127.26L376.36,105.61L381.82,96.63L387.27,118.81L392.73,97.69L398.18,90.3L403.64,106.67L409.09,80.79L414.55,86.07L420,74.46L425.45,89.77L430.91,68.65L436.36,69.7L441.82,73.93L447.27,64.42L452.73,75.51L458.18,69.17L463.64,68.65L469.09,65.48L474.55,71.82L480,64.42L485.45,69.17L490.91,66.53L496.36,49.11L501.82,61.78L507.27,53.86L512.73,59.67L518.18,52.81L523.64,55.45L529.09,53.86L534.55,50.69L540,49.64" style="vector-effect: non-scaling-stroke; fill: none; stroke: rgb(231, 107, 243); stroke-opacity: 1; stroke-width: 2px; opacity: 1;"/></g><g class="points"/><g class="text"/></g><g class="trace scatter trace9aa681" style="stroke-miterlimit: 2; opacity: 1;"><g class="fills"/><g class="errorbars"/><g class="lines"><path class="js-line" d="M0,297.29L10.91,272.48L16.36,265.61L21.82,238.68L27.27,247.13L32.73,241.85L38.18,212.81L43.64,230.23L49.09,231.82L54.55,219.67L60,230.23L65.45,226.01L70.91,202.77L76.36,194.85L81.82,208.05L87.27,200.13L92.73,216.5L98.18,203.3L103.64,195.38L109.09,193.8L114.55,209.11L120,211.75L125.45,200.66L130.91,208.05L136.36,205.41L141.82,202.24L147.27,209.11L152.73,190.1L158.18,191.16L163.64,211.75L169.09,203.3L174.55,196.96L180,202.24L185.45,206.47L190.91,194.85L196.36,205.94L201.82,204.88L207.27,187.46L212.73,185.87L218.18,176.37L223.64,175.84L229.09,169.5L234.55,156.83L240,177.95L245.45,144.16L250.91,146.27L256.36,144.16L261.82,159.47L267.27,161.06L272.73,138.35L278.18,138.35L283.64,127.26L289.09,126.73L294.55,138.35L300,129.37L305.45,120.92L310.91,114.59L316.36,105.61L321.82,99.27L327.27,111.95L332.73,116.17L338.18,114.59L343.64,98.75L349.09,103.5L354.55,86.6L360,81.85L365.45,94.52L370.91,84.49L376.36,78.68L381.82,53.86L387.27,67.59L392.73,76.04L398.18,78.68L403.64,76.57L409.09,59.14L414.55,69.7L420,63.89L425.45,52.81L430.91,39.6L436.36,39.08L441.82,49.11L447.27,56.5L452.73,47L458.18,30.63L463.64,44.36L469.09,33.27L474.55,42.24L480,40.13L485.45,33.8L490.91,37.49L496.36,32.74L501.82,31.68L507.27,17.43L512.73,23.76L518.18,27.99L523.64,30.1L529.09,30.63L534.55,21.65L540,16.37" style="vector-effect: non-scaling-stroke; fill: none; stroke: rgb(248, 118, 109); stroke-opacity: 1; stroke-width: 2px; opacity: 1;"/></g><g class="points"/><g class="text"/></g><g class="trace scatter trace28008c" style="stroke-miterlimit: 2; opacity: 1;"><g class="fills"/><g class="errorbars"/><g class="lines"><path class="js-line" d="M0,294.65L5.45,295.71L10.91,286.2L16.36,265.61L21.82,266.67L32.73,230.76L38.18,232.87L43.64,222.84L49.09,218.61L54.55,205.94L60,203.3L70.91,175.84L76.36,182.71L81.82,182.71L87.27,179.54L92.73,168.98L98.18,153.14L103.64,169.5L109.09,157.36L114.55,151.02L120,169.5L125.45,157.89L130.91,175.84L136.36,149.44L141.82,156.83L147.27,150.5L152.73,156.3L158.18,158.42L163.64,164.22L169.09,149.44L174.55,146.27L180,150.5L185.45,157.36L190.91,166.86L196.36,167.39L201.82,158.94L207.27,147.85L212.73,171.09L218.18,154.19L223.64,155.25L229.09,158.94L234.55,154.19L240,155.78L245.45,156.3L250.91,136.77L256.36,148.91L261.82,144.16L267.27,136.24L272.73,145.74L278.18,143.63L283.64,121.45L289.09,134.13L294.55,133.07L300,116.7L305.45,125.15L310.91,115.64L316.36,130.96L321.82,114.06L327.27,105.08L332.73,98.75L338.18,115.12L343.64,118.81L349.09,106.14L360,82.38L365.45,83.43L370.91,90.83L376.36,73.4L381.82,81.85L387.27,78.68L392.73,70.23L398.18,59.67L403.64,58.09L409.09,53.33L414.55,63.89L420,39.6L425.45,36.96L430.91,39.08L436.36,39.6L441.82,35.91L447.27,29.04L452.73,39.08L458.18,38.55L463.64,31.16L469.09,21.12L474.55,24.82L480,25.87L485.45,22.18L496.36,17.95L501.82,23.23L507.27,12.67L512.73,18.48L518.18,12.67L523.64,13.73L540,0" style="vector-effect: non-scaling-stroke; fill: none; stroke: rgb(163, 165, 0); stroke-opacity: 1; stroke-width: 2px; opacity: 1;"/></g><g class="points"/><g class="text"/></g><g class="trace scatter trace034578" style="stroke-miterlimit: 2; opacity: 1;"><g class="fills"/><g class="errorbars"/><g class="lines"><path class="js-line" d="M0,303.1L5.45,297.82L10.91,273L16.36,269.83L21.82,251.88L27.27,259.8L32.73,256.63L38.18,238.15L43.64,246.6L49.09,222.84L54.55,217.56L60,203.3L65.45,203.3L70.91,219.67L76.36,224.95L81.82,189.04L87.27,204.36L92.73,205.94L98.18,186.93L103.64,215.97L109.09,211.75L114.55,192.21L120,203.83L125.45,190.1L130.91,168.98L136.36,183.76L141.82,169.5L147.27,171.09L152.73,159.47L158.18,168.45L163.64,173.2L169.09,163.17L174.55,168.98L180,175.84L185.45,169.5L190.91,166.34L196.36,178.48L201.82,180.07L207.27,165.28L212.73,178.48L218.18,162.11L223.64,171.62L229.09,172.67L234.55,170.03L240,168.98L245.45,171.09L250.91,155.78L256.36,151.55L261.82,148.38L267.27,143.1L272.73,147.33L278.18,149.97L283.64,140.46L289.09,147.85L294.55,148.38L300,147.85L305.45,121.98L310.91,126.2L316.36,119.87L321.82,104.03L327.27,122.51L338.18,113.53L343.64,106.14L349.09,110.36L354.55,105.08L360,96.63L365.45,113.53L370.91,99.8L376.36,96.11L381.82,86.6L387.27,80.79L392.73,85.54L398.18,75.51L403.64,76.04L409.09,72.87L414.55,86.07L420,70.23L425.45,60.2L430.91,61.78L436.36,48.05L441.82,55.45L447.27,45.94L452.73,43.83L458.18,59.14L463.64,53.86L469.09,50.69L474.55,41.72L485.45,49.64L490.91,41.72L496.36,33.8L501.82,41.19L507.27,35.38L512.73,41.72L518.18,38.55L523.64,36.96L529.09,31.68L534.55,32.21L540,32.21" style="vector-effect: non-scaling-stroke; fill: none; stroke: rgb(0, 191, 125); stroke-opacity: 1; stroke-width: 2px; opacity: 1;"/></g><g class="points"/><g class="text"/></g><g class="trace scatter trace85f919" style="stroke-miterlimit: 2; opacity: 1;"><g class="fills"/><g class="errorbars"/><g class="lines"><path class="js-line" d="M0,304.16L5.45,291.49L10.91,265.08L21.82,259.27L27.27,249.24L32.73,247.66L38.18,248.71L43.64,226.01L49.09,223.37L54.55,207.52L60,214.39L65.45,212.28L70.91,205.94L76.36,182.71L81.82,193.27L87.27,188.51L92.73,202.24L98.18,175.84L103.64,181.65L109.09,159.47L114.55,186.4L120,165.28L125.45,170.56L130.91,156.83L136.36,171.62L141.82,176.37L147.27,168.45L152.73,165.81L158.18,167.39L163.64,166.86L169.09,177.43L174.55,172.15L180,179.01L185.45,168.98L190.91,191.16L196.36,181.65L201.82,176.37L207.27,161.06L212.73,179.54L218.18,179.01L223.64,170.56L229.09,182.18L234.55,187.46L240,172.15L245.45,160.53L250.91,169.5L256.36,161.06L261.82,179.54L267.27,157.36L272.73,163.17L278.18,152.08L283.64,157.36L289.09,135.18L300,116.17L305.45,133.6L310.91,125.15L316.36,139.93L321.82,119.87L327.27,116.17L332.73,115.12L338.18,117.76L343.64,113.53L349.09,101.39L354.55,107.19L360,95.05L365.45,108.25L370.91,114.06L376.36,89.77L381.82,86.6L387.27,78.68L392.73,77.62L398.18,88.18L403.64,74.46L409.09,57.56L414.55,60.2L420,71.29L425.45,59.14L430.91,47.52L436.36,53.33L441.82,55.97L447.27,38.55L452.73,41.19L458.18,51.22L463.64,57.03L469.09,44.88L474.55,42.24L480,38.02L485.45,38.55L490.91,33.8L496.36,47L501.82,38.02L507.27,33.27L512.73,34.85L518.18,40.13L523.64,31.16L534.55,35.91L540,32.21" style="vector-effect: non-scaling-stroke; fill: none; stroke: rgb(0, 176, 246); stroke-opacity: 1; stroke-width: 2px; opacity: 1;"/></g><g class="points"/><g class="text"/></g><g class="trace scatter trace36078c" style="stroke-miterlimit: 2; opacity: 1;"><g class="fills"/><g class="errorbars"/><g class="lines"><path class="js-line" d="M0,306.27L5.45,289.37L10.91,280.4L16.36,261.39L21.82,248.71L27.27,251.35L32.73,244.49L38.18,230.76L43.64,236.57L49.09,220.2L54.55,218.09L60,215.45L65.45,205.41L70.91,192.21L76.36,196.96L81.82,184.82L87.27,208.05L92.73,191.68L98.18,193.8L103.64,199.08L109.09,187.99L114.55,199.08L120,184.82L125.45,194.85L130.91,199.6L136.36,207L141.82,195.38L147.27,201.72L152.73,193.8L158.18,203.83L163.64,177.43L169.09,194.32L174.55,200.13L180,193.8L185.45,195.91L190.91,194.85L196.36,195.38L201.82,186.93L207.27,196.44L218.18,208.05L223.64,205.94L229.09,191.68L234.55,204.36L240,200.66L245.45,205.94L250.91,193.27L256.36,176.9L261.82,172.67L267.27,172.15L272.73,171.62L278.18,168.45L283.64,167.92L289.09,165.28L294.55,165.28L300,162.11L305.45,168.98L310.91,150.5L316.36,146.8L321.82,154.72L327.27,139.93L332.73,146.8L338.18,140.99L343.64,152.08L349.09,136.77L354.55,136.77L360,132.01L365.45,129.9L370.91,108.78L376.36,131.49L381.82,114.59L387.27,124.09L392.73,112.48L398.18,115.64L403.64,127.26L409.09,103.5L414.55,105.61L420,86.6L425.45,104.55L430.91,76.57L436.36,73.93L441.82,91.35L447.27,70.76L452.73,86.6L458.18,79.21L463.64,78.15L469.09,62.84L474.55,70.23L480,81.85L485.45,83.96L490.91,71.82L496.36,85.54L501.82,68.12L507.27,63.89L512.73,72.87L518.18,68.12L523.64,71.29L529.09,68.12L534.55,69.7L540,63.37" style="vector-effect: non-scaling-stroke; fill: none; stroke: rgb(231, 107, 243); stroke-opacity: 1; stroke-width: 2px; opacity: 1;"/></g><g class="points"/><g class="text"/></g><g class="trace scatter trace31489d" style="stroke-miterlimit: 2; opacity: 1;"><g class="fills"/><g class="errorbars"/><g class="lines"><path class="js-line" d="M0,306.27L5.45,293.6L10.91,270.36L16.36,266.14L21.82,250.3L27.27,253.47L32.73,245.54L38.18,227.06L43.64,230.76L49.09,245.54L54.55,237.1L60,223.89L65.45,208.58L70.91,218.09L76.36,208.58L81.82,205.94L87.27,222.84L92.73,212.28L98.18,224.42L103.64,203.83L109.09,205.94L114.55,217.03L120,202.24L125.45,200.13L130.91,201.72L136.36,213.86L141.82,201.72L147.27,202.77L152.73,208.58L158.18,204.36L163.64,196.44L169.09,175.84L174.55,202.24L180,202.77L185.45,185.87L190.91,193.8L196.36,181.65L201.82,198.02L207.27,193.27L212.73,192.21L218.18,181.65L223.64,179.01L229.09,166.86L234.55,173.2L240,163.7L245.45,168.98L250.91,167.39L256.36,169.5L261.82,178.48L267.27,151.55L272.73,178.48L278.18,139.93L283.64,133.07L289.09,133.07L294.55,151.55L300,122.51L305.45,126.73L310.91,125.68L316.36,142.57L327.27,112.48L332.73,135.18L338.18,116.7L343.64,127.26L349.09,117.23L354.55,98.75L360,119.87L365.45,106.67L370.91,98.75L376.36,99.27L381.82,91.35L387.27,81.32L392.73,91.88L398.18,81.85L403.64,77.1L409.09,70.23L414.55,64.95L420,66.53L425.45,63.37L430.91,64.42L436.36,68.65L441.82,53.33L447.27,56.5L452.73,53.33L458.18,65.48L463.64,52.81L469.09,55.45L474.55,49.64L480,57.03L485.45,44.88L490.91,40.66L496.36,47.52L501.82,40.66L507.27,48.58L512.73,47L518.18,42.77L523.64,43.3L529.09,39.6L534.55,41.72L540,47" style="vector-effect: non-scaling-stroke; fill: none; stroke: rgb(248, 118, 109); stroke-opacity: 1; stroke-width: 2px; opacity: 1;"/></g><g class="points"/><g class="text"/></g><g class="trace scatter tracefdbdb2" style="stroke-miterlimit: 2; opacity: 1;"><g class="fills"/><g class="errorbars"/><g class="lines"><path class="js-line" d="M0,313.14L5.45,295.71L10.91,265.61L16.36,263.5L21.82,253.99L27.27,229.17L32.73,250.3L38.18,247.13L43.64,218.09L49.09,215.45L54.55,207L60,213.86L65.45,203.3L70.91,215.45L76.36,207L81.82,215.97L87.27,208.05L92.73,210.17L98.18,193.27L103.64,182.71L109.09,182.71L114.55,191.16L120,186.93L125.45,181.65L130.91,195.38L136.36,195.38L141.82,184.29L147.27,202.24L152.73,184.82L158.18,181.65L163.64,199.6L169.09,184.29L174.55,196.96L180,200.13L185.45,191.16L190.91,195.38L196.36,191.16L201.82,187.46L207.27,194.32L212.73,196.44L218.18,200.66L223.64,211.75L229.09,202.24L234.55,189.04L240,160.53L245.45,196.44L250.91,171.62L256.36,161.06L261.82,170.56L267.27,170.56L272.73,144.69L278.18,159.47L283.64,166.34L289.09,159.47L294.55,146.27L300,153.14L305.45,140.46L310.91,163.17L316.36,132.54L321.82,140.99L327.27,135.71L332.73,129.9L338.18,121.98L343.64,123.56L349.09,118.81L354.55,107.72L360,103.5L365.45,106.67L370.91,113L376.36,108.78L381.82,110.36L387.27,87.66L392.73,95.05L398.18,89.77L403.64,76.57L409.09,79.74L414.55,84.49L420,73.4L425.45,54.39L430.91,69.17L436.36,64.95L441.82,60.2L447.27,53.33L452.73,65.48L458.18,64.42L463.64,55.97L469.09,59.14L474.55,67.59L480,57.56L485.45,55.45L490.91,50.17L496.36,50.69L501.82,50.17L507.27,48.58L512.73,48.05L518.18,42.77L523.64,47.52L529.09,43.83L534.55,46.47L540,41.72" style="vector-effect: non-scaling-stroke; fill: none; stroke: rgb(163, 165, 0); stroke-opacity: 1; stroke-width: 2px; opacity: 1;"/></g><g class="points"/><g class="text"/></g><g class="trace scatter trace6a4e6d" style="stroke-miterlimit: 2; opacity: 1;"><g class="fills"/><g class="errorbars"/><g class="lines"><path class="js-line" d="M0,316.3L5.45,276.7L10.91,274.59L16.36,253.47L21.82,258.75L27.27,240.26L32.73,239.21L38.18,242.9L43.64,231.29L49.09,236.57L54.55,231.82L65.45,219.67L70.91,227.06L76.36,201.72L81.82,215.45L87.27,218.09L92.73,215.45L98.18,207.52L103.64,209.11L114.55,198.02L120,200.66L125.45,201.72L130.91,201.19L136.36,196.44L141.82,198.02L147.27,199.6L152.73,217.56L158.18,211.75L163.64,196.96L169.09,196.44L174.55,184.29L180,203.3L185.45,215.45L190.91,196.96L196.36,203.3L201.82,189.57L207.27,217.56L212.73,192.21L218.18,180.59L223.64,199.6L229.09,200.66L234.55,184.29L240,196.96L250.91,160.53L256.36,155.78L261.82,174.79L267.27,166.86L272.73,174.79L278.18,165.28L283.64,156.83L289.09,167.92L294.55,155.25L300,160L305.45,144.69L310.91,155.25L316.36,158.42L321.82,147.85L327.27,151.55L332.73,132.01L338.18,135.71L343.64,136.77L349.09,118.81L354.55,115.12L360,112.48L365.45,101.91L376.36,131.49L381.82,113L387.27,114.06L392.73,98.75L398.18,88.18L403.64,90.83L409.09,86.07L414.55,78.15L420,80.26L425.45,87.13L430.91,81.32L436.36,73.93L441.82,58.09L447.27,73.93L458.18,72.87L463.64,61.78L469.09,73.4L474.55,66.53L480,58.61L485.45,63.89L490.91,57.03L496.36,55.97L501.82,45.41L507.27,52.81L512.73,48.05L518.18,52.81L523.64,52.28L529.09,45.94L534.55,47L540,43.83" style="vector-effect: non-scaling-stroke; fill: none; stroke: rgb(0, 191, 125); stroke-opacity: 1; stroke-width: 2px; opacity: 1;"/></g><g class="points"/><g class="text"/></g><g class="trace scatter tracecc47bf" style="stroke-miterlimit: 2; opacity: 1;"><g class="fills"/><g class="errorbars"/><g class="lines"><path class="js-line" d="M0,307.85L5.45,300.46L10.91,277.23L21.82,259.8L27.27,243.43L32.73,239.21L38.18,236.57L43.64,237.62L49.09,221.78L54.55,215.45L60,218.61L65.45,185.35L70.91,208.58L76.36,185.35L81.82,186.93L87.27,180.59L92.73,176.9L98.18,152.61L103.64,167.39L109.09,168.45L114.55,177.43L120,156.83L125.45,169.5L130.91,168.45L136.36,164.75L141.82,155.25L147.27,168.98L152.73,169.5L158.18,144.69L169.09,180.07L174.55,165.28L180,176.37L185.45,159.47L190.91,177.95L196.36,172.67L201.82,176.37L207.27,177.95L212.73,174.26L218.18,158.94L223.64,174.79L229.09,172.67L234.55,152.08L240,178.48L245.45,172.15L250.91,172.67L256.36,151.55L261.82,163.17L267.27,159.47L272.73,166.34L278.18,150.5L283.64,151.02L289.09,151.02L294.55,135.18L300,139.41L305.45,132.01L310.91,142.05L316.36,117.76L321.82,139.93L327.27,106.14L332.73,124.09L338.18,109.31L343.64,93.47L349.09,98.75L354.55,106.67L360,103.5L365.45,102.97L370.91,92.41L376.36,92.41L381.82,79.74L387.27,80.26L392.73,104.55L398.18,96.11L403.64,77.1L409.09,81.32L414.55,72.87L420,73.93L425.45,70.23L430.91,64.42L436.36,63.37L441.82,64.42L447.27,50.17L452.73,50.17L458.18,57.03L463.64,50.17L469.09,50.17L474.55,44.36L480,49.11L485.45,41.72L490.91,36.44L496.36,43.83L501.82,47.52L507.27,40.66L512.73,35.38L518.18,36.96L523.64,41.72L529.09,35.91L534.55,34.85L540,26.4" style="vector-effect: non-scaling-stroke; fill: none; stroke: rgb(0, 176, 246); stroke-opacity: 1; stroke-width: 2px; opacity: 1;"/></g><g class="points"/><g class="text"/></g><g class="trace scatter trace92653b" style="stroke-miterlimit: 2; opacity: 1;"><g class="fills"/><g class="errorbars"/><g class="lines"><path class="js-line" d="M0,316.83L5.45,284.09L10.91,268.78L16.36,267.19L21.82,248.18L27.27,251.35L32.73,232.87L38.18,216.5L43.64,203.83L49.09,199.6L54.55,174.26L60,185.87L65.45,183.23L70.91,175.84L76.36,171.62L81.82,153.66L87.27,170.03L92.73,160L98.18,162.11L103.64,169.5L109.09,156.83L114.55,173.2L120,150.5L125.45,167.39L130.91,157.36L136.36,155.25L141.82,148.91L147.27,158.42L152.73,150.5L158.18,173.73L163.64,168.98L174.55,164.75L180,158.42L185.45,186.93L190.91,169.5L196.36,167.39L201.82,176.37L207.27,185.35L212.73,175.84L218.18,175.84L223.64,168.98L229.09,163.17L234.55,162.11L240,161.58L245.45,160L250.91,156.83L256.36,157.89L261.82,145.21L267.27,145.21L272.73,154.72L278.18,161.06L283.64,144.69L289.09,140.46L294.55,127.79L300,126.2L305.45,127.26L310.91,138.88L316.36,120.92L321.82,118.28L327.27,130.96L332.73,120.4L338.18,109.83L343.64,106.14L349.09,128.84L354.55,118.81L360,108.25L365.45,116.17L370.91,96.63L376.36,93.99L381.82,113.53L387.27,101.39L392.73,98.75L398.18,82.9L403.64,76.04L409.09,82.9L420,82.38L425.45,80.26L430.91,70.76L436.36,64.95L441.82,65.48L447.27,71.82L452.73,68.12L458.18,63.37L463.64,60.73L469.09,63.37L474.55,70.23L480,52.28L485.45,59.67L490.91,58.61L496.36,57.03L501.82,50.17L507.27,57.03L512.73,51.75L518.18,59.67L523.64,44.88L534.55,45.41L540,43.83" style="vector-effect: non-scaling-stroke; fill: none; stroke: rgb(231, 107, 243); stroke-opacity: 1; stroke-width: 2px; opacity: 1;"/></g><g class="points"/><g class="text"/></g><g class="trace scatter tracec65955" style="stroke-miterlimit: 2; opacity: 1;"><g class="fills"/><g class="errorbars"/><g class="lines"><path class="js-line" d="M0,304.69L5.45,286.2L10.91,281.98L16.36,274.59L21.82,275.12L27.27,258.22L32.73,251.35L38.18,242.38L43.64,238.15L49.09,234.98L54.55,213.33L60,212.81L65.45,197.49L70.91,186.93L76.36,188.51L81.82,180.07L87.27,177.95L92.73,171.09L98.18,162.64L109.09,181.12L114.55,176.37L120,172.15L125.45,161.06L130.91,174.26L136.36,148.91L141.82,160L147.27,173.73L152.73,168.98L158.18,163.17L163.64,175.84L169.09,156.83L174.55,166.86L180,164.22L185.45,171.62L190.91,183.23L196.36,175.84L201.82,178.48L207.27,175.31L212.73,185.87L218.18,172.67L223.64,171.09L229.09,183.23L234.55,162.64L240,158.94L245.45,179.54L256.36,148.91L261.82,148.91L267.27,146.8L272.73,130.96L278.18,154.19L283.64,137.29L289.09,143.63L294.55,131.49L300,129.9L305.45,119.34L310.91,110.89L316.36,116.7L321.82,129.9L327.27,105.61L332.73,113.53L338.18,124.09L343.64,111.95L349.09,119.87L354.55,88.71L360,97.69L365.45,85.02L370.91,89.24L376.36,77.62L381.82,86.6L387.27,83.96L392.73,74.98L398.18,72.34L403.64,74.46L409.09,61.25L414.55,55.97L420,63.37L425.45,42.24L430.91,55.45L436.36,55.45L441.82,37.49L447.27,41.72L452.73,49.64L458.18,44.88L463.64,47L469.09,33.8L474.55,41.72L480,37.49L485.45,41.19L490.91,38.55L501.82,31.68L507.27,27.99L512.73,30.63L518.18,23.23L523.64,19.01L529.09,26.93L534.55,27.99L540,23.76" style="vector-effect: non-scaling-stroke; fill: none; stroke: rgb(248, 118, 109); stroke-opacity: 1; stroke-width: 2px; opacity: 1;"/></g><g class="points"/><g class="text"/></g><g class="trace scatter trace67cbc7" style="stroke-miterlimit: 2; opacity: 1;"><g class="fills"/><g class="errorbars"/><g class="lines"><path class="js-line" d="M0,305.74L5.45,280.4L10.91,273.53L16.36,284.62L21.82,260.86L27.27,245.02L32.73,247.66L38.18,238.15L43.64,239.21L49.09,196.44L54.55,205.94L60,185.35L65.45,207L70.91,201.19L76.36,176.9L81.82,198.02L87.27,174.79L92.73,171.62L98.18,185.35L103.64,188.51L109.09,182.18L114.55,175.31L120,158.94L125.45,142.05L130.91,140.46L136.36,137.29L141.82,135.71L152.73,142.05L158.18,139.41L163.64,151.02L169.09,134.13L174.55,143.1L180,161.58L185.45,144.16L190.91,134.65L196.36,137.82L201.82,149.97L207.27,142.57L212.73,128.84L218.18,182.18L223.64,160.53L229.09,134.13L234.55,140.99L240,148.38L245.45,151.55L250.91,137.29L256.36,130.96L261.82,119.34L267.27,132.01L272.73,132.54L278.18,116.7L283.64,135.18L289.09,125.15L294.55,138.88L300,109.31L305.45,107.72L310.91,117.23L316.36,110.36L321.82,98.75L327.27,108.25L332.73,81.32L338.18,107.72L343.64,106.14L349.09,98.22L354.55,76.04L360,85.54L365.45,70.23L370.91,83.43L376.36,66.01L381.82,70.23L387.27,65.48L392.73,66.53L398.18,61.25L403.64,56.5L409.09,54.39L414.55,44.36L420,45.94L425.45,25.35L430.91,37.49L436.36,33.8L441.82,22.71L447.27,32.21L452.73,29.57L458.18,40.13L463.64,29.04L469.09,24.82L474.55,15.31L480,23.23L485.45,25.87L496.36,21.65L501.82,8.45L507.27,11.09L512.73,25.35L523.64,9.5L529.09,8.98L534.55,6.34L540,9.5" style="vector-effect: non-scaling-stroke; fill: none; stroke: rgb(163, 165, 0); stroke-opacity: 1; stroke-width: 2px; opacity: 1;"/></g><g class="points"/><g class="text"/></g><g class="trace scatter tracebc24f9" style="stroke-miterlimit: 2; opacity: 1;"><g class="fills"/><g class="errorbars"/><g class="lines"><path class="js-line" d="M0,314.72L5.45,287.79L10.91,278.81L16.36,250.83L21.82,260.33L27.27,240.26L32.73,239.74L38.18,222.31L43.64,221.78L49.09,228.12L54.55,221.78L60,218.09L65.45,194.32L70.91,196.44L76.36,177.95L81.82,185.35L87.27,166.86L92.73,170.03L98.18,186.93L103.64,158.42L109.09,164.75L114.55,166.86L120,156.3L125.45,171.09L130.91,154.72L136.36,148.38L141.82,139.93L147.27,176.37L152.73,164.22L158.18,161.06L163.64,142.57L169.09,145.74L174.55,159.47L180,151.55L185.45,152.08L190.91,158.42L196.36,168.98L201.82,173.2L207.27,172.15L212.73,158.42L218.18,156.83L223.64,153.14L229.09,150.5L234.55,166.86L240,149.44L245.45,137.82L250.91,135.71L256.36,154.19L261.82,140.46L267.27,145.21L272.73,155.25L278.18,112.48L283.64,134.65L289.09,127.79L294.55,116.7L300,123.04L305.45,111.95L310.91,120.92L316.36,89.77L332.73,110.89L338.18,107.72L343.64,89.77L349.09,78.68L354.55,82.9L360,97.16L365.45,89.77L370.91,104.55L376.36,79.74L381.82,85.54L387.27,76.57L392.73,71.82L398.18,71.29L403.64,74.98L409.09,63.37L414.55,54.39L420,71.29L425.45,50.17L436.36,53.86L441.82,52.81L447.27,55.45L452.73,55.45L458.18,47.52L463.64,42.24L469.09,43.83L474.55,48.05L480,48.05L485.45,36.96L490.91,38.02L496.36,41.19L501.82,42.24L507.27,34.32L512.73,39.08L518.18,45.41L523.64,35.91L529.09,29.57L534.55,39.08L540,26.93" style="vector-effect: non-scaling-stroke; fill: none; stroke: rgb(0, 191, 125); stroke-opacity: 1; stroke-width: 2px; opacity: 1;"/></g><g class="points"/><g class="text"/></g><g class="trace scatter trace1b8e72" style="stroke-miterlimit: 2; opacity: 1;"><g class="fills"/><g class="errorbars"/><g class="lines"><path class="js-line" d="M0,308.91L5.45,301.52L10.91,277.23L16.36,261.91L21.82,259.27L27.27,250.83L32.73,239.74L38.18,231.29L43.64,224.95L49.09,214.92L54.55,224.95L60,221.78L65.45,212.81L70.91,206.47L76.36,196.44L81.82,191.68L87.27,182.18L92.73,165.28L98.18,173.73L103.64,165.81L109.09,168.45L114.55,164.22L120,136.77L125.45,172.67L130.91,153.66L136.36,175.31L141.82,180.07L147.27,170.03L152.73,150.5L158.18,174.26L163.64,157.89L174.55,162.11L180,151.55L190.91,172.67L196.36,158.94L201.82,176.9L207.27,164.75L212.73,157.36L218.18,166.34L223.64,167.92L229.09,165.28L234.55,155.78L240,168.45L245.45,169.5L250.91,143.63L256.36,132.54L261.82,157.89L267.27,158.94L272.73,151.55L278.18,146.8L283.64,140.99L289.09,135.18L294.55,154.72L300,145.74L305.45,134.65L310.91,146.8L316.36,121.45L321.82,129.37L327.27,130.96L332.73,127.26L338.18,128.32L343.64,120.4L349.09,114.59L354.55,115.64L360,110.89L365.45,117.23L370.91,110.36L376.36,100.86L381.82,89.77L387.27,87.13L392.73,89.24L398.18,82.38L403.64,80.26L409.09,87.66L414.55,100.33L420,72.87L425.45,88.71L430.91,81.32L436.36,76.57L441.82,69.7L447.27,68.65L452.73,56.5L458.18,66.53L463.64,63.37L469.09,61.78L474.55,60.2L480,67.59L485.45,59.14L490.91,61.25L496.36,70.23L501.82,64.95L507.27,51.75L512.73,48.58L518.18,53.86L523.64,49.11L529.09,52.81L534.55,50.69L540,51.22" style="vector-effect: non-scaling-stroke; fill: none; stroke: rgb(0, 176, 246); stroke-opacity: 1; stroke-width: 2px; opacity: 1;"/></g><g class="points"/><g class="text"/></g><g class="trace scatter trace3f7970" style="stroke-miterlimit: 2; opacity: 1;"><g class="fills"/><g class="errorbars"/><g class="lines"><path class="js-line" d="M0,307.85L5.45,303.1L10.91,265.61L16.36,273L21.82,258.22L27.27,239.74L32.73,252.94L38.18,235.51L43.64,234.98L49.09,210.17L54.55,195.91L60,184.82L65.45,193.27L70.91,180.07L76.36,173.2L87.27,158.94L92.73,174.79L98.18,170.56L103.64,177.95L109.09,183.76L114.55,158.94L120,167.92L125.45,164.75L130.91,177.95L136.36,163.17L141.82,170.56L147.27,167.39L152.73,182.71L158.18,164.22L163.64,170.03L169.09,183.23L174.55,186.93L180,179.01L185.45,180.59L190.91,174.26L196.36,160.53L201.82,168.45L207.27,175.84L212.73,195.91L218.18,182.18L223.64,197.49L229.09,155.25L234.55,182.71L240,165.28L245.45,150.5L250.91,162.64L256.36,164.22L261.82,160.53L267.27,158.42L272.73,148.38L278.18,147.85L283.64,152.61L289.09,154.19L294.55,146.27L300,142.57L305.45,139.93L310.91,142.57L316.36,122.51L321.82,119.34L327.27,131.49L332.73,129.9L338.18,117.76L343.64,128.32L349.09,89.24L354.55,117.76L360,109.31L365.45,102.44L370.91,111.95L376.36,103.5L381.82,107.19L387.27,97.16L392.73,96.63L398.18,74.46L403.64,83.96L409.09,72.34L414.55,80.26L420,74.46L425.45,51.22L430.91,45.94L436.36,49.11L441.82,54.92L447.27,45.41L452.73,57.56L463.64,52.81L469.09,53.33L474.55,49.11L480,40.66L485.45,45.94L490.91,49.64L496.36,45.41L501.82,42.77L507.27,42.24L512.73,40.13L518.18,42.77L523.64,41.72L529.09,44.36L534.55,41.19L540,44.88" style="vector-effect: non-scaling-stroke; fill: none; stroke: rgb(231, 107, 243); stroke-opacity: 1; stroke-width: 2px; opacity: 1;"/></g><g class="points"/><g class="text"/></g><g class="trace scatter traceaaaf86" style="stroke-miterlimit: 2; opacity: 1;"><g class="fills"/><g class="errorbars"/><g class="lines"><path class="js-line" d="M0,315.25L5.45,302.57L10.91,269.83L16.36,270.89L21.82,270.89L27.27,242.9L32.73,250.3L38.18,243.43L43.64,231.82L49.09,224.95L54.55,239.21L60,211.22L65.45,209.11L70.91,217.56L76.36,212.28L81.82,193.27L87.27,197.49L92.73,185.35L98.18,180.07L103.64,167.39L109.09,165.81L114.55,152.08L120,157.36L125.45,167.92L130.91,156.83L136.36,167.39L141.82,154.19L147.27,132.54L152.73,162.11L158.18,146.8L163.64,157.36L169.09,149.44L174.55,151.55L180,152.61L185.45,167.92L190.91,157.89L196.36,156.83L201.82,151.02L207.27,152.61L212.73,161.06L218.18,175.31L229.09,139.93L234.55,143.1L240,153.14L245.45,161.06L250.91,162.64L256.36,139.41L261.82,148.91L267.27,155.25L272.73,134.13L278.18,142.57L283.64,131.49L289.09,136.24L294.55,125.15L300,144.16L305.45,123.56L310.91,130.96L316.36,114.06L321.82,107.72L327.27,114.06L332.73,106.67L338.18,109.31L343.64,91.35L349.09,95.05L354.55,82.9L360,83.43L365.45,77.62L370.91,81.85L376.36,76.57L381.82,80.26L387.27,55.97L392.73,66.53L398.18,64.42L403.64,52.81L409.09,31.68L414.55,54.92L420,44.36L425.45,28.51L430.91,51.75L436.36,30.63L441.82,16.9L447.27,32.21L452.73,30.1L458.18,34.32L463.64,23.76L469.09,26.93L474.55,23.76L480,15.31L485.45,24.82L490.91,14.79L496.36,18.48L501.82,12.67L507.27,15.31L512.73,20.07L518.18,13.73L523.64,10.56L529.09,14.79L534.55,14.79L540,8.45" style="vector-effect: non-scaling-stroke; fill: none; stroke: rgb(248, 118, 109); stroke-opacity: 1; stroke-width: 2px; opacity: 1;"/></g><g class="points"/><g class="text"/></g><g class="trace scatter trace69d979" style="stroke-miterlimit: 2; opacity: 1;"><g class="fills"/><g class="errorbars"/><g class="lines"><path class="js-line" d="M0,315.25L5.45,283.04L10.91,268.78L16.36,269.31L21.82,255.05L32.73,238.15L38.18,236.04L43.64,214.92L49.09,209.11L54.55,209.64L60,187.99L65.45,177.43L70.91,193.8L76.36,180.07L81.82,184.29L87.27,188.51L92.73,156.3L98.18,172.15L103.64,169.5L109.09,181.12L114.55,169.5L120,177.95L125.45,179.01L130.91,180.59L136.36,171.62L141.82,157.36L147.27,179.01L152.73,174.26L158.18,179.01L163.64,158.42L169.09,173.73L174.55,181.12L180,183.23L185.45,165.28L190.91,173.2L196.36,166.34L201.82,173.2L207.27,190.63L212.73,174.79L218.18,171.62L223.64,180.59L229.09,151.55L234.55,158.94L240,182.71L245.45,151.55L250.91,150.5L256.36,160L261.82,146.27L267.27,157.36L278.18,139.41L283.64,149.44L289.09,145.74L294.55,144.69L300,149.97L305.45,138.35L310.91,114.06L316.36,140.46L321.82,110.36L327.27,123.56L332.73,116.17L338.18,105.08L343.64,115.64L349.09,102.97L354.55,113L360,112.48L365.45,101.39L370.91,113.53L376.36,101.39L381.82,93.47L387.27,91.35L392.73,65.48L398.18,67.59L403.64,90.3L409.09,63.37L414.55,85.54L420,52.81L425.45,77.1L436.36,44.36L441.82,55.45L447.27,48.05L452.73,57.03L458.18,47L463.64,51.22L469.09,49.64L474.55,54.92L485.45,39.08L490.91,44.36L496.36,48.05L501.82,49.11L507.27,40.13L512.73,26.93L518.18,33.27L523.64,33.8L529.09,36.96L534.55,32.74L540,33.27" style="vector-effect: non-scaling-stroke; fill: none; stroke: rgb(163, 165, 0); stroke-opacity: 1; stroke-width: 2px; opacity: 1;"/></g><g class="points"/><g class="text"/></g><g class="trace scatter trace4f3a4c" style="stroke-miterlimit: 2; opacity: 1;"><g class="fills"/><g class="errorbars"/><g class="lines"><path class="js-line" d="M0,312.08L10.91,269.31L16.36,260.86L21.82,252.94L27.27,250.83L32.73,234.98L38.18,240.26L43.64,222.31L49.09,221.25L54.55,235.51L60,224.42L65.45,224.42L70.91,212.28L76.36,215.45L81.82,189.04L92.73,195.91L98.18,185.87L103.64,200.66L109.09,203.3L120,194.85L125.45,194.85L130.91,200.66L136.36,200.13L141.82,211.75L147.27,180.07L152.73,192.74L158.18,201.72L163.64,201.19L169.09,201.72L174.55,192.74L180,200.13L185.45,180.07L190.91,194.85L196.36,181.65L201.82,198.02L207.27,198.02L212.73,203.83L218.18,201.72L223.64,184.29L229.09,190.63L234.55,177.95L240,164.75L245.45,194.85L250.91,183.76L256.36,178.48L261.82,181.12L267.27,168.98L272.73,156.83L278.18,163.7L283.64,173.2L289.09,184.82L294.55,167.92L300,158.42L305.45,151.02L310.91,130.96L316.36,154.19L321.82,135.71L327.27,136.24L332.73,156.3L338.18,117.76L343.64,118.28L349.09,114.06L354.55,121.45L360,121.98L365.45,117.76L370.91,119.87L376.36,114.06L381.82,108.78L387.27,130.43L392.73,106.14L398.18,106.14L403.64,99.8L409.09,88.18L414.55,89.24L420,83.96L425.45,85.54L430.91,68.65L436.36,71.29L441.82,79.74L447.27,74.46L452.73,64.95L458.18,69.17L463.64,76.57L474.55,60.73L480,72.34L485.45,72.87L490.91,68.12L496.36,64.42L501.82,70.23L507.27,61.78L512.73,63.37L518.18,67.59L523.64,63.89L529.09,61.25L534.55,62.31L540,59.67" style="vector-effect: non-scaling-stroke; fill: none; stroke: rgb(0, 191, 125); stroke-opacity: 1; stroke-width: 2px; opacity: 1;"/></g><g class="points"/><g class="text"/></g><g class="trace scatter trace2eaffa" style="stroke-miterlimit: 2; opacity: 1;"><g class="fills"/><g class="errorbars"/><g class="lines"><path class="js-line" d="M0,310.5L5.45,289.9L10.91,263.5L16.36,267.19L21.82,259.8L27.27,240.79L32.73,250.83L38.18,242.9L43.64,229.7L54.55,217.03L60,212.81L65.45,208.58L70.91,213.33L76.36,211.75L81.82,205.41L92.73,201.72L98.18,199.08L103.64,183.76L109.09,179.01L114.55,164.22L120,178.48L125.45,156.83L130.91,168.45L141.82,164.22L147.27,152.08L158.18,170.03L163.64,153.66L169.09,174.79L174.55,174.79L180,163.17L185.45,187.46L190.91,172.67L196.36,183.23L201.82,179.01L207.27,165.28L212.73,183.23L218.18,167.39L223.64,164.75L229.09,170.56L234.55,167.39L240,170.56L245.45,140.99L250.91,164.22L256.36,140.99L261.82,142.57L267.27,134.65L272.73,147.33L278.18,136.77L283.64,116.17L289.09,132.01L294.55,107.72L300,120.4L305.45,123.04L310.91,135.18L316.36,114.06L321.82,108.25L327.27,106.14L332.73,89.24L338.18,113.53L343.64,101.39L349.09,98.22L354.55,116.7L360,80.79L365.45,96.63L370.91,106.67L376.36,97.16L381.82,85.02L387.27,75.51L392.73,76.04L398.18,58.61L403.64,51.75L409.09,61.78L414.55,55.45L420,39.6L425.45,44.88L430.91,45.41L436.36,38.55L441.82,38.02L447.27,33.27L452.73,45.41L458.18,29.04L463.64,40.13L469.09,32.74L474.55,29.57L480,34.85L485.45,31.68L490.91,19.01L496.36,26.93L501.82,21.65L507.27,31.16L512.73,29.57L518.18,21.65L523.64,24.29L529.09,24.29L534.55,22.71L540,16.9" style="vector-effect: non-scaling-stroke; fill: none; stroke: rgb(0, 176, 246); stroke-opacity: 1; stroke-width: 2px; opacity: 1;"/></g><g class="points"/><g class="text"/></g><g class="trace scatter trace1f1dbd" style="stroke-miterlimit: 2; opacity: 1;"><g class="fills"/><g class="errorbars"/><g class="lines"><path class="js-line" d="M0,312.61L16.36,266.14L21.82,260.33L27.27,263.5L32.73,242.9L38.18,258.22L43.64,241.32L49.09,217.56L54.55,220.2L60,219.67L65.45,203.3L70.91,206.47L76.36,204.36L81.82,187.99L87.27,205.94L92.73,187.46L98.18,198.02L103.64,210.17L109.09,178.48L114.55,193.27L120,179.01L125.45,174.26L130.91,173.73L136.36,187.46L141.82,177.95L147.27,175.84L152.73,176.37L158.18,180.59L163.64,179.01L169.09,170.56L174.55,179.54L180,198.02L185.45,181.65L190.91,204.88L196.36,196.96L201.82,206.47L207.27,196.96L212.73,195.38L218.18,187.99L223.64,179.54L229.09,185.35L234.55,162.11L240,171.09L245.45,161.58L250.91,175.84L256.36,172.67L261.82,171.09L267.27,177.43L272.73,163.17L278.18,164.75L283.64,151.55L289.09,149.44L294.55,169.5L300,127.79L305.45,126.73L310.91,120.4L316.36,135.18L321.82,151.02L327.27,128.84L332.73,106.14L338.18,125.15L343.64,128.32L349.09,109.83L354.55,106.67L360,111.95L365.45,115.64L370.91,115.64L376.36,116.7L381.82,97.69L387.27,93.47L392.73,107.72L398.18,89.77L403.64,82.9L409.09,87.13L414.55,82.9L420,72.87L425.45,80.26L436.36,55.45L441.82,68.65L447.27,61.25L452.73,57.03L458.18,46.47L463.64,43.83L469.09,64.95L474.55,50.69L480,45.41L485.45,53.33L490.91,51.22L496.36,47.52L501.82,47L507.27,49.64L512.73,44.36L518.18,43.3L523.64,37.49L529.09,42.77L534.55,36.44L540,40.13" style="vector-effect: non-scaling-stroke; fill: none; stroke: rgb(231, 107, 243); stroke-opacity: 1; stroke-width: 2px; opacity: 1;"/></g><g class="points"/><g class="text"/></g><g class="trace scatter trace6cb4b1" style="stroke-miterlimit: 2; opacity: 1;"><g class="fills"/><g class="errorbars"/><g class="lines"><path class="js-line" d="M0,308.91L5.45,284.62L10.91,284.09L16.36,258.22L21.82,258.75L27.27,252.41L32.73,251.88L38.18,251.88L43.64,228.12L54.55,197.49L60,192.74L65.45,171.62L70.91,182.18L76.36,181.65L81.82,168.45L87.27,164.75L92.73,159.47L98.18,169.5L103.64,160L109.09,153.66L114.55,164.75L120,138.35L125.45,174.26L130.91,153.66L136.36,155.25L141.82,153.14L147.27,170.03L152.73,143.63L158.18,156.83L163.64,160.53L169.09,157.89L174.55,153.14L180,160L185.45,158.42L190.91,182.71L196.36,187.99L201.82,175.31L207.27,189.04L212.73,169.5L218.18,167.39L223.64,179.01L234.55,158.94L240,178.48L245.45,178.48L250.91,175.84L256.36,145.74L261.82,163.7L267.27,163.17L272.73,135.71L278.18,148.91L283.64,142.05L294.55,112.48L300,136.24L305.45,146.27L310.91,136.24L316.36,125.15L321.82,149.97L327.27,104.03L332.73,128.84L338.18,106.67L343.64,93.47L349.09,129.37L354.55,123.56L360,102.97L365.45,101.91L370.91,116.7L376.36,95.05L381.82,104.55L387.27,89.77L392.73,88.71L398.18,100.33L403.64,89.24L409.09,90.3L414.55,88.71L420,77.62L425.45,59.67L430.91,81.85L436.36,67.59L441.82,69.17L447.27,71.82L452.73,55.97L458.18,55.97L463.64,60.2L469.09,61.25L474.55,54.92L485.45,40.13L490.91,53.33L496.36,33.8L501.82,44.36L507.27,43.83L512.73,45.41L518.18,42.77L523.64,36.44L529.09,38.02L534.55,42.24L540,35.38" style="vector-effect: non-scaling-stroke; fill: none; stroke: rgb(248, 118, 109); stroke-opacity: 1; stroke-width: 2px; opacity: 1;"/></g><g class="points"/><g class="text"/></g><g class="trace scatter trace335c7f" style="stroke-miterlimit: 2; opacity: 1;"><g class="fills"/><g class="errorbars"/><g class="lines"><path class="js-line" d="M0,311.55L5.45,286.2L10.91,293.07L16.36,273.53L21.82,269.31L27.27,263.5L32.73,248.18L38.18,247.13L43.64,224.95L49.09,217.56L54.55,220.2L60,214.39L65.45,219.67L70.91,206.47L76.36,195.91L81.82,213.33L87.27,201.19L92.73,196.44L98.18,195.38L109.09,178.48L114.55,190.1L120,169.5L125.45,162.11L130.91,173.73L136.36,169.5L141.82,162.64L147.27,152.61L152.73,163.17L158.18,180.07L163.64,167.92L169.09,159.47L174.55,175.84L180,174.79L185.45,180.07L190.91,170.03L196.36,182.71L201.82,183.76L207.27,172.67L212.73,175.84L218.18,165.28L223.64,174.26L229.09,184.29L234.55,187.99L240,166.86L245.45,149.44L250.91,172.67L256.36,139.41L261.82,158.42L267.27,155.78L272.73,167.39L278.18,139.41L283.64,147.33L289.09,133.07L294.55,146.8L300,149.44L305.45,130.43L310.91,135.71L316.36,126.2L321.82,137.29L327.27,123.04L332.73,134.65L343.64,117.76L349.09,116.7L354.55,133.07L360,115.12L365.45,114.06L370.91,104.55L376.36,107.72L381.82,113.53L387.27,97.69L392.73,79.21L398.18,97.16L403.64,96.11L414.55,88.18L420,64.95L425.45,70.23L430.91,70.23L441.82,69.17L447.27,62.31L452.73,76.04L458.18,60.73L463.64,56.5L469.09,60.73L474.55,70.76L480,58.09L485.45,60.73L490.91,60.2L496.36,60.2L501.82,67.06L507.27,60.2L512.73,61.78L518.18,54.39L523.64,57.03L534.55,57.56L540,58.09" style="vector-effect: non-scaling-stroke; fill: none; stroke: rgb(163, 165, 0); stroke-opacity: 1; stroke-width: 2px; opacity: 1;"/></g><g class="points"/><g class="text"/></g><g class="trace scatter tracef533db" style="stroke-miterlimit: 2; opacity: 1;"><g class="fills"/><g class="errorbars"/><g class="lines"><path class="js-line" d="M0,311.55L5.45,291.49L10.91,275.64L16.36,279.87L21.82,253.47L27.27,252.41L32.73,249.77L38.18,246.07L43.64,223.89L49.09,213.33L54.55,226.01L60,218.09L65.45,199.6L70.91,191.16L76.36,199.08L81.82,172.67L87.27,180.59L92.73,191.68L98.18,171.62L103.64,179.01L109.09,164.75L114.55,171.62L120,154.19L125.45,175.31L130.91,161.06L136.36,167.92L141.82,156.3L147.27,148.91L152.73,149.97L158.18,169.5L163.64,146.8L169.09,164.75L174.55,156.83L180,168.45L185.45,145.21L190.91,165.81L196.36,170.56L201.82,170.56L207.27,165.81L212.73,162.64L218.18,177.43L223.64,189.04L229.09,172.67L234.55,158.94L240,161.06L245.45,171.62L250.91,146.27L256.36,153.66L261.82,150.5L267.27,154.19L272.73,144.16L278.18,156.3L283.64,125.68L289.09,113L294.55,121.98L300,130.43L305.45,120.92L310.91,112.48L316.36,98.75L321.82,117.76L327.27,109.83L332.73,94.52L338.18,108.25L343.64,109.31L349.09,81.85L354.55,86.6L360,73.4L365.45,71.82L370.91,80.26L376.36,79.74L381.82,72.87L387.27,57.03L392.73,52.81L398.18,78.15L403.64,64.95L409.09,50.17L414.55,60.2L420,43.3L425.45,38.02L430.91,34.32L436.36,35.38L441.82,41.72L447.27,27.99L452.73,27.46L458.18,34.32L463.64,34.32L469.09,31.68L474.55,27.46L480,25.35L485.45,34.32L490.91,27.99L496.36,29.57L501.82,32.21L507.27,25.87L512.73,29.04L518.18,28.51L523.64,16.9L529.09,21.65L534.55,16.37L540,17.95" style="vector-effect: non-scaling-stroke; fill: none; stroke: rgb(0, 191, 125); stroke-opacity: 1; stroke-width: 2px; opacity: 1;"/></g><g class="points"/><g class="text"/></g><g class="trace scatter traceadb0c9" style="stroke-miterlimit: 2; opacity: 1;"><g class="fills"/><g class="errorbars"/><g class="lines"><path class="js-line" d="M0,302.05L5.45,295.18L10.91,284.09L16.36,261.39L21.82,259.8L32.73,229.17L38.18,239.21L43.64,234.46L49.09,223.89L54.55,238.68L60,225.48L65.45,222.84L70.91,207L76.36,213.33L81.82,204.36L87.27,200.13L92.73,190.1L98.18,200.13L103.64,197.49L109.09,211.22L114.55,192.21L120,202.24L125.45,185.87L130.91,166.34L136.36,205.41L141.82,165.81L147.27,151.55L152.73,170.03L158.18,167.92L163.64,181.12L169.09,177.95L174.55,191.16L180,164.75L185.45,179.01L190.91,174.26L196.36,179.54L201.82,176.9L207.27,188.51L212.73,176.9L218.18,182.18L223.64,170.56L234.55,174.26L240,152.08L245.45,167.39L250.91,140.99L256.36,175.31L261.82,162.11L272.73,133.07L278.18,138.35L283.64,150.5L289.09,166.34L294.55,124.09L300,146.27L305.45,130.96L310.91,140.99L316.36,118.28L321.82,125.15L327.27,132.54L332.73,123.04L338.18,127.79L343.64,97.16L349.09,116.7L354.55,105.08L365.45,113L370.91,104.03L376.36,92.41L381.82,102.97L387.27,89.24L392.73,71.29L398.18,85.54L403.64,74.98L409.09,74.46L414.55,76.57L420,78.15L425.45,70.23L430.91,74.46L436.36,69.17L441.82,62.84L447.27,66.53L452.73,51.22L458.18,54.92L463.64,62.31L469.09,64.42L474.55,55.45L480,65.48L485.45,53.86L490.91,60.2L496.36,51.75L501.82,56.5L507.27,57.56L512.73,55.45L518.18,58.61L523.64,45.94L529.09,44.88L534.55,36.96L540,40.66" style="vector-effect: non-scaling-stroke; fill: none; stroke: rgb(0, 176, 246); stroke-opacity: 1; stroke-width: 2px; opacity: 1;"/></g><g class="points"/><g class="text"/></g><g class="trace scatter trace49853f" style="stroke-miterlimit: 2; opacity: 1;"><g class="fills"/><g class="errorbars"/><g class="lines"><path class="js-line" d="M0,300.46L5.45,292.01L10.91,278.28L16.36,258.22L21.82,264.55L27.27,247.66L32.73,240.79L38.18,245.02L43.64,244.49L49.09,197.49L54.55,218.61L60,205.94L65.45,208.05L70.91,215.97L76.36,192.21L87.27,160.53L92.73,176.37L98.18,165.28L103.64,177.43L109.09,170.56L114.55,149.44L120,142.57L125.45,165.81L130.91,169.5L136.36,151.02L141.82,170.03L147.27,171.62L152.73,181.12L158.18,167.92L163.64,174.26L169.09,164.22L174.55,168.45L180,161.06L185.45,175.84L190.91,195.38L196.36,165.81L201.82,172.67L207.27,164.75L212.73,179.01L218.18,177.95L223.64,177.95L229.09,161.58L234.55,165.81L240,173.73L245.45,163.7L250.91,175.84L256.36,164.75L261.82,158.42L267.27,159.47L272.73,148.91L278.18,162.64L283.64,146.27L289.09,157.36L294.55,137.82L300,153.14L305.45,143.1L310.91,145.74L316.36,144.16L321.82,122.51L327.27,129.37L332.73,141.52L338.18,148.91L343.64,132.54L349.09,138.35L354.55,133.07L360,133.6L365.45,119.34L370.91,105.08L376.36,106.67L381.82,98.75L387.27,113.53L392.73,88.71L398.18,101.39L409.09,93.99L414.55,98.22L420,99.27L425.45,78.15L430.91,74.98L436.36,82.38L441.82,68.65L447.27,92.94L452.73,65.48L458.18,79.21L463.64,63.89L469.09,73.93L474.55,66.53L480,70.23L485.45,76.04L490.91,67.59L496.36,62.84L501.82,62.84L507.27,63.89L512.73,63.89L518.18,68.65L523.64,62.31L529.09,53.33L534.55,56.5L540,55.45" style="vector-effect: non-scaling-stroke; fill: none; stroke: rgb(231, 107, 243); stroke-opacity: 1; stroke-width: 2px; opacity: 1;"/></g><g class="points"/><g class="text"/></g></g></g><g class="overplot"/><path class="xlines-above crisp" d="" style="fill: none; stroke-width: 1px; stroke: rgb(0, 0, 0); stroke-opacity: 0;"/><path class="ylines-above crisp" d="" style="fill: none; stroke-width: 1px; stroke: rgb(0, 0, 0); stroke-opacity: 0;"/><g class="overlines-above"/><g class="xaxislayer-above"><path class="xtick ticks crisp" d="M0,421v5" transform="translate(80,0)" style="stroke: rgb(51, 51, 51); stroke-opacity: 1; stroke-width: 1px;"/><path class="xtick ticks crisp" d="M0,421v5" transform="translate(189.09,0)" style="stroke: rgb(51, 51, 51); stroke-opacity: 1; stroke-width: 1px;"/><path class="xtick ticks crisp" d="M0,421v5" transform="translate(298.18,0)" style="stroke: rgb(51, 51, 51); stroke-opacity: 1; stroke-width: 1px;"/><path class="xtick ticks crisp" d="M0,421v5" transform="translate(407.27,0)" style="stroke: rgb(51, 51, 51); stroke-opacity: 1; stroke-width: 1px;"/><path class="xtick ticks crisp" d="M0,421v5" transform="translate(516.36,0)" style="stroke: rgb(51, 51, 51); stroke-opacity: 1; stroke-width: 1px;"/><g class="xtick"><text text-anchor="middle" x="0" y="440.4" transform="translate(80,0)" style="font-family: 'Open Sans', verdana, arial, sans-serif; font-size: 12px; fill: rgb(51, 51, 51); fill-opacity: 1; white-space: pre; opacity: 1;">0</text></g><g class="xtick"><text text-anchor="middle" x="0" y="440.4" style="font-family: 'Open Sans', verdana, arial, sans-serif; font-size: 12px; fill: rgb(51, 51, 51); fill-opacity: 1; white-space: pre; opacity: 1;" transform="translate(189.09,0)">20</text></g><g class="xtick"><text text-anchor="middle" x="0" y="440.4" style="font-family: 'Open Sans', verdana, arial, sans-serif; font-size: 12px; fill: rgb(51, 51, 51); fill-opacity: 1; white-space: pre; opacity: 1;" transform="translate(298.18,0)">40</text></g><g class="xtick"><text text-anchor="middle" x="0" y="440.4" style="font-family: 'Open Sans', verdana, arial, sans-serif; font-size: 12px; fill: rgb(51, 51, 51); fill-opacity: 1; white-space: pre; opacity: 1;" transform="translate(407.27,0)">60</text></g><g class="xtick"><text text-anchor="middle" x="0" y="440.4" style="font-family: 'Open Sans', verdana, arial, sans-serif; font-size: 12px; fill: rgb(51, 51, 51); fill-opacity: 1; white-space: pre; opacity: 1;" transform="translate(516.36,0)">80</text></g></g><g class="yaxislayer-above"><path class="ytick ticks crisp" d="M79,0h-5" transform="translate(0,405.74)" style="stroke: rgb(51, 51, 51); stroke-opacity: 1; stroke-width: 1px;"/><path class="ytick ticks crisp" d="M79,0h-5" transform="translate(0,358.22)" style="stroke: rgb(51, 51, 51); stroke-opacity: 1; stroke-width: 1px;"/><path class="ytick ticks crisp" d="M79,0h-5" transform="translate(0,310.69)" style="stroke: rgb(51, 51, 51); stroke-opacity: 1; stroke-width: 1px;"/><path class="ytick ticks crisp" d="M79,0h-5" transform="translate(0,263.16999999999996)" style="stroke: rgb(51, 51, 51); stroke-opacity: 1; stroke-width: 1px;"/><path class="ytick ticks crisp" d="M79,0h-5" transform="translate(0,215.64)" style="stroke: rgb(51, 51, 51); stroke-opacity: 1; stroke-width: 1px;"/><path class="ytick ticks crisp" d="M79,0h-5" transform="translate(0,168.12)" style="stroke: rgb(51, 51, 51); stroke-opacity: 1; stroke-width: 1px;"/><path class="ytick ticks crisp" d="M79,0h-5" transform="translate(0,120.59)" style="stroke: rgb(51, 51, 51); stroke-opacity: 1; stroke-width: 1px;"/><g class="ytick"><text text-anchor="end" x="71.6" y="4.199999999999999" transform="translate(0,405.74)" style="font-family: 'Open Sans', verdana, arial, sans-serif; font-size: 12px; fill: rgb(51, 51, 51); fill-opacity: 1; white-space: pre; opacity: 1;">0.004</text></g><g class="ytick"><text text-anchor="end" x="71.6" y="4.199999999999999" style="font-family: 'Open Sans', verdana, arial, sans-serif; font-size: 12px; fill: rgb(51, 51, 51); fill-opacity: 1; white-space: pre; opacity: 1;" transform="translate(0,358.22)">0.006</text></g><g class="ytick"><text text-anchor="end" x="71.6" y="4.199999999999999" style="font-family: 'Open Sans', verdana, arial, sans-serif; font-size: 12px; fill: rgb(51, 51, 51); fill-opacity: 1; white-space: pre; opacity: 1;" transform="translate(0,310.69)">0.008</text></g><g class="ytick"><text text-anchor="end" x="71.6" y="4.199999999999999" style="font-family: 'Open Sans', verdana, arial, sans-serif; font-size: 12px; fill: rgb(51, 51, 51); fill-opacity: 1; white-space: pre; opacity: 1;" transform="translate(0,263.16999999999996)">0.01</text></g><g class="ytick"><text text-anchor="end" x="71.6" y="4.199999999999999" style="font-family: 'Open Sans', verdana, arial, sans-serif; font-size: 12px; fill: rgb(51, 51, 51); fill-opacity: 1; white-space: pre; opacity: 1;" transform="translate(0,215.64)">0.012</text></g><g class="ytick"><text text-anchor="end" x="71.6" y="4.199999999999999" style="font-family: 'Open Sans', verdana, arial, sans-serif; font-size: 12px; fill: rgb(51, 51, 51); fill-opacity: 1; white-space: pre; opacity: 1;" transform="translate(0,168.12)">0.014</text></g><g class="ytick"><text text-anchor="end" x="71.6" y="4.199999999999999" style="font-family: 'Open Sans', verdana, arial, sans-serif; font-size: 12px; fill: rgb(51, 51, 51); fill-opacity: 1; white-space: pre; opacity: 1;" transform="translate(0,120.59)">0.016</text></g></g><g class="overaxes-above"/></g></g><g class="polarlayer"/><g class="ternarylayer"/><g class="geolayer"/><g class="funnelarealayer"/><g class="pielayer"/><g class="iciclelayer"/><g class="treemaplayer"/><g class="sunburstlayer"/><g class="glimages"/><defs id="topdefs-5b936f"><g class="clips"/></defs><g class="layer-above"><g class="imagelayer"/><g class="shapelayer"/></g><g class="infolayer"><g class="g-gtitle"><text class="gtitle" x="350" y="50" text-anchor="middle" dy="0em" style="font-family: 'Open Sans', verdana, arial, sans-serif; font-size: 17px; fill: rgb(51, 51, 51); opacity: 1; font-weight: normal; white-space: pre;">Train Accuracy: ascad_v1_fk_0_noisy-s_eff_cnn_id (early_stopping)</text></g><g class="g-xtitle"/><g class="g-ytitle"/></g></svg>