<svg class="main-svg" xmlns="http://www.w3.org/2000/svg" xmlns:xlink="http://www.w3.org/1999/xlink" width="700" height="500" style="" viewBox="0 0 700 500"><rect x="0" y="0" width="700" height="500" style="fill: rgb(255, 255, 255); fill-opacity: 1;"/><defs id="defs-821d5a"><g class="clips"><clipPath id="clip821d5axyplot" class="plotclip"><rect width="444" height="320"/></clipPath><clipPath class="axesclip" id="clip821d5ax"><rect x="80" y="0" width="444" height="500"/></clipPath><clipPath class="axesclip" id="clip821d5ay"><rect x="0" y="100" width="700" height="320"/></clipPath><clipPath class="axesclip" id="clip821d5axy"><rect x="80" y="100" width="444" height="320"/></clipPath></g><g class="gradients"/><g class="patterns"/></defs><g class="bglayer"><rect class="bg" x="80" y="100" width="444" height="320" style="fill: rgb(229, 236, 246); fill-opacity: 1; stroke-width: 0;"/></g><g class="layer-below"><g class="imagelayer"/><g class="shapelayer"/></g><g class="cartesianlayer"><g class="subplot xy"><g class="layer-subplot"><g class="shapelayer"/><g class="imagelayer"/></g><g class="gridlayer"><g class="x"/><g class="y"><path class="ygrid crisp" transform="translate(0,381.44)" d="M80,0h444" style="stroke: rgb(255, 255, 255); stroke-opacity: 1; stroke-width: 1px;"/><path class="ygrid crisp" transform="translate(0,343.7)" d="M80,0h444" style="stroke: rgb(255, 255, 255); stroke-opacity: 1; stroke-width: 1px;"/><path class="ygrid crisp" transform="translate(0,305.96000000000004)" d="M80,0h444" style="stroke: rgb(255, 255, 255); stroke-opacity: 1; stroke-width: 1px;"/><path class="ygrid crisp" transform="translate(0,268.22)" d="M80,0h444" style="stroke: rgb(255, 255, 255); stroke-opacity: 1; stroke-width: 1px;"/><path class="ygrid crisp" transform="translate(0,230.48)" d="M80,0h444" style="stroke: rgb(255, 255, 255); stroke-opacity: 1; stroke-width: 1px;"/><path class="ygrid crisp" transform="translate(0,192.74)" d="M80,0h444" style="stroke: rgb(255, 255, 255); stroke-opacity: 1; stroke-width: 1px;"/><path class="ygrid crisp" transform="translate(0,155)" d="M80,0h444" style="stroke: rgb(255, 255, 255); stroke-opacity: 1; stroke-width: 1px;"/><path class="ygrid crisp" transform="translate(0,117.26)" d="M80,0h444" style="stroke: rgb(255, 255, 255); stroke-opacity: 1; stroke-width: 1px;"/></g></g><g class="zerolinelayer"/><path class="xlines-below"/><path class="ylines-below"/><g class="overlines-below"/><g class="xaxislayer-below"/><g class="yaxislayer-below"/><g class="overaxes-below"/><g class="plot" transform="translate(80,100)" clip-path="url(#clip821d5axyplot)"><g class="violinlayer mlayer"><g class="trace violins" style="opacity: 1;"><path class="violin" d="M113.29,304Q113.31,301.53 113.32,300.3C113.33,299.07 113.35,297.83 113.36,296.6C113.38,295.37 113.39,294.13 113.41,292.9C113.43,291.67 113.44,290.43 113.46,289.2C113.48,287.97 113.5,286.73 113.51,285.5C113.52,284.27 113.53,283.03 113.53,281.8C113.53,280.57 113.53,279.33 113.53,278.1C113.53,276.87 113.53,275.63 113.53,274.4C113.53,273.17 113.53,271.93 113.55,270.7C113.57,269.47 113.59,268.23 113.63,267C113.68,265.77 113.74,264.53 113.82,263.3C113.9,262.07 114,260.83 114.12,259.6C114.24,258.37 114.38,257.13 114.52,255.9C114.66,254.67 114.81,253.44 114.94,252.21C115.07,250.98 115.21,249.74 115.3,248.51C115.39,247.28 115.46,246.04 115.49,244.81C115.52,243.58 115.5,242.34 115.46,241.11C115.42,239.88 115.33,238.64 115.24,237.41C115.15,236.18 115.03,234.94 114.94,233.71C114.85,232.48 114.75,231.24 114.7,230.01C114.65,228.78 114.63,227.54 114.66,226.31C114.69,225.08 114.77,223.84 114.89,222.61C115.01,221.37 115.19,220.14 115.38,218.91C115.57,217.67 115.81,216.44 116.01,215.21C116.21,213.98 116.43,212.75 116.59,211.51C116.74,210.28 116.88,209.04 116.94,207.81C117,206.58 117,205.34 116.94,204.11C116.88,202.88 116.73,201.64 116.56,200.41C116.39,199.17 116.15,197.94 115.93,196.71C115.71,195.48 115.44,194.24 115.22,193.01C115,191.78 114.77,190.55 114.59,189.31C114.41,188.08 114.25,186.84 114.13,185.61C114.01,184.38 113.92,183.14 113.86,181.91C113.8,180.68 113.77,179.44 113.75,178.21C113.73,176.98 113.73,175.74 113.73,174.51C113.73,173.28 113.74,172.04 113.74,170.81C113.74,169.58 113.74,168.34 113.73,167.11C113.72,165.88 113.71,164.64 113.69,163.41C113.67,162.18 113.64,160.94 113.61,159.71C113.58,158.48 113.55,157.24 113.52,156.01C113.49,154.78 113.47,153.54 113.44,152.31C113.42,151.08 113.39,149.85 113.37,148.62C113.35,147.39 113.35,146.15 113.34,144.92C113.33,143.69 113.32,142.45 113.32,141.22C113.32,139.99 113.32,138.75 113.32,137.52C113.32,136.29 113.32,135.05 113.32,133.82C113.32,132.59 113.32,131.35 113.32,130.12C113.32,128.89 113.31,127.65 113.31,126.42C113.31,125.19 113.3,123.95 113.3,122.72C113.3,121.49 113.29,120.25 113.29,119.02C113.29,117.79 113.28,116.55 113.28,115.32C113.28,114.09 113.27,112.85 113.27,111.62Q113.27,110.39 113.26,107.92L113.24,107.92Q113.23,110.39 113.23,111.62C113.23,112.85 113.22,114.09 113.22,115.32C113.22,116.55 113.21,117.79 113.21,119.02C113.21,120.25 113.2,121.49 113.2,122.72C113.2,123.95 113.19,125.19 113.19,126.42C113.19,127.65 113.18,128.89 113.18,130.12C113.18,131.35 113.18,132.59 113.18,133.82C113.18,135.05 113.18,136.29 113.18,137.52C113.18,138.75 113.18,139.99 113.18,141.22C113.18,142.45 113.17,143.69 113.16,144.92C113.15,146.15 113.15,147.39 113.13,148.62C113.11,149.85 113.08,151.08 113.06,152.31C113.03,153.54 113.01,154.78 112.98,156.01C112.95,157.24 112.92,158.48 112.89,159.71C112.86,160.94 112.83,162.18 112.81,163.41C112.79,164.64 112.78,165.88 112.77,167.11C112.76,168.34 112.76,169.58 112.76,170.81C112.76,172.04 112.77,173.28 112.77,174.51C112.77,175.74 112.77,176.98 112.75,178.21C112.73,179.44 112.7,180.68 112.64,181.91C112.58,183.14 112.49,184.38 112.37,185.61C112.25,186.84 112.09,188.08 111.91,189.31C111.73,190.55 111.5,191.78 111.28,193.01C111.06,194.24 110.79,195.48 110.57,196.71C110.35,197.94 110.11,199.17 109.94,200.41C109.77,201.64 109.62,202.88 109.56,204.11C109.5,205.34 109.5,206.58 109.56,207.81C109.62,209.04 109.76,210.28 109.91,211.51C110.07,212.75 110.29,213.98 110.49,215.21C110.69,216.44 110.93,217.67 111.12,218.91C111.31,220.14 111.49,221.37 111.61,222.61C111.73,223.84 111.81,225.08 111.84,226.31C111.87,227.54 111.85,228.78 111.8,230.01C111.75,231.24 111.65,232.48 111.56,233.71C111.47,234.94 111.35,236.18 111.26,237.41C111.17,238.64 111.08,239.88 111.04,241.11C111,242.34 110.98,243.58 111.01,244.81C111.04,246.04 111.11,247.28 111.2,248.51C111.29,249.74 111.43,250.98 111.56,252.21C111.69,253.44 111.84,254.67 111.98,255.9C112.12,257.13 112.26,258.37 112.38,259.6C112.5,260.83 112.6,262.07 112.68,263.3C112.76,264.53 112.82,265.77 112.87,267C112.91,268.23 112.93,269.47 112.95,270.7C112.97,271.93 112.97,273.17 112.97,274.4C112.97,275.63 112.97,276.87 112.97,278.1C112.97,279.33 112.97,280.57 112.97,281.8C112.97,283.03 112.98,284.27 112.99,285.5C113,286.73 113.02,287.97 113.04,289.2C113.06,290.43 113.07,291.67 113.09,292.9C113.11,294.13 113.12,295.37 113.14,296.6C113.15,297.83 113.17,299.07 113.18,300.3Q113.19,301.53 113.21,304Z" style="vector-effect: non-scaling-stroke; stroke-width: 2px; stroke: rgb(99, 110, 250); stroke-opacity: 1; fill: rgb(99, 110, 250); fill-opacity: 0.5;"/><g class="points"><path class="point" transform="translate(34.1,281.44)" d="M3,0A3,3 0 1,1 0,-3A3,3 0 0,1 3,0Z" style="opacity: 1; stroke-width: 0px; fill: rgb(99, 110, 250); fill-opacity: 1;"/><path class="point" transform="translate(29.69,281.44)" d="M3,0A3,3 0 1,1 0,-3A3,3 0 0,1 3,0Z" style="opacity: 1; stroke-width: 0px; fill: rgb(99, 110, 250); fill-opacity: 1;"/><path class="point" transform="translate(35.54,281.44)" d="M3,0A3,3 0 1,1 0,-3A3,3 0 0,1 3,0Z" style="opacity: 1; stroke-width: 0px; fill: rgb(99, 110, 250); fill-opacity: 1;"/><path class="point" transform="translate(28.34,281.44)" d="M3,0A3,3 0 1,1 0,-3A3,3 0 0,1 3,0Z" style="opacity: 1; stroke-width: 0px; fill: rgb(99, 110, 250); fill-opacity: 1;"/><path class="point" transform="translate(31.02,243.7)" d="M3,0A3,3 0 1,1 0,-3A3,3 0 0,1 3,0Z" style="opacity: 1; stroke-width: 0px; fill: rgb(99, 110, 250); fill-opacity: 1;"/><path class="point" transform="translate(34.91,243.7)" d="M3,0A3,3 0 1,1 0,-3A3,3 0 0,1 3,0Z" style="opacity: 1; stroke-width: 0px; fill: rgb(99, 110, 250); fill-opacity: 1;"/><path class="point" transform="translate(32.03,243.7)" d="M3,0A3,3 0 1,1 0,-3A3,3 0 0,1 3,0Z" style="opacity: 1; stroke-width: 0px; fill: rgb(99, 110, 250); fill-opacity: 1;"/><path class="point" transform="translate(33.7,243.7)" d="M3,0A3,3 0 1,1 0,-3A3,3 0 0,1 3,0Z" style="opacity: 1; stroke-width: 0px; fill: rgb(99, 110, 250); fill-opacity: 1;"/><path class="point" transform="translate(30.58,243.7)" d="M3,0A3,3 0 1,1 0,-3A3,3 0 0,1 3,0Z" style="opacity: 1; stroke-width: 0px; fill: rgb(99, 110, 250); fill-opacity: 1;"/><path class="point" transform="translate(20.34,243.7)" d="M3,0A3,3 0 1,1 0,-3A3,3 0 0,1 3,0Z" style="opacity: 1; stroke-width: 0px; fill: rgb(99, 110, 250); fill-opacity: 1;"/><path class="point" transform="translate(36.55,243.7)" d="M3,0A3,3 0 1,1 0,-3A3,3 0 0,1 3,0Z" style="opacity: 1; stroke-width: 0px; fill: rgb(99, 110, 250); fill-opacity: 1;"/><path class="point" transform="translate(26.88,243.7)" d="M3,0A3,3 0 1,1 0,-3A3,3 0 0,1 3,0Z" style="opacity: 1; stroke-width: 0px; fill: rgb(99, 110, 250); fill-opacity: 1;"/><path class="point" transform="translate(42.49,243.7)" d="M3,0A3,3 0 1,1 0,-3A3,3 0 0,1 3,0Z" style="opacity: 1; stroke-width: 0px; fill: rgb(99, 110, 250); fill-opacity: 1;"/><path class="point" transform="translate(16.44,243.7)" d="M3,0A3,3 0 1,1 0,-3A3,3 0 0,1 3,0Z" style="opacity: 1; stroke-width: 0px; fill: rgb(99, 110, 250); fill-opacity: 1;"/><path class="point" transform="translate(22.84,243.7)" d="M3,0A3,3 0 1,1 0,-3A3,3 0 0,1 3,0Z" style="opacity: 1; stroke-width: 0px; fill: rgb(99, 110, 250); fill-opacity: 1;"/><path class="point" transform="translate(46.55,243.7)" d="M3,0A3,3 0 1,1 0,-3A3,3 0 0,1 3,0Z" style="opacity: 1; stroke-width: 0px; fill: rgb(99, 110, 250); fill-opacity: 1;"/><path class="point" transform="translate(28.15,243.7)" d="M3,0A3,3 0 1,1 0,-3A3,3 0 0,1 3,0Z" style="opacity: 1; stroke-width: 0px; fill: rgb(99, 110, 250); fill-opacity: 1;"/><path class="point" transform="translate(18.3,243.7)" d="M3,0A3,3 0 1,1 0,-3A3,3 0 0,1 3,0Z" style="opacity: 1; stroke-width: 0px; fill: rgb(99, 110, 250); fill-opacity: 1;"/><path class="point" transform="translate(26.86,243.7)" d="M3,0A3,3 0 1,1 0,-3A3,3 0 0,1 3,0Z" style="opacity: 1; stroke-width: 0px; fill: rgb(99, 110, 250); fill-opacity: 1;"/><path class="point" transform="translate(31.87,243.7)" d="M3,0A3,3 0 1,1 0,-3A3,3 0 0,1 3,0Z" style="opacity: 1; stroke-width: 0px; fill: rgb(99, 110, 250); fill-opacity: 1;"/><path class="point" transform="translate(39.51,243.7)" d="M3,0A3,3 0 1,1 0,-3A3,3 0 0,1 3,0Z" style="opacity: 1; stroke-width: 0px; fill: rgb(99, 110, 250); fill-opacity: 1;"/><path class="point" transform="translate(34.02,243.7)" d="M3,0A3,3 0 1,1 0,-3A3,3 0 0,1 3,0Z" style="opacity: 1; stroke-width: 0px; fill: rgb(99, 110, 250); fill-opacity: 1;"/><path class="point" transform="translate(27.64,243.7)" d="M3,0A3,3 0 1,1 0,-3A3,3 0 0,1 3,0Z" style="opacity: 1; stroke-width: 0px; fill: rgb(99, 110, 250); fill-opacity: 1;"/><path class="point" transform="translate(18.67,243.7)" d="M3,0A3,3 0 1,1 0,-3A3,3 0 0,1 3,0Z" style="opacity: 1; stroke-width: 0px; fill: rgb(99, 110, 250); fill-opacity: 1;"/><path class="point" transform="translate(32.17,243.7)" d="M3,0A3,3 0 1,1 0,-3A3,3 0 0,1 3,0Z" style="opacity: 1; stroke-width: 0px; fill: rgb(99, 110, 250); fill-opacity: 1;"/><path class="point" transform="translate(27.48,243.7)" d="M3,0A3,3 0 1,1 0,-3A3,3 0 0,1 3,0Z" style="opacity: 1; stroke-width: 0px; fill: rgb(99, 110, 250); fill-opacity: 1;"/><path class="point" transform="translate(39.76,243.7)" d="M3,0A3,3 0 1,1 0,-3A3,3 0 0,1 3,0Z" style="opacity: 1; stroke-width: 0px; fill: rgb(99, 110, 250); fill-opacity: 1;"/><path class="point" transform="translate(30.78,243.7)" d="M3,0A3,3 0 1,1 0,-3A3,3 0 0,1 3,0Z" style="opacity: 1; stroke-width: 0px; fill: rgb(99, 110, 250); fill-opacity: 1;"/><path class="point" transform="translate(21.61,243.7)" d="M3,0A3,3 0 1,1 0,-3A3,3 0 0,1 3,0Z" style="opacity: 1; stroke-width: 0px; fill: rgb(99, 110, 250); fill-opacity: 1;"/><path class="point" transform="translate(17.1,243.7)" d="M3,0A3,3 0 1,1 0,-3A3,3 0 0,1 3,0Z" style="opacity: 1; stroke-width: 0px; fill: rgb(99, 110, 250); fill-opacity: 1;"/><path class="point" transform="translate(41.36,243.7)" d="M3,0A3,3 0 1,1 0,-3A3,3 0 0,1 3,0Z" style="opacity: 1; stroke-width: 0px; fill: rgb(99, 110, 250); fill-opacity: 1;"/><path class="point" transform="translate(18.37,243.7)" d="M3,0A3,3 0 1,1 0,-3A3,3 0 0,1 3,0Z" style="opacity: 1; stroke-width: 0px; fill: rgb(99, 110, 250); fill-opacity: 1;"/><path class="point" transform="translate(35.26,243.7)" d="M3,0A3,3 0 1,1 0,-3A3,3 0 0,1 3,0Z" style="opacity: 1; stroke-width: 0px; fill: rgb(99, 110, 250); fill-opacity: 1;"/><path class="point" transform="translate(33.34,243.7)" d="M3,0A3,3 0 1,1 0,-3A3,3 0 0,1 3,0Z" style="opacity: 1; stroke-width: 0px; fill: rgb(99, 110, 250); fill-opacity: 1;"/><path class="point" transform="translate(30.69,243.7)" d="M3,0A3,3 0 1,1 0,-3A3,3 0 0,1 3,0Z" style="opacity: 1; stroke-width: 0px; fill: rgb(99, 110, 250); fill-opacity: 1;"/><path class="point" transform="translate(29.18,243.7)" d="M3,0A3,3 0 1,1 0,-3A3,3 0 0,1 3,0Z" style="opacity: 1; stroke-width: 0px; fill: rgb(99, 110, 250); fill-opacity: 1;"/><path class="point" transform="translate(34.53,243.7)" d="M3,0A3,3 0 1,1 0,-3A3,3 0 0,1 3,0Z" style="opacity: 1; stroke-width: 0px; fill: rgb(99, 110, 250); fill-opacity: 1;"/><path class="point" transform="translate(31.67,205.96)" d="M3,0A3,3 0 1,1 0,-3A3,3 0 0,1 3,0Z" style="opacity: 1; stroke-width: 0px; fill: rgb(99, 110, 250); fill-opacity: 1;"/><path class="point" transform="translate(35.74,205.96)" d="M3,0A3,3 0 1,1 0,-3A3,3 0 0,1 3,0Z" style="opacity: 1; stroke-width: 0px; fill: rgb(99, 110, 250); fill-opacity: 1;"/><path class="point" transform="translate(27.91,205.96)" d="M3,0A3,3 0 1,1 0,-3A3,3 0 0,1 3,0Z" style="opacity: 1; stroke-width: 0px; fill: rgb(99, 110, 250); fill-opacity: 1;"/><path class="point" transform="translate(35.49,205.96)" d="M3,0A3,3 0 1,1 0,-3A3,3 0 0,1 3,0Z" style="opacity: 1; stroke-width: 0px; fill: rgb(99, 110, 250); fill-opacity: 1;"/><path class="point" transform="translate(31.79,205.96)" d="M3,0A3,3 0 1,1 0,-3A3,3 0 0,1 3,0Z" style="opacity: 1; stroke-width: 0px; fill: rgb(99, 110, 250); fill-opacity: 1;"/><path class="point" transform="translate(25.85,205.96)" d="M3,0A3,3 0 1,1 0,-3A3,3 0 0,1 3,0Z" style="opacity: 1; stroke-width: 0px; fill: rgb(99, 110, 250); fill-opacity: 1;"/><path class="point" transform="translate(16.26,205.96)" d="M3,0A3,3 0 1,1 0,-3A3,3 0 0,1 3,0Z" style="opacity: 1; stroke-width: 0px; fill: rgb(99, 110, 250); fill-opacity: 1;"/><path class="point" transform="translate(25.88,205.96)" d="M3,0A3,3 0 1,1 0,-3A3,3 0 0,1 3,0Z" style="opacity: 1; stroke-width: 0px; fill: rgb(99, 110, 250); fill-opacity: 1;"/><path class="point" transform="translate(43.04,205.96)" d="M3,0A3,3 0 1,1 0,-3A3,3 0 0,1 3,0Z" style="opacity: 1; stroke-width: 0px; fill: rgb(99, 110, 250); fill-opacity: 1;"/><path class="point" transform="translate(28.34,205.96)" d="M3,0A3,3 0 1,1 0,-3A3,3 0 0,1 3,0Z" style="opacity: 1; stroke-width: 0px; fill: rgb(99, 110, 250); fill-opacity: 1;"/><path class="point" transform="translate(19.63,205.96)" d="M3,0A3,3 0 1,1 0,-3A3,3 0 0,1 3,0Z" style="opacity: 1; stroke-width: 0px; fill: rgb(99, 110, 250); fill-opacity: 1;"/><path class="point" transform="translate(40.06,205.96)" d="M3,0A3,3 0 1,1 0,-3A3,3 0 0,1 3,0Z" style="opacity: 1; stroke-width: 0px; fill: rgb(99, 110, 250); fill-opacity: 1;"/><path class="point" transform="translate(23.53,205.96)" d="M3,0A3,3 0 1,1 0,-3A3,3 0 0,1 3,0Z" style="opacity: 1; stroke-width: 0px; fill: rgb(99, 110, 250); fill-opacity: 1;"/><path class="point" transform="translate(32.22,205.96)" d="M3,0A3,3 0 1,1 0,-3A3,3 0 0,1 3,0Z" style="opacity: 1; stroke-width: 0px; fill: rgb(99, 110, 250); fill-opacity: 1;"/><path class="point" transform="translate(39.15,205.96)" d="M3,0A3,3 0 1,1 0,-3A3,3 0 0,1 3,0Z" style="opacity: 1; stroke-width: 0px; fill: rgb(99, 110, 250); fill-opacity: 1;"/><path class="point" transform="translate(16.48,205.96)" d="M3,0A3,3 0 1,1 0,-3A3,3 0 0,1 3,0Z" style="opacity: 1; stroke-width: 0px; fill: rgb(99, 110, 250); fill-opacity: 1;"/><path class="point" transform="translate(47.4,205.96)" d="M3,0A3,3 0 1,1 0,-3A3,3 0 0,1 3,0Z" style="opacity: 1; stroke-width: 0px; fill: rgb(99, 110, 250); fill-opacity: 1;"/><path class="point" transform="translate(38.94,205.96)" d="M3,0A3,3 0 1,1 0,-3A3,3 0 0,1 3,0Z" style="opacity: 1; stroke-width: 0px; fill: rgb(99, 110, 250); fill-opacity: 1;"/><path class="point" transform="translate(17.88,205.96)" d="M3,0A3,3 0 1,1 0,-3A3,3 0 0,1 3,0Z" style="opacity: 1; stroke-width: 0px; fill: rgb(99, 110, 250); fill-opacity: 1;"/><path class="point" transform="translate(45.06,205.96)" d="M3,0A3,3 0 1,1 0,-3A3,3 0 0,1 3,0Z" style="opacity: 1; stroke-width: 0px; fill: rgb(99, 110, 250); fill-opacity: 1;"/><path class="point" transform="translate(20.31,205.96)" d="M3,0A3,3 0 1,1 0,-3A3,3 0 0,1 3,0Z" style="opacity: 1; stroke-width: 0px; fill: rgb(99, 110, 250); fill-opacity: 1;"/><path class="point" transform="translate(30.27,205.96)" d="M3,0A3,3 0 1,1 0,-3A3,3 0 0,1 3,0Z" style="opacity: 1; stroke-width: 0px; fill: rgb(99, 110, 250); fill-opacity: 1;"/><path class="point" transform="translate(34.24,205.96)" d="M3,0A3,3 0 1,1 0,-3A3,3 0 0,1 3,0Z" style="opacity: 1; stroke-width: 0px; fill: rgb(99, 110, 250); fill-opacity: 1;"/><path class="point" transform="translate(25.49,205.96)" d="M3,0A3,3 0 1,1 0,-3A3,3 0 0,1 3,0Z" style="opacity: 1; stroke-width: 0px; fill: rgb(99, 110, 250); fill-opacity: 1;"/><path class="point" transform="translate(42.56,205.96)" d="M3,0A3,3 0 1,1 0,-3A3,3 0 0,1 3,0Z" style="opacity: 1; stroke-width: 0px; fill: rgb(99, 110, 250); fill-opacity: 1;"/><path class="point" transform="translate(22.09,205.96)" d="M3,0A3,3 0 1,1 0,-3A3,3 0 0,1 3,0Z" style="opacity: 1; stroke-width: 0px; fill: rgb(99, 110, 250); fill-opacity: 1;"/><path class="point" transform="translate(38.35,205.96)" d="M3,0A3,3 0 1,1 0,-3A3,3 0 0,1 3,0Z" style="opacity: 1; stroke-width: 0px; fill: rgb(99, 110, 250); fill-opacity: 1;"/><path class="point" transform="translate(44.08,205.96)" d="M3,0A3,3 0 1,1 0,-3A3,3 0 0,1 3,0Z" style="opacity: 1; stroke-width: 0px; fill: rgb(99, 110, 250); fill-opacity: 1;"/><path class="point" transform="translate(17,205.96)" d="M3,0A3,3 0 1,1 0,-3A3,3 0 0,1 3,0Z" style="opacity: 1; stroke-width: 0px; fill: rgb(99, 110, 250); fill-opacity: 1;"/><path class="point" transform="translate(23.3,205.96)" d="M3,0A3,3 0 1,1 0,-3A3,3 0 0,1 3,0Z" style="opacity: 1; stroke-width: 0px; fill: rgb(99, 110, 250); fill-opacity: 1;"/><path class="point" transform="translate(40.91,205.96)" d="M3,0A3,3 0 1,1 0,-3A3,3 0 0,1 3,0Z" style="opacity: 1; stroke-width: 0px; fill: rgb(99, 110, 250); fill-opacity: 1;"/><path class="point" transform="translate(28.03,205.96)" d="M3,0A3,3 0 1,1 0,-3A3,3 0 0,1 3,0Z" style="opacity: 1; stroke-width: 0px; fill: rgb(99, 110, 250); fill-opacity: 1;"/><path class="point" transform="translate(33.52,205.96)" d="M3,0A3,3 0 1,1 0,-3A3,3 0 0,1 3,0Z" style="opacity: 1; stroke-width: 0px; fill: rgb(99, 110, 250); fill-opacity: 1;"/><path class="point" transform="translate(46,205.96)" d="M3,0A3,3 0 1,1 0,-3A3,3 0 0,1 3,0Z" style="opacity: 1; stroke-width: 0px; fill: rgb(99, 110, 250); fill-opacity: 1;"/><path class="point" transform="translate(19.68,205.96)" d="M3,0A3,3 0 1,1 0,-3A3,3 0 0,1 3,0Z" style="opacity: 1; stroke-width: 0px; fill: rgb(99, 110, 250); fill-opacity: 1;"/><path class="point" transform="translate(48.36,205.96)" d="M3,0A3,3 0 1,1 0,-3A3,3 0 0,1 3,0Z" style="opacity: 1; stroke-width: 0px; fill: rgb(99, 110, 250); fill-opacity: 1;"/><path class="point" transform="translate(20.14,205.96)" d="M3,0A3,3 0 1,1 0,-3A3,3 0 0,1 3,0Z" style="opacity: 1; stroke-width: 0px; fill: rgb(99, 110, 250); fill-opacity: 1;"/><path class="point" transform="translate(48.21,205.96)" d="M3,0A3,3 0 1,1 0,-3A3,3 0 0,1 3,0Z" style="opacity: 1; stroke-width: 0px; fill: rgb(99, 110, 250); fill-opacity: 1;"/><path class="point" transform="translate(24.36,205.96)" d="M3,0A3,3 0 1,1 0,-3A3,3 0 0,1 3,0Z" style="opacity: 1; stroke-width: 0px; fill: rgb(99, 110, 250); fill-opacity: 1;"/><path class="point" transform="translate(44.42,205.96)" d="M3,0A3,3 0 1,1 0,-3A3,3 0 0,1 3,0Z" style="opacity: 1; stroke-width: 0px; fill: rgb(99, 110, 250); fill-opacity: 1;"/><path class="point" transform="translate(36.8,205.96)" d="M3,0A3,3 0 1,1 0,-3A3,3 0 0,1 3,0Z" style="opacity: 1; stroke-width: 0px; fill: rgb(99, 110, 250); fill-opacity: 1;"/><path class="point" transform="translate(30.04,205.96)" d="M3,0A3,3 0 1,1 0,-3A3,3 0 0,1 3,0Z" style="opacity: 1; stroke-width: 0px; fill: rgb(99, 110, 250); fill-opacity: 1;"/><path class="point" transform="translate(16.96,205.96)" d="M3,0A3,3 0 1,1 0,-3A3,3 0 0,1 3,0Z" style="opacity: 1; stroke-width: 0px; fill: rgb(99, 110, 250); fill-opacity: 1;"/><path class="point" transform="translate(29.54,205.96)" d="M3,0A3,3 0 1,1 0,-3A3,3 0 0,1 3,0Z" style="opacity: 1; stroke-width: 0px; fill: rgb(99, 110, 250); fill-opacity: 1;"/><path class="point" transform="translate(18.7,205.96)" d="M3,0A3,3 0 1,1 0,-3A3,3 0 0,1 3,0Z" style="opacity: 1; stroke-width: 0px; fill: rgb(99, 110, 250); fill-opacity: 1;"/><path class="point" transform="translate(23.3,205.96)" d="M3,0A3,3 0 1,1 0,-3A3,3 0 0,1 3,0Z" style="opacity: 1; stroke-width: 0px; fill: rgb(99, 110, 250); fill-opacity: 1;"/><path class="point" transform="translate(19.53,205.96)" d="M3,0A3,3 0 1,1 0,-3A3,3 0 0,1 3,0Z" style="opacity: 1; stroke-width: 0px; fill: rgb(99, 110, 250); fill-opacity: 1;"/><path class="point" transform="translate(16.13,205.96)" d="M3,0A3,3 0 1,1 0,-3A3,3 0 0,1 3,0Z" style="opacity: 1; stroke-width: 0px; fill: rgb(99, 110, 250); fill-opacity: 1;"/><path class="point" transform="translate(23.61,205.96)" d="M3,0A3,3 0 1,1 0,-3A3,3 0 0,1 3,0Z" style="opacity: 1; stroke-width: 0px; fill: rgb(99, 110, 250); fill-opacity: 1;"/><path class="point" transform="translate(37.65,205.96)" d="M3,0A3,3 0 1,1 0,-3A3,3 0 0,1 3,0Z" style="opacity: 1; stroke-width: 0px; fill: rgb(99, 110, 250); fill-opacity: 1;"/><path class="point" transform="translate(27.8,205.96)" d="M3,0A3,3 0 1,1 0,-3A3,3 0 0,1 3,0Z" style="opacity: 1; stroke-width: 0px; fill: rgb(99, 110, 250); fill-opacity: 1;"/><path class="point" transform="translate(33.37,205.96)" d="M3,0A3,3 0 1,1 0,-3A3,3 0 0,1 3,0Z" style="opacity: 1; stroke-width: 0px; fill: rgb(99, 110, 250); fill-opacity: 1;"/><path class="point" transform="translate(34.7,205.96)" d="M3,0A3,3 0 1,1 0,-3A3,3 0 0,1 3,0Z" style="opacity: 1; stroke-width: 0px; fill: rgb(99, 110, 250); fill-opacity: 1;"/><path class="point" transform="translate(32.83,205.96)" d="M3,0A3,3 0 1,1 0,-3A3,3 0 0,1 3,0Z" style="opacity: 1; stroke-width: 0px; fill: rgb(99, 110, 250); fill-opacity: 1;"/><path class="point" transform="translate(29.21,205.96)" d="M3,0A3,3 0 1,1 0,-3A3,3 0 0,1 3,0Z" style="opacity: 1; stroke-width: 0px; fill: rgb(99, 110, 250); fill-opacity: 1;"/><path class="point" transform="translate(30.48,168.22)" d="M3,0A3,3 0 1,1 0,-3A3,3 0 0,1 3,0Z" style="opacity: 1; stroke-width: 0px; fill: rgb(99, 110, 250); fill-opacity: 1;"/><path class="point" transform="translate(37.17,168.22)" d="M3,0A3,3 0 1,1 0,-3A3,3 0 0,1 3,0Z" style="opacity: 1; stroke-width: 0px; fill: rgb(99, 110, 250); fill-opacity: 1;"/><path class="point" transform="translate(30.32,168.22)" d="M3,0A3,3 0 1,1 0,-3A3,3 0 0,1 3,0Z" style="opacity: 1; stroke-width: 0px; fill: rgb(99, 110, 250); fill-opacity: 1;"/><path class="point" transform="translate(32.61,168.22)" d="M3,0A3,3 0 1,1 0,-3A3,3 0 0,1 3,0Z" style="opacity: 1; stroke-width: 0px; fill: rgb(99, 110, 250); fill-opacity: 1;"/><path class="point" transform="translate(34.24,168.22)" d="M3,0A3,3 0 1,1 0,-3A3,3 0 0,1 3,0Z" style="opacity: 1; stroke-width: 0px; fill: rgb(99, 110, 250); fill-opacity: 1;"/><path class="point" transform="translate(28.66,168.22)" d="M3,0A3,3 0 1,1 0,-3A3,3 0 0,1 3,0Z" style="opacity: 1; stroke-width: 0px; fill: rgb(99, 110, 250); fill-opacity: 1;"/><path class="point" transform="translate(31.68,168.22)" d="M3,0A3,3 0 1,1 0,-3A3,3 0 0,1 3,0Z" style="opacity: 1; stroke-width: 0px; fill: rgb(99, 110, 250); fill-opacity: 1;"/><path class="point" transform="translate(35.43,130.48)" d="M3,0A3,3 0 1,1 0,-3A3,3 0 0,1 3,0Z" style="opacity: 1; stroke-width: 0px; fill: rgb(99, 110, 250); fill-opacity: 1;"/></g></g><g class="trace violins" style="opacity: 1;"><path class="violin" d="M334.76,283.7Q335.29,283.45 335.6,283.33C335.96,283.19 336.38,283.07 336.8,282.95C337.26,282.82 337.78,282.7 338.26,282.57C338.74,282.44 339.26,282.32 339.7,282.19C340.09,282.07 340.52,281.98 340.78,281.82C340.96,281.71 341.18,281.57 341.18,281.44C341.18,281.31 340.96,281.17 340.78,281.06C340.52,280.9 340.09,280.8 339.7,280.68C339.26,280.55 338.74,280.43 338.26,280.31C337.77,280.18 337.26,280.06 336.8,279.93C336.38,279.81 335.96,279.69 335.6,279.55C335.29,279.43 335,279.32 334.76,279.18C334.56,279.06 334.38,278.94 334.24,278.8C334.12,278.68 334.03,278.55 333.96,278.42C333.9,278.3 333.86,278.17 333.83,278.04C333.8,277.92 333.79,277.79 333.78,277.67C333.77,277.54 333.77,277.42 333.76,277.29C333.76,277.16 333.75,277.04 333.75,276.91C333.75,276.78 333.75,276.66 333.75,276.53C333.75,276.41 333.75,276.28 333.75,276.16C333.75,276.03 333.75,275.91 333.75,275.78C333.75,275.65 333.75,275.53 333.75,275.4C333.75,275.27 333.75,275.15 333.75,275.02C333.75,274.9 333.75,274.77 333.75,274.65C333.75,274.52 333.75,274.4 333.75,274.27C333.75,274.14 333.75,274.02 333.75,273.89C333.75,273.76 333.75,273.64 333.75,273.51C333.75,273.39 333.75,273.26 333.75,273.14C333.75,273.01 333.75,272.89 333.75,272.76C333.75,272.63 333.75,272.51 333.75,272.38C333.75,272.25 333.75,272.13 333.75,272C333.75,271.88 333.75,271.75 333.75,271.63C333.75,271.5 333.75,271.38 333.75,271.25C333.75,271.12 333.75,271 333.75,270.87C333.75,270.74 333.75,270.62 333.75,270.49C333.75,270.37 333.75,270.24 333.75,270.12C333.75,269.99 333.75,269.87 333.75,269.74C333.75,269.61 333.75,269.49 333.75,269.36C333.75,269.24 333.75,269.11 333.75,268.99C333.75,268.86 333.75,268.74 333.75,268.61C333.75,268.48 333.75,268.36 333.75,268.23C333.75,268.1 333.75,267.98 333.75,267.85C333.75,267.73 333.75,267.6 333.75,267.48C333.75,267.35 333.75,267.23 333.75,267.1C333.75,266.97 333.75,266.85 333.75,266.72C333.75,266.59 333.75,266.47 333.75,266.34C333.75,266.22 333.75,266.09 333.75,265.97C333.75,265.84 333.75,265.72 333.75,265.59C333.75,265.46 333.75,265.34 333.75,265.21C333.75,265.08 333.75,264.96 333.75,264.83C333.75,264.71 333.75,264.58 333.75,264.46C333.75,264.33 333.75,264.21 333.75,264.08C333.75,263.95 333.75,263.83 333.75,263.7C333.75,263.57 333.75,263.45 333.75,263.32C333.75,263.2 333.75,263.07 333.75,262.95C333.75,262.82 333.75,262.7 333.75,262.57C333.75,262.44 333.75,262.32 333.75,262.19C333.75,262.06 333.75,261.94 333.75,261.81C333.75,261.69 333.75,261.56 333.75,261.44C333.75,261.31 333.75,261.19 333.75,261.06C333.75,260.93 333.75,260.81 333.75,260.68C333.75,260.56 333.75,260.43 333.75,260.31C333.75,260.18 333.75,260.06 333.75,259.93C333.75,259.8 333.75,259.68 333.75,259.55C333.75,259.42 333.75,259.3 333.75,259.17C333.75,259.05 333.75,258.92 333.75,258.8C333.75,258.67 333.75,258.55 333.75,258.42C333.75,258.29 333.75,258.17 333.75,258.04C333.75,257.91 333.75,257.79 333.75,257.66C333.75,257.54 333.75,257.41 333.75,257.29C333.75,257.16 333.75,257.04 333.75,256.91C333.75,256.78 333.75,256.66 333.75,256.53C333.75,256.4 333.75,256.28 333.75,256.15C333.75,256.03 333.75,255.9 333.75,255.78C333.75,255.65 333.75,255.53 333.75,255.4C333.75,255.27 333.75,255.15 333.75,255.02C333.75,254.89 333.75,254.77 333.75,254.64C333.75,254.52 333.75,254.39 333.75,254.27C333.75,254.14 333.75,254.02 333.75,253.89C333.75,253.76 333.75,253.64 333.75,253.51C333.75,253.38 333.75,253.26 333.75,253.13C333.75,253.01 333.75,252.88 333.75,252.76C333.75,252.63 333.75,252.51 333.75,252.38C333.75,252.25 333.75,252.13 333.75,252C333.75,251.87 333.75,251.75 333.75,251.62C333.75,251.5 333.75,251.37 333.75,251.25C333.75,251.12 333.75,251 333.75,250.87C333.75,250.74 333.75,250.62 333.75,250.49C333.75,250.37 333.75,250.24 333.75,250.12C333.75,249.99 333.75,249.87 333.75,249.74C333.75,249.61 333.75,249.49 333.75,249.36C333.75,249.23 333.75,249.11 333.75,248.98C333.75,248.86 333.75,248.73 333.75,248.61C333.75,248.48 333.75,248.36 333.75,248.23C333.75,248.1 333.76,247.98 333.76,247.85C333.76,247.72 333.76,247.6 333.77,247.47C333.78,247.35 333.79,247.22 333.81,247.1C333.83,246.97 333.85,246.84 333.9,246.72C333.95,246.59 334.02,246.46 334.11,246.34C334.21,246.21 334.33,246.08 334.48,245.96C334.65,245.82 334.87,245.71 335.1,245.59C335.36,245.46 335.66,245.33 335.97,245.21C336.3,245.08 336.68,244.96 337.03,244.83C337.38,244.7 337.76,244.58 338.08,244.45C338.36,244.33 338.67,244.23 338.86,244.08C339,243.97 339.15,243.83 339.15,243.7C339.15,243.57 339,243.43 338.86,243.32C338.67,243.17 338.36,243.06 338.08,242.94C337.76,242.81 337.38,242.69 337.03,242.57C336.68,242.44 336.3,242.32 335.97,242.19C335.66,242.07 335.36,241.94 335.1,241.81C334.87,241.69 334.65,241.58 334.48,241.44C334.33,241.32 334.21,241.19 334.11,241.06C334.02,240.94 333.95,240.81 333.9,240.68C333.85,240.56 333.83,240.43 333.81,240.3C333.79,240.18 333.78,240.05 333.77,239.93C333.76,239.8 333.76,239.68 333.76,239.55C333.76,239.42 333.75,239.3 333.75,239.17C333.75,239.04 333.75,238.92 333.75,238.79C333.75,238.67 333.75,238.54 333.75,238.42C333.75,238.29 333.75,238.17 333.75,238.04C333.75,237.91 333.75,237.79 333.75,237.66C333.75,237.53 333.75,237.41 333.75,237.28C333.75,237.16 333.75,237.03 333.75,236.91C333.75,236.78 333.75,236.66 333.75,236.53C333.75,236.4 333.75,236.28 333.75,236.15C333.75,236.02 333.75,235.9 333.75,235.77C333.75,235.65 333.75,235.52 333.75,235.4C333.75,235.27 333.75,235.15 333.75,235.02C333.75,234.89 333.75,234.77 333.75,234.64C333.75,234.51 333.75,234.39 333.75,234.26C333.75,234.14 333.75,234.01 333.75,233.89C333.75,233.76 333.75,233.64 333.75,233.51C333.75,233.38 333.75,233.26 333.75,233.13C333.75,233 333.75,232.88 333.75,232.75C333.75,232.63 333.75,232.5 333.75,232.38C333.75,232.25 333.75,232.13 333.75,232C333.75,231.87 333.75,231.75 333.75,231.62C333.75,231.5 333.75,231.37 333.75,231.25C333.75,231.12 333.75,231 333.75,230.87C333.75,230.74 333.75,230.62 333.75,230.49C333.75,230.36 333.75,230.24 333.75,230.11C333.75,229.99 333.75,229.86 333.75,229.74C333.75,229.61 333.75,229.49 333.75,229.36C333.75,229.23 333.75,229.11 333.75,228.98C333.75,228.85 333.75,228.73 333.75,228.6C333.75,228.48 333.75,228.35 333.75,228.23C333.75,228.1 333.75,227.98 333.75,227.85C333.75,227.72 333.75,227.6 333.75,227.47C333.75,227.34 333.75,227.22 333.75,227.09C333.75,226.97 333.75,226.84 333.75,226.72C333.75,226.59 333.75,226.47 333.75,226.34C333.75,226.21 333.75,226.09 333.75,225.96C333.75,225.83 333.75,225.71 333.75,225.58C333.75,225.46 333.75,225.33 333.75,225.21C333.75,225.08 333.75,224.96 333.75,224.83C333.75,224.7 333.75,224.58 333.75,224.45C333.75,224.32 333.75,224.2 333.75,224.07C333.75,223.95 333.75,223.82 333.75,223.7C333.75,223.57 333.75,223.45 333.75,223.32C333.75,223.19 333.75,223.07 333.75,222.94C333.75,222.82 333.75,222.69 333.75,222.57C333.75,222.44 333.75,222.32 333.75,222.19C333.75,222.06 333.75,221.94 333.75,221.81C333.75,221.68 333.75,221.56 333.75,221.43C333.75,221.31 333.75,221.18 333.75,221.06C333.75,220.93 333.75,220.81 333.75,220.68C333.75,220.55 333.75,220.43 333.75,220.3C333.75,220.17 333.75,220.05 333.75,219.92C333.75,219.8 333.75,219.67 333.75,219.55C333.75,219.42 333.75,219.3 333.75,219.17C333.75,219.04 333.75,218.92 333.75,218.79C333.75,218.66 333.75,218.54 333.75,218.41C333.75,218.29 333.75,218.16 333.75,218.04C333.75,217.91 333.75,217.79 333.75,217.66C333.75,217.53 333.75,217.41 333.75,217.28C333.75,217.15 333.75,217.03 333.75,216.9C333.75,216.78 333.75,216.65 333.75,216.53C333.75,216.4 333.75,216.28 333.75,216.15C333.75,216.02 333.75,215.9 333.75,215.77C333.75,215.64 333.75,215.52 333.75,215.39C333.75,215.27 333.75,215.14 333.75,215.02C333.75,214.89 333.75,214.77 333.75,214.64C333.75,214.51 333.75,214.39 333.75,214.26C333.75,214.14 333.75,214.01 333.75,213.89C333.75,213.76 333.75,213.64 333.75,213.51C333.75,213.38 333.75,213.26 333.75,213.13C333.75,213 333.75,212.88 333.75,212.75C333.75,212.63 333.75,212.5 333.75,212.38C333.75,212.25 333.75,212.13 333.75,212C333.75,211.87 333.75,211.75 333.75,211.62C333.75,211.49 333.75,211.37 333.75,211.24C333.75,211.12 333.75,210.99 333.75,210.87C333.75,210.74 333.76,210.62 333.77,210.49C333.78,210.36 333.79,210.23 333.82,210.11C333.85,209.98 333.88,209.85 333.96,209.73C334.05,209.59 334.18,209.47 334.35,209.36C334.59,209.21 334.91,209.09 335.29,208.98C335.83,208.82 336.52,208.71 337.3,208.6C338.36,208.45 339.65,208.33 341.06,208.22C342.86,208.08 344.99,207.97 347.22,207.85C349.88,207.71 352.91,207.59 355.96,207.47C359.31,207.34 363.01,207.22 366.52,207.09C370.02,206.96 373.77,206.85 377.01,206.71C379.81,206.59 382.87,206.52 384.85,206.34C386.06,206.23 387.77,206.09 387.77,205.96C387.77,205.83 386.06,205.69 384.85,205.58C382.87,205.4 379.81,205.32 377.01,205.2C373.77,205.06 370.02,204.95 366.52,204.83C363.01,204.7 359.31,204.58 355.96,204.45C352.91,204.33 349.88,204.21 347.22,204.07C344.99,203.95 342.86,203.84 341.06,203.7C339.65,203.59 338.36,203.47 337.3,203.32C336.52,203.21 335.83,203.1 335.29,202.94C334.91,202.83 334.59,202.71 334.35,202.56C334.18,202.45 334.05,202.33 333.96,202.19C333.88,202.07 333.85,201.94 333.82,201.81C333.79,201.69 333.78,201.56 333.77,201.43C333.76,201.3 333.75,201.18 333.75,201.05C333.75,200.93 333.75,200.8 333.75,200.68C333.75,200.55 333.75,200.43 333.75,200.3C333.75,200.17 333.75,200.05 333.75,199.92C333.75,199.79 333.75,199.67 333.75,199.54C333.75,199.42 333.75,199.29 333.75,199.17C333.75,199.04 333.75,198.92 333.75,198.79C333.75,198.66 333.75,198.54 333.75,198.41C333.75,198.28 333.75,198.16 333.75,198.03C333.75,197.91 333.75,197.78 333.75,197.66C333.75,197.53 333.75,197.41 333.75,197.28C333.75,197.15 333.75,197.03 333.75,196.9C333.75,196.77 333.75,196.65 333.75,196.52C333.75,196.4 333.75,196.27 333.75,196.15C333.75,196.02 333.75,195.9 333.75,195.77C333.75,195.64 333.75,195.52 333.75,195.39C333.75,195.27 333.75,195.14 333.75,195.02C333.75,194.89 333.75,194.77 333.75,194.64C333.75,194.51 333.75,194.39 333.75,194.26C333.75,194.13 333.75,194.01 333.75,193.88C333.75,193.76 333.75,193.63 333.75,193.51C333.75,193.38 333.75,193.26 333.75,193.13C333.75,193 333.75,192.88 333.75,192.75C333.75,192.62 333.75,192.5 333.75,192.37C333.75,192.25 333.75,192.12 333.75,192C333.75,191.87 333.75,191.75 333.75,191.62C333.75,191.49 333.75,191.37 333.75,191.24C333.75,191.11 333.75,190.99 333.75,190.86C333.75,190.74 333.75,190.61 333.75,190.49C333.75,190.36 333.75,190.24 333.75,190.11C333.75,189.98 333.75,189.86 333.75,189.73C333.75,189.6 333.75,189.48 333.75,189.35C333.75,189.23 333.75,189.1 333.75,188.98C333.75,188.85 333.75,188.73 333.75,188.6C333.75,188.47 333.75,188.35 333.75,188.22C333.75,188.09 333.75,187.97 333.75,187.84C333.75,187.72 333.75,187.59 333.75,187.47C333.75,187.34 333.75,187.22 333.75,187.09C333.75,186.96 333.75,186.84 333.75,186.71C333.75,186.58 333.75,186.46 333.75,186.33C333.75,186.21 333.75,186.08 333.75,185.96C333.75,185.83 333.75,185.71 333.75,185.58C333.75,185.45 333.75,185.33 333.75,185.2C333.75,185.08 333.75,184.95 333.75,184.83C333.75,184.7 333.75,184.58 333.75,184.45C333.75,184.32 333.75,184.2 333.75,184.07C333.75,183.94 333.75,183.82 333.75,183.69C333.75,183.57 333.75,183.44 333.75,183.32C333.75,183.19 333.75,183.07 333.75,182.94C333.75,182.81 333.75,182.69 333.75,182.56C333.75,182.43 333.75,182.31 333.75,182.18C333.75,182.06 333.75,181.93 333.75,181.81C333.75,181.68 333.75,181.56 333.75,181.43C333.75,181.3 333.75,181.18 333.75,181.05C333.75,180.92 333.75,180.8 333.75,180.67C333.75,180.55 333.75,180.42 333.75,180.3C333.75,180.17 333.75,180.05 333.75,179.92C333.75,179.79 333.75,179.67 333.75,179.54C333.75,179.41 333.75,179.29 333.75,179.16C333.75,179.04 333.75,178.91 333.75,178.79C333.75,178.66 333.75,178.54 333.75,178.41C333.75,178.28 333.75,178.16 333.75,178.03C333.75,177.9 333.75,177.78 333.75,177.65C333.75,177.53 333.75,177.4 333.75,177.28C333.75,177.15 333.75,177.03 333.75,176.9C333.75,176.77 333.75,176.65 333.75,176.52C333.75,176.4 333.75,176.27 333.75,176.15C333.75,176.02 333.75,175.9 333.75,175.77C333.75,175.64 333.75,175.52 333.75,175.39C333.75,175.26 333.75,175.14 333.75,175.01C333.75,174.89 333.75,174.76 333.75,174.64C333.75,174.51 333.75,174.39 333.75,174.26C333.75,174.13 333.75,174.01 333.75,173.88C333.75,173.75 333.75,173.63 333.75,173.5C333.75,173.38 333.75,173.25 333.75,173.13C333.75,173 333.75,172.88 333.75,172.75C333.75,172.62 333.75,172.5 333.75,172.37C333.75,172.24 333.75,172.12 333.75,171.99C333.75,171.87 333.76,171.74 333.76,171.62C333.76,171.49 333.77,171.37 333.77,171.24C333.78,171.11 333.78,170.99 333.79,170.86C333.8,170.73 333.82,170.61 333.84,170.48C333.86,170.36 333.89,170.23 333.92,170.11C333.95,169.98 333.99,169.86 334.03,169.73C334.07,169.6 334.12,169.48 334.16,169.35C334.2,169.22 334.25,169.1 334.29,168.97C334.33,168.85 334.37,168.73 334.39,168.6C334.41,168.48 334.43,168.35 334.43,168.22C334.43,168.09 334.41,167.97 334.39,167.84C334.37,167.71 334.33,167.59 334.29,167.46C334.25,167.34 334.2,167.21 334.16,167.09C334.12,166.96 334.07,166.84 334.03,166.71C333.99,166.58 333.95,166.46 333.92,166.33Q333.89,166.21 333.84,165.96L333.66,165.96Q333.61,166.21 333.58,166.33C333.55,166.46 333.51,166.58 333.47,166.71C333.43,166.84 333.38,166.96 333.34,167.09C333.3,167.21 333.25,167.34 333.21,167.46C333.17,167.59 333.13,167.71 333.11,167.84C333.09,167.97 333.07,168.09 333.07,168.22C333.07,168.35 333.09,168.48 333.11,168.6C333.13,168.73 333.17,168.85 333.21,168.97C333.25,169.1 333.3,169.22 333.34,169.35C333.38,169.48 333.43,169.6 333.47,169.73C333.51,169.86 333.55,169.98 333.58,170.11C333.61,170.23 333.64,170.36 333.66,170.48C333.68,170.61 333.7,170.73 333.71,170.86C333.72,170.99 333.72,171.11 333.73,171.24C333.73,171.37 333.74,171.49 333.74,171.62C333.74,171.74 333.75,171.87 333.75,171.99C333.75,172.12 333.75,172.24 333.75,172.37C333.75,172.5 333.75,172.62 333.75,172.75C333.75,172.88 333.75,173 333.75,173.13C333.75,173.25 333.75,173.38 333.75,173.5C333.75,173.63 333.75,173.75 333.75,173.88C333.75,174.01 333.75,174.13 333.75,174.26C333.75,174.39 333.75,174.51 333.75,174.64C333.75,174.76 333.75,174.89 333.75,175.01C333.75,175.14 333.75,175.26 333.75,175.39C333.75,175.52 333.75,175.64 333.75,175.77C333.75,175.9 333.75,176.02 333.75,176.15C333.75,176.27 333.75,176.4 333.75,176.52C333.75,176.65 333.75,176.77 333.75,176.9C333.75,177.03 333.75,177.15 333.75,177.28C333.75,177.4 333.75,177.53 333.75,177.65C333.75,177.78 333.75,177.9 333.75,178.03C333.75,178.16 333.75,178.28 333.75,178.41C333.75,178.54 333.75,178.66 333.75,178.79C333.75,178.91 333.75,179.04 333.75,179.16C333.75,179.29 333.75,179.41 333.75,179.54C333.75,179.67 333.75,179.79 333.75,179.92C333.75,180.05 333.75,180.17 333.75,180.3C333.75,180.42 333.75,180.55 333.75,180.67C333.75,180.8 333.75,180.92 333.75,181.05C333.75,181.18 333.75,181.3 333.75,181.43C333.75,181.56 333.75,181.68 333.75,181.81C333.75,181.93 333.75,182.06 333.75,182.18C333.75,182.31 333.75,182.43 333.75,182.56C333.75,182.69 333.75,182.81 333.75,182.94C333.75,183.07 333.75,183.19 333.75,183.32C333.75,183.44 333.75,183.57 333.75,183.69C333.75,183.82 333.75,183.94 333.75,184.07C333.75,184.2 333.75,184.32 333.75,184.45C333.75,184.58 333.75,184.7 333.75,184.83C333.75,184.95 333.75,185.08 333.75,185.2C333.75,185.33 333.75,185.45 333.75,185.58C333.75,185.71 333.75,185.83 333.75,185.96C333.75,186.08 333.75,186.21 333.75,186.33C333.75,186.46 333.75,186.58 333.75,186.71C333.75,186.84 333.75,186.96 333.75,187.09C333.75,187.22 333.75,187.34 333.75,187.47C333.75,187.59 333.75,187.72 333.75,187.84C333.75,187.97 333.75,188.09 333.75,188.22C333.75,188.35 333.75,188.47 333.75,188.6C333.75,188.73 333.75,188.85 333.75,188.98C333.75,189.1 333.75,189.23 333.75,189.35C333.75,189.48 333.75,189.6 333.75,189.73C333.75,189.86 333.75,189.98 333.75,190.11C333.75,190.24 333.75,190.36 333.75,190.49C333.75,190.61 333.75,190.74 333.75,190.86C333.75,190.99 333.75,191.11 333.75,191.24C333.75,191.37 333.75,191.49 333.75,191.62C333.75,191.75 333.75,191.87 333.75,192C333.75,192.12 333.75,192.25 333.75,192.37C333.75,192.5 333.75,192.62 333.75,192.75C333.75,192.88 333.75,193 333.75,193.13C333.75,193.26 333.75,193.38 333.75,193.51C333.75,193.63 333.75,193.76 333.75,193.88C333.75,194.01 333.75,194.13 333.75,194.26C333.75,194.39 333.75,194.51 333.75,194.64C333.75,194.77 333.75,194.89 333.75,195.02C333.75,195.14 333.75,195.27 333.75,195.39C333.75,195.52 333.75,195.64 333.75,195.77C333.75,195.9 333.75,196.02 333.75,196.15C333.75,196.27 333.75,196.4 333.75,196.52C333.75,196.65 333.75,196.77 333.75,196.9C333.75,197.03 333.75,197.15 333.75,197.28C333.75,197.41 333.75,197.53 333.75,197.66C333.75,197.78 333.75,197.91 333.75,198.03C333.75,198.16 333.75,198.28 333.75,198.41C333.75,198.54 333.75,198.66 333.75,198.79C333.75,198.92 333.75,199.04 333.75,199.17C333.75,199.29 333.75,199.42 333.75,199.54C333.75,199.67 333.75,199.79 333.75,199.92C333.75,200.05 333.75,200.17 333.75,200.3C333.75,200.43 333.75,200.55 333.75,200.68C333.75,200.8 333.75,200.93 333.75,201.05C333.75,201.18 333.74,201.3 333.73,201.43C333.72,201.56 333.71,201.69 333.68,201.81C333.65,201.94 333.62,202.07 333.54,202.19C333.45,202.33 333.32,202.45 333.15,202.56C332.91,202.71 332.59,202.83 332.21,202.94C331.67,203.1 330.98,203.21 330.2,203.32C329.14,203.47 327.85,203.59 326.44,203.7C324.64,203.84 322.51,203.95 320.28,204.07C317.62,204.21 314.59,204.33 311.54,204.45C308.19,204.58 304.49,204.7 300.98,204.83C297.48,204.95 293.73,205.06 290.49,205.2C287.69,205.32 284.63,205.4 282.65,205.58C281.44,205.69 279.73,205.83 279.73,205.96C279.73,206.09 281.44,206.23 282.65,206.34C284.63,206.52 287.69,206.59 290.49,206.71C293.73,206.85 297.48,206.96 300.98,207.09C304.49,207.22 308.19,207.34 311.54,207.47C314.59,207.59 317.62,207.71 320.28,207.85C322.51,207.97 324.64,208.08 326.44,208.22C327.85,208.33 329.14,208.45 330.2,208.6C330.98,208.71 331.67,208.82 332.21,208.98C332.59,209.09 332.91,209.21 333.15,209.36C333.32,209.47 333.45,209.59 333.54,209.73C333.62,209.85 333.65,209.98 333.68,210.11C333.71,210.23 333.72,210.36 333.73,210.49C333.74,210.62 333.75,210.74 333.75,210.87C333.75,210.99 333.75,211.12 333.75,211.24C333.75,211.37 333.75,211.49 333.75,211.62C333.75,211.75 333.75,211.87 333.75,212C333.75,212.13 333.75,212.25 333.75,212.38C333.75,212.5 333.75,212.63 333.75,212.75C333.75,212.88 333.75,213 333.75,213.13C333.75,213.26 333.75,213.38 333.75,213.51C333.75,213.64 333.75,213.76 333.75,213.89C333.75,214.01 333.75,214.14 333.75,214.26C333.75,214.39 333.75,214.51 333.75,214.64C333.75,214.77 333.75,214.89 333.75,215.02C333.75,215.14 333.75,215.27 333.75,215.39C333.75,215.52 333.75,215.64 333.75,215.77C333.75,215.9 333.75,216.02 333.75,216.15C333.75,216.28 333.75,216.4 333.75,216.53C333.75,216.65 333.75,216.78 333.75,216.9C333.75,217.03 333.75,217.15 333.75,217.28C333.75,217.41 333.75,217.53 333.75,217.66C333.75,217.79 333.75,217.91 333.75,218.04C333.75,218.16 333.75,218.29 333.75,218.41C333.75,218.54 333.75,218.66 333.75,218.79C333.75,218.92 333.75,219.04 333.75,219.17C333.75,219.3 333.75,219.42 333.75,219.55C333.75,219.67 333.75,219.8 333.75,219.92C333.75,220.05 333.75,220.17 333.75,220.3C333.75,220.43 333.75,220.55 333.75,220.68C333.75,220.81 333.75,220.93 333.75,221.06C333.75,221.18 333.75,221.31 333.75,221.43C333.75,221.56 333.75,221.68 333.75,221.81C333.75,221.94 333.75,222.06 333.75,222.19C333.75,222.32 333.75,222.44 333.75,222.57C333.75,222.69 333.75,222.82 333.75,222.94C333.75,223.07 333.75,223.19 333.75,223.32C333.75,223.45 333.75,223.57 333.75,223.7C333.75,223.82 333.75,223.95 333.75,224.07C333.75,224.2 333.75,224.32 333.75,224.45C333.75,224.58 333.75,224.7 333.75,224.83C333.75,224.96 333.75,225.08 333.75,225.21C333.75,225.33 333.75,225.46 333.75,225.58C333.75,225.71 333.75,225.83 333.75,225.96C333.75,226.09 333.75,226.21 333.75,226.34C333.75,226.47 333.75,226.59 333.75,226.72C333.75,226.84 333.75,226.97 333.75,227.09C333.75,227.22 333.75,227.34 333.75,227.47C333.75,227.6 333.75,227.72 333.75,227.85C333.75,227.98 333.75,228.1 333.75,228.23C333.75,228.35 333.75,228.48 333.75,228.6C333.75,228.73 333.75,228.85 333.75,228.98C333.75,229.11 333.75,229.23 333.75,229.36C333.75,229.49 333.75,229.61 333.75,229.74C333.75,229.86 333.75,229.99 333.75,230.11C333.75,230.24 333.75,230.36 333.75,230.49C333.75,230.62 333.75,230.74 333.75,230.87C333.75,231 333.75,231.12 333.75,231.25C333.75,231.37 333.75,231.5 333.75,231.62C333.75,231.75 333.75,231.87 333.75,232C333.75,232.13 333.75,232.25 333.75,232.38C333.75,232.5 333.75,232.63 333.75,232.75C333.75,232.88 333.75,233 333.75,233.13C333.75,233.26 333.75,233.38 333.75,233.51C333.75,233.64 333.75,233.76 333.75,233.89C333.75,234.01 333.75,234.14 333.75,234.26C333.75,234.39 333.75,234.51 333.75,234.64C333.75,234.77 333.75,234.89 333.75,235.02C333.75,235.15 333.75,235.27 333.75,235.4C333.75,235.52 333.75,235.65 333.75,235.77C333.75,235.9 333.75,236.02 333.75,236.15C333.75,236.28 333.75,236.4 333.75,236.53C333.75,236.66 333.75,236.78 333.75,236.91C333.75,237.03 333.75,237.16 333.75,237.28C333.75,237.41 333.75,237.53 333.75,237.66C333.75,237.79 333.75,237.91 333.75,238.04C333.75,238.17 333.75,238.29 333.75,238.42C333.75,238.54 333.75,238.67 333.75,238.79C333.75,238.92 333.75,239.04 333.75,239.17C333.75,239.3 333.74,239.42 333.74,239.55C333.74,239.68 333.74,239.8 333.73,239.93C333.72,240.05 333.71,240.18 333.69,240.3C333.67,240.43 333.65,240.56 333.6,240.68C333.55,240.81 333.48,240.94 333.39,241.06C333.29,241.19 333.17,241.32 333.02,241.44C332.85,241.58 332.63,241.69 332.4,241.81C332.14,241.94 331.84,242.07 331.53,242.19C331.2,242.32 330.82,242.44 330.47,242.57C330.12,242.69 329.74,242.81 329.42,242.94C329.14,243.06 328.83,243.17 328.64,243.32C328.5,243.43 328.35,243.57 328.35,243.7C328.35,243.83 328.5,243.97 328.64,244.08C328.83,244.23 329.14,244.33 329.42,244.45C329.74,244.58 330.12,244.7 330.47,244.83C330.82,244.96 331.2,245.08 331.53,245.21C331.84,245.33 332.14,245.46 332.4,245.59C332.63,245.71 332.85,245.82 333.02,245.96C333.17,246.08 333.29,246.21 333.39,246.34C333.48,246.46 333.55,246.59 333.6,246.72C333.65,246.84 333.67,246.97 333.69,247.1C333.71,247.22 333.72,247.35 333.73,247.47C333.74,247.6 333.74,247.72 333.74,247.85C333.74,247.98 333.75,248.1 333.75,248.23C333.75,248.36 333.75,248.48 333.75,248.61C333.75,248.73 333.75,248.86 333.75,248.98C333.75,249.11 333.75,249.23 333.75,249.36C333.75,249.49 333.75,249.61 333.75,249.74C333.75,249.87 333.75,249.99 333.75,250.12C333.75,250.24 333.75,250.37 333.75,250.49C333.75,250.62 333.75,250.74 333.75,250.87C333.75,251 333.75,251.12 333.75,251.25C333.75,251.37 333.75,251.5 333.75,251.62C333.75,251.75 333.75,251.87 333.75,252C333.75,252.13 333.75,252.25 333.75,252.38C333.75,252.51 333.75,252.63 333.75,252.76C333.75,252.88 333.75,253.01 333.75,253.13C333.75,253.26 333.75,253.38 333.75,253.51C333.75,253.64 333.75,253.76 333.75,253.89C333.75,254.02 333.75,254.14 333.75,254.27C333.75,254.39 333.75,254.52 333.75,254.64C333.75,254.77 333.75,254.89 333.75,255.02C333.75,255.15 333.75,255.27 333.75,255.4C333.75,255.53 333.75,255.65 333.75,255.78C333.75,255.9 333.75,256.03 333.75,256.15C333.75,256.28 333.75,256.4 333.75,256.53C333.75,256.66 333.75,256.78 333.75,256.91C333.75,257.04 333.75,257.16 333.75,257.29C333.75,257.41 333.75,257.54 333.75,257.66C333.75,257.79 333.75,257.91 333.75,258.04C333.75,258.17 333.75,258.29 333.75,258.42C333.75,258.55 333.75,258.67 333.75,258.8C333.75,258.92 333.75,259.05 333.75,259.17C333.75,259.3 333.75,259.42 333.75,259.55C333.75,259.68 333.75,259.8 333.75,259.93C333.75,260.06 333.75,260.18 333.75,260.31C333.75,260.43 333.75,260.56 333.75,260.68C333.75,260.81 333.75,260.93 333.75,261.06C333.75,261.19 333.75,261.31 333.75,261.44C333.75,261.56 333.75,261.69 333.75,261.81C333.75,261.94 333.75,262.06 333.75,262.19C333.75,262.32 333.75,262.44 333.75,262.57C333.75,262.7 333.75,262.82 333.75,262.95C333.75,263.07 333.75,263.2 333.75,263.32C333.75,263.45 333.75,263.57 333.75,263.7C333.75,263.83 333.75,263.95 333.75,264.08C333.75,264.21 333.75,264.33 333.75,264.46C333.75,264.58 333.75,264.71 333.75,264.83C333.75,264.96 333.75,265.08 333.75,265.21C333.75,265.34 333.75,265.46 333.75,265.59C333.75,265.72 333.75,265.84 333.75,265.97C333.75,266.09 333.75,266.22 333.75,266.34C333.75,266.47 333.75,266.59 333.75,266.72C333.75,266.85 333.75,266.97 333.75,267.1C333.75,267.23 333.75,267.35 333.75,267.48C333.75,267.6 333.75,267.73 333.75,267.85C333.75,267.98 333.75,268.1 333.75,268.23C333.75,268.36 333.75,268.48 333.75,268.61C333.75,268.74 333.75,268.86 333.75,268.99C333.75,269.11 333.75,269.24 333.75,269.36C333.75,269.49 333.75,269.61 333.75,269.74C333.75,269.87 333.75,269.99 333.75,270.12C333.75,270.24 333.75,270.37 333.75,270.49C333.75,270.62 333.75,270.74 333.75,270.87C333.75,271 333.75,271.12 333.75,271.25C333.75,271.38 333.75,271.5 333.75,271.63C333.75,271.75 333.75,271.88 333.75,272C333.75,272.13 333.75,272.25 333.75,272.38C333.75,272.51 333.75,272.63 333.75,272.76C333.75,272.89 333.75,273.01 333.75,273.14C333.75,273.26 333.75,273.39 333.75,273.51C333.75,273.64 333.75,273.76 333.75,273.89C333.75,274.02 333.75,274.14 333.75,274.27C333.75,274.4 333.75,274.52 333.75,274.65C333.75,274.77 333.75,274.9 333.75,275.02C333.75,275.15 333.75,275.27 333.75,275.4C333.75,275.53 333.75,275.65 333.75,275.78C333.75,275.91 333.75,276.03 333.75,276.16C333.75,276.28 333.75,276.41 333.75,276.53C333.75,276.66 333.75,276.78 333.75,276.91C333.75,277.04 333.74,277.16 333.74,277.29C333.73,277.42 333.73,277.54 333.72,277.67C333.71,277.79 333.7,277.92 333.67,278.04C333.64,278.17 333.6,278.3 333.54,278.42C333.47,278.55 333.38,278.68 333.26,278.8C333.12,278.94 332.94,279.06 332.74,279.18C332.5,279.32 332.21,279.43 331.9,279.55C331.54,279.69 331.12,279.81 330.7,279.93C330.24,280.06 329.73,280.18 329.24,280.31C328.76,280.43 328.24,280.55 327.8,280.68C327.41,280.8 326.98,280.9 326.72,281.06C326.54,281.17 326.32,281.31 326.32,281.44C326.32,281.57 326.54,281.71 326.72,281.82C326.98,281.98 327.41,282.07 327.8,282.19C328.24,282.32 328.76,282.44 329.24,282.57C329.72,282.7 330.24,282.82 330.7,282.95C331.12,283.07 331.54,283.19 331.9,283.33Q332.21,283.45 332.74,283.7Z" style="vector-effect: non-scaling-stroke; stroke-width: 2px; stroke: rgb(239, 85, 59); stroke-opacity: 1; fill: rgb(239, 85, 59); fill-opacity: 0.5;"/><g class="points"><path class="point" transform="translate(261.13,281.44)" d="M3,0A3,3 0 1,1 0,-3A3,3 0 0,1 3,0Z" style="opacity: 1; stroke-width: 0px; fill: rgb(239, 85, 59); fill-opacity: 1;"/><path class="point" transform="translate(242.39,281.44)" d="M3,0A3,3 0 1,1 0,-3A3,3 0 0,1 3,0Z" style="opacity: 1; stroke-width: 0px; fill: rgb(239, 85, 59); fill-opacity: 1;"/><path class="point" transform="translate(265.28,281.44)" d="M3,0A3,3 0 1,1 0,-3A3,3 0 0,1 3,0Z" style="opacity: 1; stroke-width: 0px; fill: rgb(239, 85, 59); fill-opacity: 1;"/><path class="point" transform="translate(239.01,281.44)" d="M3,0A3,3 0 1,1 0,-3A3,3 0 0,1 3,0Z" style="opacity: 1; stroke-width: 0px; fill: rgb(239, 85, 59); fill-opacity: 1;"/><path class="point" transform="translate(248.72,281.44)" d="M3,0A3,3 0 1,1 0,-3A3,3 0 0,1 3,0Z" style="opacity: 1; stroke-width: 0px; fill: rgb(239, 85, 59); fill-opacity: 1;"/><path class="point" transform="translate(261.22,281.44)" d="M3,0A3,3 0 1,1 0,-3A3,3 0 0,1 3,0Z" style="opacity: 1; stroke-width: 0px; fill: rgb(239, 85, 59); fill-opacity: 1;"/><path class="point" transform="translate(252.61,281.44)" d="M3,0A3,3 0 1,1 0,-3A3,3 0 0,1 3,0Z" style="opacity: 1; stroke-width: 0px; fill: rgb(239, 85, 59); fill-opacity: 1;"/><path class="point" transform="translate(253.53,281.44)" d="M3,0A3,3 0 1,1 0,-3A3,3 0 0,1 3,0Z" style="opacity: 1; stroke-width: 0px; fill: rgb(239, 85, 59); fill-opacity: 1;"/><path class="point" transform="translate(251.82,281.44)" d="M3,0A3,3 0 1,1 0,-3A3,3 0 0,1 3,0Z" style="opacity: 1; stroke-width: 0px; fill: rgb(239, 85, 59); fill-opacity: 1;"/><path class="point" transform="translate(250.66,281.44)" d="M3,0A3,3 0 1,1 0,-3A3,3 0 0,1 3,0Z" style="opacity: 1; stroke-width: 0px; fill: rgb(239, 85, 59); fill-opacity: 1;"/><path class="point" transform="translate(253.47,281.44)" d="M3,0A3,3 0 1,1 0,-3A3,3 0 0,1 3,0Z" style="opacity: 1; stroke-width: 0px; fill: rgb(239, 85, 59); fill-opacity: 1;"/><path class="point" transform="translate(251.79,243.7)" d="M3,0A3,3 0 1,1 0,-3A3,3 0 0,1 3,0Z" style="opacity: 1; stroke-width: 0px; fill: rgb(239, 85, 59); fill-opacity: 1;"/><path class="point" transform="translate(254.5,243.7)" d="M3,0A3,3 0 1,1 0,-3A3,3 0 0,1 3,0Z" style="opacity: 1; stroke-width: 0px; fill: rgb(239, 85, 59); fill-opacity: 1;"/><path class="point" transform="translate(249.98,243.7)" d="M3,0A3,3 0 1,1 0,-3A3,3 0 0,1 3,0Z" style="opacity: 1; stroke-width: 0px; fill: rgb(239, 85, 59); fill-opacity: 1;"/><path class="point" transform="translate(251.57,243.7)" d="M3,0A3,3 0 1,1 0,-3A3,3 0 0,1 3,0Z" style="opacity: 1; stroke-width: 0px; fill: rgb(239, 85, 59); fill-opacity: 1;"/><path class="point" transform="translate(254.47,243.7)" d="M3,0A3,3 0 1,1 0,-3A3,3 0 0,1 3,0Z" style="opacity: 1; stroke-width: 0px; fill: rgb(239, 85, 59); fill-opacity: 1;"/><path class="point" transform="translate(252.01,243.7)" d="M3,0A3,3 0 1,1 0,-3A3,3 0 0,1 3,0Z" style="opacity: 1; stroke-width: 0px; fill: rgb(239, 85, 59); fill-opacity: 1;"/><path class="point" transform="translate(250.31,243.7)" d="M3,0A3,3 0 1,1 0,-3A3,3 0 0,1 3,0Z" style="opacity: 1; stroke-width: 0px; fill: rgb(239, 85, 59); fill-opacity: 1;"/><path class="point" transform="translate(251.79,243.7)" d="M3,0A3,3 0 1,1 0,-3A3,3 0 0,1 3,0Z" style="opacity: 1; stroke-width: 0px; fill: rgb(239, 85, 59); fill-opacity: 1;"/><path class="point" transform="translate(252.66,205.96)" d="M3,0A3,3 0 1,1 0,-3A3,3 0 0,1 3,0Z" style="opacity: 1; stroke-width: 0px; fill: rgb(239, 85, 59); fill-opacity: 1;"/><path class="point" transform="translate(253.98,205.96)" d="M3,0A3,3 0 1,1 0,-3A3,3 0 0,1 3,0Z" style="opacity: 1; stroke-width: 0px; fill: rgb(239, 85, 59); fill-opacity: 1;"/><path class="point" transform="translate(253.03,205.96)" d="M3,0A3,3 0 1,1 0,-3A3,3 0 0,1 3,0Z" style="opacity: 1; stroke-width: 0px; fill: rgb(239, 85, 59); fill-opacity: 1;"/><path class="point" transform="translate(251.92,205.96)" d="M3,0A3,3 0 1,1 0,-3A3,3 0 0,1 3,0Z" style="opacity: 1; stroke-width: 0px; fill: rgb(239, 85, 59); fill-opacity: 1;"/><path class="point" transform="translate(250.37,205.96)" d="M3,0A3,3 0 1,1 0,-3A3,3 0 0,1 3,0Z" style="opacity: 1; stroke-width: 0px; fill: rgb(239, 85, 59); fill-opacity: 1;"/><path class="point" transform="translate(252.67,205.96)" d="M3,0A3,3 0 1,1 0,-3A3,3 0 0,1 3,0Z" style="opacity: 1; stroke-width: 0px; fill: rgb(239, 85, 59); fill-opacity: 1;"/><path class="point" transform="translate(247.98,205.96)" d="M3,0A3,3 0 1,1 0,-3A3,3 0 0,1 3,0Z" style="opacity: 1; stroke-width: 0px; fill: rgb(239, 85, 59); fill-opacity: 1;"/><path class="point" transform="translate(260.26,205.96)" d="M3,0A3,3 0 1,1 0,-3A3,3 0 0,1 3,0Z" style="opacity: 1; stroke-width: 0px; fill: rgb(239, 85, 59); fill-opacity: 1;"/><path class="point" transform="translate(251.28,205.96)" d="M3,0A3,3 0 1,1 0,-3A3,3 0 0,1 3,0Z" style="opacity: 1; stroke-width: 0px; fill: rgb(239, 85, 59); fill-opacity: 1;"/><path class="point" transform="translate(242.11,205.96)" d="M3,0A3,3 0 1,1 0,-3A3,3 0 0,1 3,0Z" style="opacity: 1; stroke-width: 0px; fill: rgb(239, 85, 59); fill-opacity: 1;"/><path class="point" transform="translate(237.6,205.96)" d="M3,0A3,3 0 1,1 0,-3A3,3 0 0,1 3,0Z" style="opacity: 1; stroke-width: 0px; fill: rgb(239, 85, 59); fill-opacity: 1;"/><path class="point" transform="translate(261.86,205.96)" d="M3,0A3,3 0 1,1 0,-3A3,3 0 0,1 3,0Z" style="opacity: 1; stroke-width: 0px; fill: rgb(239, 85, 59); fill-opacity: 1;"/><path class="point" transform="translate(238.87,205.96)" d="M3,0A3,3 0 1,1 0,-3A3,3 0 0,1 3,0Z" style="opacity: 1; stroke-width: 0px; fill: rgb(239, 85, 59); fill-opacity: 1;"/><path class="point" transform="translate(262.35,205.96)" d="M3,0A3,3 0 1,1 0,-3A3,3 0 0,1 3,0Z" style="opacity: 1; stroke-width: 0px; fill: rgb(239, 85, 59); fill-opacity: 1;"/><path class="point" transform="translate(256.26,205.96)" d="M3,0A3,3 0 1,1 0,-3A3,3 0 0,1 3,0Z" style="opacity: 1; stroke-width: 0px; fill: rgb(239, 85, 59); fill-opacity: 1;"/><path class="point" transform="translate(247.88,205.96)" d="M3,0A3,3 0 1,1 0,-3A3,3 0 0,1 3,0Z" style="opacity: 1; stroke-width: 0px; fill: rgb(239, 85, 59); fill-opacity: 1;"/><path class="point" transform="translate(243.12,205.96)" d="M3,0A3,3 0 1,1 0,-3A3,3 0 0,1 3,0Z" style="opacity: 1; stroke-width: 0px; fill: rgb(239, 85, 59); fill-opacity: 1;"/><path class="point" transform="translate(260.03,205.96)" d="M3,0A3,3 0 1,1 0,-3A3,3 0 0,1 3,0Z" style="opacity: 1; stroke-width: 0px; fill: rgb(239, 85, 59); fill-opacity: 1;"/><path class="point" transform="translate(250.98,205.96)" d="M3,0A3,3 0 1,1 0,-3A3,3 0 0,1 3,0Z" style="opacity: 1; stroke-width: 0px; fill: rgb(239, 85, 59); fill-opacity: 1;"/><path class="point" transform="translate(263.85,205.96)" d="M3,0A3,3 0 1,1 0,-3A3,3 0 0,1 3,0Z" style="opacity: 1; stroke-width: 0px; fill: rgb(239, 85, 59); fill-opacity: 1;"/><path class="point" transform="translate(239.09,205.96)" d="M3,0A3,3 0 1,1 0,-3A3,3 0 0,1 3,0Z" style="opacity: 1; stroke-width: 0px; fill: rgb(239, 85, 59); fill-opacity: 1;"/><path class="point" transform="translate(263.06,205.96)" d="M3,0A3,3 0 1,1 0,-3A3,3 0 0,1 3,0Z" style="opacity: 1; stroke-width: 0px; fill: rgb(239, 85, 59); fill-opacity: 1;"/><path class="point" transform="translate(251.38,205.96)" d="M3,0A3,3 0 1,1 0,-3A3,3 0 0,1 3,0Z" style="opacity: 1; stroke-width: 0px; fill: rgb(239, 85, 59); fill-opacity: 1;"/><path class="point" transform="translate(246.35,205.96)" d="M3,0A3,3 0 1,1 0,-3A3,3 0 0,1 3,0Z" style="opacity: 1; stroke-width: 0px; fill: rgb(239, 85, 59); fill-opacity: 1;"/><path class="point" transform="translate(236.76,205.96)" d="M3,0A3,3 0 1,1 0,-3A3,3 0 0,1 3,0Z" style="opacity: 1; stroke-width: 0px; fill: rgb(239, 85, 59); fill-opacity: 1;"/><path class="point" transform="translate(246.38,205.96)" d="M3,0A3,3 0 1,1 0,-3A3,3 0 0,1 3,0Z" style="opacity: 1; stroke-width: 0px; fill: rgb(239, 85, 59); fill-opacity: 1;"/><path class="point" transform="translate(263.54,205.96)" d="M3,0A3,3 0 1,1 0,-3A3,3 0 0,1 3,0Z" style="opacity: 1; stroke-width: 0px; fill: rgb(239, 85, 59); fill-opacity: 1;"/><path class="point" transform="translate(248.84,205.96)" d="M3,0A3,3 0 1,1 0,-3A3,3 0 0,1 3,0Z" style="opacity: 1; stroke-width: 0px; fill: rgb(239, 85, 59); fill-opacity: 1;"/><path class="point" transform="translate(240.13,205.96)" d="M3,0A3,3 0 1,1 0,-3A3,3 0 0,1 3,0Z" style="opacity: 1; stroke-width: 0px; fill: rgb(239, 85, 59); fill-opacity: 1;"/><path class="point" transform="translate(260.56,205.96)" d="M3,0A3,3 0 1,1 0,-3A3,3 0 0,1 3,0Z" style="opacity: 1; stroke-width: 0px; fill: rgb(239, 85, 59); fill-opacity: 1;"/><path class="point" transform="translate(244.03,205.96)" d="M3,0A3,3 0 1,1 0,-3A3,3 0 0,1 3,0Z" style="opacity: 1; stroke-width: 0px; fill: rgb(239, 85, 59); fill-opacity: 1;"/><path class="point" transform="translate(252.72,205.96)" d="M3,0A3,3 0 1,1 0,-3A3,3 0 0,1 3,0Z" style="opacity: 1; stroke-width: 0px; fill: rgb(239, 85, 59); fill-opacity: 1;"/><path class="point" transform="translate(259.65,205.96)" d="M3,0A3,3 0 1,1 0,-3A3,3 0 0,1 3,0Z" style="opacity: 1; stroke-width: 0px; fill: rgb(239, 85, 59); fill-opacity: 1;"/><path class="point" transform="translate(236.98,205.96)" d="M3,0A3,3 0 1,1 0,-3A3,3 0 0,1 3,0Z" style="opacity: 1; stroke-width: 0px; fill: rgb(239, 85, 59); fill-opacity: 1;"/><path class="point" transform="translate(267.9,205.96)" d="M3,0A3,3 0 1,1 0,-3A3,3 0 0,1 3,0Z" style="opacity: 1; stroke-width: 0px; fill: rgb(239, 85, 59); fill-opacity: 1;"/><path class="point" transform="translate(259.44,205.96)" d="M3,0A3,3 0 1,1 0,-3A3,3 0 0,1 3,0Z" style="opacity: 1; stroke-width: 0px; fill: rgb(239, 85, 59); fill-opacity: 1;"/><path class="point" transform="translate(238.38,205.96)" d="M3,0A3,3 0 1,1 0,-3A3,3 0 0,1 3,0Z" style="opacity: 1; stroke-width: 0px; fill: rgb(239, 85, 59); fill-opacity: 1;"/><path class="point" transform="translate(265.56,205.96)" d="M3,0A3,3 0 1,1 0,-3A3,3 0 0,1 3,0Z" style="opacity: 1; stroke-width: 0px; fill: rgb(239, 85, 59); fill-opacity: 1;"/><path class="point" transform="translate(240.81,205.96)" d="M3,0A3,3 0 1,1 0,-3A3,3 0 0,1 3,0Z" style="opacity: 1; stroke-width: 0px; fill: rgb(239, 85, 59); fill-opacity: 1;"/><path class="point" transform="translate(250.77,205.96)" d="M3,0A3,3 0 1,1 0,-3A3,3 0 0,1 3,0Z" style="opacity: 1; stroke-width: 0px; fill: rgb(239, 85, 59); fill-opacity: 1;"/><path class="point" transform="translate(254.74,205.96)" d="M3,0A3,3 0 1,1 0,-3A3,3 0 0,1 3,0Z" style="opacity: 1; stroke-width: 0px; fill: rgb(239, 85, 59); fill-opacity: 1;"/><path class="point" transform="translate(245.99,205.96)" d="M3,0A3,3 0 1,1 0,-3A3,3 0 0,1 3,0Z" style="opacity: 1; stroke-width: 0px; fill: rgb(239, 85, 59); fill-opacity: 1;"/><path class="point" transform="translate(263.06,205.96)" d="M3,0A3,3 0 1,1 0,-3A3,3 0 0,1 3,0Z" style="opacity: 1; stroke-width: 0px; fill: rgb(239, 85, 59); fill-opacity: 1;"/><path class="point" transform="translate(242.59,205.96)" d="M3,0A3,3 0 1,1 0,-3A3,3 0 0,1 3,0Z" style="opacity: 1; stroke-width: 0px; fill: rgb(239, 85, 59); fill-opacity: 1;"/><path class="point" transform="translate(258.85,205.96)" d="M3,0A3,3 0 1,1 0,-3A3,3 0 0,1 3,0Z" style="opacity: 1; stroke-width: 0px; fill: rgb(239, 85, 59); fill-opacity: 1;"/><path class="point" transform="translate(264.58,205.96)" d="M3,0A3,3 0 1,1 0,-3A3,3 0 0,1 3,0Z" style="opacity: 1; stroke-width: 0px; fill: rgb(239, 85, 59); fill-opacity: 1;"/><path class="point" transform="translate(237.5,205.96)" d="M3,0A3,3 0 1,1 0,-3A3,3 0 0,1 3,0Z" style="opacity: 1; stroke-width: 0px; fill: rgb(239, 85, 59); fill-opacity: 1;"/><path class="point" transform="translate(243.8,205.96)" d="M3,0A3,3 0 1,1 0,-3A3,3 0 0,1 3,0Z" style="opacity: 1; stroke-width: 0px; fill: rgb(239, 85, 59); fill-opacity: 1;"/><path class="point" transform="translate(261.41,205.96)" d="M3,0A3,3 0 1,1 0,-3A3,3 0 0,1 3,0Z" style="opacity: 1; stroke-width: 0px; fill: rgb(239, 85, 59); fill-opacity: 1;"/><path class="point" transform="translate(248.53,205.96)" d="M3,0A3,3 0 1,1 0,-3A3,3 0 0,1 3,0Z" style="opacity: 1; stroke-width: 0px; fill: rgb(239, 85, 59); fill-opacity: 1;"/><path class="point" transform="translate(254.02,205.96)" d="M3,0A3,3 0 1,1 0,-3A3,3 0 0,1 3,0Z" style="opacity: 1; stroke-width: 0px; fill: rgb(239, 85, 59); fill-opacity: 1;"/><path class="point" transform="translate(266.5,205.96)" d="M3,0A3,3 0 1,1 0,-3A3,3 0 0,1 3,0Z" style="opacity: 1; stroke-width: 0px; fill: rgb(239, 85, 59); fill-opacity: 1;"/><path class="point" transform="translate(240.18,205.96)" d="M3,0A3,3 0 1,1 0,-3A3,3 0 0,1 3,0Z" style="opacity: 1; stroke-width: 0px; fill: rgb(239, 85, 59); fill-opacity: 1;"/><path class="point" transform="translate(268.86,205.96)" d="M3,0A3,3 0 1,1 0,-3A3,3 0 0,1 3,0Z" style="opacity: 1; stroke-width: 0px; fill: rgb(239, 85, 59); fill-opacity: 1;"/><path class="point" transform="translate(240.64,205.96)" d="M3,0A3,3 0 1,1 0,-3A3,3 0 0,1 3,0Z" style="opacity: 1; stroke-width: 0px; fill: rgb(239, 85, 59); fill-opacity: 1;"/><path class="point" transform="translate(268.71,205.96)" d="M3,0A3,3 0 1,1 0,-3A3,3 0 0,1 3,0Z" style="opacity: 1; stroke-width: 0px; fill: rgb(239, 85, 59); fill-opacity: 1;"/><path class="point" transform="translate(244.86,205.96)" d="M3,0A3,3 0 1,1 0,-3A3,3 0 0,1 3,0Z" style="opacity: 1; stroke-width: 0px; fill: rgb(239, 85, 59); fill-opacity: 1;"/><path class="point" transform="translate(264.92,205.96)" d="M3,0A3,3 0 1,1 0,-3A3,3 0 0,1 3,0Z" style="opacity: 1; stroke-width: 0px; fill: rgb(239, 85, 59); fill-opacity: 1;"/><path class="point" transform="translate(257.3,205.96)" d="M3,0A3,3 0 1,1 0,-3A3,3 0 0,1 3,0Z" style="opacity: 1; stroke-width: 0px; fill: rgb(239, 85, 59); fill-opacity: 1;"/><path class="point" transform="translate(250.54,205.96)" d="M3,0A3,3 0 1,1 0,-3A3,3 0 0,1 3,0Z" style="opacity: 1; stroke-width: 0px; fill: rgb(239, 85, 59); fill-opacity: 1;"/><path class="point" transform="translate(237.46,205.96)" d="M3,0A3,3 0 1,1 0,-3A3,3 0 0,1 3,0Z" style="opacity: 1; stroke-width: 0px; fill: rgb(239, 85, 59); fill-opacity: 1;"/><path class="point" transform="translate(250.04,205.96)" d="M3,0A3,3 0 1,1 0,-3A3,3 0 0,1 3,0Z" style="opacity: 1; stroke-width: 0px; fill: rgb(239, 85, 59); fill-opacity: 1;"/><path class="point" transform="translate(239.2,205.96)" d="M3,0A3,3 0 1,1 0,-3A3,3 0 0,1 3,0Z" style="opacity: 1; stroke-width: 0px; fill: rgb(239, 85, 59); fill-opacity: 1;"/><path class="point" transform="translate(243.8,205.96)" d="M3,0A3,3 0 1,1 0,-3A3,3 0 0,1 3,0Z" style="opacity: 1; stroke-width: 0px; fill: rgb(239, 85, 59); fill-opacity: 1;"/><path class="point" transform="translate(240.03,205.96)" d="M3,0A3,3 0 1,1 0,-3A3,3 0 0,1 3,0Z" style="opacity: 1; stroke-width: 0px; fill: rgb(239, 85, 59); fill-opacity: 1;"/><path class="point" transform="translate(236.63,205.96)" d="M3,0A3,3 0 1,1 0,-3A3,3 0 0,1 3,0Z" style="opacity: 1; stroke-width: 0px; fill: rgb(239, 85, 59); fill-opacity: 1;"/><path class="point" transform="translate(244.11,205.96)" d="M3,0A3,3 0 1,1 0,-3A3,3 0 0,1 3,0Z" style="opacity: 1; stroke-width: 0px; fill: rgb(239, 85, 59); fill-opacity: 1;"/><path class="point" transform="translate(258.15,205.96)" d="M3,0A3,3 0 1,1 0,-3A3,3 0 0,1 3,0Z" style="opacity: 1; stroke-width: 0px; fill: rgb(239, 85, 59); fill-opacity: 1;"/><path class="point" transform="translate(238.76,205.96)" d="M3,0A3,3 0 1,1 0,-3A3,3 0 0,1 3,0Z" style="opacity: 1; stroke-width: 0px; fill: rgb(239, 85, 59); fill-opacity: 1;"/><path class="point" transform="translate(256.36,205.96)" d="M3,0A3,3 0 1,1 0,-3A3,3 0 0,1 3,0Z" style="opacity: 1; stroke-width: 0px; fill: rgb(239, 85, 59); fill-opacity: 1;"/><path class="point" transform="translate(260.58,205.96)" d="M3,0A3,3 0 1,1 0,-3A3,3 0 0,1 3,0Z" style="opacity: 1; stroke-width: 0px; fill: rgb(239, 85, 59); fill-opacity: 1;"/><path class="point" transform="translate(254.67,205.96)" d="M3,0A3,3 0 1,1 0,-3A3,3 0 0,1 3,0Z" style="opacity: 1; stroke-width: 0px; fill: rgb(239, 85, 59); fill-opacity: 1;"/><path class="point" transform="translate(243.22,205.96)" d="M3,0A3,3 0 1,1 0,-3A3,3 0 0,1 3,0Z" style="opacity: 1; stroke-width: 0px; fill: rgb(239, 85, 59); fill-opacity: 1;"/><path class="point" transform="translate(247.21,205.96)" d="M3,0A3,3 0 1,1 0,-3A3,3 0 0,1 3,0Z" style="opacity: 1; stroke-width: 0px; fill: rgb(239, 85, 59); fill-opacity: 1;"/><path class="point" transform="translate(268.37,205.96)" d="M3,0A3,3 0 1,1 0,-3A3,3 0 0,1 3,0Z" style="opacity: 1; stroke-width: 0px; fill: rgb(239, 85, 59); fill-opacity: 1;"/><path class="point" transform="translate(251.25,205.96)" d="M3,0A3,3 0 1,1 0,-3A3,3 0 0,1 3,0Z" style="opacity: 1; stroke-width: 0px; fill: rgb(239, 85, 59); fill-opacity: 1;"/><path class="point" transform="translate(253.02,205.96)" d="M3,0A3,3 0 1,1 0,-3A3,3 0 0,1 3,0Z" style="opacity: 1; stroke-width: 0px; fill: rgb(239, 85, 59); fill-opacity: 1;"/><path class="point" transform="translate(254.28,205.96)" d="M3,0A3,3 0 1,1 0,-3A3,3 0 0,1 3,0Z" style="opacity: 1; stroke-width: 0px; fill: rgb(239, 85, 59); fill-opacity: 1;"/><path class="point" transform="translate(250.77,205.96)" d="M3,0A3,3 0 1,1 0,-3A3,3 0 0,1 3,0Z" style="opacity: 1; stroke-width: 0px; fill: rgb(239, 85, 59); fill-opacity: 1;"/><path class="point" transform="translate(252.42,205.96)" d="M3,0A3,3 0 1,1 0,-3A3,3 0 0,1 3,0Z" style="opacity: 1; stroke-width: 0px; fill: rgb(239, 85, 59); fill-opacity: 1;"/><path class="point" transform="translate(254.47,168.22)" d="M3,0A3,3 0 1,1 0,-3A3,3 0 0,1 3,0Z" style="opacity: 1; stroke-width: 0px; fill: rgb(239, 85, 59); fill-opacity: 1;"/></g></g></g></g><g class="overplot"/><path class="xlines-above crisp" d="M0,0" style="fill: none;"/><path class="ylines-above crisp" d="M0,0" style="fill: none;"/><g class="overlines-above"/><g class="xaxislayer-above"><g class="xtick"><text text-anchor="middle" x="0" y="433" transform="translate(193.25,0)" style="font-family: 'Open Sans', verdana, arial, sans-serif; font-size: 12px; fill: rgb(42, 63, 95); fill-opacity: 1; white-space: pre; opacity: 1;">eff_cnn</text></g><g class="xtick"><text text-anchor="middle" x="0" y="433" transform="translate(413.75,0)" style="font-family: 'Open Sans', verdana, arial, sans-serif; font-size: 12px; fill: rgb(42, 63, 95); fill-opacity: 1; white-space: pre; opacity: 1;">simplified_eff_cnn</text></g></g><g class="yaxislayer-above"><g class="ytick"><text text-anchor="end" x="79" y="4.199999999999999" transform="translate(0,419.18)" style="font-family: 'Open Sans', verdana, arial, sans-serif; font-size: 12px; fill: rgb(42, 63, 95); fill-opacity: 1; white-space: pre; opacity: 1;">4</text></g><g class="ytick"><text text-anchor="end" x="79" y="4.199999999999999" style="font-family: 'Open Sans', verdana, arial, sans-serif; font-size: 12px; fill: rgb(42, 63, 95); fill-opacity: 1; white-space: pre; opacity: 1;" transform="translate(0,381.44)">5</text></g><g class="ytick"><text text-anchor="end" x="79" y="4.199999999999999" style="font-family: 'Open Sans', verdana, arial, sans-serif; font-size: 12px; fill: rgb(42, 63, 95); fill-opacity: 1; white-space: pre; opacity: 1;" transform="translate(0,343.7)">6</text></g><g class="ytick"><text text-anchor="end" x="79" y="4.199999999999999" style="font-family: 'Open Sans', verdana, arial, sans-serif; font-size: 12px; fill: rgb(42, 63, 95); fill-opacity: 1; white-space: pre; opacity: 1;" transform="translate(0,305.96000000000004)">7</text></g><g class="ytick"><text text-anchor="end" x="79" y="4.199999999999999" style="font-family: 'Open Sans', verdana, arial, sans-serif; font-size: 12px; fill: rgb(42, 63, 95); fill-opacity: 1; white-space: pre; opacity: 1;" transform="translate(0,268.22)">8</text></g><g class="ytick"><text text-anchor="end" x="79" y="4.199999999999999" style="font-family: 'Open Sans', verdana, arial, sans-serif; font-size: 12px; fill: rgb(42, 63, 95); fill-opacity: 1; white-space: pre; opacity: 1;" transform="translate(0,230.48)">9</text></g><g class="ytick"><text text-anchor="end" x="79" y="4.199999999999999" style="font-family: 'Open Sans', verdana, arial, sans-serif; font-size: 12px; fill: rgb(42, 63, 95); fill-opacity: 1; white-space: pre; opacity: 1;" transform="translate(0,192.74)">10</text></g><g class="ytick"><text text-anchor="end" x="79" y="4.199999999999999" style="font-family: 'Open Sans', verdana, arial, sans-serif; font-size: 12px; fill: rgb(42, 63, 95); fill-opacity: 1; white-space: pre; opacity: 1;" transform="translate(0,155)">11</text></g><g class="ytick"><text text-anchor="end" x="79" y="4.199999999999999" style="font-family: 'Open Sans', verdana, arial, sans-serif; font-size: 12px; fill: rgb(42, 63, 95); fill-opacity: 1; white-space: pre; opacity: 1;" transform="translate(0,117.26)">12</text></g></g><g class="overaxes-above"/></g></g><g class="polarlayer"/><g class="ternarylayer"/><g class="geolayer"/><g class="funnelarealayer"/><g class="pielayer"/><g class="iciclelayer"/><g class="treemaplayer"/><g class="sunburstlayer"/><g class="glimages"/><defs id="topdefs-821d5a"><g class="clips"/><clipPath id="legend821d5a"><rect width="155" height="67" x="0" y="0"/></clipPath></defs><g class="layer-above"><g class="imagelayer"/><g class="shapelayer"/></g><g class="infolayer"><g class="legend" pointer-events="all" transform="translate(532.88,100)"><rect class="bg" shape-rendering="crispEdges" width="155" height="67" x="0" y="0" style="stroke: rgb(68, 68, 68); stroke-opacity: 1; fill: rgb(255, 255, 255); fill-opacity: 1; stroke-width: 0px;"/><g class="scrollbox" transform="" clip-path="url(#legend821d5a)"><text class="legendtitletext" text-anchor="start" x="2" y="18.2" style="font-family: 'Open Sans', verdana, arial, sans-serif; font-size: 14px; fill: rgb(42, 63, 95); fill-opacity: 1; white-space: pre;">model</text><g class="groups" transform=""><g class="traces" transform="translate(0,32.7)" style="opacity: 1;"><text class="legendtext" text-anchor="start" x="40" y="4.680000000000001" style="font-family: 'Open Sans', verdana, arial, sans-serif; font-size: 12px; fill: rgb(42, 63, 95); fill-opacity: 1; white-space: pre;">eff_cnn</text><g class="layers" style="opacity: 1;"><g class="legendfill"/><g class="legendlines"/><g class="legendsymbols"><g class="legendpoints"><path class="legendbox" d="M6,6H-6V-6H6Z" transform="translate(20,0)" style="stroke-width: 2px; fill: rgb(99, 110, 250); fill-opacity: 0.5; stroke: rgb(99, 110, 250); stroke-opacity: 1;"/></g></g></g><rect class="legendtoggle" x="0" y="-9.5" width="149.703125" height="19" style="fill: rgb(0, 0, 0); fill-opacity: 0;"/></g></g><g class="groups" transform=""><g class="traces" transform="translate(0,51.7)" style="opacity: 1;"><text class="legendtext" text-anchor="start" x="40" y="4.680000000000001" style="font-family: 'Open Sans', verdana, arial, sans-serif; font-size: 12px; fill: rgb(42, 63, 95); fill-opacity: 1; white-space: pre;">simplified_eff_cnn</text><g class="layers" style="opacity: 1;"><g class="legendfill"/><g class="legendlines"/><g class="legendsymbols"><g class="legendpoints"><path class="legendbox" d="M6,6H-6V-6H6Z" transform="translate(20,0)" style="stroke-width: 2px; fill: rgb(239, 85, 59); fill-opacity: 0.5; stroke: rgb(239, 85, 59); stroke-opacity: 1;"/></g></g></g><rect class="legendtoggle" x="0" y="-9.5" width="149.703125" height="19" style="fill: rgb(0, 0, 0); fill-opacity: 0;"/></g></g></g><rect class="scrollbar" rx="20" ry="3" width="0" height="0" x="0" y="0" style="fill: rgb(128, 139, 164); fill-opacity: 1;"/></g><g class="g-gtitle"><text class="gtitle" x="35" y="50" text-anchor="start" dy="0em" style="font-family: 'Open Sans', verdana, arial, sans-serif; font-size: 17px; fill: rgb(42, 63, 95); opacity: 1; font-weight: normal; white-space: pre;">Distribution of min traces needed for average rank to be zero</text></g><g class="g-xtitle"><text class="xtitle" x="302" y="460.8" text-anchor="middle" style="font-family: 'Open Sans', verdana, arial, sans-serif; font-size: 14px; fill: rgb(42, 63, 95); opacity: 1; font-weight: normal; white-space: pre;">model</text></g><g class="g-ytitle"><text class="ytitle" transform="rotate(-90,38.934375,260)" x="38.934375" y="260" text-anchor="middle" style="font-family: 'Open Sans', verdana, arial, sans-serif; font-size: 14px; fill: rgb(42, 63, 95); opacity: 1; font-weight: normal; white-space: pre;">min traces needed for average rank to be zero</text></g><g class="annotation" data-index="0" style="opacity: 1;"><g class="annotation-text-g" transform="rotate(0,183.25,125)"><g class="cursor-pointer" transform="translate(147,100)"><rect class="bg" x="0.5" y="0.5" width="72" height="49" style="stroke-width: 1px; stroke: rgb(0, 128, 0); stroke-opacity: 1; fill: rgb(0, 0, 0); fill-opacity: 0;"/><text class="annotation-text" text-anchor="middle" x="36.640625" y="14" style="font-family: 'Open Sans', verdana, arial, sans-serif; font-size: 12px; fill: rgb(42, 63, 95); fill-opacity: 1; white-space: pre;"><tspan class="line" dy="0em" x="36.640625" y="14"> All passed </tspan><tspan class="line" dy="1.3em" x="36.640625" y="14">min: 5</tspan><tspan class="line" dy="2.6em" x="36.640625" y="14">max: 9</tspan></text></g></g><g class="annotation-arrow-g" style="opacity: 1;"><path d="M191.41666666666666,149.5L193.25,155" style="stroke-width: 1px; stroke: rgb(42, 63, 95); stroke-opacity: 1; stroke-dasharray: 0px, 0px, 5.79751px, 5.79751px;"/></g></g><g class="annotation" data-index="1" style="opacity: 1;"><g class="annotation-text-g" transform="rotate(0,403.75,125)"><g class="cursor-pointer" transform="translate(367,100)"><rect class="bg" x="0.5" y="0.5" width="72" height="49" style="stroke-width: 1px; stroke: rgb(0, 128, 0); stroke-opacity: 1; fill: rgb(0, 0, 0); fill-opacity: 0;"/><text class="annotation-text" text-anchor="middle" x="36.640625" y="14" style="font-family: 'Open Sans', verdana, arial, sans-serif; font-size: 12px; fill: rgb(42, 63, 95); fill-opacity: 1; white-space: pre;"><tspan class="line" dy="0em" x="36.640625" y="14"> All passed </tspan><tspan class="line" dy="1.3em" x="36.640625" y="14">min: 5</tspan><tspan class="line" dy="2.6em" x="36.640625" y="14">max: 8</tspan></text></g></g><g class="annotation-arrow-g" style="opacity: 1;"><path d="M411.9166666666667,149.5L413.75,155" style="stroke-width: 1px; stroke: rgb(42, 63, 95); stroke-opacity: 1; stroke-dasharray: 0px, 0px, 5.79751px, 5.79751px;"/></g></g></g></svg>