<svg class="main-svg" xmlns="http://www.w3.org/2000/svg" xmlns:xlink="http://www.w3.org/1999/xlink" width="700" height="500" style="" viewBox="0 0 700 500"><rect x="0" y="0" width="700" height="500" style="fill: rgb(255, 255, 255); fill-opacity: 1;"/><defs id="defs-aba6b7"><g class="clips"><clipPath id="clipaba6b7xyplot" class="plotclip"><rect width="444" height="320"/></clipPath><clipPath class="axesclip" id="clipaba6b7x"><rect x="80" y="0" width="444" height="500"/></clipPath><clipPath class="axesclip" id="clipaba6b7y"><rect x="0" y="100" width="700" height="320"/></clipPath><clipPath class="axesclip" id="clipaba6b7xy"><rect x="80" y="100" width="444" height="320"/></clipPath></g><g class="gradients"/><g class="patterns"/></defs><g class="bglayer"><rect class="bg" x="80" y="100" width="444" height="320" style="fill: rgb(229, 236, 246); fill-opacity: 1; stroke-width: 0;"/></g><g class="layer-below"><g class="imagelayer"/><g class="shapelayer"/></g><g class="cartesianlayer"><g class="subplot xy"><g class="layer-subplot"><g class="shapelayer"/><g class="imagelayer"/></g><g class="gridlayer"><g class="x"/><g class="y"><path class="ygrid crisp" transform="translate(0,411.3)" d="M80,0h444" style="stroke: rgb(255, 255, 255); stroke-opacity: 1; stroke-width: 1px;"/><path class="ygrid crisp" transform="translate(0,374.69)" d="M80,0h444" style="stroke: rgb(255, 255, 255); stroke-opacity: 1; stroke-width: 1px;"/><path class="ygrid crisp" transform="translate(0,338.07)" d="M80,0h444" style="stroke: rgb(255, 255, 255); stroke-opacity: 1; stroke-width: 1px;"/><path class="ygrid crisp" transform="translate(0,301.46000000000004)" d="M80,0h444" style="stroke: rgb(255, 255, 255); stroke-opacity: 1; stroke-width: 1px;"/><path class="ygrid crisp" transform="translate(0,264.84000000000003)" d="M80,0h444" style="stroke: rgb(255, 255, 255); stroke-opacity: 1; stroke-width: 1px;"/><path class="ygrid crisp" transform="translate(0,228.23)" d="M80,0h444" style="stroke: rgb(255, 255, 255); stroke-opacity: 1; stroke-width: 1px;"/><path class="ygrid crisp" transform="translate(0,191.61)" d="M80,0h444" style="stroke: rgb(255, 255, 255); stroke-opacity: 1; stroke-width: 1px;"/><path class="ygrid crisp" transform="translate(0,155)" d="M80,0h444" style="stroke: rgb(255, 255, 255); stroke-opacity: 1; stroke-width: 1px;"/><path class="ygrid crisp" transform="translate(0,118.39)" d="M80,0h444" style="stroke: rgb(255, 255, 255); stroke-opacity: 1; stroke-width: 1px;"/></g></g><g class="zerolinelayer"/><path class="xlines-below"/><path class="ylines-below"/><g class="overlines-below"/><g class="xaxislayer-below"/><g class="yaxislayer-below"/><g class="overaxes-below"/><g class="plot" transform="translate(80,100)" clip-path="url(#clipaba6b7xyplot)"><g class="violinlayer mlayer"><g class="trace violins" style="opacity: 1;"><path class="violin" d="M113.29,304Q113.31,300.75 113.32,299.12C113.33,297.49 113.35,295.86 113.37,294.23C113.39,292.6 113.41,290.98 113.43,289.35C113.45,287.72 113.48,286.1 113.5,284.47C113.52,282.84 113.54,281.21 113.56,279.58C113.58,277.95 113.59,276.33 113.61,274.7C113.63,273.07 113.64,271.45 113.66,269.82C113.68,268.19 113.71,266.57 113.74,264.94C113.78,263.31 113.82,261.68 113.87,260.05C113.92,258.42 113.99,256.8 114.06,255.17C114.13,253.54 114.22,251.92 114.29,250.29C114.37,248.66 114.45,247.03 114.51,245.4C114.57,243.77 114.63,242.15 114.67,240.52C114.71,238.89 114.73,237.27 114.74,235.64C114.75,234.01 114.74,232.38 114.75,230.75C114.75,229.12 114.75,227.5 114.77,225.87C114.79,224.24 114.81,222.62 114.86,220.99C114.91,219.36 114.98,217.74 115.05,216.11C115.13,214.48 115.23,212.85 115.31,211.22C115.39,209.59 115.47,207.97 115.51,206.34C115.55,204.71 115.58,203.09 115.57,201.46C115.56,199.83 115.51,198.2 115.43,196.57C115.36,194.94 115.24,193.32 115.12,191.69C115,190.06 114.85,188.44 114.72,186.81C114.59,185.18 114.45,183.55 114.33,181.92C114.21,180.29 114.11,178.67 114.02,177.04C113.94,175.41 113.87,173.79 113.82,172.16C113.77,170.53 113.73,168.91 113.7,167.28C113.67,165.65 113.64,164.02 113.62,162.39C113.6,160.76 113.58,159.14 113.56,157.51C113.54,155.88 113.52,154.26 113.51,152.63C113.49,151 113.48,149.37 113.47,147.74C113.46,146.11 113.45,144.49 113.44,142.86C113.43,141.23 113.43,139.61 113.43,137.98C113.43,136.35 113.42,134.72 113.42,133.09C113.42,131.46 113.41,129.84 113.41,128.21C113.41,126.58 113.41,124.96 113.4,123.33C113.39,121.7 113.38,120.08 113.37,118.45C113.36,116.82 113.35,115.19 113.34,113.56C113.33,111.93 113.32,110.31 113.31,108.68C113.3,107.05 113.3,105.43 113.29,103.8Q113.28,102.17 113.27,98.91L113.23,98.91Q113.22,102.17 113.21,103.8C113.2,105.43 113.2,107.05 113.19,108.68C113.18,110.31 113.17,111.93 113.16,113.56C113.15,115.19 113.14,116.82 113.13,118.45C113.12,120.08 113.11,121.7 113.1,123.33C113.09,124.96 113.09,126.58 113.09,128.21C113.09,129.84 113.08,131.46 113.08,133.09C113.08,134.72 113.07,136.35 113.07,137.98C113.07,139.61 113.07,141.23 113.06,142.86C113.05,144.49 113.04,146.11 113.03,147.74C113.02,149.37 113.01,151 112.99,152.63C112.98,154.26 112.96,155.88 112.94,157.51C112.92,159.14 112.9,160.76 112.88,162.39C112.86,164.02 112.83,165.65 112.8,167.28C112.77,168.91 112.73,170.53 112.68,172.16C112.63,173.79 112.56,175.41 112.48,177.04C112.39,178.67 112.29,180.29 112.17,181.92C112.05,183.55 111.91,185.18 111.78,186.81C111.65,188.44 111.5,190.06 111.38,191.69C111.26,193.32 111.14,194.94 111.07,196.57C110.99,198.2 110.94,199.83 110.93,201.46C110.92,203.09 110.95,204.71 110.99,206.34C111.03,207.97 111.11,209.59 111.19,211.22C111.27,212.85 111.37,214.48 111.45,216.11C111.52,217.74 111.59,219.36 111.64,220.99C111.69,222.62 111.71,224.24 111.73,225.87C111.75,227.5 111.75,229.12 111.75,230.75C111.76,232.38 111.75,234.01 111.76,235.64C111.77,237.27 111.79,238.89 111.83,240.52C111.87,242.15 111.93,243.77 111.99,245.4C112.05,247.03 112.13,248.66 112.21,250.29C112.28,251.92 112.37,253.54 112.44,255.17C112.51,256.8 112.58,258.42 112.63,260.05C112.68,261.68 112.72,263.31 112.76,264.94C112.79,266.57 112.82,268.19 112.84,269.82C112.86,271.45 112.87,273.07 112.89,274.7C112.91,276.33 112.92,277.95 112.94,279.58C112.96,281.21 112.98,282.84 113,284.47C113.02,286.1 113.05,287.72 113.07,289.35C113.09,290.98 113.11,292.6 113.13,294.23C113.15,295.86 113.17,297.49 113.18,299.12Q113.19,300.75 113.21,304Z" style="vector-effect: non-scaling-stroke; stroke-width: 2px; stroke: rgb(99, 110, 250); stroke-opacity: 1; fill: rgb(99, 110, 250); fill-opacity: 0.5;"/><g class="points"><path class="point" transform="translate(34.1,274.69)" d="M3,0A3,3 0 1,1 0,-3A3,3 0 0,1 3,0Z" style="opacity: 1; stroke-width: 0px; fill: rgb(99, 110, 250); fill-opacity: 1;"/><path class="point" transform="translate(29.69,274.69)" d="M3,0A3,3 0 1,1 0,-3A3,3 0 0,1 3,0Z" style="opacity: 1; stroke-width: 0px; fill: rgb(99, 110, 250); fill-opacity: 1;"/><path class="point" transform="translate(35.54,238.07)" d="M3,0A3,3 0 1,1 0,-3A3,3 0 0,1 3,0Z" style="opacity: 1; stroke-width: 0px; fill: rgb(99, 110, 250); fill-opacity: 1;"/><path class="point" transform="translate(28.34,238.07)" d="M3,0A3,3 0 1,1 0,-3A3,3 0 0,1 3,0Z" style="opacity: 1; stroke-width: 0px; fill: rgb(99, 110, 250); fill-opacity: 1;"/><path class="point" transform="translate(31.02,238.07)" d="M3,0A3,3 0 1,1 0,-3A3,3 0 0,1 3,0Z" style="opacity: 1; stroke-width: 0px; fill: rgb(99, 110, 250); fill-opacity: 1;"/><path class="point" transform="translate(34.91,238.07)" d="M3,0A3,3 0 1,1 0,-3A3,3 0 0,1 3,0Z" style="opacity: 1; stroke-width: 0px; fill: rgb(99, 110, 250); fill-opacity: 1;"/><path class="point" transform="translate(32.08,238.07)" d="M3,0A3,3 0 1,1 0,-3A3,3 0 0,1 3,0Z" style="opacity: 1; stroke-width: 0px; fill: rgb(99, 110, 250); fill-opacity: 1;"/><path class="point" transform="translate(33.7,238.07)" d="M3,0A3,3 0 1,1 0,-3A3,3 0 0,1 3,0Z" style="opacity: 1; stroke-width: 0px; fill: rgb(99, 110, 250); fill-opacity: 1;"/><path class="point" transform="translate(30.58,238.07)" d="M3,0A3,3 0 1,1 0,-3A3,3 0 0,1 3,0Z" style="opacity: 1; stroke-width: 0px; fill: rgb(99, 110, 250); fill-opacity: 1;"/><path class="point" transform="translate(28.46,238.07)" d="M3,0A3,3 0 1,1 0,-3A3,3 0 0,1 3,0Z" style="opacity: 1; stroke-width: 0px; fill: rgb(99, 110, 250); fill-opacity: 1;"/><path class="point" transform="translate(33.59,238.07)" d="M3,0A3,3 0 1,1 0,-3A3,3 0 0,1 3,0Z" style="opacity: 1; stroke-width: 0px; fill: rgb(99, 110, 250); fill-opacity: 1;"/><path class="point" transform="translate(30.53,201.46)" d="M3,0A3,3 0 1,1 0,-3A3,3 0 0,1 3,0Z" style="opacity: 1; stroke-width: 0px; fill: rgb(99, 110, 250); fill-opacity: 1;"/><path class="point" transform="translate(35.47,201.46)" d="M3,0A3,3 0 1,1 0,-3A3,3 0 0,1 3,0Z" style="opacity: 1; stroke-width: 0px; fill: rgb(99, 110, 250); fill-opacity: 1;"/><path class="point" transform="translate(27.23,201.46)" d="M3,0A3,3 0 1,1 0,-3A3,3 0 0,1 3,0Z" style="opacity: 1; stroke-width: 0px; fill: rgb(99, 110, 250); fill-opacity: 1;"/><path class="point" transform="translate(29.25,201.46)" d="M3,0A3,3 0 1,1 0,-3A3,3 0 0,1 3,0Z" style="opacity: 1; stroke-width: 0px; fill: rgb(99, 110, 250); fill-opacity: 1;"/><path class="point" transform="translate(36.75,201.46)" d="M3,0A3,3 0 1,1 0,-3A3,3 0 0,1 3,0Z" style="opacity: 1; stroke-width: 0px; fill: rgb(99, 110, 250); fill-opacity: 1;"/><path class="point" transform="translate(28.15,201.46)" d="M3,0A3,3 0 1,1 0,-3A3,3 0 0,1 3,0Z" style="opacity: 1; stroke-width: 0px; fill: rgb(99, 110, 250); fill-opacity: 1;"/><path class="point" transform="translate(18.3,201.46)" d="M3,0A3,3 0 1,1 0,-3A3,3 0 0,1 3,0Z" style="opacity: 1; stroke-width: 0px; fill: rgb(99, 110, 250); fill-opacity: 1;"/><path class="point" transform="translate(26.86,201.46)" d="M3,0A3,3 0 1,1 0,-3A3,3 0 0,1 3,0Z" style="opacity: 1; stroke-width: 0px; fill: rgb(99, 110, 250); fill-opacity: 1;"/><path class="point" transform="translate(31.87,201.46)" d="M3,0A3,3 0 1,1 0,-3A3,3 0 0,1 3,0Z" style="opacity: 1; stroke-width: 0px; fill: rgb(99, 110, 250); fill-opacity: 1;"/><path class="point" transform="translate(39.51,201.46)" d="M3,0A3,3 0 1,1 0,-3A3,3 0 0,1 3,0Z" style="opacity: 1; stroke-width: 0px; fill: rgb(99, 110, 250); fill-opacity: 1;"/><path class="point" transform="translate(32.79,201.46)" d="M3,0A3,3 0 1,1 0,-3A3,3 0 0,1 3,0Z" style="opacity: 1; stroke-width: 0px; fill: rgb(99, 110, 250); fill-opacity: 1;"/><path class="point" transform="translate(30.77,201.46)" d="M3,0A3,3 0 1,1 0,-3A3,3 0 0,1 3,0Z" style="opacity: 1; stroke-width: 0px; fill: rgb(99, 110, 250); fill-opacity: 1;"/><path class="point" transform="translate(29.19,201.46)" d="M3,0A3,3 0 1,1 0,-3A3,3 0 0,1 3,0Z" style="opacity: 1; stroke-width: 0px; fill: rgb(99, 110, 250); fill-opacity: 1;"/><path class="point" transform="translate(32.21,201.46)" d="M3,0A3,3 0 1,1 0,-3A3,3 0 0,1 3,0Z" style="opacity: 1; stroke-width: 0px; fill: rgb(99, 110, 250); fill-opacity: 1;"/><path class="point" transform="translate(31.27,201.46)" d="M3,0A3,3 0 1,1 0,-3A3,3 0 0,1 3,0Z" style="opacity: 1; stroke-width: 0px; fill: rgb(99, 110, 250); fill-opacity: 1;"/><path class="point" transform="translate(33.63,164.84)" d="M3,0A3,3 0 1,1 0,-3A3,3 0 0,1 3,0Z" style="opacity: 1; stroke-width: 0px; fill: rgb(99, 110, 250); fill-opacity: 1;"/><path class="point" transform="translate(31.97,164.84)" d="M3,0A3,3 0 1,1 0,-3A3,3 0 0,1 3,0Z" style="opacity: 1; stroke-width: 0px; fill: rgb(99, 110, 250); fill-opacity: 1;"/><path class="point" transform="translate(30.54,128.23)" d="M3,0A3,3 0 1,1 0,-3A3,3 0 0,1 3,0Z" style="opacity: 1; stroke-width: 0px; fill: rgb(99, 110, 250); fill-opacity: 1;"/></g></g><g class="trace violins" style="opacity: 1;"><path class="violin" d="M334.02,276.88Q334.16,276.64 334.25,276.52C334.34,276.39 334.45,276.27 334.57,276.15C334.69,276.02 334.83,275.9 334.96,275.78C335.09,275.66 335.23,275.55 335.35,275.42C335.46,275.3 335.57,275.18 335.64,275.05C335.7,274.93 335.75,274.81 335.75,274.69C335.75,274.57 335.7,274.44 335.64,274.32C335.57,274.19 335.46,274.07 335.35,273.95C335.23,273.82 335.09,273.71 334.96,273.59C334.83,273.47 334.69,273.35 334.57,273.22C334.45,273.1 334.34,272.98 334.25,272.85C334.16,272.73 334.08,272.61 334.02,272.49C333.96,272.37 333.92,272.24 333.88,272.12C333.85,272 333.83,271.88 333.81,271.76C333.79,271.64 333.78,271.51 333.77,271.39C333.76,271.27 333.76,271.14 333.76,271.02C333.76,270.9 333.75,270.78 333.75,270.66C333.75,270.54 333.75,270.41 333.75,270.29C333.75,270.17 333.75,270.05 333.75,269.93C333.75,269.81 333.75,269.68 333.75,269.56C333.75,269.44 333.75,269.31 333.75,269.19C333.75,269.07 333.75,268.95 333.75,268.83C333.75,268.71 333.75,268.58 333.75,268.46C333.75,268.34 333.75,268.21 333.75,268.09C333.75,267.97 333.75,267.85 333.75,267.73C333.75,267.61 333.75,267.48 333.75,267.36C333.75,267.24 333.75,267.12 333.75,267C333.75,266.88 333.75,266.75 333.75,266.63C333.75,266.51 333.75,266.38 333.75,266.26C333.75,266.14 333.75,266.02 333.75,265.9C333.75,265.78 333.75,265.65 333.75,265.53C333.75,265.41 333.75,265.29 333.75,265.17C333.75,265.05 333.75,264.92 333.75,264.8C333.75,264.68 333.75,264.55 333.75,264.43C333.75,264.31 333.75,264.19 333.75,264.07C333.75,263.95 333.75,263.82 333.75,263.7C333.75,263.58 333.75,263.45 333.75,263.33C333.75,263.21 333.75,263.09 333.75,262.97C333.75,262.85 333.75,262.72 333.75,262.6C333.75,262.48 333.75,262.36 333.75,262.24C333.75,262.12 333.75,261.99 333.75,261.87C333.75,261.75 333.75,261.62 333.75,261.5C333.75,261.38 333.75,261.26 333.75,261.14C333.75,261.02 333.75,260.89 333.75,260.77C333.75,260.65 333.75,260.53 333.75,260.41C333.75,260.29 333.75,260.16 333.75,260.04C333.75,259.92 333.75,259.79 333.75,259.67C333.75,259.55 333.75,259.43 333.75,259.31C333.75,259.19 333.75,259.06 333.75,258.94C333.75,258.82 333.75,258.7 333.75,258.58C333.75,258.46 333.75,258.33 333.75,258.21C333.75,258.09 333.75,257.96 333.75,257.84C333.75,257.72 333.75,257.6 333.75,257.48C333.75,257.36 333.75,257.23 333.75,257.11C333.75,256.99 333.75,256.86 333.75,256.74C333.75,256.62 333.75,256.5 333.75,256.38C333.75,256.26 333.75,256.13 333.75,256.01C333.75,255.89 333.75,255.77 333.75,255.65C333.75,255.53 333.75,255.4 333.75,255.28C333.75,255.16 333.75,255.03 333.75,254.91C333.75,254.79 333.75,254.67 333.75,254.55C333.75,254.43 333.75,254.3 333.75,254.18C333.75,254.06 333.75,253.94 333.75,253.82C333.75,253.7 333.75,253.57 333.75,253.45C333.75,253.33 333.75,253.2 333.75,253.08C333.75,252.96 333.75,252.84 333.75,252.72C333.75,252.6 333.75,252.47 333.75,252.35C333.75,252.23 333.75,252.1 333.75,251.98C333.75,251.86 333.75,251.74 333.75,251.62C333.75,251.5 333.75,251.37 333.75,251.25C333.75,251.13 333.75,251.01 333.75,250.89C333.75,250.77 333.75,250.64 333.75,250.52C333.75,250.4 333.75,250.27 333.75,250.15C333.75,250.03 333.75,249.91 333.75,249.79C333.75,249.67 333.75,249.54 333.75,249.42C333.75,249.3 333.75,249.18 333.75,249.06C333.75,248.94 333.75,248.81 333.75,248.69C333.75,248.57 333.75,248.44 333.75,248.32C333.75,248.2 333.75,248.08 333.75,247.96C333.75,247.84 333.75,247.71 333.75,247.59C333.75,247.47 333.75,247.34 333.75,247.22C333.75,247.1 333.75,246.98 333.75,246.86C333.75,246.74 333.75,246.61 333.75,246.49C333.75,246.37 333.75,246.25 333.75,246.13C333.75,246.01 333.75,245.88 333.75,245.76C333.75,245.64 333.75,245.51 333.75,245.39C333.75,245.27 333.75,245.15 333.75,245.03C333.75,244.91 333.75,244.78 333.75,244.66C333.75,244.54 333.75,244.42 333.75,244.3C333.75,244.18 333.75,244.05 333.75,243.93C333.75,243.81 333.75,243.68 333.75,243.56C333.75,243.44 333.75,243.32 333.75,243.2C333.75,243.08 333.75,242.95 333.75,242.83C333.75,242.71 333.75,242.58 333.75,242.46C333.75,242.34 333.75,242.22 333.75,242.1C333.75,241.98 333.75,241.85 333.75,241.73C333.75,241.61 333.75,241.49 333.75,241.37C333.75,241.25 333.75,241.12 333.75,241C333.75,240.88 333.75,240.75 333.75,240.63C333.75,240.51 333.75,240.39 333.75,240.27C333.75,240.15 333.75,240.02 333.75,239.9C333.75,239.78 333.75,239.66 333.75,239.54C333.75,239.42 333.75,239.29 333.75,239.17C333.75,239.05 333.75,238.92 333.75,238.8C333.75,238.68 333.75,238.56 333.75,238.44C333.75,238.32 333.75,238.19 333.75,238.07C333.75,237.95 333.75,237.83 333.75,237.71C333.75,237.59 333.75,237.46 333.75,237.34C333.75,237.22 333.75,237.09 333.75,236.97C333.75,236.85 333.75,236.73 333.75,236.61C333.75,236.49 333.75,236.36 333.75,236.24C333.75,236.12 333.75,235.99 333.75,235.87C333.75,235.75 333.75,235.63 333.75,235.51C333.75,235.39 333.75,235.26 333.75,235.14C333.75,235.02 333.75,234.9 333.75,234.78C333.75,234.66 333.75,234.53 333.75,234.41C333.75,234.29 333.75,234.16 333.75,234.04C333.75,233.92 333.75,233.8 333.75,233.68C333.75,233.56 333.75,233.43 333.75,233.31C333.75,233.19 333.75,233.07 333.75,232.95C333.75,232.83 333.75,232.7 333.75,232.58C333.75,232.46 333.75,232.33 333.75,232.21C333.75,232.09 333.75,231.97 333.75,231.85C333.75,231.73 333.75,231.6 333.75,231.48C333.75,231.36 333.75,231.23 333.75,231.11C333.75,230.99 333.75,230.87 333.75,230.75C333.75,230.63 333.75,230.5 333.75,230.38C333.75,230.26 333.75,230.14 333.75,230.02C333.75,229.9 333.75,229.77 333.75,229.65C333.75,229.53 333.75,229.4 333.75,229.28C333.75,229.16 333.75,229.04 333.75,228.92C333.75,228.8 333.75,228.67 333.75,228.55C333.75,228.43 333.75,228.31 333.75,228.19C333.75,228.07 333.75,227.94 333.75,227.82C333.75,227.7 333.75,227.57 333.75,227.45C333.75,227.33 333.75,227.21 333.75,227.09C333.75,226.97 333.75,226.84 333.75,226.72C333.75,226.6 333.75,226.47 333.75,226.35C333.75,226.23 333.75,226.11 333.75,225.99C333.75,225.87 333.75,225.74 333.75,225.62C333.75,225.5 333.75,225.38 333.75,225.26C333.75,225.14 333.75,225.01 333.75,224.89C333.75,224.77 333.75,224.64 333.75,224.52C333.75,224.4 333.75,224.28 333.75,224.16C333.75,224.04 333.75,223.91 333.75,223.79C333.75,223.67 333.75,223.55 333.75,223.43C333.75,223.31 333.75,223.18 333.75,223.06C333.75,222.94 333.75,222.81 333.75,222.69C333.75,222.57 333.75,222.45 333.75,222.33C333.75,222.21 333.75,222.08 333.75,221.96C333.75,221.84 333.75,221.71 333.75,221.59C333.75,221.47 333.75,221.35 333.75,221.23C333.75,221.11 333.75,220.98 333.75,220.86C333.75,220.74 333.75,220.62 333.75,220.5C333.75,220.38 333.75,220.25 333.75,220.13C333.75,220.01 333.75,219.88 333.75,219.76C333.75,219.64 333.75,219.52 333.75,219.4C333.75,219.28 333.75,219.15 333.75,219.03C333.75,218.91 333.75,218.79 333.75,218.67C333.75,218.55 333.75,218.42 333.75,218.3C333.75,218.18 333.75,218.05 333.75,217.93C333.75,217.81 333.75,217.69 333.75,217.57C333.75,217.45 333.75,217.32 333.75,217.2C333.75,217.08 333.75,216.95 333.75,216.83C333.75,216.71 333.75,216.59 333.75,216.47C333.75,216.35 333.75,216.22 333.75,216.1C333.75,215.98 333.75,215.86 333.75,215.74C333.75,215.62 333.75,215.49 333.75,215.37C333.75,215.25 333.75,215.12 333.75,215C333.75,214.88 333.75,214.76 333.75,214.64C333.75,214.52 333.75,214.39 333.75,214.27C333.75,214.15 333.75,214.03 333.75,213.91C333.75,213.79 333.75,213.66 333.75,213.54C333.75,213.42 333.75,213.29 333.75,213.17C333.75,213.05 333.75,212.93 333.75,212.81C333.75,212.69 333.75,212.56 333.75,212.44C333.75,212.32 333.75,212.2 333.75,212.08C333.75,211.96 333.75,211.83 333.75,211.71C333.75,211.59 333.75,211.46 333.75,211.34C333.75,211.22 333.75,211.1 333.75,210.98C333.75,210.86 333.75,210.73 333.75,210.61C333.75,210.49 333.75,210.36 333.75,210.24C333.75,210.12 333.75,210 333.75,209.88C333.75,209.76 333.75,209.63 333.75,209.51C333.75,209.39 333.75,209.27 333.75,209.15C333.75,209.03 333.75,208.9 333.75,208.78C333.75,208.66 333.75,208.53 333.75,208.41C333.75,208.29 333.75,208.17 333.75,208.05C333.75,207.93 333.75,207.8 333.75,207.68C333.75,207.56 333.75,207.44 333.75,207.32C333.75,207.2 333.75,207.07 333.75,206.95C333.75,206.83 333.75,206.7 333.75,206.58C333.75,206.46 333.75,206.34 333.75,206.22C333.75,206.1 333.76,205.97 333.77,205.85C333.78,205.73 333.79,205.6 333.82,205.48C333.85,205.36 333.88,205.23 333.96,205.12C334.05,204.99 334.18,204.86 334.35,204.75C334.59,204.6 334.91,204.5 335.29,204.39C335.83,204.24 336.52,204.13 337.3,204.02C338.36,203.87 339.65,203.76 341.06,203.65C342.86,203.51 344.99,203.4 347.22,203.29C349.88,203.16 352.91,203.04 355.96,202.92C359.31,202.79 363.01,202.68 366.52,202.56C370.02,202.44 373.77,202.32 377.01,202.19C379.81,202.07 382.87,201.99 384.85,201.82C386.06,201.72 387.77,201.58 387.77,201.46C387.77,201.34 386.06,201.2 384.85,201.09C382.87,200.92 379.81,200.83 377.01,200.72C373.77,200.59 370.02,200.48 366.52,200.36C363.01,200.24 359.31,200.12 355.96,199.99C352.91,199.87 349.88,199.76 347.22,199.63C344.99,199.52 342.86,199.4 341.06,199.26C339.65,199.15 338.36,199.04 337.3,198.89C336.52,198.78 335.83,198.68 335.29,198.53C334.91,198.42 334.59,198.31 334.35,198.16C334.18,198.05 334.05,197.93 333.96,197.8C333.88,197.69 333.85,197.56 333.82,197.43C333.79,197.31 333.78,197.18 333.77,197.06C333.76,196.94 333.75,196.82 333.75,196.7C333.75,196.58 333.75,196.45 333.75,196.33C333.75,196.21 333.75,196.08 333.75,195.96C333.75,195.84 333.75,195.72 333.75,195.6C333.75,195.48 333.75,195.35 333.75,195.23C333.75,195.11 333.75,194.99 333.75,194.87C333.75,194.75 333.75,194.62 333.75,194.5C333.75,194.38 333.75,194.25 333.75,194.13C333.75,194.01 333.75,193.89 333.75,193.77C333.75,193.65 333.75,193.52 333.75,193.4C333.75,193.28 333.75,193.16 333.75,193.04C333.75,192.92 333.75,192.79 333.75,192.67C333.75,192.55 333.75,192.42 333.75,192.3C333.75,192.18 333.75,192.06 333.75,191.94C333.75,191.82 333.75,191.69 333.75,191.57C333.75,191.45 333.75,191.32 333.75,191.2C333.75,191.08 333.75,190.96 333.75,190.84C333.75,190.72 333.75,190.59 333.75,190.47C333.75,190.35 333.75,190.23 333.75,190.11C333.75,189.99 333.75,189.86 333.75,189.74C333.75,189.62 333.75,189.49 333.75,189.37C333.75,189.25 333.75,189.13 333.75,189.01C333.75,188.89 333.75,188.76 333.75,188.64C333.75,188.52 333.75,188.4 333.75,188.28C333.75,188.16 333.75,188.03 333.75,187.91C333.75,187.79 333.75,187.66 333.75,187.54C333.75,187.42 333.75,187.3 333.75,187.18C333.75,187.06 333.75,186.93 333.75,186.81C333.75,186.69 333.75,186.57 333.75,186.45C333.75,186.33 333.75,186.2 333.75,186.08C333.75,185.96 333.75,185.83 333.75,185.71C333.75,185.59 333.75,185.47 333.75,185.35C333.75,185.23 333.75,185.1 333.75,184.98C333.75,184.86 333.75,184.73 333.75,184.61C333.75,184.49 333.75,184.37 333.75,184.25C333.75,184.13 333.75,184 333.75,183.88C333.75,183.76 333.75,183.64 333.75,183.52C333.75,183.4 333.75,183.27 333.75,183.15C333.75,183.03 333.75,182.9 333.75,182.78C333.75,182.66 333.75,182.54 333.75,182.42C333.75,182.3 333.75,182.17 333.75,182.05C333.75,181.93 333.75,181.81 333.75,181.69C333.75,181.57 333.75,181.44 333.75,181.32C333.75,181.2 333.75,181.07 333.75,180.95C333.75,180.83 333.75,180.71 333.75,180.59C333.75,180.47 333.75,180.34 333.75,180.22C333.75,180.1 333.75,179.97 333.75,179.85C333.75,179.73 333.75,179.61 333.75,179.49C333.75,179.37 333.75,179.24 333.75,179.12C333.75,179 333.75,178.88 333.75,178.76C333.75,178.64 333.75,178.51 333.75,178.39C333.75,178.27 333.75,178.14 333.75,178.02C333.75,177.9 333.75,177.78 333.75,177.66C333.75,177.54 333.75,177.41 333.75,177.29C333.75,177.17 333.75,177.05 333.75,176.93C333.75,176.81 333.75,176.68 333.75,176.56C333.75,176.44 333.75,176.31 333.75,176.19C333.75,176.07 333.75,175.95 333.75,175.83C333.75,175.71 333.75,175.58 333.75,175.46C333.75,175.34 333.75,175.21 333.75,175.09C333.75,174.97 333.75,174.85 333.75,174.73C333.75,174.61 333.75,174.48 333.75,174.36C333.75,174.24 333.75,174.12 333.75,174C333.75,173.88 333.75,173.75 333.75,173.63C333.75,173.51 333.75,173.38 333.75,173.26C333.75,173.14 333.75,173.02 333.75,172.9C333.75,172.78 333.75,172.65 333.75,172.53C333.75,172.41 333.75,172.29 333.75,172.17C333.75,172.05 333.75,171.92 333.75,171.8C333.75,171.68 333.75,171.55 333.75,171.43C333.75,171.31 333.75,171.19 333.75,171.07C333.75,170.95 333.75,170.82 333.75,170.7C333.75,170.58 333.75,170.45 333.75,170.33C333.75,170.21 333.75,170.09 333.75,169.97C333.75,169.85 333.75,169.72 333.75,169.6C333.75,169.48 333.75,169.36 333.75,169.24C333.75,169.12 333.75,168.99 333.75,168.87C333.75,168.75 333.76,168.62 333.76,168.5C333.76,168.38 333.76,168.26 333.77,168.14C333.78,168.02 333.79,167.89 333.81,167.77C333.83,167.65 333.85,167.53 333.88,167.41C333.92,167.29 333.96,167.16 334.02,167.04C334.08,166.91 334.16,166.79 334.25,166.67C334.34,166.55 334.46,166.43 334.57,166.31C334.69,166.18 334.83,166.06 334.96,165.94C335.09,165.82 335.23,165.7 335.35,165.57C335.46,165.45 335.57,165.34 335.64,165.21C335.7,165.09 335.75,164.96 335.75,164.84C335.75,164.72 335.7,164.6 335.64,164.48C335.57,164.35 335.46,164.23 335.35,164.11C335.23,163.98 335.09,163.86 334.96,163.74C334.83,163.62 334.69,163.5 334.57,163.38C334.45,163.26 334.34,163.14 334.25,163.01Q334.16,162.89 334.02,162.65L333.48,162.65Q333.34,162.89 333.25,163.01C333.16,163.14 333.05,163.26 332.93,163.38C332.81,163.5 332.67,163.62 332.54,163.74C332.41,163.86 332.27,163.98 332.15,164.11C332.04,164.23 331.93,164.35 331.86,164.48C331.8,164.6 331.75,164.72 331.75,164.84C331.75,164.96 331.8,165.09 331.86,165.21C331.93,165.34 332.04,165.45 332.15,165.57C332.27,165.7 332.41,165.82 332.54,165.94C332.67,166.06 332.81,166.18 332.93,166.31C333.04,166.43 333.16,166.55 333.25,166.67C333.34,166.79 333.42,166.91 333.48,167.04C333.54,167.16 333.58,167.29 333.62,167.41C333.65,167.53 333.67,167.65 333.69,167.77C333.71,167.89 333.72,168.02 333.73,168.14C333.74,168.26 333.74,168.38 333.74,168.5C333.74,168.62 333.75,168.75 333.75,168.87C333.75,168.99 333.75,169.12 333.75,169.24C333.75,169.36 333.75,169.48 333.75,169.6C333.75,169.72 333.75,169.85 333.75,169.97C333.75,170.09 333.75,170.21 333.75,170.33C333.75,170.45 333.75,170.58 333.75,170.7C333.75,170.82 333.75,170.95 333.75,171.07C333.75,171.19 333.75,171.31 333.75,171.43C333.75,171.55 333.75,171.68 333.75,171.8C333.75,171.92 333.75,172.05 333.75,172.17C333.75,172.29 333.75,172.41 333.75,172.53C333.75,172.65 333.75,172.78 333.75,172.9C333.75,173.02 333.75,173.14 333.75,173.26C333.75,173.38 333.75,173.51 333.75,173.63C333.75,173.75 333.75,173.88 333.75,174C333.75,174.12 333.75,174.24 333.75,174.36C333.75,174.48 333.75,174.61 333.75,174.73C333.75,174.85 333.75,174.97 333.75,175.09C333.75,175.21 333.75,175.34 333.75,175.46C333.75,175.58 333.75,175.71 333.75,175.83C333.75,175.95 333.75,176.07 333.75,176.19C333.75,176.31 333.75,176.44 333.75,176.56C333.75,176.68 333.75,176.81 333.75,176.93C333.75,177.05 333.75,177.17 333.75,177.29C333.75,177.41 333.75,177.54 333.75,177.66C333.75,177.78 333.75,177.9 333.75,178.02C333.75,178.14 333.75,178.27 333.75,178.39C333.75,178.51 333.75,178.64 333.75,178.76C333.75,178.88 333.75,179 333.75,179.12C333.75,179.24 333.75,179.37 333.75,179.49C333.75,179.61 333.75,179.73 333.75,179.85C333.75,179.97 333.75,180.1 333.75,180.22C333.75,180.34 333.75,180.47 333.75,180.59C333.75,180.71 333.75,180.83 333.75,180.95C333.75,181.07 333.75,181.2 333.75,181.32C333.75,181.44 333.75,181.57 333.75,181.69C333.75,181.81 333.75,181.93 333.75,182.05C333.75,182.17 333.75,182.3 333.75,182.42C333.75,182.54 333.75,182.66 333.75,182.78C333.75,182.9 333.75,183.03 333.75,183.15C333.75,183.27 333.75,183.4 333.75,183.52C333.75,183.64 333.75,183.76 333.75,183.88C333.75,184 333.75,184.13 333.75,184.25C333.75,184.37 333.75,184.49 333.75,184.61C333.75,184.73 333.75,184.86 333.75,184.98C333.75,185.1 333.75,185.23 333.75,185.35C333.75,185.47 333.75,185.59 333.75,185.71C333.75,185.83 333.75,185.96 333.75,186.08C333.75,186.2 333.75,186.33 333.75,186.45C333.75,186.57 333.75,186.69 333.75,186.81C333.75,186.93 333.75,187.06 333.75,187.18C333.75,187.3 333.75,187.42 333.75,187.54C333.75,187.66 333.75,187.79 333.75,187.91C333.75,188.03 333.75,188.16 333.75,188.28C333.75,188.4 333.75,188.52 333.75,188.64C333.75,188.76 333.75,188.89 333.75,189.01C333.75,189.13 333.75,189.25 333.75,189.37C333.75,189.49 333.75,189.62 333.75,189.74C333.75,189.86 333.75,189.99 333.75,190.11C333.75,190.23 333.75,190.35 333.75,190.47C333.75,190.59 333.75,190.72 333.75,190.84C333.75,190.96 333.75,191.08 333.75,191.2C333.75,191.32 333.75,191.45 333.75,191.57C333.75,191.69 333.75,191.82 333.75,191.94C333.75,192.06 333.75,192.18 333.75,192.3C333.75,192.42 333.75,192.55 333.75,192.67C333.75,192.79 333.75,192.92 333.75,193.04C333.75,193.16 333.75,193.28 333.75,193.4C333.75,193.52 333.75,193.65 333.75,193.77C333.75,193.89 333.75,194.01 333.75,194.13C333.75,194.25 333.75,194.38 333.75,194.5C333.75,194.62 333.75,194.75 333.75,194.87C333.75,194.99 333.75,195.11 333.75,195.23C333.75,195.35 333.75,195.48 333.75,195.6C333.75,195.72 333.75,195.84 333.75,195.96C333.75,196.08 333.75,196.21 333.75,196.33C333.75,196.45 333.75,196.58 333.75,196.7C333.75,196.82 333.74,196.94 333.73,197.06C333.72,197.18 333.71,197.31 333.68,197.43C333.65,197.56 333.62,197.69 333.54,197.8C333.45,197.93 333.32,198.05 333.15,198.16C332.91,198.31 332.59,198.42 332.21,198.53C331.67,198.68 330.98,198.78 330.2,198.89C329.14,199.04 327.85,199.15 326.44,199.26C324.64,199.4 322.51,199.52 320.28,199.63C317.62,199.76 314.59,199.87 311.54,199.99C308.19,200.12 304.49,200.24 300.98,200.36C297.48,200.48 293.73,200.59 290.49,200.72C287.69,200.83 284.63,200.92 282.65,201.09C281.44,201.2 279.73,201.34 279.73,201.46C279.73,201.58 281.44,201.72 282.65,201.82C284.63,201.99 287.69,202.07 290.49,202.19C293.73,202.32 297.48,202.44 300.98,202.56C304.49,202.68 308.19,202.79 311.54,202.92C314.59,203.04 317.62,203.16 320.28,203.29C322.51,203.4 324.64,203.51 326.44,203.65C327.85,203.76 329.14,203.87 330.2,204.02C330.98,204.13 331.67,204.24 332.21,204.39C332.59,204.5 332.91,204.6 333.15,204.75C333.32,204.86 333.45,204.99 333.54,205.12C333.62,205.23 333.65,205.36 333.68,205.48C333.71,205.6 333.72,205.73 333.73,205.85C333.74,205.97 333.75,206.1 333.75,206.22C333.75,206.34 333.75,206.46 333.75,206.58C333.75,206.7 333.75,206.83 333.75,206.95C333.75,207.07 333.75,207.2 333.75,207.32C333.75,207.44 333.75,207.56 333.75,207.68C333.75,207.8 333.75,207.93 333.75,208.05C333.75,208.17 333.75,208.29 333.75,208.41C333.75,208.53 333.75,208.66 333.75,208.78C333.75,208.9 333.75,209.03 333.75,209.15C333.75,209.27 333.75,209.39 333.75,209.51C333.75,209.63 333.75,209.76 333.75,209.88C333.75,210 333.75,210.12 333.75,210.24C333.75,210.36 333.75,210.49 333.75,210.61C333.75,210.73 333.75,210.86 333.75,210.98C333.75,211.1 333.75,211.22 333.75,211.34C333.75,211.46 333.75,211.59 333.75,211.71C333.75,211.83 333.75,211.96 333.75,212.08C333.75,212.2 333.75,212.32 333.75,212.44C333.75,212.56 333.75,212.69 333.75,212.81C333.75,212.93 333.75,213.05 333.75,213.17C333.75,213.29 333.75,213.42 333.75,213.54C333.75,213.66 333.75,213.79 333.75,213.91C333.75,214.03 333.75,214.15 333.75,214.27C333.75,214.39 333.75,214.52 333.75,214.64C333.75,214.76 333.75,214.88 333.75,215C333.75,215.12 333.75,215.25 333.75,215.37C333.75,215.49 333.75,215.62 333.75,215.74C333.75,215.86 333.75,215.98 333.75,216.1C333.75,216.22 333.75,216.35 333.75,216.47C333.75,216.59 333.75,216.71 333.75,216.83C333.75,216.95 333.75,217.08 333.75,217.2C333.75,217.32 333.75,217.45 333.75,217.57C333.75,217.69 333.75,217.81 333.75,217.93C333.75,218.05 333.75,218.18 333.75,218.3C333.75,218.42 333.75,218.55 333.75,218.67C333.75,218.79 333.75,218.91 333.75,219.03C333.75,219.15 333.75,219.28 333.75,219.4C333.75,219.52 333.75,219.64 333.75,219.76C333.75,219.88 333.75,220.01 333.75,220.13C333.75,220.25 333.75,220.38 333.75,220.5C333.75,220.62 333.75,220.74 333.75,220.86C333.75,220.98 333.75,221.11 333.75,221.23C333.75,221.35 333.75,221.47 333.75,221.59C333.75,221.71 333.75,221.84 333.75,221.96C333.75,222.08 333.75,222.21 333.75,222.33C333.75,222.45 333.75,222.57 333.75,222.69C333.75,222.81 333.75,222.94 333.75,223.06C333.75,223.18 333.75,223.31 333.75,223.43C333.75,223.55 333.75,223.67 333.75,223.79C333.75,223.91 333.75,224.04 333.75,224.16C333.75,224.28 333.75,224.4 333.75,224.52C333.75,224.64 333.75,224.77 333.75,224.89C333.75,225.01 333.75,225.14 333.75,225.26C333.75,225.38 333.75,225.5 333.75,225.62C333.75,225.74 333.75,225.87 333.75,225.99C333.75,226.11 333.75,226.23 333.75,226.35C333.75,226.47 333.75,226.6 333.75,226.72C333.75,226.84 333.75,226.97 333.75,227.09C333.75,227.21 333.75,227.33 333.75,227.45C333.75,227.57 333.75,227.7 333.75,227.82C333.75,227.94 333.75,228.07 333.75,228.19C333.75,228.31 333.75,228.43 333.75,228.55C333.75,228.67 333.75,228.8 333.75,228.92C333.75,229.04 333.75,229.16 333.75,229.28C333.75,229.4 333.75,229.53 333.75,229.65C333.75,229.77 333.75,229.9 333.75,230.02C333.75,230.14 333.75,230.26 333.75,230.38C333.75,230.5 333.75,230.63 333.75,230.75C333.75,230.87 333.75,230.99 333.75,231.11C333.75,231.23 333.75,231.36 333.75,231.48C333.75,231.6 333.75,231.73 333.75,231.85C333.75,231.97 333.75,232.09 333.75,232.21C333.75,232.33 333.75,232.46 333.75,232.58C333.75,232.7 333.75,232.83 333.75,232.95C333.75,233.07 333.75,233.19 333.75,233.31C333.75,233.43 333.75,233.56 333.75,233.68C333.75,233.8 333.75,233.92 333.75,234.04C333.75,234.16 333.75,234.29 333.75,234.41C333.75,234.53 333.75,234.66 333.75,234.78C333.75,234.9 333.75,235.02 333.75,235.14C333.75,235.26 333.75,235.39 333.75,235.51C333.75,235.63 333.75,235.75 333.75,235.87C333.75,235.99 333.75,236.12 333.75,236.24C333.75,236.36 333.75,236.49 333.75,236.61C333.75,236.73 333.75,236.85 333.75,236.97C333.75,237.09 333.75,237.22 333.75,237.34C333.75,237.46 333.75,237.59 333.75,237.71C333.75,237.83 333.75,237.95 333.75,238.07C333.75,238.19 333.75,238.32 333.75,238.44C333.75,238.56 333.75,238.68 333.75,238.8C333.75,238.92 333.75,239.05 333.75,239.17C333.75,239.29 333.75,239.42 333.75,239.54C333.75,239.66 333.75,239.78 333.75,239.9C333.75,240.02 333.75,240.15 333.75,240.27C333.75,240.39 333.75,240.51 333.75,240.63C333.75,240.75 333.75,240.88 333.75,241C333.75,241.12 333.75,241.25 333.75,241.37C333.75,241.49 333.75,241.61 333.75,241.73C333.75,241.85 333.75,241.98 333.75,242.1C333.75,242.22 333.75,242.34 333.75,242.46C333.75,242.58 333.75,242.71 333.75,242.83C333.75,242.95 333.75,243.08 333.75,243.2C333.75,243.32 333.75,243.44 333.75,243.56C333.75,243.68 333.75,243.81 333.75,243.93C333.75,244.05 333.75,244.18 333.75,244.3C333.75,244.42 333.75,244.54 333.75,244.66C333.75,244.78 333.75,244.91 333.75,245.03C333.75,245.15 333.75,245.27 333.75,245.39C333.75,245.51 333.75,245.64 333.75,245.76C333.75,245.88 333.75,246.01 333.75,246.13C333.75,246.25 333.75,246.37 333.75,246.49C333.75,246.61 333.75,246.74 333.75,246.86C333.75,246.98 333.75,247.1 333.75,247.22C333.75,247.34 333.75,247.47 333.75,247.59C333.75,247.71 333.75,247.84 333.75,247.96C333.75,248.08 333.75,248.2 333.75,248.32C333.75,248.44 333.75,248.57 333.75,248.69C333.75,248.81 333.75,248.94 333.75,249.06C333.75,249.18 333.75,249.3 333.75,249.42C333.75,249.54 333.75,249.67 333.75,249.79C333.75,249.91 333.75,250.03 333.75,250.15C333.75,250.27 333.75,250.4 333.75,250.52C333.75,250.64 333.75,250.77 333.75,250.89C333.75,251.01 333.75,251.13 333.75,251.25C333.75,251.37 333.75,251.5 333.75,251.62C333.75,251.74 333.75,251.86 333.75,251.98C333.75,252.1 333.75,252.23 333.75,252.35C333.75,252.47 333.75,252.6 333.75,252.72C333.75,252.84 333.75,252.96 333.75,253.08C333.75,253.2 333.75,253.33 333.75,253.45C333.75,253.57 333.75,253.7 333.75,253.82C333.75,253.94 333.75,254.06 333.75,254.18C333.75,254.3 333.75,254.43 333.75,254.55C333.75,254.67 333.75,254.79 333.75,254.91C333.75,255.03 333.75,255.16 333.75,255.28C333.75,255.4 333.75,255.53 333.75,255.65C333.75,255.77 333.75,255.89 333.75,256.01C333.75,256.13 333.75,256.26 333.75,256.38C333.75,256.5 333.75,256.62 333.75,256.74C333.75,256.86 333.75,256.99 333.75,257.11C333.75,257.23 333.75,257.36 333.75,257.48C333.75,257.6 333.75,257.72 333.75,257.84C333.75,257.96 333.75,258.09 333.75,258.21C333.75,258.33 333.75,258.46 333.75,258.58C333.75,258.7 333.75,258.82 333.75,258.94C333.75,259.06 333.75,259.19 333.75,259.31C333.75,259.43 333.75,259.55 333.75,259.67C333.75,259.79 333.75,259.92 333.75,260.04C333.75,260.16 333.75,260.29 333.75,260.41C333.75,260.53 333.75,260.65 333.75,260.77C333.75,260.89 333.75,261.02 333.75,261.14C333.75,261.26 333.75,261.38 333.75,261.5C333.75,261.62 333.75,261.75 333.75,261.87C333.75,261.99 333.75,262.12 333.75,262.24C333.75,262.36 333.75,262.48 333.75,262.6C333.75,262.72 333.75,262.85 333.75,262.97C333.75,263.09 333.75,263.21 333.75,263.33C333.75,263.45 333.75,263.58 333.75,263.7C333.75,263.82 333.75,263.95 333.75,264.07C333.75,264.19 333.75,264.31 333.75,264.43C333.75,264.55 333.75,264.68 333.75,264.8C333.75,264.92 333.75,265.05 333.75,265.17C333.75,265.29 333.75,265.41 333.75,265.53C333.75,265.65 333.75,265.78 333.75,265.9C333.75,266.02 333.75,266.14 333.75,266.26C333.75,266.38 333.75,266.51 333.75,266.63C333.75,266.75 333.75,266.88 333.75,267C333.75,267.12 333.75,267.24 333.75,267.36C333.75,267.48 333.75,267.61 333.75,267.73C333.75,267.85 333.75,267.97 333.75,268.09C333.75,268.21 333.75,268.34 333.75,268.46C333.75,268.58 333.75,268.71 333.75,268.83C333.75,268.95 333.75,269.07 333.75,269.19C333.75,269.31 333.75,269.44 333.75,269.56C333.75,269.68 333.75,269.81 333.75,269.93C333.75,270.05 333.75,270.17 333.75,270.29C333.75,270.41 333.75,270.54 333.75,270.66C333.75,270.78 333.74,270.9 333.74,271.02C333.74,271.14 333.74,271.27 333.73,271.39C333.72,271.51 333.71,271.64 333.69,271.76C333.67,271.88 333.65,272 333.62,272.12C333.58,272.24 333.54,272.37 333.48,272.49C333.42,272.61 333.34,272.73 333.25,272.85C333.16,272.98 333.05,273.1 332.93,273.22C332.81,273.35 332.67,273.47 332.54,273.59C332.41,273.71 332.27,273.82 332.15,273.95C332.04,274.07 331.93,274.19 331.86,274.32C331.8,274.44 331.75,274.57 331.75,274.69C331.75,274.81 331.8,274.93 331.86,275.05C331.93,275.18 332.04,275.3 332.15,275.42C332.27,275.55 332.41,275.66 332.54,275.78C332.67,275.9 332.81,276.02 332.93,276.15C333.05,276.27 333.16,276.39 333.25,276.52Q333.34,276.64 333.48,276.88Z" style="vector-effect: non-scaling-stroke; stroke-width: 2px; stroke: rgb(239, 85, 59); stroke-opacity: 1; fill: rgb(239, 85, 59); fill-opacity: 0.5;"/><g class="points"><path class="point" transform="translate(253.44,274.69)" d="M3,0A3,3 0 1,1 0,-3A3,3 0 0,1 3,0Z" style="opacity: 1; stroke-width: 0px; fill: rgb(239, 85, 59); fill-opacity: 1;"/><path class="point" transform="translate(251.74,201.46)" d="M3,0A3,3 0 1,1 0,-3A3,3 0 0,1 3,0Z" style="opacity: 1; stroke-width: 0px; fill: rgb(239, 85, 59); fill-opacity: 1;"/><path class="point" transform="translate(254,201.46)" d="M3,0A3,3 0 1,1 0,-3A3,3 0 0,1 3,0Z" style="opacity: 1; stroke-width: 0px; fill: rgb(239, 85, 59); fill-opacity: 1;"/><path class="point" transform="translate(251.21,201.46)" d="M3,0A3,3 0 1,1 0,-3A3,3 0 0,1 3,0Z" style="opacity: 1; stroke-width: 0px; fill: rgb(239, 85, 59); fill-opacity: 1;"/><path class="point" transform="translate(252.25,201.46)" d="M3,0A3,3 0 1,1 0,-3A3,3 0 0,1 3,0Z" style="opacity: 1; stroke-width: 0px; fill: rgb(239, 85, 59); fill-opacity: 1;"/><path class="point" transform="translate(253.76,201.46)" d="M3,0A3,3 0 1,1 0,-3A3,3 0 0,1 3,0Z" style="opacity: 1; stroke-width: 0px; fill: rgb(239, 85, 59); fill-opacity: 1;"/><path class="point" transform="translate(252.11,201.46)" d="M3,0A3,3 0 1,1 0,-3A3,3 0 0,1 3,0Z" style="opacity: 1; stroke-width: 0px; fill: rgb(239, 85, 59); fill-opacity: 1;"/><path class="point" transform="translate(257.41,201.46)" d="M3,0A3,3 0 1,1 0,-3A3,3 0 0,1 3,0Z" style="opacity: 1; stroke-width: 0px; fill: rgb(239, 85, 59); fill-opacity: 1;"/><path class="point" transform="translate(247.55,201.46)" d="M3,0A3,3 0 1,1 0,-3A3,3 0 0,1 3,0Z" style="opacity: 1; stroke-width: 0px; fill: rgb(239, 85, 59); fill-opacity: 1;"/><path class="point" transform="translate(240.84,201.46)" d="M3,0A3,3 0 1,1 0,-3A3,3 0 0,1 3,0Z" style="opacity: 1; stroke-width: 0px; fill: rgb(239, 85, 59); fill-opacity: 1;"/><path class="point" transform="translate(257.05,201.46)" d="M3,0A3,3 0 1,1 0,-3A3,3 0 0,1 3,0Z" style="opacity: 1; stroke-width: 0px; fill: rgb(239, 85, 59); fill-opacity: 1;"/><path class="point" transform="translate(247.38,201.46)" d="M3,0A3,3 0 1,1 0,-3A3,3 0 0,1 3,0Z" style="opacity: 1; stroke-width: 0px; fill: rgb(239, 85, 59); fill-opacity: 1;"/><path class="point" transform="translate(262.99,201.46)" d="M3,0A3,3 0 1,1 0,-3A3,3 0 0,1 3,0Z" style="opacity: 1; stroke-width: 0px; fill: rgb(239, 85, 59); fill-opacity: 1;"/><path class="point" transform="translate(236.94,201.46)" d="M3,0A3,3 0 1,1 0,-3A3,3 0 0,1 3,0Z" style="opacity: 1; stroke-width: 0px; fill: rgb(239, 85, 59); fill-opacity: 1;"/><path class="point" transform="translate(243.34,201.46)" d="M3,0A3,3 0 1,1 0,-3A3,3 0 0,1 3,0Z" style="opacity: 1; stroke-width: 0px; fill: rgb(239, 85, 59); fill-opacity: 1;"/><path class="point" transform="translate(267.05,201.46)" d="M3,0A3,3 0 1,1 0,-3A3,3 0 0,1 3,0Z" style="opacity: 1; stroke-width: 0px; fill: rgb(239, 85, 59); fill-opacity: 1;"/><path class="point" transform="translate(248.65,201.46)" d="M3,0A3,3 0 1,1 0,-3A3,3 0 0,1 3,0Z" style="opacity: 1; stroke-width: 0px; fill: rgb(239, 85, 59); fill-opacity: 1;"/><path class="point" transform="translate(238.8,201.46)" d="M3,0A3,3 0 1,1 0,-3A3,3 0 0,1 3,0Z" style="opacity: 1; stroke-width: 0px; fill: rgb(239, 85, 59); fill-opacity: 1;"/><path class="point" transform="translate(247.36,201.46)" d="M3,0A3,3 0 1,1 0,-3A3,3 0 0,1 3,0Z" style="opacity: 1; stroke-width: 0px; fill: rgb(239, 85, 59); fill-opacity: 1;"/><path class="point" transform="translate(252.37,201.46)" d="M3,0A3,3 0 1,1 0,-3A3,3 0 0,1 3,0Z" style="opacity: 1; stroke-width: 0px; fill: rgb(239, 85, 59); fill-opacity: 1;"/><path class="point" transform="translate(260.01,201.46)" d="M3,0A3,3 0 1,1 0,-3A3,3 0 0,1 3,0Z" style="opacity: 1; stroke-width: 0px; fill: rgb(239, 85, 59); fill-opacity: 1;"/><path class="point" transform="translate(254.52,201.46)" d="M3,0A3,3 0 1,1 0,-3A3,3 0 0,1 3,0Z" style="opacity: 1; stroke-width: 0px; fill: rgb(239, 85, 59); fill-opacity: 1;"/><path class="point" transform="translate(248.14,201.46)" d="M3,0A3,3 0 1,1 0,-3A3,3 0 0,1 3,0Z" style="opacity: 1; stroke-width: 0px; fill: rgb(239, 85, 59); fill-opacity: 1;"/><path class="point" transform="translate(250.37,201.46)" d="M3,0A3,3 0 1,1 0,-3A3,3 0 0,1 3,0Z" style="opacity: 1; stroke-width: 0px; fill: rgb(239, 85, 59); fill-opacity: 1;"/><path class="point" transform="translate(252.71,201.46)" d="M3,0A3,3 0 1,1 0,-3A3,3 0 0,1 3,0Z" style="opacity: 1; stroke-width: 0px; fill: rgb(239, 85, 59); fill-opacity: 1;"/><path class="point" transform="translate(251.98,201.46)" d="M3,0A3,3 0 1,1 0,-3A3,3 0 0,1 3,0Z" style="opacity: 1; stroke-width: 0px; fill: rgb(239, 85, 59); fill-opacity: 1;"/><path class="point" transform="translate(253.81,201.46)" d="M3,0A3,3 0 1,1 0,-3A3,3 0 0,1 3,0Z" style="opacity: 1; stroke-width: 0px; fill: rgb(239, 85, 59); fill-opacity: 1;"/><path class="point" transform="translate(252.52,201.46)" d="M3,0A3,3 0 1,1 0,-3A3,3 0 0,1 3,0Z" style="opacity: 1; stroke-width: 0px; fill: rgb(239, 85, 59); fill-opacity: 1;"/><path class="point" transform="translate(251.42,164.84)" d="M3,0A3,3 0 1,1 0,-3A3,3 0 0,1 3,0Z" style="opacity: 1; stroke-width: 0px; fill: rgb(239, 85, 59); fill-opacity: 1;"/></g></g></g></g><g class="overplot"/><path class="xlines-above crisp" d="M0,0" style="fill: none;"/><path class="ylines-above crisp" d="M0,0" style="fill: none;"/><g class="overlines-above"/><g class="xaxislayer-above"><g class="xtick"><text text-anchor="middle" x="0" y="433" transform="translate(193.25,0)" style="font-family: 'Open Sans', verdana, arial, sans-serif; font-size: 12px; fill: rgb(42, 63, 95); fill-opacity: 1; white-space: pre; opacity: 1;">eff_cnn</text></g><g class="xtick"><text text-anchor="middle" x="0" y="433" transform="translate(413.75,0)" style="font-family: 'Open Sans', verdana, arial, sans-serif; font-size: 12px; fill: rgb(42, 63, 95); fill-opacity: 1; white-space: pre; opacity: 1;">simplified_eff_cnn</text></g></g><g class="yaxislayer-above"><g class="ytick"><text text-anchor="end" x="79" y="4.199999999999999" transform="translate(0,411.3)" style="font-family: 'Open Sans', verdana, arial, sans-serif; font-size: 12px; fill: rgb(42, 63, 95); fill-opacity: 1; white-space: pre; opacity: 1;">4</text></g><g class="ytick"><text text-anchor="end" x="79" y="4.199999999999999" style="font-family: 'Open Sans', verdana, arial, sans-serif; font-size: 12px; fill: rgb(42, 63, 95); fill-opacity: 1; white-space: pre; opacity: 1;" transform="translate(0,374.69)">5</text></g><g class="ytick"><text text-anchor="end" x="79" y="4.199999999999999" style="font-family: 'Open Sans', verdana, arial, sans-serif; font-size: 12px; fill: rgb(42, 63, 95); fill-opacity: 1; white-space: pre; opacity: 1;" transform="translate(0,338.07)">6</text></g><g class="ytick"><text text-anchor="end" x="79" y="4.199999999999999" style="font-family: 'Open Sans', verdana, arial, sans-serif; font-size: 12px; fill: rgb(42, 63, 95); fill-opacity: 1; white-space: pre; opacity: 1;" transform="translate(0,301.46000000000004)">7</text></g><g class="ytick"><text text-anchor="end" x="79" y="4.199999999999999" style="font-family: 'Open Sans', verdana, arial, sans-serif; font-size: 12px; fill: rgb(42, 63, 95); fill-opacity: 1; white-space: pre; opacity: 1;" transform="translate(0,264.84000000000003)">8</text></g><g class="ytick"><text text-anchor="end" x="79" y="4.199999999999999" style="font-family: 'Open Sans', verdana, arial, sans-serif; font-size: 12px; fill: rgb(42, 63, 95); fill-opacity: 1; white-space: pre; opacity: 1;" transform="translate(0,228.23)">9</text></g><g class="ytick"><text text-anchor="end" x="79" y="4.199999999999999" style="font-family: 'Open Sans', verdana, arial, sans-serif; font-size: 12px; fill: rgb(42, 63, 95); fill-opacity: 1; white-space: pre; opacity: 1;" transform="translate(0,191.61)">10</text></g><g class="ytick"><text text-anchor="end" x="79" y="4.199999999999999" style="font-family: 'Open Sans', verdana, arial, sans-serif; font-size: 12px; fill: rgb(42, 63, 95); fill-opacity: 1; white-space: pre; opacity: 1;" transform="translate(0,155)">11</text></g><g class="ytick"><text text-anchor="end" x="79" y="4.199999999999999" style="font-family: 'Open Sans', verdana, arial, sans-serif; font-size: 12px; fill: rgb(42, 63, 95); fill-opacity: 1; white-space: pre; opacity: 1;" transform="translate(0,118.39)">12</text></g></g><g class="overaxes-above"/></g></g><g class="polarlayer"/><g class="ternarylayer"/><g class="geolayer"/><g class="funnelarealayer"/><g class="pielayer"/><g class="iciclelayer"/><g class="treemaplayer"/><g class="sunburstlayer"/><g class="glimages"/><defs id="topdefs-aba6b7"><g class="clips"/><clipPath id="legendaba6b7"><rect width="155" height="67" x="0" y="0"/></clipPath></defs><g class="layer-above"><g class="imagelayer"/><g class="shapelayer"/></g><g class="infolayer"><g class="legend" pointer-events="all" transform="translate(532.88,100)"><rect class="bg" shape-rendering="crispEdges" width="155" height="67" x="0" y="0" style="stroke: rgb(68, 68, 68); stroke-opacity: 1; fill: rgb(255, 255, 255); fill-opacity: 1; stroke-width: 0px;"/><g class="scrollbox" transform="" clip-path="url(#legendaba6b7)"><text class="legendtitletext" text-anchor="start" x="2" y="18.2" style="font-family: 'Open Sans', verdana, arial, sans-serif; font-size: 14px; fill: rgb(42, 63, 95); fill-opacity: 1; white-space: pre;">model</text><g class="groups" transform=""><g class="traces" transform="translate(0,32.7)" style="opacity: 1;"><text class="legendtext" text-anchor="start" x="40" y="4.680000000000001" style="font-family: 'Open Sans', verdana, arial, sans-serif; font-size: 12px; fill: rgb(42, 63, 95); fill-opacity: 1; white-space: pre;">eff_cnn</text><g class="layers" style="opacity: 1;"><g class="legendfill"/><g class="legendlines"/><g class="legendsymbols"><g class="legendpoints"><path class="legendbox" d="M6,6H-6V-6H6Z" transform="translate(20,0)" style="stroke-width: 2px; fill: rgb(99, 110, 250); fill-opacity: 0.5; stroke: rgb(99, 110, 250); stroke-opacity: 1;"/></g></g></g><rect class="legendtoggle" x="0" y="-9.5" width="149.703125" height="19" style="fill: rgb(0, 0, 0); fill-opacity: 0;"/></g></g><g class="groups" transform=""><g class="traces" transform="translate(0,51.7)" style="opacity: 1;"><text class="legendtext" text-anchor="start" x="40" y="4.680000000000001" style="font-family: 'Open Sans', verdana, arial, sans-serif; font-size: 12px; fill: rgb(42, 63, 95); fill-opacity: 1; white-space: pre;">simplified_eff_cnn</text><g class="layers" style="opacity: 1;"><g class="legendfill"/><g class="legendlines"/><g class="legendsymbols"><g class="legendpoints"><path class="legendbox" d="M6,6H-6V-6H6Z" transform="translate(20,0)" style="stroke-width: 2px; fill: rgb(239, 85, 59); fill-opacity: 0.5; stroke: rgb(239, 85, 59); stroke-opacity: 1;"/></g></g></g><rect class="legendtoggle" x="0" y="-9.5" width="149.703125" height="19" style="fill: rgb(0, 0, 0); fill-opacity: 0;"/></g></g></g><rect class="scrollbar" rx="20" ry="3" width="0" height="0" x="0" y="0" style="fill: rgb(128, 139, 164); fill-opacity: 1;"/></g><g class="g-gtitle"><text class="gtitle" x="35" y="50" text-anchor="start" dy="0em" style="font-family: 'Open Sans', verdana, arial, sans-serif; font-size: 17px; fill: rgb(42, 63, 95); opacity: 1; font-weight: normal; white-space: pre;">Distribution of min traces needed for average rank to be zero</text></g><g class="g-xtitle"><text class="xtitle" x="302" y="460.8" text-anchor="middle" style="font-family: 'Open Sans', verdana, arial, sans-serif; font-size: 14px; fill: rgb(42, 63, 95); opacity: 1; font-weight: normal; white-space: pre;">model</text></g><g class="g-ytitle"><text class="ytitle" transform="rotate(-90,38.934375,260)" x="38.934375" y="260" text-anchor="middle" style="font-family: 'Open Sans', verdana, arial, sans-serif; font-size: 14px; fill: rgb(42, 63, 95); opacity: 1; font-weight: normal; white-space: pre;">min traces needed for average rank to be zero</text></g><g class="annotation" data-index="0" style="opacity: 1;"><g class="annotation-text-g" transform="rotate(0,183.25,125)"><g class="cursor-pointer" transform="translate(147,100)"><rect class="bg" x="0.5" y="0.5" width="72" height="49" style="stroke-width: 1px; stroke: rgb(0, 128, 0); stroke-opacity: 1; fill: rgb(0, 0, 0); fill-opacity: 0;"/><text class="annotation-text" text-anchor="middle" x="36.640625" y="14" style="font-family: 'Open Sans', verdana, arial, sans-serif; font-size: 12px; fill: rgb(42, 63, 95); fill-opacity: 1; white-space: pre;"><tspan class="line" dy="0em" x="36.640625" y="14"> All passed </tspan><tspan class="line" dy="1.3em" x="36.640625" y="14">min: 5</tspan><tspan class="line" dy="2.6em" x="36.640625" y="14">max: 9</tspan></text></g></g><g class="annotation-arrow-g" style="opacity: 1;"><path d="M191.41666666666666,149.5L193.25,155" style="stroke-width: 1px; stroke: rgb(42, 63, 95); stroke-opacity: 1; stroke-dasharray: 0px, 0px, 5.79751px, 5.79751px;"/></g></g><g class="annotation" data-index="1" style="opacity: 1;"><g class="annotation-text-g" transform="rotate(0,403.75,125)"><g class="cursor-pointer" transform="translate(367,100)"><rect class="bg" x="0.5" y="0.5" width="72" height="49" style="stroke-width: 1px; stroke: rgb(0, 128, 0); stroke-opacity: 1; fill: rgb(0, 0, 0); fill-opacity: 0;"/><text class="annotation-text" text-anchor="middle" x="36.640625" y="14" style="font-family: 'Open Sans', verdana, arial, sans-serif; font-size: 12px; fill: rgb(42, 63, 95); fill-opacity: 1; white-space: pre;"><tspan class="line" dy="0em" x="36.640625" y="14"> All passed </tspan><tspan class="line" dy="1.3em" x="36.640625" y="14">min: 5</tspan><tspan class="line" dy="2.6em" x="36.640625" y="14">max: 8</tspan></text></g></g><g class="annotation-arrow-g" style="opacity: 1;"><path d="M411.9166666666667,149.5L413.75,155" style="stroke-width: 1px; stroke: rgb(42, 63, 95); stroke-opacity: 1; stroke-dasharray: 0px, 0px, 5.79751px, 5.79751px;"/></g></g></g></svg>