<svg class="main-svg" xmlns="http://www.w3.org/2000/svg" xmlns:xlink="http://www.w3.org/1999/xlink" width="700" height="500" style="" viewBox="0 0 700 500"><rect x="0" y="0" width="700" height="500" style="fill: rgb(255, 255, 255); fill-opacity: 1;"/><defs id="defs-8ddd90"><g class="clips"><clipPath id="clip8ddd90xyplot" class="plotclip"><rect width="444" height="320"/></clipPath><clipPath class="axesclip" id="clip8ddd90x"><rect x="80" y="0" width="444" height="500"/></clipPath><clipPath class="axesclip" id="clip8ddd90y"><rect x="0" y="100" width="700" height="320"/></clipPath><clipPath class="axesclip" id="clip8ddd90xy"><rect x="80" y="100" width="444" height="320"/></clipPath></g><g class="gradients"/><g class="patterns"/></defs><g class="bglayer"><rect class="bg" x="80" y="100" width="444" height="320" style="fill: rgb(229, 236, 246); fill-opacity: 1; stroke-width: 0;"/></g><g class="layer-below"><g class="imagelayer"/><g class="shapelayer"/></g><g class="cartesianlayer"><g class="subplot xy"><g class="layer-subplot"><g class="shapelayer"/><g class="imagelayer"/></g><g class="gridlayer"><g class="x"/><g class="y"><path class="ygrid crisp" transform="translate(0,408.99)" d="M80,0h444" style="stroke: rgb(255, 255, 255); stroke-opacity: 1; stroke-width: 1px;"/><path class="ygrid crisp" transform="translate(0,372.71)" d="M80,0h444" style="stroke: rgb(255, 255, 255); stroke-opacity: 1; stroke-width: 1px;"/><path class="ygrid crisp" transform="translate(0,336.41999999999996)" d="M80,0h444" style="stroke: rgb(255, 255, 255); stroke-opacity: 1; stroke-width: 1px;"/><path class="ygrid crisp" transform="translate(0,300.14)" d="M80,0h444" style="stroke: rgb(255, 255, 255); stroke-opacity: 1; stroke-width: 1px;"/><path class="ygrid crisp" transform="translate(0,263.85)" d="M80,0h444" style="stroke: rgb(255, 255, 255); stroke-opacity: 1; stroke-width: 1px;"/><path class="ygrid crisp" transform="translate(0,227.57)" d="M80,0h444" style="stroke: rgb(255, 255, 255); stroke-opacity: 1; stroke-width: 1px;"/><path class="ygrid crisp" transform="translate(0,191.28)" d="M80,0h444" style="stroke: rgb(255, 255, 255); stroke-opacity: 1; stroke-width: 1px;"/><path class="ygrid crisp" transform="translate(0,155)" d="M80,0h444" style="stroke: rgb(255, 255, 255); stroke-opacity: 1; stroke-width: 1px;"/><path class="ygrid crisp" transform="translate(0,118.72)" d="M80,0h444" style="stroke: rgb(255, 255, 255); stroke-opacity: 1; stroke-width: 1px;"/></g></g><g class="zerolinelayer"/><path class="xlines-below"/><path class="ylines-below"/><g class="overlines-below"/><g class="xaxislayer-below"/><g class="yaxislayer-below"/><g class="overaxes-below"/><g class="plot" transform="translate(80,100)" clip-path="url(#clip8ddd90xyplot)"><g class="violinlayer mlayer"><g class="trace violins" style="opacity: 1;"><path class="violin" d="M113.26,304Q113.27,300.54 113.27,298.81C113.27,297.08 113.28,295.34 113.28,293.61C113.28,291.88 113.29,290.15 113.29,288.42C113.3,286.69 113.31,284.96 113.31,283.23C113.32,281.5 113.31,279.76 113.32,278.03C113.32,276.3 113.33,274.57 113.34,272.84C113.35,271.11 113.35,269.38 113.36,267.65C113.37,265.92 113.38,264.19 113.39,262.46C113.4,260.73 113.41,258.99 113.43,257.26C113.44,255.53 113.46,253.8 113.48,252.07C113.5,250.34 113.52,248.61 113.54,246.88C113.56,245.15 113.57,243.41 113.59,241.68C113.6,239.95 113.62,238.22 113.63,236.49C113.64,234.76 113.65,233.03 113.66,231.3C113.67,229.57 113.68,227.83 113.7,226.1C113.71,224.37 113.73,222.64 113.75,220.91C113.77,219.18 113.8,217.45 113.83,215.72C113.86,213.99 113.89,212.25 113.92,210.52C113.95,208.79 113.98,207.06 113.99,205.33C114,203.6 114.01,201.87 114.01,200.14C114.01,198.41 113.98,196.68 113.96,194.95C113.94,193.22 113.91,191.48 113.87,189.75C113.84,188.02 113.79,186.29 113.75,184.56C113.71,182.83 113.66,181.1 113.63,179.37C113.59,177.64 113.57,175.9 113.54,174.17C113.52,172.44 113.5,170.71 113.48,168.98C113.46,167.25 113.45,165.52 113.44,163.79C113.43,162.06 113.42,160.32 113.41,158.59C113.4,156.86 113.39,155.13 113.38,153.4C113.37,151.67 113.37,149.94 113.36,148.21C113.36,146.48 113.35,144.75 113.35,143.02C113.35,141.29 113.34,139.55 113.34,137.82C113.34,136.09 113.33,134.36 113.33,132.63C113.33,130.9 113.32,129.17 113.32,127.44C113.32,125.71 113.32,123.97 113.32,122.24C113.32,120.51 113.31,118.78 113.3,117.05C113.3,115.32 113.29,113.59 113.29,111.86C113.29,110.13 113.28,108.39 113.28,106.66C113.28,104.93 113.27,103.2 113.27,101.47Q113.27,99.74 113.26,96.28L113.24,96.28Q113.23,99.74 113.23,101.47C113.23,103.2 113.22,104.93 113.22,106.66C113.22,108.39 113.21,110.13 113.21,111.86C113.21,113.59 113.2,115.32 113.2,117.05C113.19,118.78 113.18,120.51 113.18,122.24C113.18,123.97 113.18,125.71 113.18,127.44C113.18,129.17 113.17,130.9 113.17,132.63C113.17,134.36 113.16,136.09 113.16,137.82C113.16,139.55 113.15,141.29 113.15,143.02C113.15,144.75 113.14,146.48 113.14,148.21C113.13,149.94 113.13,151.67 113.12,153.4C113.11,155.13 113.1,156.86 113.09,158.59C113.08,160.32 113.07,162.06 113.06,163.79C113.05,165.52 113.04,167.25 113.02,168.98C113,170.71 112.98,172.44 112.96,174.17C112.93,175.9 112.91,177.64 112.87,179.37C112.84,181.1 112.79,182.83 112.75,184.56C112.71,186.29 112.66,188.02 112.63,189.75C112.59,191.48 112.56,193.22 112.54,194.95C112.52,196.68 112.49,198.41 112.49,200.14C112.49,201.87 112.5,203.6 112.51,205.33C112.52,207.06 112.55,208.79 112.58,210.52C112.61,212.25 112.64,213.99 112.67,215.72C112.7,217.45 112.73,219.18 112.75,220.91C112.77,222.64 112.79,224.37 112.8,226.1C112.82,227.83 112.83,229.57 112.84,231.3C112.85,233.03 112.86,234.76 112.87,236.49C112.88,238.22 112.9,239.95 112.91,241.68C112.93,243.41 112.94,245.15 112.96,246.88C112.98,248.61 113,250.34 113.02,252.07C113.04,253.8 113.06,255.53 113.07,257.26C113.09,258.99 113.1,260.73 113.11,262.46C113.12,264.19 113.13,265.92 113.14,267.65C113.15,269.38 113.15,271.11 113.16,272.84C113.17,274.57 113.18,276.3 113.18,278.03C113.19,279.76 113.18,281.5 113.19,283.23C113.19,284.96 113.2,286.69 113.21,288.42C113.21,290.15 113.22,291.88 113.22,293.61C113.22,295.34 113.23,297.08 113.23,298.81Q113.23,300.54 113.24,304Z" style="vector-effect: non-scaling-stroke; stroke-width: 2px; stroke: rgb(99, 110, 250); stroke-opacity: 1; fill: rgb(99, 110, 250); fill-opacity: 0.5;"/><g class="points"><path class="point" transform="translate(34.1,272.71)" d="M3,0A3,3 0 1,1 0,-3A3,3 0 0,1 3,0Z" style="opacity: 1; stroke-width: 0px; fill: rgb(99, 110, 250); fill-opacity: 1;"/><path class="point" transform="translate(30.43,236.42)" d="M3,0A3,3 0 1,1 0,-3A3,3 0 0,1 3,0Z" style="opacity: 1; stroke-width: 0px; fill: rgb(99, 110, 250); fill-opacity: 1;"/><path class="point" transform="translate(34.57,236.42)" d="M3,0A3,3 0 1,1 0,-3A3,3 0 0,1 3,0Z" style="opacity: 1; stroke-width: 0px; fill: rgb(99, 110, 250); fill-opacity: 1;"/><path class="point" transform="translate(29.47,236.42)" d="M3,0A3,3 0 1,1 0,-3A3,3 0 0,1 3,0Z" style="opacity: 1; stroke-width: 0px; fill: rgb(99, 110, 250); fill-opacity: 1;"/><path class="point" transform="translate(31.37,236.42)" d="M3,0A3,3 0 1,1 0,-3A3,3 0 0,1 3,0Z" style="opacity: 1; stroke-width: 0px; fill: rgb(99, 110, 250); fill-opacity: 1;"/><path class="point" transform="translate(34.12,236.42)" d="M3,0A3,3 0 1,1 0,-3A3,3 0 0,1 3,0Z" style="opacity: 1; stroke-width: 0px; fill: rgb(99, 110, 250); fill-opacity: 1;"/><path class="point" transform="translate(32.03,200.14)" d="M3,0A3,3 0 1,1 0,-3A3,3 0 0,1 3,0Z" style="opacity: 1; stroke-width: 0px; fill: rgb(99, 110, 250); fill-opacity: 1;"/><path class="point" transform="translate(33.7,200.14)" d="M3,0A3,3 0 1,1 0,-3A3,3 0 0,1 3,0Z" style="opacity: 1; stroke-width: 0px; fill: rgb(99, 110, 250); fill-opacity: 1;"/><path class="point" transform="translate(30.58,200.14)" d="M3,0A3,3 0 1,1 0,-3A3,3 0 0,1 3,0Z" style="opacity: 1; stroke-width: 0px; fill: rgb(99, 110, 250); fill-opacity: 1;"/><path class="point" transform="translate(28.46,200.14)" d="M3,0A3,3 0 1,1 0,-3A3,3 0 0,1 3,0Z" style="opacity: 1; stroke-width: 0px; fill: rgb(99, 110, 250); fill-opacity: 1;"/><path class="point" transform="translate(33.59,200.14)" d="M3,0A3,3 0 1,1 0,-3A3,3 0 0,1 3,0Z" style="opacity: 1; stroke-width: 0px; fill: rgb(99, 110, 250); fill-opacity: 1;"/><path class="point" transform="translate(26.88,200.14)" d="M3,0A3,3 0 1,1 0,-3A3,3 0 0,1 3,0Z" style="opacity: 1; stroke-width: 0px; fill: rgb(99, 110, 250); fill-opacity: 1;"/><path class="point" transform="translate(35.47,200.14)" d="M3,0A3,3 0 1,1 0,-3A3,3 0 0,1 3,0Z" style="opacity: 1; stroke-width: 0px; fill: rgb(99, 110, 250); fill-opacity: 1;"/><path class="point" transform="translate(27.23,200.14)" d="M3,0A3,3 0 1,1 0,-3A3,3 0 0,1 3,0Z" style="opacity: 1; stroke-width: 0px; fill: rgb(99, 110, 250); fill-opacity: 1;"/><path class="point" transform="translate(30.12,200.14)" d="M3,0A3,3 0 1,1 0,-3A3,3 0 0,1 3,0Z" style="opacity: 1; stroke-width: 0px; fill: rgb(99, 110, 250); fill-opacity: 1;"/><path class="point" transform="translate(35.26,200.14)" d="M3,0A3,3 0 1,1 0,-3A3,3 0 0,1 3,0Z" style="opacity: 1; stroke-width: 0px; fill: rgb(99, 110, 250); fill-opacity: 1;"/><path class="point" transform="translate(31.4,200.14)" d="M3,0A3,3 0 1,1 0,-3A3,3 0 0,1 3,0Z" style="opacity: 1; stroke-width: 0px; fill: rgb(99, 110, 250); fill-opacity: 1;"/><path class="point" transform="translate(29.61,163.85)" d="M3,0A3,3 0 1,1 0,-3A3,3 0 0,1 3,0Z" style="opacity: 1; stroke-width: 0px; fill: rgb(99, 110, 250); fill-opacity: 1;"/><path class="point" transform="translate(31.29,163.85)" d="M3,0A3,3 0 1,1 0,-3A3,3 0 0,1 3,0Z" style="opacity: 1; stroke-width: 0px; fill: rgb(99, 110, 250); fill-opacity: 1;"/><path class="point" transform="translate(32.16,127.57)" d="M3,0A3,3 0 1,1 0,-3A3,3 0 0,1 3,0Z" style="opacity: 1; stroke-width: 0px; fill: rgb(99, 110, 250); fill-opacity: 1;"/></g></g><g class="trace violins" style="opacity: 1;"><path class="violin" d="M341.06,200.86Q344.99,200.78 347.22,200.74C349.88,200.7 352.91,200.66 355.96,200.62C359.31,200.58 363.01,200.54 366.52,200.5C370.02,200.46 373.77,200.42 377.01,200.38C379.81,200.34 382.87,200.32 384.85,200.26C386.06,200.23 387.77,200.18 387.77,200.14C387.77,200.1 386.06,200.05 384.85,200.02C382.87,199.96 379.81,199.94 377.01,199.9C373.77,199.86 370.02,199.82 366.52,199.78C363.01,199.74 359.31,199.69 355.96,199.65C352.91,199.61 349.88,199.57 347.22,199.53C344.99,199.49 342.86,199.46 341.06,199.41C339.65,199.37 338.36,199.34 337.3,199.29C336.53,199.25 335.83,199.22 335.29,199.17C334.92,199.14 334.59,199.1 334.35,199.05C334.19,199.02 334.05,198.98 333.96,198.93C333.9,198.9 333.85,198.85 333.82,198.81C333.79,198.77 333.78,198.73 333.77,198.69C333.76,198.65 333.75,198.61 333.75,198.57C333.75,198.53 333.75,198.49 333.75,198.45C333.75,198.41 333.75,198.36 333.75,198.32C333.75,198.28 333.75,198.24 333.75,198.2C333.75,198.16 333.75,198.12 333.75,198.08C333.75,198.04 333.75,198 333.75,197.96C333.75,197.92 333.75,197.88 333.75,197.84C333.75,197.8 333.75,197.76 333.75,197.72C333.75,197.68 333.75,197.64 333.75,197.6C333.75,197.56 333.75,197.52 333.75,197.48C333.75,197.44 333.75,197.4 333.75,197.36C333.75,197.32 333.75,197.28 333.75,197.24C333.75,197.2 333.75,197.16 333.75,197.12C333.75,197.08 333.75,197.03 333.75,196.99C333.75,196.95 333.75,196.91 333.75,196.87C333.75,196.83 333.75,196.79 333.75,196.75C333.75,196.71 333.75,196.67 333.75,196.63C333.75,196.59 333.75,196.55 333.75,196.51C333.75,196.47 333.75,196.43 333.75,196.39C333.75,196.35 333.75,196.31 333.75,196.27C333.75,196.23 333.75,196.19 333.75,196.15C333.75,196.11 333.75,196.07 333.75,196.03C333.75,195.99 333.75,195.95 333.75,195.91C333.75,195.87 333.75,195.82 333.75,195.78C333.75,195.74 333.75,195.7 333.75,195.66C333.75,195.62 333.75,195.58 333.75,195.54C333.75,195.5 333.75,195.46 333.75,195.42C333.75,195.38 333.75,195.34 333.75,195.3C333.75,195.26 333.75,195.22 333.75,195.18C333.75,195.14 333.75,195.1 333.75,195.06C333.75,195.02 333.75,194.98 333.75,194.94C333.75,194.9 333.75,194.86 333.75,194.82C333.75,194.78 333.75,194.74 333.75,194.7C333.75,194.66 333.75,194.62 333.75,194.58C333.75,194.54 333.75,194.49 333.75,194.45C333.75,194.41 333.75,194.37 333.75,194.33C333.75,194.29 333.75,194.25 333.75,194.21C333.75,194.17 333.75,194.13 333.75,194.09C333.75,194.05 333.75,194.01 333.75,193.97C333.75,193.93 333.75,193.89 333.75,193.85C333.75,193.81 333.75,193.77 333.75,193.73C333.75,193.69 333.75,193.65 333.75,193.61C333.75,193.57 333.75,193.53 333.75,193.49C333.75,193.45 333.75,193.41 333.75,193.37C333.75,193.33 333.75,193.28 333.75,193.24C333.75,193.2 333.75,193.16 333.75,193.12C333.75,193.08 333.75,193.04 333.75,193C333.75,192.96 333.75,192.92 333.75,192.88C333.75,192.84 333.75,192.8 333.75,192.76C333.75,192.72 333.75,192.68 333.75,192.64C333.75,192.6 333.75,192.56 333.75,192.52C333.75,192.48 333.75,192.44 333.75,192.4C333.75,192.36 333.75,192.32 333.75,192.28C333.75,192.24 333.75,192.2 333.75,192.16C333.75,192.12 333.75,192.08 333.75,192.04C333.75,192 333.75,191.95 333.75,191.91C333.75,191.87 333.75,191.83 333.75,191.79C333.75,191.75 333.75,191.71 333.75,191.67C333.75,191.63 333.75,191.59 333.75,191.55C333.75,191.51 333.75,191.47 333.75,191.43C333.75,191.39 333.75,191.35 333.75,191.31C333.75,191.27 333.75,191.23 333.75,191.19C333.75,191.15 333.75,191.11 333.75,191.07C333.75,191.03 333.75,190.99 333.75,190.95C333.75,190.91 333.75,190.87 333.75,190.83C333.75,190.79 333.75,190.74 333.75,190.7C333.75,190.66 333.75,190.62 333.75,190.58C333.75,190.54 333.75,190.5 333.75,190.46C333.75,190.42 333.75,190.38 333.75,190.34C333.75,190.3 333.75,190.26 333.75,190.22C333.75,190.18 333.75,190.14 333.75,190.1C333.75,190.06 333.75,190.02 333.75,189.98C333.75,189.94 333.75,189.9 333.75,189.86C333.75,189.82 333.75,189.78 333.75,189.74C333.75,189.7 333.75,189.66 333.75,189.62C333.75,189.58 333.75,189.54 333.75,189.5C333.75,189.46 333.75,189.41 333.75,189.37C333.75,189.33 333.75,189.29 333.75,189.25C333.75,189.21 333.75,189.17 333.75,189.13C333.75,189.09 333.75,189.05 333.75,189.01C333.75,188.97 333.75,188.93 333.75,188.89C333.75,188.85 333.75,188.81 333.75,188.77C333.75,188.73 333.75,188.69 333.75,188.65C333.75,188.61 333.75,188.57 333.75,188.53C333.75,188.49 333.75,188.45 333.75,188.41C333.75,188.37 333.75,188.33 333.75,188.29C333.75,188.25 333.75,188.2 333.75,188.16C333.75,188.12 333.75,188.08 333.75,188.04C333.75,188 333.75,187.96 333.75,187.92C333.75,187.88 333.75,187.84 333.75,187.8C333.75,187.76 333.75,187.72 333.75,187.68C333.75,187.64 333.75,187.6 333.75,187.56C333.75,187.52 333.75,187.48 333.75,187.44C333.75,187.4 333.75,187.36 333.75,187.32C333.75,187.28 333.75,187.24 333.75,187.2C333.75,187.16 333.75,187.12 333.75,187.08C333.75,187.04 333.75,187 333.75,186.96C333.75,186.92 333.75,186.87 333.75,186.83C333.75,186.79 333.75,186.75 333.75,186.71C333.75,186.67 333.75,186.63 333.75,186.59C333.75,186.55 333.75,186.51 333.75,186.47C333.75,186.43 333.75,186.39 333.75,186.35C333.75,186.31 333.75,186.27 333.75,186.23C333.75,186.19 333.75,186.15 333.75,186.11C333.75,186.07 333.75,186.03 333.75,185.99C333.75,185.95 333.75,185.91 333.75,185.87C333.75,185.83 333.75,185.79 333.75,185.75C333.75,185.71 333.75,185.66 333.75,185.62C333.75,185.58 333.75,185.54 333.75,185.5C333.75,185.46 333.75,185.42 333.75,185.38C333.75,185.34 333.75,185.3 333.75,185.26C333.75,185.22 333.75,185.18 333.75,185.14C333.75,185.1 333.75,185.06 333.75,185.02C333.75,184.98 333.75,184.94 333.75,184.9C333.75,184.86 333.75,184.82 333.75,184.78C333.75,184.74 333.75,184.7 333.75,184.66C333.75,184.62 333.75,184.58 333.75,184.54C333.75,184.5 333.75,184.46 333.75,184.42C333.75,184.38 333.75,184.33 333.75,184.29C333.75,184.25 333.75,184.21 333.75,184.17C333.75,184.13 333.75,184.09 333.75,184.05C333.75,184.01 333.75,183.97 333.75,183.93C333.75,183.89 333.75,183.85 333.75,183.81C333.75,183.77 333.75,183.73 333.75,183.69C333.75,183.65 333.75,183.61 333.75,183.57C333.75,183.53 333.75,183.49 333.75,183.45C333.75,183.41 333.75,183.37 333.75,183.33C333.75,183.29 333.75,183.25 333.75,183.21C333.75,183.17 333.75,183.12 333.75,183.08C333.75,183.04 333.75,183 333.75,182.96C333.75,182.92 333.75,182.88 333.75,182.84C333.75,182.8 333.75,182.76 333.75,182.72C333.75,182.68 333.75,182.64 333.75,182.6C333.75,182.56 333.75,182.52 333.75,182.48C333.75,182.44 333.75,182.4 333.75,182.36C333.75,182.32 333.75,182.28 333.75,182.24C333.75,182.2 333.75,182.16 333.75,182.12C333.75,182.08 333.75,182.04 333.75,182C333.75,181.96 333.75,181.92 333.75,181.88C333.75,181.84 333.75,181.79 333.75,181.75C333.75,181.71 333.75,181.67 333.75,181.63C333.75,181.59 333.75,181.55 333.75,181.51C333.75,181.47 333.75,181.43 333.75,181.39C333.75,181.35 333.75,181.31 333.75,181.27C333.75,181.23 333.75,181.19 333.75,181.15C333.75,181.11 333.75,181.07 333.75,181.03C333.75,180.99 333.75,180.95 333.75,180.91C333.75,180.87 333.75,180.83 333.75,180.79C333.75,180.75 333.75,180.71 333.75,180.67C333.75,180.63 333.75,180.59 333.75,180.55C333.75,180.51 333.75,180.46 333.75,180.42C333.75,180.38 333.75,180.34 333.75,180.3C333.75,180.26 333.75,180.22 333.75,180.18C333.75,180.14 333.75,180.1 333.75,180.06C333.75,180.02 333.75,179.98 333.75,179.94C333.75,179.9 333.75,179.86 333.75,179.82C333.75,179.78 333.75,179.74 333.75,179.7C333.75,179.66 333.75,179.62 333.75,179.58C333.75,179.54 333.75,179.5 333.75,179.46C333.75,179.42 333.75,179.38 333.75,179.34C333.75,179.3 333.75,179.25 333.75,179.21C333.75,179.17 333.75,179.13 333.75,179.09C333.75,179.05 333.75,179.01 333.75,178.97C333.75,178.93 333.75,178.89 333.75,178.85C333.75,178.81 333.75,178.77 333.75,178.73C333.75,178.69 333.75,178.65 333.75,178.61C333.75,178.57 333.75,178.53 333.75,178.49C333.75,178.45 333.75,178.41 333.75,178.37C333.75,178.33 333.75,178.29 333.75,178.25C333.75,178.21 333.75,178.17 333.75,178.13C333.75,178.09 333.75,178.05 333.75,178.01C333.75,177.97 333.75,177.92 333.75,177.88C333.75,177.84 333.75,177.8 333.75,177.76C333.75,177.72 333.75,177.68 333.75,177.64C333.75,177.6 333.75,177.56 333.75,177.52C333.75,177.48 333.75,177.44 333.75,177.4C333.75,177.36 333.75,177.32 333.75,177.28C333.75,177.24 333.75,177.2 333.75,177.16C333.75,177.12 333.75,177.08 333.75,177.04C333.75,177 333.75,176.96 333.75,176.92C333.75,176.88 333.75,176.84 333.75,176.8C333.75,176.76 333.75,176.71 333.75,176.67C333.75,176.63 333.75,176.59 333.75,176.55C333.75,176.51 333.75,176.47 333.75,176.43C333.75,176.39 333.75,176.35 333.75,176.31C333.75,176.27 333.75,176.23 333.75,176.19C333.75,176.15 333.75,176.11 333.75,176.07C333.75,176.03 333.75,175.99 333.75,175.95C333.75,175.91 333.75,175.87 333.75,175.83C333.75,175.79 333.75,175.75 333.75,175.71C333.75,175.67 333.75,175.63 333.75,175.59C333.75,175.55 333.75,175.51 333.75,175.47C333.75,175.43 333.75,175.38 333.75,175.34C333.75,175.3 333.75,175.26 333.75,175.22C333.75,175.18 333.75,175.14 333.75,175.1C333.75,175.06 333.75,175.02 333.75,174.98C333.75,174.94 333.75,174.9 333.75,174.86C333.75,174.82 333.75,174.78 333.75,174.74C333.75,174.7 333.75,174.66 333.75,174.62C333.75,174.58 333.75,174.54 333.75,174.5C333.75,174.46 333.75,174.42 333.75,174.38C333.75,174.34 333.75,174.3 333.75,174.26C333.75,174.22 333.75,174.17 333.75,174.13C333.75,174.09 333.75,174.05 333.75,174.01C333.75,173.97 333.75,173.93 333.75,173.89C333.75,173.85 333.75,173.81 333.75,173.77C333.75,173.73 333.75,173.69 333.75,173.65C333.75,173.61 333.75,173.57 333.75,173.53C333.75,173.49 333.75,173.45 333.75,173.41C333.75,173.37 333.75,173.33 333.75,173.29C333.75,173.25 333.75,173.21 333.75,173.17C333.75,173.13 333.75,173.09 333.75,173.05C333.75,173.01 333.75,172.97 333.75,172.93C333.75,172.89 333.75,172.84 333.75,172.8C333.75,172.76 333.75,172.72 333.75,172.68C333.75,172.64 333.75,172.6 333.75,172.56C333.75,172.52 333.75,172.48 333.75,172.44C333.75,172.4 333.75,172.36 333.75,172.32C333.75,172.28 333.75,172.24 333.75,172.2C333.75,172.16 333.75,172.12 333.75,172.08C333.75,172.04 333.75,172 333.75,171.96C333.75,171.92 333.75,171.88 333.75,171.84C333.75,171.8 333.75,171.76 333.75,171.72C333.75,171.68 333.75,171.63 333.75,171.59C333.75,171.55 333.75,171.51 333.75,171.47C333.75,171.43 333.75,171.39 333.75,171.35C333.75,171.31 333.75,171.27 333.75,171.23C333.75,171.19 333.75,171.15 333.75,171.11C333.75,171.07 333.75,171.03 333.75,170.99C333.75,170.95 333.75,170.91 333.75,170.87C333.75,170.83 333.75,170.79 333.75,170.75C333.75,170.71 333.75,170.67 333.75,170.63C333.75,170.59 333.75,170.55 333.75,170.51C333.75,170.47 333.75,170.43 333.75,170.39C333.75,170.35 333.75,170.3 333.75,170.26C333.75,170.22 333.75,170.18 333.75,170.14C333.75,170.1 333.75,170.06 333.75,170.02C333.75,169.98 333.75,169.94 333.75,169.9C333.75,169.86 333.75,169.82 333.75,169.78C333.75,169.74 333.75,169.7 333.75,169.66C333.75,169.62 333.75,169.58 333.75,169.54C333.75,169.5 333.75,169.46 333.75,169.42C333.75,169.38 333.75,169.34 333.75,169.3C333.75,169.26 333.75,169.22 333.75,169.18C333.75,169.14 333.75,169.09 333.75,169.05C333.75,169.01 333.75,168.97 333.75,168.93C333.75,168.89 333.75,168.85 333.75,168.81C333.75,168.77 333.75,168.73 333.75,168.69C333.75,168.65 333.75,168.61 333.75,168.57C333.75,168.53 333.75,168.49 333.75,168.45C333.75,168.41 333.75,168.37 333.75,168.33C333.75,168.29 333.75,168.25 333.75,168.21C333.75,168.17 333.75,168.13 333.75,168.09C333.75,168.05 333.75,168.01 333.75,167.97C333.75,167.93 333.75,167.89 333.75,167.85C333.75,167.81 333.75,167.76 333.75,167.72C333.75,167.68 333.75,167.64 333.75,167.6C333.75,167.56 333.75,167.52 333.75,167.48C333.75,167.44 333.75,167.4 333.75,167.36C333.75,167.32 333.75,167.28 333.75,167.24C333.75,167.2 333.75,167.16 333.75,167.12C333.75,167.08 333.75,167.04 333.75,167C333.75,166.96 333.75,166.92 333.75,166.88C333.75,166.84 333.75,166.8 333.75,166.76C333.75,166.72 333.75,166.68 333.75,166.64C333.75,166.6 333.75,166.55 333.75,166.51C333.75,166.47 333.75,166.43 333.75,166.39C333.75,166.35 333.75,166.31 333.75,166.27C333.75,166.23 333.75,166.19 333.75,166.15C333.75,166.11 333.75,166.07 333.75,166.03C333.75,165.99 333.75,165.95 333.75,165.91C333.75,165.87 333.75,165.83 333.75,165.79C333.75,165.75 333.75,165.71 333.75,165.67C333.75,165.63 333.75,165.59 333.75,165.55C333.75,165.51 333.75,165.47 333.75,165.43C333.75,165.39 333.75,165.35 333.75,165.31C333.75,165.27 333.75,165.22 333.75,165.18C333.75,165.14 333.76,165.1 333.76,165.06C333.77,165.02 333.77,164.98 333.78,164.94C333.79,164.9 333.81,164.86 333.83,164.82C333.86,164.78 333.9,164.74 333.94,164.7C333.99,164.66 334.06,164.62 334.13,164.58C334.22,164.53 334.34,164.5 334.46,164.46C334.6,164.42 334.76,164.38 334.92,164.34C335.09,164.3 335.29,164.26 335.47,164.22C335.66,164.18 335.86,164.14 336.03,164.1C336.18,164.06 336.34,164.03 336.44,163.98C336.51,163.94 336.59,163.89 336.59,163.85C336.59,163.81 336.51,163.76 336.44,163.73C336.34,163.68 336.18,163.65 336.03,163.61C335.86,163.57 335.66,163.53 335.47,163.49C335.29,163.45 335.09,163.41 334.92,163.37C334.76,163.33 334.6,163.29 334.46,163.25Q334.34,163.21 334.13,163.13L333.37,163.13Q333.16,163.21 333.04,163.25C332.9,163.29 332.74,163.33 332.58,163.37C332.41,163.41 332.21,163.45 332.03,163.49C331.84,163.53 331.64,163.57 331.47,163.61C331.32,163.65 331.16,163.68 331.06,163.73C330.99,163.76 330.91,163.81 330.91,163.85C330.91,163.89 330.99,163.94 331.06,163.98C331.16,164.03 331.32,164.06 331.47,164.1C331.64,164.14 331.84,164.18 332.03,164.22C332.21,164.26 332.41,164.3 332.58,164.34C332.74,164.38 332.9,164.42 333.04,164.46C333.16,164.5 333.28,164.53 333.37,164.58C333.44,164.62 333.51,164.66 333.56,164.7C333.6,164.74 333.64,164.78 333.67,164.82C333.69,164.86 333.71,164.9 333.72,164.94C333.73,164.98 333.73,165.02 333.74,165.06C333.74,165.1 333.75,165.14 333.75,165.18C333.75,165.22 333.75,165.27 333.75,165.31C333.75,165.35 333.75,165.39 333.75,165.43C333.75,165.47 333.75,165.51 333.75,165.55C333.75,165.59 333.75,165.63 333.75,165.67C333.75,165.71 333.75,165.75 333.75,165.79C333.75,165.83 333.75,165.87 333.75,165.91C333.75,165.95 333.75,165.99 333.75,166.03C333.75,166.07 333.75,166.11 333.75,166.15C333.75,166.19 333.75,166.23 333.75,166.27C333.75,166.31 333.75,166.35 333.75,166.39C333.75,166.43 333.75,166.47 333.75,166.51C333.75,166.55 333.75,166.6 333.75,166.64C333.75,166.68 333.75,166.72 333.75,166.76C333.75,166.8 333.75,166.84 333.75,166.88C333.75,166.92 333.75,166.96 333.75,167C333.75,167.04 333.75,167.08 333.75,167.12C333.75,167.16 333.75,167.2 333.75,167.24C333.75,167.28 333.75,167.32 333.75,167.36C333.75,167.4 333.75,167.44 333.75,167.48C333.75,167.52 333.75,167.56 333.75,167.6C333.75,167.64 333.75,167.68 333.75,167.72C333.75,167.76 333.75,167.81 333.75,167.85C333.75,167.89 333.75,167.93 333.75,167.97C333.75,168.01 333.75,168.05 333.75,168.09C333.75,168.13 333.75,168.17 333.75,168.21C333.75,168.25 333.75,168.29 333.75,168.33C333.75,168.37 333.75,168.41 333.75,168.45C333.75,168.49 333.75,168.53 333.75,168.57C333.75,168.61 333.75,168.65 333.75,168.69C333.75,168.73 333.75,168.77 333.75,168.81C333.75,168.85 333.75,168.89 333.75,168.93C333.75,168.97 333.75,169.01 333.75,169.05C333.75,169.09 333.75,169.14 333.75,169.18C333.75,169.22 333.75,169.26 333.75,169.3C333.75,169.34 333.75,169.38 333.75,169.42C333.75,169.46 333.75,169.5 333.75,169.54C333.75,169.58 333.75,169.62 333.75,169.66C333.75,169.7 333.75,169.74 333.75,169.78C333.75,169.82 333.75,169.86 333.75,169.9C333.75,169.94 333.75,169.98 333.75,170.02C333.75,170.06 333.75,170.1 333.75,170.14C333.75,170.18 333.75,170.22 333.75,170.26C333.75,170.3 333.75,170.35 333.75,170.39C333.75,170.43 333.75,170.47 333.75,170.51C333.75,170.55 333.75,170.59 333.75,170.63C333.75,170.67 333.75,170.71 333.75,170.75C333.75,170.79 333.75,170.83 333.75,170.87C333.75,170.91 333.75,170.95 333.75,170.99C333.75,171.03 333.75,171.07 333.75,171.11C333.75,171.15 333.75,171.19 333.75,171.23C333.75,171.27 333.75,171.31 333.75,171.35C333.75,171.39 333.75,171.43 333.75,171.47C333.75,171.51 333.75,171.55 333.75,171.59C333.75,171.63 333.75,171.68 333.75,171.72C333.75,171.76 333.75,171.8 333.75,171.84C333.75,171.88 333.75,171.92 333.75,171.96C333.75,172 333.75,172.04 333.75,172.08C333.75,172.12 333.75,172.16 333.75,172.2C333.75,172.24 333.75,172.28 333.75,172.32C333.75,172.36 333.75,172.4 333.75,172.44C333.75,172.48 333.75,172.52 333.75,172.56C333.75,172.6 333.75,172.64 333.75,172.68C333.75,172.72 333.75,172.76 333.75,172.8C333.75,172.84 333.75,172.89 333.75,172.93C333.75,172.97 333.75,173.01 333.75,173.05C333.75,173.09 333.75,173.13 333.75,173.17C333.75,173.21 333.75,173.25 333.75,173.29C333.75,173.33 333.75,173.37 333.75,173.41C333.75,173.45 333.75,173.49 333.75,173.53C333.75,173.57 333.75,173.61 333.75,173.65C333.75,173.69 333.75,173.73 333.75,173.77C333.75,173.81 333.75,173.85 333.75,173.89C333.75,173.93 333.75,173.97 333.75,174.01C333.75,174.05 333.75,174.09 333.75,174.13C333.75,174.17 333.75,174.22 333.75,174.26C333.75,174.3 333.75,174.34 333.75,174.38C333.75,174.42 333.75,174.46 333.75,174.5C333.75,174.54 333.75,174.58 333.75,174.62C333.75,174.66 333.75,174.7 333.75,174.74C333.75,174.78 333.75,174.82 333.75,174.86C333.75,174.9 333.75,174.94 333.75,174.98C333.75,175.02 333.75,175.06 333.75,175.1C333.75,175.14 333.75,175.18 333.75,175.22C333.75,175.26 333.75,175.3 333.75,175.34C333.75,175.38 333.75,175.43 333.75,175.47C333.75,175.51 333.75,175.55 333.75,175.59C333.75,175.63 333.75,175.67 333.75,175.71C333.75,175.75 333.75,175.79 333.75,175.83C333.75,175.87 333.75,175.91 333.75,175.95C333.75,175.99 333.75,176.03 333.75,176.07C333.75,176.11 333.75,176.15 333.75,176.19C333.75,176.23 333.75,176.27 333.75,176.31C333.75,176.35 333.75,176.39 333.75,176.43C333.75,176.47 333.75,176.51 333.75,176.55C333.75,176.59 333.75,176.63 333.75,176.67C333.75,176.71 333.75,176.76 333.75,176.8C333.75,176.84 333.75,176.88 333.75,176.92C333.75,176.96 333.75,177 333.75,177.04C333.75,177.08 333.75,177.12 333.75,177.16C333.75,177.2 333.75,177.24 333.75,177.28C333.75,177.32 333.75,177.36 333.75,177.4C333.75,177.44 333.75,177.48 333.75,177.52C333.75,177.56 333.75,177.6 333.75,177.64C333.75,177.68 333.75,177.72 333.75,177.76C333.75,177.8 333.75,177.84 333.75,177.88C333.75,177.92 333.75,177.97 333.75,178.01C333.75,178.05 333.75,178.09 333.75,178.13C333.75,178.17 333.75,178.21 333.75,178.25C333.75,178.29 333.75,178.33 333.75,178.37C333.75,178.41 333.75,178.45 333.75,178.49C333.75,178.53 333.75,178.57 333.75,178.61C333.75,178.65 333.75,178.69 333.75,178.73C333.75,178.77 333.75,178.81 333.75,178.85C333.75,178.89 333.75,178.93 333.75,178.97C333.75,179.01 333.75,179.05 333.75,179.09C333.75,179.13 333.75,179.17 333.75,179.21C333.75,179.25 333.75,179.3 333.75,179.34C333.75,179.38 333.75,179.42 333.75,179.46C333.75,179.5 333.75,179.54 333.75,179.58C333.75,179.62 333.75,179.66 333.75,179.7C333.75,179.74 333.75,179.78 333.75,179.82C333.75,179.86 333.75,179.9 333.75,179.94C333.75,179.98 333.75,180.02 333.75,180.06C333.75,180.1 333.75,180.14 333.75,180.18C333.75,180.22 333.75,180.26 333.75,180.3C333.75,180.34 333.75,180.38 333.75,180.42C333.75,180.46 333.75,180.51 333.75,180.55C333.75,180.59 333.75,180.63 333.75,180.67C333.75,180.71 333.75,180.75 333.75,180.79C333.75,180.83 333.75,180.87 333.75,180.91C333.75,180.95 333.75,180.99 333.75,181.03C333.75,181.07 333.75,181.11 333.75,181.15C333.75,181.19 333.75,181.23 333.75,181.27C333.75,181.31 333.75,181.35 333.75,181.39C333.75,181.43 333.75,181.47 333.75,181.51C333.75,181.55 333.75,181.59 333.75,181.63C333.75,181.67 333.75,181.71 333.75,181.75C333.75,181.79 333.75,181.84 333.75,181.88C333.75,181.92 333.75,181.96 333.75,182C333.75,182.04 333.75,182.08 333.75,182.12C333.75,182.16 333.75,182.2 333.75,182.24C333.75,182.28 333.75,182.32 333.75,182.36C333.75,182.4 333.75,182.44 333.75,182.48C333.75,182.52 333.75,182.56 333.75,182.6C333.75,182.64 333.75,182.68 333.75,182.72C333.75,182.76 333.75,182.8 333.75,182.84C333.75,182.88 333.75,182.92 333.75,182.96C333.75,183 333.75,183.04 333.75,183.08C333.75,183.12 333.75,183.17 333.75,183.21C333.75,183.25 333.75,183.29 333.75,183.33C333.75,183.37 333.75,183.41 333.75,183.45C333.75,183.49 333.75,183.53 333.75,183.57C333.75,183.61 333.75,183.65 333.75,183.69C333.75,183.73 333.75,183.77 333.75,183.81C333.75,183.85 333.75,183.89 333.75,183.93C333.75,183.97 333.75,184.01 333.75,184.05C333.75,184.09 333.75,184.13 333.75,184.17C333.75,184.21 333.75,184.25 333.75,184.29C333.75,184.33 333.75,184.38 333.75,184.42C333.75,184.46 333.75,184.5 333.75,184.54C333.75,184.58 333.75,184.62 333.75,184.66C333.75,184.7 333.75,184.74 333.75,184.78C333.75,184.82 333.75,184.86 333.75,184.9C333.75,184.94 333.75,184.98 333.75,185.02C333.75,185.06 333.75,185.1 333.75,185.14C333.75,185.18 333.75,185.22 333.75,185.26C333.75,185.3 333.75,185.34 333.75,185.38C333.75,185.42 333.75,185.46 333.75,185.5C333.75,185.54 333.75,185.58 333.75,185.62C333.75,185.66 333.75,185.71 333.75,185.75C333.75,185.79 333.75,185.83 333.75,185.87C333.75,185.91 333.75,185.95 333.75,185.99C333.75,186.03 333.75,186.07 333.75,186.11C333.75,186.15 333.75,186.19 333.75,186.23C333.75,186.27 333.75,186.31 333.75,186.35C333.75,186.39 333.75,186.43 333.75,186.47C333.75,186.51 333.75,186.55 333.75,186.59C333.75,186.63 333.75,186.67 333.75,186.71C333.75,186.75 333.75,186.79 333.75,186.83C333.75,186.87 333.75,186.92 333.75,186.96C333.75,187 333.75,187.04 333.75,187.08C333.75,187.12 333.75,187.16 333.75,187.2C333.75,187.24 333.75,187.28 333.75,187.32C333.75,187.36 333.75,187.4 333.75,187.44C333.75,187.48 333.75,187.52 333.75,187.56C333.75,187.6 333.75,187.64 333.75,187.68C333.75,187.72 333.75,187.76 333.75,187.8C333.75,187.84 333.75,187.88 333.75,187.92C333.75,187.96 333.75,188 333.75,188.04C333.75,188.08 333.75,188.12 333.75,188.16C333.75,188.2 333.75,188.25 333.75,188.29C333.75,188.33 333.75,188.37 333.75,188.41C333.75,188.45 333.75,188.49 333.75,188.53C333.75,188.57 333.75,188.61 333.75,188.65C333.75,188.69 333.75,188.73 333.75,188.77C333.75,188.81 333.75,188.85 333.75,188.89C333.75,188.93 333.75,188.97 333.75,189.01C333.75,189.05 333.75,189.09 333.75,189.13C333.75,189.17 333.75,189.21 333.75,189.25C333.75,189.29 333.75,189.33 333.75,189.37C333.75,189.41 333.75,189.46 333.75,189.5C333.75,189.54 333.75,189.58 333.75,189.62C333.75,189.66 333.75,189.7 333.75,189.74C333.75,189.78 333.75,189.82 333.75,189.86C333.75,189.9 333.75,189.94 333.75,189.98C333.75,190.02 333.75,190.06 333.75,190.1C333.75,190.14 333.75,190.18 333.75,190.22C333.75,190.26 333.75,190.3 333.75,190.34C333.75,190.38 333.75,190.42 333.75,190.46C333.75,190.5 333.75,190.54 333.75,190.58C333.75,190.62 333.75,190.66 333.75,190.7C333.75,190.74 333.75,190.79 333.75,190.83C333.75,190.87 333.75,190.91 333.75,190.95C333.75,190.99 333.75,191.03 333.75,191.07C333.75,191.11 333.75,191.15 333.75,191.19C333.75,191.23 333.75,191.27 333.75,191.31C333.75,191.35 333.75,191.39 333.75,191.43C333.75,191.47 333.75,191.51 333.75,191.55C333.75,191.59 333.75,191.63 333.75,191.67C333.75,191.71 333.75,191.75 333.75,191.79C333.75,191.83 333.75,191.87 333.75,191.91C333.75,191.95 333.75,192 333.75,192.04C333.75,192.08 333.75,192.12 333.75,192.16C333.75,192.2 333.75,192.24 333.75,192.28C333.75,192.32 333.75,192.36 333.75,192.4C333.75,192.44 333.75,192.48 333.75,192.52C333.75,192.56 333.75,192.6 333.75,192.64C333.75,192.68 333.75,192.72 333.75,192.76C333.75,192.8 333.75,192.84 333.75,192.88C333.75,192.92 333.75,192.96 333.75,193C333.75,193.04 333.75,193.08 333.75,193.12C333.75,193.16 333.75,193.2 333.75,193.24C333.75,193.28 333.75,193.33 333.75,193.37C333.75,193.41 333.75,193.45 333.75,193.49C333.75,193.53 333.75,193.57 333.75,193.61C333.75,193.65 333.75,193.69 333.75,193.73C333.75,193.77 333.75,193.81 333.75,193.85C333.75,193.89 333.75,193.93 333.75,193.97C333.75,194.01 333.75,194.05 333.75,194.09C333.75,194.13 333.75,194.17 333.75,194.21C333.75,194.25 333.75,194.29 333.75,194.33C333.75,194.37 333.75,194.41 333.75,194.45C333.75,194.49 333.75,194.54 333.75,194.58C333.75,194.62 333.75,194.66 333.75,194.7C333.75,194.74 333.75,194.78 333.75,194.82C333.75,194.86 333.75,194.9 333.75,194.94C333.75,194.98 333.75,195.02 333.75,195.06C333.75,195.1 333.75,195.14 333.75,195.18C333.75,195.22 333.75,195.26 333.75,195.3C333.75,195.34 333.75,195.38 333.75,195.42C333.75,195.46 333.75,195.5 333.75,195.54C333.75,195.58 333.75,195.62 333.75,195.66C333.75,195.7 333.75,195.74 333.75,195.78C333.75,195.82 333.75,195.87 333.75,195.91C333.75,195.95 333.75,195.99 333.75,196.03C333.75,196.07 333.75,196.11 333.75,196.15C333.75,196.19 333.75,196.23 333.75,196.27C333.75,196.31 333.75,196.35 333.75,196.39C333.75,196.43 333.75,196.47 333.75,196.51C333.75,196.55 333.75,196.59 333.75,196.63C333.75,196.67 333.75,196.71 333.75,196.75C333.75,196.79 333.75,196.83 333.75,196.87C333.75,196.91 333.75,196.95 333.75,196.99C333.75,197.03 333.75,197.08 333.75,197.12C333.75,197.16 333.75,197.2 333.75,197.24C333.75,197.28 333.75,197.32 333.75,197.36C333.75,197.4 333.75,197.44 333.75,197.48C333.75,197.52 333.75,197.56 333.75,197.6C333.75,197.64 333.75,197.68 333.75,197.72C333.75,197.76 333.75,197.8 333.75,197.84C333.75,197.88 333.75,197.92 333.75,197.96C333.75,198 333.75,198.04 333.75,198.08C333.75,198.12 333.75,198.16 333.75,198.2C333.75,198.24 333.75,198.28 333.75,198.32C333.75,198.36 333.75,198.41 333.75,198.45C333.75,198.49 333.75,198.53 333.75,198.57C333.75,198.61 333.74,198.65 333.73,198.69C333.72,198.73 333.71,198.77 333.68,198.81C333.65,198.85 333.6,198.9 333.54,198.93C333.45,198.98 333.31,199.02 333.15,199.05C332.91,199.1 332.58,199.14 332.21,199.17C331.67,199.22 330.97,199.25 330.2,199.29C329.14,199.34 327.85,199.37 326.44,199.41C324.64,199.46 322.51,199.49 320.28,199.53C317.62,199.57 314.59,199.61 311.54,199.65C308.19,199.69 304.49,199.74 300.98,199.78C297.48,199.82 293.73,199.86 290.49,199.9C287.69,199.94 284.63,199.96 282.65,200.02C281.44,200.05 279.73,200.1 279.73,200.14C279.73,200.18 281.44,200.23 282.65,200.26C284.63,200.32 287.69,200.34 290.49,200.38C293.73,200.42 297.48,200.46 300.98,200.5C304.49,200.54 308.19,200.58 311.54,200.62C314.59,200.66 317.62,200.7 320.28,200.74Q322.51,200.78 326.44,200.86Z" style="vector-effect: non-scaling-stroke; stroke-width: 2px; stroke: rgb(239, 85, 59); stroke-opacity: 1; fill: rgb(239, 85, 59); fill-opacity: 0.5;"/><g class="points"><path class="point" transform="translate(261.13,200.14)" d="M3,0A3,3 0 1,1 0,-3A3,3 0 0,1 3,0Z" style="opacity: 1; stroke-width: 0px; fill: rgb(239, 85, 59); fill-opacity: 1;"/><path class="point" transform="translate(242.39,200.14)" d="M3,0A3,3 0 1,1 0,-3A3,3 0 0,1 3,0Z" style="opacity: 1; stroke-width: 0px; fill: rgb(239, 85, 59); fill-opacity: 1;"/><path class="point" transform="translate(265.28,200.14)" d="M3,0A3,3 0 1,1 0,-3A3,3 0 0,1 3,0Z" style="opacity: 1; stroke-width: 0px; fill: rgb(239, 85, 59); fill-opacity: 1;"/><path class="point" transform="translate(239.01,200.14)" d="M3,0A3,3 0 1,1 0,-3A3,3 0 0,1 3,0Z" style="opacity: 1; stroke-width: 0px; fill: rgb(239, 85, 59); fill-opacity: 1;"/><path class="point" transform="translate(248.72,200.14)" d="M3,0A3,3 0 1,1 0,-3A3,3 0 0,1 3,0Z" style="opacity: 1; stroke-width: 0px; fill: rgb(239, 85, 59); fill-opacity: 1;"/><path class="point" transform="translate(261.22,200.14)" d="M3,0A3,3 0 1,1 0,-3A3,3 0 0,1 3,0Z" style="opacity: 1; stroke-width: 0px; fill: rgb(239, 85, 59); fill-opacity: 1;"/><path class="point" transform="translate(252.11,200.14)" d="M3,0A3,3 0 1,1 0,-3A3,3 0 0,1 3,0Z" style="opacity: 1; stroke-width: 0px; fill: rgb(239, 85, 59); fill-opacity: 1;"/><path class="point" transform="translate(257.41,200.14)" d="M3,0A3,3 0 1,1 0,-3A3,3 0 0,1 3,0Z" style="opacity: 1; stroke-width: 0px; fill: rgb(239, 85, 59); fill-opacity: 1;"/><path class="point" transform="translate(247.55,200.14)" d="M3,0A3,3 0 1,1 0,-3A3,3 0 0,1 3,0Z" style="opacity: 1; stroke-width: 0px; fill: rgb(239, 85, 59); fill-opacity: 1;"/><path class="point" transform="translate(240.84,200.14)" d="M3,0A3,3 0 1,1 0,-3A3,3 0 0,1 3,0Z" style="opacity: 1; stroke-width: 0px; fill: rgb(239, 85, 59); fill-opacity: 1;"/><path class="point" transform="translate(257.05,200.14)" d="M3,0A3,3 0 1,1 0,-3A3,3 0 0,1 3,0Z" style="opacity: 1; stroke-width: 0px; fill: rgb(239, 85, 59); fill-opacity: 1;"/><path class="point" transform="translate(247.38,200.14)" d="M3,0A3,3 0 1,1 0,-3A3,3 0 0,1 3,0Z" style="opacity: 1; stroke-width: 0px; fill: rgb(239, 85, 59); fill-opacity: 1;"/><path class="point" transform="translate(262.99,200.14)" d="M3,0A3,3 0 1,1 0,-3A3,3 0 0,1 3,0Z" style="opacity: 1; stroke-width: 0px; fill: rgb(239, 85, 59); fill-opacity: 1;"/><path class="point" transform="translate(236.94,200.14)" d="M3,0A3,3 0 1,1 0,-3A3,3 0 0,1 3,0Z" style="opacity: 1; stroke-width: 0px; fill: rgb(239, 85, 59); fill-opacity: 1;"/><path class="point" transform="translate(251.78,200.14)" d="M3,0A3,3 0 1,1 0,-3A3,3 0 0,1 3,0Z" style="opacity: 1; stroke-width: 0px; fill: rgb(239, 85, 59); fill-opacity: 1;"/><path class="point" transform="translate(254.08,200.14)" d="M3,0A3,3 0 1,1 0,-3A3,3 0 0,1 3,0Z" style="opacity: 1; stroke-width: 0px; fill: rgb(239, 85, 59); fill-opacity: 1;"/><path class="point" transform="translate(252.35,200.14)" d="M3,0A3,3 0 1,1 0,-3A3,3 0 0,1 3,0Z" style="opacity: 1; stroke-width: 0px; fill: rgb(239, 85, 59); fill-opacity: 1;"/><path class="point" transform="translate(251.55,200.14)" d="M3,0A3,3 0 1,1 0,-3A3,3 0 0,1 3,0Z" style="opacity: 1; stroke-width: 0px; fill: rgb(239, 85, 59); fill-opacity: 1;"/><path class="point" transform="translate(252.3,200.14)" d="M3,0A3,3 0 1,1 0,-3A3,3 0 0,1 3,0Z" style="opacity: 1; stroke-width: 0px; fill: rgb(239, 85, 59); fill-opacity: 1;"/><path class="point" transform="translate(252.69,163.85)" d="M3,0A3,3 0 1,1 0,-3A3,3 0 0,1 3,0Z" style="opacity: 1; stroke-width: 0px; fill: rgb(239, 85, 59); fill-opacity: 1;"/></g></g></g></g><g class="overplot"/><path class="xlines-above crisp" d="M0,0" style="fill: none;"/><path class="ylines-above crisp" d="M0,0" style="fill: none;"/><g class="overlines-above"/><g class="xaxislayer-above"><g class="xtick"><text text-anchor="middle" x="0" y="433" transform="translate(193.25,0)" style="font-family: 'Open Sans', verdana, arial, sans-serif; font-size: 12px; fill: rgb(42, 63, 95); fill-opacity: 1; white-space: pre; opacity: 1;">eff_cnn</text></g><g class="xtick"><text text-anchor="middle" x="0" y="433" transform="translate(413.75,0)" style="font-family: 'Open Sans', verdana, arial, sans-serif; font-size: 12px; fill: rgb(42, 63, 95); fill-opacity: 1; white-space: pre; opacity: 1;">simplified_eff_cnn</text></g></g><g class="yaxislayer-above"><g class="ytick"><text text-anchor="end" x="79" y="4.199999999999999" transform="translate(0,408.99)" style="font-family: 'Open Sans', verdana, arial, sans-serif; font-size: 12px; fill: rgb(42, 63, 95); fill-opacity: 1; white-space: pre; opacity: 1;">4</text></g><g class="ytick"><text text-anchor="end" x="79" y="4.199999999999999" style="font-family: 'Open Sans', verdana, arial, sans-serif; font-size: 12px; fill: rgb(42, 63, 95); fill-opacity: 1; white-space: pre; opacity: 1;" transform="translate(0,372.71)">5</text></g><g class="ytick"><text text-anchor="end" x="79" y="4.199999999999999" style="font-family: 'Open Sans', verdana, arial, sans-serif; font-size: 12px; fill: rgb(42, 63, 95); fill-opacity: 1; white-space: pre; opacity: 1;" transform="translate(0,336.41999999999996)">6</text></g><g class="ytick"><text text-anchor="end" x="79" y="4.199999999999999" style="font-family: 'Open Sans', verdana, arial, sans-serif; font-size: 12px; fill: rgb(42, 63, 95); fill-opacity: 1; white-space: pre; opacity: 1;" transform="translate(0,300.14)">7</text></g><g class="ytick"><text text-anchor="end" x="79" y="4.199999999999999" style="font-family: 'Open Sans', verdana, arial, sans-serif; font-size: 12px; fill: rgb(42, 63, 95); fill-opacity: 1; white-space: pre; opacity: 1;" transform="translate(0,263.85)">8</text></g><g class="ytick"><text text-anchor="end" x="79" y="4.199999999999999" style="font-family: 'Open Sans', verdana, arial, sans-serif; font-size: 12px; fill: rgb(42, 63, 95); fill-opacity: 1; white-space: pre; opacity: 1;" transform="translate(0,227.57)">9</text></g><g class="ytick"><text text-anchor="end" x="79" y="4.199999999999999" style="font-family: 'Open Sans', verdana, arial, sans-serif; font-size: 12px; fill: rgb(42, 63, 95); fill-opacity: 1; white-space: pre; opacity: 1;" transform="translate(0,191.28)">10</text></g><g class="ytick"><text text-anchor="end" x="79" y="4.199999999999999" style="font-family: 'Open Sans', verdana, arial, sans-serif; font-size: 12px; fill: rgb(42, 63, 95); fill-opacity: 1; white-space: pre; opacity: 1;" transform="translate(0,155)">11</text></g><g class="ytick"><text text-anchor="end" x="79" y="4.199999999999999" style="font-family: 'Open Sans', verdana, arial, sans-serif; font-size: 12px; fill: rgb(42, 63, 95); fill-opacity: 1; white-space: pre; opacity: 1;" transform="translate(0,118.72)">12</text></g></g><g class="overaxes-above"/></g></g><g class="polarlayer"/><g class="ternarylayer"/><g class="geolayer"/><g class="funnelarealayer"/><g class="pielayer"/><g class="iciclelayer"/><g class="treemaplayer"/><g class="sunburstlayer"/><g class="glimages"/><defs id="topdefs-8ddd90"><g class="clips"/><clipPath id="legend8ddd90"><rect width="155" height="67" x="0" y="0"/></clipPath></defs><g class="layer-above"><g class="imagelayer"/><g class="shapelayer"/></g><g class="infolayer"><g class="legend" pointer-events="all" transform="translate(532.88,100)"><rect class="bg" shape-rendering="crispEdges" width="155" height="67" x="0" y="0" style="stroke: rgb(68, 68, 68); stroke-opacity: 1; fill: rgb(255, 255, 255); fill-opacity: 1; stroke-width: 0px;"/><g class="scrollbox" transform="" clip-path="url(#legend8ddd90)"><text class="legendtitletext" text-anchor="start" x="2" y="18.2" style="font-family: 'Open Sans', verdana, arial, sans-serif; font-size: 14px; fill: rgb(42, 63, 95); fill-opacity: 1; white-space: pre;">model</text><g class="groups" transform=""><g class="traces" transform="translate(0,32.7)" style="opacity: 1;"><text class="legendtext" text-anchor="start" x="40" y="4.680000000000001" style="font-family: 'Open Sans', verdana, arial, sans-serif; font-size: 12px; fill: rgb(42, 63, 95); fill-opacity: 1; white-space: pre;">eff_cnn</text><g class="layers" style="opacity: 1;"><g class="legendfill"/><g class="legendlines"/><g class="legendsymbols"><g class="legendpoints"><path class="legendbox" d="M6,6H-6V-6H6Z" transform="translate(20,0)" style="stroke-width: 2px; fill: rgb(99, 110, 250); fill-opacity: 0.5; stroke: rgb(99, 110, 250); stroke-opacity: 1;"/></g></g></g><rect class="legendtoggle" x="0" y="-9.5" width="149.703125" height="19" style="fill: rgb(0, 0, 0); fill-opacity: 0;"/></g></g><g class="groups" transform=""><g class="traces" transform="translate(0,51.7)" style="opacity: 1;"><text class="legendtext" text-anchor="start" x="40" y="4.680000000000001" style="font-family: 'Open Sans', verdana, arial, sans-serif; font-size: 12px; fill: rgb(42, 63, 95); fill-opacity: 1; white-space: pre;">simplified_eff_cnn</text><g class="layers" style="opacity: 1;"><g class="legendfill"/><g class="legendlines"/><g class="legendsymbols"><g class="legendpoints"><path class="legendbox" d="M6,6H-6V-6H6Z" transform="translate(20,0)" style="stroke-width: 2px; fill: rgb(239, 85, 59); fill-opacity: 0.5; stroke: rgb(239, 85, 59); stroke-opacity: 1;"/></g></g></g><rect class="legendtoggle" x="0" y="-9.5" width="149.703125" height="19" style="fill: rgb(0, 0, 0); fill-opacity: 0;"/></g></g></g><rect class="scrollbar" rx="20" ry="3" width="0" height="0" x="0" y="0" style="fill: rgb(128, 139, 164); fill-opacity: 1;"/></g><g class="g-gtitle"><text class="gtitle" x="35" y="50" text-anchor="start" dy="0em" style="font-family: 'Open Sans', verdana, arial, sans-serif; font-size: 17px; fill: rgb(42, 63, 95); opacity: 1; font-weight: normal; white-space: pre;">Distribution of min traces needed for average rank to be zero</text></g><g class="g-xtitle"><text class="xtitle" x="302" y="460.8" text-anchor="middle" style="font-family: 'Open Sans', verdana, arial, sans-serif; font-size: 14px; fill: rgb(42, 63, 95); opacity: 1; font-weight: normal; white-space: pre;">model</text></g><g class="g-ytitle"><text class="ytitle" transform="rotate(-90,38.934375,260)" x="38.934375" y="260" text-anchor="middle" style="font-family: 'Open Sans', verdana, arial, sans-serif; font-size: 14px; fill: rgb(42, 63, 95); opacity: 1; font-weight: normal; white-space: pre;">min traces needed for average rank to be zero</text></g><g class="annotation" data-index="0" style="opacity: 1;"><g class="annotation-text-g" transform="rotate(0,183.25,125)"><g class="cursor-pointer" transform="translate(147,100)"><rect class="bg" x="0.5" y="0.5" width="72" height="49" style="stroke-width: 1px; stroke: rgb(0, 128, 0); stroke-opacity: 1; fill: rgb(0, 0, 0); fill-opacity: 0;"/><text class="annotation-text" text-anchor="middle" x="36.640625" y="14" style="font-family: 'Open Sans', verdana, arial, sans-serif; font-size: 12px; fill: rgb(42, 63, 95); fill-opacity: 1; white-space: pre;"><tspan class="line" dy="0em" x="36.640625" y="14"> All passed </tspan><tspan class="line" dy="1.3em" x="36.640625" y="14">min: 5</tspan><tspan class="line" dy="2.6em" x="36.640625" y="14">max: 9</tspan></text></g></g><g class="annotation-arrow-g" style="opacity: 1;"><path d="M191.41666666666666,149.5L193.25,155" style="stroke-width: 1px; stroke: rgb(42, 63, 95); stroke-opacity: 1; stroke-dasharray: 0px, 0px, 5.79751px, 5.79751px;"/></g></g><g class="annotation" data-index="1" style="opacity: 1;"><g class="annotation-text-g" transform="rotate(0,403.75,125)"><g class="cursor-pointer" transform="translate(367,100)"><rect class="bg" x="0.5" y="0.5" width="72" height="49" style="stroke-width: 1px; stroke: rgb(0, 128, 0); stroke-opacity: 1; fill: rgb(0, 0, 0); fill-opacity: 0;"/><text class="annotation-text" text-anchor="middle" x="36.640625" y="14" style="font-family: 'Open Sans', verdana, arial, sans-serif; font-size: 12px; fill: rgb(42, 63, 95); fill-opacity: 1; white-space: pre;"><tspan class="line" dy="0em" x="36.640625" y="14"> All passed </tspan><tspan class="line" dy="1.3em" x="36.640625" y="14">min: 7</tspan><tspan class="line" dy="2.6em" x="36.640625" y="14">max: 8</tspan></text></g></g><g class="annotation-arrow-g" style="opacity: 1;"><path d="M411.9166666666667,149.5L413.75,155" style="stroke-width: 1px; stroke: rgb(42, 63, 95); stroke-opacity: 1; stroke-dasharray: 0px, 0px, 5.79751px, 5.79751px;"/></g></g></g></svg>