<svg class="main-svg" xmlns="http://www.w3.org/2000/svg" xmlns:xlink="http://www.w3.org/1999/xlink" width="700" height="500" style="" viewBox="0 0 700 500"><rect x="0" y="0" width="700" height="500" style="fill: rgb(255, 255, 255); fill-opacity: 1;"/><defs id="defs-1337cd"><g class="clips"><clipPath id="clip1337cdxyplot" class="plotclip"><rect width="540" height="320"/></clipPath><clipPath class="axesclip" id="clip1337cdx"><rect x="80" y="0" width="540" height="500"/></clipPath><clipPath class="axesclip" id="clip1337cdy"><rect x="0" y="100" width="700" height="320"/></clipPath><clipPath class="axesclip" id="clip1337cdxy"><rect x="80" y="100" width="540" height="320"/></clipPath></g><g class="gradients"/><g class="patterns"/></defs><g class="bglayer"><rect class="bg" x="80" y="100" width="540" height="320" style="fill: rgb(229, 236, 246); fill-opacity: 1; stroke-width: 0;"/></g><g class="layer-below"><g class="imagelayer"/><g class="shapelayer"/></g><g class="cartesianlayer"><g class="subplot xy"><g class="layer-subplot"><g class="shapelayer"/><g class="imagelayer"/></g><g class="gridlayer"><g class="x"><path class="xgrid crisp" transform="translate(215.68,0)" d="M0,100v320" style="stroke: rgb(255, 255, 255); stroke-opacity: 1; stroke-width: 1px;"/><path class="xgrid crisp" transform="translate(351.36,0)" d="M0,100v320" style="stroke: rgb(255, 255, 255); stroke-opacity: 1; stroke-width: 1px;"/><path class="xgrid crisp" transform="translate(487.04,0)" d="M0,100v320" style="stroke: rgb(255, 255, 255); stroke-opacity: 1; stroke-width: 1px;"/></g><g class="y"><path class="ygrid crisp" transform="translate(0,380.64)" d="M80,0h540" style="stroke: rgb(255, 255, 255); stroke-opacity: 1; stroke-width: 1px;"/><path class="ygrid crisp" transform="translate(0,336.43)" d="M80,0h540" style="stroke: rgb(255, 255, 255); stroke-opacity: 1; stroke-width: 1px;"/><path class="ygrid crisp" transform="translate(0,292.21000000000004)" d="M80,0h540" style="stroke: rgb(255, 255, 255); stroke-opacity: 1; stroke-width: 1px;"/><path class="ygrid crisp" transform="translate(0,247.99)" d="M80,0h540" style="stroke: rgb(255, 255, 255); stroke-opacity: 1; stroke-width: 1px;"/><path class="ygrid crisp" transform="translate(0,203.78)" d="M80,0h540" style="stroke: rgb(255, 255, 255); stroke-opacity: 1; stroke-width: 1px;"/><path class="ygrid crisp" transform="translate(0,159.56)" d="M80,0h540" style="stroke: rgb(255, 255, 255); stroke-opacity: 1; stroke-width: 1px;"/><path class="ygrid crisp" transform="translate(0,115.34)" d="M80,0h540" style="stroke: rgb(255, 255, 255); stroke-opacity: 1; stroke-width: 1px;"/></g></g><g class="zerolinelayer"><path class="xzl zl crisp" transform="translate(80,0)" d="M0,100v320" style="stroke: rgb(255, 255, 255); stroke-opacity: 1; stroke-width: 2px;"/></g><path class="xlines-below"/><path class="ylines-below"/><g class="overlines-below"/><g class="xaxislayer-below"/><g class="yaxislayer-below"/><g class="overaxes-below"/><g class="plot" transform="translate(80,100)" clip-path="url(#clip1337cdxyplot)"><g class="scatterlayer mlayer"><g class="trace scatter trace1ba813" style="stroke-miterlimit: 2; opacity: 1;"><g class="fills"/><g class="errorbars"/><g class="lines"><path class="js-line" d="M0,202.07L2.71,203.64L5.43,204.33L21.71,206.41L24.42,206.7L84.12,213.59L86.83,213.94L138.39,221.66L141.11,222.1L189.95,231.08L192.66,231.63L230.65,239.93L233.37,240.56L279.5,252.52L282.21,253.26L398.89,285.33L401.61,285.97L434.17,293.77L436.88,294.38L526.43,313.77L529.15,314.35L540,316.57" style="vector-effect: non-scaling-stroke; fill: none; stroke: rgb(99, 110, 250); stroke-opacity: 1; stroke-width: 2px; opacity: 1;"/></g><g class="points"/><g class="text"/></g><g class="trace scatter trace3b0906" style="stroke-miterlimit: 2; opacity: 1;"><g class="fills"/><g class="errorbars"/><g class="lines"><path class="js-line" d="M0,201.93L2.71,203.49L5.43,204.16L21.71,206.3L24.42,206.6L78.69,213.11L81.41,213.46L132.96,221.36L135.68,221.83L187.24,231.72L189.95,232.3L238.79,243.43L241.51,244.11L298.49,258.5L301.21,259.24L390.75,282.59L393.47,283.27L439.6,294.44L442.31,295.06L540,316.64" style="vector-effect: non-scaling-stroke; fill: none; stroke: rgb(239, 85, 59); stroke-opacity: 1; stroke-width: 2px; opacity: 1;"/></g><g class="points"/><g class="text"/></g><g class="trace scatter tracefba71d" style="stroke-miterlimit: 2; opacity: 1;"><g class="fills"/><g class="errorbars"/><g class="lines"><path class="js-line" d="M0,202.07L2.71,203.64L5.43,204.33L21.71,206.41L24.42,206.7L84.12,213.59L86.83,213.94L138.39,221.66L141.11,222.1L189.95,231.08L192.66,231.63L230.65,239.93L233.37,240.56L279.5,252.52L282.21,253.26L398.89,285.33L401.61,285.97L434.17,293.77L436.88,294.38L526.43,313.77L529.15,314.35L540,316.57" style="vector-effect: non-scaling-stroke; fill: none; stroke: rgb(0, 204, 150); stroke-opacity: 1; stroke-width: 2px; opacity: 1;"/></g><g class="points"/><g class="text"/></g><g class="trace scatter trace3f067f" style="stroke-miterlimit: 2; opacity: 1;"><g class="fills"/><g class="errorbars"/><g class="lines"><path class="js-line" d="M0,201.45L2.71,203.45L5.43,204.25L18.99,206.19L21.71,206.49L89.55,214.94L92.26,215.33L132.96,221.86L135.68,222.35L176.38,230.11L179.1,230.66L225.23,241.11L227.94,241.81L271.36,253.69L274.07,254.5L317.49,267.13L320.2,267.91L374.47,282.62L377.19,283.32L426.03,295.18L428.74,295.79L518.29,315.5L521.01,316.02L540,320" style="vector-effect: non-scaling-stroke; fill: none; stroke: rgb(171, 99, 250); stroke-opacity: 1; stroke-width: 2px; opacity: 1;"/></g><g class="points"/><g class="text"/></g><g class="trace scatter traceb1e4ff" style="stroke-miterlimit: 2; opacity: 1;"><g class="fills"/><g class="errorbars"/><g class="lines"><path class="js-line" d="M0,201.93L2.71,203.49L5.43,204.16L21.71,206.3L24.42,206.6L78.69,213.11L81.41,213.46L132.96,221.36L135.68,221.83L187.24,231.72L189.95,232.3L238.79,243.43L241.51,244.11L298.49,258.5L301.21,259.24L390.75,282.59L393.47,283.27L439.6,294.44L442.31,295.06L540,316.64" style="vector-effect: non-scaling-stroke; fill: none; stroke: rgb(255, 161, 90); stroke-opacity: 1; stroke-width: 2px; opacity: 1;"/></g><g class="points"/><g class="text"/></g><g class="trace scatter traceb0414e" style="stroke-miterlimit: 2; opacity: 1;"><g class="fills"/><g class="errorbars"/><g class="lines"><path class="js-line" d="M0,202.07L2.71,203.64L5.43,204.33L21.71,206.41L24.42,206.7L84.12,213.59L86.83,213.94L138.39,221.66L141.11,222.1L189.95,231.08L192.66,231.63L230.65,239.93L233.37,240.56L279.5,252.52L282.21,253.26L398.89,285.33L401.61,285.97L434.17,293.77L436.88,294.38L526.43,313.77L529.15,314.35L540,316.57" style="vector-effect: non-scaling-stroke; fill: none; stroke: rgb(25, 211, 243); stroke-opacity: 1; stroke-width: 2px; opacity: 1;"/></g><g class="points"/><g class="text"/></g><g class="trace scatter tracee7e4df" style="stroke-miterlimit: 2; opacity: 1;"><g class="fills"/><g class="errorbars"/><g class="lines"><path class="js-line" d="M0,201.45L2.71,203.45L5.43,204.25L18.99,206.19L21.71,206.49L89.55,214.94L92.26,215.33L132.96,221.86L135.68,222.35L176.38,230.11L179.1,230.66L225.23,241.11L227.94,241.81L271.36,253.69L274.07,254.5L317.49,267.13L320.2,267.91L374.47,282.62L377.19,283.32L426.03,295.18L428.74,295.79L518.29,315.5L521.01,316.02L540,320" style="vector-effect: non-scaling-stroke; fill: none; stroke: rgb(255, 102, 146); stroke-opacity: 1; stroke-width: 2px; opacity: 1;"/></g><g class="points"/><g class="text"/></g><g class="trace scatter trace94d911" style="stroke-miterlimit: 2; opacity: 1;"><g class="fills"/><g class="errorbars"/><g class="lines"><path class="js-line" d="M0,201.45L2.71,203.45L5.43,204.25L18.99,206.19L21.71,206.49L89.55,214.94L92.26,215.33L132.96,221.86L135.68,222.35L176.38,230.11L179.1,230.66L225.23,241.11L227.94,241.81L271.36,253.69L274.07,254.5L317.49,267.13L320.2,267.91L374.47,282.62L377.19,283.32L426.03,295.18L428.74,295.79L518.29,315.5L521.01,316.02L540,320" style="vector-effect: non-scaling-stroke; fill: none; stroke: rgb(182, 232, 128); stroke-opacity: 1; stroke-width: 2px; opacity: 1;"/></g><g class="points"/><g class="text"/></g><g class="trace scatter trace195a13" style="stroke-miterlimit: 2; opacity: 1;"><g class="fills"/><g class="errorbars"/><g class="lines"><path class="js-line" d="M0,201.45L2.71,203.45L5.43,204.25L18.99,206.19L21.71,206.49L89.55,214.94L92.26,215.33L132.96,221.86L135.68,222.35L176.38,230.11L179.1,230.66L225.23,241.11L227.94,241.81L271.36,253.69L274.07,254.5L317.49,267.13L320.2,267.91L374.47,282.62L377.19,283.32L426.03,295.18L428.74,295.79L518.29,315.5L521.01,316.02L540,320" style="vector-effect: non-scaling-stroke; fill: none; stroke: rgb(255, 151, 255); stroke-opacity: 1; stroke-width: 2px; opacity: 1;"/></g><g class="points"/><g class="text"/></g><g class="trace scatter trace2e12f4" style="stroke-miterlimit: 2; opacity: 1;"><g class="fills"/><g class="errorbars"/><g class="lines"><path class="js-line" d="M0,201.45L2.71,203.45L5.43,204.25L18.99,206.19L21.71,206.49L89.55,214.94L92.26,215.33L132.96,221.86L135.68,222.35L176.38,230.11L179.1,230.66L225.23,241.11L227.94,241.81L271.36,253.69L274.07,254.5L317.49,267.13L320.2,267.91L374.47,282.62L377.19,283.32L426.03,295.18L428.74,295.79L518.29,315.5L521.01,316.02L540,320" style="vector-effect: non-scaling-stroke; fill: none; stroke: rgb(254, 203, 82); stroke-opacity: 1; stroke-width: 2px; opacity: 1;"/></g><g class="points"/><g class="text"/></g><g class="trace scatter trace4195d5" style="stroke-miterlimit: 2; opacity: 1;"><g class="fills"/><g class="errorbars"/><g class="lines"><path class="js-line" d="M0,201.45L2.71,203.45L5.43,204.25L18.99,206.19L21.71,206.49L89.55,214.94L92.26,215.33L132.96,221.86L135.68,222.35L176.38,230.11L179.1,230.66L225.23,241.11L227.94,241.81L271.36,253.69L274.07,254.5L317.49,267.13L320.2,267.91L374.47,282.62L377.19,283.32L426.03,295.18L428.74,295.79L518.29,315.5L521.01,316.02L540,320" style="vector-effect: non-scaling-stroke; fill: none; stroke: rgb(99, 110, 250); stroke-opacity: 1; stroke-width: 2px; opacity: 1;"/></g><g class="points"/><g class="text"/></g><g class="trace scatter tracebfe4a0" style="stroke-miterlimit: 2; opacity: 1;"><g class="fills"/><g class="errorbars"/><g class="lines"><path class="js-line" d="M0,201.45L2.71,203.45L5.43,204.25L18.99,206.19L21.71,206.49L89.55,214.94L92.26,215.33L132.96,221.86L135.68,222.35L176.38,230.11L179.1,230.66L225.23,241.11L227.94,241.81L271.36,253.69L274.07,254.5L317.49,267.13L320.2,267.91L374.47,282.62L377.19,283.32L426.03,295.18L428.74,295.79L518.29,315.5L521.01,316.02L540,320" style="vector-effect: non-scaling-stroke; fill: none; stroke: rgb(239, 85, 59); stroke-opacity: 1; stroke-width: 2px; opacity: 1;"/></g><g class="points"/><g class="text"/></g><g class="trace scatter trace1cf936" style="stroke-miterlimit: 2; opacity: 1;"><g class="fills"/><g class="errorbars"/><g class="lines"><path class="js-line" d="M0,201.45L2.71,203.45L5.43,204.25L18.99,206.19L21.71,206.49L89.55,214.94L92.26,215.33L132.96,221.86L135.68,222.35L176.38,230.11L179.1,230.66L225.23,241.11L227.94,241.81L271.36,253.69L274.07,254.5L317.49,267.13L320.2,267.91L374.47,282.62L377.19,283.32L426.03,295.18L428.74,295.79L518.29,315.5L521.01,316.02L540,320" style="vector-effect: non-scaling-stroke; fill: none; stroke: rgb(0, 204, 150); stroke-opacity: 1; stroke-width: 2px; opacity: 1;"/></g><g class="points"/><g class="text"/></g><g class="trace scatter trace4ed057" style="stroke-miterlimit: 2; opacity: 1;"><g class="fills"/><g class="errorbars"/><g class="lines"><path class="js-line" d="M0,201.45L2.71,203.45L5.43,204.25L18.99,206.19L21.71,206.49L89.55,214.94L92.26,215.33L132.96,221.86L135.68,222.35L176.38,230.11L179.1,230.66L225.23,241.11L227.94,241.81L271.36,253.69L274.07,254.5L317.49,267.13L320.2,267.91L374.47,282.62L377.19,283.32L426.03,295.18L428.74,295.79L518.29,315.5L521.01,316.02L540,320" style="vector-effect: non-scaling-stroke; fill: none; stroke: rgb(171, 99, 250); stroke-opacity: 1; stroke-width: 2px; opacity: 1;"/></g><g class="points"/><g class="text"/></g><g class="trace scatter tracebcc9aa" style="stroke-miterlimit: 2; opacity: 1;"><g class="fills"/><g class="errorbars"/><g class="lines"><path class="js-line" d="M0,201.45L2.71,203.45L5.43,204.25L18.99,206.19L21.71,206.49L89.55,214.94L92.26,215.33L132.96,221.86L135.68,222.35L176.38,230.11L179.1,230.66L225.23,241.11L227.94,241.81L271.36,253.69L274.07,254.5L317.49,267.13L320.2,267.91L374.47,282.62L377.19,283.32L426.03,295.18L428.74,295.79L518.29,315.5L521.01,316.02L540,320" style="vector-effect: non-scaling-stroke; fill: none; stroke: rgb(255, 161, 90); stroke-opacity: 1; stroke-width: 2px; opacity: 1;"/></g><g class="points"/><g class="text"/></g><g class="trace scatter tracea48bc3" style="stroke-miterlimit: 2; opacity: 1;"><g class="fills"/><g class="errorbars"/><g class="lines"><path class="js-line" d="M0,201.45L2.71,203.45L5.43,204.25L18.99,206.19L21.71,206.49L89.55,214.94L92.26,215.33L132.96,221.86L135.68,222.35L176.38,230.11L179.1,230.66L225.23,241.11L227.94,241.81L271.36,253.69L274.07,254.5L317.49,267.13L320.2,267.91L374.47,282.62L377.19,283.32L426.03,295.18L428.74,295.79L518.29,315.5L521.01,316.02L540,320" style="vector-effect: non-scaling-stroke; fill: none; stroke: rgb(25, 211, 243); stroke-opacity: 1; stroke-width: 2px; opacity: 1;"/></g><g class="points"/><g class="text"/></g><g class="trace scatter trace277d1c" style="stroke-miterlimit: 2; opacity: 1;"><g class="fills"/><g class="errorbars"/><g class="lines"><path class="js-line" d="M0,201.45L2.71,203.45L5.43,204.25L18.99,206.19L21.71,206.49L89.55,214.94L92.26,215.33L132.96,221.86L135.68,222.35L176.38,230.11L179.1,230.66L225.23,241.11L227.94,241.81L271.36,253.69L274.07,254.5L317.49,267.13L320.2,267.91L374.47,282.62L377.19,283.32L426.03,295.18L428.74,295.79L518.29,315.5L521.01,316.02L540,320" style="vector-effect: non-scaling-stroke; fill: none; stroke: rgb(255, 102, 146); stroke-opacity: 1; stroke-width: 2px; opacity: 1;"/></g><g class="points"/><g class="text"/></g><g class="trace scatter trace0fcd18" style="stroke-miterlimit: 2; opacity: 1;"><g class="fills"/><g class="errorbars"/><g class="lines"><path class="js-line" d="M0,201.45L2.71,203.45L5.43,204.25L18.99,206.19L21.71,206.49L89.55,214.94L92.26,215.33L132.96,221.86L135.68,222.35L176.38,230.11L179.1,230.66L225.23,241.11L227.94,241.81L271.36,253.69L274.07,254.5L317.49,267.13L320.2,267.91L374.47,282.62L377.19,283.32L426.03,295.18L428.74,295.79L518.29,315.5L521.01,316.02L540,320" style="vector-effect: non-scaling-stroke; fill: none; stroke: rgb(182, 232, 128); stroke-opacity: 1; stroke-width: 2px; opacity: 1;"/></g><g class="points"/><g class="text"/></g><g class="trace scatter trace9fea68" style="stroke-miterlimit: 2; opacity: 1;"><g class="fills"/><g class="errorbars"/><g class="lines"><path class="js-line" d="M0,201.45L2.71,203.45L5.43,204.25L18.99,206.19L21.71,206.49L89.55,214.94L92.26,215.33L132.96,221.86L135.68,222.35L176.38,230.11L179.1,230.66L225.23,241.11L227.94,241.81L271.36,253.69L274.07,254.5L317.49,267.13L320.2,267.91L374.47,282.62L377.19,283.32L426.03,295.18L428.74,295.79L518.29,315.5L521.01,316.02L540,320" style="vector-effect: non-scaling-stroke; fill: none; stroke: rgb(255, 151, 255); stroke-opacity: 1; stroke-width: 2px; opacity: 1;"/></g><g class="points"/><g class="text"/></g><g class="trace scatter trace78e6f4" style="stroke-miterlimit: 2; opacity: 1;"><g class="fills"/><g class="errorbars"/><g class="lines"><path class="js-line" d="M0,201.45L2.71,203.45L5.43,204.25L18.99,206.19L21.71,206.49L89.55,214.94L92.26,215.33L132.96,221.86L135.68,222.35L176.38,230.11L179.1,230.66L225.23,241.11L227.94,241.81L271.36,253.69L274.07,254.5L317.49,267.13L320.2,267.91L374.47,282.62L377.19,283.32L426.03,295.18L428.74,295.79L518.29,315.5L521.01,316.02L540,320" style="vector-effect: non-scaling-stroke; fill: none; stroke: rgb(254, 203, 82); stroke-opacity: 1; stroke-width: 2px; opacity: 1;"/></g><g class="points"/><g class="text"/></g></g></g><g class="overplot"/><path class="xlines-above crisp" d="M0,0" style="fill: none;"/><path class="ylines-above crisp" d="M0,0" style="fill: none;"/><g class="overlines-above"/><g class="xaxislayer-above"><g class="xtick"><text text-anchor="middle" x="0" y="433" transform="translate(80,0)" style="font-family: 'Open Sans', verdana, arial, sans-serif; font-size: 12px; fill: rgb(42, 63, 95); fill-opacity: 1; white-space: pre; opacity: 1;">0</text></g><g class="xtick"><text text-anchor="middle" x="0" y="433" style="font-family: 'Open Sans', verdana, arial, sans-serif; font-size: 12px; fill: rgb(42, 63, 95); fill-opacity: 1; white-space: pre; opacity: 1;" transform="translate(215.68,0)">50</text></g><g class="xtick"><text text-anchor="middle" x="0" y="433" style="font-family: 'Open Sans', verdana, arial, sans-serif; font-size: 12px; fill: rgb(42, 63, 95); fill-opacity: 1; white-space: pre; opacity: 1;" transform="translate(351.36,0)">100</text></g><g class="xtick"><text text-anchor="middle" x="0" y="433" style="font-family: 'Open Sans', verdana, arial, sans-serif; font-size: 12px; fill: rgb(42, 63, 95); fill-opacity: 1; white-space: pre; opacity: 1;" transform="translate(487.04,0)">150</text></g></g><g class="yaxislayer-above"><g class="ytick"><text text-anchor="end" x="79" y="4.199999999999999" transform="translate(0,380.64)" style="font-family: 'Open Sans', verdana, arial, sans-serif; font-size: 12px; fill: rgb(42, 63, 95); fill-opacity: 1; white-space: pre; opacity: 1;">5.2</text></g><g class="ytick"><text text-anchor="end" x="79" y="4.199999999999999" style="font-family: 'Open Sans', verdana, arial, sans-serif; font-size: 12px; fill: rgb(42, 63, 95); fill-opacity: 1; white-space: pre; opacity: 1;" transform="translate(0,336.43)">5.4</text></g><g class="ytick"><text text-anchor="end" x="79" y="4.199999999999999" style="font-family: 'Open Sans', verdana, arial, sans-serif; font-size: 12px; fill: rgb(42, 63, 95); fill-opacity: 1; white-space: pre; opacity: 1;" transform="translate(0,292.21000000000004)">5.6</text></g><g class="ytick"><text text-anchor="end" x="79" y="4.199999999999999" style="font-family: 'Open Sans', verdana, arial, sans-serif; font-size: 12px; fill: rgb(42, 63, 95); fill-opacity: 1; white-space: pre; opacity: 1;" transform="translate(0,247.99)">5.8</text></g><g class="ytick"><text text-anchor="end" x="79" y="4.199999999999999" style="font-family: 'Open Sans', verdana, arial, sans-serif; font-size: 12px; fill: rgb(42, 63, 95); fill-opacity: 1; white-space: pre; opacity: 1;" transform="translate(0,203.78)">6</text></g><g class="ytick"><text text-anchor="end" x="79" y="4.199999999999999" style="font-family: 'Open Sans', verdana, arial, sans-serif; font-size: 12px; fill: rgb(42, 63, 95); fill-opacity: 1; white-space: pre; opacity: 1;" transform="translate(0,159.56)">6.2</text></g><g class="ytick"><text text-anchor="end" x="79" y="4.199999999999999" style="font-family: 'Open Sans', verdana, arial, sans-serif; font-size: 12px; fill: rgb(42, 63, 95); fill-opacity: 1; white-space: pre; opacity: 1;" transform="translate(0,115.34)">6.4</text></g></g><g class="overaxes-above"/></g></g><g class="polarlayer"/><g class="ternarylayer"/><g class="geolayer"/><g class="funnelarealayer"/><g class="pielayer"/><g class="iciclelayer"/><g class="treemaplayer"/><g class="sunburstlayer"/><g class="glimages"/><defs id="topdefs-1337cd"><g class="clips"/></defs><g class="layer-above"><g class="imagelayer"/><g class="shapelayer"/></g><g class="infolayer"><g class="g-gtitle"><text class="gtitle" x="35" y="50" text-anchor="start" dy="0em" style="font-family: 'Open Sans', verdana, arial, sans-serif; font-size: 17px; fill: rgb(42, 63, 95); opacity: 1; font-weight: normal; white-space: pre;">Train Loss: ascad_0-ascad_mlp_fn (with early stopping)</text></g><g class="g-xtitle"/><g class="g-ytitle"/></g></svg>