<svg class="main-svg" xmlns="http://www.w3.org/2000/svg" xmlns:xlink="http://www.w3.org/1999/xlink" width="700" height="500" style="" viewBox="0 0 700 500"><rect x="0" y="0" width="700" height="500" style="fill: rgb(255, 255, 255); fill-opacity: 1;"/><defs id="defs-fb950d"><g class="clips"><clipPath id="clipfb950dxyplot" class="plotclip"><rect width="540" height="320"/></clipPath><clipPath class="axesclip" id="clipfb950dx"><rect x="80" y="0" width="540" height="500"/></clipPath><clipPath class="axesclip" id="clipfb950dy"><rect x="0" y="100" width="700" height="320"/></clipPath><clipPath class="axesclip" id="clipfb950dxy"><rect x="80" y="100" width="540" height="320"/></clipPath></g><g class="gradients"/><g class="patterns"/></defs><g class="bglayer"><rect class="bg" x="80" y="100" width="540" height="320" style="fill: rgb(229, 236, 246); fill-opacity: 1; stroke-width: 0;"/></g><g class="layer-below"><g class="imagelayer"/><g class="shapelayer"/></g><g class="cartesianlayer"><g class="subplot xy"><g class="layer-subplot"><g class="shapelayer"/><g class="imagelayer"/></g><g class="gridlayer"><g class="x"><path class="xgrid crisp" transform="translate(190.2,0)" d="M0,100v320" style="stroke: rgb(255, 255, 255); stroke-opacity: 1; stroke-width: 1px;"/><path class="xgrid crisp" transform="translate(300.40999999999997,0)" d="M0,100v320" style="stroke: rgb(255, 255, 255); stroke-opacity: 1; stroke-width: 1px;"/><path class="xgrid crisp" transform="translate(410.61,0)" d="M0,100v320" style="stroke: rgb(255, 255, 255); stroke-opacity: 1; stroke-width: 1px;"/><path class="xgrid crisp" transform="translate(520.8199999999999,0)" d="M0,100v320" style="stroke: rgb(255, 255, 255); stroke-opacity: 1; stroke-width: 1px;"/></g><g class="y"><path class="ygrid crisp" transform="translate(0,344.05)" d="M80,0h540" style="stroke: rgb(255, 255, 255); stroke-opacity: 1; stroke-width: 1px;"/><path class="ygrid crisp" transform="translate(0,265.81)" d="M80,0h540" style="stroke: rgb(255, 255, 255); stroke-opacity: 1; stroke-width: 1px;"/><path class="ygrid crisp" transform="translate(0,187.57)" d="M80,0h540" style="stroke: rgb(255, 255, 255); stroke-opacity: 1; stroke-width: 1px;"/><path class="ygrid crisp" transform="translate(0,109.33)" d="M80,0h540" style="stroke: rgb(255, 255, 255); stroke-opacity: 1; stroke-width: 1px;"/></g></g><g class="zerolinelayer"><path class="xzl zl crisp" transform="translate(80,0)" d="M0,100v320" style="stroke: rgb(255, 255, 255); stroke-opacity: 1; stroke-width: 2px;"/></g><path class="xlines-below"/><path class="ylines-below"/><g class="overlines-below"/><g class="xaxislayer-below"/><g class="yaxislayer-below"/><g class="overaxes-below"/><g class="plot" transform="translate(80,100)" clip-path="url(#clipfb950dxyplot)"><g class="scatterlayer mlayer"><g class="trace scatter trace28a5ed" style="stroke-miterlimit: 2; opacity: 1;"><g class="fills"/><g class="errorbars"/><g class="lines"><path class="js-line" d="M0,0L11.02,8.2L22.04,25.29L33.06,55.79L44.08,89.07L55.1,116.89L66.12,139.26L77.14,157.63L88.16,170.94L99.18,183.4L110.2,193.46L121.22,203.11L132.24,209.19L154.29,224.98L165.31,229.66L198.37,247.33L209.39,249.82L220.41,256.03L231.43,259.52L242.45,263.68L253.47,265.77L264.49,267.48L275.51,271.65L286.53,275.7L297.55,276.35L308.57,277.49L319.59,284.1L330.61,286.93L341.63,287.89L352.65,290.58L363.67,292.08L374.69,294.46L385.71,294.21L396.73,297.58L407.76,298.68L418.78,300.07L429.8,303.99L440.82,304.23L451.84,306.93L462.86,306.42L473.88,302.95L484.9,311.98L495.92,311.71L506.94,316.09L517.96,316.46L528.98,318.46L540,315.32" style="vector-effect: non-scaling-stroke; fill: none; stroke: rgb(99, 110, 250); stroke-opacity: 1; stroke-width: 2px; opacity: 1;"/></g><g class="points"/><g class="text"/></g><g class="trace scatter trace543f6b" style="stroke-miterlimit: 2; opacity: 1;"><g class="fills"/><g class="errorbars"/><g class="lines"><path class="js-line" d="M0,0.2L11.02,8.02L22.04,24.95L33.06,54.25L44.08,86.12L55.1,113.92L66.12,136.64L77.14,155.35L88.16,168.3L99.18,181.89L110.2,191.74L121.22,201.35L132.24,207.33L154.29,223.53L165.31,227.85L176.33,232.72L187.35,238.56L198.37,245.02L209.39,248.49L220.41,252.78L231.43,258.09L242.45,261.6L253.47,263.54L275.51,269.44L286.53,273.54L319.59,281.92L330.61,283.3L341.63,286.82L352.65,289.09L363.67,290.14L374.69,292.25L396.73,296.35L407.76,297.74L418.78,301.5L429.8,302.24L440.82,301.83L451.84,306.74L462.86,306.85L473.88,305.81L484.9,312.07L495.92,311.77L506.94,315.28L517.96,316.47L528.98,317.07L540,320" style="vector-effect: non-scaling-stroke; fill: none; stroke: rgb(239, 85, 59); stroke-opacity: 1; stroke-width: 2px; opacity: 1;"/></g><g class="points"/><g class="text"/></g><g class="trace scatter trace8504f8" style="stroke-miterlimit: 2; opacity: 1;"><g class="fills"/><g class="errorbars"/><g class="lines"><path class="js-line" d="M0,0.13L11.02,7.55L22.04,23.84L55.1,106.13L66.12,129.96L77.14,149.83L88.16,164.13L99.18,178.47L110.2,189.35L121.22,198.74L132.24,205.31L154.29,220.27L165.31,224.59L176.33,231.13L187.35,235.46L198.37,240.86L209.39,245.34L242.45,258.38L253.47,260.42L264.49,262.07L275.51,267.24L286.53,271.05L297.55,271.01L308.57,276.19L319.59,278.95L330.61,282.19L341.63,283.8L352.65,286.94L363.67,288.3L396.73,295.09L407.76,296.23L429.8,300.81L440.82,302.02L451.84,301.89L462.86,299.55L473.88,298.34L484.9,308.71L495.92,310.57L506.94,311.48L540,313.76" style="vector-effect: non-scaling-stroke; fill: none; stroke: rgb(0, 204, 150); stroke-opacity: 1; stroke-width: 2px; opacity: 1;"/></g><g class="points"/><g class="text"/></g><g class="trace scatter traceef1c4d" style="stroke-miterlimit: 2; opacity: 1;"><g class="fills"/><g class="errorbars"/><g class="lines"><path class="js-line" d="M0,0.21L11.02,7.77L22.04,24.58L33.06,54.07L44.08,86.55L55.1,114.53L66.12,137.17L77.14,155.84L88.16,168.67L99.18,182.19L110.2,192.19L121.22,201.63L132.24,207.6L143.27,216.38L154.29,224.02L165.31,227.72L176.33,232.84L187.35,239.6L198.37,245.18L209.39,248.89L220.41,254.68L242.45,262.44L253.47,264.22L275.51,271L286.53,275.29L297.55,274.46L308.57,278.31L319.59,281.43L330.61,285.61L352.65,290.66L363.67,291.57L374.69,294.16L385.71,292.93L396.73,297.17L407.76,300.15L429.8,304.26L440.82,305.31L462.86,309.07L473.88,308.18L484.9,311.62L495.92,311.62L517.96,316.89L528.98,317.39L540,315.59" style="vector-effect: non-scaling-stroke; fill: none; stroke: rgb(171, 99, 250); stroke-opacity: 1; stroke-width: 2px; opacity: 1;"/></g><g class="points"/><g class="text"/></g><g class="trace scatter trace337740" style="stroke-miterlimit: 2; opacity: 1;"><g class="fills"/><g class="errorbars"/><g class="lines"><path class="js-line" d="M0,2.02L11.02,16.5L22.04,39.05L33.06,62.21L44.08,82.21L77.14,136.59L88.16,153.98L99.18,167.98L110.2,179.7L121.22,191.13L132.24,198.77L143.27,208.7L154.29,213.08L165.31,221.88L176.33,228.05L187.35,233.69L198.37,238.02L209.39,244.1L220.41,245.21L231.43,252.86L242.45,257.01L253.47,260.29L264.49,266.52L286.53,271.14L297.55,274.65L308.57,274.74L319.59,279.62L330.61,283.26L341.63,285.03L352.65,289.73L363.67,290.72L374.69,290.02L385.71,293.86L396.73,297.16L407.76,298.86L429.8,298.53L440.82,304.03L451.84,301.84L462.86,305.19L484.9,309.39L495.92,309.22L506.94,314.35L517.96,314.16L528.98,313.73L540,317.08" style="vector-effect: non-scaling-stroke; fill: none; stroke: rgb(255, 161, 90); stroke-opacity: 1; stroke-width: 2px; opacity: 1;"/></g><g class="points"/><g class="text"/></g><g class="trace scatter trace866199" style="stroke-miterlimit: 2; opacity: 1;"><g class="fills"/><g class="errorbars"/><g class="lines"><path class="js-line" d="M0,1.98L11.02,16.46L22.04,39.12L33.06,62.28L44.08,82.13L77.14,136.4L88.16,153.79L99.18,168.07L110.2,179.55L121.22,190.88L132.24,198.75L143.27,208.28L154.29,212.88L165.31,221.37L176.33,227.47L198.37,238.98L209.39,243.88L220.41,245.96L231.43,252.91L242.45,255.55L253.47,259.84L264.49,265.65L275.51,268.18L308.57,273.92L319.59,277.56L341.63,282.81L352.65,288.34L363.67,290.3L374.69,291.46L407.76,297.47L418.78,298.3L429.8,298.21L440.82,302.67L451.84,298.32L462.86,304.94L484.9,308.41L495.92,308.9L506.94,309.17L517.96,313.32L540,316.17" style="vector-effect: non-scaling-stroke; fill: none; stroke: rgb(25, 211, 243); stroke-opacity: 1; stroke-width: 2px; opacity: 1;"/></g><g class="points"/><g class="text"/></g><g class="trace scatter trace2cb793" style="stroke-miterlimit: 2; opacity: 1;"><g class="fills"/><g class="errorbars"/><g class="lines"><path class="js-line" d="M0,0.21L11.02,7.55L22.04,24.58L33.06,54.48L44.08,87.57L55.1,115.65L66.12,138.29L77.14,156.77L88.16,170.28L99.18,182.69L110.2,192.88L121.22,202.62L132.24,209.04L154.29,225L165.31,229.91L176.33,233.93L187.35,240.69L198.37,246.26L209.39,249.42L220.41,255.58L231.43,259.47L242.45,263.36L253.47,264.89L264.49,266.91L275.51,271.93L286.53,276.23L297.55,275.15L319.59,284.06L330.61,286.14L352.65,290.18L363.67,292.66L374.69,294.46L385.71,293.99L396.73,297.9L407.76,297.47L418.78,295.96L429.8,302.08L440.82,303.59L451.84,307.31L462.86,306.64L473.88,304.77L484.9,312.66L495.92,310.61L506.94,314.6L517.96,314.93L528.98,317.79L540,317.59" style="vector-effect: non-scaling-stroke; fill: none; stroke: rgb(255, 102, 146); stroke-opacity: 1; stroke-width: 2px; opacity: 1;"/></g><g class="points"/><g class="text"/></g><g class="trace scatter trace65b3cf" style="stroke-miterlimit: 2; opacity: 1;"><g class="fills"/><g class="errorbars"/><g class="lines"><path class="js-line" d="M0,1.93L11.02,16.36L22.04,38.38L33.06,61.5L44.08,81.3L77.14,135.43L88.16,152.84L99.18,167.18L110.2,178.73L121.22,190.16L132.24,198.07L143.27,207.75L154.29,212.77L165.31,221.07L176.33,227.27L187.35,232.83L198.37,236.38L209.39,244.13L220.41,245.56L231.43,253.01L242.45,256.37L253.47,259.01L264.49,264.72L275.51,268.69L286.53,270.13L297.55,272.6L308.57,273.43L319.59,279.63L330.61,282.4L341.63,283.19L352.65,288.66L363.67,289.83L374.69,288.16L385.71,293.38L396.73,297.02L407.76,298.31L418.78,298.21L429.8,299.29L440.82,303.11L451.84,301.2L462.86,305.11L473.88,307.41L484.9,308.47L506.94,311.63L517.96,314.16L528.98,314.29L540,316.72" style="vector-effect: non-scaling-stroke; fill: none; stroke: rgb(182, 232, 128); stroke-opacity: 1; stroke-width: 2px; opacity: 1;"/></g><g class="points"/><g class="text"/></g><g class="trace scatter trace0fd0e8" style="stroke-miterlimit: 2; opacity: 1;"><g class="fills"/><g class="errorbars"/><g class="lines"><path class="js-line" d="M0,2.11L11.02,16.59L22.04,39.09L33.06,62.03L44.08,81.59L77.14,135.09L88.16,152.32L99.18,166.28L110.2,177.89L121.22,189.52L132.24,197.52L143.27,206.88L154.29,211.61L165.31,220.66L176.33,226.49L198.37,237.11L209.39,243.41L220.41,244.34L231.43,251.39L242.45,253.36L253.47,257.09L264.49,264.46L275.51,268.04L286.53,269.36L297.55,272.33L308.57,276.13L319.59,278.28L330.61,281.53L341.63,283.39L352.65,288.07L363.67,289.08L374.69,288.92L385.71,293.22L407.76,298.22L418.78,292.78L429.8,299.23L440.82,303.5L451.84,302.87L462.86,304.33L473.88,304.51L484.9,309.06L495.92,309.76L506.94,308.65L517.96,313.14L528.98,313.99L540,314.88" style="vector-effect: non-scaling-stroke; fill: none; stroke: rgb(255, 151, 255); stroke-opacity: 1; stroke-width: 2px; opacity: 1;"/></g><g class="points"/><g class="text"/></g><g class="trace scatter traceb03108" style="stroke-miterlimit: 2; opacity: 1;"><g class="fills"/><g class="errorbars"/><g class="lines"><path class="js-line" d="M0,1.94L11.02,16.45L22.04,38.94L33.06,62.27L44.08,81.95L77.14,135.95L88.16,153.2L99.18,167.35L110.2,178.49L121.22,190.37L132.24,198.08L143.27,207.25L154.29,212.17L165.31,220.74L176.33,227.5L187.35,232.8L198.37,237.19L209.39,243.64L220.41,245.41L231.43,251.67L242.45,253.44L264.49,264.62L275.51,267.54L286.53,268.47L297.55,273L308.57,273.9L319.59,278.48L330.61,280.49L341.63,281.7L352.65,287.65L363.67,288.8L374.69,288.34L385.71,292.23L407.76,297.69L418.78,297.87L440.82,302.86L451.84,302.33L462.86,304.87L473.88,306.64L495.92,307.6L506.94,312.21L528.98,313.89L540,313.61" style="vector-effect: non-scaling-stroke; fill: none; stroke: rgb(254, 203, 82); stroke-opacity: 1; stroke-width: 2px; opacity: 1;"/></g><g class="points"/><g class="text"/></g><g class="trace scatter tracec9c3a8" style="stroke-miterlimit: 2; opacity: 1;"><g class="fills"/><g class="errorbars"/><g class="lines"><path class="js-line" d="M0,2.13L11.02,16.62L22.04,38.96L33.06,61.96L44.08,81.52L88.16,151.3L99.18,165.42L121.22,188.61L132.24,196.23L143.27,206.23L154.29,210.81L165.31,220.1L176.33,225.49L198.37,237.01L209.39,240.89L220.41,243.52L231.43,250.12L242.45,252.79L253.47,257.82L264.49,262.56L275.51,264.78L297.55,270.9L308.57,272.74L319.59,277.14L330.61,280.62L341.63,281.43L352.65,285.33L374.69,284.82L385.71,291.45L396.73,292.58L407.76,294.88L418.78,293.64L429.8,296.63L440.82,300.28L451.84,299.98L462.86,304.37L473.88,304.86L484.9,304.71L495.92,306.5L506.94,302.75L517.96,309.62L528.98,311.87L540,312.33" style="vector-effect: non-scaling-stroke; fill: none; stroke: rgb(99, 110, 250); stroke-opacity: 1; stroke-width: 2px; opacity: 1;"/></g><g class="points"/><g class="text"/></g><g class="trace scatter trace8a1d3f" style="stroke-miterlimit: 2; opacity: 1;"><g class="fills"/><g class="errorbars"/><g class="lines"><path class="js-line" d="M0,2.06L11.02,16.55L22.04,38.55L33.06,61.61L44.08,81.2L88.16,151.91L99.18,166.19L121.22,189.14L132.24,197.01L143.27,206.93L154.29,211.47L165.31,220.57L176.33,226.35L187.35,232.21L198.37,236.61L209.39,243.38L220.41,243.46L231.43,251.82L242.45,255.16L253.47,259.21L264.49,265.13L297.55,272.34L308.57,272.94L319.59,278.28L330.61,281.81L341.63,283.92L352.65,288.41L374.69,290.02L385.71,292.82L396.73,294.11L407.76,292.98L418.78,297L429.8,299.46L440.82,303.03L451.84,300.21L462.86,303.78L473.88,306.3L484.9,307.91L495.92,310.34L506.94,312.52L517.96,312.98L540,316.1" style="vector-effect: non-scaling-stroke; fill: none; stroke: rgb(239, 85, 59); stroke-opacity: 1; stroke-width: 2px; opacity: 1;"/></g><g class="points"/><g class="text"/></g><g class="trace scatter tracec3b4a7" style="stroke-miterlimit: 2; opacity: 1;"><g class="fills"/><g class="errorbars"/><g class="lines"><path class="js-line" d="M0,2.09L11.02,16.6L22.04,38.86L33.06,61.79L44.08,81.41L88.16,151.35L99.18,165.47L121.22,188.5L132.24,196.39L143.27,206.31L154.29,210.73L165.31,220.09L176.33,225.68L198.37,236.59L209.39,240.71L220.41,243.2L231.43,250.41L253.47,257.21L264.49,263.45L275.51,267.06L286.53,268.79L297.55,271.53L308.57,273.4L319.59,277.83L330.61,280.77L341.63,281.84L352.65,284.95L363.67,287.71L374.69,286.07L385.71,292.14L396.73,294.49L407.76,296.71L418.78,296.3L440.82,300.43L451.84,299.01L462.86,303.49L473.88,303.13L484.9,307.1L495.92,306.99L506.94,310.65L517.96,311.53L528.98,313.67L540,314.82" style="vector-effect: non-scaling-stroke; fill: none; stroke: rgb(0, 204, 150); stroke-opacity: 1; stroke-width: 2px; opacity: 1;"/></g><g class="points"/><g class="text"/></g><g class="trace scatter trace3e6298" style="stroke-miterlimit: 2; opacity: 1;"><g class="fills"/><g class="errorbars"/><g class="lines"><path class="js-line" d="M0,2.01L11.02,16.42L22.04,38.7L33.06,61.94L44.08,81.89L77.14,136.33L88.16,153.83L99.18,168.01L110.2,179.6L121.22,191.04L132.24,199.08L143.27,208.29L154.29,212.84L165.31,221.85L176.33,228.21L187.35,233.82L198.37,238.21L209.39,244.29L220.41,246.86L231.43,253.53L242.45,256.57L253.47,260.04L264.49,265.6L275.51,269.65L286.53,270.45L297.55,273.75L308.57,275.38L319.59,280.24L330.61,281.92L341.63,284.32L352.65,289.55L363.67,290.23L374.69,289.6L385.71,293.92L396.73,296.32L418.78,299.91L429.8,301.28L440.82,304.05L451.84,296.17L462.86,303.99L473.88,307.98L484.9,309.32L495.92,309.1L506.94,313.81L517.96,313.61L540,316.72" style="vector-effect: non-scaling-stroke; fill: none; stroke: rgb(171, 99, 250); stroke-opacity: 1; stroke-width: 2px; opacity: 1;"/></g><g class="points"/><g class="text"/></g><g class="trace scatter tracef33b42" style="stroke-miterlimit: 2; opacity: 1;"><g class="fills"/><g class="errorbars"/><g class="lines"><path class="js-line" d="M0,2L11.02,16.54L22.04,38.78L33.06,61.83L44.08,81.39L77.14,134.16L88.16,151.34L99.18,165.47L110.2,176.9L121.22,188.67L132.24,196.59L143.27,206.19L154.29,210.51L165.31,220.04L176.33,225.46L209.39,241.67L220.41,244.81L231.43,250.34L242.45,251.95L264.49,262.83L275.51,266.92L297.55,272.02L308.57,275.72L319.59,276.49L330.61,279.98L341.63,283.17L352.65,287.16L363.67,287.23L374.69,286.09L385.71,291.93L396.73,294.81L407.76,296.68L418.78,297.49L429.8,297.83L440.82,301.09L451.84,298.85L462.86,302.84L484.9,304.25L495.92,307.94L506.94,300.19L517.96,311.08L528.98,313.34L540,311.57" style="vector-effect: non-scaling-stroke; fill: none; stroke: rgb(255, 161, 90); stroke-opacity: 1; stroke-width: 2px; opacity: 1;"/></g><g class="points"/><g class="text"/></g><g class="trace scatter trace6959fc" style="stroke-miterlimit: 2; opacity: 1;"><g class="fills"/><g class="errorbars"/><g class="lines"><path class="js-line" d="M0,2.04L11.02,16.55L22.04,39.21L33.06,62.42L44.08,82.44L66.12,119.6L77.14,137.28L88.16,154.7L99.18,168.77L121.22,191.98L132.24,199.51L143.27,209.19L154.29,213.98L165.31,222.24L176.33,227.93L187.35,235.03L198.37,239.65L209.39,242.39L220.41,248.84L242.45,257.91L253.47,262.19L264.49,267.98L275.51,270.33L286.53,272.33L297.55,276.42L308.57,271.32L319.59,280.13L330.61,282.08L341.63,285.93L352.65,289.97L363.67,290.99L374.69,289.41L385.71,294.84L396.73,297.86L407.76,299.3L418.78,299.69L429.8,301.58L440.82,301.57L451.84,300.22L462.86,306.06L473.88,307.4L495.92,310.34L506.94,313.64L517.96,312.17L528.98,315.47L540,315.63" style="vector-effect: non-scaling-stroke; fill: none; stroke: rgb(25, 211, 243); stroke-opacity: 1; stroke-width: 2px; opacity: 1;"/></g><g class="points"/><g class="text"/></g><g class="trace scatter tracea6dd09" style="stroke-miterlimit: 2; opacity: 1;"><g class="fills"/><g class="errorbars"/><g class="lines"><path class="js-line" d="M0,2.05L11.02,16.46L22.04,38.65L33.06,61.65L44.08,81.23L77.14,134.19L88.16,151.74L99.18,165.86L110.2,177.38L121.22,189.16L132.24,196.9L143.27,207.03L154.29,211.7L165.31,220.62L176.33,225.81L187.35,232.2L198.37,236.74L209.39,242.97L220.41,244.52L231.43,251.59L242.45,253.81L275.51,268.19L286.53,269.76L297.55,270.94L308.57,275.07L319.59,279.02L330.61,281.66L341.63,284.49L352.65,288.2L363.67,289.59L374.69,290.05L385.71,294.19L396.73,296.46L407.76,297.56L418.78,297.41L429.8,297.3L440.82,303.1L451.84,302.75L462.86,304.38L473.88,306.75L484.9,308.19L495.92,308.53L506.94,313.37L517.96,312.96L528.98,314.92L540,316.21" style="vector-effect: non-scaling-stroke; fill: none; stroke: rgb(255, 102, 146); stroke-opacity: 1; stroke-width: 2px; opacity: 1;"/></g><g class="points"/><g class="text"/></g><g class="trace scatter tracea0f80e" style="stroke-miterlimit: 2; opacity: 1;"><g class="fills"/><g class="errorbars"/><g class="lines"><path class="js-line" d="M0,2.03L11.02,16.44L22.04,38.76L33.06,61.85L44.08,81.65L77.14,135.21L88.16,152.64L99.18,166.72L110.2,178.46L121.22,189.71L132.24,197.51L143.27,207.14L154.29,211.87L165.31,220.65L176.33,227.05L187.35,232.32L198.37,238.48L209.39,242.91L220.41,245.47L231.43,251.36L242.45,254.86L253.47,259.44L264.49,264.9L286.53,269.9L297.55,272.69L308.57,274.44L319.59,278.64L330.61,281.06L341.63,281.25L352.65,287.76L363.67,289.28L385.71,291.78L396.73,295.78L407.76,295.92L418.78,297.35L429.8,297.25L440.82,302.24L462.86,303.9L473.88,305.29L484.9,308.04L495.92,309.37L506.94,302.49L517.96,312.9L528.98,314.64L540,314" style="vector-effect: non-scaling-stroke; fill: none; stroke: rgb(182, 232, 128); stroke-opacity: 1; stroke-width: 2px; opacity: 1;"/></g><g class="points"/><g class="text"/></g><g class="trace scatter tracedb8a48" style="stroke-miterlimit: 2; opacity: 1;"><g class="fills"/><g class="errorbars"/><g class="lines"><path class="js-line" d="M0,2.07L11.02,16.62L22.04,38.85L33.06,62.2L44.08,81.92L77.14,135.69L88.16,152.99L99.18,167.08L110.2,178.85L121.22,190.17L132.24,197.96L143.27,207.52L154.29,212.44L176.33,227.32L187.35,232.6L198.37,237.08L209.39,242.58L220.41,244.48L231.43,251.93L242.45,254.68L253.47,258.85L264.49,264.87L275.51,268.26L286.53,269.55L297.55,273.05L308.57,273.36L319.59,278.86L330.61,279.45L341.63,281.9L352.65,286.22L363.67,287.76L374.69,288.66L385.71,293.15L407.76,297.72L418.78,298.22L429.8,298.32L440.82,301.67L451.84,296.22L462.86,304.52L484.9,307.82L495.92,307.54L506.94,312.44L517.96,312.4L528.98,314.41L540,314.35" style="vector-effect: non-scaling-stroke; fill: none; stroke: rgb(255, 151, 255); stroke-opacity: 1; stroke-width: 2px; opacity: 1;"/></g><g class="points"/><g class="text"/></g><g class="trace scatter trace78e204" style="stroke-miterlimit: 2; opacity: 1;"><g class="fills"/><g class="errorbars"/><g class="lines"><path class="js-line" d="M0,2.11L11.02,16.55L22.04,38.92L33.06,62.17L44.08,82.09L77.14,136.72L88.16,154.07L99.18,168.3L110.2,179.86L121.22,191.27L132.24,198.89L143.27,208.25L154.29,213.37L165.31,221.87L176.33,227.5L187.35,233.73L198.37,239.04L209.39,244.63L220.41,246.83L231.43,253.29L242.45,256.44L253.47,258.92L264.49,264.87L275.51,268.55L286.53,270.69L297.55,273.8L308.57,276.05L330.61,280.47L341.63,284.09L352.65,289.17L363.67,290.03L374.69,290.41L385.71,293.19L407.76,297.72L418.78,297.02L440.82,303.54L451.84,300.79L462.86,305.05L473.88,305.24L484.9,306.79L495.92,309.54L506.94,311.01L517.96,313.28L540,316.51" style="vector-effect: non-scaling-stroke; fill: none; stroke: rgb(254, 203, 82); stroke-opacity: 1; stroke-width: 2px; opacity: 1;"/></g><g class="points"/><g class="text"/></g><g class="trace scatter tracebd0785" style="stroke-miterlimit: 2; opacity: 1;"><g class="fills"/><g class="errorbars"/><g class="lines"><path class="js-line" d="M0,2.09L11.02,16.29L22.04,38.81L33.06,62.23L44.08,82.45L66.12,119.79L77.14,137.63L88.16,154.98L99.18,168.93L121.22,191.66L132.24,199.52L143.27,208.41L154.29,213.67L165.31,222.13L176.33,228.56L187.35,234.16L198.37,238.29L209.39,245.1L220.41,246.15L231.43,253.57L242.45,256.25L253.47,260.21L264.49,266.35L275.51,269.11L286.53,269.89L297.55,274.61L308.57,277.97L319.59,279.43L330.61,283.21L341.63,284.52L352.65,289.38L363.67,291.37L374.69,289.38L396.73,296.85L407.76,298.85L418.78,300.27L429.8,300L440.82,304.13L451.84,299.22L462.86,305.03L473.88,307.3L484.9,309.58L495.92,310.96L506.94,313.56L517.96,313.47L528.98,315.77L540,316.47" style="vector-effect: non-scaling-stroke; fill: none; stroke: rgb(99, 110, 250); stroke-opacity: 1; stroke-width: 2px; opacity: 1;"/></g><g class="points"/><g class="text"/></g><g class="trace scatter trace55057e" style="stroke-miterlimit: 2; opacity: 1;"><g class="fills"/><g class="errorbars"/><g class="lines"><path class="js-line" d="M0,2.05L11.02,16.43L22.04,38.76L33.06,62.04L44.08,81.94L77.14,135.86L88.16,153.22L99.18,167.41L110.2,178.1L121.22,190.5L132.24,198.22L143.27,207.48L154.29,211.94L165.31,220.91L176.33,227.29L209.39,243.6L220.41,245.57L231.43,251.83L242.45,255.04L253.47,258.36L264.49,265.41L308.57,273.9L319.59,278.62L330.61,282L341.63,283.45L352.65,288.33L363.67,289.54L374.69,290.12L385.71,292.69L396.73,295.53L407.76,296.73L429.8,299.34L440.82,302.02L451.84,299.48L462.86,304.66L473.88,307.17L484.9,307.43L506.94,313.24L517.96,313.35L528.98,314.55L540,314.96" style="vector-effect: non-scaling-stroke; fill: none; stroke: rgb(239, 85, 59); stroke-opacity: 1; stroke-width: 2px; opacity: 1;"/></g><g class="points"/><g class="text"/></g><g class="trace scatter trace55b880" style="stroke-miterlimit: 2; opacity: 1;"><g class="fills"/><g class="errorbars"/><g class="lines"><path class="js-line" d="M0,2.05L11.02,16.58L22.04,38.73L33.06,61.84L44.08,81.46L77.14,134.95L88.16,152.61L99.18,166.9L110.2,178.51L121.22,190.03L132.24,197.74L143.27,207.57L154.29,212.38L165.31,221.05L176.33,227.35L198.37,238.27L209.39,244.23L220.41,244.28L231.43,252.54L242.45,255.39L253.47,260.15L264.49,265.05L275.51,269.04L286.53,270.3L297.55,273.46L308.57,272.48L319.59,278.38L341.63,284.22L352.65,288.99L363.67,289.77L374.69,286.66L385.71,293.43L396.73,294.56L407.76,297.5L418.78,291.56L429.8,297.59L440.82,302.27L451.84,302.88L462.86,305.62L473.88,306.31L484.9,308.9L495.92,308.89L506.94,298.15L517.96,313L528.98,314.41L540,316.22" style="vector-effect: non-scaling-stroke; fill: none; stroke: rgb(0, 204, 150); stroke-opacity: 1; stroke-width: 2px; opacity: 1;"/></g><g class="points"/><g class="text"/></g><g class="trace scatter trace8e7421" style="stroke-miterlimit: 2; opacity: 1;"><g class="fills"/><g class="errorbars"/><g class="lines"><path class="js-line" d="M0,2.11L11.02,16.77L22.04,39.47L33.06,62.85L44.08,82.89L77.14,137.81L88.16,155.23L99.18,169.33L110.2,180.26L121.22,192.2L132.24,199.64L143.27,208.93L154.29,213.64L165.31,222.3L176.33,227.8L187.35,234.33L198.37,239.19L209.39,243.97L220.41,247.28L231.43,253.39L242.45,256.42L264.49,265.84L275.51,268.8L286.53,270.8L297.55,270.91L308.57,269.95L319.59,278.95L330.61,279.64L341.63,283.44L352.65,288.26L363.67,289.07L407.76,297.56L418.78,298.47L440.82,302.13L451.84,302.3L462.86,304.77L473.88,306.37L495.92,308.6L506.94,312.27L517.96,312.49L528.98,314.55L540,312.04" style="vector-effect: non-scaling-stroke; fill: none; stroke: rgb(171, 99, 250); stroke-opacity: 1; stroke-width: 2px; opacity: 1;"/></g><g class="points"/><g class="text"/></g><g class="trace scatter trace9ee662" style="stroke-miterlimit: 2; opacity: 1;"><g class="fills"/><g class="errorbars"/><g class="lines"><path class="js-line" d="M0,2.04L11.02,16.51L22.04,38.74L33.06,61.8L44.08,81.28L77.14,134.32L88.16,151.66L99.18,165.89L110.2,177.59L121.22,189.11L132.24,196.63L143.27,206.34L154.29,211.34L165.31,220.3L176.33,225.93L187.35,231.95L198.37,237.08L209.39,242.42L220.41,244.08L231.43,249.98L242.45,252.82L253.47,257.95L264.49,264.72L275.51,267.57L286.53,269.5L297.55,270.08L308.57,275.28L319.59,276.98L330.61,280.51L352.65,287.39L363.67,286.5L374.69,289.23L385.71,292.79L396.73,295.36L407.76,296.29L418.78,298.84L429.8,297.12L440.82,301.34L451.84,300.4L462.86,302.69L473.88,306.68L484.9,308.85L495.92,309.79L506.94,304.83L517.96,312.28L540,315.6" style="vector-effect: non-scaling-stroke; fill: none; stroke: rgb(255, 161, 90); stroke-opacity: 1; stroke-width: 2px; opacity: 1;"/></g><g class="points"/><g class="text"/></g><g class="trace scatter tracefa28a8" style="stroke-miterlimit: 2; opacity: 1;"><g class="fills"/><g class="errorbars"/><g class="lines"><path class="js-line" d="M0,2.03L11.02,16.43L22.04,38.53L33.06,61.57L44.08,81.23L88.16,152.16L99.18,166.28L121.22,189.62L132.24,197.57L143.27,207.14L154.29,211.88L165.31,220.81L176.33,227L187.35,232.25L198.37,238.41L209.39,243.93L220.41,243.02L231.43,251.81L242.45,253.26L264.49,264.74L275.51,268.06L286.53,269.93L297.55,272.72L308.57,274.16L319.59,279.2L330.61,282.41L341.63,284.14L352.65,288.3L363.67,289.74L374.69,289.78L385.71,293.42L407.76,297.41L418.78,294.54L429.8,298.34L440.82,303.43L451.84,300.54L462.86,304.89L473.88,307.07L484.9,307.76L495.92,309.64L506.94,309.49L517.96,313.48L528.98,314.98L540,316.53" style="vector-effect: non-scaling-stroke; fill: none; stroke: rgb(25, 211, 243); stroke-opacity: 1; stroke-width: 2px; opacity: 1;"/></g><g class="points"/><g class="text"/></g><g class="trace scatter trace6f34ef" style="stroke-miterlimit: 2; opacity: 1;"><g class="fills"/><g class="errorbars"/><g class="lines"><path class="js-line" d="M0,1.98L11.02,16.24L22.04,38.05L33.06,60.77L44.08,80.3L77.14,134.1L88.16,151.71L99.18,166.24L110.2,178.01L121.22,189.63L132.24,198.17L143.27,207.8L154.29,212.6L165.31,221.2L176.33,227.07L187.35,232.62L198.37,239.28L209.39,243.03L220.41,245.22L231.43,252.34L242.45,257.54L264.49,266.18L275.51,268.43L297.55,273.49L308.57,272.41L319.59,279.24L330.61,282.13L341.63,282.85L352.65,288.94L374.69,289.53L385.71,293.29L407.76,297.36L418.78,295.66L429.8,300.14L440.82,301.96L451.84,301.42L462.86,305.8L484.9,307.77L495.92,310.47L506.94,313.58L517.96,312.75L528.98,313.47L540,315.56" style="vector-effect: non-scaling-stroke; fill: none; stroke: rgb(255, 102, 146); stroke-opacity: 1; stroke-width: 2px; opacity: 1;"/></g><g class="points"/><g class="text"/></g><g class="trace scatter trace020aa4" style="stroke-miterlimit: 2; opacity: 1;"><g class="fills"/><g class="errorbars"/><g class="lines"><path class="js-line" d="M0,2.1L11.02,16.61L22.04,38.96L33.06,62.29L44.08,82.26L77.14,137.02L88.16,154.49L99.18,168.6L110.2,180.07L121.22,191.24L132.24,199.27L143.27,208.77L154.29,213.25L165.31,222.13L176.33,227.57L187.35,233.97L198.37,238.44L209.39,244.66L220.41,247.49L231.43,253.32L242.45,256.94L253.47,259.31L264.49,266.68L275.51,269.75L286.53,270.17L297.55,274.31L308.57,274.89L319.59,280.25L330.61,282.89L341.63,285.4L352.65,289.13L374.69,291.39L385.71,294.34L396.73,294.89L407.76,298.01L418.78,298.93L429.8,301.04L440.82,304.19L451.84,303.81L473.88,307.41L484.9,308.6L495.92,310.04L506.94,300.89L517.96,313.37L528.98,314.6L540,316.98" style="vector-effect: non-scaling-stroke; fill: none; stroke: rgb(182, 232, 128); stroke-opacity: 1; stroke-width: 2px; opacity: 1;"/></g><g class="points"/><g class="text"/></g><g class="trace scatter trace778e24" style="stroke-miterlimit: 2; opacity: 1;"><g class="fills"/><g class="errorbars"/><g class="lines"><path class="js-line" d="M0,2.07L11.02,16.52L22.04,39L33.06,62.1L44.08,81.84L77.14,135.58L88.16,152.86L99.18,166.99L110.2,178.51L121.22,189.82L132.24,197.8L143.27,207.28L154.29,211.93L165.31,220.75L176.33,227.19L198.37,237.78L209.39,243.43L220.41,244.91L231.43,251.52L242.45,253.28L253.47,258.34L264.49,265.69L275.51,268.78L286.53,269.59L297.55,271.44L319.59,279.29L330.61,281.36L341.63,283.16L352.65,288.07L363.67,290.03L374.69,286.36L385.71,293.05L396.73,294.2L407.76,297.72L418.78,298.91L429.8,299.59L440.82,302.09L451.84,301.08L462.86,304.93L473.88,306.92L484.9,307.59L495.92,309.02L506.94,307.94L517.96,313.89L528.98,314.62L540,314.45" style="vector-effect: non-scaling-stroke; fill: none; stroke: rgb(255, 151, 255); stroke-opacity: 1; stroke-width: 2px; opacity: 1;"/></g><g class="points"/><g class="text"/></g><g class="trace scatter trace3a166f" style="stroke-miterlimit: 2; opacity: 1;"><g class="fills"/><g class="errorbars"/><g class="lines"><path class="js-line" d="M0,2.04L11.02,16.49L22.04,38.79L33.06,61.89L44.08,81.53L77.14,135.61L88.16,152.96L99.18,167.21L110.2,178.74L121.22,190.69L132.24,198.41L143.27,207.84L154.29,212.47L165.31,221.25L176.33,227.3L209.39,244.05L220.41,245.67L231.43,253.14L242.45,254.91L253.47,259.94L264.49,266.3L275.51,269.54L286.53,271.47L297.55,272.25L308.57,276.85L319.59,279.47L330.61,280.96L341.63,283.27L352.65,288.22L363.67,287.93L374.69,290.02L396.73,295.78L407.76,297.45L418.78,298.1L429.8,299.8L440.82,301.9L451.84,303.2L462.86,305.72L473.88,305.53L484.9,309.51L495.92,310.01L506.94,313.99L517.96,313.48L528.98,311.82L540,315.28" style="vector-effect: non-scaling-stroke; fill: none; stroke: rgb(254, 203, 82); stroke-opacity: 1; stroke-width: 2px; opacity: 1;"/></g><g class="points"/><g class="text"/></g><g class="trace scatter traceea4068" style="stroke-miterlimit: 2; opacity: 1;"><g class="fills"/><g class="errorbars"/><g class="lines"><path class="js-line" d="M0,2.12L11.02,16.66L22.04,39.15L33.06,62.35L44.08,82.21L77.14,136.81L88.16,154.08L99.18,168.12L110.2,179.66L121.22,191.21L132.24,198.89L143.27,208.34L154.29,212.78L165.31,221.71L176.33,227.74L187.35,233.45L198.37,237.65L209.39,244.42L220.41,245.81L231.43,252.75L242.45,256.17L253.47,257.78L264.49,265.3L275.51,269.18L286.53,270.6L297.55,274.07L308.57,273.31L319.59,280.07L330.61,281.81L341.63,284.96L352.65,289.19L363.67,290.09L374.69,289.01L396.73,294.62L407.76,292.19L418.78,298.69L429.8,300.44L440.82,303.21L451.84,303.72L462.86,305.55L473.88,305.96L506.94,312.41L517.96,311.86L528.98,314.92L540,316.51" style="vector-effect: non-scaling-stroke; fill: none; stroke: rgb(99, 110, 250); stroke-opacity: 1; stroke-width: 2px; opacity: 1;"/></g><g class="points"/><g class="text"/></g><g class="trace scatter tracee9068f" style="stroke-miterlimit: 2; opacity: 1;"><g class="fills"/><g class="errorbars"/><g class="lines"><path class="js-line" d="M0,2.07L11.02,16.45L22.04,38.59L33.06,61.78L44.08,81.61L77.14,135.93L88.16,153.55L99.18,167.88L110.2,179.38L121.22,190.96L132.24,198.78L143.27,208.52L154.29,213.46L165.31,222.28L176.33,228.55L198.37,238.11L209.39,245.14L220.41,246.45L231.43,253.89L253.47,260.75L264.49,267.2L286.53,271.8L297.55,275.14L308.57,272.88L319.59,280.22L330.61,283.57L341.63,284.31L352.65,288.92L363.67,289.63L374.69,290.48L385.71,292.21L396.73,296.2L407.76,296.16L418.78,299.26L429.8,301.01L440.82,304.24L451.84,301.77L462.86,305.76L473.88,306.93L484.9,309.25L495.92,310.66L506.94,313L517.96,311.9L528.98,314.93L540,315.61" style="vector-effect: non-scaling-stroke; fill: none; stroke: rgb(239, 85, 59); stroke-opacity: 1; stroke-width: 2px; opacity: 1;"/></g><g class="points"/><g class="text"/></g><g class="trace scatter trace0d746d" style="stroke-miterlimit: 2; opacity: 1;"><g class="fills"/><g class="errorbars"/><g class="lines"><path class="js-line" d="M0,2.02L11.02,16.36L22.04,38.3L33.06,61.14L44.08,80.67L88.16,150.82L99.18,164.97L121.22,188.65L132.24,196.52L143.27,206.13L154.29,210.89L165.31,219.88L176.33,225.33L198.37,236.95L209.39,242.05L220.41,244.8L231.43,249.63L242.45,253.65L253.47,256.46L264.49,264.54L275.51,267.61L297.55,271.25L308.57,270.75L319.59,277.66L330.61,281.06L341.63,283.52L352.65,284.97L363.67,287.96L374.69,287.66L385.71,292.63L396.73,295.45L407.76,289.25L418.78,298.4L429.8,298.38L440.82,301.84L451.84,300.1L462.86,304.39L473.88,305.19L484.9,307.42L495.92,307.26L506.94,311.57L517.96,308.59L528.98,313.07L540,314.94" style="vector-effect: non-scaling-stroke; fill: none; stroke: rgb(0, 204, 150); stroke-opacity: 1; stroke-width: 2px; opacity: 1;"/></g><g class="points"/><g class="text"/></g><g class="trace scatter trace3e8694" style="stroke-miterlimit: 2; opacity: 1;"><g class="fills"/><g class="errorbars"/><g class="lines"><path class="js-line" d="M0,1.99L11.02,16.48L22.04,38.95L33.06,62.21L44.08,82.1L77.14,136.62L88.16,153.96L99.18,168.04L110.2,179.38L121.22,191.09L132.24,198.93L143.27,208.05L154.29,213.19L165.31,221.79L176.33,228.33L187.35,233.63L198.37,237.54L209.39,244.43L220.41,246.65L231.43,253.03L242.45,256.43L275.51,269.15L286.53,271.43L297.55,273.68L308.57,275.14L319.59,279.51L330.61,282.05L341.63,284.12L352.65,289.53L374.69,291.49L385.71,294.18L396.73,296.28L407.76,297.35L440.82,304.32L451.84,291.84L462.86,305.19L473.88,306.32L495.92,310.63L506.94,312.33L517.96,313.57L528.98,315.65L540,317.04" style="vector-effect: non-scaling-stroke; fill: none; stroke: rgb(171, 99, 250); stroke-opacity: 1; stroke-width: 2px; opacity: 1;"/></g><g class="points"/><g class="text"/></g><g class="trace scatter tracea9efa7" style="stroke-miterlimit: 2; opacity: 1;"><g class="fills"/><g class="errorbars"/><g class="lines"><path class="js-line" d="M0,2.05L11.02,16.54L22.04,38.92L33.06,62.34L44.08,82.31L77.14,137.21L88.16,154.62L99.18,168.74L110.2,180.36L121.22,191.65L132.24,199.52L143.27,208.72L154.29,213.26L165.31,222.14L176.33,228.57L187.35,234.17L198.37,237.81L209.39,244.57L220.41,246.43L231.43,253.64L242.45,256.85L264.49,266.64L275.51,269.25L286.53,270.58L297.55,274.1L308.57,274.88L319.59,278.89L330.61,283.16L341.63,283.08L352.65,289.28L363.67,291.15L374.69,290.25L385.71,293.84L418.78,300.74L429.8,300.35L440.82,302.42L451.84,300.65L462.86,304.21L473.88,306.05L517.96,314.25L528.98,315.07L540,316.44" style="vector-effect: non-scaling-stroke; fill: none; stroke: rgb(255, 161, 90); stroke-opacity: 1; stroke-width: 2px; opacity: 1;"/></g><g class="points"/><g class="text"/></g><g class="trace scatter trace9bfc5e" style="stroke-miterlimit: 2; opacity: 1;"><g class="fills"/><g class="errorbars"/><g class="lines"><path class="js-line" d="M0,2.11L11.02,16.22L22.04,38.74L33.06,62.05L44.08,81.9L77.14,135.94L88.16,153.12L99.18,167.12L110.2,178.63L121.22,189.8L132.24,197.76L143.27,207.5L154.29,212.4L165.31,220.82L176.33,226.49L198.37,237.9L209.39,242.99L220.41,244.45L231.43,252.39L242.45,254.47L253.47,259.86L264.49,264.72L275.51,268.24L286.53,269.82L297.55,273.32L308.57,274.64L319.59,278.26L330.61,280.15L341.63,283L352.65,287.69L363.67,288.53L374.69,289.46L385.71,292.88L396.73,295.43L407.76,296.76L418.78,297.94L429.8,299.91L440.82,301.39L451.84,297.17L462.86,303.54L473.88,306.08L484.9,303.31L495.92,307.45L506.94,292.55L517.96,310.23L540,313.67" style="vector-effect: non-scaling-stroke; fill: none; stroke: rgb(25, 211, 243); stroke-opacity: 1; stroke-width: 2px; opacity: 1;"/></g><g class="points"/><g class="text"/></g><g class="trace scatter traceb53ef8" style="stroke-miterlimit: 2; opacity: 1;"><g class="fills"/><g class="errorbars"/><g class="lines"><path class="js-line" d="M0,1.79L11.02,15.68L22.04,37.65L33.06,60.95L44.08,80.69L77.14,134.42L88.16,151.73L99.18,165.97L110.2,177.85L121.22,189.19L132.24,197.06L143.27,206.68L154.29,211.45L165.31,220.63L176.33,226.43L209.39,242.51L220.41,245.52L231.43,251.92L242.45,254.83L264.49,264.93L275.51,268.53L286.53,268.94L297.55,273.56L319.59,277.91L330.61,280.55L352.65,288.39L363.67,289.55L374.69,289.14L385.71,293.71L407.76,298.38L418.78,297.99L429.8,297.92L440.82,303.27L462.86,305.11L473.88,305.86L484.9,305.05L495.92,309.7L506.94,301.88L517.96,313.1L540,315.55" style="vector-effect: non-scaling-stroke; fill: none; stroke: rgb(255, 102, 146); stroke-opacity: 1; stroke-width: 2px; opacity: 1;"/></g><g class="points"/><g class="text"/></g><g class="trace scatter trace19fdec" style="stroke-miterlimit: 2; opacity: 1;"><g class="fills"/><g class="errorbars"/><g class="lines"><path class="js-line" d="M0,2.03L11.02,16.5L22.04,38.61L33.06,61.65L44.08,81.11L77.14,133.81L88.16,151.14L99.18,165.32L110.2,177.05L121.22,188.74L132.24,196.57L143.27,206.27L154.29,211.43L165.31,219.71L176.33,225.89L209.39,241.89L220.41,242.43L231.43,250.23L242.45,253.74L253.47,256.18L264.49,264.02L308.57,274.31L319.59,278.18L330.61,281.05L341.63,281.63L352.65,287.72L363.67,287.86L374.69,288.96L385.71,292.84L396.73,295L407.76,296.32L418.78,295.32L429.8,298.47L440.82,302.21L451.84,301.84L462.86,302.49L473.88,306.53L484.9,308.06L495.92,307.9L506.94,312.29L517.96,313.4L528.98,314.2L540,315.81" style="vector-effect: non-scaling-stroke; fill: none; stroke: rgb(182, 232, 128); stroke-opacity: 1; stroke-width: 2px; opacity: 1;"/></g><g class="points"/><g class="text"/></g><g class="trace scatter trace9c8476" style="stroke-miterlimit: 2; opacity: 1;"><g class="fills"/><g class="errorbars"/><g class="lines"><path class="js-line" d="M0,2.01L11.02,16.38L22.04,38.54L33.06,61.67L44.08,81.3L77.14,135.04L88.16,152.42L99.18,166.66L110.2,178.28L121.22,189.95L132.24,197.6L143.27,207.47L154.29,212.58L165.31,221.2L176.33,226.99L187.35,232L198.37,238.86L209.39,243.77L220.41,244.08L231.43,252.04L242.45,254.98L253.47,259.42L264.49,265.62L275.51,268.46L286.53,269.39L297.55,272.3L308.57,273.75L319.59,279.15L330.61,281.44L341.63,283.79L352.65,288.59L363.67,288.54L374.69,290.91L396.73,296.6L407.76,298.25L418.78,299.39L429.8,299.75L440.82,303.61L451.84,298.75L462.86,304.03L473.88,308.22L484.9,308.18L495.92,309.05L506.94,313.75L517.96,311.8L528.98,313.43L540,316.35" style="vector-effect: non-scaling-stroke; fill: none; stroke: rgb(255, 151, 255); stroke-opacity: 1; stroke-width: 2px; opacity: 1;"/></g><g class="points"/><g class="text"/></g><g class="trace scatter tracea3ea15" style="stroke-miterlimit: 2; opacity: 1;"><g class="fills"/><g class="errorbars"/><g class="lines"><path class="js-line" d="M0,2.07L11.02,16.48L22.04,38.7L33.06,61.84L44.08,81.82L77.14,136.3L88.16,153.87L99.18,168.03L110.2,179.99L121.22,191.18L132.24,199.01L143.27,208.94L154.29,213.51L165.31,221.96L176.33,228.25L198.37,238.6L209.39,245.63L220.41,246.99L231.43,253.23L253.47,261.25L264.49,267L275.51,270.27L286.53,271.96L297.55,275.4L308.57,273.24L319.59,280.5L330.61,282.34L341.63,283.92L352.65,289.25L363.67,290.54L374.69,287.47L385.71,293.55L396.73,297.06L407.76,298.72L418.78,298.63L429.8,300.56L440.82,303.68L451.84,303.65L462.86,306.15L484.9,308.66L495.92,306.73L506.94,312.54L517.96,314.14L540,316.61" style="vector-effect: non-scaling-stroke; fill: none; stroke: rgb(254, 203, 82); stroke-opacity: 1; stroke-width: 2px; opacity: 1;"/></g><g class="points"/><g class="text"/></g><g class="trace scatter traceba3cb9" style="stroke-miterlimit: 2; opacity: 1;"><g class="fills"/><g class="errorbars"/><g class="lines"><path class="js-line" d="M0,2.06L11.02,16.55L22.04,39.16L33.06,62.5L44.08,82.46L66.12,119.54L77.14,137.15L88.16,154.57L99.18,168.5L121.22,191.29L132.24,199.07L143.27,208.3L154.29,213.29L165.31,221.63L176.33,228.42L209.39,244.47L220.41,245.63L231.43,253.47L242.45,256.5L264.49,266.23L275.51,269.02L286.53,270.87L297.55,274.45L308.57,275.69L319.59,277.9L330.61,280.9L341.63,284.71L352.65,289.08L363.67,289.98L374.69,292.16L385.71,293.16L396.73,296.39L407.76,298.1L418.78,300.12L429.8,299.88L440.82,302.83L451.84,300.95L462.86,305.01L473.88,307.11L495.92,309.79L506.94,312.77L517.96,313.7L528.98,315.59L540,315.55" style="vector-effect: non-scaling-stroke; fill: none; stroke: rgb(99, 110, 250); stroke-opacity: 1; stroke-width: 2px; opacity: 1;"/></g><g class="points"/><g class="text"/></g><g class="trace scatter trace141599" style="stroke-miterlimit: 2; opacity: 1;"><g class="fills"/><g class="errorbars"/><g class="lines"><path class="js-line" d="M0,1.99L11.02,16.46L22.04,38.73L33.06,61.67L44.08,81L88.16,150.52L99.18,164.66L121.22,188.39L132.24,195.95L143.27,206.22L154.29,210.91L165.31,219.62L176.33,225.56L198.37,237.34L209.39,241.59L220.41,243.84L231.43,249.49L253.47,256.57L264.49,263.44L275.51,266.63L286.53,268.8L297.55,271.79L308.57,270.99L319.59,277.99L330.61,279.08L341.63,281.33L352.65,285.44L363.67,287.88L374.69,287.15L385.71,292.53L396.73,292.64L407.76,296.43L418.78,298.23L429.8,298.05L440.82,302.07L462.86,301.24L473.88,304.1L484.9,306.7L495.92,304.22L506.94,309.83L517.96,309.53L528.98,310.55L540,312.9" style="vector-effect: non-scaling-stroke; fill: none; stroke: rgb(239, 85, 59); stroke-opacity: 1; stroke-width: 2px; opacity: 1;"/></g><g class="points"/><g class="text"/></g><g class="trace scatter trace2758bf" style="stroke-miterlimit: 2; opacity: 1;"><g class="fills"/><g class="errorbars"/><g class="lines"><path class="js-line" d="M0,2.05L11.02,16.55L22.04,39.08L33.06,62.4L44.08,82.2L66.12,118.92L77.14,136.46L88.16,153.99L99.18,168.09L121.22,191.1L132.24,198.92L143.27,208.43L154.29,212.72L165.31,221.87L176.33,228.06L198.37,239.54L209.39,244.91L220.41,246.45L231.43,253.17L242.45,255.92L253.47,259.88L264.49,264.87L275.51,268.89L297.55,272.19L308.57,275.85L319.59,279.74L330.61,281.25L341.63,283.99L352.65,287.9L363.67,289.95L374.69,289.89L385.71,290.62L396.73,295.39L407.76,298.5L418.78,299.05L429.8,301L440.82,301.42L451.84,301.52L462.86,304.9L473.88,307.64L484.9,307.49L506.94,312.62L517.96,313.4L528.98,315.41L540,314" style="vector-effect: non-scaling-stroke; fill: none; stroke: rgb(0, 204, 150); stroke-opacity: 1; stroke-width: 2px; opacity: 1;"/></g><g class="points"/><g class="text"/></g><g class="trace scatter trace6c2f27" style="stroke-miterlimit: 2; opacity: 1;"><g class="fills"/><g class="errorbars"/><g class="lines"><path class="js-line" d="M0,2.15L11.02,16.67L22.04,39.51L33.06,62.96L44.08,83.05L77.14,138.27L88.16,155.44L99.18,169.48L110.2,181.04L121.22,192.39L132.24,199.98L143.27,209.49L154.29,213.27L165.31,221.83L176.33,228.43L187.35,234.38L198.37,237.73L220.41,248.4L231.43,253.57L253.47,262.02L264.49,265.95L275.51,269.33L286.53,270.15L297.55,273.98L308.57,274.07L319.59,280.5L330.61,283.14L341.63,285.77L352.65,289.57L363.67,291.17L374.69,291.36L385.71,292.75L396.73,295.78L407.76,298.59L418.78,299.59L429.8,300.96L440.82,303.12L451.84,301.88L462.86,303.79L473.88,307.2L484.9,308.5L506.94,312.37L517.96,314.59L528.98,316.12L540,316.85" style="vector-effect: non-scaling-stroke; fill: none; stroke: rgb(171, 99, 250); stroke-opacity: 1; stroke-width: 2px; opacity: 1;"/></g><g class="points"/><g class="text"/></g><g class="trace scatter trace60d4e4" style="stroke-miterlimit: 2; opacity: 1;"><g class="fills"/><g class="errorbars"/><g class="lines"><path class="js-line" d="M0,2.05L11.02,16.5L22.04,38.65L33.06,61.77L44.08,81.45L77.14,135.23L88.16,152.65L99.18,166.82L110.2,178.07L121.22,190.21L132.24,197.8L143.27,207.36L154.29,212.41L165.31,220.79L176.33,226.94L209.39,243.86L220.41,244.51L231.43,251.23L242.45,253.53L253.47,260.55L264.49,265.92L275.51,268.69L286.53,270.64L297.55,273.69L308.57,274.14L319.59,278.85L330.61,280.72L341.63,284.17L352.65,288.72L363.67,289.05L374.69,282.62L385.71,293.75L396.73,295.79L418.78,298.81L429.8,300.81L440.82,303.21L451.84,299.85L462.86,305.7L473.88,306.72L495.92,309.39L506.94,312.45L517.96,311.69L528.98,314.17L540,315.96" style="vector-effect: non-scaling-stroke; fill: none; stroke: rgb(255, 161, 90); stroke-opacity: 1; stroke-width: 2px; opacity: 1;"/></g><g class="points"/><g class="text"/></g><g class="trace scatter tracee4c84f" style="stroke-miterlimit: 2; opacity: 1;"><g class="fills"/><g class="errorbars"/><g class="lines"><path class="js-line" d="M0,1.95L11.02,16.37L22.04,38.3L33.06,61.49L44.08,81.19L77.14,135.13L88.16,152.57L99.18,166.77L110.2,178.26L121.22,189.69L132.24,197.97L143.27,207.5L154.29,212.43L165.31,220.78L176.33,226.79L187.35,232.53L198.37,236.77L209.39,244.24L220.41,244.83L231.43,252.36L242.45,255.63L253.47,259.89L264.49,265.63L275.51,268.48L286.53,269.54L297.55,273.1L308.57,275.75L319.59,279.85L330.61,282.19L341.63,284.99L352.65,289.05L363.67,289.79L374.69,289.51L385.71,294.12L396.73,295.08L407.76,297.39L418.78,288.11L429.8,298.62L440.82,303.12L451.84,302.89L462.86,305.62L506.94,312.46L517.96,313.28L528.98,315.15L540,314.7" style="vector-effect: non-scaling-stroke; fill: none; stroke: rgb(25, 211, 243); stroke-opacity: 1; stroke-width: 2px; opacity: 1;"/></g><g class="points"/><g class="text"/></g><g class="trace scatter trace79484a" style="stroke-miterlimit: 2; opacity: 1;"><g class="fills"/><g class="errorbars"/><g class="lines"><path class="js-line" d="M0,2.02L11.02,16.48L22.04,38.49L33.06,61.5L44.08,80.97L88.16,151.3L99.18,165.62L121.22,189.21L132.24,196.9L143.27,206.99L154.29,211.21L165.31,220.36L176.33,225.95L187.35,232.24L198.37,237.28L209.39,243.71L220.41,244.74L231.43,252.01L242.45,253.65L264.49,264.97L275.51,267.04L297.55,272.51L308.57,274.2L319.59,279.54L330.61,282.32L341.63,283.99L352.65,288.42L363.67,289.29L374.69,287.22L385.71,293.3L396.73,294.88L407.76,297.24L418.78,297.48L429.8,298.04L440.82,301.23L451.84,299.92L462.86,305.5L495.92,308.74L506.94,313.37L517.96,312.1L528.98,314.68L540,314.41" style="vector-effect: non-scaling-stroke; fill: none; stroke: rgb(255, 102, 146); stroke-opacity: 1; stroke-width: 2px; opacity: 1;"/></g><g class="points"/><g class="text"/></g><g class="trace scatter trace5e1080" style="stroke-miterlimit: 2; opacity: 1;"><g class="fills"/><g class="errorbars"/><g class="lines"><path class="js-line" d="M0,2.08L11.02,16.53L22.04,38.89L33.06,62.08L44.08,81.72L77.14,136.1L88.16,153.39L99.18,167.67L110.2,179.07L121.22,190.81L132.24,198.55L143.27,207.18L154.29,212.76L165.31,221.29L176.33,227.4L187.35,233.03L198.37,237.06L209.39,243.92L220.41,246.17L231.43,252.05L242.45,254.67L253.47,261.04L264.49,266.05L275.51,269.15L286.53,270.69L297.55,272.8L308.57,274.13L319.59,279.25L330.61,282.14L341.63,283.78L352.65,288.3L363.67,290.34L374.69,287.41L385.71,290.97L396.73,295.6L407.76,296.42L418.78,299.67L440.82,303.65L451.84,295.36L462.86,305.2L473.88,306.42L484.9,308.71L495.92,308.92L506.94,313.79L517.96,313.98L528.98,313.91L540,316.54" style="vector-effect: non-scaling-stroke; fill: none; stroke: rgb(182, 232, 128); stroke-opacity: 1; stroke-width: 2px; opacity: 1;"/></g><g class="points"/><g class="text"/></g><g class="trace scatter trace1f011d" style="stroke-miterlimit: 2; opacity: 1;"><g class="fills"/><g class="errorbars"/><g class="lines"><path class="js-line" d="M0,2.09L11.02,16.6L22.04,38.98L33.06,62.16L44.08,81.91L77.14,135.84L88.16,152.94L99.18,166.98L110.2,178.6L121.22,189.83L132.24,197.87L143.27,206.76L154.29,211.93L165.31,220.58L176.33,227.1L187.35,232.13L198.37,238.19L209.39,242.81L220.41,244.06L231.43,251.57L242.45,254.01L253.47,259.22L264.49,265.29L286.53,269.82L297.55,273.54L308.57,274.47L319.59,277.36L330.61,281.78L341.63,283.49L352.65,287.31L363.67,289.92L374.69,286.58L385.71,293.39L396.73,295.74L407.76,297.31L418.78,297.99L429.8,297.79L440.82,303.26L451.84,304.48L462.86,305.12L473.88,306.61L484.9,306.64L495.92,307.58L506.94,312.71L517.96,313.1L540,316.06" style="vector-effect: non-scaling-stroke; fill: none; stroke: rgb(255, 151, 255); stroke-opacity: 1; stroke-width: 2px; opacity: 1;"/></g><g class="points"/><g class="text"/></g><g class="trace scatter trace4a3b64" style="stroke-miterlimit: 2; opacity: 1;"><g class="fills"/><g class="errorbars"/><g class="lines"><path class="js-line" d="M0,2.06L11.02,16.57L22.04,38.91L33.06,62.08L44.08,81.75L88.16,152.78L99.18,166.94L110.2,177.81L121.22,190.04L132.24,197.57L143.27,207.28L154.29,211.79L165.31,220.63L176.33,226.97L187.35,232.31L209.39,243.32L220.41,246.52L231.43,252.81L242.45,253.42L253.47,261.01L264.49,265.28L275.51,268.28L286.53,269.97L297.55,273.19L308.57,270.14L319.59,278.27L330.61,280.17L341.63,282.27L352.65,286.74L363.67,285.58L374.69,290.74L385.71,292.74L396.73,295.73L407.76,297.64L418.78,297.28L429.8,299.35L440.82,302.27L451.84,301.56L462.86,303.99L473.88,304.21L484.9,307.1L495.92,308.94L506.94,312.8L517.96,311.08L528.98,313.65L540,311.16" style="vector-effect: non-scaling-stroke; fill: none; stroke: rgb(254, 203, 82); stroke-opacity: 1; stroke-width: 2px; opacity: 1;"/></g><g class="points"/><g class="text"/></g><g class="trace scatter trace30d095" style="stroke-miterlimit: 2; opacity: 1;"><g class="fills"/><g class="errorbars"/><g class="lines"><path class="js-line" d="M0,1.98L11.02,16.38L22.04,38.9L33.06,62.21L44.08,82.11L77.14,136.37L88.16,153.71L99.18,167.82L110.2,179.61L121.22,190.78L132.24,198.52L143.27,207.67L154.29,212.24L165.31,221.22L176.33,227.67L209.39,243.86L220.41,245.64L231.43,252.47L242.45,256.13L253.47,259.83L264.49,265.11L275.51,268.36L286.53,269.88L297.55,273.13L308.57,275.27L319.59,279.59L330.61,280.74L341.63,283.77L352.65,289.04L363.67,290.05L374.69,289.38L385.71,293.44L396.73,296.39L407.76,298.95L418.78,297.73L429.8,299.89L440.82,302.84L451.84,297.48L462.86,304.68L473.88,306.94L484.9,308.28L495.92,307.6L506.94,312.61L528.98,314.82L540,316.19" style="vector-effect: non-scaling-stroke; fill: none; stroke: rgb(99, 110, 250); stroke-opacity: 1; stroke-width: 2px; opacity: 1;"/></g><g class="points"/><g class="text"/></g><g class="trace scatter tracefe2e8d" style="stroke-miterlimit: 2; opacity: 1;"><g class="fills"/><g class="errorbars"/><g class="lines"><path class="js-line" d="M0,2.09L11.02,16.43L22.04,38.6L33.06,61.72L44.08,81.44L77.14,134.93L88.16,152.24L99.18,166.41L110.2,178.21L121.22,189.5L132.24,197.12L143.27,206.86L154.29,211.71L165.31,220.72L176.33,226.1L209.39,242.61L220.41,244.49L231.43,251.01L242.45,251.98L253.47,260.38L264.49,265.12L275.51,268.48L286.53,270.16L297.55,272.62L308.57,272.79L319.59,278.26L330.61,280.72L341.63,283.28L352.65,288L363.67,288.68L374.69,287.91L385.71,293.1L396.73,295.29L407.76,296.29L418.78,299.29L429.8,297.57L440.82,301.89L451.84,301.99L462.86,304.23L473.88,304.89L484.9,307.84L495.92,309.67L506.94,305.55L517.96,313.28L528.98,313.49L540,316.27" style="vector-effect: non-scaling-stroke; fill: none; stroke: rgb(239, 85, 59); stroke-opacity: 1; stroke-width: 2px; opacity: 1;"/></g><g class="points"/><g class="text"/></g><g class="trace scatter tracee38b73" style="stroke-miterlimit: 2; opacity: 1;"><g class="fills"/><g class="errorbars"/><g class="lines"><path class="js-line" d="M0,1.99L11.02,16.43L22.04,38.55L33.06,61.66L44.08,81.34L88.16,152.02L99.18,166.17L121.22,189.24L132.24,197.18L143.27,207.26L154.29,211.96L165.31,220.93L176.33,226.49L187.35,232.25L198.37,237.12L209.39,243.16L220.41,243.99L231.43,251.95L242.45,255.72L253.47,259.97L264.49,265.26L275.51,268.24L286.53,270.08L308.57,273.84L319.59,278.7L341.63,283.54L352.65,288.7L374.69,289.57L385.71,293.73L396.73,296.3L407.76,297.81L418.78,299.64L429.8,299.4L440.82,302.64L451.84,302.31L462.86,305.61L473.88,307.41L484.9,309.08L495.92,307.89L506.94,313.08L517.96,313.32L528.98,315.07L540,316.01" style="vector-effect: non-scaling-stroke; fill: none; stroke: rgb(0, 204, 150); stroke-opacity: 1; stroke-width: 2px; opacity: 1;"/></g><g class="points"/><g class="text"/></g><g class="trace scatter trace55fc92" style="stroke-miterlimit: 2; opacity: 1;"><g class="fills"/><g class="errorbars"/><g class="lines"><path class="js-line" d="M0,2.08L11.02,16.55L22.04,38.94L33.06,61.91L44.08,81.5L77.14,134.77L88.16,152.06L99.18,166.21L110.2,177.9L121.22,189.47L132.24,197.08L143.27,206.67L154.29,211.79L165.31,220.56L176.33,226.12L209.39,242.79L220.41,244.01L231.43,250.71L242.45,253.83L253.47,255.93L264.49,264.73L275.51,268.08L286.53,269.06L297.55,271.41L308.57,275.79L330.61,280.56L341.63,283.81L363.67,289.15L374.69,288.1L385.71,292.61L396.73,295.85L418.78,295.03L429.8,298.64L440.82,303.1L451.84,300.72L462.86,305.24L473.88,306.77L484.9,306.82L495.92,308.25L506.94,299L517.96,312.55L528.98,313.33L540,315.91" style="vector-effect: non-scaling-stroke; fill: none; stroke: rgb(171, 99, 250); stroke-opacity: 1; stroke-width: 2px; opacity: 1;"/></g><g class="points"/><g class="text"/></g><g class="trace scatter trace0914d0" style="stroke-miterlimit: 2; opacity: 1;"><g class="fills"/><g class="errorbars"/><g class="lines"><path class="js-line" d="M0,1.99L11.02,16.38L22.04,38.45L33.06,61.53L44.08,81.3L77.14,135.4L88.16,152.75L99.18,167.06L110.2,177.8L121.22,190.03L132.24,197.8L143.27,207.88L154.29,212.52L165.31,221.44L176.33,226.74L187.35,232.82L198.37,237.3L209.39,243.7L220.41,245.02L231.43,252.96L242.45,256.39L253.47,260.9L264.49,266.25L275.51,268.68L286.53,270.31L297.55,273.31L308.57,275.05L319.59,279.96L330.61,282.91L341.63,283.13L352.65,289.25L363.67,290.29L374.69,289.96L385.71,291.54L396.73,291.82L407.76,298.08L418.78,298.1L440.82,303.65L451.84,300.47L462.86,304.72L473.88,307.2L484.9,309.04L495.92,308.16L506.94,313.8L517.96,313.44L528.98,314.42L540,316.47" style="vector-effect: non-scaling-stroke; fill: none; stroke: rgb(255, 161, 90); stroke-opacity: 1; stroke-width: 2px; opacity: 1;"/></g><g class="points"/><g class="text"/></g><g class="trace scatter trace912115" style="stroke-miterlimit: 2; opacity: 1;"><g class="fills"/><g class="errorbars"/><g class="lines"><path class="js-line" d="M0,2.11L11.02,16.56L22.04,38.96L33.06,61.95L44.08,81.57L77.14,135.21L88.16,152.57L99.18,166.46L110.2,178.37L121.22,189.76L132.24,197.46L143.27,207.17L154.29,212.29L165.31,221.08L176.33,226.99L187.35,232.21L198.37,238.69L209.39,243.81L220.41,243.77L231.43,252.34L242.45,252.35L253.47,259.37L264.49,265.29L286.53,270.46L297.55,272.24L308.57,274.03L319.59,277.68L330.61,281.35L341.63,283.02L352.65,287.57L363.67,289.03L374.69,289.27L385.71,293.42L396.73,294.15L407.76,298.42L418.78,297.13L429.8,299.21L440.82,302.34L451.84,302.34L462.86,304.49L473.88,305.14L495.92,309.65L506.94,313.45L528.98,314.14L540,315.01" style="vector-effect: non-scaling-stroke; fill: none; stroke: rgb(25, 211, 243); stroke-opacity: 1; stroke-width: 2px; opacity: 1;"/></g><g class="points"/><g class="text"/></g><g class="trace scatter trace139264" style="stroke-miterlimit: 2; opacity: 1;"><g class="fills"/><g class="errorbars"/><g class="lines"><path class="js-line" d="M0,2.15L11.02,16.84L22.04,39.77L33.06,63.09L44.08,82.94L77.14,137.37L88.16,154.46L99.18,168.34L110.2,179.53L121.22,191.08L132.24,198.65L143.27,208.16L154.29,212.23L165.31,220.84L176.33,227.31L198.37,238.43L209.39,243.78L220.41,246.86L231.43,252.11L242.45,255.22L253.47,261.11L275.51,268.22L286.53,268.33L297.55,273.99L308.57,276.5L330.61,280.87L341.63,283.37L352.65,287.16L363.67,288.16L374.69,288.29L385.71,292.21L396.73,292.27L407.76,296.69L418.78,299.39L429.8,300.39L440.82,302.47L451.84,303.71L462.86,302.04L473.88,307.23L484.9,307.33L495.92,309.41L506.94,311.58L517.96,312.44L528.98,314.57L540,313.79" style="vector-effect: non-scaling-stroke; fill: none; stroke: rgb(255, 102, 146); stroke-opacity: 1; stroke-width: 2px; opacity: 1;"/></g><g class="points"/><g class="text"/></g><g class="trace scatter trace0682f6" style="stroke-miterlimit: 2; opacity: 1;"><g class="fills"/><g class="errorbars"/><g class="lines"><path class="js-line" d="M0,2.08L11.02,16.34L22.04,38.47L33.06,61.48L44.08,81.03L77.14,134.61L88.16,151.91L99.18,166.13L110.2,177.7L121.22,189.44L132.24,196.83L143.27,207.19L154.29,212.01L165.31,220.45L176.33,226.08L198.37,236.64L209.39,243L220.41,244.1L231.43,251.32L264.49,265.07L275.51,268.58L286.53,270.41L297.55,273.32L308.57,271.29L319.59,278.48L330.61,280.24L341.63,283.83L352.65,288.23L363.67,289.19L374.69,290.04L385.71,292.66L396.73,296.53L407.76,297.11L418.78,293.77L429.8,297.87L440.82,302.93L451.84,302.58L462.86,305.76L473.88,307.43L495.92,309.23L506.94,313.95L517.96,312.18L528.98,315L540,316.28" style="vector-effect: non-scaling-stroke; fill: none; stroke: rgb(182, 232, 128); stroke-opacity: 1; stroke-width: 2px; opacity: 1;"/></g><g class="points"/><g class="text"/></g><g class="trace scatter trace2627a3" style="stroke-miterlimit: 2; opacity: 1;"><g class="fills"/><g class="errorbars"/><g class="lines"><path class="js-line" d="M0,2.03L11.02,16.43L22.04,38.73L33.06,61.94L44.08,81.76L77.14,135.68L88.16,153.02L99.18,167.06L110.2,178.73L121.22,190.14L132.24,197.82L143.27,207.31L154.29,212.29L165.31,221.24L176.33,227.08L209.39,243.02L220.41,245.63L231.43,252.31L242.45,254.14L253.47,258.64L264.49,265.41L275.51,268.46L286.53,270.08L297.55,272.02L308.57,276.55L330.61,279.69L341.63,284.61L352.65,288.75L363.67,290.05L374.69,287.91L385.71,294.18L396.73,295.95L407.76,298.74L418.78,297.34L429.8,299.26L440.82,303.53L451.84,302.38L462.86,305.26L473.88,306.85L495.92,309.54L506.94,303.95L517.96,313.24L528.98,312.43L540,311.94" style="vector-effect: non-scaling-stroke; fill: none; stroke: rgb(255, 151, 255); stroke-opacity: 1; stroke-width: 2px; opacity: 1;"/></g><g class="points"/><g class="text"/></g><g class="trace scatter trace89391b" style="stroke-miterlimit: 2; opacity: 1;"><g class="fills"/><g class="errorbars"/><g class="lines"><path class="js-line" d="M0,2.01L11.02,16.45L22.04,38.64L33.06,61.62L44.08,81.13L88.16,151.34L99.18,165.68L121.22,188.71L132.24,196.66L143.27,206.3L154.29,211.33L165.31,220.07L176.33,226.16L198.37,235.87L209.39,242.13L220.41,242.29L231.43,249.96L242.45,254.4L253.47,255.79L264.49,263.89L275.51,267.31L297.55,269.58L308.57,274.79L319.59,278.31L330.61,280.24L341.63,281.64L352.65,287.36L374.69,288.49L385.71,292.91L396.73,295.3L407.76,295.25L418.78,293.73L429.8,296.8L440.82,302.03L451.84,300.11L462.86,303.43L473.88,305.89L484.9,306.71L495.92,308.93L506.94,305.17L517.96,312.07L540,314.5" style="vector-effect: non-scaling-stroke; fill: none; stroke: rgb(254, 203, 82); stroke-opacity: 1; stroke-width: 2px; opacity: 1;"/></g><g class="points"/><g class="text"/></g><g class="trace scatter trace8c198b" style="stroke-miterlimit: 2; opacity: 1;"><g class="fills"/><g class="errorbars"/><g class="lines"><path class="js-line" d="M0,2.04L11.02,16.3L22.04,38.86L33.06,62.32L44.08,82.45L77.14,137.14L88.16,154.38L99.18,168.38L110.2,179.94L121.22,190.99L132.24,199.03L143.27,208.24L154.29,212.99L165.31,221.37L176.33,227.83L187.35,233.74L198.37,237.45L209.39,242.87L220.41,246.13L231.43,252.74L242.45,255.31L253.47,261.04L264.49,265.8L275.51,268.74L286.53,270.21L297.55,273.61L308.57,271.46L319.59,279.2L330.61,281.42L341.63,284.77L352.65,289.32L374.69,290.64L385.71,293.89L418.78,299.78L429.8,300.64L440.82,303.55L451.84,302.03L462.86,306.21L473.88,308.58L484.9,306.2L495.92,308.15L506.94,313.45L517.96,313.61L528.98,313.8L540,316.58" style="vector-effect: non-scaling-stroke; fill: none; stroke: rgb(99, 110, 250); stroke-opacity: 1; stroke-width: 2px; opacity: 1;"/></g><g class="points"/><g class="text"/></g><g class="trace scatter trace00bc46" style="stroke-miterlimit: 2; opacity: 1;"><g class="fills"/><g class="errorbars"/><g class="lines"><path class="js-line" d="M0,1.97L11.02,16.21L22.04,38.6L33.06,61.83L44.08,81.58L77.14,135.58L88.16,152.88L99.18,167.1L110.2,178.72L121.22,190.2L132.24,197.91L143.27,207.52L154.29,212.39L165.31,220.77L176.33,227.07L209.39,243.72L220.41,245.04L231.43,252.56L242.45,254.7L253.47,259.37L264.49,265.98L286.53,269.91L297.55,273.34L308.57,273.57L319.59,279.19L330.61,282.04L341.63,281.64L352.65,288.78L363.67,290.15L374.69,290.45L385.71,293.99L407.76,298.42L418.78,299.38L429.8,297.81L440.82,303.69L451.84,304.78L462.86,304.88L473.88,307.69L484.9,308.27L495.92,309.85L506.94,309.71L517.96,313.12L528.98,314.76L540,316.64" style="vector-effect: non-scaling-stroke; fill: none; stroke: rgb(239, 85, 59); stroke-opacity: 1; stroke-width: 2px; opacity: 1;"/></g><g class="points"/><g class="text"/></g><g class="trace scatter tracefe433f" style="stroke-miterlimit: 2; opacity: 1;"><g class="fills"/><g class="errorbars"/><g class="lines"><path class="js-line" d="M0,1.99L11.02,16.53L22.04,39.18L33.06,62.47L44.08,82.32L77.14,136.74L88.16,154.01L99.18,168.06L110.2,179.48L121.22,190.81L132.24,198.77L143.27,207.95L154.29,212.49L165.31,221.48L176.33,227.96L209.39,243.59L220.41,246.3L231.43,252.47L242.45,255.18L253.47,259.61L264.49,265.16L286.53,270.38L297.55,273.43L308.57,276.57L319.59,278.76L330.61,280.68L341.63,283.89L352.65,288.12L363.67,288.61L374.69,288.85L385.71,292.38L396.73,295.7L407.76,297.76L418.78,299.17L429.8,299.79L440.82,301.98L451.84,299.77L473.88,307.72L484.9,307.35L495.92,309.61L506.94,312.67L528.98,314.47L540,310.41" style="vector-effect: non-scaling-stroke; fill: none; stroke: rgb(0, 204, 150); stroke-opacity: 1; stroke-width: 2px; opacity: 1;"/></g><g class="points"/><g class="text"/></g><g class="trace scatter tracec1fdb0" style="stroke-miterlimit: 2; opacity: 1;"><g class="fills"/><g class="errorbars"/><g class="lines"><path class="js-line" d="M0,1.96L11.02,16.22L22.04,38.58L33.06,61.74L44.08,81.45L77.14,134.89L88.16,152.11L99.18,166.24L110.2,177.93L121.22,189.4L132.24,196.75L143.27,206.6L154.29,211.33L165.31,220.33L176.33,226.39L209.39,241.79L220.41,245.64L231.43,250.86L242.45,253.1L253.47,259.98L264.49,263.94L275.51,268.08L286.53,270.11L308.57,272.71L319.59,277.31L330.61,280.49L341.63,282.2L352.65,287.07L363.67,287.79L374.69,289.81L385.71,293.28L396.73,294.06L407.76,296.42L418.78,295.55L429.8,297.98L440.82,299.85L451.84,302.52L462.86,303.54L473.88,303.75L484.9,307.02L495.92,309.31L506.94,311.92L517.96,312.89L528.98,313.73L540,315.64" style="vector-effect: non-scaling-stroke; fill: none; stroke: rgb(171, 99, 250); stroke-opacity: 1; stroke-width: 2px; opacity: 1;"/></g><g class="points"/><g class="text"/></g><g class="trace scatter trace0b6263" style="stroke-miterlimit: 2; opacity: 1;"><g class="fills"/><g class="errorbars"/><g class="lines"><path class="js-line" d="M0,2.09L11.02,16.63L22.04,39.08L33.06,62.21L44.08,81.96L77.14,135.76L88.16,153.13L99.18,167.13L110.2,178.6L121.22,190.23L132.24,198.02L143.27,207.51L154.29,211.93L165.31,220.82L176.33,227.09L198.37,238.98L209.39,243.28L220.41,243.69L231.43,251.98L242.45,254.77L253.47,259.29L264.49,265.16L275.51,268.11L286.53,269.83L297.55,272.63L308.57,274.64L319.59,278.07L352.65,288.02L363.67,289.69L374.69,291.58L385.71,292.7L396.73,296.24L407.76,297.56L418.78,292.09L429.8,297.58L440.82,302L451.84,303.93L473.88,306.99L484.9,307.59L495.92,309.18L506.94,300.23L517.96,312.92L528.98,313.5L540,315.3" style="vector-effect: non-scaling-stroke; fill: none; stroke: rgb(255, 161, 90); stroke-opacity: 1; stroke-width: 2px; opacity: 1;"/></g><g class="points"/><g class="text"/></g><g class="trace scatter traced8d7ad" style="stroke-miterlimit: 2; opacity: 1;"><g class="fills"/><g class="errorbars"/><g class="lines"><path class="js-line" d="M0,2.04L11.02,16.49L22.04,38.67L33.06,61.77L44.08,81.46L77.14,134.8L88.16,152.22L99.18,166.31L110.2,178.1L121.22,189.48L132.24,197.44L143.27,207.21L154.29,211.59L165.31,220.8L176.33,226.07L198.37,238.48L209.39,243.04L220.41,243.15L231.43,250.62L253.47,258.08L264.49,264.84L275.51,268.19L286.53,269.57L297.55,271.62L308.57,275.35L319.59,278.52L330.61,280.78L341.63,283.41L352.65,288.23L374.69,290.63L385.71,292.76L407.76,298.15L418.78,298.94L429.8,297.93L440.82,303.26L451.84,303.86L462.86,299.78L473.88,302.05L484.9,307.78L495.92,307.33L506.94,312.29L528.98,314.09L540,312.72" style="vector-effect: non-scaling-stroke; fill: none; stroke: rgb(25, 211, 243); stroke-opacity: 1; stroke-width: 2px; opacity: 1;"/></g><g class="points"/><g class="text"/></g><g class="trace scatter trace1e728b" style="stroke-miterlimit: 2; opacity: 1;"><g class="fills"/><g class="errorbars"/><g class="lines"><path class="js-line" d="M0,2.18L11.02,16.73L22.04,39.59L33.06,62.93L44.08,82.96L77.14,137.84L88.16,155.09L99.18,169.13L110.2,180.68L121.22,191.97L132.24,199.65L143.27,209.01L154.29,213.73L165.31,221.95L176.33,228.97L209.39,244.37L220.41,244.4L231.43,253.57L242.45,256.3L264.49,266.51L275.51,269.27L286.53,271.2L297.55,274.29L308.57,274.17L319.59,279.06L341.63,283.41L352.65,289.15L363.67,287.35L374.69,289.71L385.71,294.59L396.73,296.96L418.78,298.96L429.8,301.03L440.82,302.76L451.84,299.04L473.88,307.21L484.9,307.97L506.94,313.52L517.96,311.83L540,316.34" style="vector-effect: non-scaling-stroke; fill: none; stroke: rgb(255, 102, 146); stroke-opacity: 1; stroke-width: 2px; opacity: 1;"/></g><g class="points"/><g class="text"/></g><g class="trace scatter tracea6f955" style="stroke-miterlimit: 2; opacity: 1;"><g class="fills"/><g class="errorbars"/><g class="lines"><path class="js-line" d="M0,2.06L11.02,16.58L22.04,38.82L33.06,61.74L44.08,81.24L88.16,151.12L99.18,165.38L121.22,188.65L132.24,196.71L143.27,206.07L154.29,211.46L165.31,220.04L176.33,226.09L198.37,236.89L209.39,241.05L220.41,243.8L231.43,250.35L242.45,253.38L253.47,258.66L264.49,263.68L275.51,264.92L297.55,271.79L308.57,274.38L319.59,276.03L330.61,280.1L352.65,286.96L363.67,288.26L374.69,287.2L385.71,291.65L396.73,294.49L407.76,294.68L418.78,297.33L429.8,298.07L440.82,301.15L451.84,299.8L462.86,304.9L473.88,305.78L495.92,306.95L506.94,311.34L517.96,311.86L528.98,314.26L540,314.84" style="vector-effect: non-scaling-stroke; fill: none; stroke: rgb(182, 232, 128); stroke-opacity: 1; stroke-width: 2px; opacity: 1;"/></g><g class="points"/><g class="text"/></g><g class="trace scatter trace0ace27" style="stroke-miterlimit: 2; opacity: 1;"><g class="fills"/><g class="errorbars"/><g class="lines"><path class="js-line" d="M0,1.96L11.02,16.4L22.04,38.91L33.06,62.32L44.08,82.15L77.14,136.28L88.16,153.66L99.18,167.71L110.2,178.95L121.22,190.73L132.24,198.42L143.27,207.73L154.29,213.01L165.31,221.18L176.33,227.87L209.39,244.18L220.41,245.09L231.43,253.05L242.45,254.88L253.47,261.22L264.49,265.67L275.51,268.97L286.53,268.83L319.59,277.81L330.61,280.35L341.63,283.56L352.65,287.88L363.67,290.1L374.69,289.21L396.73,295.84L407.76,297.28L429.8,300.17L440.82,303.42L451.84,296.5L462.86,304.66L473.88,307.43L484.9,308.36L495.92,309.83L506.94,312.43L528.98,313.82L540,315.96" style="vector-effect: non-scaling-stroke; fill: none; stroke: rgb(255, 151, 255); stroke-opacity: 1; stroke-width: 2px; opacity: 1;"/></g><g class="points"/><g class="text"/></g><g class="trace scatter trace37a193" style="stroke-miterlimit: 2; opacity: 1;"><g class="fills"/><g class="errorbars"/><g class="lines"><path class="js-line" d="M0,2.16L11.02,16.8L22.04,39.52L33.06,62.86L44.08,83.11L66.12,120.77L77.14,138.81L88.16,156.04L99.18,170.01L121.22,192.54L132.24,200.33L143.27,209.08L154.29,213.98L165.31,222.37L176.33,228.74L187.35,235.06L198.37,239.33L209.39,244.88L220.41,248.74L231.43,254L242.45,256.64L253.47,261.07L264.49,266.87L297.55,273.21L308.57,270.11L319.59,280.11L330.61,282.03L352.65,289.13L363.67,291.59L374.69,291.2L385.71,295.07L396.73,296.05L407.76,298.21L418.78,300.65L429.8,300.5L440.82,303.34L451.84,299.93L462.86,305.77L473.88,308.24L484.9,308.54L495.92,310.25L506.94,313.17L517.96,313.81L540,316.57" style="vector-effect: non-scaling-stroke; fill: none; stroke: rgb(254, 203, 82); stroke-opacity: 1; stroke-width: 2px; opacity: 1;"/></g><g class="points"/><g class="text"/></g><g class="trace scatter trace0bece0" style="stroke-miterlimit: 2; opacity: 1;"><g class="fills"/><g class="errorbars"/><g class="lines"><path class="js-line" d="M0,1.95L11.02,16.14L22.04,37.72L33.06,60.46L44.08,80.04L77.14,133.7L88.16,151.14L99.18,165.76L110.2,177.87L121.22,189.57L132.24,197.48L143.27,207.69L154.29,212.47L165.31,221.12L176.33,227.25L198.37,238.14L209.39,242.71L220.41,246.92L231.43,252.05L242.45,256.99L253.47,258.21L264.49,265.43L275.51,267.15L286.53,270.4L297.55,272.62L308.57,273.49L319.59,279.69L330.61,282.81L341.63,283.51L352.65,287.25L363.67,286.61L374.69,290.13L385.71,289.26L396.73,295.41L407.76,298.1L418.78,299.58L429.8,300.08L451.84,302.06L462.86,304.08L473.88,306.36L484.9,306.83L495.92,309.1L506.94,312.7L517.96,312L528.98,313.77L540,314.58" style="vector-effect: non-scaling-stroke; fill: none; stroke: rgb(99, 110, 250); stroke-opacity: 1; stroke-width: 2px; opacity: 1;"/></g><g class="points"/><g class="text"/></g><g class="trace scatter trace685d16" style="stroke-miterlimit: 2; opacity: 1;"><g class="fills"/><g class="errorbars"/><g class="lines"><path class="js-line" d="M0,2.1L11.02,16.65L22.04,39.08L33.06,62.35L44.08,82.45L77.14,136.97L88.16,154.32L99.18,168.44L110.2,179.93L121.22,191.16L132.24,198.88L143.27,207.82L154.29,213.28L165.31,221.74L176.33,228.24L209.39,244.52L220.41,245.47L231.43,252.65L242.45,255.68L253.47,257.83L264.49,265.56L275.51,268.51L286.53,270.66L297.55,271.54L308.57,275.22L319.59,279.33L330.61,282.36L341.63,284L352.65,289.12L374.69,291L385.71,293.4L396.73,296.36L407.76,297.23L418.78,300.08L429.8,300.19L440.82,302.42L451.84,301.27L462.86,305.62L473.88,304.92L484.9,308.46L495.92,309.64L506.94,312.22L517.96,311.53L528.98,314.44L540,316.25" style="vector-effect: non-scaling-stroke; fill: none; stroke: rgb(239, 85, 59); stroke-opacity: 1; stroke-width: 2px; opacity: 1;"/></g><g class="points"/><g class="text"/></g><g class="trace scatter tracec413e1" style="stroke-miterlimit: 2; opacity: 1;"><g class="fills"/><g class="errorbars"/><g class="lines"><path class="js-line" d="M0,2.1L11.02,16.62L22.04,38.92L33.06,62.23L44.08,81.93L77.14,136.01L88.16,153.35L99.18,167.48L110.2,178.83L121.22,190.32L132.24,198.34L143.27,207.49L154.29,212.62L165.31,221.02L176.33,227.43L209.39,244.32L220.41,244.91L231.43,252.56L242.45,255.16L253.47,258.38L264.49,265.29L286.53,270.16L297.55,271.72L308.57,276.37L319.59,278.92L330.61,280.84L341.63,283.73L352.65,288.5L363.67,290.69L374.69,288.46L385.71,293.89L407.76,298.32L418.78,297.5L440.82,303.34L451.84,301.94L473.88,306.82L484.9,308.28L495.92,309.42L506.94,300.98L517.96,313.51L528.98,314.66L540,316.71" style="vector-effect: non-scaling-stroke; fill: none; stroke: rgb(0, 204, 150); stroke-opacity: 1; stroke-width: 2px; opacity: 1;"/></g><g class="points"/><g class="text"/></g><g class="trace scatter traceccbc33" style="stroke-miterlimit: 2; opacity: 1;"><g class="fills"/><g class="errorbars"/><g class="lines"><path class="js-line" d="M0,1.93L11.02,16.2L22.04,38.46L33.06,61.71L44.08,81.47L77.14,135.42L88.16,152.86L99.18,167.06L110.2,178.73L121.22,190.39L132.24,197.84L143.27,207.77L154.29,212.44L165.31,221.33L176.33,227.29L187.35,232.82L198.37,237.41L209.39,243.73L220.41,244.71L231.43,252.27L242.45,255L264.49,265.2L275.51,268.19L286.53,269.82L297.55,273.45L308.57,275.23L319.59,279.49L330.61,282.81L341.63,283.66L352.65,289.19L363.67,290.29L374.69,287.15L385.71,291.73L396.73,296.13L407.76,293.07L429.8,300.37L440.82,302.06L462.86,306.05L473.88,306.39L484.9,308.94L495.92,307.42L506.94,300.51L517.96,313.75L540,314.21" style="vector-effect: non-scaling-stroke; fill: none; stroke: rgb(171, 99, 250); stroke-opacity: 1; stroke-width: 2px; opacity: 1;"/></g><g class="points"/><g class="text"/></g><g class="trace scatter tracef12a84" style="stroke-miterlimit: 2; opacity: 1;"><g class="fills"/><g class="errorbars"/><g class="lines"><path class="js-line" d="M0,2.01L11.02,16.38L22.04,38.9L33.06,62.22L44.08,82.05L77.14,136.67L88.16,154.09L99.18,168.25L110.2,180.05L121.22,191.41L132.24,199.16L143.27,208.59L154.29,213.39L165.31,221.99L176.33,227.94L187.35,233.99L198.37,237.59L209.39,244.73L220.41,247.9L231.43,253.14L242.45,256.08L264.49,266.4L275.51,269.16L286.53,270.81L297.55,275.13L308.57,271.88L319.59,280.46L330.61,282.97L341.63,284.35L352.65,289.72L363.67,290.74L385.71,293.46L396.73,297.21L407.76,298.36L418.78,297.78L429.8,299.99L440.82,303.12L451.84,302.37L462.86,305.92L473.88,307.87L484.9,307.81L517.96,313.95L528.98,314.56L540,315.21" style="vector-effect: non-scaling-stroke; fill: none; stroke: rgb(255, 161, 90); stroke-opacity: 1; stroke-width: 2px; opacity: 1;"/></g><g class="points"/><g class="text"/></g><g class="trace scatter tracef2eeb5" style="stroke-miterlimit: 2; opacity: 1;"><g class="fills"/><g class="errorbars"/><g class="lines"><path class="js-line" d="M0,1.97L11.02,16.38L22.04,38.27L33.06,61.32L44.08,81.05L77.14,134.95L88.16,152.86L99.18,167.23L110.2,178.94L121.22,190.42L132.24,198.9L143.27,208.46L154.29,213.13L165.31,221.76L176.33,227.41L209.39,244.87L220.41,248.62L231.43,253.75L242.45,256.69L264.49,267.39L275.51,268.59L286.53,270.48L297.55,273.88L308.57,274.2L319.59,280.81L330.61,283.71L341.63,284.4L352.65,288.32L363.67,289.04L374.69,289.38L385.71,294.81L396.73,296.82L407.76,297.68L418.78,292.78L429.8,300.34L440.82,304.37L451.84,303.96L462.86,306.31L473.88,307.36L495.92,310.34L506.94,313.29L517.96,313.28L528.98,315.68L540,317.29" style="vector-effect: non-scaling-stroke; fill: none; stroke: rgb(25, 211, 243); stroke-opacity: 1; stroke-width: 2px; opacity: 1;"/></g><g class="points"/><g class="text"/></g><g class="trace scatter traceda9a79" style="stroke-miterlimit: 2; opacity: 1;"><g class="fills"/><g class="errorbars"/><g class="lines"><path class="js-line" d="M0,2.11L11.02,16.77L22.04,39.54L33.06,62.88L44.08,82.78L66.12,119.51L77.14,137.03L88.16,154.32L99.18,168.3L121.22,191.07L132.24,198.89L143.27,207.93L154.29,212.75L165.31,221.26L176.33,228.07L209.39,243.61L220.41,246.8L231.43,252.3L242.45,255.1L253.47,260.72L264.49,265.45L275.51,268.52L286.53,268.67L297.55,271.86L308.57,276.82L330.61,279.14L341.63,283.26L352.65,287.5L363.67,288.31L374.69,288.94L385.71,292.93L396.73,295.96L407.76,297.56L418.78,299.12L429.8,297.99L440.82,300.4L451.84,300.77L462.86,304.98L473.88,307.3L484.9,306.62L495.92,306.86L506.94,312.58L517.96,311.72L528.98,313.58L540,311.62" style="vector-effect: non-scaling-stroke; fill: none; stroke: rgb(255, 102, 146); stroke-opacity: 1; stroke-width: 2px; opacity: 1;"/></g><g class="points"/><g class="text"/></g><g class="trace scatter trace71ebd7" style="stroke-miterlimit: 2; opacity: 1;"><g class="fills"/><g class="errorbars"/><g class="lines"><path class="js-line" d="M0,2L11.02,16.41L22.04,38.47L33.06,61.48L44.08,81.1L77.14,134.42L88.16,151.62L99.18,165.69L110.2,177.63L121.22,189.12L132.24,196.16L143.27,206.8L154.29,211.47L165.31,220.08L176.33,225.81L198.37,237.57L209.39,242.17L220.41,242.82L231.43,249.81L242.45,254.16L253.47,256.56L264.49,264.34L275.51,267.02L286.53,269.32L297.55,272.41L308.57,275.04L319.59,278.51L330.61,282.13L341.63,283.42L352.65,287.95L363.67,288.01L374.69,286.84L385.71,293.57L396.73,296.16L407.76,296.94L418.78,296.36L429.8,297.12L440.82,302.64L451.84,299.22L462.86,305.06L473.88,306.25L495.92,309.47L506.94,312.93L517.96,312.74L528.98,314.65L540,313.84" style="vector-effect: non-scaling-stroke; fill: none; stroke: rgb(182, 232, 128); stroke-opacity: 1; stroke-width: 2px; opacity: 1;"/></g><g class="points"/><g class="text"/></g><g class="trace scatter trace91dbeb" style="stroke-miterlimit: 2; opacity: 1;"><g class="fills"/><g class="errorbars"/><g class="lines"><path class="js-line" d="M0,1.9L11.02,16.31L22.04,38.92L33.06,62.3L44.08,82.09L77.14,136.14L88.16,153.2L99.18,167.17L110.2,178.62L121.22,189.99L132.24,197.52L143.27,207.19L154.29,211.56L165.31,221.12L176.33,227.27L209.39,243.09L220.41,243.07L231.43,251.46L242.45,253.81L253.47,257.22L264.49,264.45L286.53,269.31L297.55,271.28L308.57,275.75L319.59,275.87L330.61,278.45L341.63,282.25L352.65,286.58L363.67,288.11L374.69,286.67L385.71,292.72L396.73,293.41L407.76,296.4L418.78,297.39L429.8,296.91L440.82,300.79L451.84,300.82L462.86,300.31L473.88,304.37L495.92,307.96L506.94,298.73L517.96,310.39L528.98,312.09L540,313.5" style="vector-effect: non-scaling-stroke; fill: none; stroke: rgb(255, 151, 255); stroke-opacity: 1; stroke-width: 2px; opacity: 1;"/></g><g class="points"/><g class="text"/></g><g class="trace scatter tracef254fb" style="stroke-miterlimit: 2; opacity: 1;"><g class="fills"/><g class="errorbars"/><g class="lines"><path class="js-line" d="M0,2.01L11.02,16.46L22.04,38.59L33.06,61.54L44.08,81.06L88.16,151.82L99.18,166.06L121.22,189.17L132.24,197.11L143.27,207.09L154.29,211.53L165.31,220.28L176.33,226.08L209.39,243.91L220.41,242.53L231.43,252.17L242.45,254.42L253.47,258.73L264.49,264.74L275.51,268.19L286.53,269.96L308.57,273.59L319.59,277.92L330.61,282.37L341.63,283.88L352.65,288.63L363.67,290.03L374.69,288.35L385.71,290.21L396.73,295.46L407.76,294.78L418.78,289.48L429.8,296.38L440.82,301.58L451.84,304.38L462.86,304.45L473.88,306.03L484.9,308.83L495.92,308.38L517.96,313.04L528.98,313.31L540,315.43" style="vector-effect: non-scaling-stroke; fill: none; stroke: rgb(254, 203, 82); stroke-opacity: 1; stroke-width: 2px; opacity: 1;"/></g><g class="points"/><g class="text"/></g><g class="trace scatter traced00d66" style="stroke-miterlimit: 2; opacity: 1;"><g class="fills"/><g class="errorbars"/><g class="lines"><path class="js-line" d="M0,2.09L11.02,16.56L22.04,38.87L33.06,62.24L44.08,82.11L77.14,136.45L88.16,153.81L99.18,168.01L110.2,179.46L121.22,190.97L132.24,198.71L143.27,207.84L154.29,212.61L165.31,221.47L176.33,228.02L209.39,244.35L220.41,245.66L231.43,253.02L242.45,254.66L264.49,266.07L275.51,268.97L297.55,272.23L308.57,274.56L319.59,279.79L330.61,282.07L341.63,283.36L352.65,289.17L363.67,288.86L374.69,289.83L385.71,294L396.73,297.36L418.78,299.03L429.8,301.36L440.82,303.26L451.84,301.75L462.86,301.98L473.88,299.54L484.9,308.33L495.92,310.07L506.94,312.96L517.96,313.21L528.98,314.52L540,314.18" style="vector-effect: non-scaling-stroke; fill: none; stroke: rgb(99, 110, 250); stroke-opacity: 1; stroke-width: 2px; opacity: 1;"/></g><g class="points"/><g class="text"/></g><g class="trace scatter tracee73148" style="stroke-miterlimit: 2; opacity: 1;"><g class="fills"/><g class="errorbars"/><g class="lines"><path class="js-line" d="M0,2.17L11.02,16.89L22.04,39.53L33.06,62.84L44.08,82.74L77.14,137.35L88.16,154.56L99.18,168.51L110.2,179.94L121.22,191.21L132.24,198.95L143.27,208.26L154.29,212.52L165.31,221.33L176.33,228.27L187.35,233.54L198.37,237.75L209.39,242.46L220.41,246.13L231.43,252.69L242.45,255.19L253.47,260.08L264.49,265.88L275.51,269.01L286.53,269.47L297.55,270.97L308.57,275.41L319.59,279.19L330.61,279.2L341.63,282.64L352.65,288.36L374.69,290.54L385.71,293.83L396.73,294.31L407.76,296.89L418.78,295.13L429.8,300.16L440.82,302.85L451.84,298.93L462.86,304.93L473.88,307.19L495.92,308.64L506.94,312.8L528.98,314L540,316.18" style="vector-effect: non-scaling-stroke; fill: none; stroke: rgb(239, 85, 59); stroke-opacity: 1; stroke-width: 2px; opacity: 1;"/></g><g class="points"/><g class="text"/></g><g class="trace scatter trace000545" style="stroke-miterlimit: 2; opacity: 1;"><g class="fills"/><g class="errorbars"/><g class="lines"><path class="js-line" d="M0,2.09L11.02,16.52L22.04,38.62L33.06,61.78L44.08,81.6L77.14,135.65L88.16,153.06L99.18,167.25L110.2,178.77L121.22,190.34L132.24,198.1L143.27,207.8L154.29,212.44L165.31,221.5L176.33,227.31L198.37,237.64L209.39,244.41L220.41,244.66L231.43,252.92L242.45,256.05L253.47,261.36L264.49,266.23L275.51,268.29L297.55,273.14L308.57,273.08L319.59,279.19L330.61,282.5L341.63,283.85L352.65,289.42L363.67,288.9L374.69,289.8L385.71,293.67L396.73,295.84L407.76,298.57L418.78,294.99L429.8,300.06L440.82,303.08L451.84,303.5L462.86,305.74L473.88,305.46L484.9,307.78L495.92,306.21L506.94,313.45L517.96,312.65L528.98,314.29L540,314.46" style="vector-effect: non-scaling-stroke; fill: none; stroke: rgb(0, 204, 150); stroke-opacity: 1; stroke-width: 2px; opacity: 1;"/></g><g class="points"/><g class="text"/></g><g class="trace scatter trace985278" style="stroke-miterlimit: 2; opacity: 1;"><g class="fills"/><g class="errorbars"/><g class="lines"><path class="js-line" d="M0,2.05L11.02,16.51L22.04,39.07L33.06,62.25L44.08,81.85L77.14,135.87L88.16,153.1L99.18,167.21L110.2,178.88L121.22,190.49L132.24,198.13L143.27,207.43L154.29,212.42L165.31,221.03L176.33,227.28L198.37,237.74L209.39,242.19L220.41,244.88L231.43,251.47L242.45,253.87L253.47,260.81L264.49,265.28L275.51,266.93L286.53,268.84L297.55,272.17L308.57,273.92L319.59,278.04L330.61,278.8L341.63,282.35L352.65,288.1L363.67,288.88L374.69,289.28L385.71,291.86L396.73,294.85L407.76,296.24L418.78,299.4L429.8,300.58L440.82,302.89L451.84,303.66L462.86,302.52L473.88,305.27L484.9,306.78L495.92,309.83L517.96,313.43L528.98,315.31L540,315.89" style="vector-effect: non-scaling-stroke; fill: none; stroke: rgb(171, 99, 250); stroke-opacity: 1; stroke-width: 2px; opacity: 1;"/></g><g class="points"/><g class="text"/></g><g class="trace scatter tracee12ee2" style="stroke-miterlimit: 2; opacity: 1;"><g class="fills"/><g class="errorbars"/><g class="lines"><path class="js-line" d="M0,2.19L11.02,16.78L22.04,39.38L33.06,62.74L44.08,82.58L77.14,136.55L88.16,153.92L99.18,168.01L110.2,179.19L121.22,190.75L132.24,198.17L143.27,207.57L154.29,212.38L165.31,221.24L176.33,227.77L209.39,243.44L220.41,245.05L231.43,252.92L242.45,253.46L264.49,265.31L275.51,268.02L286.53,269.1L297.55,272.16L308.57,277.2L319.59,278.35L330.61,278.92L341.63,283.03L352.65,287.33L363.67,288.85L374.69,288.58L385.71,292.31L396.73,294.27L407.76,297.02L418.78,296.98L429.8,298.39L440.82,301.41L451.84,300.07L462.86,305.08L473.88,305.4L484.9,308.03L495.92,308.18L506.94,305.97L517.96,312.82L528.98,312L540,314.2" style="vector-effect: non-scaling-stroke; fill: none; stroke: rgb(255, 161, 90); stroke-opacity: 1; stroke-width: 2px; opacity: 1;"/></g><g class="points"/><g class="text"/></g><g class="trace scatter trace0fc1ec" style="stroke-miterlimit: 2; opacity: 1;"><g class="fills"/><g class="errorbars"/><g class="lines"><path class="js-line" d="M0,2.03L11.02,16.52L22.04,38.49L33.06,61.71L44.08,81.33L88.16,152.24L99.18,166.51L121.22,189.59L132.24,197.55L143.27,207.28L154.29,212.17L165.31,220.71L176.33,226.46L187.35,232.25L198.37,237.12L209.39,243.73L220.41,244.62L231.43,251.5L242.45,254.3L264.49,265L275.51,267.92L297.55,272.46L308.57,272.28L319.59,279.25L330.61,281.4L341.63,284.1L352.65,288.67L363.67,289.76L374.69,287.73L385.71,293.53L396.73,295.99L407.76,296.85L418.78,300.09L429.8,300.59L440.82,303.13L451.84,302.67L462.86,305L473.88,305.44L484.9,307.31L506.94,312.29L517.96,311.95L528.98,314.62L540,316.43" style="vector-effect: non-scaling-stroke; fill: none; stroke: rgb(25, 211, 243); stroke-opacity: 1; stroke-width: 2px; opacity: 1;"/></g><g class="points"/><g class="text"/></g><g class="trace scatter trace2da05a" style="stroke-miterlimit: 2; opacity: 1;"><g class="fills"/><g class="errorbars"/><g class="lines"><path class="js-line" d="M0,2.05L11.02,16.51L22.04,38.61L33.06,61.57L44.08,81.16L88.16,151.85L99.18,165.98L121.22,189.06L132.24,196.52L143.27,206.8L154.29,211.64L165.31,220.48L176.33,225.86L209.39,242.92L220.41,243.64L231.43,251.33L242.45,255.09L253.47,259.71L264.49,265.54L275.51,267.75L286.53,268.37L297.55,270.47L308.57,276.12L319.59,279.85L330.61,281.7L341.63,283.61L352.65,288.41L363.67,289.74L374.69,287.63L385.71,293.79L396.73,295.4L407.76,298.21L418.78,299.63L429.8,299.65L440.82,304L451.84,303.29L462.86,304.45L473.88,307.08L484.9,306.95L495.92,309.32L506.94,301.04L517.96,312.87L528.98,313.2L540,316.01" style="vector-effect: non-scaling-stroke; fill: none; stroke: rgb(255, 102, 146); stroke-opacity: 1; stroke-width: 2px; opacity: 1;"/></g><g class="points"/><g class="text"/></g><g class="trace scatter tracef10a9e" style="stroke-miterlimit: 2; opacity: 1;"><g class="fills"/><g class="errorbars"/><g class="lines"><path class="js-line" d="M0,2.23L11.02,16.85L22.04,39.59L33.06,62.61L44.08,82.33L77.14,136.02L88.16,153.17L99.18,167.19L110.2,178.25L121.22,189.99L132.24,197.53L143.27,206.86L154.29,211.51L165.31,220.74L176.33,226.79L187.35,231.97L198.37,238.21L209.39,242.95L220.41,244.73L231.43,250.31L242.45,253.88L264.49,263.77L275.51,267.55L286.53,269.1L297.55,272.12L308.57,275.88L319.59,278.13L341.63,281.64L352.65,287.14L363.67,288.58L374.69,286.68L385.71,292L396.73,295.23L407.76,297.47L418.78,298.06L429.8,299.52L440.82,302.25L462.86,301.37L473.88,306.15L484.9,306.14L495.92,308.43L506.94,312.06L517.96,313.23L528.98,314.51L540,312.46" style="vector-effect: non-scaling-stroke; fill: none; stroke: rgb(182, 232, 128); stroke-opacity: 1; stroke-width: 2px; opacity: 1;"/></g><g class="points"/><g class="text"/></g><g class="trace scatter trace4539b6" style="stroke-miterlimit: 2; opacity: 1;"><g class="fills"/><g class="errorbars"/><g class="lines"><path class="js-line" d="M0,2.15L11.02,16.76L22.04,39.48L33.06,62.51L44.08,81.96L77.14,135.01L88.16,152.15L99.18,166.12L110.2,177.1L121.22,188.78L132.24,196.31L143.27,206.22L154.29,211.69L165.31,219.88L176.33,226.32L198.37,237.35L209.39,241.07L220.41,244.59L231.43,250.86L242.45,254.08L253.47,259.22L264.49,260.74L275.51,266.92L286.53,268.31L297.55,272.75L319.59,278.07L330.61,280.09L341.63,281.2L352.65,286.57L374.69,288.9L385.71,292.65L396.73,294.61L407.76,291.48L418.78,296.23L429.8,299.01L440.82,300.8L451.84,300.47L462.86,302.04L473.88,300.16L484.9,305.25L495.92,307.24L506.94,310.8L517.96,310.97L528.98,310.22L540,313.52" style="vector-effect: non-scaling-stroke; fill: none; stroke: rgb(255, 151, 255); stroke-opacity: 1; stroke-width: 2px; opacity: 1;"/></g><g class="points"/><g class="text"/></g><g class="trace scatter trace6f8101" style="stroke-miterlimit: 2; opacity: 1;"><g class="fills"/><g class="errorbars"/><g class="lines"><path class="js-line" d="M0,2.17L11.02,16.78L22.04,39.38L33.06,62.83L44.08,82.89L66.12,120.31L77.14,138.24L88.16,155.56L99.18,169.53L121.22,192.32L132.24,200.06L143.27,209.31L154.29,213.89L165.31,222.21L176.33,229.28L187.35,234.55L198.37,238.61L209.39,245.15L220.41,247.2L231.43,253.52L242.45,256.49L264.49,266.73L275.51,269.77L286.53,269.62L297.55,273.1L308.57,277.38L319.59,280.68L341.63,285.04L352.65,289.97L363.67,290.83L374.69,288.94L385.71,294.6L396.73,296.85L429.8,302.18L440.82,303.17L451.84,297.96L462.86,304.41L473.88,307.73L484.9,308.1L495.92,309.54L506.94,313.06L517.96,312.57L528.98,315.28L540,316.71" style="vector-effect: non-scaling-stroke; fill: none; stroke: rgb(254, 203, 82); stroke-opacity: 1; stroke-width: 2px; opacity: 1;"/></g><g class="points"/><g class="text"/></g><g class="trace scatter traceac344f" style="stroke-miterlimit: 2; opacity: 1;"><g class="fills"/><g class="errorbars"/><g class="lines"><path class="js-line" d="M0,1.99L11.02,16.45L22.04,39.02L33.06,62.36L44.08,82.17L77.14,136.66L88.16,153.93L99.18,167.98L110.2,179.4L121.22,190.77L132.24,198.51L143.27,208.17L154.29,213.26L165.31,221.61L176.33,227.87L187.35,233.55L198.37,237.76L209.39,244.59L220.41,245.56L231.43,252.55L242.45,256.52L253.47,260.64L264.49,266.43L275.51,269.05L286.53,270.48L297.55,273.48L308.57,274.42L319.59,279.5L330.61,279.02L341.63,283.13L352.65,289.15L363.67,290.31L374.69,289.29L396.73,296.13L407.76,298.19L418.78,300.39L429.8,300.18L440.82,304.08L451.84,302.46L462.86,304.08L473.88,308.33L484.9,306.91L495.92,308.02L506.94,312.45L517.96,313.04L540,316.4" style="vector-effect: non-scaling-stroke; fill: none; stroke: rgb(99, 110, 250); stroke-opacity: 1; stroke-width: 2px; opacity: 1;"/></g><g class="points"/><g class="text"/></g><g class="trace scatter trace52af06" style="stroke-miterlimit: 2; opacity: 1;"><g class="fills"/><g class="errorbars"/><g class="lines"><path class="js-line" d="M0,2L11.02,16.47L22.04,38.8L33.06,61.86L44.08,81.53L77.14,135.01L88.16,152.24L99.18,166.39L110.2,177.67L121.22,189.54L132.24,197.32L143.27,207.12L154.29,211.64L165.31,220.72L176.33,226.5L209.39,242.72L220.41,246.35L231.43,252.3L242.45,253.67L253.47,260.47L264.49,265.21L275.51,268.26L286.53,269.26L297.55,273.39L308.57,271.47L319.59,277.33L330.61,280.77L341.63,282.04L352.65,287.86L374.69,289.46L385.71,293.35L407.76,294.99L418.78,297.69L429.8,299.55L440.82,302.44L451.84,298.43L462.86,304.47L473.88,306.4L484.9,307.14L495.92,308.96L506.94,311.93L517.96,311.42L528.98,314.47L540,312.53" style="vector-effect: non-scaling-stroke; fill: none; stroke: rgb(239, 85, 59); stroke-opacity: 1; stroke-width: 2px; opacity: 1;"/></g><g class="points"/><g class="text"/></g><g class="trace scatter trace0f0f3b" style="stroke-miterlimit: 2; opacity: 1;"><g class="fills"/><g class="errorbars"/><g class="lines"><path class="js-line" d="M0,2.04L11.02,16.49L22.04,38.89L33.06,62.15L44.08,82.15L77.14,136.98L88.16,154.48L99.18,168.56L110.2,180.05L121.22,191.61L132.24,199.17L143.27,208.5L154.29,213.53L165.31,222.06L176.33,228.38L187.35,234.32L198.37,237.82L209.39,245.15L220.41,247.12L231.43,253.26L242.45,257.43L253.47,260.8L264.49,267.31L275.51,269.93L286.53,271.57L297.55,274.46L308.57,274.97L330.61,283.78L341.63,285.52L352.65,289.85L363.67,290.8L374.69,289.98L385.71,294.54L407.76,299.16L418.78,297.52L440.82,304.34L451.84,299.39L462.86,304.2L473.88,307.65L484.9,308.33L495.92,310.33L506.94,314.11L517.96,314.81L528.98,315.33L540,317.36" style="vector-effect: non-scaling-stroke; fill: none; stroke: rgb(0, 204, 150); stroke-opacity: 1; stroke-width: 2px; opacity: 1;"/></g><g class="points"/><g class="text"/></g><g class="trace scatter trace18afac" style="stroke-miterlimit: 2; opacity: 1;"><g class="fills"/><g class="errorbars"/><g class="lines"><path class="js-line" d="M0,2.16L11.02,16.8L22.04,39.36L33.06,62.64L44.08,82.49L77.14,136.91L88.16,154.06L99.18,168.11L110.2,179.71L121.22,190.78L132.24,198.63L143.27,208.02L154.29,212.35L165.31,221.27L176.33,227.95L209.39,243.6L220.41,245.69L231.43,252.87L242.45,255.82L253.47,259.04L264.49,265.09L286.53,269.69L297.55,271.33L308.57,274.28L319.59,278.99L330.61,279L341.63,283.46L352.65,287.36L363.67,288.01L385.71,293.12L396.73,294.86L407.76,297.99L418.78,299.66L429.8,300.04L440.82,302.01L451.84,302.66L462.86,304.6L484.9,306.91L495.92,309.02L506.94,312.96L517.96,313.18L528.98,314.54L540,314.38" style="vector-effect: non-scaling-stroke; fill: none; stroke: rgb(171, 99, 250); stroke-opacity: 1; stroke-width: 2px; opacity: 1;"/></g><g class="points"/><g class="text"/></g><g class="trace scatter trace32c33f" style="stroke-miterlimit: 2; opacity: 1;"><g class="fills"/><g class="errorbars"/><g class="lines"><path class="js-line" d="M0,1.99L11.02,16.51L22.04,38.69L33.06,61.9L44.08,81.57L77.14,135.44L88.16,152.79L99.18,167.06L110.2,178.63L121.22,190.21L132.24,197.93L143.27,207.67L154.29,212.09L165.31,220.91L176.33,227.11L187.35,232.79L198.37,237.58L209.39,243.91L220.41,243.37L231.43,251.47L242.45,255.73L253.47,260.14L264.49,265.98L286.53,269.63L297.55,272.48L308.57,274.3L319.59,277.6L330.61,278.22L341.63,284.03L352.65,288.6L363.67,289.47L374.69,285.47L385.71,293.24L407.76,297.85L418.78,297.86L429.8,299.08L440.82,302.96L462.86,303.1L473.88,306.42L484.9,307.48L495.92,309.64L506.94,312.32L517.96,311.9L528.98,314.08L540,314.76" style="vector-effect: non-scaling-stroke; fill: none; stroke: rgb(255, 161, 90); stroke-opacity: 1; stroke-width: 2px; opacity: 1;"/></g><g class="points"/><g class="text"/></g><g class="trace scatter trace56ca51" style="stroke-miterlimit: 2; opacity: 1;"><g class="fills"/><g class="errorbars"/><g class="lines"><path class="js-line" d="M0,2.06L11.02,16.64L22.04,38.98L33.06,62.06L44.08,81.83L77.14,135.97L88.16,153.28L99.18,167.5L110.2,178.97L121.22,190.7L132.24,198.3L143.27,207.64L154.29,212.8L165.31,221.26L176.33,227.82L198.37,238.69L209.39,242.78L220.41,244.43L231.43,252.52L253.47,258.51L264.49,265.85L275.51,268.56L286.53,270.48L297.55,271.07L308.57,276.02L319.59,278.71L330.61,280.35L352.65,288.93L363.67,287.94L396.73,296.25L407.76,298.13L418.78,294.3L429.8,299.43L440.82,303.74L451.84,304.05L473.88,305.66L484.9,308.67L506.94,310.92L517.96,314.01L528.98,313.55L540,315.97" style="vector-effect: non-scaling-stroke; fill: none; stroke: rgb(25, 211, 243); stroke-opacity: 1; stroke-width: 2px; opacity: 1;"/></g><g class="points"/><g class="text"/></g><g class="trace scatter traceb4b1b9" style="stroke-miterlimit: 2; opacity: 1;"><g class="fills"/><g class="errorbars"/><g class="lines"><path class="js-line" d="M0,2.15L11.02,16.89L22.04,39.68L33.06,63.18L44.08,83.27L77.14,138.4L88.16,155.76L99.18,169.68L110.2,181.16L121.22,192.45L132.24,200.56L143.27,208.87L154.29,213.35L165.31,222.4L176.33,228.69L198.37,239.8L209.39,242.74L220.41,247.15L231.43,253.57L253.47,260.87L264.49,266.21L286.53,270.08L297.55,272.48L308.57,277.97L319.59,280.11L341.63,284.94L352.65,287.6L363.67,290.04L374.69,290.19L396.73,295.21L407.76,299.53L418.78,299.84L429.8,300.91L440.82,304.43L451.84,305.59L462.86,306.63L473.88,309.05L484.9,305.95L495.92,311.19L506.94,314.08L517.96,313.08L528.98,316.36L540,311.06" style="vector-effect: non-scaling-stroke; fill: none; stroke: rgb(255, 102, 146); stroke-opacity: 1; stroke-width: 2px; opacity: 1;"/></g><g class="points"/><g class="text"/></g><g class="trace scatter trace24b5ff" style="stroke-miterlimit: 2; opacity: 1;"><g class="fills"/><g class="errorbars"/><g class="lines"><path class="js-line" d="M0,2.11L11.02,16.43L22.04,38.59L33.06,61.74L44.08,81.37L77.14,134.89L88.16,152.23L99.18,166.44L110.2,177.87L121.22,189.58L132.24,197.48L143.27,207.12L154.29,211.71L165.31,220.93L176.33,226.3L187.35,232.61L198.37,237.11L209.39,243.59L220.41,243.73L231.43,251.45L242.45,254.57L253.47,260.84L264.49,265.34L275.51,267.79L286.53,269.42L308.57,273.94L319.59,278.11L330.61,281.47L341.63,283.78L352.65,288.7L363.67,289.07L374.69,289.97L385.71,293.77L396.73,294.88L407.76,294.94L429.8,298.99L440.82,302.97L451.84,302.43L462.86,305.2L473.88,304.6L484.9,308.22L495.92,308.91L506.94,311.11L540,315.91" style="vector-effect: non-scaling-stroke; fill: none; stroke: rgb(182, 232, 128); stroke-opacity: 1; stroke-width: 2px; opacity: 1;"/></g><g class="points"/><g class="text"/></g><g class="trace scatter tracece6248" style="stroke-miterlimit: 2; opacity: 1;"><g class="fills"/><g class="errorbars"/><g class="lines"><path class="js-line" d="M0,1.95L11.02,16.34L22.04,38.75L33.06,61.86L44.08,81.47L77.14,134.65L88.16,151.7L99.18,165.81L110.2,177.75L121.22,188.94L132.24,196.52L143.27,206.42L154.29,210.84L165.31,220.29L176.33,226.04L187.35,230.98L198.37,236.9L220.41,244.14L231.43,250.28L275.51,267.2L286.53,269.35L308.57,275.47L319.59,276.81L341.63,281.81L352.65,286.48L374.69,288.4L385.71,291.08L396.73,294.84L407.76,297.23L418.78,297.3L429.8,299.26L440.82,301.37L451.84,299.82L462.86,303.45L473.88,305.83L484.9,308.02L495.92,307.35L506.94,310.04L517.96,310.26L528.98,311.67L540,315" style="vector-effect: non-scaling-stroke; fill: none; stroke: rgb(255, 151, 255); stroke-opacity: 1; stroke-width: 2px; opacity: 1;"/></g><g class="points"/><g class="text"/></g><g class="trace scatter traceb97cb2" style="stroke-miterlimit: 2; opacity: 1;"><g class="fills"/><g class="errorbars"/><g class="lines"><path class="js-line" d="M0,2.18L11.02,16.8L22.04,39.6L33.06,62.97L44.08,82.99L66.12,120.27L77.14,138.21L88.16,155.47L99.18,169.41L121.22,192.07L132.24,199.85L143.27,208.38L154.29,213.74L165.31,222.32L176.33,229.05L187.35,234.67L198.37,238.9L209.39,244.43L220.41,247.66L231.43,253.97L242.45,255.17L253.47,260.63L264.49,266.96L275.51,269.59L286.53,269.62L297.55,272.87L308.57,277.81L330.61,281.94L341.63,285.24L352.65,289.5L363.67,291.44L374.69,290L385.71,293.61L407.76,299.08L418.78,298.07L429.8,301.03L440.82,303L451.84,301.4L462.86,305.15L495.92,309.27L506.94,312.21L517.96,309.64L528.98,314.63L540,316.24" style="vector-effect: non-scaling-stroke; fill: none; stroke: rgb(254, 203, 82); stroke-opacity: 1; stroke-width: 2px; opacity: 1;"/></g><g class="points"/><g class="text"/></g></g></g><g class="overplot"/><path class="xlines-above crisp" d="M0,0" style="fill: none;"/><path class="ylines-above crisp" d="M0,0" style="fill: none;"/><g class="overlines-above"/><g class="xaxislayer-above"><g class="xtick"><text text-anchor="middle" x="0" y="433" transform="translate(80,0)" style="font-family: 'Open Sans', verdana, arial, sans-serif; font-size: 12px; fill: rgb(42, 63, 95); fill-opacity: 1; white-space: pre; opacity: 1;">0</text></g><g class="xtick"><text text-anchor="middle" x="0" y="433" style="font-family: 'Open Sans', verdana, arial, sans-serif; font-size: 12px; fill: rgb(42, 63, 95); fill-opacity: 1; white-space: pre; opacity: 1;" transform="translate(190.2,0)">10</text></g><g class="xtick"><text text-anchor="middle" x="0" y="433" style="font-family: 'Open Sans', verdana, arial, sans-serif; font-size: 12px; fill: rgb(42, 63, 95); fill-opacity: 1; white-space: pre; opacity: 1;" transform="translate(300.40999999999997,0)">20</text></g><g class="xtick"><text text-anchor="middle" x="0" y="433" style="font-family: 'Open Sans', verdana, arial, sans-serif; font-size: 12px; fill: rgb(42, 63, 95); fill-opacity: 1; white-space: pre; opacity: 1;" transform="translate(410.61,0)">30</text></g><g class="xtick"><text text-anchor="middle" x="0" y="433" style="font-family: 'Open Sans', verdana, arial, sans-serif; font-size: 12px; fill: rgb(42, 63, 95); fill-opacity: 1; white-space: pre; opacity: 1;" transform="translate(520.8199999999999,0)">40</text></g></g><g class="yaxislayer-above"><g class="ytick"><text text-anchor="end" x="79" y="4.199999999999999" transform="translate(0,344.05)" style="font-family: 'Open Sans', verdana, arial, sans-serif; font-size: 12px; fill: rgb(42, 63, 95); fill-opacity: 1; white-space: pre; opacity: 1;">4</text></g><g class="ytick"><text text-anchor="end" x="79" y="4.199999999999999" style="font-family: 'Open Sans', verdana, arial, sans-serif; font-size: 12px; fill: rgb(42, 63, 95); fill-opacity: 1; white-space: pre; opacity: 1;" transform="translate(0,265.81)">4.5</text></g><g class="ytick"><text text-anchor="end" x="79" y="4.199999999999999" style="font-family: 'Open Sans', verdana, arial, sans-serif; font-size: 12px; fill: rgb(42, 63, 95); fill-opacity: 1; white-space: pre; opacity: 1;" transform="translate(0,187.57)">5</text></g><g class="ytick"><text text-anchor="end" x="79" y="4.199999999999999" style="font-family: 'Open Sans', verdana, arial, sans-serif; font-size: 12px; fill: rgb(42, 63, 95); fill-opacity: 1; white-space: pre; opacity: 1;" transform="translate(0,109.33)">5.5</text></g></g><g class="overaxes-above"/></g></g><g class="polarlayer"/><g class="ternarylayer"/><g class="geolayer"/><g class="funnelarealayer"/><g class="pielayer"/><g class="iciclelayer"/><g class="treemaplayer"/><g class="sunburstlayer"/><g class="glimages"/><defs id="topdefs-fb950d"><g class="clips"/></defs><g class="layer-above"><g class="imagelayer"/><g class="shapelayer"/></g><g class="infolayer"><g class="g-gtitle"><text class="gtitle" x="35" y="50" text-anchor="start" dy="0em" style="font-family: 'Open Sans', verdana, arial, sans-serif; font-size: 17px; fill: rgb(42, 63, 95); opacity: 1; font-weight: normal; white-space: pre;">Train Loss: dpav4-eff_cnn (with early stopping)</text></g><g class="g-xtitle"/><g class="g-ytitle"/></g></svg>