<svg class="main-svg" xmlns="http://www.w3.org/2000/svg" xmlns:xlink="http://www.w3.org/1999/xlink" width="700" height="500" style="" viewBox="0 0 700 500"><rect x="0" y="0" width="700" height="500" style="fill: rgb(255, 255, 255); fill-opacity: 1;"/><defs id="defs-40da88"><g class="clips"><clipPath id="clip40da88xyplot" class="plotclip"><rect width="540" height="320"/></clipPath><clipPath class="axesclip" id="clip40da88x"><rect x="80" y="0" width="540" height="500"/></clipPath><clipPath class="axesclip" id="clip40da88y"><rect x="0" y="100" width="700" height="320"/></clipPath><clipPath class="axesclip" id="clip40da88xy"><rect x="80" y="100" width="540" height="320"/></clipPath></g><g class="gradients"/><g class="patterns"/></defs><g class="bglayer"><rect class="bg" x="80" y="100" width="540" height="320" style="fill: rgb(229, 236, 246); fill-opacity: 1; stroke-width: 0;"/></g><g class="layer-below"><g class="imagelayer"/><g class="shapelayer"/></g><g class="cartesianlayer"><g class="subplot xy"><g class="layer-subplot"><g class="shapelayer"/><g class="imagelayer"/></g><g class="gridlayer"><g class="x"><path class="xgrid crisp" transform="translate(190.2,0)" d="M0,100v320" style="stroke: rgb(255, 255, 255); stroke-opacity: 1; stroke-width: 1px;"/><path class="xgrid crisp" transform="translate(300.40999999999997,0)" d="M0,100v320" style="stroke: rgb(255, 255, 255); stroke-opacity: 1; stroke-width: 1px;"/><path class="xgrid crisp" transform="translate(410.61,0)" d="M0,100v320" style="stroke: rgb(255, 255, 255); stroke-opacity: 1; stroke-width: 1px;"/><path class="xgrid crisp" transform="translate(520.8199999999999,0)" d="M0,100v320" style="stroke: rgb(255, 255, 255); stroke-opacity: 1; stroke-width: 1px;"/></g><g class="y"><path class="ygrid crisp" transform="translate(0,344.05)" d="M80,0h540" style="stroke: rgb(255, 255, 255); stroke-opacity: 1; stroke-width: 1px;"/><path class="ygrid crisp" transform="translate(0,265.81)" d="M80,0h540" style="stroke: rgb(255, 255, 255); stroke-opacity: 1; stroke-width: 1px;"/><path class="ygrid crisp" transform="translate(0,187.57)" d="M80,0h540" style="stroke: rgb(255, 255, 255); stroke-opacity: 1; stroke-width: 1px;"/><path class="ygrid crisp" transform="translate(0,109.33)" d="M80,0h540" style="stroke: rgb(255, 255, 255); stroke-opacity: 1; stroke-width: 1px;"/></g></g><g class="zerolinelayer"><path class="xzl zl crisp" transform="translate(80,0)" d="M0,100v320" style="stroke: rgb(255, 255, 255); stroke-opacity: 1; stroke-width: 2px;"/></g><path class="xlines-below"/><path class="ylines-below"/><g class="overlines-below"/><g class="xaxislayer-below"/><g class="yaxislayer-below"/><g class="overaxes-below"/><g class="plot" transform="translate(80,100)" clip-path="url(#clip40da88xyplot)"><g class="scatterlayer mlayer"><g class="trace scatter tracec9883e" style="stroke-miterlimit: 2; opacity: 1;"><g class="fills"/><g class="errorbars"/><g class="lines"><path class="js-line" d="M0,2.01L11.02,16.41L22.04,38.39L33.06,61.05L44.08,80.5L88.16,150L99.18,164.36L121.22,188.01L132.24,196.07L143.27,205.86L154.29,210.26L165.31,219.43L176.33,225.5L187.35,230.7L198.37,237.46L209.39,242.19L220.41,242.57L231.43,249.82L242.45,251.47L253.47,258.19L264.49,263.98L286.53,268.91L297.55,270.83L330.61,281.03L341.63,280.38L352.65,285.65L363.67,288.19L374.69,287.54L385.71,292.34L407.76,297.1L418.78,297.41L429.8,295.42L440.82,301.58L451.84,299.02L462.86,302.15L473.88,304.12L484.9,307.27L495.92,308.11L506.94,299.92L517.96,312.03L528.98,312.93L540,314.55" style="vector-effect: non-scaling-stroke; fill: none; stroke: rgb(99, 110, 250); stroke-opacity: 1; stroke-width: 2px; opacity: 1;"/></g><g class="points"/><g class="text"/></g><g class="trace scatter trace90fa9b" style="stroke-miterlimit: 2; opacity: 1;"><g class="fills"/><g class="errorbars"/><g class="lines"><path class="js-line" d="M0,0.21L11.02,7.77L22.04,24.51L33.06,54.05L44.08,86.54L55.1,114.5L66.12,137.18L77.14,155.78L88.16,168.66L99.18,182.11L110.2,192.22L121.22,201.7L132.24,207.61L143.27,216.4L154.29,224.19L165.31,227.76L176.33,233.38L198.37,245.04L209.39,248.34L220.41,254.3L231.43,257.61L242.45,261.91L253.47,263.96L264.49,266.14L275.51,270.99L286.53,274.92L297.55,276.43L308.57,276.66L319.59,281.78L330.61,286.21L341.63,287.44L352.65,290.74L363.67,291.43L374.69,293.41L385.71,291.93L396.73,296.36L407.76,298.03L418.78,297.98L429.8,302.12L440.82,303.8L451.84,306.96L462.86,307.87L473.88,305.55L484.9,311.94L495.92,309.14L506.94,312.87L517.96,315.52L528.98,317.24L540,316.18" style="vector-effect: non-scaling-stroke; fill: none; stroke: rgb(239, 85, 59); stroke-opacity: 1; stroke-width: 2px; opacity: 1;"/></g><g class="points"/><g class="text"/></g><g class="trace scatter trace1e3947" style="stroke-miterlimit: 2; opacity: 1;"><g class="fills"/><g class="errorbars"/><g class="lines"><path class="js-line" d="M0,2.13L11.02,16.84L22.04,39.45L33.06,62.8L44.08,82.76L77.14,137.29L88.16,154.32L99.18,168.24L110.2,179.67L121.22,190.96L132.24,198.68L143.27,208.1L154.29,211.59L165.31,221.16L176.33,228.01L209.39,243.7L220.41,245.5L231.43,252.76L242.45,254.21L253.47,260.33L264.49,264.63L275.51,268.42L286.53,269.78L297.55,273.4L308.57,274.44L319.59,279.07L330.61,281.29L341.63,283.14L352.65,287.47L363.67,287.54L374.69,290.77L407.76,297.37L418.78,296.24L429.8,297.15L440.82,301.13L451.84,300.93L462.86,304.03L484.9,307.84L495.92,308.36L506.94,311.69L517.96,311.26L528.98,313.1L540,311.07" style="vector-effect: non-scaling-stroke; fill: none; stroke: rgb(0, 204, 150); stroke-opacity: 1; stroke-width: 2px; opacity: 1;"/></g><g class="points"/><g class="text"/></g><g class="trace scatter trace1467fe" style="stroke-miterlimit: 2; opacity: 1;"><g class="fills"/><g class="errorbars"/><g class="lines"><path class="js-line" d="M0,0.21L11.02,7.82L22.04,24.53L33.06,53.85L44.08,86.13L55.1,114.06L66.12,136.82L77.14,155.43L88.16,168.21L99.18,181.92L110.2,191.87L121.22,201.42L132.24,207.53L154.29,224.01L165.31,228.34L187.35,238.72L198.37,245.02L209.39,248.92L220.41,253.84L242.45,262.18L253.47,264.2L264.49,267.05L275.51,270.93L286.53,274.46L297.55,275.36L308.57,278.61L319.59,282.67L352.65,289.4L363.67,290.27L374.69,294.26L385.71,291.89L396.73,297.33L407.76,298.73L418.78,296.66L429.8,301.54L451.84,307.32L462.86,307.02L473.88,305.29L484.9,311.61L495.92,309.8L506.94,314.76L540,318.75" style="vector-effect: non-scaling-stroke; fill: none; stroke: rgb(171, 99, 250); stroke-opacity: 1; stroke-width: 2px; opacity: 1;"/></g><g class="points"/><g class="text"/></g><g class="trace scatter trace664083" style="stroke-miterlimit: 2; opacity: 1;"><g class="fills"/><g class="errorbars"/><g class="lines"><path class="js-line" d="M0,0.21L11.02,7.7L22.04,24.61L33.06,54.23L44.08,86.88L55.1,114.85L66.12,137.48L77.14,156L88.16,168.94L99.18,182.21L110.2,192.32L121.22,201.68L132.24,207.63L143.27,216.43L154.29,224.16L176.33,232.51L187.35,239.44L198.37,245.72L209.39,249.18L220.41,255.16L231.43,258.64L253.47,265.31L264.49,267.77L286.53,275.12L297.55,276.9L308.57,278.14L319.59,282.51L330.61,286.54L341.63,287.99L352.65,289.65L363.67,290.4L374.69,293.17L385.71,293.25L396.73,296.87L407.76,298.63L418.78,294.62L429.8,302.67L462.86,309.11L473.88,308.35L484.9,312L495.92,311.16L506.94,315.31L517.96,316.75L528.98,316.96L540,319.98" style="vector-effect: non-scaling-stroke; fill: none; stroke: rgb(255, 161, 90); stroke-opacity: 1; stroke-width: 2px; opacity: 1;"/></g><g class="points"/><g class="text"/></g><g class="trace scatter trace03d6f6" style="stroke-miterlimit: 2; opacity: 1;"><g class="fills"/><g class="errorbars"/><g class="lines"><path class="js-line" d="M0,1.97L11.02,16.38L22.04,38.88L33.06,62.28L44.08,82.16L77.14,136.52L88.16,153.78L99.18,167.78L110.2,179.49L121.22,190.67L132.24,198.43L143.27,207.7L154.29,212.95L165.31,221.52L176.33,227.86L187.35,233.04L198.37,239.06L209.39,244.43L220.41,244.33L231.43,252.51L242.45,255.29L264.49,265.87L275.51,268.82L297.55,272L308.57,275.4L319.59,279.43L330.61,280.47L341.63,282.62L352.65,289.19L363.67,289.93L374.69,288.54L385.71,293.87L396.73,296.64L418.78,298.72L429.8,301.77L440.82,303.47L451.84,298.36L462.86,305.29L473.88,304.95L484.9,308.61L495.92,308.92L528.98,314.93L540,316.19" style="vector-effect: non-scaling-stroke; fill: none; stroke: rgb(25, 211, 243); stroke-opacity: 1; stroke-width: 2px; opacity: 1;"/></g><g class="points"/><g class="text"/></g><g class="trace scatter trace25f4da" style="stroke-miterlimit: 2; opacity: 1;"><g class="fills"/><g class="errorbars"/><g class="lines"><path class="js-line" d="M0,0.12L11.02,8.1L22.04,24.56L33.06,53.71L44.08,85.4L55.1,113.14L66.12,135.94L77.14,154.79L88.16,167.84L99.18,181.51L110.2,191.45L121.22,201.46L132.24,207.06L154.29,223.57L165.31,227.62L176.33,231.71L187.35,237.73L198.37,244.54L209.39,248.17L242.45,260.75L253.47,262.99L264.49,263.79L275.51,268.66L286.53,273.33L297.55,274.66L319.59,280.67L330.61,282.22L341.63,286.14L352.65,285.37L363.67,290.54L374.69,291.66L385.71,291.97L396.73,296.61L407.76,297.02L418.78,294.54L429.8,301.35L440.82,301.51L451.84,305.46L462.86,306.39L473.88,307.41L484.9,310.55L506.94,313.83L517.96,310.09L528.98,316.68L540,318.03" style="vector-effect: non-scaling-stroke; fill: none; stroke: rgb(255, 102, 146); stroke-opacity: 1; stroke-width: 2px; opacity: 1;"/></g><g class="points"/><g class="text"/></g><g class="trace scatter tracef62506" style="stroke-miterlimit: 2; opacity: 1;"><g class="fills"/><g class="errorbars"/><g class="lines"><path class="js-line" d="M0,2.08L11.02,16.56L22.04,38.51L33.06,61.41L44.08,80.76L88.16,150.74L99.18,164.97L121.22,188.49L132.24,195.72L143.27,205.98L154.29,211.53L165.31,219.99L176.33,225.26L187.35,231.62L198.37,236.78L209.39,242.44L220.41,242.2L231.43,250.61L242.45,254.45L253.47,257.47L264.49,264.11L297.55,272.13L308.57,272.47L330.61,282.29L341.63,283.12L352.65,287.66L363.67,289.42L374.69,289.36L385.71,293.23L396.73,295.22L407.76,295.51L418.78,296.04L429.8,298.7L440.82,302.86L451.84,302.75L462.86,305.19L473.88,304.6L484.9,307.9L495.92,308.35L506.94,311.32L517.96,313.16L528.98,313.64L540,315.94" style="vector-effect: non-scaling-stroke; fill: none; stroke: rgb(182, 232, 128); stroke-opacity: 1; stroke-width: 2px; opacity: 1;"/></g><g class="points"/><g class="text"/></g><g class="trace scatter traceed0f9a" style="stroke-miterlimit: 2; opacity: 1;"><g class="fills"/><g class="errorbars"/><g class="lines"><path class="js-line" d="M0,2.03L11.02,16.36L22.04,38.61L33.06,61.81L44.08,81.67L77.14,136.16L88.16,153.6L99.18,167.74L110.2,179.2L121.22,190.93L132.24,198.79L143.27,208.14L154.29,212.82L165.31,221.42L176.33,227.69L198.37,238.53L209.39,244.28L220.41,246.67L231.43,253.56L242.45,254.83L253.47,261.01L264.49,266.61L275.51,269.47L286.53,270.46L297.55,273.49L308.57,276.95L319.59,279.25L330.61,280.82L341.63,284.19L352.65,289.81L363.67,291.07L374.69,291.87L385.71,294.08L396.73,296.62L407.76,298.13L440.82,303.34L451.84,298.07L462.86,306.12L473.88,307.86L495.92,310.55L506.94,313.09L540,317.1" style="vector-effect: non-scaling-stroke; fill: none; stroke: rgb(255, 151, 255); stroke-opacity: 1; stroke-width: 2px; opacity: 1;"/></g><g class="points"/><g class="text"/></g><g class="trace scatter traceeb69d3" style="stroke-miterlimit: 2; opacity: 1;"><g class="fills"/><g class="errorbars"/><g class="lines"><path class="js-line" d="M0,2.03L11.02,16.54L22.04,38.74L33.06,61.89L44.08,81.54L77.14,134.89L88.16,152.44L99.18,166.53L110.2,178.11L121.22,189.76L132.24,197.76L143.27,206.82L154.29,212.21L165.31,221.15L176.33,227.17L198.37,236.74L209.39,243.87L220.41,244.15L231.43,251.63L242.45,254.52L253.47,260L264.49,265.39L275.51,267.9L297.55,271.25L308.57,274.93L319.59,279.22L330.61,280.69L341.63,283.4L352.65,288.17L363.67,289.04L374.69,287.75L385.71,293.58L396.73,294.15L407.76,293.66L418.78,298.18L429.8,300.23L440.82,303.4L451.84,301.07L462.86,304.6L473.88,306.99L484.9,306.97L495.92,309.31L506.94,308.67L517.96,313.61L528.98,313.73L540,314.68" style="vector-effect: non-scaling-stroke; fill: none; stroke: rgb(254, 203, 82); stroke-opacity: 1; stroke-width: 2px; opacity: 1;"/></g><g class="points"/><g class="text"/></g><g class="trace scatter trace8b3c63" style="stroke-miterlimit: 2; opacity: 1;"><g class="fills"/><g class="errorbars"/><g class="lines"><path class="js-line" d="M0,2.05L11.02,16.56L22.04,38.95L33.06,61.84L44.08,81.38L88.16,151.53L99.18,165.78L121.22,188.93L132.24,196.58L143.27,206.39L154.29,211.46L165.31,220.56L176.33,226.02L209.39,242.51L220.41,243.88L231.43,250.53L242.45,253.29L264.49,264.23L275.51,267.46L286.53,269.61L297.55,270.81L308.57,273.32L319.59,278.66L341.63,282.75L352.65,287.33L363.67,288.27L374.69,285.42L385.71,293.04L396.73,295.76L418.78,296.83L429.8,295.54L440.82,300.76L451.84,300.28L462.86,302.95L473.88,306.74L495.92,308.94L506.94,309.01L517.96,313.05L528.98,313.8L540,315.45" style="vector-effect: non-scaling-stroke; fill: none; stroke: rgb(99, 110, 250); stroke-opacity: 1; stroke-width: 2px; opacity: 1;"/></g><g class="points"/><g class="text"/></g><g class="trace scatter tracede7d7b" style="stroke-miterlimit: 2; opacity: 1;"><g class="fills"/><g class="errorbars"/><g class="lines"><path class="js-line" d="M0,2L11.02,16.54L22.04,38.78L33.06,61.75L44.08,81.23L77.14,134.44L88.16,151.76L99.18,165.79L110.2,177.32L121.22,189.24L132.24,196.52L143.27,206.8L154.29,211.62L165.31,220.12L176.33,225.97L187.35,232.51L198.37,237.19L209.39,243.42L220.41,245.76L231.43,251.65L242.45,255.19L253.47,260.96L264.49,264.43L275.51,267.91L286.53,269.69L297.55,270.89L308.57,267.53L319.59,277.88L330.61,281.13L341.63,283.45L352.65,287.82L363.67,289.77L374.69,290.95L396.73,296.3L407.76,297.69L418.78,295.92L429.8,299.14L440.82,302.16L451.84,294.45L462.86,304.84L473.88,305.81L484.9,308.85L495.92,307.93L506.94,313.06L517.96,312.42L540,314.27" style="vector-effect: non-scaling-stroke; fill: none; stroke: rgb(239, 85, 59); stroke-opacity: 1; stroke-width: 2px; opacity: 1;"/></g><g class="points"/><g class="text"/></g><g class="trace scatter trace899883" style="stroke-miterlimit: 2; opacity: 1;"><g class="fills"/><g class="errorbars"/><g class="lines"><path class="js-line" d="M0,2L11.02,16.33L22.04,38.08L33.06,60.8L44.08,80.31L88.16,151.13L99.18,165.65L121.22,189.22L132.24,197.77L143.27,207.41L154.29,212.22L165.31,220.79L176.33,226.97L209.39,244.25L220.41,247.03L231.43,252.53L242.45,256.51L253.47,260.78L264.49,266.85L275.51,269.12L286.53,270.23L297.55,273.55L308.57,271.72L319.59,279.71L330.61,283.04L341.63,283.41L352.65,288L374.69,290.28L385.71,293.55L407.76,297.54L418.78,296.07L429.8,301.31L440.82,304L451.84,302.97L462.86,305.39L473.88,307.7L484.9,308.26L495.92,307.73L506.94,300.17L517.96,313.2L528.98,313.9L540,316.82" style="vector-effect: non-scaling-stroke; fill: none; stroke: rgb(0, 204, 150); stroke-opacity: 1; stroke-width: 2px; opacity: 1;"/></g><g class="points"/><g class="text"/></g><g class="trace scatter trace295b1a" style="stroke-miterlimit: 2; opacity: 1;"><g class="fills"/><g class="errorbars"/><g class="lines"><path class="js-line" d="M0,2.01L11.02,16.54L22.04,38.76L33.06,61.84L44.08,81.63L77.14,135.25L88.16,152.81L99.18,167.03L110.2,178.73L121.22,190.2L132.24,197.98L143.27,207.1L154.29,212.42L165.31,221.03L176.33,226.77L209.39,244.16L220.41,244.62L231.43,252.44L242.45,253.38L253.47,259.7L264.49,265.11L286.53,269.46L297.55,273.45L308.57,274.07L319.59,278.79L341.63,284.01L352.65,288.76L363.67,290.04L374.69,288.92L385.71,293.13L396.73,295.98L407.76,297.82L418.78,292.61L429.8,298.94L440.82,302.55L451.84,295.42L462.86,306.32L473.88,306.51L484.9,308.63L528.98,314.94L540,314.68" style="vector-effect: non-scaling-stroke; fill: none; stroke: rgb(171, 99, 250); stroke-opacity: 1; stroke-width: 2px; opacity: 1;"/></g><g class="points"/><g class="text"/></g><g class="trace scatter traceccb147" style="stroke-miterlimit: 2; opacity: 1;"><g class="fills"/><g class="errorbars"/><g class="lines"><path class="js-line" d="M0,1.93L11.02,16.24L22.04,38.96L33.06,62.48L44.08,82.48L77.14,137.24L88.16,154.33L99.18,168.33L110.2,179.79L121.22,190.63L132.24,199.18L143.27,208.4L154.29,213.24L165.31,221.66L176.33,228.6L209.39,243.4L220.41,248.07L231.43,252.37L242.45,255.72L253.47,261.2L264.49,264.15L275.51,267.76L286.53,269.53L308.57,276.53L319.59,278.84L330.61,281.77L341.63,280.88L352.65,287.65L363.67,289.17L374.69,290.86L385.71,293.74L396.73,295.83L407.76,297.06L418.78,300.05L429.8,297.79L440.82,301.75L451.84,302.02L462.86,305.67L473.88,306.29L484.9,306.15L495.92,308.77L506.94,310.76L517.96,313.7L528.98,311.25L540,310.6" style="vector-effect: non-scaling-stroke; fill: none; stroke: rgb(255, 161, 90); stroke-opacity: 1; stroke-width: 2px; opacity: 1;"/></g><g class="points"/><g class="text"/></g><g class="trace scatter trace7bf459" style="stroke-miterlimit: 2; opacity: 1;"><g class="fills"/><g class="errorbars"/><g class="lines"><path class="js-line" d="M0,2.05L11.02,16.47L22.04,38.57L33.06,61.67L44.08,81.35L77.14,134.97L88.16,152.41L99.18,166.58L110.2,178.16L121.22,189.71L132.24,197.82L143.27,207.46L154.29,212.33L165.31,220.83L176.33,226.94L187.35,232.68L198.37,237.34L209.39,243.87L220.41,244.35L231.43,251.5L242.45,254.67L253.47,259.65L264.49,265.62L297.55,271.72L308.57,275.58L319.59,279.55L330.61,282.49L341.63,283.44L352.65,288.78L374.69,289.7L385.71,291.94L396.73,296.23L407.76,297.03L418.78,296.76L429.8,299.68L440.82,303.36L451.84,298.47L462.86,304.31L473.88,307.43L484.9,306.95L495.92,308.74L506.94,310.86L517.96,311.32L528.98,313.89L540,315.51" style="vector-effect: non-scaling-stroke; fill: none; stroke: rgb(25, 211, 243); stroke-opacity: 1; stroke-width: 2px; opacity: 1;"/></g><g class="points"/><g class="text"/></g><g class="trace scatter traceaa826e" style="stroke-miterlimit: 2; opacity: 1;"><g class="fills"/><g class="errorbars"/><g class="lines"><path class="js-line" d="M0,2.1L11.02,16.75L22.04,39.28L33.06,62.29L44.08,81.93L77.14,135.38L88.16,152.5L99.18,166.54L110.2,177.61L121.22,189.36L132.24,196.99L143.27,206.67L154.29,210.86L165.31,220.23L176.33,226.35L187.35,231.34L198.37,237.35L209.39,242.29L220.41,244.8L231.43,250.75L242.45,252.45L253.47,256.87L264.49,263.8L286.53,269.12L297.55,271.72L308.57,274.32L319.59,276.09L352.65,286.45L363.67,286.49L374.69,283.97L385.71,291.47L396.73,294.91L407.76,296.31L418.78,298.45L429.8,292.08L451.84,300.77L462.86,302.21L473.88,298.9L484.9,305.93L495.92,308.06L506.94,298.46L517.96,310.79L528.98,312.11L540,311.59" style="vector-effect: non-scaling-stroke; fill: none; stroke: rgb(255, 102, 146); stroke-opacity: 1; stroke-width: 2px; opacity: 1;"/></g><g class="points"/><g class="text"/></g><g class="trace scatter trace967dd1" style="stroke-miterlimit: 2; opacity: 1;"><g class="fills"/><g class="errorbars"/><g class="lines"><path class="js-line" d="M0,2.04L11.02,16.37L22.04,38.76L33.06,62.25L44.08,82.22L77.14,136.76L88.16,154.08L99.18,168.14L110.2,179.74L121.22,190.76L132.24,198.83L143.27,208.08L154.29,212.94L165.31,221.5L176.33,228.41L187.35,233.78L198.37,237.55L209.39,244.41L220.41,247.09L231.43,253.1L242.45,255.83L253.47,258.91L264.49,264.89L275.51,269.35L286.53,269.44L297.55,272.82L308.57,272.4L319.59,279.61L330.61,281.94L352.65,288.26L363.67,290.26L374.69,292.51L385.71,293.34L396.73,294.05L407.76,297.73L418.78,298.16L429.8,300.23L440.82,302.73L451.84,301.97L462.86,303.5L473.88,306.6L484.9,307.21L495.92,310.11L506.94,312.29L517.96,313.45L528.98,315.27L540,315.64" style="vector-effect: non-scaling-stroke; fill: none; stroke: rgb(182, 232, 128); stroke-opacity: 1; stroke-width: 2px; opacity: 1;"/></g><g class="points"/><g class="text"/></g><g class="trace scatter traced36991" style="stroke-miterlimit: 2; opacity: 1;"><g class="fills"/><g class="errorbars"/><g class="lines"><path class="js-line" d="M0,2.12L11.02,16.68L22.04,39.54L33.06,62.56L44.08,82.02L77.14,135.16L88.16,152.46L99.18,166.57L110.2,177.46L121.22,189.4L132.24,196.85L143.27,206.76L154.29,211.33L165.31,220.39L176.33,226.34L187.35,232.08L198.37,236.4L209.39,242.22L220.41,245.75L231.43,250.17L242.45,253.18L253.47,259.54L264.49,263.79L286.53,269.7L297.55,272.4L308.57,271.67L319.59,276.14L330.61,280.23L341.63,281.72L352.65,287.12L363.67,288L374.69,286.4L385.71,291.87L407.76,297.23L418.78,298.37L429.8,298.42L440.82,299.56L451.84,300.58L462.86,304.45L473.88,304.48L484.9,306.6L495.92,307.02L506.94,311.49L517.96,311.53L528.98,313.96L540,311.62" style="vector-effect: non-scaling-stroke; fill: none; stroke: rgb(255, 151, 255); stroke-opacity: 1; stroke-width: 2px; opacity: 1;"/></g><g class="points"/><g class="text"/></g><g class="trace scatter trace211a0e" style="stroke-miterlimit: 2; opacity: 1;"><g class="fills"/><g class="errorbars"/><g class="lines"><path class="js-line" d="M0,2.02L11.02,16.57L22.04,38.85L33.06,61.74L44.08,81.31L77.14,134.47L88.16,151.66L99.18,165.76L110.2,177.47L121.22,189.07L132.24,196.65L143.27,206.28L154.29,211.54L165.31,219.87L176.33,225.83L187.35,230.65L198.37,237.47L209.39,241.72L220.41,244.54L231.43,250.05L242.45,252.61L253.47,256.65L264.49,264.06L275.51,265.81L286.53,268.91L297.55,271.13L308.57,275.58L341.63,283.03L352.65,286.92L374.69,288.31L385.71,292.49L407.76,296.16L418.78,295.58L440.82,301.61L451.84,300.54L462.86,303.84L473.88,305.81L484.9,307.96L495.92,308.87L506.94,309.75L517.96,313.3L540,312.76" style="vector-effect: non-scaling-stroke; fill: none; stroke: rgb(254, 203, 82); stroke-opacity: 1; stroke-width: 2px; opacity: 1;"/></g><g class="points"/><g class="text"/></g><g class="trace scatter trace92ff5d" style="stroke-miterlimit: 2; opacity: 1;"><g class="fills"/><g class="errorbars"/><g class="lines"><path class="js-line" d="M0,2.02L11.02,16.5L22.04,38.55L33.06,61.84L44.08,81.51L77.14,135.04L88.16,152.54L99.18,166.71L110.2,178.1L121.22,189.85L132.24,197.67L143.27,207.46L154.29,211.83L165.31,220.77L176.33,226.96L198.37,238.07L209.39,243.48L220.41,244.49L231.43,251.6L253.47,258.7L264.49,265L297.55,272.82L308.57,274.14L319.59,279.05L330.61,282.13L341.63,284.65L352.65,288.97L374.69,290.47L385.71,293.72L407.76,298.12L418.78,293.88L429.8,295.41L440.82,302.12L451.84,303.87L462.86,304.6L473.88,303.13L484.9,308.07L495.92,309.92L506.94,310.64L517.96,314.02L528.98,314.1L540,315.52" style="vector-effect: non-scaling-stroke; fill: none; stroke: rgb(99, 110, 250); stroke-opacity: 1; stroke-width: 2px; opacity: 1;"/></g><g class="points"/><g class="text"/></g><g class="trace scatter tracecff249" style="stroke-miterlimit: 2; opacity: 1;"><g class="fills"/><g class="errorbars"/><g class="lines"><path class="js-line" d="M0,2.03L11.02,16.51L22.04,38.45L33.06,61.68L44.08,81.27L88.16,152.06L99.18,166.34L121.22,189.58L132.24,197.38L143.27,207.42L154.29,211.83L165.31,220.55L176.33,226.14L187.35,232.48L198.37,237.6L209.39,244.24L220.41,244.98L231.43,252L242.45,254.1L264.49,264.69L275.51,268.61L286.53,270.71L297.55,273.66L308.57,275.6L319.59,279.22L330.61,282.63L341.63,284.39L352.65,288.95L363.67,289.76L374.69,289.2L385.71,293.57L407.76,298.34L418.78,296.67L429.8,296.13L440.82,303.3L451.84,301.95L462.86,306.15L473.88,308.03L484.9,309.02L495.92,308.06L506.94,312.97L517.96,313.25L528.98,315.15L540,316.32" style="vector-effect: non-scaling-stroke; fill: none; stroke: rgb(239, 85, 59); stroke-opacity: 1; stroke-width: 2px; opacity: 1;"/></g><g class="points"/><g class="text"/></g><g class="trace scatter trace41185c" style="stroke-miterlimit: 2; opacity: 1;"><g class="fills"/><g class="errorbars"/><g class="lines"><path class="js-line" d="M0,2.07L11.02,16.4L22.04,38.65L33.06,61.87L44.08,81.69L77.14,135.92L88.16,153.31L99.18,167.6L110.2,178.53L121.22,190.7L132.24,198.35L143.27,207.96L154.29,212.63L165.31,221.39L176.33,227.5L187.35,233.1L198.37,236.86L209.39,243.82L220.41,244.89L231.43,252.52L242.45,256.2L253.47,260.54L264.49,265.77L275.51,268.95L286.53,270.15L308.57,274.48L319.59,279.76L330.61,281.15L341.63,283.67L352.65,289.07L363.67,289.62L374.69,292.67L385.71,294.42L396.73,296.8L407.76,298.2L418.78,299.39L429.8,297.87L440.82,303.65L451.84,295.41L462.86,304.25L473.88,307.69L506.94,312.59L517.96,313.13L528.98,314.1L540,316.67" style="vector-effect: non-scaling-stroke; fill: none; stroke: rgb(0, 204, 150); stroke-opacity: 1; stroke-width: 2px; opacity: 1;"/></g><g class="points"/><g class="text"/></g><g class="trace scatter trace7cdafa" style="stroke-miterlimit: 2; opacity: 1;"><g class="fills"/><g class="errorbars"/><g class="lines"><path class="js-line" d="M0,2.07L11.02,16.38L22.04,38.63L33.06,61.68L44.08,81.31L77.14,134.89L88.16,152.25L99.18,166.29L110.2,177.97L121.22,189.49L132.24,197.14L143.27,206.64L154.29,211.64L165.31,220.6L176.33,226.8L209.39,243.16L220.41,243.7L231.43,251.65L242.45,254.02L253.47,256.97L264.49,264.23L275.51,267.62L286.53,269.42L308.57,273.89L319.59,278.24L341.63,283.8L352.65,288.06L374.69,288.42L385.71,293.23L396.73,295.3L407.76,295.56L418.78,295.79L429.8,299.55L440.82,302.44L451.84,299.47L462.86,304.49L473.88,306.79L484.9,308.27L495.92,308.74L506.94,311.59L517.96,313.59L540,313.06" style="vector-effect: non-scaling-stroke; fill: none; stroke: rgb(171, 99, 250); stroke-opacity: 1; stroke-width: 2px; opacity: 1;"/></g><g class="points"/><g class="text"/></g><g class="trace scatter tracee944d0" style="stroke-miterlimit: 2; opacity: 1;"><g class="fills"/><g class="errorbars"/><g class="lines"><path class="js-line" d="M0,2.06L11.02,16.52L22.04,38.89L33.06,62.07L44.08,81.78L77.14,136.07L88.16,153.31L99.18,167.36L110.2,179.05L121.22,190.52L132.24,198.17L143.27,206.97L154.29,212.45L165.31,220.99L176.33,227.47L209.39,243.78L220.41,243.95L231.43,251.87L242.45,255.17L253.47,258.28L264.49,264.55L297.55,272.59L308.57,274.44L319.59,278.97L330.61,282.29L341.63,283.96L352.65,288.73L363.67,290.24L374.69,287.64L385.71,293.32L396.73,294.94L407.76,297.59L418.78,297.3L429.8,299.49L440.82,303.64L451.84,299.46L462.86,304.39L473.88,306.49L484.9,307.74L495.92,308.97L506.94,311.27L517.96,313.96L528.98,314.13L540,315.81" style="vector-effect: non-scaling-stroke; fill: none; stroke: rgb(255, 161, 90); stroke-opacity: 1; stroke-width: 2px; opacity: 1;"/></g><g class="points"/><g class="text"/></g><g class="trace scatter trace443756" style="stroke-miterlimit: 2; opacity: 1;"><g class="fills"/><g class="errorbars"/><g class="lines"><path class="js-line" d="M0,2.11L11.02,16.59L22.04,39.09L33.06,62.25L44.08,82.04L77.14,136.31L88.16,153.63L99.18,167.86L110.2,179.38L121.22,191.01L132.24,198.42L143.27,207.85L154.29,213.11L165.31,221.59L176.33,227.87L209.39,244.73L220.41,246.16L231.43,253.25L242.45,255.06L253.47,259.12L264.49,266.16L275.51,269.18L286.53,271.11L297.55,273.15L308.57,272.1L319.59,279.19L330.61,281.71L341.63,283.66L352.65,289.04L374.69,289.84L385.71,294.13L396.73,296.11L407.76,296.7L418.78,299.45L429.8,299.5L440.82,303.43L451.84,296.5L462.86,304.48L473.88,307.36L484.9,307.69L495.92,308.84L506.94,312.1L517.96,311.19L528.98,315.03L540,316.77" style="vector-effect: non-scaling-stroke; fill: none; stroke: rgb(25, 211, 243); stroke-opacity: 1; stroke-width: 2px; opacity: 1;"/></g><g class="points"/><g class="text"/></g><g class="trace scatter traceb5f512" style="stroke-miterlimit: 2; opacity: 1;"><g class="fills"/><g class="errorbars"/><g class="lines"><path class="js-line" d="M0,2.12L11.02,16.91L22.04,39.67L33.06,63.05L44.08,83.03L77.14,137.86L88.16,154.89L99.18,168.78L110.2,180.24L121.22,191.62L132.24,199.23L143.27,208.15L154.29,212.94L165.31,221.45L176.33,228.63L198.37,237.95L209.39,242.35L220.41,246.4L231.43,252.97L253.47,259.67L264.49,265.17L275.51,268L286.53,267.94L297.55,273.25L308.57,276.17L319.59,278.95L330.61,279.59L341.63,282.43L352.65,287.9L374.69,290.93L385.71,291.24L396.73,293.86L407.76,297.73L418.78,294.78L429.8,298.77L440.82,302.23L451.84,299.53L473.88,306.29L484.9,307.78L495.92,309.27L506.94,312.12L528.98,314.37L540,316.43" style="vector-effect: non-scaling-stroke; fill: none; stroke: rgb(255, 102, 146); stroke-opacity: 1; stroke-width: 2px; opacity: 1;"/></g><g class="points"/><g class="text"/></g><g class="trace scatter trace09370e" style="stroke-miterlimit: 2; opacity: 1;"><g class="fills"/><g class="errorbars"/><g class="lines"><path class="js-line" d="M0,1.96L11.02,16.32L22.04,38.43L33.06,61.33L44.08,80.89L88.16,151.18L99.18,165.55L121.22,188.72L132.24,196.74L143.27,206.35L154.29,211.03L165.31,219.83L176.33,225.78L209.39,242.41L220.41,243.18L231.43,251L242.45,254.94L253.47,257.26L264.49,264.72L275.51,267.89L286.53,268.91L308.57,273.46L319.59,279L341.63,282.8L352.65,288.15L363.67,289.39L374.69,289.8L385.71,293.25L396.73,295.85L407.76,293.72L418.78,296.6L429.8,300.38L440.82,302.62L451.84,298.82L462.86,304.58L495.92,309.25L506.94,297.45L517.96,312.7L528.98,314.2L540,316.52" style="vector-effect: non-scaling-stroke; fill: none; stroke: rgb(182, 232, 128); stroke-opacity: 1; stroke-width: 2px; opacity: 1;"/></g><g class="points"/><g class="text"/></g><g class="trace scatter trace30df7c" style="stroke-miterlimit: 2; opacity: 1;"><g class="fills"/><g class="errorbars"/><g class="lines"><path class="js-line" d="M0,2.05L11.02,16.61L22.04,38.93L33.06,62.06L44.08,81.77L77.14,135.24L88.16,152.6L99.18,166.53L110.2,178.4L121.22,189.76L132.24,197.39L143.27,206.78L154.29,211.77L165.31,220.74L176.33,226.66L198.37,237.98L209.39,242.12L220.41,243.29L231.43,251.39L242.45,253.08L253.47,258.06L264.49,264.28L275.51,268.02L286.53,268.7L297.55,272.14L308.57,274.54L319.59,278.72L330.61,281.79L341.63,282.24L352.65,287.42L363.67,289.19L374.69,290.67L385.71,293.43L396.73,295.78L407.76,296.21L418.78,295.51L429.8,297.34L440.82,300.55L451.84,300.69L462.86,303.81L473.88,302.34L484.9,308.02L495.92,309.14L506.94,312.64L517.96,313.28L528.98,313.89L540,315.54" style="vector-effect: non-scaling-stroke; fill: none; stroke: rgb(255, 151, 255); stroke-opacity: 1; stroke-width: 2px; opacity: 1;"/></g><g class="points"/><g class="text"/></g><g class="trace scatter tracecfe3a2" style="stroke-miterlimit: 2; opacity: 1;"><g class="fills"/><g class="errorbars"/><g class="lines"><path class="js-line" d="M0,1.91L11.02,16.38L22.04,38.85L33.06,62.38L44.08,82.25L77.14,136.16L88.16,153.63L99.18,167.61L110.2,178.83L121.22,190.62L132.24,198.43L143.27,207.99L154.29,212.7L165.31,221.1L176.33,227.41L187.35,233.31L198.37,238.18L209.39,244.51L220.41,245.47L231.43,252.56L242.45,255.93L264.49,265.73L275.51,268.4L297.55,272.3L308.57,268.66L319.59,279.2L330.61,278.79L341.63,279.97L352.65,288.13L374.69,290.06L385.71,293.42L407.76,297.68L418.78,297.82L429.8,299.5L440.82,302.71L451.84,290.73L462.86,304.75L473.88,305.37L484.9,307.14L495.92,308.99L506.94,312.54L517.96,313.12L528.98,312.64L540,315.26" style="vector-effect: non-scaling-stroke; fill: none; stroke: rgb(254, 203, 82); stroke-opacity: 1; stroke-width: 2px; opacity: 1;"/></g><g class="points"/><g class="text"/></g><g class="trace scatter trace49ca87" style="stroke-miterlimit: 2; opacity: 1;"><g class="fills"/><g class="errorbars"/><g class="lines"><path class="js-line" d="M0,2.05L11.02,16.59L22.04,38.88L33.06,62.15L44.08,81.91L77.14,136.37L88.16,153.68L99.18,167.77L110.2,179.33L121.22,190.68L132.24,198.54L143.27,208.01L154.29,212.67L165.31,221.47L176.33,228.11L198.37,237.66L209.39,244.63L220.41,245.26L231.43,252.54L253.47,260.3L264.49,266.1L275.51,269.19L286.53,270.56L297.55,273.11L308.57,272.21L319.59,280.44L330.61,283.02L341.63,283.86L352.65,289.56L363.67,290.69L374.69,290.71L385.71,294.06L396.73,296.44L407.76,298.11L418.78,294.71L429.8,300.58L440.82,303.54L451.84,301.37L462.86,304.94L484.9,307.87L495.92,309.1L506.94,313.19L517.96,314.34L540,315.58" style="vector-effect: non-scaling-stroke; fill: none; stroke: rgb(99, 110, 250); stroke-opacity: 1; stroke-width: 2px; opacity: 1;"/></g><g class="points"/><g class="text"/></g><g class="trace scatter trace4d9ba4" style="stroke-miterlimit: 2; opacity: 1;"><g class="fills"/><g class="errorbars"/><g class="lines"><path class="js-line" d="M0,2.03L11.02,16.38L22.04,38.77L33.06,62.09L44.08,81.9L77.14,135.95L88.16,153.13L99.18,167.18L110.2,179.03L121.22,190.29L132.24,198.06L143.27,206.96L154.29,212.5L165.31,220.97L176.33,227.54L209.39,243.85L220.41,245.63L231.43,251.85L242.45,254.55L253.47,256.45L264.49,265.09L297.55,271.91L308.57,275.45L319.59,278.79L330.61,280.22L341.63,282.98L352.65,288.05L363.67,290.02L374.69,291.01L385.71,293.32L396.73,296.53L407.76,296.98L418.78,298.71L429.8,298.93L440.82,303.73L451.84,287.59L462.86,304.32L473.88,307.53L484.9,309.49L495.92,310.06L506.94,312.89L517.96,312.45L528.98,314.95L540,315.99" style="vector-effect: non-scaling-stroke; fill: none; stroke: rgb(239, 85, 59); stroke-opacity: 1; stroke-width: 2px; opacity: 1;"/></g><g class="points"/><g class="text"/></g><g class="trace scatter trace383a9e" style="stroke-miterlimit: 2; opacity: 1;"><g class="fills"/><g class="errorbars"/><g class="lines"><path class="js-line" d="M0,2.01L11.02,16.39L22.04,38.59L33.06,61.75L44.08,81.57L77.14,135.69L88.16,153.31L99.18,167.63L110.2,179.12L121.22,190.58L132.24,198.42L143.27,208.41L154.29,213.17L165.31,221.58L176.33,227.47L187.35,233.14L198.37,237.74L209.39,244.47L220.41,245.3L231.43,252.7L242.45,257.94L253.47,260.43L264.49,266.72L275.51,269.46L286.53,270.55L297.55,273.3L308.57,275.25L330.61,283.04L341.63,284.56L352.65,288.89L363.67,290.41L374.69,289.28L385.71,293.46L396.73,296.21L407.76,296.94L418.78,299.15L429.8,299.59L440.82,301.88L451.84,296.59L462.86,304.66L473.88,306.86L484.9,309.62L495.92,310.6L506.94,312.89L517.96,311.46L528.98,312.54L540,315.72" style="vector-effect: non-scaling-stroke; fill: none; stroke: rgb(0, 204, 150); stroke-opacity: 1; stroke-width: 2px; opacity: 1;"/></g><g class="points"/><g class="text"/></g><g class="trace scatter trace4c0785" style="stroke-miterlimit: 2; opacity: 1;"><g class="fills"/><g class="errorbars"/><g class="lines"><path class="js-line" d="M0,1.96L11.02,16.25L22.04,38.6L33.06,61.73L44.08,81.34L77.14,134.88L88.16,152.2L99.18,166.17L110.2,178.19L121.22,189.59L132.24,197.27L143.27,206.88L154.29,211.95L165.31,220.18L176.33,226.63L187.35,231.85L198.37,238.24L209.39,241.9L220.41,243.3L231.43,251.2L242.45,253.81L253.47,259.7L264.49,264.35L286.53,270.05L297.55,271.93L308.57,275.18L319.59,277.54L330.61,281.3L341.63,282.78L352.65,287.26L363.67,288.52L374.69,288.12L385.71,293.63L396.73,294.76L407.76,297.27L418.78,292.84L429.8,299.22L440.82,301.16L451.84,301.97L473.88,307.62L484.9,308.02L495.92,309.88L506.94,302.91L517.96,313.13L528.98,314.28L540,314.49" style="vector-effect: non-scaling-stroke; fill: none; stroke: rgb(171, 99, 250); stroke-opacity: 1; stroke-width: 2px; opacity: 1;"/></g><g class="points"/><g class="text"/></g><g class="trace scatter trace6c60c3" style="stroke-miterlimit: 2; opacity: 1;"><g class="fills"/><g class="errorbars"/><g class="lines"><path class="js-line" d="M0,2.01L11.02,16.51L22.04,38.75L33.06,62.04L44.08,81.9L77.14,136.26L88.16,153.87L99.18,168.12L110.2,179.79L121.22,191.2L132.24,199.14L143.27,208.8L154.29,213.26L165.31,221.64L176.33,228.02L187.35,233.96L198.37,237.83L209.39,244.64L220.41,247.87L231.43,253.89L242.45,256.82L253.47,260.43L264.49,266.22L275.51,269.35L286.53,270.67L297.55,274.54L308.57,268.52L319.59,278.09L330.61,282.51L352.65,288.07L363.67,288.66L374.69,286.17L385.71,293.2L407.76,297.54L418.78,299.02L429.8,299.63L440.82,302.85L451.84,299.75L462.86,304.69L473.88,306.33L484.9,306.69L495.92,308.84L506.94,313.25L517.96,313.56L528.98,314.72L540,316.44" style="vector-effect: non-scaling-stroke; fill: none; stroke: rgb(255, 161, 90); stroke-opacity: 1; stroke-width: 2px; opacity: 1;"/></g><g class="points"/><g class="text"/></g><g class="trace scatter traceef05d9" style="stroke-miterlimit: 2; opacity: 1;"><g class="fills"/><g class="errorbars"/><g class="lines"><path class="js-line" d="M0,2.16L11.02,16.83L22.04,39.43L33.06,62.75L44.08,82.62L77.14,137.04L88.16,154.09L99.18,168.14L110.2,179.99L121.22,191.1L132.24,198.61L143.27,208.05L154.29,212.37L165.31,221.11L176.33,228.37L187.35,233.28L198.37,237.01L209.39,242.8L220.41,246.38L231.43,252.22L242.45,255.7L253.47,261.1L264.49,264.55L308.57,275.99L319.59,277.96L330.61,279.82L341.63,283.61L352.65,287.03L363.67,288.84L374.69,287.95L385.71,293.19L396.73,295.68L407.76,296.86L418.78,297.53L429.8,299.11L440.82,302.2L451.84,302.3L473.88,305.3L484.9,306.51L495.92,309.28L506.94,312.85L517.96,309.08L528.98,313.35L540,310.6" style="vector-effect: non-scaling-stroke; fill: none; stroke: rgb(25, 211, 243); stroke-opacity: 1; stroke-width: 2px; opacity: 1;"/></g><g class="points"/><g class="text"/></g><g class="trace scatter tracef888a0" style="stroke-miterlimit: 2; opacity: 1;"><g class="fills"/><g class="errorbars"/><g class="lines"><path class="js-line" d="M0,2.1L11.02,16.81L22.04,39.5L33.06,62.55L44.08,82.16L77.14,135.5L88.16,152.47L99.18,166.41L110.2,177.56L121.22,189.1L132.24,196.7L143.27,206.69L154.29,211.35L165.31,220.21L176.33,226.49L209.39,241.93L220.41,245.68L231.43,250.29L242.45,253.17L253.47,259.36L264.49,263.38L275.51,267.04L286.53,268.15L308.57,274.73L319.59,275.42L330.61,279.85L341.63,283.45L352.65,286.87L363.67,288.14L374.69,287.66L385.71,292.07L396.73,294.97L407.76,294.99L418.78,298.53L429.8,299.02L440.82,300.88L451.84,301.96L484.9,306.97L495.92,307.24L506.94,308.47L517.96,310.68L540,313.03" style="vector-effect: non-scaling-stroke; fill: none; stroke: rgb(255, 102, 146); stroke-opacity: 1; stroke-width: 2px; opacity: 1;"/></g><g class="points"/><g class="text"/></g><g class="trace scatter tracecbbd21" style="stroke-miterlimit: 2; opacity: 1;"><g class="fills"/><g class="errorbars"/><g class="lines"><path class="js-line" d="M0,2.04L11.02,16.46L22.04,38.67L33.06,61.85L44.08,81.57L77.14,135.62L88.16,153.1L99.18,167.34L110.2,178.81L121.22,190.33L132.24,198.23L143.27,207.94L154.29,213.04L165.31,220.8L176.33,226.98L198.37,238.97L209.39,243.97L220.41,245.22L231.43,252.93L242.45,255.89L253.47,260.83L264.49,266.35L275.51,268.6L286.53,270.44L297.55,273.9L308.57,275.09L319.59,279.62L330.61,282.63L341.63,284.1L352.65,288.34L363.67,287.28L385.71,293.42L396.73,294.64L407.76,294.84L418.78,297.26L429.8,300.8L440.82,302.41L451.84,302.76L462.86,306.04L495.92,309.54L506.94,313.13L517.96,309.66L528.98,314.57L540,314.54" style="vector-effect: non-scaling-stroke; fill: none; stroke: rgb(182, 232, 128); stroke-opacity: 1; stroke-width: 2px; opacity: 1;"/></g><g class="points"/><g class="text"/></g><g class="trace scatter traceb73020" style="stroke-miterlimit: 2; opacity: 1;"><g class="fills"/><g class="errorbars"/><g class="lines"><path class="js-line" d="M0,2.04L11.02,16.48L22.04,38.67L33.06,61.8L44.08,81.44L77.14,134.77L88.16,152.3L99.18,166.34L110.2,177.98L121.22,189.5L132.24,197.28L143.27,206.86L154.29,211.43L165.31,220.38L176.33,226.2L198.37,238.12L209.39,242.92L220.41,243.85L231.43,251.23L253.47,257.37L264.49,264.41L275.51,267.17L286.53,268.67L297.55,270.53L308.57,275.78L341.63,283.71L352.65,287.61L363.67,289.6L374.69,288.97L385.71,292.35L396.73,294.55L407.76,297.62L418.78,298.1L429.8,299.08L440.82,302.92L451.84,294.93L462.86,305.21L473.88,305.83L484.9,308.56L495.92,309.2L506.94,312.76L517.96,312.9L528.98,313.98L540,316.3" style="vector-effect: non-scaling-stroke; fill: none; stroke: rgb(255, 151, 255); stroke-opacity: 1; stroke-width: 2px; opacity: 1;"/></g><g class="points"/><g class="text"/></g><g class="trace scatter trace4fcc93" style="stroke-miterlimit: 2; opacity: 1;"><g class="fills"/><g class="errorbars"/><g class="lines"><path class="js-line" d="M0,2.09L11.02,16.47L22.04,39.27L33.06,62.7L44.08,82.9L77.14,138.2L88.16,155.59L99.18,169.71L110.2,180.72L121.22,192.53L132.24,200.2L143.27,209.67L154.29,214.28L165.31,222.76L176.33,229.63L187.35,235L198.37,239.11L209.39,245.9L220.41,249.84L231.43,254.76L242.45,258.2L253.47,261.25L264.49,267.77L286.53,270.77L297.55,276.19L308.57,274.67L319.59,280.58L330.61,283.85L341.63,286.08L352.65,290.26L363.67,291.28L374.69,291.55L385.71,293.66L396.73,297.19L407.76,298.87L429.8,300.88L440.82,304.25L451.84,301.31L462.86,305.64L473.88,307.66L484.9,307.98L495.92,308.28L506.94,314.1L517.96,314.82L528.98,316.38L540,317.69" style="vector-effect: non-scaling-stroke; fill: none; stroke: rgb(254, 203, 82); stroke-opacity: 1; stroke-width: 2px; opacity: 1;"/></g><g class="points"/><g class="text"/></g><g class="trace scatter tracec0cb4e" style="stroke-miterlimit: 2; opacity: 1;"><g class="fills"/><g class="errorbars"/><g class="lines"><path class="js-line" d="M0,2.07L11.02,16.46L22.04,39.09L33.06,62.21L44.08,81.84L77.14,135.57L88.16,152.95L99.18,166.93L110.2,178.74L121.22,190.07L132.24,197.71L143.27,207.09L154.29,212.01L165.31,220.91L176.33,227.26L198.37,238.94L209.39,244.47L220.41,243.81L231.43,252.69L242.45,254.64L253.47,258.68L264.49,265.06L275.51,267.42L286.53,269.48L297.55,273.27L308.57,275.34L319.59,278.4L330.61,279.04L341.63,282.6L352.65,287.98L363.67,288.73L374.69,285.8L385.71,292.98L396.73,295.03L407.76,293.94L418.78,299.29L429.8,300.89L440.82,301.2L451.84,299.3L462.86,304.26L473.88,306.25L484.9,307.54L495.92,307.03L506.94,312.39L517.96,311.07L528.98,313.48L540,313.6" style="vector-effect: non-scaling-stroke; fill: none; stroke: rgb(99, 110, 250); stroke-opacity: 1; stroke-width: 2px; opacity: 1;"/></g><g class="points"/><g class="text"/></g><g class="trace scatter trace8ca363" style="stroke-miterlimit: 2; opacity: 1;"><g class="fills"/><g class="errorbars"/><g class="lines"><path class="js-line" d="M0,2.03L11.02,16.5L22.04,38.65L33.06,61.86L44.08,81.54L77.14,135.06L88.16,152.63L99.18,166.85L110.2,178.11L121.22,189.82L132.24,197.76L143.27,207.4L154.29,212.21L165.31,221.05L176.33,227.3L209.39,243.93L220.41,244.73L231.43,251.36L242.45,253.78L264.49,265.57L275.51,267.38L286.53,268.63L297.55,272.68L330.61,282.36L341.63,284.26L352.65,288.64L363.67,288.66L374.69,290.77L385.71,293.86L396.73,296.58L407.76,298.29L418.78,295.87L429.8,299.97L440.82,303.02L451.84,302.11L462.86,304.85L473.88,306.64L495.92,309.07L506.94,313.15L528.98,313.67L540,316.01" style="vector-effect: non-scaling-stroke; fill: none; stroke: rgb(239, 85, 59); stroke-opacity: 1; stroke-width: 2px; opacity: 1;"/></g><g class="points"/><g class="text"/></g><g class="trace scatter tracefbfe39" style="stroke-miterlimit: 2; opacity: 1;"><g class="fills"/><g class="errorbars"/><g class="lines"><path class="js-line" d="M0,2.12L11.02,16.62L22.04,39.02L33.06,62.15L44.08,82.04L77.14,136.55L88.16,153.86L99.18,167.96L110.2,179.07L121.22,190.61L132.24,198.48L143.27,207.59L154.29,212.96L165.31,221.43L176.33,227.78L198.37,237.57L209.39,244.43L220.41,247.1L231.43,251.94L242.45,255.22L253.47,261.02L264.49,266.16L275.51,268.22L297.55,272.11L308.57,274.73L319.59,279.27L330.61,282.51L341.63,284.51L352.65,289.6L363.67,290.74L374.69,289.65L385.71,294.56L396.73,297.35L407.76,297.76L418.78,298.98L429.8,301.91L440.82,302.08L451.84,302.49L462.86,305.44L473.88,307.39L484.9,307.79L506.94,312.71L517.96,311.28L528.98,315.76L540,316.28" style="vector-effect: non-scaling-stroke; fill: none; stroke: rgb(0, 204, 150); stroke-opacity: 1; stroke-width: 2px; opacity: 1;"/></g><g class="points"/><g class="text"/></g><g class="trace scatter traceea9ea1" style="stroke-miterlimit: 2; opacity: 1;"><g class="fills"/><g class="errorbars"/><g class="lines"><path class="js-line" d="M0,1.99L11.02,16.53L22.04,38.65L33.06,61.87L44.08,81.61L77.14,135.77L88.16,152.98L99.18,167.08L110.2,178.86L121.22,190.11L132.24,197.9L143.27,207.26L154.29,211.85L165.31,220.84L176.33,227.26L209.39,243.44L220.41,245.66L231.43,252.12L242.45,253.7L253.47,257.99L264.49,264.26L275.51,267.88L286.53,270.06L297.55,271.92L308.57,275.3L330.61,281.13L341.63,284.19L352.65,287.29L363.67,289.08L374.69,288.18L385.71,293.12L396.73,296.85L407.76,297L418.78,299.71L429.8,298.53L440.82,302.95L451.84,301.98L462.86,302.91L473.88,307.38L484.9,307.37L495.92,309.53L517.96,313.28L528.98,314.93L540,316.44" style="vector-effect: non-scaling-stroke; fill: none; stroke: rgb(171, 99, 250); stroke-opacity: 1; stroke-width: 2px; opacity: 1;"/></g><g class="points"/><g class="text"/></g><g class="trace scatter trace92e91d" style="stroke-miterlimit: 2; opacity: 1;"><g class="fills"/><g class="errorbars"/><g class="lines"><path class="js-line" d="M0,2.09L11.02,16.53L22.04,39.12L33.06,62.15L44.08,81.72L77.14,135.27L88.16,152.54L99.18,166.7L110.2,178.04L121.22,189.78L132.24,196.97L143.27,206.88L154.29,211.66L165.31,220.54L176.33,227.04L209.39,242.9L220.41,244.51L231.43,252.03L242.45,255.12L264.49,264.68L275.51,267.82L286.53,268.67L297.55,272.87L308.57,274.92L319.59,277.8L330.61,278.6L341.63,283.77L352.65,284.56L363.67,284.07L374.69,288.71L385.71,292.06L407.76,296.19L418.78,295.4L429.8,298.88L440.82,301.3L451.84,300.32L462.86,304.54L473.88,305.79L484.9,305.51L506.94,312.05L517.96,311.71L528.98,311.9L540,312.93" style="vector-effect: non-scaling-stroke; fill: none; stroke: rgb(255, 161, 90); stroke-opacity: 1; stroke-width: 2px; opacity: 1;"/></g><g class="points"/><g class="text"/></g><g class="trace scatter trace812ac1" style="stroke-miterlimit: 2; opacity: 1;"><g class="fills"/><g class="errorbars"/><g class="lines"><path class="js-line" d="M0,2.04L11.02,16.47L22.04,38.73L33.06,61.71L44.08,81.15L88.16,151.44L99.18,165.65L121.22,189.11L132.24,196.72L143.27,206.76L154.29,211.14L165.31,220.09L176.33,225.92L209.39,242.34L220.41,244.19L231.43,250.14L242.45,253.81L264.49,264.76L275.51,267.18L286.53,268.76L297.55,271.57L308.57,273.74L319.59,278.04L330.61,280.29L341.63,283.53L352.65,287.76L363.67,289.47L374.69,286.29L385.71,293.23L396.73,295.72L407.76,297.01L418.78,299.05L429.8,297.53L440.82,302.13L451.84,301.82L462.86,302L473.88,305.77L484.9,307.38L495.92,307.69L506.94,311.51L517.96,310.53L528.98,313.34L540,313.19" style="vector-effect: non-scaling-stroke; fill: none; stroke: rgb(25, 211, 243); stroke-opacity: 1; stroke-width: 2px; opacity: 1;"/></g><g class="points"/><g class="text"/></g><g class="trace scatter trace52371a" style="stroke-miterlimit: 2; opacity: 1;"><g class="fills"/><g class="errorbars"/><g class="lines"><path class="js-line" d="M0,2.03L11.02,16.49L22.04,38.65L33.06,62.02L44.08,82.05L77.14,137L88.16,154.67L99.18,168.95L110.2,180.21L121.22,191.91L132.24,200.13L143.27,209.45L154.29,213.7L165.31,222.32L176.33,228.94L187.35,235.09L198.37,238.39L209.39,244.87L220.41,248.64L231.43,254.76L242.45,258.45L253.47,261.98L264.49,267.84L275.51,270.76L286.53,271.07L297.55,275.52L308.57,271.01L319.59,280.26L330.61,283.01L341.63,285.03L352.65,289.56L363.67,290.1L374.69,291.85L385.71,294.75L396.73,296.61L407.76,298.74L418.78,298.1L440.82,303.65L451.84,302.48L484.9,308.64L495.92,310.16L506.94,312.49L517.96,312.47L540,316.93" style="vector-effect: non-scaling-stroke; fill: none; stroke: rgb(255, 102, 146); stroke-opacity: 1; stroke-width: 2px; opacity: 1;"/></g><g class="points"/><g class="text"/></g><g class="trace scatter tracefd3023" style="stroke-miterlimit: 2; opacity: 1;"><g class="fills"/><g class="errorbars"/><g class="lines"><path class="js-line" d="M0,1.82L11.02,15.89L22.04,38.26L33.06,61.78L44.08,81.71L77.14,135.22L88.16,152.21L99.18,166.22L110.2,177.77L121.22,188.65L132.24,196.89L143.27,206.62L154.29,211.32L165.31,220.41L176.33,226.77L198.37,237.73L209.39,241.22L220.41,244.47L231.43,251.1L242.45,252.66L253.47,258.91L275.51,266.37L286.53,267.41L297.55,271.37L308.57,271.86L319.59,277.18L330.61,278.46L352.65,286.28L363.67,287.87L385.71,291.85L396.73,294.24L407.76,295.62L418.78,298.06L429.8,297.21L440.82,300.23L451.84,301.84L462.86,301.39L484.9,306.38L495.92,307.25L506.94,299.72L517.96,310.2L528.98,310.11L540,312.55" style="vector-effect: non-scaling-stroke; fill: none; stroke: rgb(182, 232, 128); stroke-opacity: 1; stroke-width: 2px; opacity: 1;"/></g><g class="points"/><g class="text"/></g><g class="trace scatter traceaebe00" style="stroke-miterlimit: 2; opacity: 1;"><g class="fills"/><g class="errorbars"/><g class="lines"><path class="js-line" d="M0,2.06L11.02,16.52L22.04,39.33L33.06,62.8L44.08,82.83L66.12,119.8L77.14,137.51L88.16,154.51L99.18,168.42L121.22,190.72L132.24,198.42L143.27,207.88L154.29,212.84L165.31,220.97L176.33,228.09L198.37,238.85L209.39,243.02L220.41,246.93L231.43,252.91L242.45,253.01L253.47,258.41L264.49,264.62L275.51,267.87L286.53,266.92L297.55,271.52L308.57,276.12L319.59,278.01L330.61,279.9L341.63,283.7L352.65,287.05L363.67,286.48L374.69,290.68L385.71,292.72L396.73,294.55L407.76,297.43L429.8,297.22L440.82,300.54L462.86,305.48L473.88,306.74L484.9,304.48L495.92,308.9L506.94,310.9L517.96,311.26L528.98,312.67L540,312.08" style="vector-effect: non-scaling-stroke; fill: none; stroke: rgb(255, 151, 255); stroke-opacity: 1; stroke-width: 2px; opacity: 1;"/></g><g class="points"/><g class="text"/></g><g class="trace scatter trace87dd9a" style="stroke-miterlimit: 2; opacity: 1;"><g class="fills"/><g class="errorbars"/><g class="lines"><path class="js-line" d="M0,2.03L11.02,16.52L22.04,38.66L33.06,61.8L44.08,81.36L77.14,135.05L88.16,152.57L99.18,166.8L110.2,178.42L121.22,189.92L132.24,197.94L143.27,207.65L154.29,212.15L165.31,221.07L176.33,227.35L209.39,243.95L220.41,244.05L231.43,251.89L242.45,255.27L253.47,258.76L264.49,265.24L275.51,268.6L286.53,270.03L308.57,272.51L319.59,279.45L330.61,282.8L341.63,283.16L352.65,288.21L363.67,288.7L374.69,290.41L385.71,293.65L396.73,294.23L407.76,298.17L418.78,293.74L429.8,297.7L440.82,302.36L451.84,301.73L462.86,305L473.88,305.56L484.9,308.31L495.92,308.94L506.94,311.74L517.96,313.37L528.98,314.64L540,315.02" style="vector-effect: non-scaling-stroke; fill: none; stroke: rgb(254, 203, 82); stroke-opacity: 1; stroke-width: 2px; opacity: 1;"/></g><g class="points"/><g class="text"/></g><g class="trace scatter trace5a2f2e" style="stroke-miterlimit: 2; opacity: 1;"><g class="fills"/><g class="errorbars"/><g class="lines"><path class="js-line" d="M0,2.09L11.02,16.75L22.04,39.09L33.06,62.17L44.08,81.77L88.16,152.37L99.18,166.46L121.22,189.72L132.24,197.37L143.27,207.08L154.29,211.49L165.31,220.7L176.33,226.54L198.37,237.99L209.39,241.91L220.41,243.74L231.43,251.63L242.45,252.45L253.47,258.55L264.49,264.27L275.51,268.06L297.55,272.9L308.57,273.01L319.59,278.17L330.61,280.02L352.65,286.76L363.67,288.02L396.73,295.29L407.76,296.91L429.8,298.19L440.82,301.13L451.84,294.04L462.86,304.04L473.88,306.54L484.9,307.66L495.92,309.85L506.94,313.07L517.96,312.51L528.98,313.45L540,314.71" style="vector-effect: non-scaling-stroke; fill: none; stroke: rgb(99, 110, 250); stroke-opacity: 1; stroke-width: 2px; opacity: 1;"/></g><g class="points"/><g class="text"/></g><g class="trace scatter trace227db5" style="stroke-miterlimit: 2; opacity: 1;"><g class="fills"/><g class="errorbars"/><g class="lines"><path class="js-line" d="M0,2L11.02,16.65L22.04,38.91L33.06,62.18L44.08,82.1L77.14,136.15L88.16,153.6L99.18,167.73L110.2,179.15L121.22,190.58L132.24,198.12L143.27,207.32L154.29,213.14L165.31,221.56L176.33,227.42L209.39,244.31L220.41,246.18L231.43,253.03L242.45,253.14L253.47,261.48L264.49,265.77L275.51,268.71L286.53,269.77L297.55,273.26L308.57,271.96L319.59,279.17L330.61,281.91L341.63,283.26L352.65,288.07L363.67,288.8L374.69,288.37L385.71,293.05L396.73,295.97L407.76,296.82L418.78,296.68L429.8,300.29L440.82,302.49L451.84,300.52L462.86,304.35L473.88,307.49L484.9,307.92L506.94,312.79L517.96,313.58L528.98,314.9L540,312.28" style="vector-effect: non-scaling-stroke; fill: none; stroke: rgb(239, 85, 59); stroke-opacity: 1; stroke-width: 2px; opacity: 1;"/></g><g class="points"/><g class="text"/></g><g class="trace scatter trace67400b" style="stroke-miterlimit: 2; opacity: 1;"><g class="fills"/><g class="errorbars"/><g class="lines"><path class="js-line" d="M0,1.9L11.02,16.11L22.04,38.38L33.06,61.68L44.08,81.49L77.14,135.74L88.16,153.13L99.18,167.28L110.2,179.11L121.22,190.5L132.24,198.11L143.27,207.89L154.29,212.62L165.31,221.47L176.33,227.54L187.35,233.24L198.37,237.24L209.39,244.56L220.41,246.35L231.43,253.17L242.45,255.39L264.49,265.81L275.51,268.4L297.55,273.05L308.57,275.92L341.63,282.64L352.65,289.16L385.71,292.58L396.73,295.1L407.76,297.69L418.78,299.46L440.82,303.48L451.84,291.05L462.86,304.7L473.88,307.58L540,316.67" style="vector-effect: non-scaling-stroke; fill: none; stroke: rgb(0, 204, 150); stroke-opacity: 1; stroke-width: 2px; opacity: 1;"/></g><g class="points"/><g class="text"/></g><g class="trace scatter traceaa2e35" style="stroke-miterlimit: 2; opacity: 1;"><g class="fills"/><g class="errorbars"/><g class="lines"><path class="js-line" d="M0,2.03L11.02,16.51L22.04,38.63L33.06,61.75L44.08,81.42L77.14,135.17L88.16,152.7L99.18,167L110.2,178.55L121.22,190.08L132.24,197.98L143.27,207.69L154.29,212.42L165.31,221.38L176.33,227.54L198.37,237.19L209.39,244.18L220.41,245.01L231.43,253.13L242.45,255.11L253.47,259.15L264.49,265.82L275.51,268.71L286.53,269.99L297.55,273.19L308.57,272.82L319.59,279.89L341.63,284.19L352.65,289.34L363.67,290.32L374.69,290.01L385.71,294.46L396.73,295.96L407.76,298.21L418.78,296.95L429.8,299.38L440.82,302.93L451.84,303.52L462.86,305.51L473.88,307.64L484.9,304L506.94,313.03L517.96,313.36L540,314.94" style="vector-effect: non-scaling-stroke; fill: none; stroke: rgb(171, 99, 250); stroke-opacity: 1; stroke-width: 2px; opacity: 1;"/></g><g class="points"/><g class="text"/></g><g class="trace scatter tracefa9b2d" style="stroke-miterlimit: 2; opacity: 1;"><g class="fills"/><g class="errorbars"/><g class="lines"><path class="js-line" d="M0,2.07L11.02,16.59L22.04,38.94L33.06,62.05L44.08,81.79L77.14,135.65L88.16,153.08L99.18,167.21L110.2,178.54L121.22,190.5L132.24,198.03L143.27,207.52L154.29,212.32L165.31,220.98L176.33,227.34L187.35,233.07L198.37,237.94L209.39,243.82L220.41,245.46L231.43,251.51L242.45,254.08L264.49,265.49L275.51,268.65L286.53,269.41L297.55,271.99L308.57,270.12L319.59,278.21L330.61,282.08L341.63,283.25L352.65,287.02L363.67,289.33L374.69,289.57L385.71,293.97L407.76,297.31L418.78,297.08L429.8,300.22L440.82,302.58L451.84,300.37L462.86,303.89L473.88,300.99L484.9,308.81L495.92,309.58L506.94,301.34L517.96,312.47L528.98,313.95L540,315.82" style="vector-effect: non-scaling-stroke; fill: none; stroke: rgb(255, 161, 90); stroke-opacity: 1; stroke-width: 2px; opacity: 1;"/></g><g class="points"/><g class="text"/></g><g class="trace scatter tracea064a6" style="stroke-miterlimit: 2; opacity: 1;"><g class="fills"/><g class="errorbars"/><g class="lines"><path class="js-line" d="M0,2.08L11.02,16.6L22.04,38.94L33.06,62.21L44.08,81.99L77.14,136.21L88.16,153.67L99.18,167.8L110.2,179.29L121.22,190.48L132.24,198.66L143.27,207.7L154.29,212.67L165.31,221.39L176.33,227.59L187.35,233.6L198.37,237.87L209.39,243.88L220.41,246.41L231.43,252.87L242.45,255.51L264.49,265.24L275.51,267.86L286.53,270.28L297.55,273.69L308.57,273.52L319.59,278.53L330.61,282.31L341.63,284.78L352.65,286.99L363.67,286.15L374.69,290.9L385.71,294.39L407.76,298.47L418.78,296.04L429.8,300.22L440.82,303.43L451.84,298.88L462.86,304.68L473.88,307.51L484.9,308.49L495.92,310.12L506.94,300.27L517.96,313.53L528.98,313.03L540,316.12" style="vector-effect: non-scaling-stroke; fill: none; stroke: rgb(25, 211, 243); stroke-opacity: 1; stroke-width: 2px; opacity: 1;"/></g><g class="points"/><g class="text"/></g><g class="trace scatter trace85436f" style="stroke-miterlimit: 2; opacity: 1;"><g class="fills"/><g class="errorbars"/><g class="lines"><path class="js-line" d="M0,2.02L11.02,16.56L22.04,38.7L33.06,61.85L44.08,81.52L88.16,152.6L99.18,166.81L121.22,190.08L132.24,197.65L143.27,207.74L154.29,211.89L165.31,221.06L176.33,227.44L209.39,243.77L220.41,244.08L231.43,252.26L242.45,254.52L264.49,265.08L275.51,268.34L297.55,272.32L308.57,275.35L319.59,279.39L330.61,281.17L341.63,283.97L352.65,287.82L363.67,288.64L374.69,291.29L385.71,294.44L396.73,295.94L407.76,296.58L418.78,289.09L429.8,297.37L440.82,302.55L451.84,300.26L462.86,304.19L484.9,308.3L495.92,308.88L506.94,312.55L517.96,313.28L540,316.06" style="vector-effect: non-scaling-stroke; fill: none; stroke: rgb(255, 102, 146); stroke-opacity: 1; stroke-width: 2px; opacity: 1;"/></g><g class="points"/><g class="text"/></g><g class="trace scatter traceb55a6a" style="stroke-miterlimit: 2; opacity: 1;"><g class="fills"/><g class="errorbars"/><g class="lines"><path class="js-line" d="M0,2.05L11.02,16.58L22.04,38.8L33.06,61.92L44.08,81.5L77.14,134.92L88.16,152.38L99.18,166.47L110.2,177.87L121.22,189.38L132.24,197.24L143.27,207.3L154.29,211.74L165.31,220.87L176.33,226.02L198.37,237.84L209.39,243.31L220.41,244.26L231.43,251.15L242.45,254.81L253.47,260.18L264.49,265.18L275.51,268.34L297.55,272.4L308.57,269.06L319.59,278.84L330.61,278.56L352.65,288.34L363.67,290.07L374.69,289.94L385.71,293.22L407.76,297.72L418.78,298.63L429.8,298.99L440.82,302.42L451.84,290.46L462.86,305.15L473.88,307.13L484.9,307.88L506.94,310.23L517.96,313.74L528.98,313.63L540,316.01" style="vector-effect: non-scaling-stroke; fill: none; stroke: rgb(182, 232, 128); stroke-opacity: 1; stroke-width: 2px; opacity: 1;"/></g><g class="points"/><g class="text"/></g><g class="trace scatter trace91e09d" style="stroke-miterlimit: 2; opacity: 1;"><g class="fills"/><g class="errorbars"/><g class="lines"><path class="js-line" d="M0,2.02L11.02,16.56L22.04,38.63L33.06,61.75L44.08,81.31L88.16,151.99L99.18,166.3L110.2,177.14L121.22,189.61L132.24,197.15L143.27,206.87L154.29,211.36L165.31,220.21L176.33,226.65L187.35,231.98L198.37,238.27L209.39,243.53L220.41,243.85L231.43,251.2L242.45,252.93L253.47,258.45L264.49,265.14L275.51,267.6L286.53,269.11L297.55,272.92L308.57,266.26L319.59,278.41L330.61,281.23L341.63,282.2L352.65,287.57L363.67,288.69L374.69,289.44L385.71,291.94L396.73,295.81L407.76,295.96L418.78,297.55L429.8,298.35L440.82,302.46L451.84,297.19L462.86,304.31L473.88,306.72L484.9,306.73L495.92,308.89L506.94,300.53L517.96,311.92L528.98,311.4L540,315.11" style="vector-effect: non-scaling-stroke; fill: none; stroke: rgb(255, 151, 255); stroke-opacity: 1; stroke-width: 2px; opacity: 1;"/></g><g class="points"/><g class="text"/></g><g class="trace scatter traced85b5e" style="stroke-miterlimit: 2; opacity: 1;"><g class="fills"/><g class="errorbars"/><g class="lines"><path class="js-line" d="M0,2.05L11.02,16.57L22.04,38.78L33.06,61.93L44.08,81.77L77.14,136.16L88.16,153.54L99.18,167.72L110.2,179.44L121.22,190.69L132.24,198.49L143.27,207.82L154.29,212.92L165.31,221.56L176.33,227.47L187.35,233.32L198.37,237.44L209.39,244.09L220.41,246.29L231.43,252.34L242.45,255.7L253.47,259.58L264.49,265.79L275.51,269.54L286.53,269.96L297.55,273.58L308.57,274.01L319.59,279.76L330.61,280.72L352.65,288.57L363.67,288.41L374.69,291.75L385.71,293.52L407.76,298.38L418.78,299.34L440.82,303.77L451.84,301.74L462.86,306.62L473.88,308.86L495.92,308.65L506.94,313.13L540,316.68" style="vector-effect: non-scaling-stroke; fill: none; stroke: rgb(254, 203, 82); stroke-opacity: 1; stroke-width: 2px; opacity: 1;"/></g><g class="points"/><g class="text"/></g><g class="trace scatter trace41d047" style="stroke-miterlimit: 2; opacity: 1;"><g class="fills"/><g class="errorbars"/><g class="lines"><path class="js-line" d="M0,2.03L11.02,16.44L22.04,38.7L33.06,61.96L44.08,81.88L77.14,136.17L88.16,153.6L99.18,167.73L110.2,179.17L121.22,190.74L132.24,198.73L143.27,208.03L154.29,212.94L165.31,221.57L176.33,227.26L198.37,239.15L209.39,244.52L220.41,244.64L231.43,253.09L242.45,255.1L253.47,259.93L264.49,265.96L275.51,269.47L286.53,270.26L297.55,273.52L308.57,269.06L319.59,279.06L341.63,285.14L352.65,288.13L363.67,289.57L374.69,292.25L385.71,292.04L396.73,292.99L407.76,297.41L418.78,298.36L440.82,303.78L451.84,297.62L462.86,303.94L473.88,307.09L495.92,309.58L506.94,312.93L528.98,314.36L540,316.26" style="vector-effect: non-scaling-stroke; fill: none; stroke: rgb(99, 110, 250); stroke-opacity: 1; stroke-width: 2px; opacity: 1;"/></g><g class="points"/><g class="text"/></g><g class="trace scatter trace089eba" style="stroke-miterlimit: 2; opacity: 1;"><g class="fills"/><g class="errorbars"/><g class="lines"><path class="js-line" d="M0,2.06L11.02,16.59L22.04,39.26L33.06,62.47L44.08,82.49L77.14,137.06L88.16,154.53L99.18,168.58L110.2,180.05L121.22,191.27L132.24,199.03L143.27,208.59L154.29,212.99L176.33,228.54L187.35,233.45L198.37,239.36L209.39,244.37L220.41,246.33L231.43,252.31L253.47,259.65L264.49,265.92L275.51,269.71L286.53,269.96L297.55,270.74L308.57,275.76L330.61,281.99L341.63,284.73L352.65,288.62L363.67,290.21L385.71,289.79L396.73,295.4L407.76,296.87L418.78,299.94L429.8,300.86L440.82,302.79L451.84,297.51L462.86,303.67L484.9,308.59L495.92,309.71L506.94,312.85L517.96,312.27L540,315.5" style="vector-effect: non-scaling-stroke; fill: none; stroke: rgb(239, 85, 59); stroke-opacity: 1; stroke-width: 2px; opacity: 1;"/></g><g class="points"/><g class="text"/></g><g class="trace scatter trace259391" style="stroke-miterlimit: 2; opacity: 1;"><g class="fills"/><g class="errorbars"/><g class="lines"><path class="js-line" d="M0,2.07L11.02,16.38L22.04,38.43L33.06,61.39L44.08,80.91L77.14,134L88.16,151.32L99.18,165.53L110.2,177.08L121.22,189.03L132.24,196.09L143.27,206.46L154.29,211.1L165.31,220L176.33,226.08L187.35,231.33L198.37,237.6L209.39,241.84L220.41,244.75L231.43,250.89L242.45,252.96L253.47,260.31L264.49,264.92L297.55,272.88L308.57,271.94L319.59,278.75L330.61,280.71L341.63,282.96L352.65,287.36L374.69,290.55L385.71,294.25L418.78,298.78L429.8,299.58L440.82,302.09L451.84,302.46L462.86,304.98L473.88,305.53L484.9,307.25L495.92,310.32L506.94,313L517.96,312.32L528.98,315L540,311.1" style="vector-effect: non-scaling-stroke; fill: none; stroke: rgb(0, 204, 150); stroke-opacity: 1; stroke-width: 2px; opacity: 1;"/></g><g class="points"/><g class="text"/></g><g class="trace scatter traced1df36" style="stroke-miterlimit: 2; opacity: 1;"><g class="fills"/><g class="errorbars"/><g class="lines"><path class="js-line" d="M0,2.02L11.02,16.47L22.04,38.73L33.06,61.74L44.08,81.33L77.14,134.71L88.16,152.07L99.18,166.17L110.2,177.87L121.22,189.49L132.24,197.26L143.27,207.17L154.29,211.84L165.31,220.97L176.33,226.43L187.35,232.24L198.37,237.04L209.39,242.56L220.41,243.55L231.43,251.02L242.45,255.07L253.47,258.08L264.49,264.15L275.51,268.22L286.53,269.43L297.55,272.5L308.57,274.62L319.59,278.7L330.61,281.07L341.63,283.23L352.65,287.21L363.67,289.04L374.69,287.39L385.71,293.64L396.73,296.55L407.76,297.98L418.78,298.57L429.8,299.3L440.82,302.04L451.84,299.97L462.86,303.5L484.9,308.7L495.92,308.58L506.94,301.8L517.96,312.09L540,314.54" style="vector-effect: non-scaling-stroke; fill: none; stroke: rgb(171, 99, 250); stroke-opacity: 1; stroke-width: 2px; opacity: 1;"/></g><g class="points"/><g class="text"/></g><g class="trace scatter trace689240" style="stroke-miterlimit: 2; opacity: 1;"><g class="fills"/><g class="errorbars"/><g class="lines"><path class="js-line" d="M0,2.01L11.02,16.55L22.04,38.94L33.06,62.33L44.08,82.13L77.14,136.25L88.16,153.66L99.18,167.8L110.2,179.45L121.22,190.9L132.24,198.55L143.27,207.98L154.29,212.3L165.31,221.04L176.33,227.71L209.39,244L220.41,245.77L231.43,251.91L242.45,253.97L253.47,260.14L264.49,265.37L275.51,268.82L286.53,270.51L297.55,272.02L308.57,276.06L319.59,278.43L330.61,279.28L352.65,287.46L363.67,288.8L385.71,292.87L396.73,295.94L407.76,297.96L418.78,297.71L429.8,299.64L440.82,302.73L451.84,301.08L462.86,303.58L495.92,309.32L506.94,311.87L517.96,312.09L528.98,314.13L540,315.08" style="vector-effect: non-scaling-stroke; fill: none; stroke: rgb(255, 161, 90); stroke-opacity: 1; stroke-width: 2px; opacity: 1;"/></g><g class="points"/><g class="text"/></g><g class="trace scatter trace0b5dcf" style="stroke-miterlimit: 2; opacity: 1;"><g class="fills"/><g class="errorbars"/><g class="lines"><path class="js-line" d="M0,2.14L11.02,16.59L22.04,39.23L33.06,62.5L44.08,82.69L66.12,120.13L77.14,137.92L88.16,155.29L99.18,169.2L121.22,191.97L132.24,199.79L143.27,208.71L154.29,214.02L165.31,222.08L176.33,228.82L198.37,239.7L209.39,244.34L220.41,246.22L231.43,254.09L242.45,256.47L253.47,261.28L264.49,266.97L275.51,269.76L286.53,271.12L297.55,274.55L308.57,266.46L319.59,280.22L330.61,282.73L341.63,284.09L352.65,287.88L363.67,290.57L374.69,292L385.71,294.93L418.78,298.76L429.8,300.43L440.82,302.75L451.84,302.81L462.86,305.64L473.88,306.27L517.96,314.5L528.98,315L540,315.95" style="vector-effect: non-scaling-stroke; fill: none; stroke: rgb(25, 211, 243); stroke-opacity: 1; stroke-width: 2px; opacity: 1;"/></g><g class="points"/><g class="text"/></g><g class="trace scatter trace655608" style="stroke-miterlimit: 2; opacity: 1;"><g class="fills"/><g class="errorbars"/><g class="lines"><path class="js-line" d="M0,2.01L11.02,16.47L22.04,38.59L33.06,61.53L44.08,81L88.16,150.85L99.18,164.98L121.22,188.47L132.24,196.39L143.27,206.27L154.29,210.93L165.31,219.8L176.33,225.14L198.37,237.14L209.39,241.31L220.41,242.89L231.43,250.07L242.45,253.4L253.47,258.34L264.49,263.93L275.51,266.69L297.55,270.08L308.57,275.16L330.61,278.92L341.63,282.53L352.65,287.24L363.67,288.53L374.69,287.75L385.71,292.43L396.73,295.23L407.76,296.55L418.78,298.47L429.8,295.72L440.82,301.77L451.84,302.14L462.86,302.57L473.88,304.02L484.9,306.91L495.92,307.83L506.94,310.62L517.96,311.12L528.98,313.47L540,313.7" style="vector-effect: non-scaling-stroke; fill: none; stroke: rgb(255, 102, 146); stroke-opacity: 1; stroke-width: 2px; opacity: 1;"/></g><g class="points"/><g class="text"/></g><g class="trace scatter trace8d968a" style="stroke-miterlimit: 2; opacity: 1;"><g class="fills"/><g class="errorbars"/><g class="lines"><path class="js-line" d="M0,2.11L11.02,16.77L22.04,39.26L33.06,62.27L44.08,81.81L88.16,152.1L99.18,166.18L121.22,189.2L132.24,196.95L143.27,206.76L154.29,211.19L165.31,220.58L176.33,226.44L209.39,242.08L220.41,245.43L231.43,250.99L242.45,252.42L253.47,257.52L264.49,263.93L275.51,267.87L286.53,269.73L297.55,271.92L308.57,275.94L319.59,277.56L330.61,280.68L341.63,281.63L352.65,285.75L363.67,286.69L374.69,288.51L385.71,292.45L396.73,293.7L418.78,299.12L429.8,297.23L440.82,301.47L451.84,299.89L462.86,302.43L473.88,302.13L484.9,307.41L495.92,307.92L506.94,311.77L517.96,311.87L528.98,313.07L540,310.53" style="vector-effect: non-scaling-stroke; fill: none; stroke: rgb(182, 232, 128); stroke-opacity: 1; stroke-width: 2px; opacity: 1;"/></g><g class="points"/><g class="text"/></g><g class="trace scatter tracefa28d8" style="stroke-miterlimit: 2; opacity: 1;"><g class="fills"/><g class="errorbars"/><g class="lines"><path class="js-line" d="M0,2.04L11.02,16.59L22.04,38.82L33.06,61.89L44.08,81.64L77.14,135.04L88.16,152.46L99.18,166.44L110.2,178.27L121.22,189.63L132.24,197.07L143.27,206.81L154.29,211.95L165.31,220.53L176.33,226.77L198.37,237.63L209.39,242.02L220.41,243.91L231.43,251.77L253.47,258.06L264.49,264.84L297.55,272.59L308.57,274.31L319.59,278.79L330.61,274.84L341.63,283.19L352.65,287.4L363.67,289.26L374.69,286.11L385.71,293.07L396.73,296.15L407.76,297.66L418.78,296.68L429.8,299.03L440.82,302.74L451.84,293.81L462.86,305.04L473.88,306.48L484.9,306.69L506.94,312.54L517.96,312.92L528.98,314.1L540,314.3" style="vector-effect: non-scaling-stroke; fill: none; stroke: rgb(255, 151, 255); stroke-opacity: 1; stroke-width: 2px; opacity: 1;"/></g><g class="points"/><g class="text"/></g><g class="trace scatter trace577901" style="stroke-miterlimit: 2; opacity: 1;"><g class="fills"/><g class="errorbars"/><g class="lines"><path class="js-line" d="M0,2.03L11.02,16.53L22.04,38.72L33.06,61.84L44.08,81.46L88.16,151.94L99.18,166.09L121.22,189.21L132.24,197.08L143.27,207.07L154.29,211.43L165.31,220.64L176.33,226.29L198.37,238.14L209.39,242.34L220.41,244.64L231.43,251.13L242.45,253.46L253.47,259.93L264.49,264.33L275.51,267.35L297.55,270.39L308.57,275.3L330.61,280.56L341.63,282.26L352.65,287.75L363.67,287.59L374.69,286.41L385.71,293.11L407.76,296.99L418.78,296.24L429.8,297.21L440.82,300.33L451.84,298.86L462.86,302.44L484.9,308.37L495.92,308.4L506.94,312.83L517.96,312.4L528.98,312.02L540,314.06" style="vector-effect: non-scaling-stroke; fill: none; stroke: rgb(254, 203, 82); stroke-opacity: 1; stroke-width: 2px; opacity: 1;"/></g><g class="points"/><g class="text"/></g><g class="trace scatter trace8e7012" style="stroke-miterlimit: 2; opacity: 1;"><g class="fills"/><g class="errorbars"/><g class="lines"><path class="js-line" d="M0,2.06L11.02,16.54L22.04,38.85L33.06,62.07L44.08,81.94L77.14,136.33L88.16,153.77L99.18,167.85L110.2,179.25L121.22,190.97L132.24,198.89L143.27,207.87L154.29,212.63L165.31,221.53L176.33,227.99L187.35,233.67L198.37,237.95L209.39,244.24L220.41,246.46L231.43,253.01L242.45,253.52L264.49,265.85L275.51,269.78L286.53,269.81L297.55,272.96L308.57,273.75L319.59,278.85L330.61,280.89L341.63,284.74L352.65,289.34L363.67,290.55L374.69,290.62L385.71,293.42L407.76,297.92L418.78,299.54L429.8,300.28L440.82,303.14L451.84,298.56L462.86,304.67L473.88,305.74L484.9,308.21L495.92,310.03L506.94,312.98L528.98,314.63L540,316.57" style="vector-effect: non-scaling-stroke; fill: none; stroke: rgb(99, 110, 250); stroke-opacity: 1; stroke-width: 2px; opacity: 1;"/></g><g class="points"/><g class="text"/></g><g class="trace scatter trace2d4158" style="stroke-miterlimit: 2; opacity: 1;"><g class="fills"/><g class="errorbars"/><g class="lines"><path class="js-line" d="M0,1.97L11.02,16.35L22.04,38.8L33.06,62.23L44.08,81.95L77.14,136.21L88.16,153.6L99.18,167.76L110.2,179.26L121.22,190.8L132.24,198.72L143.27,207.59L154.29,212.56L165.31,221.4L176.33,228.1L198.37,238.23L209.39,244.19L220.41,246.55L231.43,252.92L253.47,258.49L264.49,265.9L275.51,268.41L286.53,270.01L297.55,272.36L308.57,271.76L319.59,279.48L330.61,280.77L341.63,283.68L352.65,288.98L374.69,290.49L385.71,292.39L407.76,298.32L418.78,295.64L440.82,301.89L451.84,302.72L484.9,306.93L495.92,309.88L506.94,312.86L517.96,312.96L528.98,314.18L540,313.57" style="vector-effect: non-scaling-stroke; fill: none; stroke: rgb(239, 85, 59); stroke-opacity: 1; stroke-width: 2px; opacity: 1;"/></g><g class="points"/><g class="text"/></g><g class="trace scatter traceb30cf5" style="stroke-miterlimit: 2; opacity: 1;"><g class="fills"/><g class="errorbars"/><g class="lines"><path class="js-line" d="M0,1.97L11.02,16.29L22.04,38L33.06,60.74L44.08,80.24L88.16,151.22L99.18,165.73L121.22,189.28L132.24,197.55L143.27,207.3L154.29,212.34L165.31,221.15L176.33,226.88L187.35,233.15L198.37,238.21L209.39,243.44L220.41,245.78L231.43,252.5L242.45,257.08L253.47,259.64L264.49,266.29L286.53,269L297.55,273.92L308.57,273.27L319.59,278.87L330.61,282.22L341.63,283.43L352.65,288.51L363.67,290.08L374.69,290.82L385.71,293.24L407.76,297.91L418.78,298.26L429.8,296.69L440.82,302.05L473.88,306.76L484.9,306.65L495.92,310.32L506.94,312.33L528.98,313.84L540,315.5" style="vector-effect: non-scaling-stroke; fill: none; stroke: rgb(0, 204, 150); stroke-opacity: 1; stroke-width: 2px; opacity: 1;"/></g><g class="points"/><g class="text"/></g><g class="trace scatter trace0fc8a8" style="stroke-miterlimit: 2; opacity: 1;"><g class="fills"/><g class="errorbars"/><g class="lines"><path class="js-line" d="M0,2.07L11.02,16.63L22.04,38.86L33.06,62.03L44.08,81.78L77.14,135.52L88.16,152.99L99.18,167.15L110.2,178.76L121.22,190.2L132.24,197.9L143.27,207.16L154.29,212.23L165.31,221.15L176.33,227.11L209.39,243.39L220.41,243.8L231.43,251.44L242.45,254.3L264.49,265.3L275.51,268.85L286.53,270.37L297.55,270.57L308.57,275.2L319.59,278.2L341.63,283.5L352.65,287.55L374.69,290.09L385.71,294.22L407.76,297.76L418.78,295.11L429.8,298.69L440.82,303.72L451.84,301.76L462.86,305.65L484.9,308.49L495.92,309.26L506.94,311.63L517.96,312.9L528.98,314.53L540,311.49" style="vector-effect: non-scaling-stroke; fill: none; stroke: rgb(171, 99, 250); stroke-opacity: 1; stroke-width: 2px; opacity: 1;"/></g><g class="points"/><g class="text"/></g><g class="trace scatter trace713e68" style="stroke-miterlimit: 2; opacity: 1;"><g class="fills"/><g class="errorbars"/><g class="lines"><path class="js-line" d="M0,2.03L11.02,16.46L22.04,38.69L33.06,61.94L44.08,81.73L77.14,135.34L88.16,152.94L99.18,166.93L110.2,178.56L121.22,190.13L132.24,197.82L143.27,207.65L154.29,212.04L165.31,221.21L176.33,227.31L209.39,243.11L220.41,243.77L231.43,251.78L242.45,254.61L253.47,258.89L264.49,265.13L275.51,268.1L286.53,269.99L297.55,273.17L308.57,272.47L319.59,279.02L330.61,278.81L352.65,288.61L363.67,289.48L374.69,289.51L385.71,293.56L396.73,296.55L407.76,297.76L418.78,292.9L429.8,297.95L451.84,303.14L462.86,304.11L473.88,307.71L484.9,308.21L495.92,309.3L506.94,312.23L528.98,314.69L540,312.56" style="vector-effect: non-scaling-stroke; fill: none; stroke: rgb(255, 161, 90); stroke-opacity: 1; stroke-width: 2px; opacity: 1;"/></g><g class="points"/><g class="text"/></g><g class="trace scatter trace611ee8" style="stroke-miterlimit: 2; opacity: 1;"><g class="fills"/><g class="errorbars"/><g class="lines"><path class="js-line" d="M0,2.05L11.02,16.48L22.04,38.64L33.06,61.76L44.08,81.62L77.14,135.74L88.16,153.09L99.18,167.4L110.2,178.8L121.22,190.66L132.24,198.18L143.27,208.02L154.29,212.6L165.31,221.57L176.33,227.43L187.35,232.98L198.37,237.51L209.39,243.55L220.41,245.46L231.43,252.58L242.45,255.98L275.51,268.59L286.53,270.21L297.55,273.28L308.57,272.69L319.59,279.38L330.61,281.57L352.65,287.84L363.67,288.04L385.71,294.03L396.73,295.93L407.76,298.12L418.78,298.34L429.8,297.57L440.82,303.41L451.84,299.07L462.86,305.03L473.88,305.19L484.9,308.59L495.92,309.88L506.94,308.08L517.96,313.61L528.98,313.8L540,315.08" style="vector-effect: non-scaling-stroke; fill: none; stroke: rgb(25, 211, 243); stroke-opacity: 1; stroke-width: 2px; opacity: 1;"/></g><g class="points"/><g class="text"/></g><g class="trace scatter trace5dda90" style="stroke-miterlimit: 2; opacity: 1;"><g class="fills"/><g class="errorbars"/><g class="lines"><path class="js-line" d="M0,2.03L11.02,16.52L22.04,38.61L33.06,61.65L44.08,81.1L77.14,133.29L88.16,150.27L99.18,164.52L110.2,176.27L121.22,187.68L132.24,195.52L143.27,205.23L154.29,209.48L165.31,219.34L176.33,224.8L198.37,236.55L209.39,240.87L220.41,244.33L231.43,249.35L242.45,252.97L253.47,259.5L275.51,266.97L286.53,267.5L308.57,275.32L319.59,277.61L330.61,280.36L341.63,280.55L352.65,286.41L363.67,287.43L374.69,288.36L385.71,292L407.76,295.44L418.78,298.27L429.8,298.32L440.82,301.17L451.84,299.21L462.86,299.73L473.88,303.82L484.9,304.21L495.92,307.07L506.94,310.79L540,314.25" style="vector-effect: non-scaling-stroke; fill: none; stroke: rgb(255, 102, 146); stroke-opacity: 1; stroke-width: 2px; opacity: 1;"/></g><g class="points"/><g class="text"/></g><g class="trace scatter tracea108b2" style="stroke-miterlimit: 2; opacity: 1;"><g class="fills"/><g class="errorbars"/><g class="lines"><path class="js-line" d="M0,1.95L11.02,16.52L22.04,38.7L33.06,62L44.08,81.77L77.14,135.92L88.16,153.31L99.18,167.58L110.2,179.13L121.22,190.31L132.24,198.47L143.27,207.74L154.29,211.51L165.31,220.8L176.33,226.96L198.37,238.35L209.39,244.02L220.41,244.87L231.43,252.49L242.45,255.94L253.47,260.53L264.49,265.16L275.51,268.53L286.53,270.54L297.55,273.59L308.57,273.45L319.59,278.39L330.61,282.28L341.63,283.07L352.65,288.84L363.67,289.7L374.69,286.93L385.71,292.29L396.73,295.9L407.76,295.29L418.78,299.77L429.8,300.06L440.82,302.4L451.84,300.72L473.88,306.95L484.9,308.22L495.92,309.92L506.94,313.13L517.96,312.77L528.98,313.17L540,315.62" style="vector-effect: non-scaling-stroke; fill: none; stroke: rgb(182, 232, 128); stroke-opacity: 1; stroke-width: 2px; opacity: 1;"/></g><g class="points"/><g class="text"/></g><g class="trace scatter tracefc4614" style="stroke-miterlimit: 2; opacity: 1;"><g class="fills"/><g class="errorbars"/><g class="lines"><path class="js-line" d="M0,2.11L11.02,16.59L22.04,38.83L33.06,61.75L44.08,81.39L77.14,134.79L88.16,152.34L99.18,166.56L110.2,178.27L121.22,189.89L132.24,197.78L143.27,207.45L154.29,212.28L165.31,221.14L176.33,226.56L187.35,232.62L198.37,237.03L209.39,243.85L220.41,244.57L231.43,251.96L242.45,255.55L264.49,265.35L275.51,267.73L286.53,268.61L297.55,271.42L308.57,277.61L319.59,279.86L341.63,283.3L352.65,288.52L363.67,289.33L374.69,291.01L396.73,295.9L407.76,297.65L418.78,296.73L429.8,299.73L440.82,303.67L451.84,297.94L462.86,304.53L473.88,307.28L484.9,307.92L495.92,309.99L517.96,313.86L528.98,313.67L540,316.6" style="vector-effect: non-scaling-stroke; fill: none; stroke: rgb(255, 151, 255); stroke-opacity: 1; stroke-width: 2px; opacity: 1;"/></g><g class="points"/><g class="text"/></g><g class="trace scatter traceda5a59" style="stroke-miterlimit: 2; opacity: 1;"><g class="fills"/><g class="errorbars"/><g class="lines"><path class="js-line" d="M0,2.17L11.02,16.83L22.04,39.58L33.06,62.88L44.08,82.83L66.12,119.71L77.14,137.42L88.16,154.72L99.18,168.68L121.22,191.47L132.24,199.32L143.27,208.41L154.29,213.05L165.31,221.78L176.33,228.39L187.35,233.87L198.37,236.64L209.39,243.19L220.41,246.97L231.43,253.11L242.45,255.09L264.49,265.15L275.51,268.26L286.53,270.1L297.55,273.48L308.57,276.08L319.59,279.63L341.63,282.86L352.65,288.43L385.71,292.34L396.73,295.57L407.76,297.52L418.78,295.41L429.8,299.77L440.82,302.83L451.84,300.73L462.86,305.86L484.9,307.07L495.92,310.21L506.94,312.76L517.96,309.08L528.98,314.68L540,315" style="vector-effect: non-scaling-stroke; fill: none; stroke: rgb(254, 203, 82); stroke-opacity: 1; stroke-width: 2px; opacity: 1;"/></g><g class="points"/><g class="text"/></g><g class="trace scatter traced359d8" style="stroke-miterlimit: 2; opacity: 1;"><g class="fills"/><g class="errorbars"/><g class="lines"><path class="js-line" d="M0,2.06L11.02,16.54L22.04,38.81L33.06,62.1L44.08,81.95L77.14,136.39L88.16,153.81L99.18,167.94L110.2,179.49L121.22,190.94L132.24,198.84L143.27,208.38L154.29,213.22L165.31,221.55L176.33,228.18L187.35,233.68L198.37,238.21L209.39,244.52L220.41,246.45L231.43,253.45L242.45,256.64L253.47,260.28L264.49,266.24L275.51,270.06L286.53,270.21L297.55,273.66L308.57,274.41L319.59,279.61L330.61,281.6L341.63,284.69L352.65,289.08L363.67,291.11L374.69,291.61L385.71,294.26L396.73,296L407.76,298.09L418.78,296.61L429.8,301.09L440.82,304.03L451.84,287.54L462.86,305.29L484.9,309.67L495.92,310.18L506.94,313.5L517.96,313.78L540,316.62" style="vector-effect: non-scaling-stroke; fill: none; stroke: rgb(99, 110, 250); stroke-opacity: 1; stroke-width: 2px; opacity: 1;"/></g><g class="points"/><g class="text"/></g><g class="trace scatter traceccedd1" style="stroke-miterlimit: 2; opacity: 1;"><g class="fills"/><g class="errorbars"/><g class="lines"><path class="js-line" d="M0,2.05L11.02,16.56L22.04,38.81L33.06,61.81L44.08,81.25L88.16,151.01L99.18,165.2L121.22,188.49L132.24,196.27L143.27,205.9L154.29,210.72L165.31,219.64L176.33,225.49L187.35,230.45L198.37,237.26L209.39,241.65L220.41,243.82L231.43,250.3L242.45,252.13L253.47,259.21L264.49,263.59L275.51,266.91L286.53,269L308.57,275.39L319.59,278.37L330.61,278.78L341.63,281.18L352.65,286.08L363.67,285.87L374.69,285.87L385.71,292.27L418.78,297.89L429.8,297.03L440.82,301.66L451.84,301L462.86,302.53L473.88,301.38L484.9,303.91L495.92,308.04L506.94,307.68L517.96,312.28L540,314.34" style="vector-effect: non-scaling-stroke; fill: none; stroke: rgb(239, 85, 59); stroke-opacity: 1; stroke-width: 2px; opacity: 1;"/></g><g class="points"/><g class="text"/></g><g class="trace scatter trace553c51" style="stroke-miterlimit: 2; opacity: 1;"><g class="fills"/><g class="errorbars"/><g class="lines"><path class="js-line" d="M0,1.87L11.02,15.99L22.04,38.41L33.06,61.9L44.08,81.75L77.14,135.56L88.16,152.64L99.18,166.69L110.2,177.9L121.22,189.56L132.24,197.3L143.27,207.12L154.29,212.09L176.33,227.38L187.35,232.17L209.39,242.28L220.41,246.26L231.43,250.85L242.45,253.54L253.47,259.57L264.49,263.86L275.51,267.54L286.53,268.53L297.55,270.86L308.57,275.28L330.61,279.95L341.63,281.17L352.65,286.91L363.67,288.15L374.69,291.1L385.71,291.56L407.76,296.88L418.78,298.29L429.8,297.63L440.82,299.68L451.84,300.61L462.86,304.4L473.88,306.68L484.9,304.97L506.94,311.34L517.96,312L528.98,312.99L540,312.24" style="vector-effect: non-scaling-stroke; fill: none; stroke: rgb(0, 204, 150); stroke-opacity: 1; stroke-width: 2px; opacity: 1;"/></g><g class="points"/><g class="text"/></g><g class="trace scatter trace7059f9" style="stroke-miterlimit: 2; opacity: 1;"><g class="fills"/><g class="errorbars"/><g class="lines"><path class="js-line" d="M0,2.03L11.02,16.32L22.04,38.22L33.06,61.34L44.08,80.83L88.16,151.28L99.18,165.55L121.22,189.26L132.24,196.61L143.27,206.73L154.29,211.24L165.31,220.54L176.33,226.51L209.39,243.17L220.41,243.18L231.43,251.02L242.45,254.57L253.47,256.75L264.49,264.28L275.51,267.26L286.53,268.83L297.55,269.47L308.57,275.09L330.61,279.98L341.63,283.52L352.65,287.49L363.67,288.35L374.69,288.37L385.71,293.67L396.73,294.82L407.76,297.34L418.78,296.04L429.8,297.63L440.82,299.69L451.84,302.52L473.88,305.67L484.9,308.59L506.94,310.75L517.96,313.46L540,315.56" style="vector-effect: non-scaling-stroke; fill: none; stroke: rgb(171, 99, 250); stroke-opacity: 1; stroke-width: 2px; opacity: 1;"/></g><g class="points"/><g class="text"/></g><g class="trace scatter trace8863a8" style="stroke-miterlimit: 2; opacity: 1;"><g class="fills"/><g class="errorbars"/><g class="lines"><path class="js-line" d="M0,1.74L11.02,15.57L22.04,37.68L33.06,61.01L44.08,80.81L77.14,133.75L88.16,150.83L99.18,165.16L110.2,176.67L121.22,188.11L132.24,196.08L143.27,206.22L154.29,210.89L165.31,220.1L176.33,225.19L198.37,236.95L209.39,240.59L220.41,244.53L231.43,250.64L242.45,253.03L253.47,259.17L264.49,262.98L275.51,264.21L286.53,266.44L297.55,271.56L308.57,275.44L319.59,278.26L341.63,281.5L352.65,285.81L363.67,285.27L374.69,287.5L396.73,293.6L407.76,294.49L429.8,297.5L440.82,300.02L451.84,299.56L462.86,302.46L473.88,302.98L484.9,305.05L506.94,309.51L517.96,310.7L540,313.21" style="vector-effect: non-scaling-stroke; fill: none; stroke: rgb(255, 161, 90); stroke-opacity: 1; stroke-width: 2px; opacity: 1;"/></g><g class="points"/><g class="text"/></g><g class="trace scatter trace8c0292" style="stroke-miterlimit: 2; opacity: 1;"><g class="fills"/><g class="errorbars"/><g class="lines"><path class="js-line" d="M0,1.99L11.02,16.57L22.04,38.74L33.06,61.75L44.08,81.41L77.14,134.64L88.16,152.08L99.18,166.1L110.2,177.48L121.22,189.35L132.24,196.8L143.27,206.88L154.29,212.51L165.31,220.49L176.33,225.67L187.35,232.22L198.37,236.94L209.39,242.88L220.41,245.96L231.43,251.31L242.45,253.86L253.47,258.85L264.49,264.99L275.51,268.14L286.53,269.84L297.55,272.09L308.57,271.12L319.59,279.35L330.61,283.06L341.63,281.58L352.65,288.76L363.67,288.91L374.69,286.6L385.71,291.64L396.73,293.91L407.76,294.44L418.78,298.04L429.8,297.91L440.82,301.44L451.84,301.55L462.86,305.31L484.9,308.46L495.92,310.19L506.94,311.73L517.96,311.69L528.98,314.43L540,314.11" style="vector-effect: non-scaling-stroke; fill: none; stroke: rgb(25, 211, 243); stroke-opacity: 1; stroke-width: 2px; opacity: 1;"/></g><g class="points"/><g class="text"/></g><g class="trace scatter tracec46432" style="stroke-miterlimit: 2; opacity: 1;"><g class="fills"/><g class="errorbars"/><g class="lines"><path class="js-line" d="M0,2.14L11.02,16.61L22.04,39.21L33.06,62.41L44.08,81.97L77.14,136.11L88.16,153.51L99.18,167.58L110.2,179.35L121.22,190.85L132.24,198.49L143.27,207.33L154.29,213.31L165.31,221.53L176.33,228.17L198.37,238.03L209.39,241.98L231.43,252.58L242.45,252.93L253.47,261.72L264.49,265.63L275.51,268.21L286.53,269.64L297.55,273.56L308.57,276.21L341.63,283.73L352.65,287.42L363.67,290.21L374.69,288.76L385.71,293.78L396.73,296.01L407.76,297.87L418.78,298.25L440.82,303.62L451.84,294.41L462.86,304.75L473.88,304.58L484.9,307.76L495.92,308.77L506.94,312.85L517.96,313.01L528.98,315.04L540,316.17" style="vector-effect: non-scaling-stroke; fill: none; stroke: rgb(255, 102, 146); stroke-opacity: 1; stroke-width: 2px; opacity: 1;"/></g><g class="points"/><g class="text"/></g><g class="trace scatter tracee743fe" style="stroke-miterlimit: 2; opacity: 1;"><g class="fills"/><g class="errorbars"/><g class="lines"><path class="js-line" d="M0,2.01L11.02,16.39L22.04,38.32L33.06,61.38L44.08,80.81L88.16,151.12L99.18,165.38L121.22,189.12L132.24,196.79L143.27,206.5L154.29,211.2L165.31,220.1L176.33,225.61L198.37,237.22L209.39,242.96L220.41,243.35L231.43,251.15L242.45,253.78L253.47,258.52L264.49,264.73L275.51,265.56L286.53,267.91L297.55,272.68L330.61,281.75L341.63,283.18L352.65,288.03L363.67,289.23L374.69,288.08L385.71,292.4L407.76,297.95L418.78,299.35L429.8,297.86L440.82,301.19L462.86,304.29L473.88,302.34L484.9,307.96L495.92,307.55L506.94,306.56L517.96,312.88L528.98,313.65L540,313.66" style="vector-effect: non-scaling-stroke; fill: none; stroke: rgb(182, 232, 128); stroke-opacity: 1; stroke-width: 2px; opacity: 1;"/></g><g class="points"/><g class="text"/></g><g class="trace scatter trace0cbc76" style="stroke-miterlimit: 2; opacity: 1;"><g class="fills"/><g class="errorbars"/><g class="lines"><path class="js-line" d="M0,2.07L11.02,16.59L22.04,38.8L33.06,61.88L44.08,81.64L77.14,135.65L88.16,153.05L99.18,167.13L110.2,178.66L121.22,190.1L132.24,197.82L143.27,207.6L154.29,212.67L165.31,221.43L176.33,227.07L209.39,244.17L220.41,245.22L231.43,252.33L242.45,255.88L253.47,258.98L264.49,266.18L297.55,272.87L308.57,276.56L319.59,278.74L330.61,282.37L341.63,284.37L352.65,289.05L363.67,291.1L374.69,290.31L385.71,294.36L396.73,296.5L407.76,297.12L418.78,295.83L429.8,297.68L440.82,302.64L451.84,300.3L462.86,305.49L484.9,308.62L495.92,309.43L506.94,314.09L517.96,312.89L528.98,314.41L540,314.71" style="vector-effect: non-scaling-stroke; fill: none; stroke: rgb(255, 151, 255); stroke-opacity: 1; stroke-width: 2px; opacity: 1;"/></g><g class="points"/><g class="text"/></g><g class="trace scatter trace42d826" style="stroke-miterlimit: 2; opacity: 1;"><g class="fills"/><g class="errorbars"/><g class="lines"><path class="js-line" d="M0,2.03L11.02,16.37L22.04,38.74L33.06,62.17L44.08,82.1L77.14,136.38L88.16,153.69L99.18,167.8L110.2,179.01L121.22,190.89L132.24,198.66L143.27,207.58L154.29,212.68L165.31,221.27L176.33,228.01L198.37,238.78L209.39,242.84L220.41,245.49L231.43,252.41L253.47,259.76L264.49,265.19L275.51,268.73L286.53,270.44L319.59,278.99L330.61,282.43L341.63,285.09L352.65,289.21L363.67,290.73L374.69,288.75L385.71,293.53L396.73,295.88L407.76,298.29L418.78,291.52L429.8,299.55L440.82,303.58L451.84,301.94L462.86,304.38L473.88,307.61L484.9,308.89L495.92,310L506.94,313.57L517.96,313.64L528.98,314.48L540,314.84" style="vector-effect: non-scaling-stroke; fill: none; stroke: rgb(254, 203, 82); stroke-opacity: 1; stroke-width: 2px; opacity: 1;"/></g><g class="points"/><g class="text"/></g><g class="trace scatter trace6e3de7" style="stroke-miterlimit: 2; opacity: 1;"><g class="fills"/><g class="errorbars"/><g class="lines"><path class="js-line" d="M0,2.05L11.02,16.51L22.04,38.7L33.06,61.8L44.08,81.44L77.14,134.73L88.16,152.26L99.18,166.47L110.2,177.88L121.22,189.68L132.24,197.49L143.27,207.23L154.29,211.79L165.31,220.58L176.33,226.43L209.39,243.64L220.41,243.77L231.43,251.66L242.45,255.4L253.47,258.64L264.49,265.17L275.51,268.36L286.53,270.29L297.55,273.18L308.57,274.52L319.59,279.58L330.61,283.3L341.63,283.95L352.65,288.5L374.69,290.77L385.71,293.83L396.73,294.23L407.76,296.42L418.78,297.35L429.8,299.66L440.82,303.26L451.84,300.88L473.88,306.35L484.9,307.87L495.92,309.38L506.94,312.43L517.96,312.91L528.98,314.97L540,316.19" style="vector-effect: non-scaling-stroke; fill: none; stroke: rgb(99, 110, 250); stroke-opacity: 1; stroke-width: 2px; opacity: 1;"/></g><g class="points"/><g class="text"/></g><g class="trace scatter trace6c7c6a" style="stroke-miterlimit: 2; opacity: 1;"><g class="fills"/><g class="errorbars"/><g class="lines"><path class="js-line" d="M0,2L11.02,16.37L22.04,38.51L33.06,61.42L44.08,80.84L88.16,150.18L99.18,164.4L121.22,187.86L132.24,195.38L143.27,205.73L154.29,210.53L165.31,219.25L176.33,224.99L209.39,241.5L220.41,244.25L231.43,248.99L242.45,252.42L253.47,259.11L264.49,262.79L275.51,266.21L286.53,268.59L297.55,271.4L308.57,272.53L319.59,277.64L330.61,280.43L341.63,282.2L352.65,286.4L374.69,287.65L385.71,291.7L396.73,291.54L407.76,296.61L418.78,298.38L429.8,299.05L440.82,301.35L451.84,300.26L462.86,302.12L473.88,305.72L484.9,305.38L495.92,308.18L506.94,311.92L517.96,311.58L540,314.56" style="vector-effect: non-scaling-stroke; fill: none; stroke: rgb(239, 85, 59); stroke-opacity: 1; stroke-width: 2px; opacity: 1;"/></g><g class="points"/><g class="text"/></g><g class="trace scatter trace65db04" style="stroke-miterlimit: 2; opacity: 1;"><g class="fills"/><g class="errorbars"/><g class="lines"><path class="js-line" d="M0,1.98L11.02,16.35L22.04,38.26L33.06,61.33L44.08,80.9L77.14,133.55L88.16,150.66L99.18,164.87L110.2,176.67L121.22,188.15L132.24,196.18L143.27,205.77L154.29,210.5L165.31,219.73L176.33,225.52L198.37,236.67L209.39,241.09L220.41,243.48L231.43,249.86L242.45,252.68L253.47,258.01L264.49,263.17L275.51,266.56L308.57,273.2L319.59,277.52L341.63,281.21L352.65,285L363.67,287.34L374.69,286.54L385.71,292.13L396.73,294.43L407.76,296.56L418.78,297.11L429.8,297.4L440.82,301.16L451.84,298.33L462.86,302.1L473.88,304.85L484.9,306.32L495.92,308.37L506.94,305.48L517.96,311.37L528.98,310.46L540,312.57" style="vector-effect: non-scaling-stroke; fill: none; stroke: rgb(0, 204, 150); stroke-opacity: 1; stroke-width: 2px; opacity: 1;"/></g><g class="points"/><g class="text"/></g><g class="trace scatter trace044628" style="stroke-miterlimit: 2; opacity: 1;"><g class="fills"/><g class="errorbars"/><g class="lines"><path class="js-line" d="M0,1.99L11.02,16.29L22.04,38.62L33.06,62L44.08,81.8L77.14,136.23L88.16,153.55L99.18,167.76L110.2,179.35L121.22,190.89L132.24,198.55L143.27,207.41L154.29,212.88L165.31,221.52L176.33,227.41L198.37,238.79L209.39,244.39L220.41,246.36L231.43,252.86L253.47,260.28L264.49,264.88L275.51,268.88L286.53,270.29L297.55,272.69L308.57,270.53L319.59,279.78L330.61,281.76L341.63,284.39L352.65,288.94L363.67,290.29L374.69,288.88L385.71,293.66L396.73,295.59L418.78,300.13L429.8,299.94L440.82,303.2L451.84,296.19L462.86,304.22L473.88,305.3L484.9,308.79L495.92,310L506.94,313.12L517.96,314.36L540,316.93" style="vector-effect: non-scaling-stroke; fill: none; stroke: rgb(171, 99, 250); stroke-opacity: 1; stroke-width: 2px; opacity: 1;"/></g><g class="points"/><g class="text"/></g><g class="trace scatter tracec64bf7" style="stroke-miterlimit: 2; opacity: 1;"><g class="fills"/><g class="errorbars"/><g class="lines"><path class="js-line" d="M0,2.12L11.02,16.56L22.04,38.94L33.06,62.12L44.08,81.96L77.14,136.11L88.16,153.48L99.18,167.61L110.2,179.26L121.22,190.61L132.24,198.4L143.27,207.59L154.29,212.74L165.31,221.25L176.33,227.27L187.35,233.41L198.37,238.28L209.39,243.74L220.41,244.57L231.43,252.85L242.45,253.42L264.49,264.84L275.51,268.58L286.53,270.04L297.55,272.63L308.57,275.3L319.59,279.23L330.61,280.42L341.63,282.44L352.65,288.19L363.67,289.45L385.71,293.4L396.73,293.97L407.76,297.79L418.78,299.27L440.82,302.64L451.84,299.11L462.86,301.64L473.88,306.42L495.92,309.66L506.94,301.81L517.96,313.11L528.98,314.46L540,316.54" style="vector-effect: non-scaling-stroke; fill: none; stroke: rgb(255, 161, 90); stroke-opacity: 1; stroke-width: 2px; opacity: 1;"/></g><g class="points"/><g class="text"/></g><g class="trace scatter tracece0287" style="stroke-miterlimit: 2; opacity: 1;"><g class="fills"/><g class="errorbars"/><g class="lines"><path class="js-line" d="M0,2.05L11.02,16.51L22.04,38.76L33.06,61.92L44.08,81.9L77.14,136.24L88.16,153.83L99.18,168.03L110.2,179.26L121.22,191.2L132.24,198.99L143.27,208.86L154.29,213.28L165.31,222.15L176.33,228.08L187.35,233.95L198.37,238.43L209.39,244.19L220.41,246.6L231.43,253.23L242.45,256.95L253.47,260.73L264.49,266.74L275.51,270.53L286.53,271.17L297.55,273.79L308.57,274.92L319.59,280.17L330.61,282.6L341.63,284.23L352.65,289.07L363.67,290.63L374.69,291.37L396.73,297.63L407.76,298.89L418.78,294.41L429.8,297.43L440.82,301.71L451.84,301.74L462.86,306.5L473.88,307.2L484.9,309.21L495.92,309.8L506.94,313.09L517.96,311.48L528.98,315.31L540,315.95" style="vector-effect: non-scaling-stroke; fill: none; stroke: rgb(25, 211, 243); stroke-opacity: 1; stroke-width: 2px; opacity: 1;"/></g><g class="points"/><g class="text"/></g><g class="trace scatter trace991c89" style="stroke-miterlimit: 2; opacity: 1;"><g class="fills"/><g class="errorbars"/><g class="lines"><path class="js-line" d="M0,2.01L11.02,16.28L22.04,38.44L33.06,61.49L44.08,81.27L88.16,152.65L99.18,166.75L121.22,189.95L132.24,197.92L143.27,206.87L154.29,212.21L165.31,221.16L176.33,227.33L198.37,237.3L209.39,243.72L220.41,244.56L231.43,251.92L253.47,259.39L264.49,264.33L275.51,268.41L286.53,269.62L297.55,273.01L308.57,273.91L319.59,279.46L330.61,281.03L341.63,283.08L352.65,289.3L374.69,289.7L385.71,293.6L396.73,296.74L407.76,297.51L418.78,300.16L429.8,301.24L440.82,304.32L451.84,295.05L462.86,306.07L473.88,308L495.92,309.2L506.94,313.92L517.96,311.43L528.98,314.17L540,317.44" style="vector-effect: non-scaling-stroke; fill: none; stroke: rgb(255, 102, 146); stroke-opacity: 1; stroke-width: 2px; opacity: 1;"/></g><g class="points"/><g class="text"/></g><g class="trace scatter trace258f4d" style="stroke-miterlimit: 2; opacity: 1;"><g class="fills"/><g class="errorbars"/><g class="lines"><path class="js-line" d="M0,2.1L11.02,16.59L22.04,39.04L33.06,62.05L44.08,81.71L77.14,135.14L88.16,152.56L99.18,166.62L110.2,178.18L121.22,189.64L132.24,197.28L143.27,207.22L154.29,211.82L165.31,220.97L176.33,226.45L198.37,237.88L209.39,242.53L220.41,245.74L231.43,251.8L242.45,253.96L253.47,257.82L264.49,264.35L275.51,267.22L286.53,269.71L297.55,271.43L308.57,274.51L319.59,278.72L330.61,282.67L341.63,283.26L352.65,288.02L363.67,286.64L374.69,290.14L385.71,291.3L396.73,295.92L407.76,295.98L418.78,296.27L429.8,298.17L440.82,302.17L451.84,301.48L495.92,309.77L506.94,308.65L517.96,313.29L528.98,314.55L540,314.13" style="vector-effect: non-scaling-stroke; fill: none; stroke: rgb(182, 232, 128); stroke-opacity: 1; stroke-width: 2px; opacity: 1;"/></g><g class="points"/><g class="text"/></g><g class="trace scatter trace5a33d2" style="stroke-miterlimit: 2; opacity: 1;"><g class="fills"/><g class="errorbars"/><g class="lines"><path class="js-line" d="M0,2.04L11.02,16.33L22.04,38.47L33.06,61.65L44.08,81.44L77.14,135.46L88.16,153L99.18,167.32L110.2,178.53L121.22,190.33L132.24,198.35L143.27,208.12L154.29,212.78L165.31,221.49L176.33,227.52L187.35,233.66L198.37,238.23L209.39,243.92L220.41,246.4L231.43,252.84L242.45,257.32L253.47,260.06L264.49,266.17L275.51,269.53L286.53,269.8L297.55,274.79L308.57,275.31L330.61,283.95L341.63,283.64L352.65,289.4L363.67,291.06L374.69,292.25L385.71,294.36L396.73,297.62L407.76,298.51L418.78,299.79L429.8,298.94L440.82,304.09L451.84,300.92L462.86,305.83L473.88,307.94L484.9,307.59L495.92,310.43L506.94,314.04L517.96,314.6L528.98,315.76L540,315.88" style="vector-effect: non-scaling-stroke; fill: none; stroke: rgb(255, 151, 255); stroke-opacity: 1; stroke-width: 2px; opacity: 1;"/></g><g class="points"/><g class="text"/></g><g class="trace scatter trace22574f" style="stroke-miterlimit: 2; opacity: 1;"><g class="fills"/><g class="errorbars"/><g class="lines"><path class="js-line" d="M0,2.08L11.02,16.53L22.04,38.81L33.06,62.09L44.08,81.86L77.14,135.85L88.16,153.22L99.18,167.34L110.2,178.92L121.22,190.3L132.24,198.26L143.27,207.71L154.29,212.51L165.31,221.23L176.33,226.7L198.37,239.12L209.39,244.23L220.41,244.62L231.43,252.72L253.47,257.49L264.49,265.74L286.53,269.94L297.55,272.86L308.57,273.89L319.59,279.59L341.63,282.87L352.65,287.75L363.67,285.9L374.69,289.99L385.71,293.85L396.73,295.88L407.76,295.53L418.78,297.54L440.82,302.56L451.84,299.34L462.86,304.3L473.88,305.43L484.9,307.09L495.92,309.82L506.94,311.95L517.96,312.65L540,314.76" style="vector-effect: non-scaling-stroke; fill: none; stroke: rgb(254, 203, 82); stroke-opacity: 1; stroke-width: 2px; opacity: 1;"/></g><g class="points"/><g class="text"/></g></g></g><g class="overplot"/><path class="xlines-above crisp" d="M0,0" style="fill: none;"/><path class="ylines-above crisp" d="M0,0" style="fill: none;"/><g class="overlines-above"/><g class="xaxislayer-above"><g class="xtick"><text text-anchor="middle" x="0" y="433" transform="translate(80,0)" style="font-family: 'Open Sans', verdana, arial, sans-serif; font-size: 12px; fill: rgb(42, 63, 95); fill-opacity: 1; white-space: pre; opacity: 1;">0</text></g><g class="xtick"><text text-anchor="middle" x="0" y="433" style="font-family: 'Open Sans', verdana, arial, sans-serif; font-size: 12px; fill: rgb(42, 63, 95); fill-opacity: 1; white-space: pre; opacity: 1;" transform="translate(190.2,0)">10</text></g><g class="xtick"><text text-anchor="middle" x="0" y="433" style="font-family: 'Open Sans', verdana, arial, sans-serif; font-size: 12px; fill: rgb(42, 63, 95); fill-opacity: 1; white-space: pre; opacity: 1;" transform="translate(300.40999999999997,0)">20</text></g><g class="xtick"><text text-anchor="middle" x="0" y="433" style="font-family: 'Open Sans', verdana, arial, sans-serif; font-size: 12px; fill: rgb(42, 63, 95); fill-opacity: 1; white-space: pre; opacity: 1;" transform="translate(410.61,0)">30</text></g><g class="xtick"><text text-anchor="middle" x="0" y="433" style="font-family: 'Open Sans', verdana, arial, sans-serif; font-size: 12px; fill: rgb(42, 63, 95); fill-opacity: 1; white-space: pre; opacity: 1;" transform="translate(520.8199999999999,0)">40</text></g></g><g class="yaxislayer-above"><g class="ytick"><text text-anchor="end" x="79" y="4.199999999999999" transform="translate(0,344.05)" style="font-family: 'Open Sans', verdana, arial, sans-serif; font-size: 12px; fill: rgb(42, 63, 95); fill-opacity: 1; white-space: pre; opacity: 1;">4</text></g><g class="ytick"><text text-anchor="end" x="79" y="4.199999999999999" style="font-family: 'Open Sans', verdana, arial, sans-serif; font-size: 12px; fill: rgb(42, 63, 95); fill-opacity: 1; white-space: pre; opacity: 1;" transform="translate(0,265.81)">4.5</text></g><g class="ytick"><text text-anchor="end" x="79" y="4.199999999999999" style="font-family: 'Open Sans', verdana, arial, sans-serif; font-size: 12px; fill: rgb(42, 63, 95); fill-opacity: 1; white-space: pre; opacity: 1;" transform="translate(0,187.57)">5</text></g><g class="ytick"><text text-anchor="end" x="79" y="4.199999999999999" style="font-family: 'Open Sans', verdana, arial, sans-serif; font-size: 12px; fill: rgb(42, 63, 95); fill-opacity: 1; white-space: pre; opacity: 1;" transform="translate(0,109.33)">5.5</text></g></g><g class="overaxes-above"/></g></g><g class="polarlayer"/><g class="ternarylayer"/><g class="geolayer"/><g class="funnelarealayer"/><g class="pielayer"/><g class="iciclelayer"/><g class="treemaplayer"/><g class="sunburstlayer"/><g class="glimages"/><defs id="topdefs-40da88"><g class="clips"/></defs><g class="layer-above"><g class="imagelayer"/><g class="shapelayer"/></g><g class="infolayer"><g class="g-gtitle"><text class="gtitle" x="35" y="50" text-anchor="start" dy="0em" style="font-family: 'Open Sans', verdana, arial, sans-serif; font-size: 17px; fill: rgb(42, 63, 95); opacity: 1; font-weight: normal; white-space: pre;">Train Loss: dpav4-eff_cnn</text></g><g class="g-xtitle"/><g class="g-ytitle"/></g></svg>