<svg class="main-svg" xmlns="http://www.w3.org/2000/svg" xmlns:xlink="http://www.w3.org/1999/xlink" width="700" height="500" style="" viewBox="0 0 700 500"><rect x="0" y="0" width="700" height="500" style="fill: rgb(255, 255, 255); fill-opacity: 1;"/><defs id="defs-33e64f"><g class="clips"><clipPath id="clip33e64fxyplot" class="plotclip"><rect width="540" height="320"/></clipPath><clipPath class="axesclip" id="clip33e64fx"><rect x="80" y="0" width="540" height="500"/></clipPath><clipPath class="axesclip" id="clip33e64fy"><rect x="0" y="100" width="700" height="320"/></clipPath><clipPath class="axesclip" id="clip33e64fxy"><rect x="80" y="100" width="540" height="320"/></clipPath></g><g class="gradients"/><g class="patterns"/></defs><g class="bglayer"><rect class="bg" x="80" y="100" width="540" height="320" style="fill: rgb(229, 236, 246); fill-opacity: 1; stroke-width: 0;"/></g><g class="layer-below"><g class="imagelayer"/><g class="shapelayer"/></g><g class="cartesianlayer"><g class="subplot xy"><g class="layer-subplot"><g class="shapelayer"/><g class="imagelayer"/></g><g class="gridlayer"><g class="x"><path class="xgrid crisp" transform="translate(188.43,0)" d="M0,100v320" style="stroke: rgb(255, 255, 255); stroke-opacity: 1; stroke-width: 1px;"/><path class="xgrid crisp" transform="translate(296.87,0)" d="M0,100v320" style="stroke: rgb(255, 255, 255); stroke-opacity: 1; stroke-width: 1px;"/><path class="xgrid crisp" transform="translate(405.3,0)" d="M0,100v320" style="stroke: rgb(255, 255, 255); stroke-opacity: 1; stroke-width: 1px;"/><path class="xgrid crisp" transform="translate(513.73,0)" d="M0,100v320" style="stroke: rgb(255, 255, 255); stroke-opacity: 1; stroke-width: 1px;"/></g><g class="y"><path class="ygrid crisp" transform="translate(0,374.05)" d="M80,0h540" style="stroke: rgb(255, 255, 255); stroke-opacity: 1; stroke-width: 1px;"/><path class="ygrid crisp" transform="translate(0,328.1)" d="M80,0h540" style="stroke: rgb(255, 255, 255); stroke-opacity: 1; stroke-width: 1px;"/><path class="ygrid crisp" transform="translate(0,282.15)" d="M80,0h540" style="stroke: rgb(255, 255, 255); stroke-opacity: 1; stroke-width: 1px;"/><path class="ygrid crisp" transform="translate(0,236.2)" d="M80,0h540" style="stroke: rgb(255, 255, 255); stroke-opacity: 1; stroke-width: 1px;"/><path class="ygrid crisp" transform="translate(0,190.25)" d="M80,0h540" style="stroke: rgb(255, 255, 255); stroke-opacity: 1; stroke-width: 1px;"/><path class="ygrid crisp" transform="translate(0,144.3)" d="M80,0h540" style="stroke: rgb(255, 255, 255); stroke-opacity: 1; stroke-width: 1px;"/></g></g><g class="zerolinelayer"><path class="xzl zl crisp" transform="translate(80,0)" d="M0,100v320" style="stroke: rgb(255, 255, 255); stroke-opacity: 1; stroke-width: 2px;"/><path class="yzl zl crisp" transform="translate(0,420)" d="M80,0h540" style="stroke: rgb(255, 255, 255); stroke-opacity: 1; stroke-width: 2px;"/></g><path class="xlines-below"/><path class="ylines-below"/><g class="overlines-below"/><g class="xaxislayer-below"/><g class="yaxislayer-below"/><g class="overaxes-below"/><g class="plot" transform="translate(80,100)" clip-path="url(#clip33e64fxyplot)"><g class="scatterlayer mlayer"><g class="trace scatter trace69cb03" style="stroke-miterlimit: 2; opacity: 1;"><g class="fills"/><g class="errorbars"/><g class="lines"><path class="js-line" d="M0,104.65L2.17,111.87L4.34,148.34L6.51,202.05L8.67,207.19L10.84,221.81L13.01,215.76L15.18,241.72L17.35,243.85L19.52,250.44L21.69,262.66L26.02,281.67L28.19,288.2L30.36,292.52L32.53,290.7L34.7,290.52L36.87,293.78L39.04,298.67L41.2,299.98L43.37,301.19L45.54,301.48L47.71,301.51L49.88,304.44L52.05,308.14L54.22,308.05L58.55,311.59L60.72,312.28L67.23,311.61L69.4,311.95L75.9,313.74L78.07,313L84.58,313.41L86.75,313.83L91.08,313.9L93.25,314.58L99.76,314.29L101.93,315.01L108.43,315.85L110.6,315.56L119.28,316.12L121.45,316.25L130.12,316.41L132.29,316.78L136.63,316.94L138.8,316.71L147.47,317.45L149.64,317.33L164.82,317.69L166.99,318.1L288.43,318.84L290.6,318.91L320.96,318.76L323.13,318.81L351.33,319L353.49,319.02L540,319.97" style="vector-effect: non-scaling-stroke; fill: none; stroke: rgb(99, 110, 250); stroke-opacity: 1; stroke-width: 2px; opacity: 1;"/></g><g class="points"/><g class="text"/></g><g class="trace scatter trace2d9bec" style="stroke-miterlimit: 2; opacity: 1;"><g class="fills"/><g class="errorbars"/><g class="lines"><path class="js-line" d="M0,89.67L4.34,133.18L6.51,195.83L10.84,232.14L13.01,233.21L15.18,249.35L17.35,255.29L19.52,255.98L21.69,270.65L26.02,288.64L28.19,287.77L30.36,291.42L32.53,287.09L34.7,290.99L36.87,293L39.04,295.5L41.2,301.36L43.37,304.52L45.54,300.59L47.71,301.73L49.88,304.61L52.05,307.25L54.22,307.47L56.39,308.44L58.55,310.99L67.23,310.07L69.4,310.59L75.9,313.5L78.07,313.15L82.41,313.63L84.58,313.31L88.92,314.52L91.08,314.05L93.25,315.16L95.42,315L104.1,316.05L106.27,316.69L110.6,315.49L112.77,315.88L123.61,316.22L125.78,316.41L132.29,316.64L134.46,316.76L149.64,317.87L151.81,317.75L177.83,318.83L180,318.62L193.01,318.79L195.18,318.93L212.53,319.16L214.7,319.16L225.54,319L227.71,319.05L238.55,319.28L240.72,319.31L268.92,319.41L271.08,319.43L284.1,319.7L286.27,319.71L353.49,319.91L355.66,319.9L427.23,319.98L429.4,319.98L540,320" style="vector-effect: non-scaling-stroke; fill: none; stroke: rgb(239, 85, 59); stroke-opacity: 1; stroke-width: 2px; opacity: 1;"/></g><g class="points"/><g class="text"/></g><g class="trace scatter traced0adbc" style="stroke-miterlimit: 2; opacity: 1;"><g class="fills"/><g class="errorbars"/><g class="lines"><path class="js-line" d="M0,94.16L2.17,113.85L4.34,144.14L6.51,183.23L8.67,203.71L10.84,224.48L13.01,229.08L15.18,247.53L17.35,247.86L19.52,239.02L21.69,254L23.86,251.9L26.02,269.81L28.19,272.16L30.36,277.11L32.53,273.75L34.7,274L36.87,278.44L39.04,278.41L41.2,280.41L43.37,284.6L45.54,277.76L47.71,279.77L49.88,283.23L52.05,290.54L58.55,303.53L60.72,302.76L62.89,305.24L65.06,306.42L67.23,306.81L69.4,309.32L73.73,312.56L75.9,314.16L78.07,313.07L80.24,313.8L86.75,315.28L88.92,315.2L95.42,316.67L97.59,316.73L101.93,317.05L104.1,317.39L110.6,317.47L112.77,317.1L119.28,317.35L121.45,316.95L134.46,317.68L136.63,317.89L182.17,318.77L184.34,319.01L227.71,319.19L229.88,319.14L249.4,319.25L251.57,319.27L275.42,319.63L277.59,319.59L373.01,319.88L375.18,319.9L540,319.97" style="vector-effect: non-scaling-stroke; fill: none; stroke: rgb(0, 204, 150); stroke-opacity: 1; stroke-width: 2px; opacity: 1;"/></g><g class="points"/><g class="text"/></g><g class="trace scatter trace0c796b" style="stroke-miterlimit: 2; opacity: 1;"><g class="fills"/><g class="errorbars"/><g class="lines"><path class="js-line" d="M0,101.14L2.17,145.29L4.34,167.88L6.51,204.09L8.67,223.42L10.84,246.55L13.01,258.69L15.18,278.14L17.35,281.55L19.52,274.29L21.69,280.09L23.86,277.9L26.02,289.28L28.19,290.12L30.36,292.85L32.53,286.54L34.7,289.14L36.87,290.4L39.04,290.36L41.2,297.65L43.37,299.13L45.54,295.77L47.71,295.06L54.22,306.07L56.39,307.3L58.55,309.85L60.72,310.22L67.23,312.97L69.4,313.8L78.07,315.97L80.24,315.75L84.58,315.52L86.75,315.25L91.08,315.58L93.25,316.35L106.27,317.63L108.43,317.51L125.78,317.2L127.95,317.33L136.63,317.73L138.8,317.72L199.52,319L201.69,319.02L212.53,318.96L214.7,319.02L227.71,318.72L229.88,318.94L242.89,318.92L245.06,318.96L251.57,318.96L253.73,319.21L279.76,319.6L281.93,319.59L305.78,319.67L307.95,319.67L420.72,319.97L422.89,319.96L540,319.99" style="vector-effect: non-scaling-stroke; fill: none; stroke: rgb(171, 99, 250); stroke-opacity: 1; stroke-width: 2px; opacity: 1;"/></g><g class="points"/><g class="text"/></g><g class="trace scatter tracef220be" style="stroke-miterlimit: 2; opacity: 1;"><g class="fills"/><g class="errorbars"/><g class="lines"><path class="js-line" d="M0,108.41L2.17,115.56L4.34,156.87L6.51,181.14L8.67,187.39L13.01,222.6L15.18,232.81L17.35,249.92L19.52,251.49L21.69,260.48L23.86,264.04L26.02,275.18L28.19,278.1L30.36,279.84L32.53,274.55L36.87,285.25L39.04,284.74L41.2,288.08L43.37,289.2L45.54,284.52L47.71,288.19L52.05,296.62L54.22,301.61L56.39,303.24L58.55,306.39L60.72,303.64L62.89,304.36L67.23,304.52L69.4,306.4L73.73,310.74L75.9,312.88L80.24,312.14L82.41,312.87L88.92,313.16L91.08,313.5L95.42,314.3L97.59,314.22L108.43,315.16L110.6,314.99L117.11,315.5L119.28,315.29L125.78,314.78L127.95,315.55L134.46,315.84L136.63,316.39L151.81,317.07L153.98,317.45L169.16,318.02L171.33,318.19L184.34,318.54L186.51,318.32L190.84,318.79L193.01,318.46L242.89,318.69L245.06,318.77L251.57,318.76L253.73,318.98L511.81,319.92L513.98,319.92L540,319.93" style="vector-effect: non-scaling-stroke; fill: none; stroke: rgb(255, 161, 90); stroke-opacity: 1; stroke-width: 2px; opacity: 1;"/></g><g class="points"/><g class="text"/></g><g class="trace scatter trace4aeaee" style="stroke-miterlimit: 2; opacity: 1;"><g class="fills"/><g class="errorbars"/><g class="lines"><path class="js-line" d="M0,87.52L6.51,206.33L8.67,217.3L10.84,221.94L13.01,230.34L15.18,246.35L17.35,249.86L19.52,251.61L21.69,268.85L23.86,270.67L26.02,283.9L28.19,287.96L30.36,286.4L32.53,285.89L34.7,286.8L36.87,290.97L39.04,291.24L41.2,297.42L43.37,299.77L45.54,294.99L47.71,295.84L54.22,306.34L56.39,308.17L58.55,310.24L60.72,309.37L62.89,309.08L65.06,310.04L67.23,312.46L69.4,313.15L71.57,314.47L73.73,314.62L75.9,315.61L78.07,315.2L80.24,314.4L82.41,314.9L88.92,315.41L91.08,315.94L101.93,316.32L104.1,316.96L108.43,317.68L110.6,317.81L125.78,317.46L127.95,317.89L151.81,318.18L153.98,318.47L166.99,318.86L169.16,318.9L193.01,319.17L195.18,319.05L210.36,319.22L212.53,319.09L240.72,319.15L242.89,319.17L255.9,319.29L258.07,319.3L346.99,319.87L349.16,319.84L407.71,319.92L409.88,319.92L540,319.98" style="vector-effect: non-scaling-stroke; fill: none; stroke: rgb(25, 211, 243); stroke-opacity: 1; stroke-width: 2px; opacity: 1;"/></g><g class="points"/><g class="text"/></g><g class="trace scatter traced7d6b6" style="stroke-miterlimit: 2; opacity: 1;"><g class="fills"/><g class="errorbars"/><g class="lines"><path class="js-line" d="M0,99.98L4.34,178.9L6.51,220.37L10.84,238.09L13.01,238.23L15.18,252.27L17.35,259.66L19.52,256.98L21.69,267.3L26.02,274.84L28.19,281.21L30.36,288.05L32.53,280.94L34.7,281.51L36.87,287.11L39.04,288.03L41.2,290.97L43.37,293.44L45.54,292.5L47.71,293.02L49.88,299.35L52.05,304.28L54.22,306.82L58.55,310.52L60.72,310.24L65.06,312.54L67.23,310.92L75.9,315.65L78.07,316L82.41,316.54L84.58,316.18L88.92,316.29L91.08,315.92L99.76,317.13L101.93,317.25L108.43,317.24L110.6,317.14L119.28,317.5L121.45,317.65L132.29,318L134.46,318.11L140.96,318.21L143.13,318.34L156.14,318.57L158.31,318.56L169.16,318.94L171.33,318.99L182.17,319.08L184.34,319.12L201.69,319.31L203.86,319.24L247.23,319.59L249.4,319.54L281.93,319.4L284.1,319.57L318.8,319.82L320.96,319.84L513.98,319.99L516.14,319.99L540,319.99" style="vector-effect: non-scaling-stroke; fill: none; stroke: rgb(255, 102, 146); stroke-opacity: 1; stroke-width: 2px; opacity: 1;"/></g><g class="points"/><g class="text"/></g><g class="trace scatter tracee654a7" style="stroke-miterlimit: 2; opacity: 1;"><g class="fills"/><g class="errorbars"/><g class="lines"><path class="js-line" d="M0,92.81L2.17,106.65L4.34,142.84L6.51,182.35L8.67,186.03L10.84,214.61L13.01,211.84L17.35,237.18L19.52,236.07L21.69,254.08L23.86,261.53L26.02,277.27L28.19,280.29L30.36,280.4L32.53,276.44L36.87,290.22L39.04,289.49L41.2,293.1L43.37,295.06L45.54,288.38L47.71,289.01L56.39,306.71L58.55,309.38L62.89,307.12L65.06,307.23L67.23,310.29L69.4,311.29L75.9,314.57L78.07,314.46L80.24,314.27L82.41,315.16L91.08,314.76L93.25,315.49L99.76,315.53L101.93,316.03L106.27,316.29L108.43,316.59L117.11,317.19L119.28,316.38L132.29,316.51L134.46,316.81L147.47,317.27L149.64,317.28L171.33,318.26L173.49,318.6L199.52,319.15L201.69,319.31L221.2,319.23L223.37,319.27L236.39,319.05L238.55,319.22L249.4,319.47L251.57,319.35L331.81,319.76L333.98,319.78L396.87,319.94L399.04,319.94L483.61,319.99L485.78,319.99L540,319.99" style="vector-effect: non-scaling-stroke; fill: none; stroke: rgb(182, 232, 128); stroke-opacity: 1; stroke-width: 2px; opacity: 1;"/></g><g class="points"/><g class="text"/></g><g class="trace scatter trace088548" style="stroke-miterlimit: 2; opacity: 1;"><g class="fills"/><g class="errorbars"/><g class="lines"><path class="js-line" d="M0,113.5L2.17,131.38L4.34,168.92L6.51,213.84L8.67,227.59L15.18,263.34L17.35,264.5L19.52,262.43L21.69,273.32L23.86,275.04L26.02,280.33L28.19,280.12L30.36,284.67L32.53,280.95L34.7,284.04L36.87,288.42L39.04,290.23L41.2,293.03L43.37,293.31L45.54,287.94L47.71,288.79L49.88,295.06L52.05,298.12L54.22,302.49L56.39,304.3L58.55,308.14L60.72,307.82L65.06,307.08L67.23,308.28L71.57,311.35L73.73,312.81L75.9,313.93L78.07,313.56L80.24,313.17L82.41,313.66L86.75,314.17L88.92,314.29L91.08,314.21L93.25,315.29L104.1,316.21L106.27,316.89L112.77,316.68L114.94,316.94L123.61,317.01L125.78,316.94L134.46,317.4L136.63,317.71L216.87,319.18L219.04,318.99L227.71,319.16L229.88,319.12L242.89,319.17L245.06,319.29L281.93,319.45L284.1,319.52L316.63,319.76L318.8,319.71L540,319.98" style="vector-effect: non-scaling-stroke; fill: none; stroke: rgb(255, 151, 255); stroke-opacity: 1; stroke-width: 2px; opacity: 1;"/></g><g class="points"/><g class="text"/></g><g class="trace scatter trace75e52a" style="stroke-miterlimit: 2; opacity: 1;"><g class="fills"/><g class="errorbars"/><g class="lines"><path class="js-line" d="M0,95.19L2.17,144.94L4.34,171.09L6.51,215.47L8.67,228.06L10.84,255.13L13.01,251.99L15.18,269.42L17.35,266.9L19.52,263.72L21.69,280.99L23.86,284.34L26.02,285.77L30.36,291.89L32.53,284.84L34.7,290.51L36.87,292.98L39.04,293.69L41.2,298.07L43.37,300.02L45.54,298.77L47.71,298.76L49.88,302.33L52.05,304.61L54.22,305.73L56.39,305.96L58.55,308.01L62.89,308.81L65.06,310.71L69.4,312.02L71.57,313.54L73.73,314.01L75.9,315.54L80.24,315.8L82.41,315.71L91.08,315.71L93.25,316.39L97.59,316.1L99.76,316.48L104.1,316.91L106.27,317.69L121.45,317.46L123.61,317.59L143.13,318.19L145.3,318.38L210.36,319.04L212.53,319.05L219.04,318.74L221.2,318.97L229.88,319.12L232.05,318.94L255.9,319.23L258.07,319.25L540,320" style="vector-effect: non-scaling-stroke; fill: none; stroke: rgb(254, 203, 82); stroke-opacity: 1; stroke-width: 2px; opacity: 1;"/></g><g class="points"/><g class="text"/></g><g class="trace scatter trace3dcca4" style="stroke-miterlimit: 2; opacity: 1;"><g class="fills"/><g class="errorbars"/><g class="lines"><path class="js-line" d="M0,102.83L6.51,204.88L8.67,225.53L10.84,243.48L13.01,248.41L15.18,265.98L17.35,272.06L19.52,271.35L21.69,281.49L23.86,280.45L26.02,291.83L28.19,294.99L30.36,295.78L32.53,295.8L34.7,294.12L36.87,296.49L39.04,297.38L41.2,300.32L43.37,301.14L45.54,299.28L47.71,299.19L49.88,304.55L52.05,306.26L54.22,307.67L56.39,307.49L58.55,309.34L60.72,309.81L67.23,312.83L69.4,312.94L73.73,314.43L75.9,315.31L80.24,315.08L82.41,316.01L88.92,316.08L91.08,316.45L99.76,317.1L101.93,316.98L108.43,316.96L110.6,316.93L169.16,318.52L171.33,318.58L184.34,318.73L186.51,318.62L197.35,319.05L199.52,319.14L225.54,319.14L227.71,319.12L266.75,319.29L268.92,319.29L290.6,319.69L292.77,319.73L540,319.98" style="vector-effect: non-scaling-stroke; fill: none; stroke: rgb(99, 110, 250); stroke-opacity: 1; stroke-width: 2px; opacity: 1;"/></g><g class="points"/><g class="text"/></g><g class="trace scatter tracef15e6f" style="stroke-miterlimit: 2; opacity: 1;"><g class="fills"/><g class="errorbars"/><g class="lines"><path class="js-line" d="M0,89.38L4.34,143.1L6.51,198.62L8.67,206.54L10.84,221.95L13.01,221.31L15.18,239.56L19.52,252.38L21.69,269.85L23.86,271.98L26.02,281.82L30.36,287.54L32.53,281.12L34.7,283.37L36.87,284.24L39.04,284.61L41.2,287.4L43.37,288.94L45.54,284.89L47.71,286.1L49.88,290.59L54.22,298.88L56.39,303.29L58.55,306.06L60.72,306.24L62.89,305.43L65.06,308.48L73.73,313.07L75.9,314.29L84.58,314.91L86.75,314.71L91.08,315.35L93.25,316.35L97.59,316.5L99.76,316.42L106.27,317.31L108.43,317.38L117.11,317.69L119.28,317.66L125.78,317.35L127.95,317.76L134.46,317.74L136.63,317.8L149.64,318.35L151.81,318.14L193.01,319.08L195.18,319.11L236.39,319.14L238.55,319.34L305.78,319.83L307.95,319.77L412.05,319.98L414.22,319.99L540,320" style="vector-effect: non-scaling-stroke; fill: none; stroke: rgb(239, 85, 59); stroke-opacity: 1; stroke-width: 2px; opacity: 1;"/></g><g class="points"/><g class="text"/></g><g class="trace scatter trace5539ea" style="stroke-miterlimit: 2; opacity: 1;"><g class="fills"/><g class="errorbars"/><g class="lines"><path class="js-line" d="M0,65.65L2.17,107.45L4.34,85.82L6.51,115.02L8.67,125.09L10.84,140.76L13.01,144.93L15.18,159.21L17.35,182.63L19.52,178.63L21.69,200.91L23.86,213.4L26.02,231.27L28.19,234L30.36,238.94L32.53,229.07L34.7,234.41L36.87,234.55L39.04,245.4L41.2,247.05L43.37,256.12L45.54,250.58L47.71,251.12L49.88,254.57L52.05,265.55L54.22,271.28L56.39,281.72L58.55,287.93L60.72,288.15L62.89,293.49L65.06,290L69.4,292.06L71.57,299.09L73.73,301.01L75.9,305.03L78.07,303.72L80.24,304.57L82.41,307.9L84.58,305.41L88.92,307.51L91.08,308.2L95.42,309.09L97.59,308.28L101.93,310.62L104.1,311.33L108.43,311.93L110.6,311.17L112.77,310.75L114.94,311.52L123.61,312.63L125.78,312.64L134.46,314.88L136.63,315.22L145.3,315.77L147.47,316.54L149.64,315.88L151.81,316.81L156.14,317.05L158.31,317.62L193.01,318.57L195.18,318.49L234.22,318.93L236.39,318.87L268.92,319.55L271.08,319.59L331.81,319.39L333.98,319.49L364.34,319.51L366.51,319.58L442.41,319.93L444.58,319.91L540,319.97" style="vector-effect: non-scaling-stroke; fill: none; stroke: rgb(0, 204, 150); stroke-opacity: 1; stroke-width: 2px; opacity: 1;"/></g><g class="points"/><g class="text"/></g><g class="trace scatter trace46483b" style="stroke-miterlimit: 2; opacity: 1;"><g class="fills"/><g class="errorbars"/><g class="lines"><path class="js-line" d="M0,76.88L4.34,165.45L6.51,196.98L8.67,209.87L10.84,236.07L13.01,230.51L15.18,249.89L19.52,267.55L21.69,281.36L23.86,281.69L26.02,293.36L28.19,290.2L30.36,291.29L32.53,284.7L34.7,285.79L36.87,289.95L39.04,288.67L41.2,288.51L43.37,293.26L45.54,296.38L47.71,296.15L49.88,300.93L52.05,303.42L56.39,306.17L58.55,308.8L60.72,307.91L62.89,308.91L65.06,309.66L67.23,307.43L69.4,309.85L71.57,310.42L73.73,311.26L75.9,313.38L80.24,313.06L82.41,311.61L84.58,311.52L86.75,312.62L91.08,312.83L93.25,314.12L97.59,313.09L99.76,313.7L106.27,314.43L108.43,314.27L110.6,313.02L112.77,313.54L119.28,314.03L121.45,314.42L125.78,315.33L127.95,315.33L143.13,316L145.3,316.38L147.47,316.86L149.64,316.56L162.65,317.72L164.82,317.71L175.66,318.49L177.83,318.51L234.22,319.15L236.39,318.96L249.4,319.16L251.57,319.12L268.92,319.12L271.08,319.13L284.1,319.1L286.27,319.06L297.11,319.38L299.28,319.38L323.13,319.45L325.3,319.37L418.55,319.93L420.72,319.94L503.13,319.93L505.3,319.94L540,319.94" style="vector-effect: non-scaling-stroke; fill: none; stroke: rgb(171, 99, 250); stroke-opacity: 1; stroke-width: 2px; opacity: 1;"/></g><g class="points"/><g class="text"/></g><g class="trace scatter trace50ad66" style="stroke-miterlimit: 2; opacity: 1;"><g class="fills"/><g class="errorbars"/><g class="lines"><path class="js-line" d="M0,93.97L2.17,136.98L4.34,143.96L6.51,195.45L8.67,201.3L10.84,228.14L13.01,231.45L17.35,247.43L19.52,251.75L21.69,261.08L23.86,262.43L26.02,274.04L28.19,276.08L30.36,285.26L32.53,278.92L34.7,279.99L36.87,282.93L39.04,283.11L41.2,284.29L43.37,286.6L45.54,284.25L47.71,286.91L49.88,294.44L52.05,298.77L54.22,299.74L58.55,303.68L60.72,303.87L62.89,304.93L65.06,307.69L67.23,304.94L69.4,305.93L71.57,309.24L73.73,310.3L75.9,314.41L78.07,314.02L80.24,314.22L82.41,313.59L84.58,313.09L86.75,313.46L88.92,314.01L91.08,313.54L93.25,314.6L95.42,314.66L108.43,316.32L110.6,315.85L125.78,316.45L127.95,316.57L138.8,317.24L140.96,317.14L147.47,317.91L149.64,317.69L169.16,318.62L171.33,318.76L271.08,318.92L273.25,319.19L299.28,319.65L301.45,319.73L351.33,319.74L353.49,319.76L420.72,319.96L422.89,319.95L500.96,319.97L503.13,319.97L540,319.96" style="vector-effect: non-scaling-stroke; fill: none; stroke: rgb(255, 161, 90); stroke-opacity: 1; stroke-width: 2px; opacity: 1;"/></g><g class="points"/><g class="text"/></g><g class="trace scatter trace172923" style="stroke-miterlimit: 2; opacity: 1;"><g class="fills"/><g class="errorbars"/><g class="lines"><path class="js-line" d="M0,98.29L2.17,138.35L4.34,160.33L6.51,213.87L8.67,226.06L10.84,248.53L13.01,251.71L17.35,271.51L19.52,272.77L21.69,282.24L23.86,283.57L26.02,290.32L28.19,287.84L30.36,289.62L32.53,281.69L34.7,282.79L36.87,286.88L39.04,289.2L41.2,294.41L43.37,298.23L45.54,296.04L47.71,296.51L49.88,300.15L54.22,304.98L56.39,306.06L60.72,308.48L62.89,309.72L65.06,311.1L67.23,311.3L78.07,315.33L80.24,315.41L86.75,315.51L88.92,315.51L99.76,316.81L101.93,317.26L132.29,317.93L134.46,318.1L151.81,318.08L153.98,318.22L171.33,318.83L173.49,318.93L188.67,318.95L190.84,318.79L208.19,318.91L210.36,318.99L223.37,318.97L225.54,318.76L238.55,319.07L240.72,319.19L390.36,319.95L392.53,319.95L540,320" style="vector-effect: non-scaling-stroke; fill: none; stroke: rgb(25, 211, 243); stroke-opacity: 1; stroke-width: 2px; opacity: 1;"/></g><g class="points"/><g class="text"/></g><g class="trace scatter trace7a28a0" style="stroke-miterlimit: 2; opacity: 1;"><g class="fills"/><g class="errorbars"/><g class="lines"><path class="js-line" d="M0,80.46L4.34,156.93L6.51,209.37L8.67,216.08L10.84,228.6L13.01,226.83L15.18,243.09L17.35,241.6L19.52,249.76L21.69,265.09L23.86,270.81L28.19,280.66L30.36,286.92L34.7,282.81L36.87,287.18L39.04,287.39L41.2,292.63L43.37,295.53L45.54,293.3L47.71,293.58L49.88,296.35L52.05,303.94L54.22,307.33L58.55,310.49L60.72,309.97L62.89,310.17L65.06,311.14L67.23,310.29L69.4,311.4L75.9,314.75L78.07,314.38L84.58,314.54L86.75,314.39L108.43,316.91L110.6,316.75L136.63,317.53L138.8,317.29L147.47,318.1L149.64,318.03L158.31,317.96L160.48,318.06L182.17,318.92L184.34,318.86L197.35,319.09L199.52,319.28L227.71,319.41L229.88,319.48L271.08,319.36L273.25,319.45L318.8,319.76L320.96,319.77L526.99,319.97L529.16,319.97L540,319.97" style="vector-effect: non-scaling-stroke; fill: none; stroke: rgb(255, 102, 146); stroke-opacity: 1; stroke-width: 2px; opacity: 1;"/></g><g class="points"/><g class="text"/></g><g class="trace scatter trace7163e7" style="stroke-miterlimit: 2; opacity: 1;"><g class="fills"/><g class="errorbars"/><g class="lines"><path class="js-line" d="M0,103.73L6.51,200.11L8.67,215.72L13.01,246.94L15.18,259.64L19.52,265.28L21.69,273.25L23.86,270.48L26.02,273.83L28.19,271.5L30.36,278.98L32.53,270.73L34.7,270.29L39.04,278.02L41.2,288.75L43.37,291.93L45.54,287.1L47.71,289.31L49.88,296.78L54.22,305.98L56.39,306.2L58.55,309.32L60.72,310.47L62.89,312.56L65.06,312.85L78.07,316.35L80.24,316.15L84.58,316.18L86.75,316.33L110.6,317.92L112.77,317.94L123.61,317.77L125.78,317.86L171.33,319.15L173.49,319.1L201.69,319.38L203.86,319.29L236.39,319.15L238.55,319.25L281.93,319.73L284.1,319.72L540,319.99" style="vector-effect: non-scaling-stroke; fill: none; stroke: rgb(182, 232, 128); stroke-opacity: 1; stroke-width: 2px; opacity: 1;"/></g><g class="points"/><g class="text"/></g><g class="trace scatter tracee70b49" style="stroke-miterlimit: 2; opacity: 1;"><g class="fills"/><g class="errorbars"/><g class="lines"><path class="js-line" d="M0,67.15L4.34,168.18L6.51,207.14L10.84,248.61L13.01,236.15L15.18,252.3L17.35,251.73L19.52,248.47L21.69,265.88L23.86,271.97L26.02,282.12L30.36,289.34L32.53,287.96L34.7,286.25L36.87,290.36L39.04,292.64L41.2,299.51L43.37,300.36L45.54,298.12L47.71,299.37L49.88,302.78L52.05,303.67L54.22,306.21L58.55,310.88L60.72,310.32L69.4,311.85L71.57,313.05L75.9,315.25L78.07,315.16L82.41,315.05L84.58,314.8L91.08,315L93.25,316.08L99.76,316.65L101.93,316.81L145.3,318.54L147.47,318.46L169.16,318.88L171.33,318.95L184.34,319.18L186.51,319.04L193.01,319.06L195.18,319.22L251.57,319.31L253.73,319.53L299.28,319.65L301.45,319.68L368.67,319.69L370.84,319.79L540,319.99" style="vector-effect: non-scaling-stroke; fill: none; stroke: rgb(255, 151, 255); stroke-opacity: 1; stroke-width: 2px; opacity: 1;"/></g><g class="points"/><g class="text"/></g><g class="trace scatter tracea27180" style="stroke-miterlimit: 2; opacity: 1;"><g class="fills"/><g class="errorbars"/><g class="lines"><path class="js-line" d="M0,87.7L4.34,140.4L6.51,191.51L8.67,205.02L10.84,229.47L13.01,230.41L15.18,245.01L17.35,245.69L19.52,252.2L21.69,259.86L23.86,258.22L26.02,276.21L28.19,282.32L30.36,288.5L32.53,285.72L34.7,286.13L36.87,287.91L39.04,289.17L41.2,294.66L43.37,294.36L45.54,289.97L47.71,290.97L49.88,298.89L54.22,304.87L56.39,306.09L58.55,307.67L60.72,308.24L62.89,308.4L65.06,310.56L71.57,314.13L73.73,314.7L75.9,316.07L78.07,315.8L86.75,315.82L88.92,315.97L97.59,316.9L99.76,316.93L106.27,317.97L108.43,317.81L112.77,317.63L114.94,317.55L140.96,318.54L143.13,318.4L153.98,318.59L156.14,318.52L177.83,319.19L180,319.09L229.88,319.08L232.05,318.94L247.23,318.99L249.4,319.02L260.24,319.14L262.41,319.33L325.3,319.67L327.47,319.72L353.49,319.84L355.66,319.85L416.39,319.99L418.55,319.99L540,319.98" style="vector-effect: non-scaling-stroke; fill: none; stroke: rgb(254, 203, 82); stroke-opacity: 1; stroke-width: 2px; opacity: 1;"/></g><g class="points"/><g class="text"/></g></g></g><g class="overplot"/><path class="xlines-above crisp" d="M0,0" style="fill: none;"/><path class="ylines-above crisp" d="M0,0" style="fill: none;"/><g class="overlines-above"/><g class="xaxislayer-above"><g class="xtick"><text text-anchor="middle" x="0" y="433" transform="translate(80,0)" style="font-family: 'Open Sans', verdana, arial, sans-serif; font-size: 12px; fill: rgb(42, 63, 95); fill-opacity: 1; white-space: pre; opacity: 1;">0</text></g><g class="xtick"><text text-anchor="middle" x="0" y="433" style="font-family: 'Open Sans', verdana, arial, sans-serif; font-size: 12px; fill: rgb(42, 63, 95); fill-opacity: 1; white-space: pre; opacity: 1;" transform="translate(188.43,0)">50</text></g><g class="xtick"><text text-anchor="middle" x="0" y="433" style="font-family: 'Open Sans', verdana, arial, sans-serif; font-size: 12px; fill: rgb(42, 63, 95); fill-opacity: 1; white-space: pre; opacity: 1;" transform="translate(296.87,0)">100</text></g><g class="xtick"><text text-anchor="middle" x="0" y="433" style="font-family: 'Open Sans', verdana, arial, sans-serif; font-size: 12px; fill: rgb(42, 63, 95); fill-opacity: 1; white-space: pre; opacity: 1;" transform="translate(405.3,0)">150</text></g><g class="xtick"><text text-anchor="middle" x="0" y="433" style="font-family: 'Open Sans', verdana, arial, sans-serif; font-size: 12px; fill: rgb(42, 63, 95); fill-opacity: 1; white-space: pre; opacity: 1;" transform="translate(513.73,0)">200</text></g></g><g class="yaxislayer-above"><g class="ytick"><text text-anchor="end" x="79" y="4.199999999999999" transform="translate(0,420)" style="font-family: 'Open Sans', verdana, arial, sans-serif; font-size: 12px; fill: rgb(42, 63, 95); fill-opacity: 1; white-space: pre; opacity: 1;">0</text></g><g class="ytick"><text text-anchor="end" x="79" y="4.199999999999999" style="font-family: 'Open Sans', verdana, arial, sans-serif; font-size: 12px; fill: rgb(42, 63, 95); fill-opacity: 1; white-space: pre; opacity: 1;" transform="translate(0,374.05)">1000</text></g><g class="ytick"><text text-anchor="end" x="79" y="4.199999999999999" style="font-family: 'Open Sans', verdana, arial, sans-serif; font-size: 12px; fill: rgb(42, 63, 95); fill-opacity: 1; white-space: pre; opacity: 1;" transform="translate(0,328.1)">2000</text></g><g class="ytick"><text text-anchor="end" x="79" y="4.199999999999999" style="font-family: 'Open Sans', verdana, arial, sans-serif; font-size: 12px; fill: rgb(42, 63, 95); fill-opacity: 1; white-space: pre; opacity: 1;" transform="translate(0,282.15)">3000</text></g><g class="ytick"><text text-anchor="end" x="79" y="4.199999999999999" style="font-family: 'Open Sans', verdana, arial, sans-serif; font-size: 12px; fill: rgb(42, 63, 95); fill-opacity: 1; white-space: pre; opacity: 1;" transform="translate(0,236.2)">4000</text></g><g class="ytick"><text text-anchor="end" x="79" y="4.199999999999999" style="font-family: 'Open Sans', verdana, arial, sans-serif; font-size: 12px; fill: rgb(42, 63, 95); fill-opacity: 1; white-space: pre; opacity: 1;" transform="translate(0,190.25)">5000</text></g><g class="ytick"><text text-anchor="end" x="79" y="4.199999999999999" style="font-family: 'Open Sans', verdana, arial, sans-serif; font-size: 12px; fill: rgb(42, 63, 95); fill-opacity: 1; white-space: pre; opacity: 1;" transform="translate(0,144.3)">6000</text></g></g><g class="overaxes-above"/></g></g><g class="polarlayer"/><g class="ternarylayer"/><g class="geolayer"/><g class="funnelarealayer"/><g class="pielayer"/><g class="iciclelayer"/><g class="treemaplayer"/><g class="sunburstlayer"/><g class="glimages"/><defs id="topdefs-33e64f"><g class="clips"/></defs><g class="layer-above"><g class="imagelayer"/><g class="shapelayer"/></g><g class="infolayer"><g class="g-gtitle"><text class="gtitle" x="35" y="50" text-anchor="start" dy="0em" style="font-family: 'Open Sans', verdana, arial, sans-serif; font-size: 17px; fill: rgb(42, 63, 95); opacity: 1; font-weight: normal; white-space: pre;">Rank Variance: ascad_50-eff_cnn (with early stopping)</text></g><g class="g-xtitle"/><g class="g-ytitle"/></g></svg>