<svg class="main-svg" xmlns="http://www.w3.org/2000/svg" xmlns:xlink="http://www.w3.org/1999/xlink" width="700" height="500" style="" viewBox="0 0 700 500"><rect x="0" y="0" width="700" height="500" style="fill: rgb(255, 255, 255); fill-opacity: 1;"/><defs id="defs-15c382"><g class="clips"><clipPath id="clip15c382xyplot" class="plotclip"><rect width="540" height="320"/></clipPath><clipPath class="axesclip" id="clip15c382x"><rect x="80" y="0" width="540" height="500"/></clipPath><clipPath class="axesclip" id="clip15c382y"><rect x="0" y="100" width="700" height="320"/></clipPath><clipPath class="axesclip" id="clip15c382xy"><rect x="80" y="100" width="540" height="320"/></clipPath></g><g class="gradients"/><g class="patterns"/></defs><g class="bglayer"><rect class="bg" x="80" y="100" width="540" height="320" style="fill: rgb(237, 237, 237); fill-opacity: 1; stroke-width: 0;"/></g><g class="layer-below"><g class="imagelayer"/><g class="shapelayer"/></g><g class="cartesianlayer"><g class="subplot xy"><g class="layer-subplot"><g class="shapelayer"/><g class="imagelayer"/></g><g class="gridlayer"><g class="x"><path class="xgrid crisp" transform="translate(190.2,0)" d="M0,100v320" style="stroke: rgb(255, 255, 255); stroke-opacity: 1; stroke-width: 1px;"/><path class="xgrid crisp" transform="translate(300.40999999999997,0)" d="M0,100v320" style="stroke: rgb(255, 255, 255); stroke-opacity: 1; stroke-width: 1px;"/><path class="xgrid crisp" transform="translate(410.61,0)" d="M0,100v320" style="stroke: rgb(255, 255, 255); stroke-opacity: 1; stroke-width: 1px;"/><path class="xgrid crisp" transform="translate(520.8199999999999,0)" d="M0,100v320" style="stroke: rgb(255, 255, 255); stroke-opacity: 1; stroke-width: 1px;"/></g><g class="y"><path class="ygrid crisp" transform="translate(0,405.36)" d="M80,0h540" style="stroke: rgb(255, 255, 255); stroke-opacity: 1; stroke-width: 1px;"/><path class="ygrid crisp" transform="translate(0,358.3)" d="M80,0h540" style="stroke: rgb(255, 255, 255); stroke-opacity: 1; stroke-width: 1px;"/><path class="ygrid crisp" transform="translate(0,311.24)" d="M80,0h540" style="stroke: rgb(255, 255, 255); stroke-opacity: 1; stroke-width: 1px;"/><path class="ygrid crisp" transform="translate(0,264.18)" d="M80,0h540" style="stroke: rgb(255, 255, 255); stroke-opacity: 1; stroke-width: 1px;"/><path class="ygrid crisp" transform="translate(0,217.12)" d="M80,0h540" style="stroke: rgb(255, 255, 255); stroke-opacity: 1; stroke-width: 1px;"/><path class="ygrid crisp" transform="translate(0,170.07)" d="M80,0h540" style="stroke: rgb(255, 255, 255); stroke-opacity: 1; stroke-width: 1px;"/><path class="ygrid crisp" transform="translate(0,123.01)" d="M80,0h540" style="stroke: rgb(255, 255, 255); stroke-opacity: 1; stroke-width: 1px;"/></g></g><g class="zerolinelayer"><path class="xzl zl crisp" transform="translate(80,0)" d="M0,100v320" style="stroke: rgb(255, 255, 255); stroke-opacity: 1; stroke-width: 1px;"/></g><path class="xlines-below"/><path class="ylines-below"/><g class="overlines-below"/><g class="xaxislayer-below"/><g class="yaxislayer-below"/><g class="overaxes-below"/><g class="plot" transform="translate(80,100)" clip-path="url(#clip15c382xyplot)"><g class="scatterlayer mlayer"><g class="trace scatter trace352b62" style="stroke-miterlimit: 2; opacity: 1;"><g class="fills"/><g class="errorbars"/><g class="lines"><path class="js-line" d="M0,313.73L11.02,292.29L22.04,286.01L33.06,258.82L44.08,258.82L55.1,237.39L66.12,244.18L77.14,245.23L88.16,232.68L99.18,219.08L110.2,208.63L121.22,204.97L132.24,198.17L143.27,203.4L154.29,196.6L165.31,185.62L176.33,196.6L187.35,211.76L198.37,204.44L209.39,208.63L220.41,178.82L231.43,169.93L242.45,197.65L253.47,158.43L264.49,160.52L275.51,153.73L286.53,142.22L297.55,141.7L308.57,151.63L319.59,117.65L330.61,116.08L341.63,122.88L352.65,100.92L363.67,99.35L374.69,83.66L385.71,82.09L396.73,72.68L407.76,63.27L418.78,49.67L429.8,46.54L440.82,35.03L451.84,45.49L462.86,33.99L473.88,32.94L484.9,29.8L495.92,33.46L506.94,19.35L517.96,27.19L528.98,25.1L540,18.82" style="vector-effect: non-scaling-stroke; fill: none; stroke: rgb(248, 118, 109); stroke-opacity: 1; stroke-width: 2px; opacity: 1;"/></g><g class="points"/><g class="text"/></g><g class="trace scatter trace056e10" style="stroke-miterlimit: 2; opacity: 1;"><g class="fills"/><g class="errorbars"/><g class="lines"><path class="js-line" d="M0,306.93L11.02,277.12L22.04,281.31L33.06,272.42L44.08,251.5L55.1,246.8L66.12,247.32L77.14,225.88L88.16,228.5L99.18,224.31L110.2,233.2L121.22,223.27L132.24,218.04L143.27,206.54L154.29,226.41L165.31,202.35L176.33,210.2L187.35,236.34L198.37,223.79L209.39,218.04L220.41,209.15L231.43,211.76L242.45,196.08L264.49,197.12L275.51,184.58L286.53,168.89L297.55,187.71L308.57,168.37L319.59,178.3L330.61,172.03L341.63,152.16L352.65,156.86L363.67,140.65L374.69,132.29L385.71,138.04L396.73,126.01L407.76,121.83L418.78,119.74L429.8,104.05L440.82,89.93L451.84,103.53L462.86,101.96L473.88,96.21L484.9,88.89L495.92,88.37L517.96,83.66L528.98,82.09L540,86.8" style="vector-effect: non-scaling-stroke; fill: none; stroke: rgb(163, 165, 0); stroke-opacity: 1; stroke-width: 2px; opacity: 1;"/></g><g class="points"/><g class="text"/></g><g class="trace scatter tracebe0a9e" style="stroke-miterlimit: 2; opacity: 1;"><g class="fills"/><g class="errorbars"/><g class="lines"><path class="js-line" d="M0,308.5L11.02,299.61L22.04,279.22L33.06,276.6L44.08,270.85L55.1,243.66L66.12,243.66L77.14,243.66L88.16,229.54L99.18,229.02L110.2,224.31L132.24,185.1L143.27,207.06L154.29,186.14L165.31,183.53L176.33,211.76L187.35,194.51L198.37,179.35L209.39,189.28L220.41,175.69L231.43,169.93L242.45,163.66L253.47,154.77L264.49,147.45L275.51,153.73L286.53,151.11L297.55,138.04L308.57,136.47L319.59,111.37L330.61,124.97L341.63,126.01L352.65,112.42L363.67,91.5L374.69,86.27L385.71,89.41L396.73,93.59L407.76,93.07L418.78,70.59L429.8,60.65L451.84,54.9L462.86,46.54L473.88,43.4L484.9,44.97L495.92,51.76L506.94,37.65L517.96,38.17L528.98,36.08L540,37.12" style="vector-effect: non-scaling-stroke; fill: none; stroke: rgb(0, 191, 125); stroke-opacity: 1; stroke-width: 2px; opacity: 1;"/></g><g class="points"/><g class="text"/></g><g class="trace scatter trace04d0b9" style="stroke-miterlimit: 2; opacity: 1;"><g class="fills"/><g class="errorbars"/><g class="lines"><path class="js-line" d="M0,306.93L11.02,291.24L22.04,273.99L33.06,280.26L44.08,254.12L55.1,264.05L66.12,250.98L77.14,224.84L88.16,241.57L99.18,233.73L110.2,208.1L132.24,190.85L143.27,184.58L154.29,179.87L165.31,194.51L176.33,174.12L187.35,195.56L198.37,172.55L209.39,170.98L220.41,180.92L231.43,173.07L242.45,173.07L253.47,153.2L264.49,167.84L275.51,151.63L286.53,149.02L297.55,147.97L308.57,139.61L319.59,141.7L330.61,121.31L341.63,129.67L352.65,115.56L363.67,95.16L374.69,97.25L385.71,88.37L396.73,92.55L407.76,75.82L418.78,84.71L429.8,66.93L440.82,55.42L451.84,59.61L462.86,46.54L473.88,55.42L484.9,41.83L495.92,47.58L506.94,42.88L517.96,42.35L528.98,38.69L540,28.24" style="vector-effect: non-scaling-stroke; fill: none; stroke: rgb(0, 176, 246); stroke-opacity: 1; stroke-width: 2px; opacity: 1;"/></g><g class="points"/><g class="text"/></g><g class="trace scatter tracee31a5b" style="stroke-miterlimit: 2; opacity: 1;"><g class="fills"/><g class="errorbars"/><g class="lines"><path class="js-line" d="M0,309.02L22.04,275.56L33.06,263.53L44.08,282.88L55.1,255.69L66.12,241.05L77.14,222.22L88.16,222.22L99.18,226.93L110.2,225.88L121.22,222.22L132.24,211.76L143.27,218.04L154.29,214.38L165.31,222.22L176.33,223.79L187.35,219.61L198.37,214.9L209.39,208.63L220.41,198.69L231.43,215.42L253.47,199.74L264.49,210.72L275.51,150.07L286.53,175.69L297.55,155.29L308.57,157.91L319.59,161.05L330.61,158.43L341.63,130.2L352.65,116.6L363.67,116.08L374.69,106.67L385.71,101.96L396.73,87.84L407.76,89.93L418.78,82.09L429.8,59.61L440.82,62.75L462.86,53.33L473.88,54.38L484.9,54.9L495.92,44.44L506.94,37.12L517.96,36.08L528.98,32.94L540,36.6" style="vector-effect: non-scaling-stroke; fill: none; stroke: rgb(231, 107, 243); stroke-opacity: 1; stroke-width: 2px; opacity: 1;"/></g><g class="points"/><g class="text"/></g><g class="trace scatter trace302d9c" style="stroke-miterlimit: 2; opacity: 1;"><g class="fills"/><g class="errorbars"/><g class="lines"><path class="js-line" d="M0,316.86L33.06,260.92L44.08,269.28L55.1,263.53L66.12,230.07L77.14,234.77L88.16,216.47L99.18,210.72L110.2,209.15L121.22,187.71L132.24,185.1L143.27,195.56L154.29,180.39L165.31,184.05L176.33,183.01L187.35,170.98L198.37,190.85L209.39,180.39L220.41,190.33L231.43,169.41L242.45,171.5L253.47,157.39L264.49,152.16L275.51,154.25L286.53,151.11L297.55,139.08L308.57,138.04L319.59,147.97L330.61,126.01L341.63,126.54L352.65,91.5L363.67,101.96L374.69,95.69L385.71,98.3L396.73,75.29L407.76,78.43L418.78,67.97L429.8,72.68L440.82,61.18L451.84,53.86L462.86,55.42L473.88,57.52L484.9,53.33L495.92,51.76L506.94,48.1L517.96,43.4L528.98,36.6L540,37.65" style="vector-effect: non-scaling-stroke; fill: none; stroke: rgb(248, 118, 109); stroke-opacity: 1; stroke-width: 2px; opacity: 1;"/></g><g class="points"/><g class="text"/></g><g class="trace scatter trace10b5e3" style="stroke-miterlimit: 2; opacity: 1;"><g class="fills"/><g class="errorbars"/><g class="lines"><path class="js-line" d="M0,307.45L11.02,287.58L22.04,282.35L33.06,261.96L44.08,257.78L55.1,254.12L66.12,233.2L77.14,242.61L88.16,230.59L99.18,220.13L110.2,222.75L121.22,200.26L132.24,195.03L143.27,209.15L154.29,224.84L165.31,200.78L176.33,210.72L187.35,204.44L198.37,192.42L209.39,209.15L220.41,203.92L231.43,207.58L242.45,187.19L253.47,185.62L264.49,179.87L275.51,196.6L286.53,189.8L297.55,174.64L308.57,165.23L319.59,161.05L330.61,147.45L341.63,140.65L352.65,132.29L363.67,137.52L374.69,138.56L385.71,118.69L396.73,117.65L429.8,71.11L440.82,69.02L451.84,75.29L462.86,72.68L473.88,67.97L484.9,53.86L495.92,60.65L506.94,51.76L517.96,52.29L528.98,53.86L540,48.63" style="vector-effect: non-scaling-stroke; fill: none; stroke: rgb(163, 165, 0); stroke-opacity: 1; stroke-width: 2px; opacity: 1;"/></g><g class="points"/><g class="text"/></g><g class="trace scatter trace5724f5" style="stroke-miterlimit: 2; opacity: 1;"><g class="fills"/><g class="errorbars"/><g class="lines"><path class="js-line" d="M0,302.75L11.02,283.92L22.04,270.33L33.06,268.24L44.08,255.69L55.1,265.62L66.12,248.37L77.14,238.43L88.16,230.07L99.18,240.52L110.2,234.77L121.22,220.13L132.24,233.73L143.27,237.39L154.29,219.08L165.31,233.2L176.33,222.22L187.35,225.36L198.37,214.9L209.39,226.41L220.41,224.84L231.43,211.76L242.45,190.33L253.47,195.03L264.49,196.6L275.51,174.64L286.53,155.29L297.55,158.95L308.57,140.65L319.59,133.33L330.61,133.33L341.63,127.06L352.65,117.12L363.67,109.8L374.69,114.51L385.71,98.3L396.73,109.28L407.76,103.01L418.78,90.98L429.8,78.43L440.82,67.45L451.84,78.43L462.86,72.68L484.9,66.93L495.92,61.7L506.94,64.84L517.96,56.99L528.98,63.79L540,55.42" style="vector-effect: non-scaling-stroke; fill: none; stroke: rgb(0, 191, 125); stroke-opacity: 1; stroke-width: 2px; opacity: 1;"/></g><g class="points"/><g class="text"/></g><g class="trace scatter trace4ae9b5" style="stroke-miterlimit: 2; opacity: 1;"><g class="fills"/><g class="errorbars"/><g class="lines"><path class="js-line" d="M0,309.02L11.02,282.88L22.04,272.94L33.06,274.51L44.08,263.01L55.1,256.21L66.12,227.45L77.14,229.02L88.16,223.27L99.18,231.11L110.2,234.25L121.22,212.29L132.24,230.07L143.27,214.9L154.29,221.7L165.31,228.5L176.33,218.04L187.35,207.06L198.37,215.42L209.39,218.56L220.41,225.36L231.43,209.67L242.45,204.44L253.47,173.07L264.49,183.01L275.51,161.57L286.53,156.86L297.55,165.75L308.57,171.5L319.59,176.73L330.61,128.1L341.63,138.56L352.65,147.97L363.67,125.49L374.69,136.99L385.71,116.08L396.73,123.92L407.76,122.35L418.78,90.46L429.8,95.69L440.82,69.54L451.84,80.52L462.86,80.52L473.88,84.18L484.9,75.82L495.92,82.09L506.94,73.2L517.96,70.59L528.98,69.54L540,60.65" style="vector-effect: non-scaling-stroke; fill: none; stroke: rgb(0, 176, 246); stroke-opacity: 1; stroke-width: 2px; opacity: 1;"/></g><g class="points"/><g class="text"/></g><g class="trace scatter trace409a40" style="stroke-miterlimit: 2; opacity: 1;"><g class="fills"/><g class="errorbars"/><g class="lines"><path class="js-line" d="M0,311.63L11.02,297.52L22.04,272.42L33.06,270.85L44.08,261.96L55.1,261.44L66.12,230.07L77.14,215.42L88.16,212.29L99.18,204.44L110.2,206.01L121.22,180.92L132.24,183.01L143.27,186.67L154.29,199.74L165.31,194.51L176.33,181.44L187.35,191.9L198.37,200.26L209.39,203.4L220.41,180.39L231.43,188.76L242.45,182.48L253.47,169.41L264.49,166.27L275.51,162.09L286.53,140.65L297.55,138.56L308.57,145.88L319.59,131.24L330.61,131.24L352.65,106.67L363.67,108.76L374.69,106.67L385.71,94.64L396.73,96.73L407.76,93.59L418.78,83.14L429.8,77.39L440.82,60.65L451.84,65.36L462.86,59.08L473.88,70.07L484.9,55.95L495.92,63.27L506.94,55.95L517.96,60.65L528.98,56.99L540,61.7" style="vector-effect: non-scaling-stroke; fill: none; stroke: rgb(231, 107, 243); stroke-opacity: 1; stroke-width: 2px; opacity: 1;"/></g><g class="points"/><g class="text"/></g><g class="trace scatter tracee40bca" style="stroke-miterlimit: 2; opacity: 1;"><g class="fills"/><g class="errorbars"/><g class="lines"><path class="js-line" d="M0,310.59L11.02,287.06L22.04,269.28L33.06,253.07L44.08,252.55L55.1,244.18L66.12,229.02L77.14,225.36L88.16,202.88L99.18,216.47L110.2,183.53L121.22,183.01L132.24,208.1L143.27,196.08L154.29,191.9L165.31,177.78L176.33,188.24L187.35,187.71L198.37,182.48L209.39,198.17L220.41,183.53L231.43,176.21L242.45,174.64L253.47,168.37L264.49,141.7L275.51,151.63L286.53,154.77L297.55,139.08L308.57,149.54L319.59,159.48L330.61,133.86L341.63,133.33L352.65,119.22L363.67,107.19L374.69,98.3L385.71,95.69L396.73,88.89L407.76,85.75L418.78,63.79L429.8,69.02L440.82,64.31L451.84,52.29L462.86,57.52L473.88,54.9L484.9,57.52L495.92,58.56L506.94,58.56L517.96,51.24L528.98,54.38L540,53.86" style="vector-effect: non-scaling-stroke; fill: none; stroke: rgb(248, 118, 109); stroke-opacity: 1; stroke-width: 2px; opacity: 1;"/></g><g class="points"/><g class="text"/></g><g class="trace scatter trace8b677b" style="stroke-miterlimit: 2; opacity: 1;"><g class="fills"/><g class="errorbars"/><g class="lines"><path class="js-line" d="M0,296.47L11.02,286.01L22.04,271.37L44.08,258.82L55.1,243.14L66.12,227.97L77.14,241.05L88.16,234.77L99.18,215.42L110.2,202.35L121.22,195.56L132.24,191.9L143.27,195.56L165.31,197.12L176.33,193.99L187.35,174.64L198.37,189.28L209.39,194.51L220.41,187.19L231.43,178.3L242.45,189.8L253.47,166.27L264.49,165.23L275.51,175.69L286.53,154.77L297.55,156.86L308.57,144.31L319.59,141.18L330.61,131.24L341.63,133.33L352.65,127.06L363.67,110.33L374.69,122.35L385.71,104.05L396.73,74.25L407.76,80.52L418.78,81.57L429.8,88.37L440.82,66.41L451.84,76.34L462.86,60.65L473.88,66.41L484.9,61.7L495.92,59.61L506.94,50.2L540,47.58" style="vector-effect: non-scaling-stroke; fill: none; stroke: rgb(163, 165, 0); stroke-opacity: 1; stroke-width: 2px; opacity: 1;"/></g><g class="points"/><g class="text"/></g><g class="trace scatter trace826e3a" style="stroke-miterlimit: 2; opacity: 1;"><g class="fills"/><g class="errorbars"/><g class="lines"><path class="js-line" d="M0,301.18L11.02,288.1L22.04,272.42L33.06,274.51L44.08,271.9L55.1,248.37L66.12,259.87L77.14,237.39L88.16,234.25L99.18,221.7L110.2,226.41L121.22,230.07L132.24,202.35L143.27,201.31L154.29,185.1L165.31,180.92L176.33,180.92L187.35,178.82L198.37,166.27L209.39,169.93L220.41,169.41L231.43,142.22L242.45,157.39L253.47,162.61L264.49,159.48L275.51,151.63L286.53,136.99L297.55,130.72L308.57,128.1L319.59,111.37L330.61,111.9L341.63,115.56L352.65,96.73L363.67,86.8L374.69,73.73L385.71,78.95L396.73,56.99L407.76,50.72L418.78,24.58L429.8,31.37L440.82,26.14L451.84,32.42L462.86,24.58L473.88,14.12L484.9,23.01L495.92,6.8L506.94,5.23L517.96,8.37L528.98,0L540,3.14" style="vector-effect: non-scaling-stroke; fill: none; stroke: rgb(0, 191, 125); stroke-opacity: 1; stroke-width: 2px; opacity: 1;"/></g><g class="points"/><g class="text"/></g><g class="trace scatter tracee01f85" style="stroke-miterlimit: 2; opacity: 1;"><g class="fills"/><g class="errorbars"/><g class="lines"><path class="js-line" d="M0,299.08L22.04,272.94L33.06,263.01L44.08,241.57L55.1,244.71L66.12,229.02L77.14,207.06L88.16,204.97L99.18,205.49L110.2,200.78L121.22,200.26L132.24,210.72L143.27,197.12L154.29,199.74L165.31,200.26L176.33,212.29L187.35,209.67L198.37,208.1L209.39,203.4L220.41,207.58L231.43,204.97L242.45,211.24L253.47,187.19L264.49,173.59L275.51,175.16L286.53,178.3L297.55,170.98L308.57,174.12L319.59,147.97L330.61,146.41L341.63,131.24L352.65,140.13L363.67,135.95L374.69,129.15L385.71,130.72L396.73,122.88L407.76,117.65L418.78,105.1L429.8,94.64L440.82,87.32L451.84,85.23L462.86,86.27L473.88,80.52L484.9,92.03L495.92,92.03L506.94,83.14L517.96,89.93L528.98,80.52L540,82.09" style="vector-effect: non-scaling-stroke; fill: none; stroke: rgb(0, 176, 246); stroke-opacity: 1; stroke-width: 2px; opacity: 1;"/></g><g class="points"/><g class="text"/></g><g class="trace scatter trace0b6471" style="stroke-miterlimit: 2; opacity: 1;"><g class="fills"/><g class="errorbars"/><g class="lines"><path class="js-line" d="M0,307.97L11.02,306.41L22.04,277.12L33.06,252.03L44.08,271.9L55.1,242.09L66.12,237.91L77.14,244.71L88.16,238.95L99.18,243.66L110.2,232.68L121.22,222.22L132.24,230.07L143.27,208.63L154.29,208.1L165.31,203.92L176.33,215.95L187.35,216.47L198.37,214.9L209.39,189.8L220.41,216.47L231.43,206.54L242.45,191.37L253.47,182.48L264.49,179.35L275.51,179.87L286.53,148.5L297.55,156.34L308.57,163.14L319.59,162.61L330.61,133.33L341.63,133.33L352.65,142.22L363.67,121.83L374.69,124.44L385.71,97.25L396.73,126.54L407.76,96.73L418.78,87.84L429.8,88.89L440.82,91.5L451.84,85.75L462.86,67.97L473.88,77.91L484.9,63.27L495.92,65.88L506.94,60.65L517.96,56.47L528.98,59.08L540,55.95" style="vector-effect: non-scaling-stroke; fill: none; stroke: rgb(231, 107, 243); stroke-opacity: 1; stroke-width: 2px; opacity: 1;"/></g><g class="points"/><g class="text"/></g><g class="trace scatter trace35051f" style="stroke-miterlimit: 2; opacity: 1;"><g class="fills"/><g class="errorbars"/><g class="lines"><path class="js-line" d="M0,311.11L11.02,277.12L22.04,277.65L33.06,262.48L44.08,272.42L55.1,239.48L66.12,233.73L77.14,219.61L88.16,227.45L99.18,238.95L110.2,219.08L121.22,223.79L132.24,213.86L143.27,215.95L154.29,208.63L165.31,215.42L176.33,215.42L187.35,212.81L198.37,228.5L209.39,206.54L220.41,217.52L231.43,201.83L242.45,210.2L253.47,204.44L264.49,184.05L275.51,183.53L286.53,179.35L297.55,177.25L308.57,172.55L319.59,163.66L330.61,156.34L341.63,149.54L352.65,143.79L363.67,141.7L374.69,147.45L385.71,124.97L396.73,131.24L407.76,119.22L418.78,119.74L429.8,107.19L440.82,108.76L451.84,101.44L462.86,106.14L473.88,101.96L484.9,103.53L506.94,89.41L517.96,86.8L528.98,92.55L540,90.46" style="vector-effect: non-scaling-stroke; fill: none; stroke: rgb(248, 118, 109); stroke-opacity: 1; stroke-width: 2px; opacity: 1;"/></g><g class="points"/><g class="text"/></g><g class="trace scatter trace6e51a2" style="stroke-miterlimit: 2; opacity: 1;"><g class="fills"/><g class="errorbars"/><g class="lines"><path class="js-line" d="M0,297.52L11.02,300.65L22.04,286.01L33.06,264.58L44.08,253.07L55.1,244.71L66.12,248.89L77.14,234.77L88.16,240L99.18,225.36L110.2,198.17L121.22,217.52L132.24,200.78L143.27,212.81L154.29,203.4L165.31,176.73L176.33,190.85L187.35,206.01L198.37,191.37L209.39,185.62L220.41,196.08L231.43,169.41L242.45,168.89L253.47,172.03L264.49,163.14L275.51,164.18L286.53,157.39L297.55,135.95L308.57,140.13L319.59,150.59L330.61,118.17L341.63,128.1L352.65,140.65L363.67,131.76L374.69,106.14L385.71,89.41L396.73,80L407.76,86.8L418.78,84.18L429.8,77.91L440.82,56.99L451.84,60.65L462.86,62.75L473.88,53.86L484.9,52.81L495.92,47.06L506.94,59.61L517.96,53.33L528.98,45.49L540,45.49" style="vector-effect: non-scaling-stroke; fill: none; stroke: rgb(163, 165, 0); stroke-opacity: 1; stroke-width: 2px; opacity: 1;"/></g><g class="points"/><g class="text"/></g><g class="trace scatter trace76d10c" style="stroke-miterlimit: 2; opacity: 1;"><g class="fills"/><g class="errorbars"/><g class="lines"><path class="js-line" d="M0,308.5L11.02,280.26L22.04,275.56L33.06,271.37L44.08,260.92L55.1,257.78L66.12,241.57L77.14,233.2L88.16,241.57L99.18,229.54L110.2,235.29L121.22,237.91L132.24,223.79L143.27,225.36L154.29,247.84L165.31,219.08L176.33,223.27L187.35,202.88L198.37,214.9L209.39,201.83L220.41,208.63L231.43,181.96L242.45,173.59L253.47,186.67L264.49,179.87L275.51,184.05L286.53,169.93L297.55,153.2L308.57,155.82L319.59,142.22L330.61,138.04L352.65,134.9L363.67,121.31L374.69,107.19L385.71,104.05L396.73,85.23L407.76,94.64L418.78,91.5L429.8,89.93L440.82,71.11L451.84,67.97L462.86,70.07L473.88,66.41L484.9,80.52L495.92,74.25L506.94,71.63L517.96,55.42L528.98,64.31L540,61.7" style="vector-effect: non-scaling-stroke; fill: none; stroke: rgb(0, 191, 125); stroke-opacity: 1; stroke-width: 2px; opacity: 1;"/></g><g class="points"/><g class="text"/></g><g class="trace scatter trace6e4585" style="stroke-miterlimit: 2; opacity: 1;"><g class="fills"/><g class="errorbars"/><g class="lines"><path class="js-line" d="M0,308.5L11.02,295.42L22.04,277.65L33.06,260.39L44.08,238.95L55.1,246.8L66.12,242.61L77.14,234.25L88.16,223.79L99.18,232.68L110.2,200.78L121.22,203.4L132.24,202.35L143.27,180.39L154.29,206.54L165.31,192.94L176.33,202.88L187.35,201.31L198.37,205.49L209.39,200.78L220.41,206.54L231.43,190.33L242.45,189.8L253.47,180.39L264.49,177.78L275.51,164.18L286.53,170.46L297.55,134.38L308.57,167.32L319.59,150.59L330.61,130.2L341.63,126.01L352.65,111.37L363.67,124.44L374.69,115.03L385.71,89.41L396.73,90.46L407.76,88.37L418.78,75.29L429.8,79.48L440.82,52.29L451.84,57.52L462.86,49.15L473.88,51.24L484.9,62.75L495.92,41.31L506.94,63.27L517.96,54.38L528.98,48.1L540,42.35" style="vector-effect: non-scaling-stroke; fill: none; stroke: rgb(0, 176, 246); stroke-opacity: 1; stroke-width: 2px; opacity: 1;"/></g><g class="points"/><g class="text"/></g><g class="trace scatter trace7cec28" style="stroke-miterlimit: 2; opacity: 1;"><g class="fills"/><g class="errorbars"/><g class="lines"><path class="js-line" d="M0,301.7L11.02,287.06L22.04,281.83L33.06,263.01L44.08,276.08L55.1,249.41L66.12,257.78L88.16,225.88L99.18,223.27L110.2,224.84L121.22,234.77L132.24,214.38L143.27,202.35L154.29,208.63L165.31,222.22L176.33,196.08L187.35,194.51L198.37,191.37L209.39,204.44L220.41,195.03L231.43,179.35L242.45,166.8L253.47,175.69L264.49,141.7L275.51,158.95L286.53,144.84L297.55,128.63L308.57,146.41L319.59,119.74L330.61,111.9L341.63,110.85L352.65,106.14L363.67,96.21L374.69,95.16L385.71,77.39L396.73,83.14L407.76,77.39L418.78,63.27L429.8,46.01L440.82,52.81L451.84,50.72L462.86,55.42L473.88,44.44L484.9,44.97L495.92,44.44L506.94,29.8L517.96,26.14L528.98,28.24L540,28.76" style="vector-effect: non-scaling-stroke; fill: none; stroke: rgb(231, 107, 243); stroke-opacity: 1; stroke-width: 2px; opacity: 1;"/></g><g class="points"/><g class="text"/></g><g class="trace scatter trace407c53" style="stroke-miterlimit: 2; opacity: 1;"><g class="fills"/><g class="errorbars"/><g class="lines"><path class="js-line" d="M0,310.59L11.02,280.78L22.04,263.01L33.06,270.85L44.08,259.87L55.1,259.87L66.12,227.45L77.14,223.27L88.16,203.4L99.18,191.37L110.2,191.37L121.22,199.74L132.24,189.28L143.27,196.08L154.29,165.23L165.31,201.83L176.33,179.87L187.35,183.53L198.37,193.46L209.39,200.78L220.41,184.58L231.43,170.98L242.45,159.48L253.47,168.37L264.49,158.43L275.51,147.97L286.53,146.41L297.55,135.95L308.57,131.76L319.59,132.29L330.61,119.74L341.63,119.22L352.65,123.4L363.67,107.71L374.69,108.24L385.71,79.48L396.73,89.93L407.76,72.16L418.78,78.95L429.8,67.45L440.82,61.18L451.84,39.22L462.86,55.95L473.88,50.72L484.9,51.24L495.92,49.67L506.94,50.72L517.96,48.1L528.98,41.31L540,45.49" style="vector-effect: non-scaling-stroke; fill: none; stroke: rgb(248, 118, 109); stroke-opacity: 1; stroke-width: 2px; opacity: 1;"/></g><g class="points"/><g class="text"/></g><g class="trace scatter tracef77aa8" style="stroke-miterlimit: 2; opacity: 1;"><g class="fills"/><g class="errorbars"/><g class="lines"><path class="js-line" d="M0,306.93L11.02,282.88L22.04,267.19L33.06,280.78L44.08,253.07L55.1,239.48L66.12,233.2L77.14,243.66L88.16,227.45L99.18,213.33L110.2,215.95L132.24,194.51L143.27,206.54L154.29,195.03L165.31,212.29L176.33,221.18L187.35,199.74L198.37,211.24L209.39,235.82L220.41,213.86L231.43,228.5L242.45,198.17L253.47,184.58L264.49,192.94L275.51,184.05L286.53,191.9L297.55,184.58L308.57,178.82L319.59,168.37L330.61,152.16L341.63,160L352.65,160L363.67,150.59L374.69,133.33L385.71,144.31L396.73,139.08L407.76,136.99L418.78,120.26L429.8,120.78L440.82,116.6L451.84,95.16L462.86,106.67L473.88,109.28L484.9,101.96L495.92,97.78L506.94,98.3L517.96,89.93L528.98,94.12L540,86.8" style="vector-effect: non-scaling-stroke; fill: none; stroke: rgb(163, 165, 0); stroke-opacity: 1; stroke-width: 2px; opacity: 1;"/></g><g class="points"/><g class="text"/></g><g class="trace scatter trace3f6e11" style="stroke-miterlimit: 2; opacity: 1;"><g class="fills"/><g class="errorbars"/><g class="lines"><path class="js-line" d="M0,300.65L11.02,292.81L22.04,283.92L33.06,253.59L44.08,261.44L55.1,258.3L66.12,258.3L77.14,246.27L88.16,236.86L99.18,232.68L110.2,240L121.22,238.43L132.24,212.81L143.27,227.97L154.29,215.95L165.31,218.04L176.33,209.67L187.35,204.97L198.37,211.76L209.39,226.41L220.41,204.44L231.43,220.13L242.45,188.24L253.47,203.4L264.49,177.25L275.51,193.99L286.53,191.37L297.55,175.69L308.57,165.23L319.59,160L330.61,172.03L341.63,179.87L352.65,161.05L363.67,134.38L374.69,149.02L385.71,140.13L396.73,125.49L407.76,131.24L418.78,124.44L429.8,115.03L440.82,106.67L451.84,98.3L462.86,99.35L473.88,97.78L484.9,103.53L495.92,97.78L506.94,86.8L517.96,92.03L528.98,95.16L540,88.37" style="vector-effect: non-scaling-stroke; fill: none; stroke: rgb(0, 191, 125); stroke-opacity: 1; stroke-width: 2px; opacity: 1;"/></g><g class="points"/><g class="text"/></g><g class="trace scatter trace8440f9" style="stroke-miterlimit: 2; opacity: 1;"><g class="fills"/><g class="errorbars"/><g class="lines"><path class="js-line" d="M0,300.13L11.02,293.86L22.04,268.24L33.06,260.92L44.08,264.05L55.1,260.92L66.12,246.27L77.14,230.07L88.16,240L99.18,244.18L110.2,226.93L121.22,221.7L132.24,236.34L143.27,228.5L154.29,214.38L165.31,201.31L176.33,207.06L187.35,188.76L198.37,187.19L209.39,200.78L220.41,196.08L231.43,184.58L242.45,181.44L253.47,174.64L264.49,151.11L275.51,163.14L286.53,153.2L297.55,141.18L308.57,131.24L319.59,147.45L330.61,132.81L341.63,105.1L352.65,126.01L363.67,123.92L374.69,105.62L396.73,75.29L407.76,74.77L418.78,65.36L429.8,67.45L440.82,53.86L451.84,51.76L462.86,45.49L473.88,43.92L484.9,49.67L495.92,50.2L506.94,32.94L517.96,42.88L528.98,38.69L540,36.6" style="vector-effect: non-scaling-stroke; fill: none; stroke: rgb(0, 176, 246); stroke-opacity: 1; stroke-width: 2px; opacity: 1;"/></g><g class="points"/><g class="text"/></g><g class="trace scatter tracea1cf42" style="stroke-miterlimit: 2; opacity: 1;"><g class="fills"/><g class="errorbars"/><g class="lines"><path class="js-line" d="M0,309.54L11.02,296.47L22.04,269.28L33.06,267.71L44.08,238.43L55.1,258.82L66.12,248.89L77.14,247.32L88.16,241.05L99.18,222.75L110.2,237.39L121.22,219.61L132.24,219.08L143.27,208.1L154.29,200.26L165.31,209.15L176.33,203.92L187.35,183.01L198.37,215.95L220.41,176.73L231.43,206.01L242.45,173.59L253.47,170.98L264.49,157.39L275.51,158.95L286.53,153.73L297.55,141.7L308.57,133.33L319.59,143.27L330.61,123.92L341.63,130.72L352.65,114.51L363.67,104.58L374.69,94.12L385.71,89.41L396.73,81.57L407.76,74.77L418.78,73.73L429.8,76.34L440.82,63.79L451.84,69.02L462.86,63.27L473.88,60.13L484.9,56.99L495.92,58.56L506.94,59.08L517.96,52.81L528.98,50.2L540,55.95" style="vector-effect: non-scaling-stroke; fill: none; stroke: rgb(231, 107, 243); stroke-opacity: 1; stroke-width: 2px; opacity: 1;"/></g><g class="points"/><g class="text"/></g><g class="trace scatter trace4e7456" style="stroke-miterlimit: 2; opacity: 1;"><g class="fills"/><g class="errorbars"/><g class="lines"><path class="js-line" d="M0,301.7L11.02,284.97L22.04,279.74L33.06,270.85L44.08,264.58L55.1,265.1L66.12,241.05L77.14,243.66L88.16,215.42L99.18,206.54L110.2,205.49L121.22,207.58L132.24,210.72L143.27,203.4L154.29,197.65L165.31,199.22L176.33,218.04L187.35,208.63L198.37,193.46L209.39,219.08L220.41,217.52L231.43,203.4L242.45,199.22L253.47,200.78L264.49,172.55L275.51,180.92L286.53,183.01L297.55,163.14L308.57,168.89L319.59,153.73L330.61,155.29L341.63,161.57L352.65,165.75L363.67,139.08L374.69,149.54L385.71,138.56L396.73,139.61L407.76,131.76L418.78,122.88L429.8,110.85L440.82,108.24L451.84,93.07L462.86,114.51L473.88,90.46L484.9,101.44L495.92,92.03L506.94,85.23L517.96,96.21L528.98,97.25L540,92.03" style="vector-effect: non-scaling-stroke; fill: none; stroke: rgb(248, 118, 109); stroke-opacity: 1; stroke-width: 2px; opacity: 1;"/></g><g class="points"/><g class="text"/></g><g class="trace scatter trace47a9f8" style="stroke-miterlimit: 2; opacity: 1;"><g class="fills"/><g class="errorbars"/><g class="lines"><path class="js-line" d="M0,320L11.02,283.92L22.04,281.83L33.06,280.26L44.08,263.01L55.1,260.92L66.12,254.64L77.14,253.59L88.16,229.02L110.2,237.91L121.22,211.24L132.24,222.75L143.27,222.75L154.29,209.15L165.31,209.67L176.33,202.35L187.35,213.86L198.37,218.04L209.39,212.29L220.41,211.24L231.43,199.22L242.45,189.28L253.47,183.01L264.49,153.73L275.51,164.71L286.53,148.5L297.55,123.4L308.57,150.59L319.59,146.41L330.61,109.8L341.63,125.49L352.65,111.37L363.67,116.6L374.69,86.8L385.71,83.14L396.73,97.78L407.76,82.61L418.78,76.34L429.8,66.93L440.82,56.47L451.84,66.93L462.86,52.29L473.88,59.08L484.9,55.42L495.92,63.27L506.94,55.42L517.96,56.99L528.98,61.18L540,53.86" style="vector-effect: non-scaling-stroke; fill: none; stroke: rgb(163, 165, 0); stroke-opacity: 1; stroke-width: 2px; opacity: 1;"/></g><g class="points"/><g class="text"/></g><g class="trace scatter trace5ab0d2" style="stroke-miterlimit: 2; opacity: 1;"><g class="fills"/><g class="errorbars"/><g class="lines"><path class="js-line" d="M0,302.22L11.02,295.95L22.04,274.51L33.06,274.51L44.08,266.67L66.12,259.35L77.14,256.73L88.16,231.63L99.18,235.82L110.2,222.75L121.22,225.36L132.24,216.99L143.27,223.27L154.29,202.88L165.31,196.08L176.33,212.29L187.35,205.49L198.37,195.56L209.39,223.27L220.41,208.63L231.43,209.15L242.45,199.22L253.47,188.24L264.49,181.44L275.51,177.78L286.53,190.33L297.55,182.48L308.57,200.26L319.59,152.68L330.61,141.18L341.63,154.25L352.65,158.43L363.67,151.63L374.69,147.45L385.71,132.29L396.73,131.76L407.76,129.15L418.78,129.67L429.8,107.19L440.82,120.78L451.84,107.19L462.86,101.44L473.88,111.37L495.92,94.64L506.94,103.01L517.96,95.16L528.98,103.53L540,90.98" style="vector-effect: non-scaling-stroke; fill: none; stroke: rgb(0, 191, 125); stroke-opacity: 1; stroke-width: 2px; opacity: 1;"/></g><g class="points"/><g class="text"/></g><g class="trace scatter traceac271f" style="stroke-miterlimit: 2; opacity: 1;"><g class="fills"/><g class="errorbars"/><g class="lines"><path class="js-line" d="M0,306.41L11.02,285.49L22.04,267.71L33.06,262.48L44.08,259.35L55.1,248.89L66.12,249.41L77.14,226.41L88.16,234.25L99.18,218.56L110.2,233.2L121.22,204.44L132.24,215.95L143.27,203.92L154.29,216.47L165.31,190.85L176.33,196.08L198.37,196.6L209.39,189.28L220.41,193.99L231.43,195.56L242.45,188.76L253.47,173.59L264.49,170.46L275.51,163.14L286.53,164.18L297.55,172.55L308.57,153.2L319.59,152.68L330.61,121.31L341.63,140.65L352.65,143.79L363.67,119.22L374.69,119.74L385.71,108.24L396.73,81.05L407.76,90.98L418.78,86.27L429.8,65.88L451.84,60.13L462.86,50.2L473.88,67.97L484.9,46.54L495.92,51.24L506.94,47.06L517.96,51.76L528.98,43.92L540,43.92" style="vector-effect: non-scaling-stroke; fill: none; stroke: rgb(0, 176, 246); stroke-opacity: 1; stroke-width: 2px; opacity: 1;"/></g><g class="points"/><g class="text"/></g><g class="trace scatter traceebb16e" style="stroke-miterlimit: 2; opacity: 1;"><g class="fills"/><g class="errorbars"/><g class="lines"><path class="js-line" d="M0,304.31L11.02,300.65L22.04,277.12L33.06,275.03L44.08,268.76L55.1,248.89L66.12,243.66L77.14,250.46L88.16,240L99.18,230.07L110.2,214.9L132.24,204.97L143.27,198.17L154.29,201.31L165.31,176.21L176.33,199.22L187.35,204.97L198.37,188.76L209.39,206.54L220.41,182.48L231.43,189.8L264.49,185.1L275.51,163.66L286.53,153.2L297.55,146.93L308.57,149.02L319.59,150.07L330.61,149.54L341.63,123.4L352.65,121.31L363.67,115.56L374.69,123.92L385.71,93.07L396.73,93.59L407.76,107.71L418.78,82.09L429.8,78.95L440.82,76.34L451.84,64.31L462.86,67.45L473.88,66.41L484.9,61.18L495.92,71.11L506.94,61.18L517.96,62.22L540,52.29" style="vector-effect: non-scaling-stroke; fill: none; stroke: rgb(231, 107, 243); stroke-opacity: 1; stroke-width: 2px; opacity: 1;"/></g><g class="points"/><g class="text"/></g><g class="trace scatter trace1cdda6" style="stroke-miterlimit: 2; opacity: 1;"><g class="fills"/><g class="errorbars"/><g class="lines"><path class="js-line" d="M0,302.75L11.02,293.86L22.04,276.08L33.06,272.94L44.08,275.56L55.1,263.53L66.12,256.73L77.14,237.39L88.16,240.52L99.18,257.25L110.2,225.88L121.22,209.15L132.24,190.85L143.27,201.31L154.29,188.76L165.31,189.28L176.33,195.56L187.35,183.01L198.37,202.35L209.39,198.17L220.41,184.05L231.43,180.92L242.45,185.62L253.47,163.14L264.49,166.8L275.51,167.32L286.53,162.09L297.55,146.93L308.57,146.93L319.59,143.79L330.61,134.9L341.63,122.88L352.65,120.78L363.67,105.62L374.69,98.3L385.71,96.21L396.73,95.69L407.76,70.07L418.78,70.07L429.8,62.22L440.82,69.02L451.84,64.31L462.86,60.65L473.88,39.74L484.9,71.63L495.92,48.63L506.94,48.63L517.96,44.44L528.98,41.31L540,42.88" style="vector-effect: non-scaling-stroke; fill: none; stroke: rgb(248, 118, 109); stroke-opacity: 1; stroke-width: 2px; opacity: 1;"/></g><g class="points"/><g class="text"/></g><g class="trace scatter trace11725b" style="stroke-miterlimit: 2; opacity: 1;"><g class="fills"/><g class="errorbars"/><g class="lines"><path class="js-line" d="M0,308.5L11.02,294.38L22.04,278.69L33.06,270.33L44.08,254.64L55.1,255.16L66.12,228.5L77.14,226.93L88.16,204.44L99.18,197.65L110.2,197.12L121.22,190.33L132.24,206.01L143.27,172.55L154.29,186.67L165.31,172.03L176.33,192.94L187.35,183.01L198.37,199.22L209.39,181.44L220.41,174.12L231.43,158.43L242.45,160L253.47,160L264.49,150.07L275.51,168.89L286.53,146.41L297.55,132.81L308.57,134.9L319.59,129.67L330.61,122.35L341.63,105.1L352.65,122.88L363.67,108.76L374.69,106.67L385.71,96.73L396.73,84.71L407.76,78.95L418.78,68.5L429.8,53.33L440.82,42.35L451.84,41.31L462.86,42.35L473.88,46.01L484.9,40.78L495.92,41.31L506.94,35.56L517.96,30.33L528.98,26.14L540,21.44" style="vector-effect: non-scaling-stroke; fill: none; stroke: rgb(163, 165, 0); stroke-opacity: 1; stroke-width: 2px; opacity: 1;"/></g><g class="points"/><g class="text"/></g><g class="trace scatter traceda9f43" style="stroke-miterlimit: 2; opacity: 1;"><g class="fills"/><g class="errorbars"/><g class="lines"><path class="js-line" d="M0,309.54L11.02,291.76L22.04,271.9L33.06,270.85L44.08,242.09L55.1,246.27L66.12,226.93L77.14,219.08L88.16,206.54L99.18,230.59L110.2,200.78L121.22,193.46L132.24,189.8L143.27,190.85L154.29,186.67L176.33,172.55L187.35,189.8L198.37,173.59L209.39,172.03L220.41,176.21L231.43,192.42L242.45,158.43L253.47,167.32L264.49,173.59L275.51,163.14L286.53,161.57L297.55,137.52L308.57,128.63L319.59,144.84L330.61,138.56L341.63,119.74L352.65,117.65L363.67,100.39L374.69,92.55L385.71,103.01L396.73,92.03L407.76,69.54L418.78,77.39L429.8,71.11L451.84,64.31L462.86,42.88L473.88,41.31L484.9,50.72L495.92,36.08L506.94,42.35L517.96,38.69L528.98,36.08L540,32.94" style="vector-effect: non-scaling-stroke; fill: none; stroke: rgb(0, 191, 125); stroke-opacity: 1; stroke-width: 2px; opacity: 1;"/></g><g class="points"/><g class="text"/></g><g class="trace scatter trace503d28" style="stroke-miterlimit: 2; opacity: 1;"><g class="fills"/><g class="errorbars"/><g class="lines"><path class="js-line" d="M0,320L11.02,285.49L22.04,281.83L33.06,275.03L44.08,274.51L55.1,272.94L66.12,253.59L77.14,231.11L88.16,240.52L99.18,220.13L110.2,213.33L121.22,212.81L132.24,225.88L143.27,213.86L154.29,218.04L165.31,193.99L176.33,199.22L187.35,195.03L198.37,177.78L209.39,189.28L220.41,188.76L231.43,183.53L242.45,175.16L253.47,169.41L264.49,158.95L275.51,155.29L286.53,141.7L297.55,147.45L308.57,121.31L319.59,131.24L330.61,137.52L341.63,116.08L352.65,120.26L363.67,111.9L374.69,101.44L385.71,82.61L396.73,87.32L407.76,77.39L418.78,77.91L429.8,58.56L440.82,68.5L451.84,61.18L462.86,57.52L473.88,50.2L484.9,52.81L495.92,54.9L506.94,48.1L517.96,53.86L528.98,47.58L540,41.83" style="vector-effect: non-scaling-stroke; fill: none; stroke: rgb(0, 176, 246); stroke-opacity: 1; stroke-width: 2px; opacity: 1;"/></g><g class="points"/><g class="text"/></g><g class="trace scatter trace8b5871" style="stroke-miterlimit: 2; opacity: 1;"><g class="fills"/><g class="errorbars"/><g class="lines"><path class="js-line" d="M0,291.24L11.02,294.9L22.04,275.03L33.06,261.44L44.08,260.92L55.1,256.21L66.12,246.27L77.14,225.88L88.16,218.04L99.18,223.79L110.2,219.08L121.22,196.6L132.24,211.24L143.27,210.2L154.29,203.92L165.31,200.78L176.33,209.15L187.35,220.65L198.37,207.06L209.39,193.99L220.41,221.7L231.43,192.42L242.45,196.6L253.47,190.85L264.49,179.35L275.51,179.35L286.53,165.75L297.55,152.68L308.57,168.89L319.59,153.2L330.61,146.41L341.63,158.43L352.65,136.99L363.67,138.04L374.69,129.15L385.71,138.56L396.73,128.1L407.76,105.62L418.78,121.31L440.82,96.21L451.84,96.73L462.86,88.89L473.88,94.64L484.9,92.03L495.92,80L506.94,88.89L517.96,82.09L528.98,83.66L540,76.86" style="vector-effect: non-scaling-stroke; fill: none; stroke: rgb(231, 107, 243); stroke-opacity: 1; stroke-width: 2px; opacity: 1;"/></g><g class="points"/><g class="text"/></g><g class="trace scatter traced5459f" style="stroke-miterlimit: 2; opacity: 1;"><g class="fills"/><g class="errorbars"/><g class="lines"><path class="js-line" d="M0,306.41L11.02,282.35L22.04,281.83L33.06,292.29L44.08,261.44L55.1,257.78L66.12,248.37L77.14,260.92L88.16,231.11L99.18,230.07L110.2,231.11L121.22,231.11L132.24,234.25L143.27,212.29L154.29,218.04L165.31,210.72L176.33,221.7L187.35,207.58L198.37,189.8L209.39,205.49L220.41,208.1L231.43,196.6L242.45,189.8L253.47,190.33L264.49,167.32L275.51,149.02L286.53,160.52L297.55,149.02L308.57,149.02L319.59,136.47L330.61,135.42L341.63,124.44L352.65,108.76L363.67,99.35L374.69,119.22L396.73,83.14L407.76,75.29L418.78,76.34L429.8,58.56L440.82,47.06L451.84,50.2L462.86,64.31L473.88,52.29L484.9,52.81L495.92,41.31L506.94,43.4L517.96,39.74L540,38.17" style="vector-effect: non-scaling-stroke; fill: none; stroke: rgb(248, 118, 109); stroke-opacity: 1; stroke-width: 2px; opacity: 1;"/></g><g class="points"/><g class="text"/></g><g class="trace scatter trace8d100a" style="stroke-miterlimit: 2; opacity: 1;"><g class="fills"/><g class="errorbars"/><g class="lines"><path class="js-line" d="M0,303.27L11.02,288.63L22.04,283.92L33.06,264.05L44.08,268.24L55.1,253.07L66.12,230.59L77.14,229.54L88.16,215.42L99.18,197.12L110.2,198.69L121.22,208.1L132.24,201.31L143.27,190.33L154.29,209.15L165.31,202.35L176.33,188.76L187.35,185.1L198.37,206.54L209.39,193.99L220.41,199.74L242.45,194.51L253.47,165.75L264.49,151.63L275.51,154.25L286.53,173.07L297.55,163.66L308.57,147.97L319.59,134.38L330.61,117.12L341.63,121.31L352.65,108.76L363.67,104.05L374.69,113.99L385.71,88.89L396.73,78.95L407.76,76.34L418.78,69.54L429.8,65.36L440.82,55.42L451.84,52.29L462.86,46.01L473.88,59.08L484.9,39.22L495.92,54.38L506.94,42.88L517.96,48.1L528.98,36.08L540,34.51" style="vector-effect: non-scaling-stroke; fill: none; stroke: rgb(163, 165, 0); stroke-opacity: 1; stroke-width: 2px; opacity: 1;"/></g><g class="points"/><g class="text"/></g><g class="trace scatter trace5e3238" style="stroke-miterlimit: 2; opacity: 1;"><g class="fills"/><g class="errorbars"/><g class="lines"><path class="js-line" d="M0,299.61L11.02,290.2L22.04,268.76L33.06,269.28L44.08,264.05L55.1,266.14L66.12,248.89L77.14,250.46L88.16,240.52L99.18,229.54L110.2,222.75L121.22,221.18L132.24,218.56L143.27,224.84L154.29,210.2L165.31,219.61L176.33,226.93L187.35,221.18L198.37,234.25L209.39,206.54L220.41,219.61L231.43,187.19L242.45,190.85L253.47,194.51L264.49,161.05L275.51,170.46L286.53,153.73L297.55,135.95L308.57,121.83L319.59,133.33L330.61,121.83L341.63,122.88L352.65,89.41L363.67,92.03L374.69,81.05L385.71,91.5L396.73,81.57L407.76,70.07L418.78,76.86L429.8,96.73L440.82,62.22L451.84,70.59L462.86,67.97L473.88,59.08L484.9,67.45L495.92,71.11L506.94,58.04L517.96,59.08L528.98,55.95L540,51.24" style="vector-effect: non-scaling-stroke; fill: none; stroke: rgb(0, 191, 125); stroke-opacity: 1; stroke-width: 2px; opacity: 1;"/></g><g class="points"/><g class="text"/></g><g class="trace scatter trace869b2f" style="stroke-miterlimit: 2; opacity: 1;"><g class="fills"/><g class="errorbars"/><g class="lines"><path class="js-line" d="M0,301.7L11.02,290.2L22.04,288.63L33.06,255.69L44.08,267.19L55.1,257.78L66.12,236.86L77.14,242.61L88.16,230.59L99.18,236.34L110.2,222.75L121.22,229.54L132.24,233.2L143.27,223.27L154.29,234.25L165.31,226.93L176.33,233.2L187.35,231.63L198.37,210.2L209.39,210.2L220.41,195.56L231.43,169.41L242.45,181.96L253.47,178.82L264.49,157.39L275.51,146.41L286.53,152.16L297.55,142.22L308.57,144.84L319.59,134.9L330.61,123.4L341.63,100.39L352.65,103.01L363.67,97.25L374.69,110.33L385.71,100.92L396.73,78.43L407.76,63.27L418.78,58.04L429.8,63.27L440.82,39.74L451.84,47.58L462.86,40.26L473.88,52.81L484.9,40.78L495.92,38.69L506.94,35.56L517.96,33.99L528.98,22.48L540,25.62" style="vector-effect: non-scaling-stroke; fill: none; stroke: rgb(0, 176, 246); stroke-opacity: 1; stroke-width: 2px; opacity: 1;"/></g><g class="points"/><g class="text"/></g><g class="trace scatter trace8dc463" style="stroke-miterlimit: 2; opacity: 1;"><g class="fills"/><g class="errorbars"/><g class="lines"><path class="js-line" d="M0,304.31L11.02,293.86L22.04,271.37L33.06,271.9L44.08,255.16L55.1,244.18L66.12,248.89L77.14,234.25L88.16,231.11L99.18,216.47L110.2,231.63L121.22,221.7L132.24,199.22L154.29,193.46L165.31,179.87L176.33,198.69L187.35,188.24L198.37,172.55L209.39,181.96L220.41,206.01L231.43,193.99L242.45,194.51L253.47,169.93L264.49,183.53L275.51,162.61L286.53,161.57L297.55,152.16L308.57,143.79L319.59,141.18L330.61,121.83L341.63,132.29L352.65,127.06L363.67,100.39L374.69,109.8L385.71,88.89L396.73,85.75L407.76,80L418.78,83.14L429.8,63.27L440.82,78.43L451.84,55.95L462.86,62.75L473.88,59.61L495.92,43.4L506.94,48.63L517.96,39.22L528.98,39.74L540,36.6" style="vector-effect: non-scaling-stroke; fill: none; stroke: rgb(231, 107, 243); stroke-opacity: 1; stroke-width: 2px; opacity: 1;"/></g><g class="points"/><g class="text"/></g><g class="trace scatter trace53e6a9" style="stroke-miterlimit: 2; opacity: 1;"><g class="fills"/><g class="errorbars"/><g class="lines"><path class="js-line" d="M0,308.5L11.02,303.27L22.04,287.06L33.06,263.01L44.08,263.53L55.1,245.75L66.12,250.46L77.14,236.34L88.16,241.57L99.18,245.23L110.2,208.63L121.22,223.27L132.24,197.12L143.27,208.1L154.29,196.6L165.31,184.05L176.33,197.12L187.35,193.46L198.37,198.17L209.39,203.92L220.41,207.58L231.43,184.05L242.45,202.35L253.47,172.55L264.49,165.23L275.51,163.66L286.53,144.84L297.55,170.98L308.57,141.18L319.59,146.41L330.61,146.93L341.63,141.18L352.65,128.63L363.67,113.99L374.69,108.24L385.71,103.53L396.73,102.48L407.76,92.55L418.78,91.5L429.8,72.68L440.82,78.95L451.84,62.75L462.86,67.97L484.9,67.45L495.92,62.22L506.94,66.93L517.96,61.7L528.98,54.38L540,52.81" style="vector-effect: non-scaling-stroke; fill: none; stroke: rgb(248, 118, 109); stroke-opacity: 1; stroke-width: 2px; opacity: 1;"/></g><g class="points"/><g class="text"/></g><g class="trace scatter trace19a54b" style="stroke-miterlimit: 2; opacity: 1;"><g class="fills"/><g class="errorbars"/><g class="lines"><path class="js-line" d="M0,310.07L11.02,290.2L22.04,284.44L33.06,269.28L44.08,260.39L55.1,248.89L66.12,233.2L77.14,235.29L88.16,218.04L99.18,221.7L110.2,213.86L121.22,199.22L132.24,192.94L143.27,179.87L154.29,188.76L165.31,178.3L176.33,173.59L187.35,163.14L198.37,177.78L209.39,201.83L220.41,151.11L231.43,168.89L242.45,165.23L253.47,164.18L264.49,140.65L275.51,151.63L286.53,138.56L297.55,128.63L308.57,126.01L319.59,133.86L330.61,125.49L341.63,109.28L352.65,101.96L363.67,110.85L374.69,108.24L385.71,92.55L396.73,68.5L407.76,76.86L418.78,67.45L429.8,45.49L440.82,41.83L462.86,51.24L473.88,44.44L484.9,27.19L495.92,28.76L506.94,26.67L517.96,26.67L528.98,28.76L540,23.01" style="vector-effect: non-scaling-stroke; fill: none; stroke: rgb(163, 165, 0); stroke-opacity: 1; stroke-width: 2px; opacity: 1;"/></g><g class="points"/><g class="text"/></g><g class="trace scatter trace89da27" style="stroke-miterlimit: 2; opacity: 1;"><g class="fills"/><g class="errorbars"/><g class="lines"><path class="js-line" d="M0,303.27L22.04,286.01L33.06,261.96L44.08,256.73L55.1,250.46L66.12,240L77.14,225.36L88.16,220.13L99.18,211.76L110.2,201.31L121.22,180.92L132.24,221.7L143.27,200.26L154.29,214.9L165.31,205.49L176.33,207.06L187.35,198.69L198.37,221.18L209.39,209.67L220.41,214.38L231.43,210.2L242.45,194.51L253.47,200.26L264.49,177.25L275.51,168.89L286.53,173.59L297.55,160.52L308.57,153.73L319.59,157.91L330.61,144.31L341.63,160L352.65,147.45L363.67,150.07L374.69,135.95L385.71,111.37L396.73,111.9L407.76,107.71L418.78,105.1L429.8,81.05L440.82,92.55L451.84,92.55L473.88,80L484.9,70.07L495.92,77.91L506.94,70.07L517.96,69.02L528.98,65.36L540,60.65" style="vector-effect: non-scaling-stroke; fill: none; stroke: rgb(0, 191, 125); stroke-opacity: 1; stroke-width: 2px; opacity: 1;"/></g><g class="points"/><g class="text"/></g><g class="trace scatter tracea3c5d1" style="stroke-miterlimit: 2; opacity: 1;"><g class="fills"/><g class="errorbars"/><g class="lines"><path class="js-line" d="M0,317.39L11.02,287.06L22.04,273.46L33.06,273.46L44.08,256.73L55.1,246.27L66.12,237.39L77.14,232.68L88.16,232.68L99.18,215.42L110.2,228.5L121.22,213.86L132.24,219.08L143.27,216.47L154.29,215.95L165.31,223.79L176.33,216.47L187.35,210.2L198.37,213.86L209.39,204.97L220.41,215.95L231.43,203.4L242.45,211.24L253.47,196.08L264.49,186.14L275.51,195.56L286.53,178.3L297.55,182.48L308.57,155.82L319.59,158.43L330.61,169.41L341.63,177.78L352.65,174.12L363.67,140.13L374.69,139.08L385.71,131.24L396.73,125.49L407.76,122.88L418.78,116.6L429.8,122.35L440.82,105.62L451.84,100.39L462.86,98.3L473.88,100.92L484.9,99.87L495.92,109.28L506.94,98.82L517.96,102.48L528.98,102.48L540,101.96" style="vector-effect: non-scaling-stroke; fill: none; stroke: rgb(0, 176, 246); stroke-opacity: 1; stroke-width: 2px; opacity: 1;"/></g><g class="points"/><g class="text"/></g><g class="trace scatter trace0d8220" style="stroke-miterlimit: 2; opacity: 1;"><g class="fills"/><g class="errorbars"/><g class="lines"><path class="js-line" d="M0,294.38L11.02,280.78L22.04,292.29L33.06,266.67L44.08,245.75L55.1,250.46L66.12,261.96L77.14,225.88L88.16,215.95L99.18,229.02L110.2,229.54L121.22,210.72L132.24,213.86L143.27,215.42L154.29,199.22L165.31,182.48L176.33,202.88L187.35,179.87L198.37,193.46L209.39,191.9L220.41,201.31L231.43,201.83L242.45,169.93L253.47,188.76L264.49,152.16L275.51,155.82L286.53,130.2L297.55,149.54L308.57,146.41L319.59,143.27L330.61,136.47L341.63,130.72L352.65,117.65L363.67,109.8L374.69,98.82L385.71,112.94L396.73,97.25L407.76,82.09L418.78,79.48L429.8,78.95L440.82,56.47L451.84,52.29L462.86,58.04L473.88,62.75L484.9,50.2L495.92,50.2L506.94,55.42L517.96,54.9L528.98,50.72L540,41.31" style="vector-effect: non-scaling-stroke; fill: none; stroke: rgb(231, 107, 243); stroke-opacity: 1; stroke-width: 2px; opacity: 1;"/></g><g class="points"/><g class="text"/></g><g class="trace scatter traced51ae7" style="stroke-miterlimit: 2; opacity: 1;"><g class="fills"/><g class="errorbars"/><g class="lines"><path class="js-line" d="M0,315.29L11.02,290.2L22.04,267.71L33.06,275.03L44.08,264.05L55.1,252.03L66.12,252.03L77.14,244.18L88.16,245.75L99.18,230.59L110.2,227.97L121.22,218.56L132.24,212.29L143.27,202.35L154.29,197.12L165.31,203.4L176.33,192.94L187.35,189.8L198.37,183.01L209.39,191.9L220.41,179.87L231.43,166.27L242.45,193.46L253.47,197.65L264.49,171.5L275.51,159.48L286.53,164.18L297.55,141.18L308.57,162.09L319.59,133.86L330.61,142.22L341.63,126.54L352.65,128.1L363.67,110.33L374.69,99.87L385.71,94.12L396.73,112.42L407.76,101.96L418.78,98.82L429.8,79.48L440.82,83.66L451.84,83.66L462.86,76.86L473.88,85.23L484.9,62.75L495.92,58.04L506.94,61.18L517.96,60.65L528.98,56.99L540,51.76" style="vector-effect: non-scaling-stroke; fill: none; stroke: rgb(248, 118, 109); stroke-opacity: 1; stroke-width: 2px; opacity: 1;"/></g><g class="points"/><g class="text"/></g><g class="trace scatter tracea6a57e" style="stroke-miterlimit: 2; opacity: 1;"><g class="fills"/><g class="errorbars"/><g class="lines"><path class="js-line" d="M0,305.88L11.02,279.74L22.04,266.14L44.08,266.67L55.1,263.01L66.12,253.07L77.14,247.84L88.16,236.86L99.18,237.91L110.2,221.18L121.22,210.2L132.24,206.54L143.27,190.85L154.29,203.4L165.31,187.71L176.33,203.4L187.35,198.17L198.37,195.03L209.39,183.53L220.41,168.37L231.43,171.5L242.45,163.14L253.47,175.69L264.49,149.54L275.51,139.61L286.53,138.56L297.55,150.07L308.57,141.18L319.59,142.22L330.61,122.35L341.63,115.03L352.65,109.8L363.67,98.82L374.69,97.78L385.71,98.82L396.73,100.39L407.76,98.82L429.8,75.82L440.82,54.9L451.84,68.5L462.86,79.48L473.88,56.47L484.9,38.69L495.92,53.86L506.94,54.38L517.96,60.13L528.98,46.54L540,50.72" style="vector-effect: non-scaling-stroke; fill: none; stroke: rgb(163, 165, 0); stroke-opacity: 1; stroke-width: 2px; opacity: 1;"/></g><g class="points"/><g class="text"/></g><g class="trace scatter trace8ef8ad" style="stroke-miterlimit: 2; opacity: 1;"><g class="fills"/><g class="errorbars"/><g class="lines"><path class="js-line" d="M0,301.7L11.02,283.92L22.04,286.54L44.08,253.07L55.1,243.14L66.12,227.45L77.14,231.63L88.16,219.08L99.18,210.72L110.2,211.76L121.22,197.65L132.24,184.58L143.27,186.67L154.29,169.93L165.31,176.21L176.33,163.14L187.35,177.25L198.37,186.67L209.39,171.5L220.41,155.82L231.43,174.12L242.45,153.2L253.47,162.09L264.49,150.07L275.51,131.76L286.53,131.76L297.55,116.08L308.57,144.84L319.59,120.78L330.61,139.08L341.63,133.86L352.65,101.96L363.67,107.19L374.69,93.07L385.71,84.71L396.73,82.61L407.76,78.43L418.78,70.07L429.8,69.02L440.82,54.38L451.84,81.57L462.86,58.56L473.88,43.92L484.9,45.49L495.92,43.92L506.94,49.15L517.96,40.78L528.98,29.28L540,26.14" style="vector-effect: non-scaling-stroke; fill: none; stroke: rgb(0, 191, 125); stroke-opacity: 1; stroke-width: 2px; opacity: 1;"/></g><g class="points"/><g class="text"/></g><g class="trace scatter trace704dd1" style="stroke-miterlimit: 2; opacity: 1;"><g class="fills"/><g class="errorbars"/><g class="lines"><path class="js-line" d="M0,304.31L11.02,304.31L22.04,273.99L33.06,266.14L44.08,260.92L55.1,266.67L66.12,248.37L77.14,240.52L88.16,243.14L99.18,218.04L110.2,225.36L121.22,210.2L132.24,191.37L143.27,183.53L154.29,187.19L165.31,200.26L176.33,190.33L187.35,176.73L198.37,178.82L209.39,196.6L220.41,167.32L231.43,172.55L242.45,188.76L253.47,160L264.49,164.18L275.51,150.59L286.53,138.56L297.55,152.68L308.57,132.29L319.59,160.52L330.61,117.12L341.63,120.26L352.65,121.31L363.67,117.12L374.69,98.82L385.71,85.75L396.73,98.3L407.76,82.09L418.78,89.41L429.8,84.18L440.82,69.54L451.84,63.79L462.86,66.93L473.88,71.11L484.9,65.88L495.92,54.38L506.94,62.22L517.96,67.97L528.98,51.24L540,51.24" style="vector-effect: non-scaling-stroke; fill: none; stroke: rgb(0, 176, 246); stroke-opacity: 1; stroke-width: 2px; opacity: 1;"/></g><g class="points"/><g class="text"/></g><g class="trace scatter trace8cc3a1" style="stroke-miterlimit: 2; opacity: 1;"><g class="fills"/><g class="errorbars"/><g class="lines"><path class="js-line" d="M0,311.11L11.02,291.76L22.04,281.31L33.06,277.65L44.08,260.39L55.1,250.46L66.12,234.77L77.14,210.2L88.16,210.72L99.18,208.1L110.2,208.63L121.22,206.01L132.24,173.07L143.27,190.33L154.29,167.84L165.31,181.96L176.33,192.94L187.35,168.89L198.37,154.25L220.41,179.87L231.43,186.14L242.45,151.11L253.47,160.52L264.49,154.77L275.51,134.9L297.55,112.42L308.57,143.27L319.59,122.88L330.61,112.94L341.63,113.46L352.65,103.53L363.67,89.93L374.69,88.37L385.71,81.05L396.73,75.29L407.76,53.86L418.78,64.84L429.8,47.58L440.82,42.35L451.84,32.94L462.86,39.22L473.88,42.88L484.9,40.26L495.92,30.33L506.94,31.37L517.96,24.05L528.98,23.53L540,14.64" style="vector-effect: non-scaling-stroke; fill: none; stroke: rgb(231, 107, 243); stroke-opacity: 1; stroke-width: 2px; opacity: 1;"/></g><g class="points"/><g class="text"/></g></g></g><g class="overplot"/><path class="xlines-above crisp" d="" style="fill: none; stroke-width: 1px; stroke: rgb(0, 0, 0); stroke-opacity: 0;"/><path class="ylines-above crisp" d="" style="fill: none; stroke-width: 1px; stroke: rgb(0, 0, 0); stroke-opacity: 0;"/><g class="overlines-above"/><g class="xaxislayer-above"><path class="xtick ticks crisp" d="M0,421v5" transform="translate(80,0)" style="stroke: rgb(51, 51, 51); stroke-opacity: 1; stroke-width: 1px;"/><path class="xtick ticks crisp" d="M0,421v5" transform="translate(190.2,0)" style="stroke: rgb(51, 51, 51); stroke-opacity: 1; stroke-width: 1px;"/><path class="xtick ticks crisp" d="M0,421v5" transform="translate(300.40999999999997,0)" style="stroke: rgb(51, 51, 51); stroke-opacity: 1; stroke-width: 1px;"/><path class="xtick ticks crisp" d="M0,421v5" transform="translate(410.61,0)" style="stroke: rgb(51, 51, 51); stroke-opacity: 1; stroke-width: 1px;"/><path class="xtick ticks crisp" d="M0,421v5" transform="translate(520.8199999999999,0)" style="stroke: rgb(51, 51, 51); stroke-opacity: 1; stroke-width: 1px;"/><g class="xtick"><text text-anchor="middle" x="0" y="440.4" transform="translate(80,0)" style="font-family: 'Open Sans', verdana, arial, sans-serif; font-size: 12px; fill: rgb(51, 51, 51); fill-opacity: 1; white-space: pre; opacity: 1;">0</text></g><g class="xtick"><text text-anchor="middle" x="0" y="440.4" style="font-family: 'Open Sans', verdana, arial, sans-serif; font-size: 12px; fill: rgb(51, 51, 51); fill-opacity: 1; white-space: pre; opacity: 1;" transform="translate(190.2,0)">10</text></g><g class="xtick"><text text-anchor="middle" x="0" y="440.4" style="font-family: 'Open Sans', verdana, arial, sans-serif; font-size: 12px; fill: rgb(51, 51, 51); fill-opacity: 1; white-space: pre; opacity: 1;" transform="translate(300.40999999999997,0)">20</text></g><g class="xtick"><text text-anchor="middle" x="0" y="440.4" style="font-family: 'Open Sans', verdana, arial, sans-serif; font-size: 12px; fill: rgb(51, 51, 51); fill-opacity: 1; white-space: pre; opacity: 1;" transform="translate(410.61,0)">30</text></g><g class="xtick"><text text-anchor="middle" x="0" y="440.4" style="font-family: 'Open Sans', verdana, arial, sans-serif; font-size: 12px; fill: rgb(51, 51, 51); fill-opacity: 1; white-space: pre; opacity: 1;" transform="translate(520.8199999999999,0)">40</text></g></g><g class="yaxislayer-above"><path class="ytick ticks crisp" d="M79,0h-5" transform="translate(0,405.36)" style="stroke: rgb(51, 51, 51); stroke-opacity: 1; stroke-width: 1px;"/><path class="ytick ticks crisp" d="M79,0h-5" transform="translate(0,358.3)" style="stroke: rgb(51, 51, 51); stroke-opacity: 1; stroke-width: 1px;"/><path class="ytick ticks crisp" d="M79,0h-5" transform="translate(0,311.24)" style="stroke: rgb(51, 51, 51); stroke-opacity: 1; stroke-width: 1px;"/><path class="ytick ticks crisp" d="M79,0h-5" transform="translate(0,264.18)" style="stroke: rgb(51, 51, 51); stroke-opacity: 1; stroke-width: 1px;"/><path class="ytick ticks crisp" d="M79,0h-5" transform="translate(0,217.12)" style="stroke: rgb(51, 51, 51); stroke-opacity: 1; stroke-width: 1px;"/><path class="ytick ticks crisp" d="M79,0h-5" transform="translate(0,170.07)" style="stroke: rgb(51, 51, 51); stroke-opacity: 1; stroke-width: 1px;"/><path class="ytick ticks crisp" d="M79,0h-5" transform="translate(0,123.01)" style="stroke: rgb(51, 51, 51); stroke-opacity: 1; stroke-width: 1px;"/><g class="ytick"><text text-anchor="end" x="71.6" y="4.199999999999999" transform="translate(0,405.36)" style="font-family: 'Open Sans', verdana, arial, sans-serif; font-size: 12px; fill: rgb(51, 51, 51); fill-opacity: 1; white-space: pre; opacity: 1;">0.004</text></g><g class="ytick"><text text-anchor="end" x="71.6" y="4.199999999999999" style="font-family: 'Open Sans', verdana, arial, sans-serif; font-size: 12px; fill: rgb(51, 51, 51); fill-opacity: 1; white-space: pre; opacity: 1;" transform="translate(0,358.3)">0.006</text></g><g class="ytick"><text text-anchor="end" x="71.6" y="4.199999999999999" style="font-family: 'Open Sans', verdana, arial, sans-serif; font-size: 12px; fill: rgb(51, 51, 51); fill-opacity: 1; white-space: pre; opacity: 1;" transform="translate(0,311.24)">0.008</text></g><g class="ytick"><text text-anchor="end" x="71.6" y="4.199999999999999" style="font-family: 'Open Sans', verdana, arial, sans-serif; font-size: 12px; fill: rgb(51, 51, 51); fill-opacity: 1; white-space: pre; opacity: 1;" transform="translate(0,264.18)">0.01</text></g><g class="ytick"><text text-anchor="end" x="71.6" y="4.199999999999999" style="font-family: 'Open Sans', verdana, arial, sans-serif; font-size: 12px; fill: rgb(51, 51, 51); fill-opacity: 1; white-space: pre; opacity: 1;" transform="translate(0,217.12)">0.012</text></g><g class="ytick"><text text-anchor="end" x="71.6" y="4.199999999999999" style="font-family: 'Open Sans', verdana, arial, sans-serif; font-size: 12px; fill: rgb(51, 51, 51); fill-opacity: 1; white-space: pre; opacity: 1;" transform="translate(0,170.07)">0.014</text></g><g class="ytick"><text text-anchor="end" x="71.6" y="4.199999999999999" style="font-family: 'Open Sans', verdana, arial, sans-serif; font-size: 12px; fill: rgb(51, 51, 51); fill-opacity: 1; white-space: pre; opacity: 1;" transform="translate(0,123.01)">0.016</text></g></g><g class="overaxes-above"/></g></g><g class="polarlayer"/><g class="ternarylayer"/><g class="geolayer"/><g class="funnelarealayer"/><g class="pielayer"/><g class="iciclelayer"/><g class="treemaplayer"/><g class="sunburstlayer"/><g class="glimages"/><defs id="topdefs-15c382"><g class="clips"/></defs><g class="layer-above"><g class="imagelayer"/><g class="shapelayer"/></g><g class="infolayer"><g class="g-gtitle"><text class="gtitle" x="350" y="50" text-anchor="middle" dy="0em" style="font-family: 'Open Sans', verdana, arial, sans-serif; font-size: 17px; fill: rgb(51, 51, 51); opacity: 1; font-weight: normal; white-space: pre;">Train Accuracy: ascad_0_noisy-s_eff_cnn_id (original)</text></g><g class="g-xtitle"/><g class="g-ytitle"/></g></svg>