<svg class="main-svg" xmlns="http://www.w3.org/2000/svg" xmlns:xlink="http://www.w3.org/1999/xlink" width="700" height="500" style="" viewBox="0 0 700 500"><rect x="0" y="0" width="700" height="500" style="fill: rgb(255, 255, 255); fill-opacity: 1;"/><defs id="defs-a4d76f"><g class="clips"><clipPath id="clipa4d76fxyplot" class="plotclip"><rect width="540" height="320"/></clipPath><clipPath class="axesclip" id="clipa4d76fx"><rect x="80" y="0" width="540" height="500"/></clipPath><clipPath class="axesclip" id="clipa4d76fy"><rect x="0" y="100" width="700" height="320"/></clipPath><clipPath class="axesclip" id="clipa4d76fxy"><rect x="80" y="100" width="540" height="320"/></clipPath></g><g class="gradients"/><g class="patterns"/></defs><g class="bglayer"><rect class="bg" x="80" y="100" width="540" height="320" style="fill: rgb(237, 237, 237); fill-opacity: 1; stroke-width: 0;"/></g><g class="layer-below"><g class="imagelayer"/><g class="shapelayer"/></g><g class="cartesianlayer"><g class="subplot xy"><g class="layer-subplot"><g class="shapelayer"/><g class="imagelayer"/></g><g class="gridlayer"><g class="x"><path class="xgrid crisp" transform="translate(200,0)" d="M0,100v320" style="stroke: rgb(255, 255, 255); stroke-opacity: 1; stroke-width: 1px;"/><path class="xgrid crisp" transform="translate(320,0)" d="M0,100v320" style="stroke: rgb(255, 255, 255); stroke-opacity: 1; stroke-width: 1px;"/><path class="xgrid crisp" transform="translate(440,0)" d="M0,100v320" style="stroke: rgb(255, 255, 255); stroke-opacity: 1; stroke-width: 1px;"/><path class="xgrid crisp" transform="translate(560,0)" d="M0,100v320" style="stroke: rgb(255, 255, 255); stroke-opacity: 1; stroke-width: 1px;"/></g><g class="y"><path class="ygrid crisp" transform="translate(0,372.79)" d="M80,0h540" style="stroke: rgb(255, 255, 255); stroke-opacity: 1; stroke-width: 1px;"/><path class="ygrid crisp" transform="translate(0,311.16999999999996)" d="M80,0h540" style="stroke: rgb(255, 255, 255); stroke-opacity: 1; stroke-width: 1px;"/><path class="ygrid crisp" transform="translate(0,249.55)" d="M80,0h540" style="stroke: rgb(255, 255, 255); stroke-opacity: 1; stroke-width: 1px;"/><path class="ygrid crisp" transform="translate(0,187.93)" d="M80,0h540" style="stroke: rgb(255, 255, 255); stroke-opacity: 1; stroke-width: 1px;"/><path class="ygrid crisp" transform="translate(0,126.31)" d="M80,0h540" style="stroke: rgb(255, 255, 255); stroke-opacity: 1; stroke-width: 1px;"/></g></g><g class="zerolinelayer"><path class="xzl zl crisp" transform="translate(80,0)" d="M0,100v320" style="stroke: rgb(255, 255, 255); stroke-opacity: 1; stroke-width: 1px;"/></g><path class="xlines-below"/><path class="ylines-below"/><g class="overlines-below"/><g class="xaxislayer-below"/><g class="yaxislayer-below"/><g class="overaxes-below"/><g class="plot" transform="translate(80,100)" clip-path="url(#clipa4d76fxyplot)"><g class="scatterlayer mlayer"><g class="trace scatter tracead056d" style="stroke-miterlimit: 2; opacity: 1;"><g class="fills"/><g class="errorbars"/><g class="lines"><path class="js-line" d="M0,189.36L60,206.2L120,203.84L180,230.06L240,11.45L300,0L360,230L420,250.19L480,308.11L540,226" style="vector-effect: non-scaling-stroke; fill: none; stroke: rgb(248, 118, 109); stroke-opacity: 1; stroke-width: 2px; opacity: 1;"/></g><g class="points"/><g class="text"/></g><g class="trace scatter traceefd102" style="stroke-miterlimit: 2; opacity: 1;"><g class="fills"/><g class="errorbars"/><g class="lines"><path class="js-line" d="M0,188.84L60,206.7L120,195.75L180,240.12L240,233.7L300,282.53L360,254.77L420,296.54L480,294.1L540,267.99" style="vector-effect: non-scaling-stroke; fill: none; stroke: rgb(163, 165, 0); stroke-opacity: 1; stroke-width: 2px; opacity: 1;"/></g><g class="points"/><g class="text"/></g><g class="trace scatter trace87b94f" style="stroke-miterlimit: 2; opacity: 1;"><g class="fills"/><g class="errorbars"/><g class="lines"><path class="js-line" d="M0,189.27L60,204.5L120,212.8L180,190.71L240,191.66L300,133.17L360,282.81L420,129.7L480,35.77L540,278.21" style="vector-effect: non-scaling-stroke; fill: none; stroke: rgb(0, 191, 125); stroke-opacity: 1; stroke-width: 2px; opacity: 1;"/></g><g class="points"/><g class="text"/></g><g class="trace scatter trace3b52c9" style="stroke-miterlimit: 2; opacity: 1;"><g class="fills"/><g class="errorbars"/><g class="lines"><path class="js-line" d="M0,188.94L60,206.25L120,153.74L180,217.73L240,239.51L300,223.09L360,276.79L420,165.66L480,210.97L540,218.24" style="vector-effect: non-scaling-stroke; fill: none; stroke: rgb(0, 176, 246); stroke-opacity: 1; stroke-width: 2px; opacity: 1;"/></g><g class="points"/><g class="text"/></g><g class="trace scatter traceb6f0de" style="stroke-miterlimit: 2; opacity: 1;"><g class="fills"/><g class="errorbars"/><g class="lines"><path class="js-line" d="M0,188.63L60,203.47L120,210.24L180,235.48L240,181.62L300,131.88L360,249.14L420,263.3L480,289.13L540,220.05" style="vector-effect: non-scaling-stroke; fill: none; stroke: rgb(231, 107, 243); stroke-opacity: 1; stroke-width: 2px; opacity: 1;"/></g><g class="points"/><g class="text"/></g><g class="trace scatter traced04416" style="stroke-miterlimit: 2; opacity: 1;"><g class="fills"/><g class="errorbars"/><g class="lines"><path class="js-line" d="M0,189.15L60,203.68L120,190.79L180,237.21L240,200.98L300,251.44L360,271.74L420,282.3L480,302.52L540,272.55" style="vector-effect: non-scaling-stroke; fill: none; stroke: rgb(248, 118, 109); stroke-opacity: 1; stroke-width: 2px; opacity: 1;"/></g><g class="points"/><g class="text"/></g><g class="trace scatter trace20f69a" style="stroke-miterlimit: 2; opacity: 1;"><g class="fills"/><g class="errorbars"/><g class="lines"><path class="js-line" d="M0,189.02L60,204.35L120,163.01L180,236.71L240,226.89L300,242.73L360,257.65L420,268.76L480,243.63L540,165.62" style="vector-effect: non-scaling-stroke; fill: none; stroke: rgb(163, 165, 0); stroke-opacity: 1; stroke-width: 2px; opacity: 1;"/></g><g class="points"/><g class="text"/></g><g class="trace scatter trace8cfceb" style="stroke-miterlimit: 2; opacity: 1;"><g class="fills"/><g class="errorbars"/><g class="lines"><path class="js-line" d="M0,189L60,211.2L120,190.85L180,242.47L240,269.62L300,216.08L360,250.27L420,239.9L480,219.18L540,262.59" style="vector-effect: non-scaling-stroke; fill: none; stroke: rgb(0, 191, 125); stroke-opacity: 1; stroke-width: 2px; opacity: 1;"/></g><g class="points"/><g class="text"/></g><g class="trace scatter tracea69c39" style="stroke-miterlimit: 2; opacity: 1;"><g class="fills"/><g class="errorbars"/><g class="lines"><path class="js-line" d="M0,188.33L60,202.53L120,203.36L180,213.84L240,215.63L300,219.27L360,221.71L420,223.13L480,236.59L540,255.16" style="vector-effect: non-scaling-stroke; fill: none; stroke: rgb(0, 176, 246); stroke-opacity: 1; stroke-width: 2px; opacity: 1;"/></g><g class="points"/><g class="text"/></g><g class="trace scatter trace8a0091" style="stroke-miterlimit: 2; opacity: 1;"><g class="fills"/><g class="errorbars"/><g class="lines"><path class="js-line" d="M0,189.19L60,205.61L120,177.53L180,249.27L240,143.62L300,202.05L360,265.09L420,138.64L480,228.96L540,216.59" style="vector-effect: non-scaling-stroke; fill: none; stroke: rgb(231, 107, 243); stroke-opacity: 1; stroke-width: 2px; opacity: 1;"/></g><g class="points"/><g class="text"/></g><g class="trace scatter trace353410" style="stroke-miterlimit: 2; opacity: 1;"><g class="fills"/><g class="errorbars"/><g class="lines"><path class="js-line" d="M0,188.81L60,209.46L120,162.77L180,208.65L240,230.43L300,218.07L360,261.31L420,270.25L480,302.41L540,277.13" style="vector-effect: non-scaling-stroke; fill: none; stroke: rgb(248, 118, 109); stroke-opacity: 1; stroke-width: 2px; opacity: 1;"/></g><g class="points"/><g class="text"/></g><g class="trace scatter traceaf109d" style="stroke-miterlimit: 2; opacity: 1;"><g class="fills"/><g class="errorbars"/><g class="lines"><path class="js-line" d="M0,189.41L60,227.55L120,264.18L180,282.53L240,282.73L300,295.23L360,254.75L420,223.77L480,229.23L540,189.19" style="vector-effect: non-scaling-stroke; fill: none; stroke: rgb(163, 165, 0); stroke-opacity: 1; stroke-width: 2px; opacity: 1;"/></g><g class="points"/><g class="text"/></g><g class="trace scatter trace11f966" style="stroke-miterlimit: 2; opacity: 1;"><g class="fills"/><g class="errorbars"/><g class="lines"><path class="js-line" d="M0,189.4L60,203.65L120,205.01L180,214.42L240,212.59L300,217.6L360,219.7L420,219.82L480,224.11L540,225.78" style="vector-effect: non-scaling-stroke; fill: none; stroke: rgb(0, 191, 125); stroke-opacity: 1; stroke-width: 2px; opacity: 1;"/></g><g class="points"/><g class="text"/></g><g class="trace scatter traceb4a944" style="stroke-miterlimit: 2; opacity: 1;"><g class="fills"/><g class="errorbars"/><g class="lines"><path class="js-line" d="M0,188.75L60,208.47L120,180.4L180,257.99L240,214.27L300,169.73L360,212.06L420,243.11L480,294.66L540,311.1" style="vector-effect: non-scaling-stroke; fill: none; stroke: rgb(0, 176, 246); stroke-opacity: 1; stroke-width: 2px; opacity: 1;"/></g><g class="points"/><g class="text"/></g><g class="trace scatter trace218a2f" style="stroke-miterlimit: 2; opacity: 1;"><g class="fills"/><g class="errorbars"/><g class="lines"><path class="js-line" d="M0,189.44L60,203.37L120,193.38L180,225.02L240,174.93L300,223.79L360,268.89L420,264.57L480,250.75L540,256.06" style="vector-effect: non-scaling-stroke; fill: none; stroke: rgb(231, 107, 243); stroke-opacity: 1; stroke-width: 2px; opacity: 1;"/></g><g class="points"/><g class="text"/></g><g class="trace scatter tracebd5b4d" style="stroke-miterlimit: 2; opacity: 1;"><g class="fills"/><g class="errorbars"/><g class="lines"><path class="js-line" d="M0,188.88L60,204.06L120,190.62L180,244L240,138.67L300,98.56L360,125.83L420,116.96L480,221.74L540,220.18" style="vector-effect: non-scaling-stroke; fill: none; stroke: rgb(248, 118, 109); stroke-opacity: 1; stroke-width: 2px; opacity: 1;"/></g><g class="points"/><g class="text"/></g><g class="trace scatter trace34e613" style="stroke-miterlimit: 2; opacity: 1;"><g class="fills"/><g class="errorbars"/><g class="lines"><path class="js-line" d="M0,189.55L60,211.03L120,189.38L180,235.05L240,245.76L300,291.1L360,307.66L420,287.26L480,318.72L540,320" style="vector-effect: non-scaling-stroke; fill: none; stroke: rgb(163, 165, 0); stroke-opacity: 1; stroke-width: 2px; opacity: 1;"/></g><g class="points"/><g class="text"/></g><g class="trace scatter tracecd06d8" style="stroke-miterlimit: 2; opacity: 1;"><g class="fills"/><g class="errorbars"/><g class="lines"><path class="js-line" d="M0,189.51L60,206.97L120,201.56L180,252.3L240,268.86L300,277.91L360,277.34L420,270.2L480,279.18L540,267.66" style="vector-effect: non-scaling-stroke; fill: none; stroke: rgb(0, 191, 125); stroke-opacity: 1; stroke-width: 2px; opacity: 1;"/></g><g class="points"/><g class="text"/></g><g class="trace scatter tracebc40e3" style="stroke-miterlimit: 2; opacity: 1;"><g class="fills"/><g class="errorbars"/><g class="lines"><path class="js-line" d="M0,189.38L60,203.17L120,126.25L180,222.8L240,79.8L300,143.31L360,278.33L420,288.13L480,313L540,302.24" style="vector-effect: non-scaling-stroke; fill: none; stroke: rgb(0, 176, 246); stroke-opacity: 1; stroke-width: 2px; opacity: 1;"/></g><g class="points"/><g class="text"/></g><g class="trace scatter trace29c82c" style="stroke-miterlimit: 2; opacity: 1;"><g class="fills"/><g class="errorbars"/><g class="lines"><path class="js-line" d="M0,188.63L60,203.08L120,95.43L180,210.99L240,215.45L300,253L360,257.19L420,215.79L480,239.17L540,277.53" style="vector-effect: non-scaling-stroke; fill: none; stroke: rgb(231, 107, 243); stroke-opacity: 1; stroke-width: 2px; opacity: 1;"/></g><g class="points"/><g class="text"/></g><g class="trace scatter trace16a6ad" style="stroke-miterlimit: 2; opacity: 1;"><g class="fills"/><g class="errorbars"/><g class="lines"><path class="js-line" d="M0,189.27L60,208.74L120,206.07L180,260.96L240,266.47L300,294.03L360,224.75L420,264.98L480,308.1L540,307.2" style="vector-effect: non-scaling-stroke; fill: none; stroke: rgb(248, 118, 109); stroke-opacity: 1; stroke-width: 2px; opacity: 1;"/></g><g class="points"/><g class="text"/></g><g class="trace scatter trace9f807a" style="stroke-miterlimit: 2; opacity: 1;"><g class="fills"/><g class="errorbars"/><g class="lines"><path class="js-line" d="M0,189.55L60,202.73L120,81.11L180,164.86L240,162.25L300,243.94L360,299.21L420,285.77L480,313.35L540,318.89" style="vector-effect: non-scaling-stroke; fill: none; stroke: rgb(163, 165, 0); stroke-opacity: 1; stroke-width: 2px; opacity: 1;"/></g><g class="points"/><g class="text"/></g><g class="trace scatter traceed217e" style="stroke-miterlimit: 2; opacity: 1;"><g class="fills"/><g class="errorbars"/><g class="lines"><path class="js-line" d="M0,189.92L60,212.39L120,206.89L180,245.82L240,249.56L300,289.76L360,288.78L420,224.08L480,312.9L540,298.59" style="vector-effect: non-scaling-stroke; fill: none; stroke: rgb(0, 191, 125); stroke-opacity: 1; stroke-width: 2px; opacity: 1;"/></g><g class="points"/><g class="text"/></g><g class="trace scatter trace408b88" style="stroke-miterlimit: 2; opacity: 1;"><g class="fills"/><g class="errorbars"/><g class="lines"><path class="js-line" d="M0,189.3L60,202.87L120,208.23L180,214.05L240,205.25L300,144.66L360,228.47L420,193.77L480,302.08L540,252.77" style="vector-effect: non-scaling-stroke; fill: none; stroke: rgb(0, 176, 246); stroke-opacity: 1; stroke-width: 2px; opacity: 1;"/></g><g class="points"/><g class="text"/></g><g class="trace scatter traceff82bc" style="stroke-miterlimit: 2; opacity: 1;"><g class="fills"/><g class="errorbars"/><g class="lines"><path class="js-line" d="M0,189.23L60,214.06L120,210.75L180,273.82L240,272.13L300,241.5L360,262.54L420,290.93L480,299.72L540,299.35" style="vector-effect: non-scaling-stroke; fill: none; stroke: rgb(231, 107, 243); stroke-opacity: 1; stroke-width: 2px; opacity: 1;"/></g><g class="points"/><g class="text"/></g><g class="trace scatter trace4fc5cf" style="stroke-miterlimit: 2; opacity: 1;"><g class="fills"/><g class="errorbars"/><g class="lines"><path class="js-line" d="M0,189.38L60,208.26L120,221.15L180,270.46L240,265.34L300,222.09L360,288.26L420,120.55L480,157.49L540,227.51" style="vector-effect: non-scaling-stroke; fill: none; stroke: rgb(248, 118, 109); stroke-opacity: 1; stroke-width: 2px; opacity: 1;"/></g><g class="points"/><g class="text"/></g><g class="trace scatter tracec19a02" style="stroke-miterlimit: 2; opacity: 1;"><g class="fills"/><g class="errorbars"/><g class="lines"><path class="js-line" d="M0,189.11L60,201.14L120,200.25L180,222.1L240,193.88L300,161.66L360,283.94L420,298.31L480,309.96L540,300.66" style="vector-effect: non-scaling-stroke; fill: none; stroke: rgb(163, 165, 0); stroke-opacity: 1; stroke-width: 2px; opacity: 1;"/></g><g class="points"/><g class="text"/></g><g class="trace scatter trace9cf8df" style="stroke-miterlimit: 2; opacity: 1;"><g class="fills"/><g class="errorbars"/><g class="lines"><path class="js-line" d="M0,189.07L60,216.76L120,239.22L180,281.79L240,271.15L300,223.88L360,288.82L420,288.32L480,301.01L540,190.98" style="vector-effect: non-scaling-stroke; fill: none; stroke: rgb(0, 191, 125); stroke-opacity: 1; stroke-width: 2px; opacity: 1;"/></g><g class="points"/><g class="text"/></g><g class="trace scatter tracefe83f9" style="stroke-miterlimit: 2; opacity: 1;"><g class="fills"/><g class="errorbars"/><g class="lines"><path class="js-line" d="M0,189.39L60,210.62L120,186.9L180,271.09L240,267.04L300,290.56L360,296.03L420,260.31L480,277.11L540,304.26" style="vector-effect: non-scaling-stroke; fill: none; stroke: rgb(0, 176, 246); stroke-opacity: 1; stroke-width: 2px; opacity: 1;"/></g><g class="points"/><g class="text"/></g><g class="trace scatter trace5ecfac" style="stroke-miterlimit: 2; opacity: 1;"><g class="fills"/><g class="errorbars"/><g class="lines"><path class="js-line" d="M0,189.03L60,204.05L120,211.37L180,251.41L240,237.49L300,239.86L360,225.49L420,276.07L480,290.98L540,204.44" style="vector-effect: non-scaling-stroke; fill: none; stroke: rgb(231, 107, 243); stroke-opacity: 1; stroke-width: 2px; opacity: 1;"/></g><g class="points"/><g class="text"/></g><g class="trace scatter tracee75001" style="stroke-miterlimit: 2; opacity: 1;"><g class="fills"/><g class="errorbars"/><g class="lines"><path class="js-line" d="M0,189.01L60,204.9L120,164.7L180,246.79L240,248.7L300,258.8L360,263.62L420,254.01L480,292.98L540,270.93" style="vector-effect: non-scaling-stroke; fill: none; stroke: rgb(248, 118, 109); stroke-opacity: 1; stroke-width: 2px; opacity: 1;"/></g><g class="points"/><g class="text"/></g><g class="trace scatter tracedd91bf" style="stroke-miterlimit: 2; opacity: 1;"><g class="fills"/><g class="errorbars"/><g class="lines"><path class="js-line" d="M0,189.78L60,202.63L120,168.19L180,226.62L240,161.35L300,206.03L360,255.86L420,250.19L480,300.61L540,255.4" style="vector-effect: non-scaling-stroke; fill: none; stroke: rgb(163, 165, 0); stroke-opacity: 1; stroke-width: 2px; opacity: 1;"/></g><g class="points"/><g class="text"/></g><g class="trace scatter trace1ee0b0" style="stroke-miterlimit: 2; opacity: 1;"><g class="fills"/><g class="errorbars"/><g class="lines"><path class="js-line" d="M0,189.26L60,217.58L120,239.29L180,278.23L240,267.97L300,287.97L360,289.61L420,283.5L480,274.87L540,244.9" style="vector-effect: non-scaling-stroke; fill: none; stroke: rgb(0, 191, 125); stroke-opacity: 1; stroke-width: 2px; opacity: 1;"/></g><g class="points"/><g class="text"/></g><g class="trace scatter traceba0c30" style="stroke-miterlimit: 2; opacity: 1;"><g class="fills"/><g class="errorbars"/><g class="lines"><path class="js-line" d="M0,189.69L60,209.56L120,187.23L180,240.65L240,207.72L300,270.27L360,227.23L420,301.28L480,315.38L540,317.44" style="vector-effect: non-scaling-stroke; fill: none; stroke: rgb(0, 176, 246); stroke-opacity: 1; stroke-width: 2px; opacity: 1;"/></g><g class="points"/><g class="text"/></g><g class="trace scatter trace88e0e4" style="stroke-miterlimit: 2; opacity: 1;"><g class="fills"/><g class="errorbars"/><g class="lines"><path class="js-line" d="M0,188.89L60,207.47L120,200.57L180,264.04L240,272.11L300,294.64L360,293.97L420,250.39L480,304.3L540,291.32" style="vector-effect: non-scaling-stroke; fill: none; stroke: rgb(231, 107, 243); stroke-opacity: 1; stroke-width: 2px; opacity: 1;"/></g><g class="points"/><g class="text"/></g><g class="trace scatter tracecf39f1" style="stroke-miterlimit: 2; opacity: 1;"><g class="fills"/><g class="errorbars"/><g class="lines"><path class="js-line" d="M0,188.35L60,203.74L120,207.75L180,219.44L240,180.47L300,22.9L360,126.58L420,154.61L480,229.6L540,244.64" style="vector-effect: non-scaling-stroke; fill: none; stroke: rgb(248, 118, 109); stroke-opacity: 1; stroke-width: 2px; opacity: 1;"/></g><g class="points"/><g class="text"/></g><g class="trace scatter tracec0c839" style="stroke-miterlimit: 2; opacity: 1;"><g class="fills"/><g class="errorbars"/><g class="lines"><path class="js-line" d="M0,189.29L60,208.78L120,175.98L180,233.84L240,202.74L300,254.87L360,278.82L420,266.1L480,272.26L540,273.51" style="vector-effect: non-scaling-stroke; fill: none; stroke: rgb(163, 165, 0); stroke-opacity: 1; stroke-width: 2px; opacity: 1;"/></g><g class="points"/><g class="text"/></g><g class="trace scatter trace619d91" style="stroke-miterlimit: 2; opacity: 1;"><g class="fills"/><g class="errorbars"/><g class="lines"><path class="js-line" d="M0,189.24L60,202.17L120,206.31L180,232.35L240,189.73L300,76.85L360,256.31L420,243.42L480,289.82L540,274.75" style="vector-effect: non-scaling-stroke; fill: none; stroke: rgb(0, 191, 125); stroke-opacity: 1; stroke-width: 2px; opacity: 1;"/></g><g class="points"/><g class="text"/></g><g class="trace scatter trace5b96d4" style="stroke-miterlimit: 2; opacity: 1;"><g class="fills"/><g class="errorbars"/><g class="lines"><path class="js-line" d="M0,189.3L60,202.01L120,183.32L180,242.12L240,146.65L300,172.45L360,248.18L420,223.97L480,266.28L540,244.97" style="vector-effect: non-scaling-stroke; fill: none; stroke: rgb(0, 176, 246); stroke-opacity: 1; stroke-width: 2px; opacity: 1;"/></g><g class="points"/><g class="text"/></g><g class="trace scatter trace9a675b" style="stroke-miterlimit: 2; opacity: 1;"><g class="fills"/><g class="errorbars"/><g class="lines"><path class="js-line" d="M0,189.35L60,204.22L120,159.37L180,241.53L240,233.54L300,223.23L360,149.97L420,280.68L480,274.98L540,282.69" style="vector-effect: non-scaling-stroke; fill: none; stroke: rgb(231, 107, 243); stroke-opacity: 1; stroke-width: 2px; opacity: 1;"/></g><g class="points"/><g class="text"/></g><g class="trace scatter tracecaf643" style="stroke-miterlimit: 2; opacity: 1;"><g class="fills"/><g class="errorbars"/><g class="lines"><path class="js-line" d="M0,189.4L60,204.76L120,196.74L180,235.67L240,238.67L300,193.48L360,261.31L420,281.98L480,283.59L540,225.29" style="vector-effect: non-scaling-stroke; fill: none; stroke: rgb(248, 118, 109); stroke-opacity: 1; stroke-width: 2px; opacity: 1;"/></g><g class="points"/><g class="text"/></g><g class="trace scatter trace0ee1c1" style="stroke-miterlimit: 2; opacity: 1;"><g class="fills"/><g class="errorbars"/><g class="lines"><path class="js-line" d="M0,189.44L60,208.47L120,209.57L180,265.32L240,281.59L300,297.86L360,295.44L420,263.07L480,251.83L540,277.13" style="vector-effect: non-scaling-stroke; fill: none; stroke: rgb(163, 165, 0); stroke-opacity: 1; stroke-width: 2px; opacity: 1;"/></g><g class="points"/><g class="text"/></g><g class="trace scatter trace62165a" style="stroke-miterlimit: 2; opacity: 1;"><g class="fills"/><g class="errorbars"/><g class="lines"><path class="js-line" d="M0,189.15L60,203.86L120,174.48L180,190.02L240,133.16L300,126.15L360,278.57L420,278.53L480,290.84L540,259.59" style="vector-effect: non-scaling-stroke; fill: none; stroke: rgb(0, 191, 125); stroke-opacity: 1; stroke-width: 2px; opacity: 1;"/></g><g class="points"/><g class="text"/></g><g class="trace scatter trace6f65bf" style="stroke-miterlimit: 2; opacity: 1;"><g class="fills"/><g class="errorbars"/><g class="lines"><path class="js-line" d="M0,189.37L60,203.76L120,176.81L180,250.18L240,156L300,41.47L360,128.42L420,202.45L480,285.71L540,212.15" style="vector-effect: non-scaling-stroke; fill: none; stroke: rgb(0, 176, 246); stroke-opacity: 1; stroke-width: 2px; opacity: 1;"/></g><g class="points"/><g class="text"/></g><g class="trace scatter tracedd2f7c" style="stroke-miterlimit: 2; opacity: 1;"><g class="fills"/><g class="errorbars"/><g class="lines"><path class="js-line" d="M0,189.41L60,207.02L120,216.6L180,262.81L240,285.93L300,294.82L360,298.63L420,267.05L480,289.2L540,276.95" style="vector-effect: non-scaling-stroke; fill: none; stroke: rgb(231, 107, 243); stroke-opacity: 1; stroke-width: 2px; opacity: 1;"/></g><g class="points"/><g class="text"/></g><g class="trace scatter trace7b1642" style="stroke-miterlimit: 2; opacity: 1;"><g class="fills"/><g class="errorbars"/><g class="lines"><path class="js-line" d="M0,189.08L60,204.13L120,206.33L180,213.46L240,216.41L300,204.09L360,142.33L420,112.02L480,239.41L540,248.16" style="vector-effect: non-scaling-stroke; fill: none; stroke: rgb(248, 118, 109); stroke-opacity: 1; stroke-width: 2px; opacity: 1;"/></g><g class="points"/><g class="text"/></g><g class="trace scatter tracea89a49" style="stroke-miterlimit: 2; opacity: 1;"><g class="fills"/><g class="errorbars"/><g class="lines"><path class="js-line" d="M0,189.36L60,205.45L120,234.9L180,273.37L240,247.19L300,260.91L360,253.43L420,257.73L480,292.51L540,175.34" style="vector-effect: non-scaling-stroke; fill: none; stroke: rgb(163, 165, 0); stroke-opacity: 1; stroke-width: 2px; opacity: 1;"/></g><g class="points"/><g class="text"/></g><g class="trace scatter trace1065f6" style="stroke-miterlimit: 2; opacity: 1;"><g class="fills"/><g class="errorbars"/><g class="lines"><path class="js-line" d="M0,189.13L60,204.45L120,161.1L180,201.85L240,228.84L300,82.42L360,116.12L420,98.85L480,217.71L540,274.64" style="vector-effect: non-scaling-stroke; fill: none; stroke: rgb(0, 191, 125); stroke-opacity: 1; stroke-width: 2px; opacity: 1;"/></g><g class="points"/><g class="text"/></g><g class="trace scatter trace945130" style="stroke-miterlimit: 2; opacity: 1;"><g class="fills"/><g class="errorbars"/><g class="lines"><path class="js-line" d="M0,188.47L60,203.66L120,163L180,236.37L240,160.16L300,224.37L360,259.67L420,300.29L480,311.19L540,207.24" style="vector-effect: non-scaling-stroke; fill: none; stroke: rgb(0, 176, 246); stroke-opacity: 1; stroke-width: 2px; opacity: 1;"/></g><g class="points"/><g class="text"/></g><g class="trace scatter trace3a37f9" style="stroke-miterlimit: 2; opacity: 1;"><g class="fills"/><g class="errorbars"/><g class="lines"><path class="js-line" d="M0,188.88L60,208.71L120,173.72L180,241.64L240,89.16L300,154.16L360,265.06L420,102.88L480,304.93L540,289.31" style="vector-effect: non-scaling-stroke; fill: none; stroke: rgb(231, 107, 243); stroke-opacity: 1; stroke-width: 2px; opacity: 1;"/></g><g class="points"/><g class="text"/></g></g></g><g class="overplot"/><path class="xlines-above crisp" d="" style="fill: none; stroke-width: 1px; stroke: rgb(0, 0, 0); stroke-opacity: 0;"/><path class="ylines-above crisp" d="" style="fill: none; stroke-width: 1px; stroke: rgb(0, 0, 0); stroke-opacity: 0;"/><g class="overlines-above"/><g class="xaxislayer-above"><path class="xtick ticks crisp" d="M0,421v5" transform="translate(80,0)" style="stroke: rgb(51, 51, 51); stroke-opacity: 1; stroke-width: 1px;"/><path class="xtick ticks crisp" d="M0,421v5" transform="translate(200,0)" style="stroke: rgb(51, 51, 51); stroke-opacity: 1; stroke-width: 1px;"/><path class="xtick ticks crisp" d="M0,421v5" transform="translate(320,0)" style="stroke: rgb(51, 51, 51); stroke-opacity: 1; stroke-width: 1px;"/><path class="xtick ticks crisp" d="M0,421v5" transform="translate(440,0)" style="stroke: rgb(51, 51, 51); stroke-opacity: 1; stroke-width: 1px;"/><path class="xtick ticks crisp" d="M0,421v5" transform="translate(560,0)" style="stroke: rgb(51, 51, 51); stroke-opacity: 1; stroke-width: 1px;"/><g class="xtick"><text text-anchor="middle" x="0" y="440.4" transform="translate(80,0)" style="font-family: 'Open Sans', verdana, arial, sans-serif; font-size: 12px; fill: rgb(51, 51, 51); fill-opacity: 1; white-space: pre; opacity: 1;">0</text></g><g class="xtick"><text text-anchor="middle" x="0" y="440.4" style="font-family: 'Open Sans', verdana, arial, sans-serif; font-size: 12px; fill: rgb(51, 51, 51); fill-opacity: 1; white-space: pre; opacity: 1;" transform="translate(200,0)">2</text></g><g class="xtick"><text text-anchor="middle" x="0" y="440.4" style="font-family: 'Open Sans', verdana, arial, sans-serif; font-size: 12px; fill: rgb(51, 51, 51); fill-opacity: 1; white-space: pre; opacity: 1;" transform="translate(320,0)">4</text></g><g class="xtick"><text text-anchor="middle" x="0" y="440.4" style="font-family: 'Open Sans', verdana, arial, sans-serif; font-size: 12px; fill: rgb(51, 51, 51); fill-opacity: 1; white-space: pre; opacity: 1;" transform="translate(440,0)">6</text></g><g class="xtick"><text text-anchor="middle" x="0" y="440.4" style="font-family: 'Open Sans', verdana, arial, sans-serif; font-size: 12px; fill: rgb(51, 51, 51); fill-opacity: 1; white-space: pre; opacity: 1;" transform="translate(560,0)">8</text></g></g><g class="yaxislayer-above"><path class="ytick ticks crisp" d="M79,0h-5" transform="translate(0,372.79)" style="stroke: rgb(51, 51, 51); stroke-opacity: 1; stroke-width: 1px;"/><path class="ytick ticks crisp" d="M79,0h-5" transform="translate(0,311.16999999999996)" style="stroke: rgb(51, 51, 51); stroke-opacity: 1; stroke-width: 1px;"/><path class="ytick ticks crisp" d="M79,0h-5" transform="translate(0,249.55)" style="stroke: rgb(51, 51, 51); stroke-opacity: 1; stroke-width: 1px;"/><path class="ytick ticks crisp" d="M79,0h-5" transform="translate(0,187.93)" style="stroke: rgb(51, 51, 51); stroke-opacity: 1; stroke-width: 1px;"/><path class="ytick ticks crisp" d="M79,0h-5" transform="translate(0,126.31)" style="stroke: rgb(51, 51, 51); stroke-opacity: 1; stroke-width: 1px;"/><g class="ytick"><text text-anchor="end" x="71.6" y="4.199999999999999" transform="translate(0,372.79)" style="font-family: 'Open Sans', verdana, arial, sans-serif; font-size: 12px; fill: rgb(51, 51, 51); fill-opacity: 1; white-space: pre; opacity: 1;">5.4</text></g><g class="ytick"><text text-anchor="end" x="71.6" y="4.199999999999999" style="font-family: 'Open Sans', verdana, arial, sans-serif; font-size: 12px; fill: rgb(51, 51, 51); fill-opacity: 1; white-space: pre; opacity: 1;" transform="translate(0,311.16999999999996)">5.6</text></g><g class="ytick"><text text-anchor="end" x="71.6" y="4.199999999999999" style="font-family: 'Open Sans', verdana, arial, sans-serif; font-size: 12px; fill: rgb(51, 51, 51); fill-opacity: 1; white-space: pre; opacity: 1;" transform="translate(0,249.55)">5.8</text></g><g class="ytick"><text text-anchor="end" x="71.6" y="4.199999999999999" style="font-family: 'Open Sans', verdana, arial, sans-serif; font-size: 12px; fill: rgb(51, 51, 51); fill-opacity: 1; white-space: pre; opacity: 1;" transform="translate(0,187.93)">6</text></g><g class="ytick"><text text-anchor="end" x="71.6" y="4.199999999999999" style="font-family: 'Open Sans', verdana, arial, sans-serif; font-size: 12px; fill: rgb(51, 51, 51); fill-opacity: 1; white-space: pre; opacity: 1;" transform="translate(0,126.31)">6.2</text></g></g><g class="overaxes-above"/></g></g><g class="polarlayer"/><g class="ternarylayer"/><g class="geolayer"/><g class="funnelarealayer"/><g class="pielayer"/><g class="iciclelayer"/><g class="treemaplayer"/><g class="sunburstlayer"/><g class="glimages"/><defs id="topdefs-a4d76f"><g class="clips"/></defs><g class="layer-above"><g class="imagelayer"/><g class="shapelayer"/></g><g class="infolayer"><g class="g-gtitle"><text class="gtitle" x="350" y="50" text-anchor="middle" dy="0em" style="font-family: 'Open Sans', verdana, arial, sans-serif; font-size: 17px; fill: rgb(51, 51, 51); opacity: 1; font-weight: normal; white-space: pre;">Train Loss: ascad_r_0-aisy_id_mlp (original)</text></g><g class="g-xtitle"/><g class="g-ytitle"/></g></svg>