<svg class="main-svg" xmlns="http://www.w3.org/2000/svg" xmlns:xlink="http://www.w3.org/1999/xlink" width="700" height="500" style="" viewBox="0 0 700 500"><rect x="0" y="0" width="700" height="500" style="fill: rgb(255, 255, 255); fill-opacity: 1;"/><defs id="defs-d923c7"><g class="clips"><clipPath id="clipd923c7xyplot" class="plotclip"><rect width="540" height="320"/></clipPath><clipPath class="axesclip" id="clipd923c7x"><rect x="80" y="0" width="540" height="500"/></clipPath><clipPath class="axesclip" id="clipd923c7y"><rect x="0" y="100" width="700" height="320"/></clipPath><clipPath class="axesclip" id="clipd923c7xy"><rect x="80" y="100" width="540" height="320"/></clipPath></g><g class="gradients"/><g class="patterns"/></defs><g class="bglayer"><rect class="bg" x="80" y="100" width="540" height="320" style="fill: rgb(229, 236, 246); fill-opacity: 1; stroke-width: 0;"/></g><g class="layer-below"><g class="imagelayer"/><g class="shapelayer"/></g><g class="cartesianlayer"><g class="subplot xy"><g class="layer-subplot"><g class="shapelayer"/><g class="imagelayer"/></g><g class="gridlayer"><g class="x"><path class="xgrid crisp" transform="translate(188.43,0)" d="M0,100v320" style="stroke: rgb(255, 255, 255); stroke-opacity: 1; stroke-width: 1px;"/><path class="xgrid crisp" transform="translate(296.87,0)" d="M0,100v320" style="stroke: rgb(255, 255, 255); stroke-opacity: 1; stroke-width: 1px;"/><path class="xgrid crisp" transform="translate(405.3,0)" d="M0,100v320" style="stroke: rgb(255, 255, 255); stroke-opacity: 1; stroke-width: 1px;"/><path class="xgrid crisp" transform="translate(513.73,0)" d="M0,100v320" style="stroke: rgb(255, 255, 255); stroke-opacity: 1; stroke-width: 1px;"/></g><g class="y"><path class="ygrid crisp" transform="translate(0,374.05)" d="M80,0h540" style="stroke: rgb(255, 255, 255); stroke-opacity: 1; stroke-width: 1px;"/><path class="ygrid crisp" transform="translate(0,328.1)" d="M80,0h540" style="stroke: rgb(255, 255, 255); stroke-opacity: 1; stroke-width: 1px;"/><path class="ygrid crisp" transform="translate(0,282.15)" d="M80,0h540" style="stroke: rgb(255, 255, 255); stroke-opacity: 1; stroke-width: 1px;"/><path class="ygrid crisp" transform="translate(0,236.2)" d="M80,0h540" style="stroke: rgb(255, 255, 255); stroke-opacity: 1; stroke-width: 1px;"/><path class="ygrid crisp" transform="translate(0,190.25)" d="M80,0h540" style="stroke: rgb(255, 255, 255); stroke-opacity: 1; stroke-width: 1px;"/><path class="ygrid crisp" transform="translate(0,144.3)" d="M80,0h540" style="stroke: rgb(255, 255, 255); stroke-opacity: 1; stroke-width: 1px;"/></g></g><g class="zerolinelayer"><path class="xzl zl crisp" transform="translate(80,0)" d="M0,100v320" style="stroke: rgb(255, 255, 255); stroke-opacity: 1; stroke-width: 2px;"/><path class="yzl zl crisp" transform="translate(0,420)" d="M80,0h540" style="stroke: rgb(255, 255, 255); stroke-opacity: 1; stroke-width: 2px;"/></g><path class="xlines-below"/><path class="ylines-below"/><g class="overlines-below"/><g class="xaxislayer-below"/><g class="yaxislayer-below"/><g class="overaxes-below"/><g class="plot" transform="translate(80,100)" clip-path="url(#clipd923c7xyplot)"><g class="scatterlayer mlayer"><g class="trace scatter trace0c448a" style="stroke-miterlimit: 2; opacity: 1;"><g class="fills"/><g class="errorbars"/><g class="lines"><path class="js-line" d="M0,87.44L2.17,77.59L4.34,107.82L6.51,104.09L8.67,93.76L10.84,95.74L13.01,75.03L15.18,94.24L17.35,84.85L19.52,70.62L21.69,75.53L23.86,75.6L26.02,70.03L28.19,61.87L30.36,62.74L32.53,58.67L34.7,60.1L36.87,64.28L39.04,62.74L41.2,46.58L43.37,57.28L45.54,57.48L47.71,60.36L49.88,62.46L52.05,74.23L54.22,75.02L56.39,69.53L58.55,70.71L60.72,74.58L62.89,80.6L65.06,82.82L67.23,76.1L69.4,75.09L71.57,88.04L73.73,93.17L78.07,95.89L80.24,88.48L82.41,77.86L84.58,71.08L86.75,56.02L88.92,52.08L91.08,65.36L93.25,61.78L95.42,60.95L97.59,50.32L104.1,72.58L106.27,70.64L108.43,70.95L110.6,77.61L112.77,79.85L114.94,83.69L119.28,74.99L121.45,73.34L123.61,76.26L125.78,75.2L127.95,74.57L130.12,71.05L134.46,68.96L136.63,59.43L138.8,61.65L140.96,60.2L143.13,58.26L145.3,62.99L147.47,68.26L149.64,63.87L151.81,68.89L153.98,68.39L158.31,53.99L160.48,59.75L162.65,59.12L164.82,63.98L166.99,54.58L169.16,54.32L171.33,59.43L173.49,61.54L175.66,63.8L177.83,62.86L180,62.11L182.17,62.21L184.34,62.89L186.51,66.09L188.67,66.26L190.84,67.52L193.01,67.57L195.18,77.5L197.35,81.5L199.52,80.43L201.69,74.87L203.86,77.25L206.02,72.81L208.19,73.98L212.53,66.7L214.7,74.81L216.87,76.87L219.04,76.69L221.2,77.15L223.37,86.5L225.54,88.6L227.71,89.45L229.88,92.78L232.05,91.06L236.39,94.79L238.55,95.13L240.72,101.35L242.89,97.55L245.06,93.58L247.23,92.84L249.4,91.62L251.57,98.05L255.9,86.94L258.07,87.54L262.41,88.74L264.58,93.33L266.75,89.68L268.92,90.74L271.08,89.89L273.25,94.21L277.59,88.82L279.76,83.88L284.1,86.38L286.27,83.94L288.43,83.77L290.6,80.64L292.77,76.39L294.94,77.79L297.11,75.53L299.28,81.46L303.61,76.26L305.78,80.48L307.95,80.72L310.12,78.11L312.29,77.47L314.46,77.92L316.63,78.81L318.8,77.96L323.13,70.64L325.3,70.6L329.64,67.42L331.81,69.13L333.98,68.68L336.14,66.41L340.48,65.46L342.65,67.32L344.82,69.65L346.99,66.3L349.16,65.76L351.33,64.35L355.66,61.6L357.83,58.83L362.17,50.67L364.34,49.33L366.51,48.42L368.67,43.26L370.84,48.29L373.01,43.8L375.18,41.2L377.35,42.11L379.52,38.84L381.69,37.34L383.86,38.4L386.02,42.41L388.19,44.12L390.36,41.46L392.53,44.71L394.7,40.85L396.87,42.96L399.04,39.55L401.2,38.11L403.37,34.34L405.54,36.48L407.71,37.06L409.88,37.55L412.05,28.38L416.39,31.05L418.55,33.53L420.72,31.59L422.89,37.68L425.06,40.92L427.23,36.22L429.4,40.56L431.57,40.86L433.73,42.73L435.9,41.82L440.24,45.94L442.41,47.84L444.58,41.77L446.75,41.32L448.92,43.56L451.08,43.23L453.25,47.59L455.42,44.01L459.76,47.39L461.93,43.48L464.1,46.5L466.27,44.73L468.43,45.83L470.6,44.38L472.77,46.49L474.94,47.34L477.11,46.81L479.28,47.22L481.45,45.75L483.61,41.62L485.78,40.48L487.95,41.22L492.29,28.59L494.46,31.55L496.63,27.25L498.8,26.81L503.13,18.95L505.3,18.96L507.47,20.75L509.64,17.96L511.81,21.1L513.98,20.48L518.31,22.9L520.48,28.81L522.65,28.04L524.82,25.67L526.99,23.74L529.16,19.16L531.33,18.74L533.49,20.75L535.66,17.93L537.83,16.8L540,14.48" style="vector-effect: non-scaling-stroke; fill: none; stroke: rgb(99, 110, 250); stroke-opacity: 1; stroke-width: 2px; opacity: 1;"/></g><g class="points"/><g class="text"/></g><g class="trace scatter trace914283" style="stroke-miterlimit: 2; opacity: 1;"><g class="fills"/><g class="errorbars"/><g class="lines"><path class="js-line" d="M0,78.41L2.17,81.12L4.34,49.7L6.51,61.5L8.67,54.28L10.84,76.01L13.01,69.61L15.18,87.25L17.35,82.1L19.52,89.86L21.69,73.97L26.02,61.91L28.19,66.88L30.36,66.63L32.53,70.18L34.7,69.73L36.87,65.07L39.04,62.42L41.2,63.95L43.37,53.41L45.54,57.6L47.71,48.8L49.88,59.2L52.05,58.52L54.22,61.1L56.39,64.89L58.55,65.51L62.89,54.04L65.06,47.94L69.4,55.16L71.57,54.23L73.73,54.27L75.9,60.41L78.07,52.65L80.24,62.54L82.41,59.83L84.58,60.9L86.75,49.65L88.92,55.22L91.08,54.74L93.25,51.68L95.42,50.08L97.59,54.09L99.76,48.71L101.93,52.8L104.1,63.83L106.27,62.75L108.43,53L110.6,48.24L112.77,51.34L114.94,58.65L117.11,54.95L119.28,47.51L121.45,47.76L123.61,53.16L125.78,57.05L127.95,58.99L134.46,32.05L136.63,35.3L138.8,32.1L140.96,26.67L143.13,27.88L145.3,26.45L147.47,30.12L149.64,25.92L151.81,21.97L153.98,7.99L158.31,14.4L160.48,9.83L162.65,10.97L164.82,14.7L166.99,16.85L169.16,16.83L171.33,16.84L173.49,22.72L175.66,29.61L177.83,25.04L180,24.4L182.17,27.61L184.34,21.73L186.51,25.77L190.84,29.64L193.01,24.56L195.18,25.61L197.35,21.83L199.52,23.99L201.69,27.86L203.86,33.95L206.02,34.73L208.19,33.53L210.36,37.17L212.53,35.99L214.7,31.43L216.87,32.45L219.04,35.63L221.2,35.04L223.37,39.13L225.54,39.38L227.71,43.25L229.88,41.56L232.05,33.95L234.22,36.99L236.39,35.76L238.55,34.76L240.72,32.71L242.89,27.6L245.06,27.02L249.4,23.14L251.57,20.96L253.73,20.07L255.9,15.23L258.07,20.99L260.24,19.7L262.41,21.76L264.58,27.89L266.75,25.04L268.92,30.68L271.08,26.44L273.25,27.54L275.42,20.32L277.59,26.05L279.76,24.46L281.93,27.92L284.1,24.71L286.27,27.01L288.43,26.84L290.6,32.16L292.77,34.49L294.94,39.76L297.11,37.74L299.28,38.24L301.45,31.54L303.61,37.34L305.78,38.67L307.95,43.23L310.12,43.22L312.29,44.34L314.46,45.38L316.63,49.15L320.96,45.5L323.13,46.58L327.47,48.89L329.64,48.87L331.81,50.2L333.98,49.09L336.14,49.46L338.31,55.18L340.48,52.97L342.65,56.66L344.82,58.02L346.99,57.23L349.16,58.08L351.33,61.3L353.49,57.39L355.66,58.93L357.83,54.34L360,52.18L362.17,46.96L364.34,46.18L366.51,55.65L368.67,58.05L370.84,56.75L373.01,53.43L375.18,55.12L377.35,60.07L379.52,56.87L381.69,57.32L383.86,58.76L386.02,56.9L390.36,59.76L392.53,60.23L394.7,61.32L396.87,66.67L403.37,61.82L405.54,56.51L409.88,55.52L412.05,47.53L416.39,46.11L418.55,49.47L420.72,52.17L422.89,52.56L425.06,53.55L427.23,49.27L429.4,49.73L431.57,53.07L433.73,54.18L435.9,49.69L438.07,50.98L440.24,57.13L442.41,56.06L444.58,53.37L448.92,59.8L451.08,56.96L453.25,58.82L455.42,62.05L457.59,54.7L459.76,54.78L464.1,48.64L466.27,45.18L470.6,48.11L472.77,51.23L474.94,52.04L477.11,54.04L479.28,56.53L481.45,52.91L483.61,53.02L485.78,50.24L487.95,50.09L490.12,51.44L492.29,52.34L494.46,56.03L498.8,52.29L500.96,47.94L503.13,47.48L505.3,50.65L507.47,51.2L509.64,53.64L511.81,52.55L513.98,54.81L518.31,51.85L520.48,52.71L522.65,50.48L524.82,49.48L526.99,46.25L529.16,44.8L531.33,48.92L533.49,49.93L535.66,50.05L537.83,51.63L540,50.99" style="vector-effect: non-scaling-stroke; fill: none; stroke: rgb(239, 85, 59); stroke-opacity: 1; stroke-width: 2px; opacity: 1;"/></g><g class="points"/><g class="text"/></g><g class="trace scatter trace19c0cb" style="stroke-miterlimit: 2; opacity: 1;"><g class="fills"/><g class="errorbars"/><g class="lines"><path class="js-line" d="M0,78.41L2.17,81.12L4.34,49.7L6.51,61.5L8.67,54.28L10.84,76.01L13.01,69.61L15.18,87.25L17.35,82.1L19.52,89.86L21.69,73.97L26.02,61.91L28.19,66.88L30.36,66.63L32.53,70.18L34.7,69.73L36.87,65.07L39.04,62.42L41.2,63.95L43.37,53.41L45.54,57.6L47.71,48.8L49.88,59.2L52.05,58.52L54.22,61.1L56.39,64.89L58.55,65.51L62.89,54.04L65.06,47.94L69.4,55.16L71.57,54.23L73.73,54.27L75.9,60.41L78.07,52.65L80.24,62.54L82.41,59.83L84.58,60.9L86.75,49.65L88.92,55.22L91.08,54.74L93.25,51.68L95.42,50.08L97.59,54.09L99.76,48.71L101.93,52.8L104.1,63.83L106.27,62.75L108.43,53L110.6,48.24L112.77,51.34L114.94,58.65L117.11,54.95L119.28,47.51L121.45,47.76L123.61,53.16L125.78,57.05L127.95,58.99L134.46,32.05L136.63,35.3L138.8,32.1L140.96,26.67L143.13,27.88L145.3,26.45L147.47,30.12L149.64,25.92L151.81,21.97L153.98,7.99L158.31,14.4L160.48,9.83L162.65,10.97L164.82,14.7L166.99,16.85L169.16,16.83L171.33,16.84L173.49,22.72L175.66,29.61L177.83,25.04L180,24.4L182.17,27.61L184.34,21.73L186.51,25.77L190.84,29.64L193.01,24.56L195.18,25.61L197.35,21.83L199.52,23.99L201.69,27.86L203.86,33.95L206.02,34.73L208.19,33.53L210.36,37.17L212.53,35.99L214.7,31.43L216.87,32.45L219.04,35.63L221.2,35.04L223.37,39.13L225.54,39.38L227.71,43.25L229.88,41.56L232.05,33.95L234.22,36.99L236.39,35.76L238.55,34.76L240.72,32.71L242.89,27.6L245.06,27.02L249.4,23.14L251.57,20.96L253.73,20.07L255.9,15.23L258.07,20.99L260.24,19.7L262.41,21.76L264.58,27.89L266.75,25.04L268.92,30.68L271.08,26.44L273.25,27.54L275.42,20.32L277.59,26.05L279.76,24.46L281.93,27.92L284.1,24.71L286.27,27.01L288.43,26.84L290.6,32.16L292.77,34.49L294.94,39.76L297.11,37.74L299.28,38.24L301.45,31.54L303.61,37.34L305.78,38.67L307.95,43.23L310.12,43.22L312.29,44.34L314.46,45.38L316.63,49.15L320.96,45.5L323.13,46.58L327.47,48.89L329.64,48.87L331.81,50.2L333.98,49.09L336.14,49.46L338.31,55.18L340.48,52.97L342.65,56.66L344.82,58.02L346.99,57.23L349.16,58.08L351.33,61.3L353.49,57.39L355.66,58.93L357.83,54.34L360,52.18L362.17,46.96L364.34,46.18L366.51,55.65L368.67,58.05L370.84,56.75L373.01,53.43L375.18,55.12L377.35,60.07L379.52,56.87L381.69,57.32L383.86,58.76L386.02,56.9L390.36,59.76L392.53,60.23L394.7,61.32L396.87,66.67L403.37,61.82L405.54,56.51L409.88,55.52L412.05,47.53L416.39,46.11L418.55,49.47L420.72,52.17L422.89,52.56L425.06,53.55L427.23,49.27L429.4,49.73L431.57,53.07L433.73,54.18L435.9,49.69L438.07,50.98L440.24,57.13L442.41,56.06L444.58,53.37L448.92,59.8L451.08,56.96L453.25,58.82L455.42,62.05L457.59,54.7L459.76,54.78L464.1,48.64L466.27,45.18L470.6,48.11L472.77,51.23L474.94,52.04L477.11,54.04L479.28,56.53L481.45,52.91L483.61,53.02L485.78,50.24L487.95,50.09L490.12,51.44L492.29,52.34L494.46,56.03L498.8,52.29L500.96,47.94L503.13,47.48L505.3,50.65L507.47,51.2L509.64,53.64L511.81,52.55L513.98,54.81L518.31,51.85L520.48,52.71L522.65,50.48L524.82,49.48L526.99,46.25L529.16,44.8L531.33,48.92L533.49,49.93L535.66,50.05L537.83,51.63L540,50.99" style="vector-effect: non-scaling-stroke; fill: none; stroke: rgb(0, 204, 150); stroke-opacity: 1; stroke-width: 2px; opacity: 1;"/></g><g class="points"/><g class="text"/></g><g class="trace scatter tracebd0b19" style="stroke-miterlimit: 2; opacity: 1;"><g class="fills"/><g class="errorbars"/><g class="lines"><path class="js-line" d="M0,78.41L2.17,81.12L4.34,49.7L6.51,61.5L8.67,54.28L10.84,76.01L13.01,69.61L15.18,87.25L17.35,82.1L19.52,89.86L21.69,73.97L26.02,61.91L28.19,66.88L30.36,66.63L32.53,70.18L34.7,69.73L36.87,65.07L39.04,62.42L41.2,63.95L43.37,53.41L45.54,57.6L47.71,48.8L49.88,59.2L52.05,58.52L54.22,61.1L56.39,64.89L58.55,65.51L62.89,54.04L65.06,47.94L69.4,55.16L71.57,54.23L73.73,54.27L75.9,60.41L78.07,52.65L80.24,62.54L82.41,59.83L84.58,60.9L86.75,49.65L88.92,55.22L91.08,54.74L93.25,51.68L95.42,50.08L97.59,54.09L99.76,48.71L101.93,52.8L104.1,63.83L106.27,62.75L108.43,53L110.6,48.24L112.77,51.34L114.94,58.65L117.11,54.95L119.28,47.51L121.45,47.76L123.61,53.16L125.78,57.05L127.95,58.99L134.46,32.05L136.63,35.3L138.8,32.1L140.96,26.67L143.13,27.88L145.3,26.45L147.47,30.12L149.64,25.92L151.81,21.97L153.98,7.99L158.31,14.4L160.48,9.83L162.65,10.97L164.82,14.7L166.99,16.85L169.16,16.83L171.33,16.84L173.49,22.72L175.66,29.61L177.83,25.04L180,24.4L182.17,27.61L184.34,21.73L186.51,25.77L190.84,29.64L193.01,24.56L195.18,25.61L197.35,21.83L199.52,23.99L201.69,27.86L203.86,33.95L206.02,34.73L208.19,33.53L210.36,37.17L212.53,35.99L214.7,31.43L216.87,32.45L219.04,35.63L221.2,35.04L223.37,39.13L225.54,39.38L227.71,43.25L229.88,41.56L232.05,33.95L234.22,36.99L236.39,35.76L238.55,34.76L240.72,32.71L242.89,27.6L245.06,27.02L249.4,23.14L251.57,20.96L253.73,20.07L255.9,15.23L258.07,20.99L260.24,19.7L262.41,21.76L264.58,27.89L266.75,25.04L268.92,30.68L271.08,26.44L273.25,27.54L275.42,20.32L277.59,26.05L279.76,24.46L281.93,27.92L284.1,24.71L286.27,27.01L288.43,26.84L290.6,32.16L292.77,34.49L294.94,39.76L297.11,37.74L299.28,38.24L301.45,31.54L303.61,37.34L305.78,38.67L307.95,43.23L310.12,43.22L312.29,44.34L314.46,45.38L316.63,49.15L320.96,45.5L323.13,46.58L327.47,48.89L329.64,48.87L331.81,50.2L333.98,49.09L336.14,49.46L338.31,55.18L340.48,52.97L342.65,56.66L344.82,58.02L346.99,57.23L349.16,58.08L351.33,61.3L353.49,57.39L355.66,58.93L357.83,54.34L360,52.18L362.17,46.96L364.34,46.18L366.51,55.65L368.67,58.05L370.84,56.75L373.01,53.43L375.18,55.12L377.35,60.07L379.52,56.87L381.69,57.32L383.86,58.76L386.02,56.9L390.36,59.76L392.53,60.23L394.7,61.32L396.87,66.67L403.37,61.82L405.54,56.51L409.88,55.52L412.05,47.53L416.39,46.11L418.55,49.47L420.72,52.17L422.89,52.56L425.06,53.55L427.23,49.27L429.4,49.73L431.57,53.07L433.73,54.18L435.9,49.69L438.07,50.98L440.24,57.13L442.41,56.06L444.58,53.37L448.92,59.8L451.08,56.96L453.25,58.82L455.42,62.05L457.59,54.7L459.76,54.78L464.1,48.64L466.27,45.18L470.6,48.11L472.77,51.23L474.94,52.04L477.11,54.04L479.28,56.53L481.45,52.91L483.61,53.02L485.78,50.24L487.95,50.09L490.12,51.44L492.29,52.34L494.46,56.03L498.8,52.29L500.96,47.94L503.13,47.48L505.3,50.65L507.47,51.2L509.64,53.64L511.81,52.55L513.98,54.81L518.31,51.85L520.48,52.71L522.65,50.48L524.82,49.48L526.99,46.25L529.16,44.8L531.33,48.92L533.49,49.93L535.66,50.05L537.83,51.63L540,50.99" style="vector-effect: non-scaling-stroke; fill: none; stroke: rgb(171, 99, 250); stroke-opacity: 1; stroke-width: 2px; opacity: 1;"/></g><g class="points"/><g class="text"/></g><g class="trace scatter tracec7ff96" style="stroke-miterlimit: 2; opacity: 1;"><g class="fills"/><g class="errorbars"/><g class="lines"><path class="js-line" d="M0,78.41L2.17,81.12L4.34,49.7L6.51,61.5L8.67,54.28L10.84,76.01L13.01,69.61L15.18,87.25L17.35,82.1L19.52,89.86L21.69,73.97L26.02,61.91L28.19,66.88L30.36,66.63L32.53,70.18L34.7,69.73L36.87,65.07L39.04,62.42L41.2,63.95L43.37,53.41L45.54,57.6L47.71,48.8L49.88,59.2L52.05,58.52L54.22,61.1L56.39,64.89L58.55,65.51L62.89,54.04L65.06,47.94L69.4,55.16L71.57,54.23L73.73,54.27L75.9,60.41L78.07,52.65L80.24,62.54L82.41,59.83L84.58,60.9L86.75,49.65L88.92,55.22L91.08,54.74L93.25,51.68L95.42,50.08L97.59,54.09L99.76,48.71L101.93,52.8L104.1,63.83L106.27,62.75L108.43,53L110.6,48.24L112.77,51.34L114.94,58.65L117.11,54.95L119.28,47.51L121.45,47.76L123.61,53.16L125.78,57.05L127.95,58.99L134.46,32.05L136.63,35.3L138.8,32.1L140.96,26.67L143.13,27.88L145.3,26.45L147.47,30.12L149.64,25.92L151.81,21.97L153.98,7.99L158.31,14.4L160.48,9.83L162.65,10.97L164.82,14.7L166.99,16.85L169.16,16.83L171.33,16.84L173.49,22.72L175.66,29.61L177.83,25.04L180,24.4L182.17,27.61L184.34,21.73L186.51,25.77L190.84,29.64L193.01,24.56L195.18,25.61L197.35,21.83L199.52,23.99L201.69,27.86L203.86,33.95L206.02,34.73L208.19,33.53L210.36,37.17L212.53,35.99L214.7,31.43L216.87,32.45L219.04,35.63L221.2,35.04L223.37,39.13L225.54,39.38L227.71,43.25L229.88,41.56L232.05,33.95L234.22,36.99L236.39,35.76L238.55,34.76L240.72,32.71L242.89,27.6L245.06,27.02L249.4,23.14L251.57,20.96L253.73,20.07L255.9,15.23L258.07,20.99L260.24,19.7L262.41,21.76L264.58,27.89L266.75,25.04L268.92,30.68L271.08,26.44L273.25,27.54L275.42,20.32L277.59,26.05L279.76,24.46L281.93,27.92L284.1,24.71L286.27,27.01L288.43,26.84L290.6,32.16L292.77,34.49L294.94,39.76L297.11,37.74L299.28,38.24L301.45,31.54L303.61,37.34L305.78,38.67L307.95,43.23L310.12,43.22L312.29,44.34L314.46,45.38L316.63,49.15L320.96,45.5L323.13,46.58L327.47,48.89L329.64,48.87L331.81,50.2L333.98,49.09L336.14,49.46L338.31,55.18L340.48,52.97L342.65,56.66L344.82,58.02L346.99,57.23L349.16,58.08L351.33,61.3L353.49,57.39L355.66,58.93L357.83,54.34L360,52.18L362.17,46.96L364.34,46.18L366.51,55.65L368.67,58.05L370.84,56.75L373.01,53.43L375.18,55.12L377.35,60.07L379.52,56.87L381.69,57.32L383.86,58.76L386.02,56.9L390.36,59.76L392.53,60.23L394.7,61.32L396.87,66.67L403.37,61.82L405.54,56.51L409.88,55.52L412.05,47.53L416.39,46.11L418.55,49.47L420.72,52.17L422.89,52.56L425.06,53.55L427.23,49.27L429.4,49.73L431.57,53.07L433.73,54.18L435.9,49.69L438.07,50.98L440.24,57.13L442.41,56.06L444.58,53.37L448.92,59.8L451.08,56.96L453.25,58.82L455.42,62.05L457.59,54.7L459.76,54.78L464.1,48.64L466.27,45.18L470.6,48.11L472.77,51.23L474.94,52.04L477.11,54.04L479.28,56.53L481.45,52.91L483.61,53.02L485.78,50.24L487.95,50.09L490.12,51.44L492.29,52.34L494.46,56.03L498.8,52.29L500.96,47.94L503.13,47.48L505.3,50.65L507.47,51.2L509.64,53.64L511.81,52.55L513.98,54.81L518.31,51.85L520.48,52.71L522.65,50.48L524.82,49.48L526.99,46.25L529.16,44.8L531.33,48.92L533.49,49.93L535.66,50.05L537.83,51.63L540,50.99" style="vector-effect: non-scaling-stroke; fill: none; stroke: rgb(255, 161, 90); stroke-opacity: 1; stroke-width: 2px; opacity: 1;"/></g><g class="points"/><g class="text"/></g><g class="trace scatter trace6b6ec3" style="stroke-miterlimit: 2; opacity: 1;"><g class="fills"/><g class="errorbars"/><g class="lines"><path class="js-line" d="M0,78.41L2.17,81.12L4.34,49.7L6.51,61.5L8.67,54.28L10.84,76.01L13.01,69.61L15.18,87.25L17.35,82.1L19.52,89.86L21.69,73.97L26.02,61.91L28.19,66.88L30.36,66.63L32.53,70.18L34.7,69.73L36.87,65.07L39.04,62.42L41.2,63.95L43.37,53.41L45.54,57.6L47.71,48.8L49.88,59.2L52.05,58.52L54.22,61.1L56.39,64.89L58.55,65.51L62.89,54.04L65.06,47.94L69.4,55.16L71.57,54.23L73.73,54.27L75.9,60.41L78.07,52.65L80.24,62.54L82.41,59.83L84.58,60.9L86.75,49.65L88.92,55.22L91.08,54.74L93.25,51.68L95.42,50.08L97.59,54.09L99.76,48.71L101.93,52.8L104.1,63.83L106.27,62.75L108.43,53L110.6,48.24L112.77,51.34L114.94,58.65L117.11,54.95L119.28,47.51L121.45,47.76L123.61,53.16L125.78,57.05L127.95,58.99L134.46,32.05L136.63,35.3L138.8,32.1L140.96,26.67L143.13,27.88L145.3,26.45L147.47,30.12L149.64,25.92L151.81,21.97L153.98,7.99L158.31,14.4L160.48,9.83L162.65,10.97L164.82,14.7L166.99,16.85L169.16,16.83L171.33,16.84L173.49,22.72L175.66,29.61L177.83,25.04L180,24.4L182.17,27.61L184.34,21.73L186.51,25.77L190.84,29.64L193.01,24.56L195.18,25.61L197.35,21.83L199.52,23.99L201.69,27.86L203.86,33.95L206.02,34.73L208.19,33.53L210.36,37.17L212.53,35.99L214.7,31.43L216.87,32.45L219.04,35.63L221.2,35.04L223.37,39.13L225.54,39.38L227.71,43.25L229.88,41.56L232.05,33.95L234.22,36.99L236.39,35.76L238.55,34.76L240.72,32.71L242.89,27.6L245.06,27.02L249.4,23.14L251.57,20.96L253.73,20.07L255.9,15.23L258.07,20.99L260.24,19.7L262.41,21.76L264.58,27.89L266.75,25.04L268.92,30.68L271.08,26.44L273.25,27.54L275.42,20.32L277.59,26.05L279.76,24.46L281.93,27.92L284.1,24.71L286.27,27.01L288.43,26.84L290.6,32.16L292.77,34.49L294.94,39.76L297.11,37.74L299.28,38.24L301.45,31.54L303.61,37.34L305.78,38.67L307.95,43.23L310.12,43.22L312.29,44.34L314.46,45.38L316.63,49.15L320.96,45.5L323.13,46.58L327.47,48.89L329.64,48.87L331.81,50.2L333.98,49.09L336.14,49.46L338.31,55.18L340.48,52.97L342.65,56.66L344.82,58.02L346.99,57.23L349.16,58.08L351.33,61.3L353.49,57.39L355.66,58.93L357.83,54.34L360,52.18L362.17,46.96L364.34,46.18L366.51,55.65L368.67,58.05L370.84,56.75L373.01,53.43L375.18,55.12L377.35,60.07L379.52,56.87L381.69,57.32L383.86,58.76L386.02,56.9L390.36,59.76L392.53,60.23L394.7,61.32L396.87,66.67L403.37,61.82L405.54,56.51L409.88,55.52L412.05,47.53L416.39,46.11L418.55,49.47L420.72,52.17L422.89,52.56L425.06,53.55L427.23,49.27L429.4,49.73L431.57,53.07L433.73,54.18L435.9,49.69L438.07,50.98L440.24,57.13L442.41,56.06L444.58,53.37L448.92,59.8L451.08,56.96L453.25,58.82L455.42,62.05L457.59,54.7L459.76,54.78L464.1,48.64L466.27,45.18L470.6,48.11L472.77,51.23L474.94,52.04L477.11,54.04L479.28,56.53L481.45,52.91L483.61,53.02L485.78,50.24L487.95,50.09L490.12,51.44L492.29,52.34L494.46,56.03L498.8,52.29L500.96,47.94L503.13,47.48L505.3,50.65L507.47,51.2L509.64,53.64L511.81,52.55L513.98,54.81L518.31,51.85L520.48,52.71L522.65,50.48L524.82,49.48L526.99,46.25L529.16,44.8L531.33,48.92L533.49,49.93L535.66,50.05L537.83,51.63L540,50.99" style="vector-effect: non-scaling-stroke; fill: none; stroke: rgb(25, 211, 243); stroke-opacity: 1; stroke-width: 2px; opacity: 1;"/></g><g class="points"/><g class="text"/></g><g class="trace scatter trace8f6ddb" style="stroke-miterlimit: 2; opacity: 1;"><g class="fills"/><g class="errorbars"/><g class="lines"><path class="js-line" d="M0,78.41L2.17,81.12L4.34,49.7L6.51,61.5L8.67,54.28L10.84,76.01L13.01,69.61L15.18,87.25L17.35,82.1L19.52,89.86L21.69,73.97L26.02,61.91L28.19,66.88L30.36,66.63L32.53,70.18L34.7,69.73L36.87,65.07L39.04,62.42L41.2,63.95L43.37,53.41L45.54,57.6L47.71,48.8L49.88,59.2L52.05,58.52L54.22,61.1L56.39,64.89L58.55,65.51L62.89,54.04L65.06,47.94L69.4,55.16L71.57,54.23L73.73,54.27L75.9,60.41L78.07,52.65L80.24,62.54L82.41,59.83L84.58,60.9L86.75,49.65L88.92,55.22L91.08,54.74L93.25,51.68L95.42,50.08L97.59,54.09L99.76,48.71L101.93,52.8L104.1,63.83L106.27,62.75L108.43,53L110.6,48.24L112.77,51.34L114.94,58.65L117.11,54.95L119.28,47.51L121.45,47.76L123.61,53.16L125.78,57.05L127.95,58.99L134.46,32.05L136.63,35.3L138.8,32.1L140.96,26.67L143.13,27.88L145.3,26.45L147.47,30.12L149.64,25.92L151.81,21.97L153.98,7.99L158.31,14.4L160.48,9.83L162.65,10.97L164.82,14.7L166.99,16.85L169.16,16.83L171.33,16.84L173.49,22.72L175.66,29.61L177.83,25.04L180,24.4L182.17,27.61L184.34,21.73L186.51,25.77L190.84,29.64L193.01,24.56L195.18,25.61L197.35,21.83L199.52,23.99L201.69,27.86L203.86,33.95L206.02,34.73L208.19,33.53L210.36,37.17L212.53,35.99L214.7,31.43L216.87,32.45L219.04,35.63L221.2,35.04L223.37,39.13L225.54,39.38L227.71,43.25L229.88,41.56L232.05,33.95L234.22,36.99L236.39,35.76L238.55,34.76L240.72,32.71L242.89,27.6L245.06,27.02L249.4,23.14L251.57,20.96L253.73,20.07L255.9,15.23L258.07,20.99L260.24,19.7L262.41,21.76L264.58,27.89L266.75,25.04L268.92,30.68L271.08,26.44L273.25,27.54L275.42,20.32L277.59,26.05L279.76,24.46L281.93,27.92L284.1,24.71L286.27,27.01L288.43,26.84L290.6,32.16L292.77,34.49L294.94,39.76L297.11,37.74L299.28,38.24L301.45,31.54L303.61,37.34L305.78,38.67L307.95,43.23L310.12,43.22L312.29,44.34L314.46,45.38L316.63,49.15L320.96,45.5L323.13,46.58L327.47,48.89L329.64,48.87L331.81,50.2L333.98,49.09L336.14,49.46L338.31,55.18L340.48,52.97L342.65,56.66L344.82,58.02L346.99,57.23L349.16,58.08L351.33,61.3L353.49,57.39L355.66,58.93L357.83,54.34L360,52.18L362.17,46.96L364.34,46.18L366.51,55.65L368.67,58.05L370.84,56.75L373.01,53.43L375.18,55.12L377.35,60.07L379.52,56.87L381.69,57.32L383.86,58.76L386.02,56.9L390.36,59.76L392.53,60.23L394.7,61.32L396.87,66.67L403.37,61.82L405.54,56.51L409.88,55.52L412.05,47.53L416.39,46.11L418.55,49.47L420.72,52.17L422.89,52.56L425.06,53.55L427.23,49.27L429.4,49.73L431.57,53.07L433.73,54.18L435.9,49.69L438.07,50.98L440.24,57.13L442.41,56.06L444.58,53.37L448.92,59.8L451.08,56.96L453.25,58.82L455.42,62.05L457.59,54.7L459.76,54.78L464.1,48.64L466.27,45.18L470.6,48.11L472.77,51.23L474.94,52.04L477.11,54.04L479.28,56.53L481.45,52.91L483.61,53.02L485.78,50.24L487.95,50.09L490.12,51.44L492.29,52.34L494.46,56.03L498.8,52.29L500.96,47.94L503.13,47.48L505.3,50.65L507.47,51.2L509.64,53.64L511.81,52.55L513.98,54.81L518.31,51.85L520.48,52.71L522.65,50.48L524.82,49.48L526.99,46.25L529.16,44.8L531.33,48.92L533.49,49.93L535.66,50.05L537.83,51.63L540,50.99" style="vector-effect: non-scaling-stroke; fill: none; stroke: rgb(255, 102, 146); stroke-opacity: 1; stroke-width: 2px; opacity: 1;"/></g><g class="points"/><g class="text"/></g><g class="trace scatter trace6d663a" style="stroke-miterlimit: 2; opacity: 1;"><g class="fills"/><g class="errorbars"/><g class="lines"><path class="js-line" d="M0,78.41L2.17,81.12L4.34,49.7L6.51,61.5L8.67,54.28L10.84,76.01L13.01,69.61L15.18,87.25L17.35,82.1L19.52,89.86L21.69,73.97L26.02,61.91L28.19,66.88L30.36,66.63L32.53,70.18L34.7,69.73L36.87,65.07L39.04,62.42L41.2,63.95L43.37,53.41L45.54,57.6L47.71,48.8L49.88,59.2L52.05,58.52L54.22,61.1L56.39,64.89L58.55,65.51L62.89,54.04L65.06,47.94L69.4,55.16L71.57,54.23L73.73,54.27L75.9,60.41L78.07,52.65L80.24,62.54L82.41,59.83L84.58,60.9L86.75,49.65L88.92,55.22L91.08,54.74L93.25,51.68L95.42,50.08L97.59,54.09L99.76,48.71L101.93,52.8L104.1,63.83L106.27,62.75L108.43,53L110.6,48.24L112.77,51.34L114.94,58.65L117.11,54.95L119.28,47.51L121.45,47.76L123.61,53.16L125.78,57.05L127.95,58.99L134.46,32.05L136.63,35.3L138.8,32.1L140.96,26.67L143.13,27.88L145.3,26.45L147.47,30.12L149.64,25.92L151.81,21.97L153.98,7.99L158.31,14.4L160.48,9.83L162.65,10.97L164.82,14.7L166.99,16.85L169.16,16.83L171.33,16.84L173.49,22.72L175.66,29.61L177.83,25.04L180,24.4L182.17,27.61L184.34,21.73L186.51,25.77L190.84,29.64L193.01,24.56L195.18,25.61L197.35,21.83L199.52,23.99L201.69,27.86L203.86,33.95L206.02,34.73L208.19,33.53L210.36,37.17L212.53,35.99L214.7,31.43L216.87,32.45L219.04,35.63L221.2,35.04L223.37,39.13L225.54,39.38L227.71,43.25L229.88,41.56L232.05,33.95L234.22,36.99L236.39,35.76L238.55,34.76L240.72,32.71L242.89,27.6L245.06,27.02L249.4,23.14L251.57,20.96L253.73,20.07L255.9,15.23L258.07,20.99L260.24,19.7L262.41,21.76L264.58,27.89L266.75,25.04L268.92,30.68L271.08,26.44L273.25,27.54L275.42,20.32L277.59,26.05L279.76,24.46L281.93,27.92L284.1,24.71L286.27,27.01L288.43,26.84L290.6,32.16L292.77,34.49L294.94,39.76L297.11,37.74L299.28,38.24L301.45,31.54L303.61,37.34L305.78,38.67L307.95,43.23L310.12,43.22L312.29,44.34L314.46,45.38L316.63,49.15L320.96,45.5L323.13,46.58L327.47,48.89L329.64,48.87L331.81,50.2L333.98,49.09L336.14,49.46L338.31,55.18L340.48,52.97L342.65,56.66L344.82,58.02L346.99,57.23L349.16,58.08L351.33,61.3L353.49,57.39L355.66,58.93L357.83,54.34L360,52.18L362.17,46.96L364.34,46.18L366.51,55.65L368.67,58.05L370.84,56.75L373.01,53.43L375.18,55.12L377.35,60.07L379.52,56.87L381.69,57.32L383.86,58.76L386.02,56.9L390.36,59.76L392.53,60.23L394.7,61.32L396.87,66.67L403.37,61.82L405.54,56.51L409.88,55.52L412.05,47.53L416.39,46.11L418.55,49.47L420.72,52.17L422.89,52.56L425.06,53.55L427.23,49.27L429.4,49.73L431.57,53.07L433.73,54.18L435.9,49.69L438.07,50.98L440.24,57.13L442.41,56.06L444.58,53.37L448.92,59.8L451.08,56.96L453.25,58.82L455.42,62.05L457.59,54.7L459.76,54.78L464.1,48.64L466.27,45.18L470.6,48.11L472.77,51.23L474.94,52.04L477.11,54.04L479.28,56.53L481.45,52.91L483.61,53.02L485.78,50.24L487.95,50.09L490.12,51.44L492.29,52.34L494.46,56.03L498.8,52.29L500.96,47.94L503.13,47.48L505.3,50.65L507.47,51.2L509.64,53.64L511.81,52.55L513.98,54.81L518.31,51.85L520.48,52.71L522.65,50.48L524.82,49.48L526.99,46.25L529.16,44.8L531.33,48.92L533.49,49.93L535.66,50.05L537.83,51.63L540,50.99" style="vector-effect: non-scaling-stroke; fill: none; stroke: rgb(182, 232, 128); stroke-opacity: 1; stroke-width: 2px; opacity: 1;"/></g><g class="points"/><g class="text"/></g><g class="trace scatter traced8ac92" style="stroke-miterlimit: 2; opacity: 1;"><g class="fills"/><g class="errorbars"/><g class="lines"><path class="js-line" d="M0,78.41L2.17,81.12L4.34,49.7L6.51,61.5L8.67,54.28L10.84,76.01L13.01,69.61L15.18,87.25L17.35,82.1L19.52,89.86L21.69,73.97L26.02,61.91L28.19,66.88L30.36,66.63L32.53,70.18L34.7,69.73L36.87,65.07L39.04,62.42L41.2,63.95L43.37,53.41L45.54,57.6L47.71,48.8L49.88,59.2L52.05,58.52L54.22,61.1L56.39,64.89L58.55,65.51L62.89,54.04L65.06,47.94L69.4,55.16L71.57,54.23L73.73,54.27L75.9,60.41L78.07,52.65L80.24,62.54L82.41,59.83L84.58,60.9L86.75,49.65L88.92,55.22L91.08,54.74L93.25,51.68L95.42,50.08L97.59,54.09L99.76,48.71L101.93,52.8L104.1,63.83L106.27,62.75L108.43,53L110.6,48.24L112.77,51.34L114.94,58.65L117.11,54.95L119.28,47.51L121.45,47.76L123.61,53.16L125.78,57.05L127.95,58.99L134.46,32.05L136.63,35.3L138.8,32.1L140.96,26.67L143.13,27.88L145.3,26.45L147.47,30.12L149.64,25.92L151.81,21.97L153.98,7.99L158.31,14.4L160.48,9.83L162.65,10.97L164.82,14.7L166.99,16.85L169.16,16.83L171.33,16.84L173.49,22.72L175.66,29.61L177.83,25.04L180,24.4L182.17,27.61L184.34,21.73L186.51,25.77L190.84,29.64L193.01,24.56L195.18,25.61L197.35,21.83L199.52,23.99L201.69,27.86L203.86,33.95L206.02,34.73L208.19,33.53L210.36,37.17L212.53,35.99L214.7,31.43L216.87,32.45L219.04,35.63L221.2,35.04L223.37,39.13L225.54,39.38L227.71,43.25L229.88,41.56L232.05,33.95L234.22,36.99L236.39,35.76L238.55,34.76L240.72,32.71L242.89,27.6L245.06,27.02L249.4,23.14L251.57,20.96L253.73,20.07L255.9,15.23L258.07,20.99L260.24,19.7L262.41,21.76L264.58,27.89L266.75,25.04L268.92,30.68L271.08,26.44L273.25,27.54L275.42,20.32L277.59,26.05L279.76,24.46L281.93,27.92L284.1,24.71L286.27,27.01L288.43,26.84L290.6,32.16L292.77,34.49L294.94,39.76L297.11,37.74L299.28,38.24L301.45,31.54L303.61,37.34L305.78,38.67L307.95,43.23L310.12,43.22L312.29,44.34L314.46,45.38L316.63,49.15L320.96,45.5L323.13,46.58L327.47,48.89L329.64,48.87L331.81,50.2L333.98,49.09L336.14,49.46L338.31,55.18L340.48,52.97L342.65,56.66L344.82,58.02L346.99,57.23L349.16,58.08L351.33,61.3L353.49,57.39L355.66,58.93L357.83,54.34L360,52.18L362.17,46.96L364.34,46.18L366.51,55.65L368.67,58.05L370.84,56.75L373.01,53.43L375.18,55.12L377.35,60.07L379.52,56.87L381.69,57.32L383.86,58.76L386.02,56.9L390.36,59.76L392.53,60.23L394.7,61.32L396.87,66.67L403.37,61.82L405.54,56.51L409.88,55.52L412.05,47.53L416.39,46.11L418.55,49.47L420.72,52.17L422.89,52.56L425.06,53.55L427.23,49.27L429.4,49.73L431.57,53.07L433.73,54.18L435.9,49.69L438.07,50.98L440.24,57.13L442.41,56.06L444.58,53.37L448.92,59.8L451.08,56.96L453.25,58.82L455.42,62.05L457.59,54.7L459.76,54.78L464.1,48.64L466.27,45.18L470.6,48.11L472.77,51.23L474.94,52.04L477.11,54.04L479.28,56.53L481.45,52.91L483.61,53.02L485.78,50.24L487.95,50.09L490.12,51.44L492.29,52.34L494.46,56.03L498.8,52.29L500.96,47.94L503.13,47.48L505.3,50.65L507.47,51.2L509.64,53.64L511.81,52.55L513.98,54.81L518.31,51.85L520.48,52.71L522.65,50.48L524.82,49.48L526.99,46.25L529.16,44.8L531.33,48.92L533.49,49.93L535.66,50.05L537.83,51.63L540,50.99" style="vector-effect: non-scaling-stroke; fill: none; stroke: rgb(255, 151, 255); stroke-opacity: 1; stroke-width: 2px; opacity: 1;"/></g><g class="points"/><g class="text"/></g><g class="trace scatter tracea2dd18" style="stroke-miterlimit: 2; opacity: 1;"><g class="fills"/><g class="errorbars"/><g class="lines"><path class="js-line" d="M0,78.41L2.17,81.12L4.34,49.7L6.51,61.5L8.67,54.28L10.84,76.01L13.01,69.61L15.18,87.25L17.35,82.1L19.52,89.86L21.69,73.97L26.02,61.91L28.19,66.88L30.36,66.63L32.53,70.18L34.7,69.73L36.87,65.07L39.04,62.42L41.2,63.95L43.37,53.41L45.54,57.6L47.71,48.8L49.88,59.2L52.05,58.52L54.22,61.1L56.39,64.89L58.55,65.51L62.89,54.04L65.06,47.94L69.4,55.16L71.57,54.23L73.73,54.27L75.9,60.41L78.07,52.65L80.24,62.54L82.41,59.83L84.58,60.9L86.75,49.65L88.92,55.22L91.08,54.74L93.25,51.68L95.42,50.08L97.59,54.09L99.76,48.71L101.93,52.8L104.1,63.83L106.27,62.75L108.43,53L110.6,48.24L112.77,51.34L114.94,58.65L117.11,54.95L119.28,47.51L121.45,47.76L123.61,53.16L125.78,57.05L127.95,58.99L134.46,32.05L136.63,35.3L138.8,32.1L140.96,26.67L143.13,27.88L145.3,26.45L147.47,30.12L149.64,25.92L151.81,21.97L153.98,7.99L158.31,14.4L160.48,9.83L162.65,10.97L164.82,14.7L166.99,16.85L169.16,16.83L171.33,16.84L173.49,22.72L175.66,29.61L177.83,25.04L180,24.4L182.17,27.61L184.34,21.73L186.51,25.77L190.84,29.64L193.01,24.56L195.18,25.61L197.35,21.83L199.52,23.99L201.69,27.86L203.86,33.95L206.02,34.73L208.19,33.53L210.36,37.17L212.53,35.99L214.7,31.43L216.87,32.45L219.04,35.63L221.2,35.04L223.37,39.13L225.54,39.38L227.71,43.25L229.88,41.56L232.05,33.95L234.22,36.99L236.39,35.76L238.55,34.76L240.72,32.71L242.89,27.6L245.06,27.02L249.4,23.14L251.57,20.96L253.73,20.07L255.9,15.23L258.07,20.99L260.24,19.7L262.41,21.76L264.58,27.89L266.75,25.04L268.92,30.68L271.08,26.44L273.25,27.54L275.42,20.32L277.59,26.05L279.76,24.46L281.93,27.92L284.1,24.71L286.27,27.01L288.43,26.84L290.6,32.16L292.77,34.49L294.94,39.76L297.11,37.74L299.28,38.24L301.45,31.54L303.61,37.34L305.78,38.67L307.95,43.23L310.12,43.22L312.29,44.34L314.46,45.38L316.63,49.15L320.96,45.5L323.13,46.58L327.47,48.89L329.64,48.87L331.81,50.2L333.98,49.09L336.14,49.46L338.31,55.18L340.48,52.97L342.65,56.66L344.82,58.02L346.99,57.23L349.16,58.08L351.33,61.3L353.49,57.39L355.66,58.93L357.83,54.34L360,52.18L362.17,46.96L364.34,46.18L366.51,55.65L368.67,58.05L370.84,56.75L373.01,53.43L375.18,55.12L377.35,60.07L379.52,56.87L381.69,57.32L383.86,58.76L386.02,56.9L390.36,59.76L392.53,60.23L394.7,61.32L396.87,66.67L403.37,61.82L405.54,56.51L409.88,55.52L412.05,47.53L416.39,46.11L418.55,49.47L420.72,52.17L422.89,52.56L425.06,53.55L427.23,49.27L429.4,49.73L431.57,53.07L433.73,54.18L435.9,49.69L438.07,50.98L440.24,57.13L442.41,56.06L444.58,53.37L448.92,59.8L451.08,56.96L453.25,58.82L455.42,62.05L457.59,54.7L459.76,54.78L464.1,48.64L466.27,45.18L470.6,48.11L472.77,51.23L474.94,52.04L477.11,54.04L479.28,56.53L481.45,52.91L483.61,53.02L485.78,50.24L487.95,50.09L490.12,51.44L492.29,52.34L494.46,56.03L498.8,52.29L500.96,47.94L503.13,47.48L505.3,50.65L507.47,51.2L509.64,53.64L511.81,52.55L513.98,54.81L518.31,51.85L520.48,52.71L522.65,50.48L524.82,49.48L526.99,46.25L529.16,44.8L531.33,48.92L533.49,49.93L535.66,50.05L537.83,51.63L540,50.99" style="vector-effect: non-scaling-stroke; fill: none; stroke: rgb(254, 203, 82); stroke-opacity: 1; stroke-width: 2px; opacity: 1;"/></g><g class="points"/><g class="text"/></g><g class="trace scatter tracecb9f9a" style="stroke-miterlimit: 2; opacity: 1;"><g class="fills"/><g class="errorbars"/><g class="lines"><path class="js-line" d="M0,78.41L2.17,81.12L4.34,49.7L6.51,61.5L8.67,54.28L10.84,76.01L13.01,69.61L15.18,87.25L17.35,82.1L19.52,89.86L21.69,73.97L26.02,61.91L28.19,66.88L30.36,66.63L32.53,70.18L34.7,69.73L36.87,65.07L39.04,62.42L41.2,63.95L43.37,53.41L45.54,57.6L47.71,48.8L49.88,59.2L52.05,58.52L54.22,61.1L56.39,64.89L58.55,65.51L62.89,54.04L65.06,47.94L69.4,55.16L71.57,54.23L73.73,54.27L75.9,60.41L78.07,52.65L80.24,62.54L82.41,59.83L84.58,60.9L86.75,49.65L88.92,55.22L91.08,54.74L93.25,51.68L95.42,50.08L97.59,54.09L99.76,48.71L101.93,52.8L104.1,63.83L106.27,62.75L108.43,53L110.6,48.24L112.77,51.34L114.94,58.65L117.11,54.95L119.28,47.51L121.45,47.76L123.61,53.16L125.78,57.05L127.95,58.99L134.46,32.05L136.63,35.3L138.8,32.1L140.96,26.67L143.13,27.88L145.3,26.45L147.47,30.12L149.64,25.92L151.81,21.97L153.98,7.99L158.31,14.4L160.48,9.83L162.65,10.97L164.82,14.7L166.99,16.85L169.16,16.83L171.33,16.84L173.49,22.72L175.66,29.61L177.83,25.04L180,24.4L182.17,27.61L184.34,21.73L186.51,25.77L190.84,29.64L193.01,24.56L195.18,25.61L197.35,21.83L199.52,23.99L201.69,27.86L203.86,33.95L206.02,34.73L208.19,33.53L210.36,37.17L212.53,35.99L214.7,31.43L216.87,32.45L219.04,35.63L221.2,35.04L223.37,39.13L225.54,39.38L227.71,43.25L229.88,41.56L232.05,33.95L234.22,36.99L236.39,35.76L238.55,34.76L240.72,32.71L242.89,27.6L245.06,27.02L249.4,23.14L251.57,20.96L253.73,20.07L255.9,15.23L258.07,20.99L260.24,19.7L262.41,21.76L264.58,27.89L266.75,25.04L268.92,30.68L271.08,26.44L273.25,27.54L275.42,20.32L277.59,26.05L279.76,24.46L281.93,27.92L284.1,24.71L286.27,27.01L288.43,26.84L290.6,32.16L292.77,34.49L294.94,39.76L297.11,37.74L299.28,38.24L301.45,31.54L303.61,37.34L305.78,38.67L307.95,43.23L310.12,43.22L312.29,44.34L314.46,45.38L316.63,49.15L320.96,45.5L323.13,46.58L327.47,48.89L329.64,48.87L331.81,50.2L333.98,49.09L336.14,49.46L338.31,55.18L340.48,52.97L342.65,56.66L344.82,58.02L346.99,57.23L349.16,58.08L351.33,61.3L353.49,57.39L355.66,58.93L357.83,54.34L360,52.18L362.17,46.96L364.34,46.18L366.51,55.65L368.67,58.05L370.84,56.75L373.01,53.43L375.18,55.12L377.35,60.07L379.52,56.87L381.69,57.32L383.86,58.76L386.02,56.9L390.36,59.76L392.53,60.23L394.7,61.32L396.87,66.67L403.37,61.82L405.54,56.51L409.88,55.52L412.05,47.53L416.39,46.11L418.55,49.47L420.72,52.17L422.89,52.56L425.06,53.55L427.23,49.27L429.4,49.73L431.57,53.07L433.73,54.18L435.9,49.69L438.07,50.98L440.24,57.13L442.41,56.06L444.58,53.37L448.92,59.8L451.08,56.96L453.25,58.82L455.42,62.05L457.59,54.7L459.76,54.78L464.1,48.64L466.27,45.18L470.6,48.11L472.77,51.23L474.94,52.04L477.11,54.04L479.28,56.53L481.45,52.91L483.61,53.02L485.78,50.24L487.95,50.09L490.12,51.44L492.29,52.34L494.46,56.03L498.8,52.29L500.96,47.94L503.13,47.48L505.3,50.65L507.47,51.2L509.64,53.64L511.81,52.55L513.98,54.81L518.31,51.85L520.48,52.71L522.65,50.48L524.82,49.48L526.99,46.25L529.16,44.8L531.33,48.92L533.49,49.93L535.66,50.05L537.83,51.63L540,50.99" style="vector-effect: non-scaling-stroke; fill: none; stroke: rgb(99, 110, 250); stroke-opacity: 1; stroke-width: 2px; opacity: 1;"/></g><g class="points"/><g class="text"/></g><g class="trace scatter trace0d6150" style="stroke-miterlimit: 2; opacity: 1;"><g class="fills"/><g class="errorbars"/><g class="lines"><path class="js-line" d="M0,78.41L2.17,81.12L4.34,49.7L6.51,61.5L8.67,54.28L10.84,76.01L13.01,69.61L15.18,87.25L17.35,82.1L19.52,89.86L21.69,73.97L26.02,61.91L28.19,66.88L30.36,66.63L32.53,70.18L34.7,69.73L36.87,65.07L39.04,62.42L41.2,63.95L43.37,53.41L45.54,57.6L47.71,48.8L49.88,59.2L52.05,58.52L54.22,61.1L56.39,64.89L58.55,65.51L62.89,54.04L65.06,47.94L69.4,55.16L71.57,54.23L73.73,54.27L75.9,60.41L78.07,52.65L80.24,62.54L82.41,59.83L84.58,60.9L86.75,49.65L88.92,55.22L91.08,54.74L93.25,51.68L95.42,50.08L97.59,54.09L99.76,48.71L101.93,52.8L104.1,63.83L106.27,62.75L108.43,53L110.6,48.24L112.77,51.34L114.94,58.65L117.11,54.95L119.28,47.51L121.45,47.76L123.61,53.16L125.78,57.05L127.95,58.99L134.46,32.05L136.63,35.3L138.8,32.1L140.96,26.67L143.13,27.88L145.3,26.45L147.47,30.12L149.64,25.92L151.81,21.97L153.98,7.99L158.31,14.4L160.48,9.83L162.65,10.97L164.82,14.7L166.99,16.85L169.16,16.83L171.33,16.84L173.49,22.72L175.66,29.61L177.83,25.04L180,24.4L182.17,27.61L184.34,21.73L186.51,25.77L190.84,29.64L193.01,24.56L195.18,25.61L197.35,21.83L199.52,23.99L201.69,27.86L203.86,33.95L206.02,34.73L208.19,33.53L210.36,37.17L212.53,35.99L214.7,31.43L216.87,32.45L219.04,35.63L221.2,35.04L223.37,39.13L225.54,39.38L227.71,43.25L229.88,41.56L232.05,33.95L234.22,36.99L236.39,35.76L238.55,34.76L240.72,32.71L242.89,27.6L245.06,27.02L249.4,23.14L251.57,20.96L253.73,20.07L255.9,15.23L258.07,20.99L260.24,19.7L262.41,21.76L264.58,27.89L266.75,25.04L268.92,30.68L271.08,26.44L273.25,27.54L275.42,20.32L277.59,26.05L279.76,24.46L281.93,27.92L284.1,24.71L286.27,27.01L288.43,26.84L290.6,32.16L292.77,34.49L294.94,39.76L297.11,37.74L299.28,38.24L301.45,31.54L303.61,37.34L305.78,38.67L307.95,43.23L310.12,43.22L312.29,44.34L314.46,45.38L316.63,49.15L320.96,45.5L323.13,46.58L327.47,48.89L329.64,48.87L331.81,50.2L333.98,49.09L336.14,49.46L338.31,55.18L340.48,52.97L342.65,56.66L344.82,58.02L346.99,57.23L349.16,58.08L351.33,61.3L353.49,57.39L355.66,58.93L357.83,54.34L360,52.18L362.17,46.96L364.34,46.18L366.51,55.65L368.67,58.05L370.84,56.75L373.01,53.43L375.18,55.12L377.35,60.07L379.52,56.87L381.69,57.32L383.86,58.76L386.02,56.9L390.36,59.76L392.53,60.23L394.7,61.32L396.87,66.67L403.37,61.82L405.54,56.51L409.88,55.52L412.05,47.53L416.39,46.11L418.55,49.47L420.72,52.17L422.89,52.56L425.06,53.55L427.23,49.27L429.4,49.73L431.57,53.07L433.73,54.18L435.9,49.69L438.07,50.98L440.24,57.13L442.41,56.06L444.58,53.37L448.92,59.8L451.08,56.96L453.25,58.82L455.42,62.05L457.59,54.7L459.76,54.78L464.1,48.64L466.27,45.18L470.6,48.11L472.77,51.23L474.94,52.04L477.11,54.04L479.28,56.53L481.45,52.91L483.61,53.02L485.78,50.24L487.95,50.09L490.12,51.44L492.29,52.34L494.46,56.03L498.8,52.29L500.96,47.94L503.13,47.48L505.3,50.65L507.47,51.2L509.64,53.64L511.81,52.55L513.98,54.81L518.31,51.85L520.48,52.71L522.65,50.48L524.82,49.48L526.99,46.25L529.16,44.8L531.33,48.92L533.49,49.93L535.66,50.05L537.83,51.63L540,50.99" style="vector-effect: non-scaling-stroke; fill: none; stroke: rgb(239, 85, 59); stroke-opacity: 1; stroke-width: 2px; opacity: 1;"/></g><g class="points"/><g class="text"/></g><g class="trace scatter tracec04361" style="stroke-miterlimit: 2; opacity: 1;"><g class="fills"/><g class="errorbars"/><g class="lines"><path class="js-line" d="M0,94.52L4.34,51.49L6.51,52.36L8.67,45.95L10.84,44.7L13.01,52.54L15.18,51.25L19.52,85.49L21.69,62.55L23.86,49.64L26.02,45.28L28.19,41.13L30.36,44.62L32.53,51.82L34.7,55.47L39.04,46.24L41.2,44.81L45.54,52.31L47.71,62.08L49.88,80.88L52.05,79.07L54.22,79.65L56.39,73.57L58.55,76.7L60.72,74.84L65.06,90.56L67.23,86.85L69.4,90.18L71.57,98.92L73.73,109.87L75.9,111.52L78.07,108.02L80.24,95.23L82.41,90.93L84.58,94.62L86.75,88.53L88.92,85.75L91.08,91.09L93.25,90.94L95.42,93.35L97.59,88.05L99.76,89.67L101.93,93.67L104.1,90.32L106.27,91.2L110.6,80.34L112.77,89.9L114.94,85.82L117.11,87.51L119.28,85.04L121.45,86.54L123.61,88.56L125.78,83.56L127.95,87.92L130.12,86.85L132.29,88.38L134.46,84.19L136.63,79.72L138.8,77.93L140.96,74.73L143.13,82.79L145.3,80.12L147.47,85.48L149.64,77.43L151.81,77.64L153.98,69.21L156.14,69.08L158.31,72.39L160.48,80.99L162.65,75.9L164.82,84.31L166.99,79.33L169.16,83.92L171.33,85.94L173.49,85.2L175.66,90.32L177.83,92.43L180,85.84L182.17,83.09L184.34,76.19L186.51,79.33L190.84,85.42L193.01,85.42L195.18,89.13L197.35,88.29L199.52,82.63L201.69,84.11L203.86,81.96L206.02,83.56L208.19,87.35L210.36,89.58L212.53,92.74L214.7,90.49L216.87,96.86L219.04,99.5L221.2,93.25L223.37,95.23L225.54,98.54L227.71,96.22L229.88,95.29L232.05,85.76L234.22,86.2L236.39,88.07L238.55,88.07L240.72,85.38L242.89,85.26L245.06,83.6L247.23,77.09L249.4,73.59L251.57,73.6L253.73,72.56L255.9,70.24L258.07,72.18L260.24,68.64L262.41,72.86L264.58,80L266.75,76.72L268.92,87.24L271.08,83.01L273.25,87.13L275.42,85.24L277.59,86.06L279.76,89.13L284.1,93.8L286.27,90.36L288.43,90.88L290.6,93.68L292.77,94.22L294.94,99.87L297.11,98.43L299.28,100.92L301.45,102.52L303.61,105.58L305.78,107.12L307.95,106.8L312.29,103.98L314.46,104.73L316.63,103.75L318.8,104.82L325.3,95.42L327.47,97.26L329.64,95.17L331.81,95.41L333.98,95.67L336.14,92.93L340.48,96.83L342.65,95.63L344.82,94.89L346.99,93.33L351.33,90.21L353.49,90.36L355.66,87.43L357.83,80.98L360,80.12L362.17,76.51L364.34,71.06L366.51,75.55L368.67,75.01L370.84,69.81L373.01,64.59L375.18,66.99L377.35,71.35L379.52,67.72L381.69,71.54L383.86,70.25L386.02,77.11L388.19,77.5L390.36,76.48L392.53,77.43L394.7,75.52L396.87,77.35L399.04,78.21L401.2,77.4L403.37,69.65L405.54,69.71L407.71,73.49L409.88,72.85L414.22,74.14L416.39,71.8L418.55,76.57L420.72,73.41L422.89,78.87L425.06,74.88L427.23,73.24L429.4,78.81L435.9,79.67L438.07,82.15L442.41,89.04L444.58,84.87L446.75,84.56L448.92,85.68L451.08,83.26L453.25,85.88L455.42,85.53L457.59,86.04L459.76,84.55L461.93,87.73L466.27,88.3L468.43,86.57L470.6,82.18L472.77,82.65L477.11,90.86L479.28,93.13L483.61,92.56L485.78,89.3L490.12,85.98L492.29,83.71L494.46,87.85L496.63,86.58L498.8,85.97L500.96,80.31L503.13,80.87L505.3,79.25L507.47,82.91L509.64,83.54L511.81,79.87L513.98,83.49L516.14,86.31L518.31,85.2L520.48,86.78L522.65,86.65L529.16,88.99L531.33,93.27L533.49,95.17L535.66,95.37L537.83,98.27L540,98.49" style="vector-effect: non-scaling-stroke; fill: none; stroke: rgb(0, 204, 150); stroke-opacity: 1; stroke-width: 2px; opacity: 1;"/></g><g class="points"/><g class="text"/></g><g class="trace scatter trace3823e0" style="stroke-miterlimit: 2; opacity: 1;"><g class="fills"/><g class="errorbars"/><g class="lines"><path class="js-line" d="M0,78.41L2.17,81.12L4.34,49.7L6.51,61.5L8.67,54.28L10.84,76.01L13.01,69.61L15.18,87.25L17.35,82.1L19.52,89.86L21.69,73.97L26.02,61.91L28.19,66.88L30.36,66.63L32.53,70.18L34.7,69.73L36.87,65.07L39.04,62.42L41.2,63.95L43.37,53.41L45.54,57.6L47.71,48.8L49.88,59.2L52.05,58.52L54.22,61.1L56.39,64.89L58.55,65.51L62.89,54.04L65.06,47.94L69.4,55.16L71.57,54.23L73.73,54.27L75.9,60.41L78.07,52.65L80.24,62.54L82.41,59.83L84.58,60.9L86.75,49.65L88.92,55.22L91.08,54.74L93.25,51.68L95.42,50.08L97.59,54.09L99.76,48.71L101.93,52.8L104.1,63.83L106.27,62.75L108.43,53L110.6,48.24L112.77,51.34L114.94,58.65L117.11,54.95L119.28,47.51L121.45,47.76L123.61,53.16L125.78,57.05L127.95,58.99L134.46,32.05L136.63,35.3L138.8,32.1L140.96,26.67L143.13,27.88L145.3,26.45L147.47,30.12L149.64,25.92L151.81,21.97L153.98,7.99L158.31,14.4L160.48,9.83L162.65,10.97L164.82,14.7L166.99,16.85L169.16,16.83L171.33,16.84L173.49,22.72L175.66,29.61L177.83,25.04L180,24.4L182.17,27.61L184.34,21.73L186.51,25.77L190.84,29.64L193.01,24.56L195.18,25.61L197.35,21.83L199.52,23.99L201.69,27.86L203.86,33.95L206.02,34.73L208.19,33.53L210.36,37.17L212.53,35.99L214.7,31.43L216.87,32.45L219.04,35.63L221.2,35.04L223.37,39.13L225.54,39.38L227.71,43.25L229.88,41.56L232.05,33.95L234.22,36.99L236.39,35.76L238.55,34.76L240.72,32.71L242.89,27.6L245.06,27.02L249.4,23.14L251.57,20.96L253.73,20.07L255.9,15.23L258.07,20.99L260.24,19.7L262.41,21.76L264.58,27.89L266.75,25.04L268.92,30.68L271.08,26.44L273.25,27.54L275.42,20.32L277.59,26.05L279.76,24.46L281.93,27.92L284.1,24.71L286.27,27.01L288.43,26.84L290.6,32.16L292.77,34.49L294.94,39.76L297.11,37.74L299.28,38.24L301.45,31.54L303.61,37.34L305.78,38.67L307.95,43.23L310.12,43.22L312.29,44.34L314.46,45.38L316.63,49.15L320.96,45.5L323.13,46.58L327.47,48.89L329.64,48.87L331.81,50.2L333.98,49.09L336.14,49.46L338.31,55.18L340.48,52.97L342.65,56.66L344.82,58.02L346.99,57.23L349.16,58.08L351.33,61.3L353.49,57.39L355.66,58.93L357.83,54.34L360,52.18L362.17,46.96L364.34,46.18L366.51,55.65L368.67,58.05L370.84,56.75L373.01,53.43L375.18,55.12L377.35,60.07L379.52,56.87L381.69,57.32L383.86,58.76L386.02,56.9L390.36,59.76L392.53,60.23L394.7,61.32L396.87,66.67L403.37,61.82L405.54,56.51L409.88,55.52L412.05,47.53L416.39,46.11L418.55,49.47L420.72,52.17L422.89,52.56L425.06,53.55L427.23,49.27L429.4,49.73L431.57,53.07L433.73,54.18L435.9,49.69L438.07,50.98L440.24,57.13L442.41,56.06L444.58,53.37L448.92,59.8L451.08,56.96L453.25,58.82L455.42,62.05L457.59,54.7L459.76,54.78L464.1,48.64L466.27,45.18L470.6,48.11L472.77,51.23L474.94,52.04L477.11,54.04L479.28,56.53L481.45,52.91L483.61,53.02L485.78,50.24L487.95,50.09L490.12,51.44L492.29,52.34L494.46,56.03L498.8,52.29L500.96,47.94L503.13,47.48L505.3,50.65L507.47,51.2L509.64,53.64L511.81,52.55L513.98,54.81L518.31,51.85L520.48,52.71L522.65,50.48L524.82,49.48L526.99,46.25L529.16,44.8L531.33,48.92L533.49,49.93L535.66,50.05L537.83,51.63L540,50.99" style="vector-effect: non-scaling-stroke; fill: none; stroke: rgb(171, 99, 250); stroke-opacity: 1; stroke-width: 2px; opacity: 1;"/></g><g class="points"/><g class="text"/></g><g class="trace scatter trace0d26c9" style="stroke-miterlimit: 2; opacity: 1;"><g class="fills"/><g class="errorbars"/><g class="lines"><path class="js-line" d="M0,78.41L2.17,81.12L4.34,49.7L6.51,61.5L8.67,54.28L10.84,76.01L13.01,69.61L15.18,87.25L17.35,82.1L19.52,89.86L21.69,73.97L26.02,61.91L28.19,66.88L30.36,66.63L32.53,70.18L34.7,69.73L36.87,65.07L39.04,62.42L41.2,63.95L43.37,53.41L45.54,57.6L47.71,48.8L49.88,59.2L52.05,58.52L54.22,61.1L56.39,64.89L58.55,65.51L62.89,54.04L65.06,47.94L69.4,55.16L71.57,54.23L73.73,54.27L75.9,60.41L78.07,52.65L80.24,62.54L82.41,59.83L84.58,60.9L86.75,49.65L88.92,55.22L91.08,54.74L93.25,51.68L95.42,50.08L97.59,54.09L99.76,48.71L101.93,52.8L104.1,63.83L106.27,62.75L108.43,53L110.6,48.24L112.77,51.34L114.94,58.65L117.11,54.95L119.28,47.51L121.45,47.76L123.61,53.16L125.78,57.05L127.95,58.99L134.46,32.05L136.63,35.3L138.8,32.1L140.96,26.67L143.13,27.88L145.3,26.45L147.47,30.12L149.64,25.92L151.81,21.97L153.98,7.99L158.31,14.4L160.48,9.83L162.65,10.97L164.82,14.7L166.99,16.85L169.16,16.83L171.33,16.84L173.49,22.72L175.66,29.61L177.83,25.04L180,24.4L182.17,27.61L184.34,21.73L186.51,25.77L190.84,29.64L193.01,24.56L195.18,25.61L197.35,21.83L199.52,23.99L201.69,27.86L203.86,33.95L206.02,34.73L208.19,33.53L210.36,37.17L212.53,35.99L214.7,31.43L216.87,32.45L219.04,35.63L221.2,35.04L223.37,39.13L225.54,39.38L227.71,43.25L229.88,41.56L232.05,33.95L234.22,36.99L236.39,35.76L238.55,34.76L240.72,32.71L242.89,27.6L245.06,27.02L249.4,23.14L251.57,20.96L253.73,20.07L255.9,15.23L258.07,20.99L260.24,19.7L262.41,21.76L264.58,27.89L266.75,25.04L268.92,30.68L271.08,26.44L273.25,27.54L275.42,20.32L277.59,26.05L279.76,24.46L281.93,27.92L284.1,24.71L286.27,27.01L288.43,26.84L290.6,32.16L292.77,34.49L294.94,39.76L297.11,37.74L299.28,38.24L301.45,31.54L303.61,37.34L305.78,38.67L307.95,43.23L310.12,43.22L312.29,44.34L314.46,45.38L316.63,49.15L320.96,45.5L323.13,46.58L327.47,48.89L329.64,48.87L331.81,50.2L333.98,49.09L336.14,49.46L338.31,55.18L340.48,52.97L342.65,56.66L344.82,58.02L346.99,57.23L349.16,58.08L351.33,61.3L353.49,57.39L355.66,58.93L357.83,54.34L360,52.18L362.17,46.96L364.34,46.18L366.51,55.65L368.67,58.05L370.84,56.75L373.01,53.43L375.18,55.12L377.35,60.07L379.52,56.87L381.69,57.32L383.86,58.76L386.02,56.9L390.36,59.76L392.53,60.23L394.7,61.32L396.87,66.67L403.37,61.82L405.54,56.51L409.88,55.52L412.05,47.53L416.39,46.11L418.55,49.47L420.72,52.17L422.89,52.56L425.06,53.55L427.23,49.27L429.4,49.73L431.57,53.07L433.73,54.18L435.9,49.69L438.07,50.98L440.24,57.13L442.41,56.06L444.58,53.37L448.92,59.8L451.08,56.96L453.25,58.82L455.42,62.05L457.59,54.7L459.76,54.78L464.1,48.64L466.27,45.18L470.6,48.11L472.77,51.23L474.94,52.04L477.11,54.04L479.28,56.53L481.45,52.91L483.61,53.02L485.78,50.24L487.95,50.09L490.12,51.44L492.29,52.34L494.46,56.03L498.8,52.29L500.96,47.94L503.13,47.48L505.3,50.65L507.47,51.2L509.64,53.64L511.81,52.55L513.98,54.81L518.31,51.85L520.48,52.71L522.65,50.48L524.82,49.48L526.99,46.25L529.16,44.8L531.33,48.92L533.49,49.93L535.66,50.05L537.83,51.63L540,50.99" style="vector-effect: non-scaling-stroke; fill: none; stroke: rgb(255, 161, 90); stroke-opacity: 1; stroke-width: 2px; opacity: 1;"/></g><g class="points"/><g class="text"/></g><g class="trace scatter trace17c573" style="stroke-miterlimit: 2; opacity: 1;"><g class="fills"/><g class="errorbars"/><g class="lines"><path class="js-line" d="M0,78.41L2.17,81.12L4.34,49.7L6.51,61.5L8.67,54.28L10.84,76.01L13.01,69.61L15.18,87.25L17.35,82.1L19.52,89.86L21.69,73.97L26.02,61.91L28.19,66.88L30.36,66.63L32.53,70.18L34.7,69.73L36.87,65.07L39.04,62.42L41.2,63.95L43.37,53.41L45.54,57.6L47.71,48.8L49.88,59.2L52.05,58.52L54.22,61.1L56.39,64.89L58.55,65.51L62.89,54.04L65.06,47.94L69.4,55.16L71.57,54.23L73.73,54.27L75.9,60.41L78.07,52.65L80.24,62.54L82.41,59.83L84.58,60.9L86.75,49.65L88.92,55.22L91.08,54.74L93.25,51.68L95.42,50.08L97.59,54.09L99.76,48.71L101.93,52.8L104.1,63.83L106.27,62.75L108.43,53L110.6,48.24L112.77,51.34L114.94,58.65L117.11,54.95L119.28,47.51L121.45,47.76L123.61,53.16L125.78,57.05L127.95,58.99L134.46,32.05L136.63,35.3L138.8,32.1L140.96,26.67L143.13,27.88L145.3,26.45L147.47,30.12L149.64,25.92L151.81,21.97L153.98,7.99L158.31,14.4L160.48,9.83L162.65,10.97L164.82,14.7L166.99,16.85L169.16,16.83L171.33,16.84L173.49,22.72L175.66,29.61L177.83,25.04L180,24.4L182.17,27.61L184.34,21.73L186.51,25.77L190.84,29.64L193.01,24.56L195.18,25.61L197.35,21.83L199.52,23.99L201.69,27.86L203.86,33.95L206.02,34.73L208.19,33.53L210.36,37.17L212.53,35.99L214.7,31.43L216.87,32.45L219.04,35.63L221.2,35.04L223.37,39.13L225.54,39.38L227.71,43.25L229.88,41.56L232.05,33.95L234.22,36.99L236.39,35.76L238.55,34.76L240.72,32.71L242.89,27.6L245.06,27.02L249.4,23.14L251.57,20.96L253.73,20.07L255.9,15.23L258.07,20.99L260.24,19.7L262.41,21.76L264.58,27.89L266.75,25.04L268.92,30.68L271.08,26.44L273.25,27.54L275.42,20.32L277.59,26.05L279.76,24.46L281.93,27.92L284.1,24.71L286.27,27.01L288.43,26.84L290.6,32.16L292.77,34.49L294.94,39.76L297.11,37.74L299.28,38.24L301.45,31.54L303.61,37.34L305.78,38.67L307.95,43.23L310.12,43.22L312.29,44.34L314.46,45.38L316.63,49.15L320.96,45.5L323.13,46.58L327.47,48.89L329.64,48.87L331.81,50.2L333.98,49.09L336.14,49.46L338.31,55.18L340.48,52.97L342.65,56.66L344.82,58.02L346.99,57.23L349.16,58.08L351.33,61.3L353.49,57.39L355.66,58.93L357.83,54.34L360,52.18L362.17,46.96L364.34,46.18L366.51,55.65L368.67,58.05L370.84,56.75L373.01,53.43L375.18,55.12L377.35,60.07L379.52,56.87L381.69,57.32L383.86,58.76L386.02,56.9L390.36,59.76L392.53,60.23L394.7,61.32L396.87,66.67L403.37,61.82L405.54,56.51L409.88,55.52L412.05,47.53L416.39,46.11L418.55,49.47L420.72,52.17L422.89,52.56L425.06,53.55L427.23,49.27L429.4,49.73L431.57,53.07L433.73,54.18L435.9,49.69L438.07,50.98L440.24,57.13L442.41,56.06L444.58,53.37L448.92,59.8L451.08,56.96L453.25,58.82L455.42,62.05L457.59,54.7L459.76,54.78L464.1,48.64L466.27,45.18L470.6,48.11L472.77,51.23L474.94,52.04L477.11,54.04L479.28,56.53L481.45,52.91L483.61,53.02L485.78,50.24L487.95,50.09L490.12,51.44L492.29,52.34L494.46,56.03L498.8,52.29L500.96,47.94L503.13,47.48L505.3,50.65L507.47,51.2L509.64,53.64L511.81,52.55L513.98,54.81L518.31,51.85L520.48,52.71L522.65,50.48L524.82,49.48L526.99,46.25L529.16,44.8L531.33,48.92L533.49,49.93L535.66,50.05L537.83,51.63L540,50.99" style="vector-effect: non-scaling-stroke; fill: none; stroke: rgb(25, 211, 243); stroke-opacity: 1; stroke-width: 2px; opacity: 1;"/></g><g class="points"/><g class="text"/></g><g class="trace scatter tracea486f0" style="stroke-miterlimit: 2; opacity: 1;"><g class="fills"/><g class="errorbars"/><g class="lines"><path class="js-line" d="M0,78.41L2.17,81.12L4.34,49.7L6.51,61.5L8.67,54.28L10.84,76.01L13.01,69.61L15.18,87.25L17.35,82.1L19.52,89.86L21.69,73.97L26.02,61.91L28.19,66.88L30.36,66.63L32.53,70.18L34.7,69.73L36.87,65.07L39.04,62.42L41.2,63.95L43.37,53.41L45.54,57.6L47.71,48.8L49.88,59.2L52.05,58.52L54.22,61.1L56.39,64.89L58.55,65.51L62.89,54.04L65.06,47.94L69.4,55.16L71.57,54.23L73.73,54.27L75.9,60.41L78.07,52.65L80.24,62.54L82.41,59.83L84.58,60.9L86.75,49.65L88.92,55.22L91.08,54.74L93.25,51.68L95.42,50.08L97.59,54.09L99.76,48.71L101.93,52.8L104.1,63.83L106.27,62.75L108.43,53L110.6,48.24L112.77,51.34L114.94,58.65L117.11,54.95L119.28,47.51L121.45,47.76L123.61,53.16L125.78,57.05L127.95,58.99L134.46,32.05L136.63,35.3L138.8,32.1L140.96,26.67L143.13,27.88L145.3,26.45L147.47,30.12L149.64,25.92L151.81,21.97L153.98,7.99L158.31,14.4L160.48,9.83L162.65,10.97L164.82,14.7L166.99,16.85L169.16,16.83L171.33,16.84L173.49,22.72L175.66,29.61L177.83,25.04L180,24.4L182.17,27.61L184.34,21.73L186.51,25.77L190.84,29.64L193.01,24.56L195.18,25.61L197.35,21.83L199.52,23.99L201.69,27.86L203.86,33.95L206.02,34.73L208.19,33.53L210.36,37.17L212.53,35.99L214.7,31.43L216.87,32.45L219.04,35.63L221.2,35.04L223.37,39.13L225.54,39.38L227.71,43.25L229.88,41.56L232.05,33.95L234.22,36.99L236.39,35.76L238.55,34.76L240.72,32.71L242.89,27.6L245.06,27.02L249.4,23.14L251.57,20.96L253.73,20.07L255.9,15.23L258.07,20.99L260.24,19.7L262.41,21.76L264.58,27.89L266.75,25.04L268.92,30.68L271.08,26.44L273.25,27.54L275.42,20.32L277.59,26.05L279.76,24.46L281.93,27.92L284.1,24.71L286.27,27.01L288.43,26.84L290.6,32.16L292.77,34.49L294.94,39.76L297.11,37.74L299.28,38.24L301.45,31.54L303.61,37.34L305.78,38.67L307.95,43.23L310.12,43.22L312.29,44.34L314.46,45.38L316.63,49.15L320.96,45.5L323.13,46.58L327.47,48.89L329.64,48.87L331.81,50.2L333.98,49.09L336.14,49.46L338.31,55.18L340.48,52.97L342.65,56.66L344.82,58.02L346.99,57.23L349.16,58.08L351.33,61.3L353.49,57.39L355.66,58.93L357.83,54.34L360,52.18L362.17,46.96L364.34,46.18L366.51,55.65L368.67,58.05L370.84,56.75L373.01,53.43L375.18,55.12L377.35,60.07L379.52,56.87L381.69,57.32L383.86,58.76L386.02,56.9L390.36,59.76L392.53,60.23L394.7,61.32L396.87,66.67L403.37,61.82L405.54,56.51L409.88,55.52L412.05,47.53L416.39,46.11L418.55,49.47L420.72,52.17L422.89,52.56L425.06,53.55L427.23,49.27L429.4,49.73L431.57,53.07L433.73,54.18L435.9,49.69L438.07,50.98L440.24,57.13L442.41,56.06L444.58,53.37L448.92,59.8L451.08,56.96L453.25,58.82L455.42,62.05L457.59,54.7L459.76,54.78L464.1,48.64L466.27,45.18L470.6,48.11L472.77,51.23L474.94,52.04L477.11,54.04L479.28,56.53L481.45,52.91L483.61,53.02L485.78,50.24L487.95,50.09L490.12,51.44L492.29,52.34L494.46,56.03L498.8,52.29L500.96,47.94L503.13,47.48L505.3,50.65L507.47,51.2L509.64,53.64L511.81,52.55L513.98,54.81L518.31,51.85L520.48,52.71L522.65,50.48L524.82,49.48L526.99,46.25L529.16,44.8L531.33,48.92L533.49,49.93L535.66,50.05L537.83,51.63L540,50.99" style="vector-effect: non-scaling-stroke; fill: none; stroke: rgb(255, 102, 146); stroke-opacity: 1; stroke-width: 2px; opacity: 1;"/></g><g class="points"/><g class="text"/></g><g class="trace scatter tracec467f3" style="stroke-miterlimit: 2; opacity: 1;"><g class="fills"/><g class="errorbars"/><g class="lines"><path class="js-line" d="M0,78.41L2.17,81.12L4.34,49.7L6.51,61.5L8.67,54.28L10.84,76.01L13.01,69.61L15.18,87.25L17.35,82.1L19.52,89.86L21.69,73.97L26.02,61.91L28.19,66.88L30.36,66.63L32.53,70.18L34.7,69.73L36.87,65.07L39.04,62.42L41.2,63.95L43.37,53.41L45.54,57.6L47.71,48.8L49.88,59.2L52.05,58.52L54.22,61.1L56.39,64.89L58.55,65.51L62.89,54.04L65.06,47.94L69.4,55.16L71.57,54.23L73.73,54.27L75.9,60.41L78.07,52.65L80.24,62.54L82.41,59.83L84.58,60.9L86.75,49.65L88.92,55.22L91.08,54.74L93.25,51.68L95.42,50.08L97.59,54.09L99.76,48.71L101.93,52.8L104.1,63.83L106.27,62.75L108.43,53L110.6,48.24L112.77,51.34L114.94,58.65L117.11,54.95L119.28,47.51L121.45,47.76L123.61,53.16L125.78,57.05L127.95,58.99L134.46,32.05L136.63,35.3L138.8,32.1L140.96,26.67L143.13,27.88L145.3,26.45L147.47,30.12L149.64,25.92L151.81,21.97L153.98,7.99L158.31,14.4L160.48,9.83L162.65,10.97L164.82,14.7L166.99,16.85L169.16,16.83L171.33,16.84L173.49,22.72L175.66,29.61L177.83,25.04L180,24.4L182.17,27.61L184.34,21.73L186.51,25.77L190.84,29.64L193.01,24.56L195.18,25.61L197.35,21.83L199.52,23.99L201.69,27.86L203.86,33.95L206.02,34.73L208.19,33.53L210.36,37.17L212.53,35.99L214.7,31.43L216.87,32.45L219.04,35.63L221.2,35.04L223.37,39.13L225.54,39.38L227.71,43.25L229.88,41.56L232.05,33.95L234.22,36.99L236.39,35.76L238.55,34.76L240.72,32.71L242.89,27.6L245.06,27.02L249.4,23.14L251.57,20.96L253.73,20.07L255.9,15.23L258.07,20.99L260.24,19.7L262.41,21.76L264.58,27.89L266.75,25.04L268.92,30.68L271.08,26.44L273.25,27.54L275.42,20.32L277.59,26.05L279.76,24.46L281.93,27.92L284.1,24.71L286.27,27.01L288.43,26.84L290.6,32.16L292.77,34.49L294.94,39.76L297.11,37.74L299.28,38.24L301.45,31.54L303.61,37.34L305.78,38.67L307.95,43.23L310.12,43.22L312.29,44.34L314.46,45.38L316.63,49.15L320.96,45.5L323.13,46.58L327.47,48.89L329.64,48.87L331.81,50.2L333.98,49.09L336.14,49.46L338.31,55.18L340.48,52.97L342.65,56.66L344.82,58.02L346.99,57.23L349.16,58.08L351.33,61.3L353.49,57.39L355.66,58.93L357.83,54.34L360,52.18L362.17,46.96L364.34,46.18L366.51,55.65L368.67,58.05L370.84,56.75L373.01,53.43L375.18,55.12L377.35,60.07L379.52,56.87L381.69,57.32L383.86,58.76L386.02,56.9L390.36,59.76L392.53,60.23L394.7,61.32L396.87,66.67L403.37,61.82L405.54,56.51L409.88,55.52L412.05,47.53L416.39,46.11L418.55,49.47L420.72,52.17L422.89,52.56L425.06,53.55L427.23,49.27L429.4,49.73L431.57,53.07L433.73,54.18L435.9,49.69L438.07,50.98L440.24,57.13L442.41,56.06L444.58,53.37L448.92,59.8L451.08,56.96L453.25,58.82L455.42,62.05L457.59,54.7L459.76,54.78L464.1,48.64L466.27,45.18L470.6,48.11L472.77,51.23L474.94,52.04L477.11,54.04L479.28,56.53L481.45,52.91L483.61,53.02L485.78,50.24L487.95,50.09L490.12,51.44L492.29,52.34L494.46,56.03L498.8,52.29L500.96,47.94L503.13,47.48L505.3,50.65L507.47,51.2L509.64,53.64L511.81,52.55L513.98,54.81L518.31,51.85L520.48,52.71L522.65,50.48L524.82,49.48L526.99,46.25L529.16,44.8L531.33,48.92L533.49,49.93L535.66,50.05L537.83,51.63L540,50.99" style="vector-effect: non-scaling-stroke; fill: none; stroke: rgb(182, 232, 128); stroke-opacity: 1; stroke-width: 2px; opacity: 1;"/></g><g class="points"/><g class="text"/></g><g class="trace scatter tracebee230" style="stroke-miterlimit: 2; opacity: 1;"><g class="fills"/><g class="errorbars"/><g class="lines"><path class="js-line" d="M0,78.41L2.17,81.12L4.34,49.7L6.51,61.5L8.67,54.28L10.84,76.01L13.01,69.61L15.18,87.25L17.35,82.1L19.52,89.86L21.69,73.97L26.02,61.91L28.19,66.88L30.36,66.63L32.53,70.18L34.7,69.73L36.87,65.07L39.04,62.42L41.2,63.95L43.37,53.41L45.54,57.6L47.71,48.8L49.88,59.2L52.05,58.52L54.22,61.1L56.39,64.89L58.55,65.51L62.89,54.04L65.06,47.94L69.4,55.16L71.57,54.23L73.73,54.27L75.9,60.41L78.07,52.65L80.24,62.54L82.41,59.83L84.58,60.9L86.75,49.65L88.92,55.22L91.08,54.74L93.25,51.68L95.42,50.08L97.59,54.09L99.76,48.71L101.93,52.8L104.1,63.83L106.27,62.75L108.43,53L110.6,48.24L112.77,51.34L114.94,58.65L117.11,54.95L119.28,47.51L121.45,47.76L123.61,53.16L125.78,57.05L127.95,58.99L134.46,32.05L136.63,35.3L138.8,32.1L140.96,26.67L143.13,27.88L145.3,26.45L147.47,30.12L149.64,25.92L151.81,21.97L153.98,7.99L158.31,14.4L160.48,9.83L162.65,10.97L164.82,14.7L166.99,16.85L169.16,16.83L171.33,16.84L173.49,22.72L175.66,29.61L177.83,25.04L180,24.4L182.17,27.61L184.34,21.73L186.51,25.77L190.84,29.64L193.01,24.56L195.18,25.61L197.35,21.83L199.52,23.99L201.69,27.86L203.86,33.95L206.02,34.73L208.19,33.53L210.36,37.17L212.53,35.99L214.7,31.43L216.87,32.45L219.04,35.63L221.2,35.04L223.37,39.13L225.54,39.38L227.71,43.25L229.88,41.56L232.05,33.95L234.22,36.99L236.39,35.76L238.55,34.76L240.72,32.71L242.89,27.6L245.06,27.02L249.4,23.14L251.57,20.96L253.73,20.07L255.9,15.23L258.07,20.99L260.24,19.7L262.41,21.76L264.58,27.89L266.75,25.04L268.92,30.68L271.08,26.44L273.25,27.54L275.42,20.32L277.59,26.05L279.76,24.46L281.93,27.92L284.1,24.71L286.27,27.01L288.43,26.84L290.6,32.16L292.77,34.49L294.94,39.76L297.11,37.74L299.28,38.24L301.45,31.54L303.61,37.34L305.78,38.67L307.95,43.23L310.12,43.22L312.29,44.34L314.46,45.38L316.63,49.15L320.96,45.5L323.13,46.58L327.47,48.89L329.64,48.87L331.81,50.2L333.98,49.09L336.14,49.46L338.31,55.18L340.48,52.97L342.65,56.66L344.82,58.02L346.99,57.23L349.16,58.08L351.33,61.3L353.49,57.39L355.66,58.93L357.83,54.34L360,52.18L362.17,46.96L364.34,46.18L366.51,55.65L368.67,58.05L370.84,56.75L373.01,53.43L375.18,55.12L377.35,60.07L379.52,56.87L381.69,57.32L383.86,58.76L386.02,56.9L390.36,59.76L392.53,60.23L394.7,61.32L396.87,66.67L403.37,61.82L405.54,56.51L409.88,55.52L412.05,47.53L416.39,46.11L418.55,49.47L420.72,52.17L422.89,52.56L425.06,53.55L427.23,49.27L429.4,49.73L431.57,53.07L433.73,54.18L435.9,49.69L438.07,50.98L440.24,57.13L442.41,56.06L444.58,53.37L448.92,59.8L451.08,56.96L453.25,58.82L455.42,62.05L457.59,54.7L459.76,54.78L464.1,48.64L466.27,45.18L470.6,48.11L472.77,51.23L474.94,52.04L477.11,54.04L479.28,56.53L481.45,52.91L483.61,53.02L485.78,50.24L487.95,50.09L490.12,51.44L492.29,52.34L494.46,56.03L498.8,52.29L500.96,47.94L503.13,47.48L505.3,50.65L507.47,51.2L509.64,53.64L511.81,52.55L513.98,54.81L518.31,51.85L520.48,52.71L522.65,50.48L524.82,49.48L526.99,46.25L529.16,44.8L531.33,48.92L533.49,49.93L535.66,50.05L537.83,51.63L540,50.99" style="vector-effect: non-scaling-stroke; fill: none; stroke: rgb(255, 151, 255); stroke-opacity: 1; stroke-width: 2px; opacity: 1;"/></g><g class="points"/><g class="text"/></g><g class="trace scatter trace38c8cc" style="stroke-miterlimit: 2; opacity: 1;"><g class="fills"/><g class="errorbars"/><g class="lines"><path class="js-line" d="M0,94.52L4.34,51.49L6.51,52.36L8.67,45.95L10.84,44.7L13.01,52.54L15.18,51.25L19.52,85.49L21.69,62.55L23.86,49.64L26.02,45.28L28.19,41.13L30.36,44.62L32.53,51.82L34.7,55.47L39.04,46.24L41.2,44.81L45.54,52.31L47.71,62.08L49.88,80.88L52.05,79.07L54.22,79.65L56.39,73.57L58.55,76.7L60.72,74.84L65.06,90.56L67.23,86.85L69.4,90.18L71.57,98.92L73.73,109.87L75.9,111.52L78.07,108.02L80.24,95.23L82.41,90.93L84.58,94.62L86.75,88.53L88.92,85.75L91.08,91.09L93.25,90.94L95.42,93.35L97.59,88.05L99.76,89.67L101.93,93.67L104.1,90.32L106.27,91.2L110.6,80.34L112.77,89.9L114.94,85.82L117.11,87.51L119.28,85.04L121.45,86.54L123.61,88.56L125.78,83.56L127.95,87.92L130.12,86.85L132.29,88.38L134.46,84.19L136.63,79.72L138.8,77.93L140.96,74.73L143.13,82.79L145.3,80.12L147.47,85.48L149.64,77.43L151.81,77.64L153.98,69.21L156.14,69.08L158.31,72.39L160.48,80.99L162.65,75.9L164.82,84.31L166.99,79.33L169.16,83.92L171.33,85.94L173.49,85.2L175.66,90.32L177.83,92.43L180,85.84L182.17,83.09L184.34,76.19L186.51,79.33L190.84,85.42L193.01,85.42L195.18,89.13L197.35,88.29L199.52,82.63L201.69,84.11L203.86,81.96L206.02,83.56L208.19,87.35L210.36,89.58L212.53,92.74L214.7,90.49L216.87,96.86L219.04,99.5L221.2,93.25L223.37,95.23L225.54,98.54L227.71,96.22L229.88,95.29L232.05,85.76L234.22,86.2L236.39,88.07L238.55,88.07L240.72,85.38L242.89,85.26L245.06,83.6L247.23,77.09L249.4,73.59L251.57,73.6L253.73,72.56L255.9,70.24L258.07,72.18L260.24,68.64L262.41,72.86L264.58,80L266.75,76.72L268.92,87.24L271.08,83.01L273.25,87.13L275.42,85.24L277.59,86.06L279.76,89.13L284.1,93.8L286.27,90.36L288.43,90.88L290.6,93.68L292.77,94.22L294.94,99.87L297.11,98.43L299.28,100.92L301.45,102.52L303.61,105.58L305.78,107.12L307.95,106.8L312.29,103.98L314.46,104.73L316.63,103.75L318.8,104.82L325.3,95.42L327.47,97.26L329.64,95.17L331.81,95.41L333.98,95.67L336.14,92.93L340.48,96.83L342.65,95.63L344.82,94.89L346.99,93.33L351.33,90.21L353.49,90.36L355.66,87.43L357.83,80.98L360,80.12L362.17,76.51L364.34,71.06L366.51,75.55L368.67,75.01L370.84,69.81L373.01,64.59L375.18,66.99L377.35,71.35L379.52,67.72L381.69,71.54L383.86,70.25L386.02,77.11L388.19,77.5L390.36,76.48L392.53,77.43L394.7,75.52L396.87,77.35L399.04,78.21L401.2,77.4L403.37,69.65L405.54,69.71L407.71,73.49L409.88,72.85L414.22,74.14L416.39,71.8L418.55,76.57L420.72,73.41L422.89,78.87L425.06,74.88L427.23,73.24L429.4,78.81L435.9,79.67L438.07,82.15L442.41,89.04L444.58,84.87L446.75,84.56L448.92,85.68L451.08,83.26L453.25,85.88L455.42,85.53L457.59,86.04L459.76,84.55L461.93,87.73L466.27,88.3L468.43,86.57L470.6,82.18L472.77,82.65L477.11,90.86L479.28,93.13L483.61,92.56L485.78,89.3L490.12,85.98L492.29,83.71L494.46,87.85L496.63,86.58L498.8,85.97L500.96,80.31L503.13,80.87L505.3,79.25L507.47,82.91L509.64,83.54L511.81,79.87L513.98,83.49L516.14,86.31L518.31,85.2L520.48,86.78L522.65,86.65L529.16,88.99L531.33,93.27L533.49,95.17L535.66,95.37L537.83,98.27L540,98.49" style="vector-effect: non-scaling-stroke; fill: none; stroke: rgb(254, 203, 82); stroke-opacity: 1; stroke-width: 2px; opacity: 1;"/></g><g class="points"/><g class="text"/></g><g class="trace scatter tracecdcba0" style="stroke-miterlimit: 2; opacity: 1;"><g class="fills"/><g class="errorbars"/><g class="lines"><path class="js-line" d="M0,78.41L2.17,81.12L4.34,49.7L6.51,61.5L8.67,54.28L10.84,76.01L13.01,69.61L15.18,87.25L17.35,82.1L19.52,89.86L21.69,73.97L26.02,61.91L28.19,66.88L30.36,66.63L32.53,70.18L34.7,69.73L36.87,65.07L39.04,62.42L41.2,63.95L43.37,53.41L45.54,57.6L47.71,48.8L49.88,59.2L52.05,58.52L54.22,61.1L56.39,64.89L58.55,65.51L62.89,54.04L65.06,47.94L69.4,55.16L71.57,54.23L73.73,54.27L75.9,60.41L78.07,52.65L80.24,62.54L82.41,59.83L84.58,60.9L86.75,49.65L88.92,55.22L91.08,54.74L93.25,51.68L95.42,50.08L97.59,54.09L99.76,48.71L101.93,52.8L104.1,63.83L106.27,62.75L108.43,53L110.6,48.24L112.77,51.34L114.94,58.65L117.11,54.95L119.28,47.51L121.45,47.76L123.61,53.16L125.78,57.05L127.95,58.99L134.46,32.05L136.63,35.3L138.8,32.1L140.96,26.67L143.13,27.88L145.3,26.45L147.47,30.12L149.64,25.92L151.81,21.97L153.98,7.99L158.31,14.4L160.48,9.83L162.65,10.97L164.82,14.7L166.99,16.85L169.16,16.83L171.33,16.84L173.49,22.72L175.66,29.61L177.83,25.04L180,24.4L182.17,27.61L184.34,21.73L186.51,25.77L190.84,29.64L193.01,24.56L195.18,25.61L197.35,21.83L199.52,23.99L201.69,27.86L203.86,33.95L206.02,34.73L208.19,33.53L210.36,37.17L212.53,35.99L214.7,31.43L216.87,32.45L219.04,35.63L221.2,35.04L223.37,39.13L225.54,39.38L227.71,43.25L229.88,41.56L232.05,33.95L234.22,36.99L236.39,35.76L238.55,34.76L240.72,32.71L242.89,27.6L245.06,27.02L249.4,23.14L251.57,20.96L253.73,20.07L255.9,15.23L258.07,20.99L260.24,19.7L262.41,21.76L264.58,27.89L266.75,25.04L268.92,30.68L271.08,26.44L273.25,27.54L275.42,20.32L277.59,26.05L279.76,24.46L281.93,27.92L284.1,24.71L286.27,27.01L288.43,26.84L290.6,32.16L292.77,34.49L294.94,39.76L297.11,37.74L299.28,38.24L301.45,31.54L303.61,37.34L305.78,38.67L307.95,43.23L310.12,43.22L312.29,44.34L314.46,45.38L316.63,49.15L320.96,45.5L323.13,46.58L327.47,48.89L329.64,48.87L331.81,50.2L333.98,49.09L336.14,49.46L338.31,55.18L340.48,52.97L342.65,56.66L344.82,58.02L346.99,57.23L349.16,58.08L351.33,61.3L353.49,57.39L355.66,58.93L357.83,54.34L360,52.18L362.17,46.96L364.34,46.18L366.51,55.65L368.67,58.05L370.84,56.75L373.01,53.43L375.18,55.12L377.35,60.07L379.52,56.87L381.69,57.32L383.86,58.76L386.02,56.9L390.36,59.76L392.53,60.23L394.7,61.32L396.87,66.67L403.37,61.82L405.54,56.51L409.88,55.52L412.05,47.53L416.39,46.11L418.55,49.47L420.72,52.17L422.89,52.56L425.06,53.55L427.23,49.27L429.4,49.73L431.57,53.07L433.73,54.18L435.9,49.69L438.07,50.98L440.24,57.13L442.41,56.06L444.58,53.37L448.92,59.8L451.08,56.96L453.25,58.82L455.42,62.05L457.59,54.7L459.76,54.78L464.1,48.64L466.27,45.18L470.6,48.11L472.77,51.23L474.94,52.04L477.11,54.04L479.28,56.53L481.45,52.91L483.61,53.02L485.78,50.24L487.95,50.09L490.12,51.44L492.29,52.34L494.46,56.03L498.8,52.29L500.96,47.94L503.13,47.48L505.3,50.65L507.47,51.2L509.64,53.64L511.81,52.55L513.98,54.81L518.31,51.85L520.48,52.71L522.65,50.48L524.82,49.48L526.99,46.25L529.16,44.8L531.33,48.92L533.49,49.93L535.66,50.05L537.83,51.63L540,50.99" style="vector-effect: non-scaling-stroke; fill: none; stroke: rgb(99, 110, 250); stroke-opacity: 1; stroke-width: 2px; opacity: 1;"/></g><g class="points"/><g class="text"/></g></g></g><g class="overplot"/><path class="xlines-above crisp" d="M0,0" style="fill: none;"/><path class="ylines-above crisp" d="M0,0" style="fill: none;"/><g class="overlines-above"/><g class="xaxislayer-above"><g class="xtick"><text text-anchor="middle" x="0" y="433" transform="translate(80,0)" style="font-family: 'Open Sans', verdana, arial, sans-serif; font-size: 12px; fill: rgb(42, 63, 95); fill-opacity: 1; white-space: pre; opacity: 1;">0</text></g><g class="xtick"><text text-anchor="middle" x="0" y="433" style="font-family: 'Open Sans', verdana, arial, sans-serif; font-size: 12px; fill: rgb(42, 63, 95); fill-opacity: 1; white-space: pre; opacity: 1;" transform="translate(188.43,0)">50</text></g><g class="xtick"><text text-anchor="middle" x="0" y="433" style="font-family: 'Open Sans', verdana, arial, sans-serif; font-size: 12px; fill: rgb(42, 63, 95); fill-opacity: 1; white-space: pre; opacity: 1;" transform="translate(296.87,0)">100</text></g><g class="xtick"><text text-anchor="middle" x="0" y="433" style="font-family: 'Open Sans', verdana, arial, sans-serif; font-size: 12px; fill: rgb(42, 63, 95); fill-opacity: 1; white-space: pre; opacity: 1;" transform="translate(405.3,0)">150</text></g><g class="xtick"><text text-anchor="middle" x="0" y="433" style="font-family: 'Open Sans', verdana, arial, sans-serif; font-size: 12px; fill: rgb(42, 63, 95); fill-opacity: 1; white-space: pre; opacity: 1;" transform="translate(513.73,0)">200</text></g></g><g class="yaxislayer-above"><g class="ytick"><text text-anchor="end" x="79" y="4.199999999999999" transform="translate(0,420)" style="font-family: 'Open Sans', verdana, arial, sans-serif; font-size: 12px; fill: rgb(42, 63, 95); fill-opacity: 1; white-space: pre; opacity: 1;">0</text></g><g class="ytick"><text text-anchor="end" x="79" y="4.199999999999999" style="font-family: 'Open Sans', verdana, arial, sans-serif; font-size: 12px; fill: rgb(42, 63, 95); fill-opacity: 1; white-space: pre; opacity: 1;" transform="translate(0,374.05)">1000</text></g><g class="ytick"><text text-anchor="end" x="79" y="4.199999999999999" style="font-family: 'Open Sans', verdana, arial, sans-serif; font-size: 12px; fill: rgb(42, 63, 95); fill-opacity: 1; white-space: pre; opacity: 1;" transform="translate(0,328.1)">2000</text></g><g class="ytick"><text text-anchor="end" x="79" y="4.199999999999999" style="font-family: 'Open Sans', verdana, arial, sans-serif; font-size: 12px; fill: rgb(42, 63, 95); fill-opacity: 1; white-space: pre; opacity: 1;" transform="translate(0,282.15)">3000</text></g><g class="ytick"><text text-anchor="end" x="79" y="4.199999999999999" style="font-family: 'Open Sans', verdana, arial, sans-serif; font-size: 12px; fill: rgb(42, 63, 95); fill-opacity: 1; white-space: pre; opacity: 1;" transform="translate(0,236.2)">4000</text></g><g class="ytick"><text text-anchor="end" x="79" y="4.199999999999999" style="font-family: 'Open Sans', verdana, arial, sans-serif; font-size: 12px; fill: rgb(42, 63, 95); fill-opacity: 1; white-space: pre; opacity: 1;" transform="translate(0,190.25)">5000</text></g><g class="ytick"><text text-anchor="end" x="79" y="4.199999999999999" style="font-family: 'Open Sans', verdana, arial, sans-serif; font-size: 12px; fill: rgb(42, 63, 95); fill-opacity: 1; white-space: pre; opacity: 1;" transform="translate(0,144.3)">6000</text></g></g><g class="overaxes-above"/></g></g><g class="polarlayer"/><g class="ternarylayer"/><g class="geolayer"/><g class="funnelarealayer"/><g class="pielayer"/><g class="iciclelayer"/><g class="treemaplayer"/><g class="sunburstlayer"/><g class="glimages"/><defs id="topdefs-d923c7"><g class="clips"/></defs><g class="layer-above"><g class="imagelayer"/><g class="shapelayer"/></g><g class="infolayer"><g class="g-gtitle"><text class="gtitle" x="35" y="50" text-anchor="start" dy="0em" style="font-family: 'Open Sans', verdana, arial, sans-serif; font-size: 17px; fill: rgb(42, 63, 95); opacity: 1; font-weight: normal; white-space: pre;">Rank Variance: ascad_50-ascad_mlp</text></g><g class="g-xtitle"/><g class="g-ytitle"/></g></svg>