<svg class="main-svg" xmlns="http://www.w3.org/2000/svg" xmlns:xlink="http://www.w3.org/1999/xlink" width="700" height="500" style="" viewBox="0 0 700 500"><rect x="0" y="0" width="700" height="500" style="fill: rgb(255, 255, 255); fill-opacity: 1;"/><defs id="defs-881366"><g class="clips"><clipPath id="clip881366xyplot" class="plotclip"><rect width="444" height="320"/></clipPath><clipPath class="axesclip" id="clip881366x"><rect x="80" y="0" width="444" height="500"/></clipPath><clipPath class="axesclip" id="clip881366y"><rect x="0" y="100" width="700" height="320"/></clipPath><clipPath class="axesclip" id="clip881366xy"><rect x="80" y="100" width="444" height="320"/></clipPath></g><g class="gradients"/><g class="patterns"/></defs><g class="bglayer"><rect class="bg" x="80" y="100" width="444" height="320" style="fill: rgb(229, 236, 246); fill-opacity: 1; stroke-width: 0;"/></g><g class="layer-below"><g class="imagelayer"/><g class="shapelayer"/></g><g class="cartesianlayer"><g class="subplot xy"><g class="layer-subplot"><g class="shapelayer"/><g class="imagelayer"/></g><g class="gridlayer"><g class="x"/><g class="y"><path class="ygrid crisp" transform="translate(0,351.56)" d="M80,0h444" style="stroke: rgb(255, 255, 255); stroke-opacity: 1; stroke-width: 1px;"/><path class="ygrid crisp" transform="translate(0,294.26)" d="M80,0h444" style="stroke: rgb(255, 255, 255); stroke-opacity: 1; stroke-width: 1px;"/><path class="ygrid crisp" transform="translate(0,236.97)" d="M80,0h444" style="stroke: rgb(255, 255, 255); stroke-opacity: 1; stroke-width: 1px;"/><path class="ygrid crisp" transform="translate(0,179.67000000000002)" d="M80,0h444" style="stroke: rgb(255, 255, 255); stroke-opacity: 1; stroke-width: 1px;"/><path class="ygrid crisp" transform="translate(0,122.37)" d="M80,0h444" style="stroke: rgb(255, 255, 255); stroke-opacity: 1; stroke-width: 1px;"/></g></g><g class="zerolinelayer"><path class="yzl zl crisp" transform="translate(0,408.86)" d="M80,0h444" style="stroke: rgb(255, 255, 255); stroke-opacity: 1; stroke-width: 2px;"/></g><path class="xlines-below"/><path class="ylines-below"/><g class="overlines-below"/><g class="xaxislayer-below"/><g class="yaxislayer-below"/><g class="overaxes-below"/><g class="plot" transform="translate(80,100)" clip-path="url(#clip881366xyplot)"><g class="violinlayer mlayer"><g class="trace violins" style="opacity: 1;"><path class="violin" d="M114.91,301.98Q116.04,301.63 116.73,301.48C117.63,301.29 118.7,301.14 119.85,300.99C121.27,300.81 122.91,300.65 124.63,300.5C126.63,300.32 128.85,300.16 131.12,300C133.61,299.83 136.3,299.67 138.95,299.51C141.69,299.34 144.56,299.19 147.3,299.02C149.94,298.86 152.64,298.69 155.1,298.52C157.31,298.36 159.51,298.22 161.38,298.03C162.9,297.88 164.41,297.74 165.49,297.53C166.21,297.39 167.18,297.28 167.27,297.04C167.32,296.9 167.12,296.69 166.92,296.55C166.54,296.29 165.63,296.2 164.86,296.05C163.9,295.86 162.74,295.72 161.59,295.56C160.32,295.39 158.94,295.23 157.58,295.07C156.16,294.9 154.68,294.73 153.22,294.57C151.76,294.4 150.28,294.25 148.83,294.08C147.42,293.92 146,293.76 144.64,293.59C143.34,293.43 142.07,293.26 140.85,293.09C139.72,292.93 138.61,292.77 137.57,292.6C136.62,292.44 135.72,292.28 134.87,292.11C134.1,291.95 133.37,291.78 132.68,291.61C132.05,291.45 131.46,291.29 130.88,291.12C130.34,290.96 129.82,290.8 129.31,290.63C128.82,290.47 128.34,290.3 127.87,290.13C127.42,289.97 126.98,289.81 126.56,289.64C126.16,289.48 125.77,289.32 125.4,289.15C125.05,288.99 124.72,288.82 124.4,288.65C124.09,288.49 123.8,288.32 123.5,288.16C123.2,288 122.9,287.83 122.58,287.67C122.24,287.5 121.89,287.33 121.52,287.17C121.12,287 120.69,286.84 120.26,286.68C119.81,286.51 119.33,286.35 118.86,286.19C118.39,286.02 117.91,285.86 117.45,285.69C117.01,285.53 116.56,285.37 116.16,285.2C115.79,285.04 115.44,284.89 115.13,284.71C114.86,284.55 114.6,284.39 114.4,284.21C114.23,284.06 114.08,283.89 113.99,283.72C113.91,283.56 113.85,283.4 113.84,283.23C113.83,283.07 113.86,282.89 113.9,282.73C113.94,282.56 114.01,282.4 114.08,282.24C114.15,282.08 114.23,281.92 114.3,281.75C114.37,281.59 114.45,281.42 114.49,281.25C114.53,281.09 114.56,280.92 114.56,280.76C114.56,280.6 114.54,280.43 114.5,280.27C114.46,280.1 114.39,279.93 114.32,279.77C114.25,279.6 114.15,279.44 114.07,279.28C113.98,279.12 113.89,278.96 113.81,278.79C113.73,278.63 113.65,278.46 113.59,278.29C113.53,278.13 113.48,277.96 113.44,277.8C113.4,277.64 113.36,277.47 113.34,277.31C113.31,277.14 113.3,276.98 113.29,276.81C113.28,276.65 113.28,276.48 113.27,276.32C113.27,276.16 113.26,275.99 113.26,275.83C113.26,275.66 113.25,275.5 113.25,275.33C113.25,275.17 113.25,275 113.25,274.84C113.25,274.68 113.25,274.51 113.25,274.35C113.25,274.18 113.25,274.02 113.25,273.85C113.25,273.69 113.25,273.52 113.25,273.36C113.25,273.2 113.25,273.03 113.25,272.87C113.25,272.7 113.25,272.54 113.25,272.37C113.25,272.21 113.25,272.04 113.25,271.88C113.25,271.71 113.25,271.55 113.25,271.38C113.25,271.22 113.25,271.05 113.25,270.89C113.25,270.73 113.25,270.56 113.25,270.4C113.25,270.23 113.25,270.07 113.25,269.9C113.25,269.74 113.25,269.57 113.25,269.41C113.25,269.25 113.25,269.08 113.25,268.92C113.25,268.75 113.25,268.59 113.25,268.42C113.25,268.26 113.25,268.09 113.25,267.93C113.25,267.77 113.25,267.6 113.25,267.44C113.25,267.27 113.25,267.11 113.25,266.94C113.25,266.78 113.25,266.61 113.25,266.45C113.25,266.29 113.25,266.12 113.25,265.96C113.25,265.79 113.25,265.63 113.25,265.46C113.25,265.3 113.25,265.13 113.25,264.97C113.25,264.81 113.26,264.64 113.26,264.48C113.26,264.31 113.26,264.15 113.27,263.98C113.27,263.82 113.28,263.65 113.29,263.49C113.3,263.33 113.32,263.16 113.34,263C113.36,262.83 113.39,262.66 113.43,262.5C113.47,262.33 113.52,262.17 113.58,262.01C113.64,261.84 113.72,261.68 113.8,261.52C113.88,261.35 113.97,261.19 114.06,261.02C114.14,260.86 114.24,260.7 114.31,260.53C114.38,260.37 114.46,260.21 114.5,260.04C114.54,259.88 114.56,259.71 114.56,259.54C114.56,259.38 114.53,259.21 114.49,259.05C114.45,258.88 114.37,258.72 114.3,258.56C114.22,258.39 114.13,258.23 114.04,258.06C113.96,257.9 113.87,257.73 113.79,257.57C113.71,257.41 113.64,257.25 113.58,257.08Q113.52,256.92 113.43,256.58L113.07,256.58Q112.98,256.92 112.92,257.08C112.86,257.25 112.79,257.41 112.71,257.57C112.63,257.73 112.54,257.9 112.46,258.06C112.37,258.23 112.28,258.39 112.2,258.56C112.13,258.72 112.05,258.88 112.01,259.05C111.97,259.21 111.94,259.38 111.94,259.54C111.94,259.71 111.96,259.88 112,260.04C112.04,260.21 112.12,260.37 112.19,260.53C112.26,260.7 112.36,260.86 112.44,261.02C112.53,261.19 112.62,261.35 112.7,261.52C112.78,261.68 112.86,261.84 112.92,262.01C112.98,262.17 113.03,262.33 113.07,262.5C113.11,262.66 113.14,262.83 113.16,263C113.18,263.16 113.2,263.33 113.21,263.49C113.22,263.65 113.23,263.82 113.23,263.98C113.24,264.15 113.24,264.31 113.24,264.48C113.24,264.64 113.25,264.81 113.25,264.97C113.25,265.13 113.25,265.3 113.25,265.46C113.25,265.63 113.25,265.79 113.25,265.96C113.25,266.12 113.25,266.29 113.25,266.45C113.25,266.61 113.25,266.78 113.25,266.94C113.25,267.11 113.25,267.27 113.25,267.44C113.25,267.6 113.25,267.77 113.25,267.93C113.25,268.09 113.25,268.26 113.25,268.42C113.25,268.59 113.25,268.75 113.25,268.92C113.25,269.08 113.25,269.25 113.25,269.41C113.25,269.57 113.25,269.74 113.25,269.9C113.25,270.07 113.25,270.23 113.25,270.4C113.25,270.56 113.25,270.73 113.25,270.89C113.25,271.05 113.25,271.22 113.25,271.38C113.25,271.55 113.25,271.71 113.25,271.88C113.25,272.04 113.25,272.21 113.25,272.37C113.25,272.54 113.25,272.7 113.25,272.87C113.25,273.03 113.25,273.2 113.25,273.36C113.25,273.52 113.25,273.69 113.25,273.85C113.25,274.02 113.25,274.18 113.25,274.35C113.25,274.51 113.25,274.68 113.25,274.84C113.25,275 113.25,275.17 113.25,275.33C113.25,275.5 113.24,275.66 113.24,275.83C113.24,275.99 113.23,276.16 113.23,276.32C113.22,276.48 113.22,276.65 113.21,276.81C113.2,276.98 113.19,277.14 113.16,277.31C113.14,277.47 113.1,277.64 113.06,277.8C113.02,277.96 112.97,278.13 112.91,278.29C112.85,278.46 112.77,278.63 112.69,278.79C112.61,278.96 112.52,279.12 112.43,279.28C112.35,279.44 112.25,279.6 112.18,279.77C112.11,279.93 112.04,280.1 112,280.27C111.96,280.43 111.94,280.6 111.94,280.76C111.94,280.92 111.97,281.09 112.01,281.25C112.05,281.42 112.13,281.59 112.2,281.75C112.27,281.92 112.35,282.08 112.42,282.24C112.49,282.4 112.56,282.56 112.6,282.73C112.64,282.89 112.67,283.07 112.66,283.23C112.65,283.4 112.59,283.56 112.51,283.72C112.42,283.89 112.27,284.06 112.1,284.21C111.9,284.39 111.64,284.55 111.37,284.71C111.06,284.89 110.71,285.04 110.34,285.2C109.94,285.37 109.49,285.53 109.05,285.69C108.59,285.86 108.11,286.02 107.64,286.19C107.17,286.35 106.69,286.51 106.24,286.68C105.81,286.84 105.38,287 104.98,287.17C104.61,287.33 104.26,287.5 103.92,287.67C103.6,287.83 103.3,288 103,288.16C102.7,288.32 102.41,288.49 102.1,288.65C101.78,288.82 101.45,288.99 101.1,289.15C100.73,289.32 100.34,289.48 99.94,289.64C99.52,289.81 99.08,289.97 98.63,290.13C98.16,290.3 97.68,290.47 97.19,290.63C96.68,290.8 96.16,290.96 95.62,291.12C95.04,291.29 94.45,291.45 93.82,291.61C93.13,291.78 92.4,291.95 91.63,292.11C90.78,292.28 89.88,292.44 88.93,292.6C87.89,292.77 86.78,292.93 85.65,293.09C84.43,293.26 83.16,293.43 81.86,293.59C80.5,293.76 79.08,293.92 77.67,294.08C76.22,294.25 74.74,294.4 73.28,294.57C71.82,294.73 70.34,294.9 68.92,295.07C67.56,295.23 66.18,295.39 64.91,295.56C63.76,295.72 62.6,295.86 61.64,296.05C60.87,296.2 59.96,296.29 59.58,296.55C59.38,296.69 59.18,296.9 59.23,297.04C59.32,297.28 60.29,297.39 61.01,297.53C62.09,297.74 63.6,297.88 65.12,298.03C66.99,298.22 69.19,298.36 71.4,298.52C73.86,298.69 76.56,298.86 79.2,299.02C81.94,299.19 84.81,299.34 87.55,299.51C90.2,299.67 92.89,299.83 95.38,300C97.65,300.16 99.87,300.32 101.87,300.5C103.59,300.65 105.23,300.81 106.65,300.99C107.8,301.14 108.87,301.29 109.77,301.48Q110.46,301.63 111.59,301.98Z" style="vector-effect: non-scaling-stroke; stroke-width: 2px; stroke: rgb(99, 110, 250); stroke-opacity: 1; fill: rgb(99, 110, 250); fill-opacity: 0.5;"/><g class="points"><path class="point" transform="translate(39.1,299)" d="M3,0A3,3 0 1,1 0,-3A3,3 0 0,1 3,0Z" style="opacity: 1; stroke-width: 0px; fill: rgb(99, 110, 250); fill-opacity: 1;"/><path class="point" transform="translate(23.64,298.75)" d="M3,0A3,3 0 1,1 0,-3A3,3 0 0,1 3,0Z" style="opacity: 1; stroke-width: 0px; fill: rgb(99, 110, 250); fill-opacity: 1;"/><path class="point" transform="translate(43.11,298.72)" d="M3,0A3,3 0 1,1 0,-3A3,3 0 0,1 3,0Z" style="opacity: 1; stroke-width: 0px; fill: rgb(99, 110, 250); fill-opacity: 1;"/><path class="point" transform="translate(21.22,298.66)" d="M3,0A3,3 0 1,1 0,-3A3,3 0 0,1 3,0Z" style="opacity: 1; stroke-width: 0px; fill: rgb(99, 110, 250); fill-opacity: 1;"/><path class="point" transform="translate(28.98,298.66)" d="M3,0A3,3 0 1,1 0,-3A3,3 0 0,1 3,0Z" style="opacity: 1; stroke-width: 0px; fill: rgb(99, 110, 250); fill-opacity: 1;"/><path class="point" transform="translate(39.49,298.66)" d="M3,0A3,3 0 1,1 0,-3A3,3 0 0,1 3,0Z" style="opacity: 1; stroke-width: 0px; fill: rgb(99, 110, 250); fill-opacity: 1;"/><path class="point" transform="translate(31.61,298.6)" d="M3,0A3,3 0 1,1 0,-3A3,3 0 0,1 3,0Z" style="opacity: 1; stroke-width: 0px; fill: rgb(99, 110, 250); fill-opacity: 1;"/><path class="point" transform="translate(36.91,298.57)" d="M3,0A3,3 0 1,1 0,-3A3,3 0 0,1 3,0Z" style="opacity: 1; stroke-width: 0px; fill: rgb(99, 110, 250); fill-opacity: 1;"/><path class="point" transform="translate(27.05,298.43)" d="M3,0A3,3 0 1,1 0,-3A3,3 0 0,1 3,0Z" style="opacity: 1; stroke-width: 0px; fill: rgb(99, 110, 250); fill-opacity: 1;"/><path class="point" transform="translate(20.98,298.37)" d="M3,0A3,3 0 1,1 0,-3A3,3 0 0,1 3,0Z" style="opacity: 1; stroke-width: 0px; fill: rgb(99, 110, 250); fill-opacity: 1;"/><path class="point" transform="translate(36.1,298.37)" d="M3,0A3,3 0 1,1 0,-3A3,3 0 0,1 3,0Z" style="opacity: 1; stroke-width: 0px; fill: rgb(99, 110, 250); fill-opacity: 1;"/><path class="point" transform="translate(27.31,298.35)" d="M3,0A3,3 0 1,1 0,-3A3,3 0 0,1 3,0Z" style="opacity: 1; stroke-width: 0px; fill: rgb(99, 110, 250); fill-opacity: 1;"/><path class="point" transform="translate(41.21,298.29)" d="M3,0A3,3 0 1,1 0,-3A3,3 0 0,1 3,0Z" style="opacity: 1; stroke-width: 0px; fill: rgb(99, 110, 250); fill-opacity: 1;"/><path class="point" transform="translate(17.29,298.2)" d="M3,0A3,3 0 1,1 0,-3A3,3 0 0,1 3,0Z" style="opacity: 1; stroke-width: 0px; fill: rgb(99, 110, 250); fill-opacity: 1;"/><path class="point" transform="translate(24.37,298.14)" d="M3,0A3,3 0 1,1 0,-3A3,3 0 0,1 3,0Z" style="opacity: 1; stroke-width: 0px; fill: rgb(99, 110, 250); fill-opacity: 1;"/><path class="point" transform="translate(43.72,298.09)" d="M3,0A3,3 0 1,1 0,-3A3,3 0 0,1 3,0Z" style="opacity: 1; stroke-width: 0px; fill: rgb(99, 110, 250); fill-opacity: 1;"/><path class="point" transform="translate(28.96,298.06)" d="M3,0A3,3 0 1,1 0,-3A3,3 0 0,1 3,0Z" style="opacity: 1; stroke-width: 0px; fill: rgb(99, 110, 250); fill-opacity: 1;"/><path class="point" transform="translate(21.27,297.97)" d="M3,0A3,3 0 1,1 0,-3A3,3 0 0,1 3,0Z" style="opacity: 1; stroke-width: 0px; fill: rgb(99, 110, 250); fill-opacity: 1;"/><path class="point" transform="translate(28.22,297.92)" d="M3,0A3,3 0 1,1 0,-3A3,3 0 0,1 3,0Z" style="opacity: 1; stroke-width: 0px; fill: rgb(99, 110, 250); fill-opacity: 1;"/><path class="point" transform="translate(31.95,297.71)" d="M3,0A3,3 0 1,1 0,-3A3,3 0 0,1 3,0Z" style="opacity: 1; stroke-width: 0px; fill: rgb(99, 110, 250); fill-opacity: 1;"/><path class="point" transform="translate(37.02,297.66)" d="M3,0A3,3 0 1,1 0,-3A3,3 0 0,1 3,0Z" style="opacity: 1; stroke-width: 0px; fill: rgb(99, 110, 250); fill-opacity: 1;"/><path class="point" transform="translate(33.39,297.63)" d="M3,0A3,3 0 1,1 0,-3A3,3 0 0,1 3,0Z" style="opacity: 1; stroke-width: 0px; fill: rgb(99, 110, 250); fill-opacity: 1;"/><path class="point" transform="translate(29.16,297.54)" d="M3,0A3,3 0 1,1 0,-3A3,3 0 0,1 3,0Z" style="opacity: 1; stroke-width: 0px; fill: rgb(99, 110, 250); fill-opacity: 1;"/><path class="point" transform="translate(23.03,297.37)" d="M3,0A3,3 0 1,1 0,-3A3,3 0 0,1 3,0Z" style="opacity: 1; stroke-width: 0px; fill: rgb(99, 110, 250); fill-opacity: 1;"/><path class="point" transform="translate(32.18,297.34)" d="M3,0A3,3 0 1,1 0,-3A3,3 0 0,1 3,0Z" style="opacity: 1; stroke-width: 0px; fill: rgb(99, 110, 250); fill-opacity: 1;"/><path class="point" transform="translate(29.05,297.03)" d="M3,0A3,3 0 1,1 0,-3A3,3 0 0,1 3,0Z" style="opacity: 1; stroke-width: 0px; fill: rgb(99, 110, 250); fill-opacity: 1;"/><path class="point" transform="translate(37.26,296.97)" d="M3,0A3,3 0 1,1 0,-3A3,3 0 0,1 3,0Z" style="opacity: 1; stroke-width: 0px; fill: rgb(99, 110, 250); fill-opacity: 1;"/><path class="point" transform="translate(31.24,296.94)" d="M3,0A3,3 0 1,1 0,-3A3,3 0 0,1 3,0Z" style="opacity: 1; stroke-width: 0px; fill: rgb(99, 110, 250); fill-opacity: 1;"/><path class="point" transform="translate(24.45,296.91)" d="M3,0A3,3 0 1,1 0,-3A3,3 0 0,1 3,0Z" style="opacity: 1; stroke-width: 0px; fill: rgb(99, 110, 250); fill-opacity: 1;"/><path class="point" transform="translate(20.95,296.71)" d="M3,0A3,3 0 1,1 0,-3A3,3 0 0,1 3,0Z" style="opacity: 1; stroke-width: 0px; fill: rgb(99, 110, 250); fill-opacity: 1;"/><path class="point" transform="translate(40.22,296.63)" d="M3,0A3,3 0 1,1 0,-3A3,3 0 0,1 3,0Z" style="opacity: 1; stroke-width: 0px; fill: rgb(99, 110, 250); fill-opacity: 1;"/><path class="point" transform="translate(19.79,296.6)" d="M3,0A3,3 0 1,1 0,-3A3,3 0 0,1 3,0Z" style="opacity: 1; stroke-width: 0px; fill: rgb(99, 110, 250); fill-opacity: 1;"/><path class="point" transform="translate(40.86,296.54)" d="M3,0A3,3 0 1,1 0,-3A3,3 0 0,1 3,0Z" style="opacity: 1; stroke-width: 0px; fill: rgb(99, 110, 250); fill-opacity: 1;"/><path class="point" transform="translate(35.39,296.51)" d="M3,0A3,3 0 1,1 0,-3A3,3 0 0,1 3,0Z" style="opacity: 1; stroke-width: 0px; fill: rgb(99, 110, 250); fill-opacity: 1;"/><path class="point" transform="translate(27.51,296.51)" d="M3,0A3,3 0 1,1 0,-3A3,3 0 0,1 3,0Z" style="opacity: 1; stroke-width: 0px; fill: rgb(99, 110, 250); fill-opacity: 1;"/><path class="point" transform="translate(23.61,296.43)" d="M3,0A3,3 0 1,1 0,-3A3,3 0 0,1 3,0Z" style="opacity: 1; stroke-width: 0px; fill: rgb(99, 110, 250); fill-opacity: 1;"/><path class="point" transform="translate(38.78,296.4)" d="M3,0A3,3 0 1,1 0,-3A3,3 0 0,1 3,0Z" style="opacity: 1; stroke-width: 0px; fill: rgb(99, 110, 250); fill-opacity: 1;"/><path class="point" transform="translate(30.76,296.37)" d="M3,0A3,3 0 1,1 0,-3A3,3 0 0,1 3,0Z" style="opacity: 1; stroke-width: 0px; fill: rgb(99, 110, 250); fill-opacity: 1;"/><path class="point" transform="translate(41.15,296.34)" d="M3,0A3,3 0 1,1 0,-3A3,3 0 0,1 3,0Z" style="opacity: 1; stroke-width: 0px; fill: rgb(99, 110, 250); fill-opacity: 1;"/><path class="point" transform="translate(22.06,296.23)" d="M3,0A3,3 0 1,1 0,-3A3,3 0 0,1 3,0Z" style="opacity: 1; stroke-width: 0px; fill: rgb(99, 110, 250); fill-opacity: 1;"/><path class="point" transform="translate(40.21,296.05)" d="M3,0A3,3 0 1,1 0,-3A3,3 0 0,1 3,0Z" style="opacity: 1; stroke-width: 0px; fill: rgb(99, 110, 250); fill-opacity: 1;"/><path class="point" transform="translate(31.18,296.02)" d="M3,0A3,3 0 1,1 0,-3A3,3 0 0,1 3,0Z" style="opacity: 1; stroke-width: 0px; fill: rgb(99, 110, 250); fill-opacity: 1;"/><path class="point" transform="translate(27.96,295.88)" d="M3,0A3,3 0 1,1 0,-3A3,3 0 0,1 3,0Z" style="opacity: 1; stroke-width: 0px; fill: rgb(99, 110, 250); fill-opacity: 1;"/><path class="point" transform="translate(22.67,295.8)" d="M3,0A3,3 0 1,1 0,-3A3,3 0 0,1 3,0Z" style="opacity: 1; stroke-width: 0px; fill: rgb(99, 110, 250); fill-opacity: 1;"/><path class="point" transform="translate(28.29,295.68)" d="M3,0A3,3 0 1,1 0,-3A3,3 0 0,1 3,0Z" style="opacity: 1; stroke-width: 0px; fill: rgb(99, 110, 250); fill-opacity: 1;"/><path class="point" transform="translate(39.08,295.65)" d="M3,0A3,3 0 1,1 0,-3A3,3 0 0,1 3,0Z" style="opacity: 1; stroke-width: 0px; fill: rgb(99, 110, 250); fill-opacity: 1;"/><path class="point" transform="translate(29.72,295.62)" d="M3,0A3,3 0 1,1 0,-3A3,3 0 0,1 3,0Z" style="opacity: 1; stroke-width: 0px; fill: rgb(99, 110, 250); fill-opacity: 1;"/><path class="point" transform="translate(24.51,295.34)" d="M3,0A3,3 0 1,1 0,-3A3,3 0 0,1 3,0Z" style="opacity: 1; stroke-width: 0px; fill: rgb(99, 110, 250); fill-opacity: 1;"/><path class="point" transform="translate(37.19,295.05)" d="M3,0A3,3 0 1,1 0,-3A3,3 0 0,1 3,0Z" style="opacity: 1; stroke-width: 0px; fill: rgb(99, 110, 250); fill-opacity: 1;"/><path class="point" transform="translate(26.7,295.02)" d="M3,0A3,3 0 1,1 0,-3A3,3 0 0,1 3,0Z" style="opacity: 1; stroke-width: 0px; fill: rgb(99, 110, 250); fill-opacity: 1;"/><path class="point" transform="translate(32.22,294.91)" d="M3,0A3,3 0 1,1 0,-3A3,3 0 0,1 3,0Z" style="opacity: 1; stroke-width: 0px; fill: rgb(99, 110, 250); fill-opacity: 1;"/><path class="point" transform="translate(36.67,294.91)" d="M3,0A3,3 0 1,1 0,-3A3,3 0 0,1 3,0Z" style="opacity: 1; stroke-width: 0px; fill: rgb(99, 110, 250); fill-opacity: 1;"/><path class="point" transform="translate(22.47,294.65)" d="M3,0A3,3 0 1,1 0,-3A3,3 0 0,1 3,0Z" style="opacity: 1; stroke-width: 0px; fill: rgb(99, 110, 250); fill-opacity: 1;"/><path class="point" transform="translate(42.1,294.65)" d="M3,0A3,3 0 1,1 0,-3A3,3 0 0,1 3,0Z" style="opacity: 1; stroke-width: 0px; fill: rgb(99, 110, 250); fill-opacity: 1;"/><path class="point" transform="translate(36.38,294.53)" d="M3,0A3,3 0 1,1 0,-3A3,3 0 0,1 3,0Z" style="opacity: 1; stroke-width: 0px; fill: rgb(99, 110, 250); fill-opacity: 1;"/><path class="point" transform="translate(23.34,294.51)" d="M3,0A3,3 0 1,1 0,-3A3,3 0 0,1 3,0Z" style="opacity: 1; stroke-width: 0px; fill: rgb(99, 110, 250); fill-opacity: 1;"/><path class="point" transform="translate(39.82,294.51)" d="M3,0A3,3 0 1,1 0,-3A3,3 0 0,1 3,0Z" style="opacity: 1; stroke-width: 0px; fill: rgb(99, 110, 250); fill-opacity: 1;"/><path class="point" transform="translate(24.57,294.13)" d="M3,0A3,3 0 1,1 0,-3A3,3 0 0,1 3,0Z" style="opacity: 1; stroke-width: 0px; fill: rgb(99, 110, 250); fill-opacity: 1;"/><path class="point" transform="translate(31.14,293.96)" d="M3,0A3,3 0 1,1 0,-3A3,3 0 0,1 3,0Z" style="opacity: 1; stroke-width: 0px; fill: rgb(99, 110, 250); fill-opacity: 1;"/><path class="point" transform="translate(33.33,293.82)" d="M3,0A3,3 0 1,1 0,-3A3,3 0 0,1 3,0Z" style="opacity: 1; stroke-width: 0px; fill: rgb(99, 110, 250); fill-opacity: 1;"/><path class="point" transform="translate(28.64,293.7)" d="M3,0A3,3 0 1,1 0,-3A3,3 0 0,1 3,0Z" style="opacity: 1; stroke-width: 0px; fill: rgb(99, 110, 250); fill-opacity: 1;"/><path class="point" transform="translate(37.21,293.59)" d="M3,0A3,3 0 1,1 0,-3A3,3 0 0,1 3,0Z" style="opacity: 1; stroke-width: 0px; fill: rgb(99, 110, 250); fill-opacity: 1;"/><path class="point" transform="translate(27.18,293.53)" d="M3,0A3,3 0 1,1 0,-3A3,3 0 0,1 3,0Z" style="opacity: 1; stroke-width: 0px; fill: rgb(99, 110, 250); fill-opacity: 1;"/><path class="point" transform="translate(35.2,293.13)" d="M3,0A3,3 0 1,1 0,-3A3,3 0 0,1 3,0Z" style="opacity: 1; stroke-width: 0px; fill: rgb(99, 110, 250); fill-opacity: 1;"/><path class="point" transform="translate(38.16,293.02)" d="M3,0A3,3 0 1,1 0,-3A3,3 0 0,1 3,0Z" style="opacity: 1; stroke-width: 0px; fill: rgb(99, 110, 250); fill-opacity: 1;"/><path class="point" transform="translate(25.98,292.87)" d="M3,0A3,3 0 1,1 0,-3A3,3 0 0,1 3,0Z" style="opacity: 1; stroke-width: 0px; fill: rgb(99, 110, 250); fill-opacity: 1;"/><path class="point" transform="translate(28.48,292.53)" d="M3,0A3,3 0 1,1 0,-3A3,3 0 0,1 3,0Z" style="opacity: 1; stroke-width: 0px; fill: rgb(99, 110, 250); fill-opacity: 1;"/><path class="point" transform="translate(35.76,292.27)" d="M3,0A3,3 0 1,1 0,-3A3,3 0 0,1 3,0Z" style="opacity: 1; stroke-width: 0px; fill: rgb(99, 110, 250); fill-opacity: 1;"/><path class="point" transform="translate(30.39,292.01)" d="M3,0A3,3 0 1,1 0,-3A3,3 0 0,1 3,0Z" style="opacity: 1; stroke-width: 0px; fill: rgb(99, 110, 250); fill-opacity: 1;"/><path class="point" transform="translate(32.78,291.99)" d="M3,0A3,3 0 1,1 0,-3A3,3 0 0,1 3,0Z" style="opacity: 1; stroke-width: 0px; fill: rgb(99, 110, 250); fill-opacity: 1;"/><path class="point" transform="translate(37.92,290.95)" d="M3,0A3,3 0 1,1 0,-3A3,3 0 0,1 3,0Z" style="opacity: 1; stroke-width: 0px; fill: rgb(99, 110, 250); fill-opacity: 1;"/><path class="point" transform="translate(26.76,290.95)" d="M3,0A3,3 0 1,1 0,-3A3,3 0 0,1 3,0Z" style="opacity: 1; stroke-width: 0px; fill: rgb(99, 110, 250); fill-opacity: 1;"/><path class="point" transform="translate(38.03,290.75)" d="M3,0A3,3 0 1,1 0,-3A3,3 0 0,1 3,0Z" style="opacity: 1; stroke-width: 0px; fill: rgb(99, 110, 250); fill-opacity: 1;"/><path class="point" transform="translate(27.83,290.7)" d="M3,0A3,3 0 1,1 0,-3A3,3 0 0,1 3,0Z" style="opacity: 1; stroke-width: 0px; fill: rgb(99, 110, 250); fill-opacity: 1;"/><path class="point" transform="translate(37.98,290.52)" d="M3,0A3,3 0 1,1 0,-3A3,3 0 0,1 3,0Z" style="opacity: 1; stroke-width: 0px; fill: rgb(99, 110, 250); fill-opacity: 1;"/><path class="point" transform="translate(29.31,290.18)" d="M3,0A3,3 0 1,1 0,-3A3,3 0 0,1 3,0Z" style="opacity: 1; stroke-width: 0px; fill: rgb(99, 110, 250); fill-opacity: 1;"/><path class="point" transform="translate(36.55,290.09)" d="M3,0A3,3 0 1,1 0,-3A3,3 0 0,1 3,0Z" style="opacity: 1; stroke-width: 0px; fill: rgb(99, 110, 250); fill-opacity: 1;"/><path class="point" transform="translate(33.78,288.72)" d="M3,0A3,3 0 1,1 0,-3A3,3 0 0,1 3,0Z" style="opacity: 1; stroke-width: 0px; fill: rgb(99, 110, 250); fill-opacity: 1;"/><path class="point" transform="translate(31.51,288.52)" d="M3,0A3,3 0 1,1 0,-3A3,3 0 0,1 3,0Z" style="opacity: 1; stroke-width: 0px; fill: rgb(99, 110, 250); fill-opacity: 1;"/><path class="point" transform="translate(28.91,288.43)" d="M3,0A3,3 0 1,1 0,-3A3,3 0 0,1 3,0Z" style="opacity: 1; stroke-width: 0px; fill: rgb(99, 110, 250); fill-opacity: 1;"/><path class="point" transform="translate(31.89,287.57)" d="M3,0A3,3 0 1,1 0,-3A3,3 0 0,1 3,0Z" style="opacity: 1; stroke-width: 0px; fill: rgb(99, 110, 250); fill-opacity: 1;"/><path class="point" transform="translate(30.64,287.29)" d="M3,0A3,3 0 1,1 0,-3A3,3 0 0,1 3,0Z" style="opacity: 1; stroke-width: 0px; fill: rgb(99, 110, 250); fill-opacity: 1;"/><path class="point" transform="translate(31.21,286.77)" d="M3,0A3,3 0 1,1 0,-3A3,3 0 0,1 3,0Z" style="opacity: 1; stroke-width: 0px; fill: rgb(99, 110, 250); fill-opacity: 1;"/><path class="point" transform="translate(30.88,286.37)" d="M3,0A3,3 0 1,1 0,-3A3,3 0 0,1 3,0Z" style="opacity: 1; stroke-width: 0px; fill: rgb(99, 110, 250); fill-opacity: 1;"/><path class="point" transform="translate(30.64,280.73)" d="M3,0A3,3 0 1,1 0,-3A3,3 0 0,1 3,0Z" style="opacity: 1; stroke-width: 0px; fill: rgb(99, 110, 250); fill-opacity: 1;"/><path class="point" transform="translate(31.44,259.55)" d="M3,0A3,3 0 1,1 0,-3A3,3 0 0,1 3,0Z" style="opacity: 1; stroke-width: 0px; fill: rgb(99, 110, 250); fill-opacity: 1;"/></g></g><g class="trace violins" style="opacity: 1;"><path class="violin" d="M334.21,304Q334.52,303.45 334.75,303.19C335.01,302.9 335.35,302.62 335.73,302.37C336.19,302.07 336.74,301.81 337.34,301.56C338.05,301.26 338.88,301 339.75,300.75C340.76,300.46 341.9,300.19 343.08,299.93C344.41,299.64 345.85,299.38 347.33,299.12C348.94,298.84 350.66,298.57 352.4,298.31C354.23,298.03 356.14,297.76 358.03,297.49C359.95,297.22 361.93,296.96 363.83,296.68C365.66,296.41 367.52,296.15 369.21,295.86C370.71,295.6 372.25,295.37 373.46,295.05C374.39,294.81 375.52,294.64 375.88,294.24C376.09,294.01 376.19,293.65 376.07,293.42C375.87,293.04 374.82,292.85 374.02,292.61C372.95,292.29 371.55,292.06 370.19,291.8C368.67,291.51 366.97,291.25 365.32,290.98C363.62,290.7 361.83,290.44 360.12,290.17C358.45,289.9 356.76,289.64 355.16,289.36C353.65,289.1 352.16,288.82 350.76,288.54C349.47,288.28 348.22,288.01 347.05,287.73C345.99,287.47 344.97,287.21 344.03,286.92C343.19,286.66 342.39,286.39 341.66,286.1C341,285.84 340.39,285.58 339.83,285.29C339.33,285.03 338.87,284.76 338.44,284.48C338.05,284.22 337.69,283.94 337.36,283.66C337.05,283.4 336.76,283.13 336.5,282.85C336.25,282.58 336.01,282.31 335.8,282.03C335.6,281.77 335.42,281.5 335.27,281.22C335.13,280.96 335.01,280.69 334.93,280.41C334.85,280.14 334.81,279.86 334.79,279.59C334.77,279.32 334.79,279.05 334.82,278.78C334.85,278.51 334.91,278.24 334.96,277.97C335.01,277.7 335.07,277.42 335.11,277.15C335.14,276.88 335.17,276.61 335.17,276.34C335.17,276.07 335.15,275.8 335.11,275.53C335.07,275.26 335,274.98 334.93,274.71C334.85,274.44 334.75,274.17 334.66,273.9C334.57,273.63 334.47,273.36 334.38,273.09C334.29,272.82 334.21,272.54 334.14,272.27C334.07,272 334.02,271.73 333.97,271.46C333.92,271.19 333.89,270.91 333.86,270.64C333.83,270.37 333.82,270.1 333.8,269.83C333.79,269.56 333.78,269.29 333.77,269.02C333.76,268.75 333.76,268.47 333.76,268.2C333.76,267.93 333.75,267.66 333.75,267.39C333.75,267.12 333.75,266.85 333.75,266.58C333.75,266.31 333.75,266.03 333.75,265.76C333.75,265.49 333.75,265.22 333.75,264.95C333.75,264.68 333.75,264.41 333.75,264.14C333.75,263.87 333.75,263.59 333.75,263.32C333.75,263.05 333.75,262.78 333.75,262.51C333.75,262.24 333.75,261.97 333.75,261.7C333.75,261.43 333.75,261.15 333.75,260.88C333.75,260.61 333.75,260.34 333.75,260.07C333.75,259.8 333.75,259.53 333.75,259.26C333.75,258.99 333.75,258.71 333.75,258.44C333.75,258.17 333.75,257.9 333.75,257.63C333.75,257.36 333.75,257.08 333.75,256.81C333.75,256.54 333.75,256.27 333.75,256C333.75,255.73 333.75,255.46 333.75,255.19C333.75,254.92 333.75,254.64 333.75,254.37C333.75,254.1 333.75,253.83 333.75,253.56C333.75,253.29 333.75,253.02 333.75,252.75C333.75,252.48 333.75,252.2 333.75,251.93C333.75,251.66 333.75,251.39 333.75,251.12C333.75,250.85 333.75,250.58 333.75,250.31C333.75,250.04 333.75,249.76 333.75,249.49C333.75,249.22 333.75,248.95 333.75,248.68C333.75,248.41 333.75,248.14 333.75,247.87C333.75,247.6 333.75,247.32 333.75,247.05C333.75,246.78 333.75,246.51 333.75,246.24C333.75,245.97 333.75,245.7 333.75,245.43C333.75,245.16 333.75,244.88 333.75,244.61C333.75,244.34 333.75,244.07 333.75,243.8C333.75,243.53 333.75,243.25 333.75,242.98C333.75,242.71 333.75,242.44 333.75,242.17C333.75,241.9 333.75,241.63 333.75,241.36C333.75,241.09 333.75,240.81 333.75,240.54C333.75,240.27 333.75,240 333.75,239.73C333.75,239.46 333.75,239.19 333.75,238.92C333.75,238.65 333.75,238.37 333.75,238.1C333.75,237.83 333.75,237.56 333.75,237.29C333.75,237.02 333.75,236.75 333.75,236.48C333.75,236.21 333.75,235.93 333.75,235.66C333.75,235.39 333.75,235.12 333.75,234.85C333.75,234.58 333.75,234.31 333.75,234.04C333.75,233.77 333.75,233.49 333.75,233.22C333.75,232.95 333.75,232.68 333.75,232.41C333.75,232.14 333.75,231.87 333.75,231.6C333.75,231.33 333.75,231.05 333.75,230.78C333.75,230.51 333.75,230.24 333.75,229.97C333.75,229.7 333.75,229.42 333.75,229.15C333.75,228.88 333.75,228.61 333.75,228.34C333.75,228.07 333.75,227.8 333.75,227.53C333.75,227.26 333.75,226.98 333.75,226.71C333.75,226.44 333.75,226.17 333.75,225.9C333.75,225.63 333.75,225.36 333.75,225.09C333.75,224.82 333.75,224.54 333.75,224.27C333.75,224 333.75,223.73 333.75,223.46C333.75,223.19 333.75,222.92 333.75,222.65C333.75,222.38 333.75,222.1 333.75,221.83C333.75,221.56 333.75,221.29 333.75,221.02C333.75,220.75 333.75,220.48 333.75,220.21C333.75,219.94 333.75,219.66 333.75,219.39C333.75,219.12 333.75,218.85 333.75,218.58C333.75,218.31 333.75,218.03 333.75,217.76C333.75,217.49 333.75,217.22 333.75,216.95C333.75,216.68 333.75,216.41 333.75,216.14C333.75,215.87 333.75,215.59 333.75,215.32C333.75,215.05 333.75,214.78 333.75,214.51C333.75,214.24 333.75,213.97 333.75,213.7C333.75,213.43 333.75,213.15 333.75,212.88C333.75,212.61 333.75,212.34 333.75,212.07C333.75,211.8 333.75,211.53 333.75,211.26C333.75,210.99 333.75,210.71 333.75,210.44C333.75,210.17 333.75,209.9 333.75,209.63C333.75,209.36 333.75,209.09 333.75,208.82C333.75,208.55 333.75,208.27 333.75,208C333.75,207.73 333.75,207.46 333.75,207.19C333.75,206.92 333.75,206.65 333.75,206.38C333.75,206.11 333.75,205.83 333.75,205.56C333.75,205.29 333.75,205.02 333.75,204.75C333.75,204.48 333.75,204.2 333.75,203.93C333.75,203.66 333.75,203.39 333.75,203.12C333.75,202.85 333.75,202.58 333.75,202.31C333.75,202.04 333.75,201.76 333.75,201.49C333.75,201.22 333.75,200.95 333.75,200.68C333.75,200.41 333.75,200.14 333.75,199.87C333.75,199.6 333.75,199.32 333.75,199.05C333.75,198.78 333.75,198.51 333.75,198.24C333.75,197.97 333.75,197.7 333.75,197.43C333.75,197.16 333.75,196.88 333.75,196.61C333.75,196.34 333.75,196.07 333.75,195.8C333.75,195.53 333.75,195.26 333.75,194.99C333.75,194.72 333.75,194.44 333.75,194.17C333.75,193.9 333.75,193.63 333.75,193.36C333.75,193.09 333.75,192.82 333.75,192.55C333.75,192.28 333.75,192 333.75,191.73C333.75,191.46 333.75,191.19 333.75,190.92C333.75,190.65 333.75,190.37 333.75,190.1C333.75,189.83 333.75,189.56 333.75,189.29C333.75,189.02 333.75,188.75 333.75,188.48C333.75,188.21 333.75,187.93 333.75,187.66C333.75,187.39 333.75,187.12 333.75,186.85C333.75,186.58 333.75,186.31 333.75,186.04C333.75,185.77 333.75,185.49 333.75,185.22C333.75,184.95 333.75,184.68 333.75,184.41C333.75,184.14 333.75,183.87 333.75,183.6C333.75,183.33 333.75,183.05 333.75,182.78C333.75,182.51 333.75,182.24 333.75,181.97C333.75,181.7 333.75,181.43 333.75,181.16C333.75,180.89 333.75,180.61 333.75,180.34C333.75,180.07 333.75,179.8 333.75,179.53C333.75,179.26 333.75,178.99 333.75,178.72C333.75,178.45 333.75,178.17 333.75,177.9C333.75,177.63 333.75,177.36 333.75,177.09C333.75,176.82 333.75,176.54 333.75,176.27C333.75,176 333.75,175.73 333.75,175.46C333.75,175.19 333.75,174.92 333.75,174.65C333.75,174.38 333.75,174.1 333.75,173.83C333.75,173.56 333.75,173.29 333.75,173.02C333.75,172.75 333.75,172.48 333.75,172.21C333.75,171.94 333.75,171.66 333.75,171.39C333.75,171.12 333.75,170.85 333.75,170.58C333.75,170.31 333.75,170.04 333.75,169.77C333.75,169.5 333.75,169.22 333.75,168.95C333.75,168.68 333.75,168.41 333.75,168.14C333.75,167.87 333.75,167.6 333.75,167.33C333.75,167.06 333.75,166.78 333.75,166.51C333.75,166.24 333.75,165.97 333.75,165.7C333.75,165.43 333.75,165.15 333.75,164.88C333.75,164.61 333.75,164.34 333.75,164.07C333.75,163.8 333.75,163.53 333.75,163.26C333.75,162.99 333.75,162.71 333.75,162.44C333.75,162.17 333.75,161.9 333.75,161.63C333.75,161.36 333.75,161.09 333.75,160.82C333.75,160.55 333.75,160.27 333.75,160C333.75,159.73 333.75,159.46 333.75,159.19C333.75,158.92 333.75,158.65 333.75,158.38C333.75,158.11 333.75,157.83 333.75,157.56C333.75,157.29 333.75,157.02 333.75,156.75C333.75,156.48 333.75,156.21 333.75,155.94C333.75,155.67 333.75,155.39 333.75,155.12C333.75,154.85 333.75,154.58 333.75,154.31C333.75,154.04 333.75,153.77 333.75,153.5C333.75,153.23 333.75,152.95 333.75,152.68C333.75,152.41 333.75,152.14 333.75,151.87C333.75,151.6 333.75,151.32 333.75,151.05C333.75,150.78 333.75,150.51 333.75,150.24C333.75,149.97 333.75,149.7 333.75,149.43C333.75,149.16 333.75,148.88 333.75,148.61C333.75,148.34 333.75,148.07 333.75,147.8C333.75,147.53 333.75,147.26 333.75,146.99C333.75,146.72 333.75,146.44 333.75,146.17C333.75,145.9 333.75,145.63 333.75,145.36C333.75,145.09 333.75,144.82 333.75,144.55C333.75,144.28 333.75,144 333.75,143.73C333.75,143.46 333.75,143.19 333.75,142.92C333.75,142.65 333.75,142.38 333.75,142.11C333.75,141.84 333.75,141.56 333.75,141.29C333.75,141.02 333.75,140.75 333.75,140.48C333.75,140.21 333.75,139.94 333.75,139.67C333.75,139.4 333.75,139.12 333.75,138.85C333.75,138.58 333.75,138.31 333.75,138.04C333.75,137.77 333.75,137.49 333.75,137.22C333.75,136.95 333.75,136.68 333.75,136.41C333.75,136.14 333.75,135.87 333.75,135.6C333.75,135.33 333.75,135.05 333.75,134.78C333.75,134.51 333.75,134.24 333.75,133.97C333.75,133.7 333.75,133.43 333.75,133.16C333.75,132.89 333.75,132.61 333.75,132.34C333.75,132.07 333.75,131.8 333.75,131.53C333.75,131.26 333.75,130.99 333.75,130.72C333.75,130.45 333.75,130.17 333.75,129.9C333.75,129.63 333.75,129.36 333.75,129.09C333.75,128.82 333.75,128.55 333.75,128.28C333.75,128.01 333.75,127.73 333.75,127.46C333.75,127.19 333.75,126.92 333.75,126.65C333.75,126.38 333.75,126.11 333.75,125.84C333.75,125.57 333.75,125.29 333.75,125.02C333.75,124.75 333.75,124.48 333.75,124.21C333.75,123.94 333.75,123.66 333.75,123.39C333.75,123.12 333.75,122.85 333.75,122.58C333.75,122.31 333.75,122.04 333.75,121.77C333.75,121.5 333.75,121.22 333.75,120.95C333.75,120.68 333.75,120.41 333.75,120.14C333.75,119.87 333.75,119.6 333.75,119.33C333.75,119.06 333.75,118.78 333.75,118.51C333.75,118.24 333.75,117.97 333.75,117.7C333.75,117.43 333.75,117.16 333.75,116.89C333.75,116.62 333.75,116.34 333.75,116.07C333.75,115.8 333.75,115.53 333.75,115.26C333.75,114.99 333.75,114.72 333.75,114.45C333.75,114.18 333.75,113.9 333.75,113.63C333.75,113.36 333.75,113.09 333.75,112.82C333.75,112.55 333.75,112.27 333.75,112C333.75,111.73 333.75,111.46 333.75,111.19C333.75,110.92 333.75,110.65 333.75,110.38C333.75,110.11 333.75,109.83 333.75,109.56C333.75,109.29 333.75,109.02 333.75,108.75C333.75,108.48 333.75,108.21 333.75,107.94C333.75,107.67 333.75,107.39 333.75,107.12C333.75,106.85 333.75,106.58 333.75,106.31C333.75,106.04 333.75,105.77 333.75,105.5C333.75,105.23 333.75,104.95 333.75,104.68C333.75,104.41 333.75,104.14 333.75,103.87C333.75,103.6 333.75,103.33 333.75,103.06C333.75,102.79 333.75,102.51 333.75,102.24C333.75,101.97 333.75,101.7 333.75,101.43C333.75,101.16 333.75,100.89 333.75,100.62C333.75,100.35 333.75,100.07 333.75,99.8C333.75,99.53 333.75,99.26 333.75,98.99C333.75,98.72 333.75,98.44 333.75,98.17C333.75,97.9 333.75,97.63 333.75,97.36C333.75,97.09 333.75,96.82 333.75,96.55C333.75,96.28 333.75,96 333.75,95.73C333.75,95.46 333.75,95.19 333.75,94.92C333.75,94.65 333.75,94.38 333.75,94.11C333.75,93.84 333.75,93.56 333.75,93.29C333.75,93.02 333.75,92.75 333.75,92.48C333.75,92.21 333.75,91.94 333.75,91.67C333.75,91.4 333.75,91.12 333.75,90.85C333.75,90.58 333.75,90.31 333.75,90.04C333.75,89.77 333.75,89.5 333.75,89.23C333.75,88.96 333.75,88.68 333.75,88.41C333.75,88.14 333.75,87.87 333.75,87.6C333.75,87.33 333.75,87.06 333.75,86.79C333.75,86.52 333.75,86.24 333.75,85.97C333.75,85.7 333.75,85.43 333.75,85.16C333.75,84.89 333.75,84.61 333.75,84.34C333.75,84.07 333.75,83.8 333.75,83.53C333.75,83.26 333.75,82.99 333.75,82.72C333.75,82.45 333.75,82.17 333.75,81.9C333.75,81.63 333.75,81.36 333.75,81.09C333.75,80.82 333.75,80.55 333.75,80.28C333.75,80.01 333.75,79.73 333.75,79.46C333.75,79.19 333.76,78.92 333.76,78.65C333.77,78.38 333.77,78.11 333.78,77.84C333.79,77.57 333.8,77.29 333.81,77.02C333.82,76.75 333.84,76.48 333.86,76.21C333.88,75.94 333.91,75.67 333.95,75.4C333.99,75.13 334.03,74.85 334.08,74.58C334.12,74.31 334.17,74.04 334.22,73.77C334.26,73.5 334.32,73.23 334.35,72.96C334.39,72.69 334.41,72.41 334.43,72.14C334.45,71.87 334.46,71.6 334.45,71.33C334.44,71.06 334.42,70.78 334.39,70.51C334.36,70.24 334.31,69.97 334.27,69.7C334.23,69.43 334.18,69.16 334.14,68.89C334.09,68.62 334.04,68.34 334,68.07C333.96,67.8 333.93,67.53 333.9,67.26C333.87,66.99 333.85,66.72 333.83,66.45C333.81,66.18 333.8,65.9 333.79,65.63C333.78,65.36 333.78,65.09 333.77,64.82C333.77,64.55 333.76,64.28 333.76,64.01C333.76,63.74 333.75,63.46 333.75,63.19C333.75,62.92 333.76,62.65 333.76,62.38C333.76,62.11 333.76,61.84 333.77,61.57C333.78,61.3 333.79,61.02 333.8,60.75C333.81,60.48 333.82,60.21 333.84,59.94C333.86,59.67 333.89,59.39 333.92,59.12C333.95,58.85 334,58.58 334.04,58.31C334.08,58.04 334.14,57.77 334.18,57.5C334.23,57.23 334.27,56.95 334.31,56.68C334.35,56.41 334.39,56.14 334.41,55.87C334.43,55.6 334.45,55.33 334.45,55.06C334.45,54.79 334.43,54.51 334.41,54.24C334.39,53.97 334.35,53.7 334.31,53.43C334.27,53.16 334.22,52.89 334.18,52.62C334.13,52.35 334.08,52.07 334.04,51.8C334,51.53 333.95,51.26 333.92,50.99Q333.89,50.72 333.84,50.18L333.66,50.18Q333.61,50.72 333.58,50.99C333.55,51.26 333.5,51.53 333.46,51.8C333.42,52.07 333.37,52.35 333.32,52.62C333.28,52.89 333.23,53.16 333.19,53.43C333.15,53.7 333.11,53.97 333.09,54.24C333.07,54.51 333.05,54.79 333.05,55.06C333.05,55.33 333.07,55.6 333.09,55.87C333.11,56.14 333.15,56.41 333.19,56.68C333.23,56.95 333.27,57.23 333.32,57.5C333.36,57.77 333.42,58.04 333.46,58.31C333.5,58.58 333.55,58.85 333.58,59.12C333.61,59.39 333.64,59.67 333.66,59.94C333.68,60.21 333.69,60.48 333.7,60.75C333.71,61.02 333.72,61.3 333.73,61.57C333.74,61.84 333.74,62.11 333.74,62.38C333.74,62.65 333.75,62.92 333.75,63.19C333.75,63.46 333.74,63.74 333.74,64.01C333.74,64.28 333.73,64.55 333.73,64.82C333.72,65.09 333.72,65.36 333.71,65.63C333.7,65.9 333.69,66.18 333.67,66.45C333.65,66.72 333.63,66.99 333.6,67.26C333.57,67.53 333.54,67.8 333.5,68.07C333.46,68.34 333.41,68.62 333.36,68.89C333.32,69.16 333.27,69.43 333.23,69.7C333.19,69.97 333.14,70.24 333.11,70.51C333.08,70.78 333.06,71.06 333.05,71.33C333.04,71.6 333.05,71.87 333.07,72.14C333.09,72.41 333.11,72.69 333.15,72.96C333.18,73.23 333.24,73.5 333.28,73.77C333.33,74.04 333.38,74.31 333.42,74.58C333.47,74.85 333.51,75.13 333.55,75.4C333.59,75.67 333.62,75.94 333.64,76.21C333.66,76.48 333.68,76.75 333.69,77.02C333.7,77.29 333.71,77.57 333.72,77.84C333.73,78.11 333.73,78.38 333.74,78.65C333.74,78.92 333.75,79.19 333.75,79.46C333.75,79.73 333.75,80.01 333.75,80.28C333.75,80.55 333.75,80.82 333.75,81.09C333.75,81.36 333.75,81.63 333.75,81.9C333.75,82.17 333.75,82.45 333.75,82.72C333.75,82.99 333.75,83.26 333.75,83.53C333.75,83.8 333.75,84.07 333.75,84.34C333.75,84.61 333.75,84.89 333.75,85.16C333.75,85.43 333.75,85.7 333.75,85.97C333.75,86.24 333.75,86.52 333.75,86.79C333.75,87.06 333.75,87.33 333.75,87.6C333.75,87.87 333.75,88.14 333.75,88.41C333.75,88.68 333.75,88.96 333.75,89.23C333.75,89.5 333.75,89.77 333.75,90.04C333.75,90.31 333.75,90.58 333.75,90.85C333.75,91.12 333.75,91.4 333.75,91.67C333.75,91.94 333.75,92.21 333.75,92.48C333.75,92.75 333.75,93.02 333.75,93.29C333.75,93.56 333.75,93.84 333.75,94.11C333.75,94.38 333.75,94.65 333.75,94.92C333.75,95.19 333.75,95.46 333.75,95.73C333.75,96 333.75,96.28 333.75,96.55C333.75,96.82 333.75,97.09 333.75,97.36C333.75,97.63 333.75,97.9 333.75,98.17C333.75,98.44 333.75,98.72 333.75,98.99C333.75,99.26 333.75,99.53 333.75,99.8C333.75,100.07 333.75,100.35 333.75,100.62C333.75,100.89 333.75,101.16 333.75,101.43C333.75,101.7 333.75,101.97 333.75,102.24C333.75,102.51 333.75,102.79 333.75,103.06C333.75,103.33 333.75,103.6 333.75,103.87C333.75,104.14 333.75,104.41 333.75,104.68C333.75,104.95 333.75,105.23 333.75,105.5C333.75,105.77 333.75,106.04 333.75,106.31C333.75,106.58 333.75,106.85 333.75,107.12C333.75,107.39 333.75,107.67 333.75,107.94C333.75,108.21 333.75,108.48 333.75,108.75C333.75,109.02 333.75,109.29 333.75,109.56C333.75,109.83 333.75,110.11 333.75,110.38C333.75,110.65 333.75,110.92 333.75,111.19C333.75,111.46 333.75,111.73 333.75,112C333.75,112.27 333.75,112.55 333.75,112.82C333.75,113.09 333.75,113.36 333.75,113.63C333.75,113.9 333.75,114.18 333.75,114.45C333.75,114.72 333.75,114.99 333.75,115.26C333.75,115.53 333.75,115.8 333.75,116.07C333.75,116.34 333.75,116.62 333.75,116.89C333.75,117.16 333.75,117.43 333.75,117.7C333.75,117.97 333.75,118.24 333.75,118.51C333.75,118.78 333.75,119.06 333.75,119.33C333.75,119.6 333.75,119.87 333.75,120.14C333.75,120.41 333.75,120.68 333.75,120.95C333.75,121.22 333.75,121.5 333.75,121.77C333.75,122.04 333.75,122.31 333.75,122.58C333.75,122.85 333.75,123.12 333.75,123.39C333.75,123.66 333.75,123.94 333.75,124.21C333.75,124.48 333.75,124.75 333.75,125.02C333.75,125.29 333.75,125.57 333.75,125.84C333.75,126.11 333.75,126.38 333.75,126.65C333.75,126.92 333.75,127.19 333.75,127.46C333.75,127.73 333.75,128.01 333.75,128.28C333.75,128.55 333.75,128.82 333.75,129.09C333.75,129.36 333.75,129.63 333.75,129.9C333.75,130.17 333.75,130.45 333.75,130.72C333.75,130.99 333.75,131.26 333.75,131.53C333.75,131.8 333.75,132.07 333.75,132.34C333.75,132.61 333.75,132.89 333.75,133.16C333.75,133.43 333.75,133.7 333.75,133.97C333.75,134.24 333.75,134.51 333.75,134.78C333.75,135.05 333.75,135.33 333.75,135.6C333.75,135.87 333.75,136.14 333.75,136.41C333.75,136.68 333.75,136.95 333.75,137.22C333.75,137.49 333.75,137.77 333.75,138.04C333.75,138.31 333.75,138.58 333.75,138.85C333.75,139.12 333.75,139.4 333.75,139.67C333.75,139.94 333.75,140.21 333.75,140.48C333.75,140.75 333.75,141.02 333.75,141.29C333.75,141.56 333.75,141.84 333.75,142.11C333.75,142.38 333.75,142.65 333.75,142.92C333.75,143.19 333.75,143.46 333.75,143.73C333.75,144 333.75,144.28 333.75,144.55C333.75,144.82 333.75,145.09 333.75,145.36C333.75,145.63 333.75,145.9 333.75,146.17C333.75,146.44 333.75,146.72 333.75,146.99C333.75,147.26 333.75,147.53 333.75,147.8C333.75,148.07 333.75,148.34 333.75,148.61C333.75,148.88 333.75,149.16 333.75,149.43C333.75,149.7 333.75,149.97 333.75,150.24C333.75,150.51 333.75,150.78 333.75,151.05C333.75,151.32 333.75,151.6 333.75,151.87C333.75,152.14 333.75,152.41 333.75,152.68C333.75,152.95 333.75,153.23 333.75,153.5C333.75,153.77 333.75,154.04 333.75,154.31C333.75,154.58 333.75,154.85 333.75,155.12C333.75,155.39 333.75,155.67 333.75,155.94C333.75,156.21 333.75,156.48 333.75,156.75C333.75,157.02 333.75,157.29 333.75,157.56C333.75,157.83 333.75,158.11 333.75,158.38C333.75,158.65 333.75,158.92 333.75,159.19C333.75,159.46 333.75,159.73 333.75,160C333.75,160.27 333.75,160.55 333.75,160.82C333.75,161.09 333.75,161.36 333.75,161.63C333.75,161.9 333.75,162.17 333.75,162.44C333.75,162.71 333.75,162.99 333.75,163.26C333.75,163.53 333.75,163.8 333.75,164.07C333.75,164.34 333.75,164.61 333.75,164.88C333.75,165.15 333.75,165.43 333.75,165.7C333.75,165.97 333.75,166.24 333.75,166.51C333.75,166.78 333.75,167.06 333.75,167.33C333.75,167.6 333.75,167.87 333.75,168.14C333.75,168.41 333.75,168.68 333.75,168.95C333.75,169.22 333.75,169.5 333.75,169.77C333.75,170.04 333.75,170.31 333.75,170.58C333.75,170.85 333.75,171.12 333.75,171.39C333.75,171.66 333.75,171.94 333.75,172.21C333.75,172.48 333.75,172.75 333.75,173.02C333.75,173.29 333.75,173.56 333.75,173.83C333.75,174.1 333.75,174.38 333.75,174.65C333.75,174.92 333.75,175.19 333.75,175.46C333.75,175.73 333.75,176 333.75,176.27C333.75,176.54 333.75,176.82 333.75,177.09C333.75,177.36 333.75,177.63 333.75,177.9C333.75,178.17 333.75,178.45 333.75,178.72C333.75,178.99 333.75,179.26 333.75,179.53C333.75,179.8 333.75,180.07 333.75,180.34C333.75,180.61 333.75,180.89 333.75,181.16C333.75,181.43 333.75,181.7 333.75,181.97C333.75,182.24 333.75,182.51 333.75,182.78C333.75,183.05 333.75,183.33 333.75,183.6C333.75,183.87 333.75,184.14 333.75,184.41C333.75,184.68 333.75,184.95 333.75,185.22C333.75,185.49 333.75,185.77 333.75,186.04C333.75,186.31 333.75,186.58 333.75,186.85C333.75,187.12 333.75,187.39 333.75,187.66C333.75,187.93 333.75,188.21 333.75,188.48C333.75,188.75 333.75,189.02 333.75,189.29C333.75,189.56 333.75,189.83 333.75,190.1C333.75,190.37 333.75,190.65 333.75,190.92C333.75,191.19 333.75,191.46 333.75,191.73C333.75,192 333.75,192.28 333.75,192.55C333.75,192.82 333.75,193.09 333.75,193.36C333.75,193.63 333.75,193.9 333.75,194.17C333.75,194.44 333.75,194.72 333.75,194.99C333.75,195.26 333.75,195.53 333.75,195.8C333.75,196.07 333.75,196.34 333.75,196.61C333.75,196.88 333.75,197.16 333.75,197.43C333.75,197.7 333.75,197.97 333.75,198.24C333.75,198.51 333.75,198.78 333.75,199.05C333.75,199.32 333.75,199.6 333.75,199.87C333.75,200.14 333.75,200.41 333.75,200.68C333.75,200.95 333.75,201.22 333.75,201.49C333.75,201.76 333.75,202.04 333.75,202.31C333.75,202.58 333.75,202.85 333.75,203.12C333.75,203.39 333.75,203.66 333.75,203.93C333.75,204.2 333.75,204.48 333.75,204.75C333.75,205.02 333.75,205.29 333.75,205.56C333.75,205.83 333.75,206.11 333.75,206.38C333.75,206.65 333.75,206.92 333.75,207.19C333.75,207.46 333.75,207.73 333.75,208C333.75,208.27 333.75,208.55 333.75,208.82C333.75,209.09 333.75,209.36 333.75,209.63C333.75,209.9 333.75,210.17 333.75,210.44C333.75,210.71 333.75,210.99 333.75,211.26C333.75,211.53 333.75,211.8 333.75,212.07C333.75,212.34 333.75,212.61 333.75,212.88C333.75,213.15 333.75,213.43 333.75,213.7C333.75,213.97 333.75,214.24 333.75,214.51C333.75,214.78 333.75,215.05 333.75,215.32C333.75,215.59 333.75,215.87 333.75,216.14C333.75,216.41 333.75,216.68 333.75,216.95C333.75,217.22 333.75,217.49 333.75,217.76C333.75,218.03 333.75,218.31 333.75,218.58C333.75,218.85 333.75,219.12 333.75,219.39C333.75,219.66 333.75,219.94 333.75,220.21C333.75,220.48 333.75,220.75 333.75,221.02C333.75,221.29 333.75,221.56 333.75,221.83C333.75,222.1 333.75,222.38 333.75,222.65C333.75,222.92 333.75,223.19 333.75,223.46C333.75,223.73 333.75,224 333.75,224.27C333.75,224.54 333.75,224.82 333.75,225.09C333.75,225.36 333.75,225.63 333.75,225.9C333.75,226.17 333.75,226.44 333.75,226.71C333.75,226.98 333.75,227.26 333.75,227.53C333.75,227.8 333.75,228.07 333.75,228.34C333.75,228.61 333.75,228.88 333.75,229.15C333.75,229.42 333.75,229.7 333.75,229.97C333.75,230.24 333.75,230.51 333.75,230.78C333.75,231.05 333.75,231.33 333.75,231.6C333.75,231.87 333.75,232.14 333.75,232.41C333.75,232.68 333.75,232.95 333.75,233.22C333.75,233.49 333.75,233.77 333.75,234.04C333.75,234.31 333.75,234.58 333.75,234.85C333.75,235.12 333.75,235.39 333.75,235.66C333.75,235.93 333.75,236.21 333.75,236.48C333.75,236.75 333.75,237.02 333.75,237.29C333.75,237.56 333.75,237.83 333.75,238.1C333.75,238.37 333.75,238.65 333.75,238.92C333.75,239.19 333.75,239.46 333.75,239.73C333.75,240 333.75,240.27 333.75,240.54C333.75,240.81 333.75,241.09 333.75,241.36C333.75,241.63 333.75,241.9 333.75,242.17C333.75,242.44 333.75,242.71 333.75,242.98C333.75,243.25 333.75,243.53 333.75,243.8C333.75,244.07 333.75,244.34 333.75,244.61C333.75,244.88 333.75,245.16 333.75,245.43C333.75,245.7 333.75,245.97 333.75,246.24C333.75,246.51 333.75,246.78 333.75,247.05C333.75,247.32 333.75,247.6 333.75,247.87C333.75,248.14 333.75,248.41 333.75,248.68C333.75,248.95 333.75,249.22 333.75,249.49C333.75,249.76 333.75,250.04 333.75,250.31C333.75,250.58 333.75,250.85 333.75,251.12C333.75,251.39 333.75,251.66 333.75,251.93C333.75,252.2 333.75,252.48 333.75,252.75C333.75,253.02 333.75,253.29 333.75,253.56C333.75,253.83 333.75,254.1 333.75,254.37C333.75,254.64 333.75,254.92 333.75,255.19C333.75,255.46 333.75,255.73 333.75,256C333.75,256.27 333.75,256.54 333.75,256.81C333.75,257.08 333.75,257.36 333.75,257.63C333.75,257.9 333.75,258.17 333.75,258.44C333.75,258.71 333.75,258.99 333.75,259.26C333.75,259.53 333.75,259.8 333.75,260.07C333.75,260.34 333.75,260.61 333.75,260.88C333.75,261.15 333.75,261.43 333.75,261.7C333.75,261.97 333.75,262.24 333.75,262.51C333.75,262.78 333.75,263.05 333.75,263.32C333.75,263.59 333.75,263.87 333.75,264.14C333.75,264.41 333.75,264.68 333.75,264.95C333.75,265.22 333.75,265.49 333.75,265.76C333.75,266.03 333.75,266.31 333.75,266.58C333.75,266.85 333.75,267.12 333.75,267.39C333.75,267.66 333.74,267.93 333.74,268.2C333.74,268.47 333.74,268.75 333.73,269.02C333.72,269.29 333.71,269.56 333.7,269.83C333.68,270.1 333.67,270.37 333.64,270.64C333.61,270.91 333.58,271.19 333.53,271.46C333.48,271.73 333.43,272 333.36,272.27C333.29,272.54 333.21,272.82 333.12,273.09C333.03,273.36 332.93,273.63 332.84,273.9C332.75,274.17 332.65,274.44 332.57,274.71C332.5,274.98 332.43,275.26 332.39,275.53C332.35,275.8 332.33,276.07 332.33,276.34C332.33,276.61 332.36,276.88 332.39,277.15C332.43,277.42 332.49,277.7 332.54,277.97C332.59,278.24 332.65,278.51 332.68,278.78C332.71,279.05 332.73,279.32 332.71,279.59C332.69,279.86 332.65,280.14 332.57,280.41C332.49,280.69 332.37,280.96 332.23,281.22C332.08,281.5 331.9,281.77 331.7,282.03C331.49,282.31 331.25,282.58 331,282.85C330.74,283.13 330.45,283.4 330.14,283.66C329.81,283.94 329.45,284.22 329.06,284.48C328.63,284.76 328.17,285.03 327.67,285.29C327.11,285.58 326.5,285.84 325.84,286.1C325.11,286.39 324.31,286.66 323.47,286.92C322.53,287.21 321.51,287.47 320.45,287.73C319.28,288.01 318.03,288.28 316.74,288.54C315.34,288.82 313.85,289.1 312.34,289.36C310.74,289.64 309.05,289.9 307.38,290.17C305.67,290.44 303.88,290.7 302.18,290.98C300.53,291.25 298.83,291.51 297.31,291.8C295.95,292.06 294.55,292.29 293.48,292.61C292.68,292.85 291.63,293.04 291.43,293.42C291.31,293.65 291.41,294.01 291.62,294.24C291.98,294.64 293.11,294.81 294.04,295.05C295.25,295.37 296.79,295.6 298.29,295.86C299.98,296.15 301.84,296.41 303.67,296.68C305.57,296.96 307.55,297.22 309.47,297.49C311.36,297.76 313.27,298.03 315.1,298.31C316.84,298.57 318.56,298.84 320.17,299.12C321.65,299.38 323.09,299.64 324.42,299.93C325.6,300.19 326.74,300.46 327.75,300.75C328.62,301 329.45,301.26 330.16,301.56C330.76,301.81 331.31,302.07 331.77,302.37C332.15,302.62 332.49,302.9 332.75,303.19Q332.98,303.45 333.29,304Z" style="vector-effect: non-scaling-stroke; stroke-width: 2px; stroke: rgb(239, 85, 59); stroke-opacity: 1; fill: rgb(239, 85, 59); fill-opacity: 0.5;"/><g class="points"><path class="point" transform="translate(261.13,299.12)" d="M3,0A3,3 0 1,1 0,-3A3,3 0 0,1 3,0Z" style="opacity: 1; stroke-width: 0px; fill: rgb(239, 85, 59); fill-opacity: 1;"/><path class="point" transform="translate(242.39,298.49)" d="M3,0A3,3 0 1,1 0,-3A3,3 0 0,1 3,0Z" style="opacity: 1; stroke-width: 0px; fill: rgb(239, 85, 59); fill-opacity: 1;"/><path class="point" transform="translate(265.28,298.35)" d="M3,0A3,3 0 1,1 0,-3A3,3 0 0,1 3,0Z" style="opacity: 1; stroke-width: 0px; fill: rgb(239, 85, 59); fill-opacity: 1;"/><path class="point" transform="translate(239.01,298.29)" d="M3,0A3,3 0 1,1 0,-3A3,3 0 0,1 3,0Z" style="opacity: 1; stroke-width: 0px; fill: rgb(239, 85, 59); fill-opacity: 1;"/><path class="point" transform="translate(248.72,298.26)" d="M3,0A3,3 0 1,1 0,-3A3,3 0 0,1 3,0Z" style="opacity: 1; stroke-width: 0px; fill: rgb(239, 85, 59); fill-opacity: 1;"/><path class="point" transform="translate(261.22,298)" d="M3,0A3,3 0 1,1 0,-3A3,3 0 0,1 3,0Z" style="opacity: 1; stroke-width: 0px; fill: rgb(239, 85, 59); fill-opacity: 1;"/><path class="point" transform="translate(252.11,297.77)" d="M3,0A3,3 0 1,1 0,-3A3,3 0 0,1 3,0Z" style="opacity: 1; stroke-width: 0px; fill: rgb(239, 85, 59); fill-opacity: 1;"/><path class="point" transform="translate(257.41,297.49)" d="M3,0A3,3 0 1,1 0,-3A3,3 0 0,1 3,0Z" style="opacity: 1; stroke-width: 0px; fill: rgb(239, 85, 59); fill-opacity: 1;"/><path class="point" transform="translate(247.55,297.23)" d="M3,0A3,3 0 1,1 0,-3A3,3 0 0,1 3,0Z" style="opacity: 1; stroke-width: 0px; fill: rgb(239, 85, 59); fill-opacity: 1;"/><path class="point" transform="translate(240.84,296.94)" d="M3,0A3,3 0 1,1 0,-3A3,3 0 0,1 3,0Z" style="opacity: 1; stroke-width: 0px; fill: rgb(239, 85, 59); fill-opacity: 1;"/><path class="point" transform="translate(257.05,296.8)" d="M3,0A3,3 0 1,1 0,-3A3,3 0 0,1 3,0Z" style="opacity: 1; stroke-width: 0px; fill: rgb(239, 85, 59); fill-opacity: 1;"/><path class="point" transform="translate(247.38,296.77)" d="M3,0A3,3 0 1,1 0,-3A3,3 0 0,1 3,0Z" style="opacity: 1; stroke-width: 0px; fill: rgb(239, 85, 59); fill-opacity: 1;"/><path class="point" transform="translate(262.99,296.77)" d="M3,0A3,3 0 1,1 0,-3A3,3 0 0,1 3,0Z" style="opacity: 1; stroke-width: 0px; fill: rgb(239, 85, 59); fill-opacity: 1;"/><path class="point" transform="translate(236.94,296.6)" d="M3,0A3,3 0 1,1 0,-3A3,3 0 0,1 3,0Z" style="opacity: 1; stroke-width: 0px; fill: rgb(239, 85, 59); fill-opacity: 1;"/><path class="point" transform="translate(243.34,296.34)" d="M3,0A3,3 0 1,1 0,-3A3,3 0 0,1 3,0Z" style="opacity: 1; stroke-width: 0px; fill: rgb(239, 85, 59); fill-opacity: 1;"/><path class="point" transform="translate(267.05,296.34)" d="M3,0A3,3 0 1,1 0,-3A3,3 0 0,1 3,0Z" style="opacity: 1; stroke-width: 0px; fill: rgb(239, 85, 59); fill-opacity: 1;"/><path class="point" transform="translate(248.65,296.31)" d="M3,0A3,3 0 1,1 0,-3A3,3 0 0,1 3,0Z" style="opacity: 1; stroke-width: 0px; fill: rgb(239, 85, 59); fill-opacity: 1;"/><path class="point" transform="translate(238.8,296.25)" d="M3,0A3,3 0 1,1 0,-3A3,3 0 0,1 3,0Z" style="opacity: 1; stroke-width: 0px; fill: rgb(239, 85, 59); fill-opacity: 1;"/><path class="point" transform="translate(247.36,296.11)" d="M3,0A3,3 0 1,1 0,-3A3,3 0 0,1 3,0Z" style="opacity: 1; stroke-width: 0px; fill: rgb(239, 85, 59); fill-opacity: 1;"/><path class="point" transform="translate(252.37,295.59)" d="M3,0A3,3 0 1,1 0,-3A3,3 0 0,1 3,0Z" style="opacity: 1; stroke-width: 0px; fill: rgb(239, 85, 59); fill-opacity: 1;"/><path class="point" transform="translate(260.01,295.57)" d="M3,0A3,3 0 1,1 0,-3A3,3 0 0,1 3,0Z" style="opacity: 1; stroke-width: 0px; fill: rgb(239, 85, 59); fill-opacity: 1;"/><path class="point" transform="translate(254.52,295.45)" d="M3,0A3,3 0 1,1 0,-3A3,3 0 0,1 3,0Z" style="opacity: 1; stroke-width: 0px; fill: rgb(239, 85, 59); fill-opacity: 1;"/><path class="point" transform="translate(248.14,295.17)" d="M3,0A3,3 0 1,1 0,-3A3,3 0 0,1 3,0Z" style="opacity: 1; stroke-width: 0px; fill: rgb(239, 85, 59); fill-opacity: 1;"/><path class="point" transform="translate(239.17,295.02)" d="M3,0A3,3 0 1,1 0,-3A3,3 0 0,1 3,0Z" style="opacity: 1; stroke-width: 0px; fill: rgb(239, 85, 59); fill-opacity: 1;"/><path class="point" transform="translate(252.67,294.96)" d="M3,0A3,3 0 1,1 0,-3A3,3 0 0,1 3,0Z" style="opacity: 1; stroke-width: 0px; fill: rgb(239, 85, 59); fill-opacity: 1;"/><path class="point" transform="translate(247.98,294.91)" d="M3,0A3,3 0 1,1 0,-3A3,3 0 0,1 3,0Z" style="opacity: 1; stroke-width: 0px; fill: rgb(239, 85, 59); fill-opacity: 1;"/><path class="point" transform="translate(260.26,294.56)" d="M3,0A3,3 0 1,1 0,-3A3,3 0 0,1 3,0Z" style="opacity: 1; stroke-width: 0px; fill: rgb(239, 85, 59); fill-opacity: 1;"/><path class="point" transform="translate(251.28,294.56)" d="M3,0A3,3 0 1,1 0,-3A3,3 0 0,1 3,0Z" style="opacity: 1; stroke-width: 0px; fill: rgb(239, 85, 59); fill-opacity: 1;"/><path class="point" transform="translate(242.11,294.53)" d="M3,0A3,3 0 1,1 0,-3A3,3 0 0,1 3,0Z" style="opacity: 1; stroke-width: 0px; fill: rgb(239, 85, 59); fill-opacity: 1;"/><path class="point" transform="translate(237.6,294.53)" d="M3,0A3,3 0 1,1 0,-3A3,3 0 0,1 3,0Z" style="opacity: 1; stroke-width: 0px; fill: rgb(239, 85, 59); fill-opacity: 1;"/><path class="point" transform="translate(261.86,294.45)" d="M3,0A3,3 0 1,1 0,-3A3,3 0 0,1 3,0Z" style="opacity: 1; stroke-width: 0px; fill: rgb(239, 85, 59); fill-opacity: 1;"/><path class="point" transform="translate(238.87,294.08)" d="M3,0A3,3 0 1,1 0,-3A3,3 0 0,1 3,0Z" style="opacity: 1; stroke-width: 0px; fill: rgb(239, 85, 59); fill-opacity: 1;"/><path class="point" transform="translate(262.35,294.08)" d="M3,0A3,3 0 1,1 0,-3A3,3 0 0,1 3,0Z" style="opacity: 1; stroke-width: 0px; fill: rgb(239, 85, 59); fill-opacity: 1;"/><path class="point" transform="translate(256.26,294.08)" d="M3,0A3,3 0 1,1 0,-3A3,3 0 0,1 3,0Z" style="opacity: 1; stroke-width: 0px; fill: rgb(239, 85, 59); fill-opacity: 1;"/><path class="point" transform="translate(247.88,294.02)" d="M3,0A3,3 0 1,1 0,-3A3,3 0 0,1 3,0Z" style="opacity: 1; stroke-width: 0px; fill: rgb(239, 85, 59); fill-opacity: 1;"/><path class="point" transform="translate(243.12,293.9)" d="M3,0A3,3 0 1,1 0,-3A3,3 0 0,1 3,0Z" style="opacity: 1; stroke-width: 0px; fill: rgb(239, 85, 59); fill-opacity: 1;"/><path class="point" transform="translate(260.03,293.88)" d="M3,0A3,3 0 1,1 0,-3A3,3 0 0,1 3,0Z" style="opacity: 1; stroke-width: 0px; fill: rgb(239, 85, 59); fill-opacity: 1;"/><path class="point" transform="translate(250.98,293.85)" d="M3,0A3,3 0 1,1 0,-3A3,3 0 0,1 3,0Z" style="opacity: 1; stroke-width: 0px; fill: rgb(239, 85, 59); fill-opacity: 1;"/><path class="point" transform="translate(263.85,293.85)" d="M3,0A3,3 0 1,1 0,-3A3,3 0 0,1 3,0Z" style="opacity: 1; stroke-width: 0px; fill: rgb(239, 85, 59); fill-opacity: 1;"/><path class="point" transform="translate(239.09,293.85)" d="M3,0A3,3 0 1,1 0,-3A3,3 0 0,1 3,0Z" style="opacity: 1; stroke-width: 0px; fill: rgb(239, 85, 59); fill-opacity: 1;"/><path class="point" transform="translate(263.06,293.85)" d="M3,0A3,3 0 1,1 0,-3A3,3 0 0,1 3,0Z" style="opacity: 1; stroke-width: 0px; fill: rgb(239, 85, 59); fill-opacity: 1;"/><path class="point" transform="translate(251.38,293.82)" d="M3,0A3,3 0 1,1 0,-3A3,3 0 0,1 3,0Z" style="opacity: 1; stroke-width: 0px; fill: rgb(239, 85, 59); fill-opacity: 1;"/><path class="point" transform="translate(246.35,293.82)" d="M3,0A3,3 0 1,1 0,-3A3,3 0 0,1 3,0Z" style="opacity: 1; stroke-width: 0px; fill: rgb(239, 85, 59); fill-opacity: 1;"/><path class="point" transform="translate(236.76,293.79)" d="M3,0A3,3 0 1,1 0,-3A3,3 0 0,1 3,0Z" style="opacity: 1; stroke-width: 0px; fill: rgb(239, 85, 59); fill-opacity: 1;"/><path class="point" transform="translate(246.38,293.76)" d="M3,0A3,3 0 1,1 0,-3A3,3 0 0,1 3,0Z" style="opacity: 1; stroke-width: 0px; fill: rgb(239, 85, 59); fill-opacity: 1;"/><path class="point" transform="translate(263.54,293.73)" d="M3,0A3,3 0 1,1 0,-3A3,3 0 0,1 3,0Z" style="opacity: 1; stroke-width: 0px; fill: rgb(239, 85, 59); fill-opacity: 1;"/><path class="point" transform="translate(248.84,293.68)" d="M3,0A3,3 0 1,1 0,-3A3,3 0 0,1 3,0Z" style="opacity: 1; stroke-width: 0px; fill: rgb(239, 85, 59); fill-opacity: 1;"/><path class="point" transform="translate(240.13,293.65)" d="M3,0A3,3 0 1,1 0,-3A3,3 0 0,1 3,0Z" style="opacity: 1; stroke-width: 0px; fill: rgb(239, 85, 59); fill-opacity: 1;"/><path class="point" transform="translate(260.56,293.65)" d="M3,0A3,3 0 1,1 0,-3A3,3 0 0,1 3,0Z" style="opacity: 1; stroke-width: 0px; fill: rgb(239, 85, 59); fill-opacity: 1;"/><path class="point" transform="translate(244.03,293.62)" d="M3,0A3,3 0 1,1 0,-3A3,3 0 0,1 3,0Z" style="opacity: 1; stroke-width: 0px; fill: rgb(239, 85, 59); fill-opacity: 1;"/><path class="point" transform="translate(252.72,293.62)" d="M3,0A3,3 0 1,1 0,-3A3,3 0 0,1 3,0Z" style="opacity: 1; stroke-width: 0px; fill: rgb(239, 85, 59); fill-opacity: 1;"/><path class="point" transform="translate(259.65,293.56)" d="M3,0A3,3 0 1,1 0,-3A3,3 0 0,1 3,0Z" style="opacity: 1; stroke-width: 0px; fill: rgb(239, 85, 59); fill-opacity: 1;"/><path class="point" transform="translate(236.98,293.56)" d="M3,0A3,3 0 1,1 0,-3A3,3 0 0,1 3,0Z" style="opacity: 1; stroke-width: 0px; fill: rgb(239, 85, 59); fill-opacity: 1;"/><path class="point" transform="translate(267.9,293.45)" d="M3,0A3,3 0 1,1 0,-3A3,3 0 0,1 3,0Z" style="opacity: 1; stroke-width: 0px; fill: rgb(239, 85, 59); fill-opacity: 1;"/><path class="point" transform="translate(259.44,293.45)" d="M3,0A3,3 0 1,1 0,-3A3,3 0 0,1 3,0Z" style="opacity: 1; stroke-width: 0px; fill: rgb(239, 85, 59); fill-opacity: 1;"/><path class="point" transform="translate(238.38,293.39)" d="M3,0A3,3 0 1,1 0,-3A3,3 0 0,1 3,0Z" style="opacity: 1; stroke-width: 0px; fill: rgb(239, 85, 59); fill-opacity: 1;"/><path class="point" transform="translate(265.56,293.33)" d="M3,0A3,3 0 1,1 0,-3A3,3 0 0,1 3,0Z" style="opacity: 1; stroke-width: 0px; fill: rgb(239, 85, 59); fill-opacity: 1;"/><path class="point" transform="translate(240.81,293.3)" d="M3,0A3,3 0 1,1 0,-3A3,3 0 0,1 3,0Z" style="opacity: 1; stroke-width: 0px; fill: rgb(239, 85, 59); fill-opacity: 1;"/><path class="point" transform="translate(250.77,293.3)" d="M3,0A3,3 0 1,1 0,-3A3,3 0 0,1 3,0Z" style="opacity: 1; stroke-width: 0px; fill: rgb(239, 85, 59); fill-opacity: 1;"/><path class="point" transform="translate(254.74,293.22)" d="M3,0A3,3 0 1,1 0,-3A3,3 0 0,1 3,0Z" style="opacity: 1; stroke-width: 0px; fill: rgb(239, 85, 59); fill-opacity: 1;"/><path class="point" transform="translate(245.99,293.05)" d="M3,0A3,3 0 1,1 0,-3A3,3 0 0,1 3,0Z" style="opacity: 1; stroke-width: 0px; fill: rgb(239, 85, 59); fill-opacity: 1;"/><path class="point" transform="translate(263.06,292.84)" d="M3,0A3,3 0 1,1 0,-3A3,3 0 0,1 3,0Z" style="opacity: 1; stroke-width: 0px; fill: rgb(239, 85, 59); fill-opacity: 1;"/><path class="point" transform="translate(242.59,292.82)" d="M3,0A3,3 0 1,1 0,-3A3,3 0 0,1 3,0Z" style="opacity: 1; stroke-width: 0px; fill: rgb(239, 85, 59); fill-opacity: 1;"/><path class="point" transform="translate(258.85,292.13)" d="M3,0A3,3 0 1,1 0,-3A3,3 0 0,1 3,0Z" style="opacity: 1; stroke-width: 0px; fill: rgb(239, 85, 59); fill-opacity: 1;"/><path class="point" transform="translate(264.58,292.01)" d="M3,0A3,3 0 1,1 0,-3A3,3 0 0,1 3,0Z" style="opacity: 1; stroke-width: 0px; fill: rgb(239, 85, 59); fill-opacity: 1;"/><path class="point" transform="translate(237.5,291.87)" d="M3,0A3,3 0 1,1 0,-3A3,3 0 0,1 3,0Z" style="opacity: 1; stroke-width: 0px; fill: rgb(239, 85, 59); fill-opacity: 1;"/><path class="point" transform="translate(243.8,291.84)" d="M3,0A3,3 0 1,1 0,-3A3,3 0 0,1 3,0Z" style="opacity: 1; stroke-width: 0px; fill: rgb(239, 85, 59); fill-opacity: 1;"/><path class="point" transform="translate(261.41,291.44)" d="M3,0A3,3 0 1,1 0,-3A3,3 0 0,1 3,0Z" style="opacity: 1; stroke-width: 0px; fill: rgb(239, 85, 59); fill-opacity: 1;"/><path class="point" transform="translate(248.53,291.41)" d="M3,0A3,3 0 1,1 0,-3A3,3 0 0,1 3,0Z" style="opacity: 1; stroke-width: 0px; fill: rgb(239, 85, 59); fill-opacity: 1;"/><path class="point" transform="translate(254.02,291.35)" d="M3,0A3,3 0 1,1 0,-3A3,3 0 0,1 3,0Z" style="opacity: 1; stroke-width: 0px; fill: rgb(239, 85, 59); fill-opacity: 1;"/><path class="point" transform="translate(266.5,291.13)" d="M3,0A3,3 0 1,1 0,-3A3,3 0 0,1 3,0Z" style="opacity: 1; stroke-width: 0px; fill: rgb(239, 85, 59); fill-opacity: 1;"/><path class="point" transform="translate(240.18,291.13)" d="M3,0A3,3 0 1,1 0,-3A3,3 0 0,1 3,0Z" style="opacity: 1; stroke-width: 0px; fill: rgb(239, 85, 59); fill-opacity: 1;"/><path class="point" transform="translate(268.86,291.13)" d="M3,0A3,3 0 1,1 0,-3A3,3 0 0,1 3,0Z" style="opacity: 1; stroke-width: 0px; fill: rgb(239, 85, 59); fill-opacity: 1;"/><path class="point" transform="translate(240.64,291.13)" d="M3,0A3,3 0 1,1 0,-3A3,3 0 0,1 3,0Z" style="opacity: 1; stroke-width: 0px; fill: rgb(239, 85, 59); fill-opacity: 1;"/><path class="point" transform="translate(268.71,290.95)" d="M3,0A3,3 0 1,1 0,-3A3,3 0 0,1 3,0Z" style="opacity: 1; stroke-width: 0px; fill: rgb(239, 85, 59); fill-opacity: 1;"/><path class="point" transform="translate(244.86,290.93)" d="M3,0A3,3 0 1,1 0,-3A3,3 0 0,1 3,0Z" style="opacity: 1; stroke-width: 0px; fill: rgb(239, 85, 59); fill-opacity: 1;"/><path class="point" transform="translate(264.92,290.87)" d="M3,0A3,3 0 1,1 0,-3A3,3 0 0,1 3,0Z" style="opacity: 1; stroke-width: 0px; fill: rgb(239, 85, 59); fill-opacity: 1;"/><path class="point" transform="translate(257.3,290.78)" d="M3,0A3,3 0 1,1 0,-3A3,3 0 0,1 3,0Z" style="opacity: 1; stroke-width: 0px; fill: rgb(239, 85, 59); fill-opacity: 1;"/><path class="point" transform="translate(250.54,290.75)" d="M3,0A3,3 0 1,1 0,-3A3,3 0 0,1 3,0Z" style="opacity: 1; stroke-width: 0px; fill: rgb(239, 85, 59); fill-opacity: 1;"/><path class="point" transform="translate(237.46,289.98)" d="M3,0A3,3 0 1,1 0,-3A3,3 0 0,1 3,0Z" style="opacity: 1; stroke-width: 0px; fill: rgb(239, 85, 59); fill-opacity: 1;"/><path class="point" transform="translate(250.06,289.84)" d="M3,0A3,3 0 1,1 0,-3A3,3 0 0,1 3,0Z" style="opacity: 1; stroke-width: 0px; fill: rgb(239, 85, 59); fill-opacity: 1;"/><path class="point" transform="translate(239.42,289.55)" d="M3,0A3,3 0 1,1 0,-3A3,3 0 0,1 3,0Z" style="opacity: 1; stroke-width: 0px; fill: rgb(239, 85, 59); fill-opacity: 1;"/><path class="point" transform="translate(244.36,289.38)" d="M3,0A3,3 0 1,1 0,-3A3,3 0 0,1 3,0Z" style="opacity: 1; stroke-width: 0px; fill: rgb(239, 85, 59); fill-opacity: 1;"/><path class="point" transform="translate(241.4,288.89)" d="M3,0A3,3 0 1,1 0,-3A3,3 0 0,1 3,0Z" style="opacity: 1; stroke-width: 0px; fill: rgb(239, 85, 59); fill-opacity: 1;"/><path class="point" transform="translate(237.64,288.55)" d="M3,0A3,3 0 1,1 0,-3A3,3 0 0,1 3,0Z" style="opacity: 1; stroke-width: 0px; fill: rgb(239, 85, 59); fill-opacity: 1;"/><path class="point" transform="translate(245.64,288.46)" d="M3,0A3,3 0 1,1 0,-3A3,3 0 0,1 3,0Z" style="opacity: 1; stroke-width: 0px; fill: rgb(239, 85, 59); fill-opacity: 1;"/><path class="point" transform="translate(256.46,288.35)" d="M3,0A3,3 0 1,1 0,-3A3,3 0 0,1 3,0Z" style="opacity: 1; stroke-width: 0px; fill: rgb(239, 85, 59); fill-opacity: 1;"/><path class="point" transform="translate(243.01,288)" d="M3,0A3,3 0 1,1 0,-3A3,3 0 0,1 3,0Z" style="opacity: 1; stroke-width: 0px; fill: rgb(239, 85, 59); fill-opacity: 1;"/><path class="point" transform="translate(255.04,287.69)" d="M3,0A3,3 0 1,1 0,-3A3,3 0 0,1 3,0Z" style="opacity: 1; stroke-width: 0px; fill: rgb(239, 85, 59); fill-opacity: 1;"/><path class="point" transform="translate(256.21,287.2)" d="M3,0A3,3 0 1,1 0,-3A3,3 0 0,1 3,0Z" style="opacity: 1; stroke-width: 0px; fill: rgb(239, 85, 59); fill-opacity: 1;"/><path class="point" transform="translate(253.59,286.23)" d="M3,0A3,3 0 1,1 0,-3A3,3 0 0,1 3,0Z" style="opacity: 1; stroke-width: 0px; fill: rgb(239, 85, 59); fill-opacity: 1;"/><path class="point" transform="translate(251.71,284.42)" d="M3,0A3,3 0 1,1 0,-3A3,3 0 0,1 3,0Z" style="opacity: 1; stroke-width: 0px; fill: rgb(239, 85, 59); fill-opacity: 1;"/><path class="point" transform="translate(252.15,284.34)" d="M3,0A3,3 0 1,1 0,-3A3,3 0 0,1 3,0Z" style="opacity: 1; stroke-width: 0px; fill: rgb(239, 85, 59); fill-opacity: 1;"/><path class="point" transform="translate(254.24,282.9)" d="M3,0A3,3 0 1,1 0,-3A3,3 0 0,1 3,0Z" style="opacity: 1; stroke-width: 0px; fill: rgb(239, 85, 59); fill-opacity: 1;"/><path class="point" transform="translate(251.94,276.17)" d="M3,0A3,3 0 1,1 0,-3A3,3 0 0,1 3,0Z" style="opacity: 1; stroke-width: 0px; fill: rgb(239, 85, 59); fill-opacity: 1;"/><path class="point" transform="translate(252.88,276.17)" d="M3,0A3,3 0 1,1 0,-3A3,3 0 0,1 3,0Z" style="opacity: 1; stroke-width: 0px; fill: rgb(239, 85, 59); fill-opacity: 1;"/><path class="point" transform="translate(253.52,71.56)" d="M3,0A3,3 0 1,1 0,-3A3,3 0 0,1 3,0Z" style="opacity: 1; stroke-width: 0px; fill: rgb(239, 85, 59); fill-opacity: 1;"/><path class="point" transform="translate(251.73,55.06)" d="M3,0A3,3 0 1,1 0,-3A3,3 0 0,1 3,0Z" style="opacity: 1; stroke-width: 0px; fill: rgb(239, 85, 59); fill-opacity: 1;"/></g></g></g></g><g class="overplot"/><path class="xlines-above crisp" d="M0,0" style="fill: none;"/><path class="ylines-above crisp" d="M0,0" style="fill: none;"/><g class="overlines-above"/><g class="xaxislayer-above"><g class="xtick"><text text-anchor="middle" x="0" y="433" transform="translate(193.25,0)" style="font-family: 'Open Sans', verdana, arial, sans-serif; font-size: 12px; fill: rgb(42, 63, 95); fill-opacity: 1; white-space: pre; opacity: 1;">eff_cnn</text></g><g class="xtick"><text text-anchor="middle" x="0" y="433" transform="translate(413.75,0)" style="font-family: 'Open Sans', verdana, arial, sans-serif; font-size: 12px; fill: rgb(42, 63, 95); fill-opacity: 1; white-space: pre; opacity: 1;">simplified_eff_cnn</text></g></g><g class="yaxislayer-above"><g class="ytick"><text text-anchor="end" x="79" y="4.199999999999999" transform="translate(0,408.86)" style="font-family: 'Open Sans', verdana, arial, sans-serif; font-size: 12px; fill: rgb(42, 63, 95); fill-opacity: 1; white-space: pre; opacity: 1;">0</text></g><g class="ytick"><text text-anchor="end" x="79" y="4.199999999999999" style="font-family: 'Open Sans', verdana, arial, sans-serif; font-size: 12px; fill: rgb(42, 63, 95); fill-opacity: 1; white-space: pre; opacity: 1;" transform="translate(0,351.56)">2k</text></g><g class="ytick"><text text-anchor="end" x="79" y="4.199999999999999" style="font-family: 'Open Sans', verdana, arial, sans-serif; font-size: 12px; fill: rgb(42, 63, 95); fill-opacity: 1; white-space: pre; opacity: 1;" transform="translate(0,294.26)">4k</text></g><g class="ytick"><text text-anchor="end" x="79" y="4.199999999999999" style="font-family: 'Open Sans', verdana, arial, sans-serif; font-size: 12px; fill: rgb(42, 63, 95); fill-opacity: 1; white-space: pre; opacity: 1;" transform="translate(0,236.97)">6k</text></g><g class="ytick"><text text-anchor="end" x="79" y="4.199999999999999" style="font-family: 'Open Sans', verdana, arial, sans-serif; font-size: 12px; fill: rgb(42, 63, 95); fill-opacity: 1; white-space: pre; opacity: 1;" transform="translate(0,179.67000000000002)">8k</text></g><g class="ytick"><text text-anchor="end" x="79" y="4.199999999999999" style="font-family: 'Open Sans', verdana, arial, sans-serif; font-size: 12px; fill: rgb(42, 63, 95); fill-opacity: 1; white-space: pre; opacity: 1;" transform="translate(0,122.37)">10k</text></g></g><g class="overaxes-above"/></g></g><g class="polarlayer"/><g class="ternarylayer"/><g class="geolayer"/><g class="funnelarealayer"/><g class="pielayer"/><g class="iciclelayer"/><g class="treemaplayer"/><g class="sunburstlayer"/><g class="glimages"/><defs id="topdefs-881366"><g class="clips"/><clipPath id="legend881366"><rect width="155" height="67" x="0" y="0"/></clipPath></defs><g class="layer-above"><g class="imagelayer"/><g class="shapelayer"/></g><g class="infolayer"><g class="legend" pointer-events="all" transform="translate(532.88,100)"><rect class="bg" shape-rendering="crispEdges" width="155" height="67" x="0" y="0" style="stroke: rgb(68, 68, 68); stroke-opacity: 1; fill: rgb(255, 255, 255); fill-opacity: 1; stroke-width: 0px;"/><g class="scrollbox" transform="" clip-path="url(#legend881366)"><text class="legendtitletext" text-anchor="start" x="2" y="18.2" style="font-family: 'Open Sans', verdana, arial, sans-serif; font-size: 14px; fill: rgb(42, 63, 95); fill-opacity: 1; white-space: pre;">model</text><g class="groups" transform=""><g class="traces" transform="translate(0,32.7)" style="opacity: 1;"><text class="legendtext" text-anchor="start" x="40" y="4.680000000000001" style="font-family: 'Open Sans', verdana, arial, sans-serif; font-size: 12px; fill: rgb(42, 63, 95); fill-opacity: 1; white-space: pre;">eff_cnn</text><g class="layers" style="opacity: 1;"><g class="legendfill"/><g class="legendlines"/><g class="legendsymbols"><g class="legendpoints"><path class="legendbox" d="M6,6H-6V-6H6Z" transform="translate(20,0)" style="stroke-width: 2px; fill: rgb(99, 110, 250); fill-opacity: 0.5; stroke: rgb(99, 110, 250); stroke-opacity: 1;"/></g></g></g><rect class="legendtoggle" x="0" y="-9.5" width="149.703125" height="19" style="fill: rgb(0, 0, 0); fill-opacity: 0;"/></g></g><g class="groups" transform=""><g class="traces" transform="translate(0,51.7)" style="opacity: 1;"><text class="legendtext" text-anchor="start" x="40" y="4.680000000000001" style="font-family: 'Open Sans', verdana, arial, sans-serif; font-size: 12px; fill: rgb(42, 63, 95); fill-opacity: 1; white-space: pre;">simplified_eff_cnn</text><g class="layers" style="opacity: 1;"><g class="legendfill"/><g class="legendlines"/><g class="legendsymbols"><g class="legendpoints"><path class="legendbox" d="M6,6H-6V-6H6Z" transform="translate(20,0)" style="stroke-width: 2px; fill: rgb(239, 85, 59); fill-opacity: 0.5; stroke: rgb(239, 85, 59); stroke-opacity: 1;"/></g></g></g><rect class="legendtoggle" x="0" y="-9.5" width="149.703125" height="19" style="fill: rgb(0, 0, 0); fill-opacity: 0;"/></g></g></g><rect class="scrollbar" rx="20" ry="3" width="0" height="0" x="0" y="0" style="fill: rgb(128, 139, 164); fill-opacity: 1;"/></g><g class="g-gtitle"><text class="gtitle" x="35" y="50" text-anchor="start" dy="0em" style="font-family: 'Open Sans', verdana, arial, sans-serif; font-size: 17px; fill: rgb(42, 63, 95); opacity: 1; font-weight: normal; white-space: pre;">Distribution of min traces needed for average rank to be zero</text></g><g class="g-xtitle"><text class="xtitle" x="302" y="460.8" text-anchor="middle" style="font-family: 'Open Sans', verdana, arial, sans-serif; font-size: 14px; fill: rgb(42, 63, 95); opacity: 1; font-weight: normal; white-space: pre;">model</text></g><g class="g-ytitle"><text class="ytitle" transform="rotate(-90,31.840625000000003,260)" x="31.840625000000003" y="260" text-anchor="middle" style="font-family: 'Open Sans', verdana, arial, sans-serif; font-size: 14px; fill: rgb(42, 63, 95); opacity: 1; font-weight: normal; white-space: pre;">min traces needed for average rank to be zero</text></g><g class="annotation" data-index="0" style="opacity: 1;"><g class="annotation-text-g" transform="rotate(0,183.25,125)"><g class="cursor-pointer" transform="translate(133,100)"><rect class="bg" x="0.5" y="0.5" width="100" height="49" style="stroke-width: 1px; stroke: rgb(255, 0, 0); stroke-opacity: 1; fill: rgb(0, 0, 0); fill-opacity: 0;"/><text class="annotation-text" text-anchor="middle" x="50.65625" y="14" style="font-family: 'Open Sans', verdana, arial, sans-serif; font-size: 12px; fill: rgb(42, 63, 95); fill-opacity: 1; white-space: pre;"><tspan class="line" dy="0em" x="50.65625" y="14"> 14.00 % failed </tspan><tspan class="line" dy="1.3em" x="50.65625" y="14">min: 344</tspan><tspan class="line" dy="2.6em" x="50.65625" y="14">max: inf</tspan></text></g></g><g class="annotation-arrow-g" style="opacity: 1;"><path d="M191.41666666666666,149.5L193.25,155" style="stroke-width: 1px; stroke: rgb(42, 63, 95); stroke-opacity: 1; stroke-dasharray: 0px, 0px, 5.79751px, 5.79751px;"/></g></g><g class="annotation" data-index="1" style="opacity: 1;"><g class="annotation-text-g" transform="rotate(0,403.75,125)"><g class="cursor-pointer" transform="translate(357,100)"><rect class="bg" x="0.5" y="0.5" width="93" height="49" style="stroke-width: 1px; stroke: rgb(255, 0, 0); stroke-opacity: 1; fill: rgb(0, 0, 0); fill-opacity: 0;"/><text class="annotation-text" text-anchor="middle" x="46.84375" y="14" style="font-family: 'Open Sans', verdana, arial, sans-serif; font-size: 12px; fill: rgb(42, 63, 95); fill-opacity: 1; white-space: pre;"><tspan class="line" dy="0em" x="46.84375" y="14"> 2.00 % failed </tspan><tspan class="line" dy="1.3em" x="46.84375" y="14">min: 340</tspan><tspan class="line" dy="2.6em" x="46.84375" y="14">max: inf</tspan></text></g></g><g class="annotation-arrow-g" style="opacity: 1;"><path d="M411.9166666666667,149.5L413.75,155" style="stroke-width: 1px; stroke: rgb(42, 63, 95); stroke-opacity: 1; stroke-dasharray: 0px, 0px, 5.79751px, 5.79751px;"/></g></g></g></svg>