<svg class="main-svg" xmlns="http://www.w3.org/2000/svg" xmlns:xlink="http://www.w3.org/1999/xlink" width="700" height="500" style="" viewBox="0 0 700 500"><rect x="0" y="0" width="700" height="500" style="fill: rgb(255, 255, 255); fill-opacity: 1;"/><defs id="defs-5dddda"><g class="clips"><clipPath id="clip5ddddaxyplot" class="plotclip"><rect width="444" height="320"/></clipPath><clipPath class="axesclip" id="clip5ddddax"><rect x="80" y="0" width="444" height="500"/></clipPath><clipPath class="axesclip" id="clip5dddday"><rect x="0" y="100" width="700" height="320"/></clipPath><clipPath class="axesclip" id="clip5ddddaxy"><rect x="80" y="100" width="444" height="320"/></clipPath></g><g class="gradients"/><g class="patterns"/></defs><g class="bglayer"><rect class="bg" x="80" y="100" width="444" height="320" style="fill: rgb(229, 236, 246); fill-opacity: 1; stroke-width: 0;"/></g><g class="layer-below"><g class="imagelayer"/><g class="shapelayer"/></g><g class="cartesianlayer"><g class="subplot xy"><g class="layer-subplot"><g class="shapelayer"/><g class="imagelayer"/></g><g class="gridlayer"><g class="x"/><g class="y"><path class="ygrid crisp" transform="translate(0,351.56)" d="M80,0h444" style="stroke: rgb(255, 255, 255); stroke-opacity: 1; stroke-width: 1px;"/><path class="ygrid crisp" transform="translate(0,294.26)" d="M80,0h444" style="stroke: rgb(255, 255, 255); stroke-opacity: 1; stroke-width: 1px;"/><path class="ygrid crisp" transform="translate(0,236.97)" d="M80,0h444" style="stroke: rgb(255, 255, 255); stroke-opacity: 1; stroke-width: 1px;"/><path class="ygrid crisp" transform="translate(0,179.67000000000002)" d="M80,0h444" style="stroke: rgb(255, 255, 255); stroke-opacity: 1; stroke-width: 1px;"/><path class="ygrid crisp" transform="translate(0,122.37)" d="M80,0h444" style="stroke: rgb(255, 255, 255); stroke-opacity: 1; stroke-width: 1px;"/></g></g><g class="zerolinelayer"><path class="yzl zl crisp" transform="translate(0,408.86)" d="M80,0h444" style="stroke: rgb(255, 255, 255); stroke-opacity: 1; stroke-width: 2px;"/></g><path class="xlines-below"/><path class="ylines-below"/><g class="overlines-below"/><g class="xaxislayer-below"/><g class="yaxislayer-below"/><g class="overaxes-below"/><g class="plot" transform="translate(80,100)" clip-path="url(#clip5ddddaxyplot)"><g class="violinlayer mlayer"><g class="trace violins" style="opacity: 1;"><path class="violin" d="M282.19,302.55Q282.74,302.14 283.08,301.96C283.5,301.74 284.01,301.55 284.56,301.37C285.22,301.15 285.99,300.96 286.79,300.78C287.7,300.57 288.72,300.39 289.75,300.2C290.87,300 292.08,299.8 293.27,299.61C294.48,299.41 295.74,299.22 296.95,299.02C298.12,298.83 299.3,298.63 300.4,298.43C301.4,298.24 302.39,298.06 303.27,297.85C304.04,297.67 304.78,297.48 305.42,297.26C305.96,297.08 306.47,296.89 306.88,296.67C307.21,296.49 307.55,296.31 307.72,296.08C307.85,295.9 307.96,295.68 307.92,295.5C307.88,295.29 307.64,295.08 307.41,294.91C307.09,294.67 306.58,294.5 306.09,294.32C305.49,294.1 304.77,293.92 304.05,293.73C303.26,293.52 302.4,293.34 301.56,293.15C300.71,292.95 299.82,292.76 298.99,292.56C298.21,292.37 297.43,292.18 296.72,291.97C296.08,291.78 295.48,291.59 294.93,291.38C294.45,291.2 294.01,291.01 293.6,290.8C293.24,290.61 292.92,290.41 292.6,290.21C292.3,290.02 292.03,289.82 291.75,289.62C291.47,289.42 291.2,289.22 290.91,289.03C290.6,288.83 290.29,288.63 289.95,288.44C289.59,288.24 289.21,288.05 288.82,287.86C288.4,287.66 287.96,287.46 287.52,287.27C287.07,287.07 286.6,286.88 286.14,286.68C285.69,286.48 285.23,286.29 284.8,286.09C284.4,285.9 284,285.72 283.64,285.51C283.32,285.32 283.01,285.13 282.75,284.92C282.52,284.73 282.3,284.54 282.13,284.33Q281.97,284.14 281.75,283.74L280.97,283.74Q280.75,284.14 280.59,284.33C280.42,284.54 280.21,284.73 279.97,284.92C279.71,285.13 279.39,285.32 279.07,285.51C278.71,285.72 278.31,285.9 277.91,286.09C277.48,286.29 277.03,286.49 276.58,286.68C276.12,286.88 275.64,287.07 275.19,287.27C274.75,287.46 274.31,287.66 273.9,287.86C273.51,288.05 273.12,288.24 272.76,288.44C272.42,288.63 272.12,288.83 271.81,289.03C271.52,289.22 271.24,289.42 270.96,289.62C270.68,289.82 270.42,290.02 270.12,290.21C269.8,290.41 269.48,290.61 269.11,290.8C268.7,291.01 268.26,291.2 267.78,291.38C267.23,291.59 266.63,291.78 265.99,291.97C265.28,292.18 264.5,292.37 263.72,292.56C262.89,292.76 262.01,292.95 261.16,293.15C260.32,293.34 259.45,293.52 258.66,293.73C257.94,293.92 257.22,294.1 256.62,294.32C256.13,294.5 255.63,294.67 255.31,294.91C255.07,295.08 254.83,295.29 254.79,295.5C254.76,295.68 254.87,295.9 255,296.08C255.17,296.31 255.5,296.49 255.83,296.67C256.24,296.89 256.75,297.08 257.29,297.26C257.93,297.48 258.68,297.67 259.45,297.85C260.34,298.06 261.32,298.24 262.32,298.43C263.41,298.63 264.59,298.83 265.76,299.02C266.97,299.22 268.24,299.41 269.45,299.61C270.64,299.8 271.84,300 272.96,300.2C273.99,300.39 275.02,300.57 275.93,300.78C276.73,300.96 277.49,301.15 278.15,301.37C278.7,301.55 279.22,301.74 279.64,301.96Q279.98,302.14 280.52,302.55Z" style="vector-effect: non-scaling-stroke; stroke-width: 2px; stroke: rgb(0, 204, 150); stroke-opacity: 1; fill: rgb(0, 204, 150); fill-opacity: 0.5;"/><g class="points"><path class="point" transform="translate(245.65,299)" d="M3,0A3,3 0 1,1 0,-3A3,3 0 0,1 3,0Z" style="opacity: 1; stroke-width: 0px; fill: rgb(0, 204, 150); fill-opacity: 1;"/><path class="point" transform="translate(237.49,298.43)" d="M3,0A3,3 0 1,1 0,-3A3,3 0 0,1 3,0Z" style="opacity: 1; stroke-width: 0px; fill: rgb(0, 204, 150); fill-opacity: 1;"/><path class="point" transform="translate(246.41,298.37)" d="M3,0A3,3 0 1,1 0,-3A3,3 0 0,1 3,0Z" style="opacity: 1; stroke-width: 0px; fill: rgb(0, 204, 150); fill-opacity: 1;"/><path class="point" transform="translate(235.99,298.29)" d="M3,0A3,3 0 1,1 0,-3A3,3 0 0,1 3,0Z" style="opacity: 1; stroke-width: 0px; fill: rgb(0, 204, 150); fill-opacity: 1;"/><path class="point" transform="translate(239.86,298.06)" d="M3,0A3,3 0 1,1 0,-3A3,3 0 0,1 3,0Z" style="opacity: 1; stroke-width: 0px; fill: rgb(0, 204, 150); fill-opacity: 1;"/><path class="point" transform="translate(245.01,297.97)" d="M3,0A3,3 0 1,1 0,-3A3,3 0 0,1 3,0Z" style="opacity: 1; stroke-width: 0px; fill: rgb(0, 204, 150); fill-opacity: 1;"/><path class="point" transform="translate(241.28,297.03)" d="M3,0A3,3 0 1,1 0,-3A3,3 0 0,1 3,0Z" style="opacity: 1; stroke-width: 0px; fill: rgb(0, 204, 150); fill-opacity: 1;"/><path class="point" transform="translate(243.29,296.71)" d="M3,0A3,3 0 1,1 0,-3A3,3 0 0,1 3,0Z" style="opacity: 1; stroke-width: 0px; fill: rgb(0, 204, 150); fill-opacity: 1;"/><path class="point" transform="translate(239.52,296.54)" d="M3,0A3,3 0 1,1 0,-3A3,3 0 0,1 3,0Z" style="opacity: 1; stroke-width: 0px; fill: rgb(0, 204, 150); fill-opacity: 1;"/><path class="point" transform="translate(237.04,296.37)" d="M3,0A3,3 0 1,1 0,-3A3,3 0 0,1 3,0Z" style="opacity: 1; stroke-width: 0px; fill: rgb(0, 204, 150); fill-opacity: 1;"/><path class="point" transform="translate(243.15,296.05)" d="M3,0A3,3 0 1,1 0,-3A3,3 0 0,1 3,0Z" style="opacity: 1; stroke-width: 0px; fill: rgb(0, 204, 150); fill-opacity: 1;"/><path class="point" transform="translate(239.3,295.02)" d="M3,0A3,3 0 1,1 0,-3A3,3 0 0,1 3,0Z" style="opacity: 1; stroke-width: 0px; fill: rgb(0, 204, 150); fill-opacity: 1;"/><path class="point" transform="translate(245.78,294.91)" d="M3,0A3,3 0 1,1 0,-3A3,3 0 0,1 3,0Z" style="opacity: 1; stroke-width: 0px; fill: rgb(0, 204, 150); fill-opacity: 1;"/><path class="point" transform="translate(234.89,294.91)" d="M3,0A3,3 0 1,1 0,-3A3,3 0 0,1 3,0Z" style="opacity: 1; stroke-width: 0px; fill: rgb(0, 204, 150); fill-opacity: 1;"/><path class="point" transform="translate(237.58,294.53)" d="M3,0A3,3 0 1,1 0,-3A3,3 0 0,1 3,0Z" style="opacity: 1; stroke-width: 0px; fill: rgb(0, 204, 150); fill-opacity: 1;"/><path class="point" transform="translate(246.72,294.51)" d="M3,0A3,3 0 1,1 0,-3A3,3 0 0,1 3,0Z" style="opacity: 1; stroke-width: 0px; fill: rgb(0, 204, 150); fill-opacity: 1;"/><path class="point" transform="translate(240.09,294.13)" d="M3,0A3,3 0 1,1 0,-3A3,3 0 0,1 3,0Z" style="opacity: 1; stroke-width: 0px; fill: rgb(0, 204, 150); fill-opacity: 1;"/><path class="point" transform="translate(236.72,293.82)" d="M3,0A3,3 0 1,1 0,-3A3,3 0 0,1 3,0Z" style="opacity: 1; stroke-width: 0px; fill: rgb(0, 204, 150); fill-opacity: 1;"/><path class="point" transform="translate(239.7,293.7)" d="M3,0A3,3 0 1,1 0,-3A3,3 0 0,1 3,0Z" style="opacity: 1; stroke-width: 0px; fill: rgb(0, 204, 150); fill-opacity: 1;"/><path class="point" transform="translate(241.41,293.53)" d="M3,0A3,3 0 1,1 0,-3A3,3 0 0,1 3,0Z" style="opacity: 1; stroke-width: 0px; fill: rgb(0, 204, 150); fill-opacity: 1;"/><path class="point" transform="translate(243.6,292.27)" d="M3,0A3,3 0 1,1 0,-3A3,3 0 0,1 3,0Z" style="opacity: 1; stroke-width: 0px; fill: rgb(0, 204, 150); fill-opacity: 1;"/><path class="point" transform="translate(242,290.95)" d="M3,0A3,3 0 1,1 0,-3A3,3 0 0,1 3,0Z" style="opacity: 1; stroke-width: 0px; fill: rgb(0, 204, 150); fill-opacity: 1;"/><path class="point" transform="translate(240.31,290.7)" d="M3,0A3,3 0 1,1 0,-3A3,3 0 0,1 3,0Z" style="opacity: 1; stroke-width: 0px; fill: rgb(0, 204, 150); fill-opacity: 1;"/><path class="point" transform="translate(238.13,290.52)" d="M3,0A3,3 0 1,1 0,-3A3,3 0 0,1 3,0Z" style="opacity: 1; stroke-width: 0px; fill: rgb(0, 204, 150); fill-opacity: 1;"/><path class="point" transform="translate(241.5,288.52)" d="M3,0A3,3 0 1,1 0,-3A3,3 0 0,1 3,0Z" style="opacity: 1; stroke-width: 0px; fill: rgb(0, 204, 150); fill-opacity: 1;"/><path class="point" transform="translate(240.35,288.43)" d="M3,0A3,3 0 1,1 0,-3A3,3 0 0,1 3,0Z" style="opacity: 1; stroke-width: 0px; fill: rgb(0, 204, 150); fill-opacity: 1;"/><path class="point" transform="translate(243.48,287.29)" d="M3,0A3,3 0 1,1 0,-3A3,3 0 0,1 3,0Z" style="opacity: 1; stroke-width: 0px; fill: rgb(0, 204, 150); fill-opacity: 1;"/></g></g><g class="trace violins" style="opacity: 1;"><path class="violin" d="M390.2,304Q390.45,303.45 390.63,303.19C390.82,302.91 391.06,302.63 391.34,302.37C391.65,302.08 392.01,301.82 392.4,301.56C392.84,301.27 393.34,301.01 393.86,300.75C394.43,300.46 395.05,300.19 395.69,299.93C396.38,299.65 397.12,299.38 397.87,299.12C398.67,298.84 399.51,298.57 400.37,298.31C401.27,298.03 402.22,297.76 403.17,297.49C404.16,297.21 405.18,296.95 406.19,296.68C407.2,296.41 408.24,296.14 409.21,295.86C410.11,295.6 411.05,295.35 411.81,295.05C412.44,294.8 413.15,294.58 413.5,294.24C413.75,294 413.97,293.67 413.92,293.42C413.86,293.13 413.38,292.85 412.99,292.61C412.47,292.29 411.71,292.06 410.99,291.8C410.17,291.51 409.24,291.25 408.34,290.98C407.4,290.7 406.41,290.44 405.45,290.17C404.49,289.9 403.52,289.63 402.57,289.36C401.64,289.09 400.72,288.82 399.83,288.54C398.97,288.27 398.11,288.01 397.29,287.73C396.52,287.47 395.76,287.2 395.05,286.92C394.4,286.66 393.77,286.39 393.21,286.1C392.71,285.84 392.23,285.58 391.83,285.29C391.48,285.04 391.16,284.77 390.91,284.48C390.68,284.22 390.49,283.94 390.35,283.66C390.22,283.4 390.14,283.12 390.07,282.85C390.01,282.58 389.97,282.3 389.96,282.03C389.95,281.76 389.97,281.49 389.99,281.22C390.01,280.95 390.06,280.68 390.11,280.41C390.17,280.14 390.24,279.86 390.32,279.59C390.4,279.32 390.49,279.05 390.58,278.78C390.67,278.51 390.78,278.24 390.86,277.97C390.94,277.7 391.02,277.42 391.08,277.15C391.13,276.88 391.18,276.61 391.19,276.34C391.2,276.07 391.19,275.8 391.15,275.53C391.11,275.26 391.03,274.98 390.96,274.71C390.88,274.44 390.79,274.17 390.7,273.9C390.61,273.63 390.51,273.36 390.42,273.09C390.33,272.82 390.25,272.54 390.18,272.27C390.11,272 390.05,271.73 390,271.46C389.95,271.19 389.92,270.91 389.89,270.64C389.86,270.37 389.85,270.1 389.83,269.83C389.82,269.56 389.81,269.29 389.8,269.02C389.79,268.75 389.79,268.47 389.79,268.2C389.79,267.93 389.79,267.66 389.79,267.39C389.79,267.12 389.79,266.85 389.79,266.58C389.79,266.31 389.79,266.03 389.79,265.76C389.79,265.49 389.79,265.22 389.79,264.95C389.79,264.68 389.79,264.41 389.79,264.14C389.79,263.87 389.79,263.59 389.79,263.32C389.79,263.05 389.79,262.78 389.79,262.51C389.79,262.24 389.79,261.97 389.79,261.7C389.79,261.43 389.79,261.15 389.79,260.88C389.79,260.61 389.79,260.34 389.79,260.07C389.79,259.8 389.79,259.53 389.79,259.26C389.79,258.99 389.79,258.71 389.79,258.44C389.79,258.17 389.79,257.9 389.79,257.63C389.79,257.36 389.79,257.08 389.79,256.81C389.79,256.54 389.79,256.27 389.79,256C389.79,255.73 389.79,255.46 389.79,255.19C389.79,254.92 389.79,254.64 389.79,254.37C389.79,254.1 389.79,253.83 389.79,253.56C389.79,253.29 389.79,253.02 389.79,252.75C389.79,252.48 389.79,252.2 389.79,251.93C389.79,251.66 389.79,251.39 389.79,251.12C389.79,250.85 389.79,250.58 389.79,250.31C389.79,250.04 389.79,249.76 389.79,249.49C389.79,249.22 389.79,248.95 389.79,248.68C389.79,248.41 389.79,248.14 389.79,247.87C389.79,247.6 389.79,247.32 389.79,247.05C389.79,246.78 389.79,246.51 389.79,246.24C389.79,245.97 389.79,245.7 389.79,245.43C389.79,245.16 389.79,244.88 389.79,244.61C389.79,244.34 389.79,244.07 389.79,243.8C389.79,243.53 389.79,243.25 389.79,242.98C389.79,242.71 389.79,242.44 389.79,242.17C389.79,241.9 389.79,241.63 389.79,241.36C389.79,241.09 389.79,240.81 389.79,240.54C389.79,240.27 389.79,240 389.79,239.73C389.79,239.46 389.79,239.19 389.79,238.92C389.79,238.65 389.79,238.37 389.79,238.1C389.79,237.83 389.79,237.56 389.79,237.29C389.79,237.02 389.79,236.75 389.79,236.48C389.79,236.21 389.79,235.93 389.79,235.66C389.79,235.39 389.79,235.12 389.79,234.85C389.79,234.58 389.79,234.31 389.79,234.04C389.79,233.77 389.79,233.49 389.79,233.22C389.79,232.95 389.79,232.68 389.79,232.41C389.79,232.14 389.79,231.87 389.79,231.6C389.79,231.33 389.79,231.05 389.79,230.78C389.79,230.51 389.79,230.24 389.79,229.97C389.79,229.7 389.79,229.42 389.79,229.15C389.79,228.88 389.79,228.61 389.79,228.34C389.79,228.07 389.79,227.8 389.79,227.53C389.79,227.26 389.79,226.98 389.79,226.71C389.79,226.44 389.79,226.17 389.79,225.9C389.79,225.63 389.79,225.36 389.79,225.09C389.79,224.82 389.79,224.54 389.79,224.27C389.79,224 389.79,223.73 389.79,223.46C389.79,223.19 389.79,222.92 389.79,222.65C389.79,222.38 389.79,222.1 389.79,221.83C389.79,221.56 389.79,221.29 389.79,221.02C389.79,220.75 389.79,220.48 389.79,220.21C389.79,219.94 389.79,219.66 389.79,219.39C389.79,219.12 389.79,218.85 389.79,218.58C389.79,218.31 389.79,218.03 389.79,217.76C389.79,217.49 389.79,217.22 389.79,216.95C389.79,216.68 389.79,216.41 389.79,216.14C389.79,215.87 389.79,215.59 389.79,215.32C389.79,215.05 389.79,214.78 389.79,214.51C389.79,214.24 389.79,213.97 389.79,213.7C389.79,213.43 389.79,213.15 389.79,212.88C389.79,212.61 389.79,212.34 389.79,212.07C389.79,211.8 389.79,211.53 389.79,211.26C389.79,210.99 389.79,210.71 389.79,210.44C389.79,210.17 389.79,209.9 389.79,209.63C389.79,209.36 389.79,209.09 389.79,208.82C389.79,208.55 389.79,208.27 389.79,208C389.79,207.73 389.79,207.46 389.79,207.19C389.79,206.92 389.79,206.65 389.79,206.38C389.79,206.11 389.79,205.83 389.79,205.56C389.79,205.29 389.79,205.02 389.79,204.75C389.79,204.48 389.79,204.2 389.79,203.93C389.79,203.66 389.79,203.39 389.79,203.12C389.79,202.85 389.79,202.58 389.79,202.31C389.79,202.04 389.79,201.76 389.79,201.49C389.79,201.22 389.79,200.95 389.79,200.68C389.79,200.41 389.79,200.14 389.79,199.87C389.79,199.6 389.79,199.32 389.79,199.05C389.79,198.78 389.79,198.51 389.79,198.24C389.79,197.97 389.79,197.7 389.79,197.43C389.79,197.16 389.79,196.88 389.79,196.61C389.79,196.34 389.79,196.07 389.79,195.8C389.79,195.53 389.79,195.26 389.79,194.99C389.79,194.72 389.79,194.44 389.79,194.17C389.79,193.9 389.79,193.63 389.79,193.36C389.79,193.09 389.79,192.82 389.79,192.55C389.79,192.28 389.79,192 389.79,191.73C389.79,191.46 389.79,191.19 389.79,190.92C389.79,190.65 389.79,190.37 389.79,190.1C389.79,189.83 389.79,189.56 389.79,189.29C389.79,189.02 389.79,188.75 389.79,188.48C389.79,188.21 389.79,187.93 389.79,187.66C389.79,187.39 389.79,187.12 389.79,186.85C389.79,186.58 389.79,186.31 389.79,186.04C389.79,185.77 389.79,185.49 389.79,185.22C389.79,184.95 389.79,184.68 389.79,184.41C389.79,184.14 389.79,183.87 389.79,183.6C389.79,183.33 389.79,183.05 389.79,182.78C389.79,182.51 389.79,182.24 389.79,181.97C389.79,181.7 389.79,181.43 389.79,181.16C389.79,180.89 389.79,180.61 389.79,180.34C389.79,180.07 389.79,179.8 389.79,179.53C389.79,179.26 389.79,178.99 389.79,178.72C389.79,178.45 389.79,178.17 389.79,177.9C389.79,177.63 389.79,177.36 389.79,177.09C389.79,176.82 389.79,176.54 389.79,176.27C389.79,176 389.79,175.73 389.79,175.46C389.79,175.19 389.79,174.92 389.79,174.65C389.79,174.38 389.79,174.1 389.79,173.83C389.79,173.56 389.79,173.29 389.79,173.02C389.79,172.75 389.79,172.48 389.79,172.21C389.79,171.94 389.79,171.66 389.79,171.39C389.79,171.12 389.79,170.85 389.79,170.58C389.79,170.31 389.79,170.04 389.79,169.77C389.79,169.5 389.79,169.22 389.79,168.95C389.79,168.68 389.79,168.41 389.79,168.14C389.79,167.87 389.79,167.6 389.79,167.33C389.79,167.06 389.79,166.78 389.79,166.51C389.79,166.24 389.79,165.97 389.79,165.7C389.79,165.43 389.79,165.15 389.79,164.88C389.79,164.61 389.79,164.34 389.79,164.07C389.79,163.8 389.79,163.53 389.79,163.26C389.79,162.99 389.79,162.71 389.79,162.44C389.79,162.17 389.79,161.9 389.79,161.63C389.79,161.36 389.79,161.09 389.79,160.82C389.79,160.55 389.79,160.27 389.79,160C389.79,159.73 389.79,159.46 389.79,159.19C389.79,158.92 389.79,158.65 389.79,158.38C389.79,158.11 389.79,157.83 389.79,157.56C389.79,157.29 389.79,157.02 389.79,156.75C389.79,156.48 389.79,156.21 389.79,155.94C389.79,155.67 389.79,155.39 389.79,155.12C389.79,154.85 389.79,154.58 389.79,154.31C389.79,154.04 389.79,153.77 389.79,153.5C389.79,153.23 389.79,152.95 389.79,152.68C389.79,152.41 389.79,152.14 389.79,151.87C389.79,151.6 389.79,151.32 389.79,151.05C389.79,150.78 389.79,150.51 389.79,150.24C389.79,149.97 389.79,149.7 389.79,149.43C389.79,149.16 389.79,148.88 389.79,148.61C389.79,148.34 389.79,148.07 389.79,147.8C389.79,147.53 389.79,147.26 389.79,146.99C389.79,146.72 389.79,146.44 389.79,146.17C389.79,145.9 389.79,145.63 389.79,145.36C389.79,145.09 389.79,144.82 389.79,144.55C389.79,144.28 389.79,144 389.79,143.73C389.79,143.46 389.79,143.19 389.79,142.92C389.79,142.65 389.79,142.38 389.79,142.11C389.79,141.84 389.79,141.56 389.79,141.29C389.79,141.02 389.79,140.75 389.79,140.48C389.79,140.21 389.79,139.94 389.79,139.67C389.79,139.4 389.79,139.12 389.79,138.85C389.79,138.58 389.79,138.31 389.79,138.04C389.79,137.77 389.79,137.49 389.79,137.22C389.79,136.95 389.79,136.68 389.79,136.41C389.79,136.14 389.79,135.87 389.79,135.6C389.79,135.33 389.79,135.05 389.79,134.78C389.79,134.51 389.79,134.24 389.79,133.97C389.79,133.7 389.79,133.43 389.79,133.16C389.79,132.89 389.79,132.61 389.79,132.34C389.79,132.07 389.79,131.8 389.79,131.53C389.79,131.26 389.79,130.99 389.79,130.72C389.79,130.45 389.79,130.17 389.79,129.9C389.79,129.63 389.79,129.36 389.79,129.09C389.79,128.82 389.79,128.55 389.79,128.28C389.79,128.01 389.79,127.73 389.79,127.46C389.79,127.19 389.79,126.92 389.79,126.65C389.79,126.38 389.79,126.11 389.79,125.84C389.79,125.57 389.79,125.29 389.79,125.02C389.79,124.75 389.79,124.48 389.79,124.21C389.79,123.94 389.79,123.66 389.79,123.39C389.79,123.12 389.79,122.85 389.79,122.58C389.79,122.31 389.79,122.04 389.79,121.77C389.79,121.5 389.79,121.22 389.79,120.95C389.79,120.68 389.79,120.41 389.79,120.14C389.79,119.87 389.79,119.6 389.79,119.33C389.79,119.06 389.79,118.78 389.79,118.51C389.79,118.24 389.79,117.97 389.79,117.7C389.79,117.43 389.79,117.16 389.79,116.89C389.79,116.62 389.79,116.34 389.79,116.07C389.79,115.8 389.79,115.53 389.79,115.26C389.79,114.99 389.79,114.72 389.79,114.45C389.79,114.18 389.79,113.9 389.79,113.63C389.79,113.36 389.79,113.09 389.79,112.82C389.79,112.55 389.79,112.27 389.79,112C389.79,111.73 389.79,111.46 389.79,111.19C389.79,110.92 389.79,110.65 389.79,110.38C389.79,110.11 389.79,109.83 389.79,109.56C389.79,109.29 389.79,109.02 389.79,108.75C389.79,108.48 389.79,108.21 389.79,107.94C389.79,107.67 389.79,107.39 389.79,107.12C389.79,106.85 389.79,106.58 389.79,106.31C389.79,106.04 389.79,105.77 389.79,105.5C389.79,105.23 389.79,104.95 389.79,104.68C389.79,104.41 389.79,104.14 389.79,103.87C389.79,103.6 389.79,103.33 389.79,103.06C389.79,102.79 389.79,102.51 389.79,102.24C389.79,101.97 389.79,101.7 389.79,101.43C389.79,101.16 389.79,100.89 389.79,100.62C389.79,100.35 389.79,100.07 389.79,99.8C389.79,99.53 389.79,99.26 389.79,98.99C389.79,98.72 389.79,98.44 389.79,98.17C389.79,97.9 389.79,97.63 389.79,97.36C389.79,97.09 389.79,96.82 389.79,96.55C389.79,96.28 389.79,96 389.79,95.73C389.79,95.46 389.79,95.19 389.79,94.92C389.79,94.65 389.79,94.38 389.79,94.11C389.79,93.84 389.79,93.56 389.79,93.29C389.79,93.02 389.79,92.75 389.79,92.48C389.79,92.21 389.79,91.94 389.79,91.67C389.79,91.4 389.79,91.12 389.79,90.85C389.79,90.58 389.79,90.31 389.79,90.04C389.79,89.77 389.79,89.5 389.79,89.23C389.79,88.96 389.79,88.68 389.79,88.41C389.79,88.14 389.79,87.87 389.79,87.6C389.79,87.33 389.79,87.06 389.79,86.79C389.79,86.52 389.79,86.24 389.79,85.97C389.79,85.7 389.79,85.43 389.79,85.16C389.79,84.89 389.79,84.61 389.79,84.34C389.79,84.07 389.79,83.8 389.79,83.53C389.79,83.26 389.79,82.99 389.79,82.72C389.79,82.45 389.79,82.17 389.79,81.9C389.79,81.63 389.79,81.36 389.79,81.09C389.79,80.82 389.79,80.55 389.79,80.28C389.79,80.01 389.79,79.73 389.79,79.46C389.79,79.19 389.79,78.92 389.79,78.65C389.79,78.38 389.79,78.11 389.79,77.84C389.79,77.57 389.79,77.29 389.79,77.02C389.79,76.75 389.79,76.48 389.79,76.21C389.79,75.94 389.79,75.67 389.79,75.4C389.79,75.13 389.79,74.85 389.79,74.58C389.79,74.31 389.79,74.04 389.79,73.77C389.79,73.5 389.79,73.23 389.79,72.96C389.79,72.69 389.79,72.41 389.79,72.14C389.79,71.87 389.79,71.6 389.79,71.33C389.79,71.06 389.79,70.78 389.79,70.51C389.79,70.24 389.79,69.97 389.79,69.7C389.79,69.43 389.79,69.16 389.79,68.89C389.79,68.62 389.79,68.34 389.79,68.07C389.79,67.8 389.79,67.53 389.79,67.26C389.79,66.99 389.79,66.72 389.79,66.45C389.79,66.18 389.79,65.9 389.79,65.63C389.79,65.36 389.79,65.09 389.79,64.82C389.79,64.55 389.79,64.28 389.79,64.01C389.79,63.74 389.79,63.46 389.79,63.19C389.79,62.92 389.79,62.65 389.8,62.38C389.81,62.11 389.82,61.84 389.83,61.57C389.84,61.3 389.85,61.02 389.88,60.75C389.9,60.48 389.94,60.21 389.98,59.94C390.02,59.67 390.08,59.39 390.14,59.12C390.2,58.85 390.28,58.58 390.36,58.31C390.44,58.04 390.55,57.77 390.64,57.5C390.73,57.23 390.83,56.95 390.91,56.68C390.99,56.41 391.07,56.14 391.12,55.87C391.17,55.6 391.19,55.33 391.19,55.06C391.19,54.79 391.17,54.51 391.12,54.24C391.07,53.97 390.99,53.7 390.91,53.43C390.83,53.16 390.73,52.89 390.64,52.62C390.55,52.35 390.44,52.07 390.36,51.8C390.28,51.53 390.2,51.26 390.14,50.99Q390.08,50.72 389.98,50.18L389.6,50.18Q389.49,50.72 389.43,50.99C389.36,51.26 389.29,51.53 389.21,51.8C389.13,52.07 389.02,52.35 388.93,52.62C388.84,52.89 388.74,53.16 388.66,53.43C388.58,53.7 388.5,53.97 388.45,54.24C388.4,54.51 388.38,54.79 388.38,55.06C388.38,55.33 388.4,55.6 388.45,55.87C388.5,56.14 388.58,56.41 388.66,56.68C388.74,56.95 388.84,57.23 388.93,57.5C389.02,57.77 389.13,58.04 389.21,58.31C389.29,58.58 389.36,58.85 389.43,59.12C389.49,59.39 389.56,59.67 389.6,59.94C389.64,60.21 389.67,60.48 389.69,60.75C389.72,61.02 389.74,61.3 389.75,61.57C389.76,61.84 389.76,62.11 389.77,62.38C389.77,62.65 389.78,62.92 389.78,63.19C389.78,63.46 389.78,63.74 389.78,64.01C389.78,64.28 389.79,64.55 389.79,64.82C389.79,65.09 389.79,65.36 389.79,65.63C389.79,65.9 389.79,66.18 389.79,66.45C389.79,66.72 389.79,66.99 389.79,67.26C389.79,67.53 389.79,67.8 389.79,68.07C389.79,68.34 389.79,68.62 389.79,68.89C389.79,69.16 389.79,69.43 389.79,69.7C389.79,69.97 389.79,70.24 389.79,70.51C389.79,70.78 389.79,71.06 389.79,71.33C389.79,71.6 389.79,71.87 389.79,72.14C389.79,72.41 389.79,72.69 389.79,72.96C389.79,73.23 389.79,73.5 389.79,73.77C389.79,74.04 389.79,74.31 389.79,74.58C389.79,74.85 389.79,75.13 389.79,75.4C389.79,75.67 389.79,75.94 389.79,76.21C389.79,76.48 389.79,76.75 389.79,77.02C389.79,77.29 389.79,77.57 389.79,77.84C389.79,78.11 389.79,78.38 389.79,78.65C389.79,78.92 389.79,79.19 389.79,79.46C389.79,79.73 389.79,80.01 389.79,80.28C389.79,80.55 389.79,80.82 389.79,81.09C389.79,81.36 389.79,81.63 389.79,81.9C389.79,82.17 389.79,82.45 389.79,82.72C389.79,82.99 389.79,83.26 389.79,83.53C389.79,83.8 389.79,84.07 389.79,84.34C389.79,84.61 389.79,84.89 389.79,85.16C389.79,85.43 389.79,85.7 389.79,85.97C389.79,86.24 389.79,86.52 389.79,86.79C389.79,87.06 389.79,87.33 389.79,87.6C389.79,87.87 389.79,88.14 389.79,88.41C389.79,88.68 389.79,88.96 389.79,89.23C389.79,89.5 389.79,89.77 389.79,90.04C389.79,90.31 389.79,90.58 389.79,90.85C389.79,91.12 389.79,91.4 389.79,91.67C389.79,91.94 389.79,92.21 389.79,92.48C389.79,92.75 389.79,93.02 389.79,93.29C389.79,93.56 389.79,93.84 389.79,94.11C389.79,94.38 389.79,94.65 389.79,94.92C389.79,95.19 389.79,95.46 389.79,95.73C389.79,96 389.79,96.28 389.79,96.55C389.79,96.82 389.79,97.09 389.79,97.36C389.79,97.63 389.79,97.9 389.79,98.17C389.79,98.44 389.79,98.72 389.79,98.99C389.79,99.26 389.79,99.53 389.79,99.8C389.79,100.07 389.79,100.35 389.79,100.62C389.79,100.89 389.79,101.16 389.79,101.43C389.79,101.7 389.79,101.97 389.79,102.24C389.79,102.51 389.79,102.79 389.79,103.06C389.79,103.33 389.79,103.6 389.79,103.87C389.79,104.14 389.79,104.41 389.79,104.68C389.79,104.95 389.79,105.23 389.79,105.5C389.79,105.77 389.79,106.04 389.79,106.31C389.79,106.58 389.79,106.85 389.79,107.12C389.79,107.39 389.79,107.67 389.79,107.94C389.79,108.21 389.79,108.48 389.79,108.75C389.79,109.02 389.79,109.29 389.79,109.56C389.79,109.83 389.79,110.11 389.79,110.38C389.79,110.65 389.79,110.92 389.79,111.19C389.79,111.46 389.79,111.73 389.79,112C389.79,112.27 389.79,112.55 389.79,112.82C389.79,113.09 389.79,113.36 389.79,113.63C389.79,113.9 389.79,114.18 389.79,114.45C389.79,114.72 389.79,114.99 389.79,115.26C389.79,115.53 389.79,115.8 389.79,116.07C389.79,116.34 389.79,116.62 389.79,116.89C389.79,117.16 389.79,117.43 389.79,117.7C389.79,117.97 389.79,118.24 389.79,118.51C389.79,118.78 389.79,119.06 389.79,119.33C389.79,119.6 389.79,119.87 389.79,120.14C389.79,120.41 389.79,120.68 389.79,120.95C389.79,121.22 389.79,121.5 389.79,121.77C389.79,122.04 389.79,122.31 389.79,122.58C389.79,122.85 389.79,123.12 389.79,123.39C389.79,123.66 389.79,123.94 389.79,124.21C389.79,124.48 389.79,124.75 389.79,125.02C389.79,125.29 389.79,125.57 389.79,125.84C389.79,126.11 389.79,126.38 389.79,126.65C389.79,126.92 389.79,127.19 389.79,127.46C389.79,127.73 389.79,128.01 389.79,128.28C389.79,128.55 389.79,128.82 389.79,129.09C389.79,129.36 389.79,129.63 389.79,129.9C389.79,130.17 389.79,130.45 389.79,130.72C389.79,130.99 389.79,131.26 389.79,131.53C389.79,131.8 389.79,132.07 389.79,132.34C389.79,132.61 389.79,132.89 389.79,133.16C389.79,133.43 389.79,133.7 389.79,133.97C389.79,134.24 389.79,134.51 389.79,134.78C389.79,135.05 389.79,135.33 389.79,135.6C389.79,135.87 389.79,136.14 389.79,136.41C389.79,136.68 389.79,136.95 389.79,137.22C389.79,137.49 389.79,137.77 389.79,138.04C389.79,138.31 389.79,138.58 389.79,138.85C389.79,139.12 389.79,139.4 389.79,139.67C389.79,139.94 389.79,140.21 389.79,140.48C389.79,140.75 389.79,141.02 389.79,141.29C389.79,141.56 389.79,141.84 389.79,142.11C389.79,142.38 389.79,142.65 389.79,142.92C389.79,143.19 389.79,143.46 389.79,143.73C389.79,144 389.79,144.28 389.79,144.55C389.79,144.82 389.79,145.09 389.79,145.36C389.79,145.63 389.79,145.9 389.79,146.17C389.79,146.44 389.79,146.72 389.79,146.99C389.79,147.26 389.79,147.53 389.79,147.8C389.79,148.07 389.79,148.34 389.79,148.61C389.79,148.88 389.79,149.16 389.79,149.43C389.79,149.7 389.79,149.97 389.79,150.24C389.79,150.51 389.79,150.78 389.79,151.05C389.79,151.32 389.79,151.6 389.79,151.87C389.79,152.14 389.79,152.41 389.79,152.68C389.79,152.95 389.79,153.23 389.79,153.5C389.79,153.77 389.79,154.04 389.79,154.31C389.79,154.58 389.79,154.85 389.79,155.12C389.79,155.39 389.79,155.67 389.79,155.94C389.79,156.21 389.79,156.48 389.79,156.75C389.79,157.02 389.79,157.29 389.79,157.56C389.79,157.83 389.79,158.11 389.79,158.38C389.79,158.65 389.79,158.92 389.79,159.19C389.79,159.46 389.79,159.73 389.79,160C389.79,160.27 389.79,160.55 389.79,160.82C389.79,161.09 389.79,161.36 389.79,161.63C389.79,161.9 389.79,162.17 389.79,162.44C389.79,162.71 389.79,162.99 389.79,163.26C389.79,163.53 389.79,163.8 389.79,164.07C389.79,164.34 389.79,164.61 389.79,164.88C389.79,165.15 389.79,165.43 389.79,165.7C389.79,165.97 389.79,166.24 389.79,166.51C389.79,166.78 389.79,167.06 389.79,167.33C389.79,167.6 389.79,167.87 389.79,168.14C389.79,168.41 389.79,168.68 389.79,168.95C389.79,169.22 389.79,169.5 389.79,169.77C389.79,170.04 389.79,170.31 389.79,170.58C389.79,170.85 389.79,171.12 389.79,171.39C389.79,171.66 389.79,171.94 389.79,172.21C389.79,172.48 389.79,172.75 389.79,173.02C389.79,173.29 389.79,173.56 389.79,173.83C389.79,174.1 389.79,174.38 389.79,174.65C389.79,174.92 389.79,175.19 389.79,175.46C389.79,175.73 389.79,176 389.79,176.27C389.79,176.54 389.79,176.82 389.79,177.09C389.79,177.36 389.79,177.63 389.79,177.9C389.79,178.17 389.79,178.45 389.79,178.72C389.79,178.99 389.79,179.26 389.79,179.53C389.79,179.8 389.79,180.07 389.79,180.34C389.79,180.61 389.79,180.89 389.79,181.16C389.79,181.43 389.79,181.7 389.79,181.97C389.79,182.24 389.79,182.51 389.79,182.78C389.79,183.05 389.79,183.33 389.79,183.6C389.79,183.87 389.79,184.14 389.79,184.41C389.79,184.68 389.79,184.95 389.79,185.22C389.79,185.49 389.79,185.77 389.79,186.04C389.79,186.31 389.79,186.58 389.79,186.85C389.79,187.12 389.79,187.39 389.79,187.66C389.79,187.93 389.79,188.21 389.79,188.48C389.79,188.75 389.79,189.02 389.79,189.29C389.79,189.56 389.79,189.83 389.79,190.1C389.79,190.37 389.79,190.65 389.79,190.92C389.79,191.19 389.79,191.46 389.79,191.73C389.79,192 389.79,192.28 389.79,192.55C389.79,192.82 389.79,193.09 389.79,193.36C389.79,193.63 389.79,193.9 389.79,194.17C389.79,194.44 389.79,194.72 389.79,194.99C389.79,195.26 389.79,195.53 389.79,195.8C389.79,196.07 389.79,196.34 389.79,196.61C389.79,196.88 389.79,197.16 389.79,197.43C389.79,197.7 389.79,197.97 389.79,198.24C389.79,198.51 389.79,198.78 389.79,199.05C389.79,199.32 389.79,199.6 389.79,199.87C389.79,200.14 389.79,200.41 389.79,200.68C389.79,200.95 389.79,201.22 389.79,201.49C389.79,201.76 389.79,202.04 389.79,202.31C389.79,202.58 389.79,202.85 389.79,203.12C389.79,203.39 389.79,203.66 389.79,203.93C389.79,204.2 389.79,204.48 389.79,204.75C389.79,205.02 389.79,205.29 389.79,205.56C389.79,205.83 389.79,206.11 389.79,206.38C389.79,206.65 389.79,206.92 389.79,207.19C389.79,207.46 389.79,207.73 389.79,208C389.79,208.27 389.79,208.55 389.79,208.82C389.79,209.09 389.79,209.36 389.79,209.63C389.79,209.9 389.79,210.17 389.79,210.44C389.79,210.71 389.79,210.99 389.79,211.26C389.79,211.53 389.79,211.8 389.79,212.07C389.79,212.34 389.79,212.61 389.79,212.88C389.79,213.15 389.79,213.43 389.79,213.7C389.79,213.97 389.79,214.24 389.79,214.51C389.79,214.78 389.79,215.05 389.79,215.32C389.79,215.59 389.79,215.87 389.79,216.14C389.79,216.41 389.79,216.68 389.79,216.95C389.79,217.22 389.79,217.49 389.79,217.76C389.79,218.03 389.79,218.31 389.79,218.58C389.79,218.85 389.79,219.12 389.79,219.39C389.79,219.66 389.79,219.94 389.79,220.21C389.79,220.48 389.79,220.75 389.79,221.02C389.79,221.29 389.79,221.56 389.79,221.83C389.79,222.1 389.79,222.38 389.79,222.65C389.79,222.92 389.79,223.19 389.79,223.46C389.79,223.73 389.79,224 389.79,224.27C389.79,224.54 389.79,224.82 389.79,225.09C389.79,225.36 389.79,225.63 389.79,225.9C389.79,226.17 389.79,226.44 389.79,226.71C389.79,226.98 389.79,227.26 389.79,227.53C389.79,227.8 389.79,228.07 389.79,228.34C389.79,228.61 389.79,228.88 389.79,229.15C389.79,229.42 389.79,229.7 389.79,229.97C389.79,230.24 389.79,230.51 389.79,230.78C389.79,231.05 389.79,231.33 389.79,231.6C389.79,231.87 389.79,232.14 389.79,232.41C389.79,232.68 389.79,232.95 389.79,233.22C389.79,233.49 389.79,233.77 389.79,234.04C389.79,234.31 389.79,234.58 389.79,234.85C389.79,235.12 389.79,235.39 389.79,235.66C389.79,235.93 389.79,236.21 389.79,236.48C389.79,236.75 389.79,237.02 389.79,237.29C389.79,237.56 389.79,237.83 389.79,238.1C389.79,238.37 389.79,238.65 389.79,238.92C389.79,239.19 389.79,239.46 389.79,239.73C389.79,240 389.79,240.27 389.79,240.54C389.79,240.81 389.79,241.09 389.79,241.36C389.79,241.63 389.79,241.9 389.79,242.17C389.79,242.44 389.79,242.71 389.79,242.98C389.79,243.25 389.79,243.53 389.79,243.8C389.79,244.07 389.79,244.34 389.79,244.61C389.79,244.88 389.79,245.16 389.79,245.43C389.79,245.7 389.79,245.97 389.79,246.24C389.79,246.51 389.79,246.78 389.79,247.05C389.79,247.32 389.79,247.6 389.79,247.87C389.79,248.14 389.79,248.41 389.79,248.68C389.79,248.95 389.79,249.22 389.79,249.49C389.79,249.76 389.79,250.04 389.79,250.31C389.79,250.58 389.79,250.85 389.79,251.12C389.79,251.39 389.79,251.66 389.79,251.93C389.79,252.2 389.79,252.48 389.79,252.75C389.79,253.02 389.79,253.29 389.79,253.56C389.79,253.83 389.79,254.1 389.79,254.37C389.79,254.64 389.79,254.92 389.79,255.19C389.79,255.46 389.79,255.73 389.79,256C389.79,256.27 389.79,256.54 389.79,256.81C389.79,257.08 389.79,257.36 389.79,257.63C389.79,257.9 389.79,258.17 389.79,258.44C389.79,258.71 389.79,258.99 389.79,259.26C389.79,259.53 389.79,259.8 389.79,260.07C389.79,260.34 389.79,260.61 389.79,260.88C389.79,261.15 389.79,261.43 389.79,261.7C389.79,261.97 389.79,262.24 389.79,262.51C389.79,262.78 389.79,263.05 389.79,263.32C389.79,263.59 389.79,263.87 389.79,264.14C389.79,264.41 389.79,264.68 389.79,264.95C389.79,265.22 389.79,265.49 389.79,265.76C389.79,266.03 389.79,266.31 389.79,266.58C389.79,266.85 389.78,267.12 389.78,267.39C389.78,267.66 389.78,267.93 389.78,268.2C389.78,268.47 389.78,268.75 389.77,269.02C389.76,269.29 389.75,269.56 389.74,269.83C389.72,270.1 389.71,270.37 389.68,270.64C389.65,270.91 389.62,271.19 389.57,271.46C389.52,271.73 389.46,272 389.39,272.27C389.32,272.54 389.24,272.82 389.15,273.09C389.06,273.36 388.96,273.63 388.87,273.9C388.78,274.17 388.68,274.44 388.61,274.71C388.54,274.98 388.47,275.26 388.43,275.53C388.39,275.8 388.37,276.07 388.38,276.34C388.39,276.61 388.44,276.88 388.49,277.15C388.55,277.42 388.63,277.7 388.71,277.97C388.79,278.24 388.9,278.51 388.99,278.78C389.08,279.05 389.18,279.32 389.26,279.59C389.34,279.86 389.41,280.14 389.46,280.41C389.51,280.68 389.56,280.95 389.58,281.22C389.6,281.49 389.62,281.76 389.61,282.03C389.6,282.3 389.56,282.58 389.5,282.85C389.43,283.12 389.35,283.4 389.22,283.66C389.08,283.94 388.9,284.22 388.67,284.48C388.42,284.77 388.09,285.04 387.74,285.29C387.34,285.58 386.86,285.84 386.36,286.1C385.8,286.39 385.17,286.66 384.52,286.92C383.81,287.2 383.05,287.47 382.28,287.73C381.46,288.01 380.6,288.27 379.74,288.54C378.85,288.82 377.93,289.09 377,289.36C376.05,289.63 375.08,289.9 374.12,290.17C373.16,290.44 372.18,290.7 371.24,290.98C370.34,291.25 369.41,291.51 368.59,291.8C367.87,292.06 367.1,292.29 366.58,292.61C366.19,292.85 365.71,293.13 365.65,293.42C365.6,293.67 365.82,294 366.07,294.24C366.42,294.58 367.13,294.8 367.76,295.05C368.52,295.35 369.46,295.6 370.36,295.86C371.33,296.14 372.37,296.41 373.38,296.68C374.39,296.95 375.41,297.21 376.4,297.49C377.35,297.76 378.3,298.03 379.2,298.31C380.06,298.57 380.9,298.84 381.7,299.12C382.45,299.38 383.19,299.65 383.88,299.93C384.52,300.19 385.14,300.46 385.71,300.75C386.23,301.01 386.73,301.27 387.17,301.56C387.56,301.82 387.92,302.08 388.23,302.37C388.51,302.63 388.75,302.91 388.94,303.19Q389.12,303.45 389.37,304Z" style="vector-effect: non-scaling-stroke; stroke-width: 2px; stroke: rgb(171, 99, 250); stroke-opacity: 1; fill: rgb(171, 99, 250); fill-opacity: 0.5;"/><g class="points"><path class="point" transform="translate(352.68,299.12)" d="M3,0A3,3 0 1,1 0,-3A3,3 0 0,1 3,0Z" style="opacity: 1; stroke-width: 0px; fill: rgb(171, 99, 250); fill-opacity: 1;"/><path class="point" transform="translate(347.06,298.35)" d="M3,0A3,3 0 1,1 0,-3A3,3 0 0,1 3,0Z" style="opacity: 1; stroke-width: 0px; fill: rgb(171, 99, 250); fill-opacity: 1;"/><path class="point" transform="translate(353.54,298.26)" d="M3,0A3,3 0 1,1 0,-3A3,3 0 0,1 3,0Z" style="opacity: 1; stroke-width: 0px; fill: rgb(171, 99, 250); fill-opacity: 1;"/><path class="point" transform="translate(345.81,296.77)" d="M3,0A3,3 0 1,1 0,-3A3,3 0 0,1 3,0Z" style="opacity: 1; stroke-width: 0px; fill: rgb(171, 99, 250); fill-opacity: 1;"/><path class="point" transform="translate(348.67,296.34)" d="M3,0A3,3 0 1,1 0,-3A3,3 0 0,1 3,0Z" style="opacity: 1; stroke-width: 0px; fill: rgb(171, 99, 250); fill-opacity: 1;"/><path class="point" transform="translate(352.78,296.34)" d="M3,0A3,3 0 1,1 0,-3A3,3 0 0,1 3,0Z" style="opacity: 1; stroke-width: 0px; fill: rgb(171, 99, 250); fill-opacity: 1;"/><path class="point" transform="translate(349.72,294.56)" d="M3,0A3,3 0 1,1 0,-3A3,3 0 0,1 3,0Z" style="opacity: 1; stroke-width: 0px; fill: rgb(171, 99, 250); fill-opacity: 1;"/><path class="point" transform="translate(351.65,294.08)" d="M3,0A3,3 0 1,1 0,-3A3,3 0 0,1 3,0Z" style="opacity: 1; stroke-width: 0px; fill: rgb(171, 99, 250); fill-opacity: 1;"/><path class="point" transform="translate(347.66,293.9)" d="M3,0A3,3 0 1,1 0,-3A3,3 0 0,1 3,0Z" style="opacity: 1; stroke-width: 0px; fill: rgb(171, 99, 250); fill-opacity: 1;"/><path class="point" transform="translate(344.41,293.85)" d="M3,0A3,3 0 1,1 0,-3A3,3 0 0,1 3,0Z" style="opacity: 1; stroke-width: 0px; fill: rgb(171, 99, 250); fill-opacity: 1;"/><path class="point" transform="translate(351.89,293.82)" d="M3,0A3,3 0 1,1 0,-3A3,3 0 0,1 3,0Z" style="opacity: 1; stroke-width: 0px; fill: rgb(171, 99, 250); fill-opacity: 1;"/><path class="point" transform="translate(347.32,293.82)" d="M3,0A3,3 0 1,1 0,-3A3,3 0 0,1 3,0Z" style="opacity: 1; stroke-width: 0px; fill: rgb(171, 99, 250); fill-opacity: 1;"/><path class="point" transform="translate(354.99,293.79)" d="M3,0A3,3 0 1,1 0,-3A3,3 0 0,1 3,0Z" style="opacity: 1; stroke-width: 0px; fill: rgb(171, 99, 250); fill-opacity: 1;"/><path class="point" transform="translate(342.18,293.73)" d="M3,0A3,3 0 1,1 0,-3A3,3 0 0,1 3,0Z" style="opacity: 1; stroke-width: 0px; fill: rgb(171, 99, 250); fill-opacity: 1;"/><path class="point" transform="translate(345.33,293.62)" d="M3,0A3,3 0 1,1 0,-3A3,3 0 0,1 3,0Z" style="opacity: 1; stroke-width: 0px; fill: rgb(171, 99, 250); fill-opacity: 1;"/><path class="point" transform="translate(356.95,293.45)" d="M3,0A3,3 0 1,1 0,-3A3,3 0 0,1 3,0Z" style="opacity: 1; stroke-width: 0px; fill: rgb(171, 99, 250); fill-opacity: 1;"/><path class="point" transform="translate(348.34,293.33)" d="M3,0A3,3 0 1,1 0,-3A3,3 0 0,1 3,0Z" style="opacity: 1; stroke-width: 0px; fill: rgb(171, 99, 250); fill-opacity: 1;"/><path class="point" transform="translate(344.56,293.3)" d="M3,0A3,3 0 1,1 0,-3A3,3 0 0,1 3,0Z" style="opacity: 1; stroke-width: 0px; fill: rgb(171, 99, 250); fill-opacity: 1;"/><path class="point" transform="translate(347.97,292.84)" d="M3,0A3,3 0 1,1 0,-3A3,3 0 0,1 3,0Z" style="opacity: 1; stroke-width: 0px; fill: rgb(171, 99, 250); fill-opacity: 1;"/><path class="point" transform="translate(349.82,291.41)" d="M3,0A3,3 0 1,1 0,-3A3,3 0 0,1 3,0Z" style="opacity: 1; stroke-width: 0px; fill: rgb(171, 99, 250); fill-opacity: 1;"/><path class="point" transform="translate(352.47,291.35)" d="M3,0A3,3 0 1,1 0,-3A3,3 0 0,1 3,0Z" style="opacity: 1; stroke-width: 0px; fill: rgb(171, 99, 250); fill-opacity: 1;"/><path class="point" transform="translate(350.27,289.98)" d="M3,0A3,3 0 1,1 0,-3A3,3 0 0,1 3,0Z" style="opacity: 1; stroke-width: 0px; fill: rgb(171, 99, 250); fill-opacity: 1;"/><path class="point" transform="translate(349.71,289.84)" d="M3,0A3,3 0 1,1 0,-3A3,3 0 0,1 3,0Z" style="opacity: 1; stroke-width: 0px; fill: rgb(171, 99, 250); fill-opacity: 1;"/><path class="point" transform="translate(349.3,289.38)" d="M3,0A3,3 0 1,1 0,-3A3,3 0 0,1 3,0Z" style="opacity: 1; stroke-width: 0px; fill: rgb(171, 99, 250); fill-opacity: 1;"/><path class="point" transform="translate(349.94,288.89)" d="M3,0A3,3 0 1,1 0,-3A3,3 0 0,1 3,0Z" style="opacity: 1; stroke-width: 0px; fill: rgb(171, 99, 250); fill-opacity: 1;"/><path class="point" transform="translate(349.74,288.55)" d="M3,0A3,3 0 1,1 0,-3A3,3 0 0,1 3,0Z" style="opacity: 1; stroke-width: 0px; fill: rgb(171, 99, 250); fill-opacity: 1;"/><path class="point" transform="translate(350.23,276.17)" d="M3,0A3,3 0 1,1 0,-3A3,3 0 0,1 3,0Z" style="opacity: 1; stroke-width: 0px; fill: rgb(171, 99, 250); fill-opacity: 1;"/><path class="point" transform="translate(349.89,55.06)" d="M3,0A3,3 0 1,1 0,-3A3,3 0 0,1 3,0Z" style="opacity: 1; stroke-width: 0px; fill: rgb(171, 99, 250); fill-opacity: 1;"/></g></g></g></g><g class="overplot"/><path class="xlines-above crisp" d="M0,0" style="fill: none;"/><path class="ylines-above crisp" d="M0,0" style="fill: none;"/><g class="overlines-above"/><g class="xaxislayer-above"><g class="xtick"><text text-anchor="middle" x="0" y="433" transform="translate(144.5,0)" style="font-family: 'Open Sans', verdana, arial, sans-serif; font-size: 12px; fill: rgb(42, 63, 95); fill-opacity: 1; white-space: pre; opacity: 1;">ascad_mlp</text></g><g class="xtick"><text text-anchor="middle" x="0" y="433" transform="translate(252.93,0)" style="font-family: 'Open Sans', verdana, arial, sans-serif; font-size: 12px; fill: rgb(42, 63, 95); fill-opacity: 1; white-space: pre; opacity: 1;">ascad_mlp_fn</text></g><g class="xtick"><text text-anchor="middle" x="0" y="433" transform="translate(361.36,0)" style="font-family: 'Open Sans', verdana, arial, sans-serif; font-size: 12px; fill: rgb(42, 63, 95); fill-opacity: 1; white-space: pre; opacity: 1;">eff_cnn</text></g><g class="xtick"><text text-anchor="middle" x="0" y="433" transform="translate(469.79,0)" style="font-family: 'Open Sans', verdana, arial, sans-serif; font-size: 12px; fill: rgb(42, 63, 95); fill-opacity: 1; white-space: pre; opacity: 1;">simplified_eff_cnn</text></g></g><g class="yaxislayer-above"><g class="ytick"><text text-anchor="end" x="79" y="4.199999999999999" transform="translate(0,408.86)" style="font-family: 'Open Sans', verdana, arial, sans-serif; font-size: 12px; fill: rgb(42, 63, 95); fill-opacity: 1; white-space: pre; opacity: 1;">0</text></g><g class="ytick"><text text-anchor="end" x="79" y="4.199999999999999" style="font-family: 'Open Sans', verdana, arial, sans-serif; font-size: 12px; fill: rgb(42, 63, 95); fill-opacity: 1; white-space: pre; opacity: 1;" transform="translate(0,351.56)">2k</text></g><g class="ytick"><text text-anchor="end" x="79" y="4.199999999999999" style="font-family: 'Open Sans', verdana, arial, sans-serif; font-size: 12px; fill: rgb(42, 63, 95); fill-opacity: 1; white-space: pre; opacity: 1;" transform="translate(0,294.26)">4k</text></g><g class="ytick"><text text-anchor="end" x="79" y="4.199999999999999" style="font-family: 'Open Sans', verdana, arial, sans-serif; font-size: 12px; fill: rgb(42, 63, 95); fill-opacity: 1; white-space: pre; opacity: 1;" transform="translate(0,236.97)">6k</text></g><g class="ytick"><text text-anchor="end" x="79" y="4.199999999999999" style="font-family: 'Open Sans', verdana, arial, sans-serif; font-size: 12px; fill: rgb(42, 63, 95); fill-opacity: 1; white-space: pre; opacity: 1;" transform="translate(0,179.67000000000002)">8k</text></g><g class="ytick"><text text-anchor="end" x="79" y="4.199999999999999" style="font-family: 'Open Sans', verdana, arial, sans-serif; font-size: 12px; fill: rgb(42, 63, 95); fill-opacity: 1; white-space: pre; opacity: 1;" transform="translate(0,122.37)">10k</text></g></g><g class="overaxes-above"/></g></g><g class="polarlayer"/><g class="ternarylayer"/><g class="geolayer"/><g class="funnelarealayer"/><g class="pielayer"/><g class="iciclelayer"/><g class="treemaplayer"/><g class="sunburstlayer"/><g class="glimages"/><defs id="topdefs-5dddda"><g class="clips"/><clipPath id="legend5dddda"><rect width="155" height="105" x="0" y="0"/></clipPath></defs><g class="layer-above"><g class="imagelayer"/><g class="shapelayer"/></g><g class="infolayer"><g class="legend" pointer-events="all" transform="translate(532.88,100)"><rect class="bg" shape-rendering="crispEdges" width="155" height="105" x="0" y="0" style="stroke: rgb(68, 68, 68); stroke-opacity: 1; fill: rgb(255, 255, 255); fill-opacity: 1; stroke-width: 0px;"/><g class="scrollbox" transform="" clip-path="url(#legend5dddda)"><text class="legendtitletext" text-anchor="start" x="2" y="18.2" style="font-family: 'Open Sans', verdana, arial, sans-serif; font-size: 14px; fill: rgb(42, 63, 95); fill-opacity: 1; white-space: pre;">model</text><g class="groups" transform=""><g class="traces" transform="translate(0,32.7)" style="opacity: 1;"><text class="legendtext" text-anchor="start" x="40" y="4.680000000000001" style="font-family: 'Open Sans', verdana, arial, sans-serif; font-size: 12px; fill: rgb(42, 63, 95); fill-opacity: 1; white-space: pre;">ascad_mlp</text><g class="layers" style="opacity: 1;"><g class="legendfill"/><g class="legendlines"/><g class="legendsymbols"><g class="legendpoints"><path class="legendbox" d="M6,6H-6V-6H6Z" transform="translate(20,0)" style="stroke-width: 2px; fill: rgb(99, 110, 250); fill-opacity: 0.5; stroke: rgb(99, 110, 250); stroke-opacity: 1;"/></g></g></g><rect class="legendtoggle" x="0" y="-9.5" width="149.703125" height="19" style="fill: rgb(0, 0, 0); fill-opacity: 0;"/></g></g><g class="groups" transform=""><g class="traces" transform="translate(0,51.7)" style="opacity: 1;"><text class="legendtext" text-anchor="start" x="40" y="4.680000000000001" style="font-family: 'Open Sans', verdana, arial, sans-serif; font-size: 12px; fill: rgb(42, 63, 95); fill-opacity: 1; white-space: pre;">ascad_mlp_fn</text><g class="layers" style="opacity: 1;"><g class="legendfill"/><g class="legendlines"/><g class="legendsymbols"><g class="legendpoints"><path class="legendbox" d="M6,6H-6V-6H6Z" transform="translate(20,0)" style="stroke-width: 2px; fill: rgb(239, 85, 59); fill-opacity: 0.5; stroke: rgb(239, 85, 59); stroke-opacity: 1;"/></g></g></g><rect class="legendtoggle" x="0" y="-9.5" width="149.703125" height="19" style="fill: rgb(0, 0, 0); fill-opacity: 0;"/></g></g><g class="groups" transform=""><g class="traces" transform="translate(0,70.7)" style="opacity: 1;"><text class="legendtext" text-anchor="start" x="40" y="4.680000000000001" style="font-family: 'Open Sans', verdana, arial, sans-serif; font-size: 12px; fill: rgb(42, 63, 95); fill-opacity: 1; white-space: pre;">eff_cnn</text><g class="layers" style="opacity: 1;"><g class="legendfill"/><g class="legendlines"/><g class="legendsymbols"><g class="legendpoints"><path class="legendbox" d="M6,6H-6V-6H6Z" transform="translate(20,0)" style="stroke-width: 2px; fill: rgb(0, 204, 150); fill-opacity: 0.5; stroke: rgb(0, 204, 150); stroke-opacity: 1;"/></g></g></g><rect class="legendtoggle" x="0" y="-9.5" width="149.703125" height="19" style="fill: rgb(0, 0, 0); fill-opacity: 0;"/></g></g><g class="groups" transform=""><g class="traces" transform="translate(0,89.7)" style="opacity: 1;"><text class="legendtext" text-anchor="start" x="40" y="4.680000000000001" style="font-family: 'Open Sans', verdana, arial, sans-serif; font-size: 12px; fill: rgb(42, 63, 95); fill-opacity: 1; white-space: pre;">simplified_eff_cnn</text><g class="layers" style="opacity: 1;"><g class="legendfill"/><g class="legendlines"/><g class="legendsymbols"><g class="legendpoints"><path class="legendbox" d="M6,6H-6V-6H6Z" transform="translate(20,0)" style="stroke-width: 2px; fill: rgb(171, 99, 250); fill-opacity: 0.5; stroke: rgb(171, 99, 250); stroke-opacity: 1;"/></g></g></g><rect class="legendtoggle" x="0" y="-9.5" width="149.703125" height="19" style="fill: rgb(0, 0, 0); fill-opacity: 0;"/></g></g></g><rect class="scrollbar" rx="20" ry="3" width="0" height="0" x="0" y="0" style="fill: rgb(128, 139, 164); fill-opacity: 1;"/></g><g class="g-gtitle"><text class="gtitle" x="35" y="50" text-anchor="start" dy="0em" style="font-family: 'Open Sans', verdana, arial, sans-serif; font-size: 17px; fill: rgb(42, 63, 95); opacity: 1; font-weight: normal; white-space: pre;">Distribution of min traces needed for average rank to be zero</text></g><g class="g-xtitle"><text class="xtitle" x="302" y="460.8" text-anchor="middle" style="font-family: 'Open Sans', verdana, arial, sans-serif; font-size: 14px; fill: rgb(42, 63, 95); opacity: 1; font-weight: normal; white-space: pre;">model</text></g><g class="g-ytitle"><text class="ytitle" transform="rotate(-90,31.840625000000003,260)" x="31.840625000000003" y="260" text-anchor="middle" style="font-family: 'Open Sans', verdana, arial, sans-serif; font-size: 14px; fill: rgb(42, 63, 95); opacity: 1; font-weight: normal; white-space: pre;">min traces needed for average rank to be zero</text></g><g class="annotation" data-index="0" style="opacity: 1;"><g class="annotation-text-g" transform="rotate(0,134.5,125)"><g class="cursor-pointer" transform="translate(80,100)"><rect class="bg" x="0.5" y="0.5" width="108" height="49" style="stroke-width: 1px; stroke: rgb(255, 0, 0); stroke-opacity: 1; fill: rgb(0, 0, 0); fill-opacity: 0;"/><text class="annotation-text" text-anchor="middle" x="54.46875" y="14" style="font-family: 'Open Sans', verdana, arial, sans-serif; font-size: 12px; fill: rgb(42, 63, 95); fill-opacity: 1; white-space: pre;"><tspan class="line" dy="0em" x="54.46875" y="14"> 100.00 % failed </tspan><tspan class="line" dy="1.3em" x="54.46875" y="14">min: inf</tspan><tspan class="line" dy="2.6em" x="54.46875" y="14">max: inf</tspan></text></g></g><g class="annotation-arrow-g" style="opacity: 1;"><path d="M142.66666666666666,149.5L144.5,155" style="stroke-width: 1px; stroke: rgb(42, 63, 95); stroke-opacity: 1; stroke-dasharray: 0px, 0px, 5.79751px, 5.79751px;"/></g></g><g class="annotation" data-index="1" style="opacity: 1;"><g class="annotation-text-g" transform="rotate(0,242.93,125)"><g class="cursor-pointer" transform="translate(188,100)"><rect class="bg" x="0.5" y="0.5" width="108" height="49" style="stroke-width: 1px; stroke: rgb(255, 0, 0); stroke-opacity: 1; fill: rgb(0, 0, 0); fill-opacity: 0;"/><text class="annotation-text" text-anchor="middle" x="54.46875" y="14" style="font-family: 'Open Sans', verdana, arial, sans-serif; font-size: 12px; fill: rgb(42, 63, 95); fill-opacity: 1; white-space: pre;"><tspan class="line" dy="0em" x="54.46875" y="14"> 100.00 % failed </tspan><tspan class="line" dy="1.3em" x="54.46875" y="14">min: inf</tspan><tspan class="line" dy="2.6em" x="54.46875" y="14">max: inf</tspan></text></g></g><g class="annotation-arrow-g" style="opacity: 1;"><path d="M251.09666666666666,149.5L252.93,155" style="stroke-width: 1px; stroke: rgb(42, 63, 95); stroke-opacity: 1; stroke-dasharray: 0px, 0px, 5.79751px, 5.79751px;"/></g></g><g class="annotation" data-index="2" style="opacity: 1;"><g class="annotation-text-g" transform="rotate(0,351.36,125)"><g class="cursor-pointer" transform="translate(304,100)"><rect class="bg" x="0.5" y="0.5" width="93" height="49" style="stroke-width: 1px; stroke: rgb(255, 0, 0); stroke-opacity: 1; fill: rgb(0, 0, 0); fill-opacity: 0;"/><text class="annotation-text" text-anchor="middle" x="46.84375" y="14" style="font-family: 'Open Sans', verdana, arial, sans-serif; font-size: 12px; fill: rgb(42, 63, 95); fill-opacity: 1; white-space: pre;"><tspan class="line" dy="0em" x="46.84375" y="14"> 6.90 % failed </tspan><tspan class="line" dy="1.3em" x="46.84375" y="14">min: 344</tspan><tspan class="line" dy="2.6em" x="46.84375" y="14">max: inf</tspan></text></g></g><g class="annotation-arrow-g" style="opacity: 1;"><path d="M359.5266666666667,149.5L361.36,155" style="stroke-width: 1px; stroke: rgb(42, 63, 95); stroke-opacity: 1; stroke-dasharray: 0px, 0px, 5.7975px, 5.7975px;"/></g></g><g class="annotation" data-index="3" style="opacity: 1;"><g class="annotation-text-g" transform="rotate(0,459.79,125)"><g class="cursor-pointer" transform="translate(413,100)"><rect class="bg" x="0.5" y="0.5" width="93" height="49" style="stroke-width: 1px; stroke: rgb(255, 0, 0); stroke-opacity: 1; fill: rgb(0, 0, 0); fill-opacity: 0;"/><text class="annotation-text" text-anchor="middle" x="46.84375" y="14" style="font-family: 'Open Sans', verdana, arial, sans-serif; font-size: 12px; fill: rgb(42, 63, 95); fill-opacity: 1; white-space: pre;"><tspan class="line" dy="0em" x="46.84375" y="14"> 3.45 % failed </tspan><tspan class="line" dy="1.3em" x="46.84375" y="14">min: 340</tspan><tspan class="line" dy="2.6em" x="46.84375" y="14">max: inf</tspan></text></g></g><g class="annotation-arrow-g" style="opacity: 1;"><path d="M467.9566666666667,149.5L469.79,155" style="stroke-width: 1px; stroke: rgb(42, 63, 95); stroke-opacity: 1; stroke-dasharray: 0px, 0px, 5.79751px, 5.79751px;"/></g></g></g></svg>