<svg class="main-svg" xmlns="http://www.w3.org/2000/svg" xmlns:xlink="http://www.w3.org/1999/xlink" width="700" height="500" style="" viewBox="0 0 700 500"><rect x="0" y="0" width="700" height="500" style="fill: rgb(255, 255, 255); fill-opacity: 1;"/><defs id="defs-c25e22"><g class="clips"><clipPath id="clipc25e22xyplot" class="plotclip"><rect width="540" height="320"/></clipPath><clipPath class="axesclip" id="clipc25e22x"><rect x="80" y="0" width="540" height="500"/></clipPath><clipPath class="axesclip" id="clipc25e22y"><rect x="0" y="100" width="700" height="320"/></clipPath><clipPath class="axesclip" id="clipc25e22xy"><rect x="80" y="100" width="540" height="320"/></clipPath></g><g class="gradients"/><g class="patterns"/></defs><g class="bglayer"><rect class="bg" x="80" y="100" width="540" height="320" style="fill: rgb(229, 236, 246); fill-opacity: 1; stroke-width: 0;"/></g><g class="layer-below"><g class="imagelayer"/><g class="shapelayer"/></g><g class="cartesianlayer"><g class="subplot xy"><g class="layer-subplot"><g class="shapelayer"/><g class="imagelayer"/></g><g class="gridlayer"><g class="x"><path class="xgrid crisp" transform="translate(188.43,0)" d="M0,100v320" style="stroke: rgb(255, 255, 255); stroke-opacity: 1; stroke-width: 1px;"/><path class="xgrid crisp" transform="translate(296.87,0)" d="M0,100v320" style="stroke: rgb(255, 255, 255); stroke-opacity: 1; stroke-width: 1px;"/><path class="xgrid crisp" transform="translate(405.3,0)" d="M0,100v320" style="stroke: rgb(255, 255, 255); stroke-opacity: 1; stroke-width: 1px;"/><path class="xgrid crisp" transform="translate(513.73,0)" d="M0,100v320" style="stroke: rgb(255, 255, 255); stroke-opacity: 1; stroke-width: 1px;"/></g><g class="y"><path class="ygrid crisp" transform="translate(0,356.82)" d="M80,0h540" style="stroke: rgb(255, 255, 255); stroke-opacity: 1; stroke-width: 1px;"/><path class="ygrid crisp" transform="translate(0,293.64)" d="M80,0h540" style="stroke: rgb(255, 255, 255); stroke-opacity: 1; stroke-width: 1px;"/><path class="ygrid crisp" transform="translate(0,230.46)" d="M80,0h540" style="stroke: rgb(255, 255, 255); stroke-opacity: 1; stroke-width: 1px;"/><path class="ygrid crisp" transform="translate(0,167.28)" d="M80,0h540" style="stroke: rgb(255, 255, 255); stroke-opacity: 1; stroke-width: 1px;"/><path class="ygrid crisp" transform="translate(0,104.09)" d="M80,0h540" style="stroke: rgb(255, 255, 255); stroke-opacity: 1; stroke-width: 1px;"/></g></g><g class="zerolinelayer"><path class="xzl zl crisp" transform="translate(80,0)" d="M0,100v320" style="stroke: rgb(255, 255, 255); stroke-opacity: 1; stroke-width: 2px;"/><path class="yzl zl crisp" transform="translate(0,420)" d="M80,0h540" style="stroke: rgb(255, 255, 255); stroke-opacity: 1; stroke-width: 2px;"/></g><path class="xlines-below"/><path class="ylines-below"/><g class="overlines-below"/><g class="xaxislayer-below"/><g class="yaxislayer-below"/><g class="overaxes-below"/><g class="plot" transform="translate(80,100)" clip-path="url(#clipc25e22xyplot)"><g class="scatterlayer mlayer"><g class="trace scatter tracece58d9" style="stroke-miterlimit: 2; opacity: 1;"><g class="fills"/><g class="errorbars"/><g class="lines"><path class="js-line" d="M0,226.4L8.67,273.17L10.84,279.6L15.18,286.89L17.35,287.98L19.52,291.61L21.69,296.98L30.36,304.14L32.53,304.84L34.7,305.58L36.87,307.88L41.2,308.5L43.37,309.54L49.88,310.36L52.05,311.42L54.22,311.19L56.39,312.2L62.89,313.64L65.06,313.73L73.73,314.14L75.9,314.55L110.6,316.75L112.77,316.75L184.34,319.03L186.51,318.98L219.04,319.23L221.2,319.36L351.33,319.84L353.49,319.81L540,319.99" style="vector-effect: non-scaling-stroke; fill: none; stroke: rgb(99, 110, 250); stroke-opacity: 1; stroke-width: 2px; opacity: 1;"/></g><g class="points"/><g class="text"/></g><g class="trace scatter trace3fe067" style="stroke-miterlimit: 2; opacity: 1;"><g class="fills"/><g class="errorbars"/><g class="lines"><path class="js-line" d="M0,215.78L8.67,273.41L10.84,279.03L13.01,280.04L15.18,283.94L19.52,290.1L21.69,294.46L23.86,294.17L26.02,296.66L30.36,301.24L32.53,302.26L34.7,302.59L36.87,304.8L39.04,304.33L41.2,306.07L49.88,308.48L52.05,309.75L54.22,309.84L56.39,311.41L65.06,312.84L67.23,312.8L78.07,314.28L80.24,314.12L121.45,316.93L123.61,316.9L140.96,317.93L143.13,318L166.99,318.74L169.16,318.64L184.34,318.89L186.51,318.79L229.88,319.52L232.05,319.46L485.78,320L487.95,320L540,319.99" style="vector-effect: non-scaling-stroke; fill: none; stroke: rgb(239, 85, 59); stroke-opacity: 1; stroke-width: 2px; opacity: 1;"/></g><g class="points"/><g class="text"/></g><g class="trace scatter trace34ea21" style="stroke-miterlimit: 2; opacity: 1;"><g class="fills"/><g class="errorbars"/><g class="lines"><path class="js-line" d="M0,223.38L4.34,247.16L6.51,262.35L8.67,274.7L10.84,279.32L17.35,287.44L19.52,290.9L21.69,295.3L23.86,295.33L28.19,300.06L30.36,301.83L34.7,303.05L36.87,305.27L39.04,304.92L41.2,306.01L54.22,308.74L56.39,309.99L60.72,311.21L62.89,311.48L67.23,312.11L69.4,312L73.73,312.75L75.9,313.08L84.58,313.83L86.75,313.83L95.42,314.45L97.59,314.59L112.77,315.36L114.94,315.62L125.78,316.44L127.95,316.58L134.46,316.95L136.63,317.23L156.14,317.93L158.31,318.03L264.58,319.62L266.75,319.63L351.33,319.68L353.49,319.67L383.86,319.8L386.02,319.81L440.24,319.84L442.41,319.82L540,319.97" style="vector-effect: non-scaling-stroke; fill: none; stroke: rgb(0, 204, 150); stroke-opacity: 1; stroke-width: 2px; opacity: 1;"/></g><g class="points"/><g class="text"/></g><g class="trace scatter tracee19cf2" style="stroke-miterlimit: 2; opacity: 1;"><g class="fills"/><g class="errorbars"/><g class="lines"><path class="js-line" d="M0,216.89L4.34,244.18L6.51,259.03L8.67,271.43L10.84,278.48L13.01,279.45L15.18,283.28L21.69,294.63L23.86,294.61L30.36,300.97L32.53,301.87L34.7,302.69L36.87,304.58L39.04,304.04L41.2,305.86L54.22,309.44L56.39,311L60.72,311.75L62.89,312.28L69.4,312.94L71.57,313.2L78.07,314.16L80.24,314.05L106.27,316.5L108.43,316.32L169.16,318.61L171.33,318.64L294.94,319.79L297.11,319.77L540,320" style="vector-effect: non-scaling-stroke; fill: none; stroke: rgb(171, 99, 250); stroke-opacity: 1; stroke-width: 2px; opacity: 1;"/></g><g class="points"/><g class="text"/></g><g class="trace scatter trace4e634d" style="stroke-miterlimit: 2; opacity: 1;"><g class="fills"/><g class="errorbars"/><g class="lines"><path class="js-line" d="M0,218.29L4.34,243.98L6.51,258.46L8.67,272.11L10.84,278L13.01,280.51L15.18,284.53L21.69,294.66L23.86,294.87L28.19,299.74L30.36,301.55L34.7,302.32L36.87,304.5L39.04,304.31L41.2,305.68L47.71,307.49L49.88,307.57L56.39,309.99L58.55,310.7L71.57,312.39L73.73,312.49L78.07,313.39L80.24,313.77L88.92,314.1L91.08,314.35L108.43,315.55L110.6,315.45L123.61,316.41L125.78,316.63L145.3,317.62L147.47,317.71L158.31,317.9L160.48,317.94L193.01,318.67L195.18,318.66L208.19,318.91L210.36,318.89L225.54,319.17L227.71,319.17L513.98,319.96L516.14,319.96L540,319.99" style="vector-effect: non-scaling-stroke; fill: none; stroke: rgb(255, 161, 90); stroke-opacity: 1; stroke-width: 2px; opacity: 1;"/></g><g class="points"/><g class="text"/></g><g class="trace scatter trace745210" style="stroke-miterlimit: 2; opacity: 1;"><g class="fills"/><g class="errorbars"/><g class="lines"><path class="js-line" d="M0,222.97L4.34,247.35L6.51,261.52L8.67,273.59L10.84,277.45L13.01,279.69L15.18,283.6L21.69,293.64L23.86,294.17L28.19,298.4L30.36,300.44L34.7,301.83L36.87,303.9L39.04,304.09L41.2,305.33L43.37,305.35L45.54,306.14L47.71,306.95L49.88,306.67L52.05,307.97L54.22,308.3L60.72,310.42L62.89,310.9L80.24,313.28L82.41,313.15L88.92,313.57L91.08,313.91L119.28,315.97L121.45,315.87L147.47,317.6L149.64,317.49L310.12,319.66L312.29,319.66L442.41,319.81L444.58,319.81L540,319.94" style="vector-effect: non-scaling-stroke; fill: none; stroke: rgb(25, 211, 243); stroke-opacity: 1; stroke-width: 2px; opacity: 1;"/></g><g class="points"/><g class="text"/></g><g class="trace scatter tracefda4d0" style="stroke-miterlimit: 2; opacity: 1;"><g class="fills"/><g class="errorbars"/><g class="lines"><path class="js-line" d="M0,219.59L4.34,246.09L6.51,261.43L8.67,273.27L10.84,279.17L19.52,289.53L21.69,293.64L23.86,294.36L26.02,297.08L30.36,301.2L32.53,301.6L36.87,304.86L39.04,304.61L41.2,306.09L43.37,306.23L47.71,307.64L49.88,308.03L56.39,311.17L58.55,311.77L106.27,315.88L108.43,315.83L160.48,318.14L162.65,318.19L180,318.61L182.17,318.61L279.76,319.72L281.93,319.72L540,320" style="vector-effect: non-scaling-stroke; fill: none; stroke: rgb(255, 102, 146); stroke-opacity: 1; stroke-width: 2px; opacity: 1;"/></g><g class="points"/><g class="text"/></g><g class="trace scatter trace8a6084" style="stroke-miterlimit: 2; opacity: 1;"><g class="fills"/><g class="errorbars"/><g class="lines"><path class="js-line" d="M0,217.57L4.34,244.22L6.51,258.55L8.67,270.67L10.84,278.1L19.52,289.5L21.69,294.32L23.86,294.68L26.02,297.2L30.36,301.48L32.53,302.03L34.7,302.18L36.87,304.65L39.04,304.2L41.2,306.4L49.88,308.1L52.05,309.52L54.22,309.58L56.39,310.79L62.89,311.9L65.06,312.3L67.23,312.1L69.4,312.73L80.24,314.06L82.41,314.25L104.1,315.94L106.27,316.06L127.95,317.07L130.12,316.79L140.96,317.54L143.13,317.6L166.99,318.48L169.16,318.47L268.92,319.72L271.08,319.73L386.02,319.92L388.19,319.95L540,319.99" style="vector-effect: non-scaling-stroke; fill: none; stroke: rgb(182, 232, 128); stroke-opacity: 1; stroke-width: 2px; opacity: 1;"/></g><g class="points"/><g class="text"/></g><g class="trace scatter tracec61c6c" style="stroke-miterlimit: 2; opacity: 1;"><g class="fills"/><g class="errorbars"/><g class="lines"><path class="js-line" d="M0,223.35L2.17,233.19L4.34,247.72L8.67,276.13L10.84,279.97L15.18,284.74L17.35,288.4L19.52,291.18L21.69,295.52L23.86,296.04L26.02,298.49L30.36,301.66L32.53,302.01L34.7,302.45L36.87,305.19L39.04,304.72L41.2,305.86L45.54,306.85L47.71,307.33L49.88,307.04L52.05,308.19L56.39,309.79L58.55,310.61L75.9,312.71L78.07,313.14L91.08,314.38L93.25,314.67L99.76,314.63L101.93,314.86L112.77,315.39L114.94,315.54L121.45,315.96L123.61,316.18L130.12,316.63L132.29,316.51L138.8,317.18L140.96,317.38L147.47,317.73L149.64,317.65L166.99,318.34L169.16,318.42L307.95,319.75L310.12,319.77L366.51,319.81L368.67,319.81L540,319.99" style="vector-effect: non-scaling-stroke; fill: none; stroke: rgb(255, 151, 255); stroke-opacity: 1; stroke-width: 2px; opacity: 1;"/></g><g class="points"/><g class="text"/></g><g class="trace scatter trace2c5e1f" style="stroke-miterlimit: 2; opacity: 1;"><g class="fills"/><g class="errorbars"/><g class="lines"><path class="js-line" d="M0,222.28L4.34,247.51L6.51,264.46L8.67,275.67L10.84,282.21L13.01,282.19L15.18,285.35L19.52,290.49L21.69,294.77L23.86,294.7L26.02,297.2L30.36,301.03L32.53,301.58L34.7,302.63L36.87,305.15L39.04,304.72L41.2,305.38L56.39,309.94L58.55,310.88L69.4,311.82L71.57,312.3L78.07,313.04L80.24,313.18L106.27,315.62L108.43,315.59L119.28,316.37L121.45,316.34L149.64,317.61L151.81,317.49L166.99,318.17L169.16,318.32L190.84,318.67L193.01,318.66L219.04,318.91L221.2,318.94L305.78,319.76L307.95,319.72L370.84,319.85L373.01,319.84L412.05,319.85L414.22,319.85L540,320" style="vector-effect: non-scaling-stroke; fill: none; stroke: rgb(254, 203, 82); stroke-opacity: 1; stroke-width: 2px; opacity: 1;"/></g><g class="points"/><g class="text"/></g><g class="trace scatter traceed6215" style="stroke-miterlimit: 2; opacity: 1;"><g class="fills"/><g class="errorbars"/><g class="lines"><path class="js-line" d="M0,219.31L8.67,273.55L10.84,278.15L15.18,282.74L17.35,285.88L19.52,288.43L21.69,292.81L23.86,292.76L26.02,296.72L30.36,301.03L32.53,302.04L34.7,302.66L36.87,304.84L39.04,304.71L41.2,306.47L43.37,306.52L45.54,307.4L54.22,309.59L56.39,310.97L62.89,312.2L65.06,312.57L82.41,314L84.58,313.99L95.42,315.36L97.59,315.59L108.43,316.45L110.6,316.66L147.47,318.21L149.64,318.05L160.48,318.37L162.65,318.38L182.17,318.89L184.34,319L197.35,318.99L199.52,319.09L303.61,319.84L305.78,319.85L435.9,319.97L438.07,319.99L540,319.99" style="vector-effect: non-scaling-stroke; fill: none; stroke: rgb(99, 110, 250); stroke-opacity: 1; stroke-width: 2px; opacity: 1;"/></g><g class="points"/><g class="text"/></g><g class="trace scatter trace663c83" style="stroke-miterlimit: 2; opacity: 1;"><g class="fills"/><g class="errorbars"/><g class="lines"><path class="js-line" d="M0,218.01L8.67,269L10.84,276.32L13.01,278.6L15.18,279.75L21.69,290.51L23.86,291L30.36,297.92L32.53,298.68L34.7,298.34L36.87,300.49L39.04,300.81L41.2,302.7L49.88,305.51L52.05,306.98L60.72,309.35L62.89,309.45L82.41,312.56L84.58,312.58L97.59,313.26L99.76,313.14L104.1,313.87L106.27,314L127.95,315.65L130.12,315.41L134.46,315.55L136.63,315.99L214.7,318.28L216.87,318.16L242.89,318.85L245.06,318.81L540,319.96" style="vector-effect: non-scaling-stroke; fill: none; stroke: rgb(239, 85, 59); stroke-opacity: 1; stroke-width: 2px; opacity: 1;"/></g><g class="points"/><g class="text"/></g><g class="trace scatter trace4fa99e" style="stroke-miterlimit: 2; opacity: 1;"><g class="fills"/><g class="errorbars"/><g class="lines"><path class="js-line" d="M0,214.98L8.67,273.8L10.84,278.97L17.35,286.3L19.52,289.67L21.69,293.81L23.86,294.54L26.02,297.63L28.19,299.34L32.53,301.74L34.7,302.18L36.87,304.5L39.04,304.33L43.37,306.59L45.54,307.14L49.88,307.65L52.05,308.92L54.22,309.46L56.39,310.81L62.89,312.14L65.06,312.17L104.1,315.87L106.27,316.28L114.94,316.41L117.11,316.75L130.12,317.13L132.29,317.13L140.96,317.75L143.13,317.85L188.67,318.82L190.84,318.85L223.37,319.39L225.54,319.53L346.99,319.91L349.16,319.91L492.29,320L494.46,320L540,320" style="vector-effect: non-scaling-stroke; fill: none; stroke: rgb(0, 204, 150); stroke-opacity: 1; stroke-width: 2px; opacity: 1;"/></g><g class="points"/><g class="text"/></g><g class="trace scatter trace4a3fea" style="stroke-miterlimit: 2; opacity: 1;"><g class="fills"/><g class="errorbars"/><g class="lines"><path class="js-line" d="M0,216.03L8.67,269.75L10.84,275.7L13.01,276.73L15.18,280.6L21.69,293.38L23.86,293.39L26.02,296.75L28.19,298.56L32.53,301.72L34.7,302.78L36.87,305.01L39.04,304.58L41.2,305.96L43.37,306.35L52.05,309.31L54.22,309.36L58.55,311.57L60.72,311.71L69.4,312.81L71.57,313.09L75.9,313.47L78.07,313.83L84.58,314.21L86.75,314.55L117.11,317.12L119.28,317.07L160.48,318.75L162.65,318.8L216.87,319.41L219.04,319.37L249.4,319.66L251.57,319.6L292.77,319.84L294.94,319.85L490.12,320L492.29,320L540,320" style="vector-effect: non-scaling-stroke; fill: none; stroke: rgb(171, 99, 250); stroke-opacity: 1; stroke-width: 2px; opacity: 1;"/></g><g class="points"/><g class="text"/></g><g class="trace scatter tracec45465" style="stroke-miterlimit: 2; opacity: 1;"><g class="fills"/><g class="errorbars"/><g class="lines"><path class="js-line" d="M0,212.87L6.51,259.37L8.67,271.26L10.84,277.73L13.01,279.15L19.52,289.09L21.69,293.4L23.86,293.46L26.02,296.7L30.36,301.45L32.53,302.08L34.7,302.57L36.87,304.61L39.04,304.08L41.2,305.86L56.39,310.9L58.55,311.74L67.23,312.52L69.4,313.11L80.24,314.02L82.41,314.12L91.08,315.11L93.25,315.39L99.76,315.84L101.93,315.93L110.6,316.23L112.77,316.25L169.16,318.58L171.33,318.58L182.17,318.86L184.34,318.94L206.02,319.08L208.19,319.17L236.39,319.49L238.55,319.51L540,320" style="vector-effect: non-scaling-stroke; fill: none; stroke: rgb(255, 161, 90); stroke-opacity: 1; stroke-width: 2px; opacity: 1;"/></g><g class="points"/><g class="text"/></g><g class="trace scatter tracef8f851" style="stroke-miterlimit: 2; opacity: 1;"><g class="fills"/><g class="errorbars"/><g class="lines"><path class="js-line" d="M0,217.73L8.67,269.39L10.84,276.48L15.18,283.24L17.35,285.2L21.69,293.06L23.86,292.3L30.36,300.87L32.53,301.12L34.7,302.06L36.87,304.5L39.04,303.88L41.2,304.58L47.71,306.3L49.88,306.28L52.05,307.76L54.22,307.65L58.55,308.79L60.72,309.01L67.23,310.36L69.4,310.51L112.77,315.49L114.94,315.55L123.61,315.99L125.78,316.1L134.46,316.66L136.63,317.03L166.99,318.17L169.16,318.32L214.7,318.85L216.87,318.81L236.39,318.96L238.55,319.08L396.87,319.89L399.04,319.87L533.49,319.99L535.66,319.99L540,319.99" style="vector-effect: non-scaling-stroke; fill: none; stroke: rgb(25, 211, 243); stroke-opacity: 1; stroke-width: 2px; opacity: 1;"/></g><g class="points"/><g class="text"/></g><g class="trace scatter tracea840bb" style="stroke-miterlimit: 2; opacity: 1;"><g class="fills"/><g class="errorbars"/><g class="lines"><path class="js-line" d="M0,220.34L4.34,245.52L6.51,262.61L8.67,273.84L10.84,280.65L13.01,281.33L15.18,285.23L19.52,289.64L21.69,293.72L23.86,294.25L26.02,295.93L32.53,301.46L34.7,302.11L36.87,304.18L39.04,303.46L43.37,305.47L45.54,306.42L58.55,310.38L60.72,310.4L67.23,311.26L69.4,311.8L101.93,315.3L104.1,315.44L110.6,315.67L112.77,315.79L160.48,318.32L162.65,318.34L307.95,319.86L310.12,319.85L362.17,319.86L364.34,319.86L422.89,319.95L425.06,319.92L513.98,320L516.14,320L540,320" style="vector-effect: non-scaling-stroke; fill: none; stroke: rgb(255, 102, 146); stroke-opacity: 1; stroke-width: 2px; opacity: 1;"/></g><g class="points"/><g class="text"/></g><g class="trace scatter trace6f9b77" style="stroke-miterlimit: 2; opacity: 1;"><g class="fills"/><g class="errorbars"/><g class="lines"><path class="js-line" d="M0,218.56L8.67,269.16L10.84,274.33L19.52,285.15L21.69,289.52L23.86,290.58L26.02,293.25L32.53,298.44L34.7,299.16L39.04,300.97L41.2,302.28L47.71,304.8L49.88,304.94L52.05,306.49L54.22,306.61L58.55,308.43L60.72,308.29L84.58,312.11L86.75,312.41L97.59,313.4L99.76,313.53L108.43,314.82L110.6,314.74L140.96,317.09L143.13,317.21L151.81,317.33L153.98,317.4L184.34,318.24L186.51,318.09L214.7,318.67L216.87,318.6L253.73,319.01L255.9,319.05L281.93,319.34L284.1,319.31L407.71,319.91L409.88,319.89L483.61,319.96L485.78,319.97L540,319.99" style="vector-effect: non-scaling-stroke; fill: none; stroke: rgb(182, 232, 128); stroke-opacity: 1; stroke-width: 2px; opacity: 1;"/></g><g class="points"/><g class="text"/></g><g class="trace scatter trace31483f" style="stroke-miterlimit: 2; opacity: 1;"><g class="fills"/><g class="errorbars"/><g class="lines"><path class="js-line" d="M0,216.51L8.67,272.15L10.84,276.97L19.52,289.04L21.69,293.38L23.86,293.3L26.02,296.57L30.36,300.45L32.53,301.22L36.87,304.22L39.04,304.1L41.2,305.57L43.37,306.1L47.71,307.59L49.88,307.68L56.39,310.93L58.55,311.53L65.06,312.33L67.23,312.6L80.24,313.69L82.41,313.75L121.45,316.95L123.61,316.87L130.12,317.17L132.29,317.25L147.47,318.07L149.64,317.93L164.82,318.32L166.99,318.43L188.67,318.76L190.84,318.77L223.37,319.25L225.54,319.39L310.12,319.82L312.29,319.82L409.88,319.97L412.05,319.96L540,320" style="vector-effect: non-scaling-stroke; fill: none; stroke: rgb(255, 151, 255); stroke-opacity: 1; stroke-width: 2px; opacity: 1;"/></g><g class="points"/><g class="text"/></g><g class="trace scatter trace825526" style="stroke-miterlimit: 2; opacity: 1;"><g class="fills"/><g class="errorbars"/><g class="lines"><path class="js-line" d="M0,223.65L4.34,246.32L6.51,261.66L8.67,272.59L10.84,278.05L19.52,289.6L21.69,294.32L23.86,294.27L26.02,296.67L30.36,300.74L32.53,301.89L34.7,302.11L36.87,304.23L39.04,304.52L41.2,305.58L45.54,306.3L47.71,307.2L49.88,307L52.05,308.32L62.89,310.84L65.06,311.23L82.41,313.2L84.58,313.1L101.93,314.97L104.1,315.05L119.28,316.17L121.45,315.96L140.96,317.09L143.13,317.35L214.7,319.08L216.87,318.95L264.58,319.58L266.75,319.6L485.78,319.99L487.95,319.99L540,319.97" style="vector-effect: non-scaling-stroke; fill: none; stroke: rgb(254, 203, 82); stroke-opacity: 1; stroke-width: 2px; opacity: 1;"/></g><g class="points"/><g class="text"/></g><g class="trace scatter trace754a81" style="stroke-miterlimit: 2; opacity: 1;"><g class="fills"/><g class="errorbars"/><g class="lines"><path class="js-line" d="M0,219.77L8.67,274.81L10.84,280.64L13.01,281.85L15.18,285.38L19.52,290.42L21.69,295.2L23.86,295.93L26.02,298.2L30.36,302.42L32.53,302.87L34.7,303.57L36.87,305.96L39.04,305.92L41.2,306.81L47.71,308.96L49.88,308.98L58.55,312.04L60.72,311.94L101.93,315.38L104.1,315.46L112.77,316.08L114.94,316.22L136.63,317.57L138.8,317.46L149.64,317.94L151.81,317.97L193.01,318.9L195.18,318.91L214.7,319.25L216.87,319.23L232.05,319.33L234.22,319.29L540,320" style="vector-effect: non-scaling-stroke; fill: none; stroke: rgb(99, 110, 250); stroke-opacity: 1; stroke-width: 2px; opacity: 1;"/></g><g class="points"/><g class="text"/></g></g></g><g class="overplot"/><path class="xlines-above crisp" d="M0,0" style="fill: none;"/><path class="ylines-above crisp" d="M0,0" style="fill: none;"/><g class="overlines-above"/><g class="xaxislayer-above"><g class="xtick"><text text-anchor="middle" x="0" y="433" transform="translate(80,0)" style="font-family: 'Open Sans', verdana, arial, sans-serif; font-size: 12px; fill: rgb(42, 63, 95); fill-opacity: 1; white-space: pre; opacity: 1;">0</text></g><g class="xtick"><text text-anchor="middle" x="0" y="433" style="font-family: 'Open Sans', verdana, arial, sans-serif; font-size: 12px; fill: rgb(42, 63, 95); fill-opacity: 1; white-space: pre; opacity: 1;" transform="translate(188.43,0)">50</text></g><g class="xtick"><text text-anchor="middle" x="0" y="433" style="font-family: 'Open Sans', verdana, arial, sans-serif; font-size: 12px; fill: rgb(42, 63, 95); fill-opacity: 1; white-space: pre; opacity: 1;" transform="translate(296.87,0)">100</text></g><g class="xtick"><text text-anchor="middle" x="0" y="433" style="font-family: 'Open Sans', verdana, arial, sans-serif; font-size: 12px; fill: rgb(42, 63, 95); fill-opacity: 1; white-space: pre; opacity: 1;" transform="translate(405.3,0)">150</text></g><g class="xtick"><text text-anchor="middle" x="0" y="433" style="font-family: 'Open Sans', verdana, arial, sans-serif; font-size: 12px; fill: rgb(42, 63, 95); fill-opacity: 1; white-space: pre; opacity: 1;" transform="translate(513.73,0)">200</text></g></g><g class="yaxislayer-above"><g class="ytick"><text text-anchor="end" x="79" y="4.199999999999999" transform="translate(0,420)" style="font-family: 'Open Sans', verdana, arial, sans-serif; font-size: 12px; fill: rgb(42, 63, 95); fill-opacity: 1; white-space: pre; opacity: 1;">0</text></g><g class="ytick"><text text-anchor="end" x="79" y="4.199999999999999" style="font-family: 'Open Sans', verdana, arial, sans-serif; font-size: 12px; fill: rgb(42, 63, 95); fill-opacity: 1; white-space: pre; opacity: 1;" transform="translate(0,356.82)">50</text></g><g class="ytick"><text text-anchor="end" x="79" y="4.199999999999999" style="font-family: 'Open Sans', verdana, arial, sans-serif; font-size: 12px; fill: rgb(42, 63, 95); fill-opacity: 1; white-space: pre; opacity: 1;" transform="translate(0,293.64)">100</text></g><g class="ytick"><text text-anchor="end" x="79" y="4.199999999999999" style="font-family: 'Open Sans', verdana, arial, sans-serif; font-size: 12px; fill: rgb(42, 63, 95); fill-opacity: 1; white-space: pre; opacity: 1;" transform="translate(0,230.46)">150</text></g><g class="ytick"><text text-anchor="end" x="79" y="4.199999999999999" style="font-family: 'Open Sans', verdana, arial, sans-serif; font-size: 12px; fill: rgb(42, 63, 95); fill-opacity: 1; white-space: pre; opacity: 1;" transform="translate(0,167.28)">200</text></g><g class="ytick"><text text-anchor="end" x="79" y="4.199999999999999" style="font-family: 'Open Sans', verdana, arial, sans-serif; font-size: 12px; fill: rgb(42, 63, 95); fill-opacity: 1; white-space: pre; opacity: 1;" transform="translate(0,104.09)">250</text></g></g><g class="overaxes-above"/></g></g><g class="polarlayer"/><g class="ternarylayer"/><g class="geolayer"/><g class="funnelarealayer"/><g class="pielayer"/><g class="iciclelayer"/><g class="treemaplayer"/><g class="sunburstlayer"/><g class="glimages"/><defs id="topdefs-c25e22"><g class="clips"/></defs><g class="layer-above"><g class="imagelayer"/><g class="shapelayer"/></g><g class="infolayer"><g class="g-gtitle"><text class="gtitle" x="35" y="50" text-anchor="start" dy="0em" style="font-family: 'Open Sans', verdana, arial, sans-serif; font-size: 17px; fill: rgb(42, 63, 95); opacity: 1; font-weight: normal; white-space: pre;">Average Rank: ascad_0-simplified_eff_cnn</text></g><g class="g-xtitle"/><g class="g-ytitle"/></g></svg>