<svg class="main-svg" xmlns="http://www.w3.org/2000/svg" xmlns:xlink="http://www.w3.org/1999/xlink" width="700" height="500" style="" viewBox="0 0 700 500"><rect x="0" y="0" width="700" height="500" style="fill: rgb(255, 255, 255); fill-opacity: 1;"/><defs id="defs-6cd734"><g class="clips"><clipPath id="clip6cd734xyplot" class="plotclip"><rect width="540" height="320"/></clipPath><clipPath class="axesclip" id="clip6cd734x"><rect x="80" y="0" width="540" height="500"/></clipPath><clipPath class="axesclip" id="clip6cd734y"><rect x="0" y="100" width="700" height="320"/></clipPath><clipPath class="axesclip" id="clip6cd734xy"><rect x="80" y="100" width="540" height="320"/></clipPath></g><g class="gradients"/><g class="patterns"/></defs><g class="bglayer"><rect class="bg" x="80" y="100" width="540" height="320" style="fill: rgb(229, 236, 246); fill-opacity: 1; stroke-width: 0;"/></g><g class="layer-below"><g class="imagelayer"/><g class="shapelayer"/></g><g class="cartesianlayer"><g class="subplot xy"><g class="layer-subplot"><g class="shapelayer"/><g class="imagelayer"/></g><g class="gridlayer"><g class="x"><path class="xgrid crisp" transform="translate(188.43,0)" d="M0,100v320" style="stroke: rgb(255, 255, 255); stroke-opacity: 1; stroke-width: 1px;"/><path class="xgrid crisp" transform="translate(296.87,0)" d="M0,100v320" style="stroke: rgb(255, 255, 255); stroke-opacity: 1; stroke-width: 1px;"/><path class="xgrid crisp" transform="translate(405.3,0)" d="M0,100v320" style="stroke: rgb(255, 255, 255); stroke-opacity: 1; stroke-width: 1px;"/><path class="xgrid crisp" transform="translate(513.73,0)" d="M0,100v320" style="stroke: rgb(255, 255, 255); stroke-opacity: 1; stroke-width: 1px;"/></g><g class="y"><path class="ygrid crisp" transform="translate(0,371.37)" d="M80,0h540" style="stroke: rgb(255, 255, 255); stroke-opacity: 1; stroke-width: 1px;"/><path class="ygrid crisp" transform="translate(0,322.73)" d="M80,0h540" style="stroke: rgb(255, 255, 255); stroke-opacity: 1; stroke-width: 1px;"/><path class="ygrid crisp" transform="translate(0,274.1)" d="M80,0h540" style="stroke: rgb(255, 255, 255); stroke-opacity: 1; stroke-width: 1px;"/><path class="ygrid crisp" transform="translate(0,225.45999999999998)" d="M80,0h540" style="stroke: rgb(255, 255, 255); stroke-opacity: 1; stroke-width: 1px;"/><path class="ygrid crisp" transform="translate(0,176.82999999999998)" d="M80,0h540" style="stroke: rgb(255, 255, 255); stroke-opacity: 1; stroke-width: 1px;"/><path class="ygrid crisp" transform="translate(0,128.2)" d="M80,0h540" style="stroke: rgb(255, 255, 255); stroke-opacity: 1; stroke-width: 1px;"/></g></g><g class="zerolinelayer"><path class="xzl zl crisp" transform="translate(80,0)" d="M0,100v320" style="stroke: rgb(255, 255, 255); stroke-opacity: 1; stroke-width: 2px;"/><path class="yzl zl crisp" transform="translate(0,420)" d="M80,0h540" style="stroke: rgb(255, 255, 255); stroke-opacity: 1; stroke-width: 2px;"/></g><path class="xlines-below"/><path class="ylines-below"/><g class="overlines-below"/><g class="xaxislayer-below"/><g class="yaxislayer-below"/><g class="overaxes-below"/><g class="plot" transform="translate(80,100)" clip-path="url(#clip6cd734xyplot)"><g class="scatterlayer mlayer"><g class="trace scatter trace8e9042" style="stroke-miterlimit: 2; opacity: 1;"><g class="fills"/><g class="errorbars"/><g class="lines"><path class="js-line" d="M0,156.35L2.17,147.06L4.34,200.64L6.51,234.15L8.67,235.43L10.84,260.31L13.01,275.97L15.18,279.25L17.35,276.44L19.52,284.19L21.69,299.03L28.19,306.91L30.36,308.26L32.53,307.72L34.7,308.99L36.87,312.64L39.04,313.26L47.71,315.4L49.88,315.11L56.39,316.76L58.55,316.78L112.77,318.67L114.94,318.59L184.34,319.53L186.51,319.32L223.37,319.63L225.54,319.76L540,320" style="vector-effect: non-scaling-stroke; fill: none; stroke: rgb(99, 110, 250); stroke-opacity: 1; stroke-width: 2px; opacity: 1;"/></g><g class="points"/><g class="text"/></g><g class="trace scatter trace0b3831" style="stroke-miterlimit: 2; opacity: 1;"><g class="fills"/><g class="errorbars"/><g class="lines"><path class="js-line" d="M0,119.71L2.17,131.36L4.34,170.61L6.51,215.3L8.67,242.3L10.84,250.86L13.01,248.56L17.35,267.1L19.52,274.9L21.69,285.27L23.86,285.29L28.19,291.5L30.36,297.42L32.53,296.98L34.7,297.91L36.87,301.99L39.04,301.6L41.2,309.35L43.37,308.2L45.54,308.5L47.71,310.92L52.05,314.05L54.22,314.77L56.39,316.02L58.55,316.35L62.89,316.23L65.06,316.71L71.57,317.28L73.73,317.43L78.07,317.96L80.24,317.94L93.25,318.69L95.42,318.45L121.45,318.95L123.61,318.96L208.19,319.77L210.36,319.71L266.75,319.94L268.92,319.95L418.55,320L420.72,320L540,320" style="vector-effect: non-scaling-stroke; fill: none; stroke: rgb(239, 85, 59); stroke-opacity: 1; stroke-width: 2px; opacity: 1;"/></g><g class="points"/><g class="text"/></g><g class="trace scatter tracec3242a" style="stroke-miterlimit: 2; opacity: 1;"><g class="fills"/><g class="errorbars"/><g class="lines"><path class="js-line" d="M0,140.95L2.17,123.68L4.34,160.91L6.51,223.44L8.67,245.48L13.01,262.14L15.18,260.11L19.52,275.1L21.69,285.71L23.86,283.74L26.02,291.43L28.19,293.04L30.36,300.06L32.53,300.72L34.7,300L36.87,305.33L39.04,304.84L41.2,309.35L43.37,310.39L54.22,313.53L56.39,314.49L60.72,315.54L62.89,315.77L67.23,316.18L69.4,316.07L71.57,316.56L73.73,316.26L97.59,317.57L99.76,317.4L138.8,319.23L140.96,319.26L208.19,319.85L210.36,319.84L249.4,319.87L251.57,319.88L286.27,319.95L288.43,319.96L540,320" style="vector-effect: non-scaling-stroke; fill: none; stroke: rgb(0, 204, 150); stroke-opacity: 1; stroke-width: 2px; opacity: 1;"/></g><g class="points"/><g class="text"/></g><g class="trace scatter tracecd8342" style="stroke-miterlimit: 2; opacity: 1;"><g class="fills"/><g class="errorbars"/><g class="lines"><path class="js-line" d="M0,111.38L2.17,128.7L4.34,172.97L6.51,218.24L8.67,242.33L10.84,253.42L13.01,254.92L19.52,278.89L21.69,288.36L23.86,287.94L26.02,288.64L28.19,291.46L30.36,297.59L34.7,298.77L36.87,302.77L39.04,301.42L41.2,308.62L43.37,308.29L45.54,308.77L47.71,311.34L49.88,312.45L52.05,314.01L54.22,314.38L56.39,315.84L58.55,316.28L62.89,316.02L65.06,316.62L91.08,318.52L93.25,318.6L104.1,319.02L106.27,319.07L125.78,319.11L127.95,319.21L266.75,319.97L268.92,319.97L435.9,320L438.07,320L540,320" style="vector-effect: non-scaling-stroke; fill: none; stroke: rgb(171, 99, 250); stroke-opacity: 1; stroke-width: 2px; opacity: 1;"/></g><g class="points"/><g class="text"/></g><g class="trace scatter trace7c4a9d" style="stroke-miterlimit: 2; opacity: 1;"><g class="fills"/><g class="errorbars"/><g class="lines"><path class="js-line" d="M0,119.08L2.17,113.86L4.34,164.08L6.51,216.54L8.67,241.46L10.84,254.25L13.01,257.99L15.18,257.84L17.35,264.36L19.52,269.35L21.69,280.3L23.86,282.65L26.02,289.26L30.36,298.39L32.53,298.96L34.7,298.41L36.87,305.81L39.04,306.04L41.2,310.41L45.54,311.83L47.71,312.1L49.88,312.04L52.05,313.15L60.72,315.21L62.89,315.06L67.23,316.2L69.4,316.52L75.9,316.57L78.07,316.54L82.41,317.39L84.58,317.21L101.93,317.9L104.1,318.31L121.45,318.41L123.61,318.59L134.46,319.18L136.63,319.27L279.76,319.95L281.93,319.95L448.92,319.97L451.08,319.97L540,320" style="vector-effect: non-scaling-stroke; fill: none; stroke: rgb(255, 161, 90); stroke-opacity: 1; stroke-width: 2px; opacity: 1;"/></g><g class="points"/><g class="text"/></g><g class="trace scatter trace89c49c" style="stroke-miterlimit: 2; opacity: 1;"><g class="fills"/><g class="errorbars"/><g class="lines"><path class="js-line" d="M0,133.76L2.17,129.47L4.34,168.49L6.51,220.94L8.67,242.52L13.01,253.25L15.18,252.3L17.35,257.61L19.52,268.42L21.69,279.09L23.86,280.82L28.19,287.86L30.36,295.44L32.53,296.19L34.7,295.58L36.87,302.17L39.04,303.16L41.2,308.25L43.37,309.36L49.88,311.02L52.05,312.84L60.72,315.57L62.89,315.76L67.23,316.27L69.4,316.07L84.58,316.38L86.75,316.27L93.25,317.29L95.42,317.09L127.95,318.84L130.12,318.92L193.01,319.83L195.18,319.8L260.24,319.96L262.41,319.96L540,319.99" style="vector-effect: non-scaling-stroke; fill: none; stroke: rgb(25, 211, 243); stroke-opacity: 1; stroke-width: 2px; opacity: 1;"/></g><g class="points"/><g class="text"/></g><g class="trace scatter tracea70ae4" style="stroke-miterlimit: 2; opacity: 1;"><g class="fills"/><g class="errorbars"/><g class="lines"><path class="js-line" d="M0,134.36L2.17,142.76L4.34,181.02L6.51,220.86L8.67,245.82L13.01,260.9L15.18,266.24L21.69,289.99L23.86,287.48L26.02,291.46L28.19,290.49L30.36,296.91L32.53,298.08L34.7,298.57L36.87,303.5L39.04,303.63L41.2,309.14L43.37,309.56L45.54,310.85L56.39,315.8L58.55,316.35L67.23,316.57L69.4,316.44L108.43,318.55L110.6,318.55L114.94,318.71L117.11,319.07L125.78,319.11L127.95,319.15L268.92,319.94L271.08,319.95L540,320" style="vector-effect: non-scaling-stroke; fill: none; stroke: rgb(255, 102, 146); stroke-opacity: 1; stroke-width: 2px; opacity: 1;"/></g><g class="points"/><g class="text"/></g><g class="trace scatter trace2e465a" style="stroke-miterlimit: 2; opacity: 1;"><g class="fills"/><g class="errorbars"/><g class="lines"><path class="js-line" d="M0,120.89L2.17,123.67L4.34,166.7L6.51,215.94L8.67,238.11L10.84,253.62L13.01,255.34L17.35,262.04L19.52,272.5L21.69,285.19L23.86,287.75L26.02,288.22L28.19,290.93L30.36,295.97L32.53,297.77L34.7,297.08L36.87,301.63L39.04,300.96L41.2,309.43L43.37,309.23L45.54,310.18L49.88,311.99L52.05,314.08L54.22,314.06L56.39,315.74L58.55,316.07L60.72,315.59L73.73,317.11L75.9,317.45L86.75,317.94L88.92,318.3L97.59,318.43L99.76,318.61L108.43,318.74L110.6,318.66L136.63,319.02L138.8,319.14L214.7,319.82L216.87,319.81L340.48,319.99L342.65,319.99L540,320" style="vector-effect: non-scaling-stroke; fill: none; stroke: rgb(182, 232, 128); stroke-opacity: 1; stroke-width: 2px; opacity: 1;"/></g><g class="points"/><g class="text"/></g><g class="trace scatter trace5a69ea" style="stroke-miterlimit: 2; opacity: 1;"><g class="fills"/><g class="errorbars"/><g class="lines"><path class="js-line" d="M0,141.47L2.17,142.33L4.34,181.08L6.51,237.82L8.67,256.66L10.84,265.06L13.01,267.29L15.18,266.19L17.35,276.14L19.52,282.54L21.69,291.49L23.86,290.6L26.02,293.06L30.36,299.52L32.53,299.04L34.7,299.09L36.87,305.14L39.04,305.11L41.2,309.35L45.54,309.62L47.71,310.45L49.88,311L52.05,312.4L60.72,314.75L62.89,315.07L67.23,315.67L69.4,315.52L71.57,316.17L73.73,315.75L80.24,316.7L82.41,316.62L86.75,316.55L88.92,317.14L101.93,317.77L104.1,317.69L110.6,317.85L112.77,317.94L140.96,319.32L143.13,319.39L190.84,319.78L193.01,319.78L262.41,319.89L264.58,319.89L438.07,319.96L440.24,319.96L540,320" style="vector-effect: non-scaling-stroke; fill: none; stroke: rgb(255, 151, 255); stroke-opacity: 1; stroke-width: 2px; opacity: 1;"/></g><g class="points"/><g class="text"/></g><g class="trace scatter trace010194" style="stroke-miterlimit: 2; opacity: 1;"><g class="fills"/><g class="errorbars"/><g class="lines"><path class="js-line" d="M0,130.34L2.17,145.44L4.34,185.73L6.51,241.42L8.67,262.85L10.84,277.76L13.01,277.01L15.18,279.47L17.35,287.25L19.52,290.44L21.69,297.73L23.86,293.13L26.02,297.25L28.19,298.03L30.36,301.88L32.53,303.06L34.7,305.89L36.87,309.74L39.04,309.3L41.2,311.79L43.37,312.57L49.88,312.78L52.05,313.94L58.55,315.56L60.72,315.15L67.23,315.44L69.4,316.02L78.07,317.07L80.24,317.12L93.25,318.04L95.42,317.89L110.6,318.55L112.77,318.45L125.78,318.58L127.95,318.77L145.3,319.21L147.47,319.28L160.48,319.39L162.65,319.5L190.84,319.66L193.01,319.62L268.92,319.94L271.08,319.95L425.06,319.99L427.23,319.99L540,320" style="vector-effect: non-scaling-stroke; fill: none; stroke: rgb(254, 203, 82); stroke-opacity: 1; stroke-width: 2px; opacity: 1;"/></g><g class="points"/><g class="text"/></g><g class="trace scatter traced1ec03" style="stroke-miterlimit: 2; opacity: 1;"><g class="fills"/><g class="errorbars"/><g class="lines"><path class="js-line" d="M0,129.21L4.34,175.77L6.51,219.18L8.67,238.11L10.84,247.31L15.18,254.44L17.35,262.93L21.69,281.07L23.86,279.71L26.02,291.3L28.19,293.03L30.36,299.41L32.53,301.45L34.7,300.75L36.87,306.37L39.04,306.05L41.2,311.71L43.37,310.6L45.54,311.53L56.39,316.06L58.55,316.53L106.27,319.05L108.43,319.01L149.64,319.42L151.81,319.26L184.34,319.77L186.51,319.68L258.07,319.96L260.24,319.95L433.73,320L435.9,320L540,320" style="vector-effect: non-scaling-stroke; fill: none; stroke: rgb(99, 110, 250); stroke-opacity: 1; stroke-width: 2px; opacity: 1;"/></g><g class="points"/><g class="text"/></g><g class="trace scatter trace670cf4" style="stroke-miterlimit: 2; opacity: 1;"><g class="fills"/><g class="errorbars"/><g class="lines"><path class="js-line" d="M0,123.6L2.17,145.7L4.34,180.83L6.51,213.57L8.67,232.96L10.84,250.52L13.01,256.33L15.18,256.67L17.35,270.86L21.69,285.05L23.86,284.47L26.02,291.43L28.19,292.91L30.36,298.34L32.53,298.19L34.7,297.24L36.87,302.02L39.04,302.67L41.2,308.92L45.54,307.5L47.71,308.73L52.05,312.67L54.22,313.32L56.39,314.49L58.55,314.6L67.23,315.32L69.4,315.68L78.07,317.15L80.24,316.78L86.75,317.37L88.92,317.37L125.78,318.11L127.95,318.24L136.63,318.4L138.8,318.42L164.82,318.51L166.99,318.84L175.66,318.98L177.83,319.1L193.01,319L195.18,319.08L247.23,319.4L249.4,319.34L540,320" style="vector-effect: non-scaling-stroke; fill: none; stroke: rgb(239, 85, 59); stroke-opacity: 1; stroke-width: 2px; opacity: 1;"/></g><g class="points"/><g class="text"/></g><g class="trace scatter trace009de2" style="stroke-miterlimit: 2; opacity: 1;"><g class="fills"/><g class="errorbars"/><g class="lines"><path class="js-line" d="M0,128.21L2.17,146.08L4.34,175.86L6.51,218.52L8.67,242.63L13.01,256.26L15.18,261.5L17.35,266.9L19.52,274.53L21.69,281.51L23.86,282.4L26.02,292.63L28.19,291.94L30.36,296.95L32.53,299.3L34.7,297.17L36.87,304.78L39.04,304.67L41.2,310.09L47.71,312.78L49.88,313.47L56.39,316.11L58.55,316.65L110.6,318.84L112.77,318.91L147.47,319.54L149.64,319.44L162.65,319.46L164.82,319.66L260.24,319.97L262.41,319.98L420.72,320L422.89,320L540,320" style="vector-effect: non-scaling-stroke; fill: none; stroke: rgb(0, 204, 150); stroke-opacity: 1; stroke-width: 2px; opacity: 1;"/></g><g class="points"/><g class="text"/></g><g class="trace scatter traceed8ec4" style="stroke-miterlimit: 2; opacity: 1;"><g class="fills"/><g class="errorbars"/><g class="lines"><path class="js-line" d="M0,112.43L4.34,161.21L6.51,205.61L10.84,245.94L13.01,249L15.18,253.93L17.35,262.02L21.69,282.08L23.86,281.03L26.02,287.55L28.19,288.03L30.36,295.92L32.53,298.05L34.7,298.9L36.87,302.62L39.04,302.38L41.2,309.45L45.54,311.06L47.71,311.99L58.55,316.7L60.72,316.95L67.23,317.21L69.4,316.99L75.9,317.28L78.07,317.57L88.92,318.18L91.08,318.3L110.6,319.03L112.77,319.09L208.19,319.91L210.36,319.88L301.45,319.99L303.61,319.98L470.6,320L472.77,320L540,320" style="vector-effect: non-scaling-stroke; fill: none; stroke: rgb(171, 99, 250); stroke-opacity: 1; stroke-width: 2px; opacity: 1;"/></g><g class="points"/><g class="text"/></g><g class="trace scatter trace50e05f" style="stroke-miterlimit: 2; opacity: 1;"><g class="fills"/><g class="errorbars"/><g class="lines"><path class="js-line" d="M0,106.97L2.17,126.34L4.34,166.06L6.51,214.62L8.67,237.25L10.84,250.18L13.01,249.8L15.18,256.59L17.35,266.43L19.52,272.81L21.69,281.67L23.86,282.96L26.02,289.17L28.19,292.09L30.36,298.46L34.7,298.77L36.87,303.94L39.04,301.68L41.2,309.03L43.37,309.65L45.54,309.13L52.05,314.76L54.22,315.03L58.55,316.64L60.72,316.29L69.4,317.57L71.57,317.35L80.24,317.96L82.41,318.23L145.3,319.53L147.47,319.61L162.65,319.55L164.82,319.64L190.84,319.75L193.01,319.79L258.07,319.96L260.24,319.93L318.8,319.99L320.96,319.99L540,320" style="vector-effect: non-scaling-stroke; fill: none; stroke: rgb(255, 161, 90); stroke-opacity: 1; stroke-width: 2px; opacity: 1;"/></g><g class="points"/><g class="text"/></g><g class="trace scatter trace065b5b" style="stroke-miterlimit: 2; opacity: 1;"><g class="fills"/><g class="errorbars"/><g class="lines"><path class="js-line" d="M0,118.35L4.34,177.85L6.51,216.28L10.84,265.14L13.01,269.8L19.52,287.75L21.69,297.48L23.86,296.93L26.02,299.96L28.19,302.81L30.36,308.64L32.53,306.3L34.7,307.05L36.87,310.09L39.04,310.05L43.37,311.47L45.54,311.03L49.88,311.01L52.05,312.67L60.72,313.8L62.89,313.78L73.73,315.14L75.9,315.53L114.94,317.7L117.11,317.81L132.29,318.48L134.46,318.67L140.96,318.91L143.13,318.94L180,319.49L182.17,319.26L255.9,319.62L258.07,319.7L314.46,319.92L316.63,319.94L373.01,319.98L375.18,319.99L535.66,320L537.83,320L540,320" style="vector-effect: non-scaling-stroke; fill: none; stroke: rgb(25, 211, 243); stroke-opacity: 1; stroke-width: 2px; opacity: 1;"/></g><g class="points"/><g class="text"/></g><g class="trace scatter trace72dbce" style="stroke-miterlimit: 2; opacity: 1;"><g class="fills"/><g class="errorbars"/><g class="lines"><path class="js-line" d="M0,140.37L2.17,142.95L4.34,180.56L6.51,235.96L8.67,254.31L10.84,272.27L13.01,271.4L19.52,285.16L21.69,292.57L23.86,290.53L26.02,292.67L28.19,295.6L30.36,300.96L32.53,301.36L34.7,302.95L36.87,307.21L39.04,305.28L41.2,310.11L43.37,310.97L47.71,311.63L49.88,312.43L54.22,314.33L56.39,315.04L60.72,315.31L62.89,315.52L71.57,316.16L73.73,316.34L84.58,317.72L86.75,317.83L97.59,318.17L99.76,318.21L108.43,318.52L110.6,318.47L134.46,319.38L136.63,319.53L223.37,319.83L225.54,319.88L540,320" style="vector-effect: non-scaling-stroke; fill: none; stroke: rgb(255, 102, 146); stroke-opacity: 1; stroke-width: 2px; opacity: 1;"/></g><g class="points"/><g class="text"/></g><g class="trace scatter trace16fbe7" style="stroke-miterlimit: 2; opacity: 1;"><g class="fills"/><g class="errorbars"/><g class="lines"><path class="js-line" d="M0,134.3L2.17,143.95L4.34,174.76L6.51,208.14L8.67,227.56L10.84,247.99L13.01,252.57L15.18,253.28L17.35,256.97L19.52,266.39L21.69,279.95L23.86,279.07L26.02,286.62L28.19,288.94L30.36,296.53L34.7,297.41L36.87,300.9L39.04,302.37L41.2,307.55L49.88,309.76L52.05,312.47L58.55,314.27L60.72,314L65.06,314.08L67.23,314.42L86.75,316.43L88.92,316.67L149.64,319.26L151.81,319.16L171.33,319.5L173.49,319.52L184.34,319.32L186.51,319.18L247.23,319.61L249.4,319.52L284.1,319.84L286.27,319.82L303.61,319.96L305.78,319.95L479.28,320L481.45,320L540,320" style="vector-effect: non-scaling-stroke; fill: none; stroke: rgb(182, 232, 128); stroke-opacity: 1; stroke-width: 2px; opacity: 1;"/></g><g class="points"/><g class="text"/></g><g class="trace scatter trace68c72b" style="stroke-miterlimit: 2; opacity: 1;"><g class="fills"/><g class="errorbars"/><g class="lines"><path class="js-line" d="M0,126.47L2.17,142.86L4.34,174.29L8.67,239.43L10.84,246.45L15.18,257.26L17.35,264.95L21.69,281.33L23.86,280.95L26.02,286.71L28.19,288.93L30.36,293.67L32.53,296.5L34.7,297.21L36.87,303.45L39.04,302.44L41.2,308.64L43.37,309.05L45.54,310.56L47.71,312.65L49.88,313.37L58.55,316.79L60.72,316.6L71.57,317.3L73.73,317.34L78.07,318.08L80.24,318.06L136.63,319.33L138.8,319.36L173.49,319.47L175.66,319.61L216.87,319.62L219.04,319.64L271.08,319.97L273.25,319.97L429.4,320L431.57,320L540,320" style="vector-effect: non-scaling-stroke; fill: none; stroke: rgb(255, 151, 255); stroke-opacity: 1; stroke-width: 2px; opacity: 1;"/></g><g class="points"/><g class="text"/></g><g class="trace scatter tracec56230" style="stroke-miterlimit: 2; opacity: 1;"><g class="fills"/><g class="errorbars"/><g class="lines"><path class="js-line" d="M0,138.03L2.17,141.63L4.34,184.13L6.51,222.96L8.67,242.04L13.01,261.61L15.18,265.58L17.35,275.56L19.52,281.11L21.69,291.69L23.86,286.54L26.02,290.74L28.19,292.27L30.36,298.09L32.53,297.3L34.7,296.99L36.87,303.31L39.04,304.61L41.2,309.34L45.54,309.87L47.71,310.74L54.22,313.69L56.39,314.85L62.89,315.16L65.06,315.23L75.9,316.25L78.07,316.77L114.94,318.11L117.11,318.39L138.8,318.99L140.96,319.06L177.83,319.76L180,319.69L199.52,319.69L201.69,319.74L225.54,319.82L227.71,319.81L294.94,319.99L297.11,319.98L461.93,319.99L464.1,319.99L540,320" style="vector-effect: non-scaling-stroke; fill: none; stroke: rgb(254, 203, 82); stroke-opacity: 1; stroke-width: 2px; opacity: 1;"/></g><g class="points"/><g class="text"/></g><g class="trace scatter trace744453" style="stroke-miterlimit: 2; opacity: 1;"><g class="fills"/><g class="errorbars"/><g class="lines"><path class="js-line" d="M0,122.82L2.17,118.57L4.34,167.39L6.51,228.66L8.67,244.8L10.84,263.72L13.01,265.2L15.18,266.5L17.35,278.28L19.52,280.59L21.69,290.18L23.86,291.06L26.02,294.44L30.36,304.76L32.53,304.72L34.7,306.03L36.87,310.19L39.04,309.78L41.2,312.77L45.54,313.01L47.71,313.31L49.88,312.65L52.05,313.68L60.72,315.84L62.89,316.03L80.24,316.6L82.41,317.18L91.08,317.44L93.25,317.63L106.27,317.94L108.43,318.05L140.96,319.06L143.13,319.2L162.65,319.64L164.82,319.65L197.35,319.75L199.52,319.81L318.8,319.98L320.96,319.99L540,320" style="vector-effect: non-scaling-stroke; fill: none; stroke: rgb(99, 110, 250); stroke-opacity: 1; stroke-width: 2px; opacity: 1;"/></g><g class="points"/><g class="text"/></g></g></g><g class="overplot"/><path class="xlines-above crisp" d="M0,0" style="fill: none;"/><path class="ylines-above crisp" d="M0,0" style="fill: none;"/><g class="overlines-above"/><g class="xaxislayer-above"><g class="xtick"><text text-anchor="middle" x="0" y="433" transform="translate(80,0)" style="font-family: 'Open Sans', verdana, arial, sans-serif; font-size: 12px; fill: rgb(42, 63, 95); fill-opacity: 1; white-space: pre; opacity: 1;">0</text></g><g class="xtick"><text text-anchor="middle" x="0" y="433" style="font-family: 'Open Sans', verdana, arial, sans-serif; font-size: 12px; fill: rgb(42, 63, 95); fill-opacity: 1; white-space: pre; opacity: 1;" transform="translate(188.43,0)">50</text></g><g class="xtick"><text text-anchor="middle" x="0" y="433" style="font-family: 'Open Sans', verdana, arial, sans-serif; font-size: 12px; fill: rgb(42, 63, 95); fill-opacity: 1; white-space: pre; opacity: 1;" transform="translate(296.87,0)">100</text></g><g class="xtick"><text text-anchor="middle" x="0" y="433" style="font-family: 'Open Sans', verdana, arial, sans-serif; font-size: 12px; fill: rgb(42, 63, 95); fill-opacity: 1; white-space: pre; opacity: 1;" transform="translate(405.3,0)">150</text></g><g class="xtick"><text text-anchor="middle" x="0" y="433" style="font-family: 'Open Sans', verdana, arial, sans-serif; font-size: 12px; fill: rgb(42, 63, 95); fill-opacity: 1; white-space: pre; opacity: 1;" transform="translate(513.73,0)">200</text></g></g><g class="yaxislayer-above"><g class="ytick"><text text-anchor="end" x="79" y="4.199999999999999" transform="translate(0,420)" style="font-family: 'Open Sans', verdana, arial, sans-serif; font-size: 12px; fill: rgb(42, 63, 95); fill-opacity: 1; white-space: pre; opacity: 1;">0</text></g><g class="ytick"><text text-anchor="end" x="79" y="4.199999999999999" style="font-family: 'Open Sans', verdana, arial, sans-serif; font-size: 12px; fill: rgb(42, 63, 95); fill-opacity: 1; white-space: pre; opacity: 1;" transform="translate(0,371.37)">1000</text></g><g class="ytick"><text text-anchor="end" x="79" y="4.199999999999999" style="font-family: 'Open Sans', verdana, arial, sans-serif; font-size: 12px; fill: rgb(42, 63, 95); fill-opacity: 1; white-space: pre; opacity: 1;" transform="translate(0,322.73)">2000</text></g><g class="ytick"><text text-anchor="end" x="79" y="4.199999999999999" style="font-family: 'Open Sans', verdana, arial, sans-serif; font-size: 12px; fill: rgb(42, 63, 95); fill-opacity: 1; white-space: pre; opacity: 1;" transform="translate(0,274.1)">3000</text></g><g class="ytick"><text text-anchor="end" x="79" y="4.199999999999999" style="font-family: 'Open Sans', verdana, arial, sans-serif; font-size: 12px; fill: rgb(42, 63, 95); fill-opacity: 1; white-space: pre; opacity: 1;" transform="translate(0,225.45999999999998)">4000</text></g><g class="ytick"><text text-anchor="end" x="79" y="4.199999999999999" style="font-family: 'Open Sans', verdana, arial, sans-serif; font-size: 12px; fill: rgb(42, 63, 95); fill-opacity: 1; white-space: pre; opacity: 1;" transform="translate(0,176.82999999999998)">5000</text></g><g class="ytick"><text text-anchor="end" x="79" y="4.199999999999999" style="font-family: 'Open Sans', verdana, arial, sans-serif; font-size: 12px; fill: rgb(42, 63, 95); fill-opacity: 1; white-space: pre; opacity: 1;" transform="translate(0,128.2)">6000</text></g></g><g class="overaxes-above"/></g></g><g class="polarlayer"/><g class="ternarylayer"/><g class="geolayer"/><g class="funnelarealayer"/><g class="pielayer"/><g class="iciclelayer"/><g class="treemaplayer"/><g class="sunburstlayer"/><g class="glimages"/><defs id="topdefs-6cd734"><g class="clips"/></defs><g class="layer-above"><g class="imagelayer"/><g class="shapelayer"/></g><g class="infolayer"><g class="g-gtitle"><text class="gtitle" x="35" y="50" text-anchor="start" dy="0em" style="font-family: 'Open Sans', verdana, arial, sans-serif; font-size: 17px; fill: rgb(42, 63, 95); opacity: 1; font-weight: normal; white-space: pre;">Rank Variance: ascad_0-simplified_eff_cnn</text></g><g class="g-xtitle"/><g class="g-ytitle"/></g></svg>