<svg class="main-svg" xmlns="http://www.w3.org/2000/svg" xmlns:xlink="http://www.w3.org/1999/xlink" width="700" height="500" style="" viewBox="0 0 700 500"><rect x="0" y="0" width="700" height="500" style="fill: rgb(255, 255, 255); fill-opacity: 1;"/><defs id="defs-e001a8"><g class="clips"><clipPath id="clipe001a8xyplot" class="plotclip"><rect width="540" height="320"/></clipPath><clipPath class="axesclip" id="clipe001a8x"><rect x="80" y="0" width="540" height="500"/></clipPath><clipPath class="axesclip" id="clipe001a8y"><rect x="0" y="100" width="700" height="320"/></clipPath><clipPath class="axesclip" id="clipe001a8xy"><rect x="80" y="100" width="540" height="320"/></clipPath></g><g class="gradients"/><g class="patterns"/></defs><g class="bglayer"><rect class="bg" x="80" y="100" width="540" height="320" style="fill: rgb(229, 236, 246); fill-opacity: 1; stroke-width: 0;"/></g><g class="layer-below"><g class="imagelayer"/><g class="shapelayer"/></g><g class="cartesianlayer"><g class="subplot xy"><g class="layer-subplot"><g class="shapelayer"/><g class="imagelayer"/></g><g class="gridlayer"><g class="x"><path class="xgrid crisp" transform="translate(188.43,0)" d="M0,100v320" style="stroke: rgb(255, 255, 255); stroke-opacity: 1; stroke-width: 1px;"/><path class="xgrid crisp" transform="translate(296.87,0)" d="M0,100v320" style="stroke: rgb(255, 255, 255); stroke-opacity: 1; stroke-width: 1px;"/><path class="xgrid crisp" transform="translate(405.3,0)" d="M0,100v320" style="stroke: rgb(255, 255, 255); stroke-opacity: 1; stroke-width: 1px;"/><path class="xgrid crisp" transform="translate(513.73,0)" d="M0,100v320" style="stroke: rgb(255, 255, 255); stroke-opacity: 1; stroke-width: 1px;"/></g><g class="y"><path class="ygrid crisp" transform="translate(0,371.37)" d="M80,0h540" style="stroke: rgb(255, 255, 255); stroke-opacity: 1; stroke-width: 1px;"/><path class="ygrid crisp" transform="translate(0,322.73)" d="M80,0h540" style="stroke: rgb(255, 255, 255); stroke-opacity: 1; stroke-width: 1px;"/><path class="ygrid crisp" transform="translate(0,274.1)" d="M80,0h540" style="stroke: rgb(255, 255, 255); stroke-opacity: 1; stroke-width: 1px;"/><path class="ygrid crisp" transform="translate(0,225.45999999999998)" d="M80,0h540" style="stroke: rgb(255, 255, 255); stroke-opacity: 1; stroke-width: 1px;"/><path class="ygrid crisp" transform="translate(0,176.82999999999998)" d="M80,0h540" style="stroke: rgb(255, 255, 255); stroke-opacity: 1; stroke-width: 1px;"/><path class="ygrid crisp" transform="translate(0,128.2)" d="M80,0h540" style="stroke: rgb(255, 255, 255); stroke-opacity: 1; stroke-width: 1px;"/></g></g><g class="zerolinelayer"><path class="xzl zl crisp" transform="translate(80,0)" d="M0,100v320" style="stroke: rgb(255, 255, 255); stroke-opacity: 1; stroke-width: 2px;"/><path class="yzl zl crisp" transform="translate(0,420)" d="M80,0h540" style="stroke: rgb(255, 255, 255); stroke-opacity: 1; stroke-width: 2px;"/></g><path class="xlines-below"/><path class="ylines-below"/><g class="overlines-below"/><g class="xaxislayer-below"/><g class="yaxislayer-below"/><g class="overaxes-below"/><g class="plot" transform="translate(80,100)" clip-path="url(#clipe001a8xyplot)"><g class="scatterlayer mlayer"><g class="trace scatter trace037d02" style="stroke-miterlimit: 2; opacity: 1;"><g class="fills"/><g class="errorbars"/><g class="lines"><path class="js-line" d="M0,93.47L2.17,33L4.34,69.16L6.51,84.26L8.67,48.81L10.84,72.63L13.01,86.66L15.18,92.03L17.35,54.8L19.52,62.02L21.69,54.88L23.86,69.21L26.02,65.96L28.19,57.56L30.36,58.14L32.53,69.12L34.7,65.87L36.87,64.81L39.04,62.15L41.2,66.63L43.37,57.85L47.71,42.75L49.88,28.7L52.05,36.22L54.22,49.57L56.39,45.43L58.55,43.78L62.89,47.11L65.06,60.09L69.4,38.64L71.57,45.04L73.73,43.38L75.9,40.37L78.07,36.31L80.24,38L82.41,41.47L84.58,30.81L86.75,39.95L88.92,37.02L91.08,38.5L93.25,32.98L95.42,27.24L97.59,39.88L99.76,37.43L101.93,42.41L104.1,46.86L106.27,41.68L108.43,45.27L110.6,47L112.77,51.46L114.94,52.9L117.11,67.35L119.28,69.59L121.45,75.51L123.61,78.19L125.78,73.57L127.95,65.59L130.12,68.85L132.29,67.44L134.46,73.03L136.63,74.87L138.8,66.77L140.96,62.43L143.13,66.72L145.3,59.73L147.47,61.18L149.64,67.93L151.81,73.46L153.98,72.91L156.14,69.39L158.31,70.43L160.48,68.48L162.65,62.02L166.99,57.33L169.16,64.76L173.49,62.5L175.66,60.69L177.83,59.98L180,60.13L182.17,61.22L184.34,60.17L186.51,48.4L188.67,44.8L190.84,43.25L193.01,52.83L197.35,46.46L199.52,39.91L201.69,44.16L203.86,43.99L206.02,44.02L208.19,41.46L210.36,37.57L212.53,38.35L214.7,42.74L216.87,40.99L221.2,37.21L223.37,38.13L225.54,40.15L227.71,45.96L229.88,43.07L232.05,37.71L234.22,36.15L236.39,39.77L238.55,33.81L240.72,33.29L242.89,35.86L245.06,40.26L247.23,37.15L249.4,36.61L251.57,39.31L253.73,36.58L255.9,40.96L258.07,42.02L260.24,42.6L262.41,40.01L268.92,27.01L271.08,16.97L273.25,19.45L275.42,17.01L277.59,20.21L279.76,25.06L284.1,24.94L286.27,28.91L288.43,28.35L290.6,30.38L294.94,48.37L297.11,45.56L299.28,45.31L301.45,46.73L303.61,41.8L305.78,39.6L307.95,37.4L310.12,37.12L312.29,35.78L314.46,33.34L316.63,32.48L318.8,40.05L320.96,42.99L323.13,41.17L327.47,36.13L329.64,38.81L331.81,34.57L333.98,39.03L336.14,36.09L338.31,38.28L340.48,32.49L342.65,34.72L344.82,43.14L346.99,45.42L349.16,44.8L351.33,36.14L357.83,43.38L360,42.84L362.17,43.65L364.34,48.42L366.51,54.62L368.67,54.7L370.84,50.07L373.01,51.99L375.18,48.99L377.35,52.22L379.52,50.56L381.69,51.66L383.86,53.42L386.02,49.29L388.19,51.01L390.36,51.58L392.53,44.11L394.7,45.68L396.87,47.48L399.04,45.75L401.2,46.76L403.37,46.58L405.54,51.75L407.71,54.04L409.88,55.38L412.05,58.93L414.22,57.55L416.39,62.08L418.55,65.64L420.72,66.56L422.89,69.81L425.06,71.57L427.23,70.17L429.4,71.05L431.57,68.25L433.73,64.22L438.07,67.79L440.24,67.31L444.58,64.37L446.75,66.02L451.08,71.92L453.25,70.88L455.42,68.2L457.59,69.4L461.93,68.07L464.1,64.03L466.27,65.23L468.43,62.94L474.94,59.96L477.11,54.9L479.28,55.09L481.45,54.46L483.61,59.19L485.78,60.04L487.95,58.76L490.12,58.86L492.29,54L494.46,58.2L496.63,55.57L498.8,57.72L500.96,55.85L503.13,56L505.3,55.1L507.47,60.15L509.64,58.61L511.81,59.82L513.98,58.46L516.14,60.94L518.31,65.75L520.48,58.42L522.65,55.67L524.82,58.99L531.33,60.63L533.49,57.55L535.66,55.78L537.83,56.31L540,55.18" style="vector-effect: non-scaling-stroke; fill: none; stroke: rgb(99, 110, 250); stroke-opacity: 1; stroke-width: 2px; opacity: 1;"/></g><g class="points"/><g class="text"/></g><g class="trace scatter trace594180" style="stroke-miterlimit: 2; opacity: 1;"><g class="fills"/><g class="errorbars"/><g class="lines"><path class="js-line" d="M0,93.47L2.17,33L4.34,69.16L6.51,84.26L8.67,48.81L10.84,72.63L13.01,86.66L15.18,92.03L17.35,54.8L19.52,62.02L21.69,54.88L23.86,69.21L26.02,65.96L28.19,57.56L30.36,58.14L32.53,69.12L34.7,65.87L36.87,64.81L39.04,62.15L41.2,66.63L43.37,57.85L47.71,42.75L49.88,28.7L52.05,36.22L54.22,49.57L56.39,45.43L58.55,43.78L62.89,47.11L65.06,60.09L69.4,38.64L71.57,45.04L73.73,43.38L75.9,40.37L78.07,36.31L80.24,38L82.41,41.47L84.58,30.81L86.75,39.95L88.92,37.02L91.08,38.5L93.25,32.98L95.42,27.24L97.59,39.88L99.76,37.43L101.93,42.41L104.1,46.86L106.27,41.68L108.43,45.27L110.6,47L112.77,51.46L114.94,52.9L117.11,67.35L119.28,69.59L121.45,75.51L123.61,78.19L125.78,73.57L127.95,65.59L130.12,68.85L132.29,67.44L134.46,73.03L136.63,74.87L138.8,66.77L140.96,62.43L143.13,66.72L145.3,59.73L147.47,61.18L149.64,67.93L151.81,73.46L153.98,72.91L156.14,69.39L158.31,70.43L160.48,68.48L162.65,62.02L166.99,57.33L169.16,64.76L173.49,62.5L175.66,60.69L177.83,59.98L180,60.13L182.17,61.22L184.34,60.17L186.51,48.4L188.67,44.8L190.84,43.25L193.01,52.83L197.35,46.46L199.52,39.91L201.69,44.16L203.86,43.99L206.02,44.02L208.19,41.46L210.36,37.57L212.53,38.35L214.7,42.74L216.87,40.99L221.2,37.21L223.37,38.13L225.54,40.15L227.71,45.96L229.88,43.07L232.05,37.71L234.22,36.15L236.39,39.77L238.55,33.81L240.72,33.29L242.89,35.86L245.06,40.26L247.23,37.15L249.4,36.61L251.57,39.31L253.73,36.58L255.9,40.96L258.07,42.02L260.24,42.6L262.41,40.01L268.92,27.01L271.08,16.97L273.25,19.45L275.42,17.01L277.59,20.21L279.76,25.06L284.1,24.94L286.27,28.91L288.43,28.35L290.6,30.38L294.94,48.37L297.11,45.56L299.28,45.31L301.45,46.73L303.61,41.8L305.78,39.6L307.95,37.4L310.12,37.12L312.29,35.78L314.46,33.34L316.63,32.48L318.8,40.05L320.96,42.99L323.13,41.17L327.47,36.13L329.64,38.81L331.81,34.57L333.98,39.03L336.14,36.09L338.31,38.28L340.48,32.49L342.65,34.72L344.82,43.14L346.99,45.42L349.16,44.8L351.33,36.14L357.83,43.38L360,42.84L362.17,43.65L364.34,48.42L366.51,54.62L368.67,54.7L370.84,50.07L373.01,51.99L375.18,48.99L377.35,52.22L379.52,50.56L381.69,51.66L383.86,53.42L386.02,49.29L388.19,51.01L390.36,51.58L392.53,44.11L394.7,45.68L396.87,47.48L399.04,45.75L401.2,46.76L403.37,46.58L405.54,51.75L407.71,54.04L409.88,55.38L412.05,58.93L414.22,57.55L416.39,62.08L418.55,65.64L420.72,66.56L422.89,69.81L425.06,71.57L427.23,70.17L429.4,71.05L431.57,68.25L433.73,64.22L438.07,67.79L440.24,67.31L444.58,64.37L446.75,66.02L451.08,71.92L453.25,70.88L455.42,68.2L457.59,69.4L461.93,68.07L464.1,64.03L466.27,65.23L468.43,62.94L474.94,59.96L477.11,54.9L479.28,55.09L481.45,54.46L483.61,59.19L485.78,60.04L487.95,58.76L490.12,58.86L492.29,54L494.46,58.2L496.63,55.57L498.8,57.72L500.96,55.85L503.13,56L505.3,55.1L507.47,60.15L509.64,58.61L511.81,59.82L513.98,58.46L516.14,60.94L518.31,65.75L520.48,58.42L522.65,55.67L524.82,58.99L531.33,60.63L533.49,57.55L535.66,55.78L537.83,56.31L540,55.18" style="vector-effect: non-scaling-stroke; fill: none; stroke: rgb(239, 85, 59); stroke-opacity: 1; stroke-width: 2px; opacity: 1;"/></g><g class="points"/><g class="text"/></g><g class="trace scatter tracec4304b" style="stroke-miterlimit: 2; opacity: 1;"><g class="fills"/><g class="errorbars"/><g class="lines"><path class="js-line" d="M0,93.47L2.17,33L4.34,69.16L6.51,84.26L8.67,48.81L10.84,72.63L13.01,86.66L15.18,92.03L17.35,54.8L19.52,62.02L21.69,54.88L23.86,69.21L26.02,65.96L28.19,57.56L30.36,58.14L32.53,69.12L34.7,65.87L36.87,64.81L39.04,62.15L41.2,66.63L43.37,57.85L47.71,42.75L49.88,28.7L52.05,36.22L54.22,49.57L56.39,45.43L58.55,43.78L62.89,47.11L65.06,60.09L69.4,38.64L71.57,45.04L73.73,43.38L75.9,40.37L78.07,36.31L80.24,38L82.41,41.47L84.58,30.81L86.75,39.95L88.92,37.02L91.08,38.5L93.25,32.98L95.42,27.24L97.59,39.88L99.76,37.43L101.93,42.41L104.1,46.86L106.27,41.68L108.43,45.27L110.6,47L112.77,51.46L114.94,52.9L117.11,67.35L119.28,69.59L121.45,75.51L123.61,78.19L125.78,73.57L127.95,65.59L130.12,68.85L132.29,67.44L134.46,73.03L136.63,74.87L138.8,66.77L140.96,62.43L143.13,66.72L145.3,59.73L147.47,61.18L149.64,67.93L151.81,73.46L153.98,72.91L156.14,69.39L158.31,70.43L160.48,68.48L162.65,62.02L166.99,57.33L169.16,64.76L173.49,62.5L175.66,60.69L177.83,59.98L180,60.13L182.17,61.22L184.34,60.17L186.51,48.4L188.67,44.8L190.84,43.25L193.01,52.83L197.35,46.46L199.52,39.91L201.69,44.16L203.86,43.99L206.02,44.02L208.19,41.46L210.36,37.57L212.53,38.35L214.7,42.74L216.87,40.99L221.2,37.21L223.37,38.13L225.54,40.15L227.71,45.96L229.88,43.07L232.05,37.71L234.22,36.15L236.39,39.77L238.55,33.81L240.72,33.29L242.89,35.86L245.06,40.26L247.23,37.15L249.4,36.61L251.57,39.31L253.73,36.58L255.9,40.96L258.07,42.02L260.24,42.6L262.41,40.01L268.92,27.01L271.08,16.97L273.25,19.45L275.42,17.01L277.59,20.21L279.76,25.06L284.1,24.94L286.27,28.91L288.43,28.35L290.6,30.38L294.94,48.37L297.11,45.56L299.28,45.31L301.45,46.73L303.61,41.8L305.78,39.6L307.95,37.4L310.12,37.12L312.29,35.78L314.46,33.34L316.63,32.48L318.8,40.05L320.96,42.99L323.13,41.17L327.47,36.13L329.64,38.81L331.81,34.57L333.98,39.03L336.14,36.09L338.31,38.28L340.48,32.49L342.65,34.72L344.82,43.14L346.99,45.42L349.16,44.8L351.33,36.14L357.83,43.38L360,42.84L362.17,43.65L364.34,48.42L366.51,54.62L368.67,54.7L370.84,50.07L373.01,51.99L375.18,48.99L377.35,52.22L379.52,50.56L381.69,51.66L383.86,53.42L386.02,49.29L388.19,51.01L390.36,51.58L392.53,44.11L394.7,45.68L396.87,47.48L399.04,45.75L401.2,46.76L403.37,46.58L405.54,51.75L407.71,54.04L409.88,55.38L412.05,58.93L414.22,57.55L416.39,62.08L418.55,65.64L420.72,66.56L422.89,69.81L425.06,71.57L427.23,70.17L429.4,71.05L431.57,68.25L433.73,64.22L438.07,67.79L440.24,67.31L444.58,64.37L446.75,66.02L451.08,71.92L453.25,70.88L455.42,68.2L457.59,69.4L461.93,68.07L464.1,64.03L466.27,65.23L468.43,62.94L474.94,59.96L477.11,54.9L479.28,55.09L481.45,54.46L483.61,59.19L485.78,60.04L487.95,58.76L490.12,58.86L492.29,54L494.46,58.2L496.63,55.57L498.8,57.72L500.96,55.85L503.13,56L505.3,55.1L507.47,60.15L509.64,58.61L511.81,59.82L513.98,58.46L516.14,60.94L518.31,65.75L520.48,58.42L522.65,55.67L524.82,58.99L531.33,60.63L533.49,57.55L535.66,55.78L537.83,56.31L540,55.18" style="vector-effect: non-scaling-stroke; fill: none; stroke: rgb(0, 204, 150); stroke-opacity: 1; stroke-width: 2px; opacity: 1;"/></g><g class="points"/><g class="text"/></g><g class="trace scatter trace21940a" style="stroke-miterlimit: 2; opacity: 1;"><g class="fills"/><g class="errorbars"/><g class="lines"><path class="js-line" d="M0,93.47L2.17,33L4.34,69.16L6.51,84.26L8.67,48.81L10.84,72.63L13.01,86.66L15.18,92.03L17.35,54.8L19.52,62.02L21.69,54.88L23.86,69.21L26.02,65.96L28.19,57.56L30.36,58.14L32.53,69.12L34.7,65.87L36.87,64.81L39.04,62.15L41.2,66.63L43.37,57.85L47.71,42.75L49.88,28.7L52.05,36.22L54.22,49.57L56.39,45.43L58.55,43.78L62.89,47.11L65.06,60.09L69.4,38.64L71.57,45.04L73.73,43.38L75.9,40.37L78.07,36.31L80.24,38L82.41,41.47L84.58,30.81L86.75,39.95L88.92,37.02L91.08,38.5L93.25,32.98L95.42,27.24L97.59,39.88L99.76,37.43L101.93,42.41L104.1,46.86L106.27,41.68L108.43,45.27L110.6,47L112.77,51.46L114.94,52.9L117.11,67.35L119.28,69.59L121.45,75.51L123.61,78.19L125.78,73.57L127.95,65.59L130.12,68.85L132.29,67.44L134.46,73.03L136.63,74.87L138.8,66.77L140.96,62.43L143.13,66.72L145.3,59.73L147.47,61.18L149.64,67.93L151.81,73.46L153.98,72.91L156.14,69.39L158.31,70.43L160.48,68.48L162.65,62.02L166.99,57.33L169.16,64.76L173.49,62.5L175.66,60.69L177.83,59.98L180,60.13L182.17,61.22L184.34,60.17L186.51,48.4L188.67,44.8L190.84,43.25L193.01,52.83L197.35,46.46L199.52,39.91L201.69,44.16L203.86,43.99L206.02,44.02L208.19,41.46L210.36,37.57L212.53,38.35L214.7,42.74L216.87,40.99L221.2,37.21L223.37,38.13L225.54,40.15L227.71,45.96L229.88,43.07L232.05,37.71L234.22,36.15L236.39,39.77L238.55,33.81L240.72,33.29L242.89,35.86L245.06,40.26L247.23,37.15L249.4,36.61L251.57,39.31L253.73,36.58L255.9,40.96L258.07,42.02L260.24,42.6L262.41,40.01L268.92,27.01L271.08,16.97L273.25,19.45L275.42,17.01L277.59,20.21L279.76,25.06L284.1,24.94L286.27,28.91L288.43,28.35L290.6,30.38L294.94,48.37L297.11,45.56L299.28,45.31L301.45,46.73L303.61,41.8L305.78,39.6L307.95,37.4L310.12,37.12L312.29,35.78L314.46,33.34L316.63,32.48L318.8,40.05L320.96,42.99L323.13,41.17L327.47,36.13L329.64,38.81L331.81,34.57L333.98,39.03L336.14,36.09L338.31,38.28L340.48,32.49L342.65,34.72L344.82,43.14L346.99,45.42L349.16,44.8L351.33,36.14L357.83,43.38L360,42.84L362.17,43.65L364.34,48.42L366.51,54.62L368.67,54.7L370.84,50.07L373.01,51.99L375.18,48.99L377.35,52.22L379.52,50.56L381.69,51.66L383.86,53.42L386.02,49.29L388.19,51.01L390.36,51.58L392.53,44.11L394.7,45.68L396.87,47.48L399.04,45.75L401.2,46.76L403.37,46.58L405.54,51.75L407.71,54.04L409.88,55.38L412.05,58.93L414.22,57.55L416.39,62.08L418.55,65.64L420.72,66.56L422.89,69.81L425.06,71.57L427.23,70.17L429.4,71.05L431.57,68.25L433.73,64.22L438.07,67.79L440.24,67.31L444.58,64.37L446.75,66.02L451.08,71.92L453.25,70.88L455.42,68.2L457.59,69.4L461.93,68.07L464.1,64.03L466.27,65.23L468.43,62.94L474.94,59.96L477.11,54.9L479.28,55.09L481.45,54.46L483.61,59.19L485.78,60.04L487.95,58.76L490.12,58.86L492.29,54L494.46,58.2L496.63,55.57L498.8,57.72L500.96,55.85L503.13,56L505.3,55.1L507.47,60.15L509.64,58.61L511.81,59.82L513.98,58.46L516.14,60.94L518.31,65.75L520.48,58.42L522.65,55.67L524.82,58.99L531.33,60.63L533.49,57.55L535.66,55.78L537.83,56.31L540,55.18" style="vector-effect: non-scaling-stroke; fill: none; stroke: rgb(171, 99, 250); stroke-opacity: 1; stroke-width: 2px; opacity: 1;"/></g><g class="points"/><g class="text"/></g><g class="trace scatter trace828ba2" style="stroke-miterlimit: 2; opacity: 1;"><g class="fills"/><g class="errorbars"/><g class="lines"><path class="js-line" d="M0,93.47L2.17,33L4.34,69.16L6.51,84.26L8.67,48.81L10.84,72.63L13.01,86.66L15.18,92.03L17.35,54.8L19.52,62.02L21.69,54.88L23.86,69.21L26.02,65.96L28.19,57.56L30.36,58.14L32.53,69.12L34.7,65.87L36.87,64.81L39.04,62.15L41.2,66.63L43.37,57.85L47.71,42.75L49.88,28.7L52.05,36.22L54.22,49.57L56.39,45.43L58.55,43.78L62.89,47.11L65.06,60.09L69.4,38.64L71.57,45.04L73.73,43.38L75.9,40.37L78.07,36.31L80.24,38L82.41,41.47L84.58,30.81L86.75,39.95L88.92,37.02L91.08,38.5L93.25,32.98L95.42,27.24L97.59,39.88L99.76,37.43L101.93,42.41L104.1,46.86L106.27,41.68L108.43,45.27L110.6,47L112.77,51.46L114.94,52.9L117.11,67.35L119.28,69.59L121.45,75.51L123.61,78.19L125.78,73.57L127.95,65.59L130.12,68.85L132.29,67.44L134.46,73.03L136.63,74.87L138.8,66.77L140.96,62.43L143.13,66.72L145.3,59.73L147.47,61.18L149.64,67.93L151.81,73.46L153.98,72.91L156.14,69.39L158.31,70.43L160.48,68.48L162.65,62.02L166.99,57.33L169.16,64.76L173.49,62.5L175.66,60.69L177.83,59.98L180,60.13L182.17,61.22L184.34,60.17L186.51,48.4L188.67,44.8L190.84,43.25L193.01,52.83L197.35,46.46L199.52,39.91L201.69,44.16L203.86,43.99L206.02,44.02L208.19,41.46L210.36,37.57L212.53,38.35L214.7,42.74L216.87,40.99L221.2,37.21L223.37,38.13L225.54,40.15L227.71,45.96L229.88,43.07L232.05,37.71L234.22,36.15L236.39,39.77L238.55,33.81L240.72,33.29L242.89,35.86L245.06,40.26L247.23,37.15L249.4,36.61L251.57,39.31L253.73,36.58L255.9,40.96L258.07,42.02L260.24,42.6L262.41,40.01L268.92,27.01L271.08,16.97L273.25,19.45L275.42,17.01L277.59,20.21L279.76,25.06L284.1,24.94L286.27,28.91L288.43,28.35L290.6,30.38L294.94,48.37L297.11,45.56L299.28,45.31L301.45,46.73L303.61,41.8L305.78,39.6L307.95,37.4L310.12,37.12L312.29,35.78L314.46,33.34L316.63,32.48L318.8,40.05L320.96,42.99L323.13,41.17L327.47,36.13L329.64,38.81L331.81,34.57L333.98,39.03L336.14,36.09L338.31,38.28L340.48,32.49L342.65,34.72L344.82,43.14L346.99,45.42L349.16,44.8L351.33,36.14L357.83,43.38L360,42.84L362.17,43.65L364.34,48.42L366.51,54.62L368.67,54.7L370.84,50.07L373.01,51.99L375.18,48.99L377.35,52.22L379.52,50.56L381.69,51.66L383.86,53.42L386.02,49.29L388.19,51.01L390.36,51.58L392.53,44.11L394.7,45.68L396.87,47.48L399.04,45.75L401.2,46.76L403.37,46.58L405.54,51.75L407.71,54.04L409.88,55.38L412.05,58.93L414.22,57.55L416.39,62.08L418.55,65.64L420.72,66.56L422.89,69.81L425.06,71.57L427.23,70.17L429.4,71.05L431.57,68.25L433.73,64.22L438.07,67.79L440.24,67.31L444.58,64.37L446.75,66.02L451.08,71.92L453.25,70.88L455.42,68.2L457.59,69.4L461.93,68.07L464.1,64.03L466.27,65.23L468.43,62.94L474.94,59.96L477.11,54.9L479.28,55.09L481.45,54.46L483.61,59.19L485.78,60.04L487.95,58.76L490.12,58.86L492.29,54L494.46,58.2L496.63,55.57L498.8,57.72L500.96,55.85L503.13,56L505.3,55.1L507.47,60.15L509.64,58.61L511.81,59.82L513.98,58.46L516.14,60.94L518.31,65.75L520.48,58.42L522.65,55.67L524.82,58.99L531.33,60.63L533.49,57.55L535.66,55.78L537.83,56.31L540,55.18" style="vector-effect: non-scaling-stroke; fill: none; stroke: rgb(255, 161, 90); stroke-opacity: 1; stroke-width: 2px; opacity: 1;"/></g><g class="points"/><g class="text"/></g><g class="trace scatter trace7b8145" style="stroke-miterlimit: 2; opacity: 1;"><g class="fills"/><g class="errorbars"/><g class="lines"><path class="js-line" d="M0,93.47L2.17,33L4.34,69.16L6.51,84.26L8.67,48.81L10.84,72.63L13.01,86.66L15.18,92.03L17.35,54.8L19.52,62.02L21.69,54.88L23.86,69.21L26.02,65.96L28.19,57.56L30.36,58.14L32.53,69.12L34.7,65.87L36.87,64.81L39.04,62.15L41.2,66.63L43.37,57.85L47.71,42.75L49.88,28.7L52.05,36.22L54.22,49.57L56.39,45.43L58.55,43.78L62.89,47.11L65.06,60.09L69.4,38.64L71.57,45.04L73.73,43.38L75.9,40.37L78.07,36.31L80.24,38L82.41,41.47L84.58,30.81L86.75,39.95L88.92,37.02L91.08,38.5L93.25,32.98L95.42,27.24L97.59,39.88L99.76,37.43L101.93,42.41L104.1,46.86L106.27,41.68L108.43,45.27L110.6,47L112.77,51.46L114.94,52.9L117.11,67.35L119.28,69.59L121.45,75.51L123.61,78.19L125.78,73.57L127.95,65.59L130.12,68.85L132.29,67.44L134.46,73.03L136.63,74.87L138.8,66.77L140.96,62.43L143.13,66.72L145.3,59.73L147.47,61.18L149.64,67.93L151.81,73.46L153.98,72.91L156.14,69.39L158.31,70.43L160.48,68.48L162.65,62.02L166.99,57.33L169.16,64.76L173.49,62.5L175.66,60.69L177.83,59.98L180,60.13L182.17,61.22L184.34,60.17L186.51,48.4L188.67,44.8L190.84,43.25L193.01,52.83L197.35,46.46L199.52,39.91L201.69,44.16L203.86,43.99L206.02,44.02L208.19,41.46L210.36,37.57L212.53,38.35L214.7,42.74L216.87,40.99L221.2,37.21L223.37,38.13L225.54,40.15L227.71,45.96L229.88,43.07L232.05,37.71L234.22,36.15L236.39,39.77L238.55,33.81L240.72,33.29L242.89,35.86L245.06,40.26L247.23,37.15L249.4,36.61L251.57,39.31L253.73,36.58L255.9,40.96L258.07,42.02L260.24,42.6L262.41,40.01L268.92,27.01L271.08,16.97L273.25,19.45L275.42,17.01L277.59,20.21L279.76,25.06L284.1,24.94L286.27,28.91L288.43,28.35L290.6,30.38L294.94,48.37L297.11,45.56L299.28,45.31L301.45,46.73L303.61,41.8L305.78,39.6L307.95,37.4L310.12,37.12L312.29,35.78L314.46,33.34L316.63,32.48L318.8,40.05L320.96,42.99L323.13,41.17L327.47,36.13L329.64,38.81L331.81,34.57L333.98,39.03L336.14,36.09L338.31,38.28L340.48,32.49L342.65,34.72L344.82,43.14L346.99,45.42L349.16,44.8L351.33,36.14L357.83,43.38L360,42.84L362.17,43.65L364.34,48.42L366.51,54.62L368.67,54.7L370.84,50.07L373.01,51.99L375.18,48.99L377.35,52.22L379.52,50.56L381.69,51.66L383.86,53.42L386.02,49.29L388.19,51.01L390.36,51.58L392.53,44.11L394.7,45.68L396.87,47.48L399.04,45.75L401.2,46.76L403.37,46.58L405.54,51.75L407.71,54.04L409.88,55.38L412.05,58.93L414.22,57.55L416.39,62.08L418.55,65.64L420.72,66.56L422.89,69.81L425.06,71.57L427.23,70.17L429.4,71.05L431.57,68.25L433.73,64.22L438.07,67.79L440.24,67.31L444.58,64.37L446.75,66.02L451.08,71.92L453.25,70.88L455.42,68.2L457.59,69.4L461.93,68.07L464.1,64.03L466.27,65.23L468.43,62.94L474.94,59.96L477.11,54.9L479.28,55.09L481.45,54.46L483.61,59.19L485.78,60.04L487.95,58.76L490.12,58.86L492.29,54L494.46,58.2L496.63,55.57L498.8,57.72L500.96,55.85L503.13,56L505.3,55.1L507.47,60.15L509.64,58.61L511.81,59.82L513.98,58.46L516.14,60.94L518.31,65.75L520.48,58.42L522.65,55.67L524.82,58.99L531.33,60.63L533.49,57.55L535.66,55.78L537.83,56.31L540,55.18" style="vector-effect: non-scaling-stroke; fill: none; stroke: rgb(25, 211, 243); stroke-opacity: 1; stroke-width: 2px; opacity: 1;"/></g><g class="points"/><g class="text"/></g><g class="trace scatter trace779006" style="stroke-miterlimit: 2; opacity: 1;"><g class="fills"/><g class="errorbars"/><g class="lines"><path class="js-line" d="M0,93.47L2.17,33L4.34,69.16L6.51,84.26L8.67,48.81L10.84,72.63L13.01,86.66L15.18,92.03L17.35,54.8L19.52,62.02L21.69,54.88L23.86,69.21L26.02,65.96L28.19,57.56L30.36,58.14L32.53,69.12L34.7,65.87L36.87,64.81L39.04,62.15L41.2,66.63L43.37,57.85L47.71,42.75L49.88,28.7L52.05,36.22L54.22,49.57L56.39,45.43L58.55,43.78L62.89,47.11L65.06,60.09L69.4,38.64L71.57,45.04L73.73,43.38L75.9,40.37L78.07,36.31L80.24,38L82.41,41.47L84.58,30.81L86.75,39.95L88.92,37.02L91.08,38.5L93.25,32.98L95.42,27.24L97.59,39.88L99.76,37.43L101.93,42.41L104.1,46.86L106.27,41.68L108.43,45.27L110.6,47L112.77,51.46L114.94,52.9L117.11,67.35L119.28,69.59L121.45,75.51L123.61,78.19L125.78,73.57L127.95,65.59L130.12,68.85L132.29,67.44L134.46,73.03L136.63,74.87L138.8,66.77L140.96,62.43L143.13,66.72L145.3,59.73L147.47,61.18L149.64,67.93L151.81,73.46L153.98,72.91L156.14,69.39L158.31,70.43L160.48,68.48L162.65,62.02L166.99,57.33L169.16,64.76L173.49,62.5L175.66,60.69L177.83,59.98L180,60.13L182.17,61.22L184.34,60.17L186.51,48.4L188.67,44.8L190.84,43.25L193.01,52.83L197.35,46.46L199.52,39.91L201.69,44.16L203.86,43.99L206.02,44.02L208.19,41.46L210.36,37.57L212.53,38.35L214.7,42.74L216.87,40.99L221.2,37.21L223.37,38.13L225.54,40.15L227.71,45.96L229.88,43.07L232.05,37.71L234.22,36.15L236.39,39.77L238.55,33.81L240.72,33.29L242.89,35.86L245.06,40.26L247.23,37.15L249.4,36.61L251.57,39.31L253.73,36.58L255.9,40.96L258.07,42.02L260.24,42.6L262.41,40.01L268.92,27.01L271.08,16.97L273.25,19.45L275.42,17.01L277.59,20.21L279.76,25.06L284.1,24.94L286.27,28.91L288.43,28.35L290.6,30.38L294.94,48.37L297.11,45.56L299.28,45.31L301.45,46.73L303.61,41.8L305.78,39.6L307.95,37.4L310.12,37.12L312.29,35.78L314.46,33.34L316.63,32.48L318.8,40.05L320.96,42.99L323.13,41.17L327.47,36.13L329.64,38.81L331.81,34.57L333.98,39.03L336.14,36.09L338.31,38.28L340.48,32.49L342.65,34.72L344.82,43.14L346.99,45.42L349.16,44.8L351.33,36.14L357.83,43.38L360,42.84L362.17,43.65L364.34,48.42L366.51,54.62L368.67,54.7L370.84,50.07L373.01,51.99L375.18,48.99L377.35,52.22L379.52,50.56L381.69,51.66L383.86,53.42L386.02,49.29L388.19,51.01L390.36,51.58L392.53,44.11L394.7,45.68L396.87,47.48L399.04,45.75L401.2,46.76L403.37,46.58L405.54,51.75L407.71,54.04L409.88,55.38L412.05,58.93L414.22,57.55L416.39,62.08L418.55,65.64L420.72,66.56L422.89,69.81L425.06,71.57L427.23,70.17L429.4,71.05L431.57,68.25L433.73,64.22L438.07,67.79L440.24,67.31L444.58,64.37L446.75,66.02L451.08,71.92L453.25,70.88L455.42,68.2L457.59,69.4L461.93,68.07L464.1,64.03L466.27,65.23L468.43,62.94L474.94,59.96L477.11,54.9L479.28,55.09L481.45,54.46L483.61,59.19L485.78,60.04L487.95,58.76L490.12,58.86L492.29,54L494.46,58.2L496.63,55.57L498.8,57.72L500.96,55.85L503.13,56L505.3,55.1L507.47,60.15L509.64,58.61L511.81,59.82L513.98,58.46L516.14,60.94L518.31,65.75L520.48,58.42L522.65,55.67L524.82,58.99L531.33,60.63L533.49,57.55L535.66,55.78L537.83,56.31L540,55.18" style="vector-effect: non-scaling-stroke; fill: none; stroke: rgb(255, 102, 146); stroke-opacity: 1; stroke-width: 2px; opacity: 1;"/></g><g class="points"/><g class="text"/></g><g class="trace scatter trace4eecb5" style="stroke-miterlimit: 2; opacity: 1;"><g class="fills"/><g class="errorbars"/><g class="lines"><path class="js-line" d="M0,46.85L2.17,31.85L4.34,52.76L6.51,45.81L8.67,62.85L13.01,72.24L15.18,80.9L17.35,76.22L19.52,46.52L21.69,61.66L23.86,44.46L26.02,44.47L28.19,51.24L32.53,64.67L34.7,67.51L36.87,71.21L39.04,81.4L41.2,91.47L43.37,90.26L45.54,88.59L47.71,79.29L49.88,80.33L52.05,74.95L54.22,83.31L56.39,79.96L58.55,76.87L60.72,84.34L62.89,83.78L65.06,79.25L67.23,89.55L69.4,85.91L71.57,94.91L73.73,94.45L75.9,95.23L78.07,90.52L80.24,93.3L82.41,91.48L84.58,76.58L86.75,67.21L88.92,68.09L91.08,72.64L93.25,66.47L95.42,63.17L97.59,77.2L99.76,65.15L101.93,71.28L104.1,50.74L106.27,49.47L108.43,42.6L110.6,35.48L112.77,42.36L114.94,39.67L117.11,38.56L119.28,42.8L121.45,41.33L123.61,45.19L125.78,46.77L127.95,44.23L130.12,43.66L132.29,52.69L134.46,54L136.63,49.03L138.8,54.29L140.96,41.84L143.13,45.86L145.3,50.49L147.47,46.64L151.81,65.5L153.98,64.02L156.14,53.74L158.31,47.39L160.48,48.48L162.65,48.23L164.82,46.6L166.99,42.11L169.16,40.23L171.33,40.38L173.49,44.77L175.66,43.04L177.83,43.1L180,44.61L182.17,44.27L184.34,40.91L186.51,40.35L188.67,50.59L190.84,50.5L193.01,53.17L195.18,52.87L197.35,56.6L199.52,63.55L201.69,65.36L203.86,62.08L206.02,61.3L208.19,70.76L210.36,69.83L214.7,68.49L216.87,68.46L219.04,71.11L221.2,75.59L223.37,75.46L225.54,82.57L227.71,79.77L229.88,72.01L232.05,69.53L234.22,71.06L236.39,72.5L238.55,67.99L240.72,68.02L242.89,70.25L245.06,71.21L247.23,79.47L249.4,82.54L251.57,80.85L253.73,80.49L255.9,75.1L258.07,81.25L260.24,81.17L262.41,81.46L264.58,80.52L266.75,70.9L268.92,71.03L271.08,71.53L273.25,65.54L275.42,64.52L277.59,60.28L279.76,58.74L281.93,59.33L284.1,57.81L286.27,59.08L288.43,62.06L290.6,56.39L292.77,53.43L294.94,57.11L297.11,61L299.28,57.36L301.45,58.29L303.61,58.26L305.78,55.79L307.95,55.8L310.12,51.26L312.29,48.67L314.46,53.3L316.63,55.82L318.8,51.48L320.96,50.32L323.13,57.36L325.3,56.19L327.47,48.32L329.64,46.93L333.98,42.26L336.14,44.49L340.48,48.74L342.65,50.26L346.99,55.22L349.16,49.6L353.49,48.27L355.66,43L357.83,45.2L360,42.67L362.17,46L364.34,44.55L368.67,36.94L370.84,35.62L373.01,38.5L375.18,32.21L377.35,32.44L379.52,37.57L381.69,41.7L383.86,43.73L386.02,44.95L388.19,44.39L390.36,41.71L392.53,37.37L394.7,42.29L396.87,42.62L401.2,41.57L403.37,40.65L407.71,44.56L409.88,49.52L412.05,52.68L414.22,47.97L416.39,45.21L418.55,46.85L420.72,40.17L422.89,41.55L425.06,43.47L427.23,40.24L429.4,37.65L431.57,36.6L433.73,38.58L435.9,37.95L438.07,37.08L440.24,42.95L442.41,44.62L444.58,39.66L446.75,41L448.92,49.14L451.08,47.28L453.25,48.48L457.59,41.92L459.76,35.62L461.93,34.35L464.1,35.58L466.27,35.16L468.43,30.41L470.6,29.3L472.77,35.6L474.94,37.14L477.11,36.94L479.28,36.4L481.45,34.19L483.61,30.71L485.78,32.79L490.12,31.75L492.29,39.42L494.46,38.11L496.63,39.12L498.8,39.5L500.96,38.57L503.13,38.65L505.3,33.6L509.64,31.53L511.81,28.59L513.98,23.31L516.14,22.78L520.48,20.2L522.65,21.2L524.82,19.52L526.99,19.56L529.16,15.93L531.33,16.27L533.49,15.6L535.66,9.69L537.83,13.68L540,12.62" style="vector-effect: non-scaling-stroke; fill: none; stroke: rgb(182, 232, 128); stroke-opacity: 1; stroke-width: 2px; opacity: 1;"/></g><g class="points"/><g class="text"/></g><g class="trace scatter tracec3b58a" style="stroke-miterlimit: 2; opacity: 1;"><g class="fills"/><g class="errorbars"/><g class="lines"><path class="js-line" d="M0,93.47L2.17,33L4.34,69.16L6.51,84.26L8.67,48.81L10.84,72.63L13.01,86.66L15.18,92.03L17.35,54.8L19.52,62.02L21.69,54.88L23.86,69.21L26.02,65.96L28.19,57.56L30.36,58.14L32.53,69.12L34.7,65.87L36.87,64.81L39.04,62.15L41.2,66.63L43.37,57.85L47.71,42.75L49.88,28.7L52.05,36.22L54.22,49.57L56.39,45.43L58.55,43.78L62.89,47.11L65.06,60.09L69.4,38.64L71.57,45.04L73.73,43.38L75.9,40.37L78.07,36.31L80.24,38L82.41,41.47L84.58,30.81L86.75,39.95L88.92,37.02L91.08,38.5L93.25,32.98L95.42,27.24L97.59,39.88L99.76,37.43L101.93,42.41L104.1,46.86L106.27,41.68L108.43,45.27L110.6,47L112.77,51.46L114.94,52.9L117.11,67.35L119.28,69.59L121.45,75.51L123.61,78.19L125.78,73.57L127.95,65.59L130.12,68.85L132.29,67.44L134.46,73.03L136.63,74.87L138.8,66.77L140.96,62.43L143.13,66.72L145.3,59.73L147.47,61.18L149.64,67.93L151.81,73.46L153.98,72.91L156.14,69.39L158.31,70.43L160.48,68.48L162.65,62.02L166.99,57.33L169.16,64.76L173.49,62.5L175.66,60.69L177.83,59.98L180,60.13L182.17,61.22L184.34,60.17L186.51,48.4L188.67,44.8L190.84,43.25L193.01,52.83L197.35,46.46L199.52,39.91L201.69,44.16L203.86,43.99L206.02,44.02L208.19,41.46L210.36,37.57L212.53,38.35L214.7,42.74L216.87,40.99L221.2,37.21L223.37,38.13L225.54,40.15L227.71,45.96L229.88,43.07L232.05,37.71L234.22,36.15L236.39,39.77L238.55,33.81L240.72,33.29L242.89,35.86L245.06,40.26L247.23,37.15L249.4,36.61L251.57,39.31L253.73,36.58L255.9,40.96L258.07,42.02L260.24,42.6L262.41,40.01L268.92,27.01L271.08,16.97L273.25,19.45L275.42,17.01L277.59,20.21L279.76,25.06L284.1,24.94L286.27,28.91L288.43,28.35L290.6,30.38L294.94,48.37L297.11,45.56L299.28,45.31L301.45,46.73L303.61,41.8L305.78,39.6L307.95,37.4L310.12,37.12L312.29,35.78L314.46,33.34L316.63,32.48L318.8,40.05L320.96,42.99L323.13,41.17L327.47,36.13L329.64,38.81L331.81,34.57L333.98,39.03L336.14,36.09L338.31,38.28L340.48,32.49L342.65,34.72L344.82,43.14L346.99,45.42L349.16,44.8L351.33,36.14L357.83,43.38L360,42.84L362.17,43.65L364.34,48.42L366.51,54.62L368.67,54.7L370.84,50.07L373.01,51.99L375.18,48.99L377.35,52.22L379.52,50.56L381.69,51.66L383.86,53.42L386.02,49.29L388.19,51.01L390.36,51.58L392.53,44.11L394.7,45.68L396.87,47.48L399.04,45.75L401.2,46.76L403.37,46.58L405.54,51.75L407.71,54.04L409.88,55.38L412.05,58.93L414.22,57.55L416.39,62.08L418.55,65.64L420.72,66.56L422.89,69.81L425.06,71.57L427.23,70.17L429.4,71.05L431.57,68.25L433.73,64.22L438.07,67.79L440.24,67.31L444.58,64.37L446.75,66.02L451.08,71.92L453.25,70.88L455.42,68.2L457.59,69.4L461.93,68.07L464.1,64.03L466.27,65.23L468.43,62.94L474.94,59.96L477.11,54.9L479.28,55.09L481.45,54.46L483.61,59.19L485.78,60.04L487.95,58.76L490.12,58.86L492.29,54L494.46,58.2L496.63,55.57L498.8,57.72L500.96,55.85L503.13,56L505.3,55.1L507.47,60.15L509.64,58.61L511.81,59.82L513.98,58.46L516.14,60.94L518.31,65.75L520.48,58.42L522.65,55.67L524.82,58.99L531.33,60.63L533.49,57.55L535.66,55.78L537.83,56.31L540,55.18" style="vector-effect: non-scaling-stroke; fill: none; stroke: rgb(255, 151, 255); stroke-opacity: 1; stroke-width: 2px; opacity: 1;"/></g><g class="points"/><g class="text"/></g><g class="trace scatter trace85199f" style="stroke-miterlimit: 2; opacity: 1;"><g class="fills"/><g class="errorbars"/><g class="lines"><path class="js-line" d="M0,93.47L2.17,33L4.34,69.16L6.51,84.26L8.67,48.81L10.84,72.63L13.01,86.66L15.18,92.03L17.35,54.8L19.52,62.02L21.69,54.88L23.86,69.21L26.02,65.96L28.19,57.56L30.36,58.14L32.53,69.12L34.7,65.87L36.87,64.81L39.04,62.15L41.2,66.63L43.37,57.85L47.71,42.75L49.88,28.7L52.05,36.22L54.22,49.57L56.39,45.43L58.55,43.78L62.89,47.11L65.06,60.09L69.4,38.64L71.57,45.04L73.73,43.38L75.9,40.37L78.07,36.31L80.24,38L82.41,41.47L84.58,30.81L86.75,39.95L88.92,37.02L91.08,38.5L93.25,32.98L95.42,27.24L97.59,39.88L99.76,37.43L101.93,42.41L104.1,46.86L106.27,41.68L108.43,45.27L110.6,47L112.77,51.46L114.94,52.9L117.11,67.35L119.28,69.59L121.45,75.51L123.61,78.19L125.78,73.57L127.95,65.59L130.12,68.85L132.29,67.44L134.46,73.03L136.63,74.87L138.8,66.77L140.96,62.43L143.13,66.72L145.3,59.73L147.47,61.18L149.64,67.93L151.81,73.46L153.98,72.91L156.14,69.39L158.31,70.43L160.48,68.48L162.65,62.02L166.99,57.33L169.16,64.76L173.49,62.5L175.66,60.69L177.83,59.98L180,60.13L182.17,61.22L184.34,60.17L186.51,48.4L188.67,44.8L190.84,43.25L193.01,52.83L197.35,46.46L199.52,39.91L201.69,44.16L203.86,43.99L206.02,44.02L208.19,41.46L210.36,37.57L212.53,38.35L214.7,42.74L216.87,40.99L221.2,37.21L223.37,38.13L225.54,40.15L227.71,45.96L229.88,43.07L232.05,37.71L234.22,36.15L236.39,39.77L238.55,33.81L240.72,33.29L242.89,35.86L245.06,40.26L247.23,37.15L249.4,36.61L251.57,39.31L253.73,36.58L255.9,40.96L258.07,42.02L260.24,42.6L262.41,40.01L268.92,27.01L271.08,16.97L273.25,19.45L275.42,17.01L277.59,20.21L279.76,25.06L284.1,24.94L286.27,28.91L288.43,28.35L290.6,30.38L294.94,48.37L297.11,45.56L299.28,45.31L301.45,46.73L303.61,41.8L305.78,39.6L307.95,37.4L310.12,37.12L312.29,35.78L314.46,33.34L316.63,32.48L318.8,40.05L320.96,42.99L323.13,41.17L327.47,36.13L329.64,38.81L331.81,34.57L333.98,39.03L336.14,36.09L338.31,38.28L340.48,32.49L342.65,34.72L344.82,43.14L346.99,45.42L349.16,44.8L351.33,36.14L357.83,43.38L360,42.84L362.17,43.65L364.34,48.42L366.51,54.62L368.67,54.7L370.84,50.07L373.01,51.99L375.18,48.99L377.35,52.22L379.52,50.56L381.69,51.66L383.86,53.42L386.02,49.29L388.19,51.01L390.36,51.58L392.53,44.11L394.7,45.68L396.87,47.48L399.04,45.75L401.2,46.76L403.37,46.58L405.54,51.75L407.71,54.04L409.88,55.38L412.05,58.93L414.22,57.55L416.39,62.08L418.55,65.64L420.72,66.56L422.89,69.81L425.06,71.57L427.23,70.17L429.4,71.05L431.57,68.25L433.73,64.22L438.07,67.79L440.24,67.31L444.58,64.37L446.75,66.02L451.08,71.92L453.25,70.88L455.42,68.2L457.59,69.4L461.93,68.07L464.1,64.03L466.27,65.23L468.43,62.94L474.94,59.96L477.11,54.9L479.28,55.09L481.45,54.46L483.61,59.19L485.78,60.04L487.95,58.76L490.12,58.86L492.29,54L494.46,58.2L496.63,55.57L498.8,57.72L500.96,55.85L503.13,56L505.3,55.1L507.47,60.15L509.64,58.61L511.81,59.82L513.98,58.46L516.14,60.94L518.31,65.75L520.48,58.42L522.65,55.67L524.82,58.99L531.33,60.63L533.49,57.55L535.66,55.78L537.83,56.31L540,55.18" style="vector-effect: non-scaling-stroke; fill: none; stroke: rgb(254, 203, 82); stroke-opacity: 1; stroke-width: 2px; opacity: 1;"/></g><g class="points"/><g class="text"/></g><g class="trace scatter trace360019" style="stroke-miterlimit: 2; opacity: 1;"><g class="fills"/><g class="errorbars"/><g class="lines"><path class="js-line" d="M0,93.47L2.17,33L4.34,69.16L6.51,84.26L8.67,48.81L10.84,72.63L13.01,86.66L15.18,92.03L17.35,54.8L19.52,62.02L21.69,54.88L23.86,69.21L26.02,65.96L28.19,57.56L30.36,58.14L32.53,69.12L34.7,65.87L36.87,64.81L39.04,62.15L41.2,66.63L43.37,57.85L47.71,42.75L49.88,28.7L52.05,36.22L54.22,49.57L56.39,45.43L58.55,43.78L62.89,47.11L65.06,60.09L69.4,38.64L71.57,45.04L73.73,43.38L75.9,40.37L78.07,36.31L80.24,38L82.41,41.47L84.58,30.81L86.75,39.95L88.92,37.02L91.08,38.5L93.25,32.98L95.42,27.24L97.59,39.88L99.76,37.43L101.93,42.41L104.1,46.86L106.27,41.68L108.43,45.27L110.6,47L112.77,51.46L114.94,52.9L117.11,67.35L119.28,69.59L121.45,75.51L123.61,78.19L125.78,73.57L127.95,65.59L130.12,68.85L132.29,67.44L134.46,73.03L136.63,74.87L138.8,66.77L140.96,62.43L143.13,66.72L145.3,59.73L147.47,61.18L149.64,67.93L151.81,73.46L153.98,72.91L156.14,69.39L158.31,70.43L160.48,68.48L162.65,62.02L166.99,57.33L169.16,64.76L173.49,62.5L175.66,60.69L177.83,59.98L180,60.13L182.17,61.22L184.34,60.17L186.51,48.4L188.67,44.8L190.84,43.25L193.01,52.83L197.35,46.46L199.52,39.91L201.69,44.16L203.86,43.99L206.02,44.02L208.19,41.46L210.36,37.57L212.53,38.35L214.7,42.74L216.87,40.99L221.2,37.21L223.37,38.13L225.54,40.15L227.71,45.96L229.88,43.07L232.05,37.71L234.22,36.15L236.39,39.77L238.55,33.81L240.72,33.29L242.89,35.86L245.06,40.26L247.23,37.15L249.4,36.61L251.57,39.31L253.73,36.58L255.9,40.96L258.07,42.02L260.24,42.6L262.41,40.01L268.92,27.01L271.08,16.97L273.25,19.45L275.42,17.01L277.59,20.21L279.76,25.06L284.1,24.94L286.27,28.91L288.43,28.35L290.6,30.38L294.94,48.37L297.11,45.56L299.28,45.31L301.45,46.73L303.61,41.8L305.78,39.6L307.95,37.4L310.12,37.12L312.29,35.78L314.46,33.34L316.63,32.48L318.8,40.05L320.96,42.99L323.13,41.17L327.47,36.13L329.64,38.81L331.81,34.57L333.98,39.03L336.14,36.09L338.31,38.28L340.48,32.49L342.65,34.72L344.82,43.14L346.99,45.42L349.16,44.8L351.33,36.14L357.83,43.38L360,42.84L362.17,43.65L364.34,48.42L366.51,54.62L368.67,54.7L370.84,50.07L373.01,51.99L375.18,48.99L377.35,52.22L379.52,50.56L381.69,51.66L383.86,53.42L386.02,49.29L388.19,51.01L390.36,51.58L392.53,44.11L394.7,45.68L396.87,47.48L399.04,45.75L401.2,46.76L403.37,46.58L405.54,51.75L407.71,54.04L409.88,55.38L412.05,58.93L414.22,57.55L416.39,62.08L418.55,65.64L420.72,66.56L422.89,69.81L425.06,71.57L427.23,70.17L429.4,71.05L431.57,68.25L433.73,64.22L438.07,67.79L440.24,67.31L444.58,64.37L446.75,66.02L451.08,71.92L453.25,70.88L455.42,68.2L457.59,69.4L461.93,68.07L464.1,64.03L466.27,65.23L468.43,62.94L474.94,59.96L477.11,54.9L479.28,55.09L481.45,54.46L483.61,59.19L485.78,60.04L487.95,58.76L490.12,58.86L492.29,54L494.46,58.2L496.63,55.57L498.8,57.72L500.96,55.85L503.13,56L505.3,55.1L507.47,60.15L509.64,58.61L511.81,59.82L513.98,58.46L516.14,60.94L518.31,65.75L520.48,58.42L522.65,55.67L524.82,58.99L531.33,60.63L533.49,57.55L535.66,55.78L537.83,56.31L540,55.18" style="vector-effect: non-scaling-stroke; fill: none; stroke: rgb(99, 110, 250); stroke-opacity: 1; stroke-width: 2px; opacity: 1;"/></g><g class="points"/><g class="text"/></g><g class="trace scatter trace3b9173" style="stroke-miterlimit: 2; opacity: 1;"><g class="fills"/><g class="errorbars"/><g class="lines"><path class="js-line" d="M0,93.47L2.17,33L4.34,69.16L6.51,84.26L8.67,48.81L10.84,72.63L13.01,86.66L15.18,92.03L17.35,54.8L19.52,62.02L21.69,54.88L23.86,69.21L26.02,65.96L28.19,57.56L30.36,58.14L32.53,69.12L34.7,65.87L36.87,64.81L39.04,62.15L41.2,66.63L43.37,57.85L47.71,42.75L49.88,28.7L52.05,36.22L54.22,49.57L56.39,45.43L58.55,43.78L62.89,47.11L65.06,60.09L69.4,38.64L71.57,45.04L73.73,43.38L75.9,40.37L78.07,36.31L80.24,38L82.41,41.47L84.58,30.81L86.75,39.95L88.92,37.02L91.08,38.5L93.25,32.98L95.42,27.24L97.59,39.88L99.76,37.43L101.93,42.41L104.1,46.86L106.27,41.68L108.43,45.27L110.6,47L112.77,51.46L114.94,52.9L117.11,67.35L119.28,69.59L121.45,75.51L123.61,78.19L125.78,73.57L127.95,65.59L130.12,68.85L132.29,67.44L134.46,73.03L136.63,74.87L138.8,66.77L140.96,62.43L143.13,66.72L145.3,59.73L147.47,61.18L149.64,67.93L151.81,73.46L153.98,72.91L156.14,69.39L158.31,70.43L160.48,68.48L162.65,62.02L166.99,57.33L169.16,64.76L173.49,62.5L175.66,60.69L177.83,59.98L180,60.13L182.17,61.22L184.34,60.17L186.51,48.4L188.67,44.8L190.84,43.25L193.01,52.83L197.35,46.46L199.52,39.91L201.69,44.16L203.86,43.99L206.02,44.02L208.19,41.46L210.36,37.57L212.53,38.35L214.7,42.74L216.87,40.99L221.2,37.21L223.37,38.13L225.54,40.15L227.71,45.96L229.88,43.07L232.05,37.71L234.22,36.15L236.39,39.77L238.55,33.81L240.72,33.29L242.89,35.86L245.06,40.26L247.23,37.15L249.4,36.61L251.57,39.31L253.73,36.58L255.9,40.96L258.07,42.02L260.24,42.6L262.41,40.01L268.92,27.01L271.08,16.97L273.25,19.45L275.42,17.01L277.59,20.21L279.76,25.06L284.1,24.94L286.27,28.91L288.43,28.35L290.6,30.38L294.94,48.37L297.11,45.56L299.28,45.31L301.45,46.73L303.61,41.8L305.78,39.6L307.95,37.4L310.12,37.12L312.29,35.78L314.46,33.34L316.63,32.48L318.8,40.05L320.96,42.99L323.13,41.17L327.47,36.13L329.64,38.81L331.81,34.57L333.98,39.03L336.14,36.09L338.31,38.28L340.48,32.49L342.65,34.72L344.82,43.14L346.99,45.42L349.16,44.8L351.33,36.14L357.83,43.38L360,42.84L362.17,43.65L364.34,48.42L366.51,54.62L368.67,54.7L370.84,50.07L373.01,51.99L375.18,48.99L377.35,52.22L379.52,50.56L381.69,51.66L383.86,53.42L386.02,49.29L388.19,51.01L390.36,51.58L392.53,44.11L394.7,45.68L396.87,47.48L399.04,45.75L401.2,46.76L403.37,46.58L405.54,51.75L407.71,54.04L409.88,55.38L412.05,58.93L414.22,57.55L416.39,62.08L418.55,65.64L420.72,66.56L422.89,69.81L425.06,71.57L427.23,70.17L429.4,71.05L431.57,68.25L433.73,64.22L438.07,67.79L440.24,67.31L444.58,64.37L446.75,66.02L451.08,71.92L453.25,70.88L455.42,68.2L457.59,69.4L461.93,68.07L464.1,64.03L466.27,65.23L468.43,62.94L474.94,59.96L477.11,54.9L479.28,55.09L481.45,54.46L483.61,59.19L485.78,60.04L487.95,58.76L490.12,58.86L492.29,54L494.46,58.2L496.63,55.57L498.8,57.72L500.96,55.85L503.13,56L505.3,55.1L507.47,60.15L509.64,58.61L511.81,59.82L513.98,58.46L516.14,60.94L518.31,65.75L520.48,58.42L522.65,55.67L524.82,58.99L531.33,60.63L533.49,57.55L535.66,55.78L537.83,56.31L540,55.18" style="vector-effect: non-scaling-stroke; fill: none; stroke: rgb(239, 85, 59); stroke-opacity: 1; stroke-width: 2px; opacity: 1;"/></g><g class="points"/><g class="text"/></g><g class="trace scatter trace82beb9" style="stroke-miterlimit: 2; opacity: 1;"><g class="fills"/><g class="errorbars"/><g class="lines"><path class="js-line" d="M0,93.47L2.17,33L4.34,69.16L6.51,84.26L8.67,48.81L10.84,72.63L13.01,86.66L15.18,92.03L17.35,54.8L19.52,62.02L21.69,54.88L23.86,69.21L26.02,65.96L28.19,57.56L30.36,58.14L32.53,69.12L34.7,65.87L36.87,64.81L39.04,62.15L41.2,66.63L43.37,57.85L47.71,42.75L49.88,28.7L52.05,36.22L54.22,49.57L56.39,45.43L58.55,43.78L62.89,47.11L65.06,60.09L69.4,38.64L71.57,45.04L73.73,43.38L75.9,40.37L78.07,36.31L80.24,38L82.41,41.47L84.58,30.81L86.75,39.95L88.92,37.02L91.08,38.5L93.25,32.98L95.42,27.24L97.59,39.88L99.76,37.43L101.93,42.41L104.1,46.86L106.27,41.68L108.43,45.27L110.6,47L112.77,51.46L114.94,52.9L117.11,67.35L119.28,69.59L121.45,75.51L123.61,78.19L125.78,73.57L127.95,65.59L130.12,68.85L132.29,67.44L134.46,73.03L136.63,74.87L138.8,66.77L140.96,62.43L143.13,66.72L145.3,59.73L147.47,61.18L149.64,67.93L151.81,73.46L153.98,72.91L156.14,69.39L158.31,70.43L160.48,68.48L162.65,62.02L166.99,57.33L169.16,64.76L173.49,62.5L175.66,60.69L177.83,59.98L180,60.13L182.17,61.22L184.34,60.17L186.51,48.4L188.67,44.8L190.84,43.25L193.01,52.83L197.35,46.46L199.52,39.91L201.69,44.16L203.86,43.99L206.02,44.02L208.19,41.46L210.36,37.57L212.53,38.35L214.7,42.74L216.87,40.99L221.2,37.21L223.37,38.13L225.54,40.15L227.71,45.96L229.88,43.07L232.05,37.71L234.22,36.15L236.39,39.77L238.55,33.81L240.72,33.29L242.89,35.86L245.06,40.26L247.23,37.15L249.4,36.61L251.57,39.31L253.73,36.58L255.9,40.96L258.07,42.02L260.24,42.6L262.41,40.01L268.92,27.01L271.08,16.97L273.25,19.45L275.42,17.01L277.59,20.21L279.76,25.06L284.1,24.94L286.27,28.91L288.43,28.35L290.6,30.38L294.94,48.37L297.11,45.56L299.28,45.31L301.45,46.73L303.61,41.8L305.78,39.6L307.95,37.4L310.12,37.12L312.29,35.78L314.46,33.34L316.63,32.48L318.8,40.05L320.96,42.99L323.13,41.17L327.47,36.13L329.64,38.81L331.81,34.57L333.98,39.03L336.14,36.09L338.31,38.28L340.48,32.49L342.65,34.72L344.82,43.14L346.99,45.42L349.16,44.8L351.33,36.14L357.83,43.38L360,42.84L362.17,43.65L364.34,48.42L366.51,54.62L368.67,54.7L370.84,50.07L373.01,51.99L375.18,48.99L377.35,52.22L379.52,50.56L381.69,51.66L383.86,53.42L386.02,49.29L388.19,51.01L390.36,51.58L392.53,44.11L394.7,45.68L396.87,47.48L399.04,45.75L401.2,46.76L403.37,46.58L405.54,51.75L407.71,54.04L409.88,55.38L412.05,58.93L414.22,57.55L416.39,62.08L418.55,65.64L420.72,66.56L422.89,69.81L425.06,71.57L427.23,70.17L429.4,71.05L431.57,68.25L433.73,64.22L438.07,67.79L440.24,67.31L444.58,64.37L446.75,66.02L451.08,71.92L453.25,70.88L455.42,68.2L457.59,69.4L461.93,68.07L464.1,64.03L466.27,65.23L468.43,62.94L474.94,59.96L477.11,54.9L479.28,55.09L481.45,54.46L483.61,59.19L485.78,60.04L487.95,58.76L490.12,58.86L492.29,54L494.46,58.2L496.63,55.57L498.8,57.72L500.96,55.85L503.13,56L505.3,55.1L507.47,60.15L509.64,58.61L511.81,59.82L513.98,58.46L516.14,60.94L518.31,65.75L520.48,58.42L522.65,55.67L524.82,58.99L531.33,60.63L533.49,57.55L535.66,55.78L537.83,56.31L540,55.18" style="vector-effect: non-scaling-stroke; fill: none; stroke: rgb(0, 204, 150); stroke-opacity: 1; stroke-width: 2px; opacity: 1;"/></g><g class="points"/><g class="text"/></g><g class="trace scatter tracef02cd2" style="stroke-miterlimit: 2; opacity: 1;"><g class="fills"/><g class="errorbars"/><g class="lines"><path class="js-line" d="M0,93.47L2.17,33L4.34,69.16L6.51,84.26L8.67,48.81L10.84,72.63L13.01,86.66L15.18,92.03L17.35,54.8L19.52,62.02L21.69,54.88L23.86,69.21L26.02,65.96L28.19,57.56L30.36,58.14L32.53,69.12L34.7,65.87L36.87,64.81L39.04,62.15L41.2,66.63L43.37,57.85L47.71,42.75L49.88,28.7L52.05,36.22L54.22,49.57L56.39,45.43L58.55,43.78L62.89,47.11L65.06,60.09L69.4,38.64L71.57,45.04L73.73,43.38L75.9,40.37L78.07,36.31L80.24,38L82.41,41.47L84.58,30.81L86.75,39.95L88.92,37.02L91.08,38.5L93.25,32.98L95.42,27.24L97.59,39.88L99.76,37.43L101.93,42.41L104.1,46.86L106.27,41.68L108.43,45.27L110.6,47L112.77,51.46L114.94,52.9L117.11,67.35L119.28,69.59L121.45,75.51L123.61,78.19L125.78,73.57L127.95,65.59L130.12,68.85L132.29,67.44L134.46,73.03L136.63,74.87L138.8,66.77L140.96,62.43L143.13,66.72L145.3,59.73L147.47,61.18L149.64,67.93L151.81,73.46L153.98,72.91L156.14,69.39L158.31,70.43L160.48,68.48L162.65,62.02L166.99,57.33L169.16,64.76L173.49,62.5L175.66,60.69L177.83,59.98L180,60.13L182.17,61.22L184.34,60.17L186.51,48.4L188.67,44.8L190.84,43.25L193.01,52.83L197.35,46.46L199.52,39.91L201.69,44.16L203.86,43.99L206.02,44.02L208.19,41.46L210.36,37.57L212.53,38.35L214.7,42.74L216.87,40.99L221.2,37.21L223.37,38.13L225.54,40.15L227.71,45.96L229.88,43.07L232.05,37.71L234.22,36.15L236.39,39.77L238.55,33.81L240.72,33.29L242.89,35.86L245.06,40.26L247.23,37.15L249.4,36.61L251.57,39.31L253.73,36.58L255.9,40.96L258.07,42.02L260.24,42.6L262.41,40.01L268.92,27.01L271.08,16.97L273.25,19.45L275.42,17.01L277.59,20.21L279.76,25.06L284.1,24.94L286.27,28.91L288.43,28.35L290.6,30.38L294.94,48.37L297.11,45.56L299.28,45.31L301.45,46.73L303.61,41.8L305.78,39.6L307.95,37.4L310.12,37.12L312.29,35.78L314.46,33.34L316.63,32.48L318.8,40.05L320.96,42.99L323.13,41.17L327.47,36.13L329.64,38.81L331.81,34.57L333.98,39.03L336.14,36.09L338.31,38.28L340.48,32.49L342.65,34.72L344.82,43.14L346.99,45.42L349.16,44.8L351.33,36.14L357.83,43.38L360,42.84L362.17,43.65L364.34,48.42L366.51,54.62L368.67,54.7L370.84,50.07L373.01,51.99L375.18,48.99L377.35,52.22L379.52,50.56L381.69,51.66L383.86,53.42L386.02,49.29L388.19,51.01L390.36,51.58L392.53,44.11L394.7,45.68L396.87,47.48L399.04,45.75L401.2,46.76L403.37,46.58L405.54,51.75L407.71,54.04L409.88,55.38L412.05,58.93L414.22,57.55L416.39,62.08L418.55,65.64L420.72,66.56L422.89,69.81L425.06,71.57L427.23,70.17L429.4,71.05L431.57,68.25L433.73,64.22L438.07,67.79L440.24,67.31L444.58,64.37L446.75,66.02L451.08,71.92L453.25,70.88L455.42,68.2L457.59,69.4L461.93,68.07L464.1,64.03L466.27,65.23L468.43,62.94L474.94,59.96L477.11,54.9L479.28,55.09L481.45,54.46L483.61,59.19L485.78,60.04L487.95,58.76L490.12,58.86L492.29,54L494.46,58.2L496.63,55.57L498.8,57.72L500.96,55.85L503.13,56L505.3,55.1L507.47,60.15L509.64,58.61L511.81,59.82L513.98,58.46L516.14,60.94L518.31,65.75L520.48,58.42L522.65,55.67L524.82,58.99L531.33,60.63L533.49,57.55L535.66,55.78L537.83,56.31L540,55.18" style="vector-effect: non-scaling-stroke; fill: none; stroke: rgb(171, 99, 250); stroke-opacity: 1; stroke-width: 2px; opacity: 1;"/></g><g class="points"/><g class="text"/></g><g class="trace scatter trace07b24c" style="stroke-miterlimit: 2; opacity: 1;"><g class="fills"/><g class="errorbars"/><g class="lines"><path class="js-line" d="M0,93.47L2.17,33L4.34,69.16L6.51,84.26L8.67,48.81L10.84,72.63L13.01,86.66L15.18,92.03L17.35,54.8L19.52,62.02L21.69,54.88L23.86,69.21L26.02,65.96L28.19,57.56L30.36,58.14L32.53,69.12L34.7,65.87L36.87,64.81L39.04,62.15L41.2,66.63L43.37,57.85L47.71,42.75L49.88,28.7L52.05,36.22L54.22,49.57L56.39,45.43L58.55,43.78L62.89,47.11L65.06,60.09L69.4,38.64L71.57,45.04L73.73,43.38L75.9,40.37L78.07,36.31L80.24,38L82.41,41.47L84.58,30.81L86.75,39.95L88.92,37.02L91.08,38.5L93.25,32.98L95.42,27.24L97.59,39.88L99.76,37.43L101.93,42.41L104.1,46.86L106.27,41.68L108.43,45.27L110.6,47L112.77,51.46L114.94,52.9L117.11,67.35L119.28,69.59L121.45,75.51L123.61,78.19L125.78,73.57L127.95,65.59L130.12,68.85L132.29,67.44L134.46,73.03L136.63,74.87L138.8,66.77L140.96,62.43L143.13,66.72L145.3,59.73L147.47,61.18L149.64,67.93L151.81,73.46L153.98,72.91L156.14,69.39L158.31,70.43L160.48,68.48L162.65,62.02L166.99,57.33L169.16,64.76L173.49,62.5L175.66,60.69L177.83,59.98L180,60.13L182.17,61.22L184.34,60.17L186.51,48.4L188.67,44.8L190.84,43.25L193.01,52.83L197.35,46.46L199.52,39.91L201.69,44.16L203.86,43.99L206.02,44.02L208.19,41.46L210.36,37.57L212.53,38.35L214.7,42.74L216.87,40.99L221.2,37.21L223.37,38.13L225.54,40.15L227.71,45.96L229.88,43.07L232.05,37.71L234.22,36.15L236.39,39.77L238.55,33.81L240.72,33.29L242.89,35.86L245.06,40.26L247.23,37.15L249.4,36.61L251.57,39.31L253.73,36.58L255.9,40.96L258.07,42.02L260.24,42.6L262.41,40.01L268.92,27.01L271.08,16.97L273.25,19.45L275.42,17.01L277.59,20.21L279.76,25.06L284.1,24.94L286.27,28.91L288.43,28.35L290.6,30.38L294.94,48.37L297.11,45.56L299.28,45.31L301.45,46.73L303.61,41.8L305.78,39.6L307.95,37.4L310.12,37.12L312.29,35.78L314.46,33.34L316.63,32.48L318.8,40.05L320.96,42.99L323.13,41.17L327.47,36.13L329.64,38.81L331.81,34.57L333.98,39.03L336.14,36.09L338.31,38.28L340.48,32.49L342.65,34.72L344.82,43.14L346.99,45.42L349.16,44.8L351.33,36.14L357.83,43.38L360,42.84L362.17,43.65L364.34,48.42L366.51,54.62L368.67,54.7L370.84,50.07L373.01,51.99L375.18,48.99L377.35,52.22L379.52,50.56L381.69,51.66L383.86,53.42L386.02,49.29L388.19,51.01L390.36,51.58L392.53,44.11L394.7,45.68L396.87,47.48L399.04,45.75L401.2,46.76L403.37,46.58L405.54,51.75L407.71,54.04L409.88,55.38L412.05,58.93L414.22,57.55L416.39,62.08L418.55,65.64L420.72,66.56L422.89,69.81L425.06,71.57L427.23,70.17L429.4,71.05L431.57,68.25L433.73,64.22L438.07,67.79L440.24,67.31L444.58,64.37L446.75,66.02L451.08,71.92L453.25,70.88L455.42,68.2L457.59,69.4L461.93,68.07L464.1,64.03L466.27,65.23L468.43,62.94L474.94,59.96L477.11,54.9L479.28,55.09L481.45,54.46L483.61,59.19L485.78,60.04L487.95,58.76L490.12,58.86L492.29,54L494.46,58.2L496.63,55.57L498.8,57.72L500.96,55.85L503.13,56L505.3,55.1L507.47,60.15L509.64,58.61L511.81,59.82L513.98,58.46L516.14,60.94L518.31,65.75L520.48,58.42L522.65,55.67L524.82,58.99L531.33,60.63L533.49,57.55L535.66,55.78L537.83,56.31L540,55.18" style="vector-effect: non-scaling-stroke; fill: none; stroke: rgb(255, 161, 90); stroke-opacity: 1; stroke-width: 2px; opacity: 1;"/></g><g class="points"/><g class="text"/></g><g class="trace scatter trace170749" style="stroke-miterlimit: 2; opacity: 1;"><g class="fills"/><g class="errorbars"/><g class="lines"><path class="js-line" d="M0,93.47L2.17,33L4.34,69.16L6.51,84.26L8.67,48.81L10.84,72.63L13.01,86.66L15.18,92.03L17.35,54.8L19.52,62.02L21.69,54.88L23.86,69.21L26.02,65.96L28.19,57.56L30.36,58.14L32.53,69.12L34.7,65.87L36.87,64.81L39.04,62.15L41.2,66.63L43.37,57.85L47.71,42.75L49.88,28.7L52.05,36.22L54.22,49.57L56.39,45.43L58.55,43.78L62.89,47.11L65.06,60.09L69.4,38.64L71.57,45.04L73.73,43.38L75.9,40.37L78.07,36.31L80.24,38L82.41,41.47L84.58,30.81L86.75,39.95L88.92,37.02L91.08,38.5L93.25,32.98L95.42,27.24L97.59,39.88L99.76,37.43L101.93,42.41L104.1,46.86L106.27,41.68L108.43,45.27L110.6,47L112.77,51.46L114.94,52.9L117.11,67.35L119.28,69.59L121.45,75.51L123.61,78.19L125.78,73.57L127.95,65.59L130.12,68.85L132.29,67.44L134.46,73.03L136.63,74.87L138.8,66.77L140.96,62.43L143.13,66.72L145.3,59.73L147.47,61.18L149.64,67.93L151.81,73.46L153.98,72.91L156.14,69.39L158.31,70.43L160.48,68.48L162.65,62.02L166.99,57.33L169.16,64.76L173.49,62.5L175.66,60.69L177.83,59.98L180,60.13L182.17,61.22L184.34,60.17L186.51,48.4L188.67,44.8L190.84,43.25L193.01,52.83L197.35,46.46L199.52,39.91L201.69,44.16L203.86,43.99L206.02,44.02L208.19,41.46L210.36,37.57L212.53,38.35L214.7,42.74L216.87,40.99L221.2,37.21L223.37,38.13L225.54,40.15L227.71,45.96L229.88,43.07L232.05,37.71L234.22,36.15L236.39,39.77L238.55,33.81L240.72,33.29L242.89,35.86L245.06,40.26L247.23,37.15L249.4,36.61L251.57,39.31L253.73,36.58L255.9,40.96L258.07,42.02L260.24,42.6L262.41,40.01L268.92,27.01L271.08,16.97L273.25,19.45L275.42,17.01L277.59,20.21L279.76,25.06L284.1,24.94L286.27,28.91L288.43,28.35L290.6,30.38L294.94,48.37L297.11,45.56L299.28,45.31L301.45,46.73L303.61,41.8L305.78,39.6L307.95,37.4L310.12,37.12L312.29,35.78L314.46,33.34L316.63,32.48L318.8,40.05L320.96,42.99L323.13,41.17L327.47,36.13L329.64,38.81L331.81,34.57L333.98,39.03L336.14,36.09L338.31,38.28L340.48,32.49L342.65,34.72L344.82,43.14L346.99,45.42L349.16,44.8L351.33,36.14L357.83,43.38L360,42.84L362.17,43.65L364.34,48.42L366.51,54.62L368.67,54.7L370.84,50.07L373.01,51.99L375.18,48.99L377.35,52.22L379.52,50.56L381.69,51.66L383.86,53.42L386.02,49.29L388.19,51.01L390.36,51.58L392.53,44.11L394.7,45.68L396.87,47.48L399.04,45.75L401.2,46.76L403.37,46.58L405.54,51.75L407.71,54.04L409.88,55.38L412.05,58.93L414.22,57.55L416.39,62.08L418.55,65.64L420.72,66.56L422.89,69.81L425.06,71.57L427.23,70.17L429.4,71.05L431.57,68.25L433.73,64.22L438.07,67.79L440.24,67.31L444.58,64.37L446.75,66.02L451.08,71.92L453.25,70.88L455.42,68.2L457.59,69.4L461.93,68.07L464.1,64.03L466.27,65.23L468.43,62.94L474.94,59.96L477.11,54.9L479.28,55.09L481.45,54.46L483.61,59.19L485.78,60.04L487.95,58.76L490.12,58.86L492.29,54L494.46,58.2L496.63,55.57L498.8,57.72L500.96,55.85L503.13,56L505.3,55.1L507.47,60.15L509.64,58.61L511.81,59.82L513.98,58.46L516.14,60.94L518.31,65.75L520.48,58.42L522.65,55.67L524.82,58.99L531.33,60.63L533.49,57.55L535.66,55.78L537.83,56.31L540,55.18" style="vector-effect: non-scaling-stroke; fill: none; stroke: rgb(25, 211, 243); stroke-opacity: 1; stroke-width: 2px; opacity: 1;"/></g><g class="points"/><g class="text"/></g><g class="trace scatter trace485bf6" style="stroke-miterlimit: 2; opacity: 1;"><g class="fills"/><g class="errorbars"/><g class="lines"><path class="js-line" d="M0,93.47L2.17,33L4.34,69.16L6.51,84.26L8.67,48.81L10.84,72.63L13.01,86.66L15.18,92.03L17.35,54.8L19.52,62.02L21.69,54.88L23.86,69.21L26.02,65.96L28.19,57.56L30.36,58.14L32.53,69.12L34.7,65.87L36.87,64.81L39.04,62.15L41.2,66.63L43.37,57.85L47.71,42.75L49.88,28.7L52.05,36.22L54.22,49.57L56.39,45.43L58.55,43.78L62.89,47.11L65.06,60.09L69.4,38.64L71.57,45.04L73.73,43.38L75.9,40.37L78.07,36.31L80.24,38L82.41,41.47L84.58,30.81L86.75,39.95L88.92,37.02L91.08,38.5L93.25,32.98L95.42,27.24L97.59,39.88L99.76,37.43L101.93,42.41L104.1,46.86L106.27,41.68L108.43,45.27L110.6,47L112.77,51.46L114.94,52.9L117.11,67.35L119.28,69.59L121.45,75.51L123.61,78.19L125.78,73.57L127.95,65.59L130.12,68.85L132.29,67.44L134.46,73.03L136.63,74.87L138.8,66.77L140.96,62.43L143.13,66.72L145.3,59.73L147.47,61.18L149.64,67.93L151.81,73.46L153.98,72.91L156.14,69.39L158.31,70.43L160.48,68.48L162.65,62.02L166.99,57.33L169.16,64.76L173.49,62.5L175.66,60.69L177.83,59.98L180,60.13L182.17,61.22L184.34,60.17L186.51,48.4L188.67,44.8L190.84,43.25L193.01,52.83L197.35,46.46L199.52,39.91L201.69,44.16L203.86,43.99L206.02,44.02L208.19,41.46L210.36,37.57L212.53,38.35L214.7,42.74L216.87,40.99L221.2,37.21L223.37,38.13L225.54,40.15L227.71,45.96L229.88,43.07L232.05,37.71L234.22,36.15L236.39,39.77L238.55,33.81L240.72,33.29L242.89,35.86L245.06,40.26L247.23,37.15L249.4,36.61L251.57,39.31L253.73,36.58L255.9,40.96L258.07,42.02L260.24,42.6L262.41,40.01L268.92,27.01L271.08,16.97L273.25,19.45L275.42,17.01L277.59,20.21L279.76,25.06L284.1,24.94L286.27,28.91L288.43,28.35L290.6,30.38L294.94,48.37L297.11,45.56L299.28,45.31L301.45,46.73L303.61,41.8L305.78,39.6L307.95,37.4L310.12,37.12L312.29,35.78L314.46,33.34L316.63,32.48L318.8,40.05L320.96,42.99L323.13,41.17L327.47,36.13L329.64,38.81L331.81,34.57L333.98,39.03L336.14,36.09L338.31,38.28L340.48,32.49L342.65,34.72L344.82,43.14L346.99,45.42L349.16,44.8L351.33,36.14L357.83,43.38L360,42.84L362.17,43.65L364.34,48.42L366.51,54.62L368.67,54.7L370.84,50.07L373.01,51.99L375.18,48.99L377.35,52.22L379.52,50.56L381.69,51.66L383.86,53.42L386.02,49.29L388.19,51.01L390.36,51.58L392.53,44.11L394.7,45.68L396.87,47.48L399.04,45.75L401.2,46.76L403.37,46.58L405.54,51.75L407.71,54.04L409.88,55.38L412.05,58.93L414.22,57.55L416.39,62.08L418.55,65.64L420.72,66.56L422.89,69.81L425.06,71.57L427.23,70.17L429.4,71.05L431.57,68.25L433.73,64.22L438.07,67.79L440.24,67.31L444.58,64.37L446.75,66.02L451.08,71.92L453.25,70.88L455.42,68.2L457.59,69.4L461.93,68.07L464.1,64.03L466.27,65.23L468.43,62.94L474.94,59.96L477.11,54.9L479.28,55.09L481.45,54.46L483.61,59.19L485.78,60.04L487.95,58.76L490.12,58.86L492.29,54L494.46,58.2L496.63,55.57L498.8,57.72L500.96,55.85L503.13,56L505.3,55.1L507.47,60.15L509.64,58.61L511.81,59.82L513.98,58.46L516.14,60.94L518.31,65.75L520.48,58.42L522.65,55.67L524.82,58.99L531.33,60.63L533.49,57.55L535.66,55.78L537.83,56.31L540,55.18" style="vector-effect: non-scaling-stroke; fill: none; stroke: rgb(255, 102, 146); stroke-opacity: 1; stroke-width: 2px; opacity: 1;"/></g><g class="points"/><g class="text"/></g><g class="trace scatter traceb31b43" style="stroke-miterlimit: 2; opacity: 1;"><g class="fills"/><g class="errorbars"/><g class="lines"><path class="js-line" d="M0,93.47L2.17,33L4.34,69.16L6.51,84.26L8.67,48.81L10.84,72.63L13.01,86.66L15.18,92.03L17.35,54.8L19.52,62.02L21.69,54.88L23.86,69.21L26.02,65.96L28.19,57.56L30.36,58.14L32.53,69.12L34.7,65.87L36.87,64.81L39.04,62.15L41.2,66.63L43.37,57.85L47.71,42.75L49.88,28.7L52.05,36.22L54.22,49.57L56.39,45.43L58.55,43.78L62.89,47.11L65.06,60.09L69.4,38.64L71.57,45.04L73.73,43.38L75.9,40.37L78.07,36.31L80.24,38L82.41,41.47L84.58,30.81L86.75,39.95L88.92,37.02L91.08,38.5L93.25,32.98L95.42,27.24L97.59,39.88L99.76,37.43L101.93,42.41L104.1,46.86L106.27,41.68L108.43,45.27L110.6,47L112.77,51.46L114.94,52.9L117.11,67.35L119.28,69.59L121.45,75.51L123.61,78.19L125.78,73.57L127.95,65.59L130.12,68.85L132.29,67.44L134.46,73.03L136.63,74.87L138.8,66.77L140.96,62.43L143.13,66.72L145.3,59.73L147.47,61.18L149.64,67.93L151.81,73.46L153.98,72.91L156.14,69.39L158.31,70.43L160.48,68.48L162.65,62.02L166.99,57.33L169.16,64.76L173.49,62.5L175.66,60.69L177.83,59.98L180,60.13L182.17,61.22L184.34,60.17L186.51,48.4L188.67,44.8L190.84,43.25L193.01,52.83L197.35,46.46L199.52,39.91L201.69,44.16L203.86,43.99L206.02,44.02L208.19,41.46L210.36,37.57L212.53,38.35L214.7,42.74L216.87,40.99L221.2,37.21L223.37,38.13L225.54,40.15L227.71,45.96L229.88,43.07L232.05,37.71L234.22,36.15L236.39,39.77L238.55,33.81L240.72,33.29L242.89,35.86L245.06,40.26L247.23,37.15L249.4,36.61L251.57,39.31L253.73,36.58L255.9,40.96L258.07,42.02L260.24,42.6L262.41,40.01L268.92,27.01L271.08,16.97L273.25,19.45L275.42,17.01L277.59,20.21L279.76,25.06L284.1,24.94L286.27,28.91L288.43,28.35L290.6,30.38L294.94,48.37L297.11,45.56L299.28,45.31L301.45,46.73L303.61,41.8L305.78,39.6L307.95,37.4L310.12,37.12L312.29,35.78L314.46,33.34L316.63,32.48L318.8,40.05L320.96,42.99L323.13,41.17L327.47,36.13L329.64,38.81L331.81,34.57L333.98,39.03L336.14,36.09L338.31,38.28L340.48,32.49L342.65,34.72L344.82,43.14L346.99,45.42L349.16,44.8L351.33,36.14L357.83,43.38L360,42.84L362.17,43.65L364.34,48.42L366.51,54.62L368.67,54.7L370.84,50.07L373.01,51.99L375.18,48.99L377.35,52.22L379.52,50.56L381.69,51.66L383.86,53.42L386.02,49.29L388.19,51.01L390.36,51.58L392.53,44.11L394.7,45.68L396.87,47.48L399.04,45.75L401.2,46.76L403.37,46.58L405.54,51.75L407.71,54.04L409.88,55.38L412.05,58.93L414.22,57.55L416.39,62.08L418.55,65.64L420.72,66.56L422.89,69.81L425.06,71.57L427.23,70.17L429.4,71.05L431.57,68.25L433.73,64.22L438.07,67.79L440.24,67.31L444.58,64.37L446.75,66.02L451.08,71.92L453.25,70.88L455.42,68.2L457.59,69.4L461.93,68.07L464.1,64.03L466.27,65.23L468.43,62.94L474.94,59.96L477.11,54.9L479.28,55.09L481.45,54.46L483.61,59.19L485.78,60.04L487.95,58.76L490.12,58.86L492.29,54L494.46,58.2L496.63,55.57L498.8,57.72L500.96,55.85L503.13,56L505.3,55.1L507.47,60.15L509.64,58.61L511.81,59.82L513.98,58.46L516.14,60.94L518.31,65.75L520.48,58.42L522.65,55.67L524.82,58.99L531.33,60.63L533.49,57.55L535.66,55.78L537.83,56.31L540,55.18" style="vector-effect: non-scaling-stroke; fill: none; stroke: rgb(182, 232, 128); stroke-opacity: 1; stroke-width: 2px; opacity: 1;"/></g><g class="points"/><g class="text"/></g><g class="trace scatter tracecefd99" style="stroke-miterlimit: 2; opacity: 1;"><g class="fills"/><g class="errorbars"/><g class="lines"><path class="js-line" d="M0,93.47L2.17,33L4.34,69.16L6.51,84.26L8.67,48.81L10.84,72.63L13.01,86.66L15.18,92.03L17.35,54.8L19.52,62.02L21.69,54.88L23.86,69.21L26.02,65.96L28.19,57.56L30.36,58.14L32.53,69.12L34.7,65.87L36.87,64.81L39.04,62.15L41.2,66.63L43.37,57.85L47.71,42.75L49.88,28.7L52.05,36.22L54.22,49.57L56.39,45.43L58.55,43.78L62.89,47.11L65.06,60.09L69.4,38.64L71.57,45.04L73.73,43.38L75.9,40.37L78.07,36.31L80.24,38L82.41,41.47L84.58,30.81L86.75,39.95L88.92,37.02L91.08,38.5L93.25,32.98L95.42,27.24L97.59,39.88L99.76,37.43L101.93,42.41L104.1,46.86L106.27,41.68L108.43,45.27L110.6,47L112.77,51.46L114.94,52.9L117.11,67.35L119.28,69.59L121.45,75.51L123.61,78.19L125.78,73.57L127.95,65.59L130.12,68.85L132.29,67.44L134.46,73.03L136.63,74.87L138.8,66.77L140.96,62.43L143.13,66.72L145.3,59.73L147.47,61.18L149.64,67.93L151.81,73.46L153.98,72.91L156.14,69.39L158.31,70.43L160.48,68.48L162.65,62.02L166.99,57.33L169.16,64.76L173.49,62.5L175.66,60.69L177.83,59.98L180,60.13L182.17,61.22L184.34,60.17L186.51,48.4L188.67,44.8L190.84,43.25L193.01,52.83L197.35,46.46L199.52,39.91L201.69,44.16L203.86,43.99L206.02,44.02L208.19,41.46L210.36,37.57L212.53,38.35L214.7,42.74L216.87,40.99L221.2,37.21L223.37,38.13L225.54,40.15L227.71,45.96L229.88,43.07L232.05,37.71L234.22,36.15L236.39,39.77L238.55,33.81L240.72,33.29L242.89,35.86L245.06,40.26L247.23,37.15L249.4,36.61L251.57,39.31L253.73,36.58L255.9,40.96L258.07,42.02L260.24,42.6L262.41,40.01L268.92,27.01L271.08,16.97L273.25,19.45L275.42,17.01L277.59,20.21L279.76,25.06L284.1,24.94L286.27,28.91L288.43,28.35L290.6,30.38L294.94,48.37L297.11,45.56L299.28,45.31L301.45,46.73L303.61,41.8L305.78,39.6L307.95,37.4L310.12,37.12L312.29,35.78L314.46,33.34L316.63,32.48L318.8,40.05L320.96,42.99L323.13,41.17L327.47,36.13L329.64,38.81L331.81,34.57L333.98,39.03L336.14,36.09L338.31,38.28L340.48,32.49L342.65,34.72L344.82,43.14L346.99,45.42L349.16,44.8L351.33,36.14L357.83,43.38L360,42.84L362.17,43.65L364.34,48.42L366.51,54.62L368.67,54.7L370.84,50.07L373.01,51.99L375.18,48.99L377.35,52.22L379.52,50.56L381.69,51.66L383.86,53.42L386.02,49.29L388.19,51.01L390.36,51.58L392.53,44.11L394.7,45.68L396.87,47.48L399.04,45.75L401.2,46.76L403.37,46.58L405.54,51.75L407.71,54.04L409.88,55.38L412.05,58.93L414.22,57.55L416.39,62.08L418.55,65.64L420.72,66.56L422.89,69.81L425.06,71.57L427.23,70.17L429.4,71.05L431.57,68.25L433.73,64.22L438.07,67.79L440.24,67.31L444.58,64.37L446.75,66.02L451.08,71.92L453.25,70.88L455.42,68.2L457.59,69.4L461.93,68.07L464.1,64.03L466.27,65.23L468.43,62.94L474.94,59.96L477.11,54.9L479.28,55.09L481.45,54.46L483.61,59.19L485.78,60.04L487.95,58.76L490.12,58.86L492.29,54L494.46,58.2L496.63,55.57L498.8,57.72L500.96,55.85L503.13,56L505.3,55.1L507.47,60.15L509.64,58.61L511.81,59.82L513.98,58.46L516.14,60.94L518.31,65.75L520.48,58.42L522.65,55.67L524.82,58.99L531.33,60.63L533.49,57.55L535.66,55.78L537.83,56.31L540,55.18" style="vector-effect: non-scaling-stroke; fill: none; stroke: rgb(255, 151, 255); stroke-opacity: 1; stroke-width: 2px; opacity: 1;"/></g><g class="points"/><g class="text"/></g><g class="trace scatter trace6a9b62" style="stroke-miterlimit: 2; opacity: 1;"><g class="fills"/><g class="errorbars"/><g class="lines"><path class="js-line" d="M0,93.47L2.17,33L4.34,69.16L6.51,84.26L8.67,48.81L10.84,72.63L13.01,86.66L15.18,92.03L17.35,54.8L19.52,62.02L21.69,54.88L23.86,69.21L26.02,65.96L28.19,57.56L30.36,58.14L32.53,69.12L34.7,65.87L36.87,64.81L39.04,62.15L41.2,66.63L43.37,57.85L47.71,42.75L49.88,28.7L52.05,36.22L54.22,49.57L56.39,45.43L58.55,43.78L62.89,47.11L65.06,60.09L69.4,38.64L71.57,45.04L73.73,43.38L75.9,40.37L78.07,36.31L80.24,38L82.41,41.47L84.58,30.81L86.75,39.95L88.92,37.02L91.08,38.5L93.25,32.98L95.42,27.24L97.59,39.88L99.76,37.43L101.93,42.41L104.1,46.86L106.27,41.68L108.43,45.27L110.6,47L112.77,51.46L114.94,52.9L117.11,67.35L119.28,69.59L121.45,75.51L123.61,78.19L125.78,73.57L127.95,65.59L130.12,68.85L132.29,67.44L134.46,73.03L136.63,74.87L138.8,66.77L140.96,62.43L143.13,66.72L145.3,59.73L147.47,61.18L149.64,67.93L151.81,73.46L153.98,72.91L156.14,69.39L158.31,70.43L160.48,68.48L162.65,62.02L166.99,57.33L169.16,64.76L173.49,62.5L175.66,60.69L177.83,59.98L180,60.13L182.17,61.22L184.34,60.17L186.51,48.4L188.67,44.8L190.84,43.25L193.01,52.83L197.35,46.46L199.52,39.91L201.69,44.16L203.86,43.99L206.02,44.02L208.19,41.46L210.36,37.57L212.53,38.35L214.7,42.74L216.87,40.99L221.2,37.21L223.37,38.13L225.54,40.15L227.71,45.96L229.88,43.07L232.05,37.71L234.22,36.15L236.39,39.77L238.55,33.81L240.72,33.29L242.89,35.86L245.06,40.26L247.23,37.15L249.4,36.61L251.57,39.31L253.73,36.58L255.9,40.96L258.07,42.02L260.24,42.6L262.41,40.01L268.92,27.01L271.08,16.97L273.25,19.45L275.42,17.01L277.59,20.21L279.76,25.06L284.1,24.94L286.27,28.91L288.43,28.35L290.6,30.38L294.94,48.37L297.11,45.56L299.28,45.31L301.45,46.73L303.61,41.8L305.78,39.6L307.95,37.4L310.12,37.12L312.29,35.78L314.46,33.34L316.63,32.48L318.8,40.05L320.96,42.99L323.13,41.17L327.47,36.13L329.64,38.81L331.81,34.57L333.98,39.03L336.14,36.09L338.31,38.28L340.48,32.49L342.65,34.72L344.82,43.14L346.99,45.42L349.16,44.8L351.33,36.14L357.83,43.38L360,42.84L362.17,43.65L364.34,48.42L366.51,54.62L368.67,54.7L370.84,50.07L373.01,51.99L375.18,48.99L377.35,52.22L379.52,50.56L381.69,51.66L383.86,53.42L386.02,49.29L388.19,51.01L390.36,51.58L392.53,44.11L394.7,45.68L396.87,47.48L399.04,45.75L401.2,46.76L403.37,46.58L405.54,51.75L407.71,54.04L409.88,55.38L412.05,58.93L414.22,57.55L416.39,62.08L418.55,65.64L420.72,66.56L422.89,69.81L425.06,71.57L427.23,70.17L429.4,71.05L431.57,68.25L433.73,64.22L438.07,67.79L440.24,67.31L444.58,64.37L446.75,66.02L451.08,71.92L453.25,70.88L455.42,68.2L457.59,69.4L461.93,68.07L464.1,64.03L466.27,65.23L468.43,62.94L474.94,59.96L477.11,54.9L479.28,55.09L481.45,54.46L483.61,59.19L485.78,60.04L487.95,58.76L490.12,58.86L492.29,54L494.46,58.2L496.63,55.57L498.8,57.72L500.96,55.85L503.13,56L505.3,55.1L507.47,60.15L509.64,58.61L511.81,59.82L513.98,58.46L516.14,60.94L518.31,65.75L520.48,58.42L522.65,55.67L524.82,58.99L531.33,60.63L533.49,57.55L535.66,55.78L537.83,56.31L540,55.18" style="vector-effect: non-scaling-stroke; fill: none; stroke: rgb(254, 203, 82); stroke-opacity: 1; stroke-width: 2px; opacity: 1;"/></g><g class="points"/><g class="text"/></g></g></g><g class="overplot"/><path class="xlines-above crisp" d="M0,0" style="fill: none;"/><path class="ylines-above crisp" d="M0,0" style="fill: none;"/><g class="overlines-above"/><g class="xaxislayer-above"><g class="xtick"><text text-anchor="middle" x="0" y="433" transform="translate(80,0)" style="font-family: 'Open Sans', verdana, arial, sans-serif; font-size: 12px; fill: rgb(42, 63, 95); fill-opacity: 1; white-space: pre; opacity: 1;">0</text></g><g class="xtick"><text text-anchor="middle" x="0" y="433" style="font-family: 'Open Sans', verdana, arial, sans-serif; font-size: 12px; fill: rgb(42, 63, 95); fill-opacity: 1; white-space: pre; opacity: 1;" transform="translate(188.43,0)">50</text></g><g class="xtick"><text text-anchor="middle" x="0" y="433" style="font-family: 'Open Sans', verdana, arial, sans-serif; font-size: 12px; fill: rgb(42, 63, 95); fill-opacity: 1; white-space: pre; opacity: 1;" transform="translate(296.87,0)">100</text></g><g class="xtick"><text text-anchor="middle" x="0" y="433" style="font-family: 'Open Sans', verdana, arial, sans-serif; font-size: 12px; fill: rgb(42, 63, 95); fill-opacity: 1; white-space: pre; opacity: 1;" transform="translate(405.3,0)">150</text></g><g class="xtick"><text text-anchor="middle" x="0" y="433" style="font-family: 'Open Sans', verdana, arial, sans-serif; font-size: 12px; fill: rgb(42, 63, 95); fill-opacity: 1; white-space: pre; opacity: 1;" transform="translate(513.73,0)">200</text></g></g><g class="yaxislayer-above"><g class="ytick"><text text-anchor="end" x="79" y="4.199999999999999" transform="translate(0,420)" style="font-family: 'Open Sans', verdana, arial, sans-serif; font-size: 12px; fill: rgb(42, 63, 95); fill-opacity: 1; white-space: pre; opacity: 1;">0</text></g><g class="ytick"><text text-anchor="end" x="79" y="4.199999999999999" style="font-family: 'Open Sans', verdana, arial, sans-serif; font-size: 12px; fill: rgb(42, 63, 95); fill-opacity: 1; white-space: pre; opacity: 1;" transform="translate(0,371.37)">1000</text></g><g class="ytick"><text text-anchor="end" x="79" y="4.199999999999999" style="font-family: 'Open Sans', verdana, arial, sans-serif; font-size: 12px; fill: rgb(42, 63, 95); fill-opacity: 1; white-space: pre; opacity: 1;" transform="translate(0,322.73)">2000</text></g><g class="ytick"><text text-anchor="end" x="79" y="4.199999999999999" style="font-family: 'Open Sans', verdana, arial, sans-serif; font-size: 12px; fill: rgb(42, 63, 95); fill-opacity: 1; white-space: pre; opacity: 1;" transform="translate(0,274.1)">3000</text></g><g class="ytick"><text text-anchor="end" x="79" y="4.199999999999999" style="font-family: 'Open Sans', verdana, arial, sans-serif; font-size: 12px; fill: rgb(42, 63, 95); fill-opacity: 1; white-space: pre; opacity: 1;" transform="translate(0,225.45999999999998)">4000</text></g><g class="ytick"><text text-anchor="end" x="79" y="4.199999999999999" style="font-family: 'Open Sans', verdana, arial, sans-serif; font-size: 12px; fill: rgb(42, 63, 95); fill-opacity: 1; white-space: pre; opacity: 1;" transform="translate(0,176.82999999999998)">5000</text></g><g class="ytick"><text text-anchor="end" x="79" y="4.199999999999999" style="font-family: 'Open Sans', verdana, arial, sans-serif; font-size: 12px; fill: rgb(42, 63, 95); fill-opacity: 1; white-space: pre; opacity: 1;" transform="translate(0,128.2)">6000</text></g></g><g class="overaxes-above"/></g></g><g class="polarlayer"/><g class="ternarylayer"/><g class="geolayer"/><g class="funnelarealayer"/><g class="pielayer"/><g class="iciclelayer"/><g class="treemaplayer"/><g class="sunburstlayer"/><g class="glimages"/><defs id="topdefs-e001a8"><g class="clips"/></defs><g class="layer-above"><g class="imagelayer"/><g class="shapelayer"/></g><g class="infolayer"><g class="g-gtitle"><text class="gtitle" x="35" y="50" text-anchor="start" dy="0em" style="font-family: 'Open Sans', verdana, arial, sans-serif; font-size: 17px; fill: rgb(42, 63, 95); opacity: 1; font-weight: normal; white-space: pre;">Rank Variance: ascad_0-ascad_mlp (with early stopping)</text></g><g class="g-xtitle"/><g class="g-ytitle"/></g></svg>