<svg class="main-svg" xmlns="http://www.w3.org/2000/svg" xmlns:xlink="http://www.w3.org/1999/xlink" width="700" height="500" style="" viewBox="0 0 700 500"><rect x="0" y="0" width="700" height="500" style="fill: rgb(255, 255, 255); fill-opacity: 1;"/><defs id="defs-c14a49"><g class="clips"><clipPath id="clipc14a49xyplot" class="plotclip"><rect width="476" height="320"/></clipPath><clipPath class="axesclip" id="clipc14a49x"><rect x="80" y="0" width="476" height="500"/></clipPath><clipPath class="axesclip" id="clipc14a49y"><rect x="0" y="100" width="700" height="320"/></clipPath><clipPath class="axesclip" id="clipc14a49xy"><rect x="80" y="100" width="476" height="320"/></clipPath></g><g class="gradients"/><g class="patterns"/></defs><g class="bglayer"><rect class="bg" x="80" y="100" width="476" height="320" style="fill: rgb(237, 237, 237); fill-opacity: 1; stroke-width: 0;"/></g><g class="layer-below"><g class="imagelayer"/><g class="shapelayer"/></g><g class="cartesianlayer"><g class="subplot xy"><g class="layer-subplot"><g class="shapelayer"/><g class="imagelayer"/></g><g class="gridlayer"><g class="x"><path class="xgrid crisp" transform="translate(319.5,0)" d="M0,100v320" style="stroke: rgb(255, 255, 255); stroke-opacity: 1; stroke-width: 1px;"/></g><g class="y"><path class="ygrid crisp" transform="translate(0,417.57)" d="M80,0h476" style="stroke: rgb(255, 255, 255); stroke-opacity: 1; stroke-width: 1px;"/><path class="ygrid crisp" transform="translate(0,364.28)" d="M80,0h476" style="stroke: rgb(255, 255, 255); stroke-opacity: 1; stroke-width: 1px;"/><path class="ygrid crisp" transform="translate(0,311)" d="M80,0h476" style="stroke: rgb(255, 255, 255); stroke-opacity: 1; stroke-width: 1px;"/><path class="ygrid crisp" transform="translate(0,257.71000000000004)" d="M80,0h476" style="stroke: rgb(255, 255, 255); stroke-opacity: 1; stroke-width: 1px;"/><path class="ygrid crisp" transform="translate(0,204.42000000000002)" d="M80,0h476" style="stroke: rgb(255, 255, 255); stroke-opacity: 1; stroke-width: 1px;"/><path class="ygrid crisp" transform="translate(0,151.14)" d="M80,0h476" style="stroke: rgb(255, 255, 255); stroke-opacity: 1; stroke-width: 1px;"/></g></g><g class="zerolinelayer"/><path class="xlines-below"/><path class="ylines-below"/><g class="overlines-below"/><g class="xaxislayer-below"/><g class="yaxislayer-below"/><g class="overaxes-below"/><g class="plot" transform="translate(80,100)" clip-path="url(#clipc14a49xyplot)"><g class="violinlayer mlayer"><g class="trace violins" style="opacity: 1;"><path class="violin" d="M243.02,304Q245.35,301.28 246.94,300.07C248.84,298.62 251.22,297.34 253.84,296.13C256.99,294.67 260.71,293.42 264.65,292.2C269.24,290.77 274.44,289.52 279.76,288.27C285.63,286.89 292.07,285.63 298.39,284.34C304.93,283.01 311.87,281.74 318.36,280.4C324.55,279.12 330.95,277.9 336.46,276.47C341.18,275.25 346.06,274.14 349.46,272.54C351.92,271.38 354.81,270.16 355.39,268.61C355.83,267.43 355.17,265.84 354.32,264.67C353.19,263.11 350.49,261.98 348.28,260.74C345.8,259.34 342.81,258.12 340.09,256.81C337.39,255.5 334.61,254.23 332.04,252.88C329.61,251.6 327.31,250.28 325.06,248.94C322.89,247.65 320.88,246.31 318.75,245.01C316.59,243.69 314.46,242.36 312.17,241.08C309.75,239.73 307.22,238.43 304.59,237.15C301.8,235.8 298.84,234.5 295.87,233.21C292.8,231.88 289.59,230.59 286.47,229.28C283.37,227.97 280.18,226.69 277.19,225.35C274.33,224.07 271.48,222.78 268.89,221.41C266.5,220.15 264.19,218.87 262.17,217.48C260.35,216.23 258.67,214.93 257.22,213.55C255.9,212.3 254.77,210.97 253.74,209.62C252.77,208.34 251.97,207.01 251.17,205.68C250.38,204.38 249.69,203.06 248.97,201.75C248.25,200.44 247.54,199.13 246.85,197.82C246.16,196.51 245.45,195.21 244.81,193.89C244.17,192.59 243.55,191.27 243.01,189.95C242.48,188.65 242,187.34 241.6,186.02C241.21,184.72 240.89,183.41 240.63,182.09C240.37,180.79 240.2,179.47 240.05,178.16C239.9,176.85 239.82,175.53 239.74,174.22C239.66,172.91 239.63,171.6 239.59,170.29C239.56,168.98 239.54,167.67 239.53,166.36C239.52,165.05 239.52,163.73 239.51,162.42C239.51,161.11 239.5,159.8 239.5,158.49C239.5,157.18 239.5,155.87 239.5,154.56C239.5,153.25 239.5,151.94 239.5,150.63C239.5,149.32 239.5,148 239.5,146.69C239.5,145.38 239.5,144.07 239.5,142.76C239.5,141.45 239.5,140.14 239.5,138.83C239.5,137.52 239.5,136.21 239.5,134.9C239.5,133.59 239.5,132.27 239.5,130.96C239.5,129.65 239.5,128.34 239.51,127.03C239.52,125.72 239.53,124.41 239.54,123.1C239.56,121.79 239.56,120.48 239.6,119.17C239.64,117.86 239.68,116.54 239.76,115.23C239.84,113.92 239.93,112.61 240.09,111.3C240.25,109.99 240.44,108.67 240.7,107.37C240.97,106.05 241.3,104.74 241.69,103.44C242.09,102.12 242.58,100.81 243.08,99.5C243.59,98.18 244.18,96.88 244.73,95.57C245.28,94.26 245.89,92.96 246.36,91.64C246.83,90.34 247.29,89.03 247.56,87.7C247.82,86.4 247.99,85.08 247.98,83.77C247.97,82.46 247.78,81.14 247.5,79.84C247.21,78.52 246.74,77.21 246.26,75.91C245.78,74.59 245.16,73.28 244.61,71.97C244.06,70.66 243.47,69.36 242.97,68.04C242.47,66.74 242,65.43 241.61,64.11Q241.23,62.81 240.65,60.18L238.35,60.18Q237.77,62.81 237.39,64.11C237,65.43 236.53,66.74 236.03,68.04C235.53,69.36 234.94,70.66 234.39,71.97C233.84,73.28 233.22,74.59 232.74,75.91C232.26,77.21 231.79,78.52 231.5,79.84C231.22,81.14 231.03,82.46 231.02,83.77C231.01,85.08 231.18,86.4 231.44,87.7C231.71,89.03 232.17,90.34 232.64,91.64C233.11,92.96 233.72,94.26 234.27,95.57C234.82,96.88 235.41,98.18 235.92,99.5C236.42,100.81 236.91,102.12 237.31,103.44C237.7,104.74 238.03,106.05 238.3,107.37C238.56,108.67 238.75,109.99 238.91,111.3C239.07,112.61 239.16,113.92 239.24,115.23C239.32,116.54 239.36,117.86 239.4,119.17C239.44,120.48 239.44,121.79 239.46,123.1C239.47,124.41 239.48,125.72 239.49,127.03C239.5,128.34 239.5,129.65 239.5,130.96C239.5,132.27 239.5,133.59 239.5,134.9C239.5,136.21 239.5,137.52 239.5,138.83C239.5,140.14 239.5,141.45 239.5,142.76C239.5,144.07 239.5,145.38 239.5,146.69C239.5,148 239.5,149.32 239.5,150.63C239.5,151.94 239.5,153.25 239.5,154.56C239.5,155.87 239.5,157.18 239.5,158.49C239.5,159.8 239.49,161.11 239.49,162.42C239.48,163.73 239.48,165.05 239.47,166.36C239.46,167.67 239.44,168.98 239.41,170.29C239.37,171.6 239.34,172.91 239.26,174.22C239.18,175.53 239.1,176.85 238.95,178.16C238.8,179.47 238.63,180.79 238.37,182.09C238.11,183.41 237.79,184.72 237.4,186.02C237,187.34 236.52,188.65 235.99,189.95C235.45,191.27 234.83,192.59 234.19,193.89C233.55,195.21 232.84,196.51 232.15,197.82C231.46,199.13 230.75,200.44 230.03,201.75C229.31,203.06 228.62,204.38 227.83,205.68C227.03,207.01 226.23,208.34 225.26,209.62C224.23,210.97 223.1,212.3 221.78,213.55C220.33,214.93 218.65,216.23 216.83,217.48C214.81,218.87 212.5,220.15 210.11,221.41C207.52,222.78 204.67,224.07 201.81,225.35C198.82,226.69 195.63,227.97 192.53,229.28C189.41,230.59 186.2,231.88 183.13,233.21C180.16,234.5 177.2,235.8 174.41,237.15C171.78,238.43 169.25,239.73 166.83,241.08C164.54,242.36 162.41,243.69 160.25,245.01C158.12,246.31 156.11,247.65 153.94,248.94C151.69,250.28 149.39,251.6 146.96,252.88C144.39,254.23 141.61,255.5 138.91,256.81C136.19,258.12 133.2,259.34 130.72,260.74C128.51,261.98 125.81,263.11 124.68,264.67C123.83,265.84 123.18,267.43 123.62,268.61C124.21,270.16 127.08,271.38 129.54,272.54C132.94,274.14 137.82,275.25 142.54,276.47C148.05,277.9 154.45,279.12 160.64,280.4C167.13,281.74 174.07,283.01 180.61,284.34C186.93,285.63 193.37,286.89 199.24,288.27C204.56,289.52 209.76,290.77 214.35,292.2C218.29,293.42 222.01,294.67 225.16,296.13C227.78,297.34 230.16,298.62 232.06,300.07Q233.65,301.28 235.98,304Z" style="vector-effect: non-scaling-stroke; stroke-width: 2px; stroke: rgb(99, 110, 250); stroke-opacity: 1; fill: rgb(99, 110, 250); fill-opacity: 0.5;"/><g class="points"><path class="point" transform="translate(80.4,280.27)" d="M3,0A3,3 0 1,1 0,-3A3,3 0 0,1 3,0Z" style="opacity: 1; stroke-width: 0px; fill: rgb(99, 110, 250); fill-opacity: 1;"/><path class="point" transform="translate(47.05,276.54)" d="M3,0A3,3 0 1,1 0,-3A3,3 0 0,1 3,0Z" style="opacity: 1; stroke-width: 0px; fill: rgb(99, 110, 250); fill-opacity: 1;"/><path class="point" transform="translate(86.7,274.94)" d="M3,0A3,3 0 1,1 0,-3A3,3 0 0,1 3,0Z" style="opacity: 1; stroke-width: 0px; fill: rgb(99, 110, 250); fill-opacity: 1;"/><path class="point" transform="translate(41.41,273.87)" d="M3,0A3,3 0 1,1 0,-3A3,3 0 0,1 3,0Z" style="opacity: 1; stroke-width: 0px; fill: rgb(99, 110, 250); fill-opacity: 1;"/><path class="point" transform="translate(58.33,272.54)" d="M3,0A3,3 0 1,1 0,-3A3,3 0 0,1 3,0Z" style="opacity: 1; stroke-width: 0px; fill: rgb(99, 110, 250); fill-opacity: 1;"/><path class="point" transform="translate(81.1,272.28)" d="M3,0A3,3 0 1,1 0,-3A3,3 0 0,1 3,0Z" style="opacity: 1; stroke-width: 0px; fill: rgb(99, 110, 250); fill-opacity: 1;"/><path class="point" transform="translate(64.45,271.21)" d="M3,0A3,3 0 1,1 0,-3A3,3 0 0,1 3,0Z" style="opacity: 1; stroke-width: 0px; fill: rgb(99, 110, 250); fill-opacity: 1;"/><path class="point" transform="translate(75.75,268.01)" d="M3,0A3,3 0 1,1 0,-3A3,3 0 0,1 3,0Z" style="opacity: 1; stroke-width: 0px; fill: rgb(99, 110, 250); fill-opacity: 1;"/><path class="point" transform="translate(56.04,267.75)" d="M3,0A3,3 0 1,1 0,-3A3,3 0 0,1 3,0Z" style="opacity: 1; stroke-width: 0px; fill: rgb(99, 110, 250); fill-opacity: 1;"/><path class="point" transform="translate(48.68,267.21)" d="M3,0A3,3 0 1,1 0,-3A3,3 0 0,1 3,0Z" style="opacity: 1; stroke-width: 0px; fill: rgb(99, 110, 250); fill-opacity: 1;"/><path class="point" transform="translate(71.87,265.35)" d="M3,0A3,3 0 1,1 0,-3A3,3 0 0,1 3,0Z" style="opacity: 1; stroke-width: 0px; fill: rgb(99, 110, 250); fill-opacity: 1;"/><path class="point" transform="translate(58.09,264.55)" d="M3,0A3,3 0 1,1 0,-3A3,3 0 0,1 3,0Z" style="opacity: 1; stroke-width: 0px; fill: rgb(99, 110, 250); fill-opacity: 1;"/><path class="point" transform="translate(80.88,264.28)" d="M3,0A3,3 0 1,1 0,-3A3,3 0 0,1 3,0Z" style="opacity: 1; stroke-width: 0px; fill: rgb(99, 110, 250); fill-opacity: 1;"/><path class="point" transform="translate(43.48,259.75)" d="M3,0A3,3 0 1,1 0,-3A3,3 0 0,1 3,0Z" style="opacity: 1; stroke-width: 0px; fill: rgb(99, 110, 250); fill-opacity: 1;"/><path class="point" transform="translate(52.62,248.56)" d="M3,0A3,3 0 1,1 0,-3A3,3 0 0,1 3,0Z" style="opacity: 1; stroke-width: 0px; fill: rgb(99, 110, 250); fill-opacity: 1;"/><path class="point" transform="translate(83.14,248.3)" d="M3,0A3,3 0 1,1 0,-3A3,3 0 0,1 3,0Z" style="opacity: 1; stroke-width: 0px; fill: rgb(99, 110, 250); fill-opacity: 1;"/><path class="point" transform="translate(60.78,246.96)" d="M3,0A3,3 0 1,1 0,-3A3,3 0 0,1 3,0Z" style="opacity: 1; stroke-width: 0px; fill: rgb(99, 110, 250); fill-opacity: 1;"/><path class="point" transform="translate(49.43,245.63)" d="M3,0A3,3 0 1,1 0,-3A3,3 0 0,1 3,0Z" style="opacity: 1; stroke-width: 0px; fill: rgb(99, 110, 250); fill-opacity: 1;"/><path class="point" transform="translate(60.56,242.97)" d="M3,0A3,3 0 1,1 0,-3A3,3 0 0,1 3,0Z" style="opacity: 1; stroke-width: 0px; fill: rgb(99, 110, 250); fill-opacity: 1;"/><path class="point" transform="translate(65.48,241.9)" d="M3,0A3,3 0 1,1 0,-3A3,3 0 0,1 3,0Z" style="opacity: 1; stroke-width: 0px; fill: rgb(99, 110, 250); fill-opacity: 1;"/><path class="point" transform="translate(69.45,232.31)" d="M3,0A3,3 0 1,1 0,-3A3,3 0 0,1 3,0Z" style="opacity: 1; stroke-width: 0px; fill: rgb(99, 110, 250); fill-opacity: 1;"/><path class="point" transform="translate(66.56,230.71)" d="M3,0A3,3 0 1,1 0,-3A3,3 0 0,1 3,0Z" style="opacity: 1; stroke-width: 0px; fill: rgb(99, 110, 250); fill-opacity: 1;"/><path class="point" transform="translate(63.57,228.31)" d="M3,0A3,3 0 1,1 0,-3A3,3 0 0,1 3,0Z" style="opacity: 1; stroke-width: 0px; fill: rgb(99, 110, 250); fill-opacity: 1;"/><path class="point" transform="translate(59.85,205.93)" d="M3,0A3,3 0 1,1 0,-3A3,3 0 0,1 3,0Z" style="opacity: 1; stroke-width: 0px; fill: rgb(99, 110, 250); fill-opacity: 1;"/><path class="point" transform="translate(65.65,83.91)" d="M3,0A3,3 0 1,1 0,-3A3,3 0 0,1 3,0Z" style="opacity: 1; stroke-width: 0px; fill: rgb(99, 110, 250); fill-opacity: 1;"/></g></g></g></g><g class="overplot"/><path class="xlines-above crisp" d="" style="fill: none; stroke-width: 1px; stroke: rgb(0, 0, 0); stroke-opacity: 0;"/><path class="ylines-above crisp" d="" style="fill: none; stroke-width: 1px; stroke: rgb(0, 0, 0); stroke-opacity: 0;"/><g class="overlines-above"/><g class="xaxislayer-above"><path class="xtick ticks crisp" d="M0,421v5" transform="translate(319.5,0)" style="stroke: rgb(51, 51, 51); stroke-opacity: 1; stroke-width: 1px;"/><g class="xtick"><text text-anchor="middle" x="0" y="440.4" transform="translate(319.5,0)" style="font-family: 'Open Sans', verdana, arial, sans-serif; font-size: 12px; fill: rgb(51, 51, 51); fill-opacity: 1; white-space: pre; opacity: 1;">s_eff_cnn_id</text></g></g><g class="yaxislayer-above"><path class="ytick ticks crisp" d="M79,0h-5" transform="translate(0,417.57)" style="stroke: rgb(51, 51, 51); stroke-opacity: 1; stroke-width: 1px;"/><path class="ytick ticks crisp" d="M79,0h-5" transform="translate(0,364.28)" style="stroke: rgb(51, 51, 51); stroke-opacity: 1; stroke-width: 1px;"/><path class="ytick ticks crisp" d="M79,0h-5" transform="translate(0,311)" style="stroke: rgb(51, 51, 51); stroke-opacity: 1; stroke-width: 1px;"/><path class="ytick ticks crisp" d="M79,0h-5" transform="translate(0,257.71000000000004)" style="stroke: rgb(51, 51, 51); stroke-opacity: 1; stroke-width: 1px;"/><path class="ytick ticks crisp" d="M79,0h-5" transform="translate(0,204.42000000000002)" style="stroke: rgb(51, 51, 51); stroke-opacity: 1; stroke-width: 1px;"/><path class="ytick ticks crisp" d="M79,0h-5" transform="translate(0,151.14)" style="stroke: rgb(51, 51, 51); stroke-opacity: 1; stroke-width: 1px;"/><g class="ytick"><text text-anchor="end" x="71.6" y="4.199999999999999" transform="translate(0,417.57)" style="font-family: 'Open Sans', verdana, arial, sans-serif; font-size: 12px; fill: rgb(51, 51, 51); fill-opacity: 1; white-space: pre; opacity: 1;">200</text></g><g class="ytick"><text text-anchor="end" x="71.6" y="4.199999999999999" style="font-family: 'Open Sans', verdana, arial, sans-serif; font-size: 12px; fill: rgb(51, 51, 51); fill-opacity: 1; white-space: pre; opacity: 1;" transform="translate(0,364.28)">400</text></g><g class="ytick"><text text-anchor="end" x="71.6" y="4.199999999999999" style="font-family: 'Open Sans', verdana, arial, sans-serif; font-size: 12px; fill: rgb(51, 51, 51); fill-opacity: 1; white-space: pre; opacity: 1;" transform="translate(0,311)">600</text></g><g class="ytick"><text text-anchor="end" x="71.6" y="4.199999999999999" style="font-family: 'Open Sans', verdana, arial, sans-serif; font-size: 12px; fill: rgb(51, 51, 51); fill-opacity: 1; white-space: pre; opacity: 1;" transform="translate(0,257.71000000000004)">800</text></g><g class="ytick"><text text-anchor="end" x="71.6" y="4.199999999999999" style="font-family: 'Open Sans', verdana, arial, sans-serif; font-size: 12px; fill: rgb(51, 51, 51); fill-opacity: 1; white-space: pre; opacity: 1;" transform="translate(0,204.42000000000002)">1000</text></g><g class="ytick"><text text-anchor="end" x="71.6" y="4.199999999999999" style="font-family: 'Open Sans', verdana, arial, sans-serif; font-size: 12px; fill: rgb(51, 51, 51); fill-opacity: 1; white-space: pre; opacity: 1;" transform="translate(0,151.14)">1200</text></g></g><g class="overaxes-above"/></g></g><g class="polarlayer"/><g class="ternarylayer"/><g class="geolayer"/><g class="funnelarealayer"/><g class="pielayer"/><g class="iciclelayer"/><g class="treemaplayer"/><g class="sunburstlayer"/><g class="glimages"/><defs id="topdefs-c14a49"><g class="clips"/><clipPath id="legendc14a49"><rect width="122" height="48" x="0" y="0"/></clipPath></defs><g class="layer-above"><g class="imagelayer"/><g class="shapelayer"/></g><g class="infolayer"><g class="legend" pointer-events="all" transform="translate(565.52,100)"><rect class="bg" shape-rendering="crispEdges" width="122" height="48" x="0" y="0" style="stroke: rgb(68, 68, 68); stroke-opacity: 1; fill: rgb(255, 255, 255); fill-opacity: 1; stroke-width: 0px;"/><g class="scrollbox" transform="" clip-path="url(#legendc14a49)"><text class="legendtitletext" text-anchor="start" x="2" y="18.2" style="font-family: 'Open Sans', verdana, arial, sans-serif; font-size: 14px; fill: rgb(51, 51, 51); fill-opacity: 1; white-space: pre;">model</text><g class="groups" transform=""><g class="traces" transform="translate(0,32.7)" style="opacity: 1;"><text class="legendtext" text-anchor="start" x="40" y="4.680000000000001" style="font-family: 'Open Sans', verdana, arial, sans-serif; font-size: 12px; fill: rgb(51, 51, 51); fill-opacity: 1; white-space: pre;">s_eff_cnn_id</text><g class="layers" style="opacity: 1;"><g class="legendfill"/><g class="legendlines"/><g class="legendsymbols"><g class="legendpoints"><path class="legendbox" d="M6,6H-6V-6H6Z" transform="translate(20,0)" style="stroke-width: 2px; fill: rgb(99, 110, 250); fill-opacity: 0.5; stroke: rgb(99, 110, 250); stroke-opacity: 1;"/></g></g></g><rect class="legendtoggle" x="0" y="-9.5" width="116.9375" height="19" style="fill: rgb(0, 0, 0); fill-opacity: 0;"/></g></g></g><rect class="scrollbar" rx="20" ry="3" width="0" height="0" x="0" y="0" style="fill: rgb(128, 139, 164); fill-opacity: 1;"/></g><g class="g-gtitle"><text class="gtitle" x="350" y="50" text-anchor="middle" dy="0em" style="font-family: 'Open Sans', verdana, arial, sans-serif; font-size: 17px; fill: rgb(51, 51, 51); opacity: 1; font-weight: normal; white-space: pre;">Distribution of min traces needed for average rank to be zero</text></g><g class="g-xtitle"><text class="xtitle" x="318" y="468.20625" text-anchor="middle" style="font-family: 'Open Sans', verdana, arial, sans-serif; font-size: 14px; fill: rgb(51, 51, 51); opacity: 1; font-weight: normal; white-space: pre;">model</text></g><g class="g-ytitle"><text class="ytitle" transform="rotate(-90,16.278125000000003,260)" x="16.278125000000003" y="260" text-anchor="middle" style="font-family: 'Open Sans', verdana, arial, sans-serif; font-size: 14px; fill: rgb(51, 51, 51); opacity: 1; font-weight: normal; white-space: pre;">min traces needed for average rank to be zero</text></g><g class="annotation" data-index="0" style="opacity: 1;"><g class="annotation-text-g" transform="rotate(0,319.5,125)"><g class="cursor-pointer" transform="translate(269,100)"><rect class="bg" x="0.5" y="0.5" width="100" height="49" style="stroke-width: 1px; stroke: rgb(255, 0, 0); stroke-opacity: 1; fill: rgb(255, 192, 203); fill-opacity: 1;"/><text class="annotation-text" text-anchor="middle" x="50.65625" y="14" style="font-family: 'Open Sans', verdana, arial, sans-serif; font-size: 12px; fill: rgb(51, 51, 51); fill-opacity: 1; white-space: pre;"><tspan class="line" dy="0em" x="50.65625" y="14"> 50.00 % failed </tspan><tspan class="line" dy="1.3em" x="50.65625" y="14">min: 340.0</tspan><tspan class="line" dy="2.6em" x="50.65625" y="14">max: 1077.0</tspan></text></g></g></g></g></svg>