<svg class="main-svg" xmlns="http://www.w3.org/2000/svg" xmlns:xlink="http://www.w3.org/1999/xlink" width="700" height="500" style="" viewBox="0 0 700 500"><rect x="0" y="0" width="700" height="500" style="fill: rgb(255, 255, 255); fill-opacity: 1;"/><defs id="defs-f16353"><g class="clips"><clipPath id="clipf16353xyplot" class="plotclip"><rect width="540" height="320"/></clipPath><clipPath class="axesclip" id="clipf16353x"><rect x="80" y="0" width="540" height="500"/></clipPath><clipPath class="axesclip" id="clipf16353y"><rect x="0" y="100" width="700" height="320"/></clipPath><clipPath class="axesclip" id="clipf16353xy"><rect x="80" y="100" width="540" height="320"/></clipPath></g><g class="gradients"/><g class="patterns"/></defs><g class="bglayer"><rect class="bg" x="80" y="100" width="540" height="320" style="fill: rgb(229, 236, 246); fill-opacity: 1; stroke-width: 0;"/></g><g class="layer-below"><g class="imagelayer"/><g class="shapelayer"/></g><g class="cartesianlayer"><g class="subplot xy"><g class="layer-subplot"><g class="shapelayer"/><g class="imagelayer"/></g><g class="gridlayer"><g class="x"><path class="xgrid crisp" transform="translate(190.2,0)" d="M0,100v320" style="stroke: rgb(255, 255, 255); stroke-opacity: 1; stroke-width: 1px;"/><path class="xgrid crisp" transform="translate(300.40999999999997,0)" d="M0,100v320" style="stroke: rgb(255, 255, 255); stroke-opacity: 1; stroke-width: 1px;"/><path class="xgrid crisp" transform="translate(410.61,0)" d="M0,100v320" style="stroke: rgb(255, 255, 255); stroke-opacity: 1; stroke-width: 1px;"/><path class="xgrid crisp" transform="translate(520.8199999999999,0)" d="M0,100v320" style="stroke: rgb(255, 255, 255); stroke-opacity: 1; stroke-width: 1px;"/></g><g class="y"><path class="ygrid crisp" transform="translate(0,344.05)" d="M80,0h540" style="stroke: rgb(255, 255, 255); stroke-opacity: 1; stroke-width: 1px;"/><path class="ygrid crisp" transform="translate(0,265.81)" d="M80,0h540" style="stroke: rgb(255, 255, 255); stroke-opacity: 1; stroke-width: 1px;"/><path class="ygrid crisp" transform="translate(0,187.57)" d="M80,0h540" style="stroke: rgb(255, 255, 255); stroke-opacity: 1; stroke-width: 1px;"/><path class="ygrid crisp" transform="translate(0,109.33)" d="M80,0h540" style="stroke: rgb(255, 255, 255); stroke-opacity: 1; stroke-width: 1px;"/></g></g><g class="zerolinelayer"><path class="xzl zl crisp" transform="translate(80,0)" d="M0,100v320" style="stroke: rgb(255, 255, 255); stroke-opacity: 1; stroke-width: 2px;"/></g><path class="xlines-below"/><path class="ylines-below"/><g class="overlines-below"/><g class="xaxislayer-below"/><g class="yaxislayer-below"/><g class="overaxes-below"/><g class="plot" transform="translate(80,100)" clip-path="url(#clipf16353xyplot)"><g class="scatterlayer mlayer"><g class="trace scatter trace5e3e96" style="stroke-miterlimit: 2; opacity: 1;"><g class="fills"/><g class="errorbars"/><g class="lines"><path class="js-line" d="M0,0.2L11.02,5.81L22.04,16.59L44.08,59.25L55.1,76.9L77.14,109.51L88.16,124.1L99.18,137.51L110.2,148.97L121.22,158.62L132.24,167.06L143.27,174.92L154.29,181.55L176.33,192.4L187.35,197.18L209.39,206.17L220.41,209.72L253.47,219.94L264.49,223.17L341.63,240.52L352.65,242.54L374.69,246.73L385.71,248.61L429.8,255.67L440.82,256.93L462.86,260.16L473.88,261.88L506.94,265.54L517.96,267.83L540,270.11" style="vector-effect: non-scaling-stroke; fill: none; stroke: rgb(99, 110, 250); stroke-opacity: 1; stroke-width: 2px; opacity: 1;"/></g><g class="points"/><g class="text"/></g><g class="trace scatter trace3d4abe" style="stroke-miterlimit: 2; opacity: 1;"><g class="fills"/><g class="errorbars"/><g class="lines"><path class="js-line" d="M0,1.45L11.02,8.39L22.04,25.42L33.06,51.49L44.08,71.73L88.16,128.51L99.18,141.38L110.2,153.04L121.22,163.13L132.24,172.44L143.27,180.23L165.31,193.28L176.33,198.71L187.35,203.86L198.37,208.03L220.41,216.43L231.43,219.83L264.49,229.8L275.51,232.67L330.61,245.33L341.63,247.39L352.65,249.27L363.67,251.93L462.86,268.31L473.88,269.93L495.92,272.25L506.94,273.81L540,278.08" style="vector-effect: non-scaling-stroke; fill: none; stroke: rgb(239, 85, 59); stroke-opacity: 1; stroke-width: 2px; opacity: 1;"/></g><g class="points"/><g class="text"/></g><g class="trace scatter traceab6c7b" style="stroke-miterlimit: 2; opacity: 1;"><g class="fills"/><g class="errorbars"/><g class="lines"><path class="js-line" d="M0,0.2L11.02,5.87L22.04,16.85L44.08,59.45L55.1,76.54L77.14,107.41L88.16,121.5L99.18,135.03L110.2,146.42L121.22,156.37L132.24,164.76L143.27,172.69L154.29,179.12L165.31,185.18L176.33,190.19L198.37,199.54L209.39,203.8L242.45,214.67L253.47,217.49L275.51,223.2L286.53,225.69L308.57,231.24L319.59,233.73L341.63,237.78L352.65,239.63L374.69,244.32L385.71,245.86L407.76,249.89L418.78,251.48L484.9,260.96L495.92,262.42L528.98,266.84L540,268.13" style="vector-effect: non-scaling-stroke; fill: none; stroke: rgb(0, 204, 150); stroke-opacity: 1; stroke-width: 2px; opacity: 1;"/></g><g class="points"/><g class="text"/></g><g class="trace scatter trace7cec2d" style="stroke-miterlimit: 2; opacity: 1;"><g class="fills"/><g class="errorbars"/><g class="lines"><path class="js-line" d="M0,1.47L11.02,8.33L22.04,25.36L33.06,51.4L44.08,71.73L88.16,128.75L99.18,141.62L110.2,153.26L121.22,163.32L132.24,172.64L143.27,180.38L165.31,193.41L176.33,198.82L187.35,203.96L198.37,208.13L220.41,216.55L231.43,219.94L264.49,229.92L275.51,232.76L330.61,245.4L341.63,247.3L407.76,259.84L418.78,261.16L451.84,266.67L462.86,268.42L484.9,270.98L495.92,272.29L540,278.13" style="vector-effect: non-scaling-stroke; fill: none; stroke: rgb(171, 99, 250); stroke-opacity: 1; stroke-width: 2px; opacity: 1;"/></g><g class="points"/><g class="text"/></g><g class="trace scatter trace2f62bb" style="stroke-miterlimit: 2; opacity: 1;"><g class="fills"/><g class="errorbars"/><g class="lines"><path class="js-line" d="M0,1.45L11.02,8.38L22.04,25.32L33.06,51.33L44.08,71.57L88.16,128.13L99.18,141.03L110.2,152.72L121.22,162.87L132.24,172.14L143.27,179.99L165.31,193.09L176.33,198.55L187.35,203.71L198.37,207.92L220.41,216.31L231.43,219.71L264.49,229.71L275.51,232.54L330.61,245.23L341.63,247.33L352.65,249.14L363.67,251.78L462.86,268.22L473.88,269.83L506.94,273.64L517.96,274.95L540,277.95" style="vector-effect: non-scaling-stroke; fill: none; stroke: rgb(255, 161, 90); stroke-opacity: 1; stroke-width: 2px; opacity: 1;"/></g><g class="points"/><g class="text"/></g><g class="trace scatter tracebfbf7e" style="stroke-miterlimit: 2; opacity: 1;"><g class="fills"/><g class="errorbars"/><g class="lines"><path class="js-line" d="M0,0.18L11.02,5.85L22.04,16.83L44.08,59.53L55.1,76.72L77.14,108.07L88.16,122.22L99.18,135.68L110.2,147.06L121.22,156.97L132.24,165.29L143.27,173.19L154.29,179.79L165.31,185.78L176.33,190.74L198.37,200.19L209.39,204.36L242.45,215.3L253.47,218.06L264.49,221.29L275.51,223.73L297.55,229.42L308.57,231.95L341.63,238.33L352.65,239.94L363.67,242.87L374.69,244.95L484.9,261.43L495.92,262.51L506.94,264.81L517.96,266.16L540,268.79" style="vector-effect: non-scaling-stroke; fill: none; stroke: rgb(25, 211, 243); stroke-opacity: 1; stroke-width: 2px; opacity: 1;"/></g><g class="points"/><g class="text"/></g><g class="trace scatter tracecd87f9" style="stroke-miterlimit: 2; opacity: 1;"><g class="fills"/><g class="errorbars"/><g class="lines"><path class="js-line" d="M0,1.45L11.02,8.38L22.04,25.31L33.06,51.32L44.08,71.56L88.16,128.02L99.18,140.91L110.2,152.62L121.22,162.76L132.24,172.06L143.27,179.92L165.31,193.04L176.33,198.49L187.35,203.66L198.37,207.88L220.41,216.27L231.43,219.68L264.49,229.68L275.51,232.51L330.61,245.19L341.63,247.27L396.73,257.17L407.76,259.55L429.8,262.9L440.82,264.8L484.9,270.85L495.92,272.13L540,277.98" style="vector-effect: non-scaling-stroke; fill: none; stroke: rgb(255, 102, 146); stroke-opacity: 1; stroke-width: 2px; opacity: 1;"/></g><g class="points"/><g class="text"/></g><g class="trace scatter trace377ac7" style="stroke-miterlimit: 2; opacity: 1;"><g class="fills"/><g class="errorbars"/><g class="lines"><path class="js-line" d="M0,0.18L11.02,5.72L22.04,16.5L44.08,58.93L55.1,76.06L77.14,106.92L88.16,120.95L99.18,134.53L110.2,145.95L121.22,155.97L132.24,164.36L143.27,172.29L154.29,178.8L165.31,184.87L176.33,189.83L198.37,199.24L209.39,203.5L242.45,214.38L253.47,217.22L275.51,222.9L286.53,225.38L308.57,230.99L319.59,233.52L374.69,244.16L385.71,245.7L407.76,249.74L418.78,251.28L451.84,255.97L462.86,257.41L484.9,260.83L495.92,262.26L528.98,266.68L540,268" style="vector-effect: non-scaling-stroke; fill: none; stroke: rgb(182, 232, 128); stroke-opacity: 1; stroke-width: 2px; opacity: 1;"/></g><g class="points"/><g class="text"/></g><g class="trace scatter trace44f20e" style="stroke-miterlimit: 2; opacity: 1;"><g class="fills"/><g class="errorbars"/><g class="lines"><path class="js-line" d="M0,1.46L11.02,8.39L22.04,25.62L33.06,51.64L44.08,71.92L88.16,129.03L99.18,141.92L110.2,153.52L121.22,163.53L132.24,172.81L143.27,180.55L165.31,193.53L176.33,198.94L187.35,204.06L198.37,208.23L220.41,216.61L231.43,219.96L264.49,229.93L275.51,232.8L330.61,245.45L341.63,247.55L352.65,249.4L363.67,252.04L451.84,266.72L462.86,268.45L484.9,271.01L495.92,272.34L540,278.15" style="vector-effect: non-scaling-stroke; fill: none; stroke: rgb(255, 151, 255); stroke-opacity: 1; stroke-width: 2px; opacity: 1;"/></g><g class="points"/><g class="text"/></g><g class="trace scatter trace09791d" style="stroke-miterlimit: 2; opacity: 1;"><g class="fills"/><g class="errorbars"/><g class="lines"><path class="js-line" d="M0,1.45L11.02,8.36L22.04,25.22L33.06,51.2L44.08,71.47L88.16,127.98L99.18,140.89L110.2,152.59L121.22,162.71L132.24,172.04L143.27,179.91L165.31,193.02L176.33,198.48L187.35,203.65L198.37,207.86L220.41,216.27L231.43,219.67L264.49,229.67L275.51,232.53L330.61,245.18L341.63,247.21L440.82,264.79L451.84,266.45L473.88,269.79L484.9,270.84L540,277.97" style="vector-effect: non-scaling-stroke; fill: none; stroke: rgb(254, 203, 82); stroke-opacity: 1; stroke-width: 2px; opacity: 1;"/></g><g class="points"/><g class="text"/></g><g class="trace scatter traceaae2b9" style="stroke-miterlimit: 2; opacity: 1;"><g class="fills"/><g class="errorbars"/><g class="lines"><path class="js-line" d="M0,1.46L11.02,8.38L22.04,25.54L33.06,51.53L44.08,71.69L88.16,127.94L99.18,140.81L110.2,152.52L121.22,162.71L132.24,172.04L143.27,179.85L165.31,193.02L176.33,198.46L187.35,203.65L198.37,207.87L220.41,216.32L231.43,219.74L264.49,229.72L275.51,232.59L330.61,245.24L341.63,247.18L440.82,264.85L451.84,266.51L473.88,269.85L484.9,270.85L540,278.07" style="vector-effect: non-scaling-stroke; fill: none; stroke: rgb(99, 110, 250); stroke-opacity: 1; stroke-width: 2px; opacity: 1;"/></g><g class="points"/><g class="text"/></g><g class="trace scatter trace0e95bf" style="stroke-miterlimit: 2; opacity: 1;"><g class="fills"/><g class="errorbars"/><g class="lines"><path class="js-line" d="M0,1.44L11.02,8.38L22.04,25.36L33.06,51.36L44.08,71.69L88.16,128.72L99.18,141.61L110.2,153.23L121.22,163.27L132.24,172.54L143.27,180.35L165.31,193.36L176.33,198.79L187.35,203.94L198.37,208.11L220.41,216.5L231.43,219.86L264.49,229.82L275.51,232.72L330.61,245.35L341.63,247.46L352.65,249.29L363.67,251.94L462.86,268.3L473.88,269.94L495.92,272.29L506.94,273.8L540,278.06" style="vector-effect: non-scaling-stroke; fill: none; stroke: rgb(239, 85, 59); stroke-opacity: 1; stroke-width: 2px; opacity: 1;"/></g><g class="points"/><g class="text"/></g><g class="trace scatter trace7c9b6e" style="stroke-miterlimit: 2; opacity: 1;"><g class="fills"/><g class="errorbars"/><g class="lines"><path class="js-line" d="M0,1.45L11.02,8.37L22.04,25.32L33.06,51.34L44.08,71.58L88.16,128.13L99.18,141.03L110.2,152.72L121.22,162.87L132.24,172.14L143.27,179.99L165.31,193.09L176.33,198.55L187.35,203.71L198.37,207.91L220.41,216.31L231.43,219.72L264.49,229.71L275.51,232.57L330.61,245.23L341.63,247.34L352.65,249.12L363.67,251.78L462.86,268.22L473.88,269.82L506.94,273.6L517.96,274.97L540,277.98" style="vector-effect: non-scaling-stroke; fill: none; stroke: rgb(0, 204, 150); stroke-opacity: 1; stroke-width: 2px; opacity: 1;"/></g><g class="points"/><g class="text"/></g><g class="trace scatter trace956ea2" style="stroke-miterlimit: 2; opacity: 1;"><g class="fills"/><g class="errorbars"/><g class="lines"><path class="js-line" d="M0,1.45L11.02,8.36L22.04,25.28L33.06,51.29L44.08,71.54L88.16,128.05L99.18,140.96L110.2,152.65L121.22,162.82L132.24,172.09L143.27,179.95L165.31,193.06L176.33,198.52L187.35,203.69L198.37,207.89L220.41,216.3L231.43,219.72L264.49,229.7L275.51,232.55L330.61,245.21L341.63,247.23L396.73,257.15L407.76,259.5L429.8,262.9L440.82,264.79L484.9,270.84L495.92,272.02L540,277.95" style="vector-effect: non-scaling-stroke; fill: none; stroke: rgb(171, 99, 250); stroke-opacity: 1; stroke-width: 2px; opacity: 1;"/></g><g class="points"/><g class="text"/></g><g class="trace scatter tracedb1f24" style="stroke-miterlimit: 2; opacity: 1;"><g class="fills"/><g class="errorbars"/><g class="lines"><path class="js-line" d="M0,1.44L11.02,8.45L22.04,25.32L33.06,51.39L44.08,71.7L88.16,128.52L99.18,141.37L110.2,153.04L121.22,163.08L132.24,172.37L143.27,180.2L165.31,193.25L176.33,198.69L187.35,203.84L198.37,208.02L220.41,216.41L231.43,219.8L264.49,229.78L275.51,232.64L330.61,245.32L341.63,247.42L352.65,249.24L363.67,251.89L462.86,268.27L473.88,269.91L495.92,272.26L506.94,273.78L540,277.99" style="vector-effect: non-scaling-stroke; fill: none; stroke: rgb(255, 161, 90); stroke-opacity: 1; stroke-width: 2px; opacity: 1;"/></g><g class="points"/><g class="text"/></g><g class="trace scatter trace5f0bdc" style="stroke-miterlimit: 2; opacity: 1;"><g class="fills"/><g class="errorbars"/><g class="lines"><path class="js-line" d="M0,1.45L11.02,8.36L22.04,25.23L33.06,51.2L44.08,71.48L88.16,128.01L99.18,140.91L110.2,152.61L121.22,162.73L132.24,172.12L143.27,179.94L165.31,193.05L176.33,198.5L187.35,203.67L198.37,207.87L220.41,216.27L231.43,219.71L264.49,229.7L275.51,232.53L330.61,245.21L341.63,247.26L396.73,257.19L407.76,259.59L429.8,262.91L440.82,264.81L484.9,270.86L495.92,272.17L540,277.97" style="vector-effect: non-scaling-stroke; fill: none; stroke: rgb(25, 211, 243); stroke-opacity: 1; stroke-width: 2px; opacity: 1;"/></g><g class="points"/><g class="text"/></g><g class="trace scatter trace58c3f1" style="stroke-miterlimit: 2; opacity: 1;"><g class="fills"/><g class="errorbars"/><g class="lines"><path class="js-line" d="M0,1.51L11.02,8.19L22.04,25.17L33.06,51.01L44.08,71.13L88.16,126.11L99.18,139L110.2,150.83L121.22,161.18L132.24,170.74L143.27,178.69L165.31,192.1L176.33,197.63L187.35,202.9L198.37,207.17L220.41,215.69L231.43,219.17L264.49,229.2L275.51,232.11L330.61,244.71L341.63,246.85L352.65,248.67L363.67,251.33L473.88,269.42L484.9,270.49L506.94,273.17L517.96,274.73L540,277.73" style="vector-effect: non-scaling-stroke; fill: none; stroke: rgb(255, 102, 146); stroke-opacity: 1; stroke-width: 2px; opacity: 1;"/></g><g class="points"/><g class="text"/></g><g class="trace scatter trace69b568" style="stroke-miterlimit: 2; opacity: 1;"><g class="fills"/><g class="errorbars"/><g class="lines"><path class="js-line" d="M0,1.53L11.02,8.51L22.04,25.45L33.06,51.43L44.08,71.39L99.18,138.41L110.2,150.29L132.24,170.22L143.27,178.28L165.31,191.77L176.33,197.33L187.35,202.67L198.37,207.01L220.41,215.57L231.43,219.05L264.49,229.17L275.51,232.04L330.61,244.7L341.63,246.69L374.69,253.06L385.71,254.52L407.76,258.93L418.78,260.27L451.84,265.67L462.86,267.45L484.9,270.24L495.92,271.31L528.98,276.29L540,277.58" style="vector-effect: non-scaling-stroke; fill: none; stroke: rgb(182, 232, 128); stroke-opacity: 1; stroke-width: 2px; opacity: 1;"/></g><g class="points"/><g class="text"/></g><g class="trace scatter trace196c72" style="stroke-miterlimit: 2; opacity: 1;"><g class="fills"/><g class="errorbars"/><g class="lines"><path class="js-line" d="M0,1.45L11.02,8.38L22.04,25.32L33.06,51.33L44.08,71.57L88.16,128.12L99.18,141.01L110.2,152.71L121.22,162.86L132.24,172.14L143.27,179.99L165.31,193.09L176.33,198.54L187.35,203.71L198.37,207.91L220.41,216.3L231.43,219.72L264.49,229.71L275.51,232.54L330.61,245.23L341.63,247.33L352.65,249.14L363.67,251.78L473.88,269.83L484.9,270.86L517.96,275.04L528.98,276.8L540,277.94" style="vector-effect: non-scaling-stroke; fill: none; stroke: rgb(255, 151, 255); stroke-opacity: 1; stroke-width: 2px; opacity: 1;"/></g><g class="points"/><g class="text"/></g><g class="trace scatter trace13427d" style="stroke-miterlimit: 2; opacity: 1;"><g class="fills"/><g class="errorbars"/><g class="lines"><path class="js-line" d="M0,1.49L11.02,8.64L22.04,26.02L33.06,52.11L44.08,72.03L99.18,141.32L110.2,152.99L132.24,172.37L143.27,180.19L165.31,193.22L176.33,198.62L187.35,203.77L198.37,207.97L220.41,216.31L231.43,219.59L253.47,226.56L264.49,229.71L308.57,240.66L319.59,242.82L341.63,247.52L352.65,249.33L374.69,253.81L385.71,255.54L440.82,264.98L451.84,266.62L473.88,269.95L484.9,270.88L540,278.25" style="vector-effect: non-scaling-stroke; fill: none; stroke: rgb(254, 203, 82); stroke-opacity: 1; stroke-width: 2px; opacity: 1;"/></g><g class="points"/><g class="text"/></g><g class="trace scatter trace7c1cc9" style="stroke-miterlimit: 2; opacity: 1;"><g class="fills"/><g class="errorbars"/><g class="lines"><path class="js-line" d="M0,1.45L11.02,8.36L22.04,25.23L33.06,51.22L44.08,71.51L88.16,128.05L99.18,140.96L110.2,152.64L121.22,162.79L132.24,172.09L143.27,179.94L165.31,193.06L176.33,198.51L187.35,203.68L198.37,207.89L220.41,216.28L231.43,219.71L264.49,229.69L275.51,232.55L330.61,245.19L341.63,247.25L396.73,257.14L407.76,259.5L429.8,262.91L440.82,264.8L484.9,270.84L495.92,272.07L540,277.96" style="vector-effect: non-scaling-stroke; fill: none; stroke: rgb(99, 110, 250); stroke-opacity: 1; stroke-width: 2px; opacity: 1;"/></g><g class="points"/><g class="text"/></g><g class="trace scatter trace8da5dd" style="stroke-miterlimit: 2; opacity: 1;"><g class="fills"/><g class="errorbars"/><g class="lines"><path class="js-line" d="M0,1.45L11.02,8.36L22.04,25.24L33.06,51.22L44.08,71.49L88.16,127.98L99.18,140.88L110.2,152.58L121.22,162.74L132.24,172.03L143.27,179.88L165.31,193.01L176.33,198.47L187.35,203.64L198.37,207.86L220.41,216.25L231.43,219.66L264.49,229.66L275.51,232.53L330.61,245.17L341.63,247.23L396.73,257.16L407.76,259.55L429.8,262.89L440.82,264.8L484.9,270.85L495.92,272.12L540,277.96" style="vector-effect: non-scaling-stroke; fill: none; stroke: rgb(239, 85, 59); stroke-opacity: 1; stroke-width: 2px; opacity: 1;"/></g><g class="points"/><g class="text"/></g><g class="trace scatter trace1d965b" style="stroke-miterlimit: 2; opacity: 1;"><g class="fills"/><g class="errorbars"/><g class="lines"><path class="js-line" d="M0,1.45L11.02,8.36L22.04,25.23L33.06,51.2L44.08,71.48L88.16,128.01L99.18,140.91L110.2,152.61L121.22,162.73L132.24,172.12L143.27,179.94L165.31,193.05L176.33,198.5L187.35,203.67L198.37,207.87L220.41,216.27L231.43,219.71L264.49,229.7L275.51,232.53L330.61,245.21L341.63,247.26L396.73,257.19L407.76,259.59L429.8,262.91L440.82,264.81L484.9,270.86L495.92,272.17L540,277.98" style="vector-effect: non-scaling-stroke; fill: none; stroke: rgb(0, 204, 150); stroke-opacity: 1; stroke-width: 2px; opacity: 1;"/></g><g class="points"/><g class="text"/></g><g class="trace scatter trace29eb68" style="stroke-miterlimit: 2; opacity: 1;"><g class="fills"/><g class="errorbars"/><g class="lines"><path class="js-line" d="M0,1.44L11.02,8.38L22.04,25.23L33.06,51.28L44.08,71.62L88.16,128.47L99.18,141.33L110.2,153.01L121.22,163.06L132.24,172.42L143.27,180.2L165.31,193.27L176.33,198.69L187.35,203.86L198.37,208.04L220.41,216.46L231.43,219.85L264.49,229.84L275.51,232.69L330.61,245.33L341.63,247.26L429.8,263.01L440.82,264.88L484.9,270.91L495.92,272.07L540,278" style="vector-effect: non-scaling-stroke; fill: none; stroke: rgb(171, 99, 250); stroke-opacity: 1; stroke-width: 2px; opacity: 1;"/></g><g class="points"/><g class="text"/></g><g class="trace scatter trace02ec74" style="stroke-miterlimit: 2; opacity: 1;"><g class="fills"/><g class="errorbars"/><g class="lines"><path class="js-line" d="M0,1.44L11.02,8.37L22.04,25.3L33.06,51.3L44.08,71.74L88.16,129.11L99.18,141.97L110.2,153.58L121.22,163.58L132.24,172.83L143.27,180.57L165.31,193.57L176.33,198.96L187.35,204.09L198.37,208.26L220.41,216.63L231.43,219.99L253.47,226.81L264.49,229.96L308.57,240.9L319.59,243.16L374.69,253.89L385.71,255.71L462.86,268.41L473.88,270L495.92,272.33L506.94,273.85L540,278.1" style="vector-effect: non-scaling-stroke; fill: none; stroke: rgb(255, 161, 90); stroke-opacity: 1; stroke-width: 2px; opacity: 1;"/></g><g class="points"/><g class="text"/></g><g class="trace scatter trace5dbc42" style="stroke-miterlimit: 2; opacity: 1;"><g class="fills"/><g class="errorbars"/><g class="lines"><path class="js-line" d="M0,1.45L11.02,8.36L22.04,25.24L33.06,51.21L44.08,71.49L88.16,128.04L99.18,140.95L110.2,152.65L121.22,162.79L132.24,172.08L143.27,179.94L165.31,193.06L176.33,198.51L187.35,203.68L198.37,207.89L220.41,216.29L231.43,219.71L264.49,229.7L275.51,232.56L330.61,245.19L341.63,247.28L352.65,249.12L363.67,251.76L473.88,269.78L484.9,270.85L517.96,274.98L528.98,276.74L540,277.94" style="vector-effect: non-scaling-stroke; fill: none; stroke: rgb(25, 211, 243); stroke-opacity: 1; stroke-width: 2px; opacity: 1;"/></g><g class="points"/><g class="text"/></g><g class="trace scatter trace8c55c1" style="stroke-miterlimit: 2; opacity: 1;"><g class="fills"/><g class="errorbars"/><g class="lines"><path class="js-line" d="M0,1.48L11.02,8.37L22.04,25.41L33.06,51.47L44.08,71.77L88.16,128.64L99.18,141.48L110.2,153.15L121.22,163.21L132.24,172.54L143.27,180.31L165.31,193.36L176.33,198.78L187.35,203.93L198.37,208.1L220.41,216.52L231.43,219.91L264.49,229.89L275.51,232.74L330.61,245.33L341.63,247.31L407.76,259.78L418.78,261.08L451.84,266.63L462.86,268.36L484.9,270.96L495.92,272.29L540,278.06" style="vector-effect: non-scaling-stroke; fill: none; stroke: rgb(255, 102, 146); stroke-opacity: 1; stroke-width: 2px; opacity: 1;"/></g><g class="points"/><g class="text"/></g><g class="trace scatter traceffe832" style="stroke-miterlimit: 2; opacity: 1;"><g class="fills"/><g class="errorbars"/><g class="lines"><path class="js-line" d="M0,1.45L11.02,8.38L22.04,25.32L33.06,51.33L44.08,71.58L88.16,128.13L99.18,141.03L110.2,152.72L121.22,162.87L132.24,172.15L143.27,180L165.31,193.09L176.33,198.55L187.35,203.71L198.37,207.93L220.41,216.32L231.43,219.72L264.49,229.71L275.51,232.55L330.61,245.21L341.63,247.32L396.73,257.19L407.76,259.56L429.8,262.92L440.82,264.82L484.9,270.86L495.92,272.15L540,277.98" style="vector-effect: non-scaling-stroke; fill: none; stroke: rgb(182, 232, 128); stroke-opacity: 1; stroke-width: 2px; opacity: 1;"/></g><g class="points"/><g class="text"/></g><g class="trace scatter trace63a37a" style="stroke-miterlimit: 2; opacity: 1;"><g class="fills"/><g class="errorbars"/><g class="lines"><path class="js-line" d="M0,1.45L11.02,8.36L22.04,25.23L33.06,51.2L44.08,71.48L88.16,128.01L99.18,140.91L110.2,152.61L121.22,162.73L132.24,172.12L143.27,179.94L165.31,193.05L176.33,198.5L187.35,203.67L198.37,207.87L220.41,216.28L231.43,219.71L264.49,229.7L275.51,232.53L330.61,245.23L341.63,247.27L352.65,249.14L363.67,251.78L462.86,268.2L473.88,269.81L506.94,273.6L517.96,274.97L540,277.98" style="vector-effect: non-scaling-stroke; fill: none; stroke: rgb(255, 151, 255); stroke-opacity: 1; stroke-width: 2px; opacity: 1;"/></g><g class="points"/><g class="text"/></g><g class="trace scatter trace11a249" style="stroke-miterlimit: 2; opacity: 1;"><g class="fills"/><g class="errorbars"/><g class="lines"><path class="js-line" d="M0,1.45L11.02,8.37L22.04,25.3L33.06,51.31L44.08,71.57L88.16,128.09L99.18,140.98L110.2,152.68L121.22,162.78L132.24,172.09L143.27,179.96L165.31,193.06L176.33,198.51L187.35,203.68L198.37,207.87L220.41,216.27L231.43,219.7L264.49,229.68L275.51,232.54L330.61,245.21L341.63,247.27L352.65,249.13L363.67,251.78L462.86,268.21L473.88,269.82L506.94,273.6L517.96,274.97L540,277.98" style="vector-effect: non-scaling-stroke; fill: none; stroke: rgb(254, 203, 82); stroke-opacity: 1; stroke-width: 2px; opacity: 1;"/></g><g class="points"/><g class="text"/></g><g class="trace scatter trace7d06d0" style="stroke-miterlimit: 2; opacity: 1;"><g class="fills"/><g class="errorbars"/><g class="lines"><path class="js-line" d="M0,1.45L11.02,8.36L22.04,25.23L33.06,51.24L44.08,71.51L88.16,128.01L99.18,140.93L110.2,152.61L121.22,162.76L132.24,172.05L143.27,179.91L165.31,193.03L176.33,198.49L187.35,203.66L198.37,207.87L220.41,216.27L231.43,219.67L264.49,229.67L275.51,232.52L330.61,245.21L341.63,247.26L396.73,257.19L407.76,259.49L429.8,262.9L440.82,264.81L484.9,270.85L495.92,272.14L540,277.97" style="vector-effect: non-scaling-stroke; fill: none; stroke: rgb(99, 110, 250); stroke-opacity: 1; stroke-width: 2px; opacity: 1;"/></g><g class="points"/><g class="text"/></g><g class="trace scatter trace8b609c" style="stroke-miterlimit: 2; opacity: 1;"><g class="fills"/><g class="errorbars"/><g class="lines"><path class="js-line" d="M0,1.45L11.02,8.39L22.04,25.41L33.06,51.49L44.08,71.73L88.16,128.52L99.18,141.39L110.2,153.06L121.22,163.14L132.24,172.45L143.27,180.24L165.31,193.29L176.33,198.72L187.35,203.87L198.37,208.04L220.41,216.44L231.43,219.85L264.49,229.82L275.51,232.67L330.61,245.33L341.63,247.42L396.73,257.46L407.76,259.73L418.78,261L429.8,263.08L473.88,269.95L484.9,270.95L540,278.07" style="vector-effect: non-scaling-stroke; fill: none; stroke: rgb(239, 85, 59); stroke-opacity: 1; stroke-width: 2px; opacity: 1;"/></g><g class="points"/><g class="text"/></g><g class="trace scatter trace33eac9" style="stroke-miterlimit: 2; opacity: 1;"><g class="fills"/><g class="errorbars"/><g class="lines"><path class="js-line" d="M0,2.24L11.02,12.34L22.04,31.3L33.06,52.21L44.08,68.01L55.1,80.05L66.12,89.15L88.16,106.21L99.18,115.15L110.2,123.59L121.22,133.18L132.24,142.79L143.27,151.02L165.31,166L176.33,172.04L198.37,183.31L209.39,188.37L253.47,204.34L264.49,207.58L319.59,221.47L330.61,223.72L374.69,233.07L385.71,234.74L451.84,245.49L462.86,247.11L473.88,248.14L484.9,250.15L540,257.28" style="vector-effect: non-scaling-stroke; fill: none; stroke: rgb(0, 204, 150); stroke-opacity: 1; stroke-width: 2px; opacity: 1;"/></g><g class="points"/><g class="text"/></g><g class="trace scatter trace943aac" style="stroke-miterlimit: 2; opacity: 1;"><g class="fills"/><g class="errorbars"/><g class="lines"><path class="js-line" d="M0,2.19L11.02,12.38L22.04,31.26L33.06,52.17L44.08,67.96L55.1,80.07L66.12,89.24L88.16,106.6L99.18,115.81L121.22,134.36L132.24,144.09L154.29,160.22L165.31,167.4L187.35,179.13L198.37,184.39L209.39,189.29L220.41,193.27L253.47,204.93L264.49,208.1L319.59,221.78L330.61,224.09L374.69,233.31L385.71,235.06L440.82,243.79L451.84,245.57L528.98,256.02L540,257.47" style="vector-effect: non-scaling-stroke; fill: none; stroke: rgb(171, 99, 250); stroke-opacity: 1; stroke-width: 2px; opacity: 1;"/></g><g class="points"/><g class="text"/></g><g class="trace scatter trace44b148" style="stroke-miterlimit: 2; opacity: 1;"><g class="fills"/><g class="errorbars"/><g class="lines"><path class="js-line" d="M0,1.44L11.02,8.45L22.04,25.33L33.06,51.4L44.08,71.71L88.16,128.53L99.18,141.41L110.2,153.05L121.22,163.09L132.24,172.39L143.27,180.23L165.31,193.26L176.33,198.7L187.35,203.85L198.37,208.03L220.41,216.42L231.43,219.78L253.47,226.62L264.49,229.79L308.57,240.75L319.59,243L341.63,247.42L352.65,249.24L374.69,253.78L385.71,255.52L462.86,268.27L473.88,269.9L506.94,273.74L517.96,275.07L540,278.01" style="vector-effect: non-scaling-stroke; fill: none; stroke: rgb(255, 161, 90); stroke-opacity: 1; stroke-width: 2px; opacity: 1;"/></g><g class="points"/><g class="text"/></g><g class="trace scatter traced76393" style="stroke-miterlimit: 2; opacity: 1;"><g class="fills"/><g class="errorbars"/><g class="lines"><path class="js-line" d="M0,1.45L11.02,8.37L22.04,25.29L33.06,51.3L44.08,71.53L88.16,127.9L99.18,140.83L110.2,152.53L121.22,162.69L132.24,171.98L143.27,179.85L165.31,192.98L176.33,198.43L187.35,203.61L198.37,207.82L220.41,216.22L231.43,219.65L264.49,229.63L275.51,232.49L330.61,245.13L341.63,247.19L440.82,264.76L451.84,266.41L473.88,269.74L484.9,270.82L506.94,273.64L517.96,275.05L540,277.93" style="vector-effect: non-scaling-stroke; fill: none; stroke: rgb(25, 211, 243); stroke-opacity: 1; stroke-width: 2px; opacity: 1;"/></g><g class="points"/><g class="text"/></g><g class="trace scatter trace5350b5" style="stroke-miterlimit: 2; opacity: 1;"><g class="fills"/><g class="errorbars"/><g class="lines"><path class="js-line" d="M0,2.23L11.02,12.51L22.04,31.47L33.06,52.42L44.08,68.18L55.1,80.26L66.12,89.45L88.16,106.94L99.18,116.32L121.22,135.26L132.24,145.05L154.29,161.16L165.31,168.22L187.35,179.8L198.37,184.96L209.39,189.89L220.41,193.71L253.47,205.32L264.49,208.46L319.59,221.98L330.61,224.27L352.65,228.84L363.67,230.76L385.71,235.21L396.73,236.76L407.76,239.02L418.78,240.45L429.8,241.59L440.82,243.63L462.86,246.96L473.88,247.99L484.9,249.99L495.92,251.09L517.96,254.44L528.98,255.59L540,257.15" style="vector-effect: non-scaling-stroke; fill: none; stroke: rgb(255, 102, 146); stroke-opacity: 1; stroke-width: 2px; opacity: 1;"/></g><g class="points"/><g class="text"/></g><g class="trace scatter traceb29fa9" style="stroke-miterlimit: 2; opacity: 1;"><g class="fills"/><g class="errorbars"/><g class="lines"><path class="js-line" d="M0,1.49L11.02,8.61L22.04,25.88L33.06,51.84L44.08,71.81L99.18,140.96L110.2,152.65L132.24,172.07L143.27,179.93L165.31,193.01L176.33,198.42L187.35,203.57L198.37,207.79L220.41,216.14L231.43,219.39L253.47,226.39L264.49,229.52L308.57,240.56L319.59,242.82L341.63,247.41L352.65,249.19L374.69,253.71L385.71,255.47L418.78,260.93L429.8,262.72L462.86,268.21L473.88,269.85L495.92,272.18L506.94,273.67L540,278.24" style="vector-effect: non-scaling-stroke; fill: none; stroke: rgb(182, 232, 128); stroke-opacity: 1; stroke-width: 2px; opacity: 1;"/></g><g class="points"/><g class="text"/></g><g class="trace scatter tracebf1ef4" style="stroke-miterlimit: 2; opacity: 1;"><g class="fills"/><g class="errorbars"/><g class="lines"><path class="js-line" d="M0,2.32L11.02,12.68L22.04,31.8L33.06,52.67L44.08,68.37L55.1,80.49L66.12,89.95L77.14,98.73L88.16,108.63L132.24,148.98L143.27,157.41L165.31,171.49L176.33,177.31L198.37,187.7L209.39,192.4L253.47,207.56L264.49,210.33L297.55,218.56L308.57,220.53L330.61,225.45L341.63,227.89L407.76,239.47L418.78,240.72L429.8,241.82L440.82,243.92L495.92,251.36L506.94,252.9L540,256.6" style="vector-effect: non-scaling-stroke; fill: none; stroke: rgb(255, 151, 255); stroke-opacity: 1; stroke-width: 2px; opacity: 1;"/></g><g class="points"/><g class="text"/></g><g class="trace scatter traceef3743" style="stroke-miterlimit: 2; opacity: 1;"><g class="fills"/><g class="errorbars"/><g class="lines"><path class="js-line" d="M0,1.44L11.02,8.44L22.04,25.34L33.06,51.39L44.08,71.72L88.16,128.61L99.18,141.48L110.2,153.12L121.22,163.17L132.24,172.41L143.27,180.26L165.31,193.3L176.33,198.71L187.35,203.87L198.37,208.05L220.41,216.45L231.43,219.8L253.47,226.65L264.49,229.8L308.57,240.74L319.59,242.91L341.63,247.34L352.65,249.28L363.67,251.9L374.69,253.72L473.88,269.88L484.9,270.92L540,277.96" style="vector-effect: non-scaling-stroke; fill: none; stroke: rgb(254, 203, 82); stroke-opacity: 1; stroke-width: 2px; opacity: 1;"/></g><g class="points"/><g class="text"/></g><g class="trace scatter trace395e36" style="stroke-miterlimit: 2; opacity: 1;"><g class="fills"/><g class="errorbars"/><g class="lines"><path class="js-line" d="M0,1.41L11.02,8.22L22.04,24.75L33.06,50.73L44.08,71.19L88.16,127.47L99.18,140.37L110.2,152.1L121.22,162.3L132.24,171.69L143.27,179.59L165.31,192.81L176.33,198.29L187.35,203.5L198.37,207.77L220.41,216.19L231.43,219.6L253.47,226.5L264.49,229.68L308.57,240.65L319.59,242.83L374.69,253.48L385.71,255.04L407.76,259.42L418.78,260.71L440.82,264.59L451.84,266.17L473.88,269.68L484.9,270.73L506.94,273.47L517.96,275.02L540,278.02" style="vector-effect: non-scaling-stroke; fill: none; stroke: rgb(99, 110, 250); stroke-opacity: 1; stroke-width: 2px; opacity: 1;"/></g><g class="points"/><g class="text"/></g><g class="trace scatter traceac69d3" style="stroke-miterlimit: 2; opacity: 1;"><g class="fills"/><g class="errorbars"/><g class="lines"><path class="js-line" d="M0,2.31L11.02,12.67L22.04,31.77L33.06,52.75L44.08,68.57L55.1,80.75L66.12,90.44L77.14,99.59L88.16,109.95L121.22,141.31L132.24,151.06L143.27,159.34L154.29,166.62L176.33,178.89L187.35,184.21L209.39,193.69L220.41,197.31L253.47,208.63L264.49,211.35L297.55,219.47L308.57,221.51L341.63,228.59L352.65,230.44L407.76,239.95L418.78,241.28L429.8,242.39L440.82,244.51L506.94,253.51L517.96,254.6L540,257.23" style="vector-effect: non-scaling-stroke; fill: none; stroke: rgb(239, 85, 59); stroke-opacity: 1; stroke-width: 2px; opacity: 1;"/></g><g class="points"/><g class="text"/></g><g class="trace scatter trace5b10b9" style="stroke-miterlimit: 2; opacity: 1;"><g class="fills"/><g class="errorbars"/><g class="lines"><path class="js-line" d="M0,1.45L11.02,8.36L22.04,25.23L33.06,51.2L44.08,71.48L88.16,128.01L99.18,140.91L110.2,152.61L121.22,162.73L132.24,172.12L143.27,179.94L165.31,193.05L176.33,198.5L187.35,203.67L198.37,207.87L220.41,216.27L231.43,219.71L264.49,229.7L275.51,232.53L330.61,245.21L341.63,247.26L396.73,257.19L407.76,259.59L429.8,262.91L440.82,264.81L484.9,270.86L495.92,272.17L540,277.97" style="vector-effect: non-scaling-stroke; fill: none; stroke: rgb(0, 204, 150); stroke-opacity: 1; stroke-width: 2px; opacity: 1;"/></g><g class="points"/><g class="text"/></g><g class="trace scatter tracece5f61" style="stroke-miterlimit: 2; opacity: 1;"><g class="fills"/><g class="errorbars"/><g class="lines"><path class="js-line" d="M0,1.45L11.02,8.36L22.04,25.23L33.06,51.2L44.08,71.48L88.16,128.01L99.18,140.91L110.2,152.61L121.22,162.73L132.24,172.12L143.27,179.94L165.31,193.05L176.33,198.5L187.35,203.67L198.37,207.87L220.41,216.28L231.43,219.71L264.49,229.7L275.51,232.53L330.61,245.23L341.63,247.27L396.73,257.21L407.76,259.57L429.8,262.93L440.82,264.82L484.9,270.86L495.92,272.18L540,277.97" style="vector-effect: non-scaling-stroke; fill: none; stroke: rgb(171, 99, 250); stroke-opacity: 1; stroke-width: 2px; opacity: 1;"/></g><g class="points"/><g class="text"/></g><g class="trace scatter trace7f80c7" style="stroke-miterlimit: 2; opacity: 1;"><g class="fills"/><g class="errorbars"/><g class="lines"><path class="js-line" d="M0,1.46L11.02,8.39L22.04,25.59L33.06,51.66L44.08,71.95L88.16,129.21L99.18,142.05L110.2,153.67L121.22,163.66L132.24,172.92L143.27,180.65L165.31,193.62L176.33,199.01L187.35,204.14L198.37,208.29L220.41,216.68L231.43,220L253.47,226.82L264.49,229.98L308.57,240.9L319.59,243.15L341.63,247.57L352.65,249.45L374.69,253.99L385.71,255.73L440.82,265.07L451.84,266.78L473.88,270.06L484.9,271.03L540,278.22" style="vector-effect: non-scaling-stroke; fill: none; stroke: rgb(255, 161, 90); stroke-opacity: 1; stroke-width: 2px; opacity: 1;"/></g><g class="points"/><g class="text"/></g><g class="trace scatter trace9ea185" style="stroke-miterlimit: 2; opacity: 1;"><g class="fills"/><g class="errorbars"/><g class="lines"><path class="js-line" d="M0,1.45L11.02,8.36L22.04,25.23L33.06,51.2L44.08,71.48L88.16,128.01L99.18,140.91L110.2,152.61L121.22,162.73L132.24,172.12L143.27,179.94L165.31,193.05L176.33,198.5L187.35,203.67L198.37,207.87L220.41,216.27L231.43,219.71L264.49,229.7L275.51,232.53L330.61,245.21L341.63,247.26L396.73,257.19L407.76,259.59L429.8,262.91L440.82,264.81L484.9,270.86L495.92,272.17L540,277.97" style="vector-effect: non-scaling-stroke; fill: none; stroke: rgb(25, 211, 243); stroke-opacity: 1; stroke-width: 2px; opacity: 1;"/></g><g class="points"/><g class="text"/></g><g class="trace scatter tracea475e0" style="stroke-miterlimit: 2; opacity: 1;"><g class="fills"/><g class="errorbars"/><g class="lines"><path class="js-line" d="M0,1.45L11.02,8.39L22.04,25.48L33.06,51.49L44.08,71.79L88.16,128.88L99.18,141.76L110.2,153.38L121.22,163.41L132.24,172.71L143.27,180.46L165.31,193.46L176.33,198.87L187.35,204L198.37,208.17L220.41,216.54L231.43,219.92L264.49,229.87L275.51,232.77L341.63,247.58L352.65,249.35L374.69,253.9L385.71,255.65L451.84,266.68L462.86,268.42L484.9,270.99L495.92,272.26L528.98,276.94L540,278.18" style="vector-effect: non-scaling-stroke; fill: none; stroke: rgb(255, 102, 146); stroke-opacity: 1; stroke-width: 2px; opacity: 1;"/></g><g class="points"/><g class="text"/></g><g class="trace scatter trace0aceb4" style="stroke-miterlimit: 2; opacity: 1;"><g class="fills"/><g class="errorbars"/><g class="lines"><path class="js-line" d="M0,1.45L11.02,8.38L22.04,25.35L33.06,51.36L44.08,71.64L88.16,128.49L99.18,141.37L110.2,153.03L121.22,163.09L132.24,172.44L143.27,180.23L165.31,193.28L176.33,198.7L187.35,203.86L198.37,208.03L220.41,216.42L231.43,219.83L264.49,229.82L275.51,232.68L330.61,245.35L341.63,247.41L352.65,249.28L363.67,251.92L451.84,266.6L462.86,268.28L484.9,270.95L495.92,272.24L540,278.07" style="vector-effect: non-scaling-stroke; fill: none; stroke: rgb(182, 232, 128); stroke-opacity: 1; stroke-width: 2px; opacity: 1;"/></g><g class="points"/><g class="text"/></g><g class="trace scatter traceb0f3bb" style="stroke-miterlimit: 2; opacity: 1;"><g class="fills"/><g class="errorbars"/><g class="lines"><path class="js-line" d="M0,1.51L11.02,8.37L22.04,25.28L33.06,51.25L44.08,71.3L88.16,125.75L99.18,138.53L110.2,150.37L121.22,160.78L132.24,170.3L143.27,178.37L165.31,191.82L176.33,197.4L187.35,202.71L198.37,207.06L231.43,219.12L242.45,222.71L275.51,232.06L286.53,234.61L319.59,242.46L330.61,244.77L407.76,258.85L418.78,260.21L440.82,264.11L451.84,265.58L484.9,270.09L495.92,271.4L528.98,276.2L540,277.42" style="vector-effect: non-scaling-stroke; fill: none; stroke: rgb(255, 151, 255); stroke-opacity: 1; stroke-width: 2px; opacity: 1;"/></g><g class="points"/><g class="text"/></g><g class="trace scatter trace95f292" style="stroke-miterlimit: 2; opacity: 1;"><g class="fills"/><g class="errorbars"/><g class="lines"><path class="js-line" d="M0,1.49L11.02,8.58L22.04,25.81L33.06,51.85L44.08,71.84L99.18,141.01L110.2,152.71L132.24,172.15L143.27,179.98L165.31,193.07L176.33,198.48L187.35,203.65L198.37,207.84L220.41,216.18L231.43,219.48L253.47,226.44L264.49,229.54L297.55,237.95L308.57,240.59L385.71,255.47L396.73,257.43L418.78,260.97L429.8,262.79L473.88,269.88L484.9,270.82L528.98,276.88L540,278.23" style="vector-effect: non-scaling-stroke; fill: none; stroke: rgb(254, 203, 82); stroke-opacity: 1; stroke-width: 2px; opacity: 1;"/></g><g class="points"/><g class="text"/></g><g class="trace scatter trace43cc72" style="stroke-miterlimit: 2; opacity: 1;"><g class="fills"/><g class="errorbars"/><g class="lines"><path class="js-line" d="M0,1.45L11.02,8.36L22.04,25.23L33.06,51.21L44.08,71.48L88.16,127.95L99.18,140.85L110.2,152.55L121.22,162.72L132.24,172.01L143.27,179.87L165.31,192.99L176.33,198.46L187.35,203.63L198.37,207.85L220.41,216.23L231.43,219.66L264.49,229.65L275.51,232.52L330.61,245.18L341.63,247.26L396.73,257.16L407.76,259.51L429.8,262.89L440.82,264.8L484.9,270.84L495.92,272.17L540,277.96" style="vector-effect: non-scaling-stroke; fill: none; stroke: rgb(99, 110, 250); stroke-opacity: 1; stroke-width: 2px; opacity: 1;"/></g><g class="points"/><g class="text"/></g><g class="trace scatter trace3b738e" style="stroke-miterlimit: 2; opacity: 1;"><g class="fills"/><g class="errorbars"/><g class="lines"><path class="js-line" d="M0,1.45L11.02,8.38L22.04,25.33L33.06,51.32L44.08,71.61L88.16,128.35L99.18,141.24L110.2,152.91L121.22,162.98L132.24,172.35L143.27,180.14L165.31,193.22L176.33,198.64L187.35,203.81L198.37,207.98L220.41,216.38L231.43,219.79L264.49,229.78L275.51,232.63L330.61,245.3L341.63,247.37L396.73,257.45L407.76,259.68L418.78,260.98L429.8,263.04L473.88,269.91L484.9,270.93L540,278.05" style="vector-effect: non-scaling-stroke; fill: none; stroke: rgb(239, 85, 59); stroke-opacity: 1; stroke-width: 2px; opacity: 1;"/></g><g class="points"/><g class="text"/></g><g class="trace scatter tracef89d86" style="stroke-miterlimit: 2; opacity: 1;"><g class="fills"/><g class="errorbars"/><g class="lines"><path class="js-line" d="M0,1.45L11.02,8.38L22.04,25.32L33.06,51.34L44.08,71.58L88.16,128.06L99.18,140.93L110.2,152.64L121.22,162.78L132.24,172.07L143.27,179.95L165.31,193.05L176.33,198.51L187.35,203.67L198.37,207.88L220.41,216.27L231.43,219.71L264.49,229.68L275.51,232.55L330.61,245.2L341.63,247.26L396.73,257.21L407.76,259.59L429.8,262.92L440.82,264.81L484.9,270.86L495.92,272.15L540,277.97" style="vector-effect: non-scaling-stroke; fill: none; stroke: rgb(0, 204, 150); stroke-opacity: 1; stroke-width: 2px; opacity: 1;"/></g><g class="points"/><g class="text"/></g><g class="trace scatter traceb5fb5f" style="stroke-miterlimit: 2; opacity: 1;"><g class="fills"/><g class="errorbars"/><g class="lines"><path class="js-line" d="M0,1.46L11.02,8.37L22.04,25.53L33.06,51.61L44.08,71.87L88.16,128.85L99.18,141.71L110.2,153.34L121.22,163.37L132.24,172.69L143.27,180.45L165.31,193.44L176.33,198.84L187.35,203.98L198.37,208.16L220.41,216.54L231.43,219.9L264.49,229.92L275.51,232.78L330.61,245.45L341.63,247.52L363.67,252L374.69,253.91L473.88,270.04L484.9,271.02L517.96,275.25L528.98,276.98L540,278.21" style="vector-effect: non-scaling-stroke; fill: none; stroke: rgb(171, 99, 250); stroke-opacity: 1; stroke-width: 2px; opacity: 1;"/></g><g class="points"/><g class="text"/></g><g class="trace scatter trace94ac1d" style="stroke-miterlimit: 2; opacity: 1;"><g class="fills"/><g class="errorbars"/><g class="lines"><path class="js-line" d="M0,1.45L11.02,8.38L22.04,25.29L33.06,51.31L44.08,71.54L88.16,127.99L99.18,140.89L110.2,152.59L121.22,162.76L132.24,172.04L143.27,179.9L165.31,193.02L176.33,198.48L187.35,203.65L198.37,207.87L220.41,216.26L231.43,219.67L264.49,229.67L275.51,232.53L330.61,245.18L341.63,247.27L352.65,249.11L363.67,251.75L473.88,269.78L484.9,270.84L517.96,274.98L528.98,276.74L540,277.96" style="vector-effect: non-scaling-stroke; fill: none; stroke: rgb(255, 161, 90); stroke-opacity: 1; stroke-width: 2px; opacity: 1;"/></g><g class="points"/><g class="text"/></g><g class="trace scatter tracec25ebc" style="stroke-miterlimit: 2; opacity: 1;"><g class="fills"/><g class="errorbars"/><g class="lines"><path class="js-line" d="M0,1.45L11.02,8.36L22.04,25.22L33.06,51.19L44.08,71.45L88.16,127.95L99.18,140.86L110.2,152.56L121.22,162.68L132.24,172.01L143.27,179.89L165.31,193L176.33,198.46L187.35,203.64L198.37,207.85L220.41,216.24L231.43,219.68L264.49,229.66L275.51,232.53L330.61,245.18L341.63,247.19L440.82,264.8L451.84,266.46L473.88,269.8L484.9,270.85L540,277.98" style="vector-effect: non-scaling-stroke; fill: none; stroke: rgb(25, 211, 243); stroke-opacity: 1; stroke-width: 2px; opacity: 1;"/></g><g class="points"/><g class="text"/></g><g class="trace scatter trace1f7f22" style="stroke-miterlimit: 2; opacity: 1;"><g class="fills"/><g class="errorbars"/><g class="lines"><path class="js-line" d="M0,1.49L11.02,8.32L22.04,25.59L33.06,51.52L44.08,71.45L99.18,139.57L110.2,151.43L132.24,171.12L143.27,179.09L165.31,192.37L176.33,197.86L187.35,203.07L198.37,207.3L220.41,215.72L231.43,219.12L253.47,226.08L264.49,229.22L308.57,240.29L319.59,242.49L341.63,247.05L352.65,248.79L363.67,251.46L374.69,253.35L473.88,269.66L484.9,270.63L540,277.84" style="vector-effect: non-scaling-stroke; fill: none; stroke: rgb(255, 102, 146); stroke-opacity: 1; stroke-width: 2px; opacity: 1;"/></g><g class="points"/><g class="text"/></g><g class="trace scatter trace316fb9" style="stroke-miterlimit: 2; opacity: 1;"><g class="fills"/><g class="errorbars"/><g class="lines"><path class="js-line" d="M0,1.45L11.02,8.36L22.04,25.22L33.06,51.2L44.08,71.47L88.16,127.95L99.18,140.86L110.2,152.56L121.22,162.69L132.24,172.01L143.27,179.89L165.31,193L176.33,198.46L187.35,203.64L198.37,207.85L220.41,216.25L231.43,219.66L264.49,229.66L275.51,232.52L330.61,245.17L341.63,247.24L440.82,264.79L451.84,266.45L473.88,269.8L484.9,270.84L540,277.95" style="vector-effect: non-scaling-stroke; fill: none; stroke: rgb(182, 232, 128); stroke-opacity: 1; stroke-width: 2px; opacity: 1;"/></g><g class="points"/><g class="text"/></g><g class="trace scatter trace6a23a4" style="stroke-miterlimit: 2; opacity: 1;"><g class="fills"/><g class="errorbars"/><g class="lines"><path class="js-line" d="M0,1.45L11.02,8.35L22.04,25.32L33.06,51.34L44.08,71.64L88.16,128.37L99.18,141.25L110.2,152.92L121.22,163L132.24,172.35L143.27,180.15L165.31,193.22L176.33,198.65L187.35,203.81L198.37,208L220.41,216.41L231.43,219.83L264.49,229.82L275.51,232.66L330.61,245.3L341.63,247.27L407.76,259.71L418.78,260.99L451.84,266.59L462.86,268.32L484.9,270.92L495.92,272.22L540,278.1" style="vector-effect: non-scaling-stroke; fill: none; stroke: rgb(255, 151, 255); stroke-opacity: 1; stroke-width: 2px; opacity: 1;"/></g><g class="points"/><g class="text"/></g><g class="trace scatter trace81a26e" style="stroke-miterlimit: 2; opacity: 1;"><g class="fills"/><g class="errorbars"/><g class="lines"><path class="js-line" d="M0,1.53L11.02,8.39L22.04,25.8L33.06,51.9L44.08,72.03L88.16,129.11L99.18,141.96L110.2,153.61L121.22,163.6L132.24,172.82L143.27,180.63L165.31,193.58L176.33,198.94L187.35,204.06L198.37,208.23L220.41,216.53L231.43,219.83L253.47,226.75L264.49,229.87L308.57,240.82L319.59,243.02L341.63,247.66L352.65,249.38L374.69,253.94L385.71,255.68L462.86,268.43L473.88,270.05L495.92,272.34L506.94,273.99L540,278.25" style="vector-effect: non-scaling-stroke; fill: none; stroke: rgb(254, 203, 82); stroke-opacity: 1; stroke-width: 2px; opacity: 1;"/></g><g class="points"/><g class="text"/></g><g class="trace scatter trace24cf24" style="stroke-miterlimit: 2; opacity: 1;"><g class="fills"/><g class="errorbars"/><g class="lines"><path class="js-line" d="M0,1.46L11.02,8.36L22.04,25.45L33.06,51.47L44.08,71.63L88.16,127.8L99.18,140.62L110.2,152.4L121.22,162.56L132.24,171.94L143.27,179.77L165.31,192.93L176.33,198.39L187.35,203.58L198.37,207.8L220.41,216.21L231.43,219.68L264.49,229.66L275.51,232.54L330.61,245.23L341.63,247.19L429.8,263.02L440.82,264.86L473.88,269.85L484.9,270.83L540,277.98" style="vector-effect: non-scaling-stroke; fill: none; stroke: rgb(99, 110, 250); stroke-opacity: 1; stroke-width: 2px; opacity: 1;"/></g><g class="points"/><g class="text"/></g><g class="trace scatter traceebf28b" style="stroke-miterlimit: 2; opacity: 1;"><g class="fills"/><g class="errorbars"/><g class="lines"><path class="js-line" d="M0,1.44L11.02,8.45L22.04,25.42L33.06,51.45L44.08,71.82L88.16,129.15L99.18,142.02L110.2,153.6L121.22,163.58L132.24,172.8L143.27,180.59L165.31,193.56L176.33,198.94L187.35,204.07L198.37,208.23L220.41,216.6L231.43,219.95L264.49,229.92L275.51,232.8L330.61,245.41L341.63,247.53L396.73,257.59L407.76,259.77L429.8,263.14L440.82,265.02L473.88,270L484.9,271L540,278.12" style="vector-effect: non-scaling-stroke; fill: none; stroke: rgb(239, 85, 59); stroke-opacity: 1; stroke-width: 2px; opacity: 1;"/></g><g class="points"/><g class="text"/></g><g class="trace scatter trace7d2345" style="stroke-miterlimit: 2; opacity: 1;"><g class="fills"/><g class="errorbars"/><g class="lines"><path class="js-line" d="M0,2.3L11.02,12.63L22.04,31.55L33.06,52.43L44.08,68.11L55.1,80.15L66.12,89.15L88.16,105.74L99.18,114.35L110.2,122.37L121.22,131.48L132.24,140.8L143.27,148.48L165.31,163.21L176.33,169.17L198.37,180.77L209.39,185.94L242.45,198.81L253.47,202.73L275.51,209.35L286.53,211.92L319.59,220.58L330.61,222.92L352.65,228.01L363.67,229.67L374.69,232.44L385.71,233.95L418.78,239.96L429.8,241.53L451.84,244.88L462.86,246.47L506.94,252.52L517.96,254.12L540,256.67" style="vector-effect: non-scaling-stroke; fill: none; stroke: rgb(0, 204, 150); stroke-opacity: 1; stroke-width: 2px; opacity: 1;"/></g><g class="points"/><g class="text"/></g><g class="trace scatter trace41d250" style="stroke-miterlimit: 2; opacity: 1;"><g class="fills"/><g class="errorbars"/><g class="lines"><path class="js-line" d="M0,1.5L11.02,8.35L22.04,25.48L33.06,51.48L44.08,71.33L99.18,138.83L110.2,150.66L132.24,170.54L143.27,178.54L165.31,191.94L176.33,197.49L187.35,202.74L198.37,206.99L220.41,215.49L231.43,218.9L253.47,225.81L264.49,228.99L308.57,240.12L319.59,242.22L341.63,246.74L352.65,248.55L374.69,253.03L385.71,254.72L429.8,262.15L440.82,264.22L484.9,270.33L495.92,271.14L506.94,273.31L517.96,274.69L540,277.64" style="vector-effect: non-scaling-stroke; fill: none; stroke: rgb(171, 99, 250); stroke-opacity: 1; stroke-width: 2px; opacity: 1;"/></g><g class="points"/><g class="text"/></g><g class="trace scatter tracea80b19" style="stroke-miterlimit: 2; opacity: 1;"><g class="fills"/><g class="errorbars"/><g class="lines"><path class="js-line" d="M0,1.49L11.02,8.39L22.04,25.65L33.06,51.76L44.08,72.16L88.16,130.24L99.18,143.01L110.2,154.58L121.22,164.45L132.24,173.57L143.27,181.29L165.31,194.12L176.33,199.42L187.35,204.53L198.37,208.69L220.41,216.99L231.43,220.29L253.47,227.14L264.49,230.32L308.57,241.14L319.59,243.4L363.67,252.23L374.69,254.25L418.78,261.33L429.8,263.52L473.88,270.28L484.9,271.22L517.96,275.52L528.98,277.24L540,278.23" style="vector-effect: non-scaling-stroke; fill: none; stroke: rgb(255, 161, 90); stroke-opacity: 1; stroke-width: 2px; opacity: 1;"/></g><g class="points"/><g class="text"/></g><g class="trace scatter trace80eae7" style="stroke-miterlimit: 2; opacity: 1;"><g class="fills"/><g class="errorbars"/><g class="lines"><path class="js-line" d="M0,1.46L11.02,8.39L22.04,25.62L33.06,51.65L44.08,71.93L88.16,129.05L99.18,141.93L110.2,153.53L121.22,163.54L132.24,172.83L143.27,180.56L165.31,193.54L176.33,198.95L187.35,204.07L198.37,208.24L220.41,216.62L231.43,219.97L264.49,229.95L275.51,232.81L330.61,245.43L341.63,247.57L352.65,249.42L363.67,252.05L451.84,266.77L462.86,268.42L484.9,271.03L495.92,272.34L540,278.15" style="vector-effect: non-scaling-stroke; fill: none; stroke: rgb(25, 211, 243); stroke-opacity: 1; stroke-width: 2px; opacity: 1;"/></g><g class="points"/><g class="text"/></g><g class="trace scatter tracec8a6f9" style="stroke-miterlimit: 2; opacity: 1;"><g class="fills"/><g class="errorbars"/><g class="lines"><path class="js-line" d="M0,1.45L11.02,8.42L22.04,25.43L33.06,51.52L44.08,71.82L88.16,129.24L99.18,142.12L110.2,153.71L121.22,163.66L132.24,172.88L143.27,180.67L165.31,193.61L176.33,199L187.35,204.12L198.37,208.28L220.41,216.63L231.43,220L264.49,229.96L275.51,232.84L330.61,245.54L341.63,247.63L363.67,252.05L374.69,253.98L473.88,270.08L484.9,271.05L517.96,275.26L528.98,276.99L540,278.19" style="vector-effect: non-scaling-stroke; fill: none; stroke: rgb(255, 102, 146); stroke-opacity: 1; stroke-width: 2px; opacity: 1;"/></g><g class="points"/><g class="text"/></g><g class="trace scatter traceb90743" style="stroke-miterlimit: 2; opacity: 1;"><g class="fills"/><g class="errorbars"/><g class="lines"><path class="js-line" d="M0,1.45L11.02,8.36L22.04,25.24L33.06,51.22L44.08,71.48L88.16,127.96L99.18,140.87L110.2,152.57L121.22,162.73L132.24,172.02L143.27,179.88L165.31,193L176.33,198.46L187.35,203.63L198.37,207.85L220.41,216.24L231.43,219.66L264.49,229.65L275.51,232.53L330.61,245.18L341.63,247.25L396.73,257.16L407.76,259.5L429.8,262.89L440.82,264.81L484.9,270.84L495.92,272.11L540,277.95" style="vector-effect: non-scaling-stroke; fill: none; stroke: rgb(182, 232, 128); stroke-opacity: 1; stroke-width: 2px; opacity: 1;"/></g><g class="points"/><g class="text"/></g><g class="trace scatter trace68c1f1" style="stroke-miterlimit: 2; opacity: 1;"><g class="fills"/><g class="errorbars"/><g class="lines"><path class="js-line" d="M0,1.45L11.02,8.37L22.04,25.25L33.06,51.24L44.08,71.49L88.16,127.89L99.18,140.81L110.2,152.51L121.22,162.67L132.24,171.97L143.27,179.84L165.31,192.96L176.33,198.42L187.35,203.59L198.37,207.79L220.41,216.19L231.43,219.64L264.49,229.61L275.51,232.5L330.61,245.16L341.63,247.21L352.65,249.05L363.67,251.71L473.88,269.72L484.9,270.82L517.96,275.03L528.98,276.65L540,277.99" style="vector-effect: non-scaling-stroke; fill: none; stroke: rgb(255, 151, 255); stroke-opacity: 1; stroke-width: 2px; opacity: 1;"/></g><g class="points"/><g class="text"/></g><g class="trace scatter trace507eb0" style="stroke-miterlimit: 2; opacity: 1;"><g class="fills"/><g class="errorbars"/><g class="lines"><path class="js-line" d="M0,1.45L11.02,8.36L22.04,25.23L33.06,51.2L44.08,71.48L88.16,128.01L99.18,140.91L110.2,152.61L121.22,162.73L132.24,172.12L143.27,179.94L165.31,193.05L176.33,198.5L187.35,203.67L198.37,207.87L220.41,216.27L231.43,219.71L264.49,229.7L275.51,232.53L330.61,245.21L341.63,247.26L396.73,257.19L407.76,259.59L429.8,262.91L440.82,264.81L484.9,270.86L495.92,272.17L540,277.97" style="vector-effect: non-scaling-stroke; fill: none; stroke: rgb(254, 203, 82); stroke-opacity: 1; stroke-width: 2px; opacity: 1;"/></g><g class="points"/><g class="text"/></g><g class="trace scatter tracef3c0c8" style="stroke-miterlimit: 2; opacity: 1;"><g class="fills"/><g class="errorbars"/><g class="lines"><path class="js-line" d="M0,2.28L11.02,12.65L22.04,31.79L33.06,52.66L44.08,68.38L55.1,80.57L66.12,90.19L77.14,99.25L88.16,109.47L121.22,140.69L132.24,150.45L143.27,158.79L154.29,166.14L176.33,178.44L187.35,183.86L209.39,193.35L220.41,197.09L253.47,208.44L264.49,211.22L297.55,219.5L308.57,221.5L330.61,226.14L341.63,228.68L407.76,240.16L418.78,241.43L429.8,242.39L440.82,244.55L506.94,253.5L517.96,254.55L540,257.06" style="vector-effect: non-scaling-stroke; fill: none; stroke: rgb(99, 110, 250); stroke-opacity: 1; stroke-width: 2px; opacity: 1;"/></g><g class="points"/><g class="text"/></g><g class="trace scatter tracef16106" style="stroke-miterlimit: 2; opacity: 1;"><g class="fills"/><g class="errorbars"/><g class="lines"><path class="js-line" d="M0,2.26L11.02,12.43L22.04,31.45L33.06,52.35L44.08,68.12L55.1,80.26L66.12,89.67L77.14,98.23L88.16,107.82L132.24,147.27L143.27,155.73L165.31,170.16L176.33,176.06L198.37,186.59L209.39,191.38L231.43,199.01L242.45,203.16L264.49,209.61L275.51,212.42L330.61,225.07L341.63,227.27L385.71,235.7L396.73,237.23L407.76,239.35L418.78,240.39L473.88,248.19L484.9,250.05L540,256.64" style="vector-effect: non-scaling-stroke; fill: none; stroke: rgb(239, 85, 59); stroke-opacity: 1; stroke-width: 2px; opacity: 1;"/></g><g class="points"/><g class="text"/></g><g class="trace scatter trace7ddf9b" style="stroke-miterlimit: 2; opacity: 1;"><g class="fills"/><g class="errorbars"/><g class="lines"><path class="js-line" d="M0,1.45L11.02,8.37L22.04,25.29L33.06,51.3L44.08,71.54L88.16,127.97L99.18,140.88L110.2,152.57L121.22,162.75L132.24,172.03L143.27,179.89L165.31,193.01L176.33,198.47L187.35,203.64L198.37,207.85L220.41,216.26L231.43,219.67L264.49,229.66L275.51,232.52L330.61,245.17L341.63,247.24L352.65,249.1L363.67,251.73L473.88,269.74L484.9,270.83L495.92,271.85L506.94,273.64L540,277.9" style="vector-effect: non-scaling-stroke; fill: none; stroke: rgb(0, 204, 150); stroke-opacity: 1; stroke-width: 2px; opacity: 1;"/></g><g class="points"/><g class="text"/></g><g class="trace scatter tracea404fd" style="stroke-miterlimit: 2; opacity: 1;"><g class="fills"/><g class="errorbars"/><g class="lines"><path class="js-line" d="M0,1.45L11.02,8.36L22.04,25.23L33.06,51.2L44.08,71.48L88.16,128.01L99.18,140.91L110.2,152.61L121.22,162.73L132.24,172.12L143.27,179.94L165.31,193.05L176.33,198.5L187.35,203.67L198.37,207.87L220.41,216.27L231.43,219.71L264.49,229.7L275.51,232.53L330.61,245.21L341.63,247.26L396.73,257.19L407.76,259.59L429.8,262.91L440.82,264.81L484.9,270.86L495.92,272.17L540,277.97" style="vector-effect: non-scaling-stroke; fill: none; stroke: rgb(171, 99, 250); stroke-opacity: 1; stroke-width: 2px; opacity: 1;"/></g><g class="points"/><g class="text"/></g><g class="trace scatter trace7aff6d" style="stroke-miterlimit: 2; opacity: 1;"><g class="fills"/><g class="errorbars"/><g class="lines"><path class="js-line" d="M0,2.27L11.02,12.41L22.04,31.37L33.06,52.25L44.08,68L55.1,80.05L66.12,89.16L88.16,106.46L99.18,115.65L121.22,134.3L132.24,144.07L154.29,160.3L165.31,167.45L187.35,179.2L198.37,184.47L209.39,189.39L220.41,193.3L253.47,205.05L264.49,208.18L308.57,219.02L319.59,221.81L385.71,234.96L396.73,236.52L407.76,238.83L418.78,240.29L429.8,241.47L440.82,243.52L462.86,246.97L473.88,247.93L484.9,250.06L495.92,251.11L517.96,254.41L528.98,255.66L540,257.18" style="vector-effect: non-scaling-stroke; fill: none; stroke: rgb(255, 161, 90); stroke-opacity: 1; stroke-width: 2px; opacity: 1;"/></g><g class="points"/><g class="text"/></g><g class="trace scatter trace9e5d6b" style="stroke-miterlimit: 2; opacity: 1;"><g class="fills"/><g class="errorbars"/><g class="lines"><path class="js-line" d="M0,2.33L11.02,12.7L22.04,31.78L33.06,52.72L44.08,68.5L55.1,80.68L66.12,90.29L77.14,99.32L88.16,109.54L132.24,150.44L143.27,158.77L165.31,172.64L176.33,178.39L198.37,188.68L209.39,193.3L253.47,208.34L264.49,211.08L297.55,219.23L308.57,221.25L330.61,225.94L341.63,228.45L407.76,239.87L418.78,241.11L429.8,242.2L440.82,244.38L506.94,253.3L517.96,254.33L540,256.85" style="vector-effect: non-scaling-stroke; fill: none; stroke: rgb(25, 211, 243); stroke-opacity: 1; stroke-width: 2px; opacity: 1;"/></g><g class="points"/><g class="text"/></g><g class="trace scatter traceaddcf3" style="stroke-miterlimit: 2; opacity: 1;"><g class="fills"/><g class="errorbars"/><g class="lines"><path class="js-line" d="M0,1.44L11.02,8.39L22.04,25.43L33.06,51.47L44.08,71.79L88.16,128.86L99.18,141.75L110.2,153.36L121.22,163.39L132.24,172.69L143.27,180.46L165.31,193.45L176.33,198.87L187.35,204L198.37,208.18L220.41,216.54L231.43,219.91L253.47,226.7L264.49,229.88L308.57,240.8L319.59,243.07L341.63,247.48L352.65,249.32L374.69,253.86L385.71,255.61L462.86,268.33L473.88,269.97L495.92,272.29L506.94,273.87L540,278.05" style="vector-effect: non-scaling-stroke; fill: none; stroke: rgb(255, 102, 146); stroke-opacity: 1; stroke-width: 2px; opacity: 1;"/></g><g class="points"/><g class="text"/></g><g class="trace scatter trace58bb28" style="stroke-miterlimit: 2; opacity: 1;"><g class="fills"/><g class="errorbars"/><g class="lines"><path class="js-line" d="M0,2.21L11.02,12.45L22.04,31.44L33.06,52.35L44.08,68.15L55.1,80.18L66.12,89.28L88.16,106.56L99.18,115.75L110.2,124.55L121.22,134.31L132.24,144.08L143.27,152.51L165.31,167.4L176.33,173.41L198.37,184.42L209.39,189.32L253.47,204.99L264.49,208.1L308.57,219L319.59,221.75L374.69,233.21L385.71,234.97L440.82,243.64L451.84,245.52L540,257.28" style="vector-effect: non-scaling-stroke; fill: none; stroke: rgb(182, 232, 128); stroke-opacity: 1; stroke-width: 2px; opacity: 1;"/></g><g class="points"/><g class="text"/></g><g class="trace scatter trace1b4c5b" style="stroke-miterlimit: 2; opacity: 1;"><g class="fills"/><g class="errorbars"/><g class="lines"><path class="js-line" d="M0,1.45L11.02,8.36L22.04,25.23L33.06,51.2L44.08,71.48L88.16,128L99.18,140.9L110.2,152.6L121.22,162.72L132.24,172.11L143.27,179.92L165.31,193.03L176.33,198.48L187.35,203.66L198.37,207.87L220.41,216.28L231.43,219.68L264.49,229.68L275.51,232.54L330.61,245.2L341.63,247.22L440.82,264.79L451.84,266.46L473.88,269.8L484.9,270.84L540,277.98" style="vector-effect: non-scaling-stroke; fill: none; stroke: rgb(255, 151, 255); stroke-opacity: 1; stroke-width: 2px; opacity: 1;"/></g><g class="points"/><g class="text"/></g><g class="trace scatter trace10a2d6" style="stroke-miterlimit: 2; opacity: 1;"><g class="fills"/><g class="errorbars"/><g class="lines"><path class="js-line" d="M0,1.45L11.02,8.36L22.04,25.23L33.06,51.2L44.08,71.48L88.16,128.01L99.18,140.91L110.2,152.61L121.22,162.73L132.24,172.12L143.27,179.94L165.31,193.05L176.33,198.5L187.35,203.67L198.37,207.87L220.41,216.27L231.43,219.71L264.49,229.7L275.51,232.53L330.61,245.21L341.63,247.26L396.73,257.19L407.76,259.59L429.8,262.91L440.82,264.81L484.9,270.86L495.92,272.17L540,277.97" style="vector-effect: non-scaling-stroke; fill: none; stroke: rgb(254, 203, 82); stroke-opacity: 1; stroke-width: 2px; opacity: 1;"/></g><g class="points"/><g class="text"/></g><g class="trace scatter tracec9f68c" style="stroke-miterlimit: 2; opacity: 1;"><g class="fills"/><g class="errorbars"/><g class="lines"><path class="js-line" d="M0,2.19L11.02,12.43L22.04,31.22L33.06,52.16L44.08,67.88L55.1,79.97L66.12,89L88.16,105.61L99.18,114.2L110.2,122.26L121.22,131.41L132.24,140.75L143.27,148.5L165.31,163.33L176.33,169.33L187.35,175.6L198.37,181L220.41,190.63L231.43,194.75L253.47,203L264.49,206.38L297.55,215.17L308.57,217.96L341.63,225.62L352.65,228.09L363.67,229.73L374.69,232.52L407.76,238.02L418.78,239.94L473.88,247.9L484.9,249.83L528.98,255.33L540,256.77" style="vector-effect: non-scaling-stroke; fill: none; stroke: rgb(99, 110, 250); stroke-opacity: 1; stroke-width: 2px; opacity: 1;"/></g><g class="points"/><g class="text"/></g><g class="trace scatter trace2fe2b4" style="stroke-miterlimit: 2; opacity: 1;"><g class="fills"/><g class="errorbars"/><g class="lines"><path class="js-line" d="M0,2.15L11.02,12.34L22.04,31.11L33.06,52.1L44.08,67.89L55.1,80L66.12,89.03L88.16,105.69L99.18,114.29L110.2,122.39L121.22,131.54L132.24,140.88L143.27,148.63L165.31,163.41L176.33,169.41L198.37,181.05L209.39,186.22L242.45,199.11L253.47,203.07L275.51,209.53L286.53,212.11L319.59,220.78L330.61,223.06L352.65,228.13L363.67,229.78L374.69,232.62L385.71,234.21L418.78,240.05L429.8,241.48L451.84,244.9L462.86,246.53L506.94,252.6L517.96,254.21L540,256.81" style="vector-effect: non-scaling-stroke; fill: none; stroke: rgb(239, 85, 59); stroke-opacity: 1; stroke-width: 2px; opacity: 1;"/></g><g class="points"/><g class="text"/></g><g class="trace scatter trace91d220" style="stroke-miterlimit: 2; opacity: 1;"><g class="fills"/><g class="errorbars"/><g class="lines"><path class="js-line" d="M0,1.45L11.02,8.36L22.04,25.23L33.06,51.2L44.08,71.48L88.16,128.01L99.18,140.91L110.2,152.61L121.22,162.73L132.24,172.12L143.27,179.94L165.31,193.05L176.33,198.5L187.35,203.67L198.37,207.87L220.41,216.27L231.43,219.71L264.49,229.7L275.51,232.53L330.61,245.21L341.63,247.26L396.73,257.19L407.76,259.59L429.8,262.91L440.82,264.81L484.9,270.86L495.92,272.17L540,277.97" style="vector-effect: non-scaling-stroke; fill: none; stroke: rgb(0, 204, 150); stroke-opacity: 1; stroke-width: 2px; opacity: 1;"/></g><g class="points"/><g class="text"/></g><g class="trace scatter traceb50c6d" style="stroke-miterlimit: 2; opacity: 1;"><g class="fills"/><g class="errorbars"/><g class="lines"><path class="js-line" d="M0,1.46L11.02,8.43L22.04,25.53L33.06,51.59L44.08,71.72L88.16,128.01L99.18,140.92L110.2,152.62L121.22,162.74L132.24,172.12L143.27,179.93L165.31,193.06L176.33,198.51L187.35,203.69L198.37,207.9L220.41,216.3L231.43,219.72L264.49,229.71L275.51,232.58L330.61,245.25L341.63,247.3L396.73,257.39L407.76,259.62L429.8,262.99L440.82,264.89L484.9,270.89L495.92,272.22L540,278.01" style="vector-effect: non-scaling-stroke; fill: none; stroke: rgb(171, 99, 250); stroke-opacity: 1; stroke-width: 2px; opacity: 1;"/></g><g class="points"/><g class="text"/></g><g class="trace scatter trace2e841e" style="stroke-miterlimit: 2; opacity: 1;"><g class="fills"/><g class="errorbars"/><g class="lines"><path class="js-line" d="M0,1.45L11.02,8.36L22.04,25.3L33.06,51.3L44.08,71.56L88.16,128.16L99.18,141.06L110.2,152.74L121.22,162.88L132.24,172.15L143.27,180.01L165.31,193.11L176.33,198.55L187.35,203.72L198.37,207.92L220.41,216.31L231.43,219.74L264.49,229.72L275.51,232.57L330.61,245.2L341.63,247.27L396.73,257.15L407.76,259.56L429.8,262.94L440.82,264.82L484.9,270.86L495.92,272.16L540,277.99" style="vector-effect: non-scaling-stroke; fill: none; stroke: rgb(255, 161, 90); stroke-opacity: 1; stroke-width: 2px; opacity: 1;"/></g><g class="points"/><g class="text"/></g><g class="trace scatter trace918324" style="stroke-miterlimit: 2; opacity: 1;"><g class="fills"/><g class="errorbars"/><g class="lines"><path class="js-line" d="M0,2.23L11.02,12.52L22.04,31.5L33.06,52.42L44.08,68.15L55.1,80.23L66.12,89.35L88.16,106.56L99.18,115.54L110.2,124.12L121.22,133.75L132.24,143.42L143.27,151.72L165.31,166.75L176.33,172.78L198.37,183.98L209.39,188.99L253.47,204.69L264.49,208.04L319.59,221.75L330.61,224.1L374.69,233.38L385.71,235.06L506.94,253.41L517.96,254.72L540,257.44" style="vector-effect: non-scaling-stroke; fill: none; stroke: rgb(25, 211, 243); stroke-opacity: 1; stroke-width: 2px; opacity: 1;"/></g><g class="points"/><g class="text"/></g><g class="trace scatter tracebb69f1" style="stroke-miterlimit: 2; opacity: 1;"><g class="fills"/><g class="errorbars"/><g class="lines"><path class="js-line" d="M0,1.51L11.02,8.21L22.04,25.22L33.06,51.05L44.08,71.07L99.18,138.22L110.2,150.11L132.24,170.16L143.27,178.2L165.31,191.71L176.33,197.26L187.35,202.6L198.37,206.91L220.41,215.48L231.43,218.92L264.49,229.02L275.51,231.9L330.61,244.5L341.63,246.77L352.65,248.5L363.67,251.17L429.8,262.17L440.82,264.04L484.9,270.17L495.92,271.26L528.98,276.25L540,277.52" style="vector-effect: non-scaling-stroke; fill: none; stroke: rgb(255, 102, 146); stroke-opacity: 1; stroke-width: 2px; opacity: 1;"/></g><g class="points"/><g class="text"/></g><g class="trace scatter trace50b7e8" style="stroke-miterlimit: 2; opacity: 1;"><g class="fills"/><g class="errorbars"/><g class="lines"><path class="js-line" d="M0,1.46L11.02,8.34L22.04,25.42L33.06,51.43L44.08,71.63L88.16,127.88L99.18,140.74L110.2,152.45L121.22,162.65L132.24,171.99L143.27,179.81L165.31,192.98L176.33,198.44L187.35,203.63L198.37,207.87L220.41,216.32L231.43,219.74L264.49,229.75L275.51,232.6L330.61,245.24L341.63,247.1L407.76,259.65L418.78,261.03L451.84,266.51L462.86,268.24L484.9,270.85L495.92,272.18L540,278.03" style="vector-effect: non-scaling-stroke; fill: none; stroke: rgb(182, 232, 128); stroke-opacity: 1; stroke-width: 2px; opacity: 1;"/></g><g class="points"/><g class="text"/></g><g class="trace scatter trace6f07c1" style="stroke-miterlimit: 2; opacity: 1;"><g class="fills"/><g class="errorbars"/><g class="lines"><path class="js-line" d="M0,1.45L11.02,8.36L22.04,25.23L33.06,51.2L44.08,71.48L88.16,128.01L99.18,140.91L110.2,152.61L121.22,162.73L132.24,172.12L143.27,179.94L165.31,193.05L176.33,198.5L187.35,203.67L198.37,207.87L220.41,216.27L231.43,219.71L264.49,229.7L275.51,232.53L330.61,245.21L341.63,247.26L396.73,257.19L407.76,259.59L429.8,262.91L440.82,264.81L484.9,270.86L495.92,272.17L540,277.97" style="vector-effect: non-scaling-stroke; fill: none; stroke: rgb(255, 151, 255); stroke-opacity: 1; stroke-width: 2px; opacity: 1;"/></g><g class="points"/><g class="text"/></g><g class="trace scatter trace7b1337" style="stroke-miterlimit: 2; opacity: 1;"><g class="fills"/><g class="errorbars"/><g class="lines"><path class="js-line" d="M0,2.31L11.02,12.79L22.04,31.84L33.06,52.71L44.08,68.41L55.1,80.46L66.12,89.82L77.14,98.38L88.16,108.07L132.24,147.82L143.27,156.3L165.31,170.59L176.33,176.47L198.37,186.96L209.39,191.67L253.47,206.83L264.49,209.71L297.55,217.87L308.57,219.85L330.61,224.9L341.63,227.28L385.71,235.48L396.73,236.89L407.76,239.03L418.78,240.29L429.8,241.57L440.82,243.65L517.96,253.84L528.98,254.56L540,256.33" style="vector-effect: non-scaling-stroke; fill: none; stroke: rgb(254, 203, 82); stroke-opacity: 1; stroke-width: 2px; opacity: 1;"/></g><g class="points"/><g class="text"/></g><g class="trace scatter trace55597e" style="stroke-miterlimit: 2; opacity: 1;"><g class="fills"/><g class="errorbars"/><g class="lines"><path class="js-line" d="M0,1.45L11.02,8.5L22.04,25.49L33.06,51.46L44.08,71.52L88.16,127.36L99.18,140.29L110.2,152.03L121.22,162.21L132.24,171.58L143.27,179.51L165.31,192.7L176.33,198.16L187.35,203.32L198.37,207.54L220.41,215.95L231.43,219.28L253.47,226.22L264.49,229.36L308.57,240.43L319.59,242.66L363.67,251.58L374.69,253.53L473.88,269.71L484.9,270.7L540,278" style="vector-effect: non-scaling-stroke; fill: none; stroke: rgb(99, 110, 250); stroke-opacity: 1; stroke-width: 2px; opacity: 1;"/></g><g class="points"/><g class="text"/></g><g class="trace scatter trace50e3c5" style="stroke-miterlimit: 2; opacity: 1;"><g class="fills"/><g class="errorbars"/><g class="lines"><path class="js-line" d="M0,1.46L11.02,8.41L22.04,25.5L33.06,51.53L44.08,71.72L88.16,128.25L99.18,141.12L110.2,152.82L121.22,162.93L132.24,172.27L143.27,180.07L165.31,193.17L176.33,198.61L187.35,203.78L198.37,207.96L220.41,216.42L231.43,219.82L264.49,229.8L275.51,232.65L330.61,245.31L341.63,247.28L440.82,264.9L451.84,266.61L473.88,269.9L484.9,270.91L540,278.05" style="vector-effect: non-scaling-stroke; fill: none; stroke: rgb(239, 85, 59); stroke-opacity: 1; stroke-width: 2px; opacity: 1;"/></g><g class="points"/><g class="text"/></g><g class="trace scatter trace9abec0" style="stroke-miterlimit: 2; opacity: 1;"><g class="fills"/><g class="errorbars"/><g class="lines"><path class="js-line" d="M0,2.22L11.02,12.52L22.04,31.41L33.06,52.36L44.08,68.09L55.1,80.15L66.12,89.19L88.16,105.9L99.18,114.53L110.2,122.64L121.22,131.78L132.24,141.23L143.27,149.05L165.31,163.93L176.33,169.92L187.35,176.22L198.37,181.6L220.41,191.09L231.43,195.18L253.47,203.37L264.49,206.75L308.57,218.22L319.59,220.93L374.69,232.71L385.71,234.42L418.78,240L429.8,241.52L451.84,245.18L462.86,246.66L495.92,251.28L506.94,252.73L540,256.95" style="vector-effect: non-scaling-stroke; fill: none; stroke: rgb(0, 204, 150); stroke-opacity: 1; stroke-width: 2px; opacity: 1;"/></g><g class="points"/><g class="text"/></g><g class="trace scatter tracea3ba56" style="stroke-miterlimit: 2; opacity: 1;"><g class="fills"/><g class="errorbars"/><g class="lines"><path class="js-line" d="M0,1.45L11.02,8.36L22.04,25.23L33.06,51.2L44.08,71.48L88.16,128.01L99.18,140.91L110.2,152.61L121.22,162.73L132.24,172.12L143.27,179.94L165.31,193.05L176.33,198.5L187.35,203.67L198.37,207.87L220.41,216.27L231.43,219.71L264.49,229.7L275.51,232.53L330.61,245.21L341.63,247.26L396.73,257.19L407.76,259.59L429.8,262.91L440.82,264.81L484.9,270.86L495.92,272.17L540,277.97" style="vector-effect: non-scaling-stroke; fill: none; stroke: rgb(171, 99, 250); stroke-opacity: 1; stroke-width: 2px; opacity: 1;"/></g><g class="points"/><g class="text"/></g><g class="trace scatter trace38aa38" style="stroke-miterlimit: 2; opacity: 1;"><g class="fills"/><g class="errorbars"/><g class="lines"><path class="js-line" d="M0,1.45L11.02,8.38L22.04,25.5L33.06,51.5L44.08,71.68L88.16,127.94L99.18,140.81L110.2,152.52L121.22,162.69L132.24,172.04L143.27,179.86L165.31,193.02L176.33,198.47L187.35,203.65L198.37,207.85L220.41,216.3L231.43,219.75L264.49,229.72L275.51,232.6L330.61,245.23L341.63,247.2L396.73,257.34L407.76,259.65L429.8,263.02L440.82,264.86L484.9,270.84L495.92,272.19L540,277.99" style="vector-effect: non-scaling-stroke; fill: none; stroke: rgb(255, 161, 90); stroke-opacity: 1; stroke-width: 2px; opacity: 1;"/></g><g class="points"/><g class="text"/></g><g class="trace scatter tracee565fe" style="stroke-miterlimit: 2; opacity: 1;"><g class="fills"/><g class="errorbars"/><g class="lines"><path class="js-line" d="M0,1.45L11.02,8.38L22.04,25.32L33.06,51.33L44.08,71.57L88.16,128.05L99.18,140.92L110.2,152.64L121.22,162.78L132.24,172.07L143.27,179.94L165.31,193.05L176.33,198.5L187.35,203.67L198.37,207.87L220.41,216.27L231.43,219.69L264.49,229.67L275.51,232.53L330.61,245.19L341.63,247.25L352.65,249.11L363.67,251.74L462.86,268.19L473.88,269.8L506.94,273.64L517.96,275.05L540,277.95" style="vector-effect: non-scaling-stroke; fill: none; stroke: rgb(25, 211, 243); stroke-opacity: 1; stroke-width: 2px; opacity: 1;"/></g><g class="points"/><g class="text"/></g><g class="trace scatter tracee6a12f" style="stroke-miterlimit: 2; opacity: 1;"><g class="fills"/><g class="errorbars"/><g class="lines"><path class="js-line" d="M0,1.45L11.02,8.52L22.04,25.66L33.06,51.68L44.08,71.74L88.16,127.93L99.18,140.8L110.2,152.52L121.22,162.62L132.24,171.95L143.27,179.85L165.31,192.95L176.33,198.4L187.35,203.53L198.37,207.75L220.41,216.13L231.43,219.43L253.47,226.39L264.49,229.52L308.57,240.55L319.59,242.74L341.63,247.36L352.65,249.12L374.69,253.69L385.71,255.39L462.86,268.2L473.88,269.83L495.92,272.14L506.94,273.82L540,278.12" style="vector-effect: non-scaling-stroke; fill: none; stroke: rgb(255, 102, 146); stroke-opacity: 1; stroke-width: 2px; opacity: 1;"/></g><g class="points"/><g class="text"/></g><g class="trace scatter trace206bf0" style="stroke-miterlimit: 2; opacity: 1;"><g class="fills"/><g class="errorbars"/><g class="lines"><path class="js-line" d="M0,1.46L11.02,8.39L22.04,25.58L33.06,51.63L44.08,71.89L88.16,128.88L99.18,141.75L110.2,153.37L121.22,163.41L132.24,172.7L143.27,180.45L165.31,193.46L176.33,198.87L187.35,204L198.37,208.17L220.41,216.55L231.43,219.92L264.49,229.89L275.51,232.77L330.61,245.39L341.63,247.46L440.82,264.99L451.84,266.7L484.9,271.01L495.92,272.31L540,278.1" style="vector-effect: non-scaling-stroke; fill: none; stroke: rgb(182, 232, 128); stroke-opacity: 1; stroke-width: 2px; opacity: 1;"/></g><g class="points"/><g class="text"/></g><g class="trace scatter tracee21025" style="stroke-miterlimit: 2; opacity: 1;"><g class="fills"/><g class="errorbars"/><g class="lines"><path class="js-line" d="M0,1.4L11.02,8.46L22.04,25.26L33.06,51.35L44.08,71.69L88.16,128.81L99.18,141.73L110.2,153.34L121.22,163.37L132.24,172.68L143.27,180.45L165.31,193.42L176.33,198.85L187.35,203.99L198.37,208.19L220.41,216.53L231.43,219.9L264.49,229.88L275.51,232.75L330.61,245.4L341.63,247.52L352.65,249.29L363.67,251.99L462.86,268.35L473.88,269.98L495.92,272.25L506.94,273.89L540,278.07" style="vector-effect: non-scaling-stroke; fill: none; stroke: rgb(255, 151, 255); stroke-opacity: 1; stroke-width: 2px; opacity: 1;"/></g><g class="points"/><g class="text"/></g><g class="trace scatter traceca158b" style="stroke-miterlimit: 2; opacity: 1;"><g class="fills"/><g class="errorbars"/><g class="lines"><path class="js-line" d="M0,2.2L11.02,12.36L22.04,31.23L33.06,52.13L44.08,67.94L55.1,80.04L66.12,89.15L88.16,106.42L99.18,115.53L110.2,124.25L121.22,133.96L132.24,143.65L143.27,152.07L165.31,167.02L176.33,173.04L198.37,184.1L209.39,189.04L253.47,204.74L264.49,207.93L319.59,221.65L330.61,223.96L374.69,233.17L385.71,234.87L462.86,247.01L473.88,247.97L506.94,253.22L517.96,254.43L540,257.34" style="vector-effect: non-scaling-stroke; fill: none; stroke: rgb(254, 203, 82); stroke-opacity: 1; stroke-width: 2px; opacity: 1;"/></g><g class="points"/><g class="text"/></g></g></g><g class="overplot"/><path class="xlines-above crisp" d="M0,0" style="fill: none;"/><path class="ylines-above crisp" d="M0,0" style="fill: none;"/><g class="overlines-above"/><g class="xaxislayer-above"><g class="xtick"><text text-anchor="middle" x="0" y="433" transform="translate(80,0)" style="font-family: 'Open Sans', verdana, arial, sans-serif; font-size: 12px; fill: rgb(42, 63, 95); fill-opacity: 1; white-space: pre; opacity: 1;">0</text></g><g class="xtick"><text text-anchor="middle" x="0" y="433" style="font-family: 'Open Sans', verdana, arial, sans-serif; font-size: 12px; fill: rgb(42, 63, 95); fill-opacity: 1; white-space: pre; opacity: 1;" transform="translate(190.2,0)">10</text></g><g class="xtick"><text text-anchor="middle" x="0" y="433" style="font-family: 'Open Sans', verdana, arial, sans-serif; font-size: 12px; fill: rgb(42, 63, 95); fill-opacity: 1; white-space: pre; opacity: 1;" transform="translate(300.40999999999997,0)">20</text></g><g class="xtick"><text text-anchor="middle" x="0" y="433" style="font-family: 'Open Sans', verdana, arial, sans-serif; font-size: 12px; fill: rgb(42, 63, 95); fill-opacity: 1; white-space: pre; opacity: 1;" transform="translate(410.61,0)">30</text></g><g class="xtick"><text text-anchor="middle" x="0" y="433" style="font-family: 'Open Sans', verdana, arial, sans-serif; font-size: 12px; fill: rgb(42, 63, 95); fill-opacity: 1; white-space: pre; opacity: 1;" transform="translate(520.8199999999999,0)">40</text></g></g><g class="yaxislayer-above"><g class="ytick"><text text-anchor="end" x="79" y="4.199999999999999" transform="translate(0,344.05)" style="font-family: 'Open Sans', verdana, arial, sans-serif; font-size: 12px; fill: rgb(42, 63, 95); fill-opacity: 1; white-space: pre; opacity: 1;">4</text></g><g class="ytick"><text text-anchor="end" x="79" y="4.199999999999999" style="font-family: 'Open Sans', verdana, arial, sans-serif; font-size: 12px; fill: rgb(42, 63, 95); fill-opacity: 1; white-space: pre; opacity: 1;" transform="translate(0,265.81)">4.5</text></g><g class="ytick"><text text-anchor="end" x="79" y="4.199999999999999" style="font-family: 'Open Sans', verdana, arial, sans-serif; font-size: 12px; fill: rgb(42, 63, 95); fill-opacity: 1; white-space: pre; opacity: 1;" transform="translate(0,187.57)">5</text></g><g class="ytick"><text text-anchor="end" x="79" y="4.199999999999999" style="font-family: 'Open Sans', verdana, arial, sans-serif; font-size: 12px; fill: rgb(42, 63, 95); fill-opacity: 1; white-space: pre; opacity: 1;" transform="translate(0,109.33)">5.5</text></g></g><g class="overaxes-above"/></g></g><g class="polarlayer"/><g class="ternarylayer"/><g class="geolayer"/><g class="funnelarealayer"/><g class="pielayer"/><g class="iciclelayer"/><g class="treemaplayer"/><g class="sunburstlayer"/><g class="glimages"/><defs id="topdefs-f16353"><g class="clips"/></defs><g class="layer-above"><g class="imagelayer"/><g class="shapelayer"/></g><g class="infolayer"><g class="g-gtitle"><text class="gtitle" x="35" y="50" text-anchor="start" dy="0em" style="font-family: 'Open Sans', verdana, arial, sans-serif; font-size: 17px; fill: rgb(42, 63, 95); opacity: 1; font-weight: normal; white-space: pre;">Train Loss: dpav4-simplified_eff_cnn</text></g><g class="g-xtitle"/><g class="g-ytitle"/></g></svg>