<svg class="main-svg" xmlns="http://www.w3.org/2000/svg" xmlns:xlink="http://www.w3.org/1999/xlink" width="700" height="500" style="" viewBox="0 0 700 500"><rect x="0" y="0" width="700" height="500" style="fill: rgb(255, 255, 255); fill-opacity: 1;"/><defs id="defs-0a916d"><g class="clips"><clipPath id="clip0a916dxyplot" class="plotclip"><rect width="476" height="320"/></clipPath><clipPath class="axesclip" id="clip0a916dx"><rect x="80" y="0" width="476" height="500"/></clipPath><clipPath class="axesclip" id="clip0a916dy"><rect x="0" y="100" width="700" height="320"/></clipPath><clipPath class="axesclip" id="clip0a916dxy"><rect x="80" y="100" width="476" height="320"/></clipPath></g><g class="gradients"/><g class="patterns"/></defs><g class="bglayer"><rect class="bg" x="80" y="100" width="476" height="320" style="fill: rgb(229, 236, 246); fill-opacity: 1; stroke-width: 0;"/></g><g class="layer-below"><g class="imagelayer"/><g class="shapelayer"/></g><g class="cartesianlayer"><g class="subplot xy"><g class="layer-subplot"><g class="shapelayer"/><g class="imagelayer"/></g><g class="gridlayer"><g class="x"/><g class="y"><path class="ygrid crisp" transform="translate(0,363.82)" d="M80,0h476" style="stroke: rgb(255, 255, 255); stroke-opacity: 1; stroke-width: 1px;"/><path class="ygrid crisp" transform="translate(0,310.49)" d="M80,0h476" style="stroke: rgb(255, 255, 255); stroke-opacity: 1; stroke-width: 1px;"/><path class="ygrid crisp" transform="translate(0,257.15)" d="M80,0h476" style="stroke: rgb(255, 255, 255); stroke-opacity: 1; stroke-width: 1px;"/><path class="ygrid crisp" transform="translate(0,203.82)" d="M80,0h476" style="stroke: rgb(255, 255, 255); stroke-opacity: 1; stroke-width: 1px;"/><path class="ygrid crisp" transform="translate(0,150.48)" d="M80,0h476" style="stroke: rgb(255, 255, 255); stroke-opacity: 1; stroke-width: 1px;"/></g></g><g class="zerolinelayer"><path class="yzl zl crisp" transform="translate(0,417.16)" d="M80,0h476" style="stroke: rgb(255, 255, 255); stroke-opacity: 1; stroke-width: 2px;"/></g><path class="xlines-below"/><path class="ylines-below"/><g class="overlines-below"/><g class="xaxislayer-below"/><g class="yaxislayer-below"/><g class="overaxes-below"/><g class="plot" transform="translate(80,100)" clip-path="url(#clip0a916dxyplot)"><g class="violinlayer mlayer"><g class="trace violins" style="opacity: 1;"><path class="violin" d="M243.91,290.62Q246.71,289.28 248.43,288.69C250.59,287.95 253.17,287.35 255.92,286.75C259.23,286.03 263.03,285.43 266.97,284.82C271.48,284.13 276.47,283.51 281.5,282.89C286.93,282.22 292.75,281.59 298.44,280.95C304.21,280.3 310.23,279.68 315.89,279.02C321.27,278.39 326.71,277.77 331.62,277.08C335.95,276.47 340.22,275.88 343.82,275.15C346.72,274.56 349.56,274.02 351.61,273.22C353.06,272.65 354.6,272.09 355.15,271.28C355.53,270.72 355.59,269.95 355.39,269.35C355.15,268.64 354.23,268.01 353.46,267.41C352.56,266.71 351.42,266.09 350.27,265.48C348.99,264.8 347.6,264.16 346.11,263.55C344.44,262.86 342.65,262.22 340.7,261.61C338.48,260.92 336.06,260.29 333.5,259.68C330.62,258.99 327.47,258.36 324.24,257.74C320.73,257.07 316.97,256.44 313.23,255.81C309.34,255.15 305.28,254.53 301.34,253.88C297.43,253.24 293.46,252.6 289.67,251.94C286.06,251.31 282.49,250.68 279.11,250.01C275.98,249.39 272.94,248.76 270.08,248.08C267.46,247.46 264.96,246.82 262.6,246.14C260.46,245.52 258.41,244.89 256.51,244.21C254.79,243.59 253.14,242.96 251.65,242.27C250.33,241.66 249.07,241.04 248,240.34C247.07,239.74 246.2,239.11 245.56,238.41C245.01,237.81 244.55,237.14 244.28,236.47C244.04,235.85 243.96,235.19 243.95,234.54C243.94,233.9 244.1,233.24 244.21,232.6C244.32,231.95 244.52,231.32 244.61,230.67C244.7,230.03 244.79,229.38 244.77,228.74C244.75,228.09 244.65,227.44 244.48,226.8C244.31,226.15 244.03,225.51 243.75,224.87C243.46,224.22 243.09,223.57 242.76,222.93C242.43,222.28 242.06,221.65 241.75,221C241.44,220.36 241.14,219.72 240.89,219.07C240.64,218.43 240.43,217.78 240.26,217.13C240.09,216.49 239.98,215.85 239.88,215.2C239.78,214.56 239.72,213.91 239.67,213.26C239.62,212.62 239.6,211.97 239.57,211.33C239.55,210.69 239.53,210.04 239.52,209.4C239.51,208.75 239.51,208.11 239.51,207.46C239.51,206.82 239.5,206.17 239.5,205.53C239.5,204.88 239.5,204.24 239.5,203.59C239.5,202.95 239.5,202.3 239.5,201.66C239.5,201.02 239.5,200.37 239.5,199.73C239.5,199.08 239.5,198.44 239.5,197.79C239.5,197.15 239.5,196.5 239.5,195.86C239.5,195.21 239.5,194.57 239.51,193.92C239.51,193.28 239.52,192.63 239.53,191.99C239.54,191.35 239.55,190.7 239.58,190.06C239.61,189.41 239.64,188.76 239.7,188.12C239.76,187.47 239.83,186.83 239.94,186.19C240.05,185.54 240.19,184.89 240.37,184.25C240.55,183.6 240.78,182.96 241.04,182.32C241.3,181.67 241.62,181.03 241.94,180.39C242.26,179.74 242.64,179.1 242.97,178.45C243.3,177.81 243.65,177.17 243.91,176.52C244.17,175.88 244.41,175.23 244.53,174.58C244.65,173.94 244.69,173.29 244.63,172.65C244.57,172 244.4,171.35 244.19,170.72C243.97,170.06 243.65,169.42 243.34,168.78C243.03,168.13 242.65,167.5 242.32,166.85C241.99,166.21 241.64,165.56 241.35,164.91C241.07,164.27 240.8,163.63 240.59,162.98C240.38,162.34 240.21,161.7 240.07,161.05C239.93,160.41 239.85,159.76 239.77,159.11C239.69,158.47 239.65,157.82 239.61,157.18C239.57,156.54 239.56,155.89 239.54,155.25C239.52,154.6 239.52,153.96 239.51,153.31C239.5,152.67 239.5,152.02 239.5,151.38C239.5,150.73 239.5,150.09 239.5,149.44C239.5,148.8 239.5,148.15 239.5,147.51C239.5,146.87 239.5,146.22 239.5,145.58C239.5,144.93 239.5,144.29 239.5,143.64C239.5,143 239.5,142.35 239.5,141.71C239.5,141.06 239.5,140.42 239.5,139.77C239.5,139.13 239.5,138.48 239.5,137.84C239.5,137.2 239.5,136.55 239.5,135.91C239.5,135.26 239.5,134.62 239.5,133.97C239.5,133.33 239.5,132.68 239.5,132.04C239.5,131.39 239.5,130.75 239.5,130.1C239.5,129.46 239.5,128.81 239.5,128.17C239.5,127.53 239.5,126.88 239.5,126.24C239.5,125.59 239.5,124.95 239.5,124.3C239.5,123.66 239.5,123.01 239.5,122.37C239.5,121.72 239.5,121.08 239.5,120.43C239.5,119.79 239.5,119.14 239.5,118.5C239.5,117.86 239.5,117.21 239.5,116.57C239.5,115.92 239.5,115.28 239.5,114.63C239.5,113.99 239.5,113.34 239.5,112.7C239.5,112.05 239.5,111.41 239.5,110.76C239.5,110.12 239.5,109.47 239.5,108.83C239.5,108.19 239.5,107.54 239.5,106.9C239.5,106.25 239.5,105.61 239.5,104.96C239.5,104.32 239.5,103.67 239.5,103.03C239.5,102.38 239.5,101.74 239.5,101.09C239.5,100.45 239.5,99.8 239.5,99.16C239.5,98.52 239.5,97.87 239.5,97.23C239.5,96.58 239.5,95.94 239.5,95.29C239.5,94.65 239.5,94 239.5,93.36C239.5,92.71 239.5,92.07 239.5,91.42C239.5,90.78 239.5,90.13 239.5,89.49C239.5,88.85 239.5,88.2 239.5,87.56C239.5,86.91 239.5,86.27 239.5,85.62C239.5,84.98 239.5,84.33 239.5,83.69C239.5,83.04 239.5,82.4 239.5,81.75C239.5,81.11 239.5,80.46 239.5,79.82C239.5,79.18 239.5,78.53 239.5,77.89C239.5,77.24 239.5,76.6 239.5,75.95C239.5,75.31 239.5,74.66 239.5,74.02C239.5,73.37 239.5,72.73 239.5,72.08C239.5,71.44 239.5,70.79 239.5,70.15C239.5,69.51 239.5,68.86 239.5,68.22C239.5,67.57 239.5,66.93 239.5,66.28C239.5,65.64 239.5,64.99 239.5,64.35C239.5,63.71 239.5,63.06 239.5,62.42C239.5,61.77 239.5,61.13 239.5,60.48C239.5,59.84 239.5,59.19 239.5,58.55C239.5,57.9 239.5,57.26 239.5,56.61C239.5,55.97 239.5,55.32 239.5,54.68C239.5,54.04 239.5,53.39 239.5,52.75C239.5,52.1 239.5,51.46 239.5,50.81C239.5,50.17 239.51,49.52 239.51,48.88C239.51,48.23 239.51,47.59 239.52,46.94C239.53,46.3 239.54,45.65 239.56,45.01C239.58,44.37 239.61,43.72 239.66,43.08C239.71,42.43 239.76,41.78 239.85,41.14C239.94,40.49 240.06,39.85 240.22,39.21C240.38,38.56 240.58,37.91 240.82,37.27C241.06,36.62 241.35,35.98 241.66,35.34C241.97,34.69 242.34,34.06 242.67,33.41C243,32.77 243.37,32.12 243.66,31.47C243.94,30.83 244.23,30.19 244.4,29.54C244.56,28.9 244.67,28.25 244.66,27.6C244.65,26.96 244.54,26.3 244.37,25.67C244.2,25.02 243.91,24.38 243.62,23.74C243.33,23.09 242.96,22.45 242.62,21.8C242.29,21.16 241.92,20.52 241.61,19.87C241.31,19.23 241.02,18.58 240.78,17.93Q240.55,17.29 240.2,16L238.8,16Q238.45,17.29 238.22,17.93C237.98,18.58 237.69,19.23 237.39,19.87C237.08,20.52 236.71,21.16 236.38,21.8C236.04,22.45 235.67,23.09 235.38,23.74C235.09,24.38 234.8,25.02 234.63,25.67C234.46,26.3 234.35,26.96 234.34,27.6C234.33,28.25 234.44,28.9 234.6,29.54C234.77,30.19 235.06,30.83 235.34,31.47C235.63,32.12 236,32.77 236.33,33.41C236.66,34.06 237.03,34.69 237.34,35.34C237.65,35.98 237.94,36.62 238.18,37.27C238.42,37.91 238.62,38.56 238.78,39.21C238.94,39.85 239.06,40.49 239.15,41.14C239.24,41.78 239.29,42.43 239.34,43.08C239.39,43.72 239.42,44.37 239.44,45.01C239.46,45.65 239.47,46.3 239.48,46.94C239.49,47.59 239.49,48.23 239.49,48.88C239.49,49.52 239.5,50.17 239.5,50.81C239.5,51.46 239.5,52.1 239.5,52.75C239.5,53.39 239.5,54.04 239.5,54.68C239.5,55.32 239.5,55.97 239.5,56.61C239.5,57.26 239.5,57.9 239.5,58.55C239.5,59.19 239.5,59.84 239.5,60.48C239.5,61.13 239.5,61.77 239.5,62.42C239.5,63.06 239.5,63.71 239.5,64.35C239.5,64.99 239.5,65.64 239.5,66.28C239.5,66.93 239.5,67.57 239.5,68.22C239.5,68.86 239.5,69.51 239.5,70.15C239.5,70.79 239.5,71.44 239.5,72.08C239.5,72.73 239.5,73.37 239.5,74.02C239.5,74.66 239.5,75.31 239.5,75.95C239.5,76.6 239.5,77.24 239.5,77.89C239.5,78.53 239.5,79.18 239.5,79.82C239.5,80.46 239.5,81.11 239.5,81.75C239.5,82.4 239.5,83.04 239.5,83.69C239.5,84.33 239.5,84.98 239.5,85.62C239.5,86.27 239.5,86.91 239.5,87.56C239.5,88.2 239.5,88.85 239.5,89.49C239.5,90.13 239.5,90.78 239.5,91.42C239.5,92.07 239.5,92.71 239.5,93.36C239.5,94 239.5,94.65 239.5,95.29C239.5,95.94 239.5,96.58 239.5,97.23C239.5,97.87 239.5,98.52 239.5,99.16C239.5,99.8 239.5,100.45 239.5,101.09C239.5,101.74 239.5,102.38 239.5,103.03C239.5,103.67 239.5,104.32 239.5,104.96C239.5,105.61 239.5,106.25 239.5,106.9C239.5,107.54 239.5,108.19 239.5,108.83C239.5,109.47 239.5,110.12 239.5,110.76C239.5,111.41 239.5,112.05 239.5,112.7C239.5,113.34 239.5,113.99 239.5,114.63C239.5,115.28 239.5,115.92 239.5,116.57C239.5,117.21 239.5,117.86 239.5,118.5C239.5,119.14 239.5,119.79 239.5,120.43C239.5,121.08 239.5,121.72 239.5,122.37C239.5,123.01 239.5,123.66 239.5,124.3C239.5,124.95 239.5,125.59 239.5,126.24C239.5,126.88 239.5,127.53 239.5,128.17C239.5,128.81 239.5,129.46 239.5,130.1C239.5,130.75 239.5,131.39 239.5,132.04C239.5,132.68 239.5,133.33 239.5,133.97C239.5,134.62 239.5,135.26 239.5,135.91C239.5,136.55 239.5,137.2 239.5,137.84C239.5,138.48 239.5,139.13 239.5,139.77C239.5,140.42 239.5,141.06 239.5,141.71C239.5,142.35 239.5,143 239.5,143.64C239.5,144.29 239.5,144.93 239.5,145.58C239.5,146.22 239.5,146.87 239.5,147.51C239.5,148.15 239.5,148.8 239.5,149.44C239.5,150.09 239.5,150.73 239.5,151.38C239.5,152.02 239.5,152.67 239.49,153.31C239.48,153.96 239.48,154.6 239.46,155.25C239.44,155.89 239.43,156.54 239.39,157.18C239.35,157.82 239.31,158.47 239.23,159.11C239.15,159.76 239.07,160.41 238.93,161.05C238.79,161.7 238.62,162.34 238.41,162.98C238.2,163.63 237.93,164.27 237.65,164.91C237.36,165.56 237.01,166.21 236.68,166.85C236.35,167.5 235.97,168.13 235.66,168.78C235.35,169.42 235.03,170.06 234.81,170.72C234.6,171.35 234.43,172 234.37,172.65C234.31,173.29 234.35,173.94 234.47,174.58C234.59,175.23 234.83,175.88 235.09,176.52C235.35,177.17 235.7,177.81 236.03,178.45C236.36,179.1 236.74,179.74 237.06,180.39C237.38,181.03 237.7,181.67 237.96,182.32C238.22,182.96 238.45,183.6 238.63,184.25C238.81,184.89 238.95,185.54 239.06,186.19C239.17,186.83 239.24,187.47 239.3,188.12C239.36,188.76 239.39,189.41 239.42,190.06C239.45,190.7 239.46,191.35 239.47,191.99C239.48,192.63 239.49,193.28 239.49,193.92C239.5,194.57 239.5,195.21 239.5,195.86C239.5,196.5 239.5,197.15 239.5,197.79C239.5,198.44 239.5,199.08 239.5,199.73C239.5,200.37 239.5,201.02 239.5,201.66C239.5,202.3 239.5,202.95 239.5,203.59C239.5,204.24 239.5,204.88 239.5,205.53C239.5,206.17 239.49,206.82 239.49,207.46C239.49,208.11 239.49,208.75 239.48,209.4C239.47,210.04 239.45,210.69 239.43,211.33C239.4,211.97 239.38,212.62 239.33,213.26C239.28,213.91 239.22,214.56 239.12,215.2C239.02,215.85 238.91,216.49 238.74,217.13C238.57,217.78 238.36,218.43 238.11,219.07C237.86,219.72 237.56,220.36 237.25,221C236.94,221.65 236.57,222.28 236.24,222.93C235.91,223.57 235.54,224.22 235.25,224.87C234.97,225.51 234.69,226.15 234.52,226.8C234.35,227.44 234.25,228.09 234.23,228.74C234.21,229.38 234.3,230.03 234.39,230.67C234.48,231.32 234.68,231.95 234.79,232.6C234.9,233.24 235.06,233.9 235.05,234.54C235.04,235.19 234.96,235.85 234.72,236.47C234.45,237.14 233.99,237.81 233.44,238.41C232.8,239.11 231.93,239.74 231,240.34C229.93,241.04 228.67,241.66 227.35,242.27C225.86,242.96 224.21,243.59 222.49,244.21C220.59,244.89 218.54,245.52 216.4,246.14C214.04,246.82 211.54,247.46 208.92,248.08C206.06,248.76 203.02,249.39 199.89,250.01C196.51,250.68 192.94,251.31 189.33,251.94C185.54,252.6 181.57,253.24 177.66,253.88C173.72,254.53 169.66,255.15 165.77,255.81C162.03,256.44 158.27,257.07 154.76,257.74C151.53,258.36 148.38,258.99 145.5,259.68C142.94,260.29 140.52,260.92 138.3,261.61C136.35,262.22 134.56,262.86 132.89,263.55C131.4,264.16 130.01,264.8 128.73,265.48C127.58,266.09 126.43,266.71 125.54,267.41C124.78,268.01 123.86,268.64 123.62,269.35C123.41,269.95 123.47,270.72 123.85,271.28C124.4,272.09 125.94,272.65 127.39,273.22C129.44,274.02 132.28,274.56 135.18,275.15C138.78,275.88 143.05,276.47 147.38,277.08C152.29,277.77 157.73,278.39 163.11,279.02C168.77,279.68 174.79,280.3 180.56,280.95C186.25,281.59 192.07,282.22 197.5,282.89C202.53,283.51 207.52,284.13 212.03,284.82C215.97,285.43 219.77,286.03 223.08,286.75C225.83,287.35 228.41,287.95 230.57,288.69Q232.29,289.28 235.09,290.62Z" style="vector-effect: non-scaling-stroke; stroke-width: 2px; stroke: rgb(99, 110, 250); stroke-opacity: 1; fill: rgb(99, 110, 250); fill-opacity: 0.5;"/><g class="points"><path class="point" transform="translate(80.26,278.97)" d="M3,0A3,3 0 1,1 0,-3A3,3 0 0,1 3,0Z" style="opacity: 1; stroke-width: 0px; fill: rgb(99, 110, 250); fill-opacity: 1;"/><path class="point" transform="translate(46.41,278.76)" d="M3,0A3,3 0 1,1 0,-3A3,3 0 0,1 3,0Z" style="opacity: 1; stroke-width: 0px; fill: rgb(99, 110, 250); fill-opacity: 1;"/><path class="point" transform="translate(90.09,278.65)" d="M3,0A3,3 0 1,1 0,-3A3,3 0 0,1 3,0Z" style="opacity: 1; stroke-width: 0px; fill: rgb(99, 110, 250); fill-opacity: 1;"/><path class="point" transform="translate(37.67,278.54)" d="M3,0A3,3 0 1,1 0,-3A3,3 0 0,1 3,0Z" style="opacity: 1; stroke-width: 0px; fill: rgb(99, 110, 250); fill-opacity: 1;"/><path class="point" transform="translate(57.3,276.62)" d="M3,0A3,3 0 1,1 0,-3A3,3 0 0,1 3,0Z" style="opacity: 1; stroke-width: 0px; fill: rgb(99, 110, 250); fill-opacity: 1;"/><path class="point" transform="translate(83.92,276.2)" d="M3,0A3,3 0 1,1 0,-3A3,3 0 0,1 3,0Z" style="opacity: 1; stroke-width: 0px; fill: rgb(99, 110, 250); fill-opacity: 1;"/><path class="point" transform="translate(64.4,276.09)" d="M3,0A3,3 0 1,1 0,-3A3,3 0 0,1 3,0Z" style="opacity: 1; stroke-width: 0px; fill: rgb(99, 110, 250); fill-opacity: 1;"/><path class="point" transform="translate(73.53,275.88)" d="M3,0A3,3 0 1,1 0,-3A3,3 0 0,1 3,0Z" style="opacity: 1; stroke-width: 0px; fill: rgb(99, 110, 250); fill-opacity: 1;"/><path class="point" transform="translate(57.32,275.77)" d="M3,0A3,3 0 1,1 0,-3A3,3 0 0,1 3,0Z" style="opacity: 1; stroke-width: 0px; fill: rgb(99, 110, 250); fill-opacity: 1;"/><path class="point" transform="translate(43.01,275.56)" d="M3,0A3,3 0 1,1 0,-3A3,3 0 0,1 3,0Z" style="opacity: 1; stroke-width: 0px; fill: rgb(99, 110, 250); fill-opacity: 1;"/><path class="point" transform="translate(73.93,275.34)" d="M3,0A3,3 0 1,1 0,-3A3,3 0 0,1 3,0Z" style="opacity: 1; stroke-width: 0px; fill: rgb(99, 110, 250); fill-opacity: 1;"/><path class="point" transform="translate(56.91,275.02)" d="M3,0A3,3 0 1,1 0,-3A3,3 0 0,1 3,0Z" style="opacity: 1; stroke-width: 0px; fill: rgb(99, 110, 250); fill-opacity: 1;"/><path class="point" transform="translate(82.7,272.68)" d="M3,0A3,3 0 1,1 0,-3A3,3 0 0,1 3,0Z" style="opacity: 1; stroke-width: 0px; fill: rgb(99, 110, 250); fill-opacity: 1;"/><path class="point" transform="translate(39.3,272.14)" d="M3,0A3,3 0 1,1 0,-3A3,3 0 0,1 3,0Z" style="opacity: 1; stroke-width: 0px; fill: rgb(99, 110, 250); fill-opacity: 1;"/><path class="point" transform="translate(51.34,272.04)" d="M3,0A3,3 0 1,1 0,-3A3,3 0 0,1 3,0Z" style="opacity: 1; stroke-width: 0px; fill: rgb(99, 110, 250); fill-opacity: 1;"/><path class="point" transform="translate(87.75,271.61)" d="M3,0A3,3 0 1,1 0,-3A3,3 0 0,1 3,0Z" style="opacity: 1; stroke-width: 0px; fill: rgb(99, 110, 250); fill-opacity: 1;"/><path class="point" transform="translate(59.37,269.9)" d="M3,0A3,3 0 1,1 0,-3A3,3 0 0,1 3,0Z" style="opacity: 1; stroke-width: 0px; fill: rgb(99, 110, 250); fill-opacity: 1;"/><path class="point" transform="translate(41.54,269.8)" d="M3,0A3,3 0 1,1 0,-3A3,3 0 0,1 3,0Z" style="opacity: 1; stroke-width: 0px; fill: rgb(99, 110, 250); fill-opacity: 1;"/><path class="point" transform="translate(56,269.8)" d="M3,0A3,3 0 1,1 0,-3A3,3 0 0,1 3,0Z" style="opacity: 1; stroke-width: 0px; fill: rgb(99, 110, 250); fill-opacity: 1;"/><path class="point" transform="translate(65.05,268.41)" d="M3,0A3,3 0 1,1 0,-3A3,3 0 0,1 3,0Z" style="opacity: 1; stroke-width: 0px; fill: rgb(99, 110, 250); fill-opacity: 1;"/><path class="point" transform="translate(78.83,268.3)" d="M3,0A3,3 0 1,1 0,-3A3,3 0 0,1 3,0Z" style="opacity: 1; stroke-width: 0px; fill: rgb(99, 110, 250); fill-opacity: 1;"/><path class="point" transform="translate(68.36,268.09)" d="M3,0A3,3 0 1,1 0,-3A3,3 0 0,1 3,0Z" style="opacity: 1; stroke-width: 0px; fill: rgb(99, 110, 250); fill-opacity: 1;"/><path class="point" transform="translate(59.07,267.13)" d="M3,0A3,3 0 1,1 0,-3A3,3 0 0,1 3,0Z" style="opacity: 1; stroke-width: 0px; fill: rgb(99, 110, 250); fill-opacity: 1;"/><path class="point" transform="translate(46.36,267.02)" d="M3,0A3,3 0 1,1 0,-3A3,3 0 0,1 3,0Z" style="opacity: 1; stroke-width: 0px; fill: rgb(99, 110, 250); fill-opacity: 1;"/><path class="point" transform="translate(65.6,266.92)" d="M3,0A3,3 0 1,1 0,-3A3,3 0 0,1 3,0Z" style="opacity: 1; stroke-width: 0px; fill: rgb(99, 110, 250); fill-opacity: 1;"/><path class="point" transform="translate(58.21,266.49)" d="M3,0A3,3 0 1,1 0,-3A3,3 0 0,1 3,0Z" style="opacity: 1; stroke-width: 0px; fill: rgb(99, 110, 250); fill-opacity: 1;"/><path class="point" transform="translate(76.87,262.44)" d="M3,0A3,3 0 1,1 0,-3A3,3 0 0,1 3,0Z" style="opacity: 1; stroke-width: 0px; fill: rgb(99, 110, 250); fill-opacity: 1;"/><path class="point" transform="translate(63.41,261.8)" d="M3,0A3,3 0 1,1 0,-3A3,3 0 0,1 3,0Z" style="opacity: 1; stroke-width: 0px; fill: rgb(99, 110, 250); fill-opacity: 1;"/><path class="point" transform="translate(49.09,261.58)" d="M3,0A3,3 0 1,1 0,-3A3,3 0 0,1 3,0Z" style="opacity: 1; stroke-width: 0px; fill: rgb(99, 110, 250); fill-opacity: 1;"/><path class="point" transform="translate(42.57,261.58)" d="M3,0A3,3 0 1,1 0,-3A3,3 0 0,1 3,0Z" style="opacity: 1; stroke-width: 0px; fill: rgb(99, 110, 250); fill-opacity: 1;"/><path class="point" transform="translate(78.46,261.58)" d="M3,0A3,3 0 1,1 0,-3A3,3 0 0,1 3,0Z" style="opacity: 1; stroke-width: 0px; fill: rgb(99, 110, 250); fill-opacity: 1;"/><path class="point" transform="translate(40.14,260.52)" d="M3,0A3,3 0 1,1 0,-3A3,3 0 0,1 3,0Z" style="opacity: 1; stroke-width: 0px; fill: rgb(99, 110, 250); fill-opacity: 1;"/><path class="point" transform="translate(83.24,260.41)" d="M3,0A3,3 0 1,1 0,-3A3,3 0 0,1 3,0Z" style="opacity: 1; stroke-width: 0px; fill: rgb(99, 110, 250); fill-opacity: 1;"/><path class="point" transform="translate(71.87,260.2)" d="M3,0A3,3 0 1,1 0,-3A3,3 0 0,1 3,0Z" style="opacity: 1; stroke-width: 0px; fill: rgb(99, 110, 250); fill-opacity: 1;"/><path class="point" transform="translate(57.8,259.77)" d="M3,0A3,3 0 1,1 0,-3A3,3 0 0,1 3,0Z" style="opacity: 1; stroke-width: 0px; fill: rgb(99, 110, 250); fill-opacity: 1;"/><path class="point" transform="translate(52.5,257.96)" d="M3,0A3,3 0 1,1 0,-3A3,3 0 0,1 3,0Z" style="opacity: 1; stroke-width: 0px; fill: rgb(99, 110, 250); fill-opacity: 1;"/><path class="point" transform="translate(75.9,257.53)" d="M3,0A3,3 0 1,1 0,-3A3,3 0 0,1 3,0Z" style="opacity: 1; stroke-width: 0px; fill: rgb(99, 110, 250); fill-opacity: 1;"/><path class="point" transform="translate(63.73,256.78)" d="M3,0A3,3 0 1,1 0,-3A3,3 0 0,1 3,0Z" style="opacity: 1; stroke-width: 0px; fill: rgb(99, 110, 250); fill-opacity: 1;"/><path class="point" transform="translate(77.65,256.14)" d="M3,0A3,3 0 1,1 0,-3A3,3 0 0,1 3,0Z" style="opacity: 1; stroke-width: 0px; fill: rgb(99, 110, 250); fill-opacity: 1;"/><path class="point" transform="translate(55.71,255.29)" d="M3,0A3,3 0 1,1 0,-3A3,3 0 0,1 3,0Z" style="opacity: 1; stroke-width: 0px; fill: rgb(99, 110, 250); fill-opacity: 1;"/><path class="point" transform="translate(70.27,252.73)" d="M3,0A3,3 0 1,1 0,-3A3,3 0 0,1 3,0Z" style="opacity: 1; stroke-width: 0px; fill: rgb(99, 110, 250); fill-opacity: 1;"/><path class="point" transform="translate(65.31,251.98)" d="M3,0A3,3 0 1,1 0,-3A3,3 0 0,1 3,0Z" style="opacity: 1; stroke-width: 0px; fill: rgb(99, 110, 250); fill-opacity: 1;"/><path class="point" transform="translate(64.04,247.08)" d="M3,0A3,3 0 1,1 0,-3A3,3 0 0,1 3,0Z" style="opacity: 1; stroke-width: 0px; fill: rgb(99, 110, 250); fill-opacity: 1;"/><path class="point" transform="translate(61.82,245.8)" d="M3,0A3,3 0 1,1 0,-3A3,3 0 0,1 3,0Z" style="opacity: 1; stroke-width: 0px; fill: rgb(99, 110, 250); fill-opacity: 1;"/><path class="point" transform="translate(64.24,228.52)" d="M3,0A3,3 0 1,1 0,-3A3,3 0 0,1 3,0Z" style="opacity: 1; stroke-width: 0px; fill: rgb(99, 110, 250); fill-opacity: 1;"/><path class="point" transform="translate(67.96,173.26)" d="M3,0A3,3 0 1,1 0,-3A3,3 0 0,1 3,0Z" style="opacity: 1; stroke-width: 0px; fill: rgb(99, 110, 250); fill-opacity: 1;"/><path class="point" transform="translate(64.92,27.65)" d="M3,0A3,3 0 1,1 0,-3A3,3 0 0,1 3,0Z" style="opacity: 1; stroke-width: 0px; fill: rgb(99, 110, 250); fill-opacity: 1;"/></g></g></g></g><g class="overplot"/><path class="xlines-above crisp" d="M0,0" style="fill: none;"/><path class="ylines-above crisp" d="M0,0" style="fill: none;"/><g class="overlines-above"/><g class="xaxislayer-above"><g class="xtick"><text text-anchor="middle" x="0" y="433" transform="translate(319.5,0)" style="font-family: 'Open Sans', verdana, arial, sans-serif; font-size: 12px; fill: rgb(42, 63, 95); fill-opacity: 1; white-space: pre; opacity: 1;">s_eff_cnn_id</text></g></g><g class="yaxislayer-above"><g class="ytick"><text text-anchor="end" x="79" y="4.199999999999999" transform="translate(0,417.16)" style="font-family: 'Open Sans', verdana, arial, sans-serif; font-size: 12px; fill: rgb(42, 63, 95); fill-opacity: 1; white-space: pre; opacity: 1;">0</text></g><g class="ytick"><text text-anchor="end" x="79" y="4.199999999999999" style="font-family: 'Open Sans', verdana, arial, sans-serif; font-size: 12px; fill: rgb(42, 63, 95); fill-opacity: 1; white-space: pre; opacity: 1;" transform="translate(0,363.82)">500</text></g><g class="ytick"><text text-anchor="end" x="79" y="4.199999999999999" style="font-family: 'Open Sans', verdana, arial, sans-serif; font-size: 12px; fill: rgb(42, 63, 95); fill-opacity: 1; white-space: pre; opacity: 1;" transform="translate(0,310.49)">1000</text></g><g class="ytick"><text text-anchor="end" x="79" y="4.199999999999999" style="font-family: 'Open Sans', verdana, arial, sans-serif; font-size: 12px; fill: rgb(42, 63, 95); fill-opacity: 1; white-space: pre; opacity: 1;" transform="translate(0,257.15)">1500</text></g><g class="ytick"><text text-anchor="end" x="79" y="4.199999999999999" style="font-family: 'Open Sans', verdana, arial, sans-serif; font-size: 12px; fill: rgb(42, 63, 95); fill-opacity: 1; white-space: pre; opacity: 1;" transform="translate(0,203.82)">2000</text></g><g class="ytick"><text text-anchor="end" x="79" y="4.199999999999999" style="font-family: 'Open Sans', verdana, arial, sans-serif; font-size: 12px; fill: rgb(42, 63, 95); fill-opacity: 1; white-space: pre; opacity: 1;" transform="translate(0,150.48)">2500</text></g></g><g class="overaxes-above"/></g></g><g class="polarlayer"/><g class="ternarylayer"/><g class="geolayer"/><g class="funnelarealayer"/><g class="pielayer"/><g class="iciclelayer"/><g class="treemaplayer"/><g class="sunburstlayer"/><g class="glimages"/><defs id="topdefs-0a916d"><g class="clips"/><clipPath id="legend0a916d"><rect width="122" height="48" x="0" y="0"/></clipPath></defs><g class="layer-above"><g class="imagelayer"/><g class="shapelayer"/></g><g class="infolayer"><g class="legend" pointer-events="all" transform="translate(565.52,100)"><rect class="bg" shape-rendering="crispEdges" width="122" height="48" x="0" y="0" style="stroke: rgb(68, 68, 68); stroke-opacity: 1; fill: rgb(255, 255, 255); fill-opacity: 1; stroke-width: 0px;"/><g class="scrollbox" transform="" clip-path="url(#legend0a916d)"><text class="legendtitletext" text-anchor="start" x="2" y="18.2" style="font-family: 'Open Sans', verdana, arial, sans-serif; font-size: 14px; fill: rgb(42, 63, 95); fill-opacity: 1; white-space: pre;">model</text><g class="groups" transform=""><g class="traces" transform="translate(0,32.7)" style="opacity: 1;"><text class="legendtext" text-anchor="start" x="40" y="4.680000000000001" style="font-family: 'Open Sans', verdana, arial, sans-serif; font-size: 12px; fill: rgb(42, 63, 95); fill-opacity: 1; white-space: pre;">s_eff_cnn_id</text><g class="layers" style="opacity: 1;"><g class="legendfill"/><g class="legendlines"/><g class="legendsymbols"><g class="legendpoints"><path class="legendbox" d="M6,6H-6V-6H6Z" transform="translate(20,0)" style="stroke-width: 2px; fill: rgb(99, 110, 250); fill-opacity: 0.5; stroke: rgb(99, 110, 250); stroke-opacity: 1;"/></g></g></g><rect class="legendtoggle" x="0" y="-9.5" width="116.9375" height="19" style="fill: rgb(0, 0, 0); fill-opacity: 0;"/></g></g></g><rect class="scrollbar" rx="20" ry="3" width="0" height="0" x="0" y="0" style="fill: rgb(128, 139, 164); fill-opacity: 1;"/></g><g class="g-gtitle"><text class="gtitle" x="35" y="50" text-anchor="start" dy="0em" style="font-family: 'Open Sans', verdana, arial, sans-serif; font-size: 17px; fill: rgb(42, 63, 95); opacity: 1; font-weight: normal; white-space: pre;">Distribution of min traces needed for average rank to be zero</text></g><g class="g-xtitle"><text class="xtitle" x="318" y="460.8" text-anchor="middle" style="font-family: 'Open Sans', verdana, arial, sans-serif; font-size: 14px; fill: rgb(42, 63, 95); opacity: 1; font-weight: normal; white-space: pre;">model</text></g><g class="g-ytitle"><text class="ytitle" transform="rotate(-90,23.684375000000003,260)" x="23.684375000000003" y="260" text-anchor="middle" style="font-family: 'Open Sans', verdana, arial, sans-serif; font-size: 14px; fill: rgb(42, 63, 95); opacity: 1; font-weight: normal; white-space: pre;">min traces needed for average rank to be zero</text></g><g class="annotation" data-index="0" style="opacity: 1;"><g class="annotation-text-g" transform="rotate(0,309.5,387)"><g class="cursor-pointer" transform="translate(263,362)"><rect class="bg" x="0.5" y="0.5" width="93" height="49" style="stroke-width: 1px; stroke: rgb(255, 0, 0); stroke-opacity: 1; fill: rgb(0, 0, 0); fill-opacity: 0;"/><text class="annotation-text" text-anchor="middle" x="46.84375" y="14" style="font-family: 'Open Sans', verdana, arial, sans-serif; font-size: 12px; fill: rgb(42, 63, 95); fill-opacity: 1; white-space: pre;"><tspan class="line" dy="0em" x="46.84375" y="14"> 6.00 % failed </tspan><tspan class="line" dy="1.3em" x="46.84375" y="14">min: 358.0</tspan><tspan class="line" dy="2.6em" x="46.84375" y="14">max: 2714.0</tspan></text></g></g><g class="annotation-arrow-g" style="opacity: 1;"><path d="M317.6666666666667,411.5L319.5,417" style="stroke-width: 1px; stroke: rgb(42, 63, 95); stroke-opacity: 1; stroke-dasharray: 0px, 0px, 5.79751px, 5.79751px;"/></g></g></g></svg>