<svg class="main-svg" xmlns="http://www.w3.org/2000/svg" xmlns:xlink="http://www.w3.org/1999/xlink" width="700" height="500" style="" viewBox="0 0 700 500"><rect x="0" y="0" width="700" height="500" style="fill: rgb(255, 255, 255); fill-opacity: 1;"/><defs id="defs-ff8684"><g class="clips"><clipPath id="clipff8684xyplot" class="plotclip"><rect width="540" height="320"/></clipPath><clipPath class="axesclip" id="clipff8684x"><rect x="80" y="0" width="540" height="500"/></clipPath><clipPath class="axesclip" id="clipff8684y"><rect x="0" y="100" width="700" height="320"/></clipPath><clipPath class="axesclip" id="clipff8684xy"><rect x="80" y="100" width="540" height="320"/></clipPath></g><g class="gradients"/><g class="patterns"/></defs><g class="bglayer"><rect class="bg" x="80" y="100" width="540" height="320" style="fill: rgb(237, 237, 237); fill-opacity: 1; stroke-width: 0;"/></g><g class="layer-below"><g class="imagelayer"/><g class="shapelayer"/></g><g class="cartesianlayer"><g class="subplot xy"><g class="layer-subplot"><g class="shapelayer"/><g class="imagelayer"/></g><g class="gridlayer"><g class="x"><path class="xgrid crisp" transform="translate(190.2,0)" d="M0,100v320" style="stroke: rgb(255, 255, 255); stroke-opacity: 1; stroke-width: 1px;"/><path class="xgrid crisp" transform="translate(300.40999999999997,0)" d="M0,100v320" style="stroke: rgb(255, 255, 255); stroke-opacity: 1; stroke-width: 1px;"/><path class="xgrid crisp" transform="translate(410.61,0)" d="M0,100v320" style="stroke: rgb(255, 255, 255); stroke-opacity: 1; stroke-width: 1px;"/><path class="xgrid crisp" transform="translate(520.8199999999999,0)" d="M0,100v320" style="stroke: rgb(255, 255, 255); stroke-opacity: 1; stroke-width: 1px;"/></g><g class="y"><path class="ygrid crisp" transform="translate(0,377.43)" d="M80,0h540" style="stroke: rgb(255, 255, 255); stroke-opacity: 1; stroke-width: 1px;"/><path class="ygrid crisp" transform="translate(0,326.78)" d="M80,0h540" style="stroke: rgb(255, 255, 255); stroke-opacity: 1; stroke-width: 1px;"/><path class="ygrid crisp" transform="translate(0,276.14)" d="M80,0h540" style="stroke: rgb(255, 255, 255); stroke-opacity: 1; stroke-width: 1px;"/><path class="ygrid crisp" transform="translate(0,225.49)" d="M80,0h540" style="stroke: rgb(255, 255, 255); stroke-opacity: 1; stroke-width: 1px;"/><path class="ygrid crisp" transform="translate(0,174.85)" d="M80,0h540" style="stroke: rgb(255, 255, 255); stroke-opacity: 1; stroke-width: 1px;"/><path class="ygrid crisp" transform="translate(0,124.2)" d="M80,0h540" style="stroke: rgb(255, 255, 255); stroke-opacity: 1; stroke-width: 1px;"/></g></g><g class="zerolinelayer"><path class="xzl zl crisp" transform="translate(80,0)" d="M0,100v320" style="stroke: rgb(255, 255, 255); stroke-opacity: 1; stroke-width: 1px;"/></g><path class="xlines-below"/><path class="ylines-below"/><g class="overlines-below"/><g class="xaxislayer-below"/><g class="yaxislayer-below"/><g class="overaxes-below"/><g class="plot" transform="translate(80,100)" clip-path="url(#clipff8684xyplot)"><g class="scatterlayer mlayer"><g class="trace scatter trace951172" style="stroke-miterlimit: 2; opacity: 1;"><g class="fills"/><g class="errorbars"/><g class="lines"><path class="js-line" d="M0,103.71L11.02,196.52L22.04,207.45L33.06,211.64L44.08,214.24L55.1,218.01L66.12,223.57L77.14,230.45L88.16,234.32L99.18,238.39L110.2,240.76L121.22,243.97L132.24,245.13L143.27,246.98L154.29,247.1L165.31,249.21L176.33,249.27L209.39,250.72L220.41,252.03L231.43,255.03L242.45,256.55L253.47,259.22L264.49,263.18L275.51,263.96L286.53,267.62L297.55,269.34L308.57,271.84L319.59,275.18L330.61,277.38L352.65,282.76L363.67,285.52L374.69,287.25L385.71,289.74L407.76,294.12L418.78,296.97L440.82,300.41L451.84,301.13L484.9,302.98L495.92,303.61L540,305.9" style="vector-effect: non-scaling-stroke; fill: none; stroke: rgb(248, 118, 109); stroke-opacity: 1; stroke-width: 2px; opacity: 1;"/></g><g class="points"/><g class="text"/></g><g class="trace scatter trace4e52d0" style="stroke-miterlimit: 2; opacity: 1;"><g class="fills"/><g class="errorbars"/><g class="lines"><path class="js-line" d="M0,23.04L11.02,187.68L22.04,203.03L33.06,209.11L44.08,211.96L55.1,214.09L66.12,214.34L77.14,214.65L88.16,219.03L99.18,225.51L110.2,228.41L132.24,237.73L143.27,240.41L154.29,244.43L165.31,244.87L176.33,247.42L187.35,247.73L198.37,248.1L209.39,249.45L220.41,250.05L231.43,252.75L264.49,260.06L275.51,262.32L308.57,270.2L319.59,271.84L341.63,277.48L352.65,278.78L363.67,281.57L374.69,283.4L407.76,289.9L418.78,291.82L429.8,294.08L440.82,295.45L484.9,298.14L495.92,298.7L540,300.9" style="vector-effect: non-scaling-stroke; fill: none; stroke: rgb(163, 165, 0); stroke-opacity: 1; stroke-width: 2px; opacity: 1;"/></g><g class="points"/><g class="text"/></g><g class="trace scatter tracec2e476" style="stroke-miterlimit: 2; opacity: 1;"><g class="fills"/><g class="errorbars"/><g class="lines"><path class="js-line" d="M0,82.33L11.02,196.65L22.04,205.86L33.06,210.73L44.08,212.69L55.1,216.26L66.12,221.3L88.16,231.81L99.18,235.51L110.2,239.63L121.22,241.99L132.24,242.55L143.27,244.78L165.31,247.69L176.33,249.48L209.39,248.76L220.41,251.25L231.43,252.84L242.45,256.97L253.47,258.19L264.49,261.22L286.53,267.03L297.55,268.66L319.59,274.12L330.61,276.09L341.63,278.14L352.65,281.98L363.67,283.45L374.69,286.27L385.71,287.95L396.73,290.61L407.76,292.33L418.78,294.95L440.82,298.71L451.84,299.13L462.86,300.27L473.88,300.43L528.98,303.6L540,304.16" style="vector-effect: non-scaling-stroke; fill: none; stroke: rgb(0, 191, 125); stroke-opacity: 1; stroke-width: 2px; opacity: 1;"/></g><g class="points"/><g class="text"/></g><g class="trace scatter trace4929d4" style="stroke-miterlimit: 2; opacity: 1;"><g class="fills"/><g class="errorbars"/><g class="lines"><path class="js-line" d="M0,56.93L11.02,201.82L22.04,209.54L33.06,213.36L44.08,216.16L66.12,224.9L77.14,229.49L110.2,242.16L121.22,244L132.24,246.6L143.27,247.95L154.29,250.21L165.31,250.74L187.35,252.07L198.37,253.64L209.39,252.38L220.41,255.16L231.43,257.15L242.45,261.18L253.47,263.16L264.49,266.11L308.57,278.1L319.59,280.48L330.61,282.46L341.63,285.62L352.65,288.56L363.67,290.19L407.76,300.1L418.78,302.34L429.8,304.95L440.82,306.33L473.88,308.35L484.9,309.07L540,311.89" style="vector-effect: non-scaling-stroke; fill: none; stroke: rgb(0, 176, 246); stroke-opacity: 1; stroke-width: 2px; opacity: 1;"/></g><g class="points"/><g class="text"/></g><g class="trace scatter tracea84067" style="stroke-miterlimit: 2; opacity: 1;"><g class="fills"/><g class="errorbars"/><g class="lines"><path class="js-line" d="M0,55.51L11.02,200.99L22.04,211.07L33.06,216.98L44.08,220.52L55.1,225.64L66.12,227.66L77.14,228.54L88.16,231.3L99.18,233.32L110.2,236.69L132.24,241.48L143.27,244.02L154.29,244.19L165.31,246.91L176.33,247L187.35,248.33L198.37,249.04L209.39,250.61L220.41,251.34L231.43,254.03L242.45,257.7L253.47,259.74L264.49,263.48L275.51,265.92L297.55,272.56L308.57,274.43L330.61,280.9L341.63,282.56L352.65,286.5L363.67,288.58L407.76,298.85L418.78,301.55L440.82,305.37L451.84,306.17L495.92,308.74L506.94,309.45L540,311.16" style="vector-effect: non-scaling-stroke; fill: none; stroke: rgb(231, 107, 243); stroke-opacity: 1; stroke-width: 2px; opacity: 1;"/></g><g class="points"/><g class="text"/></g><g class="trace scatter trace1b3e57" style="stroke-miterlimit: 2; opacity: 1;"><g class="fills"/><g class="errorbars"/><g class="lines"><path class="js-line" d="M0,48.53L11.02,194.65L22.04,206.11L33.06,210.47L44.08,213.43L55.1,214.78L66.12,214.79L77.14,217.85L88.16,221.89L99.18,229.5L110.2,235.98L121.22,240.99L132.24,243.94L154.29,246.71L165.31,248.4L176.33,249.86L187.35,250.19L220.41,252.04L231.43,254.88L253.47,260.32L264.49,261.74L275.51,265.49L286.53,268.34L297.55,271.72L308.57,273.06L319.59,276.17L330.61,278.12L385.71,289.86L396.73,291.88L440.82,300.32L451.84,300.81L540,305.74" style="vector-effect: non-scaling-stroke; fill: none; stroke: rgb(248, 118, 109); stroke-opacity: 1; stroke-width: 2px; opacity: 1;"/></g><g class="points"/><g class="text"/></g><g class="trace scatter trace78a08f" style="stroke-miterlimit: 2; opacity: 1;"><g class="fills"/><g class="errorbars"/><g class="lines"><path class="js-line" d="M0,60.01L11.02,196.38L22.04,207.89L33.06,212L44.08,213.37L55.1,215.18L66.12,215.24L88.16,217.77L99.18,222.73L110.2,231.11L121.22,238.49L132.24,242.67L143.27,243.97L154.29,247.04L165.31,246.96L176.33,249.24L187.35,248.98L198.37,251.52L209.39,251.44L231.43,256.08L242.45,259.45L264.49,264.52L275.51,268.25L286.53,271.17L297.55,273L308.57,277.02L319.59,279.53L352.65,288.25L363.67,291.22L374.69,292.91L385.71,295.99L429.8,305.59L440.82,307.09L473.88,309.41L484.9,310.06L540,313.05" style="vector-effect: non-scaling-stroke; fill: none; stroke: rgb(163, 165, 0); stroke-opacity: 1; stroke-width: 2px; opacity: 1;"/></g><g class="points"/><g class="text"/></g><g class="trace scatter trace0871de" style="stroke-miterlimit: 2; opacity: 1;"><g class="fills"/><g class="errorbars"/><g class="lines"><path class="js-line" d="M0,51.83L11.02,200.52L22.04,209.57L44.08,214.12L55.1,217.83L66.12,223.09L77.14,226.41L99.18,233.02L110.2,238.95L121.22,242.53L132.24,245.01L143.27,247.05L154.29,247.3L176.33,250.72L187.35,250.09L198.37,251.86L209.39,252.14L220.41,251.85L231.43,255.51L242.45,258.38L253.47,259.51L297.55,271.64L308.57,274.07L341.63,282.11L352.65,284.17L363.67,287.78L374.69,290.39L429.8,301.95L440.82,303.74L473.88,305.96L484.9,306.61L540,309.61" style="vector-effect: non-scaling-stroke; fill: none; stroke: rgb(0, 191, 125); stroke-opacity: 1; stroke-width: 2px; opacity: 1;"/></g><g class="points"/><g class="text"/></g><g class="trace scatter trace41c334" style="stroke-miterlimit: 2; opacity: 1;"><g class="fills"/><g class="errorbars"/><g class="lines"><path class="js-line" d="M0,40.84L11.02,189.03L22.04,203.22L44.08,212.4L55.1,213.27L77.14,218.97L88.16,222.66L99.18,226.86L110.2,232.29L121.22,239.49L132.24,243.11L143.27,245.04L154.29,246L176.33,247.21L187.35,249.42L209.39,249.32L220.41,251.07L231.43,253.54L242.45,256.85L253.47,258.2L264.49,262.04L297.55,270.45L308.57,273.75L319.59,274.98L330.61,277.61L363.67,285.36L374.69,287.53L418.78,297.11L429.8,299.17L440.82,300.93L451.84,301.62L528.98,305.85L540,306.38" style="vector-effect: non-scaling-stroke; fill: none; stroke: rgb(0, 176, 246); stroke-opacity: 1; stroke-width: 2px; opacity: 1;"/></g><g class="points"/><g class="text"/></g><g class="trace scatter trace3ebe84" style="stroke-miterlimit: 2; opacity: 1;"><g class="fills"/><g class="errorbars"/><g class="lines"><path class="js-line" d="M0,42.03L11.02,188.85L22.04,203.96L33.06,209.82L44.08,213.63L77.14,227.46L88.16,230.67L99.18,231.25L110.2,233.37L154.29,237.33L165.31,237.75L187.35,238.2L198.37,239.07L209.39,239.24L220.41,240.81L242.45,244.85L253.47,247.67L275.51,253.22L286.53,255.81L297.55,257.99L308.57,261.6L330.61,267.19L341.63,269.85L374.69,277.7L385.71,280.46L440.82,291.59L451.84,292.58L540,297.64" style="vector-effect: non-scaling-stroke; fill: none; stroke: rgb(231, 107, 243); stroke-opacity: 1; stroke-width: 2px; opacity: 1;"/></g><g class="points"/><g class="text"/></g><g class="trace scatter tracede9d43" style="stroke-miterlimit: 2; opacity: 1;"><g class="fills"/><g class="errorbars"/><g class="lines"><path class="js-line" d="M0,27.85L11.02,192.96L22.04,206.38L33.06,214.78L44.08,219.64L77.14,229.52L88.16,233.7L99.18,235.57L110.2,238.89L121.22,241.35L132.24,242.97L143.27,243.78L154.29,245.54L165.31,247.09L176.33,247.43L198.37,249.81L209.39,248.2L220.41,252L231.43,252.65L286.53,268.23L297.55,270.66L308.57,274.03L319.59,276.52L341.63,281.46L352.65,285.34L363.67,287.92L374.69,289.05L385.71,292.39L396.73,294.78L418.78,299.25L429.8,301.69L440.82,303.39L451.84,304.27L540,309.42" style="vector-effect: non-scaling-stroke; fill: none; stroke: rgb(248, 118, 109); stroke-opacity: 1; stroke-width: 2px; opacity: 1;"/></g><g class="points"/><g class="text"/></g><g class="trace scatter trace9e8167" style="stroke-miterlimit: 2; opacity: 1;"><g class="fills"/><g class="errorbars"/><g class="lines"><path class="js-line" d="M0,96.37L11.02,200.37L22.04,209.65L33.06,211.67L44.08,214.76L55.1,215.32L66.12,218.91L77.14,221.72L88.16,225.58L99.18,229.5L110.2,231.62L121.22,237.16L132.24,240.43L165.31,246.27L176.33,246.65L187.35,247.57L198.37,249.26L209.39,249.49L220.41,251.57L242.45,257.97L253.47,259.69L275.51,265.72L286.53,268.2L297.55,271.64L308.57,273.51L319.59,277.26L330.61,279.41L363.67,288.19L374.69,290.4L396.73,295.16L407.76,297.58L429.8,302.34L440.82,303.93L484.9,306.89L495.92,307.44L540,309.84" style="vector-effect: non-scaling-stroke; fill: none; stroke: rgb(163, 165, 0); stroke-opacity: 1; stroke-width: 2px; opacity: 1;"/></g><g class="points"/><g class="text"/></g><g class="trace scatter tracec8f8c9" style="stroke-miterlimit: 2; opacity: 1;"><g class="fills"/><g class="errorbars"/><g class="lines"><path class="js-line" d="M0,58.02L11.02,196.07L22.04,207.26L33.06,211.51L44.08,213.73L55.1,215.31L66.12,220.52L77.14,228.72L88.16,234.04L99.18,237.54L110.2,240.23L132.24,243.16L143.27,246.27L187.35,251.78L198.37,251.13L209.39,253.27L220.41,253.54L242.45,259.56L253.47,261.56L264.49,265.19L275.51,266.67L286.53,270.85L297.55,273.83L308.57,275.92L319.59,279.25L352.65,286.51L363.67,289.35L407.76,299.42L418.78,300.68L429.8,303.37L440.82,304.75L462.86,306.41L473.88,307.31L517.96,309.51L528.98,310.07L540,310.63" style="vector-effect: non-scaling-stroke; fill: none; stroke: rgb(0, 191, 125); stroke-opacity: 1; stroke-width: 2px; opacity: 1;"/></g><g class="points"/><g class="text"/></g><g class="trace scatter trace0a7b68" style="stroke-miterlimit: 2; opacity: 1;"><g class="fills"/><g class="errorbars"/><g class="lines"><path class="js-line" d="M0,52.88L11.02,196.79L22.04,211.22L33.06,220.06L44.08,225.86L66.12,238.51L77.14,240.66L88.16,243.66L99.18,244.22L132.24,248.16L143.27,248.86L187.35,250.6L198.37,251.95L220.41,252.01L231.43,256.07L242.45,257.27L253.47,261.26L264.49,264.17L275.51,266.26L286.53,269.96L297.55,272.43L319.59,278.42L330.61,280.24L363.67,288.27L374.69,291.9L407.76,298.58L418.78,301.19L440.82,305.21L451.84,306.23L495.92,308.83L506.94,309.69L540,311.32" style="vector-effect: non-scaling-stroke; fill: none; stroke: rgb(0, 176, 246); stroke-opacity: 1; stroke-width: 2px; opacity: 1;"/></g><g class="points"/><g class="text"/></g><g class="trace scatter trace838d24" style="stroke-miterlimit: 2; opacity: 1;"><g class="fills"/><g class="errorbars"/><g class="lines"><path class="js-line" d="M0,77.2L11.02,198.87L22.04,206.17L33.06,210.3L44.08,211.14L66.12,213.63L77.14,215.21L88.16,215.93L99.18,217.5L110.2,225.11L121.22,234.9L132.24,240.32L143.27,241.87L165.31,245.81L176.33,246.29L187.35,247.26L198.37,246.86L209.39,248.91L220.41,249.56L297.55,267.43L308.57,270.42L341.63,277.62L352.65,280.12L363.67,282.29L374.69,285.38L385.71,287.02L396.73,289.52L440.82,297.82L451.84,298.67L517.96,302.28L528.98,302.94L540,303.45" style="vector-effect: non-scaling-stroke; fill: none; stroke: rgb(231, 107, 243); stroke-opacity: 1; stroke-width: 2px; opacity: 1;"/></g><g class="points"/><g class="text"/></g><g class="trace scatter trace5ad95d" style="stroke-miterlimit: 2; opacity: 1;"><g class="fills"/><g class="errorbars"/><g class="lines"><path class="js-line" d="M0,56.03L11.02,195.45L22.04,205.11L33.06,209.1L44.08,211.98L55.1,213.45L66.12,215.97L77.14,220.23L88.16,226.93L110.2,236.21L121.22,238.42L143.27,244.48L154.29,245.76L176.33,250.24L187.35,250.41L209.39,251.24L220.41,253.14L231.43,256.72L242.45,259.26L253.47,262.5L264.49,264.18L275.51,266.36L286.53,269.33L297.55,270.91L308.57,274.41L319.59,276.22L330.61,279.18L385.71,290.91L396.73,292.34L418.78,297.14L429.8,299.02L440.82,300.83L451.84,301.34L484.9,303.3L495.92,303.9L540,306.1" style="vector-effect: non-scaling-stroke; fill: none; stroke: rgb(248, 118, 109); stroke-opacity: 1; stroke-width: 2px; opacity: 1;"/></g><g class="points"/><g class="text"/></g><g class="trace scatter traceb86f27" style="stroke-miterlimit: 2; opacity: 1;"><g class="fills"/><g class="errorbars"/><g class="lines"><path class="js-line" d="M0,41.79L11.02,193.38L22.04,204.53L33.06,209.44L44.08,213.13L77.14,217.8L88.16,224.41L99.18,229.02L110.2,234.49L121.22,239.86L132.24,242.49L143.27,245.89L154.29,247.65L176.33,248.76L187.35,250.25L198.37,249.91L209.39,250.4L220.41,253.15L231.43,254.91L264.49,262.33L275.51,263.97L286.53,267.79L297.55,269.7L341.63,280.03L352.65,282.32L363.67,284.98L374.69,286.74L385.71,289.97L396.73,292.05L440.82,300.32L451.84,300.97L495.92,303.84L506.94,304.43L540,306.07" style="vector-effect: non-scaling-stroke; fill: none; stroke: rgb(163, 165, 0); stroke-opacity: 1; stroke-width: 2px; opacity: 1;"/></g><g class="points"/><g class="text"/></g><g class="trace scatter trace1ce54f" style="stroke-miterlimit: 2; opacity: 1;"><g class="fills"/><g class="errorbars"/><g class="lines"><path class="js-line" d="M0,42.51L11.02,198.1L22.04,209.25L44.08,215.81L55.1,218.84L66.12,223.35L77.14,228.94L88.16,234.6L99.18,238.08L110.2,241.95L121.22,243.98L143.27,246.17L154.29,246.4L165.31,246.49L176.33,248.03L198.37,249.08L209.39,248.75L220.41,249.79L231.43,252.43L242.45,256.25L253.47,257.79L297.55,269.31L308.57,271.12L319.59,274.61L330.61,276.72L363.67,284.52L374.69,286.05L385.71,289.15L396.73,291.02L418.78,295.92L429.8,298.23L440.82,299.95L451.84,300.9L528.98,305.41L540,305.92" style="vector-effect: non-scaling-stroke; fill: none; stroke: rgb(0, 191, 125); stroke-opacity: 1; stroke-width: 2px; opacity: 1;"/></g><g class="points"/><g class="text"/></g><g class="trace scatter trace5d4b14" style="stroke-miterlimit: 2; opacity: 1;"><g class="fills"/><g class="errorbars"/><g class="lines"><path class="js-line" d="M0,72.13L11.02,200.61L22.04,209.46L33.06,212.36L44.08,214.48L66.12,216.81L77.14,217.44L88.16,219.62L99.18,220.16L121.22,223.35L132.24,226.33L154.29,232.01L165.31,237.79L187.35,242.06L198.37,244.95L209.39,245.69L220.41,248.87L231.43,251.78L242.45,256.09L253.47,259.13L264.49,260.88L275.51,265.59L286.53,268.03L297.55,270.24L308.57,273.89L319.59,276.55L330.61,281.05L352.65,285.59L363.67,287.95L385.71,293.8L396.73,295.71L418.78,301.18L429.8,303.64L440.82,305.25L451.84,306.08L540,311.1" style="vector-effect: non-scaling-stroke; fill: none; stroke: rgb(0, 176, 246); stroke-opacity: 1; stroke-width: 2px; opacity: 1;"/></g><g class="points"/><g class="text"/></g><g class="trace scatter tracee527b4" style="stroke-miterlimit: 2; opacity: 1;"><g class="fills"/><g class="errorbars"/><g class="lines"><path class="js-line" d="M0,37.18L11.02,200.56L22.04,208.7L33.06,212.24L44.08,213.93L77.14,220.45L88.16,225.51L99.18,228.74L110.2,232.81L121.22,233.95L132.24,237.42L143.27,238.39L154.29,240.63L165.31,242.14L176.33,242.29L187.35,244.89L198.37,244.23L209.39,245.21L220.41,246.95L231.43,251.9L242.45,253.87L253.47,257.21L264.49,262.3L286.53,268.03L297.55,271.62L330.61,279.79L341.63,283.6L363.67,287.72L374.69,290.51L407.76,297.95L418.78,300.09L440.82,304.4L451.84,304.93L473.88,306.35L484.9,307L540,309.99" style="vector-effect: non-scaling-stroke; fill: none; stroke: rgb(231, 107, 243); stroke-opacity: 1; stroke-width: 2px; opacity: 1;"/></g><g class="points"/><g class="text"/></g><g class="trace scatter trace60839b" style="stroke-miterlimit: 2; opacity: 1;"><g class="fills"/><g class="errorbars"/><g class="lines"><path class="js-line" d="M0,43.87L11.02,193.14L22.04,205.78L33.06,210.45L44.08,213.44L66.12,215.71L77.14,219.12L88.16,221.84L99.18,227.5L110.2,228.95L121.22,231.94L132.24,234.24L143.27,237.41L165.31,240.97L176.33,243.71L187.35,246.4L198.37,246.14L209.39,246.65L220.41,248.7L231.43,250.76L242.45,253.98L253.47,257.53L264.49,260.23L308.57,272.96L319.59,275.18L352.65,283.3L363.67,285.5L407.76,295.27L418.78,297.91L429.8,300.46L440.82,302.11L540,307.79" style="vector-effect: non-scaling-stroke; fill: none; stroke: rgb(248, 118, 109); stroke-opacity: 1; stroke-width: 2px; opacity: 1;"/></g><g class="points"/><g class="text"/></g><g class="trace scatter trace714638" style="stroke-miterlimit: 2; opacity: 1;"><g class="fills"/><g class="errorbars"/><g class="lines"><path class="js-line" d="M0,57.17L11.02,196.72L22.04,207.63L33.06,210.65L44.08,212.65L77.14,217.07L88.16,217.31L99.18,219L110.2,222.7L121.22,229.02L132.24,233.06L143.27,234.83L154.29,237.46L165.31,240.45L176.33,241.11L187.35,240.42L198.37,242.3L209.39,243.59L220.41,245.79L231.43,248.92L242.45,254.85L253.47,256.99L264.49,261.7L286.53,267.42L297.55,270.35L319.59,276.9L330.61,279.25L363.67,287.96L374.69,290.66L407.76,298.07L418.78,300.39L440.82,304.54L451.84,305.2L540,310.24" style="vector-effect: non-scaling-stroke; fill: none; stroke: rgb(163, 165, 0); stroke-opacity: 1; stroke-width: 2px; opacity: 1;"/></g><g class="points"/><g class="text"/></g><g class="trace scatter trace9169b3" style="stroke-miterlimit: 2; opacity: 1;"><g class="fills"/><g class="errorbars"/><g class="lines"><path class="js-line" d="M0,68.68L11.02,203.53L22.04,210.55L33.06,216.98L44.08,222.46L55.1,228.79L66.12,233.46L77.14,238.6L88.16,240.86L99.18,241.46L110.2,243.89L121.22,244.2L132.24,245.63L143.27,245.16L154.29,248.36L187.35,249.12L198.37,249.59L220.41,250.5L231.43,254.39L242.45,258.41L253.47,260.64L275.51,265.78L286.53,269.62L319.59,278.93L330.61,281.3L341.63,284.91L352.65,286.92L363.67,290.5L374.69,292.55L429.8,305.57L440.82,307L473.88,309.58L484.9,310.02L540,313.23" style="vector-effect: non-scaling-stroke; fill: none; stroke: rgb(0, 191, 125); stroke-opacity: 1; stroke-width: 2px; opacity: 1;"/></g><g class="points"/><g class="text"/></g><g class="trace scatter trace895a55" style="stroke-miterlimit: 2; opacity: 1;"><g class="fills"/><g class="errorbars"/><g class="lines"><path class="js-line" d="M0,71.04L11.02,193.5L22.04,206.13L44.08,212.66L55.1,214.61L77.14,226.03L88.16,228.84L99.18,230L110.2,236.46L132.24,241.17L143.27,244.9L154.29,244.53L165.31,245.58L176.33,247.9L187.35,248.16L198.37,248.82L209.39,247.95L231.43,252.22L242.45,254.41L253.47,257.67L264.49,258.35L275.51,262.39L286.53,264.42L308.57,269.15L319.59,273.4L330.61,276.8L341.63,279L352.65,280.28L363.67,283.53L429.8,297.54L440.82,299.46L540,305.31" style="vector-effect: non-scaling-stroke; fill: none; stroke: rgb(0, 176, 246); stroke-opacity: 1; stroke-width: 2px; opacity: 1;"/></g><g class="points"/><g class="text"/></g><g class="trace scatter tracec0fcb4" style="stroke-miterlimit: 2; opacity: 1;"><g class="fills"/><g class="errorbars"/><g class="lines"><path class="js-line" d="M0,75.54L11.02,197.47L22.04,206.75L33.06,210.89L44.08,212.53L77.14,217.41L88.16,220.22L99.18,228.48L110.2,235.1L132.24,242.29L143.27,244.94L154.29,245.08L165.31,247.1L176.33,247.63L187.35,249.12L198.37,248.3L209.39,249.24L220.41,251.02L231.43,254.35L242.45,256.45L253.47,259.65L264.49,262.72L275.51,266.67L286.53,268.58L297.55,271.43L330.61,279.28L341.63,281.84L363.67,287.46L374.69,289.62L418.78,299.6L429.8,301.77L440.82,303.49L451.84,304.35L540,309.37" style="vector-effect: non-scaling-stroke; fill: none; stroke: rgb(231, 107, 243); stroke-opacity: 1; stroke-width: 2px; opacity: 1;"/></g><g class="points"/><g class="text"/></g><g class="trace scatter trace04aa2e" style="stroke-miterlimit: 2; opacity: 1;"><g class="fills"/><g class="errorbars"/><g class="lines"><path class="js-line" d="M0,77.08L11.02,197.66L22.04,207.17L33.06,212.83L44.08,214.79L66.12,222.29L77.14,226.65L88.16,228.82L99.18,231.97L110.2,236.82L121.22,240.37L132.24,243.66L143.27,243.28L154.29,245.26L165.31,246.17L176.33,245.98L187.35,248.67L209.39,248.99L220.41,249.52L231.43,253.61L242.45,255.55L253.47,259.41L264.49,261.03L286.53,267.78L297.55,270.16L319.59,275.41L330.61,278.55L418.78,298.01L429.8,300.32L440.82,302.14L451.84,302.96L540,307.89" style="vector-effect: non-scaling-stroke; fill: none; stroke: rgb(248, 118, 109); stroke-opacity: 1; stroke-width: 2px; opacity: 1;"/></g><g class="points"/><g class="text"/></g><g class="trace scatter trace0e4ae8" style="stroke-miterlimit: 2; opacity: 1;"><g class="fills"/><g class="errorbars"/><g class="lines"><path class="js-line" d="M0,86.08L11.02,201.81L22.04,210.13L55.1,220.69L66.12,223.15L110.2,238.08L121.22,241.65L132.24,243.95L143.27,245.02L154.29,247.13L165.31,247.49L176.33,249.2L187.35,249.56L198.37,251.13L209.39,250.74L242.45,258.75L253.47,261.6L264.49,263.7L275.51,267.47L286.53,269.95L297.55,273.84L319.59,278.1L330.61,280.27L352.65,285.83L363.67,287.95L396.73,295.83L407.76,297.63L429.8,302.34L440.82,304.12L462.86,305.63L473.88,306.23L540,309.73" style="vector-effect: non-scaling-stroke; fill: none; stroke: rgb(163, 165, 0); stroke-opacity: 1; stroke-width: 2px; opacity: 1;"/></g><g class="points"/><g class="text"/></g><g class="trace scatter trace2ae90a" style="stroke-miterlimit: 2; opacity: 1;"><g class="fills"/><g class="errorbars"/><g class="lines"><path class="js-line" d="M0,50.93L11.02,193.42L22.04,204.08L55.1,218.14L66.12,224.21L88.16,230.66L99.18,232.44L110.2,232.62L121.22,234.31L132.24,238.94L143.27,240.91L154.29,243.57L165.31,245.05L176.33,246.72L187.35,247.12L209.39,247.77L220.41,250.47L231.43,251.73L242.45,255.14L275.51,263.28L286.53,267.15L297.55,268.43L308.57,271.59L319.59,273.63L330.61,276.83L352.65,280.85L363.67,283.66L374.69,286.55L385.71,288.03L407.76,293.04L418.78,295.03L429.8,297.48L440.82,299.11L473.88,301.4L484.9,301.94L540,304.87" style="vector-effect: non-scaling-stroke; fill: none; stroke: rgb(0, 191, 125); stroke-opacity: 1; stroke-width: 2px; opacity: 1;"/></g><g class="points"/><g class="text"/></g><g class="trace scatter trace7aa606" style="stroke-miterlimit: 2; opacity: 1;"><g class="fills"/><g class="errorbars"/><g class="lines"><path class="js-line" d="M0,63.55L11.02,201.66L22.04,209.38L33.06,212.14L44.08,212.87L77.14,220.15L88.16,226L99.18,233.94L110.2,239.4L121.22,242.3L132.24,244.23L143.27,247.52L154.29,248.3L176.33,250.88L187.35,253.3L198.37,250.35L209.39,252.88L220.41,255.92L231.43,257.57L242.45,259.56L253.47,263.18L275.51,269.78L286.53,271.64L308.57,278.16L319.59,281.18L341.63,286.84L352.65,289.54L363.67,291.58L374.69,294.51L407.76,302.58L418.78,304.54L440.82,309.06L451.84,309.78L495.92,312.26L506.94,312.95L540,314.66" style="vector-effect: non-scaling-stroke; fill: none; stroke: rgb(0, 176, 246); stroke-opacity: 1; stroke-width: 2px; opacity: 1;"/></g><g class="points"/><g class="text"/></g><g class="trace scatter trace2bec2d" style="stroke-miterlimit: 2; opacity: 1;"><g class="fills"/><g class="errorbars"/><g class="lines"><path class="js-line" d="M0,47.6L11.02,195.95L22.04,206.21L33.06,210.9L44.08,211.49L77.14,216.39L88.16,217.32L99.18,222.71L110.2,232.39L121.22,237.78L132.24,241.4L143.27,244.01L154.29,245.53L165.31,247.53L176.33,248.3L220.41,253.2L231.43,256.18L242.45,258.48L253.47,262.15L286.53,270.55L297.55,274.6L330.61,282.53L341.63,285.8L363.67,290.9L374.69,293.93L418.78,303.26L429.8,305.9L451.84,308.53L462.86,309.15L540,313.45" style="vector-effect: non-scaling-stroke; fill: none; stroke: rgb(231, 107, 243); stroke-opacity: 1; stroke-width: 2px; opacity: 1;"/></g><g class="points"/><g class="text"/></g><g class="trace scatter tracec64433" style="stroke-miterlimit: 2; opacity: 1;"><g class="fills"/><g class="errorbars"/><g class="lines"><path class="js-line" d="M0,46.39L11.02,199.74L22.04,208.59L33.06,212.14L44.08,213.3L55.1,214.11L66.12,216.06L77.14,219.98L88.16,225.88L99.18,231.29L110.2,237.61L121.22,241.63L132.24,244.57L154.29,248.81L165.31,249.66L176.33,251.26L187.35,251.55L209.39,254.57L220.41,255.43L253.47,263.82L264.49,267.87L275.51,270.96L286.53,272.5L308.57,279.84L319.59,281.79L352.65,290.74L363.67,292.78L396.73,302.26L407.76,304.33L429.8,309.27L440.82,311.01L462.86,312.78L473.88,313.28L540,317.22" style="vector-effect: non-scaling-stroke; fill: none; stroke: rgb(248, 118, 109); stroke-opacity: 1; stroke-width: 2px; opacity: 1;"/></g><g class="points"/><g class="text"/></g><g class="trace scatter trace8976f0" style="stroke-miterlimit: 2; opacity: 1;"><g class="fills"/><g class="errorbars"/><g class="lines"><path class="js-line" d="M0,18.93L11.02,197.36L22.04,205.67L33.06,210.91L44.08,212.96L77.14,217.26L88.16,217.63L110.2,220.43L121.22,221.03L143.27,231.42L154.29,233.04L176.33,236.37L187.35,237.87L198.37,237.5L209.39,238.43L220.41,241.09L231.43,242.29L253.47,249.21L264.49,250.98L275.51,254.57L286.53,257.24L297.55,260.13L308.57,261.49L330.61,267L341.63,269.27L385.71,279.66L396.73,282.11L429.8,288.73L440.82,290.37L540,296.06" style="vector-effect: non-scaling-stroke; fill: none; stroke: rgb(163, 165, 0); stroke-opacity: 1; stroke-width: 2px; opacity: 1;"/></g><g class="points"/><g class="text"/></g><g class="trace scatter tracef5969b" style="stroke-miterlimit: 2; opacity: 1;"><g class="fills"/><g class="errorbars"/><g class="lines"><path class="js-line" d="M0,49.81L11.02,202.01L22.04,209.37L33.06,211.84L44.08,212.67L55.1,214.04L66.12,218.69L88.16,228.31L99.18,234.94L110.2,239.01L121.22,240.66L132.24,244.33L143.27,246.07L165.31,248.27L176.33,250.41L187.35,249.5L198.37,251.37L220.41,252.51L231.43,255.41L253.47,259.38L264.49,263.67L275.51,266.74L286.53,267.6L308.57,272.12L319.59,275.99L330.61,279.04L341.63,279.98L352.65,283.24L363.67,285.39L396.73,291.73L407.76,293.99L440.82,300.13L451.84,300.98L540,305.6" style="vector-effect: non-scaling-stroke; fill: none; stroke: rgb(0, 191, 125); stroke-opacity: 1; stroke-width: 2px; opacity: 1;"/></g><g class="points"/><g class="text"/></g><g class="trace scatter trace466ccf" style="stroke-miterlimit: 2; opacity: 1;"><g class="fills"/><g class="errorbars"/><g class="lines"><path class="js-line" d="M0,0L11.02,191.12L22.04,206.02L33.06,210.34L44.08,212.9L55.1,215.29L66.12,219.62L77.14,224.27L88.16,227.58L110.2,232.44L121.22,233.71L132.24,238.93L143.27,240.5L176.33,247.52L187.35,250.45L198.37,252.15L209.39,251.52L220.41,253.36L231.43,257.26L242.45,259.88L253.47,263.59L264.49,265.95L275.51,269.09L286.53,272.9L297.55,275.38L308.57,277.55L319.59,281.07L330.61,284.56L341.63,286.51L352.65,290.06L363.67,292.77L429.8,308.53L440.82,309.91L484.9,313.11L495.92,313.68L540,316.15" style="vector-effect: non-scaling-stroke; fill: none; stroke: rgb(0, 176, 246); stroke-opacity: 1; stroke-width: 2px; opacity: 1;"/></g><g class="points"/><g class="text"/></g><g class="trace scatter tracee70afb" style="stroke-miterlimit: 2; opacity: 1;"><g class="fills"/><g class="errorbars"/><g class="lines"><path class="js-line" d="M0,50.26L11.02,200.09L22.04,208.38L33.06,211.61L44.08,212.79L55.1,214.97L66.12,218.56L77.14,225.71L88.16,229.31L110.2,232.88L121.22,235.53L132.24,237.85L143.27,241.69L154.29,242.32L165.31,244.4L176.33,245.78L187.35,246.28L209.39,248.04L220.41,250.67L231.43,252.99L242.45,256.11L264.49,263.37L275.51,264.91L297.55,271.47L308.57,273.35L319.59,276.65L330.61,278.99L352.65,284.98L363.67,287.84L429.8,302.17L440.82,303.81L462.86,305.34L473.88,306L517.96,308.34L528.98,308.93L540,309.49" style="vector-effect: non-scaling-stroke; fill: none; stroke: rgb(231, 107, 243); stroke-opacity: 1; stroke-width: 2px; opacity: 1;"/></g><g class="points"/><g class="text"/></g><g class="trace scatter traceeb9f47" style="stroke-miterlimit: 2; opacity: 1;"><g class="fills"/><g class="errorbars"/><g class="lines"><path class="js-line" d="M0,62.64L11.02,192.81L22.04,205.23L33.06,209.86L44.08,213.07L88.16,218.19L99.18,219.77L110.2,229.76L121.22,237.47L132.24,241.85L143.27,242.52L165.31,245.65L176.33,247.15L187.35,248.29L198.37,247.86L209.39,248.82L220.41,248.89L231.43,252.58L242.45,254.97L253.47,257.02L264.49,261.87L286.53,265.12L297.55,269.1L319.59,273.9L330.61,277.84L352.65,282.16L363.67,285.25L385.71,289.61L396.73,291.92L407.76,294.08L418.78,297.03L440.82,300.68L451.84,301.39L484.9,303.68L495.92,304.03L540,306.45" style="vector-effect: non-scaling-stroke; fill: none; stroke: rgb(248, 118, 109); stroke-opacity: 1; stroke-width: 2px; opacity: 1;"/></g><g class="points"/><g class="text"/></g><g class="trace scatter trace40d1f1" style="stroke-miterlimit: 2; opacity: 1;"><g class="fills"/><g class="errorbars"/><g class="lines"><path class="js-line" d="M0,42.41L11.02,201.83L22.04,209.51L55.1,217.08L66.12,221.18L88.16,234.23L99.18,237.45L121.22,242.23L132.24,244.23L176.33,248.65L187.35,249.65L198.37,251.36L209.39,251.92L231.43,256.21L242.45,260.73L264.49,265.5L275.51,269.44L286.53,271.27L297.55,275.16L308.57,276.94L319.59,280.35L396.73,299.1L407.76,301.16L429.8,305.92L440.82,307.62L517.96,312.37L528.98,312.88L540,313.45" style="vector-effect: non-scaling-stroke; fill: none; stroke: rgb(163, 165, 0); stroke-opacity: 1; stroke-width: 2px; opacity: 1;"/></g><g class="points"/><g class="text"/></g><g class="trace scatter tracea9c8e4" style="stroke-miterlimit: 2; opacity: 1;"><g class="fills"/><g class="errorbars"/><g class="lines"><path class="js-line" d="M0,58.58L11.02,189.95L22.04,203.99L33.06,209.67L44.08,213.13L55.1,216.24L66.12,223.72L77.14,226.84L88.16,228.49L110.2,231.04L121.22,233.5L132.24,232.73L143.27,235.02L154.29,234.9L165.31,237.21L176.33,239.7L187.35,243.83L198.37,247.02L209.39,248.61L220.41,250.74L231.43,253.76L253.47,259.02L264.49,261.49L275.51,264.86L286.53,266.85L308.57,272.31L319.59,274.28L330.61,278.3L341.63,279.92L374.69,287.53L385.71,289.98L418.78,297.07L429.8,299.09L451.84,301.68L462.86,302.46L495.92,304.45L506.94,305L540,306.76" style="vector-effect: non-scaling-stroke; fill: none; stroke: rgb(0, 191, 125); stroke-opacity: 1; stroke-width: 2px; opacity: 1;"/></g><g class="points"/><g class="text"/></g><g class="trace scatter trace8f90f1" style="stroke-miterlimit: 2; opacity: 1;"><g class="fills"/><g class="errorbars"/><g class="lines"><path class="js-line" d="M0,4.74L11.02,199.62L22.04,208.8L33.06,211.97L44.08,213.13L66.12,216.21L77.14,220.96L88.16,229.34L99.18,236.56L110.2,239L121.22,242.78L143.27,246.45L154.29,247.71L165.31,246.49L176.33,249.23L187.35,248.37L198.37,250.37L209.39,250.08L220.41,250.89L231.43,253.45L242.45,257.23L275.51,264.71L286.53,268.56L297.55,271.45L308.57,273.41L319.59,276.77L330.61,278.5L341.63,282.3L352.65,284.26L374.69,289.92L385.71,291.91L418.78,299.48L429.8,301.36L440.82,303.3L451.84,304.17L540,309" style="vector-effect: non-scaling-stroke; fill: none; stroke: rgb(0, 176, 246); stroke-opacity: 1; stroke-width: 2px; opacity: 1;"/></g><g class="points"/><g class="text"/></g><g class="trace scatter traceebdab3" style="stroke-miterlimit: 2; opacity: 1;"><g class="fills"/><g class="errorbars"/><g class="lines"><path class="js-line" d="M0,5.39L11.02,187.42L22.04,202.96L33.06,208.75L44.08,211.28L77.14,215.31L88.16,215.47L99.18,215.86L110.2,221.9L121.22,231.89L132.24,239.06L143.27,243.26L154.29,245.16L165.31,247.82L176.33,248.18L187.35,249.38L198.37,251.69L220.41,253.69L231.43,256.09L242.45,259.54L253.47,261.46L264.49,264.35L275.51,266.07L297.55,273.17L308.57,275.08L319.59,277.24L330.61,280.22L363.67,287.11L374.69,290.16L385.71,293.37L396.73,295.2L440.82,303.88L451.84,304.47L540,309.55" style="vector-effect: non-scaling-stroke; fill: none; stroke: rgb(231, 107, 243); stroke-opacity: 1; stroke-width: 2px; opacity: 1;"/></g><g class="points"/><g class="text"/></g><g class="trace scatter trace697491" style="stroke-miterlimit: 2; opacity: 1;"><g class="fills"/><g class="errorbars"/><g class="lines"><path class="js-line" d="M0,62.69L11.02,195.42L22.04,206.69L33.06,211.7L44.08,215.02L55.1,216.55L66.12,220.69L77.14,227.37L88.16,229.1L99.18,233L110.2,232.79L143.27,238.44L154.29,237.6L165.31,238.67L176.33,238.41L198.37,241.23L209.39,241.26L231.43,244.16L242.45,246.6L253.47,248.36L264.49,251.63L286.53,257.13L297.55,261.06L308.57,263.15L319.59,266.38L330.61,268.46L341.63,272.03L352.65,273.6L363.67,277.09L374.69,278.78L385.71,281.93L429.8,291.42L440.82,293.25L540,299.14" style="vector-effect: non-scaling-stroke; fill: none; stroke: rgb(248, 118, 109); stroke-opacity: 1; stroke-width: 2px; opacity: 1;"/></g><g class="points"/><g class="text"/></g><g class="trace scatter trace88c77e" style="stroke-miterlimit: 2; opacity: 1;"><g class="fills"/><g class="errorbars"/><g class="lines"><path class="js-line" d="M0,9.89L11.02,187.4L22.04,203.97L33.06,209.52L44.08,212.68L55.1,214.73L66.12,222.16L77.14,230.99L88.16,236.87L99.18,240.48L110.2,242.9L143.27,246.4L154.29,246.8L176.33,248.98L187.35,249.02L198.37,251.26L209.39,250.7L231.43,253.48L242.45,256.66L264.49,263.11L275.51,264.96L297.55,271.85L308.57,274.8L319.59,278.15L330.61,279.74L341.63,283.18L352.65,285.38L429.8,302.94L440.82,304.63L473.88,307.16L484.9,307.9L540,311.02" style="vector-effect: non-scaling-stroke; fill: none; stroke: rgb(163, 165, 0); stroke-opacity: 1; stroke-width: 2px; opacity: 1;"/></g><g class="points"/><g class="text"/></g><g class="trace scatter tracededd1e" style="stroke-miterlimit: 2; opacity: 1;"><g class="fills"/><g class="errorbars"/><g class="lines"><path class="js-line" d="M0,54.5L11.02,197.81L22.04,207.48L33.06,211.93L44.08,214.11L77.14,220.56L88.16,224.41L99.18,229.31L110.2,231.98L121.22,235.54L132.24,240.14L154.29,244.72L165.31,246.8L176.33,247.58L187.35,249.14L198.37,250.96L209.39,251.86L231.43,254.95L242.45,257.64L253.47,262.39L264.49,263.4L286.53,270.52L297.55,271.91L308.57,273.9L319.59,278.29L330.61,279.57L341.63,281.97L363.67,287.07L374.69,290.27L429.8,301.91L440.82,303.46L473.88,305.96L484.9,306.5L540,309.51" style="vector-effect: non-scaling-stroke; fill: none; stroke: rgb(0, 191, 125); stroke-opacity: 1; stroke-width: 2px; opacity: 1;"/></g><g class="points"/><g class="text"/></g><g class="trace scatter trace00a801" style="stroke-miterlimit: 2; opacity: 1;"><g class="fills"/><g class="errorbars"/><g class="lines"><path class="js-line" d="M0,81L11.02,198.2L22.04,208.07L33.06,211.81L44.08,214.66L66.12,225.69L77.14,229.52L99.18,233.12L110.2,238.04L121.22,241.42L132.24,243.26L143.27,246.12L154.29,246.85L165.31,248.84L176.33,249.22L187.35,249.84L198.37,251.72L209.39,250.58L220.41,252.41L297.55,272.35L308.57,274.69L330.61,279.61L341.63,283.45L363.67,288.51L374.69,291.5L440.82,305.59L451.84,306.24L517.96,310.44L528.98,310.91L540,311.49" style="vector-effect: non-scaling-stroke; fill: none; stroke: rgb(0, 176, 246); stroke-opacity: 1; stroke-width: 2px; opacity: 1;"/></g><g class="points"/><g class="text"/></g><g class="trace scatter tracee4db0b" style="stroke-miterlimit: 2; opacity: 1;"><g class="fills"/><g class="errorbars"/><g class="lines"><path class="js-line" d="M0,66.25L11.02,193.54L22.04,206.3L33.06,212.03L44.08,216.79L77.14,227.11L88.16,228.82L110.2,234.28L121.22,235.04L132.24,237.61L143.27,241.03L154.29,245.3L165.31,246.19L176.33,247.28L187.35,249.62L198.37,250.95L209.39,250.67L231.43,255.51L242.45,256.32L253.47,259.99L264.49,261.88L275.51,266.76L286.53,268.92L352.65,284.39L363.67,286.33L374.69,289.58L385.71,290.88L407.76,296.13L418.78,298.08L429.8,300.52L440.82,301.85L473.88,303.84L484.9,304.46L540,307.27" style="vector-effect: non-scaling-stroke; fill: none; stroke: rgb(231, 107, 243); stroke-opacity: 1; stroke-width: 2px; opacity: 1;"/></g><g class="points"/><g class="text"/></g><g class="trace scatter tracefed851" style="stroke-miterlimit: 2; opacity: 1;"><g class="fills"/><g class="errorbars"/><g class="lines"><path class="js-line" d="M0,68.49L11.02,190.21L22.04,203.99L33.06,209.62L44.08,210.82L66.12,215.03L77.14,221.13L99.18,233.55L110.2,238.79L132.24,243.68L143.27,245.2L187.35,247.15L198.37,248.11L209.39,247.04L220.41,249.04L231.43,251.66L242.45,253.14L297.55,267.09L308.57,268.95L341.63,277.28L352.65,279.17L363.67,281.03L374.69,284.06L418.78,292.89L429.8,294.84L451.84,297.21L462.86,297.51L484.9,299L495.92,299.62L540,301.78" style="vector-effect: non-scaling-stroke; fill: none; stroke: rgb(248, 118, 109); stroke-opacity: 1; stroke-width: 2px; opacity: 1;"/></g><g class="points"/><g class="text"/></g><g class="trace scatter trace7593ef" style="stroke-miterlimit: 2; opacity: 1;"><g class="fills"/><g class="errorbars"/><g class="lines"><path class="js-line" d="M0,97.85L11.02,202.23L22.04,209.43L33.06,212.9L44.08,215.57L66.12,224.74L77.14,228.43L88.16,232.14L99.18,238.36L121.22,245.84L132.24,248.17L154.29,248.71L165.31,251.07L187.35,252.95L198.37,251.73L220.41,254.52L231.43,259.41L242.45,261.6L253.47,264.95L264.49,268.38L275.51,270.5L297.55,278.68L308.57,281.68L374.69,298.45L385.71,302.22L418.78,309.73L429.8,312.3L451.84,314.78L462.86,315.47L540,320" style="vector-effect: non-scaling-stroke; fill: none; stroke: rgb(163, 165, 0); stroke-opacity: 1; stroke-width: 2px; opacity: 1;"/></g><g class="points"/><g class="text"/></g><g class="trace scatter tracedd6236" style="stroke-miterlimit: 2; opacity: 1;"><g class="fills"/><g class="errorbars"/><g class="lines"><path class="js-line" d="M0,59.19L11.02,197.11L22.04,207.72L33.06,211.68L44.08,217.58L77.14,228.86L88.16,230.56L99.18,231.84L110.2,234.53L121.22,234.42L132.24,236.89L143.27,239.31L154.29,243.98L176.33,246.54L187.35,248.83L209.39,251.53L220.41,252.09L242.45,258.12L253.47,261.02L264.49,263.46L275.51,267.29L286.53,268.68L297.55,272.99L308.57,275.05L319.59,278.31L330.61,279.97L341.63,283.52L352.65,284.82L363.67,287.95L418.78,300.23L429.8,302.66L440.82,304.57L451.84,305.47L540,310.41" style="vector-effect: non-scaling-stroke; fill: none; stroke: rgb(0, 191, 125); stroke-opacity: 1; stroke-width: 2px; opacity: 1;"/></g><g class="points"/><g class="text"/></g><g class="trace scatter tracebdb215" style="stroke-miterlimit: 2; opacity: 1;"><g class="fills"/><g class="errorbars"/><g class="lines"><path class="js-line" d="M0,29.09L11.02,196.58L22.04,206.91L33.06,210.54L44.08,211.66L66.12,214.69L77.14,216.09L88.16,220.47L99.18,227.35L110.2,231.84L121.22,235.38L165.31,244.95L176.33,245.97L198.37,247.97L209.39,250.29L220.41,252.45L231.43,255.4L242.45,257.83L253.47,261.32L275.51,269.38L286.53,271.71L308.57,275.8L319.59,279.01L396.73,297.32L407.76,299.83L429.8,304.46L440.82,306.03L484.9,309.09L495.92,309.61L540,311.99" style="vector-effect: non-scaling-stroke; fill: none; stroke: rgb(0, 176, 246); stroke-opacity: 1; stroke-width: 2px; opacity: 1;"/></g><g class="points"/><g class="text"/></g><g class="trace scatter tracee5d99a" style="stroke-miterlimit: 2; opacity: 1;"><g class="fills"/><g class="errorbars"/><g class="lines"><path class="js-line" d="M0,7.68L11.02,196.25L22.04,208.3L33.06,212.26L44.08,214.34L55.1,216.39L66.12,219.49L77.14,226.01L88.16,229.72L121.22,241.64L132.24,244.12L154.29,247L165.31,247.38L176.33,249.49L187.35,249.22L198.37,249.19L209.39,251.9L220.41,252.47L231.43,254.92L264.49,263.19L275.51,267.22L286.53,269.03L297.55,273.42L308.57,273.66L319.59,279.34L341.63,281.88L352.65,285.8L363.67,287.07L374.69,290.86L385.71,292.57L396.73,295.26L418.78,299.9L429.8,302.11L440.82,304.06L451.84,304.49L462.86,305.65L473.88,305.8L506.94,307.87L517.96,308.49L540,309.61" style="vector-effect: non-scaling-stroke; fill: none; stroke: rgb(231, 107, 243); stroke-opacity: 1; stroke-width: 2px; opacity: 1;"/></g><g class="points"/><g class="text"/></g></g></g><g class="overplot"/><path class="xlines-above crisp" d="" style="fill: none; stroke-width: 1px; stroke: rgb(0, 0, 0); stroke-opacity: 0;"/><path class="ylines-above crisp" d="" style="fill: none; stroke-width: 1px; stroke: rgb(0, 0, 0); stroke-opacity: 0;"/><g class="overlines-above"/><g class="xaxislayer-above"><path class="xtick ticks crisp" d="M0,421v5" transform="translate(80,0)" style="stroke: rgb(51, 51, 51); stroke-opacity: 1; stroke-width: 1px;"/><path class="xtick ticks crisp" d="M0,421v5" transform="translate(190.2,0)" style="stroke: rgb(51, 51, 51); stroke-opacity: 1; stroke-width: 1px;"/><path class="xtick ticks crisp" d="M0,421v5" transform="translate(300.40999999999997,0)" style="stroke: rgb(51, 51, 51); stroke-opacity: 1; stroke-width: 1px;"/><path class="xtick ticks crisp" d="M0,421v5" transform="translate(410.61,0)" style="stroke: rgb(51, 51, 51); stroke-opacity: 1; stroke-width: 1px;"/><path class="xtick ticks crisp" d="M0,421v5" transform="translate(520.8199999999999,0)" style="stroke: rgb(51, 51, 51); stroke-opacity: 1; stroke-width: 1px;"/><g class="xtick"><text text-anchor="middle" x="0" y="440.4" transform="translate(80,0)" style="font-family: 'Open Sans', verdana, arial, sans-serif; font-size: 12px; fill: rgb(51, 51, 51); fill-opacity: 1; white-space: pre; opacity: 1;">0</text></g><g class="xtick"><text text-anchor="middle" x="0" y="440.4" style="font-family: 'Open Sans', verdana, arial, sans-serif; font-size: 12px; fill: rgb(51, 51, 51); fill-opacity: 1; white-space: pre; opacity: 1;" transform="translate(190.2,0)">10</text></g><g class="xtick"><text text-anchor="middle" x="0" y="440.4" style="font-family: 'Open Sans', verdana, arial, sans-serif; font-size: 12px; fill: rgb(51, 51, 51); fill-opacity: 1; white-space: pre; opacity: 1;" transform="translate(300.40999999999997,0)">20</text></g><g class="xtick"><text text-anchor="middle" x="0" y="440.4" style="font-family: 'Open Sans', verdana, arial, sans-serif; font-size: 12px; fill: rgb(51, 51, 51); fill-opacity: 1; white-space: pre; opacity: 1;" transform="translate(410.61,0)">30</text></g><g class="xtick"><text text-anchor="middle" x="0" y="440.4" style="font-family: 'Open Sans', verdana, arial, sans-serif; font-size: 12px; fill: rgb(51, 51, 51); fill-opacity: 1; white-space: pre; opacity: 1;" transform="translate(520.8199999999999,0)">40</text></g></g><g class="yaxislayer-above"><path class="ytick ticks crisp" d="M79,0h-5" transform="translate(0,377.43)" style="stroke: rgb(51, 51, 51); stroke-opacity: 1; stroke-width: 1px;"/><path class="ytick ticks crisp" d="M79,0h-5" transform="translate(0,326.78)" style="stroke: rgb(51, 51, 51); stroke-opacity: 1; stroke-width: 1px;"/><path class="ytick ticks crisp" d="M79,0h-5" transform="translate(0,276.14)" style="stroke: rgb(51, 51, 51); stroke-opacity: 1; stroke-width: 1px;"/><path class="ytick ticks crisp" d="M79,0h-5" transform="translate(0,225.49)" style="stroke: rgb(51, 51, 51); stroke-opacity: 1; stroke-width: 1px;"/><path class="ytick ticks crisp" d="M79,0h-5" transform="translate(0,174.85)" style="stroke: rgb(51, 51, 51); stroke-opacity: 1; stroke-width: 1px;"/><path class="ytick ticks crisp" d="M79,0h-5" transform="translate(0,124.2)" style="stroke: rgb(51, 51, 51); stroke-opacity: 1; stroke-width: 1px;"/><g class="ytick"><text text-anchor="end" x="71.6" y="4.199999999999999" transform="translate(0,377.43)" style="font-family: 'Open Sans', verdana, arial, sans-serif; font-size: 12px; fill: rgb(51, 51, 51); fill-opacity: 1; white-space: pre; opacity: 1;">1.7</text></g><g class="ytick"><text text-anchor="end" x="71.6" y="4.199999999999999" style="font-family: 'Open Sans', verdana, arial, sans-serif; font-size: 12px; fill: rgb(51, 51, 51); fill-opacity: 1; white-space: pre; opacity: 1;" transform="translate(0,326.78)">1.75</text></g><g class="ytick"><text text-anchor="end" x="71.6" y="4.199999999999999" style="font-family: 'Open Sans', verdana, arial, sans-serif; font-size: 12px; fill: rgb(51, 51, 51); fill-opacity: 1; white-space: pre; opacity: 1;" transform="translate(0,276.14)">1.8</text></g><g class="ytick"><text text-anchor="end" x="71.6" y="4.199999999999999" style="font-family: 'Open Sans', verdana, arial, sans-serif; font-size: 12px; fill: rgb(51, 51, 51); fill-opacity: 1; white-space: pre; opacity: 1;" transform="translate(0,225.49)">1.85</text></g><g class="ytick"><text text-anchor="end" x="71.6" y="4.199999999999999" style="font-family: 'Open Sans', verdana, arial, sans-serif; font-size: 12px; fill: rgb(51, 51, 51); fill-opacity: 1; white-space: pre; opacity: 1;" transform="translate(0,174.85)">1.9</text></g><g class="ytick"><text text-anchor="end" x="71.6" y="4.199999999999999" style="font-family: 'Open Sans', verdana, arial, sans-serif; font-size: 12px; fill: rgb(51, 51, 51); fill-opacity: 1; white-space: pre; opacity: 1;" transform="translate(0,124.2)">1.95</text></g></g><g class="overaxes-above"/></g></g><g class="polarlayer"/><g class="ternarylayer"/><g class="geolayer"/><g class="funnelarealayer"/><g class="pielayer"/><g class="iciclelayer"/><g class="treemaplayer"/><g class="sunburstlayer"/><g class="glimages"/><defs id="topdefs-ff8684"><g class="clips"/></defs><g class="layer-above"><g class="imagelayer"/><g class="shapelayer"/></g><g class="infolayer"><g class="g-gtitle"><text class="gtitle" x="350" y="50" text-anchor="middle" dy="0em" style="font-family: 'Open Sans', verdana, arial, sans-serif; font-size: 17px; fill: rgb(51, 51, 51); opacity: 1; font-weight: normal; white-space: pre;">Train Loss: ascad_0_noisy-s_eff_cnn_hw (original)</text></g><g class="g-xtitle"/><g class="g-ytitle"/></g></svg>