<svg class="main-svg" xmlns="http://www.w3.org/2000/svg" xmlns:xlink="http://www.w3.org/1999/xlink" width="700" height="500" style="" viewBox="0 0 700 500"><rect x="0" y="0" width="700" height="500" style="fill: rgb(255, 255, 255); fill-opacity: 1;"/><defs id="defs-b926ff"><g class="clips"><clipPath id="clipb926ffxyplot" class="plotclip"><rect width="540" height="320"/></clipPath><clipPath class="axesclip" id="clipb926ffx"><rect x="80" y="0" width="540" height="500"/></clipPath><clipPath class="axesclip" id="clipb926ffy"><rect x="0" y="100" width="700" height="320"/></clipPath><clipPath class="axesclip" id="clipb926ffxy"><rect x="80" y="100" width="540" height="320"/></clipPath></g><g class="gradients"/><g class="patterns"/></defs><g class="bglayer"><rect class="bg" x="80" y="100" width="540" height="320" style="fill: rgb(237, 237, 237); fill-opacity: 1; stroke-width: 0;"/></g><g class="layer-below"><g class="imagelayer"/><g class="shapelayer"/></g><g class="cartesianlayer"><g class="subplot xy"><g class="layer-subplot"><g class="shapelayer"/><g class="imagelayer"/></g><g class="gridlayer"><g class="x"><path class="xgrid crisp" transform="translate(190.2,0)" d="M0,100v320" style="stroke: rgb(255, 255, 255); stroke-opacity: 1; stroke-width: 1px;"/><path class="xgrid crisp" transform="translate(300.40999999999997,0)" d="M0,100v320" style="stroke: rgb(255, 255, 255); stroke-opacity: 1; stroke-width: 1px;"/><path class="xgrid crisp" transform="translate(410.61,0)" d="M0,100v320" style="stroke: rgb(255, 255, 255); stroke-opacity: 1; stroke-width: 1px;"/><path class="xgrid crisp" transform="translate(520.8199999999999,0)" d="M0,100v320" style="stroke: rgb(255, 255, 255); stroke-opacity: 1; stroke-width: 1px;"/></g><g class="y"><path class="ygrid crisp" transform="translate(0,413.51)" d="M80,0h540" style="stroke: rgb(255, 255, 255); stroke-opacity: 1; stroke-width: 1px;"/><path class="ygrid crisp" transform="translate(0,343.15)" d="M80,0h540" style="stroke: rgb(255, 255, 255); stroke-opacity: 1; stroke-width: 1px;"/><path class="ygrid crisp" transform="translate(0,272.78)" d="M80,0h540" style="stroke: rgb(255, 255, 255); stroke-opacity: 1; stroke-width: 1px;"/><path class="ygrid crisp" transform="translate(0,202.42000000000002)" d="M80,0h540" style="stroke: rgb(255, 255, 255); stroke-opacity: 1; stroke-width: 1px;"/><path class="ygrid crisp" transform="translate(0,132.05)" d="M80,0h540" style="stroke: rgb(255, 255, 255); stroke-opacity: 1; stroke-width: 1px;"/></g></g><g class="zerolinelayer"><path class="xzl zl crisp" transform="translate(80,0)" d="M0,100v320" style="stroke: rgb(255, 255, 255); stroke-opacity: 1; stroke-width: 1px;"/></g><path class="xlines-below"/><path class="ylines-below"/><g class="overlines-below"/><g class="xaxislayer-below"/><g class="yaxislayer-below"/><g class="overaxes-below"/><g class="plot" transform="translate(80,100)" clip-path="url(#clipb926ffxyplot)"><g class="scatterlayer mlayer"><g class="trace scatter trace39c449" style="stroke-miterlimit: 2; opacity: 1;"><g class="fills"/><g class="errorbars"/><g class="lines"><path class="js-line" d="M0,250.18L11.02,167.78L22.04,148.31L33.06,134.86L44.08,135.26L55.1,134.63L66.12,127.75L88.16,125.4L99.18,128.06L110.2,132.13L121.22,130.56L132.24,121.1L143.27,123.29L154.29,120.24L165.31,120.79L176.33,126.81L187.35,134.79L198.37,142.6L209.39,129.39L220.41,139.95L231.43,131.19L242.45,115.08L253.47,131.58L264.49,116.73L275.51,127.2L286.53,111.49L297.55,122.28L308.57,120.87L319.59,110.32L330.61,110.24L341.63,102.5L352.65,91.79L363.67,101.17L374.69,95.15L385.71,94.91L396.73,93.04L407.76,87.1L418.78,80.68L429.8,77.24L440.82,80.53L451.84,80.29L462.86,73.02L473.88,77.4L495.92,69.35L506.94,72.4L517.96,72.87L528.98,70.6L540,70.68" style="vector-effect: non-scaling-stroke; fill: none; stroke: rgb(248, 118, 109); stroke-opacity: 1; stroke-width: 2px; opacity: 1;"/></g><g class="points"/><g class="text"/></g><g class="trace scatter tracef426ce" style="stroke-miterlimit: 2; opacity: 1;"><g class="fills"/><g class="errorbars"/><g class="lines"><path class="js-line" d="M0,277.31L11.02,172.55L22.04,160.12L33.06,152.69L44.08,139.95L55.1,139.4L66.12,134.08L77.14,140.73L88.16,132.36L99.18,138.7L110.2,135.41L121.22,118.06L132.24,127.28L143.27,124.23L154.29,123.22L165.31,134.24L176.33,116.34L187.35,119.15L198.37,128.06L209.39,119.78L220.41,112.66L231.43,117.43L242.45,109.22L253.47,108.99L264.49,96.79L275.51,102.58L286.53,94.99L297.55,84.28L308.57,89.68L319.59,85.92L330.61,79.36L341.63,79.75L352.65,72.48L374.69,69.74L385.71,64.34L396.73,58.09L407.76,59.34L418.78,54.73L429.8,51.91L440.82,49.96L451.84,43.08L462.86,44.64L473.88,44.02L484.9,43.47L495.92,44.41L506.94,45.66L517.96,39.95L528.98,35.73L540,40.11" style="vector-effect: non-scaling-stroke; fill: none; stroke: rgb(163, 165, 0); stroke-opacity: 1; stroke-width: 2px; opacity: 1;"/></g><g class="points"/><g class="text"/></g><g class="trace scatter trace5c6d7a" style="stroke-miterlimit: 2; opacity: 1;"><g class="fills"/><g class="errorbars"/><g class="lines"><path class="js-line" d="M0,259.64L11.02,169.19L22.04,145.5L33.06,139.56L44.08,145.65L55.1,146.12L66.12,136.04L77.14,143.31L88.16,135.65L99.18,132.52L110.2,123.68L121.22,128.45L132.24,130.56L143.27,125.4L154.29,122.59L165.31,125.09L176.33,109.06L187.35,117.82L198.37,114.46L209.39,119.85L220.41,121.26L231.43,103.04L242.45,91.08L253.47,99.68L264.49,107.11L286.53,90.61L297.55,94.44L308.57,80.06L319.59,78.26L330.61,75.68L341.63,74.74L352.65,66.22L363.67,67.55L374.69,62.23L385.71,60.43L396.73,54.34L407.76,43.47L418.78,48.55L429.8,36.75L440.82,38L451.84,37.76L462.86,34.56L473.88,34.48L495.92,30.88L506.94,32.6L517.96,31.74L528.98,32.6L540,30.73" style="vector-effect: non-scaling-stroke; fill: none; stroke: rgb(0, 191, 125); stroke-opacity: 1; stroke-width: 2px; opacity: 1;"/></g><g class="points"/><g class="text"/></g><g class="trace scatter tracee59ee3" style="stroke-miterlimit: 2; opacity: 1;"><g class="fills"/><g class="errorbars"/><g class="lines"><path class="js-line" d="M0,285.52L11.02,153.16L22.04,140.02L33.06,142.92L44.08,133.69L55.1,125.8L66.12,119.54L77.14,125.95L88.16,122.75L99.18,120.17L110.2,107.66L121.22,113.99L132.24,113.29L143.27,113.52L154.29,98.9L165.31,101.56L176.33,100.54L187.35,102.73L198.37,99.53L209.39,98.74L220.41,100.54L231.43,91.32L242.45,89.05L253.47,80.45L264.49,88.11L275.51,73.57L286.53,70.68L297.55,66.06L308.57,66.53L319.59,63.56L330.61,47.53L341.63,42.53L352.65,44.09L363.67,44.09L374.69,41.05L385.71,33.93L396.73,34.32L407.76,29.55L418.78,19.94L429.8,24.08L440.82,17.98L451.84,13.68L462.86,14.23L473.88,6.65L484.9,15.4L495.92,13.06L506.94,11.49L517.96,9.38L528.98,11.73L540,8.13" style="vector-effect: non-scaling-stroke; fill: none; stroke: rgb(0, 176, 246); stroke-opacity: 1; stroke-width: 2px; opacity: 1;"/></g><g class="points"/><g class="text"/></g><g class="trace scatter traced2e9f1" style="stroke-miterlimit: 2; opacity: 1;"><g class="fills"/><g class="errorbars"/><g class="lines"><path class="js-line" d="M0,269.26L11.02,155.9L22.04,147.84L33.06,139.79L44.08,141.35L55.1,128.14L66.12,130.8L77.14,132.21L88.16,125.48L99.18,138.7L110.2,123.61L121.22,118.21L132.24,123.53L154.29,121.42L165.31,115.48L176.33,130.72L187.35,119.31L198.37,132.36L209.39,118.13L220.41,126.66L231.43,119.78L242.45,112.5L253.47,110.47L264.49,101.87L275.51,106.33L286.53,95.46L297.55,89.91L308.57,88.03L319.59,84.98L330.61,75.29L341.63,79.98L352.65,68.64L363.67,71.54L374.69,52.54L385.71,57.39L396.73,59.34L407.76,45.89L418.78,45.03L429.8,38.39L440.82,35.89L451.84,34.79L462.86,30.26L473.88,39.25L484.9,33.7L495.92,30.18L540,26.74" style="vector-effect: non-scaling-stroke; fill: none; stroke: rgb(231, 107, 243); stroke-opacity: 1; stroke-width: 2px; opacity: 1;"/></g><g class="points"/><g class="text"/></g><g class="trace scatter traceaf5258" style="stroke-miterlimit: 2; opacity: 1;"><g class="fills"/><g class="errorbars"/><g class="lines"><path class="js-line" d="M0,247.06L11.02,176.22L22.04,154.8L33.06,137.91L44.08,134.08L55.1,132.75L66.12,145.58L77.14,137.21L88.16,143.86L99.18,132.28L110.2,129.63L121.22,125.48L132.24,128.69L143.27,122.12L154.29,119.78L165.31,117.74L176.33,120.48L187.35,123.92L198.37,118.84L209.39,126.66L220.41,136.51L231.43,115.08L242.45,122.59L253.47,113.29L264.49,109.69L275.51,106.33L286.53,104.76L297.55,98.67L308.57,96.24L319.59,89.28L330.61,89.68L341.63,87.25L352.65,79.04L363.67,76.15L374.69,74.51L385.71,67.08L396.73,62.55L407.76,63.48L418.78,62.7L429.8,53.48L440.82,52.07L451.84,51.21L462.86,48.24L473.88,43L484.9,44.88L495.92,45.11L506.94,38.07L517.96,39.95L528.98,38.78L540,38.15" style="vector-effect: non-scaling-stroke; fill: none; stroke: rgb(248, 118, 109); stroke-opacity: 1; stroke-width: 2px; opacity: 1;"/></g><g class="points"/><g class="text"/></g><g class="trace scatter traced437c2" style="stroke-miterlimit: 2; opacity: 1;"><g class="fills"/><g class="errorbars"/><g class="lines"><path class="js-line" d="M0,264.02L11.02,155.82L22.04,149.33L33.06,137.29L44.08,138.07L55.1,136.27L66.12,137.05L77.14,128.84L88.16,130.25L99.18,136.43L110.2,135.41L121.22,127.52L132.24,124.78L154.29,122.98L165.31,130.1L176.33,121.73L187.35,124L198.37,121.18L209.39,111.8L220.41,117.51L231.43,118.6L242.45,109.38L253.47,111.02L264.49,103.51L275.51,101.17L286.53,103.36L297.55,88.11L308.57,86.08L319.59,77.09L330.61,76.62L341.63,73.18L352.65,67L363.67,64.58L374.69,60.2L385.71,63.72L396.73,53.4L407.76,49.49L418.78,41.51L429.8,42.69L440.82,37.21L451.84,36.04L462.86,31.35L473.88,34.01L484.9,32.21L495.92,31.66L506.94,26.11L517.96,29.4L528.98,25.8L540,24.24" style="vector-effect: non-scaling-stroke; fill: none; stroke: rgb(163, 165, 0); stroke-opacity: 1; stroke-width: 2px; opacity: 1;"/></g><g class="points"/><g class="text"/></g><g class="trace scatter traceec4651" style="stroke-miterlimit: 2; opacity: 1;"><g class="fills"/><g class="errorbars"/><g class="lines"><path class="js-line" d="M0,278.72L11.02,165.12L22.04,137.44L33.06,140.65L44.08,136.19L55.1,141.28L66.12,141.28L77.14,135.02L88.16,138.62L99.18,136.74L110.2,136.82L121.22,132.91L132.24,130.88L143.27,132.28L154.29,131.5L165.31,133.46L176.33,125.4L187.35,121.89L198.37,123.76L209.39,121.34L220.41,133.3L231.43,122.36L242.45,121.03L253.47,124.39L264.49,105.47L275.51,107.66L286.53,99.6L297.55,103.36L308.57,102.11L319.59,96.79L330.61,90.3L341.63,82.48L352.65,85.3L363.67,70.44L374.69,73.49L385.71,65.13L396.73,63.72L407.76,58.25L418.78,56.76L429.8,51.21L440.82,47.77L451.84,40.97L462.86,41.05L473.88,44.17L484.9,43.63L495.92,41.28L506.94,41.91L517.96,38.78L528.98,39.33L540,37.45" style="vector-effect: non-scaling-stroke; fill: none; stroke: rgb(0, 191, 125); stroke-opacity: 1; stroke-width: 2px; opacity: 1;"/></g><g class="points"/><g class="text"/></g><g class="trace scatter trace5ed477" style="stroke-miterlimit: 2; opacity: 1;"><g class="fills"/><g class="errorbars"/><g class="lines"><path class="js-line" d="M0,312.81L11.02,162.54L22.04,153.08L33.06,156.99L44.08,145.97L55.1,150.03L66.12,142.53L77.14,132.83L88.16,137.21L99.18,119.07L110.2,120.56L121.22,125.8L132.24,112.35L143.27,121.34L154.29,116.34L165.31,113.68L176.33,118.68L187.35,115.71L198.37,122.36L209.39,123.22L220.41,116.57L231.43,116.41L242.45,109.61L253.47,99.29L264.49,100.86L275.51,108.52L286.53,90.77L297.55,90.54L308.57,80.76L319.59,82.09L330.61,74.43L341.63,71.22L352.65,73.26L363.67,71.61L374.69,60.75L385.71,59.42L396.73,55.59L407.76,47.61L418.78,43.55L429.8,41.05L440.82,40.42L451.84,35.73L462.86,37.76L473.88,34.79L484.9,33.85L495.92,31.35L506.94,32.6L528.98,31.59L540,27.36" style="vector-effect: non-scaling-stroke; fill: none; stroke: rgb(0, 176, 246); stroke-opacity: 1; stroke-width: 2px; opacity: 1;"/></g><g class="points"/><g class="text"/></g><g class="trace scatter trace7afcf5" style="stroke-miterlimit: 2; opacity: 1;"><g class="fills"/><g class="errorbars"/><g class="lines"><path class="js-line" d="M0,258.47L11.02,174.82L22.04,161.52L33.06,151.13L44.08,145.18L55.1,140.57L66.12,132.68L77.14,132.68L88.16,135.8L99.18,137.99L110.2,126.66L132.24,128.77L143.27,124.08L154.29,123.53L165.31,120.71L176.33,125.72L187.35,120.79L198.37,113.29L209.39,121.89L220.41,113.44L231.43,113.36L242.45,105.47L253.47,94.6L264.49,96.79L275.51,92.8L286.53,82.01L297.55,83.34L308.57,75.52L319.59,78.81L330.61,74.19L341.63,56.21L352.65,53.16L363.67,46.75L374.69,42.45L385.71,43.39L396.73,32.45L407.76,29.4L418.78,26.35L429.8,17.36L440.82,22.05L451.84,15.4L462.86,10.01L473.88,13.6L484.9,11.02L495.92,6.02L506.94,7.51L517.96,7.97L540,5.86" style="vector-effect: non-scaling-stroke; fill: none; stroke: rgb(231, 107, 243); stroke-opacity: 1; stroke-width: 2px; opacity: 1;"/></g><g class="points"/><g class="text"/></g><g class="trace scatter tracec03240" style="stroke-miterlimit: 2; opacity: 1;"><g class="fills"/><g class="errorbars"/><g class="lines"><path class="js-line" d="M0,250.73L11.02,172.78L22.04,151.75L33.06,146.9L44.08,137.84L55.1,139.87L66.12,133.3L77.14,124.94L88.16,129.86L99.18,128.84L110.2,119.15L121.22,121.34L132.24,120.09L143.27,120.01L154.29,124L165.31,124.31L176.33,129.31L187.35,122.2L198.37,122.36L209.39,129.31L220.41,126.19L231.43,122.2L242.45,122.75L253.47,121.03L264.49,113.13L275.51,113.29L286.53,103.51L297.55,105.94L308.57,97.18L319.59,99.06L330.61,91.71L341.63,89.99L352.65,82.09L363.67,80.14L374.69,71.93L385.71,64.19L396.73,64.58L407.76,63.41L418.78,57.7L429.8,45.66L440.82,45.19L451.84,36.75L462.86,42.37L473.88,40.65L484.9,41.05L495.92,43.08L506.94,38.54L528.98,34.17L540,35.18" style="vector-effect: non-scaling-stroke; fill: none; stroke: rgb(248, 118, 109); stroke-opacity: 1; stroke-width: 2px; opacity: 1;"/></g><g class="points"/><g class="text"/></g><g class="trace scatter trace0fe050" style="stroke-miterlimit: 2; opacity: 1;"><g class="fills"/><g class="errorbars"/><g class="lines"><path class="js-line" d="M0,255.58L11.02,163.32L22.04,147.53L33.06,141.74L44.08,134.94L55.1,132.75L66.12,136.43L77.14,131.66L88.16,136.35L99.18,131.58L110.2,121.89L121.22,128.38L132.24,135.8L143.27,119.38L154.29,125.8L165.31,118.68L176.33,121.57L187.35,125.56L198.37,127.59L209.39,128.3L220.41,119.85L231.43,111.25L242.45,117.12L253.47,103.83L264.49,100.15L275.51,108.99L286.53,98.82L308.57,84.05L319.59,82.48L330.61,84.91L341.63,82.8L352.65,69.5L363.67,66.69L374.69,59.73L385.71,58.87L396.73,54.1L407.76,47.61L418.78,47.93L429.8,41.67L440.82,33.54L451.84,40.03L462.86,33.85L473.88,34.48L484.9,32.76L495.92,39.64L506.94,32.05L517.96,29.87L540,30.49" style="vector-effect: non-scaling-stroke; fill: none; stroke: rgb(163, 165, 0); stroke-opacity: 1; stroke-width: 2px; opacity: 1;"/></g><g class="points"/><g class="text"/></g><g class="trace scatter trace058a2e" style="stroke-miterlimit: 2; opacity: 1;"><g class="fills"/><g class="errorbars"/><g class="lines"><path class="js-line" d="M0,282.39L11.02,163.64L22.04,149.8L33.06,139.79L44.08,135.41L55.1,131.03L66.12,127.91L77.14,126.58L88.16,126.03L99.18,116.18L110.2,126.26L121.22,129.86L132.24,118.84L143.27,118.76L154.29,112.35L165.31,118.29L176.33,119.31L187.35,124.15L198.37,120.79L209.39,116.57L220.41,118.6L231.43,120.4L242.45,112.58L253.47,113.29L264.49,98.28L275.51,101.17L286.53,94.13L297.55,86.78L308.57,82.17L319.59,84.28L330.61,79.82L352.65,72.48L363.67,69.19L374.69,61.37L385.71,59.34L396.73,54.02L407.76,53.48L418.78,48.79L429.8,39.4L440.82,41.2L451.84,42.14L462.86,36.67L473.88,40.81L484.9,38.39L495.92,38L506.94,35.49L517.96,33.93L540,32.84" style="vector-effect: non-scaling-stroke; fill: none; stroke: rgb(0, 191, 125); stroke-opacity: 1; stroke-width: 2px; opacity: 1;"/></g><g class="points"/><g class="text"/></g><g class="trace scatter trace9fb6ce" style="stroke-miterlimit: 2; opacity: 1;"><g class="fills"/><g class="errorbars"/><g class="lines"><path class="js-line" d="M0,262.3L11.02,171.69L22.04,148.39L33.06,140.42L44.08,136.66L55.1,130.02L66.12,120.64L77.14,128.38L88.16,127.83L99.18,131.27L110.2,118.99L121.22,130.33L132.24,116.96L143.27,119.85L154.29,125.56L176.33,123.37L187.35,132.28L198.37,122.43L209.39,129.39L220.41,134.86L231.43,122.9L242.45,130.1L253.47,115.24L264.49,118.37L275.51,103.9L286.53,106.33L297.55,101.64L308.57,97.73L319.59,83.89L341.63,85.14L352.65,86.08L363.67,73.02L374.69,65.05L385.71,67.24L396.73,60.12L407.76,60.12L418.78,46.67L429.8,43.86L440.82,38.15L451.84,43.31L462.86,41.83L473.88,37.68L484.9,34.63L495.92,38.23L506.94,30.33L517.96,31.04L528.98,29.63L540,28.22" style="vector-effect: non-scaling-stroke; fill: none; stroke: rgb(0, 176, 246); stroke-opacity: 1; stroke-width: 2px; opacity: 1;"/></g><g class="points"/><g class="text"/></g><g class="trace scatter trace8f47f9" style="stroke-miterlimit: 2; opacity: 1;"><g class="fills"/><g class="errorbars"/><g class="lines"><path class="js-line" d="M0,242.44L11.02,162.46L22.04,161.52L33.06,140.26L44.08,149.48L55.1,146.12L66.12,148.31L77.14,151.52L88.16,145.73L99.18,140.49L110.2,139.4L121.22,136.51L132.24,130.17L143.27,134.79L154.29,130.56L165.31,129.55L176.33,127.44L187.35,116.1L198.37,128.77L209.39,128.69L220.41,130.49L231.43,120.87L242.45,117.43L253.47,124.86L264.49,115.08L275.51,107.03L286.53,103.2L297.55,95.7L308.57,91.47L319.59,97.34L330.61,82.25L341.63,80.76L352.65,80.92L363.67,68.72L374.69,67.31L385.71,60.59L396.73,66.06L407.76,62.31L418.78,63.56L429.8,47.3L440.82,51.21L451.84,51.83L462.86,47.46L473.88,50.19L484.9,44.95L506.94,42.06L517.96,39.48L540,39.48" style="vector-effect: non-scaling-stroke; fill: none; stroke: rgb(231, 107, 243); stroke-opacity: 1; stroke-width: 2px; opacity: 1;"/></g><g class="points"/><g class="text"/></g><g class="trace scatter tracee979c0" style="stroke-miterlimit: 2; opacity: 1;"><g class="fills"/><g class="errorbars"/><g class="lines"><path class="js-line" d="M0,254.17L11.02,168.01L22.04,149.88L33.06,149.64L44.08,146.44L55.1,139.56L66.12,142.53L77.14,135.72L88.16,127.05L99.18,120.48L110.2,121.89L132.24,115.55L143.27,116.41L154.29,115.87L165.31,111.49L176.33,110.86L187.35,108.13L198.37,117.27L209.39,111.49L220.41,115.94L231.43,106.56L242.45,106.33L253.47,100.54L264.49,86.7L275.51,90.85L286.53,79.67L297.55,86.47L308.57,78.89L319.59,75.99L330.61,69.97L341.63,61.53L363.67,49.88L374.69,48.32L385.71,40.58L396.73,41.36L407.76,38.47L418.78,32.05L429.8,33.15L440.82,25.41L451.84,28.46L462.86,22.36L473.88,22.36L484.9,18.29L495.92,23.3L506.94,14.39L517.96,18.22L528.98,17.59L540,13.13" style="vector-effect: non-scaling-stroke; fill: none; stroke: rgb(248, 118, 109); stroke-opacity: 1; stroke-width: 2px; opacity: 1;"/></g><g class="points"/><g class="text"/></g><g class="trace scatter traceda26c5" style="stroke-miterlimit: 2; opacity: 1;"><g class="fills"/><g class="errorbars"/><g class="lines"><path class="js-line" d="M0,263.08L11.02,169.89L22.04,151.91L33.06,142.6L44.08,136.27L55.1,134.86L66.12,130.33L88.16,132.6L99.18,124.23L110.2,128.3L121.22,116.02L132.24,112.27L143.27,106.02L154.29,114.15L165.31,114.3L187.35,118.52L198.37,116.1L209.39,116.8L220.41,124.39L231.43,113.44L242.45,113.91L253.47,105.62L264.49,106.33L275.51,97.49L286.53,93.04L297.55,101.56L308.57,87.8L319.59,79.12L330.61,78.1L341.63,76.93L352.65,72.94L363.67,61.92L374.69,68.88L396.73,56.68L407.76,46.99L418.78,49.25L429.8,42.84L440.82,40.73L451.84,39.56L462.86,26.89L473.88,40.81L484.9,29.4L495.92,32.99L506.94,29.63L517.96,30.8L528.98,25.41L540,25.41" style="vector-effect: non-scaling-stroke; fill: none; stroke: rgb(163, 165, 0); stroke-opacity: 1; stroke-width: 2px; opacity: 1;"/></g><g class="points"/><g class="text"/></g><g class="trace scatter tracefa7d22" style="stroke-miterlimit: 2; opacity: 1;"><g class="fills"/><g class="errorbars"/><g class="lines"><path class="js-line" d="M0,265.27L11.02,158.4L22.04,140.96L33.06,136.27L44.08,122.67L55.1,131.74L66.12,125.4L77.14,114.62L88.16,117.98L99.18,123.53L110.2,126.03L121.22,114.3L132.24,122.43L143.27,123.37L154.29,122.82L165.31,124.08L176.33,115.24L187.35,124.31L198.37,119.15L209.39,130.8L220.41,115.24L231.43,116.73L242.45,111.02L253.47,112.35L264.49,107.03L275.51,99.76L286.53,98.9L297.55,89.44L308.57,93.74L319.59,89.05L330.61,81L341.63,84.98L352.65,79.82L363.67,69.89L374.69,67.31L396.73,58.48L407.76,51.6L418.78,47.46L429.8,48.32L451.84,38.54L462.86,35.57L473.88,35.26L484.9,36.35L495.92,31.66L506.94,32.29L517.96,29.47L528.98,31.66L540,25.1" style="vector-effect: non-scaling-stroke; fill: none; stroke: rgb(0, 191, 125); stroke-opacity: 1; stroke-width: 2px; opacity: 1;"/></g><g class="points"/><g class="text"/></g><g class="trace scatter trace034298" style="stroke-miterlimit: 2; opacity: 1;"><g class="fills"/><g class="errorbars"/><g class="lines"><path class="js-line" d="M0,242.29L11.02,154.64L22.04,140.49L44.08,136.9L55.1,131.89L66.12,126.03L77.14,126.89L88.16,121.26L99.18,125.09L110.2,125.17L121.22,129.78L132.24,120.56L143.27,128.84L154.29,116.57L165.31,114.69L176.33,114.85L187.35,110.55L198.37,113.83L209.39,114.54L220.41,105.39L231.43,107.27L242.45,93.35L253.47,96.32L264.49,87.41L275.51,86.63L286.53,75.05L297.55,77.79L308.57,67.24L319.59,64.34L330.61,54.57L341.63,47.77L352.65,47.53L363.67,43L374.69,35.03L385.71,29.01L396.73,27.91L407.76,25.17L418.78,20.09L429.8,13.99L440.82,13.45L451.84,10.09L473.88,8.76L484.9,3.6L495.92,4.93L506.94,3.13L517.96,0L528.98,0.78L540,2.74" style="vector-effect: non-scaling-stroke; fill: none; stroke: rgb(0, 176, 246); stroke-opacity: 1; stroke-width: 2px; opacity: 1;"/></g><g class="points"/><g class="text"/></g><g class="trace scatter tracebd68b6" style="stroke-miterlimit: 2; opacity: 1;"><g class="fills"/><g class="errorbars"/><g class="lines"><path class="js-line" d="M0,244.24L11.02,151.91L22.04,141.28L33.06,132.83L44.08,126.42L55.1,130.56L66.12,113.44L77.14,119.07L88.16,126.19L99.18,122.28L110.2,116.88L121.22,120.17L132.24,110L143.27,107.03L154.29,99.68L165.31,105.16L176.33,105L187.35,99.92L198.37,111.88L209.39,96.32L220.41,101.32L231.43,90.61L242.45,87.41L253.47,83.26L264.49,75.6L275.51,75.45L286.53,72.32L297.55,74.82L308.57,64.89L319.59,61.29L330.61,56.84L341.63,52.3L352.65,46.52L363.67,52.69L374.69,43.47L385.71,36.28L396.73,31.27L407.76,32.13L418.78,27.91L429.8,21.42L440.82,19.55L451.84,16.42L462.86,17.28L473.88,12.51L484.9,17.98L506.94,11.96L517.96,13.53L540,11.65" style="vector-effect: non-scaling-stroke; fill: none; stroke: rgb(231, 107, 243); stroke-opacity: 1; stroke-width: 2px; opacity: 1;"/></g><g class="points"/><g class="text"/></g><g class="trace scatter tracea46e7b" style="stroke-miterlimit: 2; opacity: 1;"><g class="fills"/><g class="errorbars"/><g class="lines"><path class="js-line" d="M0,265.66L11.02,177.86L22.04,150.27L44.08,133.46L55.1,139.4L66.12,126.26L77.14,118.06L88.16,129.78L99.18,124.39L110.2,125.25L121.22,121.18L132.24,114.15L143.27,112.9L154.29,115.71L165.31,117.2L176.33,97.02L187.35,107.5L209.39,122.04L220.41,114.54L231.43,110.47L242.45,96.4L253.47,94.29L264.49,88.11L275.51,86.94L286.53,72.16L297.55,78.57L308.57,73.8L319.59,65.67L330.61,53.63L341.63,52.85L352.65,51.13L374.69,34.24L385.71,43.94L396.73,35.03L407.76,30.88L418.78,24.55L429.8,22.28L440.82,18.45L451.84,19.39L473.88,11.65L484.9,14.15L495.92,14.93L506.94,8.52L517.96,13.6L528.98,7.58L540,6.49" style="vector-effect: non-scaling-stroke; fill: none; stroke: rgb(248, 118, 109); stroke-opacity: 1; stroke-width: 2px; opacity: 1;"/></g><g class="points"/><g class="text"/></g><g class="trace scatter tracea07ace" style="stroke-miterlimit: 2; opacity: 1;"><g class="fills"/><g class="errorbars"/><g class="lines"><path class="js-line" d="M0,257.69L11.02,157.15L22.04,140.42L33.06,137.84L44.08,131.97L55.1,130.41L66.12,130.88L77.14,128.22L88.16,120.01L99.18,123.53L110.2,124.47L121.22,114.15L132.24,108.67L143.27,118.06L154.29,110.47L165.31,107.66L176.33,102.65L187.35,111.25L198.37,109.77L209.39,104.3L220.41,106.48L231.43,98.43L242.45,96.56L253.47,89.52L264.49,91.32L275.51,89.44L286.53,66.92L297.55,74.12L308.57,69.89L319.59,64.27L330.61,55.27L341.63,47.14L352.65,42.77L363.67,43L374.69,30.41L385.71,37.45L396.73,37.37L407.76,23.06L418.78,16.89L429.8,17.51L440.82,10.63L451.84,14.7L462.86,15.17L473.88,16.57L484.9,8.91L495.92,8.52L506.94,6.25L517.96,5.24L528.98,8.29L540,4.3" style="vector-effect: non-scaling-stroke; fill: none; stroke: rgb(163, 165, 0); stroke-opacity: 1; stroke-width: 2px; opacity: 1;"/></g><g class="points"/><g class="text"/></g><g class="trace scatter trace10df8d" style="stroke-miterlimit: 2; opacity: 1;"><g class="fills"/><g class="errorbars"/><g class="lines"><path class="js-line" d="M0,270.28L11.02,154.88L22.04,140.65L33.06,143.78L44.08,131.27L66.12,129L77.14,132.21L88.16,124.62L99.18,126.81L110.2,124.94L121.22,124.39L132.24,125.56L143.27,130.17L154.29,126.26L165.31,120.56L176.33,120.4L187.35,132.68L198.37,123.61L209.39,119.85L220.41,131.66L231.43,124.78L242.45,118.68L253.47,110.86L264.49,106.88L275.51,107.97L286.53,107.42L297.55,96.48L308.57,96.71L319.59,95.85L330.61,88.89L341.63,84.91L352.65,86L363.67,79.82L374.69,65.2L385.71,57.07L396.73,60.83L407.76,54.34L418.78,49.41L429.8,52.54L440.82,46.6L451.84,46.83L462.86,45.97L473.88,44.17L484.9,42.06L495.92,43.7L517.96,35.18L528.98,38.93L540,37.45" style="vector-effect: non-scaling-stroke; fill: none; stroke: rgb(0, 191, 125); stroke-opacity: 1; stroke-width: 2px; opacity: 1;"/></g><g class="points"/><g class="text"/></g><g class="trace scatter trace212e44" style="stroke-miterlimit: 2; opacity: 1;"><g class="fills"/><g class="errorbars"/><g class="lines"><path class="js-line" d="M0,264.33L11.02,159.65L22.04,142.14L33.06,146.44L44.08,140.18L66.12,141.28L77.14,136.12L88.16,128.77L99.18,140.02L110.2,132.68L121.22,126.26L132.24,124.86L143.27,116.57L154.29,119.15L165.31,124.39L176.33,117.12L187.35,118.99L198.37,112.35L209.39,123.22L220.41,121.73L231.43,101.79L242.45,112.04L253.47,103.98L264.49,105.55L275.51,86.86L286.53,91.08L297.55,89.68L319.59,71.07L330.61,63.17L341.63,67.55L352.65,56.76L363.67,56.06L374.69,45.97L385.71,40.5L396.73,38L407.76,35.03L418.78,32.99L429.8,24.71L440.82,26.19L451.84,24.24L462.86,23.3L473.88,18.69L484.9,17.51L495.92,19.55L506.94,18.84L517.96,16.73L528.98,13.29L540,11.41" style="vector-effect: non-scaling-stroke; fill: none; stroke: rgb(0, 176, 246); stroke-opacity: 1; stroke-width: 2px; opacity: 1;"/></g><g class="points"/><g class="text"/></g><g class="trace scatter trace3d4300" style="stroke-miterlimit: 2; opacity: 1;"><g class="fills"/><g class="errorbars"/><g class="lines"><path class="js-line" d="M0,290.99L11.02,154.18L22.04,144.95L33.06,139.71L44.08,138.46L55.1,137.05L66.12,132.05L77.14,129L88.16,135.96L99.18,133.07L110.2,136.19L121.22,125.17L132.24,121.03L143.27,120.87L154.29,125.8L165.31,127.59L176.33,121.18L187.35,127.52L198.37,122.28L209.39,121.42L220.41,112.82L231.43,125.33L242.45,122.67L253.47,115.71L264.49,103.51L275.51,99.21L286.53,96.4L297.55,98.35L308.57,86.47L319.59,90.07L330.61,79.28L341.63,70.21L352.65,76.46L363.67,69.35L374.69,72.87L385.71,57.15L396.73,59.03L407.76,52.3L418.78,46.91L429.8,45.35L440.82,47.3L451.84,40.26L462.86,43.39L473.88,34.56L484.9,35.42L495.92,35.26L506.94,37.29L517.96,34.09L528.98,33.77L540,33.46" style="vector-effect: non-scaling-stroke; fill: none; stroke: rgb(231, 107, 243); stroke-opacity: 1; stroke-width: 2px; opacity: 1;"/></g><g class="points"/><g class="text"/></g><g class="trace scatter trace64b23f" style="stroke-miterlimit: 2; opacity: 1;"><g class="fills"/><g class="errorbars"/><g class="lines"><path class="js-line" d="M0,269.42L11.02,155.82L22.04,146.36L33.06,146.59L44.08,136.51L55.1,140.49L66.12,137.29L77.14,135.49L88.16,130.64L99.18,125.48L110.2,134.47L121.22,127.75L132.24,114.22L143.27,125.09L154.29,118.29L165.31,128.77L176.33,128.92L187.35,131.74L198.37,128.06L209.39,121.81L220.41,132.13L231.43,123.06L242.45,109.53L253.47,109.06L264.49,106.95L275.51,108.83L286.53,95.38L297.55,92.65L308.57,93.82L319.59,89.44L330.61,92.02L341.63,78.34L352.65,74.43L363.67,77.64L374.69,58.4L385.71,63.87L396.73,53.48L407.76,58.09L418.78,48.08L429.8,44.64L440.82,40.26L451.84,39.33L462.86,37.45L473.88,37.84L484.9,34.01L495.92,36.67L506.94,31.59L517.96,32.45L528.98,29.63L540,28.15" style="vector-effect: non-scaling-stroke; fill: none; stroke: rgb(248, 118, 109); stroke-opacity: 1; stroke-width: 2px; opacity: 1;"/></g><g class="points"/><g class="text"/></g><g class="trace scatter trace2a5e8a" style="stroke-miterlimit: 2; opacity: 1;"><g class="fills"/><g class="errorbars"/><g class="lines"><path class="js-line" d="M0,259.49L11.02,156.91L22.04,142.45L33.06,135.33L44.08,142.14L55.1,134.86L66.12,125.33L77.14,128.84L88.16,126.66L99.18,120.48L110.2,126.42L121.22,117.04L132.24,125.48L143.27,130.33L154.29,123.37L165.31,123.76L176.33,120.48L187.35,120.4L198.37,140.26L209.39,127.44L220.41,125.4L231.43,115.71L242.45,118.92L253.47,113.99L264.49,116.96L275.51,111.96L286.53,112.11L297.55,98.51L308.57,98.43L319.59,104.69L330.61,91.55L341.63,89.44L352.65,92.65L363.67,85.06L374.69,80.76L385.71,77.09L396.73,72.55L407.76,69.66L418.78,62.23L429.8,61.14L440.82,57.46L451.84,62.78L462.86,52.54L473.88,54.1L484.9,53.63L495.92,51.29L506.94,54.81L517.96,47.77L528.98,50.97L540,49.25" style="vector-effect: non-scaling-stroke; fill: none; stroke: rgb(163, 165, 0); stroke-opacity: 1; stroke-width: 2px; opacity: 1;"/></g><g class="points"/><g class="text"/></g><g class="trace scatter traced5d3f8" style="stroke-miterlimit: 2; opacity: 1;"><g class="fills"/><g class="errorbars"/><g class="lines"><path class="js-line" d="M0,283.88L11.02,163.64L22.04,151.91L33.06,144.17L44.08,140.73L55.1,140.96L66.12,129.94L77.14,131.97L88.16,144.01L99.18,136.35L110.2,132.05L121.22,122.36L132.24,126.42L143.27,128.84L154.29,116.49L165.31,119.38L176.33,126.89L187.35,127.36L198.37,108.75L209.39,118.52L220.41,112.58L231.43,122.67L242.45,112.04L253.47,99.53L264.49,103.28L275.51,104.76L286.53,92.57L297.55,99.37L308.57,86.86L319.59,84.52L330.61,76.85L341.63,78.1L352.65,75.45L363.67,64.34L374.69,60.98L396.73,60.12L407.76,55.82L429.8,45.5L440.82,42.92L451.84,40.03L462.86,41.05L473.88,36.75L484.9,34.63L506.94,37.45L517.96,34.48L528.98,35.73L540,34.4" style="vector-effect: non-scaling-stroke; fill: none; stroke: rgb(0, 191, 125); stroke-opacity: 1; stroke-width: 2px; opacity: 1;"/></g><g class="points"/><g class="text"/></g><g class="trace scatter traceca2187" style="stroke-miterlimit: 2; opacity: 1;"><g class="fills"/><g class="errorbars"/><g class="lines"><path class="js-line" d="M0,294.51L11.02,163.48L22.04,145.18L33.06,138.62L44.08,140.57L55.1,133.77L66.12,137.99L77.14,137.21L88.16,121.34L99.18,130.49L110.2,124.47L121.22,125.8L132.24,120.71L143.27,112.9L154.29,121.73L165.31,114.93L176.33,117.43L187.35,110L198.37,118.68L209.39,108.52L220.41,110.47L231.43,106.33L242.45,112.04L253.47,109.53L264.49,86.16L275.51,91.63L286.53,91.94L297.55,87.96L308.57,75.45L319.59,74.51L330.61,65.83L352.65,57.46L363.67,56.53L374.69,51.52L385.71,44.09L396.73,35.65L407.76,41.91L418.78,34.63L429.8,31.43L440.82,23.14L451.84,21.81L462.86,20.17L473.88,24.78L484.9,19.55L495.92,15.4L506.94,13.84L517.96,13.37L528.98,11.81L540,15.17" style="vector-effect: non-scaling-stroke; fill: none; stroke: rgb(0, 176, 246); stroke-opacity: 1; stroke-width: 2px; opacity: 1;"/></g><g class="points"/><g class="text"/></g><g class="trace scatter trace5eab01" style="stroke-miterlimit: 2; opacity: 1;"><g class="fills"/><g class="errorbars"/><g class="lines"><path class="js-line" d="M0,284.19L11.02,176.14L22.04,157.46L33.06,139.71L44.08,154.72L55.1,147.53L66.12,136.98L77.14,136.04L88.16,139.79L99.18,130.56L110.2,130.02L121.22,120.17L132.24,116.88L143.27,114.07L154.29,113.68L165.31,110.47L176.33,114.77L187.35,121.73L198.37,107.66L220.41,111.33L231.43,94.6L242.45,106.33L253.47,99.37L264.49,97.26L275.51,86.86L286.53,82.8L297.55,76.93L319.59,79.9L330.61,67.63L341.63,59.81L352.65,49.02L363.67,51.68L374.69,44.02L385.71,43.39L396.73,36.82L407.76,29.71L418.78,32.45L440.82,22.52L451.84,23.22L462.86,16.03L473.88,13.21L484.9,18.84L495.92,21.11L506.94,16.03L517.96,14.85L540,12.82" style="vector-effect: non-scaling-stroke; fill: none; stroke: rgb(231, 107, 243); stroke-opacity: 1; stroke-width: 2px; opacity: 1;"/></g><g class="points"/><g class="text"/></g><g class="trace scatter trace64e7dd" style="stroke-miterlimit: 2; opacity: 1;"><g class="fills"/><g class="errorbars"/><g class="lines"><path class="js-line" d="M0,275.83L11.02,159.65L22.04,151.13L33.06,137.99L44.08,136.35L55.1,137.52L66.12,143.62L77.14,146.2L88.16,136.58L99.18,129.39L110.2,124.39L121.22,112.66L132.24,116.96L143.27,115.48L154.29,118.37L165.31,117.9L176.33,112.82L187.35,112.04L198.37,114.62L209.39,109.3L220.41,101.56L231.43,105.7L242.45,90.77L253.47,101.72L264.49,91.55L275.51,76.7L286.53,91.24L297.55,70.36L308.57,68.33L319.59,68.72L330.61,56.92L341.63,58.09L352.65,53.01L363.67,50.58L374.69,44.95L385.71,37.92L396.73,32.45L407.76,30.96L418.78,30.57L429.8,25.25L440.82,30.73L451.84,24.71L462.86,21.34L484.9,23.22L495.92,20.09L517.96,21.5L528.98,20.33L540,17.43" style="vector-effect: non-scaling-stroke; fill: none; stroke: rgb(248, 118, 109); stroke-opacity: 1; stroke-width: 2px; opacity: 1;"/></g><g class="points"/><g class="text"/></g><g class="trace scatter traced11ef6" style="stroke-miterlimit: 2; opacity: 1;"><g class="fills"/><g class="errorbars"/><g class="lines"><path class="js-line" d="M0,306.79L11.02,169.11L22.04,156.91L33.06,140.18L44.08,139.87L55.1,131.03L66.12,133.38L77.14,132.99L88.16,135.1L99.18,122.75L110.2,123.29L121.22,124.94L132.24,120.95L143.27,114.54L154.29,126.58L165.31,126.5L176.33,114.38L187.35,117.59L198.37,122.59L209.39,116.34L220.41,112.58L231.43,113.91L242.45,103.28L264.49,87.33L275.51,80.92L286.53,81.15L297.55,83.19L308.57,72.79L319.59,73.96L330.61,67L341.63,56.6L352.65,60.59L363.67,44.17L374.69,45.5L385.71,44.25L396.73,31.27L407.76,37.14L418.78,28.93L429.8,30.57L440.82,27.99L451.84,26.89L462.86,24.31L473.88,22.59L484.9,19.7L495.92,19.47L506.94,13.37L517.96,18.29L528.98,18.22L540,15.48" style="vector-effect: non-scaling-stroke; fill: none; stroke: rgb(163, 165, 0); stroke-opacity: 1; stroke-width: 2px; opacity: 1;"/></g><g class="points"/><g class="text"/></g><g class="trace scatter trace59db4f" style="stroke-miterlimit: 2; opacity: 1;"><g class="fills"/><g class="errorbars"/><g class="lines"><path class="js-line" d="M0,245.73L11.02,153.08L22.04,142.37L33.06,139.79L44.08,141.2L55.1,141.04L66.12,136.74L77.14,144.4L88.16,134.94L99.18,134L110.2,123.61L121.22,123.29L132.24,125.72L143.27,111.8L154.29,111.8L165.31,122.75L176.33,115.55L198.37,116.18L209.39,112.04L220.41,114.85L231.43,109.22L242.45,103.75L253.47,109.53L264.49,93.98L275.51,94.13L286.53,80.53L297.55,86.7L308.57,76.07L319.59,74.66L330.61,66.3L341.63,64.89L352.65,63.25L363.67,54.73L374.69,55.04L385.71,40.03L396.73,44.49L407.76,36.04L429.8,31.82L440.82,31.04L451.84,26.35L462.86,26.19L473.88,25.88L484.9,23.53L495.92,23.06L506.94,19.62L528.98,17.83L540,15.09" style="vector-effect: non-scaling-stroke; fill: none; stroke: rgb(0, 191, 125); stroke-opacity: 1; stroke-width: 2px; opacity: 1;"/></g><g class="points"/><g class="text"/></g><g class="trace scatter tracee0f40f" style="stroke-miterlimit: 2; opacity: 1;"><g class="fills"/><g class="errorbars"/><g class="lines"><path class="js-line" d="M0,283.65L11.02,180.68L22.04,163.56L33.06,139.63L44.08,147.06L55.1,135.72L66.12,135.8L77.14,136.19L88.16,125.72L99.18,126.89L110.2,117.43L121.22,123.61L132.24,118.6L154.29,119.31L165.31,116.26L176.33,108.75L187.35,114.15L198.37,111.64L209.39,114.85L220.41,108.91L231.43,111.25L242.45,95.38L253.47,96.01L264.49,94.84L275.51,89.36L286.53,78.34L297.55,75.05L308.57,69.27L319.59,69.66L341.63,62.23L352.65,55.35L363.67,46.44L374.69,41.83L385.71,47.46L396.73,42.3L407.76,31.98L418.78,35.57L429.8,29.87L440.82,26.19L451.84,22.99L462.86,23.06L473.88,26.35L484.9,22.67L495.92,20.33L506.94,22.59L517.96,19.62L528.98,19.55L540,19.23" style="vector-effect: non-scaling-stroke; fill: none; stroke: rgb(0, 176, 246); stroke-opacity: 1; stroke-width: 2px; opacity: 1;"/></g><g class="points"/><g class="text"/></g><g class="trace scatter trace59bd6b" style="stroke-miterlimit: 2; opacity: 1;"><g class="fills"/><g class="errorbars"/><g class="lines"><path class="js-line" d="M0,320L11.02,165.04L22.04,148.62L33.06,141.43L44.08,143.31L55.1,137.68L66.12,134.63L77.14,135.41L88.16,133.93L110.2,124.78L121.22,121.34L132.24,116.96L143.27,118.29L154.29,125.56L165.31,110.71L176.33,118.76L187.35,104.69L198.37,111.49L209.39,116.96L231.43,98.59L242.45,102.81L253.47,96.32L264.49,91L275.51,83.97L286.53,80.37L297.55,70.91L308.57,71.3L319.59,69.89L330.61,55.98L341.63,58.32L352.65,53.24L363.67,51.99L374.69,39.01L385.71,34.87L396.73,31.9L407.76,28.77L418.78,22.67L451.84,16.73L462.86,13.13L473.88,15.25L484.9,16.42L495.92,11.65L506.94,13.68L517.96,8.68L528.98,6.41L540,4.38" style="vector-effect: non-scaling-stroke; fill: none; stroke: rgb(231, 107, 243); stroke-opacity: 1; stroke-width: 2px; opacity: 1;"/></g><g class="points"/><g class="text"/></g><g class="trace scatter traceab6192" style="stroke-miterlimit: 2; opacity: 1;"><g class="fills"/><g class="errorbars"/><g class="lines"><path class="js-line" d="M0,276.22L11.02,177.16L22.04,152.38L33.06,145.73L44.08,137.13L66.12,137.76L77.14,135.88L88.16,125.01L99.18,123.06L121.22,113.83L132.24,118.84L143.27,112.58L154.29,119.23L165.31,119.07L176.33,115.63L187.35,119.54L198.37,116.41L209.39,119.93L220.41,114.07L231.43,108.83L242.45,113.6L253.47,103.28L264.49,89.21L275.51,81.07L286.53,83.89L297.55,71.93L308.57,68.02L319.59,74.9L330.61,55.98L341.63,56.29L352.65,50.19L374.69,45.42L385.71,32.84L396.73,32.52L407.76,28.46L418.78,24.31L429.8,13.76L440.82,7.51L451.84,10.32L462.86,13.45L473.88,10.4L484.9,6.33L495.92,3.83L506.94,6.88L517.96,4.53L540,2.27" style="vector-effect: non-scaling-stroke; fill: none; stroke: rgb(248, 118, 109); stroke-opacity: 1; stroke-width: 2px; opacity: 1;"/></g><g class="points"/><g class="text"/></g><g class="trace scatter trace75c078" style="stroke-miterlimit: 2; opacity: 1;"><g class="fills"/><g class="errorbars"/><g class="lines"><path class="js-line" d="M0,284.58L11.02,159.65L22.04,149.41L33.06,137.13L44.08,148.08L55.1,143.93L66.12,131.66L77.14,134.08L88.16,126.81L99.18,129.16L110.2,127.52L121.22,118.76L132.24,120.87L143.27,111.02L154.29,122.04L165.31,120.64L176.33,122.12L187.35,128.14L198.37,120.79L209.39,122.43L220.41,107.03L231.43,110.86L242.45,108.91L253.47,104.14L264.49,104.3L275.51,104.84L286.53,88.89L297.55,91.4L308.57,76.93L319.59,78.26L330.61,84.28L341.63,72.71L352.65,66.22L363.67,64.66L374.69,56.84L385.71,61.61L396.73,52.15L407.76,52.54L418.78,48.08L429.8,44.88L440.82,43L451.84,38L462.86,38.47L473.88,37.37L484.9,35.49L495.92,33.93L506.94,36.35L517.96,33.23L528.98,31.59L540,31.9" style="vector-effect: non-scaling-stroke; fill: none; stroke: rgb(163, 165, 0); stroke-opacity: 1; stroke-width: 2px; opacity: 1;"/></g><g class="points"/><g class="text"/></g><g class="trace scatter trace04b1c0" style="stroke-miterlimit: 2; opacity: 1;"><g class="fills"/><g class="errorbars"/><g class="lines"><path class="js-line" d="M0,274.65L11.02,179.19L22.04,154.88L33.06,144.79L44.08,141.28L55.1,135.65L66.12,135.33L77.14,134.4L88.16,126.73L99.18,137.44L110.2,138.7L121.22,132.52L132.24,138.38L143.27,129L154.29,125.95L165.31,127.98L176.33,123.06L187.35,126.42L198.37,118.29L209.39,121.5L220.41,114.07L231.43,114.46L242.45,120.17L253.47,109.69L264.49,104.22L275.51,104.22L286.53,93.51L297.55,91.32L308.57,83.81L319.59,87.25L330.61,77.4L341.63,84.67L352.65,72.79L363.67,61.45L374.69,59.73L385.71,50.82L396.73,47.53L407.76,43.47L418.78,44.49L440.82,35.26L451.84,31.19L462.86,33.7L473.88,31.82L484.9,26.58L495.92,29.63L506.94,31.43L517.96,25.8L528.98,27.75L540,25.8" style="vector-effect: non-scaling-stroke; fill: none; stroke: rgb(0, 191, 125); stroke-opacity: 1; stroke-width: 2px; opacity: 1;"/></g><g class="points"/><g class="text"/></g><g class="trace scatter tracee15f25" style="stroke-miterlimit: 2; opacity: 1;"><g class="fills"/><g class="errorbars"/><g class="lines"><path class="js-line" d="M0,310.15L11.02,156.29L22.04,139.95L33.06,140.81L44.08,143.7L55.1,134.16L66.12,130.64L77.14,134.16L88.16,129.47L99.18,117.43L110.2,129.78L121.22,130.02L132.24,124.94L143.27,129.16L154.29,118.37L165.31,136.35L176.33,119.31L187.35,125.56L198.37,122.2L209.39,124.31L220.41,130.49L231.43,116.02L242.45,121.03L253.47,110.16L264.49,108.2L275.51,105.7L286.53,92.49L297.55,92.02L308.57,76.15L319.59,74.66L330.61,74.59L341.63,58.87L352.65,61.92L363.67,53.87L374.69,50.9L385.71,50.97L396.73,48.32L407.76,41.36L418.78,38.78L440.82,27.99L451.84,18.53L462.86,23.22L473.88,20.8L484.9,20.48L495.92,21.03L506.94,21.03L517.96,18.06L528.98,15.48L540,17.04" style="vector-effect: non-scaling-stroke; fill: none; stroke: rgb(0, 176, 246); stroke-opacity: 1; stroke-width: 2px; opacity: 1;"/></g><g class="points"/><g class="text"/></g><g class="trace scatter traceb45a79" style="stroke-miterlimit: 2; opacity: 1;"><g class="fills"/><g class="errorbars"/><g class="lines"><path class="js-line" d="M0,294.43L11.02,167.31L22.04,156.13L33.06,145.11L44.08,140.73L55.1,140.18L66.12,126.58L77.14,130.02L88.16,136.12L99.18,131.19L110.2,128.84L121.22,135.41L132.24,124.31L143.27,122.51L154.29,117.82L165.31,104.06L176.33,107.34L187.35,111.64L198.37,108.28L209.39,108.36L220.41,102.11L231.43,101.95L242.45,95.93L253.47,96.48L264.49,91.86L275.51,91.71L286.53,86.7L297.55,73.18L308.57,68.64L319.59,66.61L330.61,53.4L341.63,55.59L352.65,51.76L363.67,50.04L374.69,41.98L385.71,44.95L396.73,36.67L407.76,30.8L418.78,31.51L440.82,15.48L451.84,26.89L462.86,20.56L473.88,19.78L484.9,17.28L495.92,12.2L506.94,11.88L517.96,9.54L540,6.25" style="vector-effect: non-scaling-stroke; fill: none; stroke: rgb(231, 107, 243); stroke-opacity: 1; stroke-width: 2px; opacity: 1;"/></g><g class="points"/><g class="text"/></g><g class="trace scatter trace4e2c65" style="stroke-miterlimit: 2; opacity: 1;"><g class="fills"/><g class="errorbars"/><g class="lines"><path class="js-line" d="M0,301.08L11.02,164.1L22.04,143.07L33.06,140.02L44.08,131.66L55.1,138.38L66.12,134.71L77.14,133.77L88.16,131.03L99.18,130.02L110.2,130.96L121.22,136.04L132.24,134.86L143.27,127.67L154.29,122.82L165.31,123.92L176.33,128.61L187.35,117.82L198.37,123.61L209.39,123.76L220.41,117.35L231.43,113.36L242.45,119.46L253.47,116.65L264.49,103.44L275.51,105.47L286.53,103.36L297.55,83.81L308.57,89.21L319.59,74.74L330.61,75.13L341.63,63.64L352.65,63.8L374.69,53.4L385.71,52.38L396.73,49.18L407.76,43.08L429.8,37.92L440.82,28.61L462.86,26.74L473.88,29.87L484.9,23.61L495.92,22.2L506.94,21.19L517.96,20.95L528.98,17.59L540,17.75" style="vector-effect: non-scaling-stroke; fill: none; stroke: rgb(248, 118, 109); stroke-opacity: 1; stroke-width: 2px; opacity: 1;"/></g><g class="points"/><g class="text"/></g><g class="trace scatter traceb8ef68" style="stroke-miterlimit: 2; opacity: 1;"><g class="fills"/><g class="errorbars"/><g class="lines"><path class="js-line" d="M0,279.27L11.02,180.13L22.04,151.28L33.06,138.85L44.08,145.18L66.12,137.29L77.14,138.23L88.16,137.68L99.18,121.65L110.2,126.89L121.22,122.36L132.24,126.5L143.27,113.36L154.29,129.78L165.31,126.42L176.33,122.36L187.35,124.7L198.37,121.5L209.39,122.82L220.41,125.8L231.43,119.7L242.45,119.93L253.47,104.37L275.51,98.9L286.53,92.49L297.55,86.31L308.57,81.39L319.59,73.8L330.61,77.79L341.63,68.02L352.65,57.15L363.67,56.29L374.69,57.7L385.71,48.16L396.73,46.52L418.78,38L429.8,37.21L440.82,27.13L451.84,27.36L462.86,26.43L473.88,20.87L484.9,23.77L495.92,18.84L506.94,23.14L517.96,22.2L528.98,21.81L540,20.41" style="vector-effect: non-scaling-stroke; fill: none; stroke: rgb(163, 165, 0); stroke-opacity: 1; stroke-width: 2px; opacity: 1;"/></g><g class="points"/><g class="text"/></g><g class="trace scatter trace98af66" style="stroke-miterlimit: 2; opacity: 1;"><g class="fills"/><g class="errorbars"/><g class="lines"><path class="js-line" d="M0,272.07L11.02,161.76L22.04,150.66L33.06,143.15L44.08,136.66L55.1,133.22L66.12,136.82L77.14,134.63L88.16,124.86L99.18,117.98L110.2,115.48L121.22,113.21L132.24,115.01L143.27,116.49L154.29,113.29L165.31,119.31L176.33,116.49L187.35,128.92L198.37,129.08L209.39,114.93L220.41,120.87L231.43,106.41L242.45,113.05L253.47,98.59L264.49,105.7L275.51,107.27L286.53,98.74L297.55,88.82L308.57,102.81L319.59,82.4L330.61,77.95L341.63,79.04L352.65,77.64L363.67,74.27L374.69,62.7L385.71,65.36L396.73,66.06L407.76,49.49L418.78,42.3L429.8,40.97L440.82,44.41L451.84,29.71L462.86,43.55L473.88,34.17L484.9,37.14L495.92,33.77L506.94,28.61L517.96,35.96L528.98,24.47L540,29.32" style="vector-effect: non-scaling-stroke; fill: none; stroke: rgb(0, 191, 125); stroke-opacity: 1; stroke-width: 2px; opacity: 1;"/></g><g class="points"/><g class="text"/></g><g class="trace scatter trace622ac1" style="stroke-miterlimit: 2; opacity: 1;"><g class="fills"/><g class="errorbars"/><g class="lines"><path class="js-line" d="M0,243.54L11.02,167.08L22.04,145.73L33.06,145.97L44.08,144.09L66.12,128.06L77.14,130.1L88.16,132.44L99.18,135.57L110.2,128.22L121.22,117.66L132.24,120.71L143.27,122.67L154.29,124.7L165.31,110.16L176.33,120.09L187.35,113.44L198.37,115.24L209.39,115.94L220.41,125.01L231.43,112.58L242.45,107.19L253.47,113.36L264.49,100L275.51,107.58L286.53,90.85L297.55,94.68L308.57,89.05L319.59,91.4L330.61,78.65L341.63,75.68L352.65,67.39L363.67,72.08L374.69,57.31L385.71,54.18L396.73,58.4L407.76,50.04L418.78,42.3L429.8,41.83L440.82,35.65L451.84,36.51L462.86,35.49L473.88,32.99L484.9,29.71L495.92,31.74L506.94,32.05L517.96,30.96L540,28.61" style="vector-effect: non-scaling-stroke; fill: none; stroke: rgb(0, 176, 246); stroke-opacity: 1; stroke-width: 2px; opacity: 1;"/></g><g class="points"/><g class="text"/></g><g class="trace scatter trace570f6e" style="stroke-miterlimit: 2; opacity: 1;"><g class="fills"/><g class="errorbars"/><g class="lines"><path class="js-line" d="M0,234.62L11.02,170.12L22.04,156.91L33.06,137.84L44.08,141.74L55.1,143.93L66.12,135.1L77.14,129.78L88.16,131.82L99.18,130.88L110.2,126.81L121.22,128.53L132.24,134.08L143.27,130.41L154.29,138.3L165.31,131.89L176.33,130.02L198.37,126.11L209.39,134.71L231.43,117.43L242.45,127.28L253.47,133.54L264.49,122.36L275.51,114.07L286.53,110.78L297.55,116.1L308.57,102.81L319.59,92.72L330.61,97.26L341.63,88.27L352.65,89.68L363.67,88.66L374.69,77.32L385.71,81.39L396.73,81.94L407.76,73.65L418.78,69.03L429.8,60.75L440.82,64.81L451.84,61.61L462.86,52.69L473.88,55.2L484.9,55.82L495.92,53.16L506.94,55.59L517.96,52.46L528.98,56.37L540,53.55" style="vector-effect: non-scaling-stroke; fill: none; stroke: rgb(231, 107, 243); stroke-opacity: 1; stroke-width: 2px; opacity: 1;"/></g><g class="points"/><g class="text"/></g><g class="trace scatter trace18a003" style="stroke-miterlimit: 2; opacity: 1;"><g class="fills"/><g class="errorbars"/><g class="lines"><path class="js-line" d="M0,265.51L11.02,177.24L22.04,154.02L33.06,150.11L44.08,136.82L55.1,141.28L66.12,143.07L77.14,135.65L88.16,139.87L99.18,131.66L110.2,127.59L121.22,134.4L132.24,125.48L143.27,130.33L154.29,126.89L165.31,135.88L176.33,130.33L187.35,134.32L198.37,128.14L209.39,136.04L220.41,128.45L231.43,126.34L242.45,118.99L264.49,126.19L275.51,116.34L286.53,119.54L297.55,109.14L308.57,105.78L319.59,112.5L330.61,108.67L341.63,106.09L352.65,100.86L363.67,92.1L374.69,95.93L385.71,83.73L396.73,80.92L407.76,76.15L418.78,73.96L429.8,67L440.82,70.13L451.84,70.29L462.86,67.24L473.88,66.06L484.9,59.42L495.92,65.44L506.94,59.03L517.96,58.71L540,55.9" style="vector-effect: non-scaling-stroke; fill: none; stroke: rgb(248, 118, 109); stroke-opacity: 1; stroke-width: 2px; opacity: 1;"/></g><g class="points"/><g class="text"/></g><g class="trace scatter trace7092ba" style="stroke-miterlimit: 2; opacity: 1;"><g class="fills"/><g class="errorbars"/><g class="lines"><path class="js-line" d="M0,250.97L11.02,168.4L22.04,150.89L33.06,139.24L44.08,137.37L55.1,129.08L66.12,124.86L77.14,130.33L88.16,132.21L99.18,117.82L110.2,115.94L121.22,120.95L132.24,114.46L143.27,111.02L154.29,119.31L165.31,113.6L176.33,111.49L187.35,113.68L198.37,118.92L209.39,107.34L220.41,113.05L242.45,103.04L253.47,95.7L275.51,84.05L286.53,79.75L297.55,71.3L308.57,77.01L319.59,63.17L330.61,61.22L341.63,58.01L352.65,58.17L363.67,55.9L374.69,44.09L385.71,50.51L396.73,37.84L407.76,35.26L418.78,29.79L429.8,26.5L440.82,22.28L451.84,15.17L462.86,19.47L473.88,16.57L484.9,19.86L495.92,18.14L506.94,12.67L517.96,12.74L528.98,11.1L540,11.57" style="vector-effect: non-scaling-stroke; fill: none; stroke: rgb(163, 165, 0); stroke-opacity: 1; stroke-width: 2px; opacity: 1;"/></g><g class="points"/><g class="text"/></g><g class="trace scatter traceccecdf" style="stroke-miterlimit: 2; opacity: 1;"><g class="fills"/><g class="errorbars"/><g class="lines"><path class="js-line" d="M0,258.55L11.02,161.13L22.04,151.28L33.06,150.27L44.08,135.02L55.1,133.93L66.12,131.5L77.14,126.03L88.16,126.34L99.18,135.96L110.2,113.05L121.22,114.22L132.24,108.36L143.27,111.18L154.29,105.7L165.31,112.5L176.33,107.19L187.35,113.91L198.37,103.9L209.39,108.52L220.41,106.64L231.43,113.05L242.45,100.93L253.47,95.46L264.49,82.87L275.51,89.21L286.53,79.9L297.55,74.27L308.57,62L319.59,62L330.61,60.2L341.63,51.29L352.65,47.14L363.67,46.13L374.69,46.6L385.71,39.72L396.73,34.4L407.76,26.97L418.78,26.58L429.8,27.75L440.82,18.14L451.84,24.08L462.86,21.58L473.88,22.36L484.9,21.66L495.92,22.44L506.94,17.9L528.98,18.69L540,14.62" style="vector-effect: non-scaling-stroke; fill: none; stroke: rgb(0, 191, 125); stroke-opacity: 1; stroke-width: 2px; opacity: 1;"/></g><g class="points"/><g class="text"/></g><g class="trace scatter trace3d88b5" style="stroke-miterlimit: 2; opacity: 1;"><g class="fills"/><g class="errorbars"/><g class="lines"><path class="js-line" d="M0,264.96L11.02,170.75L22.04,144.4L33.06,143.46L44.08,139.32L55.1,134.94L66.12,143.23L88.16,130.1L99.18,136.43L110.2,129.24L121.22,125.48L132.24,132.05L143.27,122.98L154.29,128.77L165.31,125.09L176.33,119.85L187.35,119.23L198.37,126.26L209.39,120.17L220.41,115.08L231.43,115.16L253.47,100.31L264.49,94.68L275.51,98.2L286.53,78.34L297.55,78.73L308.57,70.68L319.59,72.55L330.61,60.9L341.63,60.75L352.65,57.15L363.67,43L374.69,39.95L385.71,40.65L396.73,35.1L407.76,35.57L418.78,30.18L429.8,24.39L440.82,12.82L462.86,15.64L473.88,13.53L484.9,7.97L495.92,7.74L506.94,7.9L517.96,5.08L528.98,6.02L540,0.23" style="vector-effect: non-scaling-stroke; fill: none; stroke: rgb(0, 176, 246); stroke-opacity: 1; stroke-width: 2px; opacity: 1;"/></g><g class="points"/><g class="text"/></g><g class="trace scatter tracec35c7b" style="stroke-miterlimit: 2; opacity: 1;"><g class="fills"/><g class="errorbars"/><g class="lines"><path class="js-line" d="M0,270.9L11.02,166.76L22.04,143.78L33.06,136.82L44.08,135.88L55.1,129.08L66.12,130.96L88.16,123.22L99.18,126.34L110.2,114.3L121.22,112.11L132.24,115.4L143.27,117.59L154.29,118.84L165.31,123.22L176.33,120.01L187.35,121.18L198.37,126.03L209.39,112.35L220.41,121.42L231.43,117.35L242.45,106.33L253.47,101.72L264.49,101.4L275.51,99.84L286.53,88.97L297.55,81.39L308.57,90.61L319.59,77.71L330.61,80.84L341.63,77.32L352.65,64.34L363.67,68.02L374.69,63.95L385.71,55.2L396.73,51.29L407.76,49.8L418.78,44.8L429.8,48.63L440.82,38.07L451.84,41.59L462.86,41.44L473.88,37.14L484.9,35.65L495.92,35.81L506.94,30.8L517.96,33.46L528.98,32.52L540,28.61" style="vector-effect: non-scaling-stroke; fill: none; stroke: rgb(231, 107, 243); stroke-opacity: 1; stroke-width: 2px; opacity: 1;"/></g><g class="points"/><g class="text"/></g></g></g><g class="overplot"/><path class="xlines-above crisp" d="" style="fill: none; stroke-width: 1px; stroke: rgb(0, 0, 0); stroke-opacity: 0;"/><path class="ylines-above crisp" d="" style="fill: none; stroke-width: 1px; stroke: rgb(0, 0, 0); stroke-opacity: 0;"/><g class="overlines-above"/><g class="xaxislayer-above"><path class="xtick ticks crisp" d="M0,421v5" transform="translate(80,0)" style="stroke: rgb(51, 51, 51); stroke-opacity: 1; stroke-width: 1px;"/><path class="xtick ticks crisp" d="M0,421v5" transform="translate(190.2,0)" style="stroke: rgb(51, 51, 51); stroke-opacity: 1; stroke-width: 1px;"/><path class="xtick ticks crisp" d="M0,421v5" transform="translate(300.40999999999997,0)" style="stroke: rgb(51, 51, 51); stroke-opacity: 1; stroke-width: 1px;"/><path class="xtick ticks crisp" d="M0,421v5" transform="translate(410.61,0)" style="stroke: rgb(51, 51, 51); stroke-opacity: 1; stroke-width: 1px;"/><path class="xtick ticks crisp" d="M0,421v5" transform="translate(520.8199999999999,0)" style="stroke: rgb(51, 51, 51); stroke-opacity: 1; stroke-width: 1px;"/><g class="xtick"><text text-anchor="middle" x="0" y="440.4" transform="translate(80,0)" style="font-family: 'Open Sans', verdana, arial, sans-serif; font-size: 12px; fill: rgb(51, 51, 51); fill-opacity: 1; white-space: pre; opacity: 1;">0</text></g><g class="xtick"><text text-anchor="middle" x="0" y="440.4" style="font-family: 'Open Sans', verdana, arial, sans-serif; font-size: 12px; fill: rgb(51, 51, 51); fill-opacity: 1; white-space: pre; opacity: 1;" transform="translate(190.2,0)">10</text></g><g class="xtick"><text text-anchor="middle" x="0" y="440.4" style="font-family: 'Open Sans', verdana, arial, sans-serif; font-size: 12px; fill: rgb(51, 51, 51); fill-opacity: 1; white-space: pre; opacity: 1;" transform="translate(300.40999999999997,0)">20</text></g><g class="xtick"><text text-anchor="middle" x="0" y="440.4" style="font-family: 'Open Sans', verdana, arial, sans-serif; font-size: 12px; fill: rgb(51, 51, 51); fill-opacity: 1; white-space: pre; opacity: 1;" transform="translate(410.61,0)">30</text></g><g class="xtick"><text text-anchor="middle" x="0" y="440.4" style="font-family: 'Open Sans', verdana, arial, sans-serif; font-size: 12px; fill: rgb(51, 51, 51); fill-opacity: 1; white-space: pre; opacity: 1;" transform="translate(520.8199999999999,0)">40</text></g></g><g class="yaxislayer-above"><path class="ytick ticks crisp" d="M79,0h-5" transform="translate(0,413.51)" style="stroke: rgb(51, 51, 51); stroke-opacity: 1; stroke-width: 1px;"/><path class="ytick ticks crisp" d="M79,0h-5" transform="translate(0,343.15)" style="stroke: rgb(51, 51, 51); stroke-opacity: 1; stroke-width: 1px;"/><path class="ytick ticks crisp" d="M79,0h-5" transform="translate(0,272.78)" style="stroke: rgb(51, 51, 51); stroke-opacity: 1; stroke-width: 1px;"/><path class="ytick ticks crisp" d="M79,0h-5" transform="translate(0,202.42000000000002)" style="stroke: rgb(51, 51, 51); stroke-opacity: 1; stroke-width: 1px;"/><path class="ytick ticks crisp" d="M79,0h-5" transform="translate(0,132.05)" style="stroke: rgb(51, 51, 51); stroke-opacity: 1; stroke-width: 1px;"/><g class="ytick"><text text-anchor="end" x="71.6" y="4.199999999999999" transform="translate(0,413.51)" style="font-family: 'Open Sans', verdana, arial, sans-serif; font-size: 12px; fill: rgb(51, 51, 51); fill-opacity: 1; white-space: pre; opacity: 1;">0.22</text></g><g class="ytick"><text text-anchor="end" x="71.6" y="4.199999999999999" style="font-family: 'Open Sans', verdana, arial, sans-serif; font-size: 12px; fill: rgb(51, 51, 51); fill-opacity: 1; white-space: pre; opacity: 1;" transform="translate(0,343.15)">0.24</text></g><g class="ytick"><text text-anchor="end" x="71.6" y="4.199999999999999" style="font-family: 'Open Sans', verdana, arial, sans-serif; font-size: 12px; fill: rgb(51, 51, 51); fill-opacity: 1; white-space: pre; opacity: 1;" transform="translate(0,272.78)">0.26</text></g><g class="ytick"><text text-anchor="end" x="71.6" y="4.199999999999999" style="font-family: 'Open Sans', verdana, arial, sans-serif; font-size: 12px; fill: rgb(51, 51, 51); fill-opacity: 1; white-space: pre; opacity: 1;" transform="translate(0,202.42000000000002)">0.28</text></g><g class="ytick"><text text-anchor="end" x="71.6" y="4.199999999999999" style="font-family: 'Open Sans', verdana, arial, sans-serif; font-size: 12px; fill: rgb(51, 51, 51); fill-opacity: 1; white-space: pre; opacity: 1;" transform="translate(0,132.05)">0.3</text></g></g><g class="overaxes-above"/></g></g><g class="polarlayer"/><g class="ternarylayer"/><g class="geolayer"/><g class="funnelarealayer"/><g class="pielayer"/><g class="iciclelayer"/><g class="treemaplayer"/><g class="sunburstlayer"/><g class="glimages"/><defs id="topdefs-b926ff"><g class="clips"/></defs><g class="layer-above"><g class="imagelayer"/><g class="shapelayer"/></g><g class="infolayer"><g class="g-gtitle"><text class="gtitle" x="350" y="50" text-anchor="middle" dy="0em" style="font-family: 'Open Sans', verdana, arial, sans-serif; font-size: 17px; fill: rgb(51, 51, 51); opacity: 1; font-weight: normal; white-space: pre;">Train Accuracy: ascad_0_noisy-s_eff_cnn_hw (original)</text></g><g class="g-xtitle"/><g class="g-ytitle"/></g></svg>