<svg class="main-svg" xmlns="http://www.w3.org/2000/svg" xmlns:xlink="http://www.w3.org/1999/xlink" width="700" height="500" style="" viewBox="0 0 700 500"><rect x="0" y="0" width="700" height="500" style="fill: rgb(255, 255, 255); fill-opacity: 1;"/><defs id="defs-83ca8a"><g class="clips"><clipPath id="clip83ca8axyplot" class="plotclip"><rect width="540" height="320"/></clipPath><clipPath class="axesclip" id="clip83ca8ax"><rect x="80" y="0" width="540" height="500"/></clipPath><clipPath class="axesclip" id="clip83ca8ay"><rect x="0" y="100" width="700" height="320"/></clipPath><clipPath class="axesclip" id="clip83ca8axy"><rect x="80" y="100" width="540" height="320"/></clipPath></g><g class="gradients"/><g class="patterns"/></defs><g class="bglayer"><rect class="bg" x="80" y="100" width="540" height="320" style="fill: rgb(229, 236, 246); fill-opacity: 1; stroke-width: 0;"/></g><g class="layer-below"><g class="imagelayer"/><g class="shapelayer"/></g><g class="cartesianlayer"><g class="subplot xy"><g class="layer-subplot"><g class="shapelayer"/><g class="imagelayer"/></g><g class="gridlayer"><g class="x"><path class="xgrid crisp" transform="translate(222.11,0)" d="M0,100v320" style="stroke: rgb(255, 255, 255); stroke-opacity: 1; stroke-width: 1px;"/><path class="xgrid crisp" transform="translate(364.21,0)" d="M0,100v320" style="stroke: rgb(255, 255, 255); stroke-opacity: 1; stroke-width: 1px;"/><path class="xgrid crisp" transform="translate(506.32,0)" d="M0,100v320" style="stroke: rgb(255, 255, 255); stroke-opacity: 1; stroke-width: 1px;"/></g><g class="y"><path class="ygrid crisp" transform="translate(0,388.5)" d="M80,0h540" style="stroke: rgb(255, 255, 255); stroke-opacity: 1; stroke-width: 1px;"/><path class="ygrid crisp" transform="translate(0,322.5)" d="M80,0h540" style="stroke: rgb(255, 255, 255); stroke-opacity: 1; stroke-width: 1px;"/><path class="ygrid crisp" transform="translate(0,256.51)" d="M80,0h540" style="stroke: rgb(255, 255, 255); stroke-opacity: 1; stroke-width: 1px;"/><path class="ygrid crisp" transform="translate(0,190.51999999999998)" d="M80,0h540" style="stroke: rgb(255, 255, 255); stroke-opacity: 1; stroke-width: 1px;"/><path class="ygrid crisp" transform="translate(0,124.53)" d="M80,0h540" style="stroke: rgb(255, 255, 255); stroke-opacity: 1; stroke-width: 1px;"/></g></g><g class="zerolinelayer"><path class="xzl zl crisp" transform="translate(80,0)" d="M0,100v320" style="stroke: rgb(255, 255, 255); stroke-opacity: 1; stroke-width: 2px;"/></g><path class="xlines-below"/><path class="ylines-below"/><g class="overlines-below"/><g class="xaxislayer-below"/><g class="yaxislayer-below"/><g class="overaxes-below"/><g class="plot" transform="translate(80,100)" clip-path="url(#clip83ca8axyplot)"><g class="scatterlayer mlayer"><g class="trace scatter tracef0d138" style="stroke-miterlimit: 2; opacity: 1;"><g class="fills"/><g class="errorbars"/><g class="lines"><path class="js-line" d="M0,4.12L28.42,92.86L56.84,124.54L85.26,140.9L113.68,155.92L142.11,163.41L170.53,178.09L198.95,186.56L227.37,193.89L255.79,201.16L284.21,216.31L312.63,222.19L341.05,230.42L369.47,234.7L397.89,245.42L426.32,255.53L454.74,255.53L483.16,269.58L511.58,276.76L540,282.53" style="vector-effect: non-scaling-stroke; fill: none; stroke: rgb(99, 110, 250); stroke-opacity: 1; stroke-width: 2px; opacity: 1;"/></g><g class="points"/><g class="text"/></g><g class="trace scatter traceedac23" style="stroke-miterlimit: 2; opacity: 1;"><g class="fills"/><g class="errorbars"/><g class="lines"><path class="js-line" d="M0,5.81L28.42,95.92L56.84,123.14L85.26,142.13L113.68,154.92L142.11,167.4L170.53,181.39L198.95,185.37L227.37,199.51L255.79,204.57L284.21,219.32L312.63,228.81L341.05,232.83L369.47,243.7L397.89,256.41L454.74,266.67L483.16,281.12L511.58,295.35L540,300.62" style="vector-effect: non-scaling-stroke; fill: none; stroke: rgb(239, 85, 59); stroke-opacity: 1; stroke-width: 2px; opacity: 1;"/></g><g class="points"/><g class="text"/></g><g class="trace scatter tracef54bed" style="stroke-miterlimit: 2; opacity: 1;"><g class="fills"/><g class="errorbars"/><g class="lines"><path class="js-line" d="M0,1.59L28.42,93.69L56.84,124.23L85.26,142.92L113.68,156.26L142.11,167.64L170.53,180.41L198.95,190.29L227.37,198.33L255.79,204.94L284.21,221.6L341.05,239.16L369.47,246.81L397.89,259.26L426.32,276.34L454.74,287.29L483.16,296.72L511.58,291.02L540,320" style="vector-effect: non-scaling-stroke; fill: none; stroke: rgb(0, 204, 150); stroke-opacity: 1; stroke-width: 2px; opacity: 1;"/></g><g class="points"/><g class="text"/></g><g class="trace scatter tracef26937" style="stroke-miterlimit: 2; opacity: 1;"><g class="fills"/><g class="errorbars"/><g class="lines"><path class="js-line" d="M0,3.42L28.42,92.9L56.84,121.7L85.26,142.88L113.68,155.9L142.11,165.73L170.53,179.4L198.95,191.79L227.37,202.28L255.79,214.09L284.21,224.07L312.63,235.48L341.05,240.28L369.47,246.7L397.89,261.87L426.32,263.45L454.74,278.58L483.16,287L511.58,303.56L540,314.05" style="vector-effect: non-scaling-stroke; fill: none; stroke: rgb(171, 99, 250); stroke-opacity: 1; stroke-width: 2px; opacity: 1;"/></g><g class="points"/><g class="text"/></g><g class="trace scatter trace560aa1" style="stroke-miterlimit: 2; opacity: 1;"><g class="fills"/><g class="errorbars"/><g class="lines"><path class="js-line" d="M0,5.21L28.42,96.8L56.84,124.02L85.26,135.77L113.68,151.98L198.95,189.14L227.37,195.55L255.79,204.41L284.21,216.78L312.63,224.87L341.05,231.69L369.47,241.97L397.89,255.12L426.32,263.05L454.74,266.04L483.16,268.95L511.58,279.7L540,284.13" style="vector-effect: non-scaling-stroke; fill: none; stroke: rgb(255, 161, 90); stroke-opacity: 1; stroke-width: 2px; opacity: 1;"/></g><g class="points"/><g class="text"/></g><g class="trace scatter traced56e4e" style="stroke-miterlimit: 2; opacity: 1;"><g class="fills"/><g class="errorbars"/><g class="lines"><path class="js-line" d="M0,0L28.42,92.51L56.84,122.53L85.26,144.25L113.68,158.74L142.11,170.01L170.53,180.12L198.95,187.76L227.37,198.46L255.79,204.59L284.21,220.01L312.63,227.02L341.05,232.71L369.47,236.37L397.89,248.64L426.32,257.64L454.74,265.64L511.58,284.07L540,285.95" style="vector-effect: non-scaling-stroke; fill: none; stroke: rgb(25, 211, 243); stroke-opacity: 1; stroke-width: 2px; opacity: 1;"/></g><g class="points"/><g class="text"/></g><g class="trace scatter tracebb718f" style="stroke-miterlimit: 2; opacity: 1;"><g class="fills"/><g class="errorbars"/><g class="lines"><path class="js-line" d="M0,2.75L28.42,94.06L56.84,128L85.26,144.29L113.68,155.18L142.11,165.48L170.53,182.12L227.37,198.07L255.79,208.53L284.21,218.15L312.63,226.51L341.05,235.88L369.47,243.28L397.89,260.29L426.32,260.91L454.74,275.47L483.16,280.84L540,300.43" style="vector-effect: non-scaling-stroke; fill: none; stroke: rgb(255, 102, 146); stroke-opacity: 1; stroke-width: 2px; opacity: 1;"/></g><g class="points"/><g class="text"/></g><g class="trace scatter trace90cf76" style="stroke-miterlimit: 2; opacity: 1;"><g class="fills"/><g class="errorbars"/><g class="lines"><path class="js-line" d="M0,2.76L28.42,94.83L56.84,123.81L85.26,142.3L113.68,154.53L142.11,168.71L170.53,176.92L198.95,185.79L227.37,193.87L255.79,208L284.21,213.09L312.63,220.77L341.05,230.23L369.47,240.85L397.89,246.98L454.74,268.74L483.16,273.03L511.58,278.93L540,287.67" style="vector-effect: non-scaling-stroke; fill: none; stroke: rgb(182, 232, 128); stroke-opacity: 1; stroke-width: 2px; opacity: 1;"/></g><g class="points"/><g class="text"/></g><g class="trace scatter trace19a953" style="stroke-miterlimit: 2; opacity: 1;"><g class="fills"/><g class="errorbars"/><g class="lines"><path class="js-line" d="M0,8.65L28.42,97.27L56.84,125.92L85.26,143.05L113.68,158.94L142.11,170.06L170.53,184.16L198.95,193.34L227.37,205.85L255.79,211.42L284.21,224.74L312.63,230.37L341.05,234.03L369.47,242.41L397.89,262.71L454.74,274.13L483.16,285.69L511.58,308.12L540,310.58" style="vector-effect: non-scaling-stroke; fill: none; stroke: rgb(255, 151, 255); stroke-opacity: 1; stroke-width: 2px; opacity: 1;"/></g><g class="points"/><g class="text"/></g><g class="trace scatter trace218088" style="stroke-miterlimit: 2; opacity: 1;"><g class="fills"/><g class="errorbars"/><g class="lines"><path class="js-line" d="M0,9.39L28.42,94.87L56.84,123.45L85.26,141.22L113.68,155.78L142.11,171.24L170.53,180.72L198.95,193.83L227.37,202.12L284.21,219.12L312.63,230.04L341.05,238.76L369.47,239.19L397.89,261.93L426.32,273.01L483.16,287.05L511.58,298.22L540,308.25" style="vector-effect: non-scaling-stroke; fill: none; stroke: rgb(254, 203, 82); stroke-opacity: 1; stroke-width: 2px; opacity: 1;"/></g><g class="points"/><g class="text"/></g><g class="trace scatter tracedfd8d0" style="stroke-miterlimit: 2; opacity: 1;"><g class="fills"/><g class="errorbars"/><g class="lines"><path class="js-line" d="M0,5L28.42,96.91L56.84,125.29L113.68,156.09L142.11,164.23L170.53,174.61L198.95,183.57L227.37,196.28L255.79,204.91L312.63,231.16L341.05,231.87L369.47,242.82L397.89,255.51L426.32,266.93L454.74,266.53L483.16,285.3L511.58,283.11L540,297.64" style="vector-effect: non-scaling-stroke; fill: none; stroke: rgb(99, 110, 250); stroke-opacity: 1; stroke-width: 2px; opacity: 1;"/></g><g class="points"/><g class="text"/></g><g class="trace scatter trace55f31a" style="stroke-miterlimit: 2; opacity: 1;"><g class="fills"/><g class="errorbars"/><g class="lines"><path class="js-line" d="M0,3.75L28.42,92.98L56.84,123.82L85.26,140.69L113.68,156.59L142.11,165.75L170.53,177.8L198.95,188.64L227.37,204.81L255.79,210.76L284.21,226.66L312.63,230.58L341.05,237.45L369.47,241.98L397.89,259.32L426.32,261.71L454.74,275.78L483.16,279.59L511.58,293.91L540,306.56" style="vector-effect: non-scaling-stroke; fill: none; stroke: rgb(239, 85, 59); stroke-opacity: 1; stroke-width: 2px; opacity: 1;"/></g><g class="points"/><g class="text"/></g><g class="trace scatter trace7b8d5f" style="stroke-miterlimit: 2; opacity: 1;"><g class="fills"/><g class="errorbars"/><g class="lines"><path class="js-line" d="M0,5.76L28.42,98.58L56.84,125.87L113.68,157.81L142.11,166.99L170.53,179.96L198.95,190.24L227.37,201.1L255.79,209.04L284.21,215.67L312.63,226.26L341.05,224.49L369.47,241.14L426.32,260.27L454.74,259.18L483.16,273.59L511.58,282.81L540,292.91" style="vector-effect: non-scaling-stroke; fill: none; stroke: rgb(0, 204, 150); stroke-opacity: 1; stroke-width: 2px; opacity: 1;"/></g><g class="points"/><g class="text"/></g><g class="trace scatter tracea7baf3" style="stroke-miterlimit: 2; opacity: 1;"><g class="fills"/><g class="errorbars"/><g class="lines"><path class="js-line" d="M0,5.54L28.42,92.7L56.84,121.35L85.26,138.66L113.68,153.93L142.11,162.29L170.53,177.05L227.37,195.9L255.79,201.43L284.21,214.11L312.63,223.78L341.05,232.91L369.47,244.32L397.89,255.24L426.32,267.54L454.74,269.5L483.16,278.55L511.58,287.7L540,298.93" style="vector-effect: non-scaling-stroke; fill: none; stroke: rgb(171, 99, 250); stroke-opacity: 1; stroke-width: 2px; opacity: 1;"/></g><g class="points"/><g class="text"/></g><g class="trace scatter trace71df47" style="stroke-miterlimit: 2; opacity: 1;"><g class="fills"/><g class="errorbars"/><g class="lines"><path class="js-line" d="M0,10.12L28.42,93.71L56.84,121.12L85.26,140.53L113.68,151.61L142.11,164.65L170.53,171.31L227.37,194.21L255.79,204.12L284.21,208.82L312.63,219.23L341.05,228.77L369.47,240.47L397.89,250.93L426.32,258.03L454.74,276.08L483.16,278.45L511.58,290.07L540,293.26" style="vector-effect: non-scaling-stroke; fill: none; stroke: rgb(255, 161, 90); stroke-opacity: 1; stroke-width: 2px; opacity: 1;"/></g><g class="points"/><g class="text"/></g><g class="trace scatter trace1f33e9" style="stroke-miterlimit: 2; opacity: 1;"><g class="fills"/><g class="errorbars"/><g class="lines"><path class="js-line" d="M0,7.15L28.42,96.34L56.84,123.46L85.26,137.95L113.68,154.4L142.11,168.8L170.53,181.85L198.95,189.18L227.37,199.94L255.79,210.07L284.21,215.52L312.63,226.15L341.05,234.94L397.89,260.03L426.32,270.38L454.74,274.29L483.16,284.88L511.58,295.37L540,306.88" style="vector-effect: non-scaling-stroke; fill: none; stroke: rgb(25, 211, 243); stroke-opacity: 1; stroke-width: 2px; opacity: 1;"/></g><g class="points"/><g class="text"/></g><g class="trace scatter trace5cbb0c" style="stroke-miterlimit: 2; opacity: 1;"><g class="fills"/><g class="errorbars"/><g class="lines"><path class="js-line" d="M0,7.79L28.42,95.49L56.84,124.14L85.26,143.58L113.68,153.43L142.11,162.86L170.53,174.55L198.95,182.95L227.37,195.45L255.79,205.16L284.21,209.98L312.63,218.12L341.05,223.12L369.47,237.32L397.89,244.51L426.32,255.48L454.74,262.34L483.16,272.19L511.58,272.69L540,293.39" style="vector-effect: non-scaling-stroke; fill: none; stroke: rgb(255, 102, 146); stroke-opacity: 1; stroke-width: 2px; opacity: 1;"/></g><g class="points"/><g class="text"/></g><g class="trace scatter traceac9e32" style="stroke-miterlimit: 2; opacity: 1;"><g class="fills"/><g class="errorbars"/><g class="lines"><path class="js-line" d="M0,7.04L28.42,96.19L56.84,120.32L85.26,139.36L113.68,153.12L142.11,163.54L170.53,178.74L227.37,199.38L255.79,204.22L284.21,216.86L312.63,220.61L341.05,226.68L369.47,236.47L397.89,251.15L426.32,257.73L454.74,267.19L483.16,273.53L540,293.48" style="vector-effect: non-scaling-stroke; fill: none; stroke: rgb(182, 232, 128); stroke-opacity: 1; stroke-width: 2px; opacity: 1;"/></g><g class="points"/><g class="text"/></g><g class="trace scatter trace90857f" style="stroke-miterlimit: 2; opacity: 1;"><g class="fills"/><g class="errorbars"/><g class="lines"><path class="js-line" d="M0,9.12L28.42,95.29L56.84,124.48L85.26,140.97L113.68,158.64L142.11,172.14L170.53,181.67L198.95,187.21L227.37,200.57L255.79,208.2L284.21,218.84L312.63,230.8L341.05,238.66L369.47,238.8L397.89,253.83L426.32,272.46L454.74,274.3L483.16,281.67L511.58,292.66L540,287.84" style="vector-effect: non-scaling-stroke; fill: none; stroke: rgb(255, 151, 255); stroke-opacity: 1; stroke-width: 2px; opacity: 1;"/></g><g class="points"/><g class="text"/></g><g class="trace scatter tracebb403c" style="stroke-miterlimit: 2; opacity: 1;"><g class="fills"/><g class="errorbars"/><g class="lines"><path class="js-line" d="M0,9.05L28.42,97.9L56.84,124.27L85.26,141.84L113.68,155.78L142.11,167.97L170.53,175.04L227.37,191.35L255.79,194.83L284.21,205.04L312.63,218.59L341.05,226.82L369.47,237.42L397.89,249.64L426.32,255.83L454.74,258.15L483.16,271.72L511.58,283.98L540,294.09" style="vector-effect: non-scaling-stroke; fill: none; stroke: rgb(254, 203, 82); stroke-opacity: 1; stroke-width: 2px; opacity: 1;"/></g><g class="points"/><g class="text"/></g><g class="trace scatter traceb505ba" style="stroke-miterlimit: 2; opacity: 1;"><g class="fills"/><g class="errorbars"/><g class="lines"><path class="js-line" d="M0,2.01L28.42,93.84L56.84,123.31L85.26,137.46L113.68,148.99L142.11,159.98L170.53,172.28L198.95,187.9L227.37,196.98L255.79,204.69L284.21,217.67L312.63,220.16L341.05,232.97L369.47,242.68L397.89,249.46L426.32,263.07L454.74,269.46L483.16,280.83L511.58,287.36L540,295.24" style="vector-effect: non-scaling-stroke; fill: none; stroke: rgb(99, 110, 250); stroke-opacity: 1; stroke-width: 2px; opacity: 1;"/></g><g class="points"/><g class="text"/></g><g class="trace scatter tracecbae3f" style="stroke-miterlimit: 2; opacity: 1;"><g class="fills"/><g class="errorbars"/><g class="lines"><path class="js-line" d="M0,5.87L28.42,95.5L56.84,122.47L85.26,142.83L113.68,156.31L170.53,176.27L198.95,187.37L227.37,199.29L255.79,210.11L284.21,208.72L312.63,225.73L341.05,231.3L369.47,231.53L397.89,247.69L426.32,256.45L454.74,267.12L483.16,274.2L511.58,283.26L540,291.4" style="vector-effect: non-scaling-stroke; fill: none; stroke: rgb(239, 85, 59); stroke-opacity: 1; stroke-width: 2px; opacity: 1;"/></g><g class="points"/><g class="text"/></g><g class="trace scatter trace1c81c8" style="stroke-miterlimit: 2; opacity: 1;"><g class="fills"/><g class="errorbars"/><g class="lines"><path class="js-line" d="M0,5.47L28.42,93.62L56.84,117.41L85.26,137.33L113.68,150.42L142.11,158.88L170.53,177.23L198.95,188.91L227.37,198.33L255.79,209.66L284.21,214.62L312.63,227.58L341.05,231.76L369.47,240.57L397.89,247.2L426.32,253.71L454.74,262.63L483.16,272.4L511.58,286L540,294.97" style="vector-effect: non-scaling-stroke; fill: none; stroke: rgb(0, 204, 150); stroke-opacity: 1; stroke-width: 2px; opacity: 1;"/></g><g class="points"/><g class="text"/></g><g class="trace scatter trace13bb41" style="stroke-miterlimit: 2; opacity: 1;"><g class="fills"/><g class="errorbars"/><g class="lines"><path class="js-line" d="M0,8.57L28.42,97.07L56.84,118.6L85.26,140.17L113.68,153.24L142.11,164.62L170.53,179.55L198.95,189.71L227.37,201.77L255.79,210.78L284.21,222.75L312.63,233.31L341.05,238.24L369.47,251.51L397.89,261.74L426.32,267.55L454.74,275.38L483.16,280.68L511.58,295.22L540,301.62" style="vector-effect: non-scaling-stroke; fill: none; stroke: rgb(171, 99, 250); stroke-opacity: 1; stroke-width: 2px; opacity: 1;"/></g><g class="points"/><g class="text"/></g><g class="trace scatter tracef5c5ee" style="stroke-miterlimit: 2; opacity: 1;"><g class="fills"/><g class="errorbars"/><g class="lines"><path class="js-line" d="M0,5.17L28.42,97.04L56.84,126.31L85.26,140.39L113.68,156.34L142.11,171.65L170.53,183.08L198.95,193.5L227.37,200.72L255.79,207.41L284.21,221.33L312.63,228.99L341.05,240.19L369.47,247.71L397.89,261.86L426.32,273.02L454.74,278.62L483.16,288.66L511.58,288.99L540,308.43" style="vector-effect: non-scaling-stroke; fill: none; stroke: rgb(255, 161, 90); stroke-opacity: 1; stroke-width: 2px; opacity: 1;"/></g><g class="points"/><g class="text"/></g><g class="trace scatter tracef07e5c" style="stroke-miterlimit: 2; opacity: 1;"><g class="fills"/><g class="errorbars"/><g class="lines"><path class="js-line" d="M0,10.81L28.42,95.73L56.84,124.17L85.26,145.35L113.68,157.32L170.53,183.16L198.95,189.01L227.37,198.01L255.79,208.24L284.21,224.67L312.63,232.92L341.05,240.05L369.47,243.61L397.89,255.7L426.32,262.23L454.74,279.14L483.16,288.24L540,302.09" style="vector-effect: non-scaling-stroke; fill: none; stroke: rgb(25, 211, 243); stroke-opacity: 1; stroke-width: 2px; opacity: 1;"/></g><g class="points"/><g class="text"/></g><g class="trace scatter tracecc4c0c" style="stroke-miterlimit: 2; opacity: 1;"><g class="fills"/><g class="errorbars"/><g class="lines"><path class="js-line" d="M0,5.88L28.42,93.38L56.84,121.84L85.26,139.41L113.68,151.75L142.11,165.9L170.53,178.84L198.95,192.67L227.37,201.83L255.79,207.95L284.21,221.24L312.63,224.66L341.05,228.96L369.47,237L397.89,253.28L454.74,264.47L483.16,273.13L511.58,287.91L540,292.19" style="vector-effect: non-scaling-stroke; fill: none; stroke: rgb(255, 102, 146); stroke-opacity: 1; stroke-width: 2px; opacity: 1;"/></g><g class="points"/><g class="text"/></g><g class="trace scatter trace8d672b" style="stroke-miterlimit: 2; opacity: 1;"><g class="fills"/><g class="errorbars"/><g class="lines"><path class="js-line" d="M0,6.52L28.42,95.77L56.84,124.28L85.26,140.91L113.68,153.62L142.11,168.65L170.53,181.44L198.95,190.45L227.37,201.8L255.79,211.08L284.21,223.46L312.63,235.28L341.05,241.55L369.47,239.53L397.89,261.07L426.32,266.66L454.74,276.89L483.16,283.66L511.58,299.34L540,306.83" style="vector-effect: non-scaling-stroke; fill: none; stroke: rgb(182, 232, 128); stroke-opacity: 1; stroke-width: 2px; opacity: 1;"/></g><g class="points"/><g class="text"/></g><g class="trace scatter trace929f0b" style="stroke-miterlimit: 2; opacity: 1;"><g class="fills"/><g class="errorbars"/><g class="lines"><path class="js-line" d="M0,2.35L28.42,94.29L56.84,125.6L85.26,142L113.68,154.72L142.11,166.16L170.53,181.47L198.95,193.17L227.37,202.96L255.79,212.52L284.21,225.78L312.63,232.51L341.05,234.08L369.47,242.29L397.89,251.98L426.32,265.18L454.74,270.49L483.16,277.66L511.58,290.41L540,293.47" style="vector-effect: non-scaling-stroke; fill: none; stroke: rgb(255, 151, 255); stroke-opacity: 1; stroke-width: 2px; opacity: 1;"/></g><g class="points"/><g class="text"/></g><g class="trace scatter trace749e4e" style="stroke-miterlimit: 2; opacity: 1;"><g class="fills"/><g class="errorbars"/><g class="lines"><path class="js-line" d="M0,7.18L28.42,93.08L56.84,123.77L85.26,143.33L113.68,157.53L142.11,168.18L170.53,180.11L198.95,186.73L227.37,197.95L255.79,208.4L284.21,217.01L312.63,228.08L341.05,234.89L369.47,237.82L397.89,250.38L426.32,258.74L454.74,262.03L483.16,279.32L511.58,286.87L540,300.96" style="vector-effect: non-scaling-stroke; fill: none; stroke: rgb(254, 203, 82); stroke-opacity: 1; stroke-width: 2px; opacity: 1;"/></g><g class="points"/><g class="text"/></g><g class="trace scatter trace037ba5" style="stroke-miterlimit: 2; opacity: 1;"><g class="fills"/><g class="errorbars"/><g class="lines"><path class="js-line" d="M0,3.7L28.42,97.32L56.84,121.04L85.26,143.15L113.68,153L142.11,167.12L170.53,178.85L198.95,186.61L227.37,196.82L255.79,209.08L284.21,213.11L312.63,220.54L341.05,223.8L369.47,236.85L397.89,248.49L426.32,253.03L454.74,266.99L483.16,268.9L511.58,278.68L540,294.93" style="vector-effect: non-scaling-stroke; fill: none; stroke: rgb(99, 110, 250); stroke-opacity: 1; stroke-width: 2px; opacity: 1;"/></g><g class="points"/><g class="text"/></g><g class="trace scatter trace0f0c74" style="stroke-miterlimit: 2; opacity: 1;"><g class="fills"/><g class="errorbars"/><g class="lines"><path class="js-line" d="M0,6.92L28.42,96.9L56.84,123.58L85.26,141.03L113.68,156.26L142.11,164.6L170.53,175.06L198.95,183.88L227.37,200.45L255.79,203.09L284.21,219.59L341.05,236.14L369.47,237.25L397.89,253.15L426.32,257.18L454.74,259.64L483.16,266.72L511.58,279.73L540,285.5" style="vector-effect: non-scaling-stroke; fill: none; stroke: rgb(239, 85, 59); stroke-opacity: 1; stroke-width: 2px; opacity: 1;"/></g><g class="points"/><g class="text"/></g><g class="trace scatter traceab8fc0" style="stroke-miterlimit: 2; opacity: 1;"><g class="fills"/><g class="errorbars"/><g class="lines"><path class="js-line" d="M0,7.23L28.42,93.9L56.84,120.4L85.26,138.48L113.68,151.12L142.11,163.11L170.53,177.2L198.95,185.45L227.37,198.27L255.79,206.88L284.21,219.01L312.63,225.07L341.05,234.72L369.47,234.97L397.89,251.93L426.32,263.07L454.74,264.37L483.16,274.34L511.58,291.21L540,298.13" style="vector-effect: non-scaling-stroke; fill: none; stroke: rgb(0, 204, 150); stroke-opacity: 1; stroke-width: 2px; opacity: 1;"/></g><g class="points"/><g class="text"/></g><g class="trace scatter tracec1b1ce" style="stroke-miterlimit: 2; opacity: 1;"><g class="fills"/><g class="errorbars"/><g class="lines"><path class="js-line" d="M0,3.39L28.42,97.85L56.84,121.4L85.26,144.27L113.68,157.41L198.95,189.81L227.37,194.44L255.79,203.32L284.21,221.8L312.63,220.96L341.05,233.22L369.47,241.58L397.89,253.84L426.32,256.27L454.74,266.81L483.16,273.69L511.58,288.4L540,296.7" style="vector-effect: non-scaling-stroke; fill: none; stroke: rgb(171, 99, 250); stroke-opacity: 1; stroke-width: 2px; opacity: 1;"/></g><g class="points"/><g class="text"/></g><g class="trace scatter tracecf5a85" style="stroke-miterlimit: 2; opacity: 1;"><g class="fills"/><g class="errorbars"/><g class="lines"><path class="js-line" d="M0,6.22L28.42,96L56.84,122.21L85.26,137.71L113.68,149.2L142.11,168.53L170.53,178.27L227.37,198.38L255.79,210.23L284.21,224.3L312.63,228.39L369.47,250.65L397.89,264.02L426.32,274.39L454.74,277.41L483.16,283.99L511.58,294.43L540,310.7" style="vector-effect: non-scaling-stroke; fill: none; stroke: rgb(255, 161, 90); stroke-opacity: 1; stroke-width: 2px; opacity: 1;"/></g><g class="points"/><g class="text"/></g><g class="trace scatter tracefb6e7c" style="stroke-miterlimit: 2; opacity: 1;"><g class="fills"/><g class="errorbars"/><g class="lines"><path class="js-line" d="M0,3.48L28.42,94.62L56.84,122.79L85.26,141.67L113.68,152.02L142.11,165.25L170.53,179.61L198.95,189.11L227.37,200.22L255.79,207.13L284.21,219.52L312.63,224.88L341.05,233.78L369.47,240.93L397.89,252.12L426.32,263.54L454.74,269.55L483.16,283.04L511.58,298.59L540,309.84" style="vector-effect: non-scaling-stroke; fill: none; stroke: rgb(25, 211, 243); stroke-opacity: 1; stroke-width: 2px; opacity: 1;"/></g><g class="points"/><g class="text"/></g><g class="trace scatter trace7b2103" style="stroke-miterlimit: 2; opacity: 1;"><g class="fills"/><g class="errorbars"/><g class="lines"><path class="js-line" d="M0,9.83L28.42,95.59L56.84,127.44L113.68,158.99L142.11,168.48L170.53,181.06L198.95,190.47L255.79,211.65L284.21,226.81L312.63,228.44L341.05,241.49L369.47,252.37L397.89,258.07L454.74,277.22L483.16,284.64L511.58,288.33L540,300.97" style="vector-effect: non-scaling-stroke; fill: none; stroke: rgb(255, 102, 146); stroke-opacity: 1; stroke-width: 2px; opacity: 1;"/></g><g class="points"/><g class="text"/></g><g class="trace scatter trace5b8992" style="stroke-miterlimit: 2; opacity: 1;"><g class="fills"/><g class="errorbars"/><g class="lines"><path class="js-line" d="M0,7.24L28.42,97.88L56.84,126.09L113.68,158.39L142.11,171.05L170.53,178.34L198.95,189.23L227.37,197.1L255.79,199.7L284.21,220.47L312.63,225.15L341.05,241.11L369.47,248.76L397.89,253.08L426.32,259.43L454.74,278.12L483.16,279.2L511.58,293.25L540,296.42" style="vector-effect: non-scaling-stroke; fill: none; stroke: rgb(182, 232, 128); stroke-opacity: 1; stroke-width: 2px; opacity: 1;"/></g><g class="points"/><g class="text"/></g><g class="trace scatter traceb97a46" style="stroke-miterlimit: 2; opacity: 1;"><g class="fills"/><g class="errorbars"/><g class="lines"><path class="js-line" d="M0,6.44L28.42,95.48L56.84,125.34L85.26,142.06L113.68,156.31L142.11,166.08L170.53,177.5L227.37,197.33L255.79,205.36L284.21,221.15L312.63,220.26L341.05,225.46L369.47,239.73L397.89,248.61L426.32,255.07L454.74,267.6L483.16,272.8L511.58,288.08L540,292.29" style="vector-effect: non-scaling-stroke; fill: none; stroke: rgb(255, 151, 255); stroke-opacity: 1; stroke-width: 2px; opacity: 1;"/></g><g class="points"/><g class="text"/></g><g class="trace scatter trace838839" style="stroke-miterlimit: 2; opacity: 1;"><g class="fills"/><g class="errorbars"/><g class="lines"><path class="js-line" d="M0,6.17L28.42,94.43L56.84,125L85.26,142.31L113.68,157.08L142.11,169.06L170.53,178.95L198.95,188.81L227.37,195.88L255.79,205.44L284.21,222.59L312.63,227.94L341.05,236.93L369.47,251.57L397.89,260.9L426.32,268.6L454.74,269.49L483.16,286.21L511.58,300.92L540,300.13" style="vector-effect: non-scaling-stroke; fill: none; stroke: rgb(254, 203, 82); stroke-opacity: 1; stroke-width: 2px; opacity: 1;"/></g><g class="points"/><g class="text"/></g><g class="trace scatter tracef562b4" style="stroke-miterlimit: 2; opacity: 1;"><g class="fills"/><g class="errorbars"/><g class="lines"><path class="js-line" d="M0,6.3L28.42,97.7L56.84,125.59L85.26,143.96L113.68,155.16L142.11,167.71L170.53,181.22L198.95,190.62L227.37,198.5L255.79,210.49L284.21,224.8L312.63,231.2L341.05,239.17L369.47,248.76L397.89,260.53L426.32,269.81L454.74,282.55L483.16,293.96L511.58,303.38L540,319.28" style="vector-effect: non-scaling-stroke; fill: none; stroke: rgb(99, 110, 250); stroke-opacity: 1; stroke-width: 2px; opacity: 1;"/></g><g class="points"/><g class="text"/></g><g class="trace scatter trace77e2bb" style="stroke-miterlimit: 2; opacity: 1;"><g class="fills"/><g class="errorbars"/><g class="lines"><path class="js-line" d="M0,6.73L28.42,95.42L56.84,123.99L113.68,155.57L142.11,165.51L170.53,177.79L198.95,181.08L227.37,194.16L255.79,204.93L284.21,215.61L312.63,219.78L341.05,224.64L369.47,233.07L397.89,237.63L426.32,248.63L454.74,252.6L483.16,265.14L540,287.03" style="vector-effect: non-scaling-stroke; fill: none; stroke: rgb(239, 85, 59); stroke-opacity: 1; stroke-width: 2px; opacity: 1;"/></g><g class="points"/><g class="text"/></g><g class="trace scatter trace7231c4" style="stroke-miterlimit: 2; opacity: 1;"><g class="fills"/><g class="errorbars"/><g class="lines"><path class="js-line" d="M0,5.8L28.42,93.9L56.84,123.78L85.26,143.68L113.68,153.42L170.53,176.46L198.95,183.79L227.37,194.33L255.79,200.93L284.21,210.96L312.63,219.92L341.05,227.32L369.47,238.03L426.32,266.79L454.74,271.11L483.16,283.78L511.58,291.75L540,300.5" style="vector-effect: non-scaling-stroke; fill: none; stroke: rgb(0, 204, 150); stroke-opacity: 1; stroke-width: 2px; opacity: 1;"/></g><g class="points"/><g class="text"/></g><g class="trace scatter tracea840dc" style="stroke-miterlimit: 2; opacity: 1;"><g class="fills"/><g class="errorbars"/><g class="lines"><path class="js-line" d="M0,7.96L28.42,98.66L56.84,126.88L85.26,145.06L113.68,158.37L142.11,170.03L170.53,174.08L198.95,185.23L227.37,195.12L255.79,205.09L284.21,218.53L312.63,227.21L341.05,233.71L369.47,242.3L397.89,252.52L426.32,258.27L454.74,267.98L483.16,277.87L511.58,281.61L540,299.61" style="vector-effect: non-scaling-stroke; fill: none; stroke: rgb(171, 99, 250); stroke-opacity: 1; stroke-width: 2px; opacity: 1;"/></g><g class="points"/><g class="text"/></g><g class="trace scatter tracea3053d" style="stroke-miterlimit: 2; opacity: 1;"><g class="fills"/><g class="errorbars"/><g class="lines"><path class="js-line" d="M0,4.11L28.42,93.94L56.84,123.92L113.68,153.77L142.11,166.62L170.53,179.8L198.95,188.2L227.37,198.6L255.79,204.74L284.21,219.3L312.63,227.03L341.05,235.84L369.47,245.78L397.89,259.38L426.32,268.01L454.74,284.09L483.16,292.62L511.58,303.1L540,317.31" style="vector-effect: non-scaling-stroke; fill: none; stroke: rgb(255, 161, 90); stroke-opacity: 1; stroke-width: 2px; opacity: 1;"/></g><g class="points"/><g class="text"/></g><g class="trace scatter trace7674f2" style="stroke-miterlimit: 2; opacity: 1;"><g class="fills"/><g class="errorbars"/><g class="lines"><path class="js-line" d="M0,9.62L28.42,95.16L56.84,122.21L85.26,139.89L113.68,155.68L142.11,171.38L170.53,180.75L198.95,188.11L227.37,197.28L255.79,206.26L284.21,221.92L312.63,228.58L341.05,237.31L369.47,247.28L397.89,255.39L426.32,266.26L454.74,279.01L483.16,284L511.58,302.26L540,304.39" style="vector-effect: non-scaling-stroke; fill: none; stroke: rgb(25, 211, 243); stroke-opacity: 1; stroke-width: 2px; opacity: 1;"/></g><g class="points"/><g class="text"/></g><g class="trace scatter trace60b3e2" style="stroke-miterlimit: 2; opacity: 1;"><g class="fills"/><g class="errorbars"/><g class="lines"><path class="js-line" d="M0,1L28.42,91.41L56.84,119.09L85.26,140.63L113.68,155.41L142.11,168.97L170.53,181.06L198.95,188.14L227.37,198.89L255.79,204.8L284.21,222.65L341.05,233.25L369.47,240.43L426.32,260.55L454.74,263.99L483.16,276.14L511.58,294.5L540,300.35" style="vector-effect: non-scaling-stroke; fill: none; stroke: rgb(255, 102, 146); stroke-opacity: 1; stroke-width: 2px; opacity: 1;"/></g><g class="points"/><g class="text"/></g><g class="trace scatter trace59476a" style="stroke-miterlimit: 2; opacity: 1;"><g class="fills"/><g class="errorbars"/><g class="lines"><path class="js-line" d="M0,2.12L28.42,95.76L56.84,125.15L85.26,139.95L113.68,156.51L142.11,168.6L170.53,179.43L198.95,188.57L227.37,195.86L255.79,202.79L284.21,216.78L312.63,221.46L341.05,229.85L369.47,235.48L397.89,253.17L426.32,252.65L454.74,260.55L483.16,266.91L511.58,269.69L540,283.34" style="vector-effect: non-scaling-stroke; fill: none; stroke: rgb(182, 232, 128); stroke-opacity: 1; stroke-width: 2px; opacity: 1;"/></g><g class="points"/><g class="text"/></g><g class="trace scatter trace357513" style="stroke-miterlimit: 2; opacity: 1;"><g class="fills"/><g class="errorbars"/><g class="lines"><path class="js-line" d="M0,5.54L28.42,93.74L56.84,120.23L85.26,143.67L113.68,154.85L227.37,201.05L255.79,210.51L284.21,224.32L312.63,232.16L341.05,237.59L369.47,247.73L397.89,253.01L426.32,259.76L454.74,267.49L483.16,278.73L511.58,281.39L540,290.9" style="vector-effect: non-scaling-stroke; fill: none; stroke: rgb(255, 151, 255); stroke-opacity: 1; stroke-width: 2px; opacity: 1;"/></g><g class="points"/><g class="text"/></g><g class="trace scatter traceae14a6" style="stroke-miterlimit: 2; opacity: 1;"><g class="fills"/><g class="errorbars"/><g class="lines"><path class="js-line" d="M0,3.9L28.42,94.71L56.84,123.53L85.26,143.95L113.68,155.86L142.11,166.66L170.53,179.82L198.95,187.21L227.37,200.53L255.79,208.35L284.21,218.22L312.63,227.86L341.05,235.6L369.47,240.05L397.89,254.83L426.32,263.97L454.74,276.97L483.16,284.68L511.58,297.57L540,304.03" style="vector-effect: non-scaling-stroke; fill: none; stroke: rgb(254, 203, 82); stroke-opacity: 1; stroke-width: 2px; opacity: 1;"/></g><g class="points"/><g class="text"/></g></g></g><g class="overplot"/><path class="xlines-above crisp" d="M0,0" style="fill: none;"/><path class="ylines-above crisp" d="M0,0" style="fill: none;"/><g class="overlines-above"/><g class="xaxislayer-above"><g class="xtick"><text text-anchor="middle" x="0" y="433" transform="translate(80,0)" style="font-family: 'Open Sans', verdana, arial, sans-serif; font-size: 12px; fill: rgb(42, 63, 95); fill-opacity: 1; white-space: pre; opacity: 1;">0</text></g><g class="xtick"><text text-anchor="middle" x="0" y="433" style="font-family: 'Open Sans', verdana, arial, sans-serif; font-size: 12px; fill: rgb(42, 63, 95); fill-opacity: 1; white-space: pre; opacity: 1;" transform="translate(222.11,0)">5</text></g><g class="xtick"><text text-anchor="middle" x="0" y="433" style="font-family: 'Open Sans', verdana, arial, sans-serif; font-size: 12px; fill: rgb(42, 63, 95); fill-opacity: 1; white-space: pre; opacity: 1;" transform="translate(364.21,0)">10</text></g><g class="xtick"><text text-anchor="middle" x="0" y="433" style="font-family: 'Open Sans', verdana, arial, sans-serif; font-size: 12px; fill: rgb(42, 63, 95); fill-opacity: 1; white-space: pre; opacity: 1;" transform="translate(506.32,0)">15</text></g></g><g class="yaxislayer-above"><g class="ytick"><text text-anchor="end" x="79" y="4.199999999999999" transform="translate(0,388.5)" style="font-family: 'Open Sans', verdana, arial, sans-serif; font-size: 12px; fill: rgb(42, 63, 95); fill-opacity: 1; white-space: pre; opacity: 1;">1.7</text></g><g class="ytick"><text text-anchor="end" x="79" y="4.199999999999999" style="font-family: 'Open Sans', verdana, arial, sans-serif; font-size: 12px; fill: rgb(42, 63, 95); fill-opacity: 1; white-space: pre; opacity: 1;" transform="translate(0,322.5)">1.72</text></g><g class="ytick"><text text-anchor="end" x="79" y="4.199999999999999" style="font-family: 'Open Sans', verdana, arial, sans-serif; font-size: 12px; fill: rgb(42, 63, 95); fill-opacity: 1; white-space: pre; opacity: 1;" transform="translate(0,256.51)">1.74</text></g><g class="ytick"><text text-anchor="end" x="79" y="4.199999999999999" style="font-family: 'Open Sans', verdana, arial, sans-serif; font-size: 12px; fill: rgb(42, 63, 95); fill-opacity: 1; white-space: pre; opacity: 1;" transform="translate(0,190.51999999999998)">1.76</text></g><g class="ytick"><text text-anchor="end" x="79" y="4.199999999999999" style="font-family: 'Open Sans', verdana, arial, sans-serif; font-size: 12px; fill: rgb(42, 63, 95); fill-opacity: 1; white-space: pre; opacity: 1;" transform="translate(0,124.53)">1.78</text></g></g><g class="overaxes-above"/></g></g><g class="polarlayer"/><g class="ternarylayer"/><g class="geolayer"/><g class="funnelarealayer"/><g class="pielayer"/><g class="iciclelayer"/><g class="treemaplayer"/><g class="sunburstlayer"/><g class="glimages"/><defs id="topdefs-83ca8a"><g class="clips"/></defs><g class="layer-above"><g class="imagelayer"/><g class="shapelayer"/></g><g class="infolayer"><g class="g-gtitle"><text class="gtitle" x="35" y="50" text-anchor="start" dy="0em" style="font-family: 'Open Sans', verdana, arial, sans-serif; font-size: 17px; fill: rgb(42, 63, 95); opacity: 1; font-weight: normal; white-space: pre;">Train Loss: ascad_0-aisy_hw_mlp (early_stopping)</text></g><g class="g-xtitle"/><g class="g-ytitle"/></g></svg>