<svg class="main-svg" xmlns="http://www.w3.org/2000/svg" xmlns:xlink="http://www.w3.org/1999/xlink" width="700" height="500" style="" viewBox="0 0 700 500"><rect x="0" y="0" width="700" height="500" style="fill: rgb(255, 255, 255); fill-opacity: 1;"/><defs id="defs-5f3e65"><g class="clips"><clipPath id="clip5f3e65xyplot" class="plotclip"><rect width="540" height="320"/></clipPath><clipPath class="axesclip" id="clip5f3e65x"><rect x="80" y="0" width="540" height="500"/></clipPath><clipPath class="axesclip" id="clip5f3e65y"><rect x="0" y="100" width="700" height="320"/></clipPath><clipPath class="axesclip" id="clip5f3e65xy"><rect x="80" y="100" width="540" height="320"/></clipPath></g><g class="gradients"/><g class="patterns"/></defs><g class="bglayer"><rect class="bg" x="80" y="100" width="540" height="320" style="fill: rgb(229, 236, 246); fill-opacity: 1; stroke-width: 0;"/></g><g class="layer-below"><g class="imagelayer"/><g class="shapelayer"/></g><g class="cartesianlayer"><g class="subplot xy"><g class="layer-subplot"><g class="shapelayer"/><g class="imagelayer"/></g><g class="gridlayer"><g class="x"><path class="xgrid crisp" transform="translate(222.11,0)" d="M0,100v320" style="stroke: rgb(255, 255, 255); stroke-opacity: 1; stroke-width: 1px;"/><path class="xgrid crisp" transform="translate(364.21,0)" d="M0,100v320" style="stroke: rgb(255, 255, 255); stroke-opacity: 1; stroke-width: 1px;"/><path class="xgrid crisp" transform="translate(506.32,0)" d="M0,100v320" style="stroke: rgb(255, 255, 255); stroke-opacity: 1; stroke-width: 1px;"/></g><g class="y"><path class="ygrid crisp" transform="translate(0,380.08)" d="M80,0h540" style="stroke: rgb(255, 255, 255); stroke-opacity: 1; stroke-width: 1px;"/><path class="ygrid crisp" transform="translate(0,329.06)" d="M80,0h540" style="stroke: rgb(255, 255, 255); stroke-opacity: 1; stroke-width: 1px;"/><path class="ygrid crisp" transform="translate(0,278.03)" d="M80,0h540" style="stroke: rgb(255, 255, 255); stroke-opacity: 1; stroke-width: 1px;"/><path class="ygrid crisp" transform="translate(0,227)" d="M80,0h540" style="stroke: rgb(255, 255, 255); stroke-opacity: 1; stroke-width: 1px;"/><path class="ygrid crisp" transform="translate(0,175.97)" d="M80,0h540" style="stroke: rgb(255, 255, 255); stroke-opacity: 1; stroke-width: 1px;"/><path class="ygrid crisp" transform="translate(0,124.95)" d="M80,0h540" style="stroke: rgb(255, 255, 255); stroke-opacity: 1; stroke-width: 1px;"/></g></g><g class="zerolinelayer"><path class="xzl zl crisp" transform="translate(80,0)" d="M0,100v320" style="stroke: rgb(255, 255, 255); stroke-opacity: 1; stroke-width: 2px;"/></g><path class="xlines-below"/><path class="ylines-below"/><g class="overlines-below"/><g class="xaxislayer-below"/><g class="yaxislayer-below"/><g class="overaxes-below"/><g class="plot" transform="translate(80,100)" clip-path="url(#clip5f3e65xyplot)"><g class="scatterlayer mlayer"><g class="trace scatter traced9e705" style="stroke-miterlimit: 2; opacity: 1;"><g class="fills"/><g class="errorbars"/><g class="lines"><path class="js-line" d="M0,289.16L28.42,224.75L56.84,180.07L85.26,146.05L113.68,132.45L142.11,103.42L170.53,117.25L198.95,118.84L227.37,100.24L255.79,95.71L284.21,98.65L312.63,89.58L341.05,84.82L369.47,85.95L397.89,66.22L426.32,69.17L454.74,68.04L483.16,94.12L511.58,60.33L540,44.9" style="vector-effect: non-scaling-stroke; fill: none; stroke: rgb(99, 110, 250); stroke-opacity: 1; stroke-width: 2px; opacity: 1;"/></g><g class="points"/><g class="text"/></g><g class="trace scatter trace6d20e4" style="stroke-miterlimit: 2; opacity: 1;"><g class="fills"/><g class="errorbars"/><g class="lines"><path class="js-line" d="M0,304.81L28.42,200.71L56.84,181.43L85.26,158.07L113.68,114.98L142.11,122.69L170.53,117.25L198.95,114.76L227.37,92.08L255.79,97.29L284.21,99.79L312.63,89.13L341.05,95.93L369.47,82.55L397.89,75.29L426.32,81.87L454.74,74.39L483.16,65.32L511.58,45.81L540,43.32" style="vector-effect: non-scaling-stroke; fill: none; stroke: rgb(239, 85, 59); stroke-opacity: 1; stroke-width: 2px; opacity: 1;"/></g><g class="points"/><g class="text"/></g><g class="trace scatter traceda5e1e" style="stroke-miterlimit: 2; opacity: 1;"><g class="fills"/><g class="errorbars"/><g class="lines"><path class="js-line" d="M0,269.88L28.42,199.8L56.84,192.54L85.26,144.01L113.68,117.48L142.11,116.12L170.53,122.69L198.95,120.2L227.37,112.49L255.79,109.31L284.21,111.81L312.63,119.06L341.05,104.32L369.47,87.77L397.89,68.94L426.32,63.73L454.74,84.82L483.16,62.59L511.58,64.86L540,38.78" style="vector-effect: non-scaling-stroke; fill: none; stroke: rgb(0, 204, 150); stroke-opacity: 1; stroke-width: 2px; opacity: 1;"/></g><g class="points"/><g class="text"/></g><g class="trace scatter tracede3071" style="stroke-miterlimit: 2; opacity: 1;"><g class="fills"/><g class="errorbars"/><g class="lines"><path class="js-line" d="M0,320L28.42,201.62L56.84,183.7L85.26,147.41L113.68,131.76L142.11,118.16L170.53,129.27L198.95,123.6L227.37,85.27L255.79,105.68L284.21,95.02L312.63,75.97L341.05,89.58L369.47,79.83L397.89,63.5L426.32,72.35L454.74,44.68L483.16,47.17L511.58,45.13L540,0" style="vector-effect: non-scaling-stroke; fill: none; stroke: rgb(171, 99, 250); stroke-opacity: 1; stroke-width: 2px; opacity: 1;"/></g><g class="points"/><g class="text"/></g><g class="trace scatter trace7004dd" style="stroke-miterlimit: 2; opacity: 1;"><g class="fills"/><g class="errorbars"/><g class="lines"><path class="js-line" d="M0,301.63L28.42,224.52L56.84,175.53L85.26,160.79L113.68,113.62L142.11,121.79L170.53,142.65L198.95,126.32L227.37,109.09L255.79,106.59L284.21,102.28L312.63,94.34L341.05,104.32L369.47,72.57L397.89,42.86L426.32,70.53L454.74,70.76L483.16,58.28L511.58,51.48L540,23.13" style="vector-effect: non-scaling-stroke; fill: none; stroke: rgb(255, 161, 90); stroke-opacity: 1; stroke-width: 2px; opacity: 1;"/></g><g class="points"/><g class="text"/></g><g class="trace scatter tracea58cfa" style="stroke-miterlimit: 2; opacity: 1;"><g class="fills"/><g class="errorbars"/><g class="lines"><path class="js-line" d="M0,313.88L28.42,232.01L56.84,181.2L85.26,142.88L113.68,122.69L142.11,111.35L170.53,137.43L198.95,105.23L227.37,95.02L255.79,123.15L284.21,118.84L312.63,98.43L341.05,96.16L369.47,70.99L397.89,65.77L426.32,51.03L454.74,66.9L483.16,62.14L511.58,47.17L540,23.81" style="vector-effect: non-scaling-stroke; fill: none; stroke: rgb(25, 211, 243); stroke-opacity: 1; stroke-width: 2px; opacity: 1;"/></g><g class="points"/><g class="text"/></g><g class="trace scatter tracedb7e2a" style="stroke-miterlimit: 2; opacity: 1;"><g class="fills"/><g class="errorbars"/><g class="lines"><path class="js-line" d="M0,293.47L28.42,191.64L56.84,168.05L85.26,134.71L113.68,127.23L142.11,104.1L170.53,107.27L198.95,106.59L227.37,91.4L255.79,124.05L284.21,111.58L312.63,93.89L341.05,90.04L369.47,71.21L397.89,56.92L426.32,88.45L454.74,78.7L483.16,58.28L511.58,54.88L540,33.34" style="vector-effect: non-scaling-stroke; fill: none; stroke: rgb(255, 102, 146); stroke-opacity: 1; stroke-width: 2px; opacity: 1;"/></g><g class="points"/><g class="text"/></g><g class="trace scatter trace851b17" style="stroke-miterlimit: 2; opacity: 1;"><g class="fills"/><g class="errorbars"/><g class="lines"><path class="js-line" d="M0,272.15L28.42,190.5L56.84,198.89L85.26,137.89L113.68,131.08L142.11,105.68L170.53,124.96L198.95,137.66L227.37,110.22L255.79,103.42L284.21,106.36L312.63,103.87L341.05,93.44L369.47,85.05L397.89,68.04L426.32,87.09L454.74,74.39L483.16,87.54L511.58,46.49L540,43.32" style="vector-effect: non-scaling-stroke; fill: none; stroke: rgb(182, 232, 128); stroke-opacity: 1; stroke-width: 2px; opacity: 1;"/></g><g class="points"/><g class="text"/></g><g class="trace scatter trace7c32ff" style="stroke-miterlimit: 2; opacity: 1;"><g class="fills"/><g class="errorbars"/><g class="lines"><path class="js-line" d="M0,305.71L28.42,217.72L56.84,187.78L85.26,131.76L113.68,124.73L142.11,107.5L170.53,104.32L198.95,116.34L227.37,85.95L255.79,93.21L284.21,105.46L312.63,106.14L341.05,86.18L369.47,71.44L397.89,42.41L426.32,75.07L454.74,50.8L483.16,55.11L511.58,21.77L540,22.68" style="vector-effect: non-scaling-stroke; fill: none; stroke: rgb(255, 151, 255); stroke-opacity: 1; stroke-width: 2px; opacity: 1;"/></g><g class="points"/><g class="text"/></g><g class="trace scatter trace27cc09" style="stroke-miterlimit: 2; opacity: 1;"><g class="fills"/><g class="errorbars"/><g class="lines"><path class="js-line" d="M0,282.35L28.42,201.16L56.84,174.4L85.26,158.53L113.68,127.23L142.11,106.14L170.53,126.78L198.95,102.74L227.37,110.22L255.79,95.48L284.21,87.54L312.63,97.07L341.05,98.65L369.47,80.51L397.89,50.35L426.32,78.7L454.74,58.74L483.16,54.66L511.58,52.39L540,26.31" style="vector-effect: non-scaling-stroke; fill: none; stroke: rgb(254, 203, 82); stroke-opacity: 1; stroke-width: 2px; opacity: 1;"/></g><g class="points"/><g class="text"/></g><g class="trace scatter trace4f8830" style="stroke-miterlimit: 2; opacity: 1;"><g class="fills"/><g class="errorbars"/><g class="lines"><path class="js-line" d="M0,303.9L28.42,195.49L56.84,185.29L85.26,158.75L113.68,134.94L142.11,98.65L170.53,119.52L198.95,128.59L227.37,117.48L255.79,96.84L284.21,100.24L312.63,88.45L341.05,81.64L369.47,63.95L397.89,36.29L426.32,52.39L454.74,38.33L483.16,35.15L511.58,34.47L540,24.49" style="vector-effect: non-scaling-stroke; fill: none; stroke: rgb(99, 110, 250); stroke-opacity: 1; stroke-width: 2px; opacity: 1;"/></g><g class="points"/><g class="text"/></g><g class="trace scatter tracebbbd70" style="stroke-miterlimit: 2; opacity: 1;"><g class="fills"/><g class="errorbars"/><g class="lines"><path class="js-line" d="M0,302.76L28.42,207.74L56.84,190.05L85.26,156.48L113.68,121.33L142.11,118.84L170.53,120.2L198.95,118.61L227.37,97.97L255.79,88.22L284.21,108.41L312.63,97.97L341.05,102.06L369.47,72.35L397.89,55.34L426.32,79.6L454.74,55.34L483.16,63.73L511.58,50.57L540,35.83" style="vector-effect: non-scaling-stroke; fill: none; stroke: rgb(239, 85, 59); stroke-opacity: 1; stroke-width: 2px; opacity: 1;"/></g><g class="points"/><g class="text"/></g><g class="trace scatter trace8e1107" style="stroke-miterlimit: 2; opacity: 1;"><g class="fills"/><g class="errorbars"/><g class="lines"><path class="js-line" d="M0,307.98L28.42,206.83L56.84,148.55L85.26,135.85L113.68,130.86L142.11,117.7L170.53,110.9L198.95,108.86L227.37,117.7L255.79,116.34L284.21,120.65L312.63,86.86L341.05,106.14L369.47,88.45L397.89,69.17L426.32,69.62L454.74,76.88L483.16,54.43L511.58,43.32L540,28.8" style="vector-effect: non-scaling-stroke; fill: none; stroke: rgb(0, 204, 150); stroke-opacity: 1; stroke-width: 2px; opacity: 1;"/></g><g class="points"/><g class="text"/></g><g class="trace scatter trace42a997" style="stroke-miterlimit: 2; opacity: 1;"><g class="fills"/><g class="errorbars"/><g class="lines"><path class="js-line" d="M0,294.15L28.42,203.88L56.84,185.74L85.26,152.4L113.68,144.47L142.11,120.2L170.53,122.92L198.95,111.58L227.37,86.18L255.79,96.84L284.21,90.49L312.63,97.52L341.05,77.79L369.47,61.23L397.89,42.41L426.32,76.88L454.74,46.95L483.16,52.84L511.58,39.91L540,14.29" style="vector-effect: non-scaling-stroke; fill: none; stroke: rgb(171, 99, 250); stroke-opacity: 1; stroke-width: 2px; opacity: 1;"/></g><g class="points"/><g class="text"/></g><g class="trace scatter trace7c19ee" style="stroke-miterlimit: 2; opacity: 1;"><g class="fills"/><g class="errorbars"/><g class="lines"><path class="js-line" d="M0,286.21L28.42,200.25L56.84,157.17L85.26,150.59L113.68,125.19L142.11,112.03L170.53,119.29L198.95,121.11L227.37,100.92L255.79,115.89L284.21,101.37L312.63,88.67L341.05,108.41L369.47,90.94L397.89,59.19L426.32,62.82L454.74,56.47L483.16,59.19L511.58,50.8L540,28.35" style="vector-effect: non-scaling-stroke; fill: none; stroke: rgb(255, 161, 90); stroke-opacity: 1; stroke-width: 2px; opacity: 1;"/></g><g class="points"/><g class="text"/></g><g class="trace scatter trace65e673" style="stroke-miterlimit: 2; opacity: 1;"><g class="fills"/><g class="errorbars"/><g class="lines"><path class="js-line" d="M0,307.3L28.42,208.19L56.84,188.24L85.26,134.03L113.68,130.86L142.11,97.29L170.53,114.3L198.95,105L227.37,113.85L255.79,100.24L284.21,110.9L312.63,98.65L341.05,99.11L369.47,83.91L397.89,57.38L426.32,70.3L454.74,63.95L483.16,79.83L511.58,69.17L540,26.31" style="vector-effect: non-scaling-stroke; fill: none; stroke: rgb(25, 211, 243); stroke-opacity: 1; stroke-width: 2px; opacity: 1;"/></g><g class="points"/><g class="text"/></g><g class="trace scatter tracedb005a" style="stroke-miterlimit: 2; opacity: 1;"><g class="fills"/><g class="errorbars"/><g class="lines"><path class="js-line" d="M0,304.35L28.42,211.37L56.84,195.49L85.26,145.83L113.68,116.12L142.11,125.87L170.53,114.76L198.95,124.51L227.37,114.53L255.79,111.58L284.21,106.82L312.63,92.3L341.05,84.37L369.47,74.84L397.89,75.75L426.32,55.34L454.74,62.14L483.16,76.88L511.58,34.93L540,40.14" style="vector-effect: non-scaling-stroke; fill: none; stroke: rgb(255, 102, 146); stroke-opacity: 1; stroke-width: 2px; opacity: 1;"/></g><g class="points"/><g class="text"/></g><g class="trace scatter trace512495" style="stroke-miterlimit: 2; opacity: 1;"><g class="fills"/><g class="errorbars"/><g class="lines"><path class="js-line" d="M0,314.1L28.42,192.09L56.84,188.24L85.26,125.64L113.68,126.32L142.11,117.7L170.53,119.97L198.95,131.76L227.37,102.51L255.79,102.74L284.21,109.99L312.63,105.68L341.05,105.68L369.47,90.94L397.89,70.53L426.32,65.09L454.74,53.3L483.16,77.56L511.58,54.2L540,15.42" style="vector-effect: non-scaling-stroke; fill: none; stroke: rgb(182, 232, 128); stroke-opacity: 1; stroke-width: 2px; opacity: 1;"/></g><g class="points"/><g class="text"/></g><g class="trace scatter trace5f8769" style="stroke-miterlimit: 2; opacity: 1;"><g class="fills"/><g class="errorbars"/><g class="lines"><path class="js-line" d="M0,294.37L28.42,194.36L56.84,176.9L85.26,156.03L113.68,149L142.11,98.65L170.53,131.54L227.37,110.67L255.79,109.09L284.21,128.14L312.63,109.77L341.05,78.02L369.47,99.56L397.89,73.03L426.32,82.55L454.74,62.37L483.16,61.91L511.58,57.83L540,41.73" style="vector-effect: non-scaling-stroke; fill: none; stroke: rgb(255, 151, 255); stroke-opacity: 1; stroke-width: 2px; opacity: 1;"/></g><g class="points"/><g class="text"/></g><g class="trace scatter trace2b815a" style="stroke-miterlimit: 2; opacity: 1;"><g class="fills"/><g class="errorbars"/><g class="lines"><path class="js-line" d="M0,291.42L28.42,221.8L56.84,179.84L85.26,168.96L113.68,115.66L142.11,117.93L170.53,128.59L198.95,122.01L227.37,110.45L255.79,124.73L284.21,119.52L312.63,95.48L341.05,99.11L369.47,85.73L397.89,76.65L426.32,65.54L454.74,76.88L483.16,81.64L511.58,60.55L540,36.06" style="vector-effect: non-scaling-stroke; fill: none; stroke: rgb(254, 203, 82); stroke-opacity: 1; stroke-width: 2px; opacity: 1;"/></g><g class="points"/><g class="text"/></g><g class="trace scatter trace7acdfc" style="stroke-miterlimit: 2; opacity: 1;"><g class="fills"/><g class="errorbars"/><g class="lines"><path class="js-line" d="M0,296.87L28.42,204.79L56.84,161.47L85.26,142.42L113.68,119.29L142.11,109.54L170.53,109.77L198.95,108.63L227.37,102.28L255.79,126.32L284.21,113.62L312.63,100.92L341.05,107.73L369.47,99.33L397.89,38.33L426.32,67.81L454.74,58.06L483.16,47.85L511.58,50.8L540,39.23" style="vector-effect: non-scaling-stroke; fill: none; stroke: rgb(99, 110, 250); stroke-opacity: 1; stroke-width: 2px; opacity: 1;"/></g><g class="points"/><g class="text"/></g><g class="trace scatter trace5d2ba5" style="stroke-miterlimit: 2; opacity: 1;"><g class="fills"/><g class="errorbars"/><g class="lines"><path class="js-line" d="M0,290.74L28.42,216.13L56.84,188.69L113.68,112.71L142.11,104.1L198.95,124.73L227.37,118.38L255.79,97.29L284.21,112.26L312.63,89.36L341.05,107.27L369.47,92.3L397.89,56.92L426.32,96.61L454.74,66.9L483.16,72.8L511.58,49.21L540,43.54" style="vector-effect: non-scaling-stroke; fill: none; stroke: rgb(239, 85, 59); stroke-opacity: 1; stroke-width: 2px; opacity: 1;"/></g><g class="points"/><g class="text"/></g><g class="trace scatter trace4ecbfb" style="stroke-miterlimit: 2; opacity: 1;"><g class="fills"/><g class="errorbars"/><g class="lines"><path class="js-line" d="M0,294.83L28.42,202.52L56.84,183.93L85.26,145.37L113.68,127.46L142.11,108.41L170.53,113.62L198.95,129.95L227.37,93.44L255.79,106.14L284.21,106.82L341.05,97.97L369.47,84.37L397.89,78.92L426.32,80.74L454.74,77.34L483.16,68.26L511.58,51.71L540,45.13" style="vector-effect: non-scaling-stroke; fill: none; stroke: rgb(0, 204, 150); stroke-opacity: 1; stroke-width: 2px; opacity: 1;"/></g><g class="points"/><g class="text"/></g><g class="trace scatter trace02e831" style="stroke-miterlimit: 2; opacity: 1;"><g class="fills"/><g class="errorbars"/><g class="lines"><path class="js-line" d="M0,297.55L28.42,207.74L56.84,177.8L85.26,139.02L113.68,118.84L142.11,123.15L170.53,134.94L198.95,129.72L227.37,109.77L255.79,84.14L284.21,100.24L312.63,116.8L341.05,93.44L369.47,72.57L397.89,49.67L426.32,65.09L454.74,68.94L483.16,76.88L511.58,58.06L540,45.36" style="vector-effect: non-scaling-stroke; fill: none; stroke: rgb(171, 99, 250); stroke-opacity: 1; stroke-width: 2px; opacity: 1;"/></g><g class="points"/><g class="text"/></g><g class="trace scatter trace273399" style="stroke-miterlimit: 2; opacity: 1;"><g class="fills"/><g class="errorbars"/><g class="lines"><path class="js-line" d="M0,297.55L28.42,194.36L56.84,198.44L85.26,148.09L113.68,118.38L142.11,96.39L170.53,126.1L198.95,118.84L227.37,109.31L255.79,126.55L284.21,100.47L312.63,96.84L341.05,101.15L369.47,73.25L397.89,57.83L426.32,64.86L454.74,66L483.16,54.43L511.58,54.66L540,21.32" style="vector-effect: non-scaling-stroke; fill: none; stroke: rgb(255, 161, 90); stroke-opacity: 1; stroke-width: 2px; opacity: 1;"/></g><g class="points"/><g class="text"/></g><g class="trace scatter trace4c1833" style="stroke-miterlimit: 2; opacity: 1;"><g class="fills"/><g class="errorbars"/><g class="lines"><path class="js-line" d="M0,290.52L28.42,209.55L56.84,186.87L85.26,137.43L113.68,129.5L142.11,110.9L170.53,129.95L198.95,111.13L227.37,97.52L255.79,102.96L284.21,104.55L312.63,91.17L341.05,68.72L369.47,75.29L397.89,49.44L426.32,45.81L454.74,63.95L483.16,42.86L511.58,52.39L540,47.4" style="vector-effect: non-scaling-stroke; fill: none; stroke: rgb(25, 211, 243); stroke-opacity: 1; stroke-width: 2px; opacity: 1;"/></g><g class="points"/><g class="text"/></g><g class="trace scatter trace389437" style="stroke-miterlimit: 2; opacity: 1;"><g class="fills"/><g class="errorbars"/><g class="lines"><path class="js-line" d="M0,305.49L28.42,195.95L56.84,168.28L85.26,152.4L113.68,134.71L142.11,118.16L170.53,125.41L198.95,107.5L227.37,94.34L255.79,101.15L284.21,104.32L312.63,95.25L341.05,102.74L369.47,69.85L397.89,58.06L426.32,55.79L454.74,79.38L483.16,54.43L511.58,59.87L540,23.36" style="vector-effect: non-scaling-stroke; fill: none; stroke: rgb(255, 102, 146); stroke-opacity: 1; stroke-width: 2px; opacity: 1;"/></g><g class="points"/><g class="text"/></g><g class="trace scatter tracef96f0b" style="stroke-miterlimit: 2; opacity: 1;"><g class="fills"/><g class="errorbars"/><g class="lines"><path class="js-line" d="M0,280.77L28.42,199.12L56.84,190.05L85.26,144.24L113.68,137.43L142.11,113.39L170.53,108.86L198.95,128.36L227.37,97.75L255.79,108.41L284.21,129.5L312.63,99.56L341.05,102.06L369.47,76.65L397.89,61.01L426.32,87.77L454.74,64.86L483.16,63.5L511.58,59.87L540,36.51" style="vector-effect: non-scaling-stroke; fill: none; stroke: rgb(182, 232, 128); stroke-opacity: 1; stroke-width: 2px; opacity: 1;"/></g><g class="points"/><g class="text"/></g><g class="trace scatter trace506c8a" style="stroke-miterlimit: 2; opacity: 1;"><g class="fills"/><g class="errorbars"/><g class="lines"><path class="js-line" d="M0,305.71L28.42,211.14L56.84,181.66L85.26,153.99L113.68,131.08L142.11,126.78L170.53,110.22L198.95,119.29L227.37,109.77L255.79,100.24L284.21,107.04L312.63,87.77L341.05,103.42L369.47,85.05L397.89,58.28L426.32,68.72L454.74,48.53L483.16,67.13L511.58,57.38L540,36.06" style="vector-effect: non-scaling-stroke; fill: none; stroke: rgb(255, 151, 255); stroke-opacity: 1; stroke-width: 2px; opacity: 1;"/></g><g class="points"/><g class="text"/></g><g class="trace scatter trace571fce" style="stroke-miterlimit: 2; opacity: 1;"><g class="fills"/><g class="errorbars"/><g class="lines"><path class="js-line" d="M0,282.81L28.42,208.42L56.84,167.6L85.26,136.3L113.68,133.35L142.11,116.8L170.53,117.48L198.95,127.46L227.37,129.72L255.79,115.66L284.21,94.57L312.63,104.32L341.05,102.06L369.47,104.32L397.89,54.43L426.32,67.13L454.74,63.05L483.16,64.41L511.58,76.88L540,50.8" style="vector-effect: non-scaling-stroke; fill: none; stroke: rgb(254, 203, 82); stroke-opacity: 1; stroke-width: 2px; opacity: 1;"/></g><g class="points"/><g class="text"/></g><g class="trace scatter trace43f5bd" style="stroke-miterlimit: 2; opacity: 1;"><g class="fills"/><g class="errorbars"/><g class="lines"><path class="js-line" d="M0,297.77L28.42,199.12L56.84,184.61L85.26,142.42L113.68,139.25L142.11,128.14L170.53,126.1L198.95,124.96L227.37,100.92L255.79,101.83L284.21,107.04L312.63,111.35L341.05,97.07L369.47,93.21L397.89,85.27L426.32,70.08L454.74,67.81L483.16,76.43L511.58,40.6L540,47.85" style="vector-effect: non-scaling-stroke; fill: none; stroke: rgb(99, 110, 250); stroke-opacity: 1; stroke-width: 2px; opacity: 1;"/></g><g class="points"/><g class="text"/></g><g class="trace scatter trace7d6f0c" style="stroke-miterlimit: 2; opacity: 1;"><g class="fills"/><g class="errorbars"/><g class="lines"><path class="js-line" d="M0,304.58L28.42,204.56L56.84,182.57L85.26,145.83L113.68,126.55L142.11,116.12L170.53,119.29L198.95,127.68L227.37,103.19L255.79,109.77L284.21,108.18L312.63,82.78L341.05,107.5L369.47,70.3L397.89,50.35L426.32,62.37L454.74,63.27L483.16,53.52L511.58,45.58L540,48.08" style="vector-effect: non-scaling-stroke; fill: none; stroke: rgb(239, 85, 59); stroke-opacity: 1; stroke-width: 2px; opacity: 1;"/></g><g class="points"/><g class="text"/></g><g class="trace scatter trace152bea" style="stroke-miterlimit: 2; opacity: 1;"><g class="fills"/><g class="errorbars"/><g class="lines"><path class="js-line" d="M0,290.52L28.42,197.08L56.84,179.62L85.26,141.74L113.68,144.92L142.11,122.01L170.53,122.01L198.95,128.14L227.37,99.11L255.79,105.68L284.21,109.09L312.63,87.77L341.05,116.8L369.47,80.51L397.89,66.9L426.32,50.57L454.74,58.97L483.16,78.47L511.58,55.56L540,58.28" style="vector-effect: non-scaling-stroke; fill: none; stroke: rgb(0, 204, 150); stroke-opacity: 1; stroke-width: 2px; opacity: 1;"/></g><g class="points"/><g class="text"/></g><g class="trace scatter tracedc33e1" style="stroke-miterlimit: 2; opacity: 1;"><g class="fills"/><g class="errorbars"/><g class="lines"><path class="js-line" d="M0,283.26L28.42,200.71L56.84,190.73L85.26,149.91L113.68,132.9L142.11,96.16L170.53,117.02L227.37,121.33L255.79,98.65L284.21,100.47L312.63,96.84L341.05,90.72L369.47,64.86L397.89,43.77L426.32,71.21L454.74,70.08L483.16,48.08L511.58,57.83L540,37.65" style="vector-effect: non-scaling-stroke; fill: none; stroke: rgb(171, 99, 250); stroke-opacity: 1; stroke-width: 2px; opacity: 1;"/></g><g class="points"/><g class="text"/></g><g class="trace scatter trace5d4bfe" style="stroke-miterlimit: 2; opacity: 1;"><g class="fills"/><g class="errorbars"/><g class="lines"><path class="js-line" d="M0,273.96L28.42,196.85L56.84,170.77L85.26,150.36L113.68,117.7L142.11,122.92L170.53,108.41L198.95,118.61L227.37,124.51L255.79,105.91L284.21,119.74L312.63,96.84L341.05,90.94L369.47,69.62L397.89,53.75L426.32,68.49L454.74,57.15L483.16,51.71L511.58,56.47L540,38.78" style="vector-effect: non-scaling-stroke; fill: none; stroke: rgb(255, 161, 90); stroke-opacity: 1; stroke-width: 2px; opacity: 1;"/></g><g class="points"/><g class="text"/></g><g class="trace scatter trace5e1f36" style="stroke-miterlimit: 2; opacity: 1;"><g class="fills"/><g class="errorbars"/><g class="lines"><path class="js-line" d="M0,289.16L28.42,196.4L56.84,183.93L85.26,134.71L113.68,137.89L142.11,107.73L170.53,114.53L198.95,135.85L227.37,108.86L255.79,114.76L284.21,114.98L312.63,108.41L341.05,109.54L369.47,71.67L397.89,56.24L426.32,84.14L454.74,69.17L483.16,69.85L511.58,74.39L540,38.33" style="vector-effect: non-scaling-stroke; fill: none; stroke: rgb(25, 211, 243); stroke-opacity: 1; stroke-width: 2px; opacity: 1;"/></g><g class="points"/><g class="text"/></g><g class="trace scatter traceda318e" style="stroke-miterlimit: 2; opacity: 1;"><g class="fills"/><g class="errorbars"/><g class="lines"><path class="js-line" d="M0,298L28.42,214.54L56.84,167.6L85.26,158.98L113.68,128.14L142.11,102.28L170.53,112.03L198.95,136.07L227.37,122.92L255.79,102.74L284.21,112.03L312.63,96.16L341.05,98.43L369.47,92.76L397.89,75.52L426.32,83.69L454.74,62.59L483.16,66L511.58,76.43L540,48.31" style="vector-effect: non-scaling-stroke; fill: none; stroke: rgb(255, 102, 146); stroke-opacity: 1; stroke-width: 2px; opacity: 1;"/></g><g class="points"/><g class="text"/></g><g class="trace scatter trace0e49cf" style="stroke-miterlimit: 2; opacity: 1;"><g class="fills"/><g class="errorbars"/><g class="lines"><path class="js-line" d="M0,287.57L28.42,195.27L56.84,167.6L85.26,143.33L113.68,144.24L142.11,121.33L170.53,138.8L198.95,115.66L227.37,101.15L255.79,109.77L284.21,94.57L312.63,88.67L341.05,96.84L369.47,80.51L397.89,56.7L426.32,67.13L454.74,70.08L483.16,68.72L511.58,51.71L540,22.68" style="vector-effect: non-scaling-stroke; fill: none; stroke: rgb(182, 232, 128); stroke-opacity: 1; stroke-width: 2px; opacity: 1;"/></g><g class="points"/><g class="text"/></g><g class="trace scatter tracebccce7" style="stroke-miterlimit: 2; opacity: 1;"><g class="fills"/><g class="errorbars"/><g class="lines"><path class="js-line" d="M0,312.74L28.42,187.1L56.84,166.69L85.26,145.6L113.68,122.47L142.11,106.36L170.53,107.04L198.95,122.01L227.37,100.47L255.79,101.15L284.21,113.85L312.63,88.9L341.05,73.25L369.47,75.29L397.89,47.85L426.32,60.1L454.74,47.4L483.16,54.2L511.58,46.04L540,47.63" style="vector-effect: non-scaling-stroke; fill: none; stroke: rgb(255, 151, 255); stroke-opacity: 1; stroke-width: 2px; opacity: 1;"/></g><g class="points"/><g class="text"/></g><g class="trace scatter trace20af23" style="stroke-miterlimit: 2; opacity: 1;"><g class="fills"/><g class="errorbars"/><g class="lines"><path class="js-line" d="M0,296.19L28.42,199.35L56.84,189.6L85.26,151.27L113.68,134.26L142.11,121.33L170.53,127L198.95,119.52L227.37,118.84L255.79,121.33L284.21,131.99L312.63,91.4L341.05,103.42L369.47,75.97L397.89,52.16L426.32,79.83L454.74,66.9L483.16,61.23L511.58,73.03L540,27.89" style="vector-effect: non-scaling-stroke; fill: none; stroke: rgb(254, 203, 82); stroke-opacity: 1; stroke-width: 2px; opacity: 1;"/></g><g class="points"/><g class="text"/></g><g class="trace scatter trace8eb4e4" style="stroke-miterlimit: 2; opacity: 1;"><g class="fills"/><g class="errorbars"/><g class="lines"><path class="js-line" d="M0,302.08L28.42,205.92L56.84,180.3L85.26,153.08L113.68,120.65L142.11,115.21L170.53,130.4L198.95,116.34L227.37,100.92L255.79,113.85L284.21,105.23L312.63,102.74L341.05,95.93L369.47,70.53L397.89,60.1L426.32,76.2L454.74,62.14L483.16,55.79L511.58,66L540,61.01" style="vector-effect: non-scaling-stroke; fill: none; stroke: rgb(99, 110, 250); stroke-opacity: 1; stroke-width: 2px; opacity: 1;"/></g><g class="points"/><g class="text"/></g><g class="trace scatter tracecf6749" style="stroke-miterlimit: 2; opacity: 1;"><g class="fills"/><g class="errorbars"/><g class="lines"><path class="js-line" d="M0,287.12L28.42,187.78L56.84,173.27L85.26,140.84L113.68,140.38L142.11,119.06L170.53,120.65L198.95,122.01L227.37,112.94L255.79,114.08L284.21,99.11L312.63,123.15L341.05,95.25L369.47,88.22L397.89,68.72L454.74,78.92L483.16,77.79L511.58,65.09L540,29.26" style="vector-effect: non-scaling-stroke; fill: none; stroke: rgb(239, 85, 59); stroke-opacity: 1; stroke-width: 2px; opacity: 1;"/></g><g class="points"/><g class="text"/></g><g class="trace scatter trace4c432e" style="stroke-miterlimit: 2; opacity: 1;"><g class="fills"/><g class="errorbars"/><g class="lines"><path class="js-line" d="M0,295.51L28.42,217.04L56.84,177.35L85.26,151.27L113.68,119.29L142.11,112.49L170.53,116.8L198.95,131.99L227.37,107.04L255.79,105.68L284.21,105.46L312.63,87.09L341.05,110.45L369.47,92.98L397.89,56.24L426.32,53.52L454.74,79.38L483.16,63.05L511.58,57.15L540,40.6" style="vector-effect: non-scaling-stroke; fill: none; stroke: rgb(0, 204, 150); stroke-opacity: 1; stroke-width: 2px; opacity: 1;"/></g><g class="points"/><g class="text"/></g><g class="trace scatter tracec42461" style="stroke-miterlimit: 2; opacity: 1;"><g class="fills"/><g class="errorbars"/><g class="lines"><path class="js-line" d="M0,300.27L28.42,178.71L56.84,181.43L85.26,136.53L113.68,132.45L142.11,115.66L170.53,119.74L198.95,136.53L227.37,105.68L255.79,98.2L284.21,104.32L312.63,93.21L341.05,88.45L369.47,81.19L397.89,58.28L426.32,59.19L454.74,63.5L483.16,64.41L511.58,42.18L540,28.12" style="vector-effect: non-scaling-stroke; fill: none; stroke: rgb(171, 99, 250); stroke-opacity: 1; stroke-width: 2px; opacity: 1;"/></g><g class="points"/><g class="text"/></g><g class="trace scatter tracec9a8a0" style="stroke-miterlimit: 2; opacity: 1;"><g class="fills"/><g class="errorbars"/><g class="lines"><path class="js-line" d="M0,293.01L28.42,215.9L56.84,176.22L85.26,144.01L113.68,124.73L142.11,106.36L170.53,132.22L198.95,125.64L227.37,105.46L255.79,103.19L284.21,98.65L312.63,107.95L341.05,100.92L369.47,90.72L397.89,61.01L426.32,81.42L454.74,68.49L483.16,55.56L511.58,52.84L540,54.66" style="vector-effect: non-scaling-stroke; fill: none; stroke: rgb(255, 161, 90); stroke-opacity: 1; stroke-width: 2px; opacity: 1;"/></g><g class="points"/><g class="text"/></g><g class="trace scatter trace260546" style="stroke-miterlimit: 2; opacity: 1;"><g class="fills"/><g class="errorbars"/><g class="lines"><path class="js-line" d="M0,294.15L28.42,190.96L56.84,161.25L85.26,147.19L113.68,111.81L142.11,116.34L170.53,124.96L198.95,125.64L227.37,99.79L255.79,100.47L284.21,109.54L312.63,93.21L341.05,82.78L369.47,80.51L397.89,60.55L426.32,64.86L454.74,58.51L483.16,71.89L511.58,57.38L540,57.38" style="vector-effect: non-scaling-stroke; fill: none; stroke: rgb(25, 211, 243); stroke-opacity: 1; stroke-width: 2px; opacity: 1;"/></g><g class="points"/><g class="text"/></g><g class="trace scatter trace7e7c13" style="stroke-miterlimit: 2; opacity: 1;"><g class="fills"/><g class="errorbars"/><g class="lines"><path class="js-line" d="M0,296.87L28.42,213.64L56.84,187.33L85.26,150.59L113.68,120.2L142.11,102.96L170.53,133.13L198.95,125.19L227.37,94.57L255.79,99.79L284.21,107.04L312.63,90.04L341.05,104.55L369.47,76.2L397.89,62.14L426.32,62.14L454.74,60.55L483.16,53.07L511.58,52.62L540,15.42" style="vector-effect: non-scaling-stroke; fill: none; stroke: rgb(255, 102, 146); stroke-opacity: 1; stroke-width: 2px; opacity: 1;"/></g><g class="points"/><g class="text"/></g><g class="trace scatter traced44cca" style="stroke-miterlimit: 2; opacity: 1;"><g class="fills"/><g class="errorbars"/><g class="lines"><path class="js-line" d="M0,294.6L28.42,201.39L56.84,167.82L85.26,147.87L113.68,139.7L142.11,121.79L170.53,120.88L198.95,130.86L227.37,96.39L255.79,109.77L284.21,111.13L312.63,87.31L341.05,101.6L369.47,82.1L397.89,64.63L426.32,61.46L454.74,71.21L483.16,72.12L511.58,62.37L540,25.85" style="vector-effect: non-scaling-stroke; fill: none; stroke: rgb(182, 232, 128); stroke-opacity: 1; stroke-width: 2px; opacity: 1;"/></g><g class="points"/><g class="text"/></g><g class="trace scatter trace7109b6" style="stroke-miterlimit: 2; opacity: 1;"><g class="fills"/><g class="errorbars"/><g class="lines"><path class="js-line" d="M0,300.5L28.42,215L56.84,196.17L85.26,144.47L113.68,120.43L142.11,109.54L170.53,109.54L198.95,122.69L227.37,107.95L255.79,105.68L284.21,102.06L312.63,106.36L341.05,106.14L369.47,60.1L397.89,35.38L426.32,66L454.74,61.69L483.16,56.24L511.58,63.05L540,39.23" style="vector-effect: non-scaling-stroke; fill: none; stroke: rgb(255, 151, 255); stroke-opacity: 1; stroke-width: 2px; opacity: 1;"/></g><g class="points"/><g class="text"/></g><g class="trace scatter trace0b33e5" style="stroke-miterlimit: 2; opacity: 1;"><g class="fills"/><g class="errorbars"/><g class="lines"><path class="js-line" d="M0,296.87L28.42,197.99L56.84,199.35L85.26,153.08L113.68,97.75L142.11,111.35L170.53,106.36L198.95,121.56L227.37,99.33L255.79,97.29L284.21,112.03L341.05,92.76L369.47,78.92L397.89,38.78L426.32,56.47L454.74,61.69L483.16,59.19L511.58,37.87L540,21.77" style="vector-effect: non-scaling-stroke; fill: none; stroke: rgb(254, 203, 82); stroke-opacity: 1; stroke-width: 2px; opacity: 1;"/></g><g class="points"/><g class="text"/></g></g></g><g class="overplot"/><path class="xlines-above crisp" d="M0,0" style="fill: none;"/><path class="ylines-above crisp" d="M0,0" style="fill: none;"/><g class="overlines-above"/><g class="xaxislayer-above"><g class="xtick"><text text-anchor="middle" x="0" y="433" transform="translate(80,0)" style="font-family: 'Open Sans', verdana, arial, sans-serif; font-size: 12px; fill: rgb(42, 63, 95); fill-opacity: 1; white-space: pre; opacity: 1;">0</text></g><g class="xtick"><text text-anchor="middle" x="0" y="433" style="font-family: 'Open Sans', verdana, arial, sans-serif; font-size: 12px; fill: rgb(42, 63, 95); fill-opacity: 1; white-space: pre; opacity: 1;" transform="translate(222.11,0)">5</text></g><g class="xtick"><text text-anchor="middle" x="0" y="433" style="font-family: 'Open Sans', verdana, arial, sans-serif; font-size: 12px; fill: rgb(42, 63, 95); fill-opacity: 1; white-space: pre; opacity: 1;" transform="translate(364.21,0)">10</text></g><g class="xtick"><text text-anchor="middle" x="0" y="433" style="font-family: 'Open Sans', verdana, arial, sans-serif; font-size: 12px; fill: rgb(42, 63, 95); fill-opacity: 1; white-space: pre; opacity: 1;" transform="translate(506.32,0)">15</text></g></g><g class="yaxislayer-above"><g class="ytick"><text text-anchor="end" x="79" y="4.199999999999999" transform="translate(0,380.08)" style="font-family: 'Open Sans', verdana, arial, sans-serif; font-size: 12px; fill: rgb(42, 63, 95); fill-opacity: 1; white-space: pre; opacity: 1;">0.26</text></g><g class="ytick"><text text-anchor="end" x="79" y="4.199999999999999" style="font-family: 'Open Sans', verdana, arial, sans-serif; font-size: 12px; fill: rgb(42, 63, 95); fill-opacity: 1; white-space: pre; opacity: 1;" transform="translate(0,329.06)">0.265</text></g><g class="ytick"><text text-anchor="end" x="79" y="4.199999999999999" style="font-family: 'Open Sans', verdana, arial, sans-serif; font-size: 12px; fill: rgb(42, 63, 95); fill-opacity: 1; white-space: pre; opacity: 1;" transform="translate(0,278.03)">0.27</text></g><g class="ytick"><text text-anchor="end" x="79" y="4.199999999999999" style="font-family: 'Open Sans', verdana, arial, sans-serif; font-size: 12px; fill: rgb(42, 63, 95); fill-opacity: 1; white-space: pre; opacity: 1;" transform="translate(0,227)">0.275</text></g><g class="ytick"><text text-anchor="end" x="79" y="4.199999999999999" style="font-family: 'Open Sans', verdana, arial, sans-serif; font-size: 12px; fill: rgb(42, 63, 95); fill-opacity: 1; white-space: pre; opacity: 1;" transform="translate(0,175.97)">0.28</text></g><g class="ytick"><text text-anchor="end" x="79" y="4.199999999999999" style="font-family: 'Open Sans', verdana, arial, sans-serif; font-size: 12px; fill: rgb(42, 63, 95); fill-opacity: 1; white-space: pre; opacity: 1;" transform="translate(0,124.95)">0.285</text></g></g><g class="overaxes-above"/></g></g><g class="polarlayer"/><g class="ternarylayer"/><g class="geolayer"/><g class="funnelarealayer"/><g class="pielayer"/><g class="iciclelayer"/><g class="treemaplayer"/><g class="sunburstlayer"/><g class="glimages"/><defs id="topdefs-5f3e65"><g class="clips"/></defs><g class="layer-above"><g class="imagelayer"/><g class="shapelayer"/></g><g class="infolayer"><g class="g-gtitle"><text class="gtitle" x="35" y="50" text-anchor="start" dy="0em" style="font-family: 'Open Sans', verdana, arial, sans-serif; font-size: 17px; fill: rgb(42, 63, 95); opacity: 1; font-weight: normal; white-space: pre;">Train Accuracy: ascad_0-aisy_hw_mlp (early_stopping)</text></g><g class="g-xtitle"/><g class="g-ytitle"/></g></svg>