<svg class="main-svg" xmlns="http://www.w3.org/2000/svg" xmlns:xlink="http://www.w3.org/1999/xlink" width="700" height="500" style="" viewBox="0 0 700 500"><rect x="0" y="0" width="700" height="500" style="fill: rgb(255, 255, 255); fill-opacity: 1;"/><defs id="defs-fc9fe9"><g class="clips"><clipPath id="clipfc9fe9xyplot" class="plotclip"><rect width="540" height="320"/></clipPath><clipPath class="axesclip" id="clipfc9fe9x"><rect x="80" y="0" width="540" height="500"/></clipPath><clipPath class="axesclip" id="clipfc9fe9y"><rect x="0" y="100" width="700" height="320"/></clipPath><clipPath class="axesclip" id="clipfc9fe9xy"><rect x="80" y="100" width="540" height="320"/></clipPath></g><g class="gradients"/><g class="patterns"/></defs><g class="bglayer"><rect class="bg" x="80" y="100" width="540" height="320" style="fill: rgb(229, 236, 246); fill-opacity: 1; stroke-width: 0;"/></g><g class="layer-below"><g class="imagelayer"/><g class="shapelayer"/></g><g class="cartesianlayer"><g class="subplot xy"><g class="layer-subplot"><g class="shapelayer"/><g class="imagelayer"/></g><g class="gridlayer"><g class="x"><path class="xgrid crisp" transform="translate(190.2,0)" d="M0,100v320" style="stroke: rgb(255, 255, 255); stroke-opacity: 1; stroke-width: 1px;"/><path class="xgrid crisp" transform="translate(300.40999999999997,0)" d="M0,100v320" style="stroke: rgb(255, 255, 255); stroke-opacity: 1; stroke-width: 1px;"/><path class="xgrid crisp" transform="translate(410.61,0)" d="M0,100v320" style="stroke: rgb(255, 255, 255); stroke-opacity: 1; stroke-width: 1px;"/><path class="xgrid crisp" transform="translate(520.8199999999999,0)" d="M0,100v320" style="stroke: rgb(255, 255, 255); stroke-opacity: 1; stroke-width: 1px;"/></g><g class="y"><path class="ygrid crisp" transform="translate(0,390.71)" d="M80,0h540" style="stroke: rgb(255, 255, 255); stroke-opacity: 1; stroke-width: 1px;"/><path class="ygrid crisp" transform="translate(0,340.66999999999996)" d="M80,0h540" style="stroke: rgb(255, 255, 255); stroke-opacity: 1; stroke-width: 1px;"/><path class="ygrid crisp" transform="translate(0,290.63)" d="M80,0h540" style="stroke: rgb(255, 255, 255); stroke-opacity: 1; stroke-width: 1px;"/><path class="ygrid crisp" transform="translate(0,240.59)" d="M80,0h540" style="stroke: rgb(255, 255, 255); stroke-opacity: 1; stroke-width: 1px;"/><path class="ygrid crisp" transform="translate(0,190.55)" d="M80,0h540" style="stroke: rgb(255, 255, 255); stroke-opacity: 1; stroke-width: 1px;"/><path class="ygrid crisp" transform="translate(0,140.5)" d="M80,0h540" style="stroke: rgb(255, 255, 255); stroke-opacity: 1; stroke-width: 1px;"/></g></g><g class="zerolinelayer"><path class="xzl zl crisp" transform="translate(80,0)" d="M0,100v320" style="stroke: rgb(255, 255, 255); stroke-opacity: 1; stroke-width: 2px;"/></g><path class="xlines-below"/><path class="ylines-below"/><g class="overlines-below"/><g class="xaxislayer-below"/><g class="yaxislayer-below"/><g class="overaxes-below"/><g class="plot" transform="translate(80,100)" clip-path="url(#clipfc9fe9xyplot)"><g class="scatterlayer mlayer"><g class="trace scatter trace026c4b" style="stroke-miterlimit: 2; opacity: 1;"><g class="fills"/><g class="errorbars"/><g class="lines"><path class="js-line" d="M0,4.83L11.02,36.65L22.04,40.24L33.06,42.36L44.08,43.34L55.1,43.87L66.12,45.65L77.14,46.48L88.16,46L110.2,47.11L121.22,45.6L132.24,45.08L143.27,46.76L154.29,49.2L165.31,49.09L176.33,53.98L187.35,57L198.37,61.38L209.39,63.74L220.41,67.66L231.43,75.41L242.45,75.4L253.47,84.69L264.49,85.72L275.51,91.35L286.53,93.67L297.55,100.51L308.57,103.73L319.59,109.11L330.61,111.84L341.63,117.75L352.65,121.14L363.67,127.5L385.71,138.03L396.73,143.86L407.76,148.6L418.78,156.1L440.82,168.11L451.84,172.01L506.94,183.3L517.96,185.29L528.98,187.65L540,189.04" style="vector-effect: non-scaling-stroke; fill: none; stroke: rgb(99, 110, 250); stroke-opacity: 1; stroke-width: 2px; opacity: 1;"/></g><g class="points"/><g class="text"/></g><g class="trace scatter trace2f6483" style="stroke-miterlimit: 2; opacity: 1;"><g class="fills"/><g class="errorbars"/><g class="lines"><path class="js-line" d="M0,4.92L11.02,36.74L22.04,40.54L33.06,41.4L44.08,43.06L77.14,46.06L88.16,46L99.18,46.51L110.2,46.17L121.22,45.19L132.24,45.62L143.27,46.36L154.29,46.17L176.33,48.54L187.35,47.73L198.37,51.35L209.39,52.93L220.41,56.71L231.43,62.29L242.45,67.42L253.47,75.02L275.51,87.01L286.53,87.92L297.55,96.4L308.57,98.88L319.59,106.41L330.61,108.04L363.67,122.69L374.69,127.73L385.71,133.78L396.73,138.53L407.76,143.65L418.78,150.81L440.82,162.39L451.84,166.09L462.86,167.62L473.88,169.98L495.92,173.43L506.94,175.33L540,179.75" style="vector-effect: non-scaling-stroke; fill: none; stroke: rgb(239, 85, 59); stroke-opacity: 1; stroke-width: 2px; opacity: 1;"/></g><g class="points"/><g class="text"/></g><g class="trace scatter trace2473b3" style="stroke-miterlimit: 2; opacity: 1;"><g class="fills"/><g class="errorbars"/><g class="lines"><path class="js-line" d="M0,5.68L11.02,37.07L22.04,40.45L44.08,42.96L55.1,43.27L66.12,44.8L77.14,45.37L99.18,46.8L110.2,45.58L121.22,43.05L132.24,45.59L143.27,44.05L154.29,43.34L176.33,43.33L187.35,40.65L198.37,41.91L209.39,40.2L220.41,38.67L231.43,39.72L253.47,46.25L264.49,49.04L275.51,53.06L286.53,54.09L297.55,61.93L308.57,72.55L319.59,81.18L330.61,87.04L352.65,103.66L363.67,110.2L374.69,116.5L385.71,124.65L396.73,130.93L407.76,139.16L440.82,164.32L451.84,170.79L495.92,187.5L506.94,190.74L528.98,197.15L540,199.44" style="vector-effect: non-scaling-stroke; fill: none; stroke: rgb(0, 204, 150); stroke-opacity: 1; stroke-width: 2px; opacity: 1;"/></g><g class="points"/><g class="text"/></g><g class="trace scatter traceaa8ce9" style="stroke-miterlimit: 2; opacity: 1;"><g class="fills"/><g class="errorbars"/><g class="lines"><path class="js-line" d="M0,4.28L11.02,36.21L22.04,41.04L44.08,42.51L55.1,43.92L66.12,45.11L77.14,45.07L88.16,44.65L99.18,46.13L121.22,43.47L132.24,45.03L143.27,44.06L154.29,45.5L165.31,44.49L176.33,44.38L187.35,41.79L198.37,42.31L209.39,40.05L220.41,40.27L231.43,42.43L242.45,45.92L264.49,51.15L275.51,54.78L286.53,60.44L297.55,68.72L308.57,74.59L319.59,85.02L330.61,88.09L341.63,97.74L352.65,103.1L363.67,110.07L385.71,120.96L396.73,127.69L440.82,151.67L451.84,155.37L495.92,163.47L506.94,165.18L540,170.11" style="vector-effect: non-scaling-stroke; fill: none; stroke: rgb(171, 99, 250); stroke-opacity: 1; stroke-width: 2px; opacity: 1;"/></g><g class="points"/><g class="text"/></g><g class="trace scatter trace804ad0" style="stroke-miterlimit: 2; opacity: 1;"><g class="fills"/><g class="errorbars"/><g class="lines"><path class="js-line" d="M0,10.01L11.02,41.77L22.04,42.4L44.08,44.05L55.1,44.06L77.14,45.17L88.16,44.43L99.18,44.95L110.2,44.3L121.22,42.78L132.24,42.87L143.27,42.93L154.29,41.99L176.33,38.01L187.35,38.27L209.39,36.57L220.41,34.8L231.43,34.28L242.45,38.03L253.47,41.05L264.49,41.82L319.59,52.86L330.61,56.28L341.63,59.42L352.65,64.04L374.69,74.92L385.71,82.39L396.73,90.65L407.76,99.92L418.78,110.6L429.8,119.8L440.82,127.53L451.84,133.08L473.88,140.22L484.9,142.62L495.92,145.84L506.94,147.72L528.98,151.92L540,153.65" style="vector-effect: non-scaling-stroke; fill: none; stroke: rgb(255, 161, 90); stroke-opacity: 1; stroke-width: 2px; opacity: 1;"/></g><g class="points"/><g class="text"/></g><g class="trace scatter trace2860c4" style="stroke-miterlimit: 2; opacity: 1;"><g class="fills"/><g class="errorbars"/><g class="lines"><path class="js-line" d="M0,4.06L11.02,36.34L22.04,40.43L33.06,41.25L44.08,43.13L66.12,45.17L77.14,46.37L110.2,45.89L121.22,44.48L143.27,45.41L154.29,44.71L165.31,46.37L176.33,47.01L187.35,46.7L198.37,49.24L209.39,48.12L220.41,50.19L231.43,57.9L242.45,62.38L275.51,86.54L286.53,87.25L297.55,97.72L308.57,105.77L319.59,125.13L330.61,141.87L341.63,154.34L352.65,172.17L363.67,185.81L374.69,196.21L396.73,217.34L407.76,225.46L429.8,244.85L440.82,252.15L451.84,257.84L462.86,260.6L484.9,266.37L495.92,268.66L517.96,273.71L528.98,275.71L540,277.78" style="vector-effect: non-scaling-stroke; fill: none; stroke: rgb(25, 211, 243); stroke-opacity: 1; stroke-width: 2px; opacity: 1;"/></g><g class="points"/><g class="text"/></g><g class="trace scatter trace85d86b" style="stroke-miterlimit: 2; opacity: 1;"><g class="fills"/><g class="errorbars"/><g class="lines"><path class="js-line" d="M0,4.8L11.02,37.02L22.04,40.71L44.08,43.24L55.1,44.03L66.12,45.65L77.14,46.13L88.16,45.7L99.18,47.59L110.2,46.03L121.22,46.78L132.24,46.33L143.27,48.82L154.29,48.75L165.31,50.51L176.33,50.74L187.35,49.79L220.41,62.38L231.43,73.89L242.45,81.49L253.47,97.37L275.51,127.19L286.53,137.59L297.55,153.24L308.57,161.57L319.59,173.94L330.61,183.7L341.63,189.14L352.65,200L363.67,210.13L374.69,217.87L396.73,234.08L407.76,243.25L418.78,250.6L429.8,259.72L440.82,266.89L451.84,272.4L484.9,280.39L495.92,282.3L506.94,285.41L517.96,287.04L540,291.34" style="vector-effect: non-scaling-stroke; fill: none; stroke: rgb(255, 102, 146); stroke-opacity: 1; stroke-width: 2px; opacity: 1;"/></g><g class="points"/><g class="text"/></g><g class="trace scatter tracee433a6" style="stroke-miterlimit: 2; opacity: 1;"><g class="fills"/><g class="errorbars"/><g class="lines"><path class="js-line" d="M0,7.76L11.02,35.38L22.04,39.75L55.1,43.62L66.12,44.18L77.14,44.25L88.16,46.55L110.2,44.13L121.22,45.53L132.24,44.35L143.27,44.65L165.31,45.81L176.33,45.17L187.35,45.4L198.37,48.5L209.39,46.59L220.41,51.83L231.43,50.57L242.45,52.33L253.47,61.31L264.49,65.98L286.53,76.83L297.55,83.02L308.57,87.59L319.59,92.98L330.61,99.84L341.63,105.74L352.65,109.67L363.67,115.12L374.69,120.15L385.71,124.24L396.73,130.43L407.76,135L418.78,141.73L429.8,146.85L440.82,152.9L451.84,156.02L484.9,161.35L495.92,162.86L517.96,166.04L528.98,167.74L540,168.92" style="vector-effect: non-scaling-stroke; fill: none; stroke: rgb(182, 232, 128); stroke-opacity: 1; stroke-width: 2px; opacity: 1;"/></g><g class="points"/><g class="text"/></g><g class="trace scatter trace204378" style="stroke-miterlimit: 2; opacity: 1;"><g class="fills"/><g class="errorbars"/><g class="lines"><path class="js-line" d="M0,4.78L11.02,36.92L22.04,40.39L33.06,42.19L44.08,43.07L77.14,46.79L88.16,47.12L110.2,46.23L121.22,43.77L132.24,46.02L143.27,45.12L154.29,46.48L165.31,45.41L176.33,47.08L187.35,46.57L198.37,48.03L209.39,53.62L220.41,60.55L231.43,69.71L242.45,72.78L253.47,79.78L264.49,84.56L275.51,87.68L286.53,89.6L297.55,97.85L308.57,100.5L319.59,107.01L330.61,108.52L341.63,113.64L352.65,117.64L363.67,124.74L374.69,129L385.71,135.36L407.76,148.29L418.78,158.97L440.82,180.38L451.84,188.99L484.9,204.6L495.92,208.11L506.94,211.9L517.96,214.53L528.98,217.82L540,219.83" style="vector-effect: non-scaling-stroke; fill: none; stroke: rgb(255, 151, 255); stroke-opacity: 1; stroke-width: 2px; opacity: 1;"/></g><g class="points"/><g class="text"/></g><g class="trace scatter trace72fbb6" style="stroke-miterlimit: 2; opacity: 1;"><g class="fills"/><g class="errorbars"/><g class="lines"><path class="js-line" d="M0,4.8L11.02,36.8L22.04,40.87L44.08,43.64L55.1,44.01L77.14,46.03L88.16,46.25L99.18,45.98L110.2,46.9L121.22,44.23L132.24,45.55L154.29,46.85L165.31,45.72L176.33,49.55L187.35,48.19L198.37,52.03L209.39,53.31L231.43,67.47L242.45,73.58L253.47,81.24L264.49,85.55L275.51,91.23L286.53,93.84L297.55,101.79L308.57,106.47L330.61,129.05L341.63,141.71L352.65,161.31L363.67,174.8L396.73,207.27L407.76,216.4L429.8,235.84L440.82,243.61L451.84,249.51L462.86,251.88L484.9,258.17L495.92,260.05L517.96,264.59L528.98,266.95L540,268.7" style="vector-effect: non-scaling-stroke; fill: none; stroke: rgb(254, 203, 82); stroke-opacity: 1; stroke-width: 2px; opacity: 1;"/></g><g class="points"/><g class="text"/></g><g class="trace scatter trace28a303" style="stroke-miterlimit: 2; opacity: 1;"><g class="fills"/><g class="errorbars"/><g class="lines"><path class="js-line" d="M0,4.75L11.02,36.68L22.04,40.43L33.06,41.21L44.08,43.32L55.1,44.04L66.12,45.76L88.16,45.52L99.18,46.7L121.22,43.87L132.24,45.6L176.33,46L187.35,45.02L198.37,49.99L209.39,49.33L220.41,50.89L231.43,55.38L242.45,61.59L253.47,71.49L264.49,79.34L275.51,84.18L286.53,85.28L297.55,94.73L308.57,100.3L319.59,104.94L330.61,108.19L341.63,113.82L352.65,119.27L363.67,125.81L374.69,129.57L385.71,136.99L396.73,141.89L407.76,147.69L418.78,154.91L429.8,160.61L440.82,166.9L451.84,170.48L495.92,178.07L506.94,179.92L540,184.54" style="vector-effect: non-scaling-stroke; fill: none; stroke: rgb(99, 110, 250); stroke-opacity: 1; stroke-width: 2px; opacity: 1;"/></g><g class="points"/><g class="text"/></g><g class="trace scatter trace4add1f" style="stroke-miterlimit: 2; opacity: 1;"><g class="fills"/><g class="errorbars"/><g class="lines"><path class="js-line" d="M0,3.93L11.02,36.2L22.04,40.53L44.08,43.23L55.1,43.75L66.12,46.45L77.14,46.19L88.16,45.83L99.18,46.66L110.2,45.76L121.22,43.99L143.27,44.82L154.29,44.38L165.31,43.55L176.33,44.76L187.35,41.46L198.37,42.58L209.39,40.34L220.41,40.75L231.43,41.83L242.45,47.29L253.47,55.21L264.49,66.79L275.51,76.69L286.53,79.56L297.55,88.67L308.57,93.28L319.59,99.09L330.61,103.47L341.63,109.56L352.65,114.16L374.69,126.52L385.71,131.5L407.76,143.12L418.78,150.24L440.82,162.52L451.84,166.43L506.94,178.02L517.96,179.55L540,183.39" style="vector-effect: non-scaling-stroke; fill: none; stroke: rgb(239, 85, 59); stroke-opacity: 1; stroke-width: 2px; opacity: 1;"/></g><g class="points"/><g class="text"/></g><g class="trace scatter trace739c77" style="stroke-miterlimit: 2; opacity: 1;"><g class="fills"/><g class="errorbars"/><g class="lines"><path class="js-line" d="M0,4.8L11.02,36.86L22.04,40.58L44.08,43.14L55.1,44.91L77.14,47.1L88.16,45.67L99.18,47.11L110.2,46.06L121.22,45.03L132.24,46.94L143.27,47.71L154.29,49.45L165.31,48.41L176.33,50.56L187.35,51.69L198.37,55.72L209.39,59.42L220.41,64.9L231.43,70.31L242.45,73.08L253.47,82.54L264.49,86.55L275.51,91.52L286.53,91.94L297.55,100.61L308.57,104.51L319.59,109.81L330.61,112.44L341.63,117.12L352.65,125.28L363.67,136.21L374.69,153.38L385.71,171.27L396.73,186.2L429.8,218.6L440.82,227.56L451.84,233.74L462.86,237.22L473.88,240.92L484.9,243.76L540,256.18" style="vector-effect: non-scaling-stroke; fill: none; stroke: rgb(0, 204, 150); stroke-opacity: 1; stroke-width: 2px; opacity: 1;"/></g><g class="points"/><g class="text"/></g><g class="trace scatter trace23faa2" style="stroke-miterlimit: 2; opacity: 1;"><g class="fills"/><g class="errorbars"/><g class="lines"><path class="js-line" d="M0,4.12L11.02,36.1L22.04,40.19L33.06,41.11L44.08,43.29L66.12,45.72L77.14,45.1L88.16,45.78L99.18,45.62L121.22,44.05L132.24,44.48L143.27,44.83L154.29,42.27L176.33,44.72L187.35,41.6L198.37,41.96L209.39,39.45L231.43,39.01L242.45,42.39L264.49,45.66L275.51,47.94L286.53,48.63L297.55,53.13L308.57,54.67L319.59,57.38L330.61,62.83L341.63,66.56L363.67,77.54L374.69,84.45L385.71,93.79L396.73,106.88L418.78,137.55L429.8,154.38L440.82,168.1L451.84,178.42L484.9,195.13L495.92,199.46L506.94,203.12L517.96,205.91L528.98,209.57L540,211.74" style="vector-effect: non-scaling-stroke; fill: none; stroke: rgb(171, 99, 250); stroke-opacity: 1; stroke-width: 2px; opacity: 1;"/></g><g class="points"/><g class="text"/></g><g class="trace scatter trace19c34e" style="stroke-miterlimit: 2; opacity: 1;"><g class="fills"/><g class="errorbars"/><g class="lines"><path class="js-line" d="M0,4.88L11.02,36.78L22.04,40.36L44.08,42.86L55.1,43.72L66.12,45.78L77.14,46.43L88.16,46.53L99.18,45.77L110.2,46.01L121.22,44.13L132.24,45.89L143.27,45.83L165.31,47.62L176.33,49.22L187.35,51.89L198.37,53.51L209.39,58.47L220.41,59.1L231.43,67.04L242.45,69.93L253.47,78.7L264.49,83.32L275.51,89.62L286.53,91.27L297.55,98.71L308.57,101.46L319.59,107.72L330.61,110.25L341.63,115.62L352.65,122.29L363.67,126.64L374.69,131.85L385.71,137.46L396.73,141.9L407.76,148.57L418.78,153.97L440.82,165.78L451.84,169.69L506.94,179.08L517.96,180.23L540,183.48" style="vector-effect: non-scaling-stroke; fill: none; stroke: rgb(255, 161, 90); stroke-opacity: 1; stroke-width: 2px; opacity: 1;"/></g><g class="points"/><g class="text"/></g><g class="trace scatter tracec7e76d" style="stroke-miterlimit: 2; opacity: 1;"><g class="fills"/><g class="errorbars"/><g class="lines"><path class="js-line" d="M0,4.11L11.02,36.6L22.04,40.55L66.12,46.03L77.14,46.09L110.2,45.85L121.22,44.3L143.27,45.08L154.29,45.88L165.31,45.17L176.33,47.57L198.37,46.72L209.39,48.01L220.41,48.47L231.43,53.66L253.47,69.13L264.49,74.31L275.51,81.17L286.53,83.61L297.55,90.83L308.57,95.44L319.59,102.77L330.61,103.96L341.63,112.83L352.65,116.34L363.67,123.78L374.69,128.94L385.71,136.13L396.73,144.99L407.76,156.04L418.78,171.29L429.8,187.5L440.82,200.98L451.84,209.82L462.86,214.46L473.88,220.17L484.9,224.08L517.96,233.2L528.98,235.77L540,237.52" style="vector-effect: non-scaling-stroke; fill: none; stroke: rgb(25, 211, 243); stroke-opacity: 1; stroke-width: 2px; opacity: 1;"/></g><g class="points"/><g class="text"/></g><g class="trace scatter trace989bf6" style="stroke-miterlimit: 2; opacity: 1;"><g class="fills"/><g class="errorbars"/><g class="lines"><path class="js-line" d="M0,4.8L11.02,36.86L22.04,40.58L44.08,43.14L55.1,44.91L77.14,47.1L88.16,45.73L99.18,47.03L110.2,46.02L121.22,44.37L132.24,45.97L143.27,45.36L154.29,47L198.37,50.74L209.39,52.24L220.41,53.66L231.43,62.93L242.45,66.81L253.47,77.94L264.49,80.61L275.51,87.57L286.53,89.38L297.55,95.74L308.57,102.86L319.59,108.69L330.61,112.36L341.63,125.62L352.65,143.89L363.67,159.63L374.69,173.08L385.71,183.72L396.73,196.34L407.76,204.12L429.8,223.55L440.82,231.06L451.84,236.82L462.86,238.95L473.88,242.94L484.9,245.61L495.92,247.75L506.94,250.68L540,256.89" style="vector-effect: non-scaling-stroke; fill: none; stroke: rgb(255, 102, 146); stroke-opacity: 1; stroke-width: 2px; opacity: 1;"/></g><g class="points"/><g class="text"/></g><g class="trace scatter traceb97a62" style="stroke-miterlimit: 2; opacity: 1;"><g class="fills"/><g class="errorbars"/><g class="lines"><path class="js-line" d="M0,11.79L11.02,42.01L22.04,42.85L33.06,43.21L44.08,44.8L55.1,43.63L66.12,44.47L77.14,46.23L88.16,45.12L121.22,44.22L132.24,44.7L154.29,42.16L165.31,38.93L187.35,36.79L198.37,37.35L209.39,34.73L220.41,33.28L231.43,32.93L242.45,39.32L264.49,39.9L275.51,42.84L286.53,44.53L297.55,48.12L308.57,52.99L319.59,53.02L330.61,56.86L341.63,63.51L352.65,68.79L363.67,75.74L374.69,84.45L385.71,90.05L396.73,100.62L407.76,107.64L429.8,123.44L440.82,130.04L451.84,135.09L462.86,138.3L484.9,143.41L495.92,145.57L517.96,149.53L528.98,151.12L540,152.96" style="vector-effect: non-scaling-stroke; fill: none; stroke: rgb(182, 232, 128); stroke-opacity: 1; stroke-width: 2px; opacity: 1;"/></g><g class="points"/><g class="text"/></g><g class="trace scatter traceafa83b" style="stroke-miterlimit: 2; opacity: 1;"><g class="fills"/><g class="errorbars"/><g class="lines"><path class="js-line" d="M0,4.55L11.02,36.53L22.04,40.49L55.1,43.59L66.12,45.81L88.16,45.13L99.18,46.5L110.2,46.35L121.22,43.9L132.24,46.11L143.27,45.36L154.29,45.26L165.31,46.8L176.33,48.07L187.35,46.72L198.37,53.39L209.39,57.07L220.41,61.33L231.43,74.62L242.45,87.85L253.47,107.5L264.49,121.04L275.51,136.12L286.53,145.79L297.55,160.03L308.57,169.22L319.59,179.66L341.63,195.59L352.65,207.16L363.67,215.96L374.69,223.41L407.76,249.5L418.78,259.6L429.8,268.94L440.82,275.83L451.84,281.97L462.86,284.61L473.88,288.2L484.9,290.85L517.96,297.65L528.98,300.51L540,302.7" style="vector-effect: non-scaling-stroke; fill: none; stroke: rgb(255, 151, 255); stroke-opacity: 1; stroke-width: 2px; opacity: 1;"/></g><g class="points"/><g class="text"/></g><g class="trace scatter tracea6c0a3" style="stroke-miterlimit: 2; opacity: 1;"><g class="fills"/><g class="errorbars"/><g class="lines"><path class="js-line" d="M0,3.77L11.02,35.93L22.04,40.37L33.06,41.56L44.08,43.56L55.1,43.84L66.12,45.95L99.18,46.51L110.2,45.73L121.22,44.59L132.24,45.72L154.29,44.13L165.31,45.24L220.41,41.47L231.43,46.24L242.45,55.06L253.47,51.28L264.49,60.98L275.51,64.74L286.53,70.57L297.55,82.24L319.59,95.3L330.61,97.42L341.63,104.96L352.65,109.09L363.67,116.63L374.69,121.78L385.71,125.72L396.73,131.92L407.76,136.85L418.78,143.34L440.82,154.02L451.84,157.52L484.9,163.33L495.92,164.73L528.98,169.29L540,170.92" style="vector-effect: non-scaling-stroke; fill: none; stroke: rgb(254, 203, 82); stroke-opacity: 1; stroke-width: 2px; opacity: 1;"/></g><g class="points"/><g class="text"/></g><g class="trace scatter trace871b61" style="stroke-miterlimit: 2; opacity: 1;"><g class="fills"/><g class="errorbars"/><g class="lines"><path class="js-line" d="M0,7.28L11.02,39.04L22.04,41.31L44.08,44.97L55.1,45.61L77.14,46.5L88.16,45.86L99.18,45.87L110.2,44.73L132.24,42.13L143.27,39.9L165.31,40.06L176.33,36.4L187.35,35.62L198.37,35.64L209.39,34.35L220.41,31.98L231.43,35.94L242.45,36.04L253.47,39.92L264.49,38.74L275.51,40.81L286.53,43.97L319.59,49.86L330.61,54.4L352.65,58.55L363.67,64.75L374.69,68.76L385.71,75.94L407.76,88.76L418.78,96.39L440.82,111.38L451.84,116.79L495.92,127.84L506.94,130.4L540,135.69" style="vector-effect: non-scaling-stroke; fill: none; stroke: rgb(99, 110, 250); stroke-opacity: 1; stroke-width: 2px; opacity: 1;"/></g><g class="points"/><g class="text"/></g><g class="trace scatter trace9fbd1e" style="stroke-miterlimit: 2; opacity: 1;"><g class="fills"/><g class="errorbars"/><g class="lines"><path class="js-line" d="M0,11.81L11.02,41.91L22.04,42.75L33.06,43.05L44.08,44.71L55.1,43.64L66.12,44.16L77.14,45.66L88.16,44.96L99.18,45.54L110.2,44.4L121.22,44.45L132.24,43.09L154.29,42.69L165.31,40.5L176.33,38.98L187.35,38.95L198.37,38.12L209.39,36.46L220.41,34.18L231.43,34.11L253.47,39.7L264.49,41.02L275.51,42.82L286.53,45.72L308.57,48.75L319.59,51.35L352.65,61.65L363.67,66.23L374.69,70.35L385.71,76.22L407.76,89.19L418.78,97.41L440.82,112.96L451.84,118.89L462.86,122.01L473.88,126.12L495.92,131.77L506.94,134.49L540,140.42" style="vector-effect: non-scaling-stroke; fill: none; stroke: rgb(239, 85, 59); stroke-opacity: 1; stroke-width: 2px; opacity: 1;"/></g><g class="points"/><g class="text"/></g><g class="trace scatter trace2c34a3" style="stroke-miterlimit: 2; opacity: 1;"><g class="fills"/><g class="errorbars"/><g class="lines"><path class="js-line" d="M0,11.85L11.02,41.97L22.04,42.84L33.06,43.13L44.08,44.74L55.1,43.49L66.12,43.97L77.14,45.8L88.16,44.98L99.18,45.05L110.2,44L121.22,44.93L132.24,43.38L143.27,43.34L154.29,41.25L165.31,40.37L176.33,38.17L187.35,38.18L198.37,36.77L220.41,34.31L231.43,34.22L242.45,39.39L253.47,40.28L264.49,42.1L275.51,42.19L297.55,47.28L308.57,52.03L319.59,52.83L330.61,59.32L352.65,71.4L363.67,81.02L374.69,91.85L385.71,100.73L418.78,121.74L429.8,127.3L440.82,133.48L451.84,137.06L473.88,142.51L484.9,144.18L528.98,151.2L540,152.63" style="vector-effect: non-scaling-stroke; fill: none; stroke: rgb(0, 204, 150); stroke-opacity: 1; stroke-width: 2px; opacity: 1;"/></g><g class="points"/><g class="text"/></g><g class="trace scatter trace360c74" style="stroke-miterlimit: 2; opacity: 1;"><g class="fills"/><g class="errorbars"/><g class="lines"><path class="js-line" d="M0,9.97L11.02,41.92L22.04,43.04L33.06,43.61L44.08,45.03L55.1,44.29L66.12,44.56L77.14,46.39L88.16,45.37L99.18,45.73L110.2,44.38L121.22,45.03L132.24,44.63L143.27,43.11L154.29,43.41L176.33,37.59L187.35,38.64L198.37,38.08L209.39,36.15L231.43,33.46L242.45,37.21L253.47,39.95L264.49,41.6L286.53,44.08L297.55,46.97L308.57,49.12L319.59,52.94L330.61,55.27L341.63,58.79L363.67,66.9L374.69,72.28L385.71,78.17L396.73,85.42L407.76,91.39L418.78,98.91L440.82,113.76L451.84,119.11L506.94,140.78L517.96,144.25L540,150.1" style="vector-effect: non-scaling-stroke; fill: none; stroke: rgb(171, 99, 250); stroke-opacity: 1; stroke-width: 2px; opacity: 1;"/></g><g class="points"/><g class="text"/></g><g class="trace scatter trace503876" style="stroke-miterlimit: 2; opacity: 1;"><g class="fills"/><g class="errorbars"/><g class="lines"><path class="js-line" d="M0,4.7L11.02,36.63L22.04,40.88L66.12,45.67L77.14,45.38L99.18,46.44L110.2,46.05L121.22,45.44L132.24,46.98L143.27,46.51L154.29,48.94L165.31,51.36L176.33,51.91L220.41,65.11L231.43,73.48L242.45,75.31L253.47,81.88L264.49,85.09L275.51,90.3L286.53,92.67L297.55,99.53L308.57,105L319.59,122.61L330.61,140.35L341.63,154.57L363.67,181.84L374.69,191.39L396.73,209.8L407.76,218.22L429.8,237.14L440.82,244.33L451.84,249.72L462.86,252.48L484.9,258.2L495.92,259.96L528.98,267.15L540,268.85" style="vector-effect: non-scaling-stroke; fill: none; stroke: rgb(255, 161, 90); stroke-opacity: 1; stroke-width: 2px; opacity: 1;"/></g><g class="points"/><g class="text"/></g><g class="trace scatter tracec6b480" style="stroke-miterlimit: 2; opacity: 1;"><g class="fills"/><g class="errorbars"/><g class="lines"><path class="js-line" d="M0,11.02L11.02,42.05L22.04,42.96L33.06,42.86L44.08,44.59L66.12,44.67L77.14,46.08L88.16,43.77L99.18,44.52L110.2,44.19L121.22,44.86L143.27,42.42L154.29,42.16L176.33,36.96L187.35,37.79L198.37,36.96L209.39,34.98L220.41,34.22L231.43,35.05L242.45,39.59L253.47,39.78L264.49,44.55L275.51,44.44L308.57,57.63L319.59,59.95L341.63,77.68L352.65,84.88L385.71,108.87L396.73,115.59L440.82,141.04L451.84,144.84L473.88,150.76L484.9,152.29L528.98,159.28L540,161.04" style="vector-effect: non-scaling-stroke; fill: none; stroke: rgb(25, 211, 243); stroke-opacity: 1; stroke-width: 2px; opacity: 1;"/></g><g class="points"/><g class="text"/></g><g class="trace scatter tracea4bf88" style="stroke-miterlimit: 2; opacity: 1;"><g class="fills"/><g class="errorbars"/><g class="lines"><path class="js-line" d="M0,11.85L11.02,41.97L22.04,42.87L33.06,43.1L44.08,44.5L55.1,43.54L66.12,43.84L77.14,45.41L88.16,44.85L121.22,44.77L132.24,42.78L154.29,42.57L165.31,40.56L176.33,36.95L187.35,38.2L198.37,37.12L209.39,37.21L220.41,33.81L231.43,34.84L253.47,40.69L264.49,42.63L275.51,46.04L286.53,46.28L297.55,50.12L308.57,55.6L319.59,56.04L330.61,63.5L341.63,73.86L352.65,82.52L363.67,89L374.69,97.84L385.71,105.68L396.73,112.5L418.78,126.34L429.8,131.95L440.82,137.49L451.84,141.47L473.88,147.13L484.9,148.76L517.96,154.01L528.98,155.54L540,157.16" style="vector-effect: non-scaling-stroke; fill: none; stroke: rgb(255, 102, 146); stroke-opacity: 1; stroke-width: 2px; opacity: 1;"/></g><g class="points"/><g class="text"/></g><g class="trace scatter tracecf3310" style="stroke-miterlimit: 2; opacity: 1;"><g class="fills"/><g class="errorbars"/><g class="lines"><path class="js-line" d="M0,4.83L11.02,36.86L22.04,40.43L44.08,43.6L55.1,44.18L77.14,47.08L88.16,45.85L110.2,46.61L121.22,43.65L132.24,46.43L143.27,46.6L154.29,48.61L165.31,48.37L176.33,49.92L187.35,48.93L198.37,51.25L209.39,52.5L220.41,55.88L231.43,63.72L242.45,66.3L253.47,76.91L264.49,88.59L275.51,106.52L297.55,141.29L308.57,151.97L319.59,166.49L330.61,172.97L341.63,181.55L352.65,191.76L374.69,211.67L385.71,218.18L396.73,228.36L407.76,235.73L418.78,243.83L429.8,253.52L440.82,260.37L451.84,266.05L462.86,268.33L473.88,271.79L495.92,275.69L506.94,278.43L540,283.96" style="vector-effect: non-scaling-stroke; fill: none; stroke: rgb(182, 232, 128); stroke-opacity: 1; stroke-width: 2px; opacity: 1;"/></g><g class="points"/><g class="text"/></g><g class="trace scatter tracef54b84" style="stroke-miterlimit: 2; opacity: 1;"><g class="fills"/><g class="errorbars"/><g class="lines"><path class="js-line" d="M0,11.08L11.02,41.84L22.04,42.63L44.08,44.45L55.1,43.75L77.14,44.97L88.16,44.47L99.18,44.75L110.2,42.37L121.22,43.36L132.24,41.16L143.27,42.6L154.29,41.98L176.33,36.45L187.35,37.73L198.37,35.62L209.39,34.8L220.41,31.33L231.43,32.76L264.49,39.77L275.51,39.85L286.53,41.17L297.55,44.49L308.57,46.57L319.59,47.29L341.63,53.01L352.65,54.63L374.69,63.12L385.71,65.81L407.76,73.64L418.78,78.88L440.82,88.65L451.84,92.74L473.88,96.97L484.9,99.08L517.96,105.02L528.98,106.71L540,108.1" style="vector-effect: non-scaling-stroke; fill: none; stroke: rgb(255, 151, 255); stroke-opacity: 1; stroke-width: 2px; opacity: 1;"/></g><g class="points"/><g class="text"/></g><g class="trace scatter trace697515" style="stroke-miterlimit: 2; opacity: 1;"><g class="fills"/><g class="errorbars"/><g class="lines"><path class="js-line" d="M0,4.54L11.02,36.94L22.04,40.58L44.08,43.25L55.1,43.73L66.12,45.62L77.14,46.05L88.16,45.3L99.18,46.44L110.2,45.64L121.22,43.53L132.24,45.19L143.27,44.56L154.29,46.55L165.31,46.41L176.33,48.31L187.35,44.88L198.37,51.09L209.39,47.27L220.41,55.82L231.43,65.68L242.45,69.72L253.47,77.83L264.49,82.74L275.51,88.59L286.53,91.11L297.55,98.21L308.57,101.51L319.59,106.38L330.61,109.82L341.63,115.08L352.65,119.4L363.67,125.48L374.69,131.99L385.71,136.47L407.76,147.74L418.78,156.52L429.8,163.45L440.82,173.14L451.84,179.16L462.86,184.29L473.88,189.98L484.9,194.29L517.96,205.58L528.98,208.45L540,210.53" style="vector-effect: non-scaling-stroke; fill: none; stroke: rgb(254, 203, 82); stroke-opacity: 1; stroke-width: 2px; opacity: 1;"/></g><g class="points"/><g class="text"/></g><g class="trace scatter tracecbfd3c" style="stroke-miterlimit: 2; opacity: 1;"><g class="fills"/><g class="errorbars"/><g class="lines"><path class="js-line" d="M0,4.72L11.02,36.76L22.04,40.36L66.12,46.39L77.14,46.27L99.18,46.14L110.2,45.57L121.22,44.6L132.24,45.37L143.27,44.78L154.29,45.27L176.33,45.4L187.35,43.07L198.37,44.86L209.39,45.16L220.41,41.25L231.43,45.6L242.45,52.01L253.47,57.25L275.51,72.95L286.53,76.43L297.55,85.85L308.57,92.61L319.59,99.49L330.61,102.24L341.63,108.81L352.65,113.96L363.67,120.83L374.69,125.25L385.71,131.3L396.73,135.4L418.78,150.11L429.8,156.39L440.82,161.92L451.84,166.33L506.94,177.03L517.96,178.56L540,182.3" style="vector-effect: non-scaling-stroke; fill: none; stroke: rgb(99, 110, 250); stroke-opacity: 1; stroke-width: 2px; opacity: 1;"/></g><g class="points"/><g class="text"/></g><g class="trace scatter trace319f11" style="stroke-miterlimit: 2; opacity: 1;"><g class="fills"/><g class="errorbars"/><g class="lines"><path class="js-line" d="M0,4.31L11.02,36.92L22.04,40.37L33.06,41.54L44.08,43.55L55.1,44.2L66.12,45.83L77.14,46.73L88.16,46.8L99.18,47.29L110.2,46.73L121.22,44.62L132.24,45.01L143.27,44.48L154.29,45.73L165.31,44.55L176.33,45.57L198.37,43.48L209.39,40.43L220.41,41.53L231.43,47.29L253.47,62.78L264.49,69.36L275.51,76.17L286.53,78.6L297.55,88.48L308.57,93.79L319.59,99.75L330.61,100.8L341.63,108.07L352.65,113.36L363.67,118L374.69,124.52L385.71,129.15L396.73,134.61L407.76,139.86L418.78,146.46L429.8,153.13L440.82,158.71L451.84,162.44L462.86,163.96L473.88,166.28L484.9,167.82L506.94,171.47L517.96,172.75L540,176.09" style="vector-effect: non-scaling-stroke; fill: none; stroke: rgb(239, 85, 59); stroke-opacity: 1; stroke-width: 2px; opacity: 1;"/></g><g class="points"/><g class="text"/></g><g class="trace scatter trace96b517" style="stroke-miterlimit: 2; opacity: 1;"><g class="fills"/><g class="errorbars"/><g class="lines"><path class="js-line" d="M0,10.31L11.02,41.81L22.04,42.4L44.08,44.38L55.1,44.62L66.12,44.77L77.14,46.29L88.16,45.14L99.18,45.98L110.2,44.24L121.22,44.48L132.24,43.11L143.27,43.33L154.29,42.73L165.31,40.79L176.33,38.18L187.35,37.28L198.37,36L209.39,35.79L220.41,34.54L231.43,34.18L242.45,37.9L253.47,37.66L264.49,41.45L275.51,43.77L286.53,46.25L297.55,47.04L308.57,51.27L319.59,54.07L330.61,55.68L341.63,60.57L352.65,65.71L363.67,69.14L374.69,77.47L385.71,84.33L396.73,95.7L407.76,104.27L429.8,120.98L440.82,127.61L451.84,132.57L462.86,136.08L517.96,146.69L528.98,148.61L540,150.11" style="vector-effect: non-scaling-stroke; fill: none; stroke: rgb(0, 204, 150); stroke-opacity: 1; stroke-width: 2px; opacity: 1;"/></g><g class="points"/><g class="text"/></g><g class="trace scatter trace8f87bb" style="stroke-miterlimit: 2; opacity: 1;"><g class="fills"/><g class="errorbars"/><g class="lines"><path class="js-line" d="M0,4.25L11.02,36.92L22.04,40.62L44.08,43.32L55.1,44.19L66.12,46.11L77.14,46.07L99.18,46.93L110.2,45.82L121.22,43.84L132.24,46.51L143.27,48.02L154.29,48.54L165.31,48.1L176.33,51.28L187.35,54L198.37,60.95L220.41,67.69L231.43,72.61L242.45,76.01L253.47,83.29L264.49,85.37L275.51,91.58L286.53,91.02L297.55,99.08L308.57,102.28L319.59,108.32L330.61,110.32L341.63,115.86L352.65,119.48L363.67,124.85L385.71,135.55L396.73,140.94L407.76,145.16L418.78,152.32L440.82,163.72L451.84,166.66L528.98,178.95L540,180.28" style="vector-effect: non-scaling-stroke; fill: none; stroke: rgb(171, 99, 250); stroke-opacity: 1; stroke-width: 2px; opacity: 1;"/></g><g class="points"/><g class="text"/></g><g class="trace scatter traceccd69e" style="stroke-miterlimit: 2; opacity: 1;"><g class="fills"/><g class="errorbars"/><g class="lines"><path class="js-line" d="M0,4.8L11.02,36.91L22.04,40.38L44.08,43.71L55.1,44.32L77.14,47.06L88.16,46.33L110.2,46.21L121.22,44.72L143.27,45.54L154.29,44.21L176.33,45.06L187.35,44.39L198.37,47.01L209.39,45.15L220.41,46.62L231.43,52.24L242.45,55.84L253.47,67.97L264.49,77.69L275.51,84.74L286.53,86.78L297.55,96.18L308.57,100.76L319.59,112.64L330.61,124.06L341.63,138.55L352.65,155.89L363.67,169.15L396.73,203.21L407.76,212.31L429.8,232.57L440.82,240.57L451.84,246.01L462.86,248.76L484.9,254.99L495.92,256.67L517.96,261.64L528.98,263.71L540,265.85" style="vector-effect: non-scaling-stroke; fill: none; stroke: rgb(255, 161, 90); stroke-opacity: 1; stroke-width: 2px; opacity: 1;"/></g><g class="points"/><g class="text"/></g><g class="trace scatter trace1eba0e" style="stroke-miterlimit: 2; opacity: 1;"><g class="fills"/><g class="errorbars"/><g class="lines"><path class="js-line" d="M0,4.75L11.02,37L22.04,40.56L44.08,43.3L55.1,44L66.12,46.1L77.14,45.62L88.16,45.56L99.18,47.2L110.2,45.14L121.22,44.7L132.24,46.72L143.27,46.34L154.29,47.54L165.31,47.27L187.35,46.67L198.37,49.33L220.41,55.16L231.43,62.77L242.45,66.04L253.47,76.29L264.49,79.28L275.51,86.25L286.53,88.82L297.55,96.81L308.57,104.05L319.59,120.64L330.61,131.87L341.63,144.71L352.65,161.56L363.67,172.89L374.69,185.29L385.71,193.57L396.73,203.34L407.76,211.9L429.8,231.84L440.82,239.21L451.84,244.81L462.86,246.92L473.88,250.63L484.9,253.5L495.92,255.35L506.94,258.6L540,264.47" style="vector-effect: non-scaling-stroke; fill: none; stroke: rgb(25, 211, 243); stroke-opacity: 1; stroke-width: 2px; opacity: 1;"/></g><g class="points"/><g class="text"/></g><g class="trace scatter trace447832" style="stroke-miterlimit: 2; opacity: 1;"><g class="fills"/><g class="errorbars"/><g class="lines"><path class="js-line" d="M0,4.3L11.02,36.49L22.04,40.56L44.08,43.68L55.1,44.09L77.14,46.55L88.16,45.99L99.18,47.07L110.2,46.42L121.22,44.68L132.24,44.55L143.27,43.57L154.29,46.7L176.33,46.4L187.35,44.65L198.37,47.19L209.39,46.43L220.41,47.45L231.43,49.91L253.47,69.4L264.49,74.42L275.51,82.51L286.53,85.96L297.55,93.94L308.57,98.58L319.59,104.6L330.61,109.39L363.67,122.68L374.69,129.64L407.76,144.44L418.78,151.58L440.82,162.89L451.84,166.59L462.86,167.87L473.88,169.93L540,179.25" style="vector-effect: non-scaling-stroke; fill: none; stroke: rgb(255, 102, 146); stroke-opacity: 1; stroke-width: 2px; opacity: 1;"/></g><g class="points"/><g class="text"/></g><g class="trace scatter trace6eafcc" style="stroke-miterlimit: 2; opacity: 1;"><g class="fills"/><g class="errorbars"/><g class="lines"><path class="js-line" d="M0,11.63L11.02,42.06L22.04,42.86L33.06,43.36L44.08,44.88L55.1,43.88L66.12,44.49L77.14,45.5L88.16,45.21L99.18,44.9L110.2,43.42L121.22,44.92L132.24,43.33L143.27,43.48L154.29,42.38L165.31,39.94L176.33,39.47L198.37,39.14L209.39,36.46L220.41,34.03L231.43,35.7L242.45,39.37L253.47,41.6L264.49,44.37L275.51,46.15L286.53,48.33L297.55,54.33L308.57,61.53L319.59,63.68L330.61,75.94L341.63,84.7L363.67,94.25L374.69,103.36L396.73,118.1L407.76,123.8L418.78,131.28L429.8,137.28L440.82,144.3L451.84,148.9L495.92,161.47L506.94,164.24L528.98,169.09L540,171.27" style="vector-effect: non-scaling-stroke; fill: none; stroke: rgb(182, 232, 128); stroke-opacity: 1; stroke-width: 2px; opacity: 1;"/></g><g class="points"/><g class="text"/></g><g class="trace scatter tracee60fe8" style="stroke-miterlimit: 2; opacity: 1;"><g class="fills"/><g class="errorbars"/><g class="lines"><path class="js-line" d="M0,11.84L11.02,42.02L22.04,42.71L33.06,43.18L44.08,44.81L55.1,43.36L66.12,44.2L77.14,45.35L88.16,44.42L121.22,44.13L132.24,42.94L143.27,43.15L154.29,42.04L165.31,38.85L176.33,38.1L187.35,38.2L198.37,35.82L220.41,34.14L231.43,34.22L242.45,35.88L253.47,39.4L264.49,40.92L275.51,43.62L297.55,46.97L308.57,50.34L319.59,51.42L330.61,55.92L341.63,60.8L352.65,63.99L363.67,69.23L374.69,77.84L385.71,83.18L396.73,91.33L407.76,99.31L418.78,108.62L440.82,123L451.84,128.44L473.88,134.76L484.9,136.93L506.94,141.11L517.96,143.12L540,146.25" style="vector-effect: non-scaling-stroke; fill: none; stroke: rgb(255, 151, 255); stroke-opacity: 1; stroke-width: 2px; opacity: 1;"/></g><g class="points"/><g class="text"/></g><g class="trace scatter trace8b9b37" style="stroke-miterlimit: 2; opacity: 1;"><g class="fills"/><g class="errorbars"/><g class="lines"><path class="js-line" d="M0,4.83L11.02,36.65L22.04,40.39L77.14,46.1L88.16,45.74L110.2,46.13L121.22,44.51L154.29,45.47L165.31,44.63L176.33,45.22L187.35,43.05L198.37,45.01L209.39,40.93L220.41,40.63L231.43,45.14L253.47,50.44L264.49,55.23L275.51,60.64L286.53,62.01L297.55,74.18L308.57,80.28L319.59,90.02L330.61,94.01L341.63,103.12L352.65,114.78L363.67,133.61L374.69,150.75L396.73,182.44L407.76,193.71L429.8,216.98L440.82,225.19L451.84,231.02L462.86,234.05L484.9,240.75L495.92,242.7L517.96,248.14L528.98,250.37L540,252.28" style="vector-effect: non-scaling-stroke; fill: none; stroke: rgb(254, 203, 82); stroke-opacity: 1; stroke-width: 2px; opacity: 1;"/></g><g class="points"/><g class="text"/></g><g class="trace scatter tracea0784b" style="stroke-miterlimit: 2; opacity: 1;"><g class="fills"/><g class="errorbars"/><g class="lines"><path class="js-line" d="M0,11.85L11.02,41.97L22.04,42.87L33.06,43.06L44.08,44.51L55.1,43.35L66.12,44.14L77.14,45.66L88.16,44.95L99.18,45.16L110.2,44.03L121.22,44.42L132.24,43.19L154.29,42.87L165.31,38.57L176.33,37.8L187.35,37.83L198.37,36.43L209.39,37.54L231.43,34.9L242.45,39.92L253.47,39.62L264.49,40.49L275.51,44.49L286.53,46.24L297.55,49.39L308.57,54.31L319.59,54.62L330.61,61.7L341.63,70.18L352.65,75.8L363.67,84.64L374.69,91.23L385.71,100.19L396.73,107.15L429.8,126.49L440.82,131.93L451.84,136.7L462.86,139.19L484.9,143.9L495.92,146.35L540,153.23" style="vector-effect: non-scaling-stroke; fill: none; stroke: rgb(99, 110, 250); stroke-opacity: 1; stroke-width: 2px; opacity: 1;"/></g><g class="points"/><g class="text"/></g><g class="trace scatter trace8aaaa5" style="stroke-miterlimit: 2; opacity: 1;"><g class="fills"/><g class="errorbars"/><g class="lines"><path class="js-line" d="M0,11.77L11.02,41.97L22.04,43.05L33.06,43.01L44.08,44.48L55.1,43.72L66.12,44.14L77.14,45.41L88.16,44.5L99.18,45.84L110.2,43.35L121.22,44.94L132.24,42.75L143.27,42.85L154.29,41.68L165.31,40.9L176.33,38.32L187.35,38.4L198.37,37.34L231.43,32.06L242.45,37.76L253.47,39.85L264.49,40.68L308.57,48.1L319.59,51.03L330.61,54.31L341.63,56.28L363.67,65.7L374.69,71.57L385.71,79.26L396.73,87.9L407.76,94.66L418.78,104.04L429.8,112.61L440.82,119.83L451.84,125.89L462.86,129.78L473.88,133.86L484.9,137.06L517.96,145.29L528.98,147.03L540,149.09" style="vector-effect: non-scaling-stroke; fill: none; stroke: rgb(239, 85, 59); stroke-opacity: 1; stroke-width: 2px; opacity: 1;"/></g><g class="points"/><g class="text"/></g><g class="trace scatter traced3ba66" style="stroke-miterlimit: 2; opacity: 1;"><g class="fills"/><g class="errorbars"/><g class="lines"><path class="js-line" d="M0,4.75L11.02,36.9L22.04,40.8L55.1,44L66.12,45.81L77.14,46.19L88.16,45.76L99.18,46.26L110.2,45.64L121.22,45.45L132.24,46.41L143.27,45.12L154.29,46.47L165.31,46.27L176.33,47.56L187.35,46.39L198.37,49.35L209.39,49.15L220.41,51.28L231.43,55.59L242.45,63.76L253.47,72.67L264.49,79.48L275.51,86.95L286.53,100.29L297.55,128.06L308.57,144.17L319.59,161.59L330.61,170.1L363.67,201.45L374.69,209.76L385.71,217.86L396.73,227.4L407.76,235.02L418.78,244.26L440.82,259.09L451.84,264.72L506.94,277.5L517.96,279.43L540,283.6" style="vector-effect: non-scaling-stroke; fill: none; stroke: rgb(0, 204, 150); stroke-opacity: 1; stroke-width: 2px; opacity: 1;"/></g><g class="points"/><g class="text"/></g><g class="trace scatter traced1f008" style="stroke-miterlimit: 2; opacity: 1;"><g class="fills"/><g class="errorbars"/><g class="lines"><path class="js-line" d="M0,4.78L11.02,36.59L22.04,40.17L44.08,43.03L55.1,43.26L66.12,45.59L77.14,45.64L99.18,46.83L110.2,46.3L121.22,45.44L132.24,46.15L143.27,45.07L154.29,48.34L165.31,48.12L176.33,48.91L187.35,50.86L198.37,53.65L209.39,55.97L220.41,61.87L231.43,73.33L242.45,74.61L253.47,84.57L264.49,95.57L275.51,112.42L286.53,127.38L297.55,148.04L308.57,160.44L319.59,174.33L330.61,182.35L341.63,190.41L352.65,200.72L363.67,211.07L374.69,220.19L396.73,236.94L407.76,245.53L418.78,252.66L429.8,262.46L440.82,269.73L451.84,275.38L495.92,285.77L506.94,288.28L540,294.84" style="vector-effect: non-scaling-stroke; fill: none; stroke: rgb(171, 99, 250); stroke-opacity: 1; stroke-width: 2px; opacity: 1;"/></g><g class="points"/><g class="text"/></g><g class="trace scatter traceee7bad" style="stroke-miterlimit: 2; opacity: 1;"><g class="fills"/><g class="errorbars"/><g class="lines"><path class="js-line" d="M0,4.66L11.02,36.53L22.04,40.37L44.08,43.4L55.1,44.05L66.12,45.67L77.14,46.42L99.18,47.13L110.2,46.38L121.22,44.6L132.24,46.43L176.33,47.9L187.35,50.86L198.37,51.83L209.39,55.74L220.41,60.41L231.43,66.73L242.45,73.66L253.47,82.1L264.49,87.42L275.51,91.33L286.53,93.95L297.55,100.27L308.57,104.26L319.59,110.9L330.61,113.06L341.63,120.58L352.65,129.62L363.67,144.03L374.69,154.08L385.71,170.77L396.73,184.3L407.76,195.69L429.8,217.88L440.82,227.46L451.84,233.09L462.86,236.05L473.88,239.76L484.9,242.62L517.96,249.71L528.98,252.65L540,254.23" style="vector-effect: non-scaling-stroke; fill: none; stroke: rgb(255, 161, 90); stroke-opacity: 1; stroke-width: 2px; opacity: 1;"/></g><g class="points"/><g class="text"/></g><g class="trace scatter trace06cad6" style="stroke-miterlimit: 2; opacity: 1;"><g class="fills"/><g class="errorbars"/><g class="lines"><path class="js-line" d="M0,4.73L11.02,36.66L22.04,40.36L44.08,43.49L55.1,44.52L66.12,45.85L77.14,45.97L99.18,46.34L110.2,45.78L121.22,44.76L132.24,44.94L143.27,46.68L154.29,45.94L176.33,47.93L187.35,47.02L198.37,49.93L209.39,48.19L220.41,53.2L231.43,57.05L242.45,60.1L253.47,69.39L275.51,81.3L286.53,86L297.55,93.72L308.57,98.64L319.59,104.47L330.61,106.65L385.71,134.43L396.73,139.68L407.76,145.58L418.78,152.42L429.8,157.46L440.82,164.04L451.84,167.4L462.86,169.45L495.92,175.08L506.94,176.69L540,181.3" style="vector-effect: non-scaling-stroke; fill: none; stroke: rgb(25, 211, 243); stroke-opacity: 1; stroke-width: 2px; opacity: 1;"/></g><g class="points"/><g class="text"/></g><g class="trace scatter traceade58f" style="stroke-miterlimit: 2; opacity: 1;"><g class="fills"/><g class="errorbars"/><g class="lines"><path class="js-line" d="M0,4.78L11.02,36.73L22.04,40.43L33.06,42.51L44.08,42.78L55.1,44.65L66.12,45.46L99.18,46.54L110.2,45.73L121.22,43.42L132.24,44.45L143.27,44.86L154.29,43.29L165.31,44.42L176.33,44.43L187.35,42.89L198.37,42.69L209.39,40.51L220.41,39.82L231.43,41.6L242.45,45.19L253.47,47.12L264.49,55.99L286.53,71.4L297.55,84.09L308.57,90.86L319.59,96.63L330.61,101.39L341.63,107.32L352.65,111.94L363.67,119.32L374.69,123.34L385.71,129.55L396.73,134.98L407.76,141.64L429.8,154.33L440.82,160.66L451.84,164.61L462.86,166.75L484.9,171.76L495.92,173.13L506.94,176.02L517.96,177.52L528.98,179.67L540,181.01" style="vector-effect: non-scaling-stroke; fill: none; stroke: rgb(255, 102, 146); stroke-opacity: 1; stroke-width: 2px; opacity: 1;"/></g><g class="points"/><g class="text"/></g><g class="trace scatter tracea3383f" style="stroke-miterlimit: 2; opacity: 1;"><g class="fills"/><g class="errorbars"/><g class="lines"><path class="js-line" d="M0,4.51L11.02,36.69L22.04,40.51L33.06,41.81L44.08,42.21L66.12,45.62L77.14,45.33L99.18,46.22L110.2,45.71L121.22,44.05L132.24,44.8L154.29,45.62L165.31,44.88L176.33,46.31L187.35,45.29L198.37,47.52L209.39,47.41L231.43,53.36L242.45,64.25L264.49,78.71L275.51,83.46L286.53,86.16L297.55,94.09L308.57,98.12L319.59,106.42L330.61,113.29L341.63,124.08L363.67,160.85L374.69,173.41L385.71,187.08L396.73,196.83L407.76,206.62L418.78,215.22L440.82,234.25L451.84,239.76L462.86,242.51L473.88,246.04L506.94,254.44L517.96,256.42L540,260.97" style="vector-effect: non-scaling-stroke; fill: none; stroke: rgb(182, 232, 128); stroke-opacity: 1; stroke-width: 2px; opacity: 1;"/></g><g class="points"/><g class="text"/></g><g class="trace scatter trace97b89c" style="stroke-miterlimit: 2; opacity: 1;"><g class="fills"/><g class="errorbars"/><g class="lines"><path class="js-line" d="M0,4.2L11.02,36.69L22.04,40.46L66.12,45.79L77.14,46.73L88.16,46.17L99.18,47.44L110.2,45.92L121.22,45.38L132.24,48.09L143.27,47.63L154.29,49.7L165.31,49.6L176.33,50.71L187.35,50.98L198.37,53.5L209.39,53.74L220.41,55.9L231.43,67.5L242.45,82.67L253.47,103.48L264.49,122.33L275.51,138.02L286.53,147.99L297.55,161.29L319.59,183.51L330.61,192.03L341.63,198.16L352.65,209.55L363.67,219.21L374.69,225.64L385.71,235.5L396.73,243.98L418.78,262.09L429.8,270.05L440.82,278.22L451.84,283.57L495.92,294.83L506.94,297.35L540,303.34" style="vector-effect: non-scaling-stroke; fill: none; stroke: rgb(255, 151, 255); stroke-opacity: 1; stroke-width: 2px; opacity: 1;"/></g><g class="points"/><g class="text"/></g><g class="trace scatter traced1c3e8" style="stroke-miterlimit: 2; opacity: 1;"><g class="fills"/><g class="errorbars"/><g class="lines"><path class="js-line" d="M0,4.8L11.02,36.86L22.04,40.58L44.08,43.14L55.1,44.91L77.14,47.1L88.16,45.73L99.18,47.03L110.2,46.02L121.22,44.37L132.24,45.97L143.27,45.36L154.29,47L198.37,50.74L209.39,52.24L220.41,53.66L231.43,62.93L242.45,66.81L253.47,77.94L264.49,80.61L275.51,87.57L286.53,89.38L297.55,95.74L308.57,102.86L319.59,108.69L330.61,112.36L341.63,125.62L352.65,143.89L363.67,159.63L374.69,173.08L385.71,183.72L396.73,196.34L407.76,204.12L429.8,223.56L440.82,231.05L451.84,236.86L462.86,239.03L473.88,242.99L484.9,245.64L540,256.93" style="vector-effect: non-scaling-stroke; fill: none; stroke: rgb(254, 203, 82); stroke-opacity: 1; stroke-width: 2px; opacity: 1;"/></g><g class="points"/><g class="text"/></g><g class="trace scatter trace7a2b07" style="stroke-miterlimit: 2; opacity: 1;"><g class="fills"/><g class="errorbars"/><g class="lines"><path class="js-line" d="M0,4.64L11.02,36.31L22.04,40.29L44.08,42.95L55.1,44.06L77.14,46.29L88.16,44.71L99.18,45.94L110.2,44.69L121.22,43.3L132.24,45.58L143.27,44.31L154.29,45.32L176.33,46.05L187.35,44.75L198.37,47.1L209.39,47.06L220.41,48.85L231.43,54.24L242.45,59.9L253.47,72.03L264.49,75.67L275.51,82.23L286.53,83.25L297.55,92.19L308.57,96.07L319.59,102.56L341.63,110.51L352.65,114.9L396.73,137.52L407.76,141.97L429.8,154.68L440.82,159.69L451.84,162.82L462.86,164.37L484.9,168.72L495.92,170.52L540,176.42" style="vector-effect: non-scaling-stroke; fill: none; stroke: rgb(99, 110, 250); stroke-opacity: 1; stroke-width: 2px; opacity: 1;"/></g><g class="points"/><g class="text"/></g><g class="trace scatter trace2fe5e7" style="stroke-miterlimit: 2; opacity: 1;"><g class="fills"/><g class="errorbars"/><g class="lines"><path class="js-line" d="M0,11.45L11.02,41.97L22.04,42.99L33.06,42.63L44.08,44.64L55.1,43.62L66.12,44.27L77.14,45.09L88.16,44.05L99.18,44.9L110.2,44.75L132.24,42.06L143.27,41.77L154.29,42.65L165.31,38.03L176.33,38.56L187.35,37.03L198.37,36L209.39,35.76L220.41,34.1L231.43,34.61L253.47,39.47L264.49,40.94L275.51,41.7L286.53,44.48L297.55,47.01L308.57,51.88L319.59,51.9L330.61,56.19L341.63,62.28L352.65,70.43L385.71,98.41L396.73,106.99L429.8,128.33L440.82,134.32L451.84,138.55L462.86,141.6L495.92,148.13L506.94,149.74L540,155.03" style="vector-effect: non-scaling-stroke; fill: none; stroke: rgb(239, 85, 59); stroke-opacity: 1; stroke-width: 2px; opacity: 1;"/></g><g class="points"/><g class="text"/></g><g class="trace scatter trace2654f9" style="stroke-miterlimit: 2; opacity: 1;"><g class="fills"/><g class="errorbars"/><g class="lines"><path class="js-line" d="M0,5.29L11.02,36.61L22.04,40.77L33.06,41.42L44.08,42.89L55.1,43.84L66.12,45.74L88.16,45.87L99.18,46.52L121.22,44.73L132.24,45.42L143.27,44.23L154.29,44.36L165.31,43.74L176.33,46.65L187.35,43.62L198.37,42.49L209.39,42.81L220.41,41.23L231.43,44.25L242.45,48.35L253.47,52.02L264.49,62.45L275.51,70.1L286.53,75.65L297.55,85.69L308.57,90.73L319.59,98.35L330.61,102.94L352.65,114.23L363.67,121.3L374.69,127.71L385.71,137.61L396.73,153.46L407.76,171.84L429.8,197.41L440.82,206.88L451.84,214.3L462.86,218.43L473.88,223.03L484.9,226.34L528.98,236.87L540,239.03" style="vector-effect: non-scaling-stroke; fill: none; stroke: rgb(0, 204, 150); stroke-opacity: 1; stroke-width: 2px; opacity: 1;"/></g><g class="points"/><g class="text"/></g><g class="trace scatter trace445278" style="stroke-miterlimit: 2; opacity: 1;"><g class="fills"/><g class="errorbars"/><g class="lines"><path class="js-line" d="M0,11.69L11.02,42.09L22.04,42.81L44.08,44.5L55.1,43.68L77.14,45.71L88.16,45.09L99.18,45.82L110.2,44.6L143.27,42.63L154.29,42.37L176.33,38.41L187.35,38.05L198.37,36.66L209.39,36.11L220.41,32.77L231.43,34.89L242.45,37.85L253.47,40.01L264.49,40.04L275.51,44.27L297.55,49.7L308.57,52.86L319.59,54.03L330.61,59.14L352.65,71.12L363.67,75.87L385.71,95L396.73,105.23L418.78,121.95L429.8,129.36L440.82,135.41L451.84,139.88L484.9,147.32L495.92,149.16L540,156.12" style="vector-effect: non-scaling-stroke; fill: none; stroke: rgb(171, 99, 250); stroke-opacity: 1; stroke-width: 2px; opacity: 1;"/></g><g class="points"/><g class="text"/></g><g class="trace scatter tracebaaa9d" style="stroke-miterlimit: 2; opacity: 1;"><g class="fills"/><g class="errorbars"/><g class="lines"><path class="js-line" d="M0,11.71L11.02,42.11L22.04,42.91L33.06,43.21L44.08,44.76L55.1,43.69L66.12,43.97L77.14,45.53L88.16,44.91L143.27,43.86L154.29,43.22L165.31,39.8L176.33,38.44L198.37,38.81L209.39,36.12L220.41,34.19L231.43,36.18L242.45,40.67L253.47,41.37L264.49,45.95L275.51,47.88L286.53,50.5L297.55,59.78L308.57,70.64L319.59,74.74L341.63,88.96L352.65,95.08L363.67,99.82L374.69,106.89L418.78,131.61L429.8,138.66L440.82,144.22L451.84,148.11L484.9,154.68L495.92,156.54L540,162.91" style="vector-effect: non-scaling-stroke; fill: none; stroke: rgb(255, 161, 90); stroke-opacity: 1; stroke-width: 2px; opacity: 1;"/></g><g class="points"/><g class="text"/></g><g class="trace scatter tracef7b305" style="stroke-miterlimit: 2; opacity: 1;"><g class="fills"/><g class="errorbars"/><g class="lines"><path class="js-line" d="M0,4.8L11.02,36.86L22.04,40.58L44.08,43.14L55.1,44.91L77.14,47.1L88.16,45.73L99.18,47.03L110.2,46.02L121.22,44.37L132.24,45.97L143.27,45.36L154.29,47L198.37,50.74L209.39,52.24L220.41,53.66L231.43,62.93L242.45,66.81L253.47,77.94L264.49,80.61L275.51,87.57L286.53,89.38L297.55,95.74L308.57,102.86L319.59,108.69L330.61,112.36L341.63,125.62L352.65,143.89L363.67,159.63L374.69,173.08L385.71,183.72L396.73,196.34L407.76,204.12L429.8,223.55L440.82,231.06L451.84,236.82L462.86,238.95L473.88,242.94L484.9,245.61L495.92,247.75L506.94,250.68L540,256.89" style="vector-effect: non-scaling-stroke; fill: none; stroke: rgb(25, 211, 243); stroke-opacity: 1; stroke-width: 2px; opacity: 1;"/></g><g class="points"/><g class="text"/></g><g class="trace scatter tracec53f3e" style="stroke-miterlimit: 2; opacity: 1;"><g class="fills"/><g class="errorbars"/><g class="lines"><path class="js-line" d="M0,4.8L11.02,36.86L22.04,40.58L44.08,43.14L55.1,44.91L77.14,47.1L88.16,45.73L99.18,47.03L110.2,46.02L121.22,44.37L132.24,45.97L143.27,45.36L154.29,47L198.37,50.74L209.39,52.24L220.41,53.66L231.43,62.93L242.45,66.81L253.47,77.94L264.49,80.61L275.51,87.57L286.53,89.38L297.55,95.74L308.57,102.86L319.59,108.69L330.61,112.36L341.63,125.62L352.65,143.89L363.67,159.63L374.69,173.08L385.71,183.72L396.73,196.34L407.76,204.12L429.8,223.55L440.82,231.06L451.84,236.82L462.86,238.95L473.88,242.94L484.9,245.61L495.92,247.75L506.94,250.68L540,256.89" style="vector-effect: non-scaling-stroke; fill: none; stroke: rgb(255, 102, 146); stroke-opacity: 1; stroke-width: 2px; opacity: 1;"/></g><g class="points"/><g class="text"/></g><g class="trace scatter trace76caf0" style="stroke-miterlimit: 2; opacity: 1;"><g class="fills"/><g class="errorbars"/><g class="lines"><path class="js-line" d="M0,4.65L11.02,36.64L22.04,40.41L33.06,41.37L44.08,43.1L66.12,45.65L77.14,45.64L88.16,45.96L99.18,47.2L121.22,44.76L132.24,44.51L176.33,47.12L187.35,44.83L198.37,46.93L209.39,45.66L220.41,44.19L231.43,49.43L242.45,54.98L253.47,63.94L264.49,69.19L275.51,78.21L286.53,80.81L297.55,90.38L308.57,95.9L319.59,105.46L330.61,112.51L341.63,126.89L352.65,145.38L363.67,161.78L374.69,176.22L385.71,188.24L429.8,227.21L440.82,234.6L451.84,240.45L462.86,243.18L473.88,246.53L484.9,248.98L528.98,258.73L540,260.44" style="vector-effect: non-scaling-stroke; fill: none; stroke: rgb(182, 232, 128); stroke-opacity: 1; stroke-width: 2px; opacity: 1;"/></g><g class="points"/><g class="text"/></g><g class="trace scatter trace28558b" style="stroke-miterlimit: 2; opacity: 1;"><g class="fills"/><g class="errorbars"/><g class="lines"><path class="js-line" d="M0,5.03L11.02,36.42L22.04,40.64L55.1,43.64L66.12,45.88L110.2,46.19L121.22,45.55L165.31,47.05L176.33,46.83L198.37,50.18L209.39,52.37L220.41,58.99L231.43,67.9L242.45,71.88L253.47,80.79L264.49,83.61L275.51,90.08L286.53,93.13L297.55,103.26L308.57,119.53L319.59,141.7L330.61,156.96L341.63,165.12L352.65,179.55L363.67,191.69L385.71,207.91L396.73,218.31L418.78,234.33L429.8,245.4L451.84,258.04L462.86,260.29L484.9,266.34L495.92,269.07L506.94,271.92L517.96,273.55L540,278.26" style="vector-effect: non-scaling-stroke; fill: none; stroke: rgb(255, 151, 255); stroke-opacity: 1; stroke-width: 2px; opacity: 1;"/></g><g class="points"/><g class="text"/></g><g class="trace scatter trace75757d" style="stroke-miterlimit: 2; opacity: 1;"><g class="fills"/><g class="errorbars"/><g class="lines"><path class="js-line" d="M0,4.83L11.02,36.91L22.04,40.56L44.08,43.3L55.1,44.29L88.16,46.66L99.18,46.17L110.2,45.94L121.22,44.35L165.31,44.88L176.33,44.64L187.35,43.77L198.37,45.17L209.39,43.56L220.41,45.79L242.45,57.53L253.47,67.21L264.49,75.78L275.51,79.71L286.53,77.58L297.55,89.91L308.57,92.68L319.59,100.16L330.61,103.89L341.63,109.42L363.67,119.21L374.69,125.56L385.71,131.33L396.73,136.15L407.76,142.24L418.78,150.28L429.8,154.83L440.82,161.39L451.84,165.19L462.86,166.91L484.9,170.59L495.92,172.49L528.98,177.79L540,179.2" style="vector-effect: non-scaling-stroke; fill: none; stroke: rgb(254, 203, 82); stroke-opacity: 1; stroke-width: 2px; opacity: 1;"/></g><g class="points"/><g class="text"/></g><g class="trace scatter traceaacdf4" style="stroke-miterlimit: 2; opacity: 1;"><g class="fills"/><g class="errorbars"/><g class="lines"><path class="js-line" d="M0,11.63L11.02,42.06L22.04,42.76L33.06,43.34L44.08,44.75L55.1,43.79L66.12,44.78L77.14,46.27L88.16,46.08L99.18,45.77L110.2,43.73L121.22,45.2L132.24,43.28L143.27,42.06L154.29,42.72L176.33,37.03L187.35,37.52L198.37,37.59L209.39,33.62L220.41,35.41L231.43,33.08L242.45,37.46L253.47,39.56L264.49,41.03L275.51,40.89L308.57,47.47L319.59,51.31L352.65,60.4L363.67,66.07L374.69,71.38L385.71,77.75L407.76,88.35L418.78,96.96L429.8,103.62L440.82,109.07L451.84,113.86L462.86,116.02L484.9,121.65L495.92,123.18L517.96,127.76L528.98,129.64L540,131.69" style="vector-effect: non-scaling-stroke; fill: none; stroke: rgb(99, 110, 250); stroke-opacity: 1; stroke-width: 2px; opacity: 1;"/></g><g class="points"/><g class="text"/></g><g class="trace scatter trace849fd9" style="stroke-miterlimit: 2; opacity: 1;"><g class="fills"/><g class="errorbars"/><g class="lines"><path class="js-line" d="M0,4.8L11.02,36.86L22.04,40.51L77.14,46.87L88.16,46.13L110.2,46.12L121.22,43.86L132.24,45.23L143.27,45.43L154.29,45.82L165.31,43.99L176.33,47.83L187.35,45.16L198.37,46.35L209.39,44.19L231.43,50.94L242.45,60.44L253.47,69.78L264.49,75.56L275.51,83.79L286.53,85.99L297.55,94.53L308.57,99.88L330.61,109.19L341.63,116.96L352.65,130.37L363.67,146.38L385.71,175.43L396.73,187.8L429.8,219.77L440.82,228.37L451.84,234.93L462.86,238.04L484.9,244.24L495.92,246.49L506.94,249.68L517.96,251.39L528.98,254.18L540,256.03" style="vector-effect: non-scaling-stroke; fill: none; stroke: rgb(239, 85, 59); stroke-opacity: 1; stroke-width: 2px; opacity: 1;"/></g><g class="points"/><g class="text"/></g><g class="trace scatter trace018e98" style="stroke-miterlimit: 2; opacity: 1;"><g class="fills"/><g class="errorbars"/><g class="lines"><path class="js-line" d="M0,4.32L11.02,36.72L22.04,40.08L33.06,41.99L44.08,42.96L55.1,44.09L66.12,46.31L110.2,45.67L121.22,43.45L132.24,43.73L143.27,44.92L154.29,44.91L165.31,43.7L176.33,43.86L187.35,42.31L198.37,42.21L209.39,40.01L220.41,39.51L231.43,40.65L242.45,42.15L253.47,45.65L264.49,48.32L275.51,53.44L286.53,54.16L297.55,59.06L308.57,66.11L319.59,77.02L330.61,90.1L341.63,104.98L352.65,128L363.67,148.06L374.69,164.94L385.71,178.93L396.73,192.13L407.76,201.5L418.78,211.77L429.8,223.44L440.82,231.55L451.84,237.96L473.88,243.6L484.9,246.88L517.96,254.07L528.98,256.43L540,258.09" style="vector-effect: non-scaling-stroke; fill: none; stroke: rgb(0, 204, 150); stroke-opacity: 1; stroke-width: 2px; opacity: 1;"/></g><g class="points"/><g class="text"/></g><g class="trace scatter tracecd53d0" style="stroke-miterlimit: 2; opacity: 1;"><g class="fills"/><g class="errorbars"/><g class="lines"><path class="js-line" d="M0,11.64L11.02,41.79L22.04,42.58L66.12,43.87L77.14,45.06L88.16,44.56L99.18,44.95L110.2,43.56L121.22,43.52L132.24,42.92L143.27,41.2L154.29,41.54L165.31,40.03L176.33,37.96L187.35,37.56L231.43,32.15L242.45,35.72L253.47,38.69L264.49,39.08L275.51,40.39L286.53,42.62L308.57,48.28L319.59,49.15L363.67,60.24L374.69,63.71L385.71,67.36L396.73,72.65L407.76,76.45L418.78,82.29L440.82,91.89L451.84,95.61L517.96,106.52L528.98,107.8L540,109.08" style="vector-effect: non-scaling-stroke; fill: none; stroke: rgb(171, 99, 250); stroke-opacity: 1; stroke-width: 2px; opacity: 1;"/></g><g class="points"/><g class="text"/></g><g class="trace scatter trace2091b4" style="stroke-miterlimit: 2; opacity: 1;"><g class="fills"/><g class="errorbars"/><g class="lines"><path class="js-line" d="M0,4.77L11.02,36.57L22.04,40.6L44.08,42.88L55.1,43.1L66.12,45.14L77.14,45.34L99.18,45.92L110.2,46.68L121.22,43.72L132.24,45.31L143.27,44.5L154.29,45.43L176.33,47.08L187.35,46.85L198.37,49.17L209.39,48.91L220.41,49.99L231.43,61.7L242.45,67.43L253.47,77.82L264.49,81.1L275.51,86.01L286.53,90.66L297.55,97.06L308.57,99.52L319.59,105.37L330.61,108.27L341.63,113.99L352.65,120.13L363.67,124.07L374.69,131.08L385.71,139.54L396.73,151.21L407.76,165.69L429.8,191.94L440.82,201.84L451.84,209.12L462.86,213.12L484.9,220.87L495.92,223.84L506.94,227.15L517.96,229.65L528.98,232.74L540,234.63" style="vector-effect: non-scaling-stroke; fill: none; stroke: rgb(255, 161, 90); stroke-opacity: 1; stroke-width: 2px; opacity: 1;"/></g><g class="points"/><g class="text"/></g><g class="trace scatter tracedd48f0" style="stroke-miterlimit: 2; opacity: 1;"><g class="fills"/><g class="errorbars"/><g class="lines"><path class="js-line" d="M0,11.85L11.02,41.97L22.04,42.87L33.06,43.1L44.08,44.5L55.1,43.54L66.12,43.84L77.14,45.41L88.16,44.85L110.2,44.23L121.22,44.89L132.24,42.35L143.27,42.52L154.29,42.13L165.31,40.56L176.33,36.54L187.35,39.55L209.39,35.15L220.41,34.72L231.43,36.47L242.45,37.26L253.47,39.62L264.49,40.35L275.51,41.54L286.53,44.58L319.59,51.33L330.61,54.98L363.67,65.06L374.69,69.09L385.71,74.47L396.73,81.76L407.76,88.22L418.78,98.06L440.82,113.22L451.84,118.81L473.88,126.46L484.9,129.47L528.98,138.3L540,140.25" style="vector-effect: non-scaling-stroke; fill: none; stroke: rgb(25, 211, 243); stroke-opacity: 1; stroke-width: 2px; opacity: 1;"/></g><g class="points"/><g class="text"/></g><g class="trace scatter tracee45f51" style="stroke-miterlimit: 2; opacity: 1;"><g class="fills"/><g class="errorbars"/><g class="lines"><path class="js-line" d="M0,11.62L11.02,42.01L22.04,42.74L33.06,43.03L44.08,44.58L55.1,44.2L66.12,44.81L77.14,45.88L88.16,45.06L99.18,45.67L110.2,45.49L143.27,42.75L154.29,42.47L165.31,41.43L176.33,38.22L187.35,38.9L198.37,36.59L209.39,35.87L220.41,33.22L231.43,34.93L242.45,38.72L253.47,39.02L264.49,41.59L297.55,45.96L308.57,49.24L319.59,51.18L330.61,54.3L341.63,57.49L352.65,62.36L363.67,67.09L374.69,74.05L396.73,85.36L407.76,92.25L429.8,106.6L440.82,112.63L451.84,118.12L462.86,120.45L484.9,127.25L495.92,130.15L506.94,133.89L517.96,136.52L540,141.69" style="vector-effect: non-scaling-stroke; fill: none; stroke: rgb(255, 102, 146); stroke-opacity: 1; stroke-width: 2px; opacity: 1;"/></g><g class="points"/><g class="text"/></g><g class="trace scatter tracec0b559" style="stroke-miterlimit: 2; opacity: 1;"><g class="fills"/><g class="errorbars"/><g class="lines"><path class="js-line" d="M0,4.68L11.02,36.66L22.04,40.88L66.12,45.36L77.14,46.2L110.2,46.35L121.22,45.06L132.24,45.82L143.27,45.18L154.29,45.66L165.31,45.28L176.33,46.42L187.35,44.4L198.37,47.98L209.39,45.68L220.41,48.02L231.43,55.01L242.45,61.23L253.47,71.27L275.51,85.63L286.53,86.05L297.55,93.79L308.57,98.18L319.59,103.24L330.61,107.32L352.65,116.16L363.67,120.77L374.69,125.57L385.71,131.53L407.76,140.08L418.78,147.69L429.8,152.33L440.82,158.16L451.84,161.47L462.86,163.07L495.92,168.82L506.94,170.48L540,174.9" style="vector-effect: non-scaling-stroke; fill: none; stroke: rgb(182, 232, 128); stroke-opacity: 1; stroke-width: 2px; opacity: 1;"/></g><g class="points"/><g class="text"/></g><g class="trace scatter trace678b2a" style="stroke-miterlimit: 2; opacity: 1;"><g class="fills"/><g class="errorbars"/><g class="lines"><path class="js-line" d="M0,11.71L11.02,41.91L22.04,42.82L33.06,43.22L44.08,44.99L55.1,43.86L66.12,44.48L77.14,46.19L88.16,44.65L99.18,45.36L110.2,44.76L121.22,44.32L132.24,42.7L143.27,43.79L154.29,43.25L176.33,37.81L187.35,38.7L198.37,38.15L209.39,36.16L220.41,33.98L231.43,33.85L242.45,39.22L253.47,40.88L275.51,43.01L286.53,46.29L319.59,54.64L330.61,59.15L341.63,64.31L352.65,67.94L374.69,84.3L385.71,92.32L407.76,111.35L418.78,120.51L440.82,133.75L451.84,137.73L462.86,141.31L473.88,143.77L495.92,147.82L506.94,149.81L540,154.7" style="vector-effect: non-scaling-stroke; fill: none; stroke: rgb(255, 151, 255); stroke-opacity: 1; stroke-width: 2px; opacity: 1;"/></g><g class="points"/><g class="text"/></g><g class="trace scatter trace4ebbc1" style="stroke-miterlimit: 2; opacity: 1;"><g class="fills"/><g class="errorbars"/><g class="lines"><path class="js-line" d="M0,11.01L11.02,41.93L22.04,42.99L33.06,43.22L44.08,44.93L55.1,43.96L66.12,44.37L77.14,45.3L88.16,44.34L110.2,43.83L121.22,43.56L154.29,42.4L165.31,39.02L187.35,38.29L198.37,36L231.43,34.57L242.45,37.61L264.49,41.76L275.51,42.06L297.55,47.21L308.57,48.41L319.59,53.15L330.61,55.26L341.63,58.3L352.65,62.95L363.67,68.06L374.69,74.31L396.73,85.07L407.76,91.18L440.82,111.96L451.84,117.44L506.94,134.76L517.96,137.51L540,142.46" style="vector-effect: non-scaling-stroke; fill: none; stroke: rgb(254, 203, 82); stroke-opacity: 1; stroke-width: 2px; opacity: 1;"/></g><g class="points"/><g class="text"/></g><g class="trace scatter tracef13bd4" style="stroke-miterlimit: 2; opacity: 1;"><g class="fills"/><g class="errorbars"/><g class="lines"><path class="js-line" d="M0,4.8L11.02,36.86L22.04,40.65L44.08,43.58L55.1,43.88L66.12,45.71L77.14,46.16L99.18,46.5L110.2,46.06L121.22,44.33L132.24,46.18L154.29,48.01L165.31,47.6L176.33,51.82L187.35,52.09L198.37,59.98L209.39,62.96L220.41,66.37L231.43,70.76L242.45,72.66L253.47,83.95L264.49,86.34L275.51,91.16L286.53,91.99L297.55,99.96L319.59,110.69L330.61,116.96L341.63,127.42L352.65,142.13L374.69,173.59L385.71,186.54L396.73,197.74L407.76,207.17L418.78,215.24L429.8,224.7L440.82,232.52L451.84,238.25L462.86,239.76L473.88,242.85L484.9,245.96L495.92,247.67L506.94,250.64L517.96,252.01L540,256.15" style="vector-effect: non-scaling-stroke; fill: none; stroke: rgb(99, 110, 250); stroke-opacity: 1; stroke-width: 2px; opacity: 1;"/></g><g class="points"/><g class="text"/></g><g class="trace scatter trace48105e" style="stroke-miterlimit: 2; opacity: 1;"><g class="fills"/><g class="errorbars"/><g class="lines"><path class="js-line" d="M0,2.54L11.02,34.67L22.04,40.36L33.06,43.09L44.08,44.86L55.1,45.36L66.12,47.38L99.18,48.82L110.2,46.56L121.22,45.95L132.24,47.63L143.27,47.05L154.29,47.43L165.31,46.45L176.33,46.84L198.37,45.84L209.39,46.46L220.41,46L231.43,48L242.45,53.79L253.47,58.06L264.49,63.67L275.51,70.55L286.53,76.8L297.55,86.61L308.57,92.69L319.59,100L330.61,103.45L341.63,109.8L352.65,113.74L363.67,120.14L374.69,125.23L385.71,131.72L396.73,135.1L407.76,141.26L418.78,147.74L429.8,153.23L440.82,159.08L451.84,162.55L506.94,171.49L517.96,173.43L540,176.3" style="vector-effect: non-scaling-stroke; fill: none; stroke: rgb(239, 85, 59); stroke-opacity: 1; stroke-width: 2px; opacity: 1;"/></g><g class="points"/><g class="text"/></g><g class="trace scatter trace4fad6a" style="stroke-miterlimit: 2; opacity: 1;"><g class="fills"/><g class="errorbars"/><g class="lines"><path class="js-line" d="M0,11.13L11.02,41.94L22.04,42.72L44.08,44.39L55.1,43.74L66.12,43.98L77.14,45.88L99.18,44.99L110.2,44.5L121.22,44.03L132.24,42.75L143.27,42.41L154.29,41.18L165.31,38.24L176.33,37.94L187.35,36.08L198.37,35.63L231.43,32.43L242.45,38.6L253.47,38.39L264.49,41.22L275.51,41.1L286.53,43.32L297.55,45.28L308.57,48.15L319.59,50.61L330.61,55.08L352.65,62.53L363.67,70.95L374.69,77.58L385.71,85.63L396.73,94.58L407.76,102.27L418.78,110.62L429.8,117.39L440.82,123.53L451.84,128.58L473.88,134.6L484.9,136.47L517.96,142.5L528.98,144.32L540,145.88" style="vector-effect: non-scaling-stroke; fill: none; stroke: rgb(0, 204, 150); stroke-opacity: 1; stroke-width: 2px; opacity: 1;"/></g><g class="points"/><g class="text"/></g><g class="trace scatter trace9eed71" style="stroke-miterlimit: 2; opacity: 1;"><g class="fills"/><g class="errorbars"/><g class="lines"><path class="js-line" d="M0,3.5L11.02,36.5L22.04,40.23L33.06,41.28L44.08,43.95L55.1,44.25L66.12,45.88L77.14,46.06L88.16,44.99L99.18,47.04L110.2,46.33L121.22,44.54L132.24,46.73L143.27,45.21L154.29,47.65L176.33,50.18L187.35,49.8L209.39,54.93L220.41,58.72L231.43,70.98L242.45,72.72L253.47,80.81L264.49,86.98L286.53,106.92L297.55,125.55L308.57,142.29L319.59,156.2L330.61,165.97L341.63,171.42L352.65,185.61L363.67,195.46L396.73,218.91L407.76,227.47L429.8,244.5L440.82,251.49L451.84,257.35L462.86,259.54L495.92,267.16L506.94,269.37L540,275.4" style="vector-effect: non-scaling-stroke; fill: none; stroke: rgb(171, 99, 250); stroke-opacity: 1; stroke-width: 2px; opacity: 1;"/></g><g class="points"/><g class="text"/></g><g class="trace scatter traced6b0a2" style="stroke-miterlimit: 2; opacity: 1;"><g class="fills"/><g class="errorbars"/><g class="lines"><path class="js-line" d="M0,4.64L11.02,36.74L22.04,40.72L66.12,45.49L77.14,45.46L88.16,44.97L99.18,46.42L110.2,44.52L121.22,43.85L143.27,44.76L154.29,43.74L187.35,44.54L198.37,44.64L220.41,40.85L231.43,43.38L242.45,49.5L253.47,58.5L275.51,71.9L286.53,77.74L297.55,87.63L308.57,92.96L319.59,100.93L330.61,102.88L363.67,120.47L374.69,127.27L385.71,132.26L396.73,139.13L407.76,144.59L418.78,150.99L429.8,157.81L440.82,163.51L451.84,167.47L462.86,169.6L495.92,176.04L506.94,178.06L517.96,179.39L528.98,181.51L540,183.29" style="vector-effect: non-scaling-stroke; fill: none; stroke: rgb(255, 161, 90); stroke-opacity: 1; stroke-width: 2px; opacity: 1;"/></g><g class="points"/><g class="text"/></g><g class="trace scatter trace3e2a67" style="stroke-miterlimit: 2; opacity: 1;"><g class="fills"/><g class="errorbars"/><g class="lines"><path class="js-line" d="M0,11.63L11.02,42.09L22.04,42.6L44.08,44.25L55.1,43.04L77.14,46.04L88.16,45.53L99.18,44.62L110.2,44.8L121.22,44.34L132.24,43.1L143.27,42.91L154.29,41.57L176.33,37.61L187.35,37.51L198.37,37.51L209.39,35.31L220.41,33.36L231.43,35.15L242.45,38.4L253.47,38.75L264.49,39.93L275.51,42.19L286.53,43.38L297.55,47.19L308.57,48.73L319.59,51.77L352.65,60.22L363.67,65.3L385.71,76.93L396.73,85.61L407.76,92.59L418.78,102.03L440.82,118.31L451.84,124.75L484.9,133.92L495.92,136.27L528.98,142.66L540,144.3" style="vector-effect: non-scaling-stroke; fill: none; stroke: rgb(25, 211, 243); stroke-opacity: 1; stroke-width: 2px; opacity: 1;"/></g><g class="points"/><g class="text"/></g><g class="trace scatter trace4833b1" style="stroke-miterlimit: 2; opacity: 1;"><g class="fills"/><g class="errorbars"/><g class="lines"><path class="js-line" d="M0,4.8L11.02,37.01L22.04,40.17L44.08,43.16L55.1,44.34L77.14,46.84L88.16,46.18L110.2,46.47L121.22,44.66L165.31,45.22L176.33,47.24L187.35,46.71L198.37,51.65L209.39,54.61L220.41,60.73L231.43,66.85L242.45,69.95L253.47,78.7L264.49,81.56L275.51,87.88L286.53,88.45L297.55,98L308.57,98.4L319.59,104.86L330.61,109.81L341.63,113.92L352.65,120.39L363.67,128.57L374.69,140.76L396.73,180.02L407.76,192.21L418.78,202.78L429.8,215.09L440.82,223.1L451.84,230L462.86,232.44L473.88,236.75L506.94,244.42L517.96,246.48L528.98,249.29L540,251.14" style="vector-effect: non-scaling-stroke; fill: none; stroke: rgb(255, 102, 146); stroke-opacity: 1; stroke-width: 2px; opacity: 1;"/></g><g class="points"/><g class="text"/></g><g class="trace scatter traceab377f" style="stroke-miterlimit: 2; opacity: 1;"><g class="fills"/><g class="errorbars"/><g class="lines"><path class="js-line" d="M0,4.45L11.02,36.59L22.04,40.63L44.08,43.1L55.1,43.21L66.12,45.92L77.14,45.58L88.16,46.26L99.18,45.79L110.2,45.84L121.22,43.26L132.24,45.43L143.27,44.13L165.31,45.95L176.33,45.78L187.35,44.21L198.37,45.52L209.39,42.67L220.41,46.31L231.43,48.7L242.45,56.48L253.47,65.18L264.49,72.26L275.51,80.89L286.53,84L297.55,92.06L308.57,95.16L319.59,102.43L330.61,104.12L341.63,110.56L352.65,115.72L385.71,132.33L396.73,138.63L407.76,142.83L418.78,150L440.82,161.69L451.84,165.36L506.94,175.22L517.96,176.67L540,179.47" style="vector-effect: non-scaling-stroke; fill: none; stroke: rgb(182, 232, 128); stroke-opacity: 1; stroke-width: 2px; opacity: 1;"/></g><g class="points"/><g class="text"/></g><g class="trace scatter trace32e68b" style="stroke-miterlimit: 2; opacity: 1;"><g class="fills"/><g class="errorbars"/><g class="lines"><path class="js-line" d="M0,4.48L11.02,36.83L22.04,40.01L44.08,43.62L55.1,43.33L66.12,45.73L77.14,45.83L88.16,45.46L99.18,46.3L110.2,46.49L121.22,44.47L132.24,45.2L143.27,45.03L165.31,43.86L176.33,44.53L198.37,42.18L209.39,41.04L220.41,41.51L231.43,43.93L242.45,46.41L253.47,53.84L264.49,61.14L275.51,73.74L286.53,72.16L297.55,81.2L330.61,107.42L341.63,117.62L352.65,136.48L363.67,151.93L385.71,178.25L396.73,192.06L407.76,202.12L418.78,213.62L429.8,223.8L440.82,232.37L451.84,238.1L462.86,241.09L484.9,247.53L495.92,249.63L506.94,252.75L517.96,254.54L528.98,257.27L540,259.04" style="vector-effect: non-scaling-stroke; fill: none; stroke: rgb(255, 151, 255); stroke-opacity: 1; stroke-width: 2px; opacity: 1;"/></g><g class="points"/><g class="text"/></g><g class="trace scatter trace59c33d" style="stroke-miterlimit: 2; opacity: 1;"><g class="fills"/><g class="errorbars"/><g class="lines"><path class="js-line" d="M0,4.78L11.02,36.67L22.04,40.61L77.14,46.24L88.16,44.78L99.18,46.57L110.2,44.96L121.22,44.57L132.24,45.64L143.27,43.96L154.29,44.28L165.31,44.59L176.33,43.85L187.35,41.91L198.37,44.7L209.39,43.01L220.41,44.23L231.43,47.91L242.45,53.39L253.47,65.71L264.49,72.37L275.51,79.9L286.53,83.7L297.55,91.82L308.57,96.85L319.59,102.76L330.61,103.64L363.67,121.35L374.69,126.18L407.76,142.1L418.78,148.87L440.82,161.29L451.84,165.19L473.88,169.87L484.9,172.07L528.98,180.03L540,181.45" style="vector-effect: non-scaling-stroke; fill: none; stroke: rgb(254, 203, 82); stroke-opacity: 1; stroke-width: 2px; opacity: 1;"/></g><g class="points"/><g class="text"/></g><g class="trace scatter trace2ac616" style="stroke-miterlimit: 2; opacity: 1;"><g class="fills"/><g class="errorbars"/><g class="lines"><path class="js-line" d="M0,11.39L11.02,41.82L22.04,42.98L33.06,43.02L44.08,44.5L55.1,43.49L66.12,44.27L77.14,45.12L88.16,44.4L99.18,44.76L110.2,43.73L121.22,45.54L132.24,43.31L154.29,42.95L165.31,39.94L176.33,38.17L187.35,38.6L209.39,35.14L220.41,35L231.43,33.49L242.45,37.77L253.47,39.14L264.49,42.5L275.51,43.69L286.53,46.06L319.59,54.29L330.61,58.87L341.63,62.48L352.65,67.54L363.67,73.25L374.69,81.29L396.73,97.3L407.76,104.59L418.78,113.8L429.8,120.51L440.82,128.32L451.84,131.95L473.88,137.47L484.9,140.12L528.98,147.74L540,149.12" style="vector-effect: non-scaling-stroke; fill: none; stroke: rgb(99, 110, 250); stroke-opacity: 1; stroke-width: 2px; opacity: 1;"/></g><g class="points"/><g class="text"/></g><g class="trace scatter trace16ee09" style="stroke-miterlimit: 2; opacity: 1;"><g class="fills"/><g class="errorbars"/><g class="lines"><path class="js-line" d="M0,11.69L11.02,42.04L22.04,42.96L33.06,43L44.08,44.52L55.1,43.28L66.12,44.34L77.14,45.1L88.16,44.2L99.18,44.59L110.2,43.41L121.22,44.9L132.24,42.36L143.27,41.43L154.29,41.74L165.31,41.1L176.33,37.67L187.35,38.26L198.37,36.15L209.39,36.68L220.41,34.72L231.43,33.55L242.45,38.17L253.47,39.76L264.49,40.11L286.53,44.97L297.55,46.78L330.61,54.95L341.63,60.14L352.65,65.26L363.67,73.2L374.69,85.5L385.71,94.64L396.73,103.71L407.76,111.44L418.78,119.29L429.8,126.13L440.82,132.21L451.84,136.62L495.92,146.31L506.94,148.13L540,153.01" style="vector-effect: non-scaling-stroke; fill: none; stroke: rgb(239, 85, 59); stroke-opacity: 1; stroke-width: 2px; opacity: 1;"/></g><g class="points"/><g class="text"/></g><g class="trace scatter trace707f8b" style="stroke-miterlimit: 2; opacity: 1;"><g class="fills"/><g class="errorbars"/><g class="lines"><path class="js-line" d="M0,10.88L11.02,41.73L22.04,42.99L44.08,44.68L55.1,43.9L66.12,45.38L77.14,45.75L88.16,44.97L99.18,45.71L121.22,44.3L132.24,43.4L154.29,42.37L165.31,39.62L176.33,39.49L187.35,38.51L209.39,36.84L220.41,34.53L231.43,34.48L242.45,37.49L253.47,40.71L264.49,42.9L275.51,45.27L286.53,48.81L297.55,51.11L308.57,55.49L319.59,56.63L330.61,64.27L341.63,73.84L352.65,82.4L363.67,92.84L374.69,101.28L385.71,108.59L396.73,114.27L418.78,128.26L429.8,134.19L440.82,139.67L451.84,143.5L473.88,148.72L484.9,150.34L528.98,157.14L540,158.57" style="vector-effect: non-scaling-stroke; fill: none; stroke: rgb(0, 204, 150); stroke-opacity: 1; stroke-width: 2px; opacity: 1;"/></g><g class="points"/><g class="text"/></g><g class="trace scatter trace1f151f" style="stroke-miterlimit: 2; opacity: 1;"><g class="fills"/><g class="errorbars"/><g class="lines"><path class="js-line" d="M0,4.71L11.02,36.36L22.04,40.76L55.1,43.92L66.12,46.1L88.16,45.88L99.18,46.7L121.22,43.87L132.24,46.87L143.27,45L154.29,46.52L176.33,49.99L187.35,47.43L198.37,49.55L209.39,49.93L220.41,53.79L231.43,61.49L253.47,77.11L264.49,80.53L275.51,86.49L286.53,87.88L297.55,96.41L308.57,100.37L319.59,106.09L330.61,109.06L341.63,112.79L352.65,118.78L363.67,123.42L374.69,129.93L385.71,136.86L396.73,142.81L407.76,148.57L418.78,155.65L440.82,169.22L451.84,173.7L506.94,189.39L517.96,191.97L540,196.81" style="vector-effect: non-scaling-stroke; fill: none; stroke: rgb(171, 99, 250); stroke-opacity: 1; stroke-width: 2px; opacity: 1;"/></g><g class="points"/><g class="text"/></g><g class="trace scatter trace064e74" style="stroke-miterlimit: 2; opacity: 1;"><g class="fills"/><g class="errorbars"/><g class="lines"><path class="js-line" d="M0,4.81L11.02,36.76L22.04,39.88L33.06,42.04L44.08,43.2L77.14,46.52L88.16,46.69L99.18,46.94L110.2,45.68L121.22,44.59L132.24,45.67L143.27,45.93L154.29,47.4L176.33,49.53L187.35,46.37L198.37,52.08L209.39,53.02L220.41,59.57L231.43,68.95L242.45,72.64L253.47,82.67L264.49,85.65L275.51,94.66L286.53,103.19L297.55,124.47L319.59,158.67L330.61,167.85L341.63,175.93L352.65,186.67L363.67,198.23L374.69,206.25L385.71,215.1L396.73,222.66L440.82,253.98L451.84,259.02L484.9,266.47L495.92,268.75L540,276.86" style="vector-effect: non-scaling-stroke; fill: none; stroke: rgb(255, 161, 90); stroke-opacity: 1; stroke-width: 2px; opacity: 1;"/></g><g class="points"/><g class="text"/></g><g class="trace scatter tracec20c6f" style="stroke-miterlimit: 2; opacity: 1;"><g class="fills"/><g class="errorbars"/><g class="lines"><path class="js-line" d="M0,4.23L11.02,36.69L22.04,40.59L44.08,43.31L55.1,43.47L66.12,46.09L77.14,45.39L99.18,46.42L110.2,44.62L132.24,45.36L143.27,46.39L165.31,45.74L176.33,47.18L187.35,44.47L198.37,49.35L209.39,48.36L220.41,52.27L231.43,57.7L242.45,61.81L275.51,79.41L286.53,81.36L297.55,90.67L308.57,93.26L319.59,100.66L330.61,102.84L407.76,141.28L418.78,148.28L440.82,159.9L451.84,164.2L473.88,168.23L484.9,170.12L506.94,173.95L517.96,175.65L540,178.83" style="vector-effect: non-scaling-stroke; fill: none; stroke: rgb(25, 211, 243); stroke-opacity: 1; stroke-width: 2px; opacity: 1;"/></g><g class="points"/><g class="text"/></g><g class="trace scatter trace1710d4" style="stroke-miterlimit: 2; opacity: 1;"><g class="fills"/><g class="errorbars"/><g class="lines"><path class="js-line" d="M0,11.84L11.02,41.91L22.04,42.87L33.06,42.97L44.08,44.51L66.12,44.27L77.14,45.52L99.18,45.33L110.2,43.89L132.24,44L143.27,43.09L154.29,41.96L165.31,39.25L176.33,38.04L187.35,38.31L209.39,35.78L220.41,32L231.43,33.5L242.45,37.46L253.47,40.22L264.49,40.25L275.51,40.81L286.53,43.92L308.57,49.06L319.59,50.96L341.63,59.48L352.65,63.52L363.67,71.78L374.69,81.6L407.76,107.92L418.78,115.53L440.82,129.21L451.84,134.24L473.88,140.14L484.9,142.28L517.96,148.67L528.98,150.56L540,152.18" style="vector-effect: non-scaling-stroke; fill: none; stroke: rgb(255, 102, 146); stroke-opacity: 1; stroke-width: 2px; opacity: 1;"/></g><g class="points"/><g class="text"/></g><g class="trace scatter trace1aa0de" style="stroke-miterlimit: 2; opacity: 1;"><g class="fills"/><g class="errorbars"/><g class="lines"><path class="js-line" d="M0,4.39L11.02,36.29L22.04,40.66L33.06,41.34L44.08,43.13L77.14,45.77L88.16,45.62L110.2,46.11L121.22,44.56L132.24,46.05L143.27,45.57L154.29,46.76L165.31,45.75L176.33,49.65L187.35,47.2L198.37,49.5L209.39,48.88L231.43,57.71L242.45,64.81L264.49,77.17L275.51,84.56L286.53,86.27L297.55,94.64L308.57,98.36L319.59,105.46L341.63,114.34L352.65,118.75L374.69,130.85L385.71,137.62L407.76,156.63L418.78,171.24L429.8,186.95L440.82,201.26L451.84,209.93L462.86,215.08L473.88,220.54L484.9,224.52L517.96,234.19L528.98,237.16L540,238.94" style="vector-effect: non-scaling-stroke; fill: none; stroke: rgb(182, 232, 128); stroke-opacity: 1; stroke-width: 2px; opacity: 1;"/></g><g class="points"/><g class="text"/></g><g class="trace scatter trace7448aa" style="stroke-miterlimit: 2; opacity: 1;"><g class="fills"/><g class="errorbars"/><g class="lines"><path class="js-line" d="M0,4.77L11.02,36.77L22.04,40.61L44.08,43.3L55.1,43.37L66.12,45.36L77.14,45.9L88.16,45.56L99.18,46.39L121.22,43.94L132.24,45.04L187.35,46.85L198.37,49.75L209.39,51.81L220.41,49.07L231.43,51.3L242.45,58.57L253.47,66.95L264.49,73.75L275.51,80.9L286.53,81.23L297.55,92.61L308.57,96.14L319.59,103.05L330.61,103.84L352.65,114.07L363.67,121.07L374.69,124.66L385.71,131.7L396.73,136.1L407.76,141.61L418.78,148.91L429.8,154.72L440.82,161.42L451.84,164.87L484.9,172.07L495.92,173.63L517.96,177.66L528.98,179.52L540,180.95" style="vector-effect: non-scaling-stroke; fill: none; stroke: rgb(255, 151, 255); stroke-opacity: 1; stroke-width: 2px; opacity: 1;"/></g><g class="points"/><g class="text"/></g><g class="trace scatter tracea26f50" style="stroke-miterlimit: 2; opacity: 1;"><g class="fills"/><g class="errorbars"/><g class="lines"><path class="js-line" d="M0,11.74L11.02,41.94L22.04,42.82L33.06,43.17L44.08,44.6L55.1,43.52L66.12,44.07L77.14,45.71L88.16,45.27L99.18,45.73L110.2,44.2L121.22,45.02L132.24,43.14L154.29,42.71L165.31,41.96L176.33,38.64L187.35,37.35L198.37,36.39L209.39,34.16L231.43,35.18L242.45,36.63L253.47,39.42L264.49,41.39L275.51,43.75L286.53,46.97L308.57,50.76L319.59,53.96L330.61,58.17L341.63,64.2L352.65,70.63L363.67,80.49L385.71,98.66L396.73,108.7L407.76,115.12L418.78,122.72L429.8,129.93L440.82,135.72L451.84,139.86L462.86,142.84L484.9,147.5L495.92,149.35L517.96,152.89L528.98,154.67L540,156.2" style="vector-effect: non-scaling-stroke; fill: none; stroke: rgb(254, 203, 82); stroke-opacity: 1; stroke-width: 2px; opacity: 1;"/></g><g class="points"/><g class="text"/></g><g class="trace scatter trace1b8c89" style="stroke-miterlimit: 2; opacity: 1;"><g class="fills"/><g class="errorbars"/><g class="lines"><path class="js-line" d="M0,5.14L11.02,36.36L22.04,40.42L77.14,46.73L88.16,46.61L99.18,47.39L110.2,45.91L121.22,43.84L132.24,44.99L143.27,44.28L154.29,44.68L176.33,43.76L187.35,42.74L198.37,43.13L209.39,41.2L220.41,39.95L231.43,41.61L242.45,47.06L253.47,49.52L264.49,53.55L275.51,58.79L286.53,63.99L297.55,74.65L308.57,81.77L319.59,91.9L330.61,94.48L341.63,103.74L352.65,109.82L363.67,116.92L385.71,128.23L396.73,134.05L418.78,147.11L429.8,152.56L440.82,158.79L451.84,162.37L528.98,174.72L540,176.06" style="vector-effect: non-scaling-stroke; fill: none; stroke: rgb(99, 110, 250); stroke-opacity: 1; stroke-width: 2px; opacity: 1;"/></g><g class="points"/><g class="text"/></g><g class="trace scatter traced59490" style="stroke-miterlimit: 2; opacity: 1;"><g class="fills"/><g class="errorbars"/><g class="lines"><path class="js-line" d="M0,11.75L11.02,41.88L22.04,42.82L44.08,44.89L55.1,44.14L66.12,44.39L77.14,45.84L110.2,44.39L121.22,44.53L143.27,42.26L154.29,42.03L176.33,37.09L187.35,38.53L198.37,37.52L209.39,34.86L220.41,34.74L231.43,33.85L242.45,37.61L253.47,40.29L264.49,42.98L275.51,42.13L297.55,47.85L308.57,50.11L330.61,54.31L341.63,58.65L352.65,60.77L363.67,65.38L385.71,77.18L396.73,83.44L407.76,90.88L418.78,100.33L429.8,109.92L440.82,117.98L451.84,124.86L462.86,128.96L473.88,132.54L484.9,135.25L528.98,143.86L540,145.42" style="vector-effect: non-scaling-stroke; fill: none; stroke: rgb(239, 85, 59); stroke-opacity: 1; stroke-width: 2px; opacity: 1;"/></g><g class="points"/><g class="text"/></g><g class="trace scatter trace351300" style="stroke-miterlimit: 2; opacity: 1;"><g class="fills"/><g class="errorbars"/><g class="lines"><path class="js-line" d="M0,10.22L11.02,41.95L22.04,43.11L33.06,43.39L44.08,45.28L55.1,44.04L66.12,44.17L77.14,46.1L88.16,44.62L99.18,45.13L110.2,43.95L121.22,44.42L132.24,43.42L154.29,41.91L165.31,40.83L176.33,38.3L187.35,38.4L209.39,35.48L220.41,32.17L242.45,36.04L253.47,39.25L264.49,38.83L275.51,41.46L286.53,43.29L297.55,44.35L308.57,47.76L319.59,48.8L330.61,52.16L341.63,56.71L352.65,60.81L363.67,68.18L374.69,75.23L385.71,84.14L396.73,95.89L407.76,105.99L418.78,117.7L429.8,125.78L440.82,134.4L451.84,140.9L462.86,146.4L473.88,153.16L506.94,168.07L517.96,171.61L540,177.75" style="vector-effect: non-scaling-stroke; fill: none; stroke: rgb(0, 204, 150); stroke-opacity: 1; stroke-width: 2px; opacity: 1;"/></g><g class="points"/><g class="text"/></g><g class="trace scatter trace4aa3e3" style="stroke-miterlimit: 2; opacity: 1;"><g class="fills"/><g class="errorbars"/><g class="lines"><path class="js-line" d="M0,4.56L11.02,36.51L22.04,40.21L55.1,44.05L66.12,44.88L88.16,44.83L99.18,47.9L121.22,43.5L132.24,44.48L143.27,45.54L154.29,44.44L165.31,44.92L176.33,42.87L220.41,39.83L231.43,39.74L242.45,44.27L253.47,46.61L264.49,51.08L275.51,57.37L286.53,60.9L297.55,72.38L308.57,79.39L319.59,88.47L330.61,93.01L341.63,98.74L352.65,107.2L363.67,112.9L407.76,140.06L418.78,149.38L440.82,165.84L451.84,171.6L473.88,181.07L484.9,185.8L506.94,195.58L517.96,200.26L528.98,204.15L540,206.96" style="vector-effect: non-scaling-stroke; fill: none; stroke: rgb(171, 99, 250); stroke-opacity: 1; stroke-width: 2px; opacity: 1;"/></g><g class="points"/><g class="text"/></g><g class="trace scatter trace44be7a" style="stroke-miterlimit: 2; opacity: 1;"><g class="fills"/><g class="errorbars"/><g class="lines"><path class="js-line" d="M0,4.76L11.02,36.92L22.04,40.66L66.12,44.89L77.14,46.18L88.16,44.56L99.18,46.58L110.2,45.63L121.22,43.87L132.24,45.87L143.27,46.86L165.31,48.33L176.33,51.24L187.35,49.58L198.37,53.1L209.39,59.17L220.41,58.52L231.43,60.39L242.45,66.39L253.47,74.51L264.49,78.87L275.51,86.96L286.53,85.08L297.55,94.87L308.57,96.85L319.59,103.93L330.61,106.65L352.65,117.62L363.67,122.24L407.76,144.62L418.78,151.76L429.8,156.19L440.82,162.88L451.84,166.53L462.86,168.53L484.9,172.24L495.92,174.03L540,180.62" style="vector-effect: non-scaling-stroke; fill: none; stroke: rgb(255, 161, 90); stroke-opacity: 1; stroke-width: 2px; opacity: 1;"/></g><g class="points"/><g class="text"/></g><g class="trace scatter tracefafb62" style="stroke-miterlimit: 2; opacity: 1;"><g class="fills"/><g class="errorbars"/><g class="lines"><path class="js-line" d="M0,4.8L11.02,36.59L22.04,40.58L77.14,46.9L88.16,45.76L110.2,46.04L121.22,44.82L154.29,46.39L165.31,48L176.33,49.66L187.35,55.34L198.37,65.44L209.39,67.25L220.41,69.23L231.43,74.1L242.45,77.32L253.47,83.45L275.51,90.27L286.53,92.71L297.55,99.59L308.57,102.79L319.59,108.97L330.61,111.88L341.63,117.54L352.65,122.05L374.69,133.34L385.71,138.73L407.76,150.24L418.78,157L440.82,168.67L451.84,172.6L484.9,180.33L495.92,182.75L540,190.94" style="vector-effect: non-scaling-stroke; fill: none; stroke: rgb(25, 211, 243); stroke-opacity: 1; stroke-width: 2px; opacity: 1;"/></g><g class="points"/><g class="text"/></g><g class="trace scatter trace85b267" style="stroke-miterlimit: 2; opacity: 1;"><g class="fills"/><g class="errorbars"/><g class="lines"><path class="js-line" d="M0,4.74L11.02,36.89L22.04,40.66L33.06,42.3L44.08,43.14L88.16,46.36L99.18,46.01L121.22,44.36L132.24,46.27L143.27,45.5L154.29,46.19L165.31,45.59L176.33,48.51L187.35,46.38L198.37,49.49L209.39,47.06L220.41,47.49L231.43,54.32L242.45,59.69L275.51,79.14L286.53,83.32L297.55,91.25L308.57,98.23L319.59,108.81L330.61,120.84L341.63,134.83L352.65,153.65L374.69,181.36L385.71,191L396.73,203.35L407.76,213.07L429.8,233.94L440.82,242.83L451.84,249.07L462.86,252.12L484.9,258.62L495.92,261.09L506.94,264.43L517.96,266.73L540,271.31" style="vector-effect: non-scaling-stroke; fill: none; stroke: rgb(255, 102, 146); stroke-opacity: 1; stroke-width: 2px; opacity: 1;"/></g><g class="points"/><g class="text"/></g><g class="trace scatter trace8460d0" style="stroke-miterlimit: 2; opacity: 1;"><g class="fills"/><g class="errorbars"/><g class="lines"><path class="js-line" d="M0,4.86L11.02,36.79L22.04,40.28L55.1,44.12L66.12,45.41L77.14,46.43L88.16,45.62L99.18,47.76L110.2,45.85L121.22,45.35L132.24,47.45L143.27,48.45L154.29,47.31L165.31,48.59L176.33,51.14L187.35,53.32L198.37,52.62L209.39,58.85L220.41,57.31L231.43,65.68L242.45,72.87L253.47,81.65L264.49,95.49L275.51,112.63L286.53,127.39L297.55,149.32L308.57,160.62L319.59,173.26L330.61,181.08L341.63,191.04L352.65,199.62L363.67,211.9L374.69,220.79L385.71,230.06L396.73,240.66L418.78,257.62L429.8,267.01L440.82,275.76L451.84,281.57L462.86,284.52L473.88,288.48L495.92,293.18L506.94,296.72L540,303" style="vector-effect: non-scaling-stroke; fill: none; stroke: rgb(182, 232, 128); stroke-opacity: 1; stroke-width: 2px; opacity: 1;"/></g><g class="points"/><g class="text"/></g><g class="trace scatter tracec33227" style="stroke-miterlimit: 2; opacity: 1;"><g class="fills"/><g class="errorbars"/><g class="lines"><path class="js-line" d="M0,4.26L11.02,36.76L22.04,40.45L44.08,43.2L55.1,43.62L66.12,45.78L77.14,46.14L99.18,46.62L110.2,46.08L132.24,46.59L143.27,48.24L165.31,49.41L176.33,50.74L187.35,51.22L198.37,55.35L209.39,57.21L220.41,61.53L231.43,65.07L242.45,64.73L253.47,70.38L264.49,78.3L275.51,82.9L286.53,84.31L297.55,93.82L308.57,96.13L319.59,101.94L330.61,106.15L341.63,110.67L352.65,114.33L363.67,120.82L374.69,125.68L407.76,142.16L418.78,148.5L429.8,153.32L440.82,159.41L451.84,162.95L462.86,165.48L517.96,174.68L528.98,175.97L540,177.62" style="vector-effect: non-scaling-stroke; fill: none; stroke: rgb(255, 151, 255); stroke-opacity: 1; stroke-width: 2px; opacity: 1;"/></g><g class="points"/><g class="text"/></g><g class="trace scatter trace261609" style="stroke-miterlimit: 2; opacity: 1;"><g class="fills"/><g class="errorbars"/><g class="lines"><path class="js-line" d="M0,4.2L11.02,36.67L22.04,40.28L44.08,43.2L55.1,44.21L66.12,46.12L77.14,46.31L88.16,45.74L99.18,46.39L110.2,46.05L121.22,43.88L143.27,44.15L154.29,45.39L176.33,47.17L187.35,46.11L198.37,46.81L209.39,45.66L231.43,49.18L242.45,53L275.51,79.55L286.53,82.96L297.55,90.82L308.57,96.02L319.59,103.54L330.61,106.73L352.65,117.37L363.67,125.78L374.69,132.67L385.71,143.76L407.76,171.43L418.78,184.72L429.8,197.04L440.82,206.48L451.84,213.86L462.86,217.02L473.88,221.41L484.9,224.3L528.98,234.96L540,237.07" style="vector-effect: non-scaling-stroke; fill: none; stroke: rgb(254, 203, 82); stroke-opacity: 1; stroke-width: 2px; opacity: 1;"/></g><g class="points"/><g class="text"/></g></g></g><g class="overplot"/><path class="xlines-above crisp" d="M0,0" style="fill: none;"/><path class="ylines-above crisp" d="M0,0" style="fill: none;"/><g class="overlines-above"/><g class="xaxislayer-above"><g class="xtick"><text text-anchor="middle" x="0" y="433" transform="translate(80,0)" style="font-family: 'Open Sans', verdana, arial, sans-serif; font-size: 12px; fill: rgb(42, 63, 95); fill-opacity: 1; white-space: pre; opacity: 1;">0</text></g><g class="xtick"><text text-anchor="middle" x="0" y="433" style="font-family: 'Open Sans', verdana, arial, sans-serif; font-size: 12px; fill: rgb(42, 63, 95); fill-opacity: 1; white-space: pre; opacity: 1;" transform="translate(190.2,0)">10</text></g><g class="xtick"><text text-anchor="middle" x="0" y="433" style="font-family: 'Open Sans', verdana, arial, sans-serif; font-size: 12px; fill: rgb(42, 63, 95); fill-opacity: 1; white-space: pre; opacity: 1;" transform="translate(300.40999999999997,0)">20</text></g><g class="xtick"><text text-anchor="middle" x="0" y="433" style="font-family: 'Open Sans', verdana, arial, sans-serif; font-size: 12px; fill: rgb(42, 63, 95); fill-opacity: 1; white-space: pre; opacity: 1;" transform="translate(410.61,0)">30</text></g><g class="xtick"><text text-anchor="middle" x="0" y="433" style="font-family: 'Open Sans', verdana, arial, sans-serif; font-size: 12px; fill: rgb(42, 63, 95); fill-opacity: 1; white-space: pre; opacity: 1;" transform="translate(520.8199999999999,0)">40</text></g></g><g class="yaxislayer-above"><g class="ytick"><text text-anchor="end" x="79" y="4.199999999999999" transform="translate(0,390.71)" style="font-family: 'Open Sans', verdana, arial, sans-serif; font-size: 12px; fill: rgb(42, 63, 95); fill-opacity: 1; white-space: pre; opacity: 1;">5.3</text></g><g class="ytick"><text text-anchor="end" x="79" y="4.199999999999999" style="font-family: 'Open Sans', verdana, arial, sans-serif; font-size: 12px; fill: rgb(42, 63, 95); fill-opacity: 1; white-space: pre; opacity: 1;" transform="translate(0,340.66999999999996)">5.35</text></g><g class="ytick"><text text-anchor="end" x="79" y="4.199999999999999" style="font-family: 'Open Sans', verdana, arial, sans-serif; font-size: 12px; fill: rgb(42, 63, 95); fill-opacity: 1; white-space: pre; opacity: 1;" transform="translate(0,290.63)">5.4</text></g><g class="ytick"><text text-anchor="end" x="79" y="4.199999999999999" style="font-family: 'Open Sans', verdana, arial, sans-serif; font-size: 12px; fill: rgb(42, 63, 95); fill-opacity: 1; white-space: pre; opacity: 1;" transform="translate(0,240.59)">5.45</text></g><g class="ytick"><text text-anchor="end" x="79" y="4.199999999999999" style="font-family: 'Open Sans', verdana, arial, sans-serif; font-size: 12px; fill: rgb(42, 63, 95); fill-opacity: 1; white-space: pre; opacity: 1;" transform="translate(0,190.55)">5.5</text></g><g class="ytick"><text text-anchor="end" x="79" y="4.199999999999999" style="font-family: 'Open Sans', verdana, arial, sans-serif; font-size: 12px; fill: rgb(42, 63, 95); fill-opacity: 1; white-space: pre; opacity: 1;" transform="translate(0,140.5)">5.55</text></g></g><g class="overaxes-above"/></g></g><g class="polarlayer"/><g class="ternarylayer"/><g class="geolayer"/><g class="funnelarealayer"/><g class="pielayer"/><g class="iciclelayer"/><g class="treemaplayer"/><g class="sunburstlayer"/><g class="glimages"/><defs id="topdefs-fc9fe9"><g class="clips"/></defs><g class="layer-above"><g class="imagelayer"/><g class="shapelayer"/></g><g class="infolayer"><g class="g-gtitle"><text class="gtitle" x="35" y="50" text-anchor="start" dy="0em" style="font-family: 'Open Sans', verdana, arial, sans-serif; font-size: 17px; fill: rgb(42, 63, 95); opacity: 1; font-weight: normal; white-space: pre;">Train Loss: ascad_100-eff_cnn</text></g><g class="g-xtitle"/><g class="g-ytitle"/></g></svg>