<svg class="main-svg" xmlns="http://www.w3.org/2000/svg" xmlns:xlink="http://www.w3.org/1999/xlink" width="700" height="500" style="" viewBox="0 0 700 500"><rect x="0" y="0" width="700" height="500" style="fill: rgb(255, 255, 255); fill-opacity: 1;"/><defs id="defs-52db4d"><g class="clips"><clipPath id="clip52db4dxyplot" class="plotclip"><rect width="540" height="320"/></clipPath><clipPath class="axesclip" id="clip52db4dx"><rect x="80" y="0" width="540" height="500"/></clipPath><clipPath class="axesclip" id="clip52db4dy"><rect x="0" y="100" width="700" height="320"/></clipPath><clipPath class="axesclip" id="clip52db4dxy"><rect x="80" y="100" width="540" height="320"/></clipPath></g><g class="gradients"/><g class="patterns"/></defs><g class="bglayer"><rect class="bg" x="80" y="100" width="540" height="320" style="fill: rgb(229, 236, 246); fill-opacity: 1; stroke-width: 0;"/></g><g class="layer-below"><g class="imagelayer"/><g class="shapelayer"/></g><g class="cartesianlayer"><g class="subplot xy"><g class="layer-subplot"><g class="shapelayer"/><g class="imagelayer"/></g><g class="gridlayer"><g class="x"><path class="xgrid crisp" transform="translate(190.2,0)" d="M0,100v320" style="stroke: rgb(255, 255, 255); stroke-opacity: 1; stroke-width: 1px;"/><path class="xgrid crisp" transform="translate(300.40999999999997,0)" d="M0,100v320" style="stroke: rgb(255, 255, 255); stroke-opacity: 1; stroke-width: 1px;"/><path class="xgrid crisp" transform="translate(410.61,0)" d="M0,100v320" style="stroke: rgb(255, 255, 255); stroke-opacity: 1; stroke-width: 1px;"/><path class="xgrid crisp" transform="translate(520.8199999999999,0)" d="M0,100v320" style="stroke: rgb(255, 255, 255); stroke-opacity: 1; stroke-width: 1px;"/></g><g class="y"><path class="ygrid crisp" transform="translate(0,376.71)" d="M80,0h540" style="stroke: rgb(255, 255, 255); stroke-opacity: 1; stroke-width: 1px;"/><path class="ygrid crisp" transform="translate(0,329.08000000000004)" d="M80,0h540" style="stroke: rgb(255, 255, 255); stroke-opacity: 1; stroke-width: 1px;"/><path class="ygrid crisp" transform="translate(0,281.45)" d="M80,0h540" style="stroke: rgb(255, 255, 255); stroke-opacity: 1; stroke-width: 1px;"/><path class="ygrid crisp" transform="translate(0,233.82)" d="M80,0h540" style="stroke: rgb(255, 255, 255); stroke-opacity: 1; stroke-width: 1px;"/><path class="ygrid crisp" transform="translate(0,186.18)" d="M80,0h540" style="stroke: rgb(255, 255, 255); stroke-opacity: 1; stroke-width: 1px;"/><path class="ygrid crisp" transform="translate(0,138.55)" d="M80,0h540" style="stroke: rgb(255, 255, 255); stroke-opacity: 1; stroke-width: 1px;"/></g></g><g class="zerolinelayer"><path class="xzl zl crisp" transform="translate(80,0)" d="M0,100v320" style="stroke: rgb(255, 255, 255); stroke-opacity: 1; stroke-width: 2px;"/></g><path class="xlines-below"/><path class="ylines-below"/><g class="overlines-below"/><g class="xaxislayer-below"/><g class="yaxislayer-below"/><g class="overaxes-below"/><g class="plot" transform="translate(80,100)" clip-path="url(#clip52db4dxyplot)"><g class="scatterlayer mlayer"><g class="trace scatter traceababae" style="stroke-miterlimit: 2; opacity: 1;"><g class="fills"/><g class="errorbars"/><g class="lines"><path class="js-line" d="M0,4.6L11.02,34.88L22.04,38.3L33.06,40.32L44.08,41.25L55.1,41.76L66.12,43.45L77.14,44.24L88.16,43.78L110.2,44.84L121.22,43.41L132.24,42.91L143.27,44.51L154.29,46.83L165.31,46.73L176.33,51.38L187.35,54.25L198.37,58.42L209.39,60.66L220.41,64.4L231.43,71.78L242.45,71.76L253.47,80.61L264.49,81.59L275.51,86.95L286.53,89.16L297.55,95.67L308.57,98.74L319.59,103.86L330.61,106.45L341.63,112.08L352.65,115.3L363.67,121.35L385.71,131.38L396.73,136.93L407.76,141.44L418.78,148.58L440.82,160.01L451.84,163.73L506.94,174.47L517.96,176.37L528.98,178.61L540,179.94" style="vector-effect: non-scaling-stroke; fill: none; stroke: rgb(99, 110, 250); stroke-opacity: 1; stroke-width: 2px; opacity: 1;"/></g><g class="points"/><g class="text"/></g><g class="trace scatter trace8eea23" style="stroke-miterlimit: 2; opacity: 1;"><g class="fills"/><g class="errorbars"/><g class="lines"><path class="js-line" d="M0,4.69L11.02,34.97L22.04,38.59L33.06,39.4L44.08,40.98L77.14,43.85L88.16,43.79L99.18,44.27L110.2,43.95L121.22,43.01L132.24,43.42L143.27,44.12L154.29,43.94L176.33,46.2L187.35,45.43L198.37,48.87L209.39,50.38L220.41,53.98L231.43,59.29L242.45,64.17L253.47,71.41L275.51,82.82L286.53,83.68L297.55,91.76L308.57,94.12L319.59,101.28L330.61,102.83L363.67,116.78L374.69,121.57L385.71,127.33L396.73,131.86L407.76,136.73L418.78,143.55L440.82,154.57L451.84,158.09L462.86,159.54L473.88,161.79L495.92,165.08L506.94,166.88L540,171.1" style="vector-effect: non-scaling-stroke; fill: none; stroke: rgb(239, 85, 59); stroke-opacity: 1; stroke-width: 2px; opacity: 1;"/></g><g class="points"/><g class="text"/></g><g class="trace scatter trace776118" style="stroke-miterlimit: 2; opacity: 1;"><g class="fills"/><g class="errorbars"/><g class="lines"><path class="js-line" d="M0,5.41L11.02,35.29L22.04,38.5L44.08,40.89L55.1,41.19L66.12,42.65L77.14,43.19L99.18,44.55L110.2,43.39L121.22,40.98L132.24,43.39L143.27,41.93L154.29,41.25L176.33,41.24L187.35,38.69L198.37,39.89L209.39,38.26L220.41,36.8L231.43,37.8L253.47,44.03L264.49,46.68L275.51,50.5L286.53,51.48L297.55,58.95L308.57,69.06L319.59,77.27L330.61,82.84L352.65,98.67L363.67,104.89L374.69,110.89L385.71,118.65L396.73,124.62L407.76,132.45L440.82,156.41L451.84,162.57L495.92,178.47L506.94,181.55L528.98,187.65L540,189.83" style="vector-effect: non-scaling-stroke; fill: none; stroke: rgb(0, 204, 150); stroke-opacity: 1; stroke-width: 2px; opacity: 1;"/></g><g class="points"/><g class="text"/></g><g class="trace scatter trace7a35a2" style="stroke-miterlimit: 2; opacity: 1;"><g class="fills"/><g class="errorbars"/><g class="lines"><path class="js-line" d="M0,4.08L11.02,34.47L22.04,39.07L44.08,40.46L55.1,41.8L66.12,42.93L77.14,42.9L88.16,42.5L99.18,43.9L121.22,41.38L132.24,42.86L143.27,41.94L154.29,43.31L165.31,42.35L176.33,42.24L187.35,39.78L198.37,40.27L209.39,38.12L220.41,38.33L231.43,40.38L242.45,43.71L264.49,48.68L275.51,52.14L286.53,57.53L297.55,65.41L308.57,70.99L319.59,80.92L330.61,83.85L341.63,93.03L352.65,98.14L363.67,104.77L385.71,115.13L396.73,121.54L440.82,144.36L451.84,147.88L495.92,155.59L506.94,157.22L540,161.92" style="vector-effect: non-scaling-stroke; fill: none; stroke: rgb(171, 99, 250); stroke-opacity: 1; stroke-width: 2px; opacity: 1;"/></g><g class="points"/><g class="text"/></g><g class="trace scatter traced689c4" style="stroke-miterlimit: 2; opacity: 1;"><g class="fills"/><g class="errorbars"/><g class="lines"><path class="js-line" d="M0,9.53L11.02,39.76L22.04,40.36L44.08,41.93L55.1,41.94L77.14,42.99L88.16,42.29L99.18,42.79L110.2,42.17L121.22,40.72L132.24,40.8L143.27,40.86L154.29,39.96L176.33,36.18L187.35,36.43L209.39,34.81L220.41,33.12L231.43,32.63L242.45,36.2L253.47,39.08L264.49,39.8L319.59,50.31L330.61,53.57L341.63,56.55L352.65,60.95L374.69,71.31L385.71,78.42L396.73,86.28L407.76,95.11L418.78,105.27L429.8,114.03L440.82,121.38L451.84,126.67L473.88,133.47L484.9,135.75L495.92,138.82L506.94,140.6L528.98,144.6L540,146.25" style="vector-effect: non-scaling-stroke; fill: none; stroke: rgb(255, 161, 90); stroke-opacity: 1; stroke-width: 2px; opacity: 1;"/></g><g class="points"/><g class="text"/></g><g class="trace scatter traceca18b9" style="stroke-miterlimit: 2; opacity: 1;"><g class="fills"/><g class="errorbars"/><g class="lines"><path class="js-line" d="M0,3.87L11.02,34.59L22.04,38.48L33.06,39.26L44.08,41.05L66.12,43L77.14,44.14L110.2,43.68L121.22,42.34L143.27,43.22L154.29,42.56L165.31,44.14L176.33,44.74L187.35,44.45L198.37,46.87L209.39,45.8L220.41,47.77L231.43,55.11L242.45,59.37L275.51,82.37L286.53,83.04L297.55,93.01L308.57,100.68L319.59,119.1L330.61,135.03L341.63,146.91L352.65,163.88L363.67,176.86L374.69,186.76L396.73,206.87L407.76,214.6L429.8,233.05L440.82,240L451.84,245.42L462.86,248.05L484.9,253.53L495.92,255.72L517.96,260.52L528.98,262.43L540,264.4" style="vector-effect: non-scaling-stroke; fill: none; stroke: rgb(25, 211, 243); stroke-opacity: 1; stroke-width: 2px; opacity: 1;"/></g><g class="points"/><g class="text"/></g><g class="trace scatter trace988806" style="stroke-miterlimit: 2; opacity: 1;"><g class="fills"/><g class="errorbars"/><g class="lines"><path class="js-line" d="M0,4.57L11.02,35.24L22.04,38.74L44.08,41.16L55.1,41.91L66.12,43.45L77.14,43.91L88.16,43.5L99.18,45.3L110.2,43.81L121.22,44.53L132.24,44.09L143.27,46.47L154.29,46.4L165.31,48.08L176.33,48.3L187.35,47.39L220.41,59.37L231.43,70.33L242.45,77.57L253.47,92.68L275.51,121.06L286.53,130.97L297.55,145.86L308.57,153.79L319.59,165.57L330.61,174.86L341.63,180.02L352.65,190.36L363.67,200L374.69,207.37L396.73,222.8L407.76,231.53L418.78,238.53L429.8,247.21L440.82,254.03L451.84,259.28L484.9,266.89L495.92,268.7L506.94,271.66L517.96,273.21L540,277.3" style="vector-effect: non-scaling-stroke; fill: none; stroke: rgb(255, 102, 146); stroke-opacity: 1; stroke-width: 2px; opacity: 1;"/></g><g class="points"/><g class="text"/></g><g class="trace scatter traceb2efad" style="stroke-miterlimit: 2; opacity: 1;"><g class="fills"/><g class="errorbars"/><g class="lines"><path class="js-line" d="M0,7.39L11.02,33.68L22.04,37.83L55.1,41.52L66.12,42.05L77.14,42.12L88.16,44.31L110.2,42L121.22,43.34L132.24,42.21L143.27,42.5L165.31,43.6L176.33,42.99L187.35,43.21L198.37,46.16L209.39,44.34L220.41,49.34L231.43,48.13L242.45,49.81L253.47,58.35L264.49,62.8L286.53,73.13L297.55,79.02L319.59,88.5L330.61,95.03L341.63,100.65L352.65,104.38L374.69,114.36L385.71,118.26L396.73,124.14L407.76,128.5L418.78,134.91L429.8,139.77L440.82,145.53L451.84,148.5L484.9,153.58L495.92,155.02L517.96,158.04L528.98,159.66L540,160.78" style="vector-effect: non-scaling-stroke; fill: none; stroke: rgb(182, 232, 128); stroke-opacity: 1; stroke-width: 2px; opacity: 1;"/></g><g class="points"/><g class="text"/></g><g class="trace scatter trace86fdb9" style="stroke-miterlimit: 2; opacity: 1;"><g class="fills"/><g class="errorbars"/><g class="lines"><path class="js-line" d="M0,4.55L11.02,35.14L22.04,38.44L33.06,40.16L44.08,41L77.14,44.53L88.16,44.85L110.2,44L121.22,41.67L132.24,43.8L143.27,42.95L154.29,44.24L165.31,43.22L176.33,44.81L187.35,44.33L198.37,45.72L209.39,51.04L220.41,57.63L231.43,66.36L242.45,69.28L253.47,75.93L264.49,80.49L275.51,83.45L286.53,85.28L297.55,93.14L308.57,95.66L319.59,101.85L330.61,103.29L341.63,108.16L352.65,111.98L363.67,118.73L374.69,122.78L385.71,128.84L407.76,141.15L418.78,151.31L440.82,171.69L451.84,179.88L484.9,194.75L495.92,198.08L506.94,201.69L517.96,204.19L528.98,207.32L540,209.25" style="vector-effect: non-scaling-stroke; fill: none; stroke: rgb(255, 151, 255); stroke-opacity: 1; stroke-width: 2px; opacity: 1;"/></g><g class="points"/><g class="text"/></g><g class="trace scatter trace5bcc89" style="stroke-miterlimit: 2; opacity: 1;"><g class="fills"/><g class="errorbars"/><g class="lines"><path class="js-line" d="M0,4.57L11.02,35.03L22.04,38.9L66.12,43.11L77.14,43.81L110.2,44.64L121.22,42.09L143.27,44.2L154.29,44.59L165.31,43.51L176.33,47.16L187.35,45.87L198.37,49.52L209.39,50.74L220.41,57.61L253.47,77.33L264.49,81.43L275.51,86.84L286.53,89.32L297.55,96.88L308.57,101.34L330.61,122.83L341.63,134.88L352.65,153.54L363.67,166.38L396.73,197.29L407.76,205.98L429.8,224.48L440.82,231.87L451.84,237.49L462.86,239.74L484.9,245.73L495.92,247.52L517.96,251.84L528.98,254.1L540,255.76" style="vector-effect: non-scaling-stroke; fill: none; stroke: rgb(254, 203, 82); stroke-opacity: 1; stroke-width: 2px; opacity: 1;"/></g><g class="points"/><g class="text"/></g><g class="trace scatter trace30ce79" style="stroke-miterlimit: 2; opacity: 1;"><g class="fills"/><g class="errorbars"/><g class="lines"><path class="js-line" d="M0,4.52L11.02,34.91L22.04,38.48L33.06,39.23L44.08,41.24L55.1,41.91L66.12,43.55L88.16,43.33L99.18,44.45L121.22,41.76L132.24,43.41L176.33,43.78L187.35,42.85L198.37,47.58L209.39,46.95L220.41,48.44L231.43,52.71L242.45,58.63L253.47,68.05L264.49,75.52L275.51,80.13L286.53,81.17L297.55,90.17L308.57,95.47L319.59,99.88L330.61,102.98L341.63,108.34L352.65,113.53L363.67,119.75L374.69,123.33L385.71,130.39L396.73,135.06L407.76,140.57L418.78,147.45L429.8,152.88L440.82,158.86L451.84,162.27L495.92,169.49L506.94,171.25L540,175.65" style="vector-effect: non-scaling-stroke; fill: none; stroke: rgb(99, 110, 250); stroke-opacity: 1; stroke-width: 2px; opacity: 1;"/></g><g class="points"/><g class="text"/></g><g class="trace scatter trace958e50" style="stroke-miterlimit: 2; opacity: 1;"><g class="fills"/><g class="errorbars"/><g class="lines"><path class="js-line" d="M0,3.74L11.02,34.46L22.04,38.58L55.1,41.64L66.12,44.22L88.16,43.62L99.18,44.42L110.2,43.55L121.22,41.87L143.27,42.66L154.29,42.24L165.31,41.45L176.33,42.61L187.35,39.46L198.37,40.53L209.39,38.39L220.41,38.79L231.43,39.81L242.45,45.01L253.47,52.55L264.49,63.58L275.51,72.99L286.53,75.73L297.55,84.4L308.57,88.78L319.59,94.31L330.61,98.49L341.63,104.28L352.65,108.66L374.69,120.43L385.71,125.17L407.76,136.23L418.78,143L440.82,154.7L451.84,158.41L506.94,169.44L517.96,170.9L540,174.55" style="vector-effect: non-scaling-stroke; fill: none; stroke: rgb(239, 85, 59); stroke-opacity: 1; stroke-width: 2px; opacity: 1;"/></g><g class="points"/><g class="text"/></g><g class="trace scatter traceeb28ce" style="stroke-miterlimit: 2; opacity: 1;"><g class="fills"/><g class="errorbars"/><g class="lines"><path class="js-line" d="M0,4.57L11.02,35.08L22.04,38.63L77.14,44.83L88.16,43.47L99.18,44.84L110.2,43.84L121.22,42.86L132.24,44.68L143.27,45.41L154.29,47.07L165.31,46.08L176.33,48.12L187.35,49.2L198.37,53.03L209.39,56.56L220.41,61.78L231.43,66.92L242.45,69.56L253.47,78.57L264.49,82.38L275.51,87.11L286.53,87.51L297.55,95.77L308.57,99.47L319.59,104.52L330.61,107.03L341.63,111.48L352.65,119.24L363.67,129.64L374.69,145.99L385.71,163.02L396.73,177.23L429.8,208.07L440.82,216.6L451.84,222.48L462.86,225.79L473.88,229.31L484.9,232.02L540,243.84" style="vector-effect: non-scaling-stroke; fill: none; stroke: rgb(0, 204, 150); stroke-opacity: 1; stroke-width: 2px; opacity: 1;"/></g><g class="points"/><g class="text"/></g><g class="trace scatter trace48be8e" style="stroke-miterlimit: 2; opacity: 1;"><g class="fills"/><g class="errorbars"/><g class="lines"><path class="js-line" d="M0,3.92L11.02,34.36L22.04,38.26L33.06,39.13L44.08,41.2L66.12,43.52L77.14,42.93L88.16,43.58L99.18,43.42L121.22,41.92L132.24,42.34L143.27,42.67L154.29,40.24L176.33,42.57L187.35,39.59L198.37,39.94L209.39,37.55L231.43,37.13L242.45,40.35L264.49,43.46L275.51,45.63L286.53,46.29L297.55,50.57L308.57,52.04L319.59,54.62L330.61,59.81L341.63,63.36L363.67,73.8L374.69,80.38L385.71,89.27L396.73,101.73L418.78,130.93L429.8,146.94L440.82,160L451.84,169.83L484.9,185.73L495.92,189.85L506.94,193.34L517.96,196L528.98,199.48L540,201.54" style="vector-effect: non-scaling-stroke; fill: none; stroke: rgb(171, 99, 250); stroke-opacity: 1; stroke-width: 2px; opacity: 1;"/></g><g class="points"/><g class="text"/></g><g class="trace scatter tracecc405f" style="stroke-miterlimit: 2; opacity: 1;"><g class="fills"/><g class="errorbars"/><g class="lines"><path class="js-line" d="M0,4.65L11.02,35.01L22.04,38.42L44.08,40.8L55.1,41.61L66.12,43.57L77.14,44.2L88.16,44.29L99.18,43.57L110.2,43.79L121.22,42.01L132.24,43.68L143.27,43.63L165.31,45.33L176.33,46.85L187.35,49.39L198.37,50.94L209.39,55.65L220.41,56.25L231.43,63.81L242.45,66.56L253.47,74.91L264.49,79.3L275.51,85.31L286.53,86.87L297.55,93.96L308.57,96.58L319.59,102.53L330.61,104.94L341.63,110.05L352.65,116.39L363.67,120.54L374.69,125.5L385.71,130.84L396.73,135.07L407.76,141.42L418.78,146.55L440.82,157.8L451.84,161.51L506.94,170.45L517.96,171.55L540,174.64" style="vector-effect: non-scaling-stroke; fill: none; stroke: rgb(255, 161, 90); stroke-opacity: 1; stroke-width: 2px; opacity: 1;"/></g><g class="points"/><g class="text"/></g><g class="trace scatter trace34561d" style="stroke-miterlimit: 2; opacity: 1;"><g class="fills"/><g class="errorbars"/><g class="lines"><path class="js-line" d="M0,3.91L11.02,34.83L22.04,38.6L66.12,43.81L77.14,43.87L110.2,43.64L121.22,42.17L143.27,42.91L154.29,43.67L165.31,42.99L176.33,45.28L198.37,44.47L209.39,45.7L220.41,46.13L231.43,51.08L253.47,65.8L264.49,70.73L275.51,77.26L286.53,79.58L297.55,86.46L308.57,90.85L319.59,97.82L330.61,98.95L341.63,107.39L352.65,110.74L363.67,117.82L374.69,122.72L385.71,129.57L396.73,138.01L407.76,148.52L418.78,163.04L429.8,178.47L440.82,191.3L451.84,199.71L462.86,204.13L473.88,209.57L484.9,213.29L517.96,221.96L528.98,224.42L540,226.08" style="vector-effect: non-scaling-stroke; fill: none; stroke: rgb(25, 211, 243); stroke-opacity: 1; stroke-width: 2px; opacity: 1;"/></g><g class="points"/><g class="text"/></g><g class="trace scatter trace9e231c" style="stroke-miterlimit: 2; opacity: 1;"><g class="fills"/><g class="errorbars"/><g class="lines"><path class="js-line" d="M0,4.57L11.02,35.08L22.04,38.63L77.14,44.83L88.16,43.53L99.18,44.76L110.2,43.8L121.22,42.23L132.24,43.76L143.27,43.17L154.29,44.73L198.37,48.3L209.39,49.73L220.41,51.08L231.43,59.9L242.45,63.6L253.47,74.19L264.49,76.72L275.51,83.35L286.53,85.08L297.55,91.12L308.57,97.91L319.59,103.45L330.61,106.95L341.63,119.57L352.65,136.96L363.67,151.94L374.69,164.74L385.71,174.87L396.73,186.88L407.76,194.29L429.8,212.78L440.82,219.93L451.84,225.41L462.86,227.44L473.88,231.24L484.9,233.78L517.96,240.45L528.98,242.82L540,244.52" style="vector-effect: non-scaling-stroke; fill: none; stroke: rgb(255, 102, 146); stroke-opacity: 1; stroke-width: 2px; opacity: 1;"/></g><g class="points"/><g class="text"/></g><g class="trace scatter tracec0d5ff" style="stroke-miterlimit: 2; opacity: 1;"><g class="fills"/><g class="errorbars"/><g class="lines"><path class="js-line" d="M0,11.22L11.02,39.99L22.04,40.79L33.06,41.13L44.08,42.64L55.1,41.53L66.12,42.33L77.14,44L88.16,42.95L121.22,42.09L132.24,42.55L154.29,40.13L165.31,37.05L187.35,35.02L198.37,35.55L209.39,33.06L220.41,31.67L231.43,31.34L242.45,37.42L264.49,37.97L275.51,40.78L286.53,42.39L297.55,45.81L308.57,50.44L319.59,50.46L330.61,54.12L341.63,60.45L352.65,65.47L363.67,72.09L374.69,80.38L385.71,85.71L396.73,95.78L407.76,102.45L429.8,117.49L440.82,123.77L451.84,128.58L462.86,131.64L484.9,136.51L495.92,138.56L517.96,142.33L528.98,143.84L540,145.59" style="vector-effect: non-scaling-stroke; fill: none; stroke: rgb(182, 232, 128); stroke-opacity: 1; stroke-width: 2px; opacity: 1;"/></g><g class="points"/><g class="text"/></g><g class="trace scatter trace0c3e4d" style="stroke-miterlimit: 2; opacity: 1;"><g class="fills"/><g class="errorbars"/><g class="lines"><path class="js-line" d="M0,4.33L11.02,34.77L22.04,38.54L55.1,41.49L66.12,43.6L88.16,42.95L99.18,44.26L110.2,44.12L121.22,41.79L132.24,43.89L143.27,43.17L154.29,43.08L165.31,44.55L176.33,45.75L187.35,44.47L198.37,50.82L209.39,54.32L220.41,58.38L231.43,71.03L242.45,83.62L253.47,102.33L264.49,115.21L275.51,129.56L286.53,138.77L297.55,152.33L308.57,161.06L319.59,171L341.63,186.17L352.65,197.18L363.67,205.55L374.69,212.64L407.76,237.48L418.78,247.09L429.8,255.98L440.82,262.54L451.84,268.38L462.86,270.9L473.88,274.32L484.9,276.84L540,288.12" style="vector-effect: non-scaling-stroke; fill: none; stroke: rgb(255, 151, 255); stroke-opacity: 1; stroke-width: 2px; opacity: 1;"/></g><g class="points"/><g class="text"/></g><g class="trace scatter tracea7ff8c" style="stroke-miterlimit: 2; opacity: 1;"><g class="fills"/><g class="errorbars"/><g class="lines"><path class="js-line" d="M0,3.59L11.02,34.2L22.04,38.43L33.06,39.56L44.08,41.46L55.1,41.73L66.12,43.73L99.18,44.27L110.2,43.52L121.22,42.44L132.24,43.52L154.29,42.01L165.31,43.06L220.41,39.47L231.43,44.01L242.45,52.41L253.47,48.81L264.49,58.04L275.51,61.62L286.53,67.17L297.55,78.27L319.59,90.71L330.61,92.73L341.63,99.91L352.65,103.84L363.67,111.01L374.69,115.92L385.71,119.66L396.73,125.57L407.76,130.25L418.78,136.44L440.82,146.6L451.84,149.93L484.9,155.46L495.92,156.79L528.98,161.13L540,162.69" style="vector-effect: non-scaling-stroke; fill: none; stroke: rgb(254, 203, 82); stroke-opacity: 1; stroke-width: 2px; opacity: 1;"/></g><g class="points"/><g class="text"/></g><g class="trace scatter trace13f4c1" style="stroke-miterlimit: 2; opacity: 1;"><g class="fills"/><g class="errorbars"/><g class="lines"><path class="js-line" d="M0,6.93L11.02,37.16L22.04,39.32L44.08,42.8L55.1,43.41L77.14,44.26L88.16,43.65L99.18,43.67L110.2,42.57L132.24,40.1L143.27,37.98L165.31,38.13L176.33,34.65L187.35,33.9L198.37,33.92L209.39,32.7L220.41,30.44L231.43,34.21L242.45,34.3L253.47,37.99L264.49,36.88L275.51,38.85L286.53,41.86L319.59,47.46L330.61,51.78L352.65,55.73L363.67,61.63L374.69,65.45L385.71,72.28L407.76,84.49L418.78,91.75L440.82,106.01L451.84,111.16L495.92,121.68L506.94,124.12L540,129.16" style="vector-effect: non-scaling-stroke; fill: none; stroke: rgb(99, 110, 250); stroke-opacity: 1; stroke-width: 2px; opacity: 1;"/></g><g class="points"/><g class="text"/></g><g class="trace scatter trace6df57f" style="stroke-miterlimit: 2; opacity: 1;"><g class="fills"/><g class="errorbars"/><g class="lines"><path class="js-line" d="M0,11.24L11.02,39.89L22.04,40.69L33.06,40.97L44.08,42.55L55.1,41.54L66.12,42.03L77.14,43.46L88.16,42.79L99.18,43.35L110.2,42.26L121.22,42.31L132.24,41.01L154.29,40.63L165.31,38.55L176.33,37.1L187.35,37.07L198.37,36.28L209.39,34.7L220.41,32.54L231.43,32.47L253.47,37.79L264.49,39.04L275.51,40.76L286.53,43.51L319.59,48.87L330.61,52.08L352.65,58.68L363.67,63.04L374.69,66.96L385.71,72.55L407.76,84.9L418.78,92.72L440.82,107.52L451.84,113.16L462.86,116.13L473.88,120.04L495.92,125.42L506.94,128.01L540,133.66" style="vector-effect: non-scaling-stroke; fill: none; stroke: rgb(239, 85, 59); stroke-opacity: 1; stroke-width: 2px; opacity: 1;"/></g><g class="points"/><g class="text"/></g><g class="trace scatter tracedefbd9" style="stroke-miterlimit: 2; opacity: 1;"><g class="fills"/><g class="errorbars"/><g class="lines"><path class="js-line" d="M0,11.28L11.02,39.95L22.04,40.77L33.06,41.05L44.08,42.58L55.1,41.4L66.12,41.85L77.14,43.59L88.16,42.81L99.18,42.88L110.2,41.88L121.22,42.76L132.24,41.3L143.27,41.25L154.29,39.26L165.31,38.42L176.33,36.33L187.35,36.35L198.37,35L220.41,32.65L231.43,32.58L242.45,37.49L253.47,38.34L264.49,40.07L275.51,40.16L297.55,45.01L308.57,49.52L319.59,50.29L330.61,56.47L352.65,67.96L363.67,77.11L374.69,87.42L385.71,95.88L418.78,115.87L429.8,121.17L440.82,127.05L451.84,130.46L473.88,135.64L484.9,137.24L528.98,143.91L540,145.28" style="vector-effect: non-scaling-stroke; fill: none; stroke: rgb(0, 204, 150); stroke-opacity: 1; stroke-width: 2px; opacity: 1;"/></g><g class="points"/><g class="text"/></g><g class="trace scatter traced0d8e2" style="stroke-miterlimit: 2; opacity: 1;"><g class="fills"/><g class="errorbars"/><g class="lines"><path class="js-line" d="M0,9.49L11.02,39.9L22.04,40.96L33.06,41.51L44.08,42.86L55.1,42.16L66.12,42.41L77.14,44.15L88.16,43.19L99.18,43.53L110.2,42.25L121.22,42.86L132.24,42.48L143.27,41.03L154.29,41.32L176.33,35.78L187.35,36.78L198.37,36.24L209.39,34.41L231.43,31.85L242.45,35.41L253.47,38.02L264.49,39.6L286.53,41.95L297.55,44.71L308.57,46.75L319.59,50.39L330.61,52.61L341.63,55.96L363.67,63.67L374.69,68.79L385.71,74.41L396.73,81.31L407.76,86.99L418.78,94.14L440.82,108.28L451.84,113.37L506.94,134L517.96,137.3L540,142.87" style="vector-effect: non-scaling-stroke; fill: none; stroke: rgb(171, 99, 250); stroke-opacity: 1; stroke-width: 2px; opacity: 1;"/></g><g class="points"/><g class="text"/></g><g class="trace scatter trace165f4b" style="stroke-miterlimit: 2; opacity: 1;"><g class="fills"/><g class="errorbars"/><g class="lines"><path class="js-line" d="M0,4.48L11.02,34.87L22.04,38.91L66.12,43.47L77.14,43.19L99.18,44.2L110.2,43.83L121.22,43.25L132.24,44.71L143.27,44.27L154.29,46.58L165.31,48.88L176.33,49.41L220.41,61.98L231.43,69.94L242.45,71.68L253.47,77.94L264.49,80.99L275.51,85.95L286.53,88.21L297.55,94.73L308.57,99.94L319.59,116.71L330.61,133.59L341.63,147.12L363.67,173.08L374.69,182.17L396.73,199.7L407.76,207.71L429.8,225.72L440.82,232.56L451.84,237.69L462.86,240.32L484.9,245.76L495.92,247.44L528.98,254.28L540,255.9" style="vector-effect: non-scaling-stroke; fill: none; stroke: rgb(255, 161, 90); stroke-opacity: 1; stroke-width: 2px; opacity: 1;"/></g><g class="points"/><g class="text"/></g><g class="trace scatter trace808c74" style="stroke-miterlimit: 2; opacity: 1;"><g class="fills"/><g class="errorbars"/><g class="lines"><path class="js-line" d="M0,10.49L11.02,40.02L22.04,40.9L33.06,40.79L44.08,42.45L66.12,42.52L77.14,43.86L88.16,41.66L99.18,42.37L110.2,42.06L121.22,42.7L143.27,40.38L154.29,40.13L176.33,35.18L187.35,35.97L198.37,35.17L209.39,33.3L220.41,32.57L231.43,33.36L242.45,37.68L253.47,37.86L264.49,42.41L275.51,42.3L308.57,54.85L319.59,57.06L341.63,73.94L352.65,80.8L385.71,103.63L396.73,110.02L440.82,134.25L451.84,137.86L473.88,143.5L484.9,144.95L540,153.29" style="vector-effect: non-scaling-stroke; fill: none; stroke: rgb(25, 211, 243); stroke-opacity: 1; stroke-width: 2px; opacity: 1;"/></g><g class="points"/><g class="text"/></g><g class="trace scatter traceb2f567" style="stroke-miterlimit: 2; opacity: 1;"><g class="fills"/><g class="errorbars"/><g class="lines"><path class="js-line" d="M0,11.28L11.02,39.95L22.04,40.8L33.06,41.02L44.08,42.36L55.1,41.45L66.12,41.73L77.14,43.22L88.16,42.69L121.22,42.61L132.24,40.72L154.29,40.52L165.31,38.61L176.33,35.17L187.35,36.36L198.37,35.34L209.39,35.42L220.41,32.18L231.43,33.16L253.47,38.73L264.49,40.58L275.51,43.82L286.53,44.05L297.55,47.7L308.57,52.92L319.59,53.34L330.61,60.44L341.63,70.31L352.65,78.55L363.67,84.71L374.69,93.13L385.71,100.59L396.73,107.08L418.78,120.26L429.8,125.59L440.82,130.87L451.84,134.66L473.88,140.04L484.9,141.59L528.98,148.05L540,149.59" style="vector-effect: non-scaling-stroke; fill: none; stroke: rgb(255, 102, 146); stroke-opacity: 1; stroke-width: 2px; opacity: 1;"/></g><g class="points"/><g class="text"/></g><g class="trace scatter trace588ad7" style="stroke-miterlimit: 2; opacity: 1;"><g class="fills"/><g class="errorbars"/><g class="lines"><path class="js-line" d="M0,4.6L11.02,35.08L22.04,38.49L44.08,41.5L55.1,42.06L77.14,44.81L88.16,43.64L110.2,44.37L121.22,41.55L132.24,44.2L143.27,44.36L154.29,46.27L165.31,46.04L176.33,47.52L187.35,46.57L198.37,48.78L209.39,49.97L220.41,53.18L231.43,60.65L242.45,63.11L253.47,73.21L264.49,84.32L275.51,101.39L297.55,134.48L308.57,144.65L319.59,158.47L330.61,164.63L341.63,172.8L352.65,182.53L374.69,201.47L385.71,207.67L396.73,217.36L407.76,224.37L418.78,232.08L429.8,241.3L440.82,247.83L451.84,253.23L462.86,255.4L473.88,258.7L495.92,262.41L506.94,265.01L540,270.29" style="vector-effect: non-scaling-stroke; fill: none; stroke: rgb(182, 232, 128); stroke-opacity: 1; stroke-width: 2px; opacity: 1;"/></g><g class="points"/><g class="text"/></g><g class="trace scatter trace1501c0" style="stroke-miterlimit: 2; opacity: 1;"><g class="fills"/><g class="errorbars"/><g class="lines"><path class="js-line" d="M0,10.55L11.02,39.82L22.04,40.58L44.08,42.31L55.1,41.65L77.14,42.8L88.16,42.33L99.18,42.6L110.2,40.32L121.22,41.27L132.24,39.18L143.27,40.55L154.29,39.96L176.33,34.7L187.35,35.92L198.37,33.91L209.39,33.13L220.41,29.82L231.43,31.19L264.49,37.86L275.51,37.93L286.53,39.18L297.55,42.35L308.57,44.33L319.59,45.01L341.63,50.45L352.65,52L374.69,60.08L385.71,62.64L407.76,70.09L418.78,75.08L440.82,84.38L451.84,88.27L473.88,92.3L484.9,94.31L517.96,99.96L528.98,101.57L540,102.89" style="vector-effect: non-scaling-stroke; fill: none; stroke: rgb(255, 151, 255); stroke-opacity: 1; stroke-width: 2px; opacity: 1;"/></g><g class="points"/><g class="text"/></g><g class="trace scatter traceea0efd" style="stroke-miterlimit: 2; opacity: 1;"><g class="fills"/><g class="errorbars"/><g class="lines"><path class="js-line" d="M0,4.32L11.02,35.16L22.04,38.63L44.08,41.16L55.1,41.62L66.12,43.43L77.14,43.83L88.16,43.11L99.18,44.2L110.2,43.44L121.22,41.43L132.24,43.02L143.27,42.41L154.29,44.31L165.31,44.18L176.33,45.98L187.35,42.72L198.37,48.63L209.39,44.99L220.41,53.13L231.43,62.51L242.45,66.36L253.47,74.08L264.49,78.76L275.51,84.33L286.53,86.72L297.55,93.48L308.57,96.62L319.59,101.25L330.61,104.53L341.63,109.53L352.65,113.65L363.67,119.43L374.69,125.63L385.71,129.9L407.76,140.62L418.78,148.98L429.8,155.58L440.82,164.8L462.86,175.42L473.88,180.83L506.94,192.57L517.96,195.68L540,200.39" style="vector-effect: non-scaling-stroke; fill: none; stroke: rgb(254, 203, 82); stroke-opacity: 1; stroke-width: 2px; opacity: 1;"/></g><g class="points"/><g class="text"/></g><g class="trace scatter traced3848e" style="stroke-miterlimit: 2; opacity: 1;"><g class="fills"/><g class="errorbars"/><g class="lines"><path class="js-line" d="M0,4.5L11.02,34.99L22.04,38.42L66.12,44.15L77.14,44.04L99.18,43.92L110.2,43.37L121.22,42.45L132.24,43.19L143.27,42.63L154.29,43.09L176.33,43.21L187.35,41L198.37,42.7L209.39,42.99L220.41,39.26L231.43,43.4L242.45,49.5L253.47,54.49L275.51,69.43L286.53,72.75L297.55,81.72L308.57,88.15L319.59,94.69L330.61,97.31L341.63,103.57L352.65,108.47L363.67,115.01L374.69,119.22L385.71,124.97L396.73,128.88L418.78,142.88L429.8,148.86L440.82,154.12L451.84,158.32L506.94,168.5L517.96,169.96L540,173.52" style="vector-effect: non-scaling-stroke; fill: none; stroke: rgb(99, 110, 250); stroke-opacity: 1; stroke-width: 2px; opacity: 1;"/></g><g class="points"/><g class="text"/></g><g class="trace scatter trace9d67b0" style="stroke-miterlimit: 2; opacity: 1;"><g class="fills"/><g class="errorbars"/><g class="lines"><path class="js-line" d="M0,4.11L11.02,35.14L22.04,38.42L33.06,39.54L44.08,41.45L55.1,42.07L66.12,43.62L77.14,44.47L88.16,44.54L99.18,45.01L110.2,44.48L121.22,42.47L132.24,42.84L143.27,42.34L154.29,43.53L165.31,42.4L176.33,43.37L198.37,41.39L209.39,38.48L220.41,39.53L231.43,45.01L253.47,59.76L264.49,66.02L275.51,72.5L286.53,74.82L297.55,84.22L308.57,89.28L319.59,94.95L330.61,95.94L341.63,102.87L352.65,107.9L363.67,112.31L374.69,118.52L396.73,128.12L407.76,133.13L429.8,145.75L440.82,151.07L451.84,154.62L462.86,156.06L484.9,159.74L495.92,161.79L540,167.61" style="vector-effect: non-scaling-stroke; fill: none; stroke: rgb(239, 85, 59); stroke-opacity: 1; stroke-width: 2px; opacity: 1;"/></g><g class="points"/><g class="text"/></g><g class="trace scatter tracec6e020" style="stroke-miterlimit: 2; opacity: 1;"><g class="fills"/><g class="errorbars"/><g class="lines"><path class="js-line" d="M0,9.81L11.02,39.8L22.04,40.36L44.08,42.24L55.1,42.47L66.12,42.61L77.14,44.06L88.16,42.96L99.18,43.76L110.2,42.11L121.22,42.33L132.24,41.04L143.27,41.24L154.29,40.67L165.31,38.83L176.33,36.34L187.35,35.48L198.37,34.26L209.39,34.07L220.41,32.87L231.43,32.54L242.45,36.08L253.47,35.85L264.49,39.45L275.51,41.66L286.53,44.02L297.55,44.77L308.57,48.8L319.59,51.46L330.61,52.99L341.63,57.65L352.65,62.54L363.67,65.81L374.69,73.74L385.71,80.27L396.73,91.09L407.76,99.25L429.8,115.15L440.82,121.46L451.84,126.19L462.86,129.53L517.96,139.62L528.98,141.45L540,142.88" style="vector-effect: non-scaling-stroke; fill: none; stroke: rgb(0, 204, 150); stroke-opacity: 1; stroke-width: 2px; opacity: 1;"/></g><g class="points"/><g class="text"/></g><g class="trace scatter tracee1b1e3" style="stroke-miterlimit: 2; opacity: 1;"><g class="fills"/><g class="errorbars"/><g class="lines"><path class="js-line" d="M0,4.05L11.02,35.14L22.04,38.67L44.08,41.23L55.1,42.06L66.12,43.89L77.14,43.85L99.18,44.67L110.2,43.62L121.22,41.73L132.24,44.27L143.27,45.71L154.29,46.2L165.31,45.78L176.33,48.81L187.35,51.4L198.37,58.02L220.41,64.42L231.43,69.11L242.45,72.35L253.47,79.28L264.49,81.26L275.51,87.17L286.53,86.63L297.55,94.31L308.57,97.35L319.59,103.1L330.61,105.01L341.63,110.28L352.65,113.73L363.67,118.83L385.71,129.02L396.73,134.15L407.76,138.17L418.78,144.99L440.82,155.84L451.84,158.64L528.98,170.33L540,171.6" style="vector-effect: non-scaling-stroke; fill: none; stroke: rgb(171, 99, 250); stroke-opacity: 1; stroke-width: 2px; opacity: 1;"/></g><g class="points"/><g class="text"/></g><g class="trace scatter tracea09934" style="stroke-miterlimit: 2; opacity: 1;"><g class="fills"/><g class="errorbars"/><g class="lines"><path class="js-line" d="M0,4.57L11.02,35.14L22.04,38.44L44.08,41.61L55.1,42.19L77.14,44.8L88.16,44.09L110.2,43.98L121.22,42.56L143.27,43.34L154.29,42.08L176.33,42.89L187.35,42.25L198.37,44.75L209.39,42.97L220.41,44.38L231.43,49.72L242.45,53.15L253.47,64.7L264.49,73.95L275.51,80.66L286.53,82.6L297.55,91.55L308.57,95.9L319.59,107.21L330.61,118.09L341.63,131.88L352.65,148.38L363.67,161L396.73,193.42L407.76,202.08L429.8,221.37L440.82,228.99L451.84,234.16L462.86,236.78L484.9,242.71L495.92,244.31L517.96,249.03L528.98,251.01L540,253.04" style="vector-effect: non-scaling-stroke; fill: none; stroke: rgb(255, 161, 90); stroke-opacity: 1; stroke-width: 2px; opacity: 1;"/></g><g class="points"/><g class="text"/></g><g class="trace scatter traced5d965" style="stroke-miterlimit: 2; opacity: 1;"><g class="fills"/><g class="errorbars"/><g class="lines"><path class="js-line" d="M0,4.52L11.02,35.21L22.04,38.6L44.08,41.22L55.1,41.89L66.12,43.88L77.14,43.42L88.16,43.37L99.18,44.93L110.2,42.97L121.22,42.55L132.24,44.47L143.27,44.11L154.29,45.25L165.31,44.99L187.35,44.42L198.37,46.95L220.41,52.5L231.43,59.75L242.45,62.86L253.47,72.61L264.49,75.46L275.51,82.09L286.53,84.54L297.55,92.14L308.57,99.04L319.59,114.83L330.61,125.52L341.63,137.73L352.65,153.77L363.67,164.56L374.69,176.36L385.71,184.24L396.73,193.54L407.76,201.69L429.8,220.67L440.82,227.69L451.84,233.02L462.86,235.03L473.88,238.56L484.9,241.29L495.92,243.05L506.94,246.14L540,251.73" style="vector-effect: non-scaling-stroke; fill: none; stroke: rgb(25, 211, 243); stroke-opacity: 1; stroke-width: 2px; opacity: 1;"/></g><g class="points"/><g class="text"/></g><g class="trace scatter trace65fc4e" style="stroke-miterlimit: 2; opacity: 1;"><g class="fills"/><g class="errorbars"/><g class="lines"><path class="js-line" d="M0,4.1L11.02,34.73L22.04,38.6L44.08,41.58L55.1,41.97L77.14,44.31L88.16,43.77L99.18,44.8L110.2,44.18L121.22,42.52L132.24,42.41L143.27,41.47L154.29,44.45L176.33,44.16L187.35,42.5L198.37,44.92L209.39,44.2L220.41,45.17L231.43,47.5L253.47,66.05L264.49,70.83L275.51,78.54L286.53,81.82L297.55,89.41L308.57,93.83L319.59,99.56L330.61,104.12L363.67,116.77L374.69,123.4L407.76,137.49L418.78,144.28L440.82,155.04L451.84,158.56L473.88,161.74L484.9,163.2L517.96,167.8L528.98,169.46L540,170.61" style="vector-effect: non-scaling-stroke; fill: none; stroke: rgb(255, 102, 146); stroke-opacity: 1; stroke-width: 2px; opacity: 1;"/></g><g class="points"/><g class="text"/></g><g class="trace scatter tracefcffdf" style="stroke-miterlimit: 2; opacity: 1;"><g class="fills"/><g class="errorbars"/><g class="lines"><path class="js-line" d="M0,11.07L11.02,40.04L22.04,40.79L33.06,41.27L44.08,42.72L55.1,41.77L66.12,42.35L77.14,43.31L88.16,43.04L99.18,42.74L110.2,41.33L121.22,42.75L132.24,41.24L143.27,41.39L154.29,40.34L165.31,38.01L176.33,37.57L198.37,37.26L209.39,34.7L220.41,32.39L231.43,33.98L242.45,37.47L253.47,39.6L264.49,42.23L275.51,43.93L286.53,46L297.55,51.72L308.57,58.57L319.59,60.62L330.61,72.28L341.63,80.62L363.67,89.71L374.69,98.38L396.73,112.41L407.76,117.83L418.78,124.95L429.8,130.67L440.82,137.35L451.84,141.73L495.92,153.7L506.94,156.33L528.98,160.95L540,163.02" style="vector-effect: non-scaling-stroke; fill: none; stroke: rgb(182, 232, 128); stroke-opacity: 1; stroke-width: 2px; opacity: 1;"/></g><g class="points"/><g class="text"/></g><g class="trace scatter trace8b863d" style="stroke-miterlimit: 2; opacity: 1;"><g class="fills"/><g class="errorbars"/><g class="lines"><path class="js-line" d="M0,11.27L11.02,39.99L22.04,40.65L33.06,41.1L44.08,42.65L55.1,41.28L66.12,42.07L77.14,43.17L88.16,42.28L121.22,42.01L132.24,40.87L143.27,41.08L154.29,40.02L165.31,36.98L176.33,36.27L187.35,36.36L198.37,34.1L220.41,32.5L231.43,32.57L242.45,34.15L253.47,37.5L264.49,38.95L275.51,41.52L297.55,44.7L308.57,47.92L319.59,48.94L330.61,53.22L341.63,57.87L352.65,60.91L363.67,65.89L374.69,74.09L385.71,79.17L396.73,86.93L407.76,94.52L418.78,103.39L440.82,117.08L451.84,122.25L473.88,128.27L484.9,130.33L506.94,134.31L517.96,136.23L540,139.2" style="vector-effect: non-scaling-stroke; fill: none; stroke: rgb(255, 151, 255); stroke-opacity: 1; stroke-width: 2px; opacity: 1;"/></g><g class="points"/><g class="text"/></g><g class="trace scatter trace954092" style="stroke-miterlimit: 2; opacity: 1;"><g class="fills"/><g class="errorbars"/><g class="lines"><path class="js-line" d="M0,4.59L11.02,34.89L22.04,38.44L77.14,43.88L88.16,43.54L110.2,43.9L121.22,42.36L154.29,43.28L165.31,42.48L176.33,43.04L187.35,40.98L198.37,42.84L209.39,38.96L220.41,38.67L231.43,42.96L253.47,48.01L264.49,52.57L275.51,57.72L286.53,59.02L297.55,70.6L308.57,76.41L319.59,85.68L330.61,89.48L341.63,98.15L352.65,109.25L363.67,127.17L374.69,143.49L396.73,173.65L407.76,184.37L429.8,206.52L440.82,214.34L451.84,219.89L462.86,222.77L484.9,229.15L495.92,231.01L517.96,236.19L528.98,238.31L540,240.13" style="vector-effect: non-scaling-stroke; fill: none; stroke: rgb(254, 203, 82); stroke-opacity: 1; stroke-width: 2px; opacity: 1;"/></g><g class="points"/><g class="text"/></g><g class="trace scatter trace1c7f46" style="stroke-miterlimit: 2; opacity: 1;"><g class="fills"/><g class="errorbars"/><g class="lines"><path class="js-line" d="M0,11.28L11.02,39.95L22.04,40.8L33.06,40.99L44.08,42.37L55.1,41.26L66.12,42.02L77.14,43.46L88.16,42.79L99.18,42.99L110.2,41.9L121.22,42.28L132.24,41.11L154.29,40.8L165.31,36.71L176.33,35.97L187.35,36.01L198.37,34.67L209.39,35.73L231.43,33.22L242.45,38L253.47,37.71L264.49,38.54L275.51,42.35L286.53,44.01L297.55,47.01L308.57,51.7L319.59,51.99L330.61,58.72L341.63,66.8L352.65,72.15L363.67,80.56L374.69,86.83L385.71,95.37L396.73,101.99L429.8,120.39L440.82,125.57L451.84,130.12L462.86,132.48L484.9,136.97L495.92,139.3L540,145.85" style="vector-effect: non-scaling-stroke; fill: none; stroke: rgb(99, 110, 250); stroke-opacity: 1; stroke-width: 2px; opacity: 1;"/></g><g class="points"/><g class="text"/></g><g class="trace scatter trace3d8a46" style="stroke-miterlimit: 2; opacity: 1;"><g class="fills"/><g class="errorbars"/><g class="lines"><path class="js-line" d="M0,11.21L11.02,39.95L22.04,40.98L33.06,40.94L44.08,42.34L55.1,41.61L66.12,42.01L77.14,43.23L88.16,42.36L99.18,43.63L110.2,41.26L121.22,42.77L132.24,40.69L143.27,40.78L154.29,39.67L165.31,38.93L176.33,36.47L187.35,36.55L198.37,35.54L231.43,30.51L242.45,35.94L253.47,37.93L264.49,38.72L308.57,45.79L319.59,48.57L330.61,51.7L341.63,53.57L363.67,62.54L374.69,68.13L385.71,75.44L396.73,83.67L407.76,90.1L418.78,99.03L429.8,107.19L440.82,114.06L451.84,119.83L462.86,123.53L473.88,127.41L484.9,130.45L517.96,138.29L528.98,139.95L540,141.91" style="vector-effect: non-scaling-stroke; fill: none; stroke: rgb(239, 85, 59); stroke-opacity: 1; stroke-width: 2px; opacity: 1;"/></g><g class="points"/><g class="text"/></g><g class="trace scatter trace6ae4d5" style="stroke-miterlimit: 2; opacity: 1;"><g class="fills"/><g class="errorbars"/><g class="lines"><path class="js-line" d="M0,4.52L11.02,35.13L22.04,38.84L55.1,41.88L66.12,43.61L77.14,43.97L88.16,43.55L99.18,44.03L110.2,43.44L121.22,43.26L132.24,44.17L143.27,42.95L154.29,44.23L165.31,44.04L176.33,45.27L187.35,44.16L198.37,46.97L209.39,46.78L220.41,48.81L231.43,52.91L242.45,60.69L253.47,69.17L264.49,75.65L275.51,82.76L286.53,95.46L297.55,121.9L308.57,137.22L319.59,153.8L330.61,161.91L363.67,191.74L374.69,199.66L385.71,207.37L396.73,216.44L407.76,223.7L418.78,232.5L440.82,246.61L451.84,251.97L506.94,264.13L517.96,265.97L540,269.94" style="vector-effect: non-scaling-stroke; fill: none; stroke: rgb(0, 204, 150); stroke-opacity: 1; stroke-width: 2px; opacity: 1;"/></g><g class="points"/><g class="text"/></g><g class="trace scatter trace135462" style="stroke-miterlimit: 2; opacity: 1;"><g class="fills"/><g class="errorbars"/><g class="lines"><path class="js-line" d="M0,4.55L11.02,34.83L22.04,38.23L44.08,40.96L55.1,41.18L66.12,43.39L77.14,43.44L99.18,44.58L110.2,44.07L121.22,43.25L132.24,43.93L143.27,42.9L154.29,46.01L165.31,45.8L176.33,46.55L187.35,48.41L198.37,51.07L209.39,53.27L220.41,58.89L231.43,69.8L242.45,71.02L264.49,90.96L275.51,107.01L286.53,121.24L297.55,140.91L308.57,152.71L319.59,165.93L341.63,181.24L352.65,191.05L363.67,200.9L374.69,209.59L396.73,225.53L407.76,233.7L418.78,240.48L429.8,249.81L440.82,256.74L451.84,262.12L495.92,272L506.94,274.4L540,280.64" style="vector-effect: non-scaling-stroke; fill: none; stroke: rgb(171, 99, 250); stroke-opacity: 1; stroke-width: 2px; opacity: 1;"/></g><g class="points"/><g class="text"/></g><g class="trace scatter trace1dae03" style="stroke-miterlimit: 2; opacity: 1;"><g class="fills"/><g class="errorbars"/><g class="lines"><path class="js-line" d="M0,4.44L11.02,34.77L22.04,38.43L44.08,41.31L55.1,41.93L66.12,43.47L77.14,44.19L110.2,44.15L121.22,42.45L132.24,44.19L143.27,44.65L165.31,45.39L176.33,45.59L187.35,48.41L198.37,49.33L220.41,57.5L231.43,63.51L242.45,70.11L253.47,78.14L264.49,83.21L275.51,86.93L286.53,89.43L297.55,95.44L308.57,99.24L319.59,105.56L330.61,107.61L341.63,114.77L352.65,123.38L363.67,137.09L374.69,146.66L385.71,162.54L396.73,175.42L407.76,186.26L429.8,207.39L440.82,216.51L451.84,221.86L462.86,224.68L473.88,228.21L484.9,230.93L517.96,237.68L528.98,240.48L540,241.98" style="vector-effect: non-scaling-stroke; fill: none; stroke: rgb(255, 161, 90); stroke-opacity: 1; stroke-width: 2px; opacity: 1;"/></g><g class="points"/><g class="text"/></g><g class="trace scatter trace3c9238" style="stroke-miterlimit: 2; opacity: 1;"><g class="fills"/><g class="errorbars"/><g class="lines"><path class="js-line" d="M0,4.5L11.02,34.9L22.04,38.42L55.1,42.38L66.12,43.64L110.2,43.58L121.22,42.6L132.24,42.77L143.27,44.43L154.29,43.73L165.31,44.56L176.33,45.62L187.35,44.75L198.37,47.53L209.39,45.87L220.41,50.64L231.43,54.3L242.45,57.21L253.47,66.05L275.51,77.38L286.53,81.86L297.55,89.21L308.57,93.89L319.59,99.44L330.61,101.52L385.71,127.95L396.73,132.95L407.76,138.57L418.78,145.07L429.8,149.87L440.82,156.13L451.84,159.34L462.86,161.29L495.92,166.65L506.94,168.18L540,172.56" style="vector-effect: non-scaling-stroke; fill: none; stroke: rgb(25, 211, 243); stroke-opacity: 1; stroke-width: 2px; opacity: 1;"/></g><g class="points"/><g class="text"/></g><g class="trace scatter tracebe1798" style="stroke-miterlimit: 2; opacity: 1;"><g class="fills"/><g class="errorbars"/><g class="lines"><path class="js-line" d="M0,4.55L11.02,34.96L22.04,38.48L33.06,40.46L44.08,40.72L55.1,42.5L66.12,43.27L99.18,44.3L110.2,43.52L121.22,41.33L132.24,42.31L143.27,42.7L154.29,41.21L165.31,42.28L176.33,42.29L187.35,40.82L198.37,40.63L209.39,38.55L220.41,37.9L231.43,39.59L242.45,43.01L253.47,44.85L264.49,53.3L286.53,67.96L297.55,80.04L308.57,86.49L319.59,91.98L330.61,96.51L341.63,102.15L352.65,106.55L363.67,113.57L374.69,117.39L385.71,123.31L396.73,128.48L407.76,134.82L429.8,146.9L440.82,152.92L451.84,156.68L462.86,158.72L484.9,163.48L495.92,164.79L506.94,167.54L517.96,168.97L540,172.29" style="vector-effect: non-scaling-stroke; fill: none; stroke: rgb(255, 102, 146); stroke-opacity: 1; stroke-width: 2px; opacity: 1;"/></g><g class="points"/><g class="text"/></g><g class="trace scatter tracea514f9" style="stroke-miterlimit: 2; opacity: 1;"><g class="fills"/><g class="errorbars"/><g class="lines"><path class="js-line" d="M0,4.3L11.02,34.92L22.04,38.56L33.06,39.79L44.08,40.18L66.12,43.42L77.14,43.15L99.18,44L110.2,43.51L121.22,41.93L132.24,42.64L154.29,43.42L165.31,42.71L176.33,44.08L187.35,43.1L198.37,45.23L209.39,45.13L231.43,50.79L242.45,61.15L264.49,74.92L275.51,79.44L286.53,82.01L297.55,89.56L308.57,93.39L319.59,101.29L330.61,107.83L341.63,118.11L363.67,153.11L374.69,165.06L385.71,178.07L396.73,187.34L407.76,196.67L418.78,204.85L440.82,222.97L451.84,228.21L473.88,234.19L484.9,237.03L540,248.39" style="vector-effect: non-scaling-stroke; fill: none; stroke: rgb(182, 232, 128); stroke-opacity: 1; stroke-width: 2px; opacity: 1;"/></g><g class="points"/><g class="text"/></g><g class="trace scatter tracea2448b" style="stroke-miterlimit: 2; opacity: 1;"><g class="fills"/><g class="errorbars"/><g class="lines"><path class="js-line" d="M0,4L11.02,34.92L22.04,38.51L66.12,43.58L77.14,44.48L88.16,43.95L99.18,45.15L110.2,43.71L121.22,43.19L132.24,45.77L143.27,45.34L154.29,47.31L165.31,47.21L176.33,48.27L187.35,48.52L198.37,50.92L209.39,51.15L220.41,53.2L231.43,64.25L242.45,78.69L253.47,98.5L264.49,116.44L275.51,131.37L286.53,140.86L297.55,153.52L319.59,174.67L330.61,182.78L341.63,188.61L352.65,199.45L363.67,208.65L374.69,214.77L385.71,224.15L396.73,232.23L418.78,249.47L429.8,257.04L440.82,264.82L451.84,269.91L495.92,280.63L506.94,283.03L540,288.73" style="vector-effect: non-scaling-stroke; fill: none; stroke: rgb(255, 151, 255); stroke-opacity: 1; stroke-width: 2px; opacity: 1;"/></g><g class="points"/><g class="text"/></g><g class="trace scatter trace924c4f" style="stroke-miterlimit: 2; opacity: 1;"><g class="fills"/><g class="errorbars"/><g class="lines"><path class="js-line" d="M0,4.57L11.02,35.08L22.04,38.63L77.14,44.83L88.16,43.53L99.18,44.76L110.2,43.8L121.22,42.23L132.24,43.76L143.27,43.17L154.29,44.73L198.37,48.3L209.39,49.73L220.41,51.08L231.43,59.9L242.45,63.6L253.47,74.19L264.49,76.72L275.51,83.35L286.53,85.08L297.55,91.12L308.57,97.91L319.59,103.45L330.61,106.95L341.63,119.57L352.65,136.96L363.67,151.94L374.69,164.74L385.71,174.87L396.73,186.88L407.76,194.29L429.8,212.79L440.82,219.92L451.84,225.45L462.86,227.51L473.88,231.28L484.9,233.81L540,244.56" style="vector-effect: non-scaling-stroke; fill: none; stroke: rgb(254, 203, 82); stroke-opacity: 1; stroke-width: 2px; opacity: 1;"/></g><g class="points"/><g class="text"/></g><g class="trace scatter tracea70cf1" style="stroke-miterlimit: 2; opacity: 1;"><g class="fills"/><g class="errorbars"/><g class="lines"><path class="js-line" d="M0,4.41L11.02,34.56L22.04,38.35L44.08,40.88L55.1,41.94L77.14,44.06L88.16,42.55L99.18,43.73L110.2,42.54L121.22,41.22L132.24,43.38L143.27,42.17L154.29,43.14L176.33,43.83L187.35,42.59L198.37,44.84L209.39,44.79L220.41,46.5L231.43,51.63L242.45,57.02L253.47,68.56L264.49,72.02L275.51,78.27L286.53,79.24L297.55,87.75L308.57,91.45L319.59,97.62L341.63,105.18L352.65,109.37L396.73,130.89L407.76,135.13L429.8,147.23L440.82,151.99L451.84,154.97L462.86,156.46L484.9,160.6L495.92,162.31L540,167.92" style="vector-effect: non-scaling-stroke; fill: none; stroke: rgb(99, 110, 250); stroke-opacity: 1; stroke-width: 2px; opacity: 1;"/></g><g class="points"/><g class="text"/></g><g class="trace scatter trace0ca110" style="stroke-miterlimit: 2; opacity: 1;"><g class="fills"/><g class="errorbars"/><g class="lines"><path class="js-line" d="M0,10.9L11.02,39.95L22.04,40.92L33.06,40.57L44.08,42.49L55.1,41.52L66.12,42.14L77.14,42.92L88.16,41.93L99.18,42.74L110.2,42.6L132.24,40.04L143.27,39.76L154.29,40.6L165.31,36.19L176.33,36.7L187.35,35.24L198.37,34.26L209.39,34.04L220.41,32.46L231.43,32.95L253.47,37.57L264.49,38.97L275.51,39.69L286.53,42.33L297.55,44.74L308.57,49.38L319.59,49.4L330.61,53.48L341.63,59.28L352.65,67.04L385.71,93.67L396.73,101.83L440.82,127.85L451.84,131.87L473.88,136.93L484.9,139.19L540,147.56" style="vector-effect: non-scaling-stroke; fill: none; stroke: rgb(239, 85, 59); stroke-opacity: 1; stroke-width: 2px; opacity: 1;"/></g><g class="points"/><g class="text"/></g><g class="trace scatter trace3ae65d" style="stroke-miterlimit: 2; opacity: 1;"><g class="fills"/><g class="errorbars"/><g class="lines"><path class="js-line" d="M0,5.04L11.02,34.84L22.04,38.8L33.06,39.43L44.08,40.83L55.1,41.73L66.12,43.53L99.18,44.28L110.2,43.27L121.22,42.58L132.24,43.24L143.27,42.1L154.29,42.22L165.31,41.64L176.33,44.4L187.35,41.52L198.37,40.45L209.39,40.75L220.41,39.25L231.43,42.12L242.45,46.02L253.47,49.51L264.49,59.44L275.51,66.72L286.53,72.01L297.55,81.57L308.57,86.36L319.59,93.61L330.61,97.98L352.65,108.73L363.67,115.46L374.69,121.55L385.71,130.98L396.73,146.06L407.76,163.56L429.8,187.9L440.82,196.91L451.84,203.98L462.86,207.91L473.88,212.29L484.9,215.44L528.98,225.46L540,227.51" style="vector-effect: non-scaling-stroke; fill: none; stroke: rgb(0, 204, 150); stroke-opacity: 1; stroke-width: 2px; opacity: 1;"/></g><g class="points"/><g class="text"/></g><g class="trace scatter trace0a10ac" style="stroke-miterlimit: 2; opacity: 1;"><g class="fills"/><g class="errorbars"/><g class="lines"><path class="js-line" d="M0,11.12L11.02,40.06L22.04,40.75L44.08,42.36L55.1,41.57L77.14,43.51L88.16,42.91L99.18,43.62L110.2,42.45L143.27,40.58L154.29,40.33L176.33,36.56L187.35,36.22L198.37,34.89L209.39,34.37L220.41,31.19L231.43,33.2L253.47,38.08L264.49,38.12L275.51,42.14L286.53,44.53L308.57,50.32L319.59,51.43L330.61,56.29L341.63,62.33L352.65,67.7L363.67,72.21L385.71,90.43L396.73,100.16L418.78,116.07L429.8,123.13L440.82,128.89L451.84,133.14L484.9,140.23L495.92,141.97L540,148.6" style="vector-effect: non-scaling-stroke; fill: none; stroke: rgb(171, 99, 250); stroke-opacity: 1; stroke-width: 2px; opacity: 1;"/></g><g class="points"/><g class="text"/></g><g class="trace scatter tracefcb8fe" style="stroke-miterlimit: 2; opacity: 1;"><g class="fills"/><g class="errorbars"/><g class="lines"><path class="js-line" d="M0,11.15L11.02,40.09L22.04,40.84L33.06,41.13L44.08,42.6L55.1,41.58L66.12,41.86L77.14,43.34L88.16,42.75L143.27,41.74L154.29,41.13L165.31,37.88L176.33,36.59L198.37,36.94L209.39,34.38L220.41,32.55L231.43,34.44L242.45,38.71L253.47,39.38L264.49,43.73L275.51,45.57L286.53,48.07L297.55,56.9L308.57,67.24L319.59,71.14L352.65,90.5L363.67,95.01L374.69,101.74L385.71,107.55L396.73,114.11L407.76,119.58L418.78,125.27L429.8,131.98L440.82,137.27L451.84,140.98L484.9,147.23L495.92,149L540,155.06" style="vector-effect: non-scaling-stroke; fill: none; stroke: rgb(255, 161, 90); stroke-opacity: 1; stroke-width: 2px; opacity: 1;"/></g><g class="points"/><g class="text"/></g><g class="trace scatter trace13fdbc" style="stroke-miterlimit: 2; opacity: 1;"><g class="fills"/><g class="errorbars"/><g class="lines"><path class="js-line" d="M0,4.57L11.02,35.08L22.04,38.63L77.14,44.83L88.16,43.53L99.18,44.76L110.2,43.8L121.22,42.23L132.24,43.76L143.27,43.17L154.29,44.73L198.37,48.3L209.39,49.73L220.41,51.08L231.43,59.9L242.45,63.6L253.47,74.19L264.49,76.72L275.51,83.35L286.53,85.08L297.55,91.12L308.57,97.91L319.59,103.45L330.61,106.95L341.63,119.57L352.65,136.96L363.67,151.94L374.69,164.74L385.71,174.87L396.73,186.88L407.76,194.29L429.8,212.78L440.82,219.93L451.84,225.41L462.86,227.44L473.88,231.24L484.9,233.78L517.96,240.45L528.98,242.82L540,244.52" style="vector-effect: non-scaling-stroke; fill: none; stroke: rgb(25, 211, 243); stroke-opacity: 1; stroke-width: 2px; opacity: 1;"/></g><g class="points"/><g class="text"/></g><g class="trace scatter tracee26fd1" style="stroke-miterlimit: 2; opacity: 1;"><g class="fills"/><g class="errorbars"/><g class="lines"><path class="js-line" d="M0,4.57L11.02,35.08L22.04,38.63L77.14,44.83L88.16,43.53L99.18,44.76L110.2,43.8L121.22,42.23L132.24,43.76L143.27,43.17L154.29,44.73L198.37,48.3L209.39,49.73L220.41,51.08L231.43,59.9L242.45,63.6L253.47,74.19L264.49,76.72L275.51,83.35L286.53,85.08L297.55,91.12L308.57,97.91L319.59,103.45L330.61,106.95L341.63,119.57L352.65,136.96L363.67,151.94L374.69,164.74L385.71,174.87L396.73,186.88L407.76,194.29L429.8,212.78L440.82,219.93L451.84,225.41L462.86,227.44L473.88,231.24L484.9,233.78L517.96,240.44L528.98,242.83L540,244.52" style="vector-effect: non-scaling-stroke; fill: none; stroke: rgb(255, 102, 146); stroke-opacity: 1; stroke-width: 2px; opacity: 1;"/></g><g class="points"/><g class="text"/></g><g class="trace scatter trace853d24" style="stroke-miterlimit: 2; opacity: 1;"><g class="fills"/><g class="errorbars"/><g class="lines"><path class="js-line" d="M0,4.42L11.02,34.88L22.04,38.47L44.08,41.02L55.1,42.05L66.12,43.45L77.14,43.44L88.16,43.75L99.18,44.92L121.22,42.6L132.24,42.37L176.33,44.85L187.35,42.67L198.37,44.67L209.39,43.46L220.41,42.07L231.43,47.05L242.45,52.34L253.47,60.86L264.49,65.86L275.51,74.44L286.53,76.92L297.55,86.03L308.57,91.28L319.59,100.38L330.61,107.09L341.63,120.78L352.65,138.38L363.67,153.99L374.69,167.73L385.71,179.18L429.8,216.27L440.82,223.3L451.84,228.86L462.86,231.46L473.88,234.65L484.9,236.98L528.98,246.27L540,247.89" style="vector-effect: non-scaling-stroke; fill: none; stroke: rgb(182, 232, 128); stroke-opacity: 1; stroke-width: 2px; opacity: 1;"/></g><g class="points"/><g class="text"/></g><g class="trace scatter tracef1c966" style="stroke-miterlimit: 2; opacity: 1;"><g class="fills"/><g class="errorbars"/><g class="lines"><path class="js-line" d="M0,4.79L11.02,34.67L22.04,38.68L55.1,41.54L66.12,43.67L110.2,43.96L121.22,43.36L165.31,44.78L176.33,44.57L198.37,47.77L209.39,49.85L220.41,56.14L231.43,64.63L242.45,68.42L253.47,76.9L264.49,79.58L275.51,85.74L286.53,88.64L297.55,98.28L308.57,113.77L319.59,134.87L330.61,149.4L341.63,157.17L352.65,170.9L363.67,182.45L385.71,197.89L396.73,207.79L418.78,223.05L429.8,233.58L451.84,245.61L462.86,247.75L484.9,253.51L495.92,256.11L506.94,258.82L517.96,260.37L540,264.85" style="vector-effect: non-scaling-stroke; fill: none; stroke: rgb(255, 151, 255); stroke-opacity: 1; stroke-width: 2px; opacity: 1;"/></g><g class="points"/><g class="text"/></g><g class="trace scatter tracea2bab5" style="stroke-miterlimit: 2; opacity: 1;"><g class="fills"/><g class="errorbars"/><g class="lines"><path class="js-line" d="M0,4.59L11.02,35.13L22.04,38.61L44.08,41.21L55.1,42.16L88.16,44.41L99.18,43.95L110.2,43.73L121.22,42.21L165.31,42.72L176.33,42.49L187.35,41.66L198.37,43L209.39,41.46L220.41,43.58L242.45,54.76L253.47,63.98L264.49,72.13L275.51,75.87L286.53,73.84L297.55,85.58L308.57,88.21L319.59,95.33L330.61,98.89L341.63,104.15L363.67,113.47L374.69,119.51L385.71,125L396.73,129.59L407.76,135.38L418.78,143.04L429.8,147.38L440.82,153.62L451.84,157.24L462.86,158.87L484.9,162.37L495.92,164.18L528.98,169.23L540,170.57" style="vector-effect: non-scaling-stroke; fill: none; stroke: rgb(254, 203, 82); stroke-opacity: 1; stroke-width: 2px; opacity: 1;"/></g><g class="points"/><g class="text"/></g><g class="trace scatter trace7c1a6d" style="stroke-miterlimit: 2; opacity: 1;"><g class="fills"/><g class="errorbars"/><g class="lines"><path class="js-line" d="M0,11.07L11.02,40.04L22.04,40.7L33.06,41.25L44.08,42.59L55.1,41.68L66.12,42.62L77.14,44.04L88.16,43.86L99.18,43.57L110.2,41.62L121.22,43.02L132.24,41.2L143.27,40.03L154.29,40.66L176.33,35.25L187.35,35.72L198.37,35.78L209.39,32L220.41,33.71L231.43,31.49L242.45,35.65L253.47,37.66L264.49,39.06L275.51,38.92L308.57,45.19L319.59,48.84L352.65,57.49L363.67,62.89L374.69,67.94L385.71,74L407.76,84.09L418.78,92.28L429.8,98.62L440.82,103.81L451.84,108.38L462.86,110.43L484.9,115.79L495.92,117.25L517.96,121.61L528.98,123.4L540,125.35" style="vector-effect: non-scaling-stroke; fill: none; stroke: rgb(99, 110, 250); stroke-opacity: 1; stroke-width: 2px; opacity: 1;"/></g><g class="points"/><g class="text"/></g><g class="trace scatter tracecb010c" style="stroke-miterlimit: 2; opacity: 1;"><g class="fills"/><g class="errorbars"/><g class="lines"><path class="js-line" d="M0,4.57L11.02,35.08L22.04,38.56L77.14,44.61L88.16,43.9L110.2,43.9L121.22,41.75L132.24,43.05L143.27,43.24L154.29,43.61L165.31,41.87L176.33,45.53L187.35,42.98L198.37,44.12L209.39,42.06L231.43,48.49L242.45,57.53L253.47,66.41L264.49,71.92L275.51,79.76L286.53,81.84L297.55,89.97L308.57,95.07L330.61,103.93L341.63,111.33L352.65,124.09L363.67,139.32L385.71,166.98L396.73,178.76L429.8,209.18L440.82,217.37L451.84,223.61L462.86,226.57L484.9,232.47L495.92,234.61L506.94,237.65L517.96,239.28L528.98,241.94L540,243.7" style="vector-effect: non-scaling-stroke; fill: none; stroke: rgb(239, 85, 59); stroke-opacity: 1; stroke-width: 2px; opacity: 1;"/></g><g class="points"/><g class="text"/></g><g class="trace scatter trace3a3e36" style="stroke-miterlimit: 2; opacity: 1;"><g class="fills"/><g class="errorbars"/><g class="lines"><path class="js-line" d="M0,4.11L11.02,34.95L22.04,38.15L33.06,39.97L44.08,40.89L55.1,41.96L66.12,44.08L110.2,43.47L121.22,41.36L132.24,41.62L143.27,42.76L154.29,42.75L165.31,41.6L176.33,41.75L187.35,40.27L198.37,40.18L209.39,38.08L220.41,37.61L231.43,38.7L242.45,40.12L253.47,43.45L264.49,45.99L275.51,50.86L286.53,51.55L297.55,56.21L308.57,62.93L319.59,73.31L330.61,85.76L341.63,99.92L352.65,121.83L363.67,140.93L374.69,156.99L385.71,170.31L396.73,182.87L407.76,191.79L418.78,201.57L429.8,212.68L440.82,220.4L451.84,226.5L473.88,231.87L484.9,234.99L517.96,241.83L528.98,244.08L540,245.66" style="vector-effect: non-scaling-stroke; fill: none; stroke: rgb(0, 204, 150); stroke-opacity: 1; stroke-width: 2px; opacity: 1;"/></g><g class="points"/><g class="text"/></g><g class="trace scatter trace08523c" style="stroke-miterlimit: 2; opacity: 1;"><g class="fills"/><g class="errorbars"/><g class="lines"><path class="js-line" d="M0,11.08L11.02,39.77L22.04,40.52L66.12,41.75L77.14,42.89L88.16,42.41L99.18,42.79L110.2,41.46L121.22,41.43L132.24,40.86L143.27,39.22L154.29,39.54L165.31,38.1L176.33,36.13L187.35,35.75L231.43,30.6L242.45,34L253.47,36.83L264.49,37.2L275.51,38.44L286.53,40.56L308.57,45.96L319.59,46.78L374.69,60.64L385.71,64.12L396.73,69.15L407.76,72.77L429.8,83.25L440.82,87.46L451.84,91L462.86,92.85L528.98,102.6L540,103.83" style="vector-effect: non-scaling-stroke; fill: none; stroke: rgb(171, 99, 250); stroke-opacity: 1; stroke-width: 2px; opacity: 1;"/></g><g class="points"/><g class="text"/></g><g class="trace scatter trace7755af" style="stroke-miterlimit: 2; opacity: 1;"><g class="fills"/><g class="errorbars"/><g class="lines"><path class="js-line" d="M0,4.54L11.02,34.81L22.04,38.64L44.08,40.81L55.1,41.02L66.12,42.97L77.14,43.16L99.18,43.71L110.2,44.43L121.22,41.61L132.24,43.13L143.27,42.36L154.29,43.24L176.33,44.81L187.35,44.59L198.37,46.8L209.39,46.55L220.41,47.58L231.43,58.73L242.45,64.18L253.47,74.07L264.49,77.2L275.51,81.87L286.53,86.29L297.55,92.39L308.57,94.73L319.59,100.3L330.61,103.06L341.63,108.5L352.65,114.34L363.67,118.09L374.69,124.77L385.71,132.81L396.73,143.92L407.76,157.71L429.8,182.69L440.82,192.12L451.84,199.05L462.86,202.86L484.9,210.23L495.92,213.06L517.96,218.59L528.98,221.53L540,223.33" style="vector-effect: non-scaling-stroke; fill: none; stroke: rgb(255, 161, 90); stroke-opacity: 1; stroke-width: 2px; opacity: 1;"/></g><g class="points"/><g class="text"/></g><g class="trace scatter trace672d28" style="stroke-miterlimit: 2; opacity: 1;"><g class="fills"/><g class="errorbars"/><g class="lines"><path class="js-line" d="M0,11.28L11.02,39.95L22.04,40.8L33.06,41.02L44.08,42.36L55.1,41.45L66.12,41.73L77.14,43.22L88.16,42.69L121.22,42.73L132.24,40.31L154.29,40.1L165.31,38.61L176.33,34.78L187.35,37.64L209.39,33.46L220.41,33.05L231.43,34.71L242.45,35.47L253.47,37.72L264.49,38.41L275.51,39.54L286.53,42.44L319.59,48.86L330.61,52.33L363.67,61.93L374.69,65.76L385.71,70.88L396.73,77.82L407.76,83.97L418.78,93.33L440.82,107.76L451.84,113.08L473.88,120.37L484.9,123.23L528.98,131.64L540,133.49" style="vector-effect: non-scaling-stroke; fill: none; stroke: rgb(25, 211, 243); stroke-opacity: 1; stroke-width: 2px; opacity: 1;"/></g><g class="points"/><g class="text"/></g><g class="trace scatter trace130c13" style="stroke-miterlimit: 2; opacity: 1;"><g class="fills"/><g class="errorbars"/><g class="lines"><path class="js-line" d="M0,11.06L11.02,39.98L22.04,40.68L33.06,40.96L44.08,42.43L55.1,42.07L66.12,42.65L77.14,43.67L88.16,42.89L110.2,43.3L121.22,42.47L143.27,40.69L154.29,40.43L165.31,39.43L176.33,36.38L187.35,37.03L198.37,34.83L209.39,34.15L220.41,31.62L231.43,33.25L242.45,36.85L253.47,37.14L264.49,39.59L297.55,43.74L308.57,46.87L319.59,48.72L330.61,51.68L341.63,54.72L352.65,59.36L363.67,63.86L374.69,70.48L396.73,81.25L407.76,87.8L429.8,101.46L440.82,107.21L451.84,112.43L462.86,114.65L484.9,121.12L495.92,123.88L506.94,127.44L517.96,129.94L540,134.87" style="vector-effect: non-scaling-stroke; fill: none; stroke: rgb(255, 102, 146); stroke-opacity: 1; stroke-width: 2px; opacity: 1;"/></g><g class="points"/><g class="text"/></g><g class="trace scatter tracedaa026" style="stroke-miterlimit: 2; opacity: 1;"><g class="fills"/><g class="errorbars"/><g class="lines"><path class="js-line" d="M0,4.45L11.02,34.9L22.04,38.91L66.12,43.17L77.14,43.98L110.2,44.12L121.22,42.89L132.24,43.62L143.27,43L154.29,43.46L165.31,43.1L176.33,44.19L187.35,42.26L198.37,45.67L209.39,43.48L220.41,45.71L231.43,52.36L242.45,58.28L253.47,67.83L275.51,81.51L286.53,81.9L297.55,89.27L308.57,93.45L319.59,98.27L330.61,102.15L352.65,110.57L363.67,114.95L374.69,119.52L385.71,125.2L407.76,133.34L418.78,140.58L429.8,145L440.82,150.54L451.84,153.69L462.86,155.21L506.94,162.26L517.96,163.64L540,166.48" style="vector-effect: non-scaling-stroke; fill: none; stroke: rgb(182, 232, 128); stroke-opacity: 1; stroke-width: 2px; opacity: 1;"/></g><g class="points"/><g class="text"/></g><g class="trace scatter tracebd726d" style="stroke-miterlimit: 2; opacity: 1;"><g class="fills"/><g class="errorbars"/><g class="lines"><path class="js-line" d="M0,11.14L11.02,39.89L22.04,40.76L33.06,41.14L44.08,42.82L55.1,41.75L66.12,42.33L77.14,43.96L88.16,42.5L99.18,43.17L110.2,42.6L121.22,42.18L132.24,40.64L143.27,41.68L154.29,41.16L176.33,35.99L187.35,36.83L198.37,36.31L209.39,34.42L220.41,32.34L231.43,32.21L242.45,37.33L253.47,38.91L275.51,40.94L286.53,44.06L319.59,52.01L330.61,56.3L341.63,61.21L352.65,64.67L374.69,80.24L385.71,87.87L407.76,105.99L418.78,114.7L440.82,127.31L451.84,131.09L462.86,134.51L473.88,136.84L506.94,142.6L517.96,144.17L540,147.25" style="vector-effect: non-scaling-stroke; fill: none; stroke: rgb(255, 151, 255); stroke-opacity: 1; stroke-width: 2px; opacity: 1;"/></g><g class="points"/><g class="text"/></g><g class="trace scatter traceb38be7" style="stroke-miterlimit: 2; opacity: 1;"><g class="fills"/><g class="errorbars"/><g class="lines"><path class="js-line" d="M0,10.48L11.02,39.91L22.04,40.92L33.06,41.14L44.08,42.77L55.1,41.84L66.12,42.23L77.14,43.11L88.16,42.2L110.2,41.72L121.22,41.46L154.29,40.36L165.31,37.14L187.35,36.45L198.37,34.27L231.43,32.91L242.45,35.8L264.49,39.75L275.51,40.04L297.55,44.93L308.57,46.08L319.59,50.59L330.61,52.6L341.63,55.49L352.65,59.92L363.67,64.78L374.69,70.73L396.73,80.98L407.76,86.79L440.82,106.57L451.84,111.78L506.94,128.27L517.96,130.89L540,135.59" style="vector-effect: non-scaling-stroke; fill: none; stroke: rgb(254, 203, 82); stroke-opacity: 1; stroke-width: 2px; opacity: 1;"/></g><g class="points"/><g class="text"/></g><g class="trace scatter trace8c3e67" style="stroke-miterlimit: 2; opacity: 1;"><g class="fills"/><g class="errorbars"/><g class="lines"><path class="js-line" d="M0,4.57L11.02,35.08L22.04,38.69L44.08,41.48L55.1,41.77L66.12,43.51L77.14,43.94L99.18,44.26L110.2,43.84L121.22,42.19L132.24,43.96L154.29,45.7L165.31,45.3L176.33,49.32L187.35,49.58L198.37,57.09L209.39,59.92L220.41,63.17L231.43,67.35L242.45,69.16L253.47,79.9L264.49,82.18L275.51,86.76L286.53,87.56L297.55,95.15L319.59,105.36L330.61,111.33L341.63,121.29L352.65,135.28L374.69,165.22L385.71,177.56L396.73,188.22L407.76,197.19L418.78,204.88L429.8,213.88L440.82,221.32L451.84,226.77L462.86,228.21L473.88,231.15L484.9,234.12L495.92,235.74L506.94,238.56L517.96,239.87L540,243.82" style="vector-effect: non-scaling-stroke; fill: none; stroke: rgb(99, 110, 250); stroke-opacity: 1; stroke-width: 2px; opacity: 1;"/></g><g class="points"/><g class="text"/></g><g class="trace scatter tracee4bb6d" style="stroke-miterlimit: 2; opacity: 1;"><g class="fills"/><g class="errorbars"/><g class="lines"><path class="js-line" d="M0,2.41L11.02,33L22.04,38.41L33.06,41.01L44.08,42.69L55.1,43.17L66.12,45.1L99.18,46.46L110.2,44.32L121.22,43.74L132.24,45.34L143.27,44.78L154.29,45.15L165.31,44.21L176.33,44.58L198.37,43.64L209.39,44.22L220.41,43.78L231.43,45.69L242.45,51.2L253.47,55.26L264.49,60.6L275.51,67.16L286.53,73.1L297.55,82.44L308.57,88.22L319.59,95.18L330.61,98.47L341.63,104.51L352.65,108.26L363.67,114.35L374.69,119.2L385.71,125.38L396.73,128.6L407.76,134.45L418.78,140.62L429.8,145.85L440.82,151.42L451.84,154.72L540,167.81" style="vector-effect: non-scaling-stroke; fill: none; stroke: rgb(239, 85, 59); stroke-opacity: 1; stroke-width: 2px; opacity: 1;"/></g><g class="points"/><g class="text"/></g><g class="trace scatter tracec05137" style="stroke-miterlimit: 2; opacity: 1;"><g class="fills"/><g class="errorbars"/><g class="lines"><path class="js-line" d="M0,10.59L11.02,39.92L22.04,40.66L44.08,42.26L55.1,41.63L66.12,41.86L77.14,43.67L99.18,42.82L110.2,42.36L121.22,41.91L132.24,40.69L143.27,40.37L154.29,39.19L165.31,36.4L176.33,36.11L187.35,34.34L198.37,33.91L231.43,30.87L242.45,36.75L253.47,36.54L264.49,39.23L275.51,39.12L286.53,41.24L297.55,43.1L308.57,45.83L319.59,48.17L330.61,52.43L352.65,59.52L363.67,67.54L374.69,73.84L385.71,81.5L396.73,90.02L407.76,97.35L418.78,105.29L429.8,111.73L440.82,117.58L451.84,122.39L484.9,129.89L495.92,132.02L528.98,137.37L540,138.85" style="vector-effect: non-scaling-stroke; fill: none; stroke: rgb(0, 204, 150); stroke-opacity: 1; stroke-width: 2px; opacity: 1;"/></g><g class="points"/><g class="text"/></g><g class="trace scatter trace2d8f57" style="stroke-miterlimit: 2; opacity: 1;"><g class="fills"/><g class="errorbars"/><g class="lines"><path class="js-line" d="M0,3.34L11.02,34.74L22.04,38.29L33.06,39.29L44.08,41.83L55.1,42.12L66.12,43.67L77.14,43.85L88.16,42.82L99.18,44.77L110.2,44.1L121.22,42.4L132.24,44.48L143.27,43.03L154.29,45.36L176.33,47.76L187.35,47.4L209.39,52.28L220.41,55.89L231.43,67.56L242.45,69.21L253.47,76.91L264.49,82.79L286.53,101.77L297.55,119.5L308.57,135.43L319.59,148.68L330.61,157.98L341.63,163.17L352.65,176.67L363.67,186.04L396.73,208.37L407.76,216.51L429.8,232.72L440.82,239.38L451.84,244.96L462.86,247.04L495.92,254.29L506.94,256.39L540,262.13" style="vector-effect: non-scaling-stroke; fill: none; stroke: rgb(171, 99, 250); stroke-opacity: 1; stroke-width: 2px; opacity: 1;"/></g><g class="points"/><g class="text"/></g><g class="trace scatter tracef1913c" style="stroke-miterlimit: 2; opacity: 1;"><g class="fills"/><g class="errorbars"/><g class="lines"><path class="js-line" d="M0,4.42L11.02,34.97L22.04,38.76L66.12,43.3L77.14,43.27L88.16,42.8L99.18,44.18L110.2,42.37L121.22,41.74L143.27,42.6L154.29,41.64L187.35,42.39L198.37,42.49L220.41,38.88L231.43,41.29L242.45,47.11L253.47,55.68L275.51,68.43L286.53,73.99L297.55,83.41L308.57,88.49L319.59,96.07L330.61,97.92L363.67,114.67L374.69,121.14L385.71,125.89L396.73,132.42L407.76,137.62L418.78,143.71L429.8,150.21L440.82,155.64L451.84,159.4L462.86,161.43L495.92,167.56L506.94,169.48L528.98,172.77L540,174.46" style="vector-effect: non-scaling-stroke; fill: none; stroke: rgb(255, 161, 90); stroke-opacity: 1; stroke-width: 2px; opacity: 1;"/></g><g class="points"/><g class="text"/></g><g class="trace scatter trace1c788a" style="stroke-miterlimit: 2; opacity: 1;"><g class="fills"/><g class="errorbars"/><g class="lines"><path class="js-line" d="M0,11.07L11.02,40.06L22.04,40.55L44.08,42.12L55.1,40.97L77.14,43.82L88.16,43.33L99.18,42.47L110.2,42.64L143.27,40.84L154.29,39.57L176.33,35.8L187.35,35.71L198.37,35.7L209.39,33.61L220.41,31.75L231.43,33.46L242.45,36.55L253.47,36.88L264.49,38.01L275.51,40.16L286.53,41.29L297.55,44.92L308.57,46.39L319.59,49.27L352.65,57.32L363.67,62.15L385.71,73.23L396.73,81.49L407.76,88.13L418.78,97.12L440.82,112.61L451.84,118.74L484.9,127.47L495.92,129.7L528.98,135.79L540,137.35" style="vector-effect: non-scaling-stroke; fill: none; stroke: rgb(25, 211, 243); stroke-opacity: 1; stroke-width: 2px; opacity: 1;"/></g><g class="points"/><g class="text"/></g><g class="trace scatter tracec9cd5f" style="stroke-miterlimit: 2; opacity: 1;"><g class="fills"/><g class="errorbars"/><g class="lines"><path class="js-line" d="M0,4.57L11.02,35.22L22.04,38.24L44.08,41.08L55.1,42.21L77.14,44.58L88.16,43.95L110.2,44.23L121.22,42.51L165.31,43.04L176.33,44.96L187.35,44.46L198.37,49.16L209.39,51.98L220.41,57.81L231.43,63.63L242.45,66.58L253.47,74.91L264.49,77.63L275.51,83.64L286.53,84.19L297.55,93.28L308.57,93.66L319.59,99.81L330.61,104.52L341.63,108.44L352.65,114.59L363.67,122.38L374.69,133.98L396.73,171.35L407.76,182.95L418.78,193.01L429.8,204.73L440.82,212.36L451.84,218.92L462.86,221.24L473.88,225.35L506.94,232.64L517.96,234.6L528.98,237.29L540,239.05" style="vector-effect: non-scaling-stroke; fill: none; stroke: rgb(255, 102, 146); stroke-opacity: 1; stroke-width: 2px; opacity: 1;"/></g><g class="points"/><g class="text"/></g><g class="trace scatter trace29211b" style="stroke-miterlimit: 2; opacity: 1;"><g class="fills"/><g class="errorbars"/><g class="lines"><path class="js-line" d="M0,4.23L11.02,34.83L22.04,38.67L44.08,41.02L55.1,41.13L66.12,43.7L77.14,43.39L88.16,44.03L99.18,43.58L110.2,43.63L121.22,41.17L132.24,43.24L143.27,42L165.31,43.73L176.33,43.57L187.35,42.08L198.37,43.33L209.39,40.61L220.41,44.08L231.43,46.35L242.45,53.76L253.47,62.04L264.49,68.78L275.51,77L286.53,79.95L297.55,87.63L308.57,90.58L319.59,97.49L330.61,99.11L341.63,105.23L352.65,110.15L385.71,125.95L396.73,131.95L407.76,135.95L418.78,142.78L440.82,153.9L451.84,157.4L506.94,166.78L517.96,168.16L540,170.82" style="vector-effect: non-scaling-stroke; fill: none; stroke: rgb(182, 232, 128); stroke-opacity: 1; stroke-width: 2px; opacity: 1;"/></g><g class="points"/><g class="text"/></g><g class="trace scatter trace9e4a37" style="stroke-miterlimit: 2; opacity: 1;"><g class="fills"/><g class="errorbars"/><g class="lines"><path class="js-line" d="M0,4.26L11.02,35.06L22.04,38.08L44.08,41.52L55.1,41.25L66.12,43.53L77.14,43.62L88.16,43.27L99.18,44.07L110.2,44.25L121.22,42.33L132.24,43.02L143.27,42.86L165.31,41.74L176.33,42.39L198.37,40.15L209.39,39.06L220.41,39.51L231.43,41.81L242.45,44.18L253.47,51.25L264.49,58.19L275.51,70.19L286.53,68.68L297.55,77.29L330.61,102.24L341.63,111.96L352.65,129.91L363.67,144.61L385.71,169.66L396.73,182.8L407.76,192.38L418.78,203.33L429.8,213.02L440.82,221.18L451.84,226.64L462.86,229.47L484.9,235.61L495.92,237.6L506.94,240.58L517.96,242.28L528.98,244.88L540,246.56" style="vector-effect: non-scaling-stroke; fill: none; stroke: rgb(255, 151, 255); stroke-opacity: 1; stroke-width: 2px; opacity: 1;"/></g><g class="points"/><g class="text"/></g><g class="trace scatter trace892976" style="stroke-miterlimit: 2; opacity: 1;"><g class="fills"/><g class="errorbars"/><g class="lines"><path class="js-line" d="M0,4.55L11.02,34.9L22.04,38.65L77.14,44.02L88.16,42.62L99.18,44.32L110.2,42.8L121.22,42.43L132.24,43.45L143.27,41.84L154.29,42.15L165.31,42.45L176.33,41.74L187.35,39.89L198.37,42.55L209.39,40.94L220.41,42.1L231.43,45.6L242.45,50.82L253.47,62.55L264.49,68.89L275.51,76.05L286.53,79.67L297.55,87.4L308.57,92.18L319.59,97.81L330.61,98.65L363.67,115.51L374.69,120.11L407.76,135.26L418.78,141.7L440.82,153.52L451.84,157.24L473.88,161.68L484.9,163.78L528.98,171.36L540,172.71" style="vector-effect: non-scaling-stroke; fill: none; stroke: rgb(254, 203, 82); stroke-opacity: 1; stroke-width: 2px; opacity: 1;"/></g><g class="points"/><g class="text"/></g><g class="trace scatter trace5151a2" style="stroke-miterlimit: 2; opacity: 1;"><g class="fills"/><g class="errorbars"/><g class="lines"><path class="js-line" d="M0,10.84L11.02,39.81L22.04,40.91L33.06,40.94L44.08,42.36L55.1,41.4L66.12,42.14L77.14,42.95L88.16,42.26L99.18,42.6L110.2,41.63L121.22,43.34L132.24,41.23L154.29,40.88L165.31,38.02L176.33,36.33L187.35,36.74L209.39,33.45L220.41,33.32L231.43,31.87L242.45,35.96L253.47,37.25L264.49,40.45L275.51,41.58L286.53,43.84L319.59,51.67L330.61,56.03L341.63,59.47L352.65,64.28L363.67,69.72L374.69,77.38L396.73,92.62L407.76,99.56L418.78,108.31L429.8,114.71L440.82,122.14L451.84,125.59L473.88,130.85L484.9,133.37L528.98,140.62L540,141.94" style="vector-effect: non-scaling-stroke; fill: none; stroke: rgb(99, 110, 250); stroke-opacity: 1; stroke-width: 2px; opacity: 1;"/></g><g class="points"/><g class="text"/></g><g class="trace scatter trace7792d4" style="stroke-miterlimit: 2; opacity: 1;"><g class="fills"/><g class="errorbars"/><g class="lines"><path class="js-line" d="M0,11.13L11.02,40.01L22.04,40.89L33.06,40.93L44.08,42.37L55.1,41.2L66.12,42.21L77.14,42.93L88.16,42.07L99.18,42.45L110.2,41.32L121.22,42.74L132.24,40.32L143.27,39.43L154.29,39.73L165.31,39.12L176.33,35.86L187.35,36.42L198.37,34.4L209.39,34.92L220.41,33.05L231.43,31.93L242.45,36.33L253.47,37.84L264.49,38.17L286.53,42.81L297.55,44.53L330.61,52.31L341.63,57.24L352.65,62.12L363.67,69.68L374.69,81.38L385.71,90.08L396.73,98.72L407.76,106.07L418.78,113.54L429.8,120.05L440.82,125.84L451.84,130.04L495.92,139.27L506.94,140.99L540,145.64" style="vector-effect: non-scaling-stroke; fill: none; stroke: rgb(239, 85, 59); stroke-opacity: 1; stroke-width: 2px; opacity: 1;"/></g><g class="points"/><g class="text"/></g><g class="trace scatter trace8a62dc" style="stroke-miterlimit: 2; opacity: 1;"><g class="fills"/><g class="errorbars"/><g class="lines"><path class="js-line" d="M0,10.36L11.02,39.72L22.04,40.92L44.08,42.53L55.1,41.79L66.12,43.2L77.14,43.54L88.16,42.81L99.18,43.51L121.22,42.17L132.24,41.31L154.29,40.33L165.31,37.71L176.33,37.59L187.35,36.66L209.39,35.07L220.41,32.87L231.43,32.82L242.45,35.68L253.47,38.75L264.49,40.84L275.51,43.09L286.53,46.46L297.55,48.65L308.57,52.81L319.59,53.9L330.61,61.17L363.67,88.36L374.69,96.4L385.71,103.36L396.73,108.76L418.78,122.08L429.8,127.72L440.82,132.94L451.84,136.59L473.88,141.55L484.9,143.1L528.98,149.57L540,150.93" style="vector-effect: non-scaling-stroke; fill: none; stroke: rgb(0, 204, 150); stroke-opacity: 1; stroke-width: 2px; opacity: 1;"/></g><g class="points"/><g class="text"/></g><g class="trace scatter tracefcca99" style="stroke-miterlimit: 2; opacity: 1;"><g class="fills"/><g class="errorbars"/><g class="lines"><path class="js-line" d="M0,4.48L11.02,34.61L22.04,38.8L55.1,41.81L66.12,43.88L88.16,43.67L99.18,44.45L121.22,41.76L132.24,44.61L143.27,42.84L154.29,44.28L176.33,47.59L187.35,45.15L198.37,47.16L209.39,47.53L220.41,51.19L231.43,58.53L253.47,73.4L264.49,76.65L275.51,82.33L286.53,83.65L297.55,91.76L308.57,95.53L319.59,100.98L330.61,103.81L341.63,107.36L352.65,113.06L363.67,117.47L374.69,123.67L385.71,130.27L396.73,135.93L407.76,141.42L418.78,148.16L440.82,161.07L451.84,165.33L506.94,180.27L517.96,182.72L540,187.33" style="vector-effect: non-scaling-stroke; fill: none; stroke: rgb(171, 99, 250); stroke-opacity: 1; stroke-width: 2px; opacity: 1;"/></g><g class="points"/><g class="text"/></g><g class="trace scatter trace260d9b" style="stroke-miterlimit: 2; opacity: 1;"><g class="fills"/><g class="errorbars"/><g class="lines"><path class="js-line" d="M0,4.58L11.02,34.99L22.04,37.96L33.06,40.02L44.08,41.12L77.14,44.28L88.16,44.44L99.18,44.68L110.2,43.48L121.22,42.44L132.24,43.47L143.27,43.72L154.29,45.11L176.33,47.15L187.35,44.13L198.37,49.57L209.39,50.47L220.41,56.7L231.43,65.63L242.45,69.14L253.47,78.68L264.49,81.53L275.51,90.1L286.53,98.22L297.55,118.47L319.59,151.03L330.61,159.77L341.63,167.45L352.65,177.68L363.67,188.68L374.69,196.32L385.71,204.74L396.73,211.93L440.82,241.74L451.84,246.54L484.9,253.64L495.92,255.81L540,263.52" style="vector-effect: non-scaling-stroke; fill: none; stroke: rgb(255, 161, 90); stroke-opacity: 1; stroke-width: 2px; opacity: 1;"/></g><g class="points"/><g class="text"/></g><g class="trace scatter trace48ef0b" style="stroke-miterlimit: 2; opacity: 1;"><g class="fills"/><g class="errorbars"/><g class="lines"><path class="js-line" d="M0,4.03L11.02,34.92L22.04,38.64L44.08,41.23L55.1,41.38L66.12,43.87L77.14,43.2L99.18,44.19L110.2,42.47L132.24,43.18L143.27,44.15L165.31,43.54L176.33,44.91L187.35,42.33L198.37,46.97L209.39,46.03L220.41,49.75L231.43,54.92L242.45,58.83L275.51,75.58L286.53,77.44L297.55,86.3L308.57,88.77L319.59,95.82L330.61,97.88L407.76,134.48L418.78,141.13L440.82,152.19L451.84,156.29L473.88,160.12L484.9,161.93L506.94,165.57L517.96,167.19L540,170.22" style="vector-effect: non-scaling-stroke; fill: none; stroke: rgb(25, 211, 243); stroke-opacity: 1; stroke-width: 2px; opacity: 1;"/></g><g class="points"/><g class="text"/></g><g class="trace scatter trace211b75" style="stroke-miterlimit: 2; opacity: 1;"><g class="fills"/><g class="errorbars"/><g class="lines"><path class="js-line" d="M0,11.27L11.02,39.9L22.04,40.8L33.06,40.9L44.08,42.37L66.12,42.14L77.14,43.33L99.18,43.15L110.2,41.77L132.24,41.88L143.27,41.02L154.29,39.94L165.31,37.36L176.33,36.21L187.35,36.47L209.39,34.05L220.41,30.46L231.43,31.89L242.45,35.65L253.47,38.28L264.49,38.31L275.51,38.84L286.53,41.8L308.57,46.7L319.59,48.5L341.63,56.61L352.65,60.46L363.67,68.32L374.69,77.67L407.76,102.72L418.78,109.96L440.82,122.99L451.84,127.77L473.88,133.39L484.9,135.43L517.96,141.51L528.98,143.31L540,144.85" style="vector-effect: non-scaling-stroke; fill: none; stroke: rgb(255, 102, 146); stroke-opacity: 1; stroke-width: 2px; opacity: 1;"/></g><g class="points"/><g class="text"/></g><g class="trace scatter trace8eb94e" style="stroke-miterlimit: 2; opacity: 1;"><g class="fills"/><g class="errorbars"/><g class="lines"><path class="js-line" d="M0,4.18L11.02,34.55L22.04,38.7L33.06,39.35L44.08,41.05L77.14,43.56L88.16,43.43L110.2,43.89L121.22,42.42L132.24,43.83L143.27,43.37L154.29,44.51L165.31,43.55L176.33,47.25L187.35,44.93L198.37,47.12L209.39,46.53L231.43,54.93L242.45,61.69L264.49,73.46L275.51,80.48L286.53,82.11L297.55,90.08L308.57,93.62L319.59,100.38L341.63,108.83L352.65,113.03L374.69,124.54L385.71,130.99L407.76,149.08L418.78,162.99L429.8,177.95L440.82,191.57L451.84,199.82L462.86,204.72L473.88,209.92L484.9,213.71L517.96,222.91L528.98,225.73L540,227.43" style="vector-effect: non-scaling-stroke; fill: none; stroke: rgb(182, 232, 128); stroke-opacity: 1; stroke-width: 2px; opacity: 1;"/></g><g class="points"/><g class="text"/></g><g class="trace scatter trace146feb" style="stroke-miterlimit: 2; opacity: 1;"><g class="fills"/><g class="errorbars"/><g class="lines"><path class="js-line" d="M0,4.54L11.02,35L22.04,38.65L44.08,41.21L55.1,41.28L66.12,43.17L77.14,43.69L88.16,43.37L99.18,44.16L121.22,41.82L132.24,42.87L187.35,44.59L198.37,47.35L209.39,49.31L220.41,46.7L231.43,48.83L242.45,55.75L253.47,63.73L264.49,70.2L275.51,77L286.53,77.32L297.55,88.15L308.57,91.51L319.59,98.09L330.61,98.84L352.65,108.57L363.67,115.24L374.69,118.65L385.71,125.35L396.73,129.54L407.76,134.79L418.78,141.74L429.8,147.27L440.82,153.65L451.84,156.93L484.9,163.78L495.92,165.27L517.96,169.1L528.98,170.88L540,172.24" style="vector-effect: non-scaling-stroke; fill: none; stroke: rgb(255, 151, 255); stroke-opacity: 1; stroke-width: 2px; opacity: 1;"/></g><g class="points"/><g class="text"/></g><g class="trace scatter tracee5672f" style="stroke-miterlimit: 2; opacity: 1;"><g class="fills"/><g class="errorbars"/><g class="lines"><path class="js-line" d="M0,11.17L11.02,39.92L22.04,40.76L33.06,41.09L44.08,42.45L55.1,41.42L66.12,41.95L77.14,43.51L88.16,43.09L99.18,43.52L110.2,42.07L121.22,42.86L132.24,41.06L154.29,40.65L165.31,39.94L176.33,36.78L187.35,35.55L198.37,34.64L209.39,32.52L231.43,33.48L242.45,34.87L264.49,39.4L275.51,41.64L286.53,44.71L297.55,46.21L308.57,48.32L319.59,51.36L330.61,55.37L341.63,61.11L352.65,67.23L363.67,76.61L385.71,93.91L396.73,103.46L407.76,109.57L418.78,116.81L429.8,123.67L440.82,129.19L451.84,133.13L462.86,135.96L484.9,140.39L495.92,142.15L528.98,147.22L540,148.68" style="vector-effect: non-scaling-stroke; fill: none; stroke: rgb(254, 203, 82); stroke-opacity: 1; stroke-width: 2px; opacity: 1;"/></g><g class="points"/><g class="text"/></g><g class="trace scatter tracea3ab3e" style="stroke-miterlimit: 2; opacity: 1;"><g class="fills"/><g class="errorbars"/><g class="lines"><path class="js-line" d="M0,4.89L11.02,34.61L22.04,38.48L77.14,44.48L88.16,44.36L99.18,45.1L110.2,43.7L121.22,41.72L132.24,42.82L143.27,42.14L154.29,42.53L176.33,41.65L187.35,40.68L198.37,41.05L209.39,39.22L220.41,38.02L231.43,39.61L242.45,44.79L253.47,47.13L264.49,50.97L275.51,55.96L286.53,60.91L297.55,71.05L308.57,77.83L319.59,87.47L330.61,89.93L341.63,98.74L352.65,104.53L363.67,111.29L385.71,122.05L396.73,127.59L418.78,140.02L429.8,145.21L440.82,151.14L451.84,154.55L528.98,166.31L540,167.58" style="vector-effect: non-scaling-stroke; fill: none; stroke: rgb(99, 110, 250); stroke-opacity: 1; stroke-width: 2px; opacity: 1;"/></g><g class="points"/><g class="text"/></g><g class="trace scatter trace284005" style="stroke-miterlimit: 2; opacity: 1;"><g class="fills"/><g class="errorbars"/><g class="lines"><path class="js-line" d="M0,11.18L11.02,39.87L22.04,40.76L44.08,42.73L55.1,42.01L66.12,42.25L77.14,43.63L110.2,42.26L121.22,42.38L143.27,40.23L154.29,40.01L176.33,35.3L187.35,36.68L198.37,35.71L209.39,33.18L231.43,32.22L242.45,35.79L264.49,40.91L275.51,40.1L297.55,45.54L308.57,47.69L330.61,51.69L341.63,55.83L352.65,57.85L363.67,62.23L385.71,73.47L396.73,79.42L407.76,86.5L418.78,95.49L429.8,104.62L440.82,112.3L451.84,118.84L462.86,122.75L473.88,126.15L484.9,128.73L528.98,136.93L540,138.42" style="vector-effect: non-scaling-stroke; fill: none; stroke: rgb(239, 85, 59); stroke-opacity: 1; stroke-width: 2px; opacity: 1;"/></g><g class="points"/><g class="text"/></g><g class="trace scatter trace3c2613" style="stroke-miterlimit: 2; opacity: 1;"><g class="fills"/><g class="errorbars"/><g class="lines"><path class="js-line" d="M0,9.72L11.02,39.93L22.04,41.03L33.06,41.3L44.08,43.1L55.1,41.92L66.12,42.04L77.14,43.88L88.16,42.47L99.18,42.96L110.2,41.84L121.22,42.28L132.24,41.33L154.29,39.89L165.31,38.86L176.33,36.45L187.35,36.55L209.39,33.77L220.41,30.62L242.45,34.3L253.47,37.36L264.49,36.96L275.51,39.46L297.55,42.22L308.57,45.46L319.59,46.45L330.61,49.64L352.65,57.89L363.67,64.9L374.69,71.61L385.71,80.09L396.73,91.27L407.76,100.89L418.78,112.03L429.8,119.72L440.82,127.93L451.84,134.12L462.86,139.35L473.88,145.78L506.94,159.97L517.96,163.34L540,169.19" style="vector-effect: non-scaling-stroke; fill: none; stroke: rgb(0, 204, 150); stroke-opacity: 1; stroke-width: 2px; opacity: 1;"/></g><g class="points"/><g class="text"/></g><g class="trace scatter trace1ed0e3" style="stroke-miterlimit: 2; opacity: 1;"><g class="fills"/><g class="errorbars"/><g class="lines"><path class="js-line" d="M0,4.34L11.02,34.75L22.04,38.27L66.12,42.72L77.14,43.02L88.16,42.67L99.18,45.59L121.22,41.4L132.24,42.34L143.27,43.35L154.29,42.3L165.31,42.76L176.33,40.81L220.41,37.91L231.43,37.83L242.45,42.14L253.47,44.36L264.49,48.62L275.51,54.61L286.53,57.96L297.55,68.89L308.57,75.56L319.59,84.21L330.61,88.53L341.63,93.98L352.65,102.03L363.67,107.46L407.76,133.31L418.78,142.18L440.82,157.85L451.84,163.34L473.88,172.35L484.9,176.85L517.96,190.62L528.98,194.32L540,196.99" style="vector-effect: non-scaling-stroke; fill: none; stroke: rgb(171, 99, 250); stroke-opacity: 1; stroke-width: 2px; opacity: 1;"/></g><g class="points"/><g class="text"/></g><g class="trace scatter trace2b5977" style="stroke-miterlimit: 2; opacity: 1;"><g class="fills"/><g class="errorbars"/><g class="lines"><path class="js-line" d="M0,4.53L11.02,35.14L22.04,38.7L66.12,42.73L77.14,43.96L88.16,42.41L99.18,44.33L110.2,43.43L121.22,41.76L132.24,43.66L143.27,44.6L165.31,46L176.33,48.77L187.35,47.19L198.37,50.54L209.39,56.32L220.41,55.7L231.43,57.48L242.45,63.2L253.47,70.92L264.49,75.07L275.51,82.78L286.53,80.98L297.55,90.3L308.57,92.19L319.59,98.93L330.61,101.51L352.65,111.95L363.67,116.35L407.76,137.66L418.78,144.45L429.8,148.67L440.82,155.03L451.84,158.51L462.86,160.41L484.9,163.94L495.92,165.65L540,171.92" style="vector-effect: non-scaling-stroke; fill: none; stroke: rgb(255, 161, 90); stroke-opacity: 1; stroke-width: 2px; opacity: 1;"/></g><g class="points"/><g class="text"/></g><g class="trace scatter trace991500" style="stroke-miterlimit: 2; opacity: 1;"><g class="fills"/><g class="errorbars"/><g class="lines"><path class="js-line" d="M0,4.57L11.02,34.83L22.04,38.63L77.14,44.64L88.16,43.56L110.2,43.83L121.22,42.66L154.29,44.15L165.31,45.69L176.33,47.27L187.35,52.68L198.37,62.29L209.39,64.01L220.41,65.89L231.43,70.53L242.45,73.59L253.47,79.43L275.51,85.92L286.53,88.25L297.55,94.79L308.57,97.84L319.59,103.72L330.61,106.49L341.63,111.88L352.65,116.17L374.69,126.92L385.71,132.04L407.76,143.01L418.78,149.43L440.82,160.54L451.84,164.29L495.92,173.95L506.94,176L540,181.75" style="vector-effect: non-scaling-stroke; fill: none; stroke: rgb(25, 211, 243); stroke-opacity: 1; stroke-width: 2px; opacity: 1;"/></g><g class="points"/><g class="text"/></g><g class="trace scatter trace46a08a" style="stroke-miterlimit: 2; opacity: 1;"><g class="fills"/><g class="errorbars"/><g class="lines"><path class="js-line" d="M0,4.51L11.02,35.11L22.04,38.71L33.06,40.27L44.08,41.07L88.16,44.13L99.18,43.79L121.22,42.23L132.24,44.04L143.27,43.31L154.29,43.97L165.31,43.4L176.33,46.17L187.35,44.15L198.37,47.1L209.39,44.8L220.41,45.21L231.43,51.71L242.45,56.82L275.51,75.33L286.53,79.3L308.57,93.5L319.59,103.57L330.61,115.02L341.63,128.34L352.65,146.25L363.67,159.42L374.69,172.63L385.71,181.8L396.73,193.56L407.76,202.8L429.8,222.67L440.82,231.13L451.84,237.07L462.86,239.98L484.9,246.16L495.92,248.51L506.94,251.69L517.96,253.88L540,258.24" style="vector-effect: non-scaling-stroke; fill: none; stroke: rgb(255, 102, 146); stroke-opacity: 1; stroke-width: 2px; opacity: 1;"/></g><g class="points"/><g class="text"/></g><g class="trace scatter tracecde544" style="stroke-miterlimit: 2; opacity: 1;"><g class="fills"/><g class="errorbars"/><g class="lines"><path class="js-line" d="M0,4.63L11.02,35.02L22.04,38.34L55.1,41.99L66.12,43.23L77.14,44.19L88.16,43.42L99.18,45.46L110.2,43.64L121.22,43.17L132.24,45.16L143.27,46.11L154.29,45.03L165.31,46.25L176.33,48.68L187.35,50.75L198.37,50.08L209.39,56.02L220.41,54.55L231.43,62.52L242.45,69.36L253.47,77.72L264.49,90.89L275.51,107.2L286.53,121.26L297.55,142.13L308.57,152.88L319.59,164.92L330.61,172.35L341.63,181.84L352.65,190.01L363.67,201.69L374.69,210.15L385.71,218.98L396.73,229.07L418.78,245.21L429.8,254.15L440.82,262.48L451.84,268L462.86,270.82L473.88,274.58L495.92,279.06L506.94,282.42L540,288.4" style="vector-effect: non-scaling-stroke; fill: none; stroke: rgb(182, 232, 128); stroke-opacity: 1; stroke-width: 2px; opacity: 1;"/></g><g class="points"/><g class="text"/></g><g class="trace scatter trace8704e9" style="stroke-miterlimit: 2; opacity: 1;"><g class="fills"/><g class="errorbars"/><g class="lines"><path class="js-line" d="M0,4.06L11.02,34.99L22.04,38.5L44.08,41.12L55.1,41.52L66.12,43.58L77.14,43.92L99.18,44.38L110.2,43.86L132.24,44.35L143.27,45.91L165.31,47.03L176.33,48.29L187.35,48.75L198.37,52.68L209.39,54.46L220.41,58.57L231.43,61.94L242.45,61.62L253.47,66.99L264.49,74.52L275.51,78.9L286.53,80.25L297.55,89.3L308.57,91.5L319.59,97.03L330.61,101.03L341.63,105.34L352.65,108.83L363.67,115L374.69,119.63L407.76,135.31L418.78,141.35L429.8,145.94L440.82,151.73L451.84,155.1L462.86,157.51L528.98,167.49L540,169.07" style="vector-effect: non-scaling-stroke; fill: none; stroke: rgb(255, 151, 255); stroke-opacity: 1; stroke-width: 2px; opacity: 1;"/></g><g class="points"/><g class="text"/></g><g class="trace scatter trace57fede" style="stroke-miterlimit: 2; opacity: 1;"><g class="fills"/><g class="errorbars"/><g class="lines"><path class="js-line" d="M0,4L11.02,34.91L22.04,38.34L44.08,41.12L55.1,42.08L66.12,43.89L77.14,44.08L88.16,43.54L99.18,44.15L110.2,43.84L121.22,41.76L143.27,42.02L154.29,43.21L176.33,44.9L187.35,43.89L198.37,44.56L209.39,43.46L231.43,46.81L242.45,50.44L275.51,75.71L286.53,78.96L297.55,86.45L308.57,91.39L319.59,98.55L330.61,101.59L352.65,111.72L363.67,119.72L374.69,126.28L385.71,136.84L407.76,163.17L418.78,175.82L429.8,187.55L440.82,196.54L451.84,203.56L462.86,206.57L473.88,210.75L484.9,213.5L528.98,223.64L540,225.65" style="vector-effect: non-scaling-stroke; fill: none; stroke: rgb(254, 203, 82); stroke-opacity: 1; stroke-width: 2px; opacity: 1;"/></g><g class="points"/><g class="text"/></g></g></g><g class="overplot"/><path class="xlines-above crisp" d="M0,0" style="fill: none;"/><path class="ylines-above crisp" d="M0,0" style="fill: none;"/><g class="overlines-above"/><g class="xaxislayer-above"><g class="xtick"><text text-anchor="middle" x="0" y="433" transform="translate(80,0)" style="font-family: 'Open Sans', verdana, arial, sans-serif; font-size: 12px; fill: rgb(42, 63, 95); fill-opacity: 1; white-space: pre; opacity: 1;">0</text></g><g class="xtick"><text text-anchor="middle" x="0" y="433" style="font-family: 'Open Sans', verdana, arial, sans-serif; font-size: 12px; fill: rgb(42, 63, 95); fill-opacity: 1; white-space: pre; opacity: 1;" transform="translate(190.2,0)">10</text></g><g class="xtick"><text text-anchor="middle" x="0" y="433" style="font-family: 'Open Sans', verdana, arial, sans-serif; font-size: 12px; fill: rgb(42, 63, 95); fill-opacity: 1; white-space: pre; opacity: 1;" transform="translate(300.40999999999997,0)">20</text></g><g class="xtick"><text text-anchor="middle" x="0" y="433" style="font-family: 'Open Sans', verdana, arial, sans-serif; font-size: 12px; fill: rgb(42, 63, 95); fill-opacity: 1; white-space: pre; opacity: 1;" transform="translate(410.61,0)">30</text></g><g class="xtick"><text text-anchor="middle" x="0" y="433" style="font-family: 'Open Sans', verdana, arial, sans-serif; font-size: 12px; fill: rgb(42, 63, 95); fill-opacity: 1; white-space: pre; opacity: 1;" transform="translate(520.8199999999999,0)">40</text></g></g><g class="yaxislayer-above"><g class="ytick"><text text-anchor="end" x="79" y="4.199999999999999" transform="translate(0,376.71)" style="font-family: 'Open Sans', verdana, arial, sans-serif; font-size: 12px; fill: rgb(42, 63, 95); fill-opacity: 1; white-space: pre; opacity: 1;">5.3</text></g><g class="ytick"><text text-anchor="end" x="79" y="4.199999999999999" style="font-family: 'Open Sans', verdana, arial, sans-serif; font-size: 12px; fill: rgb(42, 63, 95); fill-opacity: 1; white-space: pre; opacity: 1;" transform="translate(0,329.08000000000004)">5.35</text></g><g class="ytick"><text text-anchor="end" x="79" y="4.199999999999999" style="font-family: 'Open Sans', verdana, arial, sans-serif; font-size: 12px; fill: rgb(42, 63, 95); fill-opacity: 1; white-space: pre; opacity: 1;" transform="translate(0,281.45)">5.4</text></g><g class="ytick"><text text-anchor="end" x="79" y="4.199999999999999" style="font-family: 'Open Sans', verdana, arial, sans-serif; font-size: 12px; fill: rgb(42, 63, 95); fill-opacity: 1; white-space: pre; opacity: 1;" transform="translate(0,233.82)">5.45</text></g><g class="ytick"><text text-anchor="end" x="79" y="4.199999999999999" style="font-family: 'Open Sans', verdana, arial, sans-serif; font-size: 12px; fill: rgb(42, 63, 95); fill-opacity: 1; white-space: pre; opacity: 1;" transform="translate(0,186.18)">5.5</text></g><g class="ytick"><text text-anchor="end" x="79" y="4.199999999999999" style="font-family: 'Open Sans', verdana, arial, sans-serif; font-size: 12px; fill: rgb(42, 63, 95); fill-opacity: 1; white-space: pre; opacity: 1;" transform="translate(0,138.55)">5.55</text></g></g><g class="overaxes-above"/></g></g><g class="polarlayer"/><g class="ternarylayer"/><g class="geolayer"/><g class="funnelarealayer"/><g class="pielayer"/><g class="iciclelayer"/><g class="treemaplayer"/><g class="sunburstlayer"/><g class="glimages"/><defs id="topdefs-52db4d"><g class="clips"/></defs><g class="layer-above"><g class="imagelayer"/><g class="shapelayer"/></g><g class="infolayer"><g class="g-gtitle"><text class="gtitle" x="35" y="50" text-anchor="start" dy="0em" style="font-family: 'Open Sans', verdana, arial, sans-serif; font-size: 17px; fill: rgb(42, 63, 95); opacity: 1; font-weight: normal; white-space: pre;">Train Loss: ascad_100-eff_cnn</text></g><g class="g-xtitle"/><g class="g-ytitle"/></g></svg>