<svg class="main-svg" xmlns="http://www.w3.org/2000/svg" xmlns:xlink="http://www.w3.org/1999/xlink" width="700" height="500" style="" viewBox="0 0 700 500"><rect x="0" y="0" width="700" height="500" style="fill: rgb(255, 255, 255); fill-opacity: 1;"/><defs id="defs-aeb6d3"><g class="clips"><clipPath id="clipaeb6d3xyplot" class="plotclip"><rect width="540" height="320"/></clipPath><clipPath class="axesclip" id="clipaeb6d3x"><rect x="80" y="0" width="540" height="500"/></clipPath><clipPath class="axesclip" id="clipaeb6d3y"><rect x="0" y="100" width="700" height="320"/></clipPath><clipPath class="axesclip" id="clipaeb6d3xy"><rect x="80" y="100" width="540" height="320"/></clipPath></g><g class="gradients"/><g class="patterns"/></defs><g class="bglayer"><rect class="bg" x="80" y="100" width="540" height="320" style="fill: rgb(229, 236, 246); fill-opacity: 1; stroke-width: 0;"/></g><g class="layer-below"><g class="imagelayer"/><g class="shapelayer"/></g><g class="cartesianlayer"><g class="subplot xy"><g class="layer-subplot"><g class="shapelayer"/><g class="imagelayer"/></g><g class="gridlayer"><g class="x"><path class="xgrid crisp" transform="translate(190.2,0)" d="M0,100v320" style="stroke: rgb(255, 255, 255); stroke-opacity: 1; stroke-width: 1px;"/><path class="xgrid crisp" transform="translate(300.40999999999997,0)" d="M0,100v320" style="stroke: rgb(255, 255, 255); stroke-opacity: 1; stroke-width: 1px;"/><path class="xgrid crisp" transform="translate(410.61,0)" d="M0,100v320" style="stroke: rgb(255, 255, 255); stroke-opacity: 1; stroke-width: 1px;"/><path class="xgrid crisp" transform="translate(520.8199999999999,0)" d="M0,100v320" style="stroke: rgb(255, 255, 255); stroke-opacity: 1; stroke-width: 1px;"/></g><g class="y"><path class="ygrid crisp" transform="translate(0,393.21)" d="M80,0h540" style="stroke: rgb(255, 255, 255); stroke-opacity: 1; stroke-width: 1px;"/><path class="ygrid crisp" transform="translate(0,345.28)" d="M80,0h540" style="stroke: rgb(255, 255, 255); stroke-opacity: 1; stroke-width: 1px;"/><path class="ygrid crisp" transform="translate(0,297.35)" d="M80,0h540" style="stroke: rgb(255, 255, 255); stroke-opacity: 1; stroke-width: 1px;"/><path class="ygrid crisp" transform="translate(0,249.42)" d="M80,0h540" style="stroke: rgb(255, 255, 255); stroke-opacity: 1; stroke-width: 1px;"/><path class="ygrid crisp" transform="translate(0,201.49)" d="M80,0h540" style="stroke: rgb(255, 255, 255); stroke-opacity: 1; stroke-width: 1px;"/><path class="ygrid crisp" transform="translate(0,153.56)" d="M80,0h540" style="stroke: rgb(255, 255, 255); stroke-opacity: 1; stroke-width: 1px;"/><path class="ygrid crisp" transform="translate(0,105.64)" d="M80,0h540" style="stroke: rgb(255, 255, 255); stroke-opacity: 1; stroke-width: 1px;"/></g></g><g class="zerolinelayer"><path class="xzl zl crisp" transform="translate(80,0)" d="M0,100v320" style="stroke: rgb(255, 255, 255); stroke-opacity: 1; stroke-width: 2px;"/></g><path class="xlines-below"/><path class="ylines-below"/><g class="overlines-below"/><g class="xaxislayer-below"/><g class="yaxislayer-below"/><g class="overaxes-below"/><g class="plot" transform="translate(80,100)" clip-path="url(#clipaeb6d3xyplot)"><g class="scatterlayer mlayer"><g class="trace scatter traceb09668" style="stroke-miterlimit: 2; opacity: 1;"><g class="fills"/><g class="errorbars"/><g class="lines"><path class="js-line" d="M0,0.22L11.02,4.86L22.04,18.87L33.06,34.31L44.08,68.11L55.1,123.56L66.12,154.63L77.14,171.08L88.16,181.56L110.2,194.31L121.22,198.39L143.27,207.32L154.29,214.11L165.31,220.58L176.33,224.23L187.35,225.38L198.37,228.01L209.39,232.02L220.41,234.9L231.43,237.47L242.45,241.35L264.49,250.13L275.51,252.09L297.55,260.52L308.57,261.7L330.61,269.3L341.63,271.12L352.65,274.33L363.67,276.47L374.69,278.35L385.71,283.01L407.76,287.42L418.78,290.26L429.8,293.65L440.82,294.79L462.86,296.97L473.88,297.34L484.9,298.67L495.92,298.73L506.94,300.6L517.96,300.94L540,302.06" style="vector-effect: non-scaling-stroke; fill: none; stroke: rgb(99, 110, 250); stroke-opacity: 1; stroke-width: 2px; opacity: 1;"/></g><g class="points"/><g class="text"/></g><g class="trace scatter tracecfa114" style="stroke-miterlimit: 2; opacity: 1;"><g class="fills"/><g class="errorbars"/><g class="lines"><path class="js-line" d="M0,0.28L11.02,4.2L22.04,21.35L33.06,37.62L44.08,61.49L55.1,94.9L66.12,133.06L77.14,155.12L88.16,168.77L99.18,178.86L110.2,185.55L143.27,208.97L154.29,215.79L165.31,218.62L176.33,222.65L187.35,224.4L198.37,228.34L209.39,228.71L220.41,235.42L231.43,236.79L242.45,243.06L253.47,246.73L264.49,251.57L319.59,268.75L330.61,271.09L352.65,276.78L363.67,280.54L429.8,296.6L440.82,298.51L451.84,299.95L462.86,300.15L484.9,302.54L495.92,303.49L517.96,304.31L528.98,305.16L540,305.92" style="vector-effect: non-scaling-stroke; fill: none; stroke: rgb(239, 85, 59); stroke-opacity: 1; stroke-width: 2px; opacity: 1;"/></g><g class="points"/><g class="text"/></g><g class="trace scatter trace1812df" style="stroke-miterlimit: 2; opacity: 1;"><g class="fills"/><g class="errorbars"/><g class="lines"><path class="js-line" d="M0,0.27L11.02,4.34L22.04,21.83L33.06,37.41L44.08,61.38L55.1,94.06L66.12,141.4L77.14,167.49L88.16,181.13L99.18,189.06L110.2,195.33L143.27,216.03L154.29,225.09L176.33,236.27L187.35,237.92L198.37,241.8L209.39,243.47L231.43,251.68L242.45,256.88L264.49,263.42L275.51,267.13L297.55,274.43L308.57,275.8L330.61,282.67L341.63,284.72L352.65,286.97L363.67,290.46L374.69,292.89L385.71,296.31L440.82,306.62L451.84,307.88L462.86,308.09L473.88,309.17L495.92,311.51L506.94,310.98L517.96,311.65L528.98,313.14L540,313.01" style="vector-effect: non-scaling-stroke; fill: none; stroke: rgb(0, 204, 150); stroke-opacity: 1; stroke-width: 2px; opacity: 1;"/></g><g class="points"/><g class="text"/></g><g class="trace scatter trace3e4318" style="stroke-miterlimit: 2; opacity: 1;"><g class="fills"/><g class="errorbars"/><g class="lines"><path class="js-line" d="M0,0.28L11.02,4.2L22.04,21.25L33.06,37.67L44.08,63.84L55.1,90.77L66.12,128.67L77.14,156.52L88.16,171.28L99.18,181.86L110.2,188.65L121.22,196.84L132.24,203.32L143.27,212.04L154.29,218.85L176.33,227.11L187.35,230.32L198.37,234.28L209.39,235.34L220.41,240.22L231.43,243L242.45,249.07L253.47,251.89L275.51,259.03L286.53,263.82L308.57,268.99L319.59,273.75L330.61,276.23L341.63,277.88L352.65,280.44L363.67,284.39L374.69,287.05L385.71,290.54L440.82,302.05L451.84,303.35L462.86,303.33L473.88,304.99L484.9,305.38L495.92,306.77L540,308.54" style="vector-effect: non-scaling-stroke; fill: none; stroke: rgb(171, 99, 250); stroke-opacity: 1; stroke-width: 2px; opacity: 1;"/></g><g class="points"/><g class="text"/></g><g class="trace scatter tracef2dacc" style="stroke-miterlimit: 2; opacity: 1;"><g class="fills"/><g class="errorbars"/><g class="lines"><path class="js-line" d="M0,0.12L11.02,4.19L22.04,16.52L33.06,30.99L44.08,62.4L55.1,100.83L66.12,123.79L88.16,167.64L99.18,180.51L110.2,188.58L121.22,195.3L132.24,204.23L143.27,208.22L154.29,213.41L165.31,219.85L176.33,222.01L187.35,225.34L209.39,230.76L220.41,234.64L242.45,243.02L253.47,247.93L275.51,255.22L286.53,258.93L297.55,263.35L308.57,265.53L319.59,269.57L330.61,272.75L341.63,275.09L352.65,279.38L374.69,283.46L385.71,287.31L396.73,290.38L407.76,292.64L429.8,298.6L440.82,300.64L451.84,302.08L462.86,302.23L484.9,304.55L495.92,304.24L506.94,306.02L517.96,306.56L540,307.5" style="vector-effect: non-scaling-stroke; fill: none; stroke: rgb(255, 161, 90); stroke-opacity: 1; stroke-width: 2px; opacity: 1;"/></g><g class="points"/><g class="text"/></g><g class="trace scatter tracef01db7" style="stroke-miterlimit: 2; opacity: 1;"><g class="fills"/><g class="errorbars"/><g class="lines"><path class="js-line" d="M0,0.26L11.02,4.58L22.04,17.72L33.06,32.09L44.08,63.65L55.1,96.95L66.12,126.03L77.14,156.62L88.16,173.97L99.18,183.96L110.2,190.52L121.22,194.28L132.24,201.42L154.29,209.27L165.31,216.75L176.33,224.18L187.35,229.62L198.37,234.89L209.39,238.19L242.45,250.1L253.47,255.56L264.49,259.18L275.51,261.63L297.55,269.46L308.57,271.64L330.61,278.36L341.63,280.8L352.65,282.93L363.67,286.16L374.69,287.9L385.71,291.84L407.76,295.97L418.78,299L440.82,303.2L451.84,304.03L473.88,305.29L484.9,306.28L495.92,306.22L506.94,308.05L540,309.73" style="vector-effect: non-scaling-stroke; fill: none; stroke: rgb(25, 211, 243); stroke-opacity: 1; stroke-width: 2px; opacity: 1;"/></g><g class="points"/><g class="text"/></g><g class="trace scatter trace98fb82" style="stroke-miterlimit: 2; opacity: 1;"><g class="fills"/><g class="errorbars"/><g class="lines"><path class="js-line" d="M0,0.27L11.02,4.24L22.04,21.37L33.06,37.3L44.08,64.96L55.1,89.78L66.12,125.91L77.14,160.17L88.16,176.86L99.18,187.56L110.2,195.45L121.22,203.58L132.24,207.93L143.27,212.3L154.29,219.31L176.33,233.82L187.35,238.11L198.37,241.56L209.39,242.69L220.41,247.07L231.43,249.87L242.45,255.38L253.47,258.55L264.49,261.48L275.51,266.09L297.55,273.84L308.57,275.76L319.59,280.06L330.61,282.68L352.65,287.97L363.67,292.45L396.73,300.62L407.76,303.79L418.78,305.3L429.8,308.1L440.82,310.48L451.84,311.41L484.9,313.65L495.92,315.16L517.96,315.68L528.98,316.75L540,317.01" style="vector-effect: non-scaling-stroke; fill: none; stroke: rgb(255, 102, 146); stroke-opacity: 1; stroke-width: 2px; opacity: 1;"/></g><g class="points"/><g class="text"/></g><g class="trace scatter tracea8b9cc" style="stroke-miterlimit: 2; opacity: 1;"><g class="fills"/><g class="errorbars"/><g class="lines"><path class="js-line" d="M0,0.28L11.02,4.78L22.04,18.51L33.06,30.43L44.08,50.06L55.1,99.66L66.12,141.77L77.14,162.65L88.16,175.06L99.18,183.96L110.2,190.7L121.22,195.86L132.24,207.06L143.27,215.07L154.29,220.21L165.31,226.96L176.33,229.55L187.35,231.3L198.37,234.84L209.39,236.38L220.41,239.94L231.43,242.15L242.45,246.19L253.47,250.33L264.49,253.43L286.53,260.02L297.55,263.75L308.57,265.78L319.59,268.66L352.65,278.23L363.67,280.57L374.69,282.59L385.71,286.42L396.73,290.02L407.76,291.56L429.8,298.37L440.82,299.77L484.9,303.37L495.92,303.52L506.94,305.24L517.96,305.73L540,306.68" style="vector-effect: non-scaling-stroke; fill: none; stroke: rgb(182, 232, 128); stroke-opacity: 1; stroke-width: 2px; opacity: 1;"/></g><g class="points"/><g class="text"/></g><g class="trace scatter trace96183a" style="stroke-miterlimit: 2; opacity: 1;"><g class="fills"/><g class="errorbars"/><g class="lines"><path class="js-line" d="M0,0.14L11.02,4.1L22.04,16.02L33.06,30.9L44.08,63.6L55.1,116.98L66.12,151.49L77.14,168.07L88.16,180.81L99.18,188.47L110.2,193.92L132.24,202.44L143.27,205.04L154.29,209.14L165.31,214.44L231.43,235.28L242.45,239.45L264.49,247.32L275.51,249.21L286.53,253.44L297.55,256.8L308.57,258.61L319.59,261.79L352.65,270.17L363.67,271.93L374.69,273.93L385.71,278.21L407.76,282.33L418.78,285.69L429.8,288.1L440.82,289.63L462.86,291.37L473.88,292.14L484.9,293.13L495.92,293.21L506.94,295.01L517.96,295.41L540,296.38" style="vector-effect: non-scaling-stroke; fill: none; stroke: rgb(255, 151, 255); stroke-opacity: 1; stroke-width: 2px; opacity: 1;"/></g><g class="points"/><g class="text"/></g><g class="trace scatter traceabe61a" style="stroke-miterlimit: 2; opacity: 1;"><g class="fills"/><g class="errorbars"/><g class="lines"><path class="js-line" d="M0,0.25L11.02,4.89L22.04,18.77L33.06,36.2L44.08,76.66L55.1,124.68L66.12,151.58L77.14,167.36L88.16,177.94L99.18,185.53L110.2,190.16L121.22,194.72L132.24,198.36L154.29,204.74L165.31,214.42L176.33,217.48L187.35,222.14L209.39,227.26L220.41,231.48L242.45,237.73L253.47,242.52L264.49,246.39L275.51,249.22L297.55,255.5L308.57,257.35L330.61,264.28L341.63,265.96L352.65,270.22L363.67,272.23L374.69,274.32L385.71,278.45L396.73,281.06L407.76,282.73L429.8,289L440.82,290.47L473.88,292.97L484.9,293.59L495.92,293.99L506.94,295.67L540,297.16" style="vector-effect: non-scaling-stroke; fill: none; stroke: rgb(254, 203, 82); stroke-opacity: 1; stroke-width: 2px; opacity: 1;"/></g><g class="points"/><g class="text"/></g><g class="trace scatter tracec77352" style="stroke-miterlimit: 2; opacity: 1;"><g class="fills"/><g class="errorbars"/><g class="lines"><path class="js-line" d="M0,0.13L11.02,4.55L22.04,17.34L33.06,27.9L44.08,44.56L55.1,89.56L66.12,129.41L77.14,155.51L88.16,170.74L99.18,180.43L110.2,187.37L121.22,193.11L132.24,201.44L143.27,208.97L154.29,213.51L165.31,219.5L176.33,222.04L187.35,225.66L198.37,227.72L242.45,243.46L253.47,247.84L264.49,252.09L275.51,254.83L286.53,258.2L297.55,263.25L308.57,264.93L319.59,268.38L330.61,271.45L341.63,273.73L363.67,280.41L374.69,282.41L385.71,286.08L396.73,288.72L429.8,297.01L440.82,298.63L462.86,300.15L473.88,300.99L517.96,304.47L528.98,304.49L540,305.53" style="vector-effect: non-scaling-stroke; fill: none; stroke: rgb(99, 110, 250); stroke-opacity: 1; stroke-width: 2px; opacity: 1;"/></g><g class="points"/><g class="text"/></g><g class="trace scatter tracede6c92" style="stroke-miterlimit: 2; opacity: 1;"><g class="fills"/><g class="errorbars"/><g class="lines"><path class="js-line" d="M0,0.1L11.02,4.85L22.04,17.57L33.06,29.52L44.08,56.24L55.1,91.89L66.12,113.13L99.18,147.07L110.2,160.73L121.22,173.47L132.24,183.39L143.27,189.82L154.29,198.9L165.31,205.67L176.33,211.52L187.35,214.51L198.37,218.92L209.39,223.57L220.41,226.91L231.43,230.06L242.45,234.88L253.47,240.59L264.49,244.57L275.51,247.17L286.53,251.79L297.55,255.34L308.57,256.99L319.59,261.45L330.61,264.8L341.63,266.64L352.65,271.11L374.69,275.45L385.71,279.79L396.73,282.55L407.76,284.4L429.8,290.43L440.82,292.07L451.84,293.11L462.86,293.35L484.9,295.73L495.92,295.47L506.94,297.39L517.96,297.79L528.98,297.79L540,299.14" style="vector-effect: non-scaling-stroke; fill: none; stroke: rgb(239, 85, 59); stroke-opacity: 1; stroke-width: 2px; opacity: 1;"/></g><g class="points"/><g class="text"/></g><g class="trace scatter traceb7798b" style="stroke-miterlimit: 2; opacity: 1;"><g class="fills"/><g class="errorbars"/><g class="lines"><path class="js-line" d="M0,0.15L11.02,4.79L22.04,17.81L33.06,30.53L44.08,57L55.1,96.96L66.12,119.15L77.14,132.38L88.16,149.7L99.18,173.05L110.2,187.17L121.22,195.84L132.24,208.14L143.27,214.92L154.29,219.8L165.31,224.52L176.33,226.91L187.35,229.49L198.37,233.35L209.39,233.84L220.41,236.93L242.45,243.29L253.47,247.64L264.49,251.35L275.51,253.97L297.55,260.82L308.57,262.74L319.59,265.91L330.61,270.04L341.63,271.71L352.65,275.35L374.69,279.44L385.71,283.08L396.73,286.22L407.76,287.83L418.78,291.36L429.8,293.68L451.84,296.51L462.86,297.22L495.92,298.95L506.94,300.36L540,301.75" style="vector-effect: non-scaling-stroke; fill: none; stroke: rgb(0, 204, 150); stroke-opacity: 1; stroke-width: 2px; opacity: 1;"/></g><g class="points"/><g class="text"/></g><g class="trace scatter trace33c17e" style="stroke-miterlimit: 2; opacity: 1;"><g class="fills"/><g class="errorbars"/><g class="lines"><path class="js-line" d="M0,0.23L11.02,4.99L22.04,18.64L33.06,33.75L44.08,65.97L55.1,124.03L66.12,158.1L77.14,174.54L88.16,185.99L110.2,196.76L121.22,201.09L132.24,206.02L143.27,212.66L154.29,218.19L165.31,224.74L187.35,228.35L198.37,229.42L231.43,237.79L242.45,240.77L253.47,245.66L264.49,249.19L286.53,254.87L297.55,258.62L308.57,260.17L319.59,263.03L330.61,267.12L341.63,268.93L352.65,272.27L363.67,274.53L396.73,283L407.76,285.21L429.8,290.93L440.82,292.96L484.9,296.46L495.92,296.32L506.94,298.08L517.96,298.54L540,299.74" style="vector-effect: non-scaling-stroke; fill: none; stroke: rgb(171, 99, 250); stroke-opacity: 1; stroke-width: 2px; opacity: 1;"/></g><g class="points"/><g class="text"/></g><g class="trace scatter tracea46299" style="stroke-miterlimit: 2; opacity: 1;"><g class="fills"/><g class="errorbars"/><g class="lines"><path class="js-line" d="M0,0.18L11.02,4.59L22.04,18.02L33.06,30.89L44.08,50.38L55.1,97.43L66.12,137.22L77.14,161.37L88.16,174.34L110.2,188.52L121.22,193.65L143.27,209.88L154.29,213.31L165.31,219.41L176.33,221.61L209.39,228.73L220.41,233.37L242.45,241.66L253.47,247.48L264.49,251.59L275.51,254.41L297.55,262.52L308.57,263.76L319.59,267.92L330.61,270.72L341.63,272.87L352.65,277L363.67,278.24L374.69,280.81L385.71,284.95L396.73,287.65L407.76,289.8L418.78,292.8L429.8,296.09L440.82,297.7L484.9,301.15L495.92,300.9L506.94,302.95L517.96,303.54L540,304.57" style="vector-effect: non-scaling-stroke; fill: none; stroke: rgb(255, 161, 90); stroke-opacity: 1; stroke-width: 2px; opacity: 1;"/></g><g class="points"/><g class="text"/></g><g class="trace scatter trace09c3d3" style="stroke-miterlimit: 2; opacity: 1;"><g class="fills"/><g class="errorbars"/><g class="lines"><path class="js-line" d="M0,0.28L11.02,4.78L22.04,18L33.06,31.64L44.08,55.5L66.12,140.11L77.14,162.18L88.16,174.83L99.18,182.21L110.2,189.17L121.22,194.51L132.24,200.19L143.27,208.86L154.29,217.84L165.31,223.21L176.33,227.04L187.35,229.89L209.39,235.67L220.41,237.47L253.47,250.05L264.49,252.94L286.53,259.47L297.55,263.75L308.57,265.19L319.59,268.91L330.61,272.74L341.63,274.5L352.65,278.09L363.67,279.93L374.69,281.73L385.71,286.45L396.73,289.5L407.76,291.03L429.8,297.57L440.82,298.82L451.84,300.01L462.86,300.15L484.9,302.07L495.92,302.22L506.94,304.38L517.96,304.66L528.98,304.67L540,305.62" style="vector-effect: non-scaling-stroke; fill: none; stroke: rgb(25, 211, 243); stroke-opacity: 1; stroke-width: 2px; opacity: 1;"/></g><g class="points"/><g class="text"/></g><g class="trace scatter trace5afad8" style="stroke-miterlimit: 2; opacity: 1;"><g class="fills"/><g class="errorbars"/><g class="lines"><path class="js-line" d="M0,0.23L11.02,4.78L22.04,18.57L33.06,32.07L44.08,54.92L66.12,144.94L77.14,164.44L88.16,175.99L99.18,182.87L110.2,189.05L121.22,192.65L132.24,197.43L143.27,200.38L154.29,205.78L165.31,213.76L176.33,220.32L187.35,222.66L198.37,226.96L209.39,229.5L220.41,231.3L231.43,236.76L242.45,239.63L253.47,244.62L264.49,248.55L275.51,249.96L297.55,258.76L308.57,260.63L330.61,268.1L341.63,269.96L363.67,276.17L374.69,277.92L396.73,284.86L407.76,287.01L429.8,292.99L440.82,294.99L462.86,296.29L473.88,297.1L517.96,300.55L528.98,300.81L540,301.67" style="vector-effect: non-scaling-stroke; fill: none; stroke: rgb(255, 102, 146); stroke-opacity: 1; stroke-width: 2px; opacity: 1;"/></g><g class="points"/><g class="text"/></g><g class="trace scatter trace911fc5" style="stroke-miterlimit: 2; opacity: 1;"><g class="fills"/><g class="errorbars"/><g class="lines"><path class="js-line" d="M0,0.06L11.02,4.66L22.04,17.63L33.06,28.39L44.08,55.74L55.1,97.95L66.12,126.76L77.14,151.94L88.16,170.14L99.18,180.18L110.2,189.11L121.22,195.67L132.24,205.79L165.31,223.16L176.33,225.35L187.35,228.93L198.37,231.47L209.39,233.94L220.41,237.79L231.43,241.59L242.45,246.82L253.47,250.18L264.49,254.33L275.51,256.79L286.53,261.11L297.55,265.07L308.57,266.9L319.59,271.06L330.61,274.12L352.65,279.98L363.67,283.33L374.69,284.52L385.71,289.26L429.8,300.05L440.82,301.43L451.84,303.29L462.86,303.8L495.92,305.5L506.94,307.34L540,308.74" style="vector-effect: non-scaling-stroke; fill: none; stroke: rgb(182, 232, 128); stroke-opacity: 1; stroke-width: 2px; opacity: 1;"/></g><g class="points"/><g class="text"/></g><g class="trace scatter trace6f0432" style="stroke-miterlimit: 2; opacity: 1;"><g class="fills"/><g class="errorbars"/><g class="lines"><path class="js-line" d="M0,0.19L11.02,4.62L22.04,18.76L33.06,36.8L44.08,77.19L55.1,128.26L66.12,154.12L77.14,168.68L88.16,179.75L99.18,187.96L110.2,193.73L132.24,202.05L143.27,203.8L154.29,206.5L165.31,211.37L187.35,220.42L198.37,225.42L231.43,235.16L242.45,239.32L253.47,243.88L264.49,246.78L286.53,252.28L297.55,257.93L308.57,259L319.59,262.72L330.61,266.01L341.63,267.45L352.65,271.85L363.67,274.3L374.69,275.52L385.71,279.79L429.8,290.48L440.82,292.4L484.9,295.77L495.92,295.76L506.94,297.47L517.96,297.92L540,298.95" style="vector-effect: non-scaling-stroke; fill: none; stroke: rgb(255, 151, 255); stroke-opacity: 1; stroke-width: 2px; opacity: 1;"/></g><g class="points"/><g class="text"/></g><g class="trace scatter traceb6d420" style="stroke-miterlimit: 2; opacity: 1;"><g class="fills"/><g class="errorbars"/><g class="lines"><path class="js-line" d="M0,0.12L11.02,4.57L22.04,16.34L33.06,27.41L44.08,45.63L55.1,88.93L66.12,114.51L88.16,153.74L99.18,166.62L110.2,174.97L121.22,180.97L132.24,189.52L143.27,193.84L154.29,200.26L165.31,210.8L198.37,223.84L209.39,226.45L242.45,239.23L253.47,242.93L264.49,247.66L275.51,251.41L297.55,259.84L308.57,262.78L330.61,269.46L341.63,271.29L352.65,275.72L363.67,277.76L374.69,280.51L385.71,284.4L396.73,287.32L407.76,288.96L429.8,295.16L440.82,296.68L473.88,299.34L484.9,299.67L495.92,299.92L506.94,302.04L528.98,302.14L540,303.28" style="vector-effect: non-scaling-stroke; fill: none; stroke: rgb(254, 203, 82); stroke-opacity: 1; stroke-width: 2px; opacity: 1;"/></g><g class="points"/><g class="text"/></g><g class="trace scatter trace2d15bf" style="stroke-miterlimit: 2; opacity: 1;"><g class="fills"/><g class="errorbars"/><g class="lines"><path class="js-line" d="M0,0.23L11.02,4.98L22.04,18.83L33.06,34.61L44.08,67.85L55.1,123.86L66.12,156.92L77.14,172.67L88.16,183.76L99.18,190.14L110.2,194.7L121.22,200.31L132.24,203.93L154.29,207.31L165.31,211.79L198.37,227.13L209.39,229.14L242.45,241.17L253.47,245.74L264.49,249.49L275.51,252.16L286.53,255.19L297.55,259.94L308.57,261.97L319.59,265.11L330.61,268.47L341.63,270.7L352.65,273.73L363.67,275.59L374.69,277.84L385.71,281.61L396.73,284.55L407.76,285.86L429.8,291.58L440.82,293.33L484.9,296.65L495.92,296.74L506.94,298.33L517.96,298.84L540,299.63" style="vector-effect: non-scaling-stroke; fill: none; stroke: rgb(99, 110, 250); stroke-opacity: 1; stroke-width: 2px; opacity: 1;"/></g><g class="points"/><g class="text"/></g><g class="trace scatter trace698116" style="stroke-miterlimit: 2; opacity: 1;"><g class="fills"/><g class="errorbars"/><g class="lines"><path class="js-line" d="M0,0.23L11.02,4.91L22.04,18.71L33.06,34.5L44.08,65.76L55.1,123.08L66.12,158.29L77.14,173.78L88.16,185.04L99.18,192.01L110.2,197.77L121.22,203.02L132.24,209.8L143.27,215.58L154.29,218.99L165.31,225.06L176.33,227.21L198.37,231.62L209.39,233.64L231.43,239.28L242.45,243.12L253.47,247.71L264.49,250.81L275.51,252.77L286.53,257.58L297.55,261.11L308.57,263.02L330.61,271.18L341.63,272.77L352.65,276.54L363.67,278.68L374.69,281.08L385.71,285.15L429.8,295.52L440.82,297.3L451.84,298.67L462.86,299.04L484.9,300.92L495.92,300.97L506.94,302.59L517.96,302.95L540,304.33" style="vector-effect: non-scaling-stroke; fill: none; stroke: rgb(239, 85, 59); stroke-opacity: 1; stroke-width: 2px; opacity: 1;"/></g><g class="points"/><g class="text"/></g><g class="trace scatter tracef2be10" style="stroke-miterlimit: 2; opacity: 1;"><g class="fills"/><g class="errorbars"/><g class="lines"><path class="js-line" d="M0,0.23L11.02,5L22.04,18.55L33.06,33.19L44.08,60.53L55.1,118.03L66.12,152.46L77.14,169.33L88.16,182.26L110.2,194.46L121.22,198.62L132.24,203.33L143.27,206.31L154.29,210.84L165.31,218.24L176.33,222.79L187.35,226.48L198.37,229.2L209.39,233.38L220.41,235.77L231.43,239.55L264.49,252.31L275.51,254.55L286.53,258.93L297.55,262.08L308.57,262.76L319.59,267.26L330.61,270.64L341.63,272.02L352.65,276.22L363.67,277.59L374.69,279.88L385.71,283.78L396.73,287L407.76,288.76L429.8,294.9L440.82,296.55L451.84,297.77L462.86,298.09L484.9,300.13L495.92,300.07L506.94,301.8L517.96,302.58L540,303.42" style="vector-effect: non-scaling-stroke; fill: none; stroke: rgb(0, 204, 150); stroke-opacity: 1; stroke-width: 2px; opacity: 1;"/></g><g class="points"/><g class="text"/></g><g class="trace scatter trace9fbdff" style="stroke-miterlimit: 2; opacity: 1;"><g class="fills"/><g class="errorbars"/><g class="lines"><path class="js-line" d="M0,0.21L11.02,4.74L22.04,18.46L33.06,33L44.08,56.61L55.1,108.91L66.12,147.91L77.14,169.69L88.16,181.95L99.18,189.5L110.2,194.95L132.24,201.85L143.27,203.47L154.29,206.13L165.31,209.98L176.33,213.93L187.35,219.1L209.39,225.72L220.41,230.74L242.45,237.52L253.47,241.27L264.49,245.99L275.51,248.57L286.53,252.84L297.55,256.04L319.59,261.55L330.61,265.36L341.63,267.21L352.65,270.6L374.69,274.77L385.71,278.55L407.76,282.72L418.78,285.97L429.8,288.82L440.82,290.47L462.86,291.87L473.88,292.52L484.9,293.7L495.92,293.66L506.94,295.49L517.96,295.61L540,296.89" style="vector-effect: non-scaling-stroke; fill: none; stroke: rgb(171, 99, 250); stroke-opacity: 1; stroke-width: 2px; opacity: 1;"/></g><g class="points"/><g class="text"/></g><g class="trace scatter traceef2384" style="stroke-miterlimit: 2; opacity: 1;"><g class="fills"/><g class="errorbars"/><g class="lines"><path class="js-line" d="M0,0.23L11.02,4.99L22.04,18.64L33.06,33.75L44.08,65.97L55.1,124.03L66.12,158.1L77.14,174.53L88.16,185.95L110.2,196.87L121.22,201.05L143.27,212.03L154.29,218.99L165.31,225.28L176.33,226.43L209.39,232.26L220.41,235.21L242.45,241.34L253.47,245.51L264.49,249.37L275.51,251.51L297.55,258.64L308.57,260.92L319.59,262.98L330.61,267.14L352.65,272.34L363.67,275L385.71,280.61L396.73,283.66L407.76,285.01L418.78,288.97L429.8,291.52L440.82,293.06L484.9,296.67L495.92,296.73L506.94,298.37L517.96,298.6L540,299.91" style="vector-effect: non-scaling-stroke; fill: none; stroke: rgb(255, 161, 90); stroke-opacity: 1; stroke-width: 2px; opacity: 1;"/></g><g class="points"/><g class="text"/></g><g class="trace scatter trace8c5176" style="stroke-miterlimit: 2; opacity: 1;"><g class="fills"/><g class="errorbars"/><g class="lines"><path class="js-line" d="M0,0.27L11.02,4.79L22.04,18.47L33.06,32.13L44.08,55.56L66.12,138.03L77.14,161.19L88.16,173.69L99.18,181.78L110.2,187.95L121.22,192.85L132.24,201.98L143.27,210.05L165.31,221.74L176.33,223.27L198.37,228.1L209.39,231.31L220.41,234.2L231.43,239.32L264.49,252.8L275.51,255.21L286.53,260.18L297.55,263.69L308.57,265.31L319.59,269.49L341.63,275.59L352.65,278.62L363.67,280.6L374.69,283.41L385.71,287.62L396.73,290.61L407.76,292.36L418.78,295.48L429.8,299.05L440.82,300.6L451.84,302.13L462.86,302.43L495.92,304.46L506.94,306.36L528.98,306.74L540,307.95" style="vector-effect: non-scaling-stroke; fill: none; stroke: rgb(25, 211, 243); stroke-opacity: 1; stroke-width: 2px; opacity: 1;"/></g><g class="points"/><g class="text"/></g><g class="trace scatter trace3c4a13" style="stroke-miterlimit: 2; opacity: 1;"><g class="fills"/><g class="errorbars"/><g class="lines"><path class="js-line" d="M0,0.19L11.02,4.66L22.04,18L33.06,33.68L44.08,66.38L55.1,116.66L66.12,153.93L77.14,172.91L88.16,184.93L99.18,192.89L110.2,199.23L132.24,209.74L143.27,214.12L165.31,225.83L176.33,227.87L220.41,240.63L231.43,244.1L264.49,257.57L275.51,260.65L297.55,267.93L308.57,268.99L319.59,273.1L330.61,276.16L341.63,278.3L352.65,282L374.69,285.77L385.71,290.28L418.78,297.85L429.8,300.54L440.82,302.65L451.84,303.15L473.88,304.97L484.9,305.94L495.92,306.04L506.94,307.52L528.98,308.44L540,309.43" style="vector-effect: non-scaling-stroke; fill: none; stroke: rgb(255, 102, 146); stroke-opacity: 1; stroke-width: 2px; opacity: 1;"/></g><g class="points"/><g class="text"/></g><g class="trace scatter trace2b68c9" style="stroke-miterlimit: 2; opacity: 1;"><g class="fills"/><g class="errorbars"/><g class="lines"><path class="js-line" d="M0,0.23L11.02,4.99L22.04,18.63L33.06,33.84L44.08,66.03L55.1,123.51L66.12,158.55L77.14,174.89L88.16,186.06L110.2,197.64L121.22,200.97L132.24,204.89L143.27,209.68L154.29,214.95L165.31,222.9L187.35,229.46L198.37,230.68L209.39,232.73L220.41,236.3L242.45,242.82L253.47,247.73L286.53,256.78L297.55,260.71L308.57,262.25L319.59,265.77L330.61,269.46L341.63,270.99L363.67,276.72L374.69,279.14L385.71,282.67L396.73,285.29L407.76,286.63L418.78,290.23L429.8,292.87L440.82,294.62L462.86,296.01L473.88,296.92L484.9,297.96L495.92,298.13L506.94,299.87L517.96,300.35L540,301.06" style="vector-effect: non-scaling-stroke; fill: none; stroke: rgb(182, 232, 128); stroke-opacity: 1; stroke-width: 2px; opacity: 1;"/></g><g class="points"/><g class="text"/></g><g class="trace scatter trace3aa4ae" style="stroke-miterlimit: 2; opacity: 1;"><g class="fills"/><g class="errorbars"/><g class="lines"><path class="js-line" d="M0,0.23L11.02,4.98L22.04,18.75L33.06,34.32L44.08,63.75L55.1,110.78L66.12,152.37L77.14,170.61L88.16,183.61L99.18,192.87L110.2,201.13L132.24,219.19L143.27,225.36L165.31,235.28L176.33,237.97L187.35,240.23L198.37,241.4L242.45,253.91L253.47,258.55L264.49,261.99L275.51,264.43L286.53,267.68L297.55,271.89L308.57,273.8L319.59,277.12L330.61,280.91L341.63,283.07L352.65,286.77L363.67,288.72L374.69,290.78L385.71,295.01L396.73,297.77L407.76,299.51L429.8,305.91L440.82,307.61L451.84,308.56L462.86,308.7L473.88,310.36L484.9,310.85L495.92,311.1L506.94,312.7L540,314.29" style="vector-effect: non-scaling-stroke; fill: none; stroke: rgb(255, 151, 255); stroke-opacity: 1; stroke-width: 2px; opacity: 1;"/></g><g class="points"/><g class="text"/></g><g class="trace scatter traced14a6a" style="stroke-miterlimit: 2; opacity: 1;"><g class="fills"/><g class="errorbars"/><g class="lines"><path class="js-line" d="M0,0.21L11.02,5.1L22.04,18.44L33.06,32.4L44.08,50.09L55.1,78.4L66.12,121.67L77.14,151.24L88.16,169.28L99.18,181.02L110.2,191.56L132.24,210.15L143.27,216.36L154.29,222.45L165.31,227.22L198.37,234.42L209.39,237.87L220.41,240.09L231.43,245.51L242.45,248.46L253.47,253.37L264.49,258.11L275.51,260.34L297.55,268.99L308.57,271L330.61,278.53L341.63,280.99L363.67,286.38L374.69,289.06L396.73,296.73L407.76,298.59L418.78,301.56L429.8,305.4L451.84,308.08L462.86,308.53L484.9,310.68L495.92,310.83L506.94,313.1L517.96,313.7L540,314.31" style="vector-effect: non-scaling-stroke; fill: none; stroke: rgb(254, 203, 82); stroke-opacity: 1; stroke-width: 2px; opacity: 1;"/></g><g class="points"/><g class="text"/></g><g class="trace scatter trace74798f" style="stroke-miterlimit: 2; opacity: 1;"><g class="fills"/><g class="errorbars"/><g class="lines"><path class="js-line" d="M0,0.19L11.02,4.6L22.04,17.97L33.06,30.6L44.08,54.94L55.1,93.57L66.12,127.75L77.14,157.23L88.16,173.89L99.18,182.41L110.2,189.84L132.24,198.94L143.27,201.75L154.29,206.61L165.31,213.5L176.33,218.75L187.35,221.18L198.37,225.81L209.39,228.33L220.41,230.79L231.43,235.86L253.47,243.03L264.49,247.52L275.51,248.84L286.53,252.96L297.55,256.46L308.57,258.69L319.59,262.45L330.61,265.4L341.63,267.7L352.65,271.28L363.67,273.2L374.69,274.19L385.71,278.77L396.73,281.37L407.76,283.28L418.78,286.38L429.8,289.62L440.82,290.76L462.86,292.53L473.88,293.33L484.9,294.31L495.92,294.34L506.94,296.18L517.96,296.85L540,297.68" style="vector-effect: non-scaling-stroke; fill: none; stroke: rgb(99, 110, 250); stroke-opacity: 1; stroke-width: 2px; opacity: 1;"/></g><g class="points"/><g class="text"/></g><g class="trace scatter trace6710cc" style="stroke-miterlimit: 2; opacity: 1;"><g class="fills"/><g class="errorbars"/><g class="lines"><path class="js-line" d="M0,0.25L11.02,5.11L22.04,19.53L33.06,35.6L44.08,66.39L55.1,116.18L66.12,152.59L77.14,168.71L88.16,179.98L110.2,192.27L121.22,197.16L143.27,212.15L154.29,216.41L165.31,220.42L176.33,222.81L187.35,223.83L198.37,226.05L231.43,235.01L242.45,238.41L253.47,243.5L264.49,246.76L286.53,253.75L297.55,258.38L308.57,260.34L319.59,263.42L330.61,267.78L341.63,268.75L352.65,272.83L363.67,275.37L374.69,277.55L385.71,280.81L418.78,289.08L429.8,291.65L440.82,293.51L451.84,294.41L517.96,299.01L528.98,299.42L540,300.07" style="vector-effect: non-scaling-stroke; fill: none; stroke: rgb(239, 85, 59); stroke-opacity: 1; stroke-width: 2px; opacity: 1;"/></g><g class="points"/><g class="text"/></g><g class="trace scatter traced177c0" style="stroke-miterlimit: 2; opacity: 1;"><g class="fills"/><g class="errorbars"/><g class="lines"><path class="js-line" d="M0,0.23L11.02,4.99L22.04,18.64L33.06,33.75L44.08,65.97L55.1,124.03L66.12,158.1L77.14,174.53L88.16,185.95L110.2,196.87L121.22,201.05L143.27,212.03L154.29,218.99L165.31,225.28L176.33,226.43L209.39,232.26L220.41,235.21L242.45,241.34L253.47,245.51L264.49,249.37L275.51,251.51L297.55,258.64L308.57,260.92L319.59,262.98L330.61,267.14L363.67,274.95L374.69,277.68L396.73,283.65L407.76,285L418.78,289L429.8,291.49L451.84,293.93L462.86,294.91L495.92,296.72L506.94,298.36L528.98,299.41L540,299.91" style="vector-effect: non-scaling-stroke; fill: none; stroke: rgb(0, 204, 150); stroke-opacity: 1; stroke-width: 2px; opacity: 1;"/></g><g class="points"/><g class="text"/></g><g class="trace scatter trace41a751" style="stroke-miterlimit: 2; opacity: 1;"><g class="fills"/><g class="errorbars"/><g class="lines"><path class="js-line" d="M0,0.24L11.02,4.92L22.04,19.13L33.06,34.72L44.08,70.51L55.1,124.47L66.12,154.67L77.14,171.83L88.16,183.11L110.2,195.8L121.22,199.22L143.27,205.65L154.29,209.88L165.31,219.68L176.33,224.1L187.35,227.82L198.37,229.56L231.43,238.7L242.45,242.59L253.47,246.75L264.49,249.8L286.53,255.32L297.55,259.93L308.57,261.09L319.59,264.47L330.61,268.35L341.63,269.39L352.65,273.13L363.67,275.01L374.69,277.2L385.71,280.68L396.73,283.76L407.76,285.5L429.8,291.18L440.82,292.7L462.86,294.76L473.88,295.29L517.96,298.5L528.98,298.69L540,299.73" style="vector-effect: non-scaling-stroke; fill: none; stroke: rgb(171, 99, 250); stroke-opacity: 1; stroke-width: 2px; opacity: 1;"/></g><g class="points"/><g class="text"/></g><g class="trace scatter trace3e7e21" style="stroke-miterlimit: 2; opacity: 1;"><g class="fills"/><g class="errorbars"/><g class="lines"><path class="js-line" d="M0,0.29L11.02,4.76L22.04,18.1L33.06,30.18L44.08,50.29L55.1,99.04L66.12,139.6L77.14,162.19L88.16,173.97L110.2,191.9L121.22,199.64L132.24,208.62L143.27,215.46L154.29,219.44L165.31,226.23L187.35,230.37L198.37,233.73L231.43,244.3L242.45,247.36L253.47,252.96L264.49,256.99L275.51,259.48L286.53,263.67L297.55,267.76L308.57,270.3L319.59,274.2L330.61,277.23L341.63,279.86L352.65,283.45L374.69,286.6L385.71,291.45L396.73,294.13L407.76,295.85L429.8,302.51L440.82,304.18L451.84,305.44L462.86,305.72L484.9,307.59L495.92,307.8L506.94,309.56L517.96,310.17L528.98,310.18L540,311.06" style="vector-effect: non-scaling-stroke; fill: none; stroke: rgb(255, 161, 90); stroke-opacity: 1; stroke-width: 2px; opacity: 1;"/></g><g class="points"/><g class="text"/></g><g class="trace scatter trace6c0bf2" style="stroke-miterlimit: 2; opacity: 1;"><g class="fills"/><g class="errorbars"/><g class="lines"><path class="js-line" d="M0,0.22L11.02,4.89L22.04,18.42L33.06,31.98L44.08,52.35L55.1,83.59L66.12,125.53L77.14,154.55L88.16,170.56L99.18,180.03L110.2,188.5L121.22,193.25L132.24,200.38L143.27,207.75L154.29,213.73L165.31,218.88L176.33,221.46L220.41,229.99L231.43,234.98L242.45,237.82L253.47,242.35L264.49,246.33L275.51,248.67L286.53,252.38L297.55,257.62L308.57,259L319.59,262.59L330.61,265.87L341.63,268.3L352.65,272.26L363.67,273.65L374.69,276.35L385.71,280.34L407.76,284.93L418.78,288.3L429.8,291.04L440.82,292.84L473.88,295.59L484.9,296.38L495.92,296.31L506.94,298.15L540,299.42" style="vector-effect: non-scaling-stroke; fill: none; stroke: rgb(25, 211, 243); stroke-opacity: 1; stroke-width: 2px; opacity: 1;"/></g><g class="points"/><g class="text"/></g><g class="trace scatter tracee41934" style="stroke-miterlimit: 2; opacity: 1;"><g class="fills"/><g class="errorbars"/><g class="lines"><path class="js-line" d="M0,0.18L11.02,4.36L22.04,16.95L33.06,31.45L44.08,55.72L66.12,129.38L77.14,159.41L88.16,175.66L99.18,185.92L110.2,194.71L121.22,204.76L132.24,212.36L143.27,216.05L154.29,220.04L165.31,223.09L198.37,228.44L209.39,231.18L220.41,233.05L231.43,236.62L253.47,243.99L264.49,248.33L286.53,253.64L297.55,258.44L319.59,262.97L330.61,266.9L341.63,268.8L352.65,272.99L374.69,277.28L385.71,281.47L429.8,292.64L440.82,293.82L451.84,295.66L462.86,295.95L484.9,297.68L495.92,297.69L506.94,299.78L517.96,300.4L540,301" style="vector-effect: non-scaling-stroke; fill: none; stroke: rgb(255, 102, 146); stroke-opacity: 1; stroke-width: 2px; opacity: 1;"/></g><g class="points"/><g class="text"/></g><g class="trace scatter traceecff53" style="stroke-miterlimit: 2; opacity: 1;"><g class="fills"/><g class="errorbars"/><g class="lines"><path class="js-line" d="M0,0.18L11.02,4.62L22.04,18.03L33.06,32.33L44.08,54.76L66.12,135.77L77.14,159.92L88.16,172.31L99.18,180.08L110.2,187.55L121.22,192.72L143.27,206.14L154.29,213.47L165.31,219.96L176.33,223.65L187.35,226.37L198.37,230.56L209.39,233.36L220.41,235.36L253.47,249.43L264.49,252.51L275.51,255.47L286.53,259.47L297.55,263.59L308.57,265.95L330.61,272.85L341.63,274.74L352.65,279.07L363.67,280.67L374.69,282.41L385.71,286.97L418.78,294.37L429.8,297L451.84,299.56L462.86,300.29L484.9,302.44L495.92,301.96L506.94,304.17L517.96,303.88L540,305.14" style="vector-effect: non-scaling-stroke; fill: none; stroke: rgb(182, 232, 128); stroke-opacity: 1; stroke-width: 2px; opacity: 1;"/></g><g class="points"/><g class="text"/></g><g class="trace scatter traceec96fb" style="stroke-miterlimit: 2; opacity: 1;"><g class="fills"/><g class="errorbars"/><g class="lines"><path class="js-line" d="M0,0.27L11.02,4.92L22.04,18.69L33.06,33.7L44.08,58.55L55.1,108.62L66.12,147.48L77.14,166.4L88.16,179.13L99.18,187.68L110.2,193.69L121.22,199.37L132.24,203.67L154.29,209.53L165.31,214.21L176.33,216.17L187.35,220.39L198.37,226L209.39,230.05L231.43,238.2L242.45,241.42L264.49,250.24L275.51,252.78L286.53,256.38L297.55,261.38L308.57,262.37L319.59,266.23L352.65,275.72L363.67,278.24L374.69,280.29L385.71,284.18L407.76,289.36L418.78,292.4L429.8,295.27L440.82,296.8L495.92,300.48L506.94,302.22L540,303.92" style="vector-effect: non-scaling-stroke; fill: none; stroke: rgb(255, 151, 255); stroke-opacity: 1; stroke-width: 2px; opacity: 1;"/></g><g class="points"/><g class="text"/></g><g class="trace scatter tracef78dd2" style="stroke-miterlimit: 2; opacity: 1;"><g class="fills"/><g class="errorbars"/><g class="lines"><path class="js-line" d="M0,0.15L11.02,4.31L22.04,17.08L33.06,31.65L44.08,64.85L55.1,111.02L66.12,146.2L77.14,165.81L88.16,178.56L99.18,188.93L110.2,200.95L121.22,209.26L132.24,216.24L154.29,223.8L165.31,227.76L176.33,228.59L187.35,231.21L198.37,232.58L209.39,234.74L220.41,237.27L231.43,241.52L264.49,252.87L275.51,255.5L286.53,258.69L297.55,263.83L308.57,265.23L319.59,268.44L330.61,272.02L341.63,273.56L352.65,277.84L363.67,279.17L374.69,281.44L385.71,285.58L396.73,288.4L407.76,290.37L429.8,296.62L440.82,298.3L484.9,301.95L495.92,301.48L506.94,303.64L517.96,304.18L540,305.08" style="vector-effect: non-scaling-stroke; fill: none; stroke: rgb(254, 203, 82); stroke-opacity: 1; stroke-width: 2px; opacity: 1;"/></g><g class="points"/><g class="text"/></g><g class="trace scatter tracedc10b0" style="stroke-miterlimit: 2; opacity: 1;"><g class="fills"/><g class="errorbars"/><g class="lines"><path class="js-line" d="M0,0.23L11.02,4.89L22.04,18.61L33.06,32.69L44.08,54.97L66.12,122.54L77.14,152.29L88.16,169.46L99.18,178.94L110.2,186.19L121.22,190.68L154.29,207.21L165.31,215.59L176.33,217.83L187.35,222.2L198.37,222.83L209.39,226.76L220.41,228.38L231.43,232.73L275.51,246.28L286.53,249.26L297.55,253.8L308.57,255.66L319.59,258.62L330.61,262.78L341.63,264.55L352.65,268.83L363.67,270.49L374.69,272.98L396.73,279.52L407.76,281.99L429.8,288.02L440.82,289.23L451.84,290.72L462.86,291.05L484.9,293.07L495.92,293.1L506.94,294.53L517.96,294.86L540,296.17" style="vector-effect: non-scaling-stroke; fill: none; stroke: rgb(99, 110, 250); stroke-opacity: 1; stroke-width: 2px; opacity: 1;"/></g><g class="points"/><g class="text"/></g><g class="trace scatter trace5bcae7" style="stroke-miterlimit: 2; opacity: 1;"><g class="fills"/><g class="errorbars"/><g class="lines"><path class="js-line" d="M0,0.23L11.02,4.99L22.04,18.69L33.06,34.12L44.08,66.54L55.1,122.67L66.12,159L77.14,174.55L88.16,185.89L99.18,193.68L110.2,199L132.24,208.42L143.27,213.96L154.29,218.85L165.31,225.17L176.33,228.93L187.35,230.98L220.41,238.13L231.43,243.41L253.47,250.97L264.49,255.35L275.51,257.28L286.53,260.76L297.55,265.47L308.57,266.28L330.61,273.19L341.63,274.99L352.65,278.44L363.67,280.32L374.69,282.11L385.71,286.44L418.78,294.38L429.8,296.85L451.84,300.01L462.86,300.23L484.9,302.3L495.92,302.54L506.94,304.07L517.96,304.68L540,305.69" style="vector-effect: non-scaling-stroke; fill: none; stroke: rgb(239, 85, 59); stroke-opacity: 1; stroke-width: 2px; opacity: 1;"/></g><g class="points"/><g class="text"/></g><g class="trace scatter trace0154ea" style="stroke-miterlimit: 2; opacity: 1;"><g class="fills"/><g class="errorbars"/><g class="lines"><path class="js-line" d="M0,0.15L11.02,4.63L22.04,17.44L33.06,36.72L44.08,85.33L55.1,116.77L66.12,143.65L77.14,164.84L88.16,179.42L99.18,188.34L110.2,194.03L121.22,199.89L132.24,207.09L154.29,224.1L165.31,230.38L187.35,235.28L198.37,237.47L209.39,239.41L220.41,242.79L242.45,249.64L253.47,254.89L275.51,259.72L286.53,262.83L297.55,267.31L308.57,268.62L319.59,271.29L330.61,275.02L341.63,276.96L352.65,280.38L363.67,282.96L374.69,284.74L385.71,288.49L396.73,290.79L418.78,295.95L429.8,299.17L462.86,302.03L473.88,302.76L484.9,304.18L495.92,304.08L506.94,305.91L517.96,306.38L540,307.24" style="vector-effect: non-scaling-stroke; fill: none; stroke: rgb(0, 204, 150); stroke-opacity: 1; stroke-width: 2px; opacity: 1;"/></g><g class="points"/><g class="text"/></g><g class="trace scatter tracecfa1c1" style="stroke-miterlimit: 2; opacity: 1;"><g class="fills"/><g class="errorbars"/><g class="lines"><path class="js-line" d="M0,0.23L11.02,5L22.04,18.96L33.06,34.61L44.08,64.18L55.1,119.39L66.12,155.5L77.14,171.74L88.16,182.98L99.18,189.63L110.2,195L121.22,198.79L132.24,203.93L154.29,213.33L165.31,219.89L220.41,232.35L231.43,235.87L242.45,238.89L253.47,243.31L264.49,247.36L275.51,249.94L286.53,253.29L297.55,258.26L308.57,260L319.59,264.61L330.61,268.3L341.63,269.11L352.65,273.93L363.67,275.06L374.69,277.53L385.71,281.89L418.78,288.98L429.8,291.85L451.84,294.7L462.86,295.28L484.9,296.93L495.92,297.18L506.94,298.84L517.96,299.51L540,300.42" style="vector-effect: non-scaling-stroke; fill: none; stroke: rgb(171, 99, 250); stroke-opacity: 1; stroke-width: 2px; opacity: 1;"/></g><g class="points"/><g class="text"/></g><g class="trace scatter tracec2ac21" style="stroke-miterlimit: 2; opacity: 1;"><g class="fills"/><g class="errorbars"/><g class="lines"><path class="js-line" d="M0,0.23L11.02,4.61L22.04,18.3L33.06,33.41L44.08,62.99L55.1,111L66.12,149.36L77.14,170.76L88.16,182.95L99.18,191.64L110.2,197.55L121.22,200.29L132.24,204.11L154.29,208.81L165.31,214.27L198.37,225.83L209.39,229.79L220.41,232.37L231.43,236.19L242.45,239.3L253.47,244.89L264.49,247.93L275.51,250.14L297.55,258.45L308.57,260.04L330.61,266.4L341.63,267.88L352.65,271.42L363.67,273.84L374.69,275.08L385.71,279.58L407.76,284.1L418.78,287.44L429.8,290.46L440.82,291.99L495.92,295.62L506.94,297.33L540,298.59" style="vector-effect: non-scaling-stroke; fill: none; stroke: rgb(255, 161, 90); stroke-opacity: 1; stroke-width: 2px; opacity: 1;"/></g><g class="points"/><g class="text"/></g><g class="trace scatter tracede416f" style="stroke-miterlimit: 2; opacity: 1;"><g class="fills"/><g class="errorbars"/><g class="lines"><path class="js-line" d="M0,0.25L11.02,4.93L22.04,18.91L33.06,35.15L44.08,65.34L55.1,113.69L66.12,145.92L77.14,162.07L88.16,172.29L99.18,180.66L110.2,186.51L121.22,190.33L132.24,195.03L154.29,198.85L165.31,203.25L176.33,204.02L187.35,205.98L209.39,211.76L220.41,215.86L231.43,224.57L242.45,230.01L264.49,240.18L275.51,243.08L297.55,251.77L308.57,252.92L330.61,260L341.63,262.12L352.65,265.65L363.67,267.84L374.69,270.18L385.71,273.71L429.8,284.8L440.82,286.15L462.86,288.13L473.88,288.92L495.92,289.85L506.94,291.61L540,292.64" style="vector-effect: non-scaling-stroke; fill: none; stroke: rgb(25, 211, 243); stroke-opacity: 1; stroke-width: 2px; opacity: 1;"/></g><g class="points"/><g class="text"/></g><g class="trace scatter tracebf0c56" style="stroke-miterlimit: 2; opacity: 1;"><g class="fills"/><g class="errorbars"/><g class="lines"><path class="js-line" d="M0,0.25L11.02,4.85L22.04,18.6L33.06,33.44L44.08,62.54L55.1,114.6L66.12,147.11L77.14,164.63L88.16,177.24L99.18,185.06L110.2,191.36L121.22,194.87L132.24,199.44L143.27,200.7L154.29,203.77L165.31,209.26L176.33,212.86L187.35,220.15L198.37,225.06L220.41,232.24L231.43,236.53L253.47,244.39L264.49,249.32L286.53,255.4L297.55,259.49L308.57,261.26L319.59,265.52L330.61,269.1L341.63,271.42L363.67,277.8L374.69,279.54L396.73,286.9L407.76,288.87L429.8,294.73L440.82,296.62L484.9,300.45L495.92,300.69L506.94,302.13L517.96,302.63L540,303.76" style="vector-effect: non-scaling-stroke; fill: none; stroke: rgb(255, 102, 146); stroke-opacity: 1; stroke-width: 2px; opacity: 1;"/></g><g class="points"/><g class="text"/></g><g class="trace scatter tracefde7f0" style="stroke-miterlimit: 2; opacity: 1;"><g class="fills"/><g class="errorbars"/><g class="lines"><path class="js-line" d="M0,0.24L11.02,4.56L22.04,17.78L33.06,31.21L44.08,52.82L66.12,134.65L77.14,160.24L88.16,175L99.18,185.44L110.2,193.89L121.22,199.11L143.27,215.16L154.29,220.87L165.31,226.51L176.33,229.1L187.35,232.33L198.37,234.66L209.39,237.2L220.41,240.78L231.43,245.42L242.45,248.75L253.47,254.6L264.49,257.2L297.55,268.57L308.57,271.03L319.59,273.62L330.61,277.61L341.63,279.48L352.65,283.22L374.69,287.49L385.71,292.06L396.73,295.05L407.76,296.96L429.8,303.16L440.82,304.82L473.88,307.37L484.9,307.97L495.92,308.18L506.94,310.44L517.96,311.14L528.98,311.04L540,311.92" style="vector-effect: non-scaling-stroke; fill: none; stroke: rgb(182, 232, 128); stroke-opacity: 1; stroke-width: 2px; opacity: 1;"/></g><g class="points"/><g class="text"/></g><g class="trace scatter trace1573ae" style="stroke-miterlimit: 2; opacity: 1;"><g class="fills"/><g class="errorbars"/><g class="lines"><path class="js-line" d="M0,0.2L11.02,4.67L22.04,18.23L33.06,33.03L44.08,55.96L66.12,144.4L77.14,163.14L88.16,176.69L99.18,184.78L121.22,198.67L132.24,207.41L143.27,213.05L154.29,216.35L165.31,221.67L176.33,225.86L209.39,235.44L220.41,239.28L231.43,242.94L242.45,247.43L253.47,253.07L264.49,257.67L275.51,259.65L286.53,263.74L297.55,267.55L308.57,269.89L319.59,274.09L330.61,276.97L341.63,278.63L352.65,283.23L363.67,285.86L374.69,287.5L385.71,291.36L396.73,294.16L418.78,299.1L429.8,302.62L440.82,304.28L451.84,305.13L462.86,305.6L473.88,307.01L506.94,309.26L517.96,310.15L540,310.9" style="vector-effect: non-scaling-stroke; fill: none; stroke: rgb(255, 151, 255); stroke-opacity: 1; stroke-width: 2px; opacity: 1;"/></g><g class="points"/><g class="text"/></g><g class="trace scatter trace2cc6f3" style="stroke-miterlimit: 2; opacity: 1;"><g class="fills"/><g class="errorbars"/><g class="lines"><path class="js-line" d="M0,0.23L11.02,4.99L22.04,18.64L33.06,33.71L44.08,64.71L55.1,122.79L66.12,158.36L77.14,174.71L88.16,185.33L121.22,200.8L132.24,204.34L154.29,212.36L165.31,220.53L176.33,224.61L187.35,227.02L231.43,237.75L242.45,241.44L253.47,246.71L264.49,250.64L275.51,254.1L286.53,256.12L297.55,260.88L308.57,262.65L330.61,269.92L341.63,271.68L352.65,275.17L363.67,277.39L374.69,279.77L385.71,283.51L407.76,287.78L418.78,291.13L440.82,295.38L451.84,296.46L495.92,298.93L506.94,300.68L517.96,301.48L528.98,301.3L540,302.1" style="vector-effect: non-scaling-stroke; fill: none; stroke: rgb(254, 203, 82); stroke-opacity: 1; stroke-width: 2px; opacity: 1;"/></g><g class="points"/><g class="text"/></g><g class="trace scatter trace361fb4" style="stroke-miterlimit: 2; opacity: 1;"><g class="fills"/><g class="errorbars"/><g class="lines"><path class="js-line" d="M0,0.23L11.02,4.91L22.04,18.52L33.06,34.77L44.08,69.37L55.1,126.07L66.12,157.79L77.14,173.38L88.16,183.63L99.18,191.21L110.2,196.71L121.22,200.66L132.24,206.86L154.29,218.11L165.31,223.67L198.37,233.46L209.39,235.49L220.41,238.32L231.43,242.22L242.45,245.99L253.47,250.89L264.49,254.78L275.51,256.89L286.53,259.94L297.55,264.63L308.57,265.96L319.59,269.66L330.61,274.17L341.63,275.48L363.67,281.79L374.69,283.57L385.71,287.19L396.73,289.73L429.8,298.14L440.82,299.84L451.84,301.28L462.86,301.62L517.96,305.81L528.98,306.19L540,307.31" style="vector-effect: non-scaling-stroke; fill: none; stroke: rgb(99, 110, 250); stroke-opacity: 1; stroke-width: 2px; opacity: 1;"/></g><g class="points"/><g class="text"/></g><g class="trace scatter traceb4fb37" style="stroke-miterlimit: 2; opacity: 1;"><g class="fills"/><g class="errorbars"/><g class="lines"><path class="js-line" d="M0,0.22L11.02,4.89L22.04,18.9L33.06,35.36L44.08,76.5L55.1,127.64L66.12,155.49L77.14,170.51L88.16,180.06L99.18,186.87L110.2,191.4L121.22,194.32L132.24,198.91L154.29,204.22L165.31,211.36L198.37,223.7L209.39,225.82L220.41,230.42L231.43,234.08L242.45,238.02L253.47,242.97L264.49,247.29L275.51,250.38L297.55,257.45L308.57,259.32L330.61,265.64L341.63,267.86L352.65,272.09L363.67,274.22L374.69,276.08L385.71,279.81L429.8,291.2L440.82,292.46L473.88,295.14L484.9,296.09L495.92,296.61L506.94,297.92L517.96,298.86L528.98,298.94L540,299.58" style="vector-effect: non-scaling-stroke; fill: none; stroke: rgb(239, 85, 59); stroke-opacity: 1; stroke-width: 2px; opacity: 1;"/></g><g class="points"/><g class="text"/></g><g class="trace scatter trace8cf1ca" style="stroke-miterlimit: 2; opacity: 1;"><g class="fills"/><g class="errorbars"/><g class="lines"><path class="js-line" d="M0,0.28L11.02,4.98L22.04,18.27L33.06,30.15L44.08,48.46L66.12,124.55L77.14,154.74L88.16,171.23L99.18,181.67L110.2,189.57L121.22,196.35L143.27,213.64L154.29,219.47L165.31,223.69L176.33,225.87L220.41,236.17L231.43,240.01L242.45,243.5L253.47,248.58L264.49,252.93L275.51,255.39L286.53,258.23L297.55,262.65L308.57,264.52L319.59,267.59L341.63,273.26L352.65,276.79L374.69,280.46L385.71,284.57L396.73,287.48L407.76,289.09L429.8,295.36L440.82,296.83L484.9,300.26L495.92,300.23L506.94,302.09L517.96,302.84L540,303.47" style="vector-effect: non-scaling-stroke; fill: none; stroke: rgb(0, 204, 150); stroke-opacity: 1; stroke-width: 2px; opacity: 1;"/></g><g class="points"/><g class="text"/></g><g class="trace scatter trace3231ce" style="stroke-miterlimit: 2; opacity: 1;"><g class="fills"/><g class="errorbars"/><g class="lines"><path class="js-line" d="M0,0.26L11.02,5.01L22.04,18.43L33.06,30.92L44.08,56.92L55.1,99.36L66.12,133.63L77.14,161.04L88.16,175.04L99.18,185.12L110.2,192.6L121.22,200.5L132.24,210.61L143.27,217.14L154.29,221.59L165.31,228.29L176.33,230.46L198.37,236.02L209.39,238.01L231.43,243.71L242.45,247.55L253.47,252.44L264.49,255.1L297.55,265.78L308.57,267.47L330.61,273.77L341.63,275.77L363.67,282.62L374.69,283.58L396.73,291.24L407.76,293.06L429.8,299.59L440.82,300.77L484.9,304.69L495.92,304.67L506.94,306.8L517.96,307.21L528.98,307L540,308.32" style="vector-effect: non-scaling-stroke; fill: none; stroke: rgb(171, 99, 250); stroke-opacity: 1; stroke-width: 2px; opacity: 1;"/></g><g class="points"/><g class="text"/></g><g class="trace scatter trace2cdf55" style="stroke-miterlimit: 2; opacity: 1;"><g class="fills"/><g class="errorbars"/><g class="lines"><path class="js-line" d="M0,0.22L11.02,4.74L22.04,17.85L33.06,31.21L44.08,50.42L55.1,89.17L66.12,131.45L77.14,155.01L88.16,169.55L99.18,178.38L110.2,185.33L121.22,191.17L132.24,195.9L143.27,198.5L154.29,202.01L176.33,210.52L187.35,215.97L209.39,224.89L220.41,229.48L231.43,234.83L242.45,238.78L264.49,248.44L275.51,251.74L297.55,259.33L308.57,262.12L330.61,269.41L341.63,270.72L352.65,274.9L363.67,277.37L374.69,278.95L385.71,282.93L407.76,287.95L418.78,290.47L429.8,293.53L440.82,295.08L462.86,296.89L473.88,297.58L484.9,298.68L495.92,298.66L506.94,301.03L517.96,300.86L528.98,300.95L540,301.85" style="vector-effect: non-scaling-stroke; fill: none; stroke: rgb(255, 161, 90); stroke-opacity: 1; stroke-width: 2px; opacity: 1;"/></g><g class="points"/><g class="text"/></g><g class="trace scatter tracef7d3dd" style="stroke-miterlimit: 2; opacity: 1;"><g class="fills"/><g class="errorbars"/><g class="lines"><path class="js-line" d="M0,0.22L11.02,4.73L22.04,17.77L33.06,30.25L44.08,51.72L55.1,100.13L66.12,139.12L77.14,163.5L88.16,176.6L110.2,191.75L121.22,197.52L154.29,212.77L165.31,221.15L176.33,225.99L187.35,229.77L209.39,235.73L220.41,240.5L242.45,248.79L253.47,254.28L297.55,267.98L308.57,270.28L330.61,276.95L341.63,279.31L352.65,282.37L363.67,284.28L374.69,286.33L385.71,290.23L429.8,300.59L440.82,302.26L473.88,304.62L484.9,305.44L495.92,305.54L506.94,306.96L528.98,307.81L540,308.11" style="vector-effect: non-scaling-stroke; fill: none; stroke: rgb(25, 211, 243); stroke-opacity: 1; stroke-width: 2px; opacity: 1;"/></g><g class="points"/><g class="text"/></g><g class="trace scatter trace321f6b" style="stroke-miterlimit: 2; opacity: 1;"><g class="fills"/><g class="errorbars"/><g class="lines"><path class="js-line" d="M0,0.28L11.02,4.72L22.04,17.85L33.06,30.48L44.08,56.55L55.1,92.59L66.12,125.44L77.14,154.9L88.16,172.95L99.18,183.42L110.2,194.96L121.22,203.86L132.24,211.04L154.29,218.13L165.31,221.46L176.33,223.47L187.35,224.7L220.41,231.56L231.43,235.17L242.45,239.05L253.47,244.04L264.49,249.13L275.51,251.58L297.55,260.27L308.57,262.43L319.59,266.96L330.61,269.62L352.65,276.91L363.67,279.28L374.69,281.01L385.71,285.75L396.73,288.64L407.76,290.4L429.8,297.01L440.82,298.72L462.86,300.5L473.88,301.63L484.9,302.44L495.92,302.43L506.94,304.52L517.96,305.34L528.98,305.18L540,306.3" style="vector-effect: non-scaling-stroke; fill: none; stroke: rgb(255, 102, 146); stroke-opacity: 1; stroke-width: 2px; opacity: 1;"/></g><g class="points"/><g class="text"/></g><g class="trace scatter trace60ba1f" style="stroke-miterlimit: 2; opacity: 1;"><g class="fills"/><g class="errorbars"/><g class="lines"><path class="js-line" d="M0,0.27L11.02,5.03L22.04,19.39L33.06,36.12L44.08,79.69L55.1,127.46L66.12,154.02L77.14,169.17L88.16,179.83L99.18,186.9L110.2,192.59L132.24,200.29L143.27,202.72L154.29,205.9L165.31,211.84L187.35,220.68L198.37,225.63L209.39,227.16L220.41,230.55L253.47,241.94L264.49,247.15L275.51,249.32L286.53,252.57L297.55,257.56L308.57,258.73L330.61,266.2L341.63,267.65L352.65,271.49L363.67,273.35L374.69,275.77L385.71,279.65L396.73,282.65L407.76,284.46L429.8,290.39L440.82,291.93L462.86,294.02L473.88,294.55L484.9,295.69L495.92,295.92L506.94,297.45L517.96,298.06L528.98,298.07L540,299.06" style="vector-effect: non-scaling-stroke; fill: none; stroke: rgb(182, 232, 128); stroke-opacity: 1; stroke-width: 2px; opacity: 1;"/></g><g class="points"/><g class="text"/></g><g class="trace scatter trace9f7f49" style="stroke-miterlimit: 2; opacity: 1;"><g class="fills"/><g class="errorbars"/><g class="lines"><path class="js-line" d="M0,0.24L11.02,4.91L22.04,18.63L33.06,31.75L44.08,57.21L55.1,97.15L66.12,130.68L77.14,155.87L88.16,171.42L99.18,180.29L110.2,187.23L121.22,192.78L132.24,201.43L143.27,210.14L154.29,216.04L165.31,221.82L176.33,222.55L198.37,228.19L209.39,232.08L231.43,237.59L242.45,241.41L253.47,246.25L264.49,250.08L275.51,252.73L286.53,256.44L297.55,259.92L308.57,262.07L330.61,269.69L341.63,271.56L352.65,275.46L363.67,277.36L374.69,279.55L385.71,283.71L396.73,286.92L407.76,288.73L429.8,295.06L440.82,296.68L462.86,298.4L473.88,299.22L495.92,300.31L506.94,301.96L540,303.72" style="vector-effect: non-scaling-stroke; fill: none; stroke: rgb(255, 151, 255); stroke-opacity: 1; stroke-width: 2px; opacity: 1;"/></g><g class="points"/><g class="text"/></g><g class="trace scatter traceb63722" style="stroke-miterlimit: 2; opacity: 1;"><g class="fills"/><g class="errorbars"/><g class="lines"><path class="js-line" d="M0,0.18L11.02,4.85L22.04,18.82L33.06,36.71L44.08,74.09L55.1,108.21L66.12,130.86L77.14,154.96L88.16,174.53L99.18,186.07L110.2,193.56L132.24,208.98L143.27,214.72L165.31,223.03L176.33,226.01L187.35,227.99L198.37,231.04L220.41,236.16L231.43,239.94L264.49,251.98L275.51,253.87L286.53,258.27L297.55,261.06L319.59,265.81L330.61,269.31L352.65,275.12L363.67,276.97L374.69,279.2L385.71,283.18L418.78,291.11L429.8,294.05L451.84,296.62L462.86,297.35L506.94,300.99L517.96,301.27L540,302.32" style="vector-effect: non-scaling-stroke; fill: none; stroke: rgb(254, 203, 82); stroke-opacity: 1; stroke-width: 2px; opacity: 1;"/></g><g class="points"/><g class="text"/></g><g class="trace scatter trace5a1f78" style="stroke-miterlimit: 2; opacity: 1;"><g class="fills"/><g class="errorbars"/><g class="lines"><path class="js-line" d="M0,0.23L11.02,4.49L22.04,17.23L33.06,31.43L44.08,62.34L55.1,100.07L66.12,123.55L77.14,150.31L88.16,169.05L99.18,178.29L110.2,184.4L121.22,189.54L132.24,196.65L154.29,211.65L165.31,218.1L187.35,224.53L198.37,227.53L231.43,235.7L242.45,239.52L264.49,248.04L275.51,250.45L286.53,254.99L297.55,258.41L308.57,260.62L319.59,264.62L341.63,270.09L352.65,274.27L374.69,278.94L385.71,282.79L429.8,294.04L440.82,295.89L451.84,297.41L462.86,298.16L495.92,300.1L506.94,301.83L540,303.36" style="vector-effect: non-scaling-stroke; fill: none; stroke: rgb(99, 110, 250); stroke-opacity: 1; stroke-width: 2px; opacity: 1;"/></g><g class="points"/><g class="text"/></g><g class="trace scatter tracecbe3b9" style="stroke-miterlimit: 2; opacity: 1;"><g class="fills"/><g class="errorbars"/><g class="lines"><path class="js-line" d="M0,0.23L11.02,4.99L22.04,18.64L33.06,33.75L44.08,65.97L55.1,124.03L66.12,158.1L77.14,174.53L88.16,185.95L110.2,196.87L121.22,201.05L143.27,212.03L154.29,218.99L165.31,225.28L176.33,226.42L209.39,232.21L220.41,235.42L231.43,238.77L242.45,241.2L253.47,245.69L264.49,249.32L275.51,251.33L286.53,255.26L297.55,259.1L308.57,260.59L319.59,262.85L330.61,267.21L341.63,269.44L352.65,272.59L385.71,280.73L396.73,283.76L407.76,285.18L418.78,289.05L429.8,291.52L440.82,293.11L484.9,296.79L495.92,296.82L506.94,298.5L517.96,298.77L540,300.07" style="vector-effect: non-scaling-stroke; fill: none; stroke: rgb(239, 85, 59); stroke-opacity: 1; stroke-width: 2px; opacity: 1;"/></g><g class="points"/><g class="text"/></g><g class="trace scatter tracefcf9c5" style="stroke-miterlimit: 2; opacity: 1;"><g class="fills"/><g class="errorbars"/><g class="lines"><path class="js-line" d="M0,0.28L11.02,4.75L22.04,18.31L33.06,31.9L44.08,61.52L55.1,100.1L66.12,121.69L77.14,135.64L88.16,156.8L99.18,178.81L110.2,191.12L121.22,203.62L132.24,213.89L154.29,223.95L165.31,227.78L176.33,230.1L187.35,231.55L220.41,236.94L231.43,240.91L242.45,244.54L253.47,249.51L264.49,253.26L275.51,255.22L297.55,262.27L308.57,264.44L330.61,270.9L341.63,272.31L352.65,277.23L363.67,278.66L374.69,281.06L385.71,284.67L396.73,287.57L407.76,289.56L429.8,295.87L440.82,297.24L451.84,298.42L462.86,298.62L484.9,300.87L495.92,300.81L506.94,302.77L517.96,303.16L540,304.1" style="vector-effect: non-scaling-stroke; fill: none; stroke: rgb(0, 204, 150); stroke-opacity: 1; stroke-width: 2px; opacity: 1;"/></g><g class="points"/><g class="text"/></g><g class="trace scatter trace08d62b" style="stroke-miterlimit: 2; opacity: 1;"><g class="fills"/><g class="errorbars"/><g class="lines"><path class="js-line" d="M0,0.22L11.02,5.07L22.04,18.77L33.06,33.11L44.08,62.74L55.1,103.87L66.12,128.11L88.16,172.85L99.18,185.31L110.2,193.73L121.22,198.66L132.24,204.41L143.27,208.38L165.31,224.46L176.33,228.65L187.35,232.81L198.37,235.25L231.43,247.18L242.45,249.8L253.47,255.82L264.49,259.12L286.53,264.92L297.55,269.74L308.57,271.01L319.59,274.53L330.61,278.96L341.63,280.86L363.67,287.05L374.69,288.38L396.73,294.92L407.76,296.8L429.8,302.42L440.82,304.22L484.9,307.71L495.92,307.53L506.94,309.32L517.96,309.83L540,310.58" style="vector-effect: non-scaling-stroke; fill: none; stroke: rgb(171, 99, 250); stroke-opacity: 1; stroke-width: 2px; opacity: 1;"/></g><g class="points"/><g class="text"/></g><g class="trace scatter traceece2c8" style="stroke-miterlimit: 2; opacity: 1;"><g class="fills"/><g class="errorbars"/><g class="lines"><path class="js-line" d="M0,0.23L11.02,4.99L22.04,18.64L33.06,33.75L44.08,65.97L55.1,124.03L66.12,158.1L77.14,174.53L88.16,185.95L110.2,196.87L121.22,201.05L143.27,212.03L154.29,218.99L165.31,225.28L176.33,226.43L209.39,232.26L220.41,235.21L242.45,241.34L253.47,245.51L264.49,249.37L275.51,251.51L297.55,258.64L308.57,260.92L319.59,262.98L330.61,267.14L352.65,272.34L363.67,275L385.71,280.61L396.73,283.66L407.76,285.01L418.78,288.97L429.8,291.51L440.82,293.06L484.9,296.66L495.92,296.73L506.94,298.37L517.96,298.6L540,299.91" style="vector-effect: non-scaling-stroke; fill: none; stroke: rgb(255, 161, 90); stroke-opacity: 1; stroke-width: 2px; opacity: 1;"/></g><g class="points"/><g class="text"/></g><g class="trace scatter trace2dbcef" style="stroke-miterlimit: 2; opacity: 1;"><g class="fills"/><g class="errorbars"/><g class="lines"><path class="js-line" d="M0,0.24L11.02,4.66L22.04,17.89L33.06,31.18L44.08,56.18L66.12,132.6L77.14,159.33L88.16,175.7L99.18,185.07L121.22,197.78L132.24,205.48L143.27,210.71L154.29,216.84L165.31,222.83L176.33,225.03L187.35,227.78L198.37,229.18L209.39,234.17L220.41,236.84L242.45,245.3L253.47,249.2L264.49,253.12L275.51,255.99L297.55,264.81L308.57,265.85L330.61,273.49L341.63,275.67L363.67,282.72L374.69,284.56L385.71,288.56L396.73,291.2L407.76,293.37L418.78,296.49L429.8,299.72L440.82,301L462.86,302.95L473.88,303.74L484.9,305.14L495.92,304.77L506.94,306.86L517.96,306.94L540,308.34" style="vector-effect: non-scaling-stroke; fill: none; stroke: rgb(25, 211, 243); stroke-opacity: 1; stroke-width: 2px; opacity: 1;"/></g><g class="points"/><g class="text"/></g><g class="trace scatter trace1882c0" style="stroke-miterlimit: 2; opacity: 1;"><g class="fills"/><g class="errorbars"/><g class="lines"><path class="js-line" d="M0,0.23L11.02,4.78L22.04,17.93L33.06,31.91L44.08,56.33L55.1,94.16L66.12,120.13L77.14,147.29L88.16,167.05L99.18,178.83L110.2,189.33L121.22,199.92L132.24,208.43L154.29,218.4L165.31,223.3L176.33,225.97L187.35,227.01L198.37,230.18L209.39,232.41L242.45,243.64L253.47,248.91L264.49,253.29L275.51,255.21L297.55,263.06L308.57,265.56L319.59,269.48L330.61,272.14L341.63,274.54L352.65,278.71L374.69,282.97L385.71,287.48L429.8,298.79L440.82,300.2L473.88,303.22L484.9,304.11L495.92,304.14L506.94,306.03L540,307.37" style="vector-effect: non-scaling-stroke; fill: none; stroke: rgb(255, 102, 146); stroke-opacity: 1; stroke-width: 2px; opacity: 1;"/></g><g class="points"/><g class="text"/></g><g class="trace scatter trace1837ad" style="stroke-miterlimit: 2; opacity: 1;"><g class="fills"/><g class="errorbars"/><g class="lines"><path class="js-line" d="M0,0.23L11.02,4.92L22.04,19.11L33.06,34.08L44.08,62.71L55.1,110.2L66.12,150.65L77.14,169.01L88.16,181.04L99.18,188.94L110.2,194.67L154.29,214.28L165.31,221.21L176.33,225.23L187.35,227.36L198.37,229.85L209.39,233.32L231.43,238.1L242.45,242.14L253.47,247.6L264.49,251.52L275.51,254.71L286.53,258.71L308.57,265.95L319.59,268.42L330.61,272.37L341.63,274.56L352.65,278.54L363.67,279.98L374.69,282.48L385.71,286.69L396.73,289.45L407.76,291.4L429.8,297.48L440.82,299.17L451.84,300.46L462.86,300.88L517.96,305.2L528.98,305.29L540,305.95" style="vector-effect: non-scaling-stroke; fill: none; stroke: rgb(182, 232, 128); stroke-opacity: 1; stroke-width: 2px; opacity: 1;"/></g><g class="points"/><g class="text"/></g><g class="trace scatter trace8e83ed" style="stroke-miterlimit: 2; opacity: 1;"><g class="fills"/><g class="errorbars"/><g class="lines"><path class="js-line" d="M0,0.23L11.02,4.99L22.04,18.64L33.06,33.75L44.08,65.97L55.1,124.03L66.12,158.1L77.14,174.53L88.16,185.95L110.2,196.87L121.22,201.05L143.27,212.03L154.29,218.99L165.31,225.28L176.33,226.43L209.39,232.26L220.41,235.21L242.45,241.34L253.47,245.51L264.49,249.37L275.51,251.51L297.55,258.64L308.57,260.92L319.59,262.98L330.61,267.14L352.65,272.34L363.67,275L385.71,280.61L396.73,283.66L407.76,285.01L418.78,288.97L429.8,291.51L440.82,293.06L484.9,296.66L495.92,296.73L506.94,298.37L517.96,298.6L540,299.91" style="vector-effect: non-scaling-stroke; fill: none; stroke: rgb(255, 151, 255); stroke-opacity: 1; stroke-width: 2px; opacity: 1;"/></g><g class="points"/><g class="text"/></g><g class="trace scatter trace2dc9b9" style="stroke-miterlimit: 2; opacity: 1;"><g class="fills"/><g class="errorbars"/><g class="lines"><path class="js-line" d="M0,0.28L11.02,4.89L22.04,18.32L33.06,31.91L44.08,55.84L55.1,101.32L66.12,143.43L77.14,164.06L88.16,174.85L99.18,182.55L110.2,188.69L121.22,192.35L132.24,197.44L143.27,200.92L154.29,202.48L176.33,217.95L187.35,222.93L209.39,230.99L220.41,233.35L231.43,239.03L242.45,242.67L253.47,248.67L264.49,252.82L286.53,259.33L297.55,263.35L308.57,264.4L319.59,268.87L330.61,272.17L341.63,274.44L352.65,278.81L363.67,280.85L374.69,283.23L385.71,286.85L418.78,294.94L429.8,297.93L440.82,299.67L451.84,300.53L473.88,301.82L484.9,302.47L495.92,303.09L506.94,304.68L540,306.19" style="vector-effect: non-scaling-stroke; fill: none; stroke: rgb(254, 203, 82); stroke-opacity: 1; stroke-width: 2px; opacity: 1;"/></g><g class="points"/><g class="text"/></g><g class="trace scatter tracedb8bd4" style="stroke-miterlimit: 2; opacity: 1;"><g class="fills"/><g class="errorbars"/><g class="lines"><path class="js-line" d="M0,0.23L11.02,4.99L22.04,18.64L33.06,33.75L44.08,65.97L55.1,124.03L66.12,158.1L77.14,174.53L88.16,185.95L110.2,196.87L121.22,201.05L143.27,212.03L154.29,218.99L165.31,225.28L176.33,226.43L209.39,232.26L220.41,235.21L242.45,241.34L253.47,245.51L264.49,249.37L275.51,251.51L297.55,258.64L308.57,260.92L319.59,262.98L330.61,267.14L352.65,272.34L363.67,275L385.71,280.61L396.73,283.66L407.76,285.01L418.78,288.97L429.8,291.51L440.82,293.06L484.9,296.66L495.92,296.73L506.94,298.37L517.96,298.6L540,299.91" style="vector-effect: non-scaling-stroke; fill: none; stroke: rgb(99, 110, 250); stroke-opacity: 1; stroke-width: 2px; opacity: 1;"/></g><g class="points"/><g class="text"/></g><g class="trace scatter tracea34159" style="stroke-miterlimit: 2; opacity: 1;"><g class="fills"/><g class="errorbars"/><g class="lines"><path class="js-line" d="M0,0.22L11.02,4.78L22.04,18.61L33.06,33.88L44.08,56.92L55.1,106.72L66.12,146.41L77.14,165.95L88.16,179.01L99.18,187.56L110.2,193.29L121.22,198.47L132.24,202.78L154.29,208.58L165.31,215.31L198.37,227.31L209.39,228.86L220.41,233.66L231.43,236.68L242.45,239.46L253.47,245.53L286.53,255.17L297.55,259.33L319.59,264.4L330.61,269.07L341.63,270.8L352.65,274.28L374.69,278.34L385.71,282.61L396.73,285.97L407.76,288.05L429.8,294.04L440.82,295.4L473.88,298.5L484.9,299.2L495.92,299.4L506.94,300.81L540,302.58" style="vector-effect: non-scaling-stroke; fill: none; stroke: rgb(239, 85, 59); stroke-opacity: 1; stroke-width: 2px; opacity: 1;"/></g><g class="points"/><g class="text"/></g><g class="trace scatter tracef4a251" style="stroke-miterlimit: 2; opacity: 1;"><g class="fills"/><g class="errorbars"/><g class="lines"><path class="js-line" d="M0,0.28L11.02,4.2L22.04,21.25L33.06,37.67L44.08,63.84L55.1,90.77L66.12,128.67L77.14,156.52L88.16,171.28L99.18,181.86L110.2,188.65L121.22,196.84L132.24,203.32L143.27,212.04L154.29,218.85L176.33,227.11L187.35,230.32L198.37,234.28L209.39,235.34L220.41,240.22L231.43,243L242.45,249.07L253.47,251.89L275.51,259.03L286.53,263.82L308.57,268.99L319.59,273.75L330.61,276.23L341.63,277.86L352.65,280.43L363.67,284.37L374.69,287L385.71,290.56L440.82,302.03L451.84,303.34L462.86,303.3L473.88,304.98L484.9,305.36L495.92,306.75L540,308.52" style="vector-effect: non-scaling-stroke; fill: none; stroke: rgb(0, 204, 150); stroke-opacity: 1; stroke-width: 2px; opacity: 1;"/></g><g class="points"/><g class="text"/></g><g class="trace scatter traceeead62" style="stroke-miterlimit: 2; opacity: 1;"><g class="fills"/><g class="errorbars"/><g class="lines"><path class="js-line" d="M0,0.25L11.02,4.78L22.04,18.42L33.06,32.06L44.08,54.76L66.12,123.64L77.14,150.25L88.16,169.49L99.18,179.8L110.2,187.9L121.22,193.42L132.24,199.26L143.27,202.25L154.29,204.9L165.31,210.2L176.33,217.51L187.35,223.6L198.37,228.7L209.39,231.79L231.43,239.9L242.45,244.78L275.51,256.58L286.53,259.96L297.55,263.78L308.57,265.9L330.61,273.03L341.63,274.97L352.65,278.4L363.67,280.99L374.69,282.9L385.71,286.82L429.8,297.18L440.82,298.87L484.9,301.93L495.92,302.01L506.94,304.13L517.96,304.28L540,305.64" style="vector-effect: non-scaling-stroke; fill: none; stroke: rgb(171, 99, 250); stroke-opacity: 1; stroke-width: 2px; opacity: 1;"/></g><g class="points"/><g class="text"/></g><g class="trace scatter tracee718f8" style="stroke-miterlimit: 2; opacity: 1;"><g class="fills"/><g class="errorbars"/><g class="lines"><path class="js-line" d="M0,0.28L11.02,4.74L22.04,18.53L33.06,31.99L44.08,58.12L55.1,99.03L66.12,122.29L77.14,149.25L88.16,169.67L99.18,180.12L110.2,188.85L121.22,196.19L132.24,205.56L143.27,212.68L154.29,217.36L165.31,221.8L176.33,224.29L187.35,225.88L198.37,228.35L209.39,228.41L220.41,232.36L242.45,239.84L253.47,245.07L264.49,248.92L275.51,251.45L286.53,254.46L297.55,258.92L308.57,260.3L319.59,264.54L341.63,269.4L352.65,273.51L374.69,277.36L385.71,281.36L418.78,289.73L429.8,292.81L451.84,295.38L462.86,295.9L484.9,298.25L495.92,298.09L506.94,299.94L517.96,300.49L528.98,300.69L540,301.79" style="vector-effect: non-scaling-stroke; fill: none; stroke: rgb(255, 161, 90); stroke-opacity: 1; stroke-width: 2px; opacity: 1;"/></g><g class="points"/><g class="text"/></g><g class="trace scatter trace6c6aba" style="stroke-miterlimit: 2; opacity: 1;"><g class="fills"/><g class="errorbars"/><g class="lines"><path class="js-line" d="M0,0.17L11.02,4.85L22.04,18.01L33.06,32.94L44.08,62.03L55.1,112.01L66.12,148.41L77.14,165.36L88.16,177.33L99.18,184.6L110.2,190L132.24,199.46L143.27,204.43L154.29,209.97L165.31,218.08L176.33,223.43L187.35,225.74L198.37,230.25L209.39,233.32L231.43,239.26L242.45,243.41L253.47,248.25L264.49,251.19L286.53,257.3L297.55,262.1L319.59,266.9L330.61,271.83L341.63,273.15L352.65,277.99L363.67,279.71L374.69,282.29L385.71,287.32L396.73,290.75L407.76,292.53L418.78,296.36L440.82,301.61L451.84,302.74L495.92,305.77L506.94,307.7L540,309.34" style="vector-effect: non-scaling-stroke; fill: none; stroke: rgb(25, 211, 243); stroke-opacity: 1; stroke-width: 2px; opacity: 1;"/></g><g class="points"/><g class="text"/></g><g class="trace scatter trace8d2c19" style="stroke-miterlimit: 2; opacity: 1;"><g class="fills"/><g class="errorbars"/><g class="lines"><path class="js-line" d="M0,0.27L11.02,4.28L22.04,21.72L33.06,38.96L44.08,67.27L55.1,91.27L66.12,105.27L77.14,132L88.16,162.96L99.18,176.33L110.2,186.24L121.22,194.18L132.24,199.7L143.27,205.24L154.29,213.13L165.31,222.22L176.33,229.27L198.37,238L209.39,241.03L231.43,248.85L242.45,254.1L264.49,260.74L275.51,264.28L297.55,271.27L308.57,273.15L319.59,277.7L330.61,280.22L341.63,281.59L352.65,284.26L363.67,288.1L374.69,291.02L396.73,296.14L407.76,298.15L440.82,305.06L451.84,305.91L462.86,306.23L473.88,307.4L495.92,309.5L506.94,309.48L540,311.2" style="vector-effect: non-scaling-stroke; fill: none; stroke: rgb(255, 102, 146); stroke-opacity: 1; stroke-width: 2px; opacity: 1;"/></g><g class="points"/><g class="text"/></g><g class="trace scatter trace707eb8" style="stroke-miterlimit: 2; opacity: 1;"><g class="fills"/><g class="errorbars"/><g class="lines"><path class="js-line" d="M0,0.23L11.02,4.96L22.04,18.69L33.06,34.1L44.08,66.92L55.1,124.85L66.12,155.35L77.14,170.38L88.16,182.19L99.18,189.36L110.2,195.6L132.24,204.61L143.27,209.67L154.29,214.52L165.31,222.11L187.35,229.26L198.37,231.13L209.39,233.76L220.41,237.97L231.43,240.09L242.45,243.05L253.47,248.28L264.49,251.88L275.51,254.12L286.53,257.3L297.55,261.26L308.57,262.98L330.61,270.04L341.63,271.33L352.65,274.88L363.67,277.1L374.69,279.7L385.71,283.59L407.76,288.73L418.78,291.49L429.8,294.35L440.82,296.12L484.9,299.56L495.92,299.43L506.94,301.68L517.96,302.02L540,303.01" style="vector-effect: non-scaling-stroke; fill: none; stroke: rgb(182, 232, 128); stroke-opacity: 1; stroke-width: 2px; opacity: 1;"/></g><g class="points"/><g class="text"/></g><g class="trace scatter traceedc658" style="stroke-miterlimit: 2; opacity: 1;"><g class="fills"/><g class="errorbars"/><g class="lines"><path class="js-line" d="M0,0.27L11.02,4.99L22.04,18.18L33.06,31.29L44.08,52.59L66.12,132.52L77.14,159.65L88.16,172.87L99.18,180.97L110.2,187.04L121.22,191.75L132.24,195.14L143.27,197.7L154.29,199.42L165.31,204.12L176.33,205.52L187.35,211.64L220.41,230.06L231.43,233.45L264.49,247.51L275.51,249.06L297.55,258.62L308.57,260.15L330.61,267.22L341.63,269.16L352.65,273.5L363.67,275.56L374.69,278.08L385.71,281.7L396.73,284.63L407.76,286.55L429.8,292.98L440.82,295.17L495.92,298.22L506.94,300.19L528.98,300.7L540,301.58" style="vector-effect: non-scaling-stroke; fill: none; stroke: rgb(255, 151, 255); stroke-opacity: 1; stroke-width: 2px; opacity: 1;"/></g><g class="points"/><g class="text"/></g><g class="trace scatter trace5605da" style="stroke-miterlimit: 2; opacity: 1;"><g class="fills"/><g class="errorbars"/><g class="lines"><path class="js-line" d="M0,0.2L11.02,4.51L22.04,18.49L33.06,35.57L44.08,74.28L55.1,125.98L66.12,152.16L77.14,167.96L88.16,178.34L110.2,191.49L121.22,195.49L132.24,201.44L143.27,205.87L154.29,211.36L165.31,218.01L187.35,226.41L198.37,228.96L220.41,235.11L231.43,239.37L253.47,248.45L264.49,251.83L286.53,258.11L297.55,262.5L330.61,271.59L341.63,273.64L352.65,277.99L363.67,280.39L374.69,282.52L385.71,286.84L418.78,295.13L429.8,298.21L440.82,299.97L451.84,300.86L495.92,303.42L506.94,305.24L540,306.88" style="vector-effect: non-scaling-stroke; fill: none; stroke: rgb(254, 203, 82); stroke-opacity: 1; stroke-width: 2px; opacity: 1;"/></g><g class="points"/><g class="text"/></g><g class="trace scatter traced16311" style="stroke-miterlimit: 2; opacity: 1;"><g class="fills"/><g class="errorbars"/><g class="lines"><path class="js-line" d="M0,0.21L11.02,4.71L22.04,18.29L33.06,32.04L44.08,55.56L55.1,90.13L66.12,117.41L77.14,144.35L88.16,165.83L99.18,177.2L110.2,186.59L121.22,192.99L132.24,200.28L143.27,208.9L154.29,215.57L165.31,221.08L176.33,225.19L198.37,231.14L209.39,234.82L231.43,242.3L242.45,247.94L264.49,257.6L275.51,261.07L286.53,264.91L297.55,269.64L308.57,272.77L319.59,277.33L330.61,281.4L341.63,284.01L352.65,289.28L363.67,291.44L374.69,294.23L385.71,298.99L396.73,302.02L407.76,304.26L429.8,310.67L440.82,312.66L451.84,313.86L462.86,313.99L484.9,316.1L495.92,316.29L506.94,318.18L517.96,318.51L540,319.64" style="vector-effect: non-scaling-stroke; fill: none; stroke: rgb(99, 110, 250); stroke-opacity: 1; stroke-width: 2px; opacity: 1;"/></g><g class="points"/><g class="text"/></g><g class="trace scatter trace61d10c" style="stroke-miterlimit: 2; opacity: 1;"><g class="fills"/><g class="errorbars"/><g class="lines"><path class="js-line" d="M0,0.26L11.02,4.76L22.04,18.28L33.06,32.12L44.08,57.24L55.1,94.46L66.12,127.11L77.14,155.09L88.16,172.59L132.24,211.99L143.27,216.42L154.29,220.76L165.31,226.89L198.37,237.25L209.39,239.1L220.41,242.19L231.43,246.16L242.45,249.44L253.47,253.98L286.53,262.97L297.55,266.77L308.57,268.89L319.59,272.44L330.61,275.95L341.63,278L363.67,284.34L374.69,285.28L385.71,290.21L396.73,293.2L407.76,295.34L418.78,298.35L429.8,301.25L440.82,302.79L484.9,306.33L495.92,306.43L506.94,308.42L517.96,308.9L528.98,308.86L540,309.64" style="vector-effect: non-scaling-stroke; fill: none; stroke: rgb(239, 85, 59); stroke-opacity: 1; stroke-width: 2px; opacity: 1;"/></g><g class="points"/><g class="text"/></g><g class="trace scatter trace7d504d" style="stroke-miterlimit: 2; opacity: 1;"><g class="fills"/><g class="errorbars"/><g class="lines"><path class="js-line" d="M0,0.2L11.02,4.98L22.04,19.4L33.06,35.79L44.08,62.67L55.1,111.54L66.12,149.05L77.14,169.73L88.16,182.61L99.18,190.2L110.2,194.88L121.22,200.21L132.24,203.73L154.29,206.72L165.31,210.27L187.35,220.36L198.37,224.07L231.43,239.73L242.45,243.14L264.49,251.92L275.51,255.06L286.53,259.47L297.55,262.35L308.57,264.4L319.59,268.32L330.61,271.79L341.63,274.13L352.65,277.89L363.67,280.26L374.69,282.21L385.71,286.17L429.8,297.34L440.82,299.26L484.9,302.75L495.92,302.75L506.94,304.61L517.96,305.11L528.98,305.13L540,306.12" style="vector-effect: non-scaling-stroke; fill: none; stroke: rgb(0, 204, 150); stroke-opacity: 1; stroke-width: 2px; opacity: 1;"/></g><g class="points"/><g class="text"/></g><g class="trace scatter trace9013fb" style="stroke-miterlimit: 2; opacity: 1;"><g class="fills"/><g class="errorbars"/><g class="lines"><path class="js-line" d="M0,0.23L11.02,4.67L22.04,18.3L33.06,31.93L44.08,52.38L66.12,130.46L77.14,155.32L88.16,169.59L99.18,179.94L132.24,210.06L143.27,215.64L165.31,225.04L176.33,228.44L187.35,229.42L198.37,233.39L242.45,246.49L253.47,251.34L275.51,258.49L286.53,261.54L297.55,266.11L308.57,267.95L330.61,274.52L341.63,276.98L363.67,282.61L374.69,284.82L396.73,291.17L407.76,293.12L429.8,299.18L440.82,300.8L451.84,302.15L462.86,302.2L484.9,304.12L495.92,304.24L506.94,306.04L517.96,306.5L540,307.43" style="vector-effect: non-scaling-stroke; fill: none; stroke: rgb(171, 99, 250); stroke-opacity: 1; stroke-width: 2px; opacity: 1;"/></g><g class="points"/><g class="text"/></g><g class="trace scatter trace9a25cb" style="stroke-miterlimit: 2; opacity: 1;"><g class="fills"/><g class="errorbars"/><g class="lines"><path class="js-line" d="M0,0.29L11.02,4.85L22.04,18.33L33.06,31.65L44.08,51.96L66.12,131.85L77.14,156.17L88.16,169.9L99.18,179.76L110.2,186.69L121.22,190.55L132.24,196.62L143.27,198.39L154.29,200.45L165.31,204.71L176.33,207.17L187.35,214.26L198.37,220.93L209.39,223.37L220.41,228.3L231.43,231.77L242.45,236.06L253.47,241.42L275.51,248.65L286.53,252.63L297.55,255.97L308.57,258.46L319.59,261.28L330.61,265.66L341.63,266.74L352.65,270.63L374.69,275.21L385.71,278.53L396.73,281.94L407.76,283.58L429.8,289.55L440.82,291.01L484.9,294.31L495.92,294.49L517.96,296.55L528.98,296.71L540,297.72" style="vector-effect: non-scaling-stroke; fill: none; stroke: rgb(255, 161, 90); stroke-opacity: 1; stroke-width: 2px; opacity: 1;"/></g><g class="points"/><g class="text"/></g><g class="trace scatter tracea89b5e" style="stroke-miterlimit: 2; opacity: 1;"><g class="fills"/><g class="errorbars"/><g class="lines"><path class="js-line" d="M0,0.23L11.02,4.99L22.04,18.64L33.06,33.75L44.08,65.97L55.1,124.03L66.12,158.1L77.14,174.53L88.16,185.95L110.2,196.87L121.22,201.05L143.27,212.03L154.29,218.99L165.31,225.28L176.33,226.43L209.39,232.26L220.41,235.21L242.45,241.34L253.47,245.51L264.49,249.37L275.51,251.51L297.55,258.64L308.57,260.92L319.59,262.98L330.61,267.14L352.65,272.34L363.67,275L385.71,280.61L396.73,283.66L407.76,285.01L418.78,288.97L429.8,291.51L440.82,293.06L484.9,296.66L495.92,296.73L506.94,298.37L517.96,298.6L540,299.91" style="vector-effect: non-scaling-stroke; fill: none; stroke: rgb(25, 211, 243); stroke-opacity: 1; stroke-width: 2px; opacity: 1;"/></g><g class="points"/><g class="text"/></g><g class="trace scatter trace757199" style="stroke-miterlimit: 2; opacity: 1;"><g class="fills"/><g class="errorbars"/><g class="lines"><path class="js-line" d="M0,0.23L11.02,4.85L22.04,18.59L33.06,33.34L44.08,58.28L55.1,102.92L66.12,137.43L77.14,161.25L88.16,175.26L110.2,193.71L121.22,201.42L132.24,210.65L143.27,215.23L165.31,224.55L176.33,227.23L187.35,229.7L198.37,233.2L209.39,235.64L220.41,239.46L242.45,245.09L253.47,250.25L264.49,253.11L275.51,256.81L286.53,259.25L297.55,262.77L308.57,265.26L319.59,270.19L330.61,273.23L341.63,275.39L352.65,278.95L363.67,280.92L374.69,282.91L385.71,286.75L418.78,295.27L429.8,298.67L462.86,301.81L473.88,302.4L484.9,303.45L495.92,303.56L517.96,306.06L528.98,305.78L540,306.71" style="vector-effect: non-scaling-stroke; fill: none; stroke: rgb(255, 102, 146); stroke-opacity: 1; stroke-width: 2px; opacity: 1;"/></g><g class="points"/><g class="text"/></g><g class="trace scatter traced47969" style="stroke-miterlimit: 2; opacity: 1;"><g class="fills"/><g class="errorbars"/><g class="lines"><path class="js-line" d="M0,0.23L11.02,4.99L22.04,18.75L33.06,33.33L44.08,60.07L55.1,114.7L66.12,151.5L77.14,169.38L88.16,180.46L99.18,187.59L110.2,193.56L121.22,197.65L132.24,200.58L154.29,206.29L165.31,210.72L176.33,212.2L187.35,216L198.37,222.05L209.39,226.95L220.41,229.72L231.43,234.3L253.47,244.27L264.49,248.29L275.51,250.78L286.53,254.15L297.55,258.53L308.57,260.13L319.59,263.63L330.61,268.1L341.63,269.33L352.65,272.28L363.67,275.18L374.69,277.26L385.71,281.12L396.73,283.82L407.76,285.59L418.78,289.27L429.8,291.93L440.82,293.16L484.9,297.12L495.92,296.93L506.94,298.98L517.96,299.35L528.98,299.38L540,300.21" style="vector-effect: non-scaling-stroke; fill: none; stroke: rgb(182, 232, 128); stroke-opacity: 1; stroke-width: 2px; opacity: 1;"/></g><g class="points"/><g class="text"/></g><g class="trace scatter tracef81928" style="stroke-miterlimit: 2; opacity: 1;"><g class="fills"/><g class="errorbars"/><g class="lines"><path class="js-line" d="M0,0.16L11.02,4.4L22.04,17.54L33.06,33.73L44.08,69.75L55.1,112.52L66.12,144.78L77.14,165.04L88.16,177.58L99.18,184.69L110.2,190.02L143.27,201.2L154.29,204.65L165.31,211.09L176.33,216.47L187.35,220.92L198.37,224.37L220.41,228.55L231.43,234.27L242.45,237.16L253.47,241.62L286.53,249.77L297.55,253.87L308.57,255.26L319.59,259.45L330.61,262.55L341.63,264.4L352.65,267.93L363.67,270.15L374.69,271.78L385.71,275.35L396.73,279.12L407.76,280.08L429.8,286.69L440.82,288.05L462.86,290.21L473.88,290.92L484.9,292.23L495.92,291.98L506.94,293.85L517.96,294.32L540,295.13" style="vector-effect: non-scaling-stroke; fill: none; stroke: rgb(255, 151, 255); stroke-opacity: 1; stroke-width: 2px; opacity: 1;"/></g><g class="points"/><g class="text"/></g><g class="trace scatter trace81e8b5" style="stroke-miterlimit: 2; opacity: 1;"><g class="fills"/><g class="errorbars"/><g class="lines"><path class="js-line" d="M0,0.23L11.02,4.99L22.04,18.64L33.06,33.75L44.08,65.97L55.1,124.03L66.12,158.1L77.14,174.53L88.16,185.95L110.2,196.87L121.22,201.05L143.27,212.03L154.29,218.99L165.31,225.28L176.33,226.43L209.39,232.26L220.41,235.21L242.45,241.34L253.47,245.51L264.49,249.37L275.51,251.51L297.55,258.64L308.57,260.92L319.59,262.98L330.61,267.14L352.65,272.34L363.67,275L385.71,280.61L396.73,283.66L407.76,285.01L418.78,288.97L429.8,291.52L440.82,293.06L484.9,296.67L495.92,296.73L506.94,298.37L517.96,298.6L540,299.91" style="vector-effect: non-scaling-stroke; fill: none; stroke: rgb(254, 203, 82); stroke-opacity: 1; stroke-width: 2px; opacity: 1;"/></g><g class="points"/><g class="text"/></g><g class="trace scatter tracee99587" style="stroke-miterlimit: 2; opacity: 1;"><g class="fills"/><g class="errorbars"/><g class="lines"><path class="js-line" d="M0,0.26L11.02,4.72L22.04,18.33L33.06,31.44L44.08,53.5L55.1,97.75L66.12,136.56L77.14,160.78L88.16,174.92L99.18,186.79L110.2,200.76L121.22,208.53L132.24,214.34L143.27,217.45L154.29,221.66L165.31,224.55L176.33,225.82L187.35,227.68L198.37,230.61L220.41,233.88L231.43,237.98L242.45,241.73L253.47,246.75L264.49,250.28L275.51,252.65L286.53,255.72L297.55,259.7L308.57,261.74L319.59,265.24L330.61,268.32L341.63,270.18L352.65,274.1L363.67,275.91L374.69,278.2L385.71,281.57L429.8,292.64L440.82,294.44L473.88,296.86L484.9,297.81L495.92,297.95L506.94,299.78L517.96,300.48L528.98,300.06L540,300.98" style="vector-effect: non-scaling-stroke; fill: none; stroke: rgb(99, 110, 250); stroke-opacity: 1; stroke-width: 2px; opacity: 1;"/></g><g class="points"/><g class="text"/></g><g class="trace scatter trace047457" style="stroke-miterlimit: 2; opacity: 1;"><g class="fills"/><g class="errorbars"/><g class="lines"><path class="js-line" d="M0,0.28L11.02,4.68L22.04,18.21L33.06,32.21L44.08,62.83L55.1,104.54L66.12,141.72L77.14,165.74L88.16,179.48L110.2,195.67L121.22,200.54L154.29,221.53L165.31,226.03L198.37,232.71L209.39,235.46L220.41,237.15L231.43,241L242.45,244.46L253.47,249.18L264.49,251.31L275.51,255.11L286.53,257.75L297.55,261.27L308.57,263.15L319.59,266.44L330.61,269.56L341.63,271.29L352.65,275.24L363.67,276.93L374.69,278.9L385.71,282.79L396.73,285.79L407.76,287.28L429.8,293.51L440.82,294.89L473.88,297.57L484.9,298.15L495.92,298.17L506.94,300.25L540,301.64" style="vector-effect: non-scaling-stroke; fill: none; stroke: rgb(239, 85, 59); stroke-opacity: 1; stroke-width: 2px; opacity: 1;"/></g><g class="points"/><g class="text"/></g><g class="trace scatter traceb29574" style="stroke-miterlimit: 2; opacity: 1;"><g class="fills"/><g class="errorbars"/><g class="lines"><path class="js-line" d="M0,0.15L11.02,4.55L22.04,17.79L33.06,33.67L44.08,69.84L55.1,107.26L66.12,129.49L88.16,171.02L99.18,183.6L110.2,191.71L121.22,197.55L132.24,207.14L143.27,213.46L165.31,223.87L176.33,224.75L187.35,229.05L198.37,230.88L209.39,232.19L220.41,235.6L231.43,238.51L242.45,242.78L264.49,250.87L275.51,253.13L286.53,256.08L297.55,260.68L308.57,262.2L319.59,265.9L330.61,269.38L341.63,271.53L352.65,275.74L363.67,277.21L374.69,279.53L385.71,283.14L396.73,285.88L407.76,287.42L418.78,290.92L429.8,293.46L440.82,295.07L451.84,295.9L495.92,298.29L506.94,300.2L540,301.17" style="vector-effect: non-scaling-stroke; fill: none; stroke: rgb(0, 204, 150); stroke-opacity: 1; stroke-width: 2px; opacity: 1;"/></g><g class="points"/><g class="text"/></g><g class="trace scatter trace19887e" style="stroke-miterlimit: 2; opacity: 1;"><g class="fills"/><g class="errorbars"/><g class="lines"><path class="js-line" d="M0,0.25L11.02,4.94L22.04,19.34L33.06,35.45L44.08,69.77L55.1,122.31L66.12,153.85L77.14,170.1L88.16,181.92L110.2,194.5L121.22,197.75L132.24,202.45L143.27,204.1L154.29,209.6L165.31,217.25L176.33,221.53L187.35,225L198.37,228.97L209.39,231.61L242.45,243.4L253.47,247.73L264.49,252.51L275.51,253.36L286.53,256.77L297.55,261.44L308.57,263.37L319.59,266.45L330.61,269.81L341.63,271.84L352.65,275.3L363.67,277.43L374.69,279.93L385.71,284.24L418.78,291.65L429.8,295.17L451.84,297.42L462.86,298.37L484.9,300.1L495.92,300.09L517.96,302.49L528.98,302.64L540,303.76" style="vector-effect: non-scaling-stroke; fill: none; stroke: rgb(171, 99, 250); stroke-opacity: 1; stroke-width: 2px; opacity: 1;"/></g><g class="points"/><g class="text"/></g><g class="trace scatter trace52aa79" style="stroke-miterlimit: 2; opacity: 1;"><g class="fills"/><g class="errorbars"/><g class="lines"><path class="js-line" d="M0,0.25L11.02,4.54L22.04,17.6L33.06,30.49L44.08,50.46L55.1,95.97L66.12,137.55L77.14,159.56L88.16,172.96L99.18,181.41L110.2,188.74L121.22,192.89L132.24,198.86L154.29,214.29L165.31,219.37L176.33,222.4L187.35,223.69L209.39,228.35L220.41,232.88L231.43,234.77L242.45,239.74L264.49,248.57L275.51,250.82L286.53,255.29L297.55,258.1L319.59,264.09L330.61,267.99L341.63,270.32L352.65,273.63L374.69,278.89L385.71,282.73L418.78,290.7L429.8,294.19L440.82,295.88L451.84,296.6L473.88,298.3L484.9,299.16L495.92,299.23L506.94,301.29L540,302.43" style="vector-effect: non-scaling-stroke; fill: none; stroke: rgb(255, 161, 90); stroke-opacity: 1; stroke-width: 2px; opacity: 1;"/></g><g class="points"/><g class="text"/></g><g class="trace scatter tracece414f" style="stroke-miterlimit: 2; opacity: 1;"><g class="fills"/><g class="errorbars"/><g class="lines"><path class="js-line" d="M0,0.24L11.02,4.46L22.04,17.28L33.06,31.13L44.08,48.74L55.1,91.62L66.12,138.88L77.14,164.24L88.16,177.82L110.2,192.32L121.22,196.62L132.24,201.33L143.27,203.91L154.29,210.28L165.31,219.15L176.33,225.37L187.35,227.56L198.37,230.06L209.39,233.75L231.43,239.35L242.45,243.64L253.47,248.11L264.49,250.97L286.53,257.81L297.55,261.08L308.57,263.2L319.59,266.24L330.61,270.15L341.63,271.81L352.65,275.81L363.67,277.69L374.69,279.98L385.71,284.03L407.76,288.71L418.78,292.03L429.8,295.1L440.82,296.67L495.92,300.36L506.94,301.98L528.98,302.31L540,303.41" style="vector-effect: non-scaling-stroke; fill: none; stroke: rgb(25, 211, 243); stroke-opacity: 1; stroke-width: 2px; opacity: 1;"/></g><g class="points"/><g class="text"/></g><g class="trace scatter traceabc4cc" style="stroke-miterlimit: 2; opacity: 1;"><g class="fills"/><g class="errorbars"/><g class="lines"><path class="js-line" d="M0,0.2L11.02,4.8L22.04,18.79L33.06,34.79L44.08,67.92L55.1,104.91L66.12,132.9L77.14,163.26L88.16,179.66L99.18,188.1L110.2,195.01L121.22,200.59L132.24,207.77L143.27,215.43L154.29,219.77L165.31,226.61L176.33,230.28L187.35,233.58L198.37,235.39L242.45,249.5L253.47,254.8L264.49,258.02L275.51,260.29L297.55,267.97L308.57,269.69L330.61,276.49L341.63,278.58L352.65,281.82L363.67,284.08L374.69,286.24L385.71,290.54L407.76,294.82L418.78,298.14L429.8,300.95L440.82,302.5L451.84,303.78L462.86,304.01L484.9,306.11L495.92,306.53L517.96,308.39L528.98,308.87L540,309.49" style="vector-effect: non-scaling-stroke; fill: none; stroke: rgb(255, 102, 146); stroke-opacity: 1; stroke-width: 2px; opacity: 1;"/></g><g class="points"/><g class="text"/></g><g class="trace scatter tracee3989c" style="stroke-miterlimit: 2; opacity: 1;"><g class="fills"/><g class="errorbars"/><g class="lines"><path class="js-line" d="M0,0.28L11.02,4.93L22.04,18.1L33.06,31.85L44.08,53.75L55.1,92.35L66.12,134.98L77.14,161.49L88.16,174.26L99.18,183.37L110.2,189.68L143.27,201L154.29,202.93L176.33,211.45L187.35,217.92L198.37,225.43L209.39,231.58L220.41,235.55L231.43,241.21L242.45,245.69L253.47,251.67L286.53,262.24L297.55,267.04L319.59,272.53L330.61,276.4L341.63,278.47L352.65,281.8L374.69,286.34L385.71,290.28L396.73,292.92L407.76,294.73L429.8,300.93L440.82,302.81L495.92,305.92L506.94,307.8L540,309.08" style="vector-effect: non-scaling-stroke; fill: none; stroke: rgb(182, 232, 128); stroke-opacity: 1; stroke-width: 2px; opacity: 1;"/></g><g class="points"/><g class="text"/></g><g class="trace scatter trace0545d2" style="stroke-miterlimit: 2; opacity: 1;"><g class="fills"/><g class="errorbars"/><g class="lines"><path class="js-line" d="M0,0.23L11.02,4.99L22.04,18.64L33.06,33.75L44.08,65.97L55.1,124.03L66.12,158.1L77.14,174.41L88.16,185.92L110.2,197.1L121.22,201.57L132.24,205.87L143.27,211.93L165.31,223.9L176.33,226.1L198.37,229.01L209.39,231.08L242.45,240.71L253.47,245.32L264.49,248.9L275.51,251.06L297.55,258.57L308.57,259.64L330.61,266.92L341.63,269.14L396.73,282.83L407.76,284.56L418.78,287.99L429.8,290.49L440.82,292.34L451.84,293.3L484.9,296.1L495.92,296.03L506.94,297.46L517.96,297.79L540,299.06" style="vector-effect: non-scaling-stroke; fill: none; stroke: rgb(255, 151, 255); stroke-opacity: 1; stroke-width: 2px; opacity: 1;"/></g><g class="points"/><g class="text"/></g><g class="trace scatter trace15f45c" style="stroke-miterlimit: 2; opacity: 1;"><g class="fills"/><g class="errorbars"/><g class="lines"><path class="js-line" d="M0,0.23L11.02,4.99L22.04,18.64L33.06,33.76L44.08,67.01L55.1,124.65L66.12,159.05L77.14,174.87L88.16,185.9L99.18,192.18L110.2,197.57L121.22,200.68L132.24,206.52L165.31,225.44L176.33,226.91L187.35,229.25L198.37,230.38L209.39,233.27L220.41,234.79L231.43,238.76L242.45,241.73L253.47,247.09L264.49,250.55L275.51,253.01L286.53,256.76L297.55,261.15L308.57,261.65L330.61,268.75L341.63,270.76L352.65,274.33L363.67,276.39L374.69,278.86L385.71,282.45L396.73,285.21L407.76,287L429.8,293.03L440.82,294.64L473.88,297.27L484.9,297.88L495.92,298.49L506.94,299.95L540,301.4" style="vector-effect: non-scaling-stroke; fill: none; stroke: rgb(254, 203, 82); stroke-opacity: 1; stroke-width: 2px; opacity: 1;"/></g><g class="points"/><g class="text"/></g></g></g><g class="overplot"/><path class="xlines-above crisp" d="M0,0" style="fill: none;"/><path class="ylines-above crisp" d="M0,0" style="fill: none;"/><g class="overlines-above"/><g class="xaxislayer-above"><g class="xtick"><text text-anchor="middle" x="0" y="433" transform="translate(80,0)" style="font-family: 'Open Sans', verdana, arial, sans-serif; font-size: 12px; fill: rgb(42, 63, 95); fill-opacity: 1; white-space: pre; opacity: 1;">0</text></g><g class="xtick"><text text-anchor="middle" x="0" y="433" style="font-family: 'Open Sans', verdana, arial, sans-serif; font-size: 12px; fill: rgb(42, 63, 95); fill-opacity: 1; white-space: pre; opacity: 1;" transform="translate(190.2,0)">10</text></g><g class="xtick"><text text-anchor="middle" x="0" y="433" style="font-family: 'Open Sans', verdana, arial, sans-serif; font-size: 12px; fill: rgb(42, 63, 95); fill-opacity: 1; white-space: pre; opacity: 1;" transform="translate(300.40999999999997,0)">20</text></g><g class="xtick"><text text-anchor="middle" x="0" y="433" style="font-family: 'Open Sans', verdana, arial, sans-serif; font-size: 12px; fill: rgb(42, 63, 95); fill-opacity: 1; white-space: pre; opacity: 1;" transform="translate(410.61,0)">30</text></g><g class="xtick"><text text-anchor="middle" x="0" y="433" style="font-family: 'Open Sans', verdana, arial, sans-serif; font-size: 12px; fill: rgb(42, 63, 95); fill-opacity: 1; white-space: pre; opacity: 1;" transform="translate(520.8199999999999,0)">40</text></g></g><g class="yaxislayer-above"><g class="ytick"><text text-anchor="end" x="79" y="4.199999999999999" transform="translate(0,393.21)" style="font-family: 'Open Sans', verdana, arial, sans-serif; font-size: 12px; fill: rgb(42, 63, 95); fill-opacity: 1; white-space: pre; opacity: 1;">2.5</text></g><g class="ytick"><text text-anchor="end" x="79" y="4.199999999999999" style="font-family: 'Open Sans', verdana, arial, sans-serif; font-size: 12px; fill: rgb(42, 63, 95); fill-opacity: 1; white-space: pre; opacity: 1;" transform="translate(0,345.28)">3</text></g><g class="ytick"><text text-anchor="end" x="79" y="4.199999999999999" style="font-family: 'Open Sans', verdana, arial, sans-serif; font-size: 12px; fill: rgb(42, 63, 95); fill-opacity: 1; white-space: pre; opacity: 1;" transform="translate(0,297.35)">3.5</text></g><g class="ytick"><text text-anchor="end" x="79" y="4.199999999999999" style="font-family: 'Open Sans', verdana, arial, sans-serif; font-size: 12px; fill: rgb(42, 63, 95); fill-opacity: 1; white-space: pre; opacity: 1;" transform="translate(0,249.42)">4</text></g><g class="ytick"><text text-anchor="end" x="79" y="4.199999999999999" style="font-family: 'Open Sans', verdana, arial, sans-serif; font-size: 12px; fill: rgb(42, 63, 95); fill-opacity: 1; white-space: pre; opacity: 1;" transform="translate(0,201.49)">4.5</text></g><g class="ytick"><text text-anchor="end" x="79" y="4.199999999999999" style="font-family: 'Open Sans', verdana, arial, sans-serif; font-size: 12px; fill: rgb(42, 63, 95); fill-opacity: 1; white-space: pre; opacity: 1;" transform="translate(0,153.56)">5</text></g><g class="ytick"><text text-anchor="end" x="79" y="4.199999999999999" style="font-family: 'Open Sans', verdana, arial, sans-serif; font-size: 12px; fill: rgb(42, 63, 95); fill-opacity: 1; white-space: pre; opacity: 1;" transform="translate(0,105.64)">5.5</text></g></g><g class="overaxes-above"/></g></g><g class="polarlayer"/><g class="ternarylayer"/><g class="geolayer"/><g class="funnelarealayer"/><g class="pielayer"/><g class="iciclelayer"/><g class="treemaplayer"/><g class="sunburstlayer"/><g class="glimages"/><defs id="topdefs-aeb6d3"><g class="clips"/></defs><g class="layer-above"><g class="imagelayer"/><g class="shapelayer"/></g><g class="infolayer"><g class="g-gtitle"><text class="gtitle" x="35" y="50" text-anchor="start" dy="0em" style="font-family: 'Open Sans', verdana, arial, sans-serif; font-size: 17px; fill: rgb(42, 63, 95); opacity: 1; font-weight: normal; white-space: pre;">Train Loss: aes_rd-eff_cnn (with early stopping)</text></g><g class="g-xtitle"/><g class="g-ytitle"/></g></svg>