<svg class="main-svg" xmlns="http://www.w3.org/2000/svg" xmlns:xlink="http://www.w3.org/1999/xlink" width="700" height="500" style="" viewBox="0 0 700 500"><rect x="0" y="0" width="700" height="500" style="fill: rgb(255, 255, 255); fill-opacity: 1;"/><defs id="defs-b6e1c4"><g class="clips"><clipPath id="clipb6e1c4xyplot" class="plotclip"><rect width="540" height="320"/></clipPath><clipPath class="axesclip" id="clipb6e1c4x"><rect x="80" y="0" width="540" height="500"/></clipPath><clipPath class="axesclip" id="clipb6e1c4y"><rect x="0" y="100" width="700" height="320"/></clipPath><clipPath class="axesclip" id="clipb6e1c4xy"><rect x="80" y="100" width="540" height="320"/></clipPath></g><g class="gradients"/><g class="patterns"/></defs><g class="bglayer"><rect class="bg" x="80" y="100" width="540" height="320" style="fill: rgb(229, 236, 246); fill-opacity: 1; stroke-width: 0;"/></g><g class="layer-below"><g class="imagelayer"/><g class="shapelayer"/></g><g class="cartesianlayer"><g class="subplot xy"><g class="layer-subplot"><g class="shapelayer"/><g class="imagelayer"/></g><g class="gridlayer"><g class="x"><path class="xgrid crisp" transform="translate(188.43,0)" d="M0,100v320" style="stroke: rgb(255, 255, 255); stroke-opacity: 1; stroke-width: 1px;"/><path class="xgrid crisp" transform="translate(296.87,0)" d="M0,100v320" style="stroke: rgb(255, 255, 255); stroke-opacity: 1; stroke-width: 1px;"/><path class="xgrid crisp" transform="translate(405.3,0)" d="M0,100v320" style="stroke: rgb(255, 255, 255); stroke-opacity: 1; stroke-width: 1px;"/><path class="xgrid crisp" transform="translate(513.73,0)" d="M0,100v320" style="stroke: rgb(255, 255, 255); stroke-opacity: 1; stroke-width: 1px;"/></g><g class="y"><path class="ygrid crisp" transform="translate(0,356.82)" d="M80,0h540" style="stroke: rgb(255, 255, 255); stroke-opacity: 1; stroke-width: 1px;"/><path class="ygrid crisp" transform="translate(0,293.64)" d="M80,0h540" style="stroke: rgb(255, 255, 255); stroke-opacity: 1; stroke-width: 1px;"/><path class="ygrid crisp" transform="translate(0,230.46)" d="M80,0h540" style="stroke: rgb(255, 255, 255); stroke-opacity: 1; stroke-width: 1px;"/><path class="ygrid crisp" transform="translate(0,167.28)" d="M80,0h540" style="stroke: rgb(255, 255, 255); stroke-opacity: 1; stroke-width: 1px;"/><path class="ygrid crisp" transform="translate(0,104.09)" d="M80,0h540" style="stroke: rgb(255, 255, 255); stroke-opacity: 1; stroke-width: 1px;"/></g></g><g class="zerolinelayer"><path class="xzl zl crisp" transform="translate(80,0)" d="M0,100v320" style="stroke: rgb(255, 255, 255); stroke-opacity: 1; stroke-width: 2px;"/><path class="yzl zl crisp" transform="translate(0,420)" d="M80,0h540" style="stroke: rgb(255, 255, 255); stroke-opacity: 1; stroke-width: 2px;"/></g><path class="xlines-below"/><path class="ylines-below"/><g class="overlines-below"/><g class="xaxislayer-below"/><g class="yaxislayer-below"/><g class="overaxes-below"/><g class="plot" transform="translate(80,100)" clip-path="url(#clipb6e1c4xyplot)"><g class="scatterlayer mlayer"><g class="trace scatter trace4b2125" style="stroke-miterlimit: 2; opacity: 1;"><g class="fills"/><g class="errorbars"/><g class="lines"><path class="js-line" d="M0,165.45L2.17,166.84L4.34,176.96L6.51,183.78L8.67,195.62L10.84,188.49L13.01,192.63L15.18,191.96L17.35,194.98L19.52,190.93L21.69,190.31L26.02,196.59L28.19,198.31L34.7,208.45L36.87,213.07L39.04,214.3L41.2,218.33L43.37,220.96L45.54,218.44L47.71,221.54L49.88,221.25L52.05,224.6L54.22,225.41L58.55,225.66L60.72,227.19L62.89,228.49L65.06,231.28L67.23,232.7L69.4,232.87L71.57,235.88L73.73,233.5L75.9,235.6L78.07,236.37L80.24,234.41L82.41,235.67L84.58,235.45L86.75,236.37L91.08,239.06L93.25,239.92L95.42,241.91L97.59,241.67L101.93,244.86L104.1,244.32L106.27,247.64L108.43,246.65L110.6,247.04L112.77,245.48L114.94,244.13L117.11,245.96L119.28,247.03L121.45,246.13L127.95,247.05L130.12,246.68L136.63,247.42L138.8,248.79L147.47,249.74L149.64,249.54L153.98,252.12L156.14,251.95L158.31,252.81L160.48,252.67L166.99,251.51L169.16,251.44L173.49,255.52L175.66,255.44L177.83,255.34L180,256.1L182.17,255.09L184.34,256.41L197.35,258.06L199.52,259.64L201.69,259.31L203.86,260.53L208.19,260.94L210.36,262.71L212.53,261.96L214.7,263.01L219.04,260.23L221.2,261.99L229.88,262L232.05,262.97L234.22,262.33L236.39,262.56L249.4,264.01L251.57,263.02L258.07,261.53L260.24,261.75L262.41,261.44L264.58,262.02L266.75,261.38L268.92,262.05L273.25,263.1L275.42,263.25L290.6,264.67L292.77,263.74L294.94,263.14L297.11,264.14L303.61,263.87L305.78,263.98L310.12,264.26L312.29,264.87L314.46,265.29L316.63,264.88L320.96,264.07L323.13,263.21L325.3,262.96L327.47,263.64L336.14,263.06L338.31,262.47L340.48,261.81L342.65,262.38L346.99,262.86L349.16,262.64L351.33,263.73L353.49,263.73L364.34,264.38L366.51,264.77L368.67,263.92L370.84,264.27L373.01,263.45L375.18,264.12L383.86,265.5L386.02,265.63L396.87,267.26L399.04,266.86L409.88,267.32L412.05,267L420.72,267.79L422.89,267.52L427.23,268.81L429.4,269.48L433.73,270.36L435.9,269.97L440.24,271.11L442.41,270.88L448.92,271.53L451.08,270.71L461.93,273.09L464.1,273.2L474.94,276.27L477.11,276.44L485.78,274.88L487.95,275.04L498.8,276.39L500.96,276.48L509.64,277.43L511.81,277.19L518.31,277.63L520.48,277.55L526.99,277.71L529.16,277.91L533.49,278.31L535.66,278.67L540,278.19" style="vector-effect: non-scaling-stroke; fill: none; stroke: rgb(99, 110, 250); stroke-opacity: 1; stroke-width: 2px; opacity: 1;"/></g><g class="points"/><g class="text"/></g><g class="trace scatter trace54fde9" style="stroke-miterlimit: 2; opacity: 1;"><g class="fills"/><g class="errorbars"/><g class="lines"><path class="js-line" d="M0,177.83L6.51,213.7L8.67,218.62L10.84,219.15L13.01,216.13L15.18,220.55L17.35,220.41L19.52,217.82L21.69,223.11L30.36,228.99L32.53,228.48L36.87,237.16L39.04,238.52L43.37,244.57L45.54,244.62L47.71,245.83L49.88,245.84L52.05,247.87L54.22,247.37L56.39,248.31L58.55,250.13L60.72,252.85L62.89,254.14L67.23,255.83L69.4,258.18L71.57,258.02L73.73,259.98L75.9,262.18L78.07,262.02L80.24,263.11L82.41,265.18L86.75,264.3L88.92,264.91L91.08,266.54L93.25,265.47L95.42,265.5L97.59,264.07L101.93,266.17L104.1,265.82L106.27,268.92L108.43,268.76L110.6,270.66L112.77,270.19L114.94,270.76L117.11,272.94L121.45,274.13L123.61,274.57L125.78,273.8L127.95,274.71L130.12,273.94L132.29,274.64L136.63,276.49L138.8,277.31L140.96,277.16L143.13,278.55L147.47,278.14L149.64,279.07L151.81,279.24L153.98,280.42L158.31,280.51L160.48,280.78L164.82,280.42L166.99,281.33L171.33,282.56L173.49,282.37L188.67,285.2L190.84,285.49L197.35,287.97L199.52,289.08L201.69,288.85L203.86,289.46L206.02,290.6L208.19,290.51L212.53,291.51L214.7,291.14L219.04,291.51L221.2,291.68L238.55,291.57L240.72,292.2L247.23,293.4L249.4,293.12L255.9,293.15L258.07,293.32L264.58,293.48L266.75,293.26L268.92,292.38L271.08,292.79L277.59,293.5L279.76,293.78L286.27,293.91L288.43,294.41L301.45,295.04L303.61,295.52L318.8,296.22L320.96,295.79L336.14,296.24L338.31,296.43L342.65,296.27L344.82,296.23L355.66,297.03L357.83,297.14L373.01,297.57L375.18,297.58L392.53,297.95L394.7,297.87L405.54,298.32L407.71,298.23L412.05,298.23L414.22,298.27L420.72,298.7L422.89,298.51L433.73,299.35L435.9,299.61L442.41,299.78L444.58,300.62L446.75,300.02L448.92,300.35L453.25,300.33L455.42,300.64L461.93,301.12L464.1,301.6L472.77,302.57L474.94,302.07L481.45,302.06L483.61,301.88L505.3,301.29L507.47,301.42L518.31,301.17L520.48,301.32L540,301.34" style="vector-effect: non-scaling-stroke; fill: none; stroke: rgb(239, 85, 59); stroke-opacity: 1; stroke-width: 2px; opacity: 1;"/></g><g class="points"/><g class="text"/></g><g class="trace scatter trace9bfb18" style="stroke-miterlimit: 2; opacity: 1;"><g class="fills"/><g class="errorbars"/><g class="lines"><path class="js-line" d="M0,177.83L6.51,213.7L8.67,218.62L10.84,219.15L13.01,216.13L15.18,220.55L17.35,220.41L19.52,217.82L21.69,223.11L30.36,228.99L32.53,228.48L36.87,237.16L39.04,238.52L43.37,244.57L45.54,244.62L47.71,245.83L49.88,245.84L52.05,247.87L54.22,247.37L56.39,248.31L58.55,250.13L60.72,252.85L62.89,254.14L67.23,255.83L69.4,258.18L71.57,258.02L73.73,259.98L75.9,262.18L78.07,262.02L80.24,263.11L82.41,265.18L86.75,264.3L88.92,264.91L91.08,266.54L93.25,265.47L95.42,265.5L97.59,264.07L101.93,266.17L104.1,265.82L106.27,268.92L108.43,268.76L110.6,270.66L112.77,270.19L114.94,270.76L117.11,272.94L121.45,274.13L123.61,274.57L125.78,273.8L127.95,274.71L130.12,273.94L132.29,274.64L136.63,276.49L138.8,277.31L140.96,277.16L143.13,278.55L147.47,278.14L149.64,279.07L151.81,279.24L153.98,280.42L158.31,280.51L160.48,280.78L164.82,280.42L166.99,281.33L171.33,282.56L173.49,282.37L188.67,285.2L190.84,285.49L197.35,287.97L199.52,289.08L201.69,288.85L203.86,289.46L206.02,290.6L208.19,290.51L212.53,291.51L214.7,291.14L219.04,291.51L221.2,291.68L238.55,291.57L240.72,292.2L247.23,293.4L249.4,293.12L255.9,293.15L258.07,293.32L264.58,293.48L266.75,293.26L268.92,292.38L271.08,292.79L277.59,293.5L279.76,293.78L286.27,293.91L288.43,294.41L301.45,295.04L303.61,295.52L318.8,296.22L320.96,295.79L336.14,296.24L338.31,296.43L342.65,296.27L344.82,296.23L355.66,297.03L357.83,297.14L373.01,297.57L375.18,297.58L392.53,297.95L394.7,297.87L405.54,298.32L407.71,298.23L412.05,298.23L414.22,298.27L420.72,298.7L422.89,298.51L433.73,299.35L435.9,299.61L442.41,299.78L444.58,300.62L446.75,300.02L448.92,300.35L453.25,300.33L455.42,300.64L461.93,301.12L464.1,301.6L472.77,302.57L474.94,302.07L481.45,302.06L483.61,301.88L505.3,301.29L507.47,301.42L518.31,301.17L520.48,301.32L540,301.34" style="vector-effect: non-scaling-stroke; fill: none; stroke: rgb(0, 204, 150); stroke-opacity: 1; stroke-width: 2px; opacity: 1;"/></g><g class="points"/><g class="text"/></g><g class="trace scatter tracede4868" style="stroke-miterlimit: 2; opacity: 1;"><g class="fills"/><g class="errorbars"/><g class="lines"><path class="js-line" d="M0,177.83L6.51,213.7L8.67,218.62L10.84,219.15L13.01,216.13L15.18,220.55L17.35,220.41L19.52,217.82L21.69,223.11L30.36,228.99L32.53,228.48L36.87,237.16L39.04,238.52L43.37,244.57L45.54,244.62L47.71,245.83L49.88,245.84L52.05,247.87L54.22,247.37L56.39,248.31L58.55,250.13L60.72,252.85L62.89,254.14L67.23,255.83L69.4,258.18L71.57,258.02L73.73,259.98L75.9,262.18L78.07,262.02L80.24,263.11L82.41,265.18L86.75,264.3L88.92,264.91L91.08,266.54L93.25,265.47L95.42,265.5L97.59,264.07L101.93,266.17L104.1,265.82L106.27,268.92L108.43,268.76L110.6,270.66L112.77,270.19L114.94,270.76L117.11,272.94L121.45,274.13L123.61,274.57L125.78,273.8L127.95,274.71L130.12,273.94L132.29,274.64L136.63,276.49L138.8,277.31L140.96,277.16L143.13,278.55L147.47,278.14L149.64,279.07L151.81,279.24L153.98,280.42L158.31,280.51L160.48,280.78L164.82,280.42L166.99,281.33L171.33,282.56L173.49,282.37L188.67,285.2L190.84,285.49L197.35,287.97L199.52,289.08L201.69,288.85L203.86,289.46L206.02,290.6L208.19,290.51L212.53,291.51L214.7,291.14L219.04,291.51L221.2,291.68L238.55,291.57L240.72,292.2L247.23,293.4L249.4,293.12L255.9,293.15L258.07,293.32L264.58,293.48L266.75,293.26L268.92,292.38L271.08,292.79L277.59,293.5L279.76,293.78L286.27,293.91L288.43,294.41L301.45,295.04L303.61,295.52L318.8,296.22L320.96,295.79L336.14,296.24L338.31,296.43L342.65,296.27L344.82,296.23L355.66,297.03L357.83,297.14L373.01,297.57L375.18,297.58L392.53,297.95L394.7,297.87L405.54,298.32L407.71,298.23L412.05,298.23L414.22,298.27L420.72,298.7L422.89,298.51L433.73,299.35L435.9,299.61L442.41,299.78L444.58,300.62L446.75,300.02L448.92,300.35L453.25,300.33L455.42,300.64L461.93,301.12L464.1,301.6L472.77,302.57L474.94,302.07L481.45,302.06L483.61,301.88L505.3,301.29L507.47,301.42L518.31,301.17L520.48,301.32L540,301.34" style="vector-effect: non-scaling-stroke; fill: none; stroke: rgb(171, 99, 250); stroke-opacity: 1; stroke-width: 2px; opacity: 1;"/></g><g class="points"/><g class="text"/></g><g class="trace scatter trace1ce95c" style="stroke-miterlimit: 2; opacity: 1;"><g class="fills"/><g class="errorbars"/><g class="lines"><path class="js-line" d="M0,177.83L6.51,213.7L8.67,218.62L10.84,219.15L13.01,216.13L15.18,220.55L17.35,220.41L19.52,217.82L21.69,223.11L30.36,228.99L32.53,228.48L36.87,237.16L39.04,238.52L43.37,244.57L45.54,244.62L47.71,245.83L49.88,245.84L52.05,247.87L54.22,247.37L56.39,248.31L58.55,250.13L60.72,252.85L62.89,254.14L67.23,255.83L69.4,258.18L71.57,258.02L73.73,259.98L75.9,262.18L78.07,262.02L80.24,263.11L82.41,265.18L86.75,264.3L88.92,264.91L91.08,266.54L93.25,265.47L95.42,265.5L97.59,264.07L101.93,266.17L104.1,265.82L106.27,268.92L108.43,268.76L110.6,270.66L112.77,270.19L114.94,270.76L117.11,272.94L121.45,274.13L123.61,274.57L125.78,273.8L127.95,274.71L130.12,273.94L132.29,274.64L136.63,276.49L138.8,277.31L140.96,277.16L143.13,278.55L147.47,278.14L149.64,279.07L151.81,279.24L153.98,280.42L158.31,280.51L160.48,280.78L164.82,280.42L166.99,281.33L171.33,282.56L173.49,282.37L188.67,285.2L190.84,285.49L197.35,287.97L199.52,289.08L201.69,288.85L203.86,289.46L206.02,290.6L208.19,290.51L212.53,291.51L214.7,291.14L219.04,291.51L221.2,291.68L238.55,291.57L240.72,292.2L247.23,293.4L249.4,293.12L255.9,293.15L258.07,293.32L264.58,293.48L266.75,293.26L268.92,292.38L271.08,292.79L277.59,293.5L279.76,293.78L286.27,293.91L288.43,294.41L301.45,295.04L303.61,295.52L318.8,296.22L320.96,295.79L336.14,296.24L338.31,296.43L342.65,296.27L344.82,296.23L355.66,297.03L357.83,297.14L373.01,297.57L375.18,297.58L392.53,297.95L394.7,297.87L405.54,298.32L407.71,298.23L412.05,298.23L414.22,298.27L420.72,298.7L422.89,298.51L433.73,299.35L435.9,299.61L442.41,299.78L444.58,300.62L446.75,300.02L448.92,300.35L453.25,300.33L455.42,300.64L461.93,301.12L464.1,301.6L472.77,302.57L474.94,302.07L481.45,302.06L483.61,301.88L505.3,301.29L507.47,301.42L518.31,301.17L520.48,301.32L540,301.34" style="vector-effect: non-scaling-stroke; fill: none; stroke: rgb(255, 161, 90); stroke-opacity: 1; stroke-width: 2px; opacity: 1;"/></g><g class="points"/><g class="text"/></g><g class="trace scatter trace4776de" style="stroke-miterlimit: 2; opacity: 1;"><g class="fills"/><g class="errorbars"/><g class="lines"><path class="js-line" d="M0,168.68L2.17,183.96L4.34,189.59L6.51,195.79L8.67,205.73L10.84,203.33L13.01,198.59L17.35,195.66L19.52,196.71L21.69,197.93L23.86,198.22L26.02,199.72L28.19,204.58L30.36,205L32.53,207.54L34.7,209.07L36.87,213.94L39.04,215.12L41.2,219.74L43.37,221.73L45.54,219.21L47.71,220.22L49.88,219.35L52.05,220.89L54.22,219.74L56.39,219.98L58.55,222.4L60.72,223.83L62.89,226.47L65.06,228.87L67.23,227.93L71.57,227.72L73.73,227.5L80.24,234.05L82.41,235.38L86.75,238.08L88.92,239.63L91.08,240.1L93.25,241.52L99.76,240.54L101.93,241.38L104.1,241.44L106.27,243.59L108.43,246.22L110.6,245.64L112.77,245.09L114.94,246.44L117.11,247.05L119.28,246.44L121.45,246.08L123.61,247.14L127.95,248.24L130.12,246.23L138.8,250.69L140.96,249.7L143.13,251.17L145.3,251.44L149.64,251.73L151.81,252.7L153.98,252.45L156.14,254.17L171.33,257.21L173.49,257.99L177.83,257.72L180,258.55L186.51,258.03L188.67,258.83L190.84,258.87L193.01,260.45L197.35,262.62L199.52,262.69L203.86,262.57L206.02,264.35L208.19,264.46L210.36,265.42L214.7,264.67L216.87,264.97L219.04,264.11L221.2,265.32L227.71,266.95L229.88,266.95L232.05,267.93L234.22,267.57L240.72,268.23L242.89,268.71L249.4,268.57L251.57,268.15L255.9,267.47L258.07,267.65L264.58,268.38L266.75,267.8L273.25,268.91L275.42,268.17L286.27,269.33L288.43,269.92L297.11,270.43L299.28,270.81L307.95,270.47L310.12,269.71L314.46,269.8L316.63,270.57L320.96,269.19L323.13,269.34L325.3,269.34L327.47,270.42L333.98,270.87L336.14,270.34L351.33,272.35L353.49,271.93L357.83,271.82L360,272.29L364.34,272.4L366.51,272.97L381.69,273.57L383.86,274.08L407.71,274.11L409.88,273.83L414.22,273.22L416.39,273.3L425.06,274.13L427.23,274.36L431.57,274.4L433.73,274.9L435.9,274.42L438.07,274.79L444.58,276.44L446.75,275.94L451.08,275.14L453.25,275.76L457.59,275.87L459.76,276.11L470.6,276.42L472.77,277.15L481.45,277.47L483.61,276.91L498.8,276.57L500.96,276.96L505.3,277.04L507.47,276.8L518.31,276.99L520.48,277.26L529.16,278.16L531.33,278.21L540,278.06" style="vector-effect: non-scaling-stroke; fill: none; stroke: rgb(25, 211, 243); stroke-opacity: 1; stroke-width: 2px; opacity: 1;"/></g><g class="points"/><g class="text"/></g><g class="trace scatter traced36453" style="stroke-miterlimit: 2; opacity: 1;"><g class="fills"/><g class="errorbars"/><g class="lines"><path class="js-line" d="M0,177.83L6.51,213.7L8.67,218.62L10.84,219.15L13.01,216.13L15.18,220.55L17.35,220.41L19.52,217.82L21.69,223.11L30.36,228.99L32.53,228.48L36.87,237.16L39.04,238.52L43.37,244.57L45.54,244.62L47.71,245.83L49.88,245.84L52.05,247.87L54.22,247.37L56.39,248.31L58.55,250.13L60.72,252.85L62.89,254.14L67.23,255.83L69.4,258.18L71.57,258.02L73.73,259.98L75.9,262.18L78.07,262.02L80.24,263.11L82.41,265.18L86.75,264.3L88.92,264.91L91.08,266.54L93.25,265.47L95.42,265.5L97.59,264.07L101.93,266.17L104.1,265.82L106.27,268.92L108.43,268.76L110.6,270.66L112.77,270.19L114.94,270.76L117.11,272.94L121.45,274.13L123.61,274.57L125.78,273.8L127.95,274.71L130.12,273.94L132.29,274.64L136.63,276.49L138.8,277.31L140.96,277.16L143.13,278.55L147.47,278.14L149.64,279.07L151.81,279.24L153.98,280.42L158.31,280.51L160.48,280.78L164.82,280.42L166.99,281.33L171.33,282.56L173.49,282.37L188.67,285.2L190.84,285.49L197.35,287.97L199.52,289.08L201.69,288.85L203.86,289.46L206.02,290.6L208.19,290.51L212.53,291.51L214.7,291.14L219.04,291.51L221.2,291.68L238.55,291.57L240.72,292.2L247.23,293.4L249.4,293.12L255.9,293.15L258.07,293.32L264.58,293.48L266.75,293.26L268.92,292.38L271.08,292.79L277.59,293.5L279.76,293.78L286.27,293.91L288.43,294.41L301.45,295.04L303.61,295.52L318.8,296.22L320.96,295.79L336.14,296.24L338.31,296.43L342.65,296.27L344.82,296.23L355.66,297.03L357.83,297.14L373.01,297.57L375.18,297.58L392.53,297.95L394.7,297.87L405.54,298.32L407.71,298.23L412.05,298.23L414.22,298.27L420.72,298.7L422.89,298.51L433.73,299.35L435.9,299.61L442.41,299.78L444.58,300.62L446.75,300.02L448.92,300.35L453.25,300.33L455.42,300.64L461.93,301.12L464.1,301.6L472.77,302.57L474.94,302.07L481.45,302.06L483.61,301.88L505.3,301.29L507.47,301.42L518.31,301.17L520.48,301.32L540,301.34" style="vector-effect: non-scaling-stroke; fill: none; stroke: rgb(255, 102, 146); stroke-opacity: 1; stroke-width: 2px; opacity: 1;"/></g><g class="points"/><g class="text"/></g><g class="trace scatter trace698ca3" style="stroke-miterlimit: 2; opacity: 1;"><g class="fills"/><g class="errorbars"/><g class="lines"><path class="js-line" d="M0,177.83L6.51,213.7L8.67,218.62L10.84,219.15L13.01,216.13L15.18,220.55L17.35,220.41L19.52,217.82L21.69,223.11L30.36,228.99L32.53,228.48L36.87,237.16L39.04,238.52L43.37,244.57L45.54,244.62L47.71,245.83L49.88,245.84L52.05,247.87L54.22,247.37L56.39,248.31L58.55,250.13L60.72,252.85L62.89,254.14L67.23,255.83L69.4,258.18L71.57,258.02L73.73,259.98L75.9,262.18L78.07,262.02L80.24,263.11L82.41,265.18L86.75,264.3L88.92,264.91L91.08,266.54L93.25,265.47L95.42,265.5L97.59,264.07L101.93,266.17L104.1,265.82L106.27,268.92L108.43,268.76L110.6,270.66L112.77,270.19L114.94,270.76L117.11,272.94L121.45,274.13L123.61,274.57L125.78,273.8L127.95,274.71L130.12,273.94L132.29,274.64L136.63,276.49L138.8,277.31L140.96,277.16L143.13,278.55L147.47,278.14L149.64,279.07L151.81,279.24L153.98,280.42L158.31,280.51L160.48,280.78L164.82,280.42L166.99,281.33L171.33,282.56L173.49,282.37L188.67,285.2L190.84,285.49L197.35,287.97L199.52,289.08L201.69,288.85L203.86,289.46L206.02,290.6L208.19,290.51L212.53,291.51L214.7,291.14L219.04,291.51L221.2,291.68L238.55,291.57L240.72,292.2L247.23,293.4L249.4,293.12L255.9,293.15L258.07,293.32L264.58,293.48L266.75,293.26L268.92,292.38L271.08,292.79L277.59,293.5L279.76,293.78L286.27,293.91L288.43,294.41L301.45,295.04L303.61,295.52L318.8,296.22L320.96,295.79L336.14,296.24L338.31,296.43L342.65,296.27L344.82,296.23L355.66,297.03L357.83,297.14L373.01,297.57L375.18,297.58L392.53,297.95L394.7,297.87L405.54,298.32L407.71,298.23L412.05,298.23L414.22,298.27L420.72,298.7L422.89,298.51L433.73,299.35L435.9,299.61L442.41,299.78L444.58,300.62L446.75,300.02L448.92,300.35L453.25,300.33L455.42,300.64L461.93,301.12L464.1,301.6L472.77,302.57L474.94,302.07L481.45,302.06L483.61,301.88L505.3,301.29L507.47,301.42L518.31,301.17L520.48,301.32L540,301.34" style="vector-effect: non-scaling-stroke; fill: none; stroke: rgb(182, 232, 128); stroke-opacity: 1; stroke-width: 2px; opacity: 1;"/></g><g class="points"/><g class="text"/></g><g class="trace scatter trace115a5a" style="stroke-miterlimit: 2; opacity: 1;"><g class="fills"/><g class="errorbars"/><g class="lines"><path class="js-line" d="M0,177.83L6.51,213.7L8.67,218.62L10.84,219.15L13.01,216.13L15.18,220.55L17.35,220.41L19.52,217.82L21.69,223.11L30.36,228.99L32.53,228.48L36.87,237.16L39.04,238.52L43.37,244.57L45.54,244.62L47.71,245.83L49.88,245.84L52.05,247.87L54.22,247.37L56.39,248.31L58.55,250.13L60.72,252.85L62.89,254.14L67.23,255.83L69.4,258.18L71.57,258.02L73.73,259.98L75.9,262.18L78.07,262.02L80.24,263.11L82.41,265.18L86.75,264.3L88.92,264.91L91.08,266.54L93.25,265.47L95.42,265.5L97.59,264.07L101.93,266.17L104.1,265.82L106.27,268.92L108.43,268.76L110.6,270.66L112.77,270.19L114.94,270.76L117.11,272.94L121.45,274.13L123.61,274.57L125.78,273.8L127.95,274.71L130.12,273.94L132.29,274.64L136.63,276.49L138.8,277.31L140.96,277.16L143.13,278.55L147.47,278.14L149.64,279.07L151.81,279.24L153.98,280.42L158.31,280.51L160.48,280.78L164.82,280.42L166.99,281.33L171.33,282.56L173.49,282.37L188.67,285.2L190.84,285.49L197.35,287.97L199.52,289.08L201.69,288.85L203.86,289.46L206.02,290.6L208.19,290.51L212.53,291.51L214.7,291.14L219.04,291.51L221.2,291.68L238.55,291.57L240.72,292.2L247.23,293.4L249.4,293.12L255.9,293.15L258.07,293.32L264.58,293.48L266.75,293.26L268.92,292.38L271.08,292.79L277.59,293.5L279.76,293.78L286.27,293.91L288.43,294.41L301.45,295.04L303.61,295.52L318.8,296.22L320.96,295.79L336.14,296.24L338.31,296.43L342.65,296.27L344.82,296.23L355.66,297.03L357.83,297.14L373.01,297.57L375.18,297.58L392.53,297.95L394.7,297.87L405.54,298.32L407.71,298.23L412.05,298.23L414.22,298.27L420.72,298.7L422.89,298.51L433.73,299.35L435.9,299.61L442.41,299.78L444.58,300.62L446.75,300.02L448.92,300.35L453.25,300.33L455.42,300.64L461.93,301.12L464.1,301.6L472.77,302.57L474.94,302.07L481.45,302.06L483.61,301.88L505.3,301.29L507.47,301.42L518.31,301.17L520.48,301.32L540,301.34" style="vector-effect: non-scaling-stroke; fill: none; stroke: rgb(255, 151, 255); stroke-opacity: 1; stroke-width: 2px; opacity: 1;"/></g><g class="points"/><g class="text"/></g><g class="trace scatter tracee3d288" style="stroke-miterlimit: 2; opacity: 1;"><g class="fills"/><g class="errorbars"/><g class="lines"><path class="js-line" d="M0,177.83L6.51,213.7L8.67,218.62L10.84,219.15L13.01,216.13L15.18,220.55L17.35,220.41L19.52,217.82L21.69,223.11L30.36,228.99L32.53,228.48L36.87,237.16L39.04,238.52L43.37,244.57L45.54,244.62L47.71,245.83L49.88,245.84L52.05,247.87L54.22,247.37L56.39,248.31L58.55,250.13L60.72,252.85L62.89,254.14L67.23,255.83L69.4,258.18L71.57,258.02L73.73,259.98L75.9,262.18L78.07,262.02L80.24,263.11L82.41,265.18L86.75,264.3L88.92,264.91L91.08,266.54L93.25,265.47L95.42,265.5L97.59,264.07L101.93,266.17L104.1,265.82L106.27,268.92L108.43,268.76L110.6,270.66L112.77,270.19L114.94,270.76L117.11,272.94L121.45,274.13L123.61,274.57L125.78,273.8L127.95,274.71L130.12,273.94L132.29,274.64L136.63,276.49L138.8,277.31L140.96,277.16L143.13,278.55L147.47,278.14L149.64,279.07L151.81,279.24L153.98,280.42L158.31,280.51L160.48,280.78L164.82,280.42L166.99,281.33L171.33,282.56L173.49,282.37L188.67,285.2L190.84,285.49L197.35,287.97L199.52,289.08L201.69,288.85L203.86,289.46L206.02,290.6L208.19,290.51L212.53,291.51L214.7,291.14L219.04,291.51L221.2,291.68L238.55,291.57L240.72,292.2L247.23,293.4L249.4,293.12L255.9,293.15L258.07,293.32L264.58,293.48L266.75,293.26L268.92,292.38L271.08,292.79L277.59,293.5L279.76,293.78L286.27,293.91L288.43,294.41L301.45,295.04L303.61,295.52L318.8,296.22L320.96,295.79L336.14,296.24L338.31,296.43L342.65,296.27L344.82,296.23L355.66,297.03L357.83,297.14L373.01,297.57L375.18,297.58L392.53,297.95L394.7,297.87L405.54,298.32L407.71,298.23L412.05,298.23L414.22,298.27L420.72,298.7L422.89,298.51L433.73,299.35L435.9,299.61L442.41,299.78L444.58,300.62L446.75,300.02L448.92,300.35L453.25,300.33L455.42,300.64L461.93,301.12L464.1,301.6L472.77,302.57L474.94,302.07L481.45,302.06L483.61,301.88L505.3,301.29L507.47,301.42L518.31,301.17L520.48,301.32L540,301.34" style="vector-effect: non-scaling-stroke; fill: none; stroke: rgb(254, 203, 82); stroke-opacity: 1; stroke-width: 2px; opacity: 1;"/></g><g class="points"/><g class="text"/></g><g class="trace scatter trace54dcb8" style="stroke-miterlimit: 2; opacity: 1;"><g class="fills"/><g class="errorbars"/><g class="lines"><path class="js-line" d="M0,177.83L6.51,213.7L8.67,218.62L10.84,219.15L13.01,216.13L15.18,220.55L17.35,220.41L19.52,217.82L21.69,223.11L30.36,228.99L32.53,228.48L36.87,237.16L39.04,238.52L43.37,244.57L45.54,244.62L47.71,245.83L49.88,245.84L52.05,247.87L54.22,247.37L56.39,248.31L58.55,250.13L60.72,252.85L62.89,254.14L67.23,255.83L69.4,258.18L71.57,258.02L73.73,259.98L75.9,262.18L78.07,262.02L80.24,263.11L82.41,265.18L86.75,264.3L88.92,264.91L91.08,266.54L93.25,265.47L95.42,265.5L97.59,264.07L101.93,266.17L104.1,265.82L106.27,268.92L108.43,268.76L110.6,270.66L112.77,270.19L114.94,270.76L117.11,272.94L121.45,274.13L123.61,274.57L125.78,273.8L127.95,274.71L130.12,273.94L132.29,274.64L136.63,276.49L138.8,277.31L140.96,277.16L143.13,278.55L147.47,278.14L149.64,279.07L151.81,279.24L153.98,280.42L158.31,280.51L160.48,280.78L164.82,280.42L166.99,281.33L171.33,282.56L173.49,282.37L188.67,285.2L190.84,285.49L197.35,287.97L199.52,289.08L201.69,288.85L203.86,289.46L206.02,290.6L208.19,290.51L212.53,291.51L214.7,291.14L219.04,291.51L221.2,291.68L238.55,291.57L240.72,292.2L247.23,293.4L249.4,293.12L255.9,293.15L258.07,293.32L264.58,293.48L266.75,293.26L268.92,292.38L271.08,292.79L277.59,293.5L279.76,293.78L286.27,293.91L288.43,294.41L301.45,295.04L303.61,295.52L318.8,296.22L320.96,295.79L336.14,296.24L338.31,296.43L342.65,296.27L344.82,296.23L355.66,297.03L357.83,297.14L373.01,297.57L375.18,297.58L392.53,297.95L394.7,297.87L405.54,298.32L407.71,298.23L412.05,298.23L414.22,298.27L420.72,298.7L422.89,298.51L433.73,299.35L435.9,299.61L442.41,299.78L444.58,300.62L446.75,300.02L448.92,300.35L453.25,300.33L455.42,300.64L461.93,301.12L464.1,301.6L472.77,302.57L474.94,302.07L481.45,302.06L483.61,301.88L505.3,301.29L507.47,301.42L518.31,301.17L520.48,301.32L540,301.34" style="vector-effect: non-scaling-stroke; fill: none; stroke: rgb(99, 110, 250); stroke-opacity: 1; stroke-width: 2px; opacity: 1;"/></g><g class="points"/><g class="text"/></g><g class="trace scatter trace0d62c5" style="stroke-miterlimit: 2; opacity: 1;"><g class="fills"/><g class="errorbars"/><g class="lines"><path class="js-line" d="M0,177.83L6.51,213.7L8.67,218.62L10.84,219.15L13.01,216.13L15.18,220.55L17.35,220.41L19.52,217.82L21.69,223.11L30.36,228.99L32.53,228.48L36.87,237.16L39.04,238.52L43.37,244.57L45.54,244.62L47.71,245.83L49.88,245.84L52.05,247.87L54.22,247.37L56.39,248.31L58.55,250.13L60.72,252.85L62.89,254.14L67.23,255.83L69.4,258.18L71.57,258.02L73.73,259.98L75.9,262.18L78.07,262.02L80.24,263.11L82.41,265.18L86.75,264.3L88.92,264.91L91.08,266.54L93.25,265.47L95.42,265.5L97.59,264.07L101.93,266.17L104.1,265.82L106.27,268.92L108.43,268.76L110.6,270.66L112.77,270.19L114.94,270.76L117.11,272.94L121.45,274.13L123.61,274.57L125.78,273.8L127.95,274.71L130.12,273.94L132.29,274.64L136.63,276.49L138.8,277.31L140.96,277.16L143.13,278.55L147.47,278.14L149.64,279.07L151.81,279.24L153.98,280.42L158.31,280.51L160.48,280.78L164.82,280.42L166.99,281.33L171.33,282.56L173.49,282.37L188.67,285.2L190.84,285.49L197.35,287.97L199.52,289.08L201.69,288.85L203.86,289.46L206.02,290.6L208.19,290.51L212.53,291.51L214.7,291.14L219.04,291.51L221.2,291.68L238.55,291.57L240.72,292.2L247.23,293.4L249.4,293.12L255.9,293.15L258.07,293.32L264.58,293.48L266.75,293.26L268.92,292.38L271.08,292.79L277.59,293.5L279.76,293.78L286.27,293.91L288.43,294.41L301.45,295.04L303.61,295.52L318.8,296.22L320.96,295.79L336.14,296.24L338.31,296.43L342.65,296.27L344.82,296.23L355.66,297.03L357.83,297.14L373.01,297.57L375.18,297.58L392.53,297.95L394.7,297.87L405.54,298.32L407.71,298.23L412.05,298.23L414.22,298.27L420.72,298.7L422.89,298.51L433.73,299.35L435.9,299.61L442.41,299.78L444.58,300.62L446.75,300.02L448.92,300.35L453.25,300.33L455.42,300.64L461.93,301.12L464.1,301.6L472.77,302.57L474.94,302.07L481.45,302.06L483.61,301.88L505.3,301.29L507.47,301.42L518.31,301.17L520.48,301.32L540,301.34" style="vector-effect: non-scaling-stroke; fill: none; stroke: rgb(239, 85, 59); stroke-opacity: 1; stroke-width: 2px; opacity: 1;"/></g><g class="points"/><g class="text"/></g><g class="trace scatter trace1a6857" style="stroke-miterlimit: 2; opacity: 1;"><g class="fills"/><g class="errorbars"/><g class="lines"><path class="js-line" d="M0,177.83L6.51,213.7L8.67,218.62L10.84,219.15L13.01,216.13L15.18,220.55L17.35,220.41L19.52,217.82L21.69,223.11L30.36,228.99L32.53,228.48L36.87,237.16L39.04,238.52L43.37,244.57L45.54,244.62L47.71,245.83L49.88,245.84L52.05,247.87L54.22,247.37L56.39,248.31L58.55,250.13L60.72,252.85L62.89,254.14L67.23,255.83L69.4,258.18L71.57,258.02L73.73,259.98L75.9,262.18L78.07,262.02L80.24,263.11L82.41,265.18L86.75,264.3L88.92,264.91L91.08,266.54L93.25,265.47L95.42,265.5L97.59,264.07L101.93,266.17L104.1,265.82L106.27,268.92L108.43,268.76L110.6,270.66L112.77,270.19L114.94,270.76L117.11,272.94L121.45,274.13L123.61,274.57L125.78,273.8L127.95,274.71L130.12,273.94L132.29,274.64L136.63,276.49L138.8,277.31L140.96,277.16L143.13,278.55L147.47,278.14L149.64,279.07L151.81,279.24L153.98,280.42L158.31,280.51L160.48,280.78L164.82,280.42L166.99,281.33L171.33,282.56L173.49,282.37L188.67,285.2L190.84,285.49L197.35,287.97L199.52,289.08L201.69,288.85L203.86,289.46L206.02,290.6L208.19,290.51L212.53,291.51L214.7,291.14L219.04,291.51L221.2,291.68L238.55,291.57L240.72,292.2L247.23,293.4L249.4,293.12L255.9,293.15L258.07,293.32L264.58,293.48L266.75,293.26L268.92,292.38L271.08,292.79L277.59,293.5L279.76,293.78L286.27,293.91L288.43,294.41L301.45,295.04L303.61,295.52L318.8,296.22L320.96,295.79L336.14,296.24L338.31,296.43L342.65,296.27L344.82,296.23L355.66,297.03L357.83,297.14L373.01,297.57L375.18,297.58L392.53,297.95L394.7,297.87L405.54,298.32L407.71,298.23L412.05,298.23L414.22,298.27L420.72,298.7L422.89,298.51L433.73,299.35L435.9,299.61L442.41,299.78L444.58,300.62L446.75,300.02L448.92,300.35L453.25,300.33L455.42,300.64L461.93,301.12L464.1,301.6L472.77,302.57L474.94,302.07L481.45,302.06L483.61,301.88L505.3,301.29L507.47,301.42L518.31,301.17L520.48,301.32L540,301.34" style="vector-effect: non-scaling-stroke; fill: none; stroke: rgb(0, 204, 150); stroke-opacity: 1; stroke-width: 2px; opacity: 1;"/></g><g class="points"/><g class="text"/></g><g class="trace scatter traced7f349" style="stroke-miterlimit: 2; opacity: 1;"><g class="fills"/><g class="errorbars"/><g class="lines"><path class="js-line" d="M0,177.83L6.51,213.7L8.67,218.62L10.84,219.15L13.01,216.13L15.18,220.55L17.35,220.41L19.52,217.82L21.69,223.11L30.36,228.99L32.53,228.48L36.87,237.16L39.04,238.52L43.37,244.57L45.54,244.62L47.71,245.83L49.88,245.84L52.05,247.87L54.22,247.37L56.39,248.31L58.55,250.13L60.72,252.85L62.89,254.14L67.23,255.83L69.4,258.18L71.57,258.02L73.73,259.98L75.9,262.18L78.07,262.02L80.24,263.11L82.41,265.18L86.75,264.3L88.92,264.91L91.08,266.54L93.25,265.47L95.42,265.5L97.59,264.07L101.93,266.17L104.1,265.82L106.27,268.92L108.43,268.76L110.6,270.66L112.77,270.19L114.94,270.76L117.11,272.94L121.45,274.13L123.61,274.57L125.78,273.8L127.95,274.71L130.12,273.94L132.29,274.64L136.63,276.49L138.8,277.31L140.96,277.16L143.13,278.55L147.47,278.14L149.64,279.07L151.81,279.24L153.98,280.42L158.31,280.51L160.48,280.78L164.82,280.42L166.99,281.33L171.33,282.56L173.49,282.37L188.67,285.2L190.84,285.49L197.35,287.97L199.52,289.08L201.69,288.85L203.86,289.46L206.02,290.6L208.19,290.51L212.53,291.51L214.7,291.14L219.04,291.51L221.2,291.68L238.55,291.57L240.72,292.2L247.23,293.4L249.4,293.12L255.9,293.15L258.07,293.32L264.58,293.48L266.75,293.26L268.92,292.38L271.08,292.79L277.59,293.5L279.76,293.78L286.27,293.91L288.43,294.41L301.45,295.04L303.61,295.52L318.8,296.22L320.96,295.79L336.14,296.24L338.31,296.43L342.65,296.27L344.82,296.23L355.66,297.03L357.83,297.14L373.01,297.57L375.18,297.58L392.53,297.95L394.7,297.87L405.54,298.32L407.71,298.23L412.05,298.23L414.22,298.27L420.72,298.7L422.89,298.51L433.73,299.35L435.9,299.61L442.41,299.78L444.58,300.62L446.75,300.02L448.92,300.35L453.25,300.33L455.42,300.64L461.93,301.12L464.1,301.6L472.77,302.57L474.94,302.07L481.45,302.06L483.61,301.88L505.3,301.29L507.47,301.42L518.31,301.17L520.48,301.32L540,301.34" style="vector-effect: non-scaling-stroke; fill: none; stroke: rgb(171, 99, 250); stroke-opacity: 1; stroke-width: 2px; opacity: 1;"/></g><g class="points"/><g class="text"/></g><g class="trace scatter trace1b664e" style="stroke-miterlimit: 2; opacity: 1;"><g class="fills"/><g class="errorbars"/><g class="lines"><path class="js-line" d="M0,177.83L6.51,213.7L8.67,218.62L10.84,219.15L13.01,216.13L15.18,220.55L17.35,220.41L19.52,217.82L21.69,223.11L30.36,228.99L32.53,228.48L36.87,237.16L39.04,238.52L43.37,244.57L45.54,244.62L47.71,245.83L49.88,245.84L52.05,247.87L54.22,247.37L56.39,248.31L58.55,250.13L60.72,252.85L62.89,254.14L67.23,255.83L69.4,258.18L71.57,258.02L73.73,259.98L75.9,262.18L78.07,262.02L80.24,263.11L82.41,265.18L86.75,264.3L88.92,264.91L91.08,266.54L93.25,265.47L95.42,265.5L97.59,264.07L101.93,266.17L104.1,265.82L106.27,268.92L108.43,268.76L110.6,270.66L112.77,270.19L114.94,270.76L117.11,272.94L121.45,274.13L123.61,274.57L125.78,273.8L127.95,274.71L130.12,273.94L132.29,274.64L136.63,276.49L138.8,277.31L140.96,277.16L143.13,278.55L147.47,278.14L149.64,279.07L151.81,279.24L153.98,280.42L158.31,280.51L160.48,280.78L164.82,280.42L166.99,281.33L171.33,282.56L173.49,282.37L188.67,285.2L190.84,285.49L197.35,287.97L199.52,289.08L201.69,288.85L203.86,289.46L206.02,290.6L208.19,290.51L212.53,291.51L214.7,291.14L219.04,291.51L221.2,291.68L238.55,291.57L240.72,292.2L247.23,293.4L249.4,293.12L255.9,293.15L258.07,293.32L264.58,293.48L266.75,293.26L268.92,292.38L271.08,292.79L277.59,293.5L279.76,293.78L286.27,293.91L288.43,294.41L301.45,295.04L303.61,295.52L318.8,296.22L320.96,295.79L336.14,296.24L338.31,296.43L342.65,296.27L344.82,296.23L355.66,297.03L357.83,297.14L373.01,297.57L375.18,297.58L392.53,297.95L394.7,297.87L405.54,298.32L407.71,298.23L412.05,298.23L414.22,298.27L420.72,298.7L422.89,298.51L433.73,299.35L435.9,299.61L442.41,299.78L444.58,300.62L446.75,300.02L448.92,300.35L453.25,300.33L455.42,300.64L461.93,301.12L464.1,301.6L472.77,302.57L474.94,302.07L481.45,302.06L483.61,301.88L505.3,301.29L507.47,301.42L518.31,301.17L520.48,301.32L540,301.34" style="vector-effect: non-scaling-stroke; fill: none; stroke: rgb(255, 161, 90); stroke-opacity: 1; stroke-width: 2px; opacity: 1;"/></g><g class="points"/><g class="text"/></g><g class="trace scatter traced4250c" style="stroke-miterlimit: 2; opacity: 1;"><g class="fills"/><g class="errorbars"/><g class="lines"><path class="js-line" d="M0,177.83L6.51,213.7L8.67,218.62L10.84,219.15L13.01,216.13L15.18,220.55L17.35,220.41L19.52,217.82L21.69,223.11L30.36,228.99L32.53,228.48L36.87,237.16L39.04,238.52L43.37,244.57L45.54,244.62L47.71,245.83L49.88,245.84L52.05,247.87L54.22,247.37L56.39,248.31L58.55,250.13L60.72,252.85L62.89,254.14L67.23,255.83L69.4,258.18L71.57,258.02L73.73,259.98L75.9,262.18L78.07,262.02L80.24,263.11L82.41,265.18L86.75,264.3L88.92,264.91L91.08,266.54L93.25,265.47L95.42,265.5L97.59,264.07L101.93,266.17L104.1,265.82L106.27,268.92L108.43,268.76L110.6,270.66L112.77,270.19L114.94,270.76L117.11,272.94L121.45,274.13L123.61,274.57L125.78,273.8L127.95,274.71L130.12,273.94L132.29,274.64L136.63,276.49L138.8,277.31L140.96,277.16L143.13,278.55L147.47,278.14L149.64,279.07L151.81,279.24L153.98,280.42L158.31,280.51L160.48,280.78L164.82,280.42L166.99,281.33L171.33,282.56L173.49,282.37L188.67,285.2L190.84,285.49L197.35,287.97L199.52,289.08L201.69,288.85L203.86,289.46L206.02,290.6L208.19,290.51L212.53,291.51L214.7,291.14L219.04,291.51L221.2,291.68L238.55,291.57L240.72,292.2L247.23,293.4L249.4,293.12L255.9,293.15L258.07,293.32L264.58,293.48L266.75,293.26L268.92,292.38L271.08,292.79L277.59,293.5L279.76,293.78L286.27,293.91L288.43,294.41L301.45,295.04L303.61,295.52L318.8,296.22L320.96,295.79L336.14,296.24L338.31,296.43L342.65,296.27L344.82,296.23L355.66,297.03L357.83,297.14L373.01,297.57L375.18,297.58L392.53,297.95L394.7,297.87L405.54,298.32L407.71,298.23L412.05,298.23L414.22,298.27L420.72,298.7L422.89,298.51L433.73,299.35L435.9,299.61L442.41,299.78L444.58,300.62L446.75,300.02L448.92,300.35L453.25,300.33L455.42,300.64L461.93,301.12L464.1,301.6L472.77,302.57L474.94,302.07L481.45,302.06L483.61,301.88L505.3,301.29L507.47,301.42L518.31,301.17L520.48,301.32L540,301.34" style="vector-effect: non-scaling-stroke; fill: none; stroke: rgb(25, 211, 243); stroke-opacity: 1; stroke-width: 2px; opacity: 1;"/></g><g class="points"/><g class="text"/></g><g class="trace scatter traced60b5e" style="stroke-miterlimit: 2; opacity: 1;"><g class="fills"/><g class="errorbars"/><g class="lines"><path class="js-line" d="M0,177.83L6.51,213.7L8.67,218.62L10.84,219.15L13.01,216.13L15.18,220.55L17.35,220.41L19.52,217.82L21.69,223.11L30.36,228.99L32.53,228.48L36.87,237.16L39.04,238.52L43.37,244.57L45.54,244.62L47.71,245.83L49.88,245.84L52.05,247.87L54.22,247.37L56.39,248.31L58.55,250.13L60.72,252.85L62.89,254.14L67.23,255.83L69.4,258.18L71.57,258.02L73.73,259.98L75.9,262.18L78.07,262.02L80.24,263.11L82.41,265.18L86.75,264.3L88.92,264.91L91.08,266.54L93.25,265.47L95.42,265.5L97.59,264.07L101.93,266.17L104.1,265.82L106.27,268.92L108.43,268.76L110.6,270.66L112.77,270.19L114.94,270.76L117.11,272.94L121.45,274.13L123.61,274.57L125.78,273.8L127.95,274.71L130.12,273.94L132.29,274.64L136.63,276.49L138.8,277.31L140.96,277.16L143.13,278.55L147.47,278.14L149.64,279.07L151.81,279.24L153.98,280.42L158.31,280.51L160.48,280.78L164.82,280.42L166.99,281.33L171.33,282.56L173.49,282.37L188.67,285.2L190.84,285.49L197.35,287.97L199.52,289.08L201.69,288.85L203.86,289.46L206.02,290.6L208.19,290.51L212.53,291.51L214.7,291.14L219.04,291.51L221.2,291.68L238.55,291.57L240.72,292.2L247.23,293.4L249.4,293.12L255.9,293.15L258.07,293.32L264.58,293.48L266.75,293.26L268.92,292.38L271.08,292.79L277.59,293.5L279.76,293.78L286.27,293.91L288.43,294.41L301.45,295.04L303.61,295.52L318.8,296.22L320.96,295.79L336.14,296.24L338.31,296.43L342.65,296.27L344.82,296.23L355.66,297.03L357.83,297.14L373.01,297.57L375.18,297.58L392.53,297.95L394.7,297.87L405.54,298.32L407.71,298.23L412.05,298.23L414.22,298.27L420.72,298.7L422.89,298.51L433.73,299.35L435.9,299.61L442.41,299.78L444.58,300.62L446.75,300.02L448.92,300.35L453.25,300.33L455.42,300.64L461.93,301.12L464.1,301.6L472.77,302.57L474.94,302.07L481.45,302.06L483.61,301.88L505.3,301.29L507.47,301.42L518.31,301.17L520.48,301.32L540,301.34" style="vector-effect: non-scaling-stroke; fill: none; stroke: rgb(255, 102, 146); stroke-opacity: 1; stroke-width: 2px; opacity: 1;"/></g><g class="points"/><g class="text"/></g><g class="trace scatter tracefe8ef6" style="stroke-miterlimit: 2; opacity: 1;"><g class="fills"/><g class="errorbars"/><g class="lines"><path class="js-line" d="M0,177.83L6.51,213.7L8.67,218.62L10.84,219.15L13.01,216.13L15.18,220.55L17.35,220.41L19.52,217.82L21.69,223.11L30.36,228.99L32.53,228.48L36.87,237.16L39.04,238.52L43.37,244.57L45.54,244.62L47.71,245.83L49.88,245.84L52.05,247.87L54.22,247.37L56.39,248.31L58.55,250.13L60.72,252.85L62.89,254.14L67.23,255.83L69.4,258.18L71.57,258.02L73.73,259.98L75.9,262.18L78.07,262.02L80.24,263.11L82.41,265.18L86.75,264.3L88.92,264.91L91.08,266.54L93.25,265.47L95.42,265.5L97.59,264.07L101.93,266.17L104.1,265.82L106.27,268.92L108.43,268.76L110.6,270.66L112.77,270.19L114.94,270.76L117.11,272.94L121.45,274.13L123.61,274.57L125.78,273.8L127.95,274.71L130.12,273.94L132.29,274.64L136.63,276.49L138.8,277.31L140.96,277.16L143.13,278.55L147.47,278.14L149.64,279.07L151.81,279.24L153.98,280.42L158.31,280.51L160.48,280.78L164.82,280.42L166.99,281.33L171.33,282.56L173.49,282.37L188.67,285.2L190.84,285.49L197.35,287.97L199.52,289.08L201.69,288.85L203.86,289.46L206.02,290.6L208.19,290.51L212.53,291.51L214.7,291.14L219.04,291.51L221.2,291.68L238.55,291.57L240.72,292.2L247.23,293.4L249.4,293.12L255.9,293.15L258.07,293.32L264.58,293.48L266.75,293.26L268.92,292.38L271.08,292.79L277.59,293.5L279.76,293.78L286.27,293.91L288.43,294.41L301.45,295.04L303.61,295.52L318.8,296.22L320.96,295.79L336.14,296.24L338.31,296.43L342.65,296.27L344.82,296.23L355.66,297.03L357.83,297.14L373.01,297.57L375.18,297.58L392.53,297.95L394.7,297.87L405.54,298.32L407.71,298.23L412.05,298.23L414.22,298.27L420.72,298.7L422.89,298.51L433.73,299.35L435.9,299.61L442.41,299.78L444.58,300.62L446.75,300.02L448.92,300.35L453.25,300.33L455.42,300.64L461.93,301.12L464.1,301.6L472.77,302.57L474.94,302.07L481.45,302.06L483.61,301.88L505.3,301.29L507.47,301.42L518.31,301.17L520.48,301.32L540,301.34" style="vector-effect: non-scaling-stroke; fill: none; stroke: rgb(182, 232, 128); stroke-opacity: 1; stroke-width: 2px; opacity: 1;"/></g><g class="points"/><g class="text"/></g><g class="trace scatter traced9b355" style="stroke-miterlimit: 2; opacity: 1;"><g class="fills"/><g class="errorbars"/><g class="lines"><path class="js-line" d="M0,177.83L6.51,213.7L8.67,218.62L10.84,219.15L13.01,216.13L15.18,220.55L17.35,220.41L19.52,217.82L21.69,223.11L30.36,228.99L32.53,228.48L36.87,237.16L39.04,238.52L43.37,244.57L45.54,244.62L47.71,245.83L49.88,245.84L52.05,247.87L54.22,247.37L56.39,248.31L58.55,250.13L60.72,252.85L62.89,254.14L67.23,255.83L69.4,258.18L71.57,258.02L73.73,259.98L75.9,262.18L78.07,262.02L80.24,263.11L82.41,265.18L86.75,264.3L88.92,264.91L91.08,266.54L93.25,265.47L95.42,265.5L97.59,264.07L101.93,266.17L104.1,265.82L106.27,268.92L108.43,268.76L110.6,270.66L112.77,270.19L114.94,270.76L117.11,272.94L121.45,274.13L123.61,274.57L125.78,273.8L127.95,274.71L130.12,273.94L132.29,274.64L136.63,276.49L138.8,277.31L140.96,277.16L143.13,278.55L147.47,278.14L149.64,279.07L151.81,279.24L153.98,280.42L158.31,280.51L160.48,280.78L164.82,280.42L166.99,281.33L171.33,282.56L173.49,282.37L188.67,285.2L190.84,285.49L197.35,287.97L199.52,289.08L201.69,288.85L203.86,289.46L206.02,290.6L208.19,290.51L212.53,291.51L214.7,291.14L219.04,291.51L221.2,291.68L238.55,291.57L240.72,292.2L247.23,293.4L249.4,293.12L255.9,293.15L258.07,293.32L264.58,293.48L266.75,293.26L268.92,292.38L271.08,292.79L277.59,293.5L279.76,293.78L286.27,293.91L288.43,294.41L301.45,295.04L303.61,295.52L318.8,296.22L320.96,295.79L336.14,296.24L338.31,296.43L342.65,296.27L344.82,296.23L355.66,297.03L357.83,297.14L373.01,297.57L375.18,297.58L392.53,297.95L394.7,297.87L405.54,298.32L407.71,298.23L412.05,298.23L414.22,298.27L420.72,298.7L422.89,298.51L433.73,299.35L435.9,299.61L442.41,299.78L444.58,300.62L446.75,300.02L448.92,300.35L453.25,300.33L455.42,300.64L461.93,301.12L464.1,301.6L472.77,302.57L474.94,302.07L481.45,302.06L483.61,301.88L505.3,301.29L507.47,301.42L518.31,301.17L520.48,301.32L540,301.34" style="vector-effect: non-scaling-stroke; fill: none; stroke: rgb(255, 151, 255); stroke-opacity: 1; stroke-width: 2px; opacity: 1;"/></g><g class="points"/><g class="text"/></g><g class="trace scatter trace4513bf" style="stroke-miterlimit: 2; opacity: 1;"><g class="fills"/><g class="errorbars"/><g class="lines"><path class="js-line" d="M0,177.83L6.51,213.7L8.67,218.62L10.84,219.15L13.01,216.13L15.18,220.55L17.35,220.41L19.52,217.82L21.69,223.11L30.36,228.99L32.53,228.48L36.87,237.16L39.04,238.52L43.37,244.57L45.54,244.62L47.71,245.83L49.88,245.84L52.05,247.87L54.22,247.37L56.39,248.31L58.55,250.13L60.72,252.85L62.89,254.14L67.23,255.83L69.4,258.18L71.57,258.02L73.73,259.98L75.9,262.18L78.07,262.02L80.24,263.11L82.41,265.18L86.75,264.3L88.92,264.91L91.08,266.54L93.25,265.47L95.42,265.5L97.59,264.07L101.93,266.17L104.1,265.82L106.27,268.92L108.43,268.76L110.6,270.66L112.77,270.19L114.94,270.76L117.11,272.94L121.45,274.13L123.61,274.57L125.78,273.8L127.95,274.71L130.12,273.94L132.29,274.64L136.63,276.49L138.8,277.31L140.96,277.16L143.13,278.55L147.47,278.14L149.64,279.07L151.81,279.24L153.98,280.42L158.31,280.51L160.48,280.78L164.82,280.42L166.99,281.33L171.33,282.56L173.49,282.37L188.67,285.2L190.84,285.49L197.35,287.97L199.52,289.08L201.69,288.85L203.86,289.46L206.02,290.6L208.19,290.51L212.53,291.51L214.7,291.14L219.04,291.51L221.2,291.68L238.55,291.57L240.72,292.2L247.23,293.4L249.4,293.12L255.9,293.15L258.07,293.32L264.58,293.48L266.75,293.26L268.92,292.38L271.08,292.79L277.59,293.5L279.76,293.78L286.27,293.91L288.43,294.41L301.45,295.04L303.61,295.52L318.8,296.22L320.96,295.79L336.14,296.24L338.31,296.43L342.65,296.27L344.82,296.23L355.66,297.03L357.83,297.14L373.01,297.57L375.18,297.58L392.53,297.95L394.7,297.87L405.54,298.32L407.71,298.23L412.05,298.23L414.22,298.27L420.72,298.7L422.89,298.51L433.73,299.35L435.9,299.61L442.41,299.78L444.58,300.62L446.75,300.02L448.92,300.35L453.25,300.33L455.42,300.64L461.93,301.12L464.1,301.6L472.77,302.57L474.94,302.07L481.45,302.06L483.61,301.88L505.3,301.29L507.47,301.42L518.31,301.17L520.48,301.32L540,301.34" style="vector-effect: non-scaling-stroke; fill: none; stroke: rgb(254, 203, 82); stroke-opacity: 1; stroke-width: 2px; opacity: 1;"/></g><g class="points"/><g class="text"/></g><g class="trace scatter trace7bedd8" style="stroke-miterlimit: 2; opacity: 1;"><g class="fills"/><g class="errorbars"/><g class="lines"><path class="js-line" d="M0,177.83L6.51,213.7L8.67,218.62L10.84,219.15L13.01,216.13L15.18,220.55L17.35,220.41L19.52,217.82L21.69,223.11L30.36,228.99L32.53,228.48L36.87,237.16L39.04,238.52L43.37,244.57L45.54,244.62L47.71,245.83L49.88,245.84L52.05,247.87L54.22,247.37L56.39,248.31L58.55,250.13L60.72,252.85L62.89,254.14L67.23,255.83L69.4,258.18L71.57,258.02L73.73,259.98L75.9,262.18L78.07,262.02L80.24,263.11L82.41,265.18L86.75,264.3L88.92,264.91L91.08,266.54L93.25,265.47L95.42,265.5L97.59,264.07L101.93,266.17L104.1,265.82L106.27,268.92L108.43,268.76L110.6,270.66L112.77,270.19L114.94,270.76L117.11,272.94L121.45,274.13L123.61,274.57L125.78,273.8L127.95,274.71L130.12,273.94L132.29,274.64L136.63,276.49L138.8,277.31L140.96,277.16L143.13,278.55L147.47,278.14L149.64,279.07L151.81,279.24L153.98,280.42L158.31,280.51L160.48,280.78L164.82,280.42L166.99,281.33L171.33,282.56L173.49,282.37L188.67,285.2L190.84,285.49L197.35,287.97L199.52,289.08L201.69,288.85L203.86,289.46L206.02,290.6L208.19,290.51L212.53,291.51L214.7,291.14L219.04,291.51L221.2,291.68L238.55,291.57L240.72,292.2L247.23,293.4L249.4,293.12L255.9,293.15L258.07,293.32L264.58,293.48L266.75,293.26L268.92,292.38L271.08,292.79L277.59,293.5L279.76,293.78L286.27,293.91L288.43,294.41L301.45,295.04L303.61,295.52L318.8,296.22L320.96,295.79L336.14,296.24L338.31,296.43L342.65,296.27L344.82,296.23L355.66,297.03L357.83,297.14L373.01,297.57L375.18,297.58L392.53,297.95L394.7,297.87L405.54,298.32L407.71,298.23L412.05,298.23L414.22,298.27L420.72,298.7L422.89,298.51L433.73,299.35L435.9,299.61L442.41,299.78L444.58,300.62L446.75,300.02L448.92,300.35L453.25,300.33L455.42,300.64L461.93,301.12L464.1,301.6L472.77,302.57L474.94,302.07L481.45,302.06L483.61,301.88L505.3,301.29L507.47,301.42L518.31,301.17L520.48,301.32L540,301.34" style="vector-effect: non-scaling-stroke; fill: none; stroke: rgb(99, 110, 250); stroke-opacity: 1; stroke-width: 2px; opacity: 1;"/></g><g class="points"/><g class="text"/></g></g></g><g class="overplot"/><path class="xlines-above crisp" d="M0,0" style="fill: none;"/><path class="ylines-above crisp" d="M0,0" style="fill: none;"/><g class="overlines-above"/><g class="xaxislayer-above"><g class="xtick"><text text-anchor="middle" x="0" y="433" transform="translate(80,0)" style="font-family: 'Open Sans', verdana, arial, sans-serif; font-size: 12px; fill: rgb(42, 63, 95); fill-opacity: 1; white-space: pre; opacity: 1;">0</text></g><g class="xtick"><text text-anchor="middle" x="0" y="433" style="font-family: 'Open Sans', verdana, arial, sans-serif; font-size: 12px; fill: rgb(42, 63, 95); fill-opacity: 1; white-space: pre; opacity: 1;" transform="translate(188.43,0)">50</text></g><g class="xtick"><text text-anchor="middle" x="0" y="433" style="font-family: 'Open Sans', verdana, arial, sans-serif; font-size: 12px; fill: rgb(42, 63, 95); fill-opacity: 1; white-space: pre; opacity: 1;" transform="translate(296.87,0)">100</text></g><g class="xtick"><text text-anchor="middle" x="0" y="433" style="font-family: 'Open Sans', verdana, arial, sans-serif; font-size: 12px; fill: rgb(42, 63, 95); fill-opacity: 1; white-space: pre; opacity: 1;" transform="translate(405.3,0)">150</text></g><g class="xtick"><text text-anchor="middle" x="0" y="433" style="font-family: 'Open Sans', verdana, arial, sans-serif; font-size: 12px; fill: rgb(42, 63, 95); fill-opacity: 1; white-space: pre; opacity: 1;" transform="translate(513.73,0)">200</text></g></g><g class="yaxislayer-above"><g class="ytick"><text text-anchor="end" x="79" y="4.199999999999999" transform="translate(0,420)" style="font-family: 'Open Sans', verdana, arial, sans-serif; font-size: 12px; fill: rgb(42, 63, 95); fill-opacity: 1; white-space: pre; opacity: 1;">0</text></g><g class="ytick"><text text-anchor="end" x="79" y="4.199999999999999" style="font-family: 'Open Sans', verdana, arial, sans-serif; font-size: 12px; fill: rgb(42, 63, 95); fill-opacity: 1; white-space: pre; opacity: 1;" transform="translate(0,356.82)">50</text></g><g class="ytick"><text text-anchor="end" x="79" y="4.199999999999999" style="font-family: 'Open Sans', verdana, arial, sans-serif; font-size: 12px; fill: rgb(42, 63, 95); fill-opacity: 1; white-space: pre; opacity: 1;" transform="translate(0,293.64)">100</text></g><g class="ytick"><text text-anchor="end" x="79" y="4.199999999999999" style="font-family: 'Open Sans', verdana, arial, sans-serif; font-size: 12px; fill: rgb(42, 63, 95); fill-opacity: 1; white-space: pre; opacity: 1;" transform="translate(0,230.46)">150</text></g><g class="ytick"><text text-anchor="end" x="79" y="4.199999999999999" style="font-family: 'Open Sans', verdana, arial, sans-serif; font-size: 12px; fill: rgb(42, 63, 95); fill-opacity: 1; white-space: pre; opacity: 1;" transform="translate(0,167.28)">200</text></g><g class="ytick"><text text-anchor="end" x="79" y="4.199999999999999" style="font-family: 'Open Sans', verdana, arial, sans-serif; font-size: 12px; fill: rgb(42, 63, 95); fill-opacity: 1; white-space: pre; opacity: 1;" transform="translate(0,104.09)">250</text></g></g><g class="overaxes-above"/></g></g><g class="polarlayer"/><g class="ternarylayer"/><g class="geolayer"/><g class="funnelarealayer"/><g class="pielayer"/><g class="iciclelayer"/><g class="treemaplayer"/><g class="sunburstlayer"/><g class="glimages"/><defs id="topdefs-b6e1c4"><g class="clips"/></defs><g class="layer-above"><g class="imagelayer"/><g class="shapelayer"/></g><g class="infolayer"><g class="g-gtitle"><text class="gtitle" x="35" y="50" text-anchor="start" dy="0em" style="font-family: 'Open Sans', verdana, arial, sans-serif; font-size: 17px; fill: rgb(42, 63, 95); opacity: 1; font-weight: normal; white-space: pre;">Average Rank: ascad_0-ascad_mlp</text></g><g class="g-xtitle"/><g class="g-ytitle"/></g></svg>