<svg class="main-svg" xmlns="http://www.w3.org/2000/svg" xmlns:xlink="http://www.w3.org/1999/xlink" width="700" height="500" style="" viewBox="0 0 700 500"><rect x="0" y="0" width="700" height="500" style="fill: rgb(255, 255, 255); fill-opacity: 1;"/><defs id="defs-d86115"><g class="clips"><clipPath id="clipd86115xyplot" class="plotclip"><rect width="540" height="320"/></clipPath><clipPath class="axesclip" id="clipd86115x"><rect x="80" y="0" width="540" height="500"/></clipPath><clipPath class="axesclip" id="clipd86115y"><rect x="0" y="100" width="700" height="320"/></clipPath><clipPath class="axesclip" id="clipd86115xy"><rect x="80" y="100" width="540" height="320"/></clipPath></g><g class="gradients"/><g class="patterns"/></defs><g class="bglayer"><rect class="bg" x="80" y="100" width="540" height="320" style="fill: rgb(229, 236, 246); fill-opacity: 1; stroke-width: 0;"/></g><g class="layer-below"><g class="imagelayer"/><g class="shapelayer"/></g><g class="cartesianlayer"><g class="subplot xy"><g class="layer-subplot"><g class="shapelayer"/><g class="imagelayer"/></g><g class="gridlayer"><g class="x"><path class="xgrid crisp" transform="translate(188.43,0)" d="M0,100v320" style="stroke: rgb(255, 255, 255); stroke-opacity: 1; stroke-width: 1px;"/><path class="xgrid crisp" transform="translate(296.87,0)" d="M0,100v320" style="stroke: rgb(255, 255, 255); stroke-opacity: 1; stroke-width: 1px;"/><path class="xgrid crisp" transform="translate(405.3,0)" d="M0,100v320" style="stroke: rgb(255, 255, 255); stroke-opacity: 1; stroke-width: 1px;"/><path class="xgrid crisp" transform="translate(513.73,0)" d="M0,100v320" style="stroke: rgb(255, 255, 255); stroke-opacity: 1; stroke-width: 1px;"/></g><g class="y"><path class="ygrid crisp" transform="translate(0,371.37)" d="M80,0h540" style="stroke: rgb(255, 255, 255); stroke-opacity: 1; stroke-width: 1px;"/><path class="ygrid crisp" transform="translate(0,322.73)" d="M80,0h540" style="stroke: rgb(255, 255, 255); stroke-opacity: 1; stroke-width: 1px;"/><path class="ygrid crisp" transform="translate(0,274.1)" d="M80,0h540" style="stroke: rgb(255, 255, 255); stroke-opacity: 1; stroke-width: 1px;"/><path class="ygrid crisp" transform="translate(0,225.45999999999998)" d="M80,0h540" style="stroke: rgb(255, 255, 255); stroke-opacity: 1; stroke-width: 1px;"/><path class="ygrid crisp" transform="translate(0,176.82999999999998)" d="M80,0h540" style="stroke: rgb(255, 255, 255); stroke-opacity: 1; stroke-width: 1px;"/><path class="ygrid crisp" transform="translate(0,128.2)" d="M80,0h540" style="stroke: rgb(255, 255, 255); stroke-opacity: 1; stroke-width: 1px;"/></g></g><g class="zerolinelayer"><path class="xzl zl crisp" transform="translate(80,0)" d="M0,100v320" style="stroke: rgb(255, 255, 255); stroke-opacity: 1; stroke-width: 2px;"/><path class="yzl zl crisp" transform="translate(0,420)" d="M80,0h540" style="stroke: rgb(255, 255, 255); stroke-opacity: 1; stroke-width: 2px;"/></g><path class="xlines-below"/><path class="ylines-below"/><g class="overlines-below"/><g class="xaxislayer-below"/><g class="yaxislayer-below"/><g class="overaxes-below"/><g class="plot" transform="translate(80,100)" clip-path="url(#clipd86115xyplot)"><g class="scatterlayer mlayer"><g class="trace scatter trace75701a" style="stroke-miterlimit: 2; opacity: 1;"><g class="fills"/><g class="errorbars"/><g class="lines"><path class="js-line" d="M0,52.14L2.17,54L4.34,37.41L6.51,40.07L8.67,44.33L10.84,43.24L13.01,47.97L15.18,25.58L17.35,54.5L19.52,57.47L21.69,67.31L23.86,84.3L26.02,82.27L28.19,74.22L30.36,72.71L32.53,85.61L34.7,91.39L36.87,96.57L39.04,96.55L41.2,105.34L43.37,124.85L47.71,136.11L49.88,137.11L52.05,131.32L54.22,144.08L56.39,151L58.55,151.45L60.72,144.29L62.89,152.56L65.06,160.34L67.23,165.15L69.4,161.63L71.57,167.77L73.73,164.57L75.9,168.59L78.07,168.87L80.24,162.96L82.41,171.48L84.58,169.89L86.75,167.9L88.92,170.56L91.08,171.15L93.25,173.36L95.42,176.62L97.59,175.6L99.76,177.37L101.93,178.07L104.1,170.68L106.27,176.04L108.43,175.54L110.6,176.23L112.77,170.28L114.94,174.44L117.11,184.13L119.28,185.61L121.45,178.59L123.61,184.29L130.12,196.81L132.29,196.65L134.46,198.4L136.63,205.36L138.8,206.09L140.96,204.16L143.13,198.89L145.3,202.82L147.47,199.54L149.64,194.42L151.81,200.28L153.98,200.46L156.14,205.72L158.31,208.54L160.48,206.58L162.65,202.81L164.82,199.36L166.99,204.92L169.16,205.53L171.33,209.22L173.49,221.19L175.66,221.87L180,222.16L182.17,217.86L184.34,221.94L186.51,221.94L188.67,222.93L190.84,222.25L193.01,226.6L195.18,227.48L197.35,227.15L199.52,228.64L201.69,222.72L203.86,219.6L208.19,223.56L210.36,228.86L214.7,239.38L216.87,236.63L219.04,232.41L221.2,234.71L223.37,236.95L225.54,237.32L227.71,241.49L229.88,243.47L232.05,244.62L234.22,243.73L236.39,242.52L238.55,240.43L242.89,242.95L245.06,242.27L247.23,243.36L249.4,243.6L251.57,242.75L253.73,240.32L255.9,238.42L258.07,235.38L260.24,232.9L262.41,231.77L264.58,231.83L266.75,227.05L268.92,227.51L271.08,230.92L273.25,232.09L275.42,228.19L277.59,231.54L279.76,230.54L281.93,229.92L284.1,231.29L286.27,230.15L288.43,230.19L294.94,226.97L297.11,232.85L299.28,234.88L301.45,232.85L303.61,228.52L305.78,227.16L307.95,226.4L310.12,229.54L312.29,229.56L314.46,228.21L316.63,223.4L318.8,225.32L320.96,224.34L323.13,221.26L325.3,216.71L327.47,220.91L329.64,217L331.81,218.02L333.98,214.85L336.14,217.51L338.31,216.09L340.48,215.98L342.65,218.98L344.82,219.69L346.99,222.5L349.16,220.79L351.33,220.7L353.49,223.73L355.66,226.83L357.83,226.44L360,225.79L362.17,226.97L364.34,228.3L366.51,230.94L368.67,227.39L370.84,228.34L373.01,223.83L375.18,228.2L377.35,229.88L379.52,229.77L381.69,232.8L383.86,232.25L386.02,232.31L388.19,233.22L390.36,232.78L392.53,230.8L396.87,231.11L399.04,229.77L401.2,231.26L403.37,235.81L405.54,235.61L407.71,238.35L409.88,236.59L412.05,236.77L414.22,235.08L416.39,235.77L420.72,231.15L422.89,231.05L425.06,231.05L427.23,232.26L431.57,240.12L433.73,240.59L435.9,238.47L438.07,242.01L440.24,239.41L442.41,239.29L444.58,241.6L446.75,240.14L448.92,240.4L451.08,237.63L453.25,239.07L455.42,237.92L457.59,237.48L459.76,239.06L461.93,241.08L464.1,245.43L468.43,248.63L470.6,249.14L474.94,254.87L477.11,254.04L481.45,251.17L483.61,250.88L487.95,252.72L490.12,254.66L492.29,253.28L494.46,253.42L496.63,257.16L498.8,257.27L505.3,257.28L507.47,258.61L509.64,259.12L511.81,257.87L513.98,258.61L516.14,256.55L518.31,258.52L520.48,256.57L522.65,256.79L524.82,258.06L526.99,257.59L529.16,260L533.49,260.2L535.66,258.22L540,259.1" style="vector-effect: non-scaling-stroke; fill: none; stroke: rgb(99, 110, 250); stroke-opacity: 1; stroke-width: 2px; opacity: 1;"/></g><g class="points"/><g class="text"/></g><g class="trace scatter tracefef114" style="stroke-miterlimit: 2; opacity: 1;"><g class="fills"/><g class="errorbars"/><g class="lines"><path class="js-line" d="M0,38.96L2.17,51.77L4.34,102.51L8.67,129.25L10.84,128.47L13.01,130.17L15.18,139.54L19.52,115.23L21.69,133.47L23.86,141.14L26.02,140.15L28.19,143.76L30.36,142.12L32.53,137.52L34.7,147.59L36.87,172.2L39.04,165.06L41.2,163.36L43.37,174.78L45.54,178.77L47.71,181.14L52.05,187.45L54.22,183.23L56.39,192.32L58.55,192.09L62.89,201.75L65.06,197.69L67.23,204.98L69.4,218.11L71.57,212.63L73.73,222.84L75.9,230.09L78.07,229.27L80.24,229.57L82.41,234.57L84.58,240.2L86.75,240.36L88.92,243.94L91.08,242.16L95.42,232.51L97.59,231.28L99.76,236.07L101.93,238.79L104.1,238.39L106.27,243.13L108.43,235.84L110.6,239.07L112.77,238.53L114.94,242.98L117.11,244.35L119.28,247.44L121.45,250.32L123.61,251.82L125.78,248.35L127.95,246.52L130.12,242L132.29,239.61L134.46,243.79L136.63,245.66L138.8,252.41L140.96,252.7L143.13,252.29L145.3,253.59L147.47,255.32L149.64,258.18L151.81,257.55L153.98,261.75L158.31,265.05L160.48,265.7L162.65,263.93L164.82,260L169.16,267.98L171.33,266.62L173.49,264.66L175.66,266.98L177.83,268.66L180,267.14L186.51,272.39L188.67,275.88L190.84,276.38L193.01,277.82L195.18,278.75L197.35,281.65L201.69,283.77L203.86,285.54L206.02,288.75L208.19,287.75L210.36,290L212.53,290.33L216.87,288.05L219.04,288.26L221.2,288.5L223.37,289.98L225.54,290.29L227.71,291.52L232.05,290.37L234.22,289.66L240.72,292.73L242.89,295.32L249.4,297.37L251.57,296.44L258.07,297.62L260.24,296.59L262.41,296.18L264.58,296.54L266.75,295.9L268.92,293.77L273.25,293.6L275.42,295.8L279.76,296.77L281.93,295.94L284.1,295.46L286.27,296.25L288.43,298.27L290.6,298.64L297.11,299.86L299.28,299.37L303.61,300.68L305.78,299.83L307.95,301.85L310.12,301.7L312.29,302.38L314.46,301.74L318.8,300.93L320.96,300.26L323.13,300.47L325.3,302.05L327.47,300.68L329.64,301.69L331.81,302.8L333.98,301.4L338.31,300.43L340.48,301.3L342.65,300.17L344.82,300.15L351.33,300.56L353.49,300.72L360,299.92L362.17,300.14L364.34,300.42L366.51,302.11L373.01,303.84L375.18,305L381.69,304.33L383.86,305.19L386.02,304.19L388.19,304.98L396.87,305.28L399.04,306.38L403.37,305.61L405.54,306.09L407.71,306.12L409.88,305.34L420.72,308.2L422.89,307.44L427.23,308.62L429.4,308.19L431.57,307.98L433.73,308.61L435.9,308.6L438.07,309.58L442.41,309.59L444.58,310.13L446.75,309.1L448.92,309.3L451.08,309.04L453.25,309.84L457.59,309.9L459.76,310.56L468.43,311.3L470.6,311.15L474.94,310.67L477.11,309.88L485.78,309.58L487.95,310.29L496.63,310.02L498.8,309.46L511.81,309.28L513.98,309.09L524.82,308.53L526.99,307.73L537.83,308.22L540,309.18" style="vector-effect: non-scaling-stroke; fill: none; stroke: rgb(239, 85, 59); stroke-opacity: 1; stroke-width: 2px; opacity: 1;"/></g><g class="points"/><g class="text"/></g><g class="trace scatter trace14e5e9" style="stroke-miterlimit: 2; opacity: 1;"><g class="fills"/><g class="errorbars"/><g class="lines"><path class="js-line" d="M0,38.96L2.17,51.77L4.34,102.51L8.67,129.25L10.84,128.47L13.01,130.17L15.18,139.54L19.52,115.23L21.69,133.47L23.86,141.14L26.02,140.15L28.19,143.76L30.36,142.12L32.53,137.52L34.7,147.59L36.87,172.2L39.04,165.06L41.2,163.36L43.37,174.78L45.54,178.77L47.71,181.14L52.05,187.45L54.22,183.23L56.39,192.32L58.55,192.09L62.89,201.75L65.06,197.69L67.23,204.98L69.4,218.11L71.57,212.63L73.73,222.84L75.9,230.09L78.07,229.27L80.24,229.57L82.41,234.57L84.58,240.2L86.75,240.36L88.92,243.94L91.08,242.16L95.42,232.51L97.59,231.28L99.76,236.07L101.93,238.79L104.1,238.39L106.27,243.13L108.43,235.84L110.6,239.07L112.77,238.53L114.94,242.98L117.11,244.35L119.28,247.44L121.45,250.32L123.61,251.82L125.78,248.35L127.95,246.52L130.12,242L132.29,239.61L134.46,243.79L136.63,245.66L138.8,252.41L140.96,252.7L143.13,252.29L145.3,253.59L147.47,255.32L149.64,258.18L151.81,257.55L153.98,261.75L158.31,265.05L160.48,265.7L162.65,263.93L164.82,260L169.16,267.98L171.33,266.62L173.49,264.66L175.66,266.98L177.83,268.66L180,267.14L186.51,272.39L188.67,275.88L190.84,276.38L193.01,277.82L195.18,278.75L197.35,281.65L201.69,283.77L203.86,285.54L206.02,288.75L208.19,287.75L210.36,290L212.53,290.33L216.87,288.05L219.04,288.26L221.2,288.5L223.37,289.98L225.54,290.29L227.71,291.52L232.05,290.37L234.22,289.66L240.72,292.73L242.89,295.32L249.4,297.37L251.57,296.44L258.07,297.62L260.24,296.59L262.41,296.18L264.58,296.54L266.75,295.9L268.92,293.77L273.25,293.6L275.42,295.8L279.76,296.77L281.93,295.94L284.1,295.46L286.27,296.25L288.43,298.27L290.6,298.64L297.11,299.86L299.28,299.37L303.61,300.68L305.78,299.83L307.95,301.85L310.12,301.7L312.29,302.38L314.46,301.74L318.8,300.93L320.96,300.26L323.13,300.47L325.3,302.05L327.47,300.68L329.64,301.69L331.81,302.8L333.98,301.4L338.31,300.43L340.48,301.3L342.65,300.17L344.82,300.15L351.33,300.56L353.49,300.72L360,299.92L362.17,300.14L364.34,300.42L366.51,302.11L373.01,303.84L375.18,305L381.69,304.33L383.86,305.19L386.02,304.19L388.19,304.98L396.87,305.28L399.04,306.38L403.37,305.61L405.54,306.09L407.71,306.12L409.88,305.34L420.72,308.2L422.89,307.44L427.23,308.62L429.4,308.19L431.57,307.98L433.73,308.61L435.9,308.6L438.07,309.58L442.41,309.59L444.58,310.13L446.75,309.1L448.92,309.3L451.08,309.04L453.25,309.84L457.59,309.9L459.76,310.56L468.43,311.3L470.6,311.15L474.94,310.67L477.11,309.88L485.78,309.58L487.95,310.29L496.63,310.02L498.8,309.46L511.81,309.28L513.98,309.09L524.82,308.53L526.99,307.73L537.83,308.22L540,309.18" style="vector-effect: non-scaling-stroke; fill: none; stroke: rgb(0, 204, 150); stroke-opacity: 1; stroke-width: 2px; opacity: 1;"/></g><g class="points"/><g class="text"/></g><g class="trace scatter trace4d58ca" style="stroke-miterlimit: 2; opacity: 1;"><g class="fills"/><g class="errorbars"/><g class="lines"><path class="js-line" d="M0,38.96L2.17,51.77L4.34,102.51L8.67,129.25L10.84,128.47L13.01,130.17L15.18,139.54L19.52,115.23L21.69,133.47L23.86,141.14L26.02,140.15L28.19,143.76L30.36,142.12L32.53,137.52L34.7,147.59L36.87,172.2L39.04,165.06L41.2,163.36L43.37,174.78L45.54,178.77L47.71,181.14L52.05,187.45L54.22,183.23L56.39,192.32L58.55,192.09L62.89,201.75L65.06,197.69L67.23,204.98L69.4,218.11L71.57,212.63L73.73,222.84L75.9,230.09L78.07,229.27L80.24,229.57L82.41,234.57L84.58,240.2L86.75,240.36L88.92,243.94L91.08,242.16L95.42,232.51L97.59,231.28L99.76,236.07L101.93,238.79L104.1,238.39L106.27,243.13L108.43,235.84L110.6,239.07L112.77,238.53L114.94,242.98L117.11,244.35L119.28,247.44L121.45,250.32L123.61,251.82L125.78,248.35L127.95,246.52L130.12,242L132.29,239.61L134.46,243.79L136.63,245.66L138.8,252.41L140.96,252.7L143.13,252.29L145.3,253.59L147.47,255.32L149.64,258.18L151.81,257.55L153.98,261.75L158.31,265.05L160.48,265.7L162.65,263.93L164.82,260L169.16,267.98L171.33,266.62L173.49,264.66L175.66,266.98L177.83,268.66L180,267.14L186.51,272.39L188.67,275.88L190.84,276.38L193.01,277.82L195.18,278.75L197.35,281.65L201.69,283.77L203.86,285.54L206.02,288.75L208.19,287.75L210.36,290L212.53,290.33L216.87,288.05L219.04,288.26L221.2,288.5L223.37,289.98L225.54,290.29L227.71,291.52L232.05,290.37L234.22,289.66L240.72,292.73L242.89,295.32L249.4,297.37L251.57,296.44L258.07,297.62L260.24,296.59L262.41,296.18L264.58,296.54L266.75,295.9L268.92,293.77L273.25,293.6L275.42,295.8L279.76,296.77L281.93,295.94L284.1,295.46L286.27,296.25L288.43,298.27L290.6,298.64L297.11,299.86L299.28,299.37L303.61,300.68L305.78,299.83L307.95,301.85L310.12,301.7L312.29,302.38L314.46,301.74L318.8,300.93L320.96,300.26L323.13,300.47L325.3,302.05L327.47,300.68L329.64,301.69L331.81,302.8L333.98,301.4L338.31,300.43L340.48,301.3L342.65,300.17L344.82,300.15L351.33,300.56L353.49,300.72L360,299.92L362.17,300.14L364.34,300.42L366.51,302.11L373.01,303.84L375.18,305L381.69,304.33L383.86,305.19L386.02,304.19L388.19,304.98L396.87,305.28L399.04,306.38L403.37,305.61L405.54,306.09L407.71,306.12L409.88,305.34L420.72,308.2L422.89,307.44L427.23,308.62L429.4,308.19L431.57,307.98L433.73,308.61L435.9,308.6L438.07,309.58L442.41,309.59L444.58,310.13L446.75,309.1L448.92,309.3L451.08,309.04L453.25,309.84L457.59,309.9L459.76,310.56L468.43,311.3L470.6,311.15L474.94,310.67L477.11,309.88L485.78,309.58L487.95,310.29L496.63,310.02L498.8,309.46L511.81,309.28L513.98,309.09L524.82,308.53L526.99,307.73L537.83,308.22L540,309.18" style="vector-effect: non-scaling-stroke; fill: none; stroke: rgb(171, 99, 250); stroke-opacity: 1; stroke-width: 2px; opacity: 1;"/></g><g class="points"/><g class="text"/></g><g class="trace scatter trace639e67" style="stroke-miterlimit: 2; opacity: 1;"><g class="fills"/><g class="errorbars"/><g class="lines"><path class="js-line" d="M0,38.96L2.17,51.77L4.34,102.51L8.67,129.25L10.84,128.47L13.01,130.17L15.18,139.54L19.52,115.23L21.69,133.47L23.86,141.14L26.02,140.15L28.19,143.76L30.36,142.12L32.53,137.52L34.7,147.59L36.87,172.2L39.04,165.06L41.2,163.36L43.37,174.78L45.54,178.77L47.71,181.14L52.05,187.45L54.22,183.23L56.39,192.32L58.55,192.09L62.89,201.75L65.06,197.69L67.23,204.98L69.4,218.11L71.57,212.63L73.73,222.84L75.9,230.09L78.07,229.27L80.24,229.57L82.41,234.57L84.58,240.2L86.75,240.36L88.92,243.94L91.08,242.16L95.42,232.51L97.59,231.28L99.76,236.07L101.93,238.79L104.1,238.39L106.27,243.13L108.43,235.84L110.6,239.07L112.77,238.53L114.94,242.98L117.11,244.35L119.28,247.44L121.45,250.32L123.61,251.82L125.78,248.35L127.95,246.52L130.12,242L132.29,239.61L134.46,243.79L136.63,245.66L138.8,252.41L140.96,252.7L143.13,252.29L145.3,253.59L147.47,255.32L149.64,258.18L151.81,257.55L153.98,261.75L158.31,265.05L160.48,265.7L162.65,263.93L164.82,260L169.16,267.98L171.33,266.62L173.49,264.66L175.66,266.98L177.83,268.66L180,267.14L186.51,272.39L188.67,275.88L190.84,276.38L193.01,277.82L195.18,278.75L197.35,281.65L201.69,283.77L203.86,285.54L206.02,288.75L208.19,287.75L210.36,290L212.53,290.33L216.87,288.05L219.04,288.26L221.2,288.5L223.37,289.98L225.54,290.29L227.71,291.52L232.05,290.37L234.22,289.66L240.72,292.73L242.89,295.32L249.4,297.37L251.57,296.44L258.07,297.62L260.24,296.59L262.41,296.18L264.58,296.54L266.75,295.9L268.92,293.77L273.25,293.6L275.42,295.8L279.76,296.77L281.93,295.94L284.1,295.46L286.27,296.25L288.43,298.27L290.6,298.64L297.11,299.86L299.28,299.37L303.61,300.68L305.78,299.83L307.95,301.85L310.12,301.7L312.29,302.38L314.46,301.74L318.8,300.93L320.96,300.26L323.13,300.47L325.3,302.05L327.47,300.68L329.64,301.69L331.81,302.8L333.98,301.4L338.31,300.43L340.48,301.3L342.65,300.17L344.82,300.15L351.33,300.56L353.49,300.72L360,299.92L362.17,300.14L364.34,300.42L366.51,302.11L373.01,303.84L375.18,305L381.69,304.33L383.86,305.19L386.02,304.19L388.19,304.98L396.87,305.28L399.04,306.38L403.37,305.61L405.54,306.09L407.71,306.12L409.88,305.34L420.72,308.2L422.89,307.44L427.23,308.62L429.4,308.19L431.57,307.98L433.73,308.61L435.9,308.6L438.07,309.58L442.41,309.59L444.58,310.13L446.75,309.1L448.92,309.3L451.08,309.04L453.25,309.84L457.59,309.9L459.76,310.56L468.43,311.3L470.6,311.15L474.94,310.67L477.11,309.88L485.78,309.58L487.95,310.29L496.63,310.02L498.8,309.46L511.81,309.28L513.98,309.09L524.82,308.53L526.99,307.73L537.83,308.22L540,309.18" style="vector-effect: non-scaling-stroke; fill: none; stroke: rgb(255, 161, 90); stroke-opacity: 1; stroke-width: 2px; opacity: 1;"/></g><g class="points"/><g class="text"/></g><g class="trace scatter trace2df1da" style="stroke-miterlimit: 2; opacity: 1;"><g class="fills"/><g class="errorbars"/><g class="lines"><path class="js-line" d="M0,64.49L2.17,91.17L4.34,104.81L8.67,126.8L10.84,98.63L13.01,60L15.18,89.47L17.35,91.91L19.52,101.02L21.69,92.11L23.86,78.71L26.02,84.26L28.19,96.47L34.7,137.76L36.87,145.23L39.04,133.13L41.2,143.98L43.37,146.01L45.54,152.14L47.71,146.02L49.88,149.26L52.05,150.73L54.22,135.58L56.39,144.01L58.55,146.56L60.72,150.83L62.89,165.01L65.06,164.14L67.23,157.25L71.57,148.55L73.73,153.38L78.07,173.47L80.24,178.57L82.41,185.59L84.58,185.58L86.75,188.41L88.92,187.2L91.08,181.49L93.25,179.33L95.42,179.81L97.59,176.19L99.76,175.16L101.93,165.97L104.1,167.86L106.27,177.64L108.43,178.74L110.6,168.61L112.77,164.51L114.94,171.7L117.11,180.38L119.28,175.95L121.45,176.96L123.61,176.9L125.78,181.72L127.95,181.91L130.12,170.28L132.29,168.63L134.46,176.13L136.63,177.99L138.8,182.51L140.96,179.72L143.13,180L145.3,179.08L149.64,185.22L151.81,189.65L153.98,188.84L156.14,197.23L158.31,199.58L160.48,204.17L162.65,203.72L164.82,208.38L166.99,208.95L169.16,214.24L171.33,215.82L173.49,218.65L175.66,217.92L177.83,221.37L180,224.7L182.17,224.89L184.34,225.95L186.51,229.16L188.67,235.16L190.84,238.61L193.01,243.08L195.18,243.25L197.35,245.96L199.52,245.97L203.86,246.54L206.02,253.29L208.19,254.14L210.36,257.52L212.53,255.59L214.7,255.34L216.87,257.13L219.04,253.22L221.2,253.07L223.37,257.12L225.54,258.13L227.71,258.27L229.88,257.69L232.05,260.46L234.22,261.97L236.39,260.11L238.55,259.34L240.72,261.12L242.89,260.24L245.06,262.38L247.23,259.06L249.4,258.86L253.73,254.08L255.9,252.77L258.07,254.32L260.24,254.05L262.41,255.16L264.58,257.38L268.92,259.21L271.08,262.32L273.25,263.71L275.42,262.98L277.59,262.66L279.76,264.05L281.93,265.14L284.1,264.15L286.27,265.74L288.43,266.01L292.77,266.21L294.94,265.81L297.11,269.56L299.28,269.94L301.45,270.9L303.61,270.47L305.78,271.31L307.95,269.87L310.12,267.06L312.29,269.13L316.63,272.04L318.8,269.96L320.96,268.94L323.13,269.76L327.47,269.42L329.64,270.89L331.81,271.07L333.98,272.33L336.14,272.03L338.31,270.54L342.65,274.04L344.82,274.07L346.99,276L349.16,276.24L351.33,276.94L353.49,276.27L355.66,275.73L357.83,276.59L362.17,277.97L364.34,281L366.51,280.79L368.67,281.85L375.18,281.73L377.35,281.19L379.52,281.33L381.69,282.24L386.02,284.31L388.19,284.86L394.7,285.85L396.87,285.99L403.37,285.22L405.54,284.21L409.88,281.5L412.05,281.74L416.39,280.08L418.55,279.96L420.72,279.28L422.89,279.59L425.06,281.16L427.23,281.39L429.4,279.84L431.57,282.53L433.73,283.33L435.9,282.91L440.24,285.31L442.41,285.45L444.58,286.03L446.75,285.48L448.92,285.2L451.08,283.85L453.25,284.36L455.42,283.67L459.76,283.86L461.93,283.01L464.1,282.41L466.27,283.04L468.43,282.39L470.6,282.83L474.94,284.88L477.11,285.14L483.61,285.04L485.78,285.92L494.46,285.67L496.63,285.73L500.96,287.9L503.13,288.67L505.3,287.01L507.47,287.89L511.81,286.85L513.98,285.46L520.48,283.11L522.65,283.78L524.82,285.58L526.99,284.5L529.16,284.99L531.33,286.43L533.49,285.4L535.66,286.98L540,287.84" style="vector-effect: non-scaling-stroke; fill: none; stroke: rgb(25, 211, 243); stroke-opacity: 1; stroke-width: 2px; opacity: 1;"/></g><g class="points"/><g class="text"/></g><g class="trace scatter trace5e9d20" style="stroke-miterlimit: 2; opacity: 1;"><g class="fills"/><g class="errorbars"/><g class="lines"><path class="js-line" d="M0,38.96L2.17,51.77L4.34,102.51L8.67,129.25L10.84,128.47L13.01,130.17L15.18,139.54L19.52,115.23L21.69,133.47L23.86,141.14L26.02,140.15L28.19,143.76L30.36,142.12L32.53,137.52L34.7,147.59L36.87,172.2L39.04,165.06L41.2,163.36L43.37,174.78L45.54,178.77L47.71,181.14L52.05,187.45L54.22,183.23L56.39,192.32L58.55,192.09L62.89,201.75L65.06,197.69L67.23,204.98L69.4,218.11L71.57,212.63L73.73,222.84L75.9,230.09L78.07,229.27L80.24,229.57L82.41,234.57L84.58,240.2L86.75,240.36L88.92,243.94L91.08,242.16L95.42,232.51L97.59,231.28L99.76,236.07L101.93,238.79L104.1,238.39L106.27,243.13L108.43,235.84L110.6,239.07L112.77,238.53L114.94,242.98L117.11,244.35L119.28,247.44L121.45,250.32L123.61,251.82L125.78,248.35L127.95,246.52L130.12,242L132.29,239.61L134.46,243.79L136.63,245.66L138.8,252.41L140.96,252.7L143.13,252.29L145.3,253.59L147.47,255.32L149.64,258.18L151.81,257.55L153.98,261.75L158.31,265.05L160.48,265.7L162.65,263.93L164.82,260L169.16,267.98L171.33,266.62L173.49,264.66L175.66,266.98L177.83,268.66L180,267.14L186.51,272.39L188.67,275.88L190.84,276.38L193.01,277.82L195.18,278.75L197.35,281.65L201.69,283.77L203.86,285.54L206.02,288.75L208.19,287.75L210.36,290L212.53,290.33L216.87,288.05L219.04,288.26L221.2,288.5L223.37,289.98L225.54,290.29L227.71,291.52L232.05,290.37L234.22,289.66L240.72,292.73L242.89,295.32L249.4,297.37L251.57,296.44L258.07,297.62L260.24,296.59L262.41,296.18L264.58,296.54L266.75,295.9L268.92,293.77L273.25,293.6L275.42,295.8L279.76,296.77L281.93,295.94L284.1,295.46L286.27,296.25L288.43,298.27L290.6,298.64L297.11,299.86L299.28,299.37L303.61,300.68L305.78,299.83L307.95,301.85L310.12,301.7L312.29,302.38L314.46,301.74L318.8,300.93L320.96,300.26L323.13,300.47L325.3,302.05L327.47,300.68L329.64,301.69L331.81,302.8L333.98,301.4L338.31,300.43L340.48,301.3L342.65,300.17L344.82,300.15L351.33,300.56L353.49,300.72L360,299.92L362.17,300.14L364.34,300.42L366.51,302.11L373.01,303.84L375.18,305L381.69,304.33L383.86,305.19L386.02,304.19L388.19,304.98L396.87,305.28L399.04,306.38L403.37,305.61L405.54,306.09L407.71,306.12L409.88,305.34L420.72,308.2L422.89,307.44L427.23,308.62L429.4,308.19L431.57,307.98L433.73,308.61L435.9,308.6L438.07,309.58L442.41,309.59L444.58,310.13L446.75,309.1L448.92,309.3L451.08,309.04L453.25,309.84L457.59,309.9L459.76,310.56L468.43,311.3L470.6,311.15L474.94,310.67L477.11,309.88L485.78,309.58L487.95,310.29L496.63,310.02L498.8,309.46L511.81,309.28L513.98,309.09L524.82,308.53L526.99,307.73L537.83,308.22L540,309.18" style="vector-effect: non-scaling-stroke; fill: none; stroke: rgb(255, 102, 146); stroke-opacity: 1; stroke-width: 2px; opacity: 1;"/></g><g class="points"/><g class="text"/></g><g class="trace scatter tracea7e855" style="stroke-miterlimit: 2; opacity: 1;"><g class="fills"/><g class="errorbars"/><g class="lines"><path class="js-line" d="M0,38.96L2.17,51.77L4.34,102.51L8.67,129.25L10.84,128.47L13.01,130.17L15.18,139.54L19.52,115.23L21.69,133.47L23.86,141.14L26.02,140.15L28.19,143.76L30.36,142.12L32.53,137.52L34.7,147.59L36.87,172.2L39.04,165.06L41.2,163.36L43.37,174.78L45.54,178.77L47.71,181.14L52.05,187.45L54.22,183.23L56.39,192.32L58.55,192.09L62.89,201.75L65.06,197.69L67.23,204.98L69.4,218.11L71.57,212.63L73.73,222.84L75.9,230.09L78.07,229.27L80.24,229.57L82.41,234.57L84.58,240.2L86.75,240.36L88.92,243.94L91.08,242.16L95.42,232.51L97.59,231.28L99.76,236.07L101.93,238.79L104.1,238.39L106.27,243.13L108.43,235.84L110.6,239.07L112.77,238.53L114.94,242.98L117.11,244.35L119.28,247.44L121.45,250.32L123.61,251.82L125.78,248.35L127.95,246.52L130.12,242L132.29,239.61L134.46,243.79L136.63,245.66L138.8,252.41L140.96,252.7L143.13,252.29L145.3,253.59L147.47,255.32L149.64,258.18L151.81,257.55L153.98,261.75L158.31,265.05L160.48,265.7L162.65,263.93L164.82,260L169.16,267.98L171.33,266.62L173.49,264.66L175.66,266.98L177.83,268.66L180,267.14L186.51,272.39L188.67,275.88L190.84,276.38L193.01,277.82L195.18,278.75L197.35,281.65L201.69,283.77L203.86,285.54L206.02,288.75L208.19,287.75L210.36,290L212.53,290.33L216.87,288.05L219.04,288.26L221.2,288.5L223.37,289.98L225.54,290.29L227.71,291.52L232.05,290.37L234.22,289.66L240.72,292.73L242.89,295.32L249.4,297.37L251.57,296.44L258.07,297.62L260.24,296.59L262.41,296.18L264.58,296.54L266.75,295.9L268.92,293.77L273.25,293.6L275.42,295.8L279.76,296.77L281.93,295.94L284.1,295.46L286.27,296.25L288.43,298.27L290.6,298.64L297.11,299.86L299.28,299.37L303.61,300.68L305.78,299.83L307.95,301.85L310.12,301.7L312.29,302.38L314.46,301.74L318.8,300.93L320.96,300.26L323.13,300.47L325.3,302.05L327.47,300.68L329.64,301.69L331.81,302.8L333.98,301.4L338.31,300.43L340.48,301.3L342.65,300.17L344.82,300.15L351.33,300.56L353.49,300.72L360,299.92L362.17,300.14L364.34,300.42L366.51,302.11L373.01,303.84L375.18,305L381.69,304.33L383.86,305.19L386.02,304.19L388.19,304.98L396.87,305.28L399.04,306.38L403.37,305.61L405.54,306.09L407.71,306.12L409.88,305.34L420.72,308.2L422.89,307.44L427.23,308.62L429.4,308.19L431.57,307.98L433.73,308.61L435.9,308.6L438.07,309.58L442.41,309.59L444.58,310.13L446.75,309.1L448.92,309.3L451.08,309.04L453.25,309.84L457.59,309.9L459.76,310.56L468.43,311.3L470.6,311.15L474.94,310.67L477.11,309.88L485.78,309.58L487.95,310.29L496.63,310.02L498.8,309.46L511.81,309.28L513.98,309.09L524.82,308.53L526.99,307.73L537.83,308.22L540,309.18" style="vector-effect: non-scaling-stroke; fill: none; stroke: rgb(182, 232, 128); stroke-opacity: 1; stroke-width: 2px; opacity: 1;"/></g><g class="points"/><g class="text"/></g><g class="trace scatter trace300754" style="stroke-miterlimit: 2; opacity: 1;"><g class="fills"/><g class="errorbars"/><g class="lines"><path class="js-line" d="M0,38.96L2.17,51.77L4.34,102.51L8.67,129.25L10.84,128.47L13.01,130.17L15.18,139.54L19.52,115.23L21.69,133.47L23.86,141.14L26.02,140.15L28.19,143.76L30.36,142.12L32.53,137.52L34.7,147.59L36.87,172.2L39.04,165.06L41.2,163.36L43.37,174.78L45.54,178.77L47.71,181.14L52.05,187.45L54.22,183.23L56.39,192.32L58.55,192.09L62.89,201.75L65.06,197.69L67.23,204.98L69.4,218.11L71.57,212.63L73.73,222.84L75.9,230.09L78.07,229.27L80.24,229.57L82.41,234.57L84.58,240.2L86.75,240.36L88.92,243.94L91.08,242.16L95.42,232.51L97.59,231.28L99.76,236.07L101.93,238.79L104.1,238.39L106.27,243.13L108.43,235.84L110.6,239.07L112.77,238.53L114.94,242.98L117.11,244.35L119.28,247.44L121.45,250.32L123.61,251.82L125.78,248.35L127.95,246.52L130.12,242L132.29,239.61L134.46,243.79L136.63,245.66L138.8,252.41L140.96,252.7L143.13,252.29L145.3,253.59L147.47,255.32L149.64,258.18L151.81,257.55L153.98,261.75L158.31,265.05L160.48,265.7L162.65,263.93L164.82,260L169.16,267.98L171.33,266.62L173.49,264.66L175.66,266.98L177.83,268.66L180,267.14L186.51,272.39L188.67,275.88L190.84,276.38L193.01,277.82L195.18,278.75L197.35,281.65L201.69,283.77L203.86,285.54L206.02,288.75L208.19,287.75L210.36,290L212.53,290.33L216.87,288.05L219.04,288.26L221.2,288.5L223.37,289.98L225.54,290.29L227.71,291.52L232.05,290.37L234.22,289.66L240.72,292.73L242.89,295.32L249.4,297.37L251.57,296.44L258.07,297.62L260.24,296.59L262.41,296.18L264.58,296.54L266.75,295.9L268.92,293.77L273.25,293.6L275.42,295.8L279.76,296.77L281.93,295.94L284.1,295.46L286.27,296.25L288.43,298.27L290.6,298.64L297.11,299.86L299.28,299.37L303.61,300.68L305.78,299.83L307.95,301.85L310.12,301.7L312.29,302.38L314.46,301.74L318.8,300.93L320.96,300.26L323.13,300.47L325.3,302.05L327.47,300.68L329.64,301.69L331.81,302.8L333.98,301.4L338.31,300.43L340.48,301.3L342.65,300.17L344.82,300.15L351.33,300.56L353.49,300.72L360,299.92L362.17,300.14L364.34,300.42L366.51,302.11L373.01,303.84L375.18,305L381.69,304.33L383.86,305.19L386.02,304.19L388.19,304.98L396.87,305.28L399.04,306.38L403.37,305.61L405.54,306.09L407.71,306.12L409.88,305.34L420.72,308.2L422.89,307.44L427.23,308.62L429.4,308.19L431.57,307.98L433.73,308.61L435.9,308.6L438.07,309.58L442.41,309.59L444.58,310.13L446.75,309.1L448.92,309.3L451.08,309.04L453.25,309.84L457.59,309.9L459.76,310.56L468.43,311.3L470.6,311.15L474.94,310.67L477.11,309.88L485.78,309.58L487.95,310.29L496.63,310.02L498.8,309.46L511.81,309.28L513.98,309.09L524.82,308.53L526.99,307.73L537.83,308.22L540,309.18" style="vector-effect: non-scaling-stroke; fill: none; stroke: rgb(255, 151, 255); stroke-opacity: 1; stroke-width: 2px; opacity: 1;"/></g><g class="points"/><g class="text"/></g><g class="trace scatter trace734732" style="stroke-miterlimit: 2; opacity: 1;"><g class="fills"/><g class="errorbars"/><g class="lines"><path class="js-line" d="M0,38.96L2.17,51.77L4.34,102.51L8.67,129.25L10.84,128.47L13.01,130.17L15.18,139.54L19.52,115.23L21.69,133.47L23.86,141.14L26.02,140.15L28.19,143.76L30.36,142.12L32.53,137.52L34.7,147.59L36.87,172.2L39.04,165.06L41.2,163.36L43.37,174.78L45.54,178.77L47.71,181.14L52.05,187.45L54.22,183.23L56.39,192.32L58.55,192.09L62.89,201.75L65.06,197.69L67.23,204.98L69.4,218.11L71.57,212.63L73.73,222.84L75.9,230.09L78.07,229.27L80.24,229.57L82.41,234.57L84.58,240.2L86.75,240.36L88.92,243.94L91.08,242.16L95.42,232.51L97.59,231.28L99.76,236.07L101.93,238.79L104.1,238.39L106.27,243.13L108.43,235.84L110.6,239.07L112.77,238.53L114.94,242.98L117.11,244.35L119.28,247.44L121.45,250.32L123.61,251.82L125.78,248.35L127.95,246.52L130.12,242L132.29,239.61L134.46,243.79L136.63,245.66L138.8,252.41L140.96,252.7L143.13,252.29L145.3,253.59L147.47,255.32L149.64,258.18L151.81,257.55L153.98,261.75L158.31,265.05L160.48,265.7L162.65,263.93L164.82,260L169.16,267.98L171.33,266.62L173.49,264.66L175.66,266.98L177.83,268.66L180,267.14L186.51,272.39L188.67,275.88L190.84,276.38L193.01,277.82L195.18,278.75L197.35,281.65L201.69,283.77L203.86,285.54L206.02,288.75L208.19,287.75L210.36,290L212.53,290.33L216.87,288.05L219.04,288.26L221.2,288.5L223.37,289.98L225.54,290.29L227.71,291.52L232.05,290.37L234.22,289.66L240.72,292.73L242.89,295.32L249.4,297.37L251.57,296.44L258.07,297.62L260.24,296.59L262.41,296.18L264.58,296.54L266.75,295.9L268.92,293.77L273.25,293.6L275.42,295.8L279.76,296.77L281.93,295.94L284.1,295.46L286.27,296.25L288.43,298.27L290.6,298.64L297.11,299.86L299.28,299.37L303.61,300.68L305.78,299.83L307.95,301.85L310.12,301.7L312.29,302.38L314.46,301.74L318.8,300.93L320.96,300.26L323.13,300.47L325.3,302.05L327.47,300.68L329.64,301.69L331.81,302.8L333.98,301.4L338.31,300.43L340.48,301.3L342.65,300.17L344.82,300.15L351.33,300.56L353.49,300.72L360,299.92L362.17,300.14L364.34,300.42L366.51,302.11L373.01,303.84L375.18,305L381.69,304.33L383.86,305.19L386.02,304.19L388.19,304.98L396.87,305.28L399.04,306.38L403.37,305.61L405.54,306.09L407.71,306.12L409.88,305.34L420.72,308.2L422.89,307.44L427.23,308.62L429.4,308.19L431.57,307.98L433.73,308.61L435.9,308.6L438.07,309.58L442.41,309.59L444.58,310.13L446.75,309.1L448.92,309.3L451.08,309.04L453.25,309.84L457.59,309.9L459.76,310.56L468.43,311.3L470.6,311.15L474.94,310.67L477.11,309.88L485.78,309.58L487.95,310.29L496.63,310.02L498.8,309.46L511.81,309.28L513.98,309.09L524.82,308.53L526.99,307.73L537.83,308.22L540,309.18" style="vector-effect: non-scaling-stroke; fill: none; stroke: rgb(254, 203, 82); stroke-opacity: 1; stroke-width: 2px; opacity: 1;"/></g><g class="points"/><g class="text"/></g><g class="trace scatter trace6f69ab" style="stroke-miterlimit: 2; opacity: 1;"><g class="fills"/><g class="errorbars"/><g class="lines"><path class="js-line" d="M0,38.96L2.17,51.77L4.34,102.51L8.67,129.25L10.84,128.47L13.01,130.17L15.18,139.54L19.52,115.23L21.69,133.47L23.86,141.14L26.02,140.15L28.19,143.76L30.36,142.12L32.53,137.52L34.7,147.59L36.87,172.2L39.04,165.06L41.2,163.36L43.37,174.78L45.54,178.77L47.71,181.14L52.05,187.45L54.22,183.23L56.39,192.32L58.55,192.09L62.89,201.75L65.06,197.69L67.23,204.98L69.4,218.11L71.57,212.63L73.73,222.84L75.9,230.09L78.07,229.27L80.24,229.57L82.41,234.57L84.58,240.2L86.75,240.36L88.92,243.94L91.08,242.16L95.42,232.51L97.59,231.28L99.76,236.07L101.93,238.79L104.1,238.39L106.27,243.13L108.43,235.84L110.6,239.07L112.77,238.53L114.94,242.98L117.11,244.35L119.28,247.44L121.45,250.32L123.61,251.82L125.78,248.35L127.95,246.52L130.12,242L132.29,239.61L134.46,243.79L136.63,245.66L138.8,252.41L140.96,252.7L143.13,252.29L145.3,253.59L147.47,255.32L149.64,258.18L151.81,257.55L153.98,261.75L158.31,265.05L160.48,265.7L162.65,263.93L164.82,260L169.16,267.98L171.33,266.62L173.49,264.66L175.66,266.98L177.83,268.66L180,267.14L186.51,272.39L188.67,275.88L190.84,276.38L193.01,277.82L195.18,278.75L197.35,281.65L201.69,283.77L203.86,285.54L206.02,288.75L208.19,287.75L210.36,290L212.53,290.33L216.87,288.05L219.04,288.26L221.2,288.5L223.37,289.98L225.54,290.29L227.71,291.52L232.05,290.37L234.22,289.66L240.72,292.73L242.89,295.32L249.4,297.37L251.57,296.44L258.07,297.62L260.24,296.59L262.41,296.18L264.58,296.54L266.75,295.9L268.92,293.77L273.25,293.6L275.42,295.8L279.76,296.77L281.93,295.94L284.1,295.46L286.27,296.25L288.43,298.27L290.6,298.64L297.11,299.86L299.28,299.37L303.61,300.68L305.78,299.83L307.95,301.85L310.12,301.7L312.29,302.38L314.46,301.74L318.8,300.93L320.96,300.26L323.13,300.47L325.3,302.05L327.47,300.68L329.64,301.69L331.81,302.8L333.98,301.4L338.31,300.43L340.48,301.3L342.65,300.17L344.82,300.15L351.33,300.56L353.49,300.72L360,299.92L362.17,300.14L364.34,300.42L366.51,302.11L373.01,303.84L375.18,305L381.69,304.33L383.86,305.19L386.02,304.19L388.19,304.98L396.87,305.28L399.04,306.38L403.37,305.61L405.54,306.09L407.71,306.12L409.88,305.34L420.72,308.2L422.89,307.44L427.23,308.62L429.4,308.19L431.57,307.98L433.73,308.61L435.9,308.6L438.07,309.58L442.41,309.59L444.58,310.13L446.75,309.1L448.92,309.3L451.08,309.04L453.25,309.84L457.59,309.9L459.76,310.56L468.43,311.3L470.6,311.15L474.94,310.67L477.11,309.88L485.78,309.58L487.95,310.29L496.63,310.02L498.8,309.46L511.81,309.28L513.98,309.09L524.82,308.53L526.99,307.73L537.83,308.22L540,309.18" style="vector-effect: non-scaling-stroke; fill: none; stroke: rgb(99, 110, 250); stroke-opacity: 1; stroke-width: 2px; opacity: 1;"/></g><g class="points"/><g class="text"/></g><g class="trace scatter traceed5daa" style="stroke-miterlimit: 2; opacity: 1;"><g class="fills"/><g class="errorbars"/><g class="lines"><path class="js-line" d="M0,38.96L2.17,51.77L4.34,102.51L8.67,129.25L10.84,128.47L13.01,130.17L15.18,139.54L19.52,115.23L21.69,133.47L23.86,141.14L26.02,140.15L28.19,143.76L30.36,142.12L32.53,137.52L34.7,147.59L36.87,172.2L39.04,165.06L41.2,163.36L43.37,174.78L45.54,178.77L47.71,181.14L52.05,187.45L54.22,183.23L56.39,192.32L58.55,192.09L62.89,201.75L65.06,197.69L67.23,204.98L69.4,218.11L71.57,212.63L73.73,222.84L75.9,230.09L78.07,229.27L80.24,229.57L82.41,234.57L84.58,240.2L86.75,240.36L88.92,243.94L91.08,242.16L95.42,232.51L97.59,231.28L99.76,236.07L101.93,238.79L104.1,238.39L106.27,243.13L108.43,235.84L110.6,239.07L112.77,238.53L114.94,242.98L117.11,244.35L119.28,247.44L121.45,250.32L123.61,251.82L125.78,248.35L127.95,246.52L130.12,242L132.29,239.61L134.46,243.79L136.63,245.66L138.8,252.41L140.96,252.7L143.13,252.29L145.3,253.59L147.47,255.32L149.64,258.18L151.81,257.55L153.98,261.75L158.31,265.05L160.48,265.7L162.65,263.93L164.82,260L169.16,267.98L171.33,266.62L173.49,264.66L175.66,266.98L177.83,268.66L180,267.14L186.51,272.39L188.67,275.88L190.84,276.38L193.01,277.82L195.18,278.75L197.35,281.65L201.69,283.77L203.86,285.54L206.02,288.75L208.19,287.75L210.36,290L212.53,290.33L216.87,288.05L219.04,288.26L221.2,288.5L223.37,289.98L225.54,290.29L227.71,291.52L232.05,290.37L234.22,289.66L240.72,292.73L242.89,295.32L249.4,297.37L251.57,296.44L258.07,297.62L260.24,296.59L262.41,296.18L264.58,296.54L266.75,295.9L268.92,293.77L273.25,293.6L275.42,295.8L279.76,296.77L281.93,295.94L284.1,295.46L286.27,296.25L288.43,298.27L290.6,298.64L297.11,299.86L299.28,299.37L303.61,300.68L305.78,299.83L307.95,301.85L310.12,301.7L312.29,302.38L314.46,301.74L318.8,300.93L320.96,300.26L323.13,300.47L325.3,302.05L327.47,300.68L329.64,301.69L331.81,302.8L333.98,301.4L338.31,300.43L340.48,301.3L342.65,300.17L344.82,300.15L351.33,300.56L353.49,300.72L360,299.92L362.17,300.14L364.34,300.42L366.51,302.11L373.01,303.84L375.18,305L381.69,304.33L383.86,305.19L386.02,304.19L388.19,304.98L396.87,305.28L399.04,306.38L403.37,305.61L405.54,306.09L407.71,306.12L409.88,305.34L420.72,308.2L422.89,307.44L427.23,308.62L429.4,308.19L431.57,307.98L433.73,308.61L435.9,308.6L438.07,309.58L442.41,309.59L444.58,310.13L446.75,309.1L448.92,309.3L451.08,309.04L453.25,309.84L457.59,309.9L459.76,310.56L468.43,311.3L470.6,311.15L474.94,310.67L477.11,309.88L485.78,309.58L487.95,310.29L496.63,310.02L498.8,309.46L511.81,309.28L513.98,309.09L524.82,308.53L526.99,307.73L537.83,308.22L540,309.18" style="vector-effect: non-scaling-stroke; fill: none; stroke: rgb(239, 85, 59); stroke-opacity: 1; stroke-width: 2px; opacity: 1;"/></g><g class="points"/><g class="text"/></g><g class="trace scatter tracea9a14f" style="stroke-miterlimit: 2; opacity: 1;"><g class="fills"/><g class="errorbars"/><g class="lines"><path class="js-line" d="M0,38.96L2.17,51.77L4.34,102.51L8.67,129.25L10.84,128.47L13.01,130.17L15.18,139.54L19.52,115.23L21.69,133.47L23.86,141.14L26.02,140.15L28.19,143.76L30.36,142.12L32.53,137.52L34.7,147.59L36.87,172.2L39.04,165.06L41.2,163.36L43.37,174.78L45.54,178.77L47.71,181.14L52.05,187.45L54.22,183.23L56.39,192.32L58.55,192.09L62.89,201.75L65.06,197.69L67.23,204.98L69.4,218.11L71.57,212.63L73.73,222.84L75.9,230.09L78.07,229.27L80.24,229.57L82.41,234.57L84.58,240.2L86.75,240.36L88.92,243.94L91.08,242.16L95.42,232.51L97.59,231.28L99.76,236.07L101.93,238.79L104.1,238.39L106.27,243.13L108.43,235.84L110.6,239.07L112.77,238.53L114.94,242.98L117.11,244.35L119.28,247.44L121.45,250.32L123.61,251.82L125.78,248.35L127.95,246.52L130.12,242L132.29,239.61L134.46,243.79L136.63,245.66L138.8,252.41L140.96,252.7L143.13,252.29L145.3,253.59L147.47,255.32L149.64,258.18L151.81,257.55L153.98,261.75L158.31,265.05L160.48,265.7L162.65,263.93L164.82,260L169.16,267.98L171.33,266.62L173.49,264.66L175.66,266.98L177.83,268.66L180,267.14L186.51,272.39L188.67,275.88L190.84,276.38L193.01,277.82L195.18,278.75L197.35,281.65L201.69,283.77L203.86,285.54L206.02,288.75L208.19,287.75L210.36,290L212.53,290.33L216.87,288.05L219.04,288.26L221.2,288.5L223.37,289.98L225.54,290.29L227.71,291.52L232.05,290.37L234.22,289.66L240.72,292.73L242.89,295.32L249.4,297.37L251.57,296.44L258.07,297.62L260.24,296.59L262.41,296.18L264.58,296.54L266.75,295.9L268.92,293.77L273.25,293.6L275.42,295.8L279.76,296.77L281.93,295.94L284.1,295.46L286.27,296.25L288.43,298.27L290.6,298.64L297.11,299.86L299.28,299.37L303.61,300.68L305.78,299.83L307.95,301.85L310.12,301.7L312.29,302.38L314.46,301.74L318.8,300.93L320.96,300.26L323.13,300.47L325.3,302.05L327.47,300.68L329.64,301.69L331.81,302.8L333.98,301.4L338.31,300.43L340.48,301.3L342.65,300.17L344.82,300.15L351.33,300.56L353.49,300.72L360,299.92L362.17,300.14L364.34,300.42L366.51,302.11L373.01,303.84L375.18,305L381.69,304.33L383.86,305.19L386.02,304.19L388.19,304.98L396.87,305.28L399.04,306.38L403.37,305.61L405.54,306.09L407.71,306.12L409.88,305.34L420.72,308.2L422.89,307.44L427.23,308.62L429.4,308.19L431.57,307.98L433.73,308.61L435.9,308.6L438.07,309.58L442.41,309.59L444.58,310.13L446.75,309.1L448.92,309.3L451.08,309.04L453.25,309.84L457.59,309.9L459.76,310.56L468.43,311.3L470.6,311.15L474.94,310.67L477.11,309.88L485.78,309.58L487.95,310.29L496.63,310.02L498.8,309.46L511.81,309.28L513.98,309.09L524.82,308.53L526.99,307.73L537.83,308.22L540,309.18" style="vector-effect: non-scaling-stroke; fill: none; stroke: rgb(0, 204, 150); stroke-opacity: 1; stroke-width: 2px; opacity: 1;"/></g><g class="points"/><g class="text"/></g><g class="trace scatter trace8c585b" style="stroke-miterlimit: 2; opacity: 1;"><g class="fills"/><g class="errorbars"/><g class="lines"><path class="js-line" d="M0,38.96L2.17,51.77L4.34,102.51L8.67,129.25L10.84,128.47L13.01,130.17L15.18,139.54L19.52,115.23L21.69,133.47L23.86,141.14L26.02,140.15L28.19,143.76L30.36,142.12L32.53,137.52L34.7,147.59L36.87,172.2L39.04,165.06L41.2,163.36L43.37,174.78L45.54,178.77L47.71,181.14L52.05,187.45L54.22,183.23L56.39,192.32L58.55,192.09L62.89,201.75L65.06,197.69L67.23,204.98L69.4,218.11L71.57,212.63L73.73,222.84L75.9,230.09L78.07,229.27L80.24,229.57L82.41,234.57L84.58,240.2L86.75,240.36L88.92,243.94L91.08,242.16L95.42,232.51L97.59,231.28L99.76,236.07L101.93,238.79L104.1,238.39L106.27,243.13L108.43,235.84L110.6,239.07L112.77,238.53L114.94,242.98L117.11,244.35L119.28,247.44L121.45,250.32L123.61,251.82L125.78,248.35L127.95,246.52L130.12,242L132.29,239.61L134.46,243.79L136.63,245.66L138.8,252.41L140.96,252.7L143.13,252.29L145.3,253.59L147.47,255.32L149.64,258.18L151.81,257.55L153.98,261.75L158.31,265.05L160.48,265.7L162.65,263.93L164.82,260L169.16,267.98L171.33,266.62L173.49,264.66L175.66,266.98L177.83,268.66L180,267.14L186.51,272.39L188.67,275.88L190.84,276.38L193.01,277.82L195.18,278.75L197.35,281.65L201.69,283.77L203.86,285.54L206.02,288.75L208.19,287.75L210.36,290L212.53,290.33L216.87,288.05L219.04,288.26L221.2,288.5L223.37,289.98L225.54,290.29L227.71,291.52L232.05,290.37L234.22,289.66L240.72,292.73L242.89,295.32L249.4,297.37L251.57,296.44L258.07,297.62L260.24,296.59L262.41,296.18L264.58,296.54L266.75,295.9L268.92,293.77L273.25,293.6L275.42,295.8L279.76,296.77L281.93,295.94L284.1,295.46L286.27,296.25L288.43,298.27L290.6,298.64L297.11,299.86L299.28,299.37L303.61,300.68L305.78,299.83L307.95,301.85L310.12,301.7L312.29,302.38L314.46,301.74L318.8,300.93L320.96,300.26L323.13,300.47L325.3,302.05L327.47,300.68L329.64,301.69L331.81,302.8L333.98,301.4L338.31,300.43L340.48,301.3L342.65,300.17L344.82,300.15L351.33,300.56L353.49,300.72L360,299.92L362.17,300.14L364.34,300.42L366.51,302.11L373.01,303.84L375.18,305L381.69,304.33L383.86,305.19L386.02,304.19L388.19,304.98L396.87,305.28L399.04,306.38L403.37,305.61L405.54,306.09L407.71,306.12L409.88,305.34L420.72,308.2L422.89,307.44L427.23,308.62L429.4,308.19L431.57,307.98L433.73,308.61L435.9,308.6L438.07,309.58L442.41,309.59L444.58,310.13L446.75,309.1L448.92,309.3L451.08,309.04L453.25,309.84L457.59,309.9L459.76,310.56L468.43,311.3L470.6,311.15L474.94,310.67L477.11,309.88L485.78,309.58L487.95,310.29L496.63,310.02L498.8,309.46L511.81,309.28L513.98,309.09L524.82,308.53L526.99,307.73L537.83,308.22L540,309.18" style="vector-effect: non-scaling-stroke; fill: none; stroke: rgb(171, 99, 250); stroke-opacity: 1; stroke-width: 2px; opacity: 1;"/></g><g class="points"/><g class="text"/></g><g class="trace scatter traceb83e53" style="stroke-miterlimit: 2; opacity: 1;"><g class="fills"/><g class="errorbars"/><g class="lines"><path class="js-line" d="M0,38.96L2.17,51.77L4.34,102.51L8.67,129.25L10.84,128.47L13.01,130.17L15.18,139.54L19.52,115.23L21.69,133.47L23.86,141.14L26.02,140.15L28.19,143.76L30.36,142.12L32.53,137.52L34.7,147.59L36.87,172.2L39.04,165.06L41.2,163.36L43.37,174.78L45.54,178.77L47.71,181.14L52.05,187.45L54.22,183.23L56.39,192.32L58.55,192.09L62.89,201.75L65.06,197.69L67.23,204.98L69.4,218.11L71.57,212.63L73.73,222.84L75.9,230.09L78.07,229.27L80.24,229.57L82.41,234.57L84.58,240.2L86.75,240.36L88.92,243.94L91.08,242.16L95.42,232.51L97.59,231.28L99.76,236.07L101.93,238.79L104.1,238.39L106.27,243.13L108.43,235.84L110.6,239.07L112.77,238.53L114.94,242.98L117.11,244.35L119.28,247.44L121.45,250.32L123.61,251.82L125.78,248.35L127.95,246.52L130.12,242L132.29,239.61L134.46,243.79L136.63,245.66L138.8,252.41L140.96,252.7L143.13,252.29L145.3,253.59L147.47,255.32L149.64,258.18L151.81,257.55L153.98,261.75L158.31,265.05L160.48,265.7L162.65,263.93L164.82,260L169.16,267.98L171.33,266.62L173.49,264.66L175.66,266.98L177.83,268.66L180,267.14L186.51,272.39L188.67,275.88L190.84,276.38L193.01,277.82L195.18,278.75L197.35,281.65L201.69,283.77L203.86,285.54L206.02,288.75L208.19,287.75L210.36,290L212.53,290.33L216.87,288.05L219.04,288.26L221.2,288.5L223.37,289.98L225.54,290.29L227.71,291.52L232.05,290.37L234.22,289.66L240.72,292.73L242.89,295.32L249.4,297.37L251.57,296.44L258.07,297.62L260.24,296.59L262.41,296.18L264.58,296.54L266.75,295.9L268.92,293.77L273.25,293.6L275.42,295.8L279.76,296.77L281.93,295.94L284.1,295.46L286.27,296.25L288.43,298.27L290.6,298.64L297.11,299.86L299.28,299.37L303.61,300.68L305.78,299.83L307.95,301.85L310.12,301.7L312.29,302.38L314.46,301.74L318.8,300.93L320.96,300.26L323.13,300.47L325.3,302.05L327.47,300.68L329.64,301.69L331.81,302.8L333.98,301.4L338.31,300.43L340.48,301.3L342.65,300.17L344.82,300.15L351.33,300.56L353.49,300.72L360,299.92L362.17,300.14L364.34,300.42L366.51,302.11L373.01,303.84L375.18,305L381.69,304.33L383.86,305.19L386.02,304.19L388.19,304.98L396.87,305.28L399.04,306.38L403.37,305.61L405.54,306.09L407.71,306.12L409.88,305.34L420.72,308.2L422.89,307.44L427.23,308.62L429.4,308.19L431.57,307.98L433.73,308.61L435.9,308.6L438.07,309.58L442.41,309.59L444.58,310.13L446.75,309.1L448.92,309.3L451.08,309.04L453.25,309.84L457.59,309.9L459.76,310.56L468.43,311.3L470.6,311.15L474.94,310.67L477.11,309.88L485.78,309.58L487.95,310.29L496.63,310.02L498.8,309.46L511.81,309.28L513.98,309.09L524.82,308.53L526.99,307.73L537.83,308.22L540,309.18" style="vector-effect: non-scaling-stroke; fill: none; stroke: rgb(255, 161, 90); stroke-opacity: 1; stroke-width: 2px; opacity: 1;"/></g><g class="points"/><g class="text"/></g><g class="trace scatter tracee1ef19" style="stroke-miterlimit: 2; opacity: 1;"><g class="fills"/><g class="errorbars"/><g class="lines"><path class="js-line" d="M0,38.96L2.17,51.77L4.34,102.51L8.67,129.25L10.84,128.47L13.01,130.17L15.18,139.54L19.52,115.23L21.69,133.47L23.86,141.14L26.02,140.15L28.19,143.76L30.36,142.12L32.53,137.52L34.7,147.59L36.87,172.2L39.04,165.06L41.2,163.36L43.37,174.78L45.54,178.77L47.71,181.14L52.05,187.45L54.22,183.23L56.39,192.32L58.55,192.09L62.89,201.75L65.06,197.69L67.23,204.98L69.4,218.11L71.57,212.63L73.73,222.84L75.9,230.09L78.07,229.27L80.24,229.57L82.41,234.57L84.58,240.2L86.75,240.36L88.92,243.94L91.08,242.16L95.42,232.51L97.59,231.28L99.76,236.07L101.93,238.79L104.1,238.39L106.27,243.13L108.43,235.84L110.6,239.07L112.77,238.53L114.94,242.98L117.11,244.35L119.28,247.44L121.45,250.32L123.61,251.82L125.78,248.35L127.95,246.52L130.12,242L132.29,239.61L134.46,243.79L136.63,245.66L138.8,252.41L140.96,252.7L143.13,252.29L145.3,253.59L147.47,255.32L149.64,258.18L151.81,257.55L153.98,261.75L158.31,265.05L160.48,265.7L162.65,263.93L164.82,260L169.16,267.98L171.33,266.62L173.49,264.66L175.66,266.98L177.83,268.66L180,267.14L186.51,272.39L188.67,275.88L190.84,276.38L193.01,277.82L195.18,278.75L197.35,281.65L201.69,283.77L203.86,285.54L206.02,288.75L208.19,287.75L210.36,290L212.53,290.33L216.87,288.05L219.04,288.26L221.2,288.5L223.37,289.98L225.54,290.29L227.71,291.52L232.05,290.37L234.22,289.66L240.72,292.73L242.89,295.32L249.4,297.37L251.57,296.44L258.07,297.62L260.24,296.59L262.41,296.18L264.58,296.54L266.75,295.9L268.92,293.77L273.25,293.6L275.42,295.8L279.76,296.77L281.93,295.94L284.1,295.46L286.27,296.25L288.43,298.27L290.6,298.64L297.11,299.86L299.28,299.37L303.61,300.68L305.78,299.83L307.95,301.85L310.12,301.7L312.29,302.38L314.46,301.74L318.8,300.93L320.96,300.26L323.13,300.47L325.3,302.05L327.47,300.68L329.64,301.69L331.81,302.8L333.98,301.4L338.31,300.43L340.48,301.3L342.65,300.17L344.82,300.15L351.33,300.56L353.49,300.72L360,299.92L362.17,300.14L364.34,300.42L366.51,302.11L373.01,303.84L375.18,305L381.69,304.33L383.86,305.19L386.02,304.19L388.19,304.98L396.87,305.28L399.04,306.38L403.37,305.61L405.54,306.09L407.71,306.12L409.88,305.34L420.72,308.2L422.89,307.44L427.23,308.62L429.4,308.19L431.57,307.98L433.73,308.61L435.9,308.6L438.07,309.58L442.41,309.59L444.58,310.13L446.75,309.1L448.92,309.3L451.08,309.04L453.25,309.84L457.59,309.9L459.76,310.56L468.43,311.3L470.6,311.15L474.94,310.67L477.11,309.88L485.78,309.58L487.95,310.29L496.63,310.02L498.8,309.46L511.81,309.28L513.98,309.09L524.82,308.53L526.99,307.73L537.83,308.22L540,309.18" style="vector-effect: non-scaling-stroke; fill: none; stroke: rgb(25, 211, 243); stroke-opacity: 1; stroke-width: 2px; opacity: 1;"/></g><g class="points"/><g class="text"/></g><g class="trace scatter tracea4eebc" style="stroke-miterlimit: 2; opacity: 1;"><g class="fills"/><g class="errorbars"/><g class="lines"><path class="js-line" d="M0,38.96L2.17,51.77L4.34,102.51L8.67,129.25L10.84,128.47L13.01,130.17L15.18,139.54L19.52,115.23L21.69,133.47L23.86,141.14L26.02,140.15L28.19,143.76L30.36,142.12L32.53,137.52L34.7,147.59L36.87,172.2L39.04,165.06L41.2,163.36L43.37,174.78L45.54,178.77L47.71,181.14L52.05,187.45L54.22,183.23L56.39,192.32L58.55,192.09L62.89,201.75L65.06,197.69L67.23,204.98L69.4,218.11L71.57,212.63L73.73,222.84L75.9,230.09L78.07,229.27L80.24,229.57L82.41,234.57L84.58,240.2L86.75,240.36L88.92,243.94L91.08,242.16L95.42,232.51L97.59,231.28L99.76,236.07L101.93,238.79L104.1,238.39L106.27,243.13L108.43,235.84L110.6,239.07L112.77,238.53L114.94,242.98L117.11,244.35L119.28,247.44L121.45,250.32L123.61,251.82L125.78,248.35L127.95,246.52L130.12,242L132.29,239.61L134.46,243.79L136.63,245.66L138.8,252.41L140.96,252.7L143.13,252.29L145.3,253.59L147.47,255.32L149.64,258.18L151.81,257.55L153.98,261.75L158.31,265.05L160.48,265.7L162.65,263.93L164.82,260L169.16,267.98L171.33,266.62L173.49,264.66L175.66,266.98L177.83,268.66L180,267.14L186.51,272.39L188.67,275.88L190.84,276.38L193.01,277.82L195.18,278.75L197.35,281.65L201.69,283.77L203.86,285.54L206.02,288.75L208.19,287.75L210.36,290L212.53,290.33L216.87,288.05L219.04,288.26L221.2,288.5L223.37,289.98L225.54,290.29L227.71,291.52L232.05,290.37L234.22,289.66L240.72,292.73L242.89,295.32L249.4,297.37L251.57,296.44L258.07,297.62L260.24,296.59L262.41,296.18L264.58,296.54L266.75,295.9L268.92,293.77L273.25,293.6L275.42,295.8L279.76,296.77L281.93,295.94L284.1,295.46L286.27,296.25L288.43,298.27L290.6,298.64L297.11,299.86L299.28,299.37L303.61,300.68L305.78,299.83L307.95,301.85L310.12,301.7L312.29,302.38L314.46,301.74L318.8,300.93L320.96,300.26L323.13,300.47L325.3,302.05L327.47,300.68L329.64,301.69L331.81,302.8L333.98,301.4L338.31,300.43L340.48,301.3L342.65,300.17L344.82,300.15L351.33,300.56L353.49,300.72L360,299.92L362.17,300.14L364.34,300.42L366.51,302.11L373.01,303.84L375.18,305L381.69,304.33L383.86,305.19L386.02,304.19L388.19,304.98L396.87,305.28L399.04,306.38L403.37,305.61L405.54,306.09L407.71,306.12L409.88,305.34L420.72,308.2L422.89,307.44L427.23,308.62L429.4,308.19L431.57,307.98L433.73,308.61L435.9,308.6L438.07,309.58L442.41,309.59L444.58,310.13L446.75,309.1L448.92,309.3L451.08,309.04L453.25,309.84L457.59,309.9L459.76,310.56L468.43,311.3L470.6,311.15L474.94,310.67L477.11,309.88L485.78,309.58L487.95,310.29L496.63,310.02L498.8,309.46L511.81,309.28L513.98,309.09L524.82,308.53L526.99,307.73L537.83,308.22L540,309.18" style="vector-effect: non-scaling-stroke; fill: none; stroke: rgb(255, 102, 146); stroke-opacity: 1; stroke-width: 2px; opacity: 1;"/></g><g class="points"/><g class="text"/></g><g class="trace scatter trace4b9a94" style="stroke-miterlimit: 2; opacity: 1;"><g class="fills"/><g class="errorbars"/><g class="lines"><path class="js-line" d="M0,38.96L2.17,51.77L4.34,102.51L8.67,129.25L10.84,128.47L13.01,130.17L15.18,139.54L19.52,115.23L21.69,133.47L23.86,141.14L26.02,140.15L28.19,143.76L30.36,142.12L32.53,137.52L34.7,147.59L36.87,172.2L39.04,165.06L41.2,163.36L43.37,174.78L45.54,178.77L47.71,181.14L52.05,187.45L54.22,183.23L56.39,192.32L58.55,192.09L62.89,201.75L65.06,197.69L67.23,204.98L69.4,218.11L71.57,212.63L73.73,222.84L75.9,230.09L78.07,229.27L80.24,229.57L82.41,234.57L84.58,240.2L86.75,240.36L88.92,243.94L91.08,242.16L95.42,232.51L97.59,231.28L99.76,236.07L101.93,238.79L104.1,238.39L106.27,243.13L108.43,235.84L110.6,239.07L112.77,238.53L114.94,242.98L117.11,244.35L119.28,247.44L121.45,250.32L123.61,251.82L125.78,248.35L127.95,246.52L130.12,242L132.29,239.61L134.46,243.79L136.63,245.66L138.8,252.41L140.96,252.7L143.13,252.29L145.3,253.59L147.47,255.32L149.64,258.18L151.81,257.55L153.98,261.75L158.31,265.05L160.48,265.7L162.65,263.93L164.82,260L169.16,267.98L171.33,266.62L173.49,264.66L175.66,266.98L177.83,268.66L180,267.14L186.51,272.39L188.67,275.88L190.84,276.38L193.01,277.82L195.18,278.75L197.35,281.65L201.69,283.77L203.86,285.54L206.02,288.75L208.19,287.75L210.36,290L212.53,290.33L216.87,288.05L219.04,288.26L221.2,288.5L223.37,289.98L225.54,290.29L227.71,291.52L232.05,290.37L234.22,289.66L240.72,292.73L242.89,295.32L249.4,297.37L251.57,296.44L258.07,297.62L260.24,296.59L262.41,296.18L264.58,296.54L266.75,295.9L268.92,293.77L273.25,293.6L275.42,295.8L279.76,296.77L281.93,295.94L284.1,295.46L286.27,296.25L288.43,298.27L290.6,298.64L297.11,299.86L299.28,299.37L303.61,300.68L305.78,299.83L307.95,301.85L310.12,301.7L312.29,302.38L314.46,301.74L318.8,300.93L320.96,300.26L323.13,300.47L325.3,302.05L327.47,300.68L329.64,301.69L331.81,302.8L333.98,301.4L338.31,300.43L340.48,301.3L342.65,300.17L344.82,300.15L351.33,300.56L353.49,300.72L360,299.92L362.17,300.14L364.34,300.42L366.51,302.11L373.01,303.84L375.18,305L381.69,304.33L383.86,305.19L386.02,304.19L388.19,304.98L396.87,305.28L399.04,306.38L403.37,305.61L405.54,306.09L407.71,306.12L409.88,305.34L420.72,308.2L422.89,307.44L427.23,308.62L429.4,308.19L431.57,307.98L433.73,308.61L435.9,308.6L438.07,309.58L442.41,309.59L444.58,310.13L446.75,309.1L448.92,309.3L451.08,309.04L453.25,309.84L457.59,309.9L459.76,310.56L468.43,311.3L470.6,311.15L474.94,310.67L477.11,309.88L485.78,309.58L487.95,310.29L496.63,310.02L498.8,309.46L511.81,309.28L513.98,309.09L524.82,308.53L526.99,307.73L537.83,308.22L540,309.18" style="vector-effect: non-scaling-stroke; fill: none; stroke: rgb(182, 232, 128); stroke-opacity: 1; stroke-width: 2px; opacity: 1;"/></g><g class="points"/><g class="text"/></g><g class="trace scatter trace2f5642" style="stroke-miterlimit: 2; opacity: 1;"><g class="fills"/><g class="errorbars"/><g class="lines"><path class="js-line" d="M0,38.96L2.17,51.77L4.34,102.51L8.67,129.25L10.84,128.47L13.01,130.17L15.18,139.54L19.52,115.23L21.69,133.47L23.86,141.14L26.02,140.15L28.19,143.76L30.36,142.12L32.53,137.52L34.7,147.59L36.87,172.2L39.04,165.06L41.2,163.36L43.37,174.78L45.54,178.77L47.71,181.14L52.05,187.45L54.22,183.23L56.39,192.32L58.55,192.09L62.89,201.75L65.06,197.69L67.23,204.98L69.4,218.11L71.57,212.63L73.73,222.84L75.9,230.09L78.07,229.27L80.24,229.57L82.41,234.57L84.58,240.2L86.75,240.36L88.92,243.94L91.08,242.16L95.42,232.51L97.59,231.28L99.76,236.07L101.93,238.79L104.1,238.39L106.27,243.13L108.43,235.84L110.6,239.07L112.77,238.53L114.94,242.98L117.11,244.35L119.28,247.44L121.45,250.32L123.61,251.82L125.78,248.35L127.95,246.52L130.12,242L132.29,239.61L134.46,243.79L136.63,245.66L138.8,252.41L140.96,252.7L143.13,252.29L145.3,253.59L147.47,255.32L149.64,258.18L151.81,257.55L153.98,261.75L158.31,265.05L160.48,265.7L162.65,263.93L164.82,260L169.16,267.98L171.33,266.62L173.49,264.66L175.66,266.98L177.83,268.66L180,267.14L186.51,272.39L188.67,275.88L190.84,276.38L193.01,277.82L195.18,278.75L197.35,281.65L201.69,283.77L203.86,285.54L206.02,288.75L208.19,287.75L210.36,290L212.53,290.33L216.87,288.05L219.04,288.26L221.2,288.5L223.37,289.98L225.54,290.29L227.71,291.52L232.05,290.37L234.22,289.66L240.72,292.73L242.89,295.32L249.4,297.37L251.57,296.44L258.07,297.62L260.24,296.59L262.41,296.18L264.58,296.54L266.75,295.9L268.92,293.77L273.25,293.6L275.42,295.8L279.76,296.77L281.93,295.94L284.1,295.46L286.27,296.25L288.43,298.27L290.6,298.64L297.11,299.86L299.28,299.37L303.61,300.68L305.78,299.83L307.95,301.85L310.12,301.7L312.29,302.38L314.46,301.74L318.8,300.93L320.96,300.26L323.13,300.47L325.3,302.05L327.47,300.68L329.64,301.69L331.81,302.8L333.98,301.4L338.31,300.43L340.48,301.3L342.65,300.17L344.82,300.15L351.33,300.56L353.49,300.72L360,299.92L362.17,300.14L364.34,300.42L366.51,302.11L373.01,303.84L375.18,305L381.69,304.33L383.86,305.19L386.02,304.19L388.19,304.98L396.87,305.28L399.04,306.38L403.37,305.61L405.54,306.09L407.71,306.12L409.88,305.34L420.72,308.2L422.89,307.44L427.23,308.62L429.4,308.19L431.57,307.98L433.73,308.61L435.9,308.6L438.07,309.58L442.41,309.59L444.58,310.13L446.75,309.1L448.92,309.3L451.08,309.04L453.25,309.84L457.59,309.9L459.76,310.56L468.43,311.3L470.6,311.15L474.94,310.67L477.11,309.88L485.78,309.58L487.95,310.29L496.63,310.02L498.8,309.46L511.81,309.28L513.98,309.09L524.82,308.53L526.99,307.73L537.83,308.22L540,309.18" style="vector-effect: non-scaling-stroke; fill: none; stroke: rgb(255, 151, 255); stroke-opacity: 1; stroke-width: 2px; opacity: 1;"/></g><g class="points"/><g class="text"/></g><g class="trace scatter traceaf70d5" style="stroke-miterlimit: 2; opacity: 1;"><g class="fills"/><g class="errorbars"/><g class="lines"><path class="js-line" d="M0,38.96L2.17,51.77L4.34,102.51L8.67,129.25L10.84,128.47L13.01,130.17L15.18,139.54L19.52,115.23L21.69,133.47L23.86,141.14L26.02,140.15L28.19,143.76L30.36,142.12L32.53,137.52L34.7,147.59L36.87,172.2L39.04,165.06L41.2,163.36L43.37,174.78L45.54,178.77L47.71,181.14L52.05,187.45L54.22,183.23L56.39,192.32L58.55,192.09L62.89,201.75L65.06,197.69L67.23,204.98L69.4,218.11L71.57,212.63L73.73,222.84L75.9,230.09L78.07,229.27L80.24,229.57L82.41,234.57L84.58,240.2L86.75,240.36L88.92,243.94L91.08,242.16L95.42,232.51L97.59,231.28L99.76,236.07L101.93,238.79L104.1,238.39L106.27,243.13L108.43,235.84L110.6,239.07L112.77,238.53L114.94,242.98L117.11,244.35L119.28,247.44L121.45,250.32L123.61,251.82L125.78,248.35L127.95,246.52L130.12,242L132.29,239.61L134.46,243.79L136.63,245.66L138.8,252.41L140.96,252.7L143.13,252.29L145.3,253.59L147.47,255.32L149.64,258.18L151.81,257.55L153.98,261.75L158.31,265.05L160.48,265.7L162.65,263.93L164.82,260L169.16,267.98L171.33,266.62L173.49,264.66L175.66,266.98L177.83,268.66L180,267.14L186.51,272.39L188.67,275.88L190.84,276.38L193.01,277.82L195.18,278.75L197.35,281.65L201.69,283.77L203.86,285.54L206.02,288.75L208.19,287.75L210.36,290L212.53,290.33L216.87,288.05L219.04,288.26L221.2,288.5L223.37,289.98L225.54,290.29L227.71,291.52L232.05,290.37L234.22,289.66L240.72,292.73L242.89,295.32L249.4,297.37L251.57,296.44L258.07,297.62L260.24,296.59L262.41,296.18L264.58,296.54L266.75,295.9L268.92,293.77L273.25,293.6L275.42,295.8L279.76,296.77L281.93,295.94L284.1,295.46L286.27,296.25L288.43,298.27L290.6,298.64L297.11,299.86L299.28,299.37L303.61,300.68L305.78,299.83L307.95,301.85L310.12,301.7L312.29,302.38L314.46,301.74L318.8,300.93L320.96,300.26L323.13,300.47L325.3,302.05L327.47,300.68L329.64,301.69L331.81,302.8L333.98,301.4L338.31,300.43L340.48,301.3L342.65,300.17L344.82,300.15L351.33,300.56L353.49,300.72L360,299.92L362.17,300.14L364.34,300.42L366.51,302.11L373.01,303.84L375.18,305L381.69,304.33L383.86,305.19L386.02,304.19L388.19,304.98L396.87,305.28L399.04,306.38L403.37,305.61L405.54,306.09L407.71,306.12L409.88,305.34L420.72,308.2L422.89,307.44L427.23,308.62L429.4,308.19L431.57,307.98L433.73,308.61L435.9,308.6L438.07,309.58L442.41,309.59L444.58,310.13L446.75,309.1L448.92,309.3L451.08,309.04L453.25,309.84L457.59,309.9L459.76,310.56L468.43,311.3L470.6,311.15L474.94,310.67L477.11,309.88L485.78,309.58L487.95,310.29L496.63,310.02L498.8,309.46L511.81,309.28L513.98,309.09L524.82,308.53L526.99,307.73L537.83,308.22L540,309.18" style="vector-effect: non-scaling-stroke; fill: none; stroke: rgb(254, 203, 82); stroke-opacity: 1; stroke-width: 2px; opacity: 1;"/></g><g class="points"/><g class="text"/></g><g class="trace scatter trace818e74" style="stroke-miterlimit: 2; opacity: 1;"><g class="fills"/><g class="errorbars"/><g class="lines"><path class="js-line" d="M0,38.96L2.17,51.77L4.34,102.51L8.67,129.25L10.84,128.47L13.01,130.17L15.18,139.54L19.52,115.23L21.69,133.47L23.86,141.14L26.02,140.15L28.19,143.76L30.36,142.12L32.53,137.52L34.7,147.59L36.87,172.2L39.04,165.06L41.2,163.36L43.37,174.78L45.54,178.77L47.71,181.14L52.05,187.45L54.22,183.23L56.39,192.32L58.55,192.09L62.89,201.75L65.06,197.69L67.23,204.98L69.4,218.11L71.57,212.63L73.73,222.84L75.9,230.09L78.07,229.27L80.24,229.57L82.41,234.57L84.58,240.2L86.75,240.36L88.92,243.94L91.08,242.16L95.42,232.51L97.59,231.28L99.76,236.07L101.93,238.79L104.1,238.39L106.27,243.13L108.43,235.84L110.6,239.07L112.77,238.53L114.94,242.98L117.11,244.35L119.28,247.44L121.45,250.32L123.61,251.82L125.78,248.35L127.95,246.52L130.12,242L132.29,239.61L134.46,243.79L136.63,245.66L138.8,252.41L140.96,252.7L143.13,252.29L145.3,253.59L147.47,255.32L149.64,258.18L151.81,257.55L153.98,261.75L158.31,265.05L160.48,265.7L162.65,263.93L164.82,260L169.16,267.98L171.33,266.62L173.49,264.66L175.66,266.98L177.83,268.66L180,267.14L186.51,272.39L188.67,275.88L190.84,276.38L193.01,277.82L195.18,278.75L197.35,281.65L201.69,283.77L203.86,285.54L206.02,288.75L208.19,287.75L210.36,290L212.53,290.33L216.87,288.05L219.04,288.26L221.2,288.5L223.37,289.98L225.54,290.29L227.71,291.52L232.05,290.37L234.22,289.66L240.72,292.73L242.89,295.32L249.4,297.37L251.57,296.44L258.07,297.62L260.24,296.59L262.41,296.18L264.58,296.54L266.75,295.9L268.92,293.77L273.25,293.6L275.42,295.8L279.76,296.77L281.93,295.94L284.1,295.46L286.27,296.25L288.43,298.27L290.6,298.64L297.11,299.86L299.28,299.37L303.61,300.68L305.78,299.83L307.95,301.85L310.12,301.7L312.29,302.38L314.46,301.74L318.8,300.93L320.96,300.26L323.13,300.47L325.3,302.05L327.47,300.68L329.64,301.69L331.81,302.8L333.98,301.4L338.31,300.43L340.48,301.3L342.65,300.17L344.82,300.15L351.33,300.56L353.49,300.72L360,299.92L362.17,300.14L364.34,300.42L366.51,302.11L373.01,303.84L375.18,305L381.69,304.33L383.86,305.19L386.02,304.19L388.19,304.98L396.87,305.28L399.04,306.38L403.37,305.61L405.54,306.09L407.71,306.12L409.88,305.34L420.72,308.2L422.89,307.44L427.23,308.62L429.4,308.19L431.57,307.98L433.73,308.61L435.9,308.6L438.07,309.58L442.41,309.59L444.58,310.13L446.75,309.1L448.92,309.3L451.08,309.04L453.25,309.84L457.59,309.9L459.76,310.56L468.43,311.3L470.6,311.15L474.94,310.67L477.11,309.88L485.78,309.58L487.95,310.29L496.63,310.02L498.8,309.46L511.81,309.28L513.98,309.09L524.82,308.53L526.99,307.73L537.83,308.22L540,309.18" style="vector-effect: non-scaling-stroke; fill: none; stroke: rgb(99, 110, 250); stroke-opacity: 1; stroke-width: 2px; opacity: 1;"/></g><g class="points"/><g class="text"/></g></g></g><g class="overplot"/><path class="xlines-above crisp" d="M0,0" style="fill: none;"/><path class="ylines-above crisp" d="M0,0" style="fill: none;"/><g class="overlines-above"/><g class="xaxislayer-above"><g class="xtick"><text text-anchor="middle" x="0" y="433" transform="translate(80,0)" style="font-family: 'Open Sans', verdana, arial, sans-serif; font-size: 12px; fill: rgb(42, 63, 95); fill-opacity: 1; white-space: pre; opacity: 1;">0</text></g><g class="xtick"><text text-anchor="middle" x="0" y="433" style="font-family: 'Open Sans', verdana, arial, sans-serif; font-size: 12px; fill: rgb(42, 63, 95); fill-opacity: 1; white-space: pre; opacity: 1;" transform="translate(188.43,0)">50</text></g><g class="xtick"><text text-anchor="middle" x="0" y="433" style="font-family: 'Open Sans', verdana, arial, sans-serif; font-size: 12px; fill: rgb(42, 63, 95); fill-opacity: 1; white-space: pre; opacity: 1;" transform="translate(296.87,0)">100</text></g><g class="xtick"><text text-anchor="middle" x="0" y="433" style="font-family: 'Open Sans', verdana, arial, sans-serif; font-size: 12px; fill: rgb(42, 63, 95); fill-opacity: 1; white-space: pre; opacity: 1;" transform="translate(405.3,0)">150</text></g><g class="xtick"><text text-anchor="middle" x="0" y="433" style="font-family: 'Open Sans', verdana, arial, sans-serif; font-size: 12px; fill: rgb(42, 63, 95); fill-opacity: 1; white-space: pre; opacity: 1;" transform="translate(513.73,0)">200</text></g></g><g class="yaxislayer-above"><g class="ytick"><text text-anchor="end" x="79" y="4.199999999999999" transform="translate(0,420)" style="font-family: 'Open Sans', verdana, arial, sans-serif; font-size: 12px; fill: rgb(42, 63, 95); fill-opacity: 1; white-space: pre; opacity: 1;">0</text></g><g class="ytick"><text text-anchor="end" x="79" y="4.199999999999999" style="font-family: 'Open Sans', verdana, arial, sans-serif; font-size: 12px; fill: rgb(42, 63, 95); fill-opacity: 1; white-space: pre; opacity: 1;" transform="translate(0,371.37)">1000</text></g><g class="ytick"><text text-anchor="end" x="79" y="4.199999999999999" style="font-family: 'Open Sans', verdana, arial, sans-serif; font-size: 12px; fill: rgb(42, 63, 95); fill-opacity: 1; white-space: pre; opacity: 1;" transform="translate(0,322.73)">2000</text></g><g class="ytick"><text text-anchor="end" x="79" y="4.199999999999999" style="font-family: 'Open Sans', verdana, arial, sans-serif; font-size: 12px; fill: rgb(42, 63, 95); fill-opacity: 1; white-space: pre; opacity: 1;" transform="translate(0,274.1)">3000</text></g><g class="ytick"><text text-anchor="end" x="79" y="4.199999999999999" style="font-family: 'Open Sans', verdana, arial, sans-serif; font-size: 12px; fill: rgb(42, 63, 95); fill-opacity: 1; white-space: pre; opacity: 1;" transform="translate(0,225.45999999999998)">4000</text></g><g class="ytick"><text text-anchor="end" x="79" y="4.199999999999999" style="font-family: 'Open Sans', verdana, arial, sans-serif; font-size: 12px; fill: rgb(42, 63, 95); fill-opacity: 1; white-space: pre; opacity: 1;" transform="translate(0,176.82999999999998)">5000</text></g><g class="ytick"><text text-anchor="end" x="79" y="4.199999999999999" style="font-family: 'Open Sans', verdana, arial, sans-serif; font-size: 12px; fill: rgb(42, 63, 95); fill-opacity: 1; white-space: pre; opacity: 1;" transform="translate(0,128.2)">6000</text></g></g><g class="overaxes-above"/></g></g><g class="polarlayer"/><g class="ternarylayer"/><g class="geolayer"/><g class="funnelarealayer"/><g class="pielayer"/><g class="iciclelayer"/><g class="treemaplayer"/><g class="sunburstlayer"/><g class="glimages"/><defs id="topdefs-d86115"><g class="clips"/></defs><g class="layer-above"><g class="imagelayer"/><g class="shapelayer"/></g><g class="infolayer"><g class="g-gtitle"><text class="gtitle" x="35" y="50" text-anchor="start" dy="0em" style="font-family: 'Open Sans', verdana, arial, sans-serif; font-size: 17px; fill: rgb(42, 63, 95); opacity: 1; font-weight: normal; white-space: pre;">Rank Variance: ascad_0-ascad_mlp</text></g><g class="g-xtitle"/><g class="g-ytitle"/></g></svg>