<svg class="main-svg" xmlns="http://www.w3.org/2000/svg" xmlns:xlink="http://www.w3.org/1999/xlink" width="700" height="500" style="" viewBox="0 0 700 500"><rect x="0" y="0" width="700" height="500" style="fill: rgb(255, 255, 255); fill-opacity: 1;"/><defs id="defs-e54c4d"><g class="clips"><clipPath id="clipe54c4dxyplot" class="plotclip"><rect width="540" height="320"/></clipPath><clipPath class="axesclip" id="clipe54c4dx"><rect x="80" y="0" width="540" height="500"/></clipPath><clipPath class="axesclip" id="clipe54c4dy"><rect x="0" y="100" width="700" height="320"/></clipPath><clipPath class="axesclip" id="clipe54c4dxy"><rect x="80" y="100" width="540" height="320"/></clipPath></g><g class="gradients"/><g class="patterns"/></defs><g class="bglayer"><rect class="bg" x="80" y="100" width="540" height="320" style="fill: rgb(229, 236, 246); fill-opacity: 1; stroke-width: 0;"/></g><g class="layer-below"><g class="imagelayer"/><g class="shapelayer"/></g><g class="cartesianlayer"><g class="subplot xy"><g class="layer-subplot"><g class="shapelayer"/><g class="imagelayer"/></g><g class="gridlayer"><g class="x"><path class="xgrid crisp" transform="translate(188.43,0)" d="M0,100v320" style="stroke: rgb(255, 255, 255); stroke-opacity: 1; stroke-width: 1px;"/><path class="xgrid crisp" transform="translate(296.87,0)" d="M0,100v320" style="stroke: rgb(255, 255, 255); stroke-opacity: 1; stroke-width: 1px;"/><path class="xgrid crisp" transform="translate(405.3,0)" d="M0,100v320" style="stroke: rgb(255, 255, 255); stroke-opacity: 1; stroke-width: 1px;"/><path class="xgrid crisp" transform="translate(513.73,0)" d="M0,100v320" style="stroke: rgb(255, 255, 255); stroke-opacity: 1; stroke-width: 1px;"/></g><g class="y"><path class="ygrid crisp" transform="translate(0,371.37)" d="M80,0h540" style="stroke: rgb(255, 255, 255); stroke-opacity: 1; stroke-width: 1px;"/><path class="ygrid crisp" transform="translate(0,322.73)" d="M80,0h540" style="stroke: rgb(255, 255, 255); stroke-opacity: 1; stroke-width: 1px;"/><path class="ygrid crisp" transform="translate(0,274.1)" d="M80,0h540" style="stroke: rgb(255, 255, 255); stroke-opacity: 1; stroke-width: 1px;"/><path class="ygrid crisp" transform="translate(0,225.45999999999998)" d="M80,0h540" style="stroke: rgb(255, 255, 255); stroke-opacity: 1; stroke-width: 1px;"/><path class="ygrid crisp" transform="translate(0,176.82999999999998)" d="M80,0h540" style="stroke: rgb(255, 255, 255); stroke-opacity: 1; stroke-width: 1px;"/><path class="ygrid crisp" transform="translate(0,128.2)" d="M80,0h540" style="stroke: rgb(255, 255, 255); stroke-opacity: 1; stroke-width: 1px;"/></g></g><g class="zerolinelayer"><path class="xzl zl crisp" transform="translate(80,0)" d="M0,100v320" style="stroke: rgb(255, 255, 255); stroke-opacity: 1; stroke-width: 2px;"/><path class="yzl zl crisp" transform="translate(0,420)" d="M80,0h540" style="stroke: rgb(255, 255, 255); stroke-opacity: 1; stroke-width: 2px;"/></g><path class="xlines-below"/><path class="ylines-below"/><g class="overlines-below"/><g class="xaxislayer-below"/><g class="yaxislayer-below"/><g class="overaxes-below"/><g class="plot" transform="translate(80,100)" clip-path="url(#clipe54c4dxyplot)"><g class="scatterlayer mlayer"><g class="trace scatter trace842161" style="stroke-miterlimit: 2; opacity: 1;"><g class="fills"/><g class="errorbars"/><g class="lines"><path class="js-line" d="M0,111.21L2.17,89.94L4.34,116.29L8.67,175.53L10.84,170.95L13.01,152.51L15.18,169.1L17.35,197.26L19.52,205.43L21.69,224.21L23.86,231.61L26.02,248.62L28.19,256.48L30.36,256.77L32.53,248.3L36.87,263.96L39.04,264.63L43.37,269.85L45.54,258.88L47.71,261.4L49.88,271.36L52.05,276.55L54.22,287.93L56.39,294.09L58.55,295.92L60.72,296.64L62.89,300.7L65.06,301.14L67.23,304.23L69.4,305.12L71.57,307.73L73.73,306.86L75.9,308.08L82.41,311.06L84.58,310.68L86.75,310.18L88.92,311L95.42,311.68L97.59,312.64L108.43,313.27L110.6,313.77L114.94,313.86L117.11,314.35L119.28,313.81L121.45,314.59L127.95,315L130.12,314.75L134.46,315.26L136.63,315.5L145.3,315.1L147.47,315.91L158.31,316.18L160.48,316.45L166.99,317.18L169.16,317.18L180,317.49L182.17,317.3L188.67,317.44L190.84,317.51L214.7,318.66L216.87,318.68L245.06,319.23L247.23,319.32L268.92,319.47L271.08,319.55L310.12,319.56L312.29,319.59L370.84,319.76L373.01,319.79L540,319.98" style="vector-effect: non-scaling-stroke; fill: none; stroke: rgb(99, 110, 250); stroke-opacity: 1; stroke-width: 2px; opacity: 1;"/></g><g class="points"/><g class="text"/></g><g class="trace scatter tracee0a954" style="stroke-miterlimit: 2; opacity: 1;"><g class="fills"/><g class="errorbars"/><g class="lines"><path class="js-line" d="M0,57.26L2.17,71.83L4.34,111.01L6.51,155.59L8.67,176.18L10.84,196.26L13.01,163.6L15.18,157.56L17.35,181.51L19.52,185.42L21.69,200.75L26.02,212.74L28.19,230.37L30.36,239.2L32.53,234.32L34.7,228.93L36.87,238.73L39.04,248.46L41.2,253.84L43.37,258.14L45.54,253.48L49.88,267.75L52.05,275.46L54.22,281.61L56.39,283.87L58.55,280.92L60.72,286.75L62.89,291.62L65.06,292.9L67.23,293.78L69.4,295.59L71.57,300.62L73.73,301.59L78.07,300.47L80.24,301.05L82.41,302.86L84.58,301.32L86.75,303.37L88.92,303.45L91.08,302.46L93.25,303.51L95.42,303.88L97.59,306.15L99.76,305.57L101.93,307.78L104.1,307.49L106.27,308.09L117.11,310.21L119.28,310.93L123.61,311.16L125.78,311.43L136.63,313.24L138.8,313.32L149.64,314.96L151.81,314.9L158.31,315.02L160.48,315.25L195.18,316.58L197.35,316.62L212.53,316.78L214.7,316.79L277.59,318.03L279.76,318.18L292.77,318.35L294.94,318.41L299.28,318.2L301.45,318.31L349.16,318.81L351.33,318.71L383.86,319.18L386.02,319.22L438.07,319.72L440.24,319.69L540,319.76" style="vector-effect: non-scaling-stroke; fill: none; stroke: rgb(239, 85, 59); stroke-opacity: 1; stroke-width: 2px; opacity: 1;"/></g><g class="points"/><g class="text"/></g><g class="trace scatter trace7ef949" style="stroke-miterlimit: 2; opacity: 1;"><g class="fills"/><g class="errorbars"/><g class="lines"><path class="js-line" d="M0,88.41L2.17,123.33L4.34,122.2L6.51,166.85L8.67,190.47L10.84,199.55L13.01,195.21L17.35,217.09L19.52,220.83L21.69,245.5L23.86,258.23L26.02,265.91L28.19,279.39L32.53,283.65L34.7,279.01L36.87,286.54L39.04,286.8L41.2,287.19L43.37,290.82L45.54,288.37L47.71,289.03L52.05,292.73L54.22,296.46L56.39,297.34L58.55,299.44L60.72,296.99L62.89,298.34L65.06,299.91L67.23,303.62L73.73,307.58L75.9,306.16L78.07,305.75L80.24,306.92L84.58,310.55L86.75,311.21L88.92,310.89L91.08,311.37L101.93,312.39L104.1,312.22L110.6,312.33L112.77,312.44L134.46,314.17L136.63,313.86L151.81,314.29L153.98,314.7L162.65,315.04L164.82,315L169.16,315.68L171.33,315.8L177.83,315.94L180,315.4L212.53,317.17L214.7,316.98L238.55,316.77L240.72,316.92L294.94,318.79L297.11,318.37L301.45,318.58L303.61,318.76L314.46,318.55L316.63,318.95L453.25,319.78L455.42,319.74L540,319.87" style="vector-effect: non-scaling-stroke; fill: none; stroke: rgb(0, 204, 150); stroke-opacity: 1; stroke-width: 2px; opacity: 1;"/></g><g class="points"/><g class="text"/></g><g class="trace scatter traceae4cc2" style="stroke-miterlimit: 2; opacity: 1;"><g class="fills"/><g class="errorbars"/><g class="lines"><path class="js-line" d="M0,77.6L2.17,97.62L4.34,129.77L6.51,181.39L8.67,192.75L10.84,196.95L13.01,189.38L15.18,205.87L17.35,206.99L19.52,215.01L21.69,234.64L23.86,224.3L26.02,232.03L28.19,241.38L30.36,239.45L32.53,239.13L34.7,240.07L41.2,253.75L43.37,260.97L45.54,258.68L47.71,264.07L49.88,266.26L52.05,270.64L54.22,277.81L56.39,280.64L60.72,287.16L62.89,290.5L65.06,291.12L67.23,289.27L71.57,296.2L73.73,297.61L78.07,297.35L80.24,298.22L84.58,299.21L86.75,299.06L93.25,301.86L95.42,302.53L97.59,302.12L99.76,302.94L101.93,303.46L104.1,302.95L110.6,302.88L112.77,302.7L114.94,302.58L117.11,301.63L119.28,301.49L121.45,302.55L125.78,302.43L127.95,301.93L136.63,302.02L138.8,301.79L145.3,301.58L147.47,301.62L149.64,301.94L151.81,300.83L158.31,301.6L160.48,301.56L164.82,302.27L166.99,301.66L175.66,302.03L177.83,302L180,302.66L182.17,302.25L193.01,303.47L195.18,303.37L197.35,303.96L199.52,303.4L208.19,303.5L210.36,303.58L221.2,303.35L223.37,303.66L242.89,303.78L245.06,303.59L249.4,303.55L251.57,303.27L255.9,303.55L258.07,303.73L266.75,303.4L268.92,303.6L284.1,304.85L286.27,304.38L288.43,304.95L290.6,304.68L303.61,304.39L305.78,304.79L310.12,304.28L312.29,304.37L316.63,305.23L318.8,305.25L344.82,305.21L346.99,305.03L373.01,305.42L375.18,305.78L403.37,306.1L405.54,306.21L420.72,305.86L422.89,305.88L433.73,305.49L435.9,305.18L451.08,305.75L453.25,305.69L468.43,306.17L470.6,305.88L479.28,305.51L481.45,305.64L496.63,305.53L498.8,305.14L513.98,305.47L516.14,305.27L537.83,305.19L540,304.94" style="vector-effect: non-scaling-stroke; fill: none; stroke: rgb(171, 99, 250); stroke-opacity: 1; stroke-width: 2px; opacity: 1;"/></g><g class="points"/><g class="text"/></g><g class="trace scatter traced1fe01" style="stroke-miterlimit: 2; opacity: 1;"><g class="fills"/><g class="errorbars"/><g class="lines"><path class="js-line" d="M0,98.86L6.51,181.53L8.67,203.08L10.84,202.79L13.01,189.3L15.18,204.88L17.35,231.62L19.52,235.8L21.69,247.55L26.02,264.16L28.19,277.95L30.36,280.47L32.53,279.14L34.7,271.65L36.87,277.07L39.04,279.06L41.2,275.87L43.37,281.57L45.54,283.92L47.71,284.3L49.88,287.33L52.05,286.91L54.22,296.49L56.39,295.82L58.55,293.75L60.72,290.49L62.89,291.8L69.4,299.72L71.57,299.6L73.73,298.61L75.9,300.09L78.07,299.9L80.24,303.26L82.41,305.98L84.58,306.73L86.75,307.45L88.92,306.44L95.42,308.06L97.59,309.69L99.76,308.86L101.93,311L108.43,310.06L110.6,310.34L112.77,309.77L114.94,310.8L121.45,310.85L123.61,311.98L125.78,311.44L127.95,311.92L132.29,312.06L134.46,313.55L140.96,314.1L143.13,314.82L147.47,315.83L149.64,315.62L158.31,316L160.48,316.54L171.33,316.07L173.49,316.5L188.67,315.61L190.84,316L195.18,316.52L197.35,316.77L206.02,317.27L208.19,317.38L216.87,317.24L219.04,316.83L227.71,317.7L229.88,317.65L240.72,317.53L242.89,317.84L247.23,318.03L249.4,318.2L288.43,318.92L290.6,319.02L305.78,319.12L307.95,319.13L323.13,319.45L325.3,319.28L368.67,319.39L370.84,319.36L498.8,319.89L500.96,319.87L540,319.89" style="vector-effect: non-scaling-stroke; fill: none; stroke: rgb(255, 161, 90); stroke-opacity: 1; stroke-width: 2px; opacity: 1;"/></g><g class="points"/><g class="text"/></g><g class="trace scatter trace280850" style="stroke-miterlimit: 2; opacity: 1;"><g class="fills"/><g class="errorbars"/><g class="lines"><path class="js-line" d="M0,107.35L2.17,107.66L4.34,144.82L8.67,219.13L10.84,217.71L13.01,208.61L15.18,235.93L17.35,247.39L19.52,245.53L21.69,265.81L23.86,271L28.19,287.1L30.36,284.98L32.53,289.82L34.7,286.44L39.04,293.04L41.2,292.6L49.88,296.29L52.05,295.21L54.22,298.48L56.39,300.31L58.55,301.74L60.72,300.13L67.23,305.67L69.4,306.79L71.57,308.44L73.73,308.83L75.9,310.44L78.07,309.35L80.24,308.89L82.41,311.59L86.75,312.01L88.92,312.4L95.42,314.09L97.59,314.07L110.6,314.13L112.77,314.16L130.12,315.38L132.29,315.29L136.63,316.06L138.8,315.65L162.65,317.08L164.82,317.13L171.33,317.1L173.49,317.17L180,317.17L182.17,317.25L195.18,317.67L197.35,317.85L219.04,317.97L221.2,317.9L229.88,317.88L232.05,317.75L236.39,317.81L238.55,318.03L245.06,318.45L247.23,318.4L271.08,318.95L273.25,318.93L286.27,319.02L288.43,319.32L405.54,319.92L407.71,319.94L540,319.93" style="vector-effect: non-scaling-stroke; fill: none; stroke: rgb(25, 211, 243); stroke-opacity: 1; stroke-width: 2px; opacity: 1;"/></g><g class="points"/><g class="text"/></g><g class="trace scatter trace38dca4" style="stroke-miterlimit: 2; opacity: 1;"><g class="fills"/><g class="errorbars"/><g class="lines"><path class="js-line" d="M0,73.34L2.17,98.41L4.34,136.9L6.51,195.53L8.67,217.74L10.84,215.38L13.01,204.87L17.35,226.9L19.52,228.01L21.69,244.42L23.86,236.22L26.02,233.57L28.19,251.56L30.36,266.25L32.53,271.06L34.7,264.88L36.87,268.06L39.04,274.65L41.2,273.43L43.37,276.74L45.54,266.13L47.71,268.96L49.88,278.97L52.05,281.33L54.22,291.76L56.39,292.75L58.55,290.94L60.72,292.02L62.89,294.06L65.06,296.72L67.23,296.76L71.57,300.77L73.73,298.43L75.9,300.82L78.07,300.26L82.41,305.12L84.58,306.03L86.75,308.13L88.92,308.4L91.08,310.05L93.25,310.73L95.42,312.51L97.59,313.05L99.76,313.21L101.93,314.89L106.27,313.75L108.43,314.16L112.77,313.63L114.94,313.87L121.45,314.63L123.61,315.51L132.29,315.64L134.46,316.68L145.3,317.74L147.47,317.85L156.14,317.73L158.31,317.56L164.82,317.46L166.99,317.35L184.34,317.4L186.51,317.45L242.89,318.75L245.06,318.48L271.08,318.94L273.25,318.86L281.93,318.94L284.1,319.05L288.43,319.31L290.6,319.39L307.95,319.48L310.12,319.49L342.65,319.6L344.82,319.54L464.1,319.96L466.27,319.96L540,319.98" style="vector-effect: non-scaling-stroke; fill: none; stroke: rgb(255, 102, 146); stroke-opacity: 1; stroke-width: 2px; opacity: 1;"/></g><g class="points"/><g class="text"/></g><g class="trace scatter trace30823d" style="stroke-miterlimit: 2; opacity: 1;"><g class="fills"/><g class="errorbars"/><g class="lines"><path class="js-line" d="M0,68.93L4.34,118.28L6.51,156.67L8.67,173.5L10.84,184.24L13.01,147.49L15.18,163.03L17.35,190.38L19.52,198.79L21.69,215.39L23.86,225.8L26.02,222.7L28.19,241.82L30.36,257.69L32.53,259.62L36.87,264.58L39.04,268.81L41.2,269.94L43.37,269.67L45.54,257.05L47.71,259.91L49.88,266.7L52.05,282.6L54.22,291.85L56.39,292.32L58.55,291.67L60.72,292.85L62.89,293.43L65.06,298.76L67.23,298.49L69.4,300.84L71.57,302.49L73.73,302.51L75.9,303.16L78.07,302.3L82.41,303.9L84.58,302.92L86.75,305.96L88.92,306.54L91.08,306.64L93.25,308.38L95.42,308.02L97.59,309.1L99.76,308.67L101.93,310.92L104.1,310.25L106.27,310.74L110.6,310.22L112.77,311.08L117.11,311.73L119.28,311.98L121.45,311.73L123.61,312.43L125.78,312.19L127.95,312.85L132.29,312.93L134.46,314.44L140.96,315.15L143.13,315.61L149.64,316.79L151.81,316.61L156.14,316.99L158.31,316.77L199.52,317.3L201.69,317.79L214.7,317.99L216.87,318.05L266.75,318.71L268.92,318.97L292.77,319.38L294.94,319.33L368.67,319.63L370.84,319.65L540,319.84" style="vector-effect: non-scaling-stroke; fill: none; stroke: rgb(182, 232, 128); stroke-opacity: 1; stroke-width: 2px; opacity: 1;"/></g><g class="points"/><g class="text"/></g><g class="trace scatter tracee0dd8e" style="stroke-miterlimit: 2; opacity: 1;"><g class="fills"/><g class="errorbars"/><g class="lines"><path class="js-line" d="M0,100.61L2.17,100.15L4.34,161L8.67,214.98L10.84,218.94L13.01,212.11L15.18,228.18L17.35,251.1L19.52,251.65L21.69,270.89L23.86,275.39L28.19,295.18L30.36,293.22L32.53,294.18L34.7,287.07L36.87,295.69L39.04,295.87L43.37,298.61L45.54,298.81L47.71,297.62L49.88,298.24L54.22,303.35L56.39,303.18L62.89,302.32L65.06,304.2L69.4,308.16L71.57,308.7L73.73,308.44L75.9,309.65L80.24,309.42L82.41,311.34L86.75,312.18L88.92,311.57L104.1,315.12L106.27,314.27L114.94,314.14L117.11,314.56L125.78,315.63L127.95,315.94L162.65,316.85L164.82,316.49L173.49,316.77L175.66,316.67L199.52,317.32L201.69,317.49L216.87,317.28L219.04,317.25L225.54,317.52L227.71,317.7L247.23,318.34L249.4,318.55L286.27,318.96L288.43,319.07L446.75,319.81L448.92,319.81L483.61,319.9L485.78,319.89L540,319.92" style="vector-effect: non-scaling-stroke; fill: none; stroke: rgb(255, 151, 255); stroke-opacity: 1; stroke-width: 2px; opacity: 1;"/></g><g class="points"/><g class="text"/></g><g class="trace scatter trace9eaa62" style="stroke-miterlimit: 2; opacity: 1;"><g class="fills"/><g class="errorbars"/><g class="lines"><path class="js-line" d="M0,35.36L2.17,42.39L4.34,80.28L6.51,95.57L8.67,149.26L10.84,179.3L13.01,156.67L15.18,162.6L17.35,194.26L19.52,215.56L21.69,224.96L23.86,231.43L26.02,234.43L28.19,245.36L30.36,241.57L32.53,241.21L34.7,247.34L36.87,257.7L39.04,258.47L41.2,257.13L43.37,275.85L47.71,272.78L49.88,275.79L52.05,285.34L54.22,288.9L56.39,292.31L58.55,297.45L60.72,302L62.89,303.3L65.06,302.6L67.23,301.11L69.4,301.13L71.57,302.97L73.73,301.77L75.9,305.14L80.24,300.55L82.41,296.97L84.58,293.61L86.75,292.85L91.08,296.31L93.25,297.53L95.42,299.76L97.59,299.5L101.93,305.87L104.1,306.59L106.27,308.98L108.43,309.6L112.77,304.34L114.94,305.53L119.28,308.11L121.45,310.91L125.78,313.82L127.95,312.62L130.12,313.83L132.29,314L134.46,314.6L136.63,314.26L140.96,315.09L143.13,314.78L158.31,315L160.48,315.89L166.99,316.26L169.16,315.85L180,316.87L182.17,316.91L208.19,317.61L210.36,317.59L238.55,317.14L240.72,317.76L255.9,318.17L258.07,318.18L264.58,318.35L266.75,318.33L292.77,318.8L294.94,318.68L323.13,319.29L325.3,319.31L416.39,319.83L418.55,319.83L457.59,319.84L459.76,319.86L540,319.81" style="vector-effect: non-scaling-stroke; fill: none; stroke: rgb(254, 203, 82); stroke-opacity: 1; stroke-width: 2px; opacity: 1;"/></g><g class="points"/><g class="text"/></g><g class="trace scatter tracecc34a2" style="stroke-miterlimit: 2; opacity: 1;"><g class="fills"/><g class="errorbars"/><g class="lines"><path class="js-line" d="M0,79.29L2.17,107.2L4.34,165.05L8.67,225.99L10.84,242.92L13.01,233.57L15.18,234.22L17.35,247.72L19.52,252.23L23.86,267.16L26.02,269.3L28.19,283.05L30.36,284.08L32.53,289.34L34.7,288.72L36.87,291.83L39.04,293.57L41.2,297.25L43.37,294.71L45.54,293.55L47.71,295.4L49.88,301.56L52.05,304.05L54.22,306.71L56.39,306.98L60.72,309.58L62.89,310.56L80.24,311.63L82.41,311.98L84.58,311.44L86.75,311.75L88.92,311.6L91.08,312.45L97.59,312.59L99.76,312.94L106.27,314.47L108.43,314.5L117.11,314.44L119.28,314.82L130.12,314.63L132.29,314.94L138.8,315.82L140.96,315.75L151.81,316.31L153.98,316.53L164.82,316.56L166.99,316.49L184.34,316.96L186.51,317.24L197.35,317.99L199.52,317.79L219.04,317.78L221.2,317.68L242.89,318.94L245.06,318.88L253.73,319.05L255.9,318.95L275.42,318.66L277.59,318.74L294.94,318.89L297.11,318.95L540,319.74" style="vector-effect: non-scaling-stroke; fill: none; stroke: rgb(99, 110, 250); stroke-opacity: 1; stroke-width: 2px; opacity: 1;"/></g><g class="points"/><g class="text"/></g><g class="trace scatter trace26cfd0" style="stroke-miterlimit: 2; opacity: 1;"><g class="fills"/><g class="errorbars"/><g class="lines"><path class="js-line" d="M0,48.73L4.34,114.09L6.51,170.46L10.84,219.87L13.01,203.61L15.18,228.31L17.35,233.54L21.69,260.39L23.86,264.43L26.02,261.9L28.19,277.59L30.36,280.56L32.53,276.81L34.7,272.42L36.87,278.98L39.04,280.04L41.2,282.28L43.37,287.09L45.54,283.81L47.71,287.99L49.88,290.45L52.05,297.18L54.22,301.39L56.39,300.49L58.55,301.52L60.72,302.85L62.89,302.45L69.4,304.73L71.57,308.59L73.73,309.63L75.9,312.23L78.07,312.29L80.24,311.17L82.41,311.54L84.58,310.07L88.92,312.23L91.08,312.61L95.42,312.76L97.59,312.75L106.27,314.88L108.43,314.77L117.11,315.24L119.28,315.28L123.61,315.56L125.78,316.03L132.29,316.27L134.46,316.42L171.33,317.75L173.49,318.13L182.17,317.71L184.34,317.67L195.18,317.8L197.35,317.86L208.19,318.14L210.36,317.9L221.2,317.72L223.37,318.01L234.22,317.75L236.39,317.81L242.89,318.26L245.06,318.24L268.92,318.18L271.08,318.22L294.94,318.94L297.11,318.89L409.88,319.45L412.05,319.13L438.07,319.3L440.24,319.28L455.42,319.23L457.59,319.21L466.27,319.46L468.43,319.48L540,319.08" style="vector-effect: non-scaling-stroke; fill: none; stroke: rgb(239, 85, 59); stroke-opacity: 1; stroke-width: 2px; opacity: 1;"/></g><g class="points"/><g class="text"/></g><g class="trace scatter traceabb8b6" style="stroke-miterlimit: 2; opacity: 1;"><g class="fills"/><g class="errorbars"/><g class="lines"><path class="js-line" d="M0,53.5L2.17,57.84L4.34,54.13L6.51,33.21L8.67,50.48L10.84,32.85L13.01,34.33L15.18,20.83L17.35,44.2L19.52,54.52L21.69,60.88L23.86,78.72L26.02,73.48L28.19,76.91L30.36,73.66L32.53,74.76L34.7,44.98L36.87,61.47L39.04,48.43L41.2,52.21L43.37,57.96L45.54,55.68L47.71,48.34L49.88,54.48L52.05,43.59L54.22,43.54L56.39,46.65L58.55,50.66L60.72,57.27L62.89,52.93L65.06,60.91L67.23,55.11L69.4,63.76L71.57,86.87L73.73,89.9L75.9,80L78.07,75.56L80.24,71.97L82.41,74.73L84.58,73.24L86.75,74.29L88.92,89.19L91.08,84.18L93.25,80.42L95.42,69.27L97.59,73.64L99.76,72.55L101.93,65.73L104.1,71.08L106.27,73.03L108.43,71.39L110.6,75.53L112.77,77.66L114.94,73.76L117.11,72.52L119.28,65.3L121.45,64.13L123.61,63.82L125.78,73.41L127.95,70.72L130.12,71.04L132.29,76.61L134.46,73.66L136.63,71.96L138.8,76.45L140.96,76.21L143.13,66.79L145.3,68.88L147.47,61.23L149.64,65.05L151.81,62.68L156.14,71.26L158.31,69.06L160.48,76.63L162.65,73.58L164.82,68.94L166.99,72.87L171.33,76.17L173.49,85.26L177.83,94.17L180,89.98L182.17,85.05L184.34,75.92L186.51,83.63L188.67,87.59L190.84,93.51L193.01,89.11L195.18,88.57L197.35,91.47L203.86,60.44L206.02,68.35L208.19,65.89L210.36,71.82L212.53,75.58L214.7,73.6L216.87,70.75L219.04,72.74L221.2,74.25L223.37,72.05L225.54,76.35L227.71,72.14L229.88,64.16L232.05,66.48L234.22,69.33L236.39,65.61L238.55,58.91L240.72,59.59L242.89,64.01L245.06,62.94L247.23,60.96L249.4,62.54L251.57,67.18L253.73,68.41L255.9,58.1L258.07,63.94L260.24,61.44L262.41,68.25L264.58,64.19L266.75,63.48L268.92,70.35L271.08,60.53L273.25,66.61L275.42,62.64L277.59,72.3L279.76,69.96L281.93,71.39L284.1,67.7L286.27,66.18L288.43,68.69L290.6,66.59L292.77,69.17L297.11,69.32L299.28,71.28L303.61,69.66L305.78,70.1L307.95,65.58L310.12,65.12L314.46,62.18L316.63,63.25L318.8,65.28L320.96,65.83L325.3,75.45L327.47,77.24L329.64,70.12L331.81,66.85L333.98,71.37L336.14,67.26L338.31,72.57L340.48,68.42L342.65,66.73L344.82,71.97L346.99,71.1L349.16,67.41L353.49,69.11L355.66,71.4L357.83,74.82L360,79.9L362.17,72.54L364.34,76.44L366.51,71.3L368.67,74.7L370.84,72.94L373.01,69.09L375.18,69.91L377.35,69.52L379.52,68.49L381.69,62.22L383.86,65.83L386.02,71.09L388.19,69.96L390.36,75.17L392.53,72.54L394.7,67.68L396.87,68.31L399.04,67.21L401.2,70.75L403.37,68.42L405.54,70.2L407.71,65.42L409.88,68.6L412.05,76.63L414.22,75.17L416.39,76.41L418.55,77.79L420.72,72.83L422.89,72.88L425.06,71.4L431.57,65.59L433.73,70.85L435.9,76.3L438.07,70.22L440.24,68.64L442.41,69.82L444.58,70.89L446.75,66.7L451.08,58.91L453.25,56.27L455.42,57.04L457.59,55.44L461.93,46.43L464.1,46.76L466.27,49.32L468.43,45.45L470.6,50.11L472.77,51.33L474.94,52.16L477.11,43.95L479.28,38L481.45,39.6L483.61,39.25L485.78,42.85L487.95,39.81L490.12,42.62L494.46,49.67L496.63,50.67L498.8,52.99L500.96,46.71L503.13,45.29L505.3,48.14L507.47,51.98L509.64,45.16L511.81,44.98L513.98,42.89L516.14,46.07L518.31,46.49L520.48,44.82L522.65,44.61L526.99,36.93L529.16,35.83L531.33,37.14L533.49,33.41L537.83,34.98L540,30.58" style="vector-effect: non-scaling-stroke; fill: none; stroke: rgb(0, 204, 150); stroke-opacity: 1; stroke-width: 2px; opacity: 1;"/></g><g class="points"/><g class="text"/></g><g class="trace scatter traceff30fb" style="stroke-miterlimit: 2; opacity: 1;"><g class="fills"/><g class="errorbars"/><g class="lines"><path class="js-line" d="M0,67.98L2.17,129.52L4.34,159.19L6.51,196.96L8.67,214.91L10.84,231.2L13.01,225.41L15.18,227.39L17.35,235.52L23.86,268.65L26.02,268.57L28.19,283.6L30.36,286.84L32.53,290.32L34.7,287.65L36.87,292.21L39.04,291.23L43.37,298.72L45.54,297.29L49.88,299.17L52.05,304.99L54.22,307.01L56.39,307.15L58.55,308.47L60.72,306.7L62.89,309.99L65.06,310.21L78.07,314.87L80.24,315.24L86.75,314.98L88.92,314.7L93.25,315.28L95.42,315.35L101.93,315.54L104.1,315.63L110.6,315.65L112.77,315.58L130.12,317.38L132.29,317.41L145.3,317.85L147.47,318.21L188.67,317.89L190.84,318.1L229.88,318.37L232.05,318.05L264.58,318.16L266.75,318.09L281.93,318.14L284.1,318.32L288.43,318.52L290.6,318.55L299.28,318.29L301.45,318.4L316.63,318.72L318.8,318.95L329.64,319.06L331.81,319.09L375.18,319.58L377.35,319.68L440.24,319.83L442.41,319.81L540,319.9" style="vector-effect: non-scaling-stroke; fill: none; stroke: rgb(171, 99, 250); stroke-opacity: 1; stroke-width: 2px; opacity: 1;"/></g><g class="points"/><g class="text"/></g><g class="trace scatter tracefd03ca" style="stroke-miterlimit: 2; opacity: 1;"><g class="fills"/><g class="errorbars"/><g class="lines"><path class="js-line" d="M0,88.44L2.17,108.67L4.34,118.63L8.67,183.51L10.84,193.41L13.01,150.31L15.18,182.52L17.35,207.31L19.52,216.71L21.69,230.57L23.86,236.14L26.02,234.41L28.19,255.71L30.36,263.77L32.53,266.96L34.7,270.76L36.87,270.14L39.04,275.34L41.2,276.31L43.37,274.46L45.54,265.81L47.71,269.29L49.88,276.04L52.05,291.98L54.22,296.67L56.39,298.89L58.55,297.45L60.72,295.69L62.89,296.93L65.06,300.15L67.23,299.91L69.4,302.85L71.57,303.9L73.73,302.99L75.9,303.55L78.07,304.13L80.24,303.58L82.41,303.84L84.58,303.1L86.75,305.12L88.92,305.73L91.08,306.75L93.25,308.96L97.59,309.82L99.76,308.76L101.93,311.67L104.1,310.6L114.94,311.25L117.11,311.88L119.28,312.44L121.45,312.22L132.29,313.51L134.46,314.95L143.13,316.06L145.3,316.53L149.64,317.18L151.81,317.12L253.73,319.03L255.9,318.78L268.92,318.57L271.08,318.62L286.27,318.9L288.43,318.96L297.11,319.17L299.28,319.09L312.29,319.07L314.46,319.07L338.31,319.43L340.48,319.44L540,319.92" style="vector-effect: non-scaling-stroke; fill: none; stroke: rgb(255, 161, 90); stroke-opacity: 1; stroke-width: 2px; opacity: 1;"/></g><g class="points"/><g class="text"/></g><g class="trace scatter tracebd9540" style="stroke-miterlimit: 2; opacity: 1;"><g class="fills"/><g class="errorbars"/><g class="lines"><path class="js-line" d="M0,102.08L4.34,156.06L6.51,191.64L8.67,211.71L10.84,217.86L13.01,218.07L15.18,241.87L17.35,251.41L19.52,252.19L21.69,266.39L23.86,265.3L28.19,284.3L30.36,284.84L32.53,287.8L34.7,285.58L36.87,291.6L39.04,291.67L43.37,294.73L45.54,296.02L47.71,295.31L49.88,295.69L52.05,297.21L54.22,303.18L58.55,304.24L60.72,303.01L65.06,305.15L67.23,307.23L80.24,309.06L82.41,311.48L86.75,313.23L88.92,313.34L108.43,315.68L110.6,315.7L114.94,315.52L117.11,315.69L125.78,315.45L127.95,315.75L153.98,317.43L156.14,317.4L162.65,317.29L164.82,317.3L180,317.54L182.17,317.61L225.54,318.86L227.71,318.75L264.58,319.2L266.75,319.19L290.6,319.5L292.77,319.41L481.45,319.62L483.61,319.62L540,319.48" style="vector-effect: non-scaling-stroke; fill: none; stroke: rgb(25, 211, 243); stroke-opacity: 1; stroke-width: 2px; opacity: 1;"/></g><g class="points"/><g class="text"/></g><g class="trace scatter trace8eabc1" style="stroke-miterlimit: 2; opacity: 1;"><g class="fills"/><g class="errorbars"/><g class="lines"><path class="js-line" d="M0,98.16L2.17,115.59L4.34,149.91L6.51,173.7L8.67,207.41L10.84,232.69L13.01,201.18L15.18,203.36L17.35,220.4L19.52,214.99L21.69,243.42L23.86,261.44L26.02,258.24L28.19,274.63L30.36,281.39L32.53,286.19L34.7,284.7L39.04,290.15L41.2,289.24L43.37,290.17L45.54,281.63L52.05,294.4L54.22,300.26L56.39,304.22L58.55,305.43L60.72,305.28L62.89,306.82L67.23,309.93L69.4,310.56L71.57,312.07L73.73,312.34L80.24,312.81L82.41,312.94L84.58,311.17L86.75,311.36L91.08,311.76L93.25,312.48L97.59,313.47L99.76,312.22L101.93,313.08L104.1,312.53L106.27,312.89L108.43,314.07L130.12,316.29L132.29,316.25L138.8,316.93L140.96,316.88L147.47,318.1L149.64,317.81L153.98,317.55L156.14,317.55L193.01,317.66L195.18,317.93L214.7,318.29L216.87,318.19L225.54,318.01L227.71,318.16L236.39,318.54L238.55,318.63L271.08,319.07L273.25,319.12L386.02,319.96L388.19,319.97L540,319.99" style="vector-effect: non-scaling-stroke; fill: none; stroke: rgb(255, 102, 146); stroke-opacity: 1; stroke-width: 2px; opacity: 1;"/></g><g class="points"/><g class="text"/></g><g class="trace scatter trace5f67bf" style="stroke-miterlimit: 2; opacity: 1;"><g class="fills"/><g class="errorbars"/><g class="lines"><path class="js-line" d="M0,67.02L6.51,201.42L8.67,222.45L10.84,228.47L13.01,225.23L15.18,230.62L17.35,246.47L19.52,245.33L21.69,253.54L23.86,260.55L26.02,262.44L28.19,274.01L30.36,275.83L32.53,281.76L34.7,280.47L36.87,287.87L39.04,291L41.2,291.65L43.37,290.58L45.54,288.47L47.71,291.23L49.88,296.42L52.05,299.05L54.22,302.46L56.39,304.15L58.55,305.33L60.72,305.42L62.89,305.21L65.06,307.2L69.4,307.9L71.57,308.87L82.41,310.67L84.58,310.19L86.75,311.23L88.92,311.08L91.08,312.06L93.25,312.04L99.76,312.65L101.93,313.3L110.6,314.06L112.77,314.03L121.45,314.67L123.61,315.09L130.12,315.18L132.29,315.32L143.13,315.81L145.3,315.97L149.64,316.1L151.81,315.8L180,316.69L182.17,316.61L195.18,317.64L197.35,318.11L212.53,317.97L214.7,318.09L242.89,318.55L245.06,318.63L249.4,318.76L251.57,318.71L368.67,319.43L370.84,319.49L403.37,319.69L405.54,319.68L540,319.72" style="vector-effect: non-scaling-stroke; fill: none; stroke: rgb(182, 232, 128); stroke-opacity: 1; stroke-width: 2px; opacity: 1;"/></g><g class="points"/><g class="text"/></g><g class="trace scatter trace453711" style="stroke-miterlimit: 2; opacity: 1;"><g class="fills"/><g class="errorbars"/><g class="lines"><path class="js-line" d="M0,73.25L2.17,97.59L4.34,139.23L10.84,201.98L13.01,204.86L15.18,196.44L17.35,216.52L19.52,238.7L21.69,236.51L26.02,247L28.19,261.33L30.36,266.55L32.53,264.04L34.7,265.71L36.87,270.63L39.04,271.56L41.2,283.79L43.37,289.35L45.54,290.04L47.71,290.75L49.88,293.47L52.05,298.86L54.22,299.25L56.39,300.26L58.55,300.29L60.72,299.93L62.89,302.55L65.06,302.9L67.23,301.39L69.4,302.46L71.57,305.16L73.73,305.83L75.9,307.95L82.41,308.25L84.58,304.45L86.75,307.4L88.92,308.48L108.43,313.21L110.6,312.66L119.28,312.93L121.45,313.08L125.78,313.89L127.95,313.59L130.12,313.46L132.29,314.15L140.96,314.07L143.13,314.46L149.64,315.49L151.81,315.44L162.65,315.81L164.82,315.76L182.17,315.93L184.34,316.27L206.02,317.2L208.19,317.5L245.06,317.12L247.23,317.3L271.08,317.57L273.25,317.65L294.94,318.22L297.11,318.12L323.13,318.46L325.3,318.36L540,319.82" style="vector-effect: non-scaling-stroke; fill: none; stroke: rgb(255, 151, 255); stroke-opacity: 1; stroke-width: 2px; opacity: 1;"/></g><g class="points"/><g class="text"/></g><g class="trace scatter traced45053" style="stroke-miterlimit: 2; opacity: 1;"><g class="fills"/><g class="errorbars"/><g class="lines"><path class="js-line" d="M0,79.93L4.34,135.93L6.51,167.86L8.67,189.44L10.84,198.53L13.01,159.04L15.18,175.25L17.35,204.17L19.52,212.67L23.86,242.63L26.02,241.97L30.36,265.28L32.53,265.29L34.7,264.84L36.87,268.95L39.04,274.24L41.2,271.89L43.37,276.22L45.54,265.3L47.71,268.91L49.88,267.13L52.05,281.37L54.22,288.72L58.55,289.86L60.72,291.14L62.89,294.03L65.06,295.34L67.23,295.46L69.4,299.04L71.57,299.95L73.73,298.76L78.07,303.09L80.24,304.09L82.41,305.68L84.58,306.19L88.92,307.95L91.08,308.43L93.25,309.3L95.42,309.21L97.59,310.04L99.76,310.04L101.93,311.08L104.1,310.65L108.43,310.17L110.6,309.54L119.28,311.66L121.45,311.62L123.61,312.52L125.78,312.19L130.12,313.53L132.29,313.3L134.46,314.59L136.63,314.54L138.8,314.14L140.96,315.03L149.64,316.42L151.81,316.57L184.34,316.41L186.51,316.2L197.35,317.11L199.52,317.16L210.36,317.89L212.53,317.79L225.54,317.5L227.71,317.74L234.22,317.54L236.39,317.11L240.72,317.52L242.89,317.62L310.12,319.09L312.29,318.88L325.3,319.04L327.47,319L346.99,319.27L349.16,319.32L407.71,319.75L409.88,319.74L540,319.88" style="vector-effect: non-scaling-stroke; fill: none; stroke: rgb(254, 203, 82); stroke-opacity: 1; stroke-width: 2px; opacity: 1;"/></g><g class="points"/><g class="text"/></g></g></g><g class="overplot"/><path class="xlines-above crisp" d="M0,0" style="fill: none;"/><path class="ylines-above crisp" d="M0,0" style="fill: none;"/><g class="overlines-above"/><g class="xaxislayer-above"><g class="xtick"><text text-anchor="middle" x="0" y="433" transform="translate(80,0)" style="font-family: 'Open Sans', verdana, arial, sans-serif; font-size: 12px; fill: rgb(42, 63, 95); fill-opacity: 1; white-space: pre; opacity: 1;">0</text></g><g class="xtick"><text text-anchor="middle" x="0" y="433" style="font-family: 'Open Sans', verdana, arial, sans-serif; font-size: 12px; fill: rgb(42, 63, 95); fill-opacity: 1; white-space: pre; opacity: 1;" transform="translate(188.43,0)">50</text></g><g class="xtick"><text text-anchor="middle" x="0" y="433" style="font-family: 'Open Sans', verdana, arial, sans-serif; font-size: 12px; fill: rgb(42, 63, 95); fill-opacity: 1; white-space: pre; opacity: 1;" transform="translate(296.87,0)">100</text></g><g class="xtick"><text text-anchor="middle" x="0" y="433" style="font-family: 'Open Sans', verdana, arial, sans-serif; font-size: 12px; fill: rgb(42, 63, 95); fill-opacity: 1; white-space: pre; opacity: 1;" transform="translate(405.3,0)">150</text></g><g class="xtick"><text text-anchor="middle" x="0" y="433" style="font-family: 'Open Sans', verdana, arial, sans-serif; font-size: 12px; fill: rgb(42, 63, 95); fill-opacity: 1; white-space: pre; opacity: 1;" transform="translate(513.73,0)">200</text></g></g><g class="yaxislayer-above"><g class="ytick"><text text-anchor="end" x="79" y="4.199999999999999" transform="translate(0,420)" style="font-family: 'Open Sans', verdana, arial, sans-serif; font-size: 12px; fill: rgb(42, 63, 95); fill-opacity: 1; white-space: pre; opacity: 1;">0</text></g><g class="ytick"><text text-anchor="end" x="79" y="4.199999999999999" style="font-family: 'Open Sans', verdana, arial, sans-serif; font-size: 12px; fill: rgb(42, 63, 95); fill-opacity: 1; white-space: pre; opacity: 1;" transform="translate(0,371.37)">1000</text></g><g class="ytick"><text text-anchor="end" x="79" y="4.199999999999999" style="font-family: 'Open Sans', verdana, arial, sans-serif; font-size: 12px; fill: rgb(42, 63, 95); fill-opacity: 1; white-space: pre; opacity: 1;" transform="translate(0,322.73)">2000</text></g><g class="ytick"><text text-anchor="end" x="79" y="4.199999999999999" style="font-family: 'Open Sans', verdana, arial, sans-serif; font-size: 12px; fill: rgb(42, 63, 95); fill-opacity: 1; white-space: pre; opacity: 1;" transform="translate(0,274.1)">3000</text></g><g class="ytick"><text text-anchor="end" x="79" y="4.199999999999999" style="font-family: 'Open Sans', verdana, arial, sans-serif; font-size: 12px; fill: rgb(42, 63, 95); fill-opacity: 1; white-space: pre; opacity: 1;" transform="translate(0,225.45999999999998)">4000</text></g><g class="ytick"><text text-anchor="end" x="79" y="4.199999999999999" style="font-family: 'Open Sans', verdana, arial, sans-serif; font-size: 12px; fill: rgb(42, 63, 95); fill-opacity: 1; white-space: pre; opacity: 1;" transform="translate(0,176.82999999999998)">5000</text></g><g class="ytick"><text text-anchor="end" x="79" y="4.199999999999999" style="font-family: 'Open Sans', verdana, arial, sans-serif; font-size: 12px; fill: rgb(42, 63, 95); fill-opacity: 1; white-space: pre; opacity: 1;" transform="translate(0,128.2)">6000</text></g></g><g class="overaxes-above"/></g></g><g class="polarlayer"/><g class="ternarylayer"/><g class="geolayer"/><g class="funnelarealayer"/><g class="pielayer"/><g class="iciclelayer"/><g class="treemaplayer"/><g class="sunburstlayer"/><g class="glimages"/><defs id="topdefs-e54c4d"><g class="clips"/></defs><g class="layer-above"><g class="imagelayer"/><g class="shapelayer"/></g><g class="infolayer"><g class="g-gtitle"><text class="gtitle" x="35" y="50" text-anchor="start" dy="0em" style="font-family: 'Open Sans', verdana, arial, sans-serif; font-size: 17px; fill: rgb(42, 63, 95); opacity: 1; font-weight: normal; white-space: pre;">Rank Variance: ascad_0-eff_cnn (with early stopping)</text></g><g class="g-xtitle"/><g class="g-ytitle"/></g></svg>