<svg class="main-svg" xmlns="http://www.w3.org/2000/svg" xmlns:xlink="http://www.w3.org/1999/xlink" width="700" height="500" style="" viewBox="0 0 700 500"><rect x="0" y="0" width="700" height="500" style="fill: rgb(255, 255, 255); fill-opacity: 1;"/><defs id="defs-985463"><g class="clips"><clipPath id="clip985463xyplot" class="plotclip"><rect width="540" height="320"/></clipPath><clipPath class="axesclip" id="clip985463x"><rect x="80" y="0" width="540" height="500"/></clipPath><clipPath class="axesclip" id="clip985463y"><rect x="0" y="100" width="700" height="320"/></clipPath><clipPath class="axesclip" id="clip985463xy"><rect x="80" y="100" width="540" height="320"/></clipPath></g><g class="gradients"/><g class="patterns"/></defs><g class="bglayer"><rect class="bg" x="80" y="100" width="540" height="320" style="fill: rgb(237, 237, 237); fill-opacity: 1; stroke-width: 0;"/></g><g class="layer-below"><g class="imagelayer"/><g class="shapelayer"/></g><g class="cartesianlayer"><g class="subplot xy"><g class="layer-subplot"><g class="shapelayer"/><g class="imagelayer"/></g><g class="gridlayer"><g class="x"><path class="xgrid crisp" transform="translate(222.11,0)" d="M0,100v320" style="stroke: rgb(255, 255, 255); stroke-opacity: 1; stroke-width: 1px;"/><path class="xgrid crisp" transform="translate(364.21,0)" d="M0,100v320" style="stroke: rgb(255, 255, 255); stroke-opacity: 1; stroke-width: 1px;"/><path class="xgrid crisp" transform="translate(506.32,0)" d="M0,100v320" style="stroke: rgb(255, 255, 255); stroke-opacity: 1; stroke-width: 1px;"/></g><g class="y"><path class="ygrid crisp" transform="translate(0,415.36)" d="M80,0h540" style="stroke: rgb(255, 255, 255); stroke-opacity: 1; stroke-width: 1px;"/><path class="ygrid crisp" transform="translate(0,375.32)" d="M80,0h540" style="stroke: rgb(255, 255, 255); stroke-opacity: 1; stroke-width: 1px;"/><path class="ygrid crisp" transform="translate(0,335.28999999999996)" d="M80,0h540" style="stroke: rgb(255, 255, 255); stroke-opacity: 1; stroke-width: 1px;"/><path class="ygrid crisp" transform="translate(0,295.25)" d="M80,0h540" style="stroke: rgb(255, 255, 255); stroke-opacity: 1; stroke-width: 1px;"/><path class="ygrid crisp" transform="translate(0,255.22)" d="M80,0h540" style="stroke: rgb(255, 255, 255); stroke-opacity: 1; stroke-width: 1px;"/><path class="ygrid crisp" transform="translate(0,215.18)" d="M80,0h540" style="stroke: rgb(255, 255, 255); stroke-opacity: 1; stroke-width: 1px;"/><path class="ygrid crisp" transform="translate(0,175.14)" d="M80,0h540" style="stroke: rgb(255, 255, 255); stroke-opacity: 1; stroke-width: 1px;"/><path class="ygrid crisp" transform="translate(0,135.11)" d="M80,0h540" style="stroke: rgb(255, 255, 255); stroke-opacity: 1; stroke-width: 1px;"/></g></g><g class="zerolinelayer"><path class="xzl zl crisp" transform="translate(80,0)" d="M0,100v320" style="stroke: rgb(255, 255, 255); stroke-opacity: 1; stroke-width: 1px;"/></g><path class="xlines-below"/><path class="ylines-below"/><g class="overlines-below"/><g class="xaxislayer-below"/><g class="yaxislayer-below"/><g class="overaxes-below"/><g class="plot" transform="translate(80,100)" clip-path="url(#clip985463xyplot)"><g class="scatterlayer mlayer"><g class="trace scatter traceeb449b" style="stroke-miterlimit: 2; opacity: 1;"><g class="fills"/><g class="errorbars"/><g class="lines"><path class="js-line" d="M0,0.9L28.42,13.2L56.84,19.44L113.68,30.28L142.11,37.55L170.53,45.85L198.95,57.05L227.37,68L255.79,82.36L284.21,99.15L312.63,118.36L341.05,136.74L369.47,156.06L397.89,173.49L426.32,195.55L454.74,211.77L483.16,226.5L511.58,243.86L540,258.24" style="vector-effect: non-scaling-stroke; fill: none; stroke: rgb(248, 118, 109); stroke-opacity: 1; stroke-width: 2px; opacity: 1;"/></g><g class="points"/><g class="text"/></g><g class="trace scatter tracedfda9b" style="stroke-miterlimit: 2; opacity: 1;"><g class="fills"/><g class="errorbars"/><g class="lines"><path class="js-line" d="M0,0.37L28.42,12.87L56.84,19.33L85.26,24.56L113.68,31.31L170.53,47.22L198.95,58.98L227.37,73.3L255.79,90.05L284.21,106.77L312.63,127.63L369.47,169.78L397.89,192.15L426.32,211.93L454.74,228.91L483.16,247.48L511.58,263.21L540,280.25" style="vector-effect: non-scaling-stroke; fill: none; stroke: rgb(163, 165, 0); stroke-opacity: 1; stroke-width: 2px; opacity: 1;"/></g><g class="points"/><g class="text"/></g><g class="trace scatter trace0df2a4" style="stroke-miterlimit: 2; opacity: 1;"><g class="fills"/><g class="errorbars"/><g class="lines"><path class="js-line" d="M0,0.63L28.42,12.75L56.84,18.85L113.68,31.32L142.11,39.04L170.53,48.12L198.95,59.91L227.37,74.88L255.79,92.74L312.63,131.79L341.05,155.58L426.32,219.34L454.74,238.55L483.16,258.49L511.58,276.69L540,291.66" style="vector-effect: non-scaling-stroke; fill: none; stroke: rgb(0, 191, 125); stroke-opacity: 1; stroke-width: 2px; opacity: 1;"/></g><g class="points"/><g class="text"/></g><g class="trace scatter tracea94b94" style="stroke-miterlimit: 2; opacity: 1;"><g class="fills"/><g class="errorbars"/><g class="lines"><path class="js-line" d="M0,0.48L28.42,12.5L56.84,19.26L85.26,25.36L113.68,30.52L142.11,38.52L170.53,48.08L198.95,59.3L227.37,73.49L255.79,89.05L284.21,107.64L341.05,146.38L369.47,167.5L397.89,187.6L426.32,206.62L483.16,238.65L511.58,257.93L540,270.84" style="vector-effect: non-scaling-stroke; fill: none; stroke: rgb(0, 176, 246); stroke-opacity: 1; stroke-width: 2px; opacity: 1;"/></g><g class="points"/><g class="text"/></g><g class="trace scatter traceece700" style="stroke-miterlimit: 2; opacity: 1;"><g class="fills"/><g class="errorbars"/><g class="lines"><path class="js-line" d="M0,1.15L28.42,12.69L56.84,18.22L113.68,31.38L142.11,39.25L170.53,49.4L198.95,61.96L227.37,77.24L255.79,94.26L284.21,113.11L312.63,134.2L397.89,201.57L426.32,222.43L454.74,244.06L483.16,263.56L511.58,280.84L540,299.77" style="vector-effect: non-scaling-stroke; fill: none; stroke: rgb(231, 107, 243); stroke-opacity: 1; stroke-width: 2px; opacity: 1;"/></g><g class="points"/><g class="text"/></g><g class="trace scatter trace7e7513" style="stroke-miterlimit: 2; opacity: 1;"><g class="fills"/><g class="errorbars"/><g class="lines"><path class="js-line" d="M0,1.21L28.42,13.31L56.84,19.11L113.68,31.04L142.11,39.12L198.95,57.23L227.37,68.43L255.79,82.23L284.21,97.3L341.05,129.31L369.47,149.63L454.74,206.99L483.16,225.82L540,258.07" style="vector-effect: non-scaling-stroke; fill: none; stroke: rgb(248, 118, 109); stroke-opacity: 1; stroke-width: 2px; opacity: 1;"/></g><g class="points"/><g class="text"/></g><g class="trace scatter trace517900" style="stroke-miterlimit: 2; opacity: 1;"><g class="fills"/><g class="errorbars"/><g class="lines"><path class="js-line" d="M0,1.55L28.42,13.03L56.84,19.08L85.26,25.21L113.68,32.42L142.11,39.42L170.53,49.87L198.95,62.07L227.37,77.15L255.79,94.74L284.21,115.43L341.05,160.16L369.47,183.87L397.89,202.57L426.32,222.57L454.74,241.61L483.16,256.72L540,291.35" style="vector-effect: non-scaling-stroke; fill: none; stroke: rgb(163, 165, 0); stroke-opacity: 1; stroke-width: 2px; opacity: 1;"/></g><g class="points"/><g class="text"/></g><g class="trace scatter trace666d1c" style="stroke-miterlimit: 2; opacity: 1;"><g class="fills"/><g class="errorbars"/><g class="lines"><path class="js-line" d="M0,1.13L28.42,13.29L56.84,18.78L113.68,31.79L142.11,40.36L170.53,50.01L198.95,62.89L227.37,77.61L255.79,95.48L312.63,137.49L341.05,161.08L397.89,203.98L426.32,222.05L454.74,238.85L483.16,256.73L511.58,272.34L540,290.77" style="vector-effect: non-scaling-stroke; fill: none; stroke: rgb(0, 191, 125); stroke-opacity: 1; stroke-width: 2px; opacity: 1;"/></g><g class="points"/><g class="text"/></g><g class="trace scatter trace4d9036" style="stroke-miterlimit: 2; opacity: 1;"><g class="fills"/><g class="errorbars"/><g class="lines"><path class="js-line" d="M0,1.4L28.42,12.86L56.84,19.64L113.68,31.67L142.11,38.61L170.53,47.12L198.95,58.29L227.37,71.49L255.79,86.07L284.21,102.71L312.63,122.3L454.74,222.5L483.16,239.82L511.58,253.41L540,269.27" style="vector-effect: non-scaling-stroke; fill: none; stroke: rgb(0, 176, 246); stroke-opacity: 1; stroke-width: 2px; opacity: 1;"/></g><g class="points"/><g class="text"/></g><g class="trace scatter trace24dd42" style="stroke-miterlimit: 2; opacity: 1;"><g class="fills"/><g class="errorbars"/><g class="lines"><path class="js-line" d="M0,1L28.42,12.5L56.84,18.73L113.68,30.76L142.11,38.83L170.53,47.49L198.95,59.29L227.37,74.35L255.79,90.9L284.21,108.87L312.63,128.06L341.05,151.41L369.47,173.7L397.89,196.73L426.32,218.41L454.74,239.32L483.16,256.69L511.58,274.17L540,293.57" style="vector-effect: non-scaling-stroke; fill: none; stroke: rgb(231, 107, 243); stroke-opacity: 1; stroke-width: 2px; opacity: 1;"/></g><g class="points"/><g class="text"/></g><g class="trace scatter trace4bc1cf" style="stroke-miterlimit: 2; opacity: 1;"><g class="fills"/><g class="errorbars"/><g class="lines"><path class="js-line" d="M0,1.64L28.42,13L56.84,19.36L113.68,31.15L142.11,39.31L170.53,49.1L198.95,61.41L227.37,75.7L255.79,92.48L312.63,130.34L341.05,151.28L397.89,195.82L426.32,218.26L483.16,255.32L511.58,272.01L540,288.84" style="vector-effect: non-scaling-stroke; fill: none; stroke: rgb(248, 118, 109); stroke-opacity: 1; stroke-width: 2px; opacity: 1;"/></g><g class="points"/><g class="text"/></g><g class="trace scatter trace1a974e" style="stroke-miterlimit: 2; opacity: 1;"><g class="fills"/><g class="errorbars"/><g class="lines"><path class="js-line" d="M0,0.51L28.42,13.57L56.84,19.45L85.26,24.5L113.68,31.11L142.11,38.73L170.53,47.92L198.95,59.32L227.37,72.47L255.79,86.56L284.21,102.86L312.63,120.54L341.05,140.25L369.47,160.74L397.89,179.51L454.74,216.13L483.16,232.27L511.58,249.43L540,264.96" style="vector-effect: non-scaling-stroke; fill: none; stroke: rgb(163, 165, 0); stroke-opacity: 1; stroke-width: 2px; opacity: 1;"/></g><g class="points"/><g class="text"/></g><g class="trace scatter trace36c2d4" style="stroke-miterlimit: 2; opacity: 1;"><g class="fills"/><g class="errorbars"/><g class="lines"><path class="js-line" d="M0,1.64L28.42,13.53L56.84,19.62L113.68,32.5L142.11,39.76L198.95,62.32L227.37,74.85L255.79,91.41L284.21,110.74L312.63,130.09L341.05,150.96L369.47,172.5L397.89,192.38L426.32,214.11L454.74,231.79L483.16,251.95L511.58,268L540,284.06" style="vector-effect: non-scaling-stroke; fill: none; stroke: rgb(0, 191, 125); stroke-opacity: 1; stroke-width: 2px; opacity: 1;"/></g><g class="points"/><g class="text"/></g><g class="trace scatter tracea6c6d2" style="stroke-miterlimit: 2; opacity: 1;"><g class="fills"/><g class="errorbars"/><g class="lines"><path class="js-line" d="M0,0.99L28.42,13.57L56.84,19.17L113.68,32.62L142.11,40.4L170.53,51.2L198.95,63.32L227.37,78.08L255.79,95.48L284.21,114.69L312.63,135.97L341.05,157.12L369.47,179.47L426.32,221.46L454.74,240.8L483.16,261.56L511.58,277.12L540,292.71" style="vector-effect: non-scaling-stroke; fill: none; stroke: rgb(0, 176, 246); stroke-opacity: 1; stroke-width: 2px; opacity: 1;"/></g><g class="points"/><g class="text"/></g><g class="trace scatter trace427fe5" style="stroke-miterlimit: 2; opacity: 1;"><g class="fills"/><g class="errorbars"/><g class="lines"><path class="js-line" d="M0,0.73L28.42,12.9L56.84,18.77L142.11,38.15L170.53,47.79L198.95,58.38L227.37,71.29L255.79,85.85L284.21,104.21L312.63,123.96L341.05,139.53L369.47,162.39L397.89,182.95L426.32,204.59L454.74,221.49L483.16,241.38L511.58,258.99L540,274.82" style="vector-effect: non-scaling-stroke; fill: none; stroke: rgb(231, 107, 243); stroke-opacity: 1; stroke-width: 2px; opacity: 1;"/></g><g class="points"/><g class="text"/></g><g class="trace scatter traceb4bba4" style="stroke-miterlimit: 2; opacity: 1;"><g class="fills"/><g class="errorbars"/><g class="lines"><path class="js-line" d="M0,1.65L28.42,12.84L56.84,18.9L113.68,29.39L142.11,37.82L170.53,46.63L198.95,56.38L227.37,69.11L255.79,84.03L284.21,100.92L312.63,119.74L369.47,156.78L397.89,176.19L426.32,194.93L454.74,212.07L483.16,228.19L511.58,245.76L540,261.31" style="vector-effect: non-scaling-stroke; fill: none; stroke: rgb(248, 118, 109); stroke-opacity: 1; stroke-width: 2px; opacity: 1;"/></g><g class="points"/><g class="text"/></g><g class="trace scatter trace25c513" style="stroke-miterlimit: 2; opacity: 1;"><g class="fills"/><g class="errorbars"/><g class="lines"><path class="js-line" d="M0,0.97L28.42,13.16L56.84,19.35L113.68,32.13L142.11,40.13L170.53,48.6L198.95,60.11L227.37,72.42L255.79,89.3L284.21,106.41L312.63,126.89L341.05,147.93L369.47,172.31L397.89,194.45L426.32,214.55L454.74,238.24L483.16,256.04L511.58,274.35L540,296.6" style="vector-effect: non-scaling-stroke; fill: none; stroke: rgb(163, 165, 0); stroke-opacity: 1; stroke-width: 2px; opacity: 1;"/></g><g class="points"/><g class="text"/></g><g class="trace scatter tracef3a120" style="stroke-miterlimit: 2; opacity: 1;"><g class="fills"/><g class="errorbars"/><g class="lines"><path class="js-line" d="M0,0.96L28.42,12.9L56.84,19.15L85.26,26.19L113.68,32.4L142.11,40.47L170.53,50.04L198.95,63.32L227.37,80.99L255.79,99.75L284.21,122.84L312.63,144.76L341.05,168.5L369.47,193.32L397.89,215.56L426.32,236.04L454.74,254.16L483.16,273.65L511.58,289.67L540,305.93" style="vector-effect: non-scaling-stroke; fill: none; stroke: rgb(0, 191, 125); stroke-opacity: 1; stroke-width: 2px; opacity: 1;"/></g><g class="points"/><g class="text"/></g><g class="trace scatter trace773459" style="stroke-miterlimit: 2; opacity: 1;"><g class="fills"/><g class="errorbars"/><g class="lines"><path class="js-line" d="M0,0.57L28.42,12.93L56.84,19.65L85.26,25.22L113.68,32.24L142.11,39.93L170.53,50.68L198.95,63.88L227.37,80.15L284.21,116.63L312.63,142.08L341.05,167.38L369.47,190.2L426.32,231.87L454.74,251.62L483.16,272.06L511.58,286.92L540,303.94" style="vector-effect: non-scaling-stroke; fill: none; stroke: rgb(0, 176, 246); stroke-opacity: 1; stroke-width: 2px; opacity: 1;"/></g><g class="points"/><g class="text"/></g><g class="trace scatter trace92cee3" style="stroke-miterlimit: 2; opacity: 1;"><g class="fills"/><g class="errorbars"/><g class="lines"><path class="js-line" d="M0,0.13L28.42,12.4L56.84,18.95L113.68,30.17L142.11,37.58L170.53,46.81L198.95,57.29L227.37,69.6L255.79,86.41L284.21,104.1L312.63,124.74L397.89,186.62L426.32,207.66L454.74,227.28L483.16,244.74L511.58,261.83L540,276.99" style="vector-effect: non-scaling-stroke; fill: none; stroke: rgb(231, 107, 243); stroke-opacity: 1; stroke-width: 2px; opacity: 1;"/></g><g class="points"/><g class="text"/></g><g class="trace scatter traceff152c" style="stroke-miterlimit: 2; opacity: 1;"><g class="fills"/><g class="errorbars"/><g class="lines"><path class="js-line" d="M0,0.76L28.42,12.78L56.84,19.99L85.26,25.04L113.68,32.8L142.11,40.49L170.53,50.76L198.95,62.91L227.37,78.64L255.79,97.5L284.21,119.51L312.63,143.47L341.05,168.59L369.47,191.87L397.89,217.7L426.32,238.53L454.74,263.27L483.16,282.1L511.58,303.22L540,320" style="vector-effect: non-scaling-stroke; fill: none; stroke: rgb(248, 118, 109); stroke-opacity: 1; stroke-width: 2px; opacity: 1;"/></g><g class="points"/><g class="text"/></g><g class="trace scatter trace2830c1" style="stroke-miterlimit: 2; opacity: 1;"><g class="fills"/><g class="errorbars"/><g class="lines"><path class="js-line" d="M0,0.85L28.42,12.45L56.84,19.44L85.26,24.87L113.68,31.58L142.11,38.7L170.53,47.9L227.37,71.25L255.79,87.51L284.21,104.15L312.63,123.37L341.05,144.61L369.47,164.19L397.89,186.97L426.32,205.95L454.74,223.69L483.16,243.59L511.58,262.07L540,275.45" style="vector-effect: non-scaling-stroke; fill: none; stroke: rgb(163, 165, 0); stroke-opacity: 1; stroke-width: 2px; opacity: 1;"/></g><g class="points"/><g class="text"/></g><g class="trace scatter trace282658" style="stroke-miterlimit: 2; opacity: 1;"><g class="fills"/><g class="errorbars"/><g class="lines"><path class="js-line" d="M0,0.95L28.42,12.81L56.84,19.15L113.68,31.49L142.11,38.6L170.53,47.04L198.95,56.58L227.37,70.22L255.79,85.83L284.21,103.8L312.63,123.34L397.89,194.53L426.32,217.87L454.74,239.51L483.16,257.42L511.58,276.33L540,292.44" style="vector-effect: non-scaling-stroke; fill: none; stroke: rgb(0, 191, 125); stroke-opacity: 1; stroke-width: 2px; opacity: 1;"/></g><g class="points"/><g class="text"/></g><g class="trace scatter trace83fe84" style="stroke-miterlimit: 2; opacity: 1;"><g class="fills"/><g class="errorbars"/><g class="lines"><path class="js-line" d="M0,1.53L28.42,13.01L56.84,18.59L113.68,31L142.11,37.88L170.53,46.36L198.95,57.06L227.37,69.45L255.79,85.66L284.21,99.78L312.63,118.57L341.05,138.82L369.47,158.07L397.89,176.78L426.32,193.25L454.74,211.51L483.16,226.08L540,257.37" style="vector-effect: non-scaling-stroke; fill: none; stroke: rgb(0, 176, 246); stroke-opacity: 1; stroke-width: 2px; opacity: 1;"/></g><g class="points"/><g class="text"/></g><g class="trace scatter traced49ee3" style="stroke-miterlimit: 2; opacity: 1;"><g class="fills"/><g class="errorbars"/><g class="lines"><path class="js-line" d="M0,0.74L28.42,13.18L56.84,19.15L113.68,30.76L142.11,38.43L170.53,46.6L198.95,57.37L227.37,69.81L255.79,85.51L284.21,102.19L312.63,120.63L397.89,181.13L426.32,199.69L454.74,218.98L483.16,237.07L540,270.73" style="vector-effect: non-scaling-stroke; fill: none; stroke: rgb(231, 107, 243); stroke-opacity: 1; stroke-width: 2px; opacity: 1;"/></g><g class="points"/><g class="text"/></g><g class="trace scatter trace724659" style="stroke-miterlimit: 2; opacity: 1;"><g class="fills"/><g class="errorbars"/><g class="lines"><path class="js-line" d="M0,1.15L28.42,13.48L56.84,19.4L113.68,29.66L142.11,36.47L170.53,45.08L198.95,55.29L227.37,66.36L255.79,80.47L284.21,95.52L312.63,114.42L341.05,131.88L369.47,152.37L426.32,191.53L454.74,209.5L511.58,242.72L540,257.24" style="vector-effect: non-scaling-stroke; fill: none; stroke: rgb(248, 118, 109); stroke-opacity: 1; stroke-width: 2px; opacity: 1;"/></g><g class="points"/><g class="text"/></g><g class="trace scatter trace768171" style="stroke-miterlimit: 2; opacity: 1;"><g class="fills"/><g class="errorbars"/><g class="lines"><path class="js-line" d="M0,1.25L28.42,13.12L56.84,19.57L85.26,25.37L113.68,32.03L142.11,40.21L170.53,50.72L198.95,63.26L227.37,77.6L255.79,94.17L284.21,113.93L312.63,131.81L341.05,155.06L369.47,179.22L397.89,199.32L426.32,221.35L454.74,237.23L483.16,258.9L511.58,271.94L540,289.91" style="vector-effect: non-scaling-stroke; fill: none; stroke: rgb(163, 165, 0); stroke-opacity: 1; stroke-width: 2px; opacity: 1;"/></g><g class="points"/><g class="text"/></g><g class="trace scatter tracef06c2d" style="stroke-miterlimit: 2; opacity: 1;"><g class="fills"/><g class="errorbars"/><g class="lines"><path class="js-line" d="M0,1.31L28.42,13.01L56.84,19.08L113.68,31.81L142.11,38.53L170.53,46.9L198.95,57.88L227.37,69.23L255.79,84.59L284.21,98.98L312.63,116.11L369.47,155.08L397.89,175.65L426.32,195.96L454.74,217.51L483.16,232.43L511.58,253.79L540,268.38" style="vector-effect: non-scaling-stroke; fill: none; stroke: rgb(0, 191, 125); stroke-opacity: 1; stroke-width: 2px; opacity: 1;"/></g><g class="points"/><g class="text"/></g><g class="trace scatter trace87d5a6" style="stroke-miterlimit: 2; opacity: 1;"><g class="fills"/><g class="errorbars"/><g class="lines"><path class="js-line" d="M0,0.85L28.42,13.25L56.84,19.02L113.68,31.93L142.11,39.04L170.53,49.28L198.95,61.05L227.37,75.65L255.79,92.68L284.21,111.38L312.63,132.59L341.05,153L369.47,174.57L397.89,197.3L426.32,217.57L511.58,272.25L540,286.65" style="vector-effect: non-scaling-stroke; fill: none; stroke: rgb(0, 176, 246); stroke-opacity: 1; stroke-width: 2px; opacity: 1;"/></g><g class="points"/><g class="text"/></g><g class="trace scatter trace1dbc1d" style="stroke-miterlimit: 2; opacity: 1;"><g class="fills"/><g class="errorbars"/><g class="lines"><path class="js-line" d="M0,1.61L28.42,13.29L56.84,19.91L85.26,25.69L113.68,32.58L142.11,41.57L170.53,52L198.95,64.48L227.37,81.3L255.79,99.09L284.21,119.62L341.05,165.34L369.47,189.38L397.89,209.42L426.32,231.54L454.74,250.71L483.16,268.72L511.58,285.71L540,306.89" style="vector-effect: non-scaling-stroke; fill: none; stroke: rgb(231, 107, 243); stroke-opacity: 1; stroke-width: 2px; opacity: 1;"/></g><g class="points"/><g class="text"/></g><g class="trace scatter traceac07b5" style="stroke-miterlimit: 2; opacity: 1;"><g class="fills"/><g class="errorbars"/><g class="lines"><path class="js-line" d="M0,1.16L28.42,12.87L56.84,19.37L85.26,24.7L113.68,31.86L142.11,39.41L170.53,49.15L198.95,60.73L227.37,76.81L255.79,95.29L284.21,116.59L312.63,136.82L341.05,161.53L369.47,182.83L397.89,205.13L426.32,226.25L454.74,243.86L483.16,260.4L511.58,275.29L540,290.44" style="vector-effect: non-scaling-stroke; fill: none; stroke: rgb(248, 118, 109); stroke-opacity: 1; stroke-width: 2px; opacity: 1;"/></g><g class="points"/><g class="text"/></g><g class="trace scatter trace993339" style="stroke-miterlimit: 2; opacity: 1;"><g class="fills"/><g class="errorbars"/><g class="lines"><path class="js-line" d="M0,1.01L28.42,13.03L56.84,19.07L113.68,31.7L142.11,39.56L170.53,49.46L198.95,61.96L227.37,77.41L255.79,95.41L312.63,137.26L341.05,162.99L426.32,229.46L454.74,249.39L483.16,268.27L511.58,288.45L540,304.3" style="vector-effect: non-scaling-stroke; fill: none; stroke: rgb(163, 165, 0); stroke-opacity: 1; stroke-width: 2px; opacity: 1;"/></g><g class="points"/><g class="text"/></g><g class="trace scatter trace58523c" style="stroke-miterlimit: 2; opacity: 1;"><g class="fills"/><g class="errorbars"/><g class="lines"><path class="js-line" d="M0,0.58L28.42,12.03L56.84,18.43L85.26,24.37L113.68,31.17L170.53,47.32L198.95,56.43L227.37,68.49L255.79,83.74L284.21,98.14L312.63,117.8L341.05,138.35L369.47,161.32L397.89,183.16L426.32,204.06L454.74,221.69L483.16,243.87L540,278.35" style="vector-effect: non-scaling-stroke; fill: none; stroke: rgb(0, 191, 125); stroke-opacity: 1; stroke-width: 2px; opacity: 1;"/></g><g class="points"/><g class="text"/></g><g class="trace scatter trace4812ff" style="stroke-miterlimit: 2; opacity: 1;"><g class="fills"/><g class="errorbars"/><g class="lines"><path class="js-line" d="M0,0.49L28.42,13.23L56.84,18.94L113.68,31.38L142.11,39.74L170.53,49.23L198.95,60.33L227.37,77.02L255.79,95.06L312.63,135.05L341.05,156.7L369.47,179.03L397.89,199.94L426.32,221.98L454.74,241.72L483.16,262.12L511.58,280.61L540,298.52" style="vector-effect: non-scaling-stroke; fill: none; stroke: rgb(0, 176, 246); stroke-opacity: 1; stroke-width: 2px; opacity: 1;"/></g><g class="points"/><g class="text"/></g><g class="trace scatter trace3ab007" style="stroke-miterlimit: 2; opacity: 1;"><g class="fills"/><g class="errorbars"/><g class="lines"><path class="js-line" d="M0,0.99L28.42,13.52L56.84,19.76L85.26,25.39L113.68,32.27L142.11,40.12L170.53,51.63L198.95,64.08L227.37,81.11L255.79,99.56L284.21,121.21L341.05,168.18L369.47,193.16L397.89,216.78L426.32,237.87L483.16,277.3L511.58,293.79L540,314.44" style="vector-effect: non-scaling-stroke; fill: none; stroke: rgb(231, 107, 243); stroke-opacity: 1; stroke-width: 2px; opacity: 1;"/></g><g class="points"/><g class="text"/></g><g class="trace scatter traceeea6ac" style="stroke-miterlimit: 2; opacity: 1;"><g class="fills"/><g class="errorbars"/><g class="lines"><path class="js-line" d="M0,1.26L28.42,12.97L56.84,19.52L113.68,31.05L142.11,39.26L170.53,48.64L198.95,59.81L227.37,72.29L255.79,87.08L284.21,104.14L312.63,122.69L341.05,141.69L369.47,161.98L454.74,217.77L483.16,236.7L511.58,250.43L540,267.9" style="vector-effect: non-scaling-stroke; fill: none; stroke: rgb(248, 118, 109); stroke-opacity: 1; stroke-width: 2px; opacity: 1;"/></g><g class="points"/><g class="text"/></g><g class="trace scatter traceefe342" style="stroke-miterlimit: 2; opacity: 1;"><g class="fills"/><g class="errorbars"/><g class="lines"><path class="js-line" d="M0,0L28.42,12.55L56.84,18.72L85.26,24.64L113.68,32.2L142.11,39.96L170.53,50.25L198.95,61.95L227.37,76.52L255.79,93.39L284.21,108.97L312.63,128.51L341.05,149.6L369.47,170.62L397.89,192.9L454.74,234.41L483.16,251.48L511.58,272.5L540,289.44" style="vector-effect: non-scaling-stroke; fill: none; stroke: rgb(163, 165, 0); stroke-opacity: 1; stroke-width: 2px; opacity: 1;"/></g><g class="points"/><g class="text"/></g><g class="trace scatter trace2fad5a" style="stroke-miterlimit: 2; opacity: 1;"><g class="fills"/><g class="errorbars"/><g class="lines"><path class="js-line" d="M0,1.1L28.42,12.89L56.84,18.74L113.68,30.74L142.11,37.33L170.53,45.19L198.95,57.27L227.37,69.04L255.79,83.67L284.21,100.89L312.63,119.27L341.05,139.49L369.47,162.3L397.89,184.13L426.32,201.79L454.74,225.03L483.16,242.95L511.58,260.79L540,276.37" style="vector-effect: non-scaling-stroke; fill: none; stroke: rgb(0, 191, 125); stroke-opacity: 1; stroke-width: 2px; opacity: 1;"/></g><g class="points"/><g class="text"/></g><g class="trace scatter trace4383a2" style="stroke-miterlimit: 2; opacity: 1;"><g class="fills"/><g class="errorbars"/><g class="lines"><path class="js-line" d="M0,1.58L28.42,13.27L56.84,19.36L113.68,30.52L142.11,37.91L170.53,46.99L198.95,57.27L227.37,70.54L255.79,85.84L284.21,102.94L312.63,122.05L341.05,143.13L369.47,162.5L426.32,202.8L454.74,221.68L511.58,255.22L540,270.05" style="vector-effect: non-scaling-stroke; fill: none; stroke: rgb(0, 176, 246); stroke-opacity: 1; stroke-width: 2px; opacity: 1;"/></g><g class="points"/><g class="text"/></g><g class="trace scatter trace2c70ee" style="stroke-miterlimit: 2; opacity: 1;"><g class="fills"/><g class="errorbars"/><g class="lines"><path class="js-line" d="M0,1.26L28.42,13.09L56.84,19.41L113.68,31.51L142.11,39.11L170.53,48.22L198.95,58.75L227.37,72.57L255.79,89.6L284.21,106.99L312.63,128.3L341.05,148.77L369.47,171.59L397.89,188.8L426.32,208.37L454.74,226.73L483.16,241.56L540,274.66" style="vector-effect: non-scaling-stroke; fill: none; stroke: rgb(231, 107, 243); stroke-opacity: 1; stroke-width: 2px; opacity: 1;"/></g><g class="points"/><g class="text"/></g><g class="trace scatter trace75d66a" style="stroke-miterlimit: 2; opacity: 1;"><g class="fills"/><g class="errorbars"/><g class="lines"><path class="js-line" d="M0,0.87L28.42,12.48L56.84,19.41L85.26,24.43L113.68,31.22L142.11,38.68L170.53,47.98L198.95,59.54L227.37,73.21L255.79,88.82L284.21,106.85L312.63,129.07L341.05,148.66L369.47,171.82L397.89,191.44L483.16,250.28L511.58,267.8L540,285.77" style="vector-effect: non-scaling-stroke; fill: none; stroke: rgb(248, 118, 109); stroke-opacity: 1; stroke-width: 2px; opacity: 1;"/></g><g class="points"/><g class="text"/></g><g class="trace scatter tracec2b89f" style="stroke-miterlimit: 2; opacity: 1;"><g class="fills"/><g class="errorbars"/><g class="lines"><path class="js-line" d="M0,0.85L28.42,12.57L56.84,19.53L113.68,31.9L142.11,40.12L170.53,50.8L198.95,62.56L227.37,74.9L255.79,91.86L284.21,109.97L312.63,131.61L369.47,174.84L397.89,197.69L426.32,219.27L454.74,239.88L483.16,261.75L511.58,280.1L540,298.96" style="vector-effect: non-scaling-stroke; fill: none; stroke: rgb(163, 165, 0); stroke-opacity: 1; stroke-width: 2px; opacity: 1;"/></g><g class="points"/><g class="text"/></g><g class="trace scatter trace4010bb" style="stroke-miterlimit: 2; opacity: 1;"><g class="fills"/><g class="errorbars"/><g class="lines"><path class="js-line" d="M0,0.78L28.42,12.67L56.84,18.53L142.11,36.97L170.53,44.98L198.95,54.56L227.37,68.27L255.79,81.93L284.21,98.81L312.63,115.85L341.05,136.2L369.47,156.77L397.89,179.06L426.32,199.02L454.74,220.79L483.16,236.25L511.58,254.2L540,269.09" style="vector-effect: non-scaling-stroke; fill: none; stroke: rgb(0, 191, 125); stroke-opacity: 1; stroke-width: 2px; opacity: 1;"/></g><g class="points"/><g class="text"/></g><g class="trace scatter trace1c8dd7" style="stroke-miterlimit: 2; opacity: 1;"><g class="fills"/><g class="errorbars"/><g class="lines"><path class="js-line" d="M0,1.36L28.42,13.29L56.84,19.27L85.26,24.58L113.68,31.35L142.11,38.29L170.53,47.38L227.37,71.32L255.79,86.6L284.21,103.44L312.63,122.56L341.05,141.87L369.47,162.41L397.89,182.55L426.32,201.06L454.74,217.63L483.16,235.28L540,267.54" style="vector-effect: non-scaling-stroke; fill: none; stroke: rgb(0, 176, 246); stroke-opacity: 1; stroke-width: 2px; opacity: 1;"/></g><g class="points"/><g class="text"/></g><g class="trace scatter tracef9afa8" style="stroke-miterlimit: 2; opacity: 1;"><g class="fills"/><g class="errorbars"/><g class="lines"><path class="js-line" d="M0,1.3L28.42,12.9L56.84,19.27L113.68,31.2L142.11,39.57L170.53,49.39L198.95,60.25L227.37,75.42L255.79,92.02L284.21,110.04L312.63,132.8L341.05,151.6L369.47,174.14L483.16,254.39L511.58,271.85L540,291.15" style="vector-effect: non-scaling-stroke; fill: none; stroke: rgb(231, 107, 243); stroke-opacity: 1; stroke-width: 2px; opacity: 1;"/></g><g class="points"/><g class="text"/></g><g class="trace scatter tracef0c142" style="stroke-miterlimit: 2; opacity: 1;"><g class="fills"/><g class="errorbars"/><g class="lines"><path class="js-line" d="M0,0.78L28.42,13.05L56.84,19.47L113.68,32.13L142.11,40.15L170.53,48.39L198.95,58.86L227.37,72.17L255.79,86.31L284.21,102.31L312.63,120.31L341.05,137.54L369.47,156.03L397.89,173.21L426.32,191.74L454.74,208.64L483.16,223.03L511.58,238.61L540,252.88" style="vector-effect: non-scaling-stroke; fill: none; stroke: rgb(248, 118, 109); stroke-opacity: 1; stroke-width: 2px; opacity: 1;"/></g><g class="points"/><g class="text"/></g><g class="trace scatter trace4e92de" style="stroke-miterlimit: 2; opacity: 1;"><g class="fills"/><g class="errorbars"/><g class="lines"><path class="js-line" d="M0,0.44L28.42,13.04L56.84,19.02L113.68,30.76L142.11,38.14L170.53,46.54L198.95,57.08L227.37,70.57L255.79,85.28L284.21,102.88L312.63,122.37L341.05,141.68L369.47,163.34L397.89,181.58L426.32,202.16L454.74,221.42L483.16,239.17L511.58,256.12L540,270.61" style="vector-effect: non-scaling-stroke; fill: none; stroke: rgb(163, 165, 0); stroke-opacity: 1; stroke-width: 2px; opacity: 1;"/></g><g class="points"/><g class="text"/></g><g class="trace scatter trace2cd498" style="stroke-miterlimit: 2; opacity: 1;"><g class="fills"/><g class="errorbars"/><g class="lines"><path class="js-line" d="M0,1.43L28.42,13.21L56.84,19.26L113.68,31.99L142.11,39.69L198.95,60.8L227.37,75.68L284.21,108.92L312.63,128.54L369.47,170.09L397.89,188.69L426.32,208.77L454.74,225.44L540,278.06" style="vector-effect: non-scaling-stroke; fill: none; stroke: rgb(0, 191, 125); stroke-opacity: 1; stroke-width: 2px; opacity: 1;"/></g><g class="points"/><g class="text"/></g><g class="trace scatter trace49209c" style="stroke-miterlimit: 2; opacity: 1;"><g class="fills"/><g class="errorbars"/><g class="lines"><path class="js-line" d="M0,1.22L28.42,13.2L56.84,19.41L85.26,25.55L113.68,32.64L142.11,40.34L170.53,49.75L198.95,62.81L227.37,77.85L255.79,94.01L284.21,113.2L341.05,155.2L369.47,179.21L454.74,244.37L483.16,265.03L511.58,285.34L540,302.4" style="vector-effect: non-scaling-stroke; fill: none; stroke: rgb(0, 176, 246); stroke-opacity: 1; stroke-width: 2px; opacity: 1;"/></g><g class="points"/><g class="text"/></g><g class="trace scatter tracef503a6" style="stroke-miterlimit: 2; opacity: 1;"><g class="fills"/><g class="errorbars"/><g class="lines"><path class="js-line" d="M0,1.36L28.42,13.35L56.84,19.16L142.11,39.65L170.53,51.46L198.95,64.88L227.37,80.04L255.79,95.97L284.21,117.5L312.63,139.95L341.05,160.88L369.47,184.31L397.89,205.25L426.32,227.43L454.74,246.52L511.58,278.75L540,297.2" style="vector-effect: non-scaling-stroke; fill: none; stroke: rgb(231, 107, 243); stroke-opacity: 1; stroke-width: 2px; opacity: 1;"/></g><g class="points"/><g class="text"/></g></g></g><g class="overplot"/><path class="xlines-above crisp" d="" style="fill: none; stroke-width: 1px; stroke: rgb(0, 0, 0); stroke-opacity: 0;"/><path class="ylines-above crisp" d="" style="fill: none; stroke-width: 1px; stroke: rgb(0, 0, 0); stroke-opacity: 0;"/><g class="overlines-above"/><g class="xaxislayer-above"><path class="xtick ticks crisp" d="M0,421v5" transform="translate(80,0)" style="stroke: rgb(51, 51, 51); stroke-opacity: 1; stroke-width: 1px;"/><path class="xtick ticks crisp" d="M0,421v5" transform="translate(222.11,0)" style="stroke: rgb(51, 51, 51); stroke-opacity: 1; stroke-width: 1px;"/><path class="xtick ticks crisp" d="M0,421v5" transform="translate(364.21,0)" style="stroke: rgb(51, 51, 51); stroke-opacity: 1; stroke-width: 1px;"/><path class="xtick ticks crisp" d="M0,421v5" transform="translate(506.32,0)" style="stroke: rgb(51, 51, 51); stroke-opacity: 1; stroke-width: 1px;"/><g class="xtick"><text text-anchor="middle" x="0" y="440.4" transform="translate(80,0)" style="font-family: 'Open Sans', verdana, arial, sans-serif; font-size: 12px; fill: rgb(51, 51, 51); fill-opacity: 1; white-space: pre; opacity: 1;">0</text></g><g class="xtick"><text text-anchor="middle" x="0" y="440.4" style="font-family: 'Open Sans', verdana, arial, sans-serif; font-size: 12px; fill: rgb(51, 51, 51); fill-opacity: 1; white-space: pre; opacity: 1;" transform="translate(222.11,0)">5</text></g><g class="xtick"><text text-anchor="middle" x="0" y="440.4" style="font-family: 'Open Sans', verdana, arial, sans-serif; font-size: 12px; fill: rgb(51, 51, 51); fill-opacity: 1; white-space: pre; opacity: 1;" transform="translate(364.21,0)">10</text></g><g class="xtick"><text text-anchor="middle" x="0" y="440.4" style="font-family: 'Open Sans', verdana, arial, sans-serif; font-size: 12px; fill: rgb(51, 51, 51); fill-opacity: 1; white-space: pre; opacity: 1;" transform="translate(506.32,0)">15</text></g></g><g class="yaxislayer-above"><path class="ytick ticks crisp" d="M79,0h-5" transform="translate(0,415.36)" style="stroke: rgb(51, 51, 51); stroke-opacity: 1; stroke-width: 1px;"/><path class="ytick ticks crisp" d="M79,0h-5" transform="translate(0,375.32)" style="stroke: rgb(51, 51, 51); stroke-opacity: 1; stroke-width: 1px;"/><path class="ytick ticks crisp" d="M79,0h-5" transform="translate(0,335.28999999999996)" style="stroke: rgb(51, 51, 51); stroke-opacity: 1; stroke-width: 1px;"/><path class="ytick ticks crisp" d="M79,0h-5" transform="translate(0,295.25)" style="stroke: rgb(51, 51, 51); stroke-opacity: 1; stroke-width: 1px;"/><path class="ytick ticks crisp" d="M79,0h-5" transform="translate(0,255.22)" style="stroke: rgb(51, 51, 51); stroke-opacity: 1; stroke-width: 1px;"/><path class="ytick ticks crisp" d="M79,0h-5" transform="translate(0,215.18)" style="stroke: rgb(51, 51, 51); stroke-opacity: 1; stroke-width: 1px;"/><path class="ytick ticks crisp" d="M79,0h-5" transform="translate(0,175.14)" style="stroke: rgb(51, 51, 51); stroke-opacity: 1; stroke-width: 1px;"/><path class="ytick ticks crisp" d="M79,0h-5" transform="translate(0,135.11)" style="stroke: rgb(51, 51, 51); stroke-opacity: 1; stroke-width: 1px;"/><g class="ytick"><text text-anchor="end" x="71.6" y="4.199999999999999" transform="translate(0,415.36)" style="font-family: 'Open Sans', verdana, arial, sans-serif; font-size: 12px; fill: rgb(51, 51, 51); fill-opacity: 1; white-space: pre; opacity: 1;">1</text></g><g class="ytick"><text text-anchor="end" x="71.6" y="4.199999999999999" style="font-family: 'Open Sans', verdana, arial, sans-serif; font-size: 12px; fill: rgb(51, 51, 51); fill-opacity: 1; white-space: pre; opacity: 1;" transform="translate(0,375.32)">1.1</text></g><g class="ytick"><text text-anchor="end" x="71.6" y="4.199999999999999" style="font-family: 'Open Sans', verdana, arial, sans-serif; font-size: 12px; fill: rgb(51, 51, 51); fill-opacity: 1; white-space: pre; opacity: 1;" transform="translate(0,335.28999999999996)">1.2</text></g><g class="ytick"><text text-anchor="end" x="71.6" y="4.199999999999999" style="font-family: 'Open Sans', verdana, arial, sans-serif; font-size: 12px; fill: rgb(51, 51, 51); fill-opacity: 1; white-space: pre; opacity: 1;" transform="translate(0,295.25)">1.3</text></g><g class="ytick"><text text-anchor="end" x="71.6" y="4.199999999999999" style="font-family: 'Open Sans', verdana, arial, sans-serif; font-size: 12px; fill: rgb(51, 51, 51); fill-opacity: 1; white-space: pre; opacity: 1;" transform="translate(0,255.22)">1.4</text></g><g class="ytick"><text text-anchor="end" x="71.6" y="4.199999999999999" style="font-family: 'Open Sans', verdana, arial, sans-serif; font-size: 12px; fill: rgb(51, 51, 51); fill-opacity: 1; white-space: pre; opacity: 1;" transform="translate(0,215.18)">1.5</text></g><g class="ytick"><text text-anchor="end" x="71.6" y="4.199999999999999" style="font-family: 'Open Sans', verdana, arial, sans-serif; font-size: 12px; fill: rgb(51, 51, 51); fill-opacity: 1; white-space: pre; opacity: 1;" transform="translate(0,175.14)">1.6</text></g><g class="ytick"><text text-anchor="end" x="71.6" y="4.199999999999999" style="font-family: 'Open Sans', verdana, arial, sans-serif; font-size: 12px; fill: rgb(51, 51, 51); fill-opacity: 1; white-space: pre; opacity: 1;" transform="translate(0,135.11)">1.7</text></g></g><g class="overaxes-above"/></g></g><g class="polarlayer"/><g class="ternarylayer"/><g class="geolayer"/><g class="funnelarealayer"/><g class="pielayer"/><g class="iciclelayer"/><g class="treemaplayer"/><g class="sunburstlayer"/><g class="glimages"/><defs id="topdefs-985463"><g class="clips"/></defs><g class="layer-above"><g class="imagelayer"/><g class="shapelayer"/></g><g class="infolayer"><g class="g-gtitle"><text class="gtitle" x="350" y="50" text-anchor="middle" dy="0em" style="font-family: 'Open Sans', verdana, arial, sans-serif; font-size: 17px; fill: rgb(51, 51, 51); opacity: 1; font-weight: normal; white-space: pre;">Train Loss: ascad_0_noisy-aisy_hw_mlp (early_stopping)</text></g><g class="g-xtitle"/><g class="g-ytitle"/></g></svg>