<svg class="main-svg" xmlns="http://www.w3.org/2000/svg" xmlns:xlink="http://www.w3.org/1999/xlink" width="700" height="500" style="" viewBox="0 0 700 500"><rect x="0" y="0" width="700" height="500" style="fill: rgb(255, 255, 255); fill-opacity: 1;"/><defs id="defs-47606a"><g class="clips"><clipPath id="clip47606axyplot" class="plotclip"><rect width="540" height="320"/></clipPath><clipPath class="axesclip" id="clip47606ax"><rect x="80" y="0" width="540" height="500"/></clipPath><clipPath class="axesclip" id="clip47606ay"><rect x="0" y="100" width="700" height="320"/></clipPath><clipPath class="axesclip" id="clip47606axy"><rect x="80" y="100" width="540" height="320"/></clipPath></g><g class="gradients"/><g class="patterns"/></defs><g class="bglayer"><rect class="bg" x="80" y="100" width="540" height="320" style="fill: rgb(229, 236, 246); fill-opacity: 1; stroke-width: 0;"/></g><g class="layer-below"><g class="imagelayer"/><g class="shapelayer"/></g><g class="cartesianlayer"><g class="subplot xy"><g class="layer-subplot"><g class="shapelayer"/><g class="imagelayer"/></g><g class="gridlayer"><g class="x"><path class="xgrid crisp" transform="translate(190.2,0)" d="M0,100v320" style="stroke: rgb(255, 255, 255); stroke-opacity: 1; stroke-width: 1px;"/><path class="xgrid crisp" transform="translate(300.40999999999997,0)" d="M0,100v320" style="stroke: rgb(255, 255, 255); stroke-opacity: 1; stroke-width: 1px;"/><path class="xgrid crisp" transform="translate(410.61,0)" d="M0,100v320" style="stroke: rgb(255, 255, 255); stroke-opacity: 1; stroke-width: 1px;"/><path class="xgrid crisp" transform="translate(520.8199999999999,0)" d="M0,100v320" style="stroke: rgb(255, 255, 255); stroke-opacity: 1; stroke-width: 1px;"/></g><g class="y"><path class="ygrid crisp" transform="translate(0,404.78)" d="M80,0h540" style="stroke: rgb(255, 255, 255); stroke-opacity: 1; stroke-width: 1px;"/><path class="ygrid crisp" transform="translate(0,358.32)" d="M80,0h540" style="stroke: rgb(255, 255, 255); stroke-opacity: 1; stroke-width: 1px;"/><path class="ygrid crisp" transform="translate(0,311.87)" d="M80,0h540" style="stroke: rgb(255, 255, 255); stroke-opacity: 1; stroke-width: 1px;"/><path class="ygrid crisp" transform="translate(0,265.41999999999996)" d="M80,0h540" style="stroke: rgb(255, 255, 255); stroke-opacity: 1; stroke-width: 1px;"/><path class="ygrid crisp" transform="translate(0,218.95999999999998)" d="M80,0h540" style="stroke: rgb(255, 255, 255); stroke-opacity: 1; stroke-width: 1px;"/><path class="ygrid crisp" transform="translate(0,172.51)" d="M80,0h540" style="stroke: rgb(255, 255, 255); stroke-opacity: 1; stroke-width: 1px;"/><path class="ygrid crisp" transform="translate(0,126.05)" d="M80,0h540" style="stroke: rgb(255, 255, 255); stroke-opacity: 1; stroke-width: 1px;"/></g></g><g class="zerolinelayer"><path class="xzl zl crisp" transform="translate(80,0)" d="M0,100v320" style="stroke: rgb(255, 255, 255); stroke-opacity: 1; stroke-width: 2px;"/></g><path class="xlines-below"/><path class="ylines-below"/><g class="overlines-below"/><g class="xaxislayer-below"/><g class="yaxislayer-below"/><g class="overaxes-below"/><g class="plot" transform="translate(80,100)" clip-path="url(#clip47606axyplot)"><g class="scatterlayer mlayer"><g class="trace scatter trace4969b9" style="stroke-miterlimit: 2; opacity: 1;"><g class="fills"/><g class="errorbars"/><g class="lines"><path class="js-line" d="M0,8.62L11.02,21.85L22.04,27.85L33.06,30.93L44.08,33.23L66.12,37.93L77.14,38.92L88.16,41.38L99.18,42.67L121.22,45.79L132.24,46.69L154.29,48.68L165.31,51.84L176.33,65.15L187.35,83.8L198.37,90.02L209.39,102.29L220.41,106.81L231.43,117.23L253.47,132.9L264.49,148.51L275.51,160.83L286.53,171.41L297.55,183.07L308.57,190.04L319.59,201.09L330.61,207.16L341.63,211.76L352.65,218.18L363.67,224.25L374.69,231.4L396.73,241.16L407.76,247.59L418.78,250.41L429.8,256.27L440.82,260.83L451.84,263.93L462.86,264.96L473.88,266.93L495.92,269.59L506.94,270.58L540,274.9" style="vector-effect: non-scaling-stroke; fill: none; stroke: rgb(99, 110, 250); stroke-opacity: 1; stroke-width: 2px; opacity: 1;"/></g><g class="points"/><g class="text"/></g><g class="trace scatter tracebc6245" style="stroke-miterlimit: 2; opacity: 1;"><g class="fills"/><g class="errorbars"/><g class="lines"><path class="js-line" d="M0,5.91L11.02,22.48L22.04,28.16L55.1,35.3L66.12,36.4L77.14,38.56L88.16,39.28L110.2,44.59L121.22,52.83L132.24,62.12L143.27,69.15L154.29,73.44L165.31,74.91L176.33,78.2L187.35,80.07L209.39,83.91L220.41,84.74L242.45,89.3L253.47,96.95L264.49,103.04L275.51,121.71L286.53,139.3L297.55,152.33L308.57,161.92L319.59,169.68L330.61,178.5L341.63,181.41L352.65,189.62L363.67,195.09L385.71,207.32L396.73,211.13L407.76,217.41L418.78,222.6L440.82,232.93L451.84,235.4L484.9,240.33L495.92,241.62L540,246.4" style="vector-effect: non-scaling-stroke; fill: none; stroke: rgb(239, 85, 59); stroke-opacity: 1; stroke-width: 2px; opacity: 1;"/></g><g class="points"/><g class="text"/></g><g class="trace scatter trace92a788" style="stroke-miterlimit: 2; opacity: 1;"><g class="fills"/><g class="errorbars"/><g class="lines"><path class="js-line" d="M0,6.25L11.02,23.1L22.04,28.3L55.1,35.1L66.12,36.51L77.14,38.51L88.16,39.56L110.2,44.53L121.22,50.11L132.24,60.11L143.27,67.99L154.29,77.35L165.31,87.78L176.33,102.57L187.35,114.54L198.37,121.01L209.39,130.69L220.41,137.78L231.43,146.09L242.45,156.18L253.47,164.87L264.49,172.97L275.51,179.9L286.53,185.25L297.55,195.1L308.57,198.53L319.59,205.69L330.61,211.66L341.63,214.49L352.65,220.49L363.67,227.93L374.69,232.26L385.71,238.04L396.73,242.22L407.76,248.35L440.82,262.57L451.84,265.4L495.92,271.52L506.94,272.49L540,276.16" style="vector-effect: non-scaling-stroke; fill: none; stroke: rgb(0, 204, 150); stroke-opacity: 1; stroke-width: 2px; opacity: 1;"/></g><g class="points"/><g class="text"/></g><g class="trace scatter trace5942ac" style="stroke-miterlimit: 2; opacity: 1;"><g class="fills"/><g class="errorbars"/><g class="lines"><path class="js-line" d="M0,6.07L11.02,22.77L22.04,28.17L55.1,35.35L66.12,36.74L88.16,39.71L99.18,42.35L110.2,45.87L121.22,55.69L132.24,64.16L143.27,70.58L154.29,74.78L165.31,75.25L187.35,82.09L198.37,82.68L209.39,85.49L220.41,87.48L231.43,91.84L242.45,109.87L253.47,131.22L264.49,140.33L275.51,153.83L286.53,159.55L297.55,165.85L308.57,174.59L330.61,189.39L341.63,192.82L352.65,201.14L363.67,205.16L385.71,215.28L396.73,218.68L407.76,225.59L418.78,228.73L429.8,234.78L440.82,239.74L451.84,242.45L462.86,243.39L484.9,246.5L495.92,247.89L506.94,248.52L517.96,250.17L540,252.42" style="vector-effect: non-scaling-stroke; fill: none; stroke: rgb(171, 99, 250); stroke-opacity: 1; stroke-width: 2px; opacity: 1;"/></g><g class="points"/><g class="text"/></g><g class="trace scatter trace9cf4d3" style="stroke-miterlimit: 2; opacity: 1;"><g class="fills"/><g class="errorbars"/><g class="lines"><path class="js-line" d="M0,6.17L11.02,22.73L22.04,28.03L55.1,35.16L66.12,36.42L77.14,38.45L88.16,39.05L110.2,43.51L121.22,48.8L132.24,59.79L143.27,67.8L154.29,73.15L165.31,74.04L187.35,81.09L198.37,83.21L209.39,91.94L220.41,103.49L231.43,119.25L242.45,128.3L253.47,145.11L264.49,152.93L275.51,162.1L286.53,169.93L297.55,177.19L308.57,182.27L319.59,188.66L330.61,194.07L341.63,197.78L352.65,203.76L363.67,210.58L374.69,215.15L385.71,220.5L396.73,224.33L418.78,234.92L429.8,240.19L440.82,244.79L451.84,247.2L462.86,249.26L473.88,250.46L495.92,253.62L506.94,254.7L540,258.16" style="vector-effect: non-scaling-stroke; fill: none; stroke: rgb(255, 161, 90); stroke-opacity: 1; stroke-width: 2px; opacity: 1;"/></g><g class="points"/><g class="text"/></g><g class="trace scatter trace0ce5fb" style="stroke-miterlimit: 2; opacity: 1;"><g class="fills"/><g class="errorbars"/><g class="lines"><path class="js-line" d="M0,5.89L11.02,22.63L22.04,27.96L44.08,33.32L55.1,35.31L88.16,39.97L99.18,42.43L110.2,46.17L121.22,57.52L132.24,66.92L143.27,72.15L154.29,75.95L165.31,77.38L176.33,79.21L187.35,81.94L198.37,81.64L209.39,85.44L231.43,87.23L242.45,90.06L253.47,95.24L264.49,99.27L275.51,105.84L286.53,119.57L297.55,137.91L308.57,150.39L330.61,171.19L341.63,174.33L352.65,183.55L363.67,188.95L374.69,196.49L385.71,200.21L396.73,205.26L407.76,212.55L418.78,216.91L429.8,222.33L440.82,227L451.84,229.61L462.86,231.96L473.88,233.29L495.92,236.05L506.94,236.98L540,240.91" style="vector-effect: non-scaling-stroke; fill: none; stroke: rgb(25, 211, 243); stroke-opacity: 1; stroke-width: 2px; opacity: 1;"/></g><g class="points"/><g class="text"/></g><g class="trace scatter trace36d9c9" style="stroke-miterlimit: 2; opacity: 1;"><g class="fills"/><g class="errorbars"/><g class="lines"><path class="js-line" d="M0,5.89L11.02,22.8L22.04,28.21L55.1,35.39L66.12,36.47L77.14,38.76L88.16,39.46L110.2,43.82L121.22,50.02L132.24,59.83L143.27,67.52L154.29,73.54L165.31,74.75L176.33,79.31L187.35,81.79L198.37,82.02L209.39,86.09L220.41,88.8L231.43,94.96L242.45,115.1L253.47,133.57L264.49,147.25L275.51,157.97L308.57,180.01L319.59,186.77L330.61,193.13L341.63,197.41L374.69,215.44L385.71,221L396.73,224.54L407.76,231.38L418.78,235.15L429.8,240.59L440.82,245.51L451.84,247.97L517.96,255.94L528.98,256.94L540,258.29" style="vector-effect: non-scaling-stroke; fill: none; stroke: rgb(255, 102, 146); stroke-opacity: 1; stroke-width: 2px; opacity: 1;"/></g><g class="points"/><g class="text"/></g><g class="trace scatter traceed8971" style="stroke-miterlimit: 2; opacity: 1;"><g class="fills"/><g class="errorbars"/><g class="lines"><path class="js-line" d="M0,5.15L11.02,21.91L22.04,26.7L44.08,32.56L55.1,33.95L77.14,38.31L88.16,39.63L110.2,43.63L121.22,47.61L132.24,61.47L143.27,70.01L154.29,74.28L165.31,76.66L176.33,79.48L187.35,80.46L198.37,80.65L209.39,82.53L220.41,84.68L231.43,87.81L242.45,89.26L253.47,98.1L264.49,114.41L275.51,124.9L297.55,133.12L308.57,139.12L319.59,145.53L330.61,153.76L341.63,159.01L352.65,169.05L363.67,175.94L374.69,185.76L385.71,193.17L396.73,197.49L407.76,205.34L418.78,210.27L440.82,220.04L451.84,223.03L473.88,226.66L484.9,227.59L495.92,228.5L506.94,230.58L517.96,232.43L528.98,232.87L540,233.95" style="vector-effect: non-scaling-stroke; fill: none; stroke: rgb(182, 232, 128); stroke-opacity: 1; stroke-width: 2px; opacity: 1;"/></g><g class="points"/><g class="text"/></g><g class="trace scatter trace6947c0" style="stroke-miterlimit: 2; opacity: 1;"><g class="fills"/><g class="errorbars"/><g class="lines"><path class="js-line" d="M0,5.87L11.02,22.75L22.04,28.4L55.1,35.5L66.12,36.72L77.14,38.61L88.16,39.41L110.2,44.15L121.22,52.04L132.24,61.29L143.27,67.38L154.29,72.43L165.31,73.81L176.33,76.41L187.35,81.6L198.37,82.21L209.39,87.19L220.41,96.35L231.43,114.25L242.45,127.49L253.47,142.87L264.49,153.63L275.51,162.17L286.53,170.89L297.55,178.39L308.57,184.1L319.59,191.15L330.61,199.01L341.63,202.86L352.65,208.83L363.67,213.83L374.69,218.89L385.71,225.14L396.73,228.82L407.76,235.25L418.78,239.2L429.8,244.18L440.82,249.21L451.84,251.97L517.96,260.06L528.98,261.26L540,262.8" style="vector-effect: non-scaling-stroke; fill: none; stroke: rgb(255, 151, 255); stroke-opacity: 1; stroke-width: 2px; opacity: 1;"/></g><g class="points"/><g class="text"/></g><g class="trace scatter traceaadb88" style="stroke-miterlimit: 2; opacity: 1;"><g class="fills"/><g class="errorbars"/><g class="lines"><path class="js-line" d="M0,5.89L11.02,22.4L22.04,28.11L55.1,35.75L66.12,37.03L88.16,40.12L99.18,42.79L110.2,47.21L121.22,58.36L132.24,68.07L143.27,72.84L154.29,76.22L165.31,78.36L176.33,80.38L187.35,81.51L198.37,82.93L209.39,85.28L220.41,86.48L231.43,88.94L242.45,91.28L253.47,97.59L264.49,105.79L275.51,125.47L286.53,137.83L297.55,153.16L308.57,161.94L319.59,171.94L330.61,180.17L341.63,183.49L352.65,191.3L363.67,197.85L374.69,204.92L385.71,209.26L396.73,213.03L407.76,220.87L418.78,225.85L429.8,229.88L440.82,235.11L451.84,237.43L484.9,242.43L495.92,243.5L540,248.29" style="vector-effect: non-scaling-stroke; fill: none; stroke: rgb(254, 203, 82); stroke-opacity: 1; stroke-width: 2px; opacity: 1;"/></g><g class="points"/><g class="text"/></g><g class="trace scatter tracef4342f" style="stroke-miterlimit: 2; opacity: 1;"><g class="fills"/><g class="errorbars"/><g class="lines"><path class="js-line" d="M0,6.04L11.02,22.47L22.04,28.47L66.12,36.73L77.14,38.51L88.16,39.57L99.18,41.75L110.2,43.29L121.22,49.12L132.24,60.29L143.27,67.97L154.29,73.56L165.31,75L176.33,79.52L187.35,80.06L198.37,83.13L209.39,85.2L220.41,86.04L231.43,89.64L242.45,93.85L253.47,111.03L264.49,127.35L275.51,141.64L297.55,159.95L308.57,165.01L319.59,174.37L330.61,181.05L341.63,185.58L352.65,192.71L363.67,196.39L374.69,203.3L407.76,217.89L418.78,223.08L440.82,233.29L451.84,235.47L495.92,241.81L506.94,242.29L528.98,245.43L540,246.45" style="vector-effect: non-scaling-stroke; fill: none; stroke: rgb(99, 110, 250); stroke-opacity: 1; stroke-width: 2px; opacity: 1;"/></g><g class="points"/><g class="text"/></g><g class="trace scatter trace4fd738" style="stroke-miterlimit: 2; opacity: 1;"><g class="fills"/><g class="errorbars"/><g class="lines"><path class="js-line" d="M0,6.16L11.02,22.72L22.04,28.25L44.08,33.15L55.1,35.54L88.16,39.62L99.18,41.86L121.22,46.1L132.24,53.14L143.27,63.16L154.29,70.34L165.31,72.38L176.33,78.51L187.35,85.14L198.37,96.85L209.39,110.99L220.41,122.47L231.43,132.07L242.45,143L253.47,154.94L264.49,164.12L275.51,173L286.53,177.55L297.55,187.74L308.57,191.69L319.59,200.92L330.61,206.57L341.63,210.54L352.65,216.38L374.69,228.74L385.71,233.96L396.73,238.9L407.76,245.1L418.78,249.81L429.8,255.47L440.82,259.72L451.84,263L484.9,267.52L495.92,269.57L506.94,270.24L517.96,271.7L540,274.18" style="vector-effect: non-scaling-stroke; fill: none; stroke: rgb(239, 85, 59); stroke-opacity: 1; stroke-width: 2px; opacity: 1;"/></g><g class="points"/><g class="text"/></g><g class="trace scatter trace075eaa" style="stroke-miterlimit: 2; opacity: 1;"><g class="fills"/><g class="errorbars"/><g class="lines"><path class="js-line" d="M0,5.71L11.02,22.32L22.04,28.38L44.08,33.3L55.1,35.57L66.12,36.56L77.14,38.47L99.18,41.54L110.2,44.52L121.22,52.93L132.24,63.28L143.27,70.16L154.29,74.19L165.31,76.02L176.33,79.99L198.37,81.91L209.39,84.36L220.41,85.02L231.43,87.56L242.45,89.4L253.47,96.59L264.49,104.46L275.51,126.31L297.55,151.96L308.57,160.42L319.59,169.56L330.61,177.09L341.63,181.26L352.65,190.36L374.69,202.79L385.71,207.78L396.73,212.32L407.76,219.84L418.78,223.87L429.8,229.3L440.82,234.15L451.84,237.04L495.92,243.07L506.94,244.38L540,248.03" style="vector-effect: non-scaling-stroke; fill: none; stroke: rgb(0, 204, 150); stroke-opacity: 1; stroke-width: 2px; opacity: 1;"/></g><g class="points"/><g class="text"/></g><g class="trace scatter traceb67f3d" style="stroke-miterlimit: 2; opacity: 1;"><g class="fills"/><g class="errorbars"/><g class="lines"><path class="js-line" d="M0,6.11L11.02,22.25L22.04,28.06L44.08,33.39L55.1,35.67L66.12,36.85L77.14,38.86L88.16,39.92L99.18,42.14L110.2,44.25L121.22,51.26L132.24,61.09L143.27,69.01L154.29,74.35L165.31,74.24L176.33,79.84L187.35,81.63L198.37,82.23L209.39,85.39L231.43,88.12L242.45,92.55L253.47,100.95L264.49,114.73L275.51,135.42L286.53,148.39L297.55,159L308.57,165.74L319.59,175.58L330.61,183.75L341.63,186.16L352.65,194.52L363.67,200.28L374.69,207.56L396.73,216.44L407.76,223.48L418.78,227.93L429.8,233.38L440.82,238.3L451.84,240.96L517.96,249.68L528.98,250.9L540,252.31" style="vector-effect: non-scaling-stroke; fill: none; stroke: rgb(171, 99, 250); stroke-opacity: 1; stroke-width: 2px; opacity: 1;"/></g><g class="points"/><g class="text"/></g><g class="trace scatter trace2026b2" style="stroke-miterlimit: 2; opacity: 1;"><g class="fills"/><g class="errorbars"/><g class="lines"><path class="js-line" d="M0,6.04L11.02,22.2L22.04,28.29L55.1,35.3L66.12,36.56L77.14,38.74L88.16,39.49L110.2,43.98L121.22,51.23L132.24,60.16L143.27,67.52L154.29,72.13L165.31,73.98L176.33,78.47L187.35,80.07L198.37,81.4L209.39,85.33L220.41,87.03L231.43,90.9L242.45,95.45L253.47,115.26L264.49,132.47L275.51,146.75L297.55,167.01L308.57,173.39L330.61,188.46L341.63,194.15L352.65,201.39L363.67,206.85L374.69,211.92L385.71,218.28L396.73,221.57L407.76,228.35L440.82,242.27L451.84,245.08L484.9,249.56L495.92,250.83L540,255.64" style="vector-effect: non-scaling-stroke; fill: none; stroke: rgb(255, 161, 90); stroke-opacity: 1; stroke-width: 2px; opacity: 1;"/></g><g class="points"/><g class="text"/></g><g class="trace scatter traceb7cb5d" style="stroke-miterlimit: 2; opacity: 1;"><g class="fills"/><g class="errorbars"/><g class="lines"><path class="js-line" d="M0,5.97L11.02,22.28L22.04,28.38L55.1,35.69L66.12,37.04L77.14,39.3L88.16,40.03L110.2,45.98L121.22,54.89L132.24,61.81L143.27,69.68L154.29,74.25L165.31,76.97L176.33,80.32L187.35,81.51L209.39,86.24L220.41,86.56L231.43,87.45L242.45,90.13L264.49,95.7L275.51,102.49L286.53,108.1L297.55,129.48L308.57,146.56L319.59,158.4L330.61,169.33L341.63,175.03L352.65,184.02L363.67,189.64L385.71,201.86L396.73,205.38L407.76,212.52L418.78,217.22L429.8,223.44L440.82,227.62L451.84,230.44L462.86,232.44L484.9,235.45L495.92,236.67L540,241.8" style="vector-effect: non-scaling-stroke; fill: none; stroke: rgb(25, 211, 243); stroke-opacity: 1; stroke-width: 2px; opacity: 1;"/></g><g class="points"/><g class="text"/></g><g class="trace scatter tracebe5614" style="stroke-miterlimit: 2; opacity: 1;"><g class="fills"/><g class="errorbars"/><g class="lines"><path class="js-line" d="M0,5.88L11.02,22.72L22.04,28.43L55.1,35.66L66.12,37.01L110.2,44.29L121.22,52.1L132.24,64.82L143.27,67.91L154.29,74.44L165.31,75.81L176.33,79.86L187.35,81.08L198.37,82.67L209.39,85.64L220.41,87.7L231.43,92.76L242.45,104.04L253.47,118.95L275.51,142.5L286.53,150.16L297.55,159.59L308.57,167.16L319.59,176.41L330.61,183.24L341.63,187.21L352.65,193.01L363.67,200L374.69,205.96L418.78,226.82L429.8,232.52L440.82,237.16L451.84,239.94L517.96,247.95L528.98,249.25L540,250.62" style="vector-effect: non-scaling-stroke; fill: none; stroke: rgb(255, 102, 146); stroke-opacity: 1; stroke-width: 2px; opacity: 1;"/></g><g class="points"/><g class="text"/></g><g class="trace scatter trace019d58" style="stroke-miterlimit: 2; opacity: 1;"><g class="fills"/><g class="errorbars"/><g class="lines"><path class="js-line" d="M0,6.06L11.02,22.07L22.04,28.37L55.1,35.89L66.12,36.89L77.14,39.07L88.16,39.92L99.18,41.89L110.2,45.33L132.24,64.96L143.27,70.28L154.29,74.56L165.31,75.34L176.33,80.25L187.35,81.7L198.37,83.22L209.39,89.83L220.41,98.66L231.43,108.73L242.45,121.68L253.47,135.99L264.49,149.25L275.51,158.67L297.55,176.09L308.57,180.72L319.59,190.58L330.61,196.53L341.63,199.68L352.65,206.38L363.67,214.09L374.69,219.64L385.71,225.28L396.73,228.95L407.76,235.51L418.78,240.25L429.8,245.65L440.82,249.95L451.84,253.09L462.86,254.39L495.92,258.75L506.94,259.3L540,263.38" style="vector-effect: non-scaling-stroke; fill: none; stroke: rgb(182, 232, 128); stroke-opacity: 1; stroke-width: 2px; opacity: 1;"/></g><g class="points"/><g class="text"/></g><g class="trace scatter trace3a096d" style="stroke-miterlimit: 2; opacity: 1;"><g class="fills"/><g class="errorbars"/><g class="lines"><path class="js-line" d="M0,5.91L11.02,22.36L22.04,28.26L55.1,35.29L66.12,36.52L77.14,38.41L88.16,39.43L110.2,43.78L121.22,50.35L132.24,60.26L143.27,67.8L154.29,72.12L165.31,75.35L176.33,79.14L187.35,84.57L198.37,93.27L209.39,110.38L220.41,120.69L231.43,133.23L242.45,141.41L253.47,153.49L275.51,172.17L286.53,180.3L297.55,186.85L308.57,190.47L319.59,200.05L330.61,205.38L341.63,205.91L352.65,214.35L407.76,239.66L418.78,244.25L440.82,254.05L451.84,256.59L495.92,262.71L506.94,264.03L528.98,265.98L540,267.52" style="vector-effect: non-scaling-stroke; fill: none; stroke: rgb(255, 151, 255); stroke-opacity: 1; stroke-width: 2px; opacity: 1;"/></g><g class="points"/><g class="text"/></g><g class="trace scatter traced4e85d" style="stroke-miterlimit: 2; opacity: 1;"><g class="fills"/><g class="errorbars"/><g class="lines"><path class="js-line" d="M0,5.89L11.02,22.67L22.04,28.31L55.1,35.78L66.12,37.1L77.14,38.8L88.16,39.72L99.18,42.35L110.2,42.83L121.22,46.13L132.24,55.21L143.27,64.77L154.29,71.33L165.31,73.58L176.33,77.03L187.35,79.94L198.37,81.37L220.41,85.38L231.43,87.82L242.45,91.27L253.47,97.88L264.49,104.19L275.51,121.83L297.55,149.68L308.57,159.17L330.61,175.83L341.63,177.58L352.65,186.37L363.67,192.43L385.71,204.2L396.73,207.71L407.76,214.16L418.78,218.74L429.8,224.88L440.82,229.34L462.86,233.8L473.88,235.22L495.92,238.42L506.94,239.42L540,243.31" style="vector-effect: non-scaling-stroke; fill: none; stroke: rgb(254, 203, 82); stroke-opacity: 1; stroke-width: 2px; opacity: 1;"/></g><g class="points"/><g class="text"/></g><g class="trace scatter trace8b1b5e" style="stroke-miterlimit: 2; opacity: 1;"><g class="fills"/><g class="errorbars"/><g class="lines"><path class="js-line" d="M0,6.57L11.02,21.4L22.04,27.15L44.08,33.65L55.1,35.43L77.14,39.06L88.16,39.95L99.18,42.15L110.2,42.62L132.24,44.95L143.27,45.13L154.29,45.47L165.31,47.92L176.33,56.67L187.35,66.56L198.37,72.14L209.39,75.77L231.43,84.18L242.45,86.13L253.47,91.05L264.49,94.94L275.51,97.48L286.53,103.89L297.55,114.21L308.57,125.59L319.59,135.26L330.61,140.88L352.65,152.56L363.67,157.42L385.71,165.22L396.73,170.61L407.76,172.78L418.78,175.74L440.82,183.89L451.84,186.73L473.88,188.97L484.9,190.38L540,194.87" style="vector-effect: non-scaling-stroke; fill: none; stroke: rgb(99, 110, 250); stroke-opacity: 1; stroke-width: 2px; opacity: 1;"/></g><g class="points"/><g class="text"/></g><g class="trace scatter tracedf28e5" style="stroke-miterlimit: 2; opacity: 1;"><g class="fills"/><g class="errorbars"/><g class="lines"><path class="js-line" d="M0,5.32L11.02,22.5L22.04,27.83L44.08,33.49L55.1,35.69L66.12,37.01L77.14,39.13L110.2,43.8L121.22,46.98L154.29,68.39L165.31,74.68L187.35,101.39L198.37,113.69L209.39,126.62L220.41,132.83L231.43,141.75L242.45,153.31L253.47,162.66L264.49,173.28L286.53,185.33L297.55,192.97L308.57,196.34L319.59,204.8L341.63,212.77L352.65,218.43L363.67,223.95L374.69,227.95L385.71,235.24L396.73,237.75L407.76,244.13L418.78,248.44L429.8,254.28L440.82,258.6L451.84,261.42L462.86,263.15L484.9,266.35L495.92,267.82L540,272.89" style="vector-effect: non-scaling-stroke; fill: none; stroke: rgb(239, 85, 59); stroke-opacity: 1; stroke-width: 2px; opacity: 1;"/></g><g class="points"/><g class="text"/></g><g class="trace scatter traceffc433" style="stroke-miterlimit: 2; opacity: 1;"><g class="fills"/><g class="errorbars"/><g class="lines"><path class="js-line" d="M0,5.91L11.02,22.58L22.04,28.28L55.1,35.15L66.12,36.5L77.14,38.41L88.16,39.46L110.2,44.32L121.22,53.34L132.24,62.82L143.27,69.78L154.29,75.02L165.31,75.62L187.35,80.69L198.37,82.14L209.39,84.98L220.41,86.48L231.43,87.59L242.45,89.94L264.49,98.08L275.51,103.93L286.53,112.08L297.55,132L308.57,145.14L319.59,155.37L330.61,166.07L341.63,171.15L352.65,180.56L363.67,186.78L374.69,194.91L385.71,200.68L396.73,204.21L407.76,212.24L418.78,216.05L429.8,222.66L440.82,227.88L451.84,230.06L473.88,234.41L484.9,235.67L495.92,237.4L506.94,238.26L540,242.34" style="vector-effect: non-scaling-stroke; fill: none; stroke: rgb(0, 204, 150); stroke-opacity: 1; stroke-width: 2px; opacity: 1;"/></g><g class="points"/><g class="text"/></g><g class="trace scatter tracea676b5" style="stroke-miterlimit: 2; opacity: 1;"><g class="fills"/><g class="errorbars"/><g class="lines"><path class="js-line" d="M0,6.44L11.02,22.79L22.04,28.03L55.1,35.63L66.12,37.17L110.2,44.92L121.22,50.2L132.24,60.88L143.27,68.53L154.29,74.54L165.31,76.9L187.35,81.79L198.37,82.39L209.39,85.44L220.41,86.49L242.45,90.98L253.47,95.07L264.49,97.11L275.51,102.29L286.53,107.38L297.55,126.14L308.57,143.85L319.59,156.38L330.61,166.49L341.63,171.46L352.65,179.73L363.67,185.22L374.69,193.36L385.71,199.41L396.73,204.11L407.76,210.81L440.82,226.56L451.84,229.11L484.9,234.22L495.92,235.79L540,240.68" style="vector-effect: non-scaling-stroke; fill: none; stroke: rgb(171, 99, 250); stroke-opacity: 1; stroke-width: 2px; opacity: 1;"/></g><g class="points"/><g class="text"/></g><g class="trace scatter tracec09f1e" style="stroke-miterlimit: 2; opacity: 1;"><g class="fills"/><g class="errorbars"/><g class="lines"><path class="js-line" d="M0,5.98L11.02,22.48L22.04,28.25L55.1,35.61L66.12,36.91L88.16,40.16L99.18,43.32L110.2,47.28L121.22,58.34L132.24,65.73L143.27,70.48L154.29,75.23L165.31,76.04L187.35,82.47L198.37,82.49L209.39,85.84L220.41,86.69L231.43,89.8L242.45,94.44L253.47,107.4L264.49,123.13L275.51,139.48L286.53,148.44L297.55,157.37L308.57,165.12L319.59,174.94L330.61,181.82L341.63,184.07L352.65,191.59L385.71,209.82L396.73,212.76L407.76,219.88L418.78,222.89L429.8,228.74L440.82,232.95L451.84,235.8L462.86,236.92L495.92,241.55L506.94,242.35L540,246.3" style="vector-effect: non-scaling-stroke; fill: none; stroke: rgb(255, 161, 90); stroke-opacity: 1; stroke-width: 2px; opacity: 1;"/></g><g class="points"/><g class="text"/></g><g class="trace scatter traceb0e3d9" style="stroke-miterlimit: 2; opacity: 1;"><g class="fills"/><g class="errorbars"/><g class="lines"><path class="js-line" d="M0,5.9L11.02,22.3L22.04,28.25L55.1,35.49L66.12,36.79L77.14,38.65L88.16,39.72L99.18,42.14L110.2,43.32L121.22,49.21L132.24,60.67L143.27,67.86L154.29,73.24L165.31,74.37L176.33,78.3L187.35,80.48L198.37,81.31L209.39,84.45L220.41,85.41L242.45,87.85L253.47,94.8L264.49,98.37L275.51,109.39L297.55,140.51L308.57,151.86L319.59,160.09L330.61,170.6L341.63,175.7L352.65,183.28L374.69,194.86L385.71,201.98L396.73,204.95L407.76,212.45L440.82,227.66L451.84,230L462.86,232.09L473.88,233.41L495.92,236.36L506.94,237.23L540,241.21" style="vector-effect: non-scaling-stroke; fill: none; stroke: rgb(25, 211, 243); stroke-opacity: 1; stroke-width: 2px; opacity: 1;"/></g><g class="points"/><g class="text"/></g><g class="trace scatter trace3ca0f5" style="stroke-miterlimit: 2; opacity: 1;"><g class="fills"/><g class="errorbars"/><g class="lines"><path class="js-line" d="M0,6.46L11.02,22.68L22.04,28.33L55.1,35.59L66.12,36.75L77.14,38.79L88.16,39.67L121.22,45.21L132.24,48.46L154.29,66.81L165.31,70.82L176.33,75.19L187.35,78L198.37,79.53L209.39,86.29L220.41,92.06L231.43,104.26L253.47,135.68L264.49,146.44L275.51,157.99L286.53,164.8L297.55,173.94L308.57,177.64L319.59,184.72L330.61,189.71L341.63,194.75L352.65,202.38L396.73,220.02L407.76,226.77L418.78,230.5L429.8,235.17L440.82,239.89L451.84,242.79L540,252.47" style="vector-effect: non-scaling-stroke; fill: none; stroke: rgb(255, 102, 146); stroke-opacity: 1; stroke-width: 2px; opacity: 1;"/></g><g class="points"/><g class="text"/></g><g class="trace scatter trace804b12" style="stroke-miterlimit: 2; opacity: 1;"><g class="fills"/><g class="errorbars"/><g class="lines"><path class="js-line" d="M0,5.89L11.02,22.63L22.04,27.96L44.08,33.3L55.1,35.21L88.16,39.93L99.18,42.41L110.2,45.4L121.22,55.26L132.24,64.38L143.27,70.41L154.29,74.62L165.31,76.32L198.37,81.75L209.39,85.12L220.41,84.95L231.43,87.26L253.47,94.65L264.49,98.99L286.53,106.25L297.55,121.25L308.57,139.3L319.59,153.31L330.61,164.84L341.63,171.56L352.65,179.04L363.67,185.46L374.69,192.84L385.71,197.98L396.73,202.34L407.76,209.76L418.78,213.99L429.8,219.83L440.82,224.67L451.84,227.31L473.88,230.66L484.9,232.38L517.96,236.21L528.98,237.62L540,238.85" style="vector-effect: non-scaling-stroke; fill: none; stroke: rgb(182, 232, 128); stroke-opacity: 1; stroke-width: 2px; opacity: 1;"/></g><g class="points"/><g class="text"/></g><g class="trace scatter tracefc7fe6" style="stroke-miterlimit: 2; opacity: 1;"><g class="fills"/><g class="errorbars"/><g class="lines"><path class="js-line" d="M0,5.98L11.02,22.66L22.04,28.69L44.08,33.39L55.1,35.63L66.12,36.78L77.14,38.73L88.16,39.5L99.18,41.94L110.2,43.73L121.22,49.66L132.24,61.18L143.27,68.51L154.29,74.2L165.31,73.66L176.33,79L187.35,81.43L198.37,82.59L209.39,85.22L220.41,88.5L231.43,100.08L242.45,113.05L253.47,130.46L264.49,141.2L275.51,153.2L286.53,161.15L297.55,170.24L308.57,176.74L319.59,185.14L330.61,191.67L341.63,195.68L363.67,208.9L374.69,215.03L396.73,222.46L407.76,229.65L418.78,234.17L429.8,239.88L440.82,244.77L451.84,247.63L540,258.28" style="vector-effect: non-scaling-stroke; fill: none; stroke: rgb(255, 151, 255); stroke-opacity: 1; stroke-width: 2px; opacity: 1;"/></g><g class="points"/><g class="text"/></g><g class="trace scatter tracec5589e" style="stroke-miterlimit: 2; opacity: 1;"><g class="fills"/><g class="errorbars"/><g class="lines"><path class="js-line" d="M0,6.09L11.02,22.71L22.04,28.26L55.1,35.56L66.12,36.64L77.14,38.92L88.16,39.61L110.2,43.86L121.22,49.13L143.27,67.39L154.29,73.4L165.31,81.79L176.33,94.62L187.35,104.48L198.37,111.72L209.39,121.92L220.41,129.9L231.43,138.38L242.45,147.94L253.47,154.83L264.49,164.85L286.53,175.39L297.55,183.39L308.57,188.85L319.59,196.56L330.61,202.33L341.63,205.58L385.71,227.34L396.73,232.01L440.82,251.16L451.84,253.83L540,264.78" style="vector-effect: non-scaling-stroke; fill: none; stroke: rgb(254, 203, 82); stroke-opacity: 1; stroke-width: 2px; opacity: 1;"/></g><g class="points"/><g class="text"/></g><g class="trace scatter trace7d5044" style="stroke-miterlimit: 2; opacity: 1;"><g class="fills"/><g class="errorbars"/><g class="lines"><path class="js-line" d="M0,6.02L11.02,22.77L22.04,28.13L55.1,35.34L66.12,36.64L77.14,38.63L88.16,39.31L110.2,44.27L121.22,51.18L132.24,61.72L143.27,68.31L154.29,72.61L165.31,74.48L176.33,78.08L187.35,80.11L198.37,81.12L209.39,82.94L220.41,84.69L231.43,85.43L242.45,89.39L253.47,94.92L264.49,100.27L275.51,112.72L286.53,125.13L297.55,139.89L308.57,149.19L319.59,159.55L330.61,168.52L341.63,170.09L352.65,181.13L363.67,185.51L374.69,192.8L385.71,198.91L396.73,202.85L407.76,210.27L440.82,225.46L451.84,228.31L484.9,233.48L495.92,235L506.94,235.74L517.96,237.29L540,239.97" style="vector-effect: non-scaling-stroke; fill: none; stroke: rgb(99, 110, 250); stroke-opacity: 1; stroke-width: 2px; opacity: 1;"/></g><g class="points"/><g class="text"/></g><g class="trace scatter trace3b4dcf" style="stroke-miterlimit: 2; opacity: 1;"><g class="fills"/><g class="errorbars"/><g class="lines"><path class="js-line" d="M0,5.94L11.02,22.82L22.04,28.3L55.1,35.5L66.12,36.62L77.14,38.46L88.16,39.19L99.18,41.78L110.2,42.77L121.22,44.48L132.24,47.77L143.27,54.9L154.29,63.17L165.31,66.68L176.33,73.29L187.35,77.17L198.37,80.01L220.41,84.22L231.43,87.21L242.45,91.35L253.47,107.57L264.49,121.74L275.51,130.36L286.53,133.38L297.55,139.92L319.59,149.65L330.61,154.28L341.63,156L352.65,161.63L385.71,172.02L396.73,175.67L407.76,180.16L418.78,183.54L440.82,190.49L451.84,192.98L473.88,195.09L484.9,197.28L528.98,201.24L540,202.15" style="vector-effect: non-scaling-stroke; fill: none; stroke: rgb(239, 85, 59); stroke-opacity: 1; stroke-width: 2px; opacity: 1;"/></g><g class="points"/><g class="text"/></g><g class="trace scatter trace00790c" style="stroke-miterlimit: 2; opacity: 1;"><g class="fills"/><g class="errorbars"/><g class="lines"><path class="js-line" d="M0,5.72L11.02,22.45L22.04,28.14L55.1,35.15L66.12,36.49L88.16,40.25L99.18,41.64L110.2,42.57L121.22,44.71L132.24,45.9L143.27,49.9L154.29,59.77L165.31,67.27L176.33,73.26L187.35,75.57L198.37,78.99L209.39,80.87L220.41,81.83L231.43,84.53L275.51,97.75L286.53,100.3L297.55,102.5L308.57,103.83L330.61,111.18L341.63,115.14L385.71,150.95L396.73,156.64L418.78,167.13L429.8,171.49L440.82,176.49L451.84,179.11L484.9,184.1L495.92,185.5L528.98,189.01L540,190" style="vector-effect: non-scaling-stroke; fill: none; stroke: rgb(0, 204, 150); stroke-opacity: 1; stroke-width: 2px; opacity: 1;"/></g><g class="points"/><g class="text"/></g><g class="trace scatter tracea3e33f" style="stroke-miterlimit: 2; opacity: 1;"><g class="fills"/><g class="errorbars"/><g class="lines"><path class="js-line" d="M0,5.68L11.02,22.73L22.04,28.04L44.08,33.13L55.1,35.16L66.12,36.56L77.14,38.91L88.16,39.88L99.18,42.26L110.2,44.03L121.22,47.66L132.24,56.1L143.27,66.36L154.29,71.09L165.31,74.29L176.33,77.93L187.35,78.95L198.37,80L209.39,82.21L242.45,91.28L253.47,97.39L264.49,112.26L275.51,133.37L286.53,145.91L297.55,155.71L319.59,173.13L330.61,180.31L341.63,184.14L352.65,192.28L363.67,199.07L374.69,204.18L385.71,211.85L396.73,215.52L407.76,221.54L418.78,226.69L440.82,236.57L451.84,238.97L462.86,241.04L473.88,241.87L484.9,243.77L495.92,244.79L540,249.73" style="vector-effect: non-scaling-stroke; fill: none; stroke: rgb(171, 99, 250); stroke-opacity: 1; stroke-width: 2px; opacity: 1;"/></g><g class="points"/><g class="text"/></g><g class="trace scatter trace9a0d0a" style="stroke-miterlimit: 2; opacity: 1;"><g class="fills"/><g class="errorbars"/><g class="lines"><path class="js-line" d="M0,6.06L11.02,22.06L22.04,28.37L55.1,35.74L66.12,36.84L77.14,38.96L88.16,40.29L99.18,43.89L110.2,52.11L121.22,63.04L132.24,70.35L154.29,76.56L165.31,77.89L187.35,82.48L198.37,82.74L220.41,88.14L231.43,89.92L242.45,92.68L253.47,103.92L275.51,140.28L286.53,152.22L297.55,161.34L308.57,169.42L319.59,179.73L330.61,186.67L341.63,188.51L352.65,197.66L374.69,208.06L385.71,212.69L396.73,216.98L407.76,224.09L418.78,227.56L429.8,233.41L440.82,238.27L451.84,240.74L462.86,242.59L473.88,243.64L484.9,245.67L495.92,246.89L540,251.49" style="vector-effect: non-scaling-stroke; fill: none; stroke: rgb(255, 161, 90); stroke-opacity: 1; stroke-width: 2px; opacity: 1;"/></g><g class="points"/><g class="text"/></g><g class="trace scatter trace42ee34" style="stroke-miterlimit: 2; opacity: 1;"><g class="fills"/><g class="errorbars"/><g class="lines"><path class="js-line" d="M0,6.33L11.02,22.23L22.04,28.33L66.12,36.93L77.14,39.04L88.16,39.75L99.18,42.25L110.2,43.68L121.22,48.97L132.24,58.66L143.27,65.6L154.29,70.32L165.31,72.24L176.33,75.9L187.35,77.3L209.39,82.93L220.41,84.57L231.43,85.4L242.45,88.1L253.47,92.98L264.49,96.77L286.53,110.09L297.55,126.56L308.57,143.52L319.59,157.63L341.63,172.71L352.65,182.55L363.67,189.24L374.69,194.56L385.71,201.56L396.73,205.94L407.76,212.43L418.78,217.47L440.82,227.69L451.84,230.89L484.9,236.01L495.92,236.87L517.96,239.32L528.98,240.68L540,241.9" style="vector-effect: non-scaling-stroke; fill: none; stroke: rgb(25, 211, 243); stroke-opacity: 1; stroke-width: 2px; opacity: 1;"/></g><g class="points"/><g class="text"/></g><g class="trace scatter trace74519b" style="stroke-miterlimit: 2; opacity: 1;"><g class="fills"/><g class="errorbars"/><g class="lines"><path class="js-line" d="M0,6.05L11.02,22.27L22.04,28.43L33.06,30.4L44.08,33.42L55.1,35.34L66.12,36.36L77.14,38.87L88.16,39.89L99.18,42.43L110.2,46.48L121.22,57.64L132.24,67.09L143.27,70.56L154.29,75.02L165.31,76.48L176.33,79.52L187.35,82.24L198.37,83.13L209.39,86.22L220.41,91.25L231.43,106.94L242.45,124.64L253.47,140.82L264.49,150.21L275.51,163.38L286.53,171.19L297.55,180.07L308.57,184.65L330.61,200.16L341.63,201.7L363.67,216.14L374.69,220.69L396.73,230.19L407.76,236.32L418.78,240.83L429.8,246.45L440.82,250.85L451.84,253.68L473.88,257.13L484.9,258.02L506.94,260.92L517.96,262.04L540,264.66" style="vector-effect: non-scaling-stroke; fill: none; stroke: rgb(255, 102, 146); stroke-opacity: 1; stroke-width: 2px; opacity: 1;"/></g><g class="points"/><g class="text"/></g><g class="trace scatter traceb89af9" style="stroke-miterlimit: 2; opacity: 1;"><g class="fills"/><g class="errorbars"/><g class="lines"><path class="js-line" d="M0,6.1L11.02,22.36L22.04,28.29L55.1,35.54L66.12,36.68L88.16,40.25L99.18,44.13L110.2,51.9L121.22,62.38L132.24,68.58L143.27,73.04L154.29,76.47L165.31,76.69L187.35,79.2L198.37,83.06L209.39,95.28L220.41,109.2L231.43,121.91L242.45,133.06L253.47,144.65L264.49,154.06L275.51,165.26L286.53,169.95L297.55,176.84L308.57,182.44L330.61,197.61L341.63,199.56L352.65,206.96L363.67,210.57L385.71,221.67L396.73,225.38L407.76,232.26L418.78,236.12L429.8,241.46L440.82,245.78L451.84,248.51L462.86,249.75L517.96,256.66L528.98,257.55L540,258.93" style="vector-effect: non-scaling-stroke; fill: none; stroke: rgb(182, 232, 128); stroke-opacity: 1; stroke-width: 2px; opacity: 1;"/></g><g class="points"/><g class="text"/></g><g class="trace scatter trace185b7d" style="stroke-miterlimit: 2; opacity: 1;"><g class="fills"/><g class="errorbars"/><g class="lines"><path class="js-line" d="M0,6.23L11.02,22.77L22.04,27.92L44.08,33.42L55.1,35.16L66.12,36.52L77.14,38.65L99.18,42.03L110.2,45.73L121.22,52.57L132.24,62.58L143.27,69.92L154.29,73.91L187.35,81.45L198.37,81.63L209.39,84.66L220.41,86.46L231.43,88.39L242.45,91.82L253.47,97.75L264.49,109.1L275.51,128.84L286.53,141.44L297.55,154.81L308.57,163.78L330.61,181.01L341.63,187.32L363.67,201.53L374.69,206.6L385.71,212.48L396.73,215.84L407.76,222.8L418.78,226.94L429.8,232.78L440.82,237.18L451.84,239.79L462.86,241.13L506.94,246.74L517.96,247.82L540,250.29" style="vector-effect: non-scaling-stroke; fill: none; stroke: rgb(255, 151, 255); stroke-opacity: 1; stroke-width: 2px; opacity: 1;"/></g><g class="points"/><g class="text"/></g><g class="trace scatter trace7ba671" style="stroke-miterlimit: 2; opacity: 1;"><g class="fills"/><g class="errorbars"/><g class="lines"><path class="js-line" d="M0,5.99L11.02,22.29L22.04,28.14L55.1,35.22L66.12,36.83L77.14,38.88L88.16,39.54L99.18,41.94L110.2,42.72L121.22,45.93L132.24,52.96L143.27,62.37L154.29,69.29L165.31,70.12L176.33,74.96L187.35,78.56L198.37,79.54L220.41,84.02L231.43,87.17L242.45,93.7L253.47,108.39L264.49,118.31L275.51,129.94L286.53,135.72L297.55,149.03L330.61,175.63L341.63,179.61L352.65,188.59L363.67,193.26L374.69,200.23L385.71,206.17L396.73,209.81L407.76,216.73L429.8,225.96L440.82,230.98L451.84,233.4L462.86,234.91L506.94,240.64L517.96,241.65L540,244.15" style="vector-effect: non-scaling-stroke; fill: none; stroke: rgb(254, 203, 82); stroke-opacity: 1; stroke-width: 2px; opacity: 1;"/></g><g class="points"/><g class="text"/></g><g class="trace scatter tracee5f483" style="stroke-miterlimit: 2; opacity: 1;"><g class="fills"/><g class="errorbars"/><g class="lines"><path class="js-line" d="M0,5.82L11.02,22.6L22.04,27.9L44.08,33.41L55.1,34.84L110.2,44.01L121.22,47.43L132.24,53.5L143.27,62.31L154.29,71.23L165.31,74.99L176.33,84.65L187.35,98.06L198.37,108.11L209.39,121.29L220.41,129.36L231.43,138.56L242.45,149.07L253.47,161.99L286.53,185.51L297.55,191.73L308.57,193.58L319.59,204.86L330.61,208.97L341.63,210.85L363.67,224.02L374.69,229.09L385.71,234.87L396.73,239.69L440.82,258.98L451.84,261.95L495.92,267.6L506.94,269.14L540,272.84" style="vector-effect: non-scaling-stroke; fill: none; stroke: rgb(99, 110, 250); stroke-opacity: 1; stroke-width: 2px; opacity: 1;"/></g><g class="points"/><g class="text"/></g><g class="trace scatter trace3fbd24" style="stroke-miterlimit: 2; opacity: 1;"><g class="fills"/><g class="errorbars"/><g class="lines"><path class="js-line" d="M0,5.49L11.02,23.01L22.04,28.09L55.1,35.2L66.12,36.62L77.14,38.69L88.16,39.81L99.18,41.76L110.2,42.73L132.24,47.42L143.27,55.16L154.29,64.09L165.31,68.83L176.33,75.55L187.35,80.71L198.37,92.57L209.39,113.5L220.41,123.45L231.43,134.94L253.47,157.07L264.49,167.14L275.51,173.59L286.53,183.1L297.55,188.84L308.57,193.09L319.59,201.41L330.61,207.74L341.63,210.27L352.65,217.3L363.67,223.08L374.69,227.01L385.71,232.43L396.73,236.4L407.76,242.94L418.78,246.69L429.8,252.53L440.82,257.29L451.84,260.43L462.86,261.74L484.9,264.42L495.92,265.82L540,270.53" style="vector-effect: non-scaling-stroke; fill: none; stroke: rgb(239, 85, 59); stroke-opacity: 1; stroke-width: 2px; opacity: 1;"/></g><g class="points"/><g class="text"/></g><g class="trace scatter tracedc4f44" style="stroke-miterlimit: 2; opacity: 1;"><g class="fills"/><g class="errorbars"/><g class="lines"><path class="js-line" d="M0,6.21L11.02,22.15L22.04,28.08L66.12,37.04L77.14,38.89L88.16,40.16L99.18,42.35L110.2,43.59L121.22,46.75L143.27,68.39L154.29,74L165.31,76.18L176.33,79.46L187.35,81.16L198.37,81.53L220.41,86.76L231.43,96.9L253.47,119.94L264.49,127.52L275.51,137.23L286.53,145.23L308.57,163.05L319.59,170.78L330.61,178.9L341.63,182.74L352.65,190.85L363.67,195.52L385.71,205.88L396.73,209.41L407.76,217.35L418.78,220.68L429.8,226.71L440.82,230.9L462.86,235.22L473.88,236.46L495.92,239.26L506.94,240.71L540,243.99" style="vector-effect: non-scaling-stroke; fill: none; stroke: rgb(0, 204, 150); stroke-opacity: 1; stroke-width: 2px; opacity: 1;"/></g><g class="points"/><g class="text"/></g><g class="trace scatter trace78d87e" style="stroke-miterlimit: 2; opacity: 1;"><g class="fills"/><g class="errorbars"/><g class="lines"><path class="js-line" d="M0,6.07L11.02,22.3L22.04,28.25L55.1,35.92L66.12,37.22L77.14,39.27L88.16,40.21L99.18,42.64L110.2,46.34L132.24,67.48L143.27,71.39L154.29,75.55L165.31,76.99L176.33,80.2L187.35,82.33L198.37,83.05L209.39,86.42L220.41,93.79L231.43,110.08L242.45,120.84L253.47,137.32L275.51,159.08L286.53,168.26L308.57,181.49L319.59,190.2L330.61,196.99L341.63,200.2L363.67,214.23L374.69,219.3L385.71,225.17L396.73,229.52L407.76,235.93L418.78,239.34L429.8,245.31L440.82,250.34L451.84,252.79L462.86,254.41L473.88,256.18L484.9,257.12L540,263.51" style="vector-effect: non-scaling-stroke; fill: none; stroke: rgb(171, 99, 250); stroke-opacity: 1; stroke-width: 2px; opacity: 1;"/></g><g class="points"/><g class="text"/></g><g class="trace scatter trace099722" style="stroke-miterlimit: 2; opacity: 1;"><g class="fills"/><g class="errorbars"/><g class="lines"><path class="js-line" d="M0,5.73L11.02,23.1L22.04,28.26L55.1,35.3L66.12,36.69L88.16,39.78L99.18,42.39L110.2,46.42L121.22,56.72L132.24,64.86L143.27,69.84L154.29,74.38L165.31,75.78L176.33,80.06L187.35,81.09L198.37,84.59L209.39,90.95L220.41,101.73L231.43,119.51L242.45,131.3L253.47,145.81L264.49,153.79L275.51,163.3L286.53,172.96L297.55,180.91L308.57,186.18L319.59,194.6L330.61,201.24L341.63,202.89L352.65,211.49L363.67,218.05L374.69,223.66L385.71,227.58L396.73,231.39L407.76,238.46L418.78,244.27L429.8,248.28L440.82,253.17L451.84,256.16L517.96,263.94L528.98,264.79L540,266.24" style="vector-effect: non-scaling-stroke; fill: none; stroke: rgb(255, 161, 90); stroke-opacity: 1; stroke-width: 2px; opacity: 1;"/></g><g class="points"/><g class="text"/></g><g class="trace scatter trace8251b8" style="stroke-miterlimit: 2; opacity: 1;"><g class="fills"/><g class="errorbars"/><g class="lines"><path class="js-line" d="M0,6.06L11.02,22.53L22.04,28.25L55.1,35.42L66.12,36.45L99.18,42.69L110.2,47.89L121.22,60.06L132.24,67.35L143.27,72L154.29,75.49L165.31,77.15L176.33,80.29L198.37,82.48L209.39,85.3L220.41,89.02L231.43,99.14L242.45,117.72L253.47,134.49L264.49,147.99L275.51,156.93L286.53,166.54L297.55,174.36L308.57,178.57L319.59,187.26L330.61,193.08L341.63,195.97L352.65,202.22L363.67,209.74L374.69,214.42L385.71,219.99L396.73,222.67L407.76,229.29L429.8,239.08L440.82,243.67L451.84,246.66L462.86,247.68L506.94,253.35L517.96,254.58L528.98,255.52L540,257.23" style="vector-effect: non-scaling-stroke; fill: none; stroke: rgb(25, 211, 243); stroke-opacity: 1; stroke-width: 2px; opacity: 1;"/></g><g class="points"/><g class="text"/></g><g class="trace scatter tracea413ce" style="stroke-miterlimit: 2; opacity: 1;"><g class="fills"/><g class="errorbars"/><g class="lines"><path class="js-line" d="M0,6.1L11.02,22.4L22.04,28.22L55.1,35.29L66.12,36.47L77.14,38.31L88.16,39.29L110.2,43.59L121.22,51.09L132.24,63.45L143.27,69.55L154.29,73.95L165.31,75.57L198.37,85.97L209.39,96.31L220.41,108.75L231.43,123.15L242.45,136.95L253.47,148.13L275.51,167.51L286.53,174.42L297.55,182.77L308.57,185.79L319.59,193.8L330.61,200.77L341.63,202.25L352.65,209.61L363.67,216.69L374.69,222.35L385.71,227.68L396.73,231.54L407.76,237.53L418.78,242.64L429.8,249.12L440.82,253.66L451.84,256.53L462.86,257.87L506.94,264L517.96,264.97L540,267.36" style="vector-effect: non-scaling-stroke; fill: none; stroke: rgb(255, 102, 146); stroke-opacity: 1; stroke-width: 2px; opacity: 1;"/></g><g class="points"/><g class="text"/></g><g class="trace scatter trace93613a" style="stroke-miterlimit: 2; opacity: 1;"><g class="fills"/><g class="errorbars"/><g class="lines"><path class="js-line" d="M0,5.88L11.02,22.42L22.04,28.51L77.14,39.05L88.16,39.58L110.2,44.36L121.22,52.59L132.24,61.74L143.27,69.21L154.29,74.1L165.31,75.89L176.33,80.85L187.35,82.89L198.37,84.1L209.39,87.84L220.41,95L231.43,113.92L242.45,129.9L253.47,144.44L264.49,152.73L275.51,163.84L286.53,172.3L297.55,179.12L308.57,184.43L319.59,193.26L330.61,197.8L341.63,201.4L352.65,209.84L363.67,214.3L374.69,220.44L385.71,224.83L396.73,228.85L407.76,235.24L418.78,240.67L429.8,245.14L440.82,250.24L451.84,252.77L473.88,255.61L484.9,257.36L540,263.25" style="vector-effect: non-scaling-stroke; fill: none; stroke: rgb(182, 232, 128); stroke-opacity: 1; stroke-width: 2px; opacity: 1;"/></g><g class="points"/><g class="text"/></g><g class="trace scatter trace8b5c9c" style="stroke-miterlimit: 2; opacity: 1;"><g class="fills"/><g class="errorbars"/><g class="lines"><path class="js-line" d="M0,5.99L11.02,22.52L22.04,28.05L55.1,35.65L66.12,37.25L77.14,39.09L88.16,39.94L110.2,42.94L121.22,45.52L132.24,49.3L143.27,60.2L154.29,69.02L165.31,70.83L187.35,77.92L198.37,79.36L209.39,83.03L220.41,83.56L231.43,84.63L242.45,87.06L264.49,93.69L275.51,97.98L286.53,97.98L297.55,103L319.59,107.98L330.61,108.69L341.63,111.3L352.65,115.03L363.67,116.73L374.69,119.54L385.71,122.78L396.73,124.37L440.82,136.57L451.84,138.56L484.9,142.17L495.92,143.43L540,147.66" style="vector-effect: non-scaling-stroke; fill: none; stroke: rgb(255, 151, 255); stroke-opacity: 1; stroke-width: 2px; opacity: 1;"/></g><g class="points"/><g class="text"/></g><g class="trace scatter trace078892" style="stroke-miterlimit: 2; opacity: 1;"><g class="fills"/><g class="errorbars"/><g class="lines"><path class="js-line" d="M0,5.91L11.02,22.64L22.04,28.26L55.1,35.79L66.12,36.86L77.14,38.85L88.16,39.74L110.2,45.2L121.22,54.43L132.24,65.28L143.27,71.31L154.29,74.29L165.31,75.69L187.35,81.27L198.37,82.41L209.39,85.91L220.41,88.05L231.43,93.2L242.45,107.99L253.47,128.38L264.49,139.79L275.51,155.36L286.53,162.72L297.55,171.19L308.57,177.63L319.59,186.05L330.61,190.73L341.63,195.19L352.65,201.88L363.67,209.5L374.69,214.48L396.73,222.52L407.76,229.88L418.78,233.63L429.8,239.33L440.82,243.91L451.84,246.66L473.88,249.69L484.9,251.32L540,257.29" style="vector-effect: non-scaling-stroke; fill: none; stroke: rgb(254, 203, 82); stroke-opacity: 1; stroke-width: 2px; opacity: 1;"/></g><g class="points"/><g class="text"/></g><g class="trace scatter trace43aac9" style="stroke-miterlimit: 2; opacity: 1;"><g class="fills"/><g class="errorbars"/><g class="lines"><path class="js-line" d="M0,6.14L11.02,22.24L22.04,28.17L55.1,35.44L66.12,36.46L77.14,39.16L88.16,40.15L99.18,42.8L110.2,48.02L121.22,57.37L132.24,64.39L154.29,75.58L165.31,75.87L176.33,80.1L187.35,81.48L209.39,84.99L220.41,84.68L231.43,87.2L242.45,91.61L253.47,96.75L264.49,109.72L275.51,135L286.53,147.83L297.55,158.92L308.57,166.57L330.61,182.26L341.63,186.37L363.67,198.92L374.69,204.39L396.73,212.33L407.76,220.03L418.78,224.23L429.8,229.59L440.82,233.97L451.84,236.86L495.92,242.74L506.94,243.65L528.98,246.17L540,247.21" style="vector-effect: non-scaling-stroke; fill: none; stroke: rgb(99, 110, 250); stroke-opacity: 1; stroke-width: 2px; opacity: 1;"/></g><g class="points"/><g class="text"/></g><g class="trace scatter tracec09761" style="stroke-miterlimit: 2; opacity: 1;"><g class="fills"/><g class="errorbars"/><g class="lines"><path class="js-line" d="M0,6.28L11.02,22.37L22.04,28.19L55.1,35.13L66.12,36.62L77.14,38.98L88.16,39.63L99.18,42.76L110.2,49.27L121.22,63.35L132.24,78.89L143.27,91.76L154.29,100.09L176.33,112.14L187.35,118.4L198.37,125.85L209.39,135.67L220.41,140.33L231.43,152.33L253.47,170.37L264.49,176.47L297.55,197.46L308.57,200.94L319.59,208.06L330.61,214.18L341.63,218.16L352.65,224.63L363.67,230.05L374.69,236.67L385.71,240.14L396.73,246.57L407.76,253.01L418.78,258.09L440.82,269.44L451.84,272.28L484.9,277.46L495.92,278.68L506.94,280.71L517.96,281.77L540,284.83" style="vector-effect: non-scaling-stroke; fill: none; stroke: rgb(239, 85, 59); stroke-opacity: 1; stroke-width: 2px; opacity: 1;"/></g><g class="points"/><g class="text"/></g><g class="trace scatter trace0d9add" style="stroke-miterlimit: 2; opacity: 1;"><g class="fills"/><g class="errorbars"/><g class="lines"><path class="js-line" d="M0,5.7L11.02,22.21L22.04,27.81L33.06,30.84L44.08,33.05L77.14,38.91L88.16,40.09L99.18,42.56L110.2,43.9L132.24,47.73L143.27,53.28L154.29,64.01L165.31,69.62L176.33,75.2L187.35,77.2L198.37,81.03L209.39,91.21L220.41,103.59L231.43,111.58L242.45,119.99L253.47,130.66L264.49,141.72L275.51,154.97L297.55,170.48L308.57,177.82L319.59,185.35L330.61,191.75L341.63,195.79L352.65,201.95L363.67,207.65L374.69,212.19L385.71,217.23L396.73,220.03L407.76,227.27L418.78,230.49L440.82,240.05L451.84,242.84L473.88,244.84L484.9,246.37L517.96,249.68L528.98,250.9L540,252.21" style="vector-effect: non-scaling-stroke; fill: none; stroke: rgb(0, 204, 150); stroke-opacity: 1; stroke-width: 2px; opacity: 1;"/></g><g class="points"/><g class="text"/></g><g class="trace scatter traceb410a2" style="stroke-miterlimit: 2; opacity: 1;"><g class="fills"/><g class="errorbars"/><g class="lines"><path class="js-line" d="M0,6.16L11.02,22.81L22.04,28.1L44.08,33.22L55.1,34.96L121.22,44.73L132.24,48.49L154.29,67.09L165.31,70.54L176.33,76.11L187.35,78.06L198.37,79.42L209.39,82.52L231.43,85.78L242.45,89.52L264.49,98.19L275.51,109.17L297.55,144.95L308.57,154.38L330.61,172.43L341.63,177.48L352.65,185.04L363.67,191.24L374.69,198.62L385.71,204.49L396.73,208.48L407.76,214.64L418.78,219.07L429.8,225.78L440.82,229.62L451.84,232.27L473.88,235.81L484.9,237.29L540,243.61" style="vector-effect: non-scaling-stroke; fill: none; stroke: rgb(171, 99, 250); stroke-opacity: 1; stroke-width: 2px; opacity: 1;"/></g><g class="points"/><g class="text"/></g><g class="trace scatter trace90ed9c" style="stroke-miterlimit: 2; opacity: 1;"><g class="fills"/><g class="errorbars"/><g class="lines"><path class="js-line" d="M0,5.82L11.02,22.23L22.04,28.23L55.1,35.47L66.12,36.7L77.14,38.84L88.16,39.91L99.18,42.46L110.2,44.1L121.22,45.77L132.24,52.07L143.27,64.34L154.29,71.04L165.31,73.59L176.33,77.46L187.35,80.38L198.37,81.17L220.41,84.21L231.43,86.98L242.45,88.36L253.47,93.52L264.49,95.59L275.51,99.01L286.53,101.17L297.55,104.63L308.57,108.81L319.59,116.05L341.63,146.71L352.65,159.79L363.67,169.63L374.69,177.95L385.71,185.04L396.73,189.63L407.76,197.19L418.78,202.83L440.82,212.71L451.84,215.64L473.88,219.38L484.9,220.77L506.94,223.63L517.96,224.81L540,227.24" style="vector-effect: non-scaling-stroke; fill: none; stroke: rgb(255, 161, 90); stroke-opacity: 1; stroke-width: 2px; opacity: 1;"/></g><g class="points"/><g class="text"/></g><g class="trace scatter tracef42caa" style="stroke-miterlimit: 2; opacity: 1;"><g class="fills"/><g class="errorbars"/><g class="lines"><path class="js-line" d="M0,5.83L11.02,22.63L22.04,28.52L44.08,33.22L55.1,35.46L88.16,39.38L99.18,41.78L110.2,43.69L121.22,51.6L132.24,63.08L143.27,69.74L154.29,74.47L165.31,75.53L176.33,79.75L187.35,81.06L198.37,82.19L209.39,85.84L220.41,88.04L231.43,97.17L242.45,112.62L253.47,130.05L264.49,142.15L275.51,152.67L330.61,190.23L341.63,193.92L352.65,201.65L363.67,206.82L385.71,218.28L396.73,222.17L407.76,229.51L418.78,233.83L429.8,239.85L440.82,244.58L451.84,247.19L462.86,248.76L528.98,256.81L540,258.09" style="vector-effect: non-scaling-stroke; fill: none; stroke: rgb(25, 211, 243); stroke-opacity: 1; stroke-width: 2px; opacity: 1;"/></g><g class="points"/><g class="text"/></g><g class="trace scatter trace066841" style="stroke-miterlimit: 2; opacity: 1;"><g class="fills"/><g class="errorbars"/><g class="lines"><path class="js-line" d="M0,5.58L11.02,22.26L22.04,27.63L44.08,33.23L55.1,35.17L66.12,36.64L77.14,39.28L110.2,43.45L121.22,45.86L132.24,48.16L143.27,57.63L154.29,67.14L165.31,70.81L176.33,75.32L187.35,78.35L198.37,80.02L209.39,83.11L220.41,83.59L231.43,87.05L242.45,89.82L253.47,100.25L264.49,111.08L275.51,123.95L286.53,129.84L297.55,140.83L308.57,148.34L319.59,157.16L330.61,165.88L341.63,168.55L352.65,177.31L363.67,183.65L385.71,195.04L396.73,199.14L407.76,205.69L418.78,210.13L440.82,218.86L451.84,221.26L473.88,224.7L484.9,225.89L540,231.6" style="vector-effect: non-scaling-stroke; fill: none; stroke: rgb(255, 102, 146); stroke-opacity: 1; stroke-width: 2px; opacity: 1;"/></g><g class="points"/><g class="text"/></g><g class="trace scatter traced1f8bb" style="stroke-miterlimit: 2; opacity: 1;"><g class="fills"/><g class="errorbars"/><g class="lines"><path class="js-line" d="M0,5.84L11.02,22.58L22.04,28.59L33.06,30.61L44.08,33.42L55.1,35.85L66.12,37.19L77.14,39.11L88.16,40.22L110.2,44.21L121.22,48.55L132.24,60.28L143.27,68.11L154.29,73.44L165.31,75.58L176.33,79.22L187.35,81.87L198.37,81.89L209.39,86.44L220.41,88.91L231.43,97.66L242.45,111.59L253.47,130.18L275.51,155.03L286.53,162.19L308.57,176.66L319.59,185.6L330.61,191.77L341.63,193.35L352.65,201.05L363.67,206.93L385.71,217.95L396.73,221.34L407.76,227.84L418.78,232.34L440.82,241.99L451.84,244.25L528.98,253.47L540,254.45" style="vector-effect: non-scaling-stroke; fill: none; stroke: rgb(182, 232, 128); stroke-opacity: 1; stroke-width: 2px; opacity: 1;"/></g><g class="points"/><g class="text"/></g><g class="trace scatter trace9c95cc" style="stroke-miterlimit: 2; opacity: 1;"><g class="fills"/><g class="errorbars"/><g class="lines"><path class="js-line" d="M0,6.55L11.02,23.02L22.04,28.36L55.1,35.31L66.12,36.61L77.14,38.69L88.16,39.42L99.18,41.42L110.2,42.29L121.22,45.29L132.24,51.84L143.27,61.52L154.29,68.75L165.31,69.57L176.33,75.95L198.37,80.84L209.39,83.6L220.41,84.65L231.43,87.24L242.45,90.77L253.47,98.01L264.49,110.35L275.51,129.83L297.55,155.14L308.57,163.62L330.61,180.47L341.63,183.9L352.65,190.06L363.67,199.36L374.69,205.34L385.71,210.16L396.73,215L407.76,221.32L440.82,236.07L451.84,238.9L495.92,245.51L506.94,246.45L540,250.19" style="vector-effect: non-scaling-stroke; fill: none; stroke: rgb(255, 151, 255); stroke-opacity: 1; stroke-width: 2px; opacity: 1;"/></g><g class="points"/><g class="text"/></g><g class="trace scatter traceb9e7df" style="stroke-miterlimit: 2; opacity: 1;"><g class="fills"/><g class="errorbars"/><g class="lines"><path class="js-line" d="M0,5.95L11.02,22.58L22.04,28.25L44.08,32.96L55.1,35.44L88.16,40.11L99.18,42.75L110.2,45.85L121.22,55.56L132.24,64.86L143.27,70.99L154.29,74.28L165.31,75.43L176.33,78.88L187.35,79.97L209.39,83.86L220.41,85.93L231.43,85.65L242.45,90.26L253.47,96.97L264.49,108.04L275.51,131.85L286.53,143.92L297.55,154.71L308.57,163.91L319.59,173.12L330.61,181.26L341.63,186.03L352.65,192.76L363.67,199.09L374.69,204.4L385.71,209.84L396.73,214.26L407.76,220.56L418.78,225.16L429.8,230.59L440.82,235.01L451.84,237.64L462.86,239.47L528.98,247.53L540,248.61" style="vector-effect: non-scaling-stroke; fill: none; stroke: rgb(254, 203, 82); stroke-opacity: 1; stroke-width: 2px; opacity: 1;"/></g><g class="points"/><g class="text"/></g><g class="trace scatter trace864b41" style="stroke-miterlimit: 2; opacity: 1;"><g class="fills"/><g class="errorbars"/><g class="lines"><path class="js-line" d="M0,5.77L11.02,22.47L22.04,28.23L55.1,35.06L66.12,36.65L88.16,40.12L99.18,41.93L110.2,44.59L121.22,52.56L132.24,62.04L143.27,67.85L154.29,73.5L165.31,74.83L176.33,78.68L187.35,81.45L198.37,81.66L209.39,86.38L220.41,86.72L231.43,93.64L242.45,113.48L253.47,131.52L275.51,155.05L286.53,163.06L308.57,176.77L319.59,184.74L330.61,192.09L341.63,195.9L352.65,202.25L363.67,207.44L385.71,218.96L396.73,222.57L407.76,229.46L418.78,233.17L429.8,238.91L440.82,243.35L451.84,246.35L462.86,247.6L495.92,251.48L506.94,252.41L528.98,255.28L540,256.46" style="vector-effect: non-scaling-stroke; fill: none; stroke: rgb(99, 110, 250); stroke-opacity: 1; stroke-width: 2px; opacity: 1;"/></g><g class="points"/><g class="text"/></g><g class="trace scatter trace6a50bf" style="stroke-miterlimit: 2; opacity: 1;"><g class="fills"/><g class="errorbars"/><g class="lines"><path class="js-line" d="M0,6.2L11.02,22.89L22.04,28.39L55.1,35.33L66.12,36.74L77.14,39.23L88.16,40.03L99.18,42.69L110.2,46.78L121.22,57.38L132.24,66.06L143.27,71.52L154.29,75.82L165.31,75.86L176.33,80.57L187.35,82.21L198.37,85.39L209.39,90.01L220.41,101.65L231.43,118.2L242.45,127.88L253.47,141.17L264.49,152.02L275.51,160.84L286.53,165.27L308.57,180.04L319.59,186.2L330.61,192.32L341.63,195.74L363.67,208.19L374.69,213.06L385.71,217.39L396.73,223L407.76,229.64L418.78,233.05L429.8,239.06L440.82,243.32L451.84,246.2L462.86,247.46L517.96,254.1L528.98,255.22L540,256.57" style="vector-effect: non-scaling-stroke; fill: none; stroke: rgb(239, 85, 59); stroke-opacity: 1; stroke-width: 2px; opacity: 1;"/></g><g class="points"/><g class="text"/></g><g class="trace scatter trace101e28" style="stroke-miterlimit: 2; opacity: 1;"><g class="fills"/><g class="errorbars"/><g class="lines"><path class="js-line" d="M0,5.46L11.02,21.84L22.04,28L44.08,33.43L55.1,35.37L66.12,36.92L77.14,39.38L88.16,40.11L99.18,42.71L110.2,44.59L121.22,47.54L132.24,51.39L143.27,57.97L165.31,82.14L176.33,96.8L187.35,113.97L198.37,128.1L209.39,145.41L220.41,146.28L231.43,158.89L242.45,169.51L253.47,180.69L264.49,187.88L275.51,194.62L286.53,202.47L297.55,209.9L308.57,215.42L330.61,227.06L341.63,231.09L363.67,245.32L374.69,248.92L385.71,255.03L396.73,259.39L407.76,265.64L418.78,270.37L429.8,276.42L440.82,281.06L451.84,283.91L462.86,285.06L495.92,289.74L506.94,291L540,294.72" style="vector-effect: non-scaling-stroke; fill: none; stroke: rgb(0, 204, 150); stroke-opacity: 1; stroke-width: 2px; opacity: 1;"/></g><g class="points"/><g class="text"/></g><g class="trace scatter trace1d39cf" style="stroke-miterlimit: 2; opacity: 1;"><g class="fills"/><g class="errorbars"/><g class="lines"><path class="js-line" d="M0,5.89L11.02,22.6L22.04,28.1L55.1,35.25L66.12,36.57L99.18,41.79L110.2,44.8L121.22,54.53L132.24,65.67L143.27,70.57L154.29,73.52L165.31,73.96L176.33,77.38L220.41,89.1L231.43,102.99L242.45,111.73L253.47,124.7L275.51,149.12L286.53,156.21L297.55,166.64L308.57,173.31L319.59,182.87L330.61,190.44L341.63,193.98L352.65,202.61L385.71,219.27L396.73,224.35L407.76,230.86L418.78,235.15L440.82,245.13L451.84,247.87L517.96,256.32L528.98,256.98L540,258.51" style="vector-effect: non-scaling-stroke; fill: none; stroke: rgb(171, 99, 250); stroke-opacity: 1; stroke-width: 2px; opacity: 1;"/></g><g class="points"/><g class="text"/></g><g class="trace scatter tracee14f35" style="stroke-miterlimit: 2; opacity: 1;"><g class="fills"/><g class="errorbars"/><g class="lines"><path class="js-line" d="M0,5.84L11.02,22.69L22.04,28.31L44.08,33.12L55.1,35.74L66.12,36.83L77.14,38.75L88.16,39.88L99.18,42.38L110.2,45L121.22,52.8L132.24,63.04L143.27,69.65L154.29,74.88L165.31,75.22L176.33,79.09L187.35,81.22L198.37,81.44L209.39,83.15L231.43,86.62L242.45,90.87L253.47,101.09L264.49,119.07L275.51,138.7L286.53,147.25L297.55,158.33L308.57,167.09L319.59,176.23L330.61,183.88L341.63,187.55L352.65,194.57L374.69,207.11L385.71,212.21L396.73,216.08L407.76,223.5L418.78,227.35L429.8,233.07L440.82,237.66L451.84,240.68L495.92,246.68L506.94,247.51L540,251.44" style="vector-effect: non-scaling-stroke; fill: none; stroke: rgb(255, 161, 90); stroke-opacity: 1; stroke-width: 2px; opacity: 1;"/></g><g class="points"/><g class="text"/></g><g class="trace scatter tracecc1389" style="stroke-miterlimit: 2; opacity: 1;"><g class="fills"/><g class="errorbars"/><g class="lines"><path class="js-line" d="M0,6.03L11.02,22.44L22.04,28.35L33.06,30.4L44.08,33.36L77.14,38.78L88.16,39.8L110.2,44.37L121.22,52.64L132.24,63.3L143.27,69.42L154.29,74.65L165.31,74.64L176.33,78.8L187.35,80.24L198.37,81.58L209.39,83.98L242.45,88.63L253.47,95.56L264.49,105.05L275.51,125.02L297.55,152.67L308.57,161.38L330.61,178.82L341.63,183.26L352.65,190.17L363.67,198.03L396.73,212.78L407.76,219.94L418.78,224.69L429.8,230.77L440.82,235.21L451.84,237.71L473.88,241.3L484.9,242.95L540,249.06" style="vector-effect: non-scaling-stroke; fill: none; stroke: rgb(25, 211, 243); stroke-opacity: 1; stroke-width: 2px; opacity: 1;"/></g><g class="points"/><g class="text"/></g><g class="trace scatter tracea0f8a9" style="stroke-miterlimit: 2; opacity: 1;"><g class="fills"/><g class="errorbars"/><g class="lines"><path class="js-line" d="M0,5.95L11.02,22.7L22.04,28.26L33.06,31.16L44.08,33.26L77.14,39.45L88.16,40.43L99.18,43.48L110.2,49.39L121.22,59.45L132.24,68.25L143.27,72.66L154.29,75.17L165.31,75.4L176.33,79.49L187.35,80.1L198.37,82.35L220.41,85.05L231.43,88.06L242.45,89L253.47,94.5L264.49,96.62L275.51,101.83L286.53,103.27L297.55,108.55L308.57,120.79L319.59,140.58L330.61,156.15L341.63,162.23L352.65,174.18L363.67,182L385.71,197.06L396.73,201.29L407.76,209.67L418.78,214.68L440.82,225.1L451.84,228.41L473.88,231.56L484.9,233.38L517.96,237.43L528.98,238.68L540,239.68" style="vector-effect: non-scaling-stroke; fill: none; stroke: rgb(255, 102, 146); stroke-opacity: 1; stroke-width: 2px; opacity: 1;"/></g><g class="points"/><g class="text"/></g><g class="trace scatter traceed1013" style="stroke-miterlimit: 2; opacity: 1;"><g class="fills"/><g class="errorbars"/><g class="lines"><path class="js-line" d="M0,5.8L11.02,22.34L22.04,28.13L55.1,35.38L66.12,36.69L77.14,38.66L88.16,39.45L110.2,43.22L121.22,48.88L132.24,59.65L143.27,67.21L154.29,73.52L165.31,73.97L176.33,77.92L187.35,80.08L198.37,80.58L209.39,83.52L231.43,86.86L242.45,89.76L253.47,94.4L264.49,97.22L286.53,104.51L297.55,113.2L308.57,128.5L319.59,148.95L330.61,161.86L341.63,168.44L352.65,178.19L363.67,184.85L374.69,193.06L385.71,198.31L407.76,210.21L418.78,215.03L440.82,225.92L451.84,228.66L473.88,232.35L484.9,234.26L540,240.58" style="vector-effect: non-scaling-stroke; fill: none; stroke: rgb(182, 232, 128); stroke-opacity: 1; stroke-width: 2px; opacity: 1;"/></g><g class="points"/><g class="text"/></g><g class="trace scatter tracea8d4f2" style="stroke-miterlimit: 2; opacity: 1;"><g class="fills"/><g class="errorbars"/><g class="lines"><path class="js-line" d="M0,5.82L11.02,21.84L22.04,28.06L55.1,35.54L66.12,37.23L99.18,43.65L110.2,49.78L132.24,69.17L143.27,73.06L154.29,75.8L165.31,76.25L176.33,79.7L187.35,80.7L198.37,81.09L209.39,82.99L220.41,85.64L231.43,86.37L242.45,89.57L253.47,93.61L264.49,95.76L275.51,99.85L286.53,101.04L297.55,105.4L319.59,111.92L330.61,115.1L341.63,121.05L352.65,129.58L363.67,140.64L374.69,155.75L385.71,169.78L396.73,178.03L407.76,188.19L418.78,194.74L440.82,206.72L451.84,210.07L462.86,212.61L473.88,214.21L495.92,217.98L506.94,219.39L540,223.32" style="vector-effect: non-scaling-stroke; fill: none; stroke: rgb(255, 151, 255); stroke-opacity: 1; stroke-width: 2px; opacity: 1;"/></g><g class="points"/><g class="text"/></g><g class="trace scatter traceadb894" style="stroke-miterlimit: 2; opacity: 1;"><g class="fills"/><g class="errorbars"/><g class="lines"><path class="js-line" d="M0,6.07L11.02,22.56L22.04,28.4L55.1,35.53L66.12,36.49L77.14,38.84L88.16,39.59L110.2,43.55L121.22,48.28L132.24,58.21L143.27,66.48L154.29,73.08L165.31,75.07L176.33,82.95L187.35,94.17L198.37,104.51L209.39,116.79L220.41,125.2L231.43,137.43L242.45,145.11L253.47,157.09L275.51,174.07L286.53,180.64L297.55,190.29L308.57,192.5L319.59,201.33L330.61,207.05L341.63,209.14L352.65,215.89L363.67,222.38L374.69,227.89L396.73,237.2L407.76,242.96L418.78,247.36L429.8,252.9L440.82,257.69L451.84,260.51L484.9,265.29L495.92,266.73L540,271.76" style="vector-effect: non-scaling-stroke; fill: none; stroke: rgb(254, 203, 82); stroke-opacity: 1; stroke-width: 2px; opacity: 1;"/></g><g class="points"/><g class="text"/></g><g class="trace scatter trace9404de" style="stroke-miterlimit: 2; opacity: 1;"><g class="fills"/><g class="errorbars"/><g class="lines"><path class="js-line" d="M0,5.89L11.02,22.71L22.04,28.31L44.08,33.14L55.1,35.54L88.16,40.14L99.18,42.45L110.2,46.34L121.22,57.42L132.24,66.48L143.27,70.88L154.29,74.96L165.31,75.06L176.33,77.39L187.35,81.02L198.37,81.71L209.39,85.13L220.41,87.61L231.43,91.86L242.45,103.61L253.47,124.33L275.51,149.59L286.53,158.99L297.55,165.69L308.57,173.97L330.61,189.18L341.63,191.94L352.65,201.02L363.67,206.14L374.69,212.17L385.71,216.67L396.73,220.65L407.76,227.59L440.82,242.34L451.84,244.61L484.9,249.6L495.92,250.7L540,255.54" style="vector-effect: non-scaling-stroke; fill: none; stroke: rgb(99, 110, 250); stroke-opacity: 1; stroke-width: 2px; opacity: 1;"/></g><g class="points"/><g class="text"/></g><g class="trace scatter tracefef94f" style="stroke-miterlimit: 2; opacity: 1;"><g class="fills"/><g class="errorbars"/><g class="lines"><path class="js-line" d="M0,5.8L11.02,22.23L22.04,28.34L55.1,35L66.12,36.61L88.16,39.48L99.18,42.07L110.2,45.56L121.22,55.77L132.24,66.32L143.27,71.37L154.29,75.01L165.31,76.56L176.33,80.35L187.35,81.91L198.37,82.99L209.39,85.44L220.41,89.59L231.43,100.03L253.47,135.92L264.49,147.08L275.51,159.57L286.53,167.65L308.57,181.53L319.59,190.27L330.61,196.27L341.63,200.57L352.65,208.23L363.67,213.02L385.71,223.75L396.73,228.06L407.76,234.88L418.78,239.55L440.82,249.59L451.84,252.3L495.92,258.15L506.94,259.1L540,263.3" style="vector-effect: non-scaling-stroke; fill: none; stroke: rgb(239, 85, 59); stroke-opacity: 1; stroke-width: 2px; opacity: 1;"/></g><g class="points"/><g class="text"/></g><g class="trace scatter trace600fa0" style="stroke-miterlimit: 2; opacity: 1;"><g class="fills"/><g class="errorbars"/><g class="lines"><path class="js-line" d="M0,5.94L11.02,22.69L22.04,28.02L33.06,30.81L44.08,32.81L55.1,35.41L66.12,36.58L88.16,40.29L99.18,42.18L121.22,45.7L132.24,51.52L143.27,64.26L154.29,70.47L176.33,76.52L187.35,79.57L198.37,80.76L209.39,83.26L231.43,86.3L242.45,89.62L264.49,96.13L275.51,101.51L286.53,110.63L297.55,125.67L308.57,135.48L319.59,141.98L330.61,146.67L341.63,149.25L352.65,158.35L363.67,161.13L385.71,169.2L396.73,174.07L440.82,190.71L451.84,193.22L462.86,195.15L473.88,196.21L484.9,198.3L495.92,199.36L528.98,203.11L540,204.36" style="vector-effect: non-scaling-stroke; fill: none; stroke: rgb(0, 204, 150); stroke-opacity: 1; stroke-width: 2px; opacity: 1;"/></g><g class="points"/><g class="text"/></g><g class="trace scatter traced6770b" style="stroke-miterlimit: 2; opacity: 1;"><g class="fills"/><g class="errorbars"/><g class="lines"><path class="js-line" d="M0,5.94L11.02,22.84L22.04,28.34L55.1,35.48L66.12,37L77.14,38.97L88.16,39.99L110.2,44.19L121.22,48.23L132.24,58.33L143.27,65.88L154.29,73.28L165.31,74.12L176.33,79.12L187.35,83.17L198.37,92.59L209.39,106.66L220.41,116.49L231.43,127.9L242.45,137.44L253.47,150.62L264.49,160.88L275.51,167.57L286.53,174.19L297.55,182.26L308.57,186.32L319.59,193.89L330.61,199.85L341.63,202.19L352.65,207.38L363.67,213.49L396.73,227.4L407.76,233.3L418.78,237.44L429.8,242.8L451.84,250.03L462.86,251.88L540,261.1" style="vector-effect: non-scaling-stroke; fill: none; stroke: rgb(171, 99, 250); stroke-opacity: 1; stroke-width: 2px; opacity: 1;"/></g><g class="points"/><g class="text"/></g><g class="trace scatter trace34af6c" style="stroke-miterlimit: 2; opacity: 1;"><g class="fills"/><g class="errorbars"/><g class="lines"><path class="js-line" d="M0,5.47L11.02,22.36L22.04,28.42L55.1,35.53L66.12,36.91L77.14,39.12L88.16,40.18L99.18,42.71L110.2,46.61L132.24,64.24L143.27,70.37L154.29,74.73L165.31,76.66L176.33,82.81L187.35,91.17L198.37,100.22L209.39,114.04L220.41,121.72L231.43,132.59L242.45,140.87L253.47,151.59L275.51,166.83L286.53,171.67L297.55,176.9L308.57,183.04L319.59,190.08L330.61,195.64L341.63,199.28L352.65,204.56L363.67,210.66L374.69,214.14L385.71,219.82L396.73,223.87L407.76,229.75L418.78,233.7L429.8,238.84L440.82,242.78L451.84,245.71L462.86,247.02L506.94,251.97L517.96,253.01L540,255.62" style="vector-effect: non-scaling-stroke; fill: none; stroke: rgb(255, 161, 90); stroke-opacity: 1; stroke-width: 2px; opacity: 1;"/></g><g class="points"/><g class="text"/></g><g class="trace scatter trace95b5d0" style="stroke-miterlimit: 2; opacity: 1;"><g class="fills"/><g class="errorbars"/><g class="lines"><path class="js-line" d="M0,5.84L11.02,22.94L22.04,28.33L44.08,33.24L55.1,35.15L77.14,38.87L88.16,39.36L110.2,44.36L121.22,52.5L143.27,66.2L154.29,72.18L165.31,73.57L176.33,77.67L187.35,80.48L198.37,81.35L209.39,84.03L220.41,84.52L264.49,97.21L275.51,102.32L286.53,102.98L297.55,107.92L308.57,111.91L319.59,119.61L341.63,149.83L352.65,163.25L363.67,171.95L374.69,179.34L385.71,186.42L396.73,191.01L407.76,197.92L418.78,203.56L440.82,213.57L451.84,216.06L473.88,220.06L484.9,221.43L517.96,225.52L528.98,226.84L540,227.74" style="vector-effect: non-scaling-stroke; fill: none; stroke: rgb(25, 211, 243); stroke-opacity: 1; stroke-width: 2px; opacity: 1;"/></g><g class="points"/><g class="text"/></g><g class="trace scatter trace2d6ddb" style="stroke-miterlimit: 2; opacity: 1;"><g class="fills"/><g class="errorbars"/><g class="lines"><path class="js-line" d="M0,6.45L11.02,22.52L22.04,28.14L44.08,33.47L55.1,35.63L66.12,36.96L77.14,39.13L99.18,42.58L110.2,44.4L121.22,50.8L132.24,61.47L143.27,69.91L154.29,74.88L165.31,75.45L176.33,78.58L187.35,81.73L198.37,82.2L209.39,88.22L220.41,101.56L231.43,119.45L242.45,132.13L253.47,146.07L264.49,158.22L275.51,164.74L286.53,174.48L297.55,180.45L308.57,184.29L319.59,192.84L330.61,199.12L341.63,199.75L352.65,208.33L363.67,212.25L374.69,217.49L385.71,223.29L396.73,226.72L407.76,232.94L418.78,236.7L440.82,246.93L451.84,249.25L528.98,258.67L540,259.81" style="vector-effect: non-scaling-stroke; fill: none; stroke: rgb(255, 102, 146); stroke-opacity: 1; stroke-width: 2px; opacity: 1;"/></g><g class="points"/><g class="text"/></g><g class="trace scatter trace8a2ed7" style="stroke-miterlimit: 2; opacity: 1;"><g class="fills"/><g class="errorbars"/><g class="lines"><path class="js-line" d="M0,6.16L11.02,22.4L22.04,28.1L55.1,35.41L66.12,36.61L77.14,38.56L88.16,39.63L121.22,45.43L132.24,53.18L154.29,70.46L165.31,73.07L176.33,77.07L187.35,84.62L198.37,96.46L209.39,111.22L220.41,118.97L231.43,131.11L253.47,150.47L264.49,158.49L275.51,167.59L286.53,173.95L297.55,181.42L308.57,187.31L319.59,195.45L330.61,201.45L352.65,211.03L363.67,216.18L385.71,225.72L396.73,229.02L407.76,236.33L418.78,240.3L440.82,250.42L451.84,252.61L495.92,258.61L506.94,259.61L540,263.33" style="vector-effect: non-scaling-stroke; fill: none; stroke: rgb(182, 232, 128); stroke-opacity: 1; stroke-width: 2px; opacity: 1;"/></g><g class="points"/><g class="text"/></g><g class="trace scatter trace2cb0e5" style="stroke-miterlimit: 2; opacity: 1;"><g class="fills"/><g class="errorbars"/><g class="lines"><path class="js-line" d="M0,5.3L11.02,22.15L22.04,28.68L55.1,35.47L66.12,36.77L99.18,42.2L110.2,44.72L121.22,50.69L132.24,60.02L143.27,68.3L154.29,72.83L165.31,74.13L176.33,78.64L198.37,81.03L209.39,84.61L220.41,84.65L231.43,88.62L242.45,90.63L253.47,97.28L275.51,118.86L286.53,130.44L297.55,146.77L308.57,156.96L319.59,167.99L330.61,174.67L341.63,178.52L352.65,185.18L363.67,193.18L374.69,199.3L385.71,204.71L396.73,208.98L407.76,215.94L418.78,220.45L429.8,225.95L440.82,230.45L451.84,233.31L462.86,234.55L517.96,241.41L528.98,242.33L540,243.83" style="vector-effect: non-scaling-stroke; fill: none; stroke: rgb(255, 151, 255); stroke-opacity: 1; stroke-width: 2px; opacity: 1;"/></g><g class="points"/><g class="text"/></g><g class="trace scatter tracefd7e79" style="stroke-miterlimit: 2; opacity: 1;"><g class="fills"/><g class="errorbars"/><g class="lines"><path class="js-line" d="M0,6.08L11.02,22.67L22.04,28.5L44.08,33.1L55.1,35.25L66.12,36.35L77.14,38.87L88.16,40.07L99.18,43.78L110.2,49.88L121.22,60.5L132.24,68.26L143.27,73.28L154.29,76.46L165.31,77.02L176.33,79.61L187.35,83.05L198.37,81.94L209.39,85.97L220.41,87.83L231.43,93.84L242.45,106.63L253.47,125.11L264.49,140.7L275.51,154.92L286.53,163.14L297.55,170.1L308.57,176.1L319.59,183.41L330.61,190.89L341.63,194.68L363.67,206.94L374.69,212.07L385.71,217.28L396.73,220.25L407.76,227.48L418.78,232.2L429.8,237.88L440.82,242.05L451.84,244.59L462.86,245.91L495.92,250.37L506.94,251.32L540,254.93" style="vector-effect: non-scaling-stroke; fill: none; stroke: rgb(254, 203, 82); stroke-opacity: 1; stroke-width: 2px; opacity: 1;"/></g><g class="points"/><g class="text"/></g><g class="trace scatter tracef7db05" style="stroke-miterlimit: 2; opacity: 1;"><g class="fills"/><g class="errorbars"/><g class="lines"><path class="js-line" d="M0,5.9L11.02,22.38L22.04,28.41L55.1,35.01L66.12,36.21L77.14,38.49L88.16,39.58L110.2,44.74L121.22,53.39L132.24,62.87L143.27,68.56L154.29,74.47L165.31,75.29L176.33,79.41L187.35,80.69L198.37,81.76L209.39,85.62L220.41,86.97L231.43,89.48L242.45,100.69L253.47,119.99L264.49,132.81L275.51,147.27L308.57,171.65L319.59,179.56L341.63,190.15L352.65,197.27L374.69,208.47L385.71,212.39L396.73,216.82L407.76,223.61L418.78,227.58L429.8,234.03L440.82,238.34L451.84,240.87L495.92,246.81L506.94,247.6L540,251.69" style="vector-effect: non-scaling-stroke; fill: none; stroke: rgb(99, 110, 250); stroke-opacity: 1; stroke-width: 2px; opacity: 1;"/></g><g class="points"/><g class="text"/></g><g class="trace scatter trace67c740" style="stroke-miterlimit: 2; opacity: 1;"><g class="fills"/><g class="errorbars"/><g class="lines"><path class="js-line" d="M0,6.02L11.02,22.56L22.04,28.34L33.06,30.42L44.08,33.28L55.1,35.39L66.12,36.61L77.14,38.6L88.16,39.16L110.2,43.36L121.22,48.02L132.24,58.65L143.27,67.16L154.29,71.89L165.31,74.54L176.33,78.52L187.35,81.27L198.37,83.24L209.39,93.49L231.43,121.9L242.45,131.85L253.47,146.27L264.49,154.5L275.51,165.83L286.53,173.82L297.55,180.3L308.57,185.81L319.59,193.06L330.61,199.26L341.63,202.24L352.65,209.38L363.67,215.62L374.69,219.46L385.71,225.17L396.73,228.72L418.78,239.81L429.8,245L440.82,249.69L451.84,252.61L540,262.78" style="vector-effect: non-scaling-stroke; fill: none; stroke: rgb(239, 85, 59); stroke-opacity: 1; stroke-width: 2px; opacity: 1;"/></g><g class="points"/><g class="text"/></g><g class="trace scatter tracee8cf5c" style="stroke-miterlimit: 2; opacity: 1;"><g class="fills"/><g class="errorbars"/><g class="lines"><path class="js-line" d="M0,5.67L11.02,22.3L22.04,28.33L55.1,35.58L66.12,37.11L77.14,39.45L88.16,40.87L99.18,43.65L110.2,48.38L121.22,58.82L132.24,67.63L154.29,76.18L165.31,77.78L176.33,80.82L187.35,83.06L198.37,84.39L209.39,91.74L220.41,103.51L231.43,121.98L242.45,132.84L253.47,147.68L264.49,155.35L275.51,164.72L297.55,180.71L308.57,185.25L319.59,193.49L330.61,198.35L341.63,200.44L352.65,207.87L385.71,222.57L396.73,226.35L407.76,232.29L418.78,236.71L440.82,246.52L451.84,249.12L495.92,254.47L506.94,255.29L528.98,258L540,259.07" style="vector-effect: non-scaling-stroke; fill: none; stroke: rgb(0, 204, 150); stroke-opacity: 1; stroke-width: 2px; opacity: 1;"/></g><g class="points"/><g class="text"/></g><g class="trace scatter traceb2c786" style="stroke-miterlimit: 2; opacity: 1;"><g class="fills"/><g class="errorbars"/><g class="lines"><path class="js-line" d="M0,5.86L11.02,22.83L22.04,28.28L55.1,35.19L66.12,36.13L77.14,38.63L88.16,39.24L99.18,42.22L110.2,46.25L121.22,57.37L132.24,65.51L143.27,70.94L154.29,74.12L165.31,75.78L176.33,78.96L187.35,82.03L198.37,82.16L209.39,85.6L220.41,87.25L231.43,96.82L242.45,116.02L253.47,131.96L264.49,145.6L275.51,156.08L286.53,163.26L319.59,185.54L330.61,190.47L341.63,194.94L352.65,202.72L363.67,206.36L374.69,211.76L385.71,218.66L396.73,220.76L407.76,228.55L418.78,231.88L429.8,237.71L440.82,241.77L462.86,246.19L473.88,247.44L540,255.24" style="vector-effect: non-scaling-stroke; fill: none; stroke: rgb(171, 99, 250); stroke-opacity: 1; stroke-width: 2px; opacity: 1;"/></g><g class="points"/><g class="text"/></g><g class="trace scatter trace6efee2" style="stroke-miterlimit: 2; opacity: 1;"><g class="fills"/><g class="errorbars"/><g class="lines"><path class="js-line" d="M0,6.02L11.02,22.77L22.04,28.35L44.08,33.02L55.1,35.39L88.16,39.81L99.18,42.29L110.2,44.44L121.22,51.76L132.24,61.27L143.27,68.51L154.29,72.48L165.31,73.93L176.33,78.22L187.35,81.25L198.37,81.97L209.39,85.11L231.43,88.14L242.45,91.33L264.49,101.88L275.51,110L286.53,122.49L297.55,138.49L308.57,151.7L319.59,160.09L330.61,168.55L341.63,173.06L352.65,182.36L363.67,188.18L374.69,195.39L385.71,201.49L396.73,206.01L407.76,212.73L440.82,227.36L451.84,230.21L484.9,235.7L495.92,237.18L506.94,237.74L517.96,239.5L540,241.9" style="vector-effect: non-scaling-stroke; fill: none; stroke: rgb(255, 161, 90); stroke-opacity: 1; stroke-width: 2px; opacity: 1;"/></g><g class="points"/><g class="text"/></g><g class="trace scatter tracee1d739" style="stroke-miterlimit: 2; opacity: 1;"><g class="fills"/><g class="errorbars"/><g class="lines"><path class="js-line" d="M0,5.97L11.02,22.51L22.04,28.16L55.1,35.64L66.12,36.85L110.2,43.33L121.22,48.94L143.27,66.75L154.29,72.16L165.31,73.99L176.33,77.35L187.35,80.52L198.37,81.5L209.39,84.87L220.41,86.69L231.43,89.77L242.45,91.72L253.47,104.22L264.49,121.72L275.51,138.88L286.53,148.19L297.55,159.19L308.57,165.88L330.61,182.79L341.63,185.16L352.65,193.55L363.67,198.8L374.69,205.12L385.71,210.12L407.76,221.76L418.78,226.2L440.82,235.81L451.84,238.26L506.94,245.48L517.96,246.57L540,249.19" style="vector-effect: non-scaling-stroke; fill: none; stroke: rgb(25, 211, 243); stroke-opacity: 1; stroke-width: 2px; opacity: 1;"/></g><g class="points"/><g class="text"/></g><g class="trace scatter trace98eb05" style="stroke-miterlimit: 2; opacity: 1;"><g class="fills"/><g class="errorbars"/><g class="lines"><path class="js-line" d="M0,5.97L11.02,22.6L22.04,28.12L55.1,35L66.12,36.47L77.14,38.86L88.16,39.67L110.2,44.65L121.22,52.33L132.24,61.18L143.27,68.7L154.29,72.48L165.31,74.61L176.33,78.98L187.35,78.6L198.37,79.27L209.39,83.48L220.41,83.66L231.43,85.63L253.47,91.98L264.49,96.23L286.53,108.67L297.55,121.35L308.57,133.5L319.59,148.37L330.61,160.64L341.63,163.9L352.65,174.64L363.67,180.7L385.71,194.9L396.73,197.85L407.76,205.18L418.78,210.27L440.82,220.14L451.84,222.93L473.88,226.93L484.9,228.31L517.96,232.59L528.98,233.58L540,235" style="vector-effect: non-scaling-stroke; fill: none; stroke: rgb(255, 102, 146); stroke-opacity: 1; stroke-width: 2px; opacity: 1;"/></g><g class="points"/><g class="text"/></g><g class="trace scatter traceeb042a" style="stroke-miterlimit: 2; opacity: 1;"><g class="fills"/><g class="errorbars"/><g class="lines"><path class="js-line" d="M0,5.85L11.02,22.79L22.04,28.44L66.12,37.17L77.14,38.97L88.16,39.78L99.18,42.11L110.2,44.64L121.22,51.77L132.24,61.55L143.27,68.01L154.29,72.32L165.31,75.53L176.33,82.18L187.35,93.85L198.37,103.08L209.39,116.66L220.41,125.72L231.43,132.85L242.45,144.29L253.47,151.9L264.49,162.44L275.51,170.17L286.53,173.57L297.55,183.54L308.57,188.46L319.59,195.68L330.61,202.53L341.63,206.48L352.65,212.56L363.67,220.03L374.69,224.89L385.71,230.7L407.76,241.19L418.78,245.79L429.8,251.42L440.82,256.19L462.86,261.04L473.88,262.34L506.94,266.05L517.96,267.46L540,269.85" style="vector-effect: non-scaling-stroke; fill: none; stroke: rgb(182, 232, 128); stroke-opacity: 1; stroke-width: 2px; opacity: 1;"/></g><g class="points"/><g class="text"/></g><g class="trace scatter tracea33b4b" style="stroke-miterlimit: 2; opacity: 1;"><g class="fills"/><g class="errorbars"/><g class="lines"><path class="js-line" d="M0,5.49L11.02,22.84L22.04,27.9L33.06,30.99L44.08,33.07L110.2,44.96L121.22,51.28L132.24,61.9L143.27,70L154.29,74.62L165.31,75.86L176.33,79.06L187.35,81.01L198.37,79.79L209.39,83.44L220.41,85.48L231.43,90.2L242.45,99.25L253.47,118.24L264.49,128.59L275.51,141.47L286.53,148.04L297.55,156.36L308.57,165.51L319.59,171.3L330.61,178.67L341.63,183.8L352.65,188.68L363.67,195.67L374.69,202.84L385.71,207.49L396.73,211.51L407.76,218.01L418.78,222.49L429.8,227.92L440.82,232.42L451.84,234.39L473.88,238.11L484.9,239.35L495.92,240.99L506.94,241.8L540,245.63" style="vector-effect: non-scaling-stroke; fill: none; stroke: rgb(255, 151, 255); stroke-opacity: 1; stroke-width: 2px; opacity: 1;"/></g><g class="points"/><g class="text"/></g><g class="trace scatter trace302f7a" style="stroke-miterlimit: 2; opacity: 1;"><g class="fills"/><g class="errorbars"/><g class="lines"><path class="js-line" d="M0,5.89L11.02,22.63L22.04,27.96L44.08,33.28L55.1,35.25L88.16,39.54L99.18,42.11L110.2,44.85L121.22,54.36L132.24,64.51L143.27,70.62L154.29,75.27L165.31,75.65L176.33,77.41L187.35,81.32L198.37,82.31L209.39,84.92L220.41,85.9L231.43,88.12L242.45,92.12L253.47,97.14L264.49,105.3L275.51,122.3L286.53,137.72L297.55,149.68L308.57,159.95L319.59,168.85L330.61,177.76L341.63,180.18L352.65,189.75L363.67,194.3L374.69,202.15L385.71,206.15L407.76,218.59L418.78,222.76L440.82,232.99L451.84,235.53L484.9,240.4L495.92,241.52L540,246.52" style="vector-effect: non-scaling-stroke; fill: none; stroke: rgb(254, 203, 82); stroke-opacity: 1; stroke-width: 2px; opacity: 1;"/></g><g class="points"/><g class="text"/></g><g class="trace scatter tracef04b12" style="stroke-miterlimit: 2; opacity: 1;"><g class="fills"/><g class="errorbars"/><g class="lines"><path class="js-line" d="M0,5.88L11.02,21.91L22.04,28.14L55.1,35.49L66.12,36.64L77.14,38.93L88.16,39.93L110.2,44.22L121.22,49.64L132.24,60.69L143.27,69.96L154.29,74.73L165.31,76.54L176.33,80.85L187.35,83L198.37,87.56L209.39,104.54L220.41,117.65L231.43,127.53L242.45,140.85L253.47,152.53L264.49,161.98L275.51,170.08L286.53,175.32L297.55,183.86L308.57,186.77L319.59,195.59L330.61,200.18L341.63,202.81L363.67,215.43L374.69,219.39L385.71,224.75L396.73,228.32L407.76,234.88L418.78,239.67L429.8,245.28L440.82,249.54L451.84,252.41L462.86,254.29L473.88,255.07L484.9,257.29L528.98,262.05L540,263.39" style="vector-effect: non-scaling-stroke; fill: none; stroke: rgb(99, 110, 250); stroke-opacity: 1; stroke-width: 2px; opacity: 1;"/></g><g class="points"/><g class="text"/></g><g class="trace scatter trace87033c" style="stroke-miterlimit: 2; opacity: 1;"><g class="fills"/><g class="errorbars"/><g class="lines"><path class="js-line" d="M0,5.46L11.02,22.6L22.04,28.04L55.1,35.42L66.12,36.79L77.14,39.06L88.16,39.64L121.22,45.13L132.24,48.48L143.27,55.29L154.29,64.16L165.31,69.04L176.33,74.75L198.37,81.4L209.39,96.39L231.43,124.53L242.45,133.42L253.47,147.36L264.49,157.45L275.51,166.66L286.53,174.53L297.55,181.84L308.57,185.54L319.59,195.61L330.61,200.25L341.63,202.48L352.65,209.32L363.67,215.39L374.69,220.42L385.71,226.42L396.73,229.99L407.76,236.95L418.78,240.97L429.8,246.7L440.82,251.31L451.84,254.21L462.86,255.34L506.94,261.48L517.96,262.76L540,265" style="vector-effect: non-scaling-stroke; fill: none; stroke: rgb(239, 85, 59); stroke-opacity: 1; stroke-width: 2px; opacity: 1;"/></g><g class="points"/><g class="text"/></g><g class="trace scatter trace041b4b" style="stroke-miterlimit: 2; opacity: 1;"><g class="fills"/><g class="errorbars"/><g class="lines"><path class="js-line" d="M0,5.79L11.02,22.6L22.04,27.63L44.08,32.95L55.1,35.49L66.12,36.79L77.14,39.33L99.18,42.33L110.2,43.38L121.22,45.01L132.24,45.36L154.29,48.26L165.31,48.89L176.33,51.19L187.35,58.8L198.37,70.86L209.39,86.45L231.43,110.32L242.45,119.85L253.47,134.04L264.49,143.05L275.51,152.69L286.53,160.11L297.55,169.35L308.57,173.43L319.59,183.45L330.61,190.36L352.65,203.45L363.67,209.2L374.69,215.96L385.71,221.38L418.78,238.4L429.8,243.38L440.82,248.27L451.84,251.04L484.9,256.05L495.92,257.43L540,262.26" style="vector-effect: non-scaling-stroke; fill: none; stroke: rgb(0, 204, 150); stroke-opacity: 1; stroke-width: 2px; opacity: 1;"/></g><g class="points"/><g class="text"/></g><g class="trace scatter trace4ecfc4" style="stroke-miterlimit: 2; opacity: 1;"><g class="fills"/><g class="errorbars"/><g class="lines"><path class="js-line" d="M0,6.08L11.02,22.57L22.04,28.59L55.1,36.03L66.12,37.31L77.14,39.11L88.16,39.7L110.2,44.57L121.22,51.24L143.27,66.71L154.29,72.43L165.31,74.65L176.33,79.25L187.35,80.59L198.37,82.92L209.39,86.05L220.41,87.14L231.43,90.14L242.45,97.23L253.47,113.32L264.49,126.31L275.51,139.74L286.53,146.66L297.55,158.62L308.57,165.55L319.59,172.73L330.61,182.54L341.63,185.66L352.65,192.85L374.69,205.18L385.71,210.63L418.78,226.44L429.8,232.26L440.82,236.83L451.84,239.16L495.92,246.08L506.94,246.59L540,250.57" style="vector-effect: non-scaling-stroke; fill: none; stroke: rgb(171, 99, 250); stroke-opacity: 1; stroke-width: 2px; opacity: 1;"/></g><g class="points"/><g class="text"/></g><g class="trace scatter tracea8a752" style="stroke-miterlimit: 2; opacity: 1;"><g class="fills"/><g class="errorbars"/><g class="lines"><path class="js-line" d="M0,6.07L11.02,22.3L22.04,28.22L44.08,33.34L55.1,35.66L66.12,36.88L77.14,39.14L88.16,39.73L99.18,42.12L110.2,44.16L121.22,51.67L132.24,63.23L143.27,70.01L154.29,73.85L165.31,76.32L176.33,79.93L187.35,82.07L198.37,82.32L209.39,85.32L220.41,87.92L231.43,95.93L253.47,131.86L264.49,142.84L275.51,156.5L286.53,163.22L297.55,172.32L308.57,178.69L319.59,186.47L330.61,192.04L341.63,194.44L352.65,203.44L363.67,208.92L374.69,213.47L396.73,223.11L407.76,229.45L418.78,233.88L429.8,239.22L440.82,243.97L451.84,246.23L484.9,251.01L495.92,252.15L540,257.03" style="vector-effect: non-scaling-stroke; fill: none; stroke: rgb(255, 161, 90); stroke-opacity: 1; stroke-width: 2px; opacity: 1;"/></g><g class="points"/><g class="text"/></g><g class="trace scatter traced48573" style="stroke-miterlimit: 2; opacity: 1;"><g class="fills"/><g class="errorbars"/><g class="lines"><path class="js-line" d="M0,5.87L11.02,22.66L22.04,28.34L55.1,35.73L66.12,36.63L77.14,39.34L88.16,40.46L110.2,44.88L121.22,54.52L132.24,64.2L143.27,71.28L154.29,75.02L165.31,76.95L187.35,82.77L198.37,83.16L209.39,86.37L220.41,96.56L231.43,114.45L242.45,126.79L253.47,141.32L264.49,152.51L275.51,162.04L286.53,169.8L308.57,182.59L319.59,190.66L330.61,197.68L341.63,199.81L363.67,212.68L374.69,217.04L385.71,222.9L396.73,225.82L407.76,232.76L418.78,236.78L429.8,242.72L440.82,246.89L451.84,249.72L462.86,250.95L506.94,256.94L517.96,257.84L540,260.11" style="vector-effect: non-scaling-stroke; fill: none; stroke: rgb(25, 211, 243); stroke-opacity: 1; stroke-width: 2px; opacity: 1;"/></g><g class="points"/><g class="text"/></g><g class="trace scatter trace14d858" style="stroke-miterlimit: 2; opacity: 1;"><g class="fills"/><g class="errorbars"/><g class="lines"><path class="js-line" d="M0,5.71L11.02,21.97L22.04,28.36L44.08,33.38L55.1,35.47L77.14,39.37L88.16,40.14L110.2,43.93L121.22,47.09L143.27,67.34L154.29,73.64L165.31,74.68L176.33,79.17L198.37,82.85L209.39,91.03L242.45,133.59L253.47,144.21L264.49,153.93L275.51,164.66L297.55,178.74L308.57,184.08L319.59,191.21L330.61,195.89L341.63,198.5L352.65,206.25L363.67,212.3L374.69,216.01L385.71,221.8L396.73,224.53L407.76,231.3L418.78,236.16L440.82,245.11L451.84,248.28L517.96,256.4L528.98,257.07L540,258.65" style="vector-effect: non-scaling-stroke; fill: none; stroke: rgb(255, 102, 146); stroke-opacity: 1; stroke-width: 2px; opacity: 1;"/></g><g class="points"/><g class="text"/></g><g class="trace scatter trace52d21e" style="stroke-miterlimit: 2; opacity: 1;"><g class="fills"/><g class="errorbars"/><g class="lines"><path class="js-line" d="M0,6.03L11.02,22.47L22.04,28.2L55.1,35.56L66.12,36.84L99.18,42.29L110.2,46.2L143.27,69.79L154.29,74.89L165.31,76.53L176.33,79.27L187.35,80.82L198.37,80.9L209.39,84.14L220.41,84.15L231.43,87.65L242.45,88.57L253.47,93.98L264.49,97.42L275.51,100.17L286.53,101.72L308.57,107.66L319.59,109.16L352.65,116.46L363.67,119.3L429.8,134.55L440.82,137.75L462.86,140L473.88,140.77L540,145.71" style="vector-effect: non-scaling-stroke; fill: none; stroke: rgb(182, 232, 128); stroke-opacity: 1; stroke-width: 2px; opacity: 1;"/></g><g class="points"/><g class="text"/></g><g class="trace scatter tracef0b8ac" style="stroke-miterlimit: 2; opacity: 1;"><g class="fills"/><g class="errorbars"/><g class="lines"><path class="js-line" d="M0,6.39L11.02,22.88L22.04,28.55L33.06,30.39L44.08,33.09L66.12,36.93L77.14,38.67L99.18,41.51L110.2,43.45L121.22,48.4L132.24,59.87L143.27,67.61L154.29,73.73L165.31,74.37L176.33,79.7L187.35,81.61L198.37,82.27L220.41,88.78L231.43,97.76L242.45,118.6L253.47,136.34L264.49,143.94L275.51,156.57L286.53,163.46L297.55,173.15L308.57,179.21L319.59,186.63L330.61,193.82L341.63,197.37L352.65,203.74L363.67,209.22L374.69,215.27L385.71,220.2L396.73,223.42L407.76,230.83L429.8,240.58L440.82,245.32L451.84,248.26L462.86,249.39L484.9,252.43L495.92,253.71L540,258.5" style="vector-effect: non-scaling-stroke; fill: none; stroke: rgb(255, 151, 255); stroke-opacity: 1; stroke-width: 2px; opacity: 1;"/></g><g class="points"/><g class="text"/></g><g class="trace scatter tracee8ce04" style="stroke-miterlimit: 2; opacity: 1;"><g class="fills"/><g class="errorbars"/><g class="lines"><path class="js-line" d="M0,5.95L11.02,22.46L22.04,28.05L55.1,35.37L66.12,36.36L77.14,38.68L88.16,39.31L99.18,42.03L110.2,42.94L121.22,47.6L132.24,56.32L143.27,65.42L154.29,72.28L165.31,72.55L176.33,77.49L187.35,80.92L198.37,82.26L220.41,87.26L231.43,88.5L242.45,96.45L253.47,114.16L264.49,131.74L275.51,143.09L286.53,153.19L297.55,162.04L308.57,168.39L319.59,177.22L330.61,185.89L341.63,187.32L363.67,201.81L374.69,206.44L385.71,212.3L396.73,216.3L407.76,223.06L418.78,227.58L440.82,237.23L451.84,240.19L495.92,246.15L506.94,247.32L540,250.87" style="vector-effect: non-scaling-stroke; fill: none; stroke: rgb(254, 203, 82); stroke-opacity: 1; stroke-width: 2px; opacity: 1;"/></g><g class="points"/><g class="text"/></g></g></g><g class="overplot"/><path class="xlines-above crisp" d="M0,0" style="fill: none;"/><path class="ylines-above crisp" d="M0,0" style="fill: none;"/><g class="overlines-above"/><g class="xaxislayer-above"><g class="xtick"><text text-anchor="middle" x="0" y="433" transform="translate(80,0)" style="font-family: 'Open Sans', verdana, arial, sans-serif; font-size: 12px; fill: rgb(42, 63, 95); fill-opacity: 1; white-space: pre; opacity: 1;">0</text></g><g class="xtick"><text text-anchor="middle" x="0" y="433" style="font-family: 'Open Sans', verdana, arial, sans-serif; font-size: 12px; fill: rgb(42, 63, 95); fill-opacity: 1; white-space: pre; opacity: 1;" transform="translate(190.2,0)">10</text></g><g class="xtick"><text text-anchor="middle" x="0" y="433" style="font-family: 'Open Sans', verdana, arial, sans-serif; font-size: 12px; fill: rgb(42, 63, 95); fill-opacity: 1; white-space: pre; opacity: 1;" transform="translate(300.40999999999997,0)">20</text></g><g class="xtick"><text text-anchor="middle" x="0" y="433" style="font-family: 'Open Sans', verdana, arial, sans-serif; font-size: 12px; fill: rgb(42, 63, 95); fill-opacity: 1; white-space: pre; opacity: 1;" transform="translate(410.61,0)">30</text></g><g class="xtick"><text text-anchor="middle" x="0" y="433" style="font-family: 'Open Sans', verdana, arial, sans-serif; font-size: 12px; fill: rgb(42, 63, 95); fill-opacity: 1; white-space: pre; opacity: 1;" transform="translate(520.8199999999999,0)">40</text></g></g><g class="yaxislayer-above"><g class="ytick"><text text-anchor="end" x="79" y="4.199999999999999" transform="translate(0,404.78)" style="font-family: 'Open Sans', verdana, arial, sans-serif; font-size: 12px; fill: rgb(42, 63, 95); fill-opacity: 1; white-space: pre; opacity: 1;">5.25</text></g><g class="ytick"><text text-anchor="end" x="79" y="4.199999999999999" style="font-family: 'Open Sans', verdana, arial, sans-serif; font-size: 12px; fill: rgb(42, 63, 95); fill-opacity: 1; white-space: pre; opacity: 1;" transform="translate(0,358.32)">5.3</text></g><g class="ytick"><text text-anchor="end" x="79" y="4.199999999999999" style="font-family: 'Open Sans', verdana, arial, sans-serif; font-size: 12px; fill: rgb(42, 63, 95); fill-opacity: 1; white-space: pre; opacity: 1;" transform="translate(0,311.87)">5.35</text></g><g class="ytick"><text text-anchor="end" x="79" y="4.199999999999999" style="font-family: 'Open Sans', verdana, arial, sans-serif; font-size: 12px; fill: rgb(42, 63, 95); fill-opacity: 1; white-space: pre; opacity: 1;" transform="translate(0,265.41999999999996)">5.4</text></g><g class="ytick"><text text-anchor="end" x="79" y="4.199999999999999" style="font-family: 'Open Sans', verdana, arial, sans-serif; font-size: 12px; fill: rgb(42, 63, 95); fill-opacity: 1; white-space: pre; opacity: 1;" transform="translate(0,218.95999999999998)">5.45</text></g><g class="ytick"><text text-anchor="end" x="79" y="4.199999999999999" style="font-family: 'Open Sans', verdana, arial, sans-serif; font-size: 12px; fill: rgb(42, 63, 95); fill-opacity: 1; white-space: pre; opacity: 1;" transform="translate(0,172.51)">5.5</text></g><g class="ytick"><text text-anchor="end" x="79" y="4.199999999999999" style="font-family: 'Open Sans', verdana, arial, sans-serif; font-size: 12px; fill: rgb(42, 63, 95); fill-opacity: 1; white-space: pre; opacity: 1;" transform="translate(0,126.05)">5.55</text></g></g><g class="overaxes-above"/></g></g><g class="polarlayer"/><g class="ternarylayer"/><g class="geolayer"/><g class="funnelarealayer"/><g class="pielayer"/><g class="iciclelayer"/><g class="treemaplayer"/><g class="sunburstlayer"/><g class="glimages"/><defs id="topdefs-47606a"><g class="clips"/></defs><g class="layer-above"><g class="imagelayer"/><g class="shapelayer"/></g><g class="infolayer"><g class="g-gtitle"><text class="gtitle" x="35" y="50" text-anchor="start" dy="0em" style="font-family: 'Open Sans', verdana, arial, sans-serif; font-size: 17px; fill: rgb(42, 63, 95); opacity: 1; font-weight: normal; white-space: pre;">Train Loss: ascad_50-eff_cnn</text></g><g class="g-xtitle"/><g class="g-ytitle"/></g></svg>