<svg class="main-svg" xmlns="http://www.w3.org/2000/svg" xmlns:xlink="http://www.w3.org/1999/xlink" width="700" height="500" style="" viewBox="0 0 700 500"><rect x="0" y="0" width="700" height="500" style="fill: rgb(255, 255, 255); fill-opacity: 1;"/><defs id="defs-c2cf07"><g class="clips"><clipPath id="clipc2cf07xyplot" class="plotclip"><rect width="540" height="320"/></clipPath><clipPath class="axesclip" id="clipc2cf07x"><rect x="80" y="0" width="540" height="500"/></clipPath><clipPath class="axesclip" id="clipc2cf07y"><rect x="0" y="100" width="700" height="320"/></clipPath><clipPath class="axesclip" id="clipc2cf07xy"><rect x="80" y="100" width="540" height="320"/></clipPath></g><g class="gradients"/><g class="patterns"/></defs><g class="bglayer"><rect class="bg" x="80" y="100" width="540" height="320" style="fill: rgb(229, 236, 246); fill-opacity: 1; stroke-width: 0;"/></g><g class="layer-below"><g class="imagelayer"/><g class="shapelayer"/></g><g class="cartesianlayer"><g class="subplot xy"><g class="layer-subplot"><g class="shapelayer"/><g class="imagelayer"/></g><g class="gridlayer"><g class="x"><path class="xgrid crisp" transform="translate(188.43,0)" d="M0,100v320" style="stroke: rgb(255, 255, 255); stroke-opacity: 1; stroke-width: 1px;"/><path class="xgrid crisp" transform="translate(296.87,0)" d="M0,100v320" style="stroke: rgb(255, 255, 255); stroke-opacity: 1; stroke-width: 1px;"/><path class="xgrid crisp" transform="translate(405.3,0)" d="M0,100v320" style="stroke: rgb(255, 255, 255); stroke-opacity: 1; stroke-width: 1px;"/><path class="xgrid crisp" transform="translate(513.73,0)" d="M0,100v320" style="stroke: rgb(255, 255, 255); stroke-opacity: 1; stroke-width: 1px;"/></g><g class="y"><path class="ygrid crisp" transform="translate(0,355.64)" d="M80,0h540" style="stroke: rgb(255, 255, 255); stroke-opacity: 1; stroke-width: 1px;"/><path class="ygrid crisp" transform="translate(0,291.28999999999996)" d="M80,0h540" style="stroke: rgb(255, 255, 255); stroke-opacity: 1; stroke-width: 1px;"/><path class="ygrid crisp" transform="translate(0,226.93)" d="M80,0h540" style="stroke: rgb(255, 255, 255); stroke-opacity: 1; stroke-width: 1px;"/><path class="ygrid crisp" transform="translate(0,162.57999999999998)" d="M80,0h540" style="stroke: rgb(255, 255, 255); stroke-opacity: 1; stroke-width: 1px;"/></g></g><g class="zerolinelayer"><path class="xzl zl crisp" transform="translate(80,0)" d="M0,100v320" style="stroke: rgb(255, 255, 255); stroke-opacity: 1; stroke-width: 2px;"/><path class="yzl zl crisp" transform="translate(0,420)" d="M80,0h540" style="stroke: rgb(255, 255, 255); stroke-opacity: 1; stroke-width: 2px;"/></g><path class="xlines-below"/><path class="ylines-below"/><g class="overlines-below"/><g class="xaxislayer-below"/><g class="yaxislayer-below"/><g class="overaxes-below"/><g class="plot" transform="translate(80,100)" clip-path="url(#clipc2cf07xyplot)"><g class="scatterlayer mlayer"><g class="trace scatter tracedc2004" style="stroke-miterlimit: 2; opacity: 1;"><g class="fills"/><g class="errorbars"/><g class="lines"><path class="js-line" d="M0,173.48L2.17,177.47L4.34,186.39L8.67,207.58L10.84,207.25L13.01,205.11L15.18,205.11L21.69,222.72L23.86,226.36L28.19,238.11L30.36,241.19L32.53,240.7L34.7,243.93L36.87,246.07L39.04,245.13L41.2,248.91L43.37,249.2L52.05,252.61L54.22,252.86L58.55,254.43L60.72,256.8L62.89,256.78L65.06,259.71L69.4,264.27L71.57,266.6L73.73,265.48L75.9,268.57L78.07,269.93L80.24,269.25L82.41,271.32L84.58,271.09L86.75,272.15L88.92,271.68L95.42,273.06L97.59,274.66L99.76,275.05L101.93,277.15L108.43,279.95L110.6,279.66L114.94,280.06L117.11,281.52L121.45,282.24L123.61,284.33L127.95,285.2L130.12,284.94L134.46,285.42L136.63,285.71L140.96,286.19L143.13,287.9L149.64,290.13L151.81,290.53L158.31,292.15L160.48,291.8L164.82,293.19L166.99,293.96L182.17,295.85L184.34,295.34L197.35,296.5L199.52,295.94L203.86,297.75L206.02,298.18L210.36,298.53L212.53,298.53L216.87,299.24L219.04,299.3L221.2,300.45L223.37,300.58L232.05,302.71L234.22,303.23L236.39,303.38L238.55,304.52L245.06,307.21L247.23,307.32L258.07,307.17L260.24,307.71L279.76,309.9L281.93,309.57L297.11,311.12L299.28,310.76L303.61,311.51L305.78,311.52L310.12,311.89L312.29,311.54L323.13,313L325.3,312.81L346.99,314.17L349.16,314.27L379.52,316.22L381.69,316.2L487.95,318.22L490.12,318.22L540,318.69" style="vector-effect: non-scaling-stroke; fill: none; stroke: rgb(99, 110, 250); stroke-opacity: 1; stroke-width: 2px; opacity: 1;"/></g><g class="points"/><g class="text"/></g><g class="trace scatter tracefba0e8" style="stroke-miterlimit: 2; opacity: 1;"><g class="fills"/><g class="errorbars"/><g class="lines"><path class="js-line" d="M0,194.24L2.17,217.06L4.34,229.18L6.51,234.97L8.67,244.86L13.01,254.19L15.18,257.59L19.52,262.81L21.69,271.54L23.86,273.36L26.02,277.77L28.19,279.77L30.36,280.05L34.7,279.39L36.87,280.86L43.37,286.07L45.54,286.51L47.71,289.19L49.88,290.33L56.39,296.59L58.55,297.21L62.89,298.93L65.06,299.07L69.4,301L71.57,302.28L80.24,304.05L82.41,305.13L86.75,305.22L88.92,305.49L93.25,307.32L95.42,307.27L108.43,309.37L110.6,309.37L119.28,309.83L121.45,309.99L125.78,310.35L127.95,310.37L132.29,310.27L134.46,310.81L169.16,313.08L171.33,313.2L184.34,313.68L186.51,313.54L197.35,314.63L199.52,314.67L210.36,314.97L212.53,315.15L258.07,316.2L260.24,316.46L271.08,316.82L273.25,316.83L288.43,317.17L290.6,317.25L535.66,319.21L537.83,319.19L540,319.19" style="vector-effect: non-scaling-stroke; fill: none; stroke: rgb(239, 85, 59); stroke-opacity: 1; stroke-width: 2px; opacity: 1;"/></g><g class="points"/><g class="text"/></g><g class="trace scatter trace11f392" style="stroke-miterlimit: 2; opacity: 1;"><g class="fills"/><g class="errorbars"/><g class="lines"><path class="js-line" d="M0,196.41L2.17,223.65L4.34,236.66L8.67,252.86L10.84,255.18L13.01,256.71L15.18,261.67L19.52,269.26L21.69,275.16L28.19,282.97L30.36,284.59L32.53,284.69L34.7,285.57L39.04,287.78L41.2,290.33L47.71,293.67L49.88,294.94L52.05,295.69L54.22,297.66L58.55,300.19L60.72,300.37L67.23,301.16L69.4,302.88L71.57,304.25L73.73,303.74L75.9,305.61L78.07,305.92L82.41,307.76L84.58,307.86L88.92,308.29L91.08,308.96L95.42,310.44L97.59,310.75L110.6,312.46L112.77,312.38L121.45,312.48L123.61,312.96L136.63,312.84L138.8,312.86L206.02,315.75L208.19,315.87L219.04,315.78L221.2,316.25L236.39,316.85L238.55,317.01L540,319.61" style="vector-effect: non-scaling-stroke; fill: none; stroke: rgb(0, 204, 150); stroke-opacity: 1; stroke-width: 2px; opacity: 1;"/></g><g class="points"/><g class="text"/></g><g class="trace scatter trace8d808f" style="stroke-miterlimit: 2; opacity: 1;"><g class="fills"/><g class="errorbars"/><g class="lines"><path class="js-line" d="M0,179.69L2.17,179.91L4.34,192.44L8.67,214.33L10.84,214.23L13.01,211.73L15.18,213.83L26.02,236.54L28.19,241.64L30.36,245.46L32.53,245.19L34.7,249.14L36.87,251.14L39.04,250.74L41.2,253.51L43.37,257.24L45.54,256.44L47.71,258.18L49.88,258.68L52.05,263.19L54.22,263.6L58.55,269.02L60.72,271.03L62.89,271.14L65.06,270.47L67.23,271.21L69.4,273.02L71.57,274.45L73.73,274.66L75.9,276.92L78.07,277.35L80.24,276.75L82.41,277.59L84.58,277.17L86.75,277.54L88.92,277.94L91.08,279.68L93.25,283.29L95.42,283.99L99.76,286.36L101.93,286.37L104.1,287.19L106.27,289.11L112.77,289.84L114.94,289.32L117.11,290.83L119.28,290.73L121.45,290.89L123.61,292.07L127.95,293.16L130.12,292.71L132.29,292.8L134.46,294.53L138.8,296.1L140.96,296.12L143.13,298.22L145.3,298.89L149.64,299.42L151.81,298.97L158.31,299.5L160.48,298.89L169.16,302.41L171.33,302.38L175.66,302.59L177.83,303.24L182.17,303.16L184.34,302.83L190.84,304.36L193.01,304.36L206.02,306.11L208.19,306.79L212.53,308.2L214.7,308.39L236.39,311.29L238.55,311.85L242.89,312.75L245.06,313.14L251.57,312.91L253.73,313.37L266.75,313.18L268.92,313.45L288.43,314.58L290.6,314.49L299.28,314.83L301.45,315.22L323.13,316.37L325.3,316.33L351.33,317.82L353.49,317.68L414.22,318.56L416.39,318.52L444.58,318.69L446.75,318.71L540,319.45" style="vector-effect: non-scaling-stroke; fill: none; stroke: rgb(171, 99, 250); stroke-opacity: 1; stroke-width: 2px; opacity: 1;"/></g><g class="points"/><g class="text"/></g><g class="trace scatter trace947cf1" style="stroke-miterlimit: 2; opacity: 1;"><g class="fills"/><g class="errorbars"/><g class="lines"><path class="js-line" d="M0,193.36L6.51,233.38L8.67,242.36L10.84,246.08L13.01,246.43L15.18,250.48L17.35,252.76L19.52,256.56L21.69,262.49L23.86,265.05L26.02,268.88L28.19,273.56L30.36,275.71L32.53,275.54L34.7,276.8L39.04,281.82L41.2,283.64L45.54,285.43L47.71,286.74L54.22,290.92L56.39,293.78L60.72,297.51L62.89,297.68L71.57,301.16L73.73,301.21L75.9,302.66L78.07,302.24L82.41,304.44L84.58,304.19L86.75,305.02L88.92,305.02L93.25,306.97L95.42,307.06L99.76,308.6L101.93,309.52L110.6,310.62L112.77,310.45L127.95,311.44L130.12,311.52L134.46,311.57L136.63,311.83L147.47,313L149.64,312.91L156.14,313.14L158.31,313.5L171.33,314.14L173.49,314.53L186.51,314.4L188.67,314.79L197.35,314.75L199.52,315.06L227.71,315.77L229.88,316.1L238.55,316.24L240.72,316.67L266.75,317.17L268.92,317.22L362.17,318.7L364.34,318.74L522.65,319.67L524.82,319.64L540,319.7" style="vector-effect: non-scaling-stroke; fill: none; stroke: rgb(255, 161, 90); stroke-opacity: 1; stroke-width: 2px; opacity: 1;"/></g><g class="points"/><g class="text"/></g><g class="trace scatter trace6259f6" style="stroke-miterlimit: 2; opacity: 1;"><g class="fills"/><g class="errorbars"/><g class="lines"><path class="js-line" d="M0,171.21L2.17,174.85L4.34,183.61L8.67,202.09L10.84,204.11L13.01,204.35L15.18,210.83L19.52,217.97L21.69,225.13L23.86,223.71L26.02,229.92L30.36,238.18L32.53,237.63L36.87,243.42L39.04,244.47L41.2,246.18L43.37,250.05L45.54,250.52L47.71,252.18L52.05,258.19L54.22,257.96L56.39,259.88L58.55,263.05L60.72,265.89L62.89,266.1L65.06,265.39L67.23,266.51L73.73,270.51L75.9,272.94L80.24,273.95L82.41,275.43L84.58,274.81L86.75,275.81L93.25,280.82L95.42,283.48L99.76,285.21L101.93,286.68L104.1,287.14L106.27,289.1L112.77,289.05L114.94,289.68L117.11,291.55L119.28,291.39L121.45,291.9L123.61,290.99L132.29,291.72L134.46,293.25L138.8,293L140.96,294.21L143.13,295.39L145.3,294.72L147.47,295.43L149.64,294.5L156.14,294.99L158.31,295.49L162.65,295.4L164.82,296.23L173.49,299.57L175.66,299.19L186.51,299.92L188.67,300.86L197.35,301.4L199.52,301.62L203.86,303.06L206.02,303.58L214.7,304.75L216.87,304.31L227.71,304.77L229.88,305.82L234.22,305.3L236.39,305.89L240.72,307.23L242.89,306.83L253.73,308.22L255.9,308.21L277.59,310.15L279.76,310.58L281.93,310.26L284.1,310.93L290.6,311.18L292.77,311.32L299.28,311.7L301.45,312.78L307.95,312.88L310.12,313.15L316.63,313.76L318.8,313.9L336.14,314.35L338.31,314.58L344.82,314.95L346.99,314.88L379.52,315.84L381.69,315.8L401.2,316.22L403.37,316.1L474.94,318.2L477.11,318.2L490.12,318.11L492.29,318.1L540,318.55" style="vector-effect: non-scaling-stroke; fill: none; stroke: rgb(25, 211, 243); stroke-opacity: 1; stroke-width: 2px; opacity: 1;"/></g><g class="points"/><g class="text"/></g><g class="trace scatter tracecc015f" style="stroke-miterlimit: 2; opacity: 1;"><g class="fills"/><g class="errorbars"/><g class="lines"><path class="js-line" d="M0,188.64L2.17,203.52L4.34,210.2L6.51,220.87L8.67,235.72L10.84,236.29L13.01,239L17.35,246.92L19.52,250.29L21.69,254.13L23.86,259.8L26.02,266.02L28.19,266.79L30.36,270.5L32.53,271.1L34.7,271.94L36.87,274.67L39.04,275.79L41.2,279.33L43.37,281.55L45.54,282.6L49.88,285.36L52.05,288.4L56.39,292.07L58.55,292.92L62.89,296.83L65.06,297.27L78.07,302.59L80.24,302.96L84.58,303.82L86.75,304.17L91.08,305.19L93.25,306.24L97.59,306.45L99.76,307.46L104.1,308.42L106.27,308.6L110.6,308.91L112.77,308.75L117.11,309.3L119.28,309.75L138.8,311.09L140.96,311.26L151.81,311.87L153.98,311.85L158.31,312.29L160.48,312.35L184.34,314.27L186.51,314.25L193.01,314.9L195.18,315.01L297.11,318.66L299.28,318.66L340.48,318.88L342.65,318.89L492.29,319.52L494.46,319.52L540,319.65" style="vector-effect: non-scaling-stroke; fill: none; stroke: rgb(255, 102, 146); stroke-opacity: 1; stroke-width: 2px; opacity: 1;"/></g><g class="points"/><g class="text"/></g><g class="trace scatter traceea344f" style="stroke-miterlimit: 2; opacity: 1;"><g class="fills"/><g class="errorbars"/><g class="lines"><path class="js-line" d="M0,177.99L2.17,185.7L4.34,189.29L6.51,195.1L8.67,203.56L10.84,204.8L13.01,201.51L15.18,205.61L17.35,212.35L19.52,216.97L21.69,224.42L28.19,235.19L30.36,236.24L32.53,233.85L34.7,237.57L36.87,241.76L39.04,243.02L45.54,246.24L47.71,246.97L49.88,248.94L52.05,252.44L54.22,253.3L56.39,255.95L62.89,263.51L65.06,264.15L71.57,269.12L73.73,267.82L78.07,271.12L80.24,271.42L82.41,274L84.58,274.42L91.08,276.25L93.25,278.83L95.42,279.34L97.59,281.05L106.27,286.16L108.43,286.24L114.94,287.4L117.11,289.38L121.45,288.96L123.61,289.78L125.78,289.91L127.95,291.17L130.12,290.96L132.29,291.63L138.8,295.83L140.96,295.56L145.3,298.04L147.47,298.67L166.99,301.72L169.16,302.64L175.66,303.71L177.83,304.21L182.17,303.37L184.34,303.55L190.84,303.85L193.01,303.92L197.35,304.14L199.52,303.98L206.02,305.93L208.19,306.59L221.2,306.97L223.37,307.19L229.88,309.12L232.05,309.05L260.24,311.14L262.41,311.11L279.76,313.09L281.93,313.27L292.77,314.34L294.94,314.13L327.47,316.45L329.64,316.34L336.14,316.67L338.31,316.78L349.16,316.96L351.33,317.09L370.84,317.49L373.01,317.81L396.87,318.24L399.04,318.15L407.71,318.53L409.88,318.48L457.59,318.8L459.76,318.66L496.63,319.01L498.8,319.06L513.98,319.28L516.14,319.2L540,319.38" style="vector-effect: non-scaling-stroke; fill: none; stroke: rgb(182, 232, 128); stroke-opacity: 1; stroke-width: 2px; opacity: 1;"/></g><g class="points"/><g class="text"/></g><g class="trace scatter trace409ef1" style="stroke-miterlimit: 2; opacity: 1;"><g class="fills"/><g class="errorbars"/><g class="lines"><path class="js-line" d="M0,191.64L4.34,229.47L6.51,235.8L8.67,242.93L10.84,243.88L13.01,247.41L15.18,248.58L19.52,257.05L21.69,265.95L23.86,267.72L26.02,272.88L30.36,280.51L32.53,280.42L34.7,280.38L36.87,283.54L45.54,291.09L47.71,291.88L49.88,292.92L52.05,295.35L54.22,295.83L56.39,297.85L58.55,300.24L60.72,301.4L67.23,301.04L69.4,301.92L78.07,305.25L80.24,305.73L82.41,306.94L84.58,306.69L88.92,306.95L91.08,307.18L95.42,307.89L97.59,308.13L108.43,309L110.6,309.02L127.95,310.75L130.12,310.64L134.46,311.52L136.63,311.29L143.13,311.51L145.3,311.45L151.81,311.6L153.98,311.48L166.99,311.97L169.16,312.02L175.66,312.41L177.83,312.83L188.67,312.7L190.84,312.79L210.36,313.72L212.53,313.83L286.27,316.4L288.43,316.6L366.51,317.88L368.67,317.76L381.69,318.34L383.86,318.22L394.7,318.6L396.87,318.55L435.9,318.92L438.07,318.98L540,319.3" style="vector-effect: non-scaling-stroke; fill: none; stroke: rgb(255, 151, 255); stroke-opacity: 1; stroke-width: 2px; opacity: 1;"/></g><g class="points"/><g class="text"/></g><g class="trace scatter tracec27e08" style="stroke-miterlimit: 2; opacity: 1;"><g class="fills"/><g class="errorbars"/><g class="lines"><path class="js-line" d="M0,192.9L4.34,224.07L6.51,228.55L8.67,238.6L10.84,241.19L13.01,242.72L15.18,245.21L19.52,253.95L21.69,261L23.86,264.46L26.02,270.74L30.36,276.84L32.53,276.57L34.7,275.79L36.87,278.39L43.37,284.6L45.54,285.67L49.88,287.66L52.05,290.22L56.39,294.44L58.55,296.45L60.72,298.53L62.89,298.74L65.06,298.71L67.23,300.17L71.57,303.5L73.73,303.62L78.07,306.28L80.24,306.59L82.41,307.41L84.58,307.19L97.59,310.62L99.76,311.09L112.77,312.48L114.94,312.33L145.3,314.2L147.47,314.5L173.49,315.71L175.66,315.87L206.02,317.19L208.19,317.41L227.71,317.34L229.88,317.45L236.39,317.52L238.55,317.77L247.23,318.08L249.4,318.06L498.8,319.7L500.96,319.69L540,319.82" style="vector-effect: non-scaling-stroke; fill: none; stroke: rgb(254, 203, 82); stroke-opacity: 1; stroke-width: 2px; opacity: 1;"/></g><g class="points"/><g class="text"/></g><g class="trace scatter trace03a8b9" style="stroke-miterlimit: 2; opacity: 1;"><g class="fills"/><g class="errorbars"/><g class="lines"><path class="js-line" d="M0,173.67L2.17,177.87L4.34,185.88L8.67,205.9L10.84,204.82L13.01,206.13L15.18,208.88L21.69,225.13L23.86,228.02L26.02,230.44L28.19,231.37L30.36,233.35L32.53,233.78L39.04,240.74L41.2,244.79L43.37,246.33L45.54,245.54L47.71,246.82L49.88,245.26L52.05,249.3L54.22,250.48L58.55,255.1L60.72,258.31L62.89,257.63L65.06,257.92L67.23,258.37L69.4,261.62L71.57,265.14L73.73,264.4L78.07,269.84L80.24,270.97L82.41,272.36L84.58,272.63L95.42,279.17L97.59,280.02L99.76,279.71L101.93,281.22L114.94,282.44L117.11,284.08L121.45,284.86L123.61,286.2L125.78,287.06L127.95,286.54L132.29,287.82L134.46,288.85L138.8,289.77L140.96,291.1L151.81,294.73L153.98,294.41L156.14,294.27L158.31,295.03L162.65,294.59L164.82,294.89L169.16,296.52L171.33,296.06L182.17,298.29L184.34,298.48L186.51,298.24L188.67,298.76L193.01,299.82L195.18,299.64L212.53,301.85L214.7,301.4L219.04,302.06L221.2,302.56L227.71,303.5L229.88,304.19L234.22,303.81L236.39,304.08L255.9,306.05L258.07,305.89L262.41,306.43L264.58,306.49L273.25,306.52L275.42,307.14L277.59,307.22L279.76,308.11L281.93,307.82L284.1,308.3L303.61,310.3L305.78,310.21L327.47,311.99L329.64,311.96L344.82,313.15L346.99,313.02L370.84,314.4L373.01,314.95L444.58,317.45L446.75,317.34L477.11,317.76L479.28,317.81L509.64,317.91L511.81,318.06L524.82,318.46L526.99,318.53L540,318.62" style="vector-effect: non-scaling-stroke; fill: none; stroke: rgb(99, 110, 250); stroke-opacity: 1; stroke-width: 2px; opacity: 1;"/></g><g class="points"/><g class="text"/></g><g class="trace scatter trace7e956b" style="stroke-miterlimit: 2; opacity: 1;"><g class="fills"/><g class="errorbars"/><g class="lines"><path class="js-line" d="M0,187.69L4.34,217.31L6.51,220.94L8.67,232.36L10.84,236.24L13.01,235.77L15.18,240.52L19.52,245.37L21.69,252.68L23.86,253.46L26.02,259.78L30.36,263.48L32.53,262.16L34.7,262.66L36.87,264.37L39.04,265.04L41.2,268.05L45.54,273.55L47.71,275.09L54.22,281.07L56.39,284.72L60.72,289.48L62.89,290.53L71.57,297.84L73.73,298.03L75.9,299.7L78.07,300.28L82.41,302.61L84.58,302.52L97.59,306.69L99.76,307.75L104.1,308.62L106.27,308.51L110.6,308.31L112.77,307.75L119.28,308.27L121.45,308.3L132.29,309.42L134.46,310.37L143.13,311.35L145.3,312.02L164.82,313.04L166.99,313.86L208.19,315.83L210.36,316.15L221.2,316.31L223.37,316.63L251.57,317.7L253.73,317.77L268.92,318.17L271.08,318.25L297.11,318.55L299.28,318.48L342.65,318.78L344.82,318.84L461.93,319.58L464.1,319.65L540,319.72" style="vector-effect: non-scaling-stroke; fill: none; stroke: rgb(239, 85, 59); stroke-opacity: 1; stroke-width: 2px; opacity: 1;"/></g><g class="points"/><g class="text"/></g><g class="trace scatter tracee59493" style="stroke-miterlimit: 2; opacity: 1;"><g class="fills"/><g class="errorbars"/><g class="lines"><path class="js-line" d="M0,194.12L4.34,235.26L6.51,243.42L8.67,251.5L10.84,256.07L13.01,256.46L15.18,260.01L19.52,267.73L21.69,273.99L23.86,275.45L26.02,278.26L28.19,279.84L30.36,283.37L32.53,283.18L34.7,285.94L36.87,286.59L39.04,288.62L41.2,290.95L43.37,292.13L45.54,292.3L47.71,293.46L54.22,298.09L56.39,299.25L62.89,301.57L65.06,302.95L67.23,302.7L69.4,303.85L71.57,304.95L73.73,304.92L75.9,306L78.07,305.66L82.41,307.05L84.58,306.38L95.42,308.33L97.59,308.78L101.93,309.59L104.1,309.84L136.63,311.09L138.8,311.54L164.82,312.62L166.99,313.5L180,313.98L182.17,313.81L190.84,314.4L193.01,313.98L208.19,314.75L210.36,314.8L234.22,315.56L236.39,315.92L253.73,316.77L255.9,316.77L412.05,319.09L414.22,319.03L498.8,319.45L500.96,319.42L540,319.56" style="vector-effect: non-scaling-stroke; fill: none; stroke: rgb(0, 204, 150); stroke-opacity: 1; stroke-width: 2px; opacity: 1;"/></g><g class="points"/><g class="text"/></g><g class="trace scatter traceac7b30" style="stroke-miterlimit: 2; opacity: 1;"><g class="fills"/><g class="errorbars"/><g class="lines"><path class="js-line" d="M0,200.02L4.34,230.75L6.51,238.91L8.67,249.07L10.84,250.38L15.18,251.72L17.35,255.89L19.52,259.3L21.69,265.99L23.86,266.4L26.02,272.11L30.36,276.56L32.53,276.14L34.7,276.77L36.87,279.61L43.37,285.03L45.54,284.66L47.71,287.5L49.88,288.52L54.22,292.3L56.39,293.58L58.55,295.78L60.72,296.87L67.23,298.61L69.4,300.56L71.57,301.98L73.73,302.24L78.07,304.25L80.24,304.62L82.41,306.05L84.58,305.96L91.08,306.94L93.25,308.21L104.1,308.38L106.27,309.29L132.29,311.31L134.46,311.71L140.96,312.15L143.13,312.65L149.64,313.08L151.81,313.19L173.49,314.9L175.66,315.17L223.37,316.29L225.54,316.23L238.55,316.98L240.72,317.19L453.25,319.61L455.42,319.59L540,319.87" style="vector-effect: non-scaling-stroke; fill: none; stroke: rgb(171, 99, 250); stroke-opacity: 1; stroke-width: 2px; opacity: 1;"/></g><g class="points"/><g class="text"/></g><g class="trace scatter traceb109dc" style="stroke-miterlimit: 2; opacity: 1;"><g class="fills"/><g class="errorbars"/><g class="lines"><path class="js-line" d="M0,194.52L4.34,228.96L6.51,236.18L10.84,252.18L13.01,251.14L19.52,261.05L21.69,267.43L23.86,270.01L26.02,274.37L30.36,279.15L32.53,279.31L34.7,280.02L36.87,281.62L39.04,282.58L41.2,285.08L58.55,295.57L60.72,297.63L67.23,299.61L69.4,301.11L71.57,302.43L73.73,302.34L75.9,303.99L78.07,304.16L80.24,303.91L82.41,305.2L86.75,304.35L88.92,305.16L95.42,307.42L97.59,307.9L110.6,310.31L112.77,310.19L132.29,311.13L134.46,311.47L140.96,311.97L143.13,312.01L160.48,313.29L162.65,313.46L166.99,313.81L169.16,314.17L173.49,314.44L175.66,314.71L195.18,315.1L197.35,315.38L201.69,315.3L203.86,315.66L212.53,315.96L214.7,316L223.37,316.19L225.54,316.31L268.92,317.88L271.08,317.88L277.59,318.08L279.76,318.16L375.18,318.91L377.35,319L507.47,319.49L509.64,319.46L540,319.63" style="vector-effect: non-scaling-stroke; fill: none; stroke: rgb(255, 161, 90); stroke-opacity: 1; stroke-width: 2px; opacity: 1;"/></g><g class="points"/><g class="text"/></g><g class="trace scatter trace76c017" style="stroke-miterlimit: 2; opacity: 1;"><g class="fills"/><g class="errorbars"/><g class="lines"><path class="js-line" d="M0,171.02L2.17,168.28L4.34,184.33L6.51,189.55L8.67,201.93L13.01,201.21L15.18,204.04L17.35,208.45L19.52,210.71L21.69,216.88L23.86,215.91L30.36,235.95L32.53,237.17L39.04,244.96L41.2,247.18L43.37,248.75L45.54,247.69L47.71,247.66L49.88,248.62L54.22,254.36L56.39,256.91L60.72,261.6L62.89,261.66L65.06,261.57L67.23,263.38L69.4,263.93L71.57,266.88L73.73,266.96L75.9,268.55L78.07,268.41L80.24,267.32L82.41,271.14L84.58,270.92L88.92,271.75L91.08,273.47L93.25,274.94L95.42,275.3L97.59,275.49L99.76,276.59L101.93,276.48L104.1,277.63L106.27,279.15L108.43,279.46L114.94,279.77L117.11,281.31L119.28,280.99L121.45,281.79L125.78,283.55L127.95,283.54L132.29,284.08L134.46,285.83L138.8,287.04L140.96,287.87L143.13,290.67L145.3,291.04L147.47,292.16L149.64,291.65L156.14,293.06L158.31,294.12L160.48,293.49L162.65,293.83L164.82,294.14L166.99,295.94L169.16,296.79L171.33,296.68L173.49,297.37L175.66,297.27L184.34,299.38L186.51,299.5L190.84,299.72L193.01,299.86L203.86,301.58L206.02,301.99L208.19,302.74L210.36,302.69L216.87,302.38L219.04,302.75L225.54,303.77L227.71,304.52L232.05,304.68L234.22,304.59L245.06,307.54L247.23,308L251.57,308.06L253.73,308.89L264.58,310.19L266.75,310.21L273.25,311.07L275.42,311.22L281.93,311.98L284.1,312.37L307.95,314.22L310.12,314.09L314.46,313.63L316.63,313.9L323.13,314.43L325.3,314.12L351.33,315.75L353.49,315.75L357.83,316L360,315.98L396.87,317.5L399.04,317.55L412.05,317.7L414.22,317.63L451.08,318L453.25,318.1L466.27,318.42L468.43,318.44L494.46,318.82L496.63,318.76L540,318.98" style="vector-effect: non-scaling-stroke; fill: none; stroke: rgb(25, 211, 243); stroke-opacity: 1; stroke-width: 2px; opacity: 1;"/></g><g class="points"/><g class="text"/></g><g class="trace scatter trace09f4fb" style="stroke-miterlimit: 2; opacity: 1;"><g class="fills"/><g class="errorbars"/><g class="lines"><path class="js-line" d="M0,185.95L2.17,211.47L4.34,221.9L8.67,236.35L10.84,242.67L13.01,242.52L15.18,247.99L23.86,264.42L26.02,272.51L30.36,275.61L32.53,275.84L34.7,276.29L36.87,279.3L43.37,285.83L45.54,287.27L56.39,293.95L58.55,296.54L60.72,297.86L62.89,297.78L67.23,299.48L69.4,301.56L71.57,302.52L73.73,302.25L78.07,304.01L80.24,304.46L82.41,305.85L84.58,305.82L88.92,306.07L91.08,306.77L93.25,307.9L95.42,307.64L101.93,309.7L104.1,310.35L110.6,310.71L112.77,311.02L119.28,310.91L121.45,310.96L125.78,311.3L127.95,311.22L132.29,311.45L134.46,311.78L151.81,313.33L153.98,313.33L193.01,315.17L195.18,315.19L201.69,315.97L203.86,316.11L258.07,317.63L260.24,317.59L268.92,317.9L271.08,317.98L336.14,318.62L338.31,318.74L412.05,319.37L414.22,319.37L540,319.78" style="vector-effect: non-scaling-stroke; fill: none; stroke: rgb(255, 102, 146); stroke-opacity: 1; stroke-width: 2px; opacity: 1;"/></g><g class="points"/><g class="text"/></g><g class="trace scatter trace7a728f" style="stroke-miterlimit: 2; opacity: 1;"><g class="fills"/><g class="errorbars"/><g class="lines"><path class="js-line" d="M0,183.21L2.17,195.72L4.34,201.87L6.51,208.34L8.67,222.78L10.84,227.75L13.01,229.27L17.35,235.51L19.52,239.79L21.69,242.93L23.86,241.35L30.36,254.58L32.53,256.03L34.7,257.03L36.87,259.34L39.04,261.31L41.2,265.68L47.71,270.97L49.88,271.66L52.05,272.97L54.22,275.26L60.72,282.09L62.89,282.97L65.06,283.1L67.23,282.4L69.4,285.63L71.57,286.93L73.73,286.83L75.9,289.78L78.07,289.88L80.24,291.16L82.41,292.69L84.58,292.58L88.92,292.73L91.08,293.79L93.25,296.65L95.42,297.04L108.43,301.13L110.6,301.58L125.78,305.39L127.95,304.85L130.12,305.02L132.29,305.98L143.13,307.57L145.3,308.36L147.47,308.75L149.64,308.34L162.65,309.87L164.82,309.77L166.99,310.55L169.16,310.19L201.69,312.71L203.86,313.04L214.7,313.96L216.87,313.64L268.92,317.35L271.08,317.37L310.12,318.35L312.29,318.19L325.3,318.25L327.47,318.2L355.66,318.52L357.83,318.55L540,319.83" style="vector-effect: non-scaling-stroke; fill: none; stroke: rgb(182, 232, 128); stroke-opacity: 1; stroke-width: 2px; opacity: 1;"/></g><g class="points"/><g class="text"/></g><g class="trace scatter trace550515" style="stroke-miterlimit: 2; opacity: 1;"><g class="fills"/><g class="errorbars"/><g class="lines"><path class="js-line" d="M0,177.57L2.17,178.66L4.34,181.7L10.84,202.2L13.01,197.43L15.18,204.26L17.35,205.94L19.52,207.97L21.69,215.94L23.86,216.04L26.02,221.9L30.36,227.28L32.53,225.13L34.7,225.94L36.87,230.12L39.04,233.42L41.2,234.7L43.37,238.9L45.54,238.11L47.71,237.91L49.88,239.65L56.39,246.93L58.55,247.9L60.72,249.79L62.89,247.86L65.06,247.57L67.23,248.85L71.57,251.87L73.73,251.55L78.07,255.63L80.24,256.22L82.41,257.65L84.58,258.04L93.25,266.79L95.42,267.59L97.59,267.86L99.76,270.11L104.1,271.53L106.27,273.95L108.43,273.24L110.6,273.51L112.77,274.2L114.94,273.75L119.28,280.14L121.45,279.84L125.78,282.08L127.95,282.3L132.29,282.21L134.46,284.36L138.8,285.87L140.96,286.51L143.13,287.93L145.3,288.4L149.64,289.59L151.81,290.26L153.98,290.28L156.14,291.45L162.65,292.06L164.82,293.07L169.16,294.21L171.33,294.36L177.83,295.29L180,295.07L182.17,294.76L184.34,295.38L195.18,295.85L197.35,296.43L206.02,299.02L208.19,299.57L225.54,301.57L227.71,302.34L232.05,303.06L234.22,303.04L240.72,304.35L242.89,303.95L245.06,304.8L247.23,304.4L251.57,304.12L253.73,304.75L258.07,305.51L260.24,305.37L266.75,306.03L268.92,306.49L277.59,306.94L279.76,307.1L281.93,306.85L284.1,307.71L292.77,308.42L294.94,309.14L303.61,310.13L305.78,310.51L314.46,310.46L316.63,310.89L327.47,310.96L329.64,311.22L336.14,312.11L338.31,312.17L344.82,312.88L346.99,312.93L362.17,313.68L364.34,313.85L377.35,314.11L379.52,314.08L388.19,314.38L390.36,314.25L394.7,314.53L396.87,314.43L409.88,314.25L412.05,314.04L420.72,314.35L422.89,314.47L431.57,314.85L433.73,314.93L442.41,315.3L444.58,315.41L496.63,315.43L498.8,315.34L516.14,316.18L518.31,316.18L533.49,316.72L535.66,316.81L540,317.07" style="vector-effect: non-scaling-stroke; fill: none; stroke: rgb(255, 151, 255); stroke-opacity: 1; stroke-width: 2px; opacity: 1;"/></g><g class="points"/><g class="text"/></g><g class="trace scatter trace2caf30" style="stroke-miterlimit: 2; opacity: 1;"><g class="fills"/><g class="errorbars"/><g class="lines"><path class="js-line" d="M0,197.84L4.34,229.04L6.51,237.79L8.67,248.82L10.84,255.07L13.01,253.71L15.18,254.31L19.52,260.15L21.69,267.63L26.02,275.61L28.19,278.18L30.36,280.2L32.53,278.72L34.7,278.98L36.87,280.23L41.2,283.25L43.37,285.54L45.54,285.88L47.71,287.01L49.88,288.48L52.05,291.03L56.39,294.25L58.55,296.38L60.72,298.39L62.89,298.6L65.06,300.14L67.23,300.69L73.73,302.3L75.9,303.95L78.07,303.73L80.24,304.98L82.41,306.82L84.58,306.19L91.08,307.06L93.25,307.95L99.76,308.61L101.93,308.92L132.29,311.26L134.46,311.75L158.31,313.64L160.48,313.68L171.33,314.61L173.49,314.81L188.67,315.5L190.84,315.41L240.72,317.45L242.89,317.46L297.11,318.51L299.28,318.51L351.33,319.03L353.49,319L405.54,319.45L407.71,319.49L461.93,319.61L464.1,319.67L533.49,319.76L535.66,319.77L540,319.77" style="vector-effect: non-scaling-stroke; fill: none; stroke: rgb(254, 203, 82); stroke-opacity: 1; stroke-width: 2px; opacity: 1;"/></g><g class="points"/><g class="text"/></g></g></g><g class="overplot"/><path class="xlines-above crisp" d="M0,0" style="fill: none;"/><path class="ylines-above crisp" d="M0,0" style="fill: none;"/><g class="overlines-above"/><g class="xaxislayer-above"><g class="xtick"><text text-anchor="middle" x="0" y="433" transform="translate(80,0)" style="font-family: 'Open Sans', verdana, arial, sans-serif; font-size: 12px; fill: rgb(42, 63, 95); fill-opacity: 1; white-space: pre; opacity: 1;">0</text></g><g class="xtick"><text text-anchor="middle" x="0" y="433" style="font-family: 'Open Sans', verdana, arial, sans-serif; font-size: 12px; fill: rgb(42, 63, 95); fill-opacity: 1; white-space: pre; opacity: 1;" transform="translate(188.43,0)">50</text></g><g class="xtick"><text text-anchor="middle" x="0" y="433" style="font-family: 'Open Sans', verdana, arial, sans-serif; font-size: 12px; fill: rgb(42, 63, 95); fill-opacity: 1; white-space: pre; opacity: 1;" transform="translate(296.87,0)">100</text></g><g class="xtick"><text text-anchor="middle" x="0" y="433" style="font-family: 'Open Sans', verdana, arial, sans-serif; font-size: 12px; fill: rgb(42, 63, 95); fill-opacity: 1; white-space: pre; opacity: 1;" transform="translate(405.3,0)">150</text></g><g class="xtick"><text text-anchor="middle" x="0" y="433" style="font-family: 'Open Sans', verdana, arial, sans-serif; font-size: 12px; fill: rgb(42, 63, 95); fill-opacity: 1; white-space: pre; opacity: 1;" transform="translate(513.73,0)">200</text></g></g><g class="yaxislayer-above"><g class="ytick"><text text-anchor="end" x="79" y="4.199999999999999" transform="translate(0,420)" style="font-family: 'Open Sans', verdana, arial, sans-serif; font-size: 12px; fill: rgb(42, 63, 95); fill-opacity: 1; white-space: pre; opacity: 1;">0</text></g><g class="ytick"><text text-anchor="end" x="79" y="4.199999999999999" style="font-family: 'Open Sans', verdana, arial, sans-serif; font-size: 12px; fill: rgb(42, 63, 95); fill-opacity: 1; white-space: pre; opacity: 1;" transform="translate(0,355.64)">50</text></g><g class="ytick"><text text-anchor="end" x="79" y="4.199999999999999" style="font-family: 'Open Sans', verdana, arial, sans-serif; font-size: 12px; fill: rgb(42, 63, 95); fill-opacity: 1; white-space: pre; opacity: 1;" transform="translate(0,291.28999999999996)">100</text></g><g class="ytick"><text text-anchor="end" x="79" y="4.199999999999999" style="font-family: 'Open Sans', verdana, arial, sans-serif; font-size: 12px; fill: rgb(42, 63, 95); fill-opacity: 1; white-space: pre; opacity: 1;" transform="translate(0,226.93)">150</text></g><g class="ytick"><text text-anchor="end" x="79" y="4.199999999999999" style="font-family: 'Open Sans', verdana, arial, sans-serif; font-size: 12px; fill: rgb(42, 63, 95); fill-opacity: 1; white-space: pre; opacity: 1;" transform="translate(0,162.57999999999998)">200</text></g></g><g class="overaxes-above"/></g></g><g class="polarlayer"/><g class="ternarylayer"/><g class="geolayer"/><g class="funnelarealayer"/><g class="pielayer"/><g class="iciclelayer"/><g class="treemaplayer"/><g class="sunburstlayer"/><g class="glimages"/><defs id="topdefs-c2cf07"><g class="clips"/></defs><g class="layer-above"><g class="imagelayer"/><g class="shapelayer"/></g><g class="infolayer"><g class="g-gtitle"><text class="gtitle" x="35" y="50" text-anchor="start" dy="0em" style="font-family: 'Open Sans', verdana, arial, sans-serif; font-size: 17px; fill: rgb(42, 63, 95); opacity: 1; font-weight: normal; white-space: pre;">Average Rank: ascad_100-eff_cnn (with early stopping)</text></g><g class="g-xtitle"/><g class="g-ytitle"/></g></svg>