<svg class="main-svg" xmlns="http://www.w3.org/2000/svg" xmlns:xlink="http://www.w3.org/1999/xlink" width="700" height="500" style="" viewBox="0 0 700 500"><rect x="0" y="0" width="700" height="500" style="fill: rgb(255, 255, 255); fill-opacity: 1;"/><defs id="defs-305df4"><g class="clips"><clipPath id="clip305df4xyplot" class="plotclip"><rect width="540" height="320"/></clipPath><clipPath class="axesclip" id="clip305df4x"><rect x="80" y="0" width="540" height="500"/></clipPath><clipPath class="axesclip" id="clip305df4y"><rect x="0" y="100" width="700" height="320"/></clipPath><clipPath class="axesclip" id="clip305df4xy"><rect x="80" y="100" width="540" height="320"/></clipPath></g><g class="gradients"/><g class="patterns"/></defs><g class="bglayer"><rect class="bg" x="80" y="100" width="540" height="320" style="fill: rgb(229, 236, 246); fill-opacity: 1; stroke-width: 0;"/></g><g class="layer-below"><g class="imagelayer"/><g class="shapelayer"/></g><g class="cartesianlayer"><g class="subplot xy"><g class="layer-subplot"><g class="shapelayer"/><g class="imagelayer"/></g><g class="gridlayer"><g class="x"><path class="xgrid crisp" transform="translate(190.2,0)" d="M0,100v320" style="stroke: rgb(255, 255, 255); stroke-opacity: 1; stroke-width: 1px;"/><path class="xgrid crisp" transform="translate(300.40999999999997,0)" d="M0,100v320" style="stroke: rgb(255, 255, 255); stroke-opacity: 1; stroke-width: 1px;"/><path class="xgrid crisp" transform="translate(410.61,0)" d="M0,100v320" style="stroke: rgb(255, 255, 255); stroke-opacity: 1; stroke-width: 1px;"/><path class="xgrid crisp" transform="translate(520.8199999999999,0)" d="M0,100v320" style="stroke: rgb(255, 255, 255); stroke-opacity: 1; stroke-width: 1px;"/></g><g class="y"><path class="ygrid crisp" transform="translate(0,376.71)" d="M80,0h540" style="stroke: rgb(255, 255, 255); stroke-opacity: 1; stroke-width: 1px;"/><path class="ygrid crisp" transform="translate(0,329.08000000000004)" d="M80,0h540" style="stroke: rgb(255, 255, 255); stroke-opacity: 1; stroke-width: 1px;"/><path class="ygrid crisp" transform="translate(0,281.45)" d="M80,0h540" style="stroke: rgb(255, 255, 255); stroke-opacity: 1; stroke-width: 1px;"/><path class="ygrid crisp" transform="translate(0,233.82)" d="M80,0h540" style="stroke: rgb(255, 255, 255); stroke-opacity: 1; stroke-width: 1px;"/><path class="ygrid crisp" transform="translate(0,186.18)" d="M80,0h540" style="stroke: rgb(255, 255, 255); stroke-opacity: 1; stroke-width: 1px;"/><path class="ygrid crisp" transform="translate(0,138.55)" d="M80,0h540" style="stroke: rgb(255, 255, 255); stroke-opacity: 1; stroke-width: 1px;"/></g></g><g class="zerolinelayer"><path class="xzl zl crisp" transform="translate(80,0)" d="M0,100v320" style="stroke: rgb(255, 255, 255); stroke-opacity: 1; stroke-width: 2px;"/></g><path class="xlines-below"/><path class="ylines-below"/><g class="overlines-below"/><g class="xaxislayer-below"/><g class="yaxislayer-below"/><g class="overaxes-below"/><g class="plot" transform="translate(80,100)" clip-path="url(#clip305df4xyplot)"><g class="scatterlayer mlayer"><g class="trace scatter tracea0f7f9" style="stroke-miterlimit: 2; opacity: 1;"><g class="fills"/><g class="errorbars"/><g class="lines"><path class="js-line" d="M0,4.49L11.02,34.63L22.04,38.28L33.06,40.2L44.08,41.06L55.1,41.63L66.12,43.19L77.14,44.36L88.16,44.01L110.2,43.65L121.22,41.87L132.24,41.82L143.27,42.7L154.29,43.1L165.31,42.21L176.33,44.87L187.35,40.82L198.37,44.52L209.39,42.61L220.41,41.53L231.43,46.05L242.45,49.83L253.47,55.62L264.49,60.8L275.51,69.89L286.53,74.02L297.55,81.91L319.59,95.94L330.61,97.56L352.65,109.92L363.67,116.12L385.71,126.15L396.73,131.99L407.76,137.33L418.78,144.07L429.8,149.46L440.82,155.79L451.84,159.44L462.86,160.87L517.96,170.02L528.98,171.62L540,172.77" style="vector-effect: non-scaling-stroke; fill: none; stroke: rgb(99, 110, 250); stroke-opacity: 1; stroke-width: 2px; opacity: 1;"/></g><g class="points"/><g class="text"/></g><g class="trace scatter traceb8d7a2" style="stroke-miterlimit: 2; opacity: 1;"><g class="fills"/><g class="errorbars"/><g class="lines"><path class="js-line" d="M0,4.54L11.02,34.79L22.04,38.62L44.08,41.27L55.1,41.37L66.12,43.47L77.14,43.53L99.18,44L110.2,43.96L121.22,40.67L132.24,43.4L143.27,43.12L154.29,44.71L165.31,43.6L176.33,45.97L187.35,43.81L198.37,48.86L209.39,51.02L220.41,52L231.43,58.78L242.45,63.42L253.47,73.05L264.49,78.39L275.51,83.7L286.53,84.01L297.55,95.89L308.57,111.08L319.59,132.84L330.61,143.59L341.63,154.21L352.65,167.57L363.67,180.81L374.69,190.24L385.71,199.36L396.73,209.56L418.78,227.7L429.8,237.43L440.82,245.01L451.84,251.01L462.86,253.63L473.88,257.43L506.94,265.45L517.96,267.59L528.98,269.41L540,272.05" style="vector-effect: non-scaling-stroke; fill: none; stroke: rgb(239, 85, 59); stroke-opacity: 1; stroke-width: 2px; opacity: 1;"/></g><g class="points"/><g class="text"/></g><g class="trace scatter trace483a41" style="stroke-miterlimit: 2; opacity: 1;"><g class="fills"/><g class="errorbars"/><g class="lines"><path class="js-line" d="M0,3.15L11.02,34.62L22.04,38.68L44.08,40.79L55.1,42.17L66.12,43.88L77.14,44.48L99.18,44.72L110.2,43.85L121.22,42.51L132.24,42.52L143.27,41.78L154.29,43.43L165.31,42.58L176.33,42.97L187.35,41.47L198.37,40.77L209.39,38.28L220.41,38.21L231.43,39.57L242.45,44.48L253.47,47.57L264.49,52.99L286.53,68.19L297.55,85.46L308.57,99.43L319.59,120.81L341.63,145.6L352.65,160.37L363.67,175.71L374.69,184.58L385.71,193.71L396.73,204.63L407.76,212.36L418.78,221.18L429.8,231L440.82,238.56L451.84,244.73L462.86,247.27L484.9,253.8L495.92,256.3L528.98,263.36L540,265.43" style="vector-effect: non-scaling-stroke; fill: none; stroke: rgb(0, 204, 150); stroke-opacity: 1; stroke-width: 2px; opacity: 1;"/></g><g class="points"/><g class="text"/></g><g class="trace scatter traced1352f" style="stroke-miterlimit: 2; opacity: 1;"><g class="fills"/><g class="errorbars"/><g class="lines"><path class="js-line" d="M0,4.52L11.02,35.03L22.04,38.43L33.06,40.21L44.08,40.89L55.1,42.36L66.12,42.99L77.14,43.81L88.16,42.83L99.18,44.11L110.2,43.81L121.22,42.83L132.24,42.83L143.27,43.57L154.29,42.24L176.33,43.83L187.35,44.21L209.39,48.99L220.41,54.47L231.43,58.92L242.45,67.03L253.47,73.12L264.49,78.12L286.53,84.58L297.55,91.54L308.57,94.66L319.59,100.81L330.61,103.61L341.63,107.49L352.65,111.94L363.67,117.88L396.73,131.91L407.76,137.53L418.78,143.99L429.8,148.9L440.82,153.84L451.84,157.54L540,170.12" style="vector-effect: non-scaling-stroke; fill: none; stroke: rgb(171, 99, 250); stroke-opacity: 1; stroke-width: 2px; opacity: 1;"/></g><g class="points"/><g class="text"/></g><g class="trace scatter tracecc610a" style="stroke-miterlimit: 2; opacity: 1;"><g class="fills"/><g class="errorbars"/><g class="lines"><path class="js-line" d="M0,3.42L11.02,34.65L22.04,38.64L66.12,43.42L77.14,43.57L121.22,41.49L132.24,42.04L154.29,41.17L165.31,42.09L176.33,41.72L187.35,40.4L198.37,39.26L209.39,39.28L220.41,37.81L231.43,40.02L242.45,43.41L253.47,44.15L275.51,56.28L286.53,57.24L297.55,64.86L308.57,73.58L319.59,84.07L330.61,89.24L352.65,103.2L363.67,112.2L374.69,122.24L385.71,138.41L407.76,168.15L418.78,182.16L429.8,195.02L440.82,204.07L451.84,210.04L462.86,214.1L473.88,218.12L484.9,220.91L495.92,222.49L506.94,226.24L540,232.49" style="vector-effect: non-scaling-stroke; fill: none; stroke: rgb(255, 161, 90); stroke-opacity: 1; stroke-width: 2px; opacity: 1;"/></g><g class="points"/><g class="text"/></g><g class="trace scatter traceda2df6" style="stroke-miterlimit: 2; opacity: 1;"><g class="fills"/><g class="errorbars"/><g class="lines"><path class="js-line" d="M0,3.87L11.02,34.62L22.04,38.39L44.08,40.96L55.1,41.99L66.12,42.89L77.14,42.84L99.18,43.8L110.2,42.96L121.22,40.7L132.24,42.7L143.27,42.06L154.29,42.43L176.33,42.79L187.35,42.37L198.37,43.4L209.39,41.11L220.41,38.9L231.43,42.64L242.45,48.11L253.47,52.21L264.49,62.82L275.51,70.23L286.53,73.58L297.55,84.56L308.57,89.02L319.59,96.28L330.61,98.94L341.63,105.14L352.65,108.83L363.67,115.35L374.69,120.1L385.71,125.82L396.73,130.2L407.76,135.82L418.78,141.43L429.8,148.09L440.82,153.96L451.84,157.38L484.9,163.65L495.92,165.05L517.96,169.2L528.98,170.74L540,172.28" style="vector-effect: non-scaling-stroke; fill: none; stroke: rgb(25, 211, 243); stroke-opacity: 1; stroke-width: 2px; opacity: 1;"/></g><g class="points"/><g class="text"/></g><g class="trace scatter trace0981da" style="stroke-miterlimit: 2; opacity: 1;"><g class="fills"/><g class="errorbars"/><g class="lines"><path class="js-line" d="M0,4.08L11.02,34.8L22.04,38.27L33.06,39.16L44.08,40.81L77.14,43.27L88.16,42.72L110.2,43.52L121.22,42.35L165.31,42.2L176.33,42.7L187.35,42.35L198.37,43.73L209.39,40.27L220.41,40.07L231.43,46.81L242.45,49.75L253.47,49.88L264.49,46.33L275.51,56.98L286.53,64.27L297.55,73.72L308.57,80.03L319.59,87.9L330.61,91.09L363.67,110.66L374.69,118.04L385.71,128.1L396.73,143.58L429.8,182.35L440.82,192.72L451.84,198.84L462.86,202.37L473.88,206.61L484.9,209.24L506.94,215.42L517.96,217.56L528.98,220.29L540,221.73" style="vector-effect: non-scaling-stroke; fill: none; stroke: rgb(255, 102, 146); stroke-opacity: 1; stroke-width: 2px; opacity: 1;"/></g><g class="points"/><g class="text"/></g><g class="trace scatter tracece0b09" style="stroke-miterlimit: 2; opacity: 1;"><g class="fills"/><g class="errorbars"/><g class="lines"><path class="js-line" d="M0,4.57L11.02,35.08L22.04,38.63L77.14,44.83L88.16,43.53L99.18,44.76L110.2,43.8L121.22,42.23L132.24,43.76L143.27,43.17L154.29,44.73L198.37,47.89L209.39,50.27L231.43,59.18L242.45,65.22L253.47,74.48L264.49,76.96L275.51,82.43L286.53,85.41L297.55,91.22L308.57,96.13L319.59,102.79L330.61,104.34L341.63,108.3L352.65,113.19L363.67,119.3L374.69,122.92L407.76,138.68L418.78,145.51L440.82,156.9L451.84,160.11L484.9,166.05L495.92,167.49L506.94,169.8L517.96,171.25L540,174.36" style="vector-effect: non-scaling-stroke; fill: none; stroke: rgb(182, 232, 128); stroke-opacity: 1; stroke-width: 2px; opacity: 1;"/></g><g class="points"/><g class="text"/></g><g class="trace scatter trace5dbe44" style="stroke-miterlimit: 2; opacity: 1;"><g class="fills"/><g class="errorbars"/><g class="lines"><path class="js-line" d="M0,4.6L11.02,34.53L22.04,38.33L44.08,41.03L55.1,41.55L66.12,43.35L77.14,43.1L88.16,43.28L99.18,44.35L110.2,43.48L121.22,40.88L132.24,42.77L143.27,42.65L154.29,41.32L165.31,41.53L176.33,42.22L187.35,40.71L198.37,41.61L209.39,39.58L220.41,38.69L231.43,41.06L253.47,48.34L264.49,52.92L275.51,59.48L286.53,64.62L308.57,96.18L319.59,119.77L352.65,160.62L363.67,173L374.69,181.49L385.71,192.72L407.76,210.06L418.78,219.12L429.8,229.12L440.82,236L451.84,242.75L462.86,244.94L484.9,251.32L495.92,253.69L528.98,260.83L540,262.9" style="vector-effect: non-scaling-stroke; fill: none; stroke: rgb(255, 151, 255); stroke-opacity: 1; stroke-width: 2px; opacity: 1;"/></g><g class="points"/><g class="text"/></g><g class="trace scatter trace13e0d7" style="stroke-miterlimit: 2; opacity: 1;"><g class="fills"/><g class="errorbars"/><g class="lines"><path class="js-line" d="M0,4.51L11.02,35.27L22.04,38.55L44.08,41.56L55.1,41.71L66.12,43.44L77.14,43.75L121.22,43.22L132.24,44.27L143.27,43.14L154.29,45.73L165.31,45.26L176.33,49.31L209.39,57.83L220.41,59.15L231.43,65.91L242.45,69.9L253.47,77.28L264.49,82.43L275.51,86.45L286.53,87.87L297.55,94.41L308.57,98.08L330.61,109.28L341.63,119.08L352.65,141.57L363.67,158.98L374.69,172.74L385.71,182.25L396.73,192.93L407.76,202.51L418.78,211.01L429.8,221.41L440.82,228.56L451.84,234.58L462.86,236.98L473.88,240.93L540,254.39" style="vector-effect: non-scaling-stroke; fill: none; stroke: rgb(254, 203, 82); stroke-opacity: 1; stroke-width: 2px; opacity: 1;"/></g><g class="points"/><g class="text"/></g><g class="trace scatter trace88fdb5" style="stroke-miterlimit: 2; opacity: 1;"><g class="fills"/><g class="errorbars"/><g class="lines"><path class="js-line" d="M0,4.54L11.02,35.2L22.04,38.75L44.08,41.06L55.1,41.69L66.12,43.18L77.14,43.16L99.18,44.02L110.2,43.5L121.22,41.52L132.24,43.68L143.27,43.09L154.29,43.94L165.31,44.73L176.33,44.13L187.35,43.04L198.37,45.93L209.39,46.63L220.41,49.92L231.43,54.9L242.45,59.04L253.47,67.72L264.49,74.22L275.51,79.79L286.53,81.26L308.57,92.9L319.59,97.33L330.61,99.76L341.63,104.32L363.67,115.06L374.69,120.26L385.71,124.36L396.73,130.54L407.76,134.55L418.78,142.58L429.8,147.58L440.82,153.49L451.84,157.27L462.86,159.39L495.92,166.66L506.94,168.58L540,174.28" style="vector-effect: non-scaling-stroke; fill: none; stroke: rgb(99, 110, 250); stroke-opacity: 1; stroke-width: 2px; opacity: 1;"/></g><g class="points"/><g class="text"/></g><g class="trace scatter trace3f2fdd" style="stroke-miterlimit: 2; opacity: 1;"><g class="fills"/><g class="errorbars"/><g class="lines"><path class="js-line" d="M0,4.11L11.02,35.34L22.04,38.42L33.06,39.94L44.08,40.43L66.12,43.73L77.14,43.73L99.18,43.35L110.2,44.27L121.22,42.5L132.24,42.44L143.27,42.33L154.29,43.25L165.31,43.64L176.33,43.07L187.35,43.47L198.37,45.37L209.39,45.84L220.41,49.17L231.43,54.9L242.45,58.55L253.47,65.72L264.49,70.4L275.51,78.14L286.53,79.78L297.55,88.36L308.57,93.35L319.59,99.87L330.61,101.79L352.65,111.65L363.67,117.58L374.69,122.42L385.71,128.81L407.76,141.12L418.78,150.45L429.8,158.73L440.82,168.19L451.84,175.88L462.86,182.53L473.88,189.72L484.9,194.62L495.92,199.53L506.94,203.61L528.98,210.61L540,212.86" style="vector-effect: non-scaling-stroke; fill: none; stroke: rgb(239, 85, 59); stroke-opacity: 1; stroke-width: 2px; opacity: 1;"/></g><g class="points"/><g class="text"/></g><g class="trace scatter trace6bafc8" style="stroke-miterlimit: 2; opacity: 1;"><g class="fills"/><g class="errorbars"/><g class="lines"><path class="js-line" d="M0,3.96L11.02,34.73L22.04,38.72L55.1,42.08L66.12,43.47L77.14,44.67L88.16,43.73L99.18,43.96L110.2,43.4L121.22,41.73L132.24,43.49L143.27,43.23L154.29,44.33L165.31,42.06L176.33,44.25L187.35,41.93L198.37,44.32L209.39,42.5L220.41,43.72L231.43,53.3L242.45,57.06L253.47,66.48L264.49,71.91L275.51,81.5L286.53,86.33L297.55,106.07L308.57,124.11L319.59,141.27L330.61,151.43L352.65,172.12L363.67,186.18L374.69,192.73L385.71,202.82L396.73,213.16L407.76,221.3L418.78,230.52L429.8,241.57L440.82,248.48L451.84,254.25L484.9,264.61L495.92,266.81L517.96,272.54L528.98,274.97L540,276.89" style="vector-effect: non-scaling-stroke; fill: none; stroke: rgb(0, 204, 150); stroke-opacity: 1; stroke-width: 2px; opacity: 1;"/></g><g class="points"/><g class="text"/></g><g class="trace scatter trace8204d0" style="stroke-miterlimit: 2; opacity: 1;"><g class="fills"/><g class="errorbars"/><g class="lines"><path class="js-line" d="M0,3.48L11.02,34.88L22.04,38.62L55.1,41.62L66.12,43.42L99.18,44.36L110.2,43.66L121.22,41.79L132.24,43.36L154.29,43.9L165.31,43.04L176.33,44.13L187.35,41.83L198.37,44.03L209.39,45.01L220.41,43.41L231.43,50.37L242.45,60.3L253.47,67.25L264.49,73.72L275.51,81.19L286.53,82.26L297.55,92.18L308.57,97.35L319.59,106.25L330.61,113.86L341.63,125.47L352.65,143.72L363.67,157.45L374.69,170.2L385.71,180.52L396.73,190.92L407.76,200.01L429.8,218.39L440.82,226.04L451.84,231.61L462.86,234.24L484.9,240.29L495.92,242.42L528.98,249.14L540,250.48" style="vector-effect: non-scaling-stroke; fill: none; stroke: rgb(171, 99, 250); stroke-opacity: 1; stroke-width: 2px; opacity: 1;"/></g><g class="points"/><g class="text"/></g><g class="trace scatter traceccc4ae" style="stroke-miterlimit: 2; opacity: 1;"><g class="fills"/><g class="errorbars"/><g class="lines"><path class="js-line" d="M0,4.57L11.02,35.08L22.04,38.63L77.14,44.83L88.16,43.53L99.18,44.76L110.2,43.8L121.22,42.23L132.24,43.76L143.27,43.17L154.29,44.73L198.37,48.3L209.39,49.73L220.41,51.08L231.43,59.9L242.45,63.6L253.47,74.19L264.49,76.72L275.51,83.35L286.53,85.08L297.55,91.12L308.57,97.91L319.59,103.45L330.61,106.95L341.63,119.57L352.65,137.17L363.67,152.31L374.69,165.2L385.71,174.95L396.73,187.15L407.76,194.89L429.8,213.13L440.82,220.44L451.84,226.06L462.86,228.03L473.88,231.52L484.9,234.13L540,244.67" style="vector-effect: non-scaling-stroke; fill: none; stroke: rgb(255, 161, 90); stroke-opacity: 1; stroke-width: 2px; opacity: 1;"/></g><g class="points"/><g class="text"/></g><g class="trace scatter traceddbebb" style="stroke-miterlimit: 2; opacity: 1;"><g class="fills"/><g class="errorbars"/><g class="lines"><path class="js-line" d="M0,11.28L11.02,39.95L22.04,40.8L33.06,41.02L44.08,42.36L55.1,41.43L66.12,41.93L77.14,43.33L88.16,42.66L121.22,42.05L132.24,40.23L143.27,40.56L154.29,40.08L165.31,37.85L176.33,37.05L198.37,36.06L209.39,34.29L231.43,32.34L242.45,36.1L253.47,39.18L264.49,40.57L286.53,45.24L297.55,49.52L308.57,55.81L319.59,63.26L341.63,81.42L352.65,86.32L363.67,92.15L374.69,100.48L385.71,108.06L396.73,114.62L407.76,121.07L418.78,125.83L429.8,132.25L440.82,137.59L451.84,141.36L462.86,143.73L506.94,151.68L517.96,153.18L540,156.13" style="vector-effect: non-scaling-stroke; fill: none; stroke: rgb(25, 211, 243); stroke-opacity: 1; stroke-width: 2px; opacity: 1;"/></g><g class="points"/><g class="text"/></g><g class="trace scatter trace97ed4b" style="stroke-miterlimit: 2; opacity: 1;"><g class="fills"/><g class="errorbars"/><g class="lines"><path class="js-line" d="M0,4.57L11.02,35.08L22.04,38.63L77.14,44.74L88.16,43.53L110.2,44.51L121.22,41.39L132.24,42.89L143.27,42.35L154.29,44.97L165.31,45.15L176.33,46.77L187.35,47.59L220.41,53.53L231.43,62.82L242.45,70.27L253.47,76.31L264.49,80.22L275.51,84.97L286.53,86.48L297.55,94.34L308.57,97.96L319.59,103.02L330.61,105.92L341.63,111.92L352.65,119.65L363.67,135.45L374.69,155.76L385.71,168.55L396.73,180.91L407.76,189.51L418.78,200.6L429.8,210.61L440.82,219.05L451.84,224.75L462.86,227.12L473.88,230.62L484.9,233.7L495.92,235.5L517.96,240.54L528.98,243.03L540,244.6" style="vector-effect: non-scaling-stroke; fill: none; stroke: rgb(255, 102, 146); stroke-opacity: 1; stroke-width: 2px; opacity: 1;"/></g><g class="points"/><g class="text"/></g><g class="trace scatter trace6daf45" style="stroke-miterlimit: 2; opacity: 1;"><g class="fills"/><g class="errorbars"/><g class="lines"><path class="js-line" d="M0,4.28L11.02,34.75L22.04,38.39L44.08,41.04L55.1,41.4L66.12,43.24L77.14,44.11L88.16,43.08L99.18,43.75L110.2,43.24L121.22,40.53L132.24,43.11L143.27,41.7L165.31,41.57L176.33,41.42L187.35,39.64L198.37,39.69L220.41,36.31L231.43,39.92L242.45,41.9L253.47,42.84L264.49,45.19L275.51,50.28L286.53,55.02L297.55,67.4L308.57,76.79L319.59,85.16L341.63,96.03L352.65,102.7L363.67,109.65L374.69,114.81L396.73,127.84L407.76,136.39L418.78,144.16L429.8,152.89L440.82,160.39L451.84,166.12L484.9,177.31L495.92,180.34L517.96,186.25L528.98,189.11L540,190.81" style="vector-effect: non-scaling-stroke; fill: none; stroke: rgb(182, 232, 128); stroke-opacity: 1; stroke-width: 2px; opacity: 1;"/></g><g class="points"/><g class="text"/></g><g class="trace scatter trace860511" style="stroke-miterlimit: 2; opacity: 1;"><g class="fills"/><g class="errorbars"/><g class="lines"><path class="js-line" d="M0,4.5L11.02,34.98L22.04,38.73L44.08,41.67L55.1,41.86L66.12,43.49L77.14,43.45L110.2,43.64L121.22,42.79L132.24,41.68L143.27,42.06L154.29,42.98L165.31,42.45L176.33,43.46L187.35,40.94L198.37,45.11L209.39,42.91L220.41,45.54L231.43,52.23L242.45,53.61L253.47,59.1L275.51,73.28L286.53,75.02L297.55,86.06L308.57,88.68L319.59,96.04L330.61,98.86L341.63,103.74L352.65,109.92L363.67,116.22L374.69,120.08L396.73,131.2L407.76,136.71L440.82,155.33L451.84,159.27L495.92,169.29L506.94,171.65L540,178.09" style="vector-effect: non-scaling-stroke; fill: none; stroke: rgb(255, 151, 255); stroke-opacity: 1; stroke-width: 2px; opacity: 1;"/></g><g class="points"/><g class="text"/></g><g class="trace scatter trace76bc31" style="stroke-miterlimit: 2; opacity: 1;"><g class="fills"/><g class="errorbars"/><g class="lines"><path class="js-line" d="M0,4.3L11.02,34.52L22.04,38.38L66.12,43.18L77.14,42.59L88.16,43.72L99.18,43.76L121.22,41.44L132.24,43.1L143.27,41.14L154.29,42.33L176.33,43.32L187.35,41.77L198.37,42.67L209.39,42L231.43,43.55L242.45,49.47L253.47,52.18L264.49,62.1L275.51,69.58L286.53,71.43L297.55,84.7L308.57,92.26L330.61,126.71L341.63,139.25L352.65,156.8L363.67,170.64L374.69,182.1L385.71,190.54L396.73,201.6L407.76,208.57L429.8,227.32L440.82,234.39L451.84,239.94L462.86,242.53L484.9,247.84L495.92,249.79L506.94,252.79L517.96,254.44L540,258.66" style="vector-effect: non-scaling-stroke; fill: none; stroke: rgb(254, 203, 82); stroke-opacity: 1; stroke-width: 2px; opacity: 1;"/></g><g class="points"/><g class="text"/></g><g class="trace scatter tracec8860c" style="stroke-miterlimit: 2; opacity: 1;"><g class="fills"/><g class="errorbars"/><g class="lines"><path class="js-line" d="M0,4.57L11.02,35.08L22.04,38.63L77.14,44.83L88.16,43.63L99.18,44.75L110.2,43.74L121.22,42.67L132.24,43.43L143.27,43.88L154.29,45.21L165.31,44.2L176.33,45.95L187.35,46.51L198.37,50.04L209.39,49.04L220.41,52.14L231.43,60.98L242.45,68.03L253.47,74.77L264.49,79.66L275.51,83.09L286.53,87.81L297.55,93.96L308.57,96.86L319.59,104.16L330.61,107.07L341.63,112.88L352.65,124.66L363.67,140.96L374.69,153.98L385.71,169L396.73,179.38L407.76,189.29L418.78,200.36L429.8,209.58L440.82,216.71L451.84,223.36L462.86,225.78L484.9,232.68L495.92,234.53L517.96,239.21L528.98,241.6L540,243.38" style="vector-effect: non-scaling-stroke; fill: none; stroke: rgb(99, 110, 250); stroke-opacity: 1; stroke-width: 2px; opacity: 1;"/></g><g class="points"/><g class="text"/></g><g class="trace scatter trace775bd1" style="stroke-miterlimit: 2; opacity: 1;"><g class="fills"/><g class="errorbars"/><g class="lines"><path class="js-line" d="M0,11.28L11.02,39.95L22.04,40.78L33.06,41.07L44.08,42.35L55.1,41.32L66.12,41.96L77.14,43.33L88.16,42.71L110.2,41.54L121.22,42.77L132.24,40.67L143.27,40.82L165.31,38.18L176.33,35.34L209.39,34.72L220.41,31.89L231.43,33.36L242.45,37.82L253.47,38.54L264.49,41.25L275.51,43.9L286.53,45.43L308.57,54.71L319.59,59.64L341.63,77.07L352.65,82.57L374.69,96.84L385.71,104.23L407.76,116.34L418.78,123.71L440.82,134.3L451.84,138L462.86,139.86L473.88,142.74L506.94,147.82L517.96,149.62L540,152.37" style="vector-effect: non-scaling-stroke; fill: none; stroke: rgb(239, 85, 59); stroke-opacity: 1; stroke-width: 2px; opacity: 1;"/></g><g class="points"/><g class="text"/></g><g class="trace scatter trace4bc7a6" style="stroke-miterlimit: 2; opacity: 1;"><g class="fills"/><g class="errorbars"/><g class="lines"><path class="js-line" d="M0,11.11L11.02,40.06L22.04,40.88L33.06,41.3L44.08,42.6L55.1,41.82L66.12,41.94L77.14,43.35L88.16,43.03L121.22,42.56L132.24,41.46L143.27,40.8L154.29,41.14L165.31,37.2L176.33,36.19L187.35,36.6L198.37,33.28L209.39,34.65L220.41,32L231.43,31.39L242.45,35.5L253.47,36.53L264.49,38.49L308.57,45.78L319.59,48.89L330.61,49.84L341.63,54.16L352.65,56.46L363.67,61.24L374.69,65.11L385.71,69.94L396.73,76.37L407.76,80.09L429.8,94.06L440.82,100.17L451.84,104.66L462.86,107.67L484.9,114.09L495.92,117.07L517.96,123.06L528.98,125.24L540,127.37" style="vector-effect: non-scaling-stroke; fill: none; stroke: rgb(0, 204, 150); stroke-opacity: 1; stroke-width: 2px; opacity: 1;"/></g><g class="points"/><g class="text"/></g><g class="trace scatter trace3f58f2" style="stroke-miterlimit: 2; opacity: 1;"><g class="fills"/><g class="errorbars"/><g class="lines"><path class="js-line" d="M0,11.03L11.02,39.88L22.04,41.12L33.06,41.12L44.08,42.67L55.1,41.76L66.12,42.17L77.14,43.33L88.16,42.34L99.18,43.19L110.2,42.13L121.22,42.59L132.24,40.97L143.27,40.94L154.29,40.09L176.33,36.06L187.35,36.08L198.37,34.38L209.39,34.77L220.41,31.59L231.43,32.99L242.45,36.93L253.47,36.99L264.49,38.21L275.51,42.21L286.53,43.46L297.55,46.46L308.57,50.44L319.59,51.65L330.61,55.89L341.63,64.56L363.67,79.93L374.69,89L385.71,97.8L396.73,104.23L407.76,113.18L418.78,118.45L429.8,124.87L440.82,130.41L451.84,134.71L462.86,136.98L473.88,139.71L484.9,141.47L540,150.07" style="vector-effect: non-scaling-stroke; fill: none; stroke: rgb(171, 99, 250); stroke-opacity: 1; stroke-width: 2px; opacity: 1;"/></g><g class="points"/><g class="text"/></g><g class="trace scatter tracee1fb3b" style="stroke-miterlimit: 2; opacity: 1;"><g class="fills"/><g class="errorbars"/><g class="lines"><path class="js-line" d="M0,4.14L11.02,35.04L22.04,38.72L66.12,44.42L77.14,44.75L88.16,43.68L99.18,43.85L110.2,43.85L121.22,42.86L165.31,44.75L176.33,44.02L187.35,42.11L198.37,44.26L220.41,47.97L231.43,54.25L242.45,59.89L253.47,68.94L275.51,81.37L286.53,82.28L297.55,88.68L308.57,93.79L330.61,104.95L341.63,108.84L363.67,120.42L374.69,127.44L396.73,144.32L407.76,155.83L418.78,167.7L429.8,181.39L440.82,193.01L451.84,200.07L473.88,209.83L484.9,213.24L517.96,221.94L528.98,224.54L540,226.59" style="vector-effect: non-scaling-stroke; fill: none; stroke: rgb(255, 161, 90); stroke-opacity: 1; stroke-width: 2px; opacity: 1;"/></g><g class="points"/><g class="text"/></g><g class="trace scatter trace50ff6c" style="stroke-miterlimit: 2; opacity: 1;"><g class="fills"/><g class="errorbars"/><g class="lines"><path class="js-line" d="M0,4.62L11.02,34.33L22.04,38.39L33.06,39.12L44.08,41.18L55.1,41.1L66.12,43.03L88.16,43.3L99.18,44.49L121.22,41.77L132.24,41.92L154.29,41.85L165.31,41.37L176.33,41.99L187.35,39.78L198.37,40.03L209.39,38.31L220.41,37.24L231.43,40.21L242.45,43L253.47,48.4L264.49,56.57L275.51,63.26L286.53,66.35L297.55,77.38L319.59,88.44L330.61,92.95L352.65,103.92L363.67,110.75L374.69,114.71L385.71,120.02L396.73,126.71L407.76,132.39L429.8,143.68L440.82,149.46L451.84,152.79L462.86,154.85L484.9,158.7L495.92,159.99L528.98,164.89L540,166.23" style="vector-effect: non-scaling-stroke; fill: none; stroke: rgb(25, 211, 243); stroke-opacity: 1; stroke-width: 2px; opacity: 1;"/></g><g class="points"/><g class="text"/></g><g class="trace scatter tracea91759" style="stroke-miterlimit: 2; opacity: 1;"><g class="fills"/><g class="errorbars"/><g class="lines"><path class="js-line" d="M0,11.23L11.02,39.84L22.04,40.73L33.06,40.73L44.08,41.8L55.1,40.95L66.12,42.18L77.14,42.77L88.16,42.54L99.18,43.09L110.2,40.8L121.22,41.86L132.24,41L154.29,41.14L165.31,39.25L176.33,34.94L187.35,37.3L198.37,35.05L209.39,34.18L220.41,33.52L231.43,30.55L242.45,35.16L253.47,37.05L286.53,41.62L297.55,44.82L308.57,45.76L319.59,48.56L341.63,52.73L352.65,56.8L374.69,64.44L385.71,68.7L396.73,74.4L407.76,78.3L429.8,89.93L440.82,95.2L451.84,99.89L462.86,102.86L517.96,114.59L528.98,116.38L540,118.03" style="vector-effect: non-scaling-stroke; fill: none; stroke: rgb(255, 102, 146); stroke-opacity: 1; stroke-width: 2px; opacity: 1;"/></g><g class="points"/><g class="text"/></g><g class="trace scatter trace93b803" style="stroke-miterlimit: 2; opacity: 1;"><g class="fills"/><g class="errorbars"/><g class="lines"><path class="js-line" d="M0,4.18L11.02,34.67L22.04,38.62L77.14,44.46L88.16,43.78L99.18,44.49L110.2,44.44L121.22,42.54L132.24,42.11L143.27,41.64L154.29,42.66L187.35,41.74L198.37,42.37L220.41,40.39L231.43,44.9L253.47,54.49L264.49,61.44L275.51,71.48L286.53,74.48L297.55,85.32L308.57,89.6L330.61,118.85L341.63,130.2L352.65,150.59L363.67,164.08L396.73,193L407.76,200.55L429.8,219.47L440.82,226.63L451.84,231.36L462.86,234.07L473.88,237.73L484.9,240.23L495.92,242.09L506.94,244.84L528.98,248.68L540,250.58" style="vector-effect: non-scaling-stroke; fill: none; stroke: rgb(182, 232, 128); stroke-opacity: 1; stroke-width: 2px; opacity: 1;"/></g><g class="points"/><g class="text"/></g><g class="trace scatter trace861001" style="stroke-miterlimit: 2; opacity: 1;"><g class="fills"/><g class="errorbars"/><g class="lines"><path class="js-line" d="M0,3.88L11.02,34.63L22.04,37.82L33.06,40.07L44.08,40.67L55.1,40.87L66.12,42.99L77.14,42.96L88.16,43.87L99.18,44.26L110.2,42.63L132.24,42.55L143.27,41.39L165.31,42.22L176.33,42.11L187.35,40.01L198.37,39.82L209.39,37.54L220.41,37.74L231.43,36.92L242.45,40.3L253.47,41.62L264.49,44.73L275.51,49.33L286.53,52.18L297.55,56.66L308.57,64.64L319.59,75.95L330.61,85.55L341.63,96.4L352.65,110.8L385.71,152.12L396.73,162.53L418.78,185.01L429.8,195.28L440.82,203.86L451.84,210.15L462.86,212.62L473.88,216.03L484.9,219.23L495.92,221.36L517.96,226.12L528.98,228.26L540,230.12" style="vector-effect: non-scaling-stroke; fill: none; stroke: rgb(255, 151, 255); stroke-opacity: 1; stroke-width: 2px; opacity: 1;"/></g><g class="points"/><g class="text"/></g><g class="trace scatter tracece38a0" style="stroke-miterlimit: 2; opacity: 1;"><g class="fills"/><g class="errorbars"/><g class="lines"><path class="js-line" d="M0,4.55L11.02,35.17L22.04,38.63L66.12,43.63L77.14,44.1L88.16,43.39L99.18,44.54L110.2,44.7L121.22,43.29L154.29,47.29L165.31,46.71L176.33,47.53L187.35,45.76L198.37,49.8L209.39,48.26L220.41,49.95L231.43,52.98L242.45,57.03L253.47,65.51L264.49,74.22L275.51,79.49L286.53,80.11L297.55,89.89L308.57,96.74L319.59,109.75L341.63,135.97L352.65,150.7L374.69,174.87L385.71,184.06L396.73,194.12L407.76,202.22L418.78,212.57L429.8,221.31L440.82,228.79L451.84,234.83L462.86,236.76L473.88,240.47L495.92,245.41L506.94,247.85L540,253.65" style="vector-effect: non-scaling-stroke; fill: none; stroke: rgb(254, 203, 82); stroke-opacity: 1; stroke-width: 2px; opacity: 1;"/></g><g class="points"/><g class="text"/></g><g class="trace scatter traceec8aac" style="stroke-miterlimit: 2; opacity: 1;"><g class="fills"/><g class="errorbars"/><g class="lines"><path class="js-line" d="M0,4.61L11.02,35L22.04,38.4L33.06,39.99L44.08,40.76L77.14,43.75L88.16,44.07L110.2,44.37L121.22,42.61L132.24,42.76L143.27,43.83L154.29,45.24L165.31,45.27L176.33,48.57L187.35,45.75L198.37,52.67L209.39,56.26L220.41,60.96L231.43,67.28L242.45,68.29L253.47,74.4L264.49,81.22L275.51,83.55L286.53,85.51L297.55,98.53L308.57,106.68L319.59,127.63L330.61,141.72L341.63,151.88L363.67,177.74L374.69,186.16L385.71,193.13L396.73,204.15L418.78,220.29L429.8,229.69L440.82,236.58L451.84,242.32L506.94,254.52L517.96,256.05L540,260.25" style="vector-effect: non-scaling-stroke; fill: none; stroke: rgb(99, 110, 250); stroke-opacity: 1; stroke-width: 2px; opacity: 1;"/></g><g class="points"/><g class="text"/></g><g class="trace scatter trace378ba5" style="stroke-miterlimit: 2; opacity: 1;"><g class="fills"/><g class="errorbars"/><g class="lines"><path class="js-line" d="M0,10.96L11.02,39.85L22.04,40.88L33.06,41.2L44.08,42.31L66.12,42.17L77.14,43.27L88.16,41.81L99.18,41.8L110.2,43.01L121.22,42.76L132.24,40.08L143.27,40.24L165.31,36.97L176.33,35.17L187.35,36.93L198.37,34.36L220.41,30.75L231.43,32.26L242.45,35.24L253.47,36.98L264.49,38.35L275.51,40.7L286.53,41.85L297.55,44.43L308.57,48.79L319.59,48.63L341.63,59.61L352.65,63.37L374.69,76.44L385.71,84.81L407.76,101.69L418.78,108.48L440.82,121.15L451.84,125.34L473.88,130.88L484.9,133.32L540,141.68" style="vector-effect: non-scaling-stroke; fill: none; stroke: rgb(239, 85, 59); stroke-opacity: 1; stroke-width: 2px; opacity: 1;"/></g><g class="points"/><g class="text"/></g><g class="trace scatter tracefd3c88" style="stroke-miterlimit: 2; opacity: 1;"><g class="fills"/><g class="errorbars"/><g class="lines"><path class="js-line" d="M0,4.57L11.02,35.08L22.04,38.63L77.14,44.83L88.16,43.53L99.18,44.76L110.2,43.8L121.22,42.23L132.24,43.76L143.27,43.17L154.29,44.73L198.37,48.3L209.39,49.73L220.41,51.08L231.43,59.9L242.45,63.6L253.47,74.19L264.49,76.72L275.51,83.35L286.53,85.08L297.55,91.12L308.57,97.91L319.59,103.45L330.61,106.95L341.63,119.57L352.65,136.96L363.67,151.94L374.69,164.74L385.71,174.87L396.73,186.88L407.76,194.29L429.8,212.78L440.82,219.93L451.84,225.41L462.86,227.44L473.88,231.24L484.9,233.78L517.96,240.45L528.98,242.82L540,244.52" style="vector-effect: non-scaling-stroke; fill: none; stroke: rgb(0, 204, 150); stroke-opacity: 1; stroke-width: 2px; opacity: 1;"/></g><g class="points"/><g class="text"/></g><g class="trace scatter traced4d69d" style="stroke-miterlimit: 2; opacity: 1;"><g class="fills"/><g class="errorbars"/><g class="lines"><path class="js-line" d="M0,11.17L11.02,40.01L22.04,40.84L33.06,41.08L44.08,42.44L66.12,41.93L77.14,43.6L88.16,42.06L99.18,43.3L121.22,41.28L132.24,40.75L143.27,40.83L154.29,39.54L176.33,35.73L187.35,35.98L220.41,31.66L231.43,32.65L242.45,36.21L253.47,37.98L275.51,40.41L286.53,41.8L308.57,48.63L319.59,50.33L330.61,53.03L341.63,56.76L363.67,65.82L374.69,72.35L385.71,79.06L396.73,90.54L418.78,109.37L429.8,116.57L440.82,123.97L451.84,129.45L473.88,135.87L484.9,137.94L506.94,142.38L517.96,144.09L540,147.65" style="vector-effect: non-scaling-stroke; fill: none; stroke: rgb(171, 99, 250); stroke-opacity: 1; stroke-width: 2px; opacity: 1;"/></g><g class="points"/><g class="text"/></g><g class="trace scatter trace81cbd9" style="stroke-miterlimit: 2; opacity: 1;"><g class="fills"/><g class="errorbars"/><g class="lines"><path class="js-line" d="M0,4.57L11.02,35.08L22.04,38.63L77.14,44.83L88.16,43.53L99.18,44.76L110.2,43.8L121.22,42.23L132.24,43.76L143.27,43.17L154.29,44.73L198.37,48.3L209.39,49.73L220.41,51.08L231.43,59.9L242.45,63.6L253.47,74.19L264.49,76.72L275.51,83.35L286.53,85.14L297.55,92.12L319.59,103.56L330.61,107.46L341.63,119.59L352.65,136.24L363.67,151.87L374.69,165.21L385.71,175.48L396.73,188.57L407.76,196.32L418.78,205.54L429.8,215.5L440.82,223.33L451.84,229.26L462.86,231.2L473.88,234.84L484.9,237.69L495.92,239.6L506.94,242.34L540,248.4" style="vector-effect: non-scaling-stroke; fill: none; stroke: rgb(255, 161, 90); stroke-opacity: 1; stroke-width: 2px; opacity: 1;"/></g><g class="points"/><g class="text"/></g><g class="trace scatter tracef2be66" style="stroke-miterlimit: 2; opacity: 1;"><g class="fills"/><g class="errorbars"/><g class="lines"><path class="js-line" d="M0,11.13L11.02,40.07L22.04,40.91L33.06,41.07L44.08,42.52L55.1,41.7L66.12,42.39L77.14,43.78L88.16,42.64L143.27,41.09L154.29,40.56L165.31,38.32L176.33,35.27L187.35,35.36L198.37,36.79L209.39,34.11L220.41,33.44L231.43,32.65L242.45,38.01L275.51,42.92L286.53,46.62L308.57,55.32L319.59,61.72L330.61,69.1L341.63,82.04L352.65,86.69L363.67,94.14L385.71,107.93L396.73,113.91L418.78,126.69L429.8,132.31L440.82,137.32L451.84,141.48L473.88,146.38L484.9,148.24L540,156.02" style="vector-effect: non-scaling-stroke; fill: none; stroke: rgb(25, 211, 243); stroke-opacity: 1; stroke-width: 2px; opacity: 1;"/></g><g class="points"/><g class="text"/></g><g class="trace scatter trace22d557" style="stroke-miterlimit: 2; opacity: 1;"><g class="fills"/><g class="errorbars"/><g class="lines"><path class="js-line" d="M0,4.57L11.02,35.08L22.04,38.19L66.12,43.6L77.14,44.16L143.27,44.25L154.29,46.23L165.31,46.85L176.33,45.78L187.35,46.11L198.37,47.77L209.39,47.49L220.41,51.83L242.45,64.4L253.47,70.78L275.51,83.54L286.53,84L297.55,92.84L308.57,95.25L319.59,102.12L330.61,102.89L352.65,114.17L363.67,119.24L374.69,125.15L385.71,130.16L396.73,134.61L407.76,140.64L418.78,147.2L429.8,152.47L440.82,158.04L451.84,161.02L473.88,165.08L484.9,166.4L540,173.94" style="vector-effect: non-scaling-stroke; fill: none; stroke: rgb(255, 102, 146); stroke-opacity: 1; stroke-width: 2px; opacity: 1;"/></g><g class="points"/><g class="text"/></g><g class="trace scatter trace0dd1b1" style="stroke-miterlimit: 2; opacity: 1;"><g class="fills"/><g class="errorbars"/><g class="lines"><path class="js-line" d="M0,3.61L11.02,35.05L22.04,38.43L66.12,43.75L77.14,43.82L88.16,43.53L99.18,45.07L121.22,42.61L132.24,44.03L154.29,44.83L165.31,44.08L187.35,46.97L198.37,50.34L209.39,54.36L220.41,56.96L242.45,73.35L253.47,89.31L275.51,127.6L286.53,134.62L297.55,150.62L308.57,158.32L319.59,166.64L330.61,177.16L341.63,182.67L352.65,191.56L363.67,202.62L374.69,209.66L385.71,216.86L396.73,225.59L407.76,233.46L418.78,243.05L429.8,252L440.82,259.29L451.84,264.24L462.86,267.44L484.9,273.36L495.92,275.39L506.94,278.35L517.96,280.4L540,284.45" style="vector-effect: non-scaling-stroke; fill: none; stroke: rgb(182, 232, 128); stroke-opacity: 1; stroke-width: 2px; opacity: 1;"/></g><g class="points"/><g class="text"/></g><g class="trace scatter tracedc93bf" style="stroke-miterlimit: 2; opacity: 1;"><g class="fills"/><g class="errorbars"/><g class="lines"><path class="js-line" d="M0,4.56L11.02,34.62L22.04,38.65L44.08,41.03L55.1,41.78L66.12,43.37L77.14,43.49L88.16,44.21L99.18,43.06L110.2,43.51L121.22,42.01L132.24,43.15L143.27,43.35L165.31,42.95L176.33,45.81L187.35,42.91L198.37,47.89L220.41,47.82L231.43,54.06L253.47,71.92L264.49,75.97L275.51,79.75L286.53,81.28L297.55,90.02L308.57,93.24L319.59,97.68L330.61,100.97L341.63,106.1L352.65,110.25L363.67,115.34L374.69,122.5L385.71,126.42L396.73,132.5L407.76,137.51L418.78,144.21L440.82,155.12L451.84,158.77L506.94,168.82L517.96,170.2L540,173.62" style="vector-effect: non-scaling-stroke; fill: none; stroke: rgb(255, 151, 255); stroke-opacity: 1; stroke-width: 2px; opacity: 1;"/></g><g class="points"/><g class="text"/></g><g class="trace scatter trace63a3ab" style="stroke-miterlimit: 2; opacity: 1;"><g class="fills"/><g class="errorbars"/><g class="lines"><path class="js-line" d="M0,9.25L11.02,39.97L22.04,40.81L33.06,41.12L44.08,42.39L77.14,42.95L88.16,42.27L110.2,41.87L121.22,41.27L143.27,39.18L154.29,39.87L165.31,36.43L176.33,36.36L187.35,36.39L198.37,33.86L209.39,34.3L220.41,31.39L231.43,32.78L242.45,35.71L253.47,38.38L264.49,39.75L275.51,40.99L286.53,41.14L308.57,49.02L319.59,49.2L330.61,56.26L341.63,65.05L352.65,75.92L363.67,82.15L374.69,93.16L385.71,101.65L396.73,107.13L407.76,113.47L440.82,131.52L451.84,135.35L473.88,140.52L484.9,142.7L517.96,147.48L528.98,149.04L540,150.64" style="vector-effect: non-scaling-stroke; fill: none; stroke: rgb(254, 203, 82); stroke-opacity: 1; stroke-width: 2px; opacity: 1;"/></g><g class="points"/><g class="text"/></g><g class="trace scatter traced9c64b" style="stroke-miterlimit: 2; opacity: 1;"><g class="fills"/><g class="errorbars"/><g class="lines"><path class="js-line" d="M0,4.56L11.02,34.95L22.04,38.57L44.08,41.22L55.1,41.58L66.12,43.39L77.14,44.05L110.2,45.4L121.22,44.52L132.24,46.69L143.27,47.34L154.29,48.7L165.31,48.06L176.33,51.68L187.35,53.76L198.37,58.9L209.39,60.2L220.41,63.08L231.43,69.95L242.45,72.42L253.47,81.78L264.49,83.57L275.51,89.17L286.53,97.07L297.55,118.17L308.57,133.31L319.59,151.84L330.61,159.09L341.63,167.52L363.67,190.75L374.69,198.21L407.76,221.48L418.78,228.75L429.8,237.9L440.82,244.09L451.84,249.74L462.86,251.1L473.88,254.41L484.9,256.55L517.96,262.69L528.98,264.6L540,266.06" style="vector-effect: non-scaling-stroke; fill: none; stroke: rgb(99, 110, 250); stroke-opacity: 1; stroke-width: 2px; opacity: 1;"/></g><g class="points"/><g class="text"/></g><g class="trace scatter trace82d521" style="stroke-miterlimit: 2; opacity: 1;"><g class="fills"/><g class="errorbars"/><g class="lines"><path class="js-line" d="M0,10.64L11.02,40.09L22.04,40.68L33.06,41.13L44.08,42.38L55.1,41.74L66.12,42.29L77.14,43.31L88.16,42.99L121.22,41.62L132.24,40.87L143.27,39.09L154.29,38.84L165.31,36.67L176.33,35.38L187.35,35.92L198.37,32.94L209.39,32.75L220.41,31.77L231.43,32.66L242.45,36.09L264.49,37.8L275.51,40.25L286.53,40.82L297.55,43.99L308.57,43.91L319.59,46.13L330.61,48.35L341.63,51.46L363.67,57.9L374.69,63.09L385.71,68.22L396.73,74.24L407.76,79.35L418.78,86.35L440.82,101.18L451.84,107.21L462.86,111.44L473.88,114.57L484.9,118L495.92,120.62L528.98,127.3L540,128.86" style="vector-effect: non-scaling-stroke; fill: none; stroke: rgb(239, 85, 59); stroke-opacity: 1; stroke-width: 2px; opacity: 1;"/></g><g class="points"/><g class="text"/></g><g class="trace scatter trace82678e" style="stroke-miterlimit: 2; opacity: 1;"><g class="fills"/><g class="errorbars"/><g class="lines"><path class="js-line" d="M0,4.53L11.02,34.8L22.04,38.63L44.08,40.59L55.1,42.62L66.12,44.07L77.14,43.54L88.16,43.84L99.18,44.95L121.22,42.71L132.24,42.76L143.27,42.77L154.29,44.03L165.31,43.53L176.33,44.49L187.35,42.6L198.37,43.33L220.41,43.07L231.43,47.16L242.45,53.61L253.47,63.38L275.51,77.96L286.53,79.48L297.55,89.26L308.57,92.87L319.59,99.06L330.61,99.91L352.65,111.86L363.67,116.31L374.69,122.37L385.71,126.54L396.73,130.65L407.76,136.71L418.78,142.99L429.8,148.26L440.82,154.11L451.84,157.48L540,170.27" style="vector-effect: non-scaling-stroke; fill: none; stroke: rgb(0, 204, 150); stroke-opacity: 1; stroke-width: 2px; opacity: 1;"/></g><g class="points"/><g class="text"/></g><g class="trace scatter tracee02f6f" style="stroke-miterlimit: 2; opacity: 1;"><g class="fills"/><g class="errorbars"/><g class="lines"><path class="js-line" d="M0,4.6L11.02,35.1L22.04,38.84L33.06,39.75L44.08,41.61L55.1,41.68L66.12,43.59L88.16,44.58L99.18,44.61L110.2,44.07L121.22,41.75L132.24,43.59L143.27,44.17L154.29,45.38L165.31,45.5L187.35,46.15L198.37,49.01L209.39,49.87L220.41,52.26L231.43,58.73L242.45,62.32L253.47,71.23L264.49,76.66L275.51,81.55L286.53,83.76L297.55,92.09L308.57,96.24L319.59,100.82L330.61,103.44L352.65,114.35L363.67,122.89L374.69,131.34L385.71,146.27L396.73,164.8L407.76,180.43L429.8,204.94L440.82,213.2L451.84,219.41L462.86,222.98L484.9,229.28L495.92,231.46L506.94,234.39L517.96,236.5L540,240.89" style="vector-effect: non-scaling-stroke; fill: none; stroke: rgb(171, 99, 250); stroke-opacity: 1; stroke-width: 2px; opacity: 1;"/></g><g class="points"/><g class="text"/></g><g class="trace scatter trace9a77aa" style="stroke-miterlimit: 2; opacity: 1;"><g class="fills"/><g class="errorbars"/><g class="lines"><path class="js-line" d="M0,4.35L11.02,34.78L22.04,38.57L44.08,41.25L55.1,41.57L66.12,43.3L77.14,43.93L88.16,43.6L99.18,44.46L121.22,42.67L132.24,42.72L154.29,42.34L165.31,42.48L187.35,40.41L198.37,41.94L209.39,40.35L220.41,40.36L231.43,41.13L242.45,45.03L253.47,49.17L264.49,56.52L275.51,65.08L286.53,71.04L297.55,80.93L308.57,89.38L319.59,101.87L330.61,116.63L341.63,133.01L352.65,153.06L363.67,168.34L374.69,179.58L407.76,209.28L418.78,216.9L429.8,226.49L440.82,233.52L451.84,239.37L462.86,241.28L473.88,245.16L484.9,247.56L495.92,249.58L506.94,252.38L540,258.1" style="vector-effect: non-scaling-stroke; fill: none; stroke: rgb(255, 161, 90); stroke-opacity: 1; stroke-width: 2px; opacity: 1;"/></g><g class="points"/><g class="text"/></g><g class="trace scatter trace183a13" style="stroke-miterlimit: 2; opacity: 1;"><g class="fills"/><g class="errorbars"/><g class="lines"><path class="js-line" d="M0,10.95L11.02,40.11L22.04,40.71L44.08,42.27L55.1,41.35L77.14,42.95L88.16,42.62L121.22,42.52L132.24,41L143.27,41.93L154.29,40.62L165.31,38.24L176.33,37.04L187.35,37.44L198.37,35.57L209.39,35.76L220.41,33.55L231.43,33.91L242.45,37.54L253.47,39.8L264.49,40.56L275.51,42.62L286.53,46.96L308.57,53.08L319.59,53.7L330.61,61.69L341.63,68.4L363.67,80.44L374.69,89.94L385.71,97.56L396.73,106.59L407.76,112.95L418.78,120.58L429.8,127.71L440.82,133.52L451.84,138.11L462.86,140.63L484.9,146.14L495.92,147.93L528.98,153.66L540,155.29" style="vector-effect: non-scaling-stroke; fill: none; stroke: rgb(25, 211, 243); stroke-opacity: 1; stroke-width: 2px; opacity: 1;"/></g><g class="points"/><g class="text"/></g><g class="trace scatter trace7f76b3" style="stroke-miterlimit: 2; opacity: 1;"><g class="fills"/><g class="errorbars"/><g class="lines"><path class="js-line" d="M0,4L11.02,34.89L22.04,38.6L44.08,41.51L55.1,41.44L66.12,43.74L77.14,44.39L88.16,43.91L99.18,44.66L121.22,43.32L132.24,44.08L154.29,45.51L165.31,43.71L176.33,45.93L187.35,46.39L198.37,50.88L209.39,52.68L231.43,55.1L242.45,59.48L253.47,70.11L264.49,76.35L275.51,83.39L286.53,87.99L297.55,106.72L308.57,122.6L319.59,141.2L330.61,152.56L341.63,162.54L352.65,176.74L363.67,189.2L374.69,196.59L396.73,216L407.76,224.96L418.78,234.21L429.8,242.4L440.82,250.09L451.84,255.54L462.86,257.71L473.88,261.59L506.94,268.67L517.96,270.68L540,275.1" style="vector-effect: non-scaling-stroke; fill: none; stroke: rgb(255, 102, 146); stroke-opacity: 1; stroke-width: 2px; opacity: 1;"/></g><g class="points"/><g class="text"/></g><g class="trace scatter tracee1515d" style="stroke-miterlimit: 2; opacity: 1;"><g class="fills"/><g class="errorbars"/><g class="lines"><path class="js-line" d="M0,4.57L11.02,35.08L22.04,38.63L77.14,44.83L88.16,43.53L99.18,44.76L110.2,43.8L121.22,42.23L132.24,43.76L143.27,43.17L154.29,44.73L198.37,48.3L209.39,49.73L220.41,51.08L231.43,59.9L242.45,63.6L253.47,74.19L264.49,76.72L275.51,83.35L286.53,85.08L297.55,91.12L308.57,97.91L319.59,103.45L330.61,106.95L341.63,119.57L352.65,136.96L363.67,151.94L374.69,164.74L385.71,174.87L396.73,186.88L407.76,194.29L429.8,212.78L440.82,219.93L451.84,225.41L462.86,227.44L473.88,231.21L484.9,233.87L517.96,240.5L528.98,242.84L540,244.52" style="vector-effect: non-scaling-stroke; fill: none; stroke: rgb(182, 232, 128); stroke-opacity: 1; stroke-width: 2px; opacity: 1;"/></g><g class="points"/><g class="text"/></g><g class="trace scatter trace95fea2" style="stroke-miterlimit: 2; opacity: 1;"><g class="fills"/><g class="errorbars"/><g class="lines"><path class="js-line" d="M0,11.28L11.02,39.95L22.04,40.88L33.06,41.11L44.08,42.26L55.1,41.4L66.12,42.1L77.14,43.48L88.16,42.62L99.18,43.83L110.2,42.75L121.22,43.07L132.24,42.11L143.27,41.72L154.29,40.46L165.31,38.34L176.33,34.2L187.35,37.72L198.37,34.54L209.39,33.11L220.41,32.79L231.43,31.12L242.45,35.79L264.49,39.87L275.51,40.17L286.53,42.95L297.55,46.55L308.57,49.14L319.59,49.25L330.61,54.85L341.63,58.16L352.65,62.99L363.67,70.06L374.69,78.47L385.71,88.22L396.73,97.24L407.76,103.6L429.8,118.86L440.82,124.7L451.84,128.95L462.86,131.7L484.9,136.41L495.92,138.2L540,144.7" style="vector-effect: non-scaling-stroke; fill: none; stroke: rgb(255, 151, 255); stroke-opacity: 1; stroke-width: 2px; opacity: 1;"/></g><g class="points"/><g class="text"/></g><g class="trace scatter traceffb9ae" style="stroke-miterlimit: 2; opacity: 1;"><g class="fills"/><g class="errorbars"/><g class="lines"><path class="js-line" d="M0,4.42L11.02,35.07L22.04,38.52L66.12,43.29L77.14,43.8L110.2,43.41L121.22,41.87L143.27,42.64L154.29,41.57L176.33,44.45L187.35,42.47L198.37,45.24L209.39,44.71L220.41,48.87L231.43,51.14L242.45,55.27L253.47,60.23L264.49,67.12L275.51,75.17L286.53,75.53L297.55,83.12L319.59,94.53L330.61,95.96L341.63,101.71L352.65,105.28L363.67,111.42L374.69,115.9L396.73,127L407.76,132.91L429.8,143.44L440.82,149.9L451.84,153.49L462.86,154.82L484.9,159.3L495.92,160.63L540,167.28" style="vector-effect: non-scaling-stroke; fill: none; stroke: rgb(254, 203, 82); stroke-opacity: 1; stroke-width: 2px; opacity: 1;"/></g><g class="points"/><g class="text"/></g><g class="trace scatter trace05df16" style="stroke-miterlimit: 2; opacity: 1;"><g class="fills"/><g class="errorbars"/><g class="lines"><path class="js-line" d="M0,4.51L11.02,34.98L22.04,38.66L77.14,43.92L88.16,43.88L99.18,43.46L110.2,44.03L121.22,43.9L132.24,41.95L143.27,43.76L154.29,43.32L176.33,43.52L187.35,42.53L198.37,42.85L209.39,38.7L220.41,41.59L231.43,45.95L242.45,52.91L253.47,56.08L275.51,73.89L286.53,78.77L297.55,88.56L308.57,95.94L330.61,124.75L341.63,139.24L363.67,168.39L374.69,179.35L396.73,200.12L407.76,208.19L418.78,217.08L429.8,227.24L440.82,234.8L451.84,240.61L462.86,242.91L473.88,246.56L540,259.56" style="vector-effect: non-scaling-stroke; fill: none; stroke: rgb(99, 110, 250); stroke-opacity: 1; stroke-width: 2px; opacity: 1;"/></g><g class="points"/><g class="text"/></g><g class="trace scatter trace7be6bb" style="stroke-miterlimit: 2; opacity: 1;"><g class="fills"/><g class="errorbars"/><g class="lines"><path class="js-line" d="M0,4.47L11.02,34.83L22.04,38.28L44.08,41.11L55.1,42L77.14,44.21L88.16,43.46L110.2,43.67L121.22,41.52L143.27,42.86L154.29,42.41L165.31,43.6L176.33,42.89L187.35,40.8L198.37,44.53L209.39,44.15L220.41,46.81L231.43,55.79L242.45,63.26L253.47,71.46L264.49,76.37L275.51,79.47L286.53,81.48L297.55,89.92L308.57,93.26L319.59,99.66L330.61,101.77L341.63,107.62L352.65,110.48L363.67,117.3L374.69,123.01L385.71,128.63L396.73,137.73L429.8,180.11L440.82,191.45L451.84,199.35L462.86,203.68L473.88,208.37L484.9,211.86L506.94,217.7L517.96,220.01L540,224.42" style="vector-effect: non-scaling-stroke; fill: none; stroke: rgb(239, 85, 59); stroke-opacity: 1; stroke-width: 2px; opacity: 1;"/></g><g class="points"/><g class="text"/></g><g class="trace scatter traceb52703" style="stroke-miterlimit: 2; opacity: 1;"><g class="fills"/><g class="errorbars"/><g class="lines"><path class="js-line" d="M0,4.54L11.02,35.01L22.04,38.83L77.14,43.91L88.16,44.07L99.18,44.62L110.2,44.38L121.22,42.15L132.24,43.14L143.27,43.95L154.29,43.49L165.31,43.3L176.33,43.99L187.35,42.98L198.37,45.49L209.39,43.47L220.41,44.36L242.45,63.93L253.47,70.63L275.51,81.01L286.53,82.34L297.55,90.9L308.57,93.37L319.59,100.34L330.61,108.61L341.63,122.38L352.65,137.56L374.69,164.76L385.71,174.11L396.73,184.57L407.76,192.83L429.8,211.83L440.82,219.07L451.84,224.86L462.86,227.49L473.88,231.28L484.9,234.07L517.96,240.87L528.98,243.26L540,245.07" style="vector-effect: non-scaling-stroke; fill: none; stroke: rgb(0, 204, 150); stroke-opacity: 1; stroke-width: 2px; opacity: 1;"/></g><g class="points"/><g class="text"/></g><g class="trace scatter trace528d67" style="stroke-miterlimit: 2; opacity: 1;"><g class="fills"/><g class="errorbars"/><g class="lines"><path class="js-line" d="M0,4.56L11.02,34.87L22.04,38.47L66.12,43.79L77.14,43.67L99.18,45.34L110.2,43.95L121.22,42.8L132.24,44.68L143.27,43.89L154.29,45.68L165.31,45.84L176.33,46.92L187.35,47.84L198.37,51.35L220.41,57.03L231.43,64.92L253.47,76.41L264.49,79.82L275.51,85.54L286.53,87.63L297.55,93.44L308.57,97.79L319.59,102.47L330.61,104.73L352.65,114.95L363.67,120.89L374.69,125.62L385.71,132.54L396.73,138.39L407.76,146.71L418.78,154.93L429.8,166.86L440.82,177.4L451.84,186.2L462.86,191.34L473.88,197.81L495.92,206.03L506.94,210.09L540,217.71" style="vector-effect: non-scaling-stroke; fill: none; stroke: rgb(171, 99, 250); stroke-opacity: 1; stroke-width: 2px; opacity: 1;"/></g><g class="points"/><g class="text"/></g><g class="trace scatter traceb9a609" style="stroke-miterlimit: 2; opacity: 1;"><g class="fills"/><g class="errorbars"/><g class="lines"><path class="js-line" d="M0,11.28L11.02,39.9L22.04,40.76L33.06,41.14L44.08,42.55L55.1,41.61L66.12,41.63L77.14,43.4L88.16,43.41L110.2,42.35L121.22,42.94L132.24,41.25L143.27,40.33L154.29,40.96L165.31,37.54L176.33,37.64L187.35,36.51L198.37,35.93L209.39,33.78L220.41,32.65L231.43,33.02L253.47,40.17L264.49,41.4L275.51,42.04L286.53,46.45L297.55,50.69L308.57,58.36L319.59,64.09L330.61,72.24L341.63,81.21L352.65,87.04L363.67,93.31L374.69,101.94L396.73,115.88L407.76,121.71L440.82,140.82L451.84,144.69L495.92,153.81L506.94,155.34L540,160.03" style="vector-effect: non-scaling-stroke; fill: none; stroke: rgb(255, 161, 90); stroke-opacity: 1; stroke-width: 2px; opacity: 1;"/></g><g class="points"/><g class="text"/></g><g class="trace scatter trace4cc0b8" style="stroke-miterlimit: 2; opacity: 1;"><g class="fills"/><g class="errorbars"/><g class="lines"><path class="js-line" d="M0,3.7L11.02,34.85L22.04,38.49L44.08,40.91L55.1,41.71L77.14,44.36L88.16,43.71L99.18,44.16L110.2,43.66L121.22,42.31L132.24,42.24L165.31,43.06L176.33,43.98L187.35,43.41L198.37,50.26L220.41,55.48L231.43,60.05L242.45,66.44L253.47,75.53L275.51,80.41L286.53,81.31L297.55,90.41L308.57,94.21L319.59,99.01L330.61,102.66L341.63,105.82L352.65,111.62L363.67,117.2L374.69,121.44L385.71,127.19L396.73,132.07L407.76,137.42L418.78,143.65L429.8,148.6L440.82,154.95L451.84,158.15L462.86,159.88L473.88,162.27L484.9,163.49L528.98,170.31L540,171.42" style="vector-effect: non-scaling-stroke; fill: none; stroke: rgb(25, 211, 243); stroke-opacity: 1; stroke-width: 2px; opacity: 1;"/></g><g class="points"/><g class="text"/></g><g class="trace scatter traceb9f07f" style="stroke-miterlimit: 2; opacity: 1;"><g class="fills"/><g class="errorbars"/><g class="lines"><path class="js-line" d="M0,11.18L11.02,40.09L22.04,40.61L33.06,40.99L44.08,42.57L55.1,41.52L66.12,42.29L77.14,43.43L88.16,41.82L99.18,43.25L110.2,41.07L121.22,40.36L132.24,41.33L143.27,40.28L154.29,40.25L165.31,37.32L176.33,36.34L198.37,36.29L209.39,31.72L231.43,31.19L242.45,34.79L253.47,37.24L264.49,37.53L286.53,39.62L297.55,44.09L308.57,46.15L319.59,47.34L330.61,48.77L341.63,52.89L352.65,56.26L363.67,62.04L374.69,69.07L385.71,78.91L396.73,89.94L407.76,98.59L418.78,107.17L429.8,114.71L440.82,121.68L451.84,125.9L473.88,131.73L484.9,133.48L506.94,137.75L517.96,139.54L540,142.65" style="vector-effect: non-scaling-stroke; fill: none; stroke: rgb(255, 102, 146); stroke-opacity: 1; stroke-width: 2px; opacity: 1;"/></g><g class="points"/><g class="text"/></g><g class="trace scatter trace11df4a" style="stroke-miterlimit: 2; opacity: 1;"><g class="fills"/><g class="errorbars"/><g class="lines"><path class="js-line" d="M0,10.62L11.02,39.94L22.04,40.9L33.06,41.26L44.08,42.5L55.1,41.91L66.12,42.2L77.14,42.67L88.16,42.03L99.18,42.58L110.2,41.98L121.22,42.53L132.24,41.28L143.27,41.95L154.29,40.5L165.31,37.25L176.33,36.78L198.37,34.05L209.39,33.95L220.41,31.73L231.43,32.57L242.45,35.53L253.47,36.61L264.49,38.39L275.51,39.06L286.53,42.31L297.55,44.02L308.57,47.07L319.59,48.02L341.63,52.96L352.65,56.74L363.67,59.88L374.69,65.49L385.71,70.24L396.73,76.39L407.76,83.19L418.78,91.18L429.8,99.97L440.82,107.74L451.84,113.31L462.86,117.7L484.9,123.91L495.92,126.11L517.96,131.07L528.98,132.81L540,134.6" style="vector-effect: non-scaling-stroke; fill: none; stroke: rgb(182, 232, 128); stroke-opacity: 1; stroke-width: 2px; opacity: 1;"/></g><g class="points"/><g class="text"/></g><g class="trace scatter tracecad846" style="stroke-miterlimit: 2; opacity: 1;"><g class="fills"/><g class="errorbars"/><g class="lines"><path class="js-line" d="M0,11.28L11.02,39.95L22.04,40.84L33.06,41.1L44.08,42.61L55.1,41.26L66.12,41.94L77.14,43.24L88.16,42.8L110.2,41.62L121.22,42.63L132.24,40.21L143.27,40.48L154.29,39.99L165.31,37.78L176.33,34.97L187.35,35.68L198.37,35.26L209.39,33.41L231.43,31.68L242.45,36.96L253.47,37.14L264.49,39.69L275.51,39.58L286.53,40.66L297.55,45.67L308.57,47.73L319.59,47.25L330.61,51.91L352.65,57.88L363.67,63.62L374.69,71.39L385.71,82.36L396.73,92.64L407.76,100.31L418.78,108.68L429.8,115.49L440.82,121.4L451.84,125.69L484.9,133.26L495.92,135.07L540,141.64" style="vector-effect: non-scaling-stroke; fill: none; stroke: rgb(255, 151, 255); stroke-opacity: 1; stroke-width: 2px; opacity: 1;"/></g><g class="points"/><g class="text"/></g><g class="trace scatter tracea2b76d" style="stroke-miterlimit: 2; opacity: 1;"><g class="fills"/><g class="errorbars"/><g class="lines"><path class="js-line" d="M0,3.87L11.02,34.1L22.04,38.79L33.06,40.01L44.08,40.28L77.14,43.42L88.16,42.57L99.18,44.13L110.2,43.14L121.22,41.75L132.24,44.1L143.27,43.29L154.29,43.88L176.33,43.68L187.35,42.58L198.37,45.2L209.39,43.73L220.41,46.81L231.43,55.21L242.45,62.95L253.47,73.44L264.49,77.47L275.51,84.84L286.53,86.8L297.55,97.43L308.57,107.38L319.59,121.77L341.63,146.49L352.65,157.41L363.67,169.95L374.69,178.77L385.71,187.23L396.73,196.66L440.82,229.8L451.84,234.79L506.94,247.86L517.96,249.58L528.98,252.16L540,253.89" style="vector-effect: non-scaling-stroke; fill: none; stroke: rgb(254, 203, 82); stroke-opacity: 1; stroke-width: 2px; opacity: 1;"/></g><g class="points"/><g class="text"/></g><g class="trace scatter trace5649a9" style="stroke-miterlimit: 2; opacity: 1;"><g class="fills"/><g class="errorbars"/><g class="lines"><path class="js-line" d="M0,4.41L11.02,34.82L22.04,38.53L44.08,41.2L55.1,41.26L66.12,42.84L77.14,43.1L88.16,43.14L99.18,44.82L121.22,42.06L132.24,42.67L176.33,46.05L187.35,45.89L198.37,49.03L209.39,48.26L220.41,56.4L231.43,66.68L242.45,69.89L253.47,75.43L275.51,84.27L286.53,85.98L297.55,92.5L308.57,97.25L319.59,102.86L330.61,112.24L341.63,127.19L352.65,146.14L363.67,160.39L374.69,170.58L385.71,182.97L396.73,192.64L407.76,200.26L418.78,210.28L429.8,220.14L440.82,227.72L451.84,234.02L462.86,236.8L473.88,240.49L484.9,243.35L495.92,245.35L506.94,248.43L517.96,250.27L528.98,253.01L540,254.75" style="vector-effect: non-scaling-stroke; fill: none; stroke: rgb(99, 110, 250); stroke-opacity: 1; stroke-width: 2px; opacity: 1;"/></g><g class="points"/><g class="text"/></g><g class="trace scatter trace003cd2" style="stroke-miterlimit: 2; opacity: 1;"><g class="fills"/><g class="errorbars"/><g class="lines"><path class="js-line" d="M0,4.38L11.02,34.68L22.04,38.46L66.12,43.39L77.14,43.77L99.18,44.64L110.2,43.78L121.22,42.48L132.24,43.94L143.27,44.09L154.29,45.1L165.31,44.92L176.33,45.9L187.35,46.53L198.37,50.01L220.41,55.58L231.43,64.43L242.45,68.22L253.47,76.49L264.49,80.46L275.51,83.43L286.53,87.73L297.55,93.75L308.57,97.88L319.59,103.23L330.61,106.8L341.63,112.54L352.65,122.11L363.67,138.48L374.69,154.59L385.71,167.9L418.78,199.58L429.8,208.77L440.82,216.44L451.84,222.27L473.88,227.66L484.9,231.14L495.92,232.72L506.94,235.71L540,241.51" style="vector-effect: non-scaling-stroke; fill: none; stroke: rgb(239, 85, 59); stroke-opacity: 1; stroke-width: 2px; opacity: 1;"/></g><g class="points"/><g class="text"/></g><g class="trace scatter trace52d09b" style="stroke-miterlimit: 2; opacity: 1;"><g class="fills"/><g class="errorbars"/><g class="lines"><path class="js-line" d="M0,4.45L11.02,34.75L22.04,38.39L77.14,44L88.16,43.12L99.18,43.84L110.2,43.02L121.22,41.57L132.24,43.12L154.29,41.93L165.31,41.2L176.33,41.54L187.35,39.86L198.37,41.56L209.39,38.19L220.41,39.12L231.43,43.85L242.45,47.28L253.47,42.05L264.49,53.93L275.51,62.5L286.53,66.65L297.55,79.87L308.57,83.12L319.59,92.07L330.61,92.7L341.63,98.38L363.67,109.47L374.69,114.27L385.71,120.19L396.73,124.98L418.78,137.56L429.8,141.65L440.82,147.63L451.84,150.58L506.94,159.31L517.96,160.72L540,163.27" style="vector-effect: non-scaling-stroke; fill: none; stroke: rgb(0, 204, 150); stroke-opacity: 1; stroke-width: 2px; opacity: 1;"/></g><g class="points"/><g class="text"/></g><g class="trace scatter trace4ad7e8" style="stroke-miterlimit: 2; opacity: 1;"><g class="fills"/><g class="errorbars"/><g class="lines"><path class="js-line" d="M0,4.69L11.02,34.74L22.04,38.37L44.08,41.1L55.1,41.7L66.12,43.57L77.14,43.87L110.2,43.64L121.22,41.39L132.24,42.94L143.27,42.91L154.29,42.88L165.31,43.69L176.33,43.86L187.35,42.25L198.37,45.32L209.39,43.83L220.41,49.09L231.43,51.33L253.47,69.15L264.49,74.06L275.51,82.04L286.53,82.37L297.55,91.68L308.57,95.08L319.59,100.22L330.61,103.24L341.63,107.42L352.65,113.17L385.71,128.46L396.73,133.95L407.76,140.22L418.78,147.47L440.82,162.28L451.84,167.32L473.88,173.64L484.9,177.15L528.98,187.66L540,189.48" style="vector-effect: non-scaling-stroke; fill: none; stroke: rgb(171, 99, 250); stroke-opacity: 1; stroke-width: 2px; opacity: 1;"/></g><g class="points"/><g class="text"/></g><g class="trace scatter tracec172e8" style="stroke-miterlimit: 2; opacity: 1;"><g class="fills"/><g class="errorbars"/><g class="lines"><path class="js-line" d="M0,4.55L11.02,34.98L22.04,38.38L44.08,40.68L55.1,41.79L77.14,43.87L88.16,43.83L110.2,43.64L121.22,42.77L154.29,42.26L165.31,42.8L187.35,41.63L198.37,44.33L209.39,40.71L220.41,40.59L231.43,42.19L242.45,51.17L253.47,59.35L264.49,68.75L275.51,72.58L286.53,77.83L297.55,85.74L308.57,90.32L319.59,98.07L330.61,107.77L341.63,117.39L352.65,133.54L363.67,145.48L374.69,161.93L396.73,185.46L407.76,194.99L418.78,204.24L429.8,214.65L440.82,222.17L451.84,227.96L484.9,237.03L495.92,238.6L506.94,241.55L517.96,243.55L540,247.36" style="vector-effect: non-scaling-stroke; fill: none; stroke: rgb(255, 161, 90); stroke-opacity: 1; stroke-width: 2px; opacity: 1;"/></g><g class="points"/><g class="text"/></g><g class="trace scatter trace8b9fb5" style="stroke-miterlimit: 2; opacity: 1;"><g class="fills"/><g class="errorbars"/><g class="lines"><path class="js-line" d="M0,4.95L11.02,34.94L22.04,38.74L77.14,44.33L88.16,43.46L99.18,44.65L110.2,44.13L121.22,42.26L132.24,43.49L143.27,42.27L154.29,42.64L165.31,44.63L176.33,43.77L187.35,40.66L198.37,42.03L220.41,40.93L231.43,46.08L242.45,47.37L253.47,57.69L275.51,74.94L286.53,76.2L297.55,83.58L308.57,88.53L319.59,95.72L330.61,99.8L341.63,102.98L352.65,108.25L363.67,115.41L374.69,120.41L385.71,124.75L396.73,131.37L429.8,149.35L440.82,155.25L451.84,158.73L462.86,160.73L473.88,163.13L484.9,164.56L528.98,171.12L540,172.43" style="vector-effect: non-scaling-stroke; fill: none; stroke: rgb(25, 211, 243); stroke-opacity: 1; stroke-width: 2px; opacity: 1;"/></g><g class="points"/><g class="text"/></g><g class="trace scatter trace3f26c1" style="stroke-miterlimit: 2; opacity: 1;"><g class="fills"/><g class="errorbars"/><g class="lines"><path class="js-line" d="M0,11.15L11.02,40L22.04,40.77L44.08,42.44L55.1,41.48L66.12,42.12L77.14,43.76L88.16,42.95L99.18,43.08L121.22,41.54L132.24,42.11L143.27,39.43L154.29,39.46L165.31,38.45L176.33,35.66L187.35,36.32L198.37,35.84L209.39,34.95L220.41,30.41L231.43,31.54L242.45,38.26L253.47,38.94L264.49,40.71L286.53,45.19L297.55,48.63L308.57,52.85L319.59,54.72L341.63,73.33L352.65,80.2L363.67,86.31L374.69,95.14L407.76,116.41L418.78,122.82L440.82,135.1L451.84,139.18L484.9,146.52L495.92,148.38L540,154.81" style="vector-effect: non-scaling-stroke; fill: none; stroke: rgb(255, 102, 146); stroke-opacity: 1; stroke-width: 2px; opacity: 1;"/></g><g class="points"/><g class="text"/></g><g class="trace scatter trace1b80a0" style="stroke-miterlimit: 2; opacity: 1;"><g class="fills"/><g class="errorbars"/><g class="lines"><path class="js-line" d="M0,4.19L11.02,34.59L22.04,38.53L44.08,41.38L55.1,41.66L77.14,44.81L88.16,43.56L110.2,43.85L121.22,42.54L132.24,43.45L143.27,42.96L165.31,40.96L176.33,41.98L187.35,40.29L198.37,41.93L209.39,37.71L220.41,37.51L231.43,42.97L242.45,43.51L253.47,48.02L264.49,53.41L275.51,58.31L286.53,66.37L297.55,76.43L308.57,82.42L319.59,89.97L330.61,92.89L385.71,120.79L396.73,125.86L407.76,130.7L418.78,137.07L429.8,143.99L440.82,148.47L451.84,152.39L462.86,153.98L473.88,156.26L484.9,157.76L540,165.68" style="vector-effect: non-scaling-stroke; fill: none; stroke: rgb(182, 232, 128); stroke-opacity: 1; stroke-width: 2px; opacity: 1;"/></g><g class="points"/><g class="text"/></g><g class="trace scatter trace1fd645" style="stroke-miterlimit: 2; opacity: 1;"><g class="fills"/><g class="errorbars"/><g class="lines"><path class="js-line" d="M0,3.99L11.02,34.73L22.04,38.31L55.1,41.51L66.12,43.56L88.16,43.37L99.18,44.37L110.2,43.81L121.22,42.43L132.24,43.65L143.27,42.82L154.29,44.87L165.31,44.56L187.35,44.1L198.37,47.67L209.39,47.33L220.41,45.82L264.49,75.54L275.51,80.26L286.53,84.13L297.55,93L308.57,96.74L319.59,113.4L330.61,130.31L341.63,143.42L352.65,157.44L363.67,168.52L374.69,178.66L385.71,186.49L396.73,196.41L407.76,205.09L440.82,231.01L451.84,237.6L462.86,239.34L473.88,243.11L484.9,246.32L495.92,248.42L506.94,251.18L517.96,253.09L540,257.6" style="vector-effect: non-scaling-stroke; fill: none; stroke: rgb(255, 151, 255); stroke-opacity: 1; stroke-width: 2px; opacity: 1;"/></g><g class="points"/><g class="text"/></g><g class="trace scatter traced8039d" style="stroke-miterlimit: 2; opacity: 1;"><g class="fills"/><g class="errorbars"/><g class="lines"><path class="js-line" d="M0,4.77L11.02,34.85L22.04,38.74L44.08,41L55.1,41.46L77.14,44.08L88.16,43.94L110.2,43.9L121.22,41.65L132.24,42.92L143.27,42.87L176.33,43.06L187.35,43.01L198.37,42.31L209.39,39.24L220.41,39.84L231.43,44.69L253.47,56.13L264.49,62.75L275.51,67.44L286.53,71.06L297.55,81.22L308.57,87.16L319.59,94.21L330.61,96.72L341.63,103.19L352.65,108.22L374.69,129.07L385.71,145.6L396.73,160.13L407.76,172.76L429.8,196.43L440.82,206.78L451.84,212.7L462.86,216.19L484.9,222.42L495.92,224.36L506.94,227.72L517.96,229.77L540,233.7" style="vector-effect: non-scaling-stroke; fill: none; stroke: rgb(254, 203, 82); stroke-opacity: 1; stroke-width: 2px; opacity: 1;"/></g><g class="points"/><g class="text"/></g><g class="trace scatter tracec84646" style="stroke-miterlimit: 2; opacity: 1;"><g class="fills"/><g class="errorbars"/><g class="lines"><path class="js-line" d="M0,4.57L11.02,35.08L22.04,38.63L77.14,44.83L88.16,43.53L99.18,44.76L110.2,43.8L121.22,42.23L132.24,43.76L143.27,43.17L154.29,44.73L198.37,48.3L209.39,49.73L220.41,51.08L231.43,59.9L242.45,63.6L253.47,74.19L264.49,76.72L275.51,83.35L286.53,85.08L297.55,91.12L308.57,97.91L319.59,103.45L330.61,106.95L341.63,119.57L352.65,136.96L363.67,151.94L374.69,164.74L385.71,174.87L396.73,186.88L407.76,194.29L429.8,212.78L440.82,219.93L451.84,225.41L462.86,227.44L473.88,231.24L484.9,233.78L517.96,240.45L528.98,242.82L540,244.52" style="vector-effect: non-scaling-stroke; fill: none; stroke: rgb(99, 110, 250); stroke-opacity: 1; stroke-width: 2px; opacity: 1;"/></g><g class="points"/><g class="text"/></g><g class="trace scatter trace0d0470" style="stroke-miterlimit: 2; opacity: 1;"><g class="fills"/><g class="errorbars"/><g class="lines"><path class="js-line" d="M0,4.18L11.02,34.47L22.04,38.33L44.08,41.47L55.1,41.86L66.12,43.42L77.14,44.02L88.16,43.08L99.18,44.69L110.2,43.63L121.22,41.52L143.27,42.35L154.29,41.61L176.33,42.5L187.35,40.08L198.37,40.39L209.39,37.49L231.43,42.23L242.45,45.68L253.47,47.28L264.49,57.55L275.51,65.41L286.53,71.98L297.55,82.66L308.57,85.27L319.59,91.88L330.61,96.4L341.63,100.96L352.65,104.58L363.67,110.57L374.69,115.15L385.71,120.25L396.73,124.22L440.82,147.81L451.84,151.17L473.88,155.06L484.9,156.76L528.98,163.46L540,164.72" style="vector-effect: non-scaling-stroke; fill: none; stroke: rgb(239, 85, 59); stroke-opacity: 1; stroke-width: 2px; opacity: 1;"/></g><g class="points"/><g class="text"/></g><g class="trace scatter trace3d0e0c" style="stroke-miterlimit: 2; opacity: 1;"><g class="fills"/><g class="errorbars"/><g class="lines"><path class="js-line" d="M0,11.28L11.02,39.95L22.04,40.8L33.06,41.02L44.08,42.36L55.1,41.45L66.12,41.76L77.14,43.35L88.16,42.39L99.18,43.26L110.2,42.05L143.27,41.54L154.29,39.98L165.31,38.7L176.33,34.93L198.37,36.37L209.39,33.72L231.43,32.2L242.45,34.91L253.47,37.45L264.49,38.9L275.51,40.87L286.53,41.67L297.55,43.78L308.57,44.73L319.59,48.32L330.61,50.64L363.67,61.77L374.69,68.89L385.71,74.11L396.73,81.7L440.82,111.55L451.84,116.98L473.88,123.75L484.9,126.63L506.94,131.27L517.96,132.98L540,136.69" style="vector-effect: non-scaling-stroke; fill: none; stroke: rgb(0, 204, 150); stroke-opacity: 1; stroke-width: 2px; opacity: 1;"/></g><g class="points"/><g class="text"/></g><g class="trace scatter trace9bdc18" style="stroke-miterlimit: 2; opacity: 1;"><g class="fills"/><g class="errorbars"/><g class="lines"><path class="js-line" d="M0,4.6L11.02,34.94L22.04,38.28L44.08,40.99L55.1,41.57L66.12,43.48L77.14,43.98L88.16,43.76L99.18,44.73L110.2,44.35L121.22,42.75L132.24,44.61L143.27,45.05L154.29,47.66L165.31,47.65L176.33,48.48L187.35,45.7L198.37,50.99L209.39,48.89L220.41,52.55L231.43,54.65L242.45,62.94L253.47,67.49L264.49,79.28L275.51,93.7L286.53,109.13L297.55,130.4L308.57,140.72L319.59,153.34L330.61,165.05L341.63,172.92L352.65,181.83L363.67,192.83L374.69,198.9L385.71,208.12L396.73,217.01L407.76,224.84L429.8,241.25L440.82,248.23L451.84,253.89L462.86,255.76L484.9,261.11L495.92,262.73L506.94,265.34L517.96,267.17L540,270.86" style="vector-effect: non-scaling-stroke; fill: none; stroke: rgb(171, 99, 250); stroke-opacity: 1; stroke-width: 2px; opacity: 1;"/></g><g class="points"/><g class="text"/></g><g class="trace scatter trace8d3b5d" style="stroke-miterlimit: 2; opacity: 1;"><g class="fills"/><g class="errorbars"/><g class="lines"><path class="js-line" d="M0,4.52L11.02,34.74L22.04,38.65L44.08,41L55.1,42.25L77.14,44.24L88.16,44.22L110.2,44.61L121.22,42.71L132.24,44.5L143.27,45.08L165.31,45.75L176.33,47.04L187.35,45.97L198.37,49.07L209.39,49.11L220.41,50.5L231.43,58.18L242.45,59.37L253.47,68.49L264.49,74.51L275.51,79.13L286.53,81.62L297.55,90.26L308.57,93.29L319.59,99.76L330.61,102.83L341.63,106.98L352.65,112.63L374.69,122.9L385.71,126.59L396.73,133.89L407.76,138.47L440.82,160.94L451.84,166.03L484.9,178.01L495.92,181.89L517.96,188.37L528.98,191.4L540,192.99" style="vector-effect: non-scaling-stroke; fill: none; stroke: rgb(255, 161, 90); stroke-opacity: 1; stroke-width: 2px; opacity: 1;"/></g><g class="points"/><g class="text"/></g><g class="trace scatter tracee3fc47" style="stroke-miterlimit: 2; opacity: 1;"><g class="fills"/><g class="errorbars"/><g class="lines"><path class="js-line" d="M0,4.53L11.02,35.07L22.04,38.58L55.1,41.72L66.12,43.4L99.18,44.37L110.2,44.07L132.24,41.95L143.27,43.45L154.29,42.15L165.31,43.45L187.35,42.78L198.37,43.52L220.41,39.95L231.43,44.7L253.47,55.99L264.49,64.23L275.51,73.4L286.53,76.1L297.55,85.54L308.57,89.42L319.59,94.93L330.61,99.44L341.63,102.93L352.65,108.62L363.67,113.1L374.69,119.32L396.73,129.77L407.76,135.19L418.78,142.57L429.8,147.67L440.82,154.16L451.84,157.82L495.92,165.92L506.94,167.78L540,172.51" style="vector-effect: non-scaling-stroke; fill: none; stroke: rgb(25, 211, 243); stroke-opacity: 1; stroke-width: 2px; opacity: 1;"/></g><g class="points"/><g class="text"/></g><g class="trace scatter trace6a4590" style="stroke-miterlimit: 2; opacity: 1;"><g class="fills"/><g class="errorbars"/><g class="lines"><path class="js-line" d="M0,11.28L11.02,39.95L22.04,40.74L33.06,40.94L44.08,42.29L55.1,41.32L66.12,42.37L77.14,43.23L88.16,43.04L99.18,43.28L110.2,42.13L121.22,42.86L132.24,40.23L154.29,41.56L165.31,38.71L176.33,35.86L187.35,36.37L198.37,36.18L209.39,32.74L220.41,30.66L231.43,32.01L253.47,37.79L264.49,37.3L275.51,39.78L286.53,41.25L297.55,44.59L308.57,47.14L319.59,48.53L330.61,53.04L352.65,61.25L363.67,67.27L374.69,75.61L385.71,85.29L396.73,95.82L407.76,103.15L418.78,111.46L429.8,118.1L440.82,124.28L451.84,128.35L462.86,131.87L473.88,134.31L484.9,136.72L495.92,138.33L528.98,143.77L540,145.12" style="vector-effect: non-scaling-stroke; fill: none; stroke: rgb(255, 102, 146); stroke-opacity: 1; stroke-width: 2px; opacity: 1;"/></g><g class="points"/><g class="text"/></g><g class="trace scatter trace502572" style="stroke-miterlimit: 2; opacity: 1;"><g class="fills"/><g class="errorbars"/><g class="lines"><path class="js-line" d="M0,11.17L11.02,40L22.04,40.69L33.06,40.93L44.08,42.56L55.1,41.56L66.12,42.25L77.14,43.59L88.16,42.46L110.2,42.36L121.22,43L132.24,39.05L143.27,39.88L154.29,39.15L165.31,37.6L176.33,34.23L187.35,35.72L198.37,35.5L209.39,34.01L220.41,29.48L231.43,32.53L242.45,36.11L253.47,36.76L275.51,37.97L286.53,41.81L308.57,45.88L319.59,48.2L330.61,50.87L341.63,54.99L363.67,62.09L374.69,68.62L385.71,72.93L396.73,79.93L418.78,93.06L429.8,100.34L440.82,106.72L451.84,111.64L484.9,120.54L495.92,122.77L540,130.38" style="vector-effect: non-scaling-stroke; fill: none; stroke: rgb(182, 232, 128); stroke-opacity: 1; stroke-width: 2px; opacity: 1;"/></g><g class="points"/><g class="text"/></g><g class="trace scatter trace8efe8b" style="stroke-miterlimit: 2; opacity: 1;"><g class="fills"/><g class="errorbars"/><g class="lines"><path class="js-line" d="M0,4.46L11.02,35.07L22.04,38.45L44.08,41.07L55.1,41.43L66.12,43.35L77.14,43.66L110.2,43.86L121.22,42.48L132.24,43.2L143.27,45.31L154.29,43.19L165.31,43.81L176.33,45.99L187.35,42.91L198.37,46.27L209.39,45.94L220.41,48.51L231.43,51.93L242.45,55.98L253.47,65.39L264.49,71.22L275.51,79.54L286.53,82.24L297.55,90.6L308.57,94.29L319.59,101.85L330.61,107.12L341.63,120.54L363.67,155.9L374.69,168.55L396.73,189.6L407.76,197.11L418.78,207.45L429.8,216.59L440.82,223.77L451.84,229.14L473.88,234.48L484.9,237.13L528.98,245.49L540,247.31" style="vector-effect: non-scaling-stroke; fill: none; stroke: rgb(255, 151, 255); stroke-opacity: 1; stroke-width: 2px; opacity: 1;"/></g><g class="points"/><g class="text"/></g><g class="trace scatter traceff89fb" style="stroke-miterlimit: 2; opacity: 1;"><g class="fills"/><g class="errorbars"/><g class="lines"><path class="js-line" d="M0,5.52L11.02,34.92L22.04,38.55L33.06,39.21L44.08,40.94L77.14,43.9L88.16,42.8L99.18,43.79L110.2,43.14L121.22,40.92L132.24,42.11L143.27,43.3L154.29,41.71L176.33,43.44L187.35,41.94L209.39,49.69L220.41,55.06L231.43,62.56L242.45,67.13L253.47,75.3L264.49,78.57L275.51,83.45L286.53,85.11L297.55,90.72L308.57,94.72L319.59,99.2L330.61,102.34L341.63,106.14L352.65,110.89L363.67,114.73L374.69,119.45L407.76,134.51L418.78,140.87L440.82,151.54L451.84,154.86L484.9,160.91L495.92,162.33L540,168.85" style="vector-effect: non-scaling-stroke; fill: none; stroke: rgb(254, 203, 82); stroke-opacity: 1; stroke-width: 2px; opacity: 1;"/></g><g class="points"/><g class="text"/></g><g class="trace scatter trace3fbec5" style="stroke-miterlimit: 2; opacity: 1;"><g class="fills"/><g class="errorbars"/><g class="lines"><path class="js-line" d="M0,11.14L11.02,40.07L22.04,40.79L33.06,40.95L44.08,42.34L55.1,41.34L66.12,42.25L77.14,43.06L88.16,42.45L99.18,42.89L110.2,41.29L121.22,42.64L132.24,41.09L143.27,41.31L154.29,39.5L176.33,36.08L187.35,36.25L209.39,32.52L220.41,32.55L231.43,33.09L242.45,35.63L253.47,37.05L264.49,39.33L275.51,40.93L286.53,41.02L297.55,44.91L308.57,47.16L319.59,48.18L330.61,50.83L341.63,53.95L352.65,56.18L374.69,64.62L385.71,70.26L396.73,74.85L407.76,80.69L418.78,87.17L429.8,96.39L440.82,103.29L451.84,109.04L462.86,113.44L473.88,116.96L495.92,123.93L506.94,126.13L540,132.41" style="vector-effect: non-scaling-stroke; fill: none; stroke: rgb(99, 110, 250); stroke-opacity: 1; stroke-width: 2px; opacity: 1;"/></g><g class="points"/><g class="text"/></g><g class="trace scatter trace63775b" style="stroke-miterlimit: 2; opacity: 1;"><g class="fills"/><g class="errorbars"/><g class="lines"><path class="js-line" d="M0,10.93L11.02,40.01L22.04,40.58L33.06,40.9L44.08,42.17L55.1,41.42L66.12,42L77.14,43.01L88.16,42.94L110.2,42.76L121.22,42.64L132.24,40.81L143.27,40.96L154.29,40.64L165.31,38.26L176.33,35.87L187.35,35.83L198.37,36.5L209.39,34.08L220.41,31.71L231.43,33.82L253.47,40.39L264.49,41.25L275.51,44.95L286.53,47.61L297.55,54.52L308.57,59.42L319.59,68.68L330.61,74.9L341.63,82.91L352.65,86.77L363.67,92.21L374.69,99.76L385.71,106.36L396.73,111.9L407.76,117.54L418.78,121.99L429.8,128.71L440.82,133.32L451.84,137.41L462.86,139.11L473.88,142L484.9,143.51L517.96,148.63L528.98,149.98L540,151.36" style="vector-effect: non-scaling-stroke; fill: none; stroke: rgb(239, 85, 59); stroke-opacity: 1; stroke-width: 2px; opacity: 1;"/></g><g class="points"/><g class="text"/></g><g class="trace scatter trace29e960" style="stroke-miterlimit: 2; opacity: 1;"><g class="fills"/><g class="errorbars"/><g class="lines"><path class="js-line" d="M0,10.78L11.02,40.12L22.04,40.8L33.06,41.09L44.08,42.64L55.1,41.85L66.12,42.3L77.14,44.03L88.16,42.81L99.18,42.92L110.2,41.99L121.22,42.69L132.24,41.52L154.29,39.81L165.31,36.93L176.33,35.09L187.35,35.55L198.37,34.45L209.39,32.58L220.41,32.24L231.43,33L253.47,37.33L264.49,38.77L286.53,42.9L297.55,46.59L308.57,48.02L319.59,51.58L352.65,64.09L363.67,72.53L407.76,107.51L418.78,114.07L429.8,121.16L440.82,126.96L462.86,134.47L473.88,137.4L506.94,143.1L517.96,145.12L540,148.26" style="vector-effect: non-scaling-stroke; fill: none; stroke: rgb(0, 204, 150); stroke-opacity: 1; stroke-width: 2px; opacity: 1;"/></g><g class="points"/><g class="text"/></g><g class="trace scatter trace0516e2" style="stroke-miterlimit: 2; opacity: 1;"><g class="fills"/><g class="errorbars"/><g class="lines"><path class="js-line" d="M0,11.13L11.02,39.98L22.04,40.8L33.06,41.32L44.08,42.7L55.1,41.88L66.12,42.27L77.14,43.34L88.16,42.73L99.18,43.15L110.2,41.45L121.22,42.39L132.24,40.89L154.29,41.35L165.31,39.57L176.33,35.94L187.35,37.72L198.37,35.29L209.39,34L220.41,33.67L231.43,32.46L264.49,40.63L275.51,42.61L286.53,43.67L297.55,46.53L319.59,51.32L330.61,55.24L341.63,58.66L352.65,63.02L363.67,69.21L374.69,76.69L396.73,92.95L407.76,100.43L440.82,120.39L451.84,125.04L473.88,130.72L484.9,132.21L506.94,136.16L517.96,138.08L540,141.1" style="vector-effect: non-scaling-stroke; fill: none; stroke: rgb(171, 99, 250); stroke-opacity: 1; stroke-width: 2px; opacity: 1;"/></g><g class="points"/><g class="text"/></g><g class="trace scatter trace07da06" style="stroke-miterlimit: 2; opacity: 1;"><g class="fills"/><g class="errorbars"/><g class="lines"><path class="js-line" d="M0,4.57L11.02,35.13L22.04,38.61L77.14,44.15L88.16,44.33L99.18,44.28L110.2,43.27L121.22,42.47L132.24,43.18L154.29,43.63L165.31,42.96L176.33,44.83L187.35,44.09L198.37,46.81L209.39,45.47L220.41,50.47L231.43,54.32L253.47,68.78L264.49,76.49L275.51,81.56L286.53,82.86L297.55,89.58L308.57,94.31L341.63,106.78L352.65,111.7L363.67,118.26L374.69,122.78L407.76,144.01L418.78,153.82L440.82,175.05L451.84,184.16L473.88,196.12L484.9,200.66L506.94,208.55L517.96,211.63L528.98,214.69L540,216.44" style="vector-effect: non-scaling-stroke; fill: none; stroke: rgb(255, 161, 90); stroke-opacity: 1; stroke-width: 2px; opacity: 1;"/></g><g class="points"/><g class="text"/></g><g class="trace scatter trace52bca1" style="stroke-miterlimit: 2; opacity: 1;"><g class="fills"/><g class="errorbars"/><g class="lines"><path class="js-line" d="M0,4.69L11.02,34.69L22.04,38.42L44.08,41.09L55.1,41.58L66.12,42.95L77.14,43.26L110.2,43.54L121.22,41.45L132.24,42.99L143.27,43.23L165.31,42.31L176.33,40.68L187.35,41.43L198.37,41.16L220.41,36.51L231.43,39.58L242.45,42.9L253.47,44.81L275.51,57.23L286.53,61.13L297.55,75.67L308.57,88.58L319.59,109.08L330.61,125.84L341.63,139.07L352.65,157.79L363.67,169.93L374.69,180.34L396.73,200.97L407.76,209.68L418.78,221.02L429.8,230.07L440.82,238.8L451.84,244.87L462.86,247.27L473.88,250.85L506.94,258.81L517.96,260.61L540,265.22" style="vector-effect: non-scaling-stroke; fill: none; stroke: rgb(25, 211, 243); stroke-opacity: 1; stroke-width: 2px; opacity: 1;"/></g><g class="points"/><g class="text"/></g><g class="trace scatter trace3d1d22" style="stroke-miterlimit: 2; opacity: 1;"><g class="fills"/><g class="errorbars"/><g class="lines"><path class="js-line" d="M0,9.62L11.02,39.76L22.04,40.96L33.06,41.42L44.08,42.68L55.1,41.9L66.12,42.02L77.14,43.28L88.16,42.81L99.18,43.41L110.2,42.91L121.22,42.99L132.24,41.06L154.29,39.81L165.31,37.43L176.33,36.38L187.35,36.34L198.37,34.62L209.39,34.24L220.41,31.67L231.43,32.06L242.45,35L253.47,36.9L286.53,40.52L297.55,43.05L308.57,46.67L319.59,48.37L330.61,50.27L341.63,53.53L363.67,60.58L374.69,65.33L385.71,71.15L396.73,78.3L407.76,84.8L418.78,93.92L440.82,109.9L451.84,114.88L462.86,118.79L473.88,121.82L484.9,124.85L495.92,127.07L540,134.65" style="vector-effect: non-scaling-stroke; fill: none; stroke: rgb(255, 102, 146); stroke-opacity: 1; stroke-width: 2px; opacity: 1;"/></g><g class="points"/><g class="text"/></g><g class="trace scatter traceb55f5b" style="stroke-miterlimit: 2; opacity: 1;"><g class="fills"/><g class="errorbars"/><g class="lines"><path class="js-line" d="M0,11.09L11.02,39.92L22.04,40.83L44.08,42.68L55.1,42.14L66.12,42.26L77.14,43.36L88.16,42.37L99.18,43.36L110.2,40.95L121.22,43.25L143.27,40.58L154.29,40.52L165.31,38.95L176.33,35.86L198.37,36.55L209.39,34.06L220.41,32.56L231.43,32.35L242.45,36.13L253.47,37.28L264.49,38.31L275.51,42.29L286.53,42.91L297.55,46.51L308.57,49.52L319.59,51.13L330.61,55.87L341.63,63.94L352.65,71.93L363.67,82.02L374.69,92.61L385.71,99.74L429.8,125.87L440.82,131.97L451.84,136.19L462.86,139.24L495.92,147.12L506.94,149.27L540,155.29" style="vector-effect: non-scaling-stroke; fill: none; stroke: rgb(182, 232, 128); stroke-opacity: 1; stroke-width: 2px; opacity: 1;"/></g><g class="points"/><g class="text"/></g><g class="trace scatter trace7bf130" style="stroke-miterlimit: 2; opacity: 1;"><g class="fills"/><g class="errorbars"/><g class="lines"><path class="js-line" d="M0,4.49L11.02,34.8L22.04,38.72L44.08,40.96L55.1,41.69L66.12,43.77L77.14,44.01L110.2,43.9L121.22,40.9L143.27,43.79L154.29,43.08L165.31,42.72L176.33,45.05L187.35,42.86L198.37,45.18L209.39,47.09L220.41,45.97L231.43,53.95L242.45,59.34L253.47,69.63L264.49,76.07L275.51,82.33L286.53,81.9L297.55,91.08L308.57,95.57L319.59,100.06L330.61,102.62L363.67,117.55L374.69,122.88L407.76,138.24L418.78,145.25L429.8,150.15L440.82,155.92L451.84,159.38L462.86,160.38L484.9,164.43L495.92,165.81L528.98,170.31L540,171.74" style="vector-effect: non-scaling-stroke; fill: none; stroke: rgb(255, 151, 255); stroke-opacity: 1; stroke-width: 2px; opacity: 1;"/></g><g class="points"/><g class="text"/></g><g class="trace scatter tracee471aa" style="stroke-miterlimit: 2; opacity: 1;"><g class="fills"/><g class="errorbars"/><g class="lines"><path class="js-line" d="M0,5.02L11.02,35.29L22.04,38.08L66.12,43.04L77.14,42.78L99.18,44.31L110.2,42.93L132.24,41.61L143.27,42.78L154.29,42.46L165.31,43.72L176.33,43.88L187.35,41.73L198.37,44.91L209.39,45.01L220.41,42.83L231.43,51.08L242.45,55.98L253.47,64.32L264.49,71.88L275.51,78.24L286.53,80.64L297.55,89.34L308.57,91.93L319.59,99.19L330.61,102.73L341.63,107.76L352.65,111.74L363.67,118.56L374.69,124.41L385.71,128.23L418.78,147.02L429.8,152.33L440.82,157.94L451.84,161.24L495.92,168.4L506.94,169.79L540,174.46" style="vector-effect: non-scaling-stroke; fill: none; stroke: rgb(254, 203, 82); stroke-opacity: 1; stroke-width: 2px; opacity: 1;"/></g><g class="points"/><g class="text"/></g><g class="trace scatter tracec06c11" style="stroke-miterlimit: 2; opacity: 1;"><g class="fills"/><g class="errorbars"/><g class="lines"><path class="js-line" d="M0,4.57L11.02,35.08L22.04,38.63L77.14,44.83L88.16,43.53L99.18,44.76L110.2,43.69L121.22,42.43L132.24,43.47L154.29,44.98L165.31,44.05L176.33,46.49L187.35,45.92L209.39,47.57L220.41,49.75L231.43,54.12L242.45,61.94L253.47,66.94L264.49,74.61L275.51,81.23L286.53,83.55L297.55,91.45L308.57,96.91L319.59,114.33L330.61,128.32L341.63,143.98L352.65,161.02L374.69,184.55L385.71,192.14L407.76,210.4L418.78,219.12L429.8,228.54L440.82,234.85L451.84,240.77L462.86,243.41L495.92,251.14L506.94,253.14L540,259.26" style="vector-effect: non-scaling-stroke; fill: none; stroke: rgb(99, 110, 250); stroke-opacity: 1; stroke-width: 2px; opacity: 1;"/></g><g class="points"/><g class="text"/></g><g class="trace scatter trace58873a" style="stroke-miterlimit: 2; opacity: 1;"><g class="fills"/><g class="errorbars"/><g class="lines"><path class="js-line" d="M0,4.62L11.02,34.49L22.04,38.5L55.1,42.25L66.12,44.06L88.16,43.79L99.18,44.02L121.22,42.48L132.24,42.82L165.31,42.89L176.33,44.32L187.35,43.36L198.37,44.61L209.39,42.76L220.41,44.06L231.43,46.42L242.45,52.94L253.47,58.05L264.49,68.19L275.51,72.47L286.53,75.25L297.55,85.26L308.57,88.73L319.59,95.6L330.61,98.48L341.63,104.53L352.65,108.5L374.69,119.25L385.71,123.56L396.73,128.67L407.76,134.93L418.78,141.2L429.8,146.49L440.82,152.23L451.84,155.69L462.86,157.22L473.88,159.99L540,169.27" style="vector-effect: non-scaling-stroke; fill: none; stroke: rgb(239, 85, 59); stroke-opacity: 1; stroke-width: 2px; opacity: 1;"/></g><g class="points"/><g class="text"/></g><g class="trace scatter tracef8239a" style="stroke-miterlimit: 2; opacity: 1;"><g class="fills"/><g class="errorbars"/><g class="lines"><path class="js-line" d="M0,3.64L11.02,35.14L22.04,38.26L44.08,40.88L55.1,41.25L66.12,42.99L77.14,43.5L88.16,43.6L99.18,45.19L110.2,45.47L121.22,43.16L132.24,44.57L143.27,43.73L176.33,47.37L187.35,47.23L198.37,50.99L209.39,48.91L220.41,48.27L231.43,59.5L253.47,71.17L264.49,75.43L275.51,81.03L286.53,81.86L297.55,90.38L308.57,93.41L319.59,99.72L330.61,102.17L374.69,123.32L385.71,130.14L407.76,143.23L418.78,153.02L429.8,165.13L440.82,175.95L451.84,184.87L462.86,190.47L484.9,200.74L495.92,204.54L528.98,213.91L540,215.77" style="vector-effect: non-scaling-stroke; fill: none; stroke: rgb(0, 204, 150); stroke-opacity: 1; stroke-width: 2px; opacity: 1;"/></g><g class="points"/><g class="text"/></g><g class="trace scatter trace7e337d" style="stroke-miterlimit: 2; opacity: 1;"><g class="fills"/><g class="errorbars"/><g class="lines"><path class="js-line" d="M0,4.43L11.02,34.97L22.04,38.57L55.1,41.79L66.12,43.9L77.14,43.38L88.16,44.06L99.18,44.09L110.2,42.55L121.22,41.5L132.24,42.95L143.27,42.92L154.29,44.88L165.31,44.04L176.33,46.17L187.35,44.4L198.37,47.28L209.39,45.42L220.41,47.48L242.45,60.3L253.47,70.15L275.51,78.83L286.53,83.09L297.55,89.74L308.57,94.76L319.59,101.78L330.61,105.52L341.63,114.56L352.65,128.02L363.67,144.93L374.69,159.23L396.73,182.64L407.76,190.86L429.8,209.97L440.82,217.89L451.84,223.48L462.86,225.81L473.88,229.59L484.9,231.95L495.92,233.75L506.94,236.84L540,242.79" style="vector-effect: non-scaling-stroke; fill: none; stroke: rgb(171, 99, 250); stroke-opacity: 1; stroke-width: 2px; opacity: 1;"/></g><g class="points"/><g class="text"/></g><g class="trace scatter trace434967" style="stroke-miterlimit: 2; opacity: 1;"><g class="fills"/><g class="errorbars"/><g class="lines"><path class="js-line" d="M0,11.28L11.02,39.95L22.04,40.8L33.06,41.02L44.08,42.36L55.1,41.45L66.12,41.73L77.14,43.22L88.16,42.69L121.22,42.74L132.24,40.57L154.29,40.39L165.31,38.12L176.33,34.2L187.35,35.82L209.39,34.67L220.41,33.11L231.43,33.33L242.45,36.27L264.49,39.8L275.51,41.03L286.53,42.32L297.55,47.43L308.57,49.71L319.59,50.62L341.63,64.61L352.65,70.8L363.67,77.75L374.69,86.03L407.76,108.29L418.78,114.16L429.8,121.09L440.82,125.87L451.84,130.51L462.86,132.89L484.9,137.3L495.92,138.96L528.98,144.02L540,145.56" style="vector-effect: non-scaling-stroke; fill: none; stroke: rgb(255, 161, 90); stroke-opacity: 1; stroke-width: 2px; opacity: 1;"/></g><g class="points"/><g class="text"/></g><g class="trace scatter trace5cd02b" style="stroke-miterlimit: 2; opacity: 1;"><g class="fills"/><g class="errorbars"/><g class="lines"><path class="js-line" d="M0,4.62L11.02,34.95L22.04,38.42L33.06,40.13L44.08,40.8L66.12,43.73L77.14,43.89L88.16,43.44L99.18,44.01L121.22,41.9L132.24,42.9L143.27,42.68L154.29,43.95L165.31,43.37L176.33,45.21L187.35,44.86L198.37,49.15L209.39,48.76L220.41,51.11L231.43,62.7L242.45,63.53L253.47,74L264.49,79.34L275.51,83.11L286.53,84.33L297.55,93.2L308.57,97.83L330.61,107.39L341.63,114.17L363.67,147.51L374.69,162.12L385.71,175.26L396.73,186.84L407.76,195.58L418.78,205.27L429.8,215.33L440.82,223.42L451.84,229.8L462.86,232.15L473.88,235.7L484.9,238.33L540,249.48" style="vector-effect: non-scaling-stroke; fill: none; stroke: rgb(25, 211, 243); stroke-opacity: 1; stroke-width: 2px; opacity: 1;"/></g><g class="points"/><g class="text"/></g><g class="trace scatter tracee7ce37" style="stroke-miterlimit: 2; opacity: 1;"><g class="fills"/><g class="errorbars"/><g class="lines"><path class="js-line" d="M0,4.66L11.02,34.72L22.04,38.38L66.12,43.07L77.14,43.11L99.18,44.52L110.2,43.19L121.22,41.84L132.24,42.51L176.33,42.12L187.35,40.33L198.37,41.38L209.39,39L220.41,40.05L231.43,43.46L242.45,47.36L253.47,48.52L264.49,59.86L275.51,69.02L286.53,74.96L297.55,85.57L308.57,94.34L319.59,109.87L330.61,129.29L341.63,145.04L363.67,173.02L374.69,182.64L396.73,201.21L407.76,211.16L418.78,219.45L429.8,229.49L440.82,237.4L451.84,242.45L484.9,251.55L495.92,253.55L517.96,257.94L528.98,260.29L540,262.35" style="vector-effect: non-scaling-stroke; fill: none; stroke: rgb(255, 102, 146); stroke-opacity: 1; stroke-width: 2px; opacity: 1;"/></g><g class="points"/><g class="text"/></g><g class="trace scatter trace85657f" style="stroke-miterlimit: 2; opacity: 1;"><g class="fills"/><g class="errorbars"/><g class="lines"><path class="js-line" d="M0,4.44L11.02,35.12L22.04,38.83L44.08,40.94L55.1,41.82L66.12,43.61L77.14,43.95L99.18,44.68L110.2,44.6L121.22,42.2L132.24,44.43L143.27,44.26L154.29,45.32L187.35,47.5L198.37,50.39L209.39,53.25L220.41,56.95L231.43,63.81L242.45,65.84L253.47,73.5L264.49,77.3L275.51,82.23L286.53,84.07L297.55,90.03L308.57,94.14L319.59,101.05L330.61,104.21L341.63,108.45L352.65,114.39L363.67,124.39L374.69,136.58L385.71,156.23L396.73,173.86L418.78,198.1L429.8,209.35L440.82,218.02L451.84,224.53L462.86,227.36L473.88,231.39L495.92,237.05L506.94,239.52L540,245.94" style="vector-effect: non-scaling-stroke; fill: none; stroke: rgb(182, 232, 128); stroke-opacity: 1; stroke-width: 2px; opacity: 1;"/></g><g class="points"/><g class="text"/></g><g class="trace scatter trace32aa3b" style="stroke-miterlimit: 2; opacity: 1;"><g class="fills"/><g class="errorbars"/><g class="lines"><path class="js-line" d="M0,4.44L11.02,34.99L22.04,38.93L44.08,41.04L55.1,41.73L66.12,43.43L77.14,44.22L88.16,43.62L99.18,43.87L110.2,43.65L121.22,42.31L132.24,43.77L143.27,42.31L154.29,42.83L165.31,41.72L198.37,41.41L209.39,38.5L220.41,37.41L231.43,39.21L242.45,43.57L253.47,48.76L264.49,55.74L275.51,64.75L286.53,70.04L297.55,80.87L308.57,87.8L319.59,91.92L341.63,103.75L352.65,108.33L374.69,118.3L385.71,124.36L407.76,134.29L418.78,142.38L429.8,148.04L440.82,154.56L451.84,158.51L462.86,160.73L506.94,170.78L517.96,172.78L540,176.86" style="vector-effect: non-scaling-stroke; fill: none; stroke: rgb(255, 151, 255); stroke-opacity: 1; stroke-width: 2px; opacity: 1;"/></g><g class="points"/><g class="text"/></g><g class="trace scatter trace7f7673" style="stroke-miterlimit: 2; opacity: 1;"><g class="fills"/><g class="errorbars"/><g class="lines"><path class="js-line" d="M0,5.03L11.02,35.08L22.04,38.64L44.08,41.04L55.1,41.44L66.12,43.05L77.14,43.01L99.18,43.72L110.2,43.27L121.22,41.61L132.24,42.31L143.27,41.56L154.29,42.21L165.31,43.06L176.33,40.93L187.35,40.38L198.37,41.75L209.39,39.01L220.41,39.26L231.43,41.45L242.45,45.95L264.49,57.21L275.51,64.34L286.53,67.6L297.55,78.95L308.57,83.8L319.59,90.74L352.65,106.14L363.67,112.46L385.71,125.58L396.73,130.52L418.78,142.28L429.8,148.53L440.82,154.26L451.84,158.12L462.86,159.31L473.88,161.91L540,171.34" style="vector-effect: non-scaling-stroke; fill: none; stroke: rgb(254, 203, 82); stroke-opacity: 1; stroke-width: 2px; opacity: 1;"/></g><g class="points"/><g class="text"/></g></g></g><g class="overplot"/><path class="xlines-above crisp" d="M0,0" style="fill: none;"/><path class="ylines-above crisp" d="M0,0" style="fill: none;"/><g class="overlines-above"/><g class="xaxislayer-above"><g class="xtick"><text text-anchor="middle" x="0" y="433" transform="translate(80,0)" style="font-family: 'Open Sans', verdana, arial, sans-serif; font-size: 12px; fill: rgb(42, 63, 95); fill-opacity: 1; white-space: pre; opacity: 1;">0</text></g><g class="xtick"><text text-anchor="middle" x="0" y="433" style="font-family: 'Open Sans', verdana, arial, sans-serif; font-size: 12px; fill: rgb(42, 63, 95); fill-opacity: 1; white-space: pre; opacity: 1;" transform="translate(190.2,0)">10</text></g><g class="xtick"><text text-anchor="middle" x="0" y="433" style="font-family: 'Open Sans', verdana, arial, sans-serif; font-size: 12px; fill: rgb(42, 63, 95); fill-opacity: 1; white-space: pre; opacity: 1;" transform="translate(300.40999999999997,0)">20</text></g><g class="xtick"><text text-anchor="middle" x="0" y="433" style="font-family: 'Open Sans', verdana, arial, sans-serif; font-size: 12px; fill: rgb(42, 63, 95); fill-opacity: 1; white-space: pre; opacity: 1;" transform="translate(410.61,0)">30</text></g><g class="xtick"><text text-anchor="middle" x="0" y="433" style="font-family: 'Open Sans', verdana, arial, sans-serif; font-size: 12px; fill: rgb(42, 63, 95); fill-opacity: 1; white-space: pre; opacity: 1;" transform="translate(520.8199999999999,0)">40</text></g></g><g class="yaxislayer-above"><g class="ytick"><text text-anchor="end" x="79" y="4.199999999999999" transform="translate(0,376.71)" style="font-family: 'Open Sans', verdana, arial, sans-serif; font-size: 12px; fill: rgb(42, 63, 95); fill-opacity: 1; white-space: pre; opacity: 1;">5.3</text></g><g class="ytick"><text text-anchor="end" x="79" y="4.199999999999999" style="font-family: 'Open Sans', verdana, arial, sans-serif; font-size: 12px; fill: rgb(42, 63, 95); fill-opacity: 1; white-space: pre; opacity: 1;" transform="translate(0,329.08000000000004)">5.35</text></g><g class="ytick"><text text-anchor="end" x="79" y="4.199999999999999" style="font-family: 'Open Sans', verdana, arial, sans-serif; font-size: 12px; fill: rgb(42, 63, 95); fill-opacity: 1; white-space: pre; opacity: 1;" transform="translate(0,281.45)">5.4</text></g><g class="ytick"><text text-anchor="end" x="79" y="4.199999999999999" style="font-family: 'Open Sans', verdana, arial, sans-serif; font-size: 12px; fill: rgb(42, 63, 95); fill-opacity: 1; white-space: pre; opacity: 1;" transform="translate(0,233.82)">5.45</text></g><g class="ytick"><text text-anchor="end" x="79" y="4.199999999999999" style="font-family: 'Open Sans', verdana, arial, sans-serif; font-size: 12px; fill: rgb(42, 63, 95); fill-opacity: 1; white-space: pre; opacity: 1;" transform="translate(0,186.18)">5.5</text></g><g class="ytick"><text text-anchor="end" x="79" y="4.199999999999999" style="font-family: 'Open Sans', verdana, arial, sans-serif; font-size: 12px; fill: rgb(42, 63, 95); fill-opacity: 1; white-space: pre; opacity: 1;" transform="translate(0,138.55)">5.55</text></g></g><g class="overaxes-above"/></g></g><g class="polarlayer"/><g class="ternarylayer"/><g class="geolayer"/><g class="funnelarealayer"/><g class="pielayer"/><g class="iciclelayer"/><g class="treemaplayer"/><g class="sunburstlayer"/><g class="glimages"/><defs id="topdefs-305df4"><g class="clips"/></defs><g class="layer-above"><g class="imagelayer"/><g class="shapelayer"/></g><g class="infolayer"><g class="g-gtitle"><text class="gtitle" x="35" y="50" text-anchor="start" dy="0em" style="font-family: 'Open Sans', verdana, arial, sans-serif; font-size: 17px; fill: rgb(42, 63, 95); opacity: 1; font-weight: normal; white-space: pre;">Train Loss: ascad_100-eff_cnn (with early stopping)</text></g><g class="g-xtitle"/><g class="g-ytitle"/></g></svg>