<svg class="main-svg" xmlns="http://www.w3.org/2000/svg" xmlns:xlink="http://www.w3.org/1999/xlink" width="700" height="500" style="" viewBox="0 0 700 500"><rect x="0" y="0" width="700" height="500" style="fill: rgb(255, 255, 255); fill-opacity: 1;"/><defs id="defs-112a4c"><g class="clips"><clipPath id="clip112a4cxyplot" class="plotclip"><rect width="540" height="320"/></clipPath><clipPath class="axesclip" id="clip112a4cx"><rect x="80" y="0" width="540" height="500"/></clipPath><clipPath class="axesclip" id="clip112a4cy"><rect x="0" y="100" width="700" height="320"/></clipPath><clipPath class="axesclip" id="clip112a4cxy"><rect x="80" y="100" width="540" height="320"/></clipPath></g><g class="gradients"/><g class="patterns"/></defs><g class="bglayer"><rect class="bg" x="80" y="100" width="540" height="320" style="fill: rgb(229, 236, 246); fill-opacity: 1; stroke-width: 0;"/></g><g class="layer-below"><g class="imagelayer"/><g class="shapelayer"/></g><g class="cartesianlayer"><g class="subplot xy"><g class="layer-subplot"><g class="shapelayer"/><g class="imagelayer"/></g><g class="gridlayer"><g class="x"><path class="xgrid crisp" transform="translate(190.2,0)" d="M0,100v320" style="stroke: rgb(255, 255, 255); stroke-opacity: 1; stroke-width: 1px;"/><path class="xgrid crisp" transform="translate(300.40999999999997,0)" d="M0,100v320" style="stroke: rgb(255, 255, 255); stroke-opacity: 1; stroke-width: 1px;"/><path class="xgrid crisp" transform="translate(410.61,0)" d="M0,100v320" style="stroke: rgb(255, 255, 255); stroke-opacity: 1; stroke-width: 1px;"/><path class="xgrid crisp" transform="translate(520.8199999999999,0)" d="M0,100v320" style="stroke: rgb(255, 255, 255); stroke-opacity: 1; stroke-width: 1px;"/></g><g class="y"><path class="ygrid crisp" transform="translate(0,386.95)" d="M80,0h540" style="stroke: rgb(255, 255, 255); stroke-opacity: 1; stroke-width: 1px;"/><path class="ygrid crisp" transform="translate(0,319.62)" d="M80,0h540" style="stroke: rgb(255, 255, 255); stroke-opacity: 1; stroke-width: 1px;"/><path class="ygrid crisp" transform="translate(0,252.29)" d="M80,0h540" style="stroke: rgb(255, 255, 255); stroke-opacity: 1; stroke-width: 1px;"/><path class="ygrid crisp" transform="translate(0,184.95)" d="M80,0h540" style="stroke: rgb(255, 255, 255); stroke-opacity: 1; stroke-width: 1px;"/><path class="ygrid crisp" transform="translate(0,117.62)" d="M80,0h540" style="stroke: rgb(255, 255, 255); stroke-opacity: 1; stroke-width: 1px;"/></g></g><g class="zerolinelayer"><path class="xzl zl crisp" transform="translate(80,0)" d="M0,100v320" style="stroke: rgb(255, 255, 255); stroke-opacity: 1; stroke-width: 2px;"/></g><path class="xlines-below"/><path class="ylines-below"/><g class="overlines-below"/><g class="xaxislayer-below"/><g class="yaxislayer-below"/><g class="overaxes-below"/><g class="plot" transform="translate(80,100)" clip-path="url(#clip112a4cxyplot)"><g class="scatterlayer mlayer"><g class="trace scatter traceb05687" style="stroke-miterlimit: 2; opacity: 1;"><g class="fills"/><g class="errorbars"/><g class="lines"><path class="js-line" d="M0,275.4L11.02,279.66L22.04,280.18L77.14,281.04L88.16,280.99L220.41,280.64L231.43,281.27L264.49,283.36L275.51,284.64L297.55,286.34L308.57,287.34L319.59,288.33L330.61,288.56L396.73,293.42L407.76,294.18L451.84,297.3L462.86,297.51L540,299.19" style="vector-effect: non-scaling-stroke; fill: none; stroke: rgb(99, 110, 250); stroke-opacity: 1; stroke-width: 2px; opacity: 1;"/></g><g class="points"/><g class="text"/></g><g class="trace scatter tracee26e2b" style="stroke-miterlimit: 2; opacity: 1;"><g class="fills"/><g class="errorbars"/><g class="lines"><path class="js-line" d="M0,275.41L11.02,279.68L22.04,280.22L110.2,280.98L121.22,280.51L154.29,281.09L165.31,280.93L220.41,282.12L231.43,283.07L253.47,285.09L264.49,285.85L286.53,286.64L297.55,288.32L308.57,290.47L319.59,293.54L396.73,304.39L407.76,305.63L451.84,310.25L462.86,310.62L517.96,312.59L528.98,312.85L540,313.22" style="vector-effect: non-scaling-stroke; fill: none; stroke: rgb(239, 85, 59); stroke-opacity: 1; stroke-width: 2px; opacity: 1;"/></g><g class="points"/><g class="text"/></g><g class="trace scatter trace50c8bf" style="stroke-miterlimit: 2; opacity: 1;"><g class="fills"/><g class="errorbars"/><g class="lines"><path class="js-line" d="M0,275.21L11.02,279.66L22.04,280.23L121.22,280.77L132.24,280.78L231.43,280.36L242.45,281.05L264.49,282.26L275.51,283.34L286.53,284.4L297.55,286.85L308.57,288.82L319.59,291.84L352.65,297.43L363.67,299.6L451.84,309.36L462.86,309.72L528.98,311.99L540,312.29" style="vector-effect: non-scaling-stroke; fill: none; stroke: rgb(0, 204, 150); stroke-opacity: 1; stroke-width: 2px; opacity: 1;"/></g><g class="points"/><g class="text"/></g><g class="trace scatter trace04a7ad" style="stroke-miterlimit: 2; opacity: 1;"><g class="fills"/><g class="errorbars"/><g class="lines"><path class="js-line" d="M0,275.4L11.02,279.72L22.04,280.2L77.14,280.96L88.16,280.82L132.24,280.82L143.27,280.92L176.33,280.96L187.35,281.02L231.43,283.09L242.45,284.24L275.51,286.23L286.53,286.72L319.59,289.02L330.61,289.41L396.73,293.41L407.76,294.21L440.82,296.51L451.84,297.04L540,298.81" style="vector-effect: non-scaling-stroke; fill: none; stroke: rgb(171, 99, 250); stroke-opacity: 1; stroke-width: 2px; opacity: 1;"/></g><g class="points"/><g class="text"/></g><g class="trace scatter trace91ad4d" style="stroke-miterlimit: 2; opacity: 1;"><g class="fills"/><g class="errorbars"/><g class="lines"><path class="js-line" d="M0,275.25L11.02,279.66L22.04,280.23L110.2,280.78L121.22,280.63L187.35,280.48L198.37,280.32L231.43,280.42L242.45,280.9L264.49,281.85L275.51,282.72L286.53,282.86L297.55,283.93L341.63,288.42L352.65,289.35L374.69,292.05L385.71,294.33L429.8,302.33L440.82,303.61L473.88,305.6L484.9,305.99L540,307.63" style="vector-effect: non-scaling-stroke; fill: none; stroke: rgb(255, 161, 90); stroke-opacity: 1; stroke-width: 2px; opacity: 1;"/></g><g class="points"/><g class="text"/></g><g class="trace scatter trace8b66e4" style="stroke-miterlimit: 2; opacity: 1;"><g class="fills"/><g class="errorbars"/><g class="lines"><path class="js-line" d="M0,275.31L11.02,279.66L22.04,280.19L88.16,280.91L99.18,280.96L154.29,280.76L165.31,280.84L231.43,280.79L242.45,281.57L253.47,282.15L264.49,283.65L319.59,288.38L330.61,288.75L385.71,292.55L396.73,293.17L451.84,297.01L462.86,297.31L540,299.12" style="vector-effect: non-scaling-stroke; fill: none; stroke: rgb(25, 211, 243); stroke-opacity: 1; stroke-width: 2px; opacity: 1;"/></g><g class="points"/><g class="text"/></g><g class="trace scatter traceb9fb5f" style="stroke-miterlimit: 2; opacity: 1;"><g class="fills"/><g class="errorbars"/><g class="lines"><path class="js-line" d="M0,275.34L11.02,279.69L22.04,280.18L121.22,280.75L132.24,280.76L187.35,280.75L198.37,280.95L220.41,280.43L231.43,281.38L253.47,281.82L264.49,281.31L297.55,285.19L308.57,286.08L330.61,287.64L341.63,288.54L385.71,292.87L396.73,295.06L440.82,302.01L451.84,302.87L528.98,305.91L540,306.11" style="vector-effect: non-scaling-stroke; fill: none; stroke: rgb(255, 102, 146); stroke-opacity: 1; stroke-width: 2px; opacity: 1;"/></g><g class="points"/><g class="text"/></g><g class="trace scatter trace762daf" style="stroke-miterlimit: 2; opacity: 1;"><g class="fills"/><g class="errorbars"/><g class="lines"><path class="js-line" d="M0,275.41L11.02,279.72L22.04,280.23L110.2,280.96L121.22,280.74L220.41,282.51L231.43,283.13L275.51,286.42L286.53,286.84L330.61,289.51L341.63,290.07L462.86,297.7L473.88,297.97L540,299.41" style="vector-effect: non-scaling-stroke; fill: none; stroke: rgb(182, 232, 128); stroke-opacity: 1; stroke-width: 2px; opacity: 1;"/></g><g class="points"/><g class="text"/></g><g class="trace scatter trace74d50f" style="stroke-miterlimit: 2; opacity: 1;"><g class="fills"/><g class="errorbars"/><g class="lines"><path class="js-line" d="M0,275.42L11.02,279.65L22.04,280.18L88.16,280.88L99.18,281.03L165.31,280.64L176.33,280.73L220.41,280.23L231.43,280.57L264.49,282.25L275.51,283.17L286.53,283.9L297.55,286.18L308.57,288.36L319.59,291.7L363.67,299.22L374.69,300.42L407.76,304.46L418.78,305.74L440.82,308.13L451.84,309.08L540,311.93" style="vector-effect: non-scaling-stroke; fill: none; stroke: rgb(255, 151, 255); stroke-opacity: 1; stroke-width: 2px; opacity: 1;"/></g><g class="points"/><g class="text"/></g><g class="trace scatter trace8f2591" style="stroke-miterlimit: 2; opacity: 1;"><g class="fills"/><g class="errorbars"/><g class="lines"><path class="js-line" d="M0,275.4L11.02,279.75L22.04,280.22L88.16,280.93L99.18,280.94L176.33,281.74L187.35,282.15L231.43,284.08L242.45,284.65L264.49,286.42L275.51,286.99L297.55,288.11L308.57,288.63L341.63,291.6L352.65,294.78L374.69,299.18L385.71,300.53L429.8,306.06L440.82,307.07L462.86,308.26L473.88,308.82L540,310.73" style="vector-effect: non-scaling-stroke; fill: none; stroke: rgb(254, 203, 82); stroke-opacity: 1; stroke-width: 2px; opacity: 1;"/></g><g class="points"/><g class="text"/></g><g class="trace scatter trace1ea88d" style="stroke-miterlimit: 2; opacity: 1;"><g class="fills"/><g class="errorbars"/><g class="lines"><path class="js-line" d="M0,275.41L11.02,279.74L22.04,280.24L99.18,280.99L110.2,280.91L132.24,280.94L143.27,280.86L220.41,281.82L231.43,282.53L253.47,284.34L264.49,285.26L319.59,288.52L330.61,288.87L407.76,293.78L418.78,294.92L462.86,297.3L473.88,297.67L540,299.4" style="vector-effect: non-scaling-stroke; fill: none; stroke: rgb(99, 110, 250); stroke-opacity: 1; stroke-width: 2px; opacity: 1;"/></g><g class="points"/><g class="text"/></g><g class="trace scatter tracea2a478" style="stroke-miterlimit: 2; opacity: 1;"><g class="fills"/><g class="errorbars"/><g class="lines"><path class="js-line" d="M0,275.35L11.02,279.76L22.04,280.2L88.16,280.94L99.18,280.89L165.31,280.93L176.33,280.85L220.41,281.72L231.43,282.53L264.49,284.72L275.51,285.81L286.53,286.04L297.55,287.26L407.76,294.71L418.78,296.03L473.88,301.58L484.9,302.28L528.98,304.54L540,304.85" style="vector-effect: non-scaling-stroke; fill: none; stroke: rgb(239, 85, 59); stroke-opacity: 1; stroke-width: 2px; opacity: 1;"/></g><g class="points"/><g class="text"/></g><g class="trace scatter trace90ba84" style="stroke-miterlimit: 2; opacity: 1;"><g class="fills"/><g class="errorbars"/><g class="lines"><path class="js-line" d="M0,275.33L11.02,279.67L22.04,280.24L110.2,280.9L121.22,280.66L154.29,281.03L165.31,280.71L198.37,281.03L209.39,280.77L220.41,280.95L231.43,282.3L242.45,282.83L253.47,284.16L286.53,286.97L297.55,289.76L319.59,294.74L330.61,296.17L407.76,306.05L418.78,307.35L440.82,309.89L451.84,310.71L540,313.91" style="vector-effect: non-scaling-stroke; fill: none; stroke: rgb(0, 204, 150); stroke-opacity: 1; stroke-width: 2px; opacity: 1;"/></g><g class="points"/><g class="text"/></g><g class="trace scatter trace619c02" style="stroke-miterlimit: 2; opacity: 1;"><g class="fills"/><g class="errorbars"/><g class="lines"><path class="js-line" d="M0,275.26L11.02,279.7L22.04,280.22L110.2,280.94L121.22,280.67L165.31,280.85L176.33,281L198.37,280.99L209.39,281.13L220.41,280.9L231.43,281.89L253.47,284.27L264.49,285.19L275.51,286.24L286.53,286.39L308.57,288.53L319.59,289.79L341.63,292.5L352.65,295.08L385.71,300.28L396.73,301.75L451.84,307.5L462.86,307.88L540,310.17" style="vector-effect: non-scaling-stroke; fill: none; stroke: rgb(171, 99, 250); stroke-opacity: 1; stroke-width: 2px; opacity: 1;"/></g><g class="points"/><g class="text"/></g><g class="trace scatter traced123b8" style="stroke-miterlimit: 2; opacity: 1;"><g class="fills"/><g class="errorbars"/><g class="lines"><path class="js-line" d="M0,275.41L11.02,279.72L22.04,280.23L110.2,280.96L121.22,280.74L220.41,281.99L231.43,283.23L242.45,283.76L253.47,285.25L286.53,286.79L297.55,287.65L330.61,289.88L341.63,291.67L363.67,296.3L374.69,298.12L429.8,304.89L440.82,305.93L462.86,307L473.88,307.49L540,309.35" style="vector-effect: non-scaling-stroke; fill: none; stroke: rgb(255, 161, 90); stroke-opacity: 1; stroke-width: 2px; opacity: 1;"/></g><g class="points"/><g class="text"/></g><g class="trace scatter trace1b1d20" style="stroke-miterlimit: 2; opacity: 1;"><g class="fills"/><g class="errorbars"/><g class="lines"><path class="js-line" d="M0,276.36L11.02,280.41L22.04,280.53L154.29,280.43L165.31,280.12L242.45,279.87L253.47,280.3L297.55,281.77L308.57,282.65L396.73,290.97L407.76,291.88L462.86,295.08L473.88,295.38L540,296.84" style="vector-effect: non-scaling-stroke; fill: none; stroke: rgb(25, 211, 243); stroke-opacity: 1; stroke-width: 2px; opacity: 1;"/></g><g class="points"/><g class="text"/></g><g class="trace scatter trace6ae973" style="stroke-miterlimit: 2; opacity: 1;"><g class="fills"/><g class="errorbars"/><g class="lines"><path class="js-line" d="M0,275.41L11.02,279.72L22.04,280.23L110.2,281.06L121.22,280.62L220.41,282.33L231.43,283.65L264.49,286.1L275.51,286.78L286.53,286.99L297.55,288.1L341.63,290.59L352.65,291.68L385.71,298.59L396.73,300.34L451.84,306.54L462.86,306.87L528.98,309.12L540,309.34" style="vector-effect: non-scaling-stroke; fill: none; stroke: rgb(255, 102, 146); stroke-opacity: 1; stroke-width: 2px; opacity: 1;"/></g><g class="points"/><g class="text"/></g><g class="trace scatter trace14d72c" style="stroke-miterlimit: 2; opacity: 1;"><g class="fills"/><g class="errorbars"/><g class="lines"><path class="js-line" d="M0,275.37L11.02,279.68L22.04,280.19L99.18,280.95L110.2,280.88L132.24,280.86L143.27,280.66L209.39,280.1L220.41,279.9L253.47,280.82L264.49,281.15L286.53,282.54L297.55,284.29L330.61,287.56L341.63,288.34L429.8,296.38L440.82,297.44L473.88,299.36L484.9,299.83L540,301.74" style="vector-effect: non-scaling-stroke; fill: none; stroke: rgb(182, 232, 128); stroke-opacity: 1; stroke-width: 2px; opacity: 1;"/></g><g class="points"/><g class="text"/></g><g class="trace scatter traceeecc04" style="stroke-miterlimit: 2; opacity: 1;"><g class="fills"/><g class="errorbars"/><g class="lines"><path class="js-line" d="M0,275.4L11.02,279.71L22.04,280.24L88.16,280.89L99.18,280.95L220.41,281.2L231.43,282.15L253.47,283.12L264.49,284.17L319.59,288.34L330.61,288.74L418.78,294.99L429.8,295.87L451.84,297.28L462.86,297.61L540,299.94" style="vector-effect: non-scaling-stroke; fill: none; stroke: rgb(255, 151, 255); stroke-opacity: 1; stroke-width: 2px; opacity: 1;"/></g><g class="points"/><g class="text"/></g><g class="trace scatter trace8f772f" style="stroke-miterlimit: 2; opacity: 1;"><g class="fills"/><g class="errorbars"/><g class="lines"><path class="js-line" d="M0,275.37L11.02,279.65L22.04,280.19L99.18,280.95L110.2,280.75L165.31,280.82L176.33,280.89L209.39,280.7L220.41,280.85L231.43,280.92L242.45,281.76L253.47,282.14L264.49,283.54L275.51,284.6L286.53,284.86L297.55,286.74L308.57,287.81L330.61,292.68L341.63,294.45L363.67,298.89L374.69,300.51L451.84,308.68L462.86,309.05L540,311.33" style="vector-effect: non-scaling-stroke; fill: none; stroke: rgb(254, 203, 82); stroke-opacity: 1; stroke-width: 2px; opacity: 1;"/></g><g class="points"/><g class="text"/></g></g></g><g class="overplot"/><path class="xlines-above crisp" d="M0,0" style="fill: none;"/><path class="ylines-above crisp" d="M0,0" style="fill: none;"/><g class="overlines-above"/><g class="xaxislayer-above"><g class="xtick"><text text-anchor="middle" x="0" y="433" transform="translate(80,0)" style="font-family: 'Open Sans', verdana, arial, sans-serif; font-size: 12px; fill: rgb(42, 63, 95); fill-opacity: 1; white-space: pre; opacity: 1;">0</text></g><g class="xtick"><text text-anchor="middle" x="0" y="433" style="font-family: 'Open Sans', verdana, arial, sans-serif; font-size: 12px; fill: rgb(42, 63, 95); fill-opacity: 1; white-space: pre; opacity: 1;" transform="translate(190.2,0)">10</text></g><g class="xtick"><text text-anchor="middle" x="0" y="433" style="font-family: 'Open Sans', verdana, arial, sans-serif; font-size: 12px; fill: rgb(42, 63, 95); fill-opacity: 1; white-space: pre; opacity: 1;" transform="translate(300.40999999999997,0)">20</text></g><g class="xtick"><text text-anchor="middle" x="0" y="433" style="font-family: 'Open Sans', verdana, arial, sans-serif; font-size: 12px; fill: rgb(42, 63, 95); fill-opacity: 1; white-space: pre; opacity: 1;" transform="translate(410.61,0)">30</text></g><g class="xtick"><text text-anchor="middle" x="0" y="433" style="font-family: 'Open Sans', verdana, arial, sans-serif; font-size: 12px; fill: rgb(42, 63, 95); fill-opacity: 1; white-space: pre; opacity: 1;" transform="translate(520.8199999999999,0)">40</text></g></g><g class="yaxislayer-above"><g class="ytick"><text text-anchor="end" x="79" y="4.199999999999999" transform="translate(0,386.95)" style="font-family: 'Open Sans', verdana, arial, sans-serif; font-size: 12px; fill: rgb(42, 63, 95); fill-opacity: 1; white-space: pre; opacity: 1;">5.5</text></g><g class="ytick"><text text-anchor="end" x="79" y="4.199999999999999" style="font-family: 'Open Sans', verdana, arial, sans-serif; font-size: 12px; fill: rgb(42, 63, 95); fill-opacity: 1; white-space: pre; opacity: 1;" transform="translate(0,319.62)">6</text></g><g class="ytick"><text text-anchor="end" x="79" y="4.199999999999999" style="font-family: 'Open Sans', verdana, arial, sans-serif; font-size: 12px; fill: rgb(42, 63, 95); fill-opacity: 1; white-space: pre; opacity: 1;" transform="translate(0,252.29)">6.5</text></g><g class="ytick"><text text-anchor="end" x="79" y="4.199999999999999" style="font-family: 'Open Sans', verdana, arial, sans-serif; font-size: 12px; fill: rgb(42, 63, 95); fill-opacity: 1; white-space: pre; opacity: 1;" transform="translate(0,184.95)">7</text></g><g class="ytick"><text text-anchor="end" x="79" y="4.199999999999999" style="font-family: 'Open Sans', verdana, arial, sans-serif; font-size: 12px; fill: rgb(42, 63, 95); fill-opacity: 1; white-space: pre; opacity: 1;" transform="translate(0,117.62)">7.5</text></g></g><g class="overaxes-above"/></g></g><g class="polarlayer"/><g class="ternarylayer"/><g class="geolayer"/><g class="funnelarealayer"/><g class="pielayer"/><g class="iciclelayer"/><g class="treemaplayer"/><g class="sunburstlayer"/><g class="glimages"/><defs id="topdefs-112a4c"><g class="clips"/></defs><g class="layer-above"><g class="imagelayer"/><g class="shapelayer"/></g><g class="infolayer"><g class="g-gtitle"><text class="gtitle" x="35" y="50" text-anchor="start" dy="0em" style="font-family: 'Open Sans', verdana, arial, sans-serif; font-size: 17px; fill: rgb(42, 63, 95); opacity: 1; font-weight: normal; white-space: pre;">Train Loss: ascad_100-eff_cnn (with early stopping)</text></g><g class="g-xtitle"/><g class="g-ytitle"/></g></svg>