<svg class="main-svg" xmlns="http://www.w3.org/2000/svg" xmlns:xlink="http://www.w3.org/1999/xlink" width="700" height="500" style="" viewBox="0 0 700 500"><rect x="0" y="0" width="700" height="500" style="fill: rgb(255, 255, 255); fill-opacity: 1;"/><defs id="defs-eeb3e4"><g class="clips"><clipPath id="clipeeb3e4xyplot" class="plotclip"><rect width="474" height="320"/></clipPath><clipPath class="axesclip" id="clipeeb3e4x"><rect x="80" y="0" width="474" height="500"/></clipPath><clipPath class="axesclip" id="clipeeb3e4y"><rect x="0" y="100" width="700" height="320"/></clipPath><clipPath class="axesclip" id="clipeeb3e4xy"><rect x="80" y="100" width="474" height="320"/></clipPath></g><g class="gradients"/><g class="patterns"/></defs><g class="bglayer"><rect class="bg" x="80" y="100" width="474" height="320" style="fill: rgb(237, 237, 237); fill-opacity: 1; stroke-width: 0;"/></g><g class="layer-below"><g class="imagelayer"/><g class="shapelayer"/></g><g class="cartesianlayer"><g class="subplot xy"><g class="layer-subplot"><g class="shapelayer"/><g class="imagelayer"/></g><g class="gridlayer"><g class="x"><path class="xgrid crisp" transform="translate(200.75,0)" d="M0,100v320" style="stroke: rgb(255, 255, 255); stroke-opacity: 1; stroke-width: 1px;"/><path class="xgrid crisp" transform="translate(436.25,0)" d="M0,100v320" style="stroke: rgb(255, 255, 255); stroke-opacity: 1; stroke-width: 1px;"/></g><g class="y"><path class="ygrid crisp" transform="translate(0,344.64)" d="M80,0h474" style="stroke: rgb(255, 255, 255); stroke-opacity: 1; stroke-width: 1px;"/><path class="ygrid crisp" transform="translate(0,286.83000000000004)" d="M80,0h474" style="stroke: rgb(255, 255, 255); stroke-opacity: 1; stroke-width: 1px;"/><path class="ygrid crisp" transform="translate(0,229.03)" d="M80,0h474" style="stroke: rgb(255, 255, 255); stroke-opacity: 1; stroke-width: 1px;"/><path class="ygrid crisp" transform="translate(0,171.22)" d="M80,0h474" style="stroke: rgb(255, 255, 255); stroke-opacity: 1; stroke-width: 1px;"/><path class="ygrid crisp" transform="translate(0,113.41)" d="M80,0h474" style="stroke: rgb(255, 255, 255); stroke-opacity: 1; stroke-width: 1px;"/></g></g><g class="zerolinelayer"><path class="yzl zl crisp" transform="translate(0,402.44)" d="M80,0h474" style="stroke: rgb(255, 255, 255); stroke-opacity: 1; stroke-width: 1px;"/></g><path class="xlines-below"/><path class="ylines-below"/><g class="overlines-below"/><g class="xaxislayer-below"/><g class="yaxislayer-below"/><g class="overaxes-below"/><g class="plot" transform="translate(80,100)" clip-path="url(#clipeeb3e4xyplot)"><g class="violinlayer mlayer"><g class="trace violins" style="opacity: 1;"><path class="violin" d="M122.63,304Q123.91,302.97 124.74,302.52C125.78,301.96 127.06,301.49 128.45,301.04C130.15,300.49 132.14,300.02 134.24,299.56C136.69,299.02 139.45,298.55 142.26,298.08C145.34,297.56 148.71,297.09 151.99,296.6C155.34,296.1 158.89,295.63 162.16,295.12C165.21,294.64 168.37,294.2 170.99,293.64C173.13,293.19 175.45,292.84 176.75,292.16C177.55,291.74 178.48,291.15 178.45,290.68C178.41,290.16 177.12,289.63 176.16,289.2C174.8,288.59 172.78,288.19 170.92,287.72C168.82,287.19 166.45,286.72 164.19,286.23C161.91,285.73 159.53,285.26 157.3,284.75C155.18,284.27 153.07,283.79 151.11,283.27C149.31,282.8 147.57,282.31 145.98,281.79C144.56,281.32 143.21,280.84 141.99,280.31C140.92,279.84 139.91,279.36 139.04,278.83C138.28,278.37 137.59,277.88 137.02,277.35C136.51,276.88 136.1,276.38 135.74,275.87C135.4,275.39 135.16,274.89 134.89,274.39C134.62,273.9 134.4,273.4 134.11,272.91C133.81,272.41 133.49,271.91 133.11,271.43C132.7,270.92 132.21,270.43 131.71,269.95C131.18,269.44 130.57,268.96 129.98,268.47C129.37,267.97 128.71,267.49 128.1,266.99C127.5,266.5 126.88,266.02 126.33,265.51C125.81,265.03 125.29,264.54 124.87,264.03C124.48,263.55 124.13,263.06 123.89,262.55C123.67,262.07 123.51,261.57 123.46,261.07C123.41,260.58 123.47,260.07 123.59,259.59C123.71,259.09 123.96,258.59 124.21,258.11C124.47,257.61 124.82,257.12 125.15,256.63C125.48,256.13 125.86,255.65 126.18,255.15C126.49,254.66 126.83,254.18 127.06,253.67C127.28,253.19 127.48,252.68 127.57,252.18C127.65,251.69 127.67,251.19 127.59,250.7C127.51,250.2 127.31,249.7 127.09,249.22C126.85,248.71 126.52,248.22 126.19,247.74C125.84,247.24 125.44,246.75 125.05,246.26C124.66,245.77 124.25,245.28 123.87,244.78C123.5,244.29 123.14,243.8 122.82,243.3C122.51,242.82 122.23,242.32 122,241.82C121.78,241.33 121.59,240.84 121.44,240.34C121.29,239.85 121.18,239.36 121.09,238.86C121,238.37 120.95,237.87 120.9,237.38C120.85,236.89 120.83,236.39 120.81,235.9C120.79,235.41 120.78,234.91 120.77,234.42C120.76,233.93 120.76,233.43 120.76,232.94C120.76,232.45 120.75,231.95 120.75,231.46C120.75,230.97 120.75,230.47 120.75,229.98C120.75,229.49 120.75,228.99 120.75,228.5C120.75,228.01 120.75,227.51 120.75,227.02C120.75,226.53 120.75,226.03 120.75,225.54C120.75,225.05 120.75,224.55 120.75,224.06C120.75,223.57 120.75,223.07 120.75,222.58C120.75,222.09 120.75,221.59 120.75,221.1C120.75,220.6 120.75,220.11 120.75,219.61C120.75,219.12 120.75,218.62 120.75,218.13C120.75,217.64 120.75,217.14 120.75,216.65C120.75,216.16 120.75,215.66 120.75,215.17C120.75,214.68 120.75,214.18 120.75,213.69C120.75,213.2 120.75,212.7 120.75,212.21C120.75,211.72 120.76,211.22 120.76,210.73C120.76,210.24 120.76,209.74 120.77,209.25C120.78,208.76 120.79,208.26 120.81,207.77C120.83,207.28 120.84,206.78 120.88,206.29C120.92,205.8 120.97,205.3 121.03,204.81C121.09,204.32 121.17,203.82 121.26,203.33C121.35,202.84 121.46,202.34 121.58,201.85C121.7,201.36 121.85,200.86 121.98,200.37C122.11,199.88 122.25,199.38 122.36,198.89C122.47,198.4 122.58,197.91 122.65,197.41C122.72,196.92 122.76,196.42 122.76,195.93C122.76,195.44 122.72,194.94 122.65,194.45C122.58,193.95 122.46,193.46 122.35,192.97C122.23,192.47 122.09,191.98 121.96,191.49C121.83,191 121.69,190.5 121.57,190.01C121.45,189.52 121.34,189.02 121.25,188.53Q121.16,188.04 121.02,187.05L120.48,187.05Q120.34,188.04 120.25,188.53C120.16,189.02 120.05,189.52 119.93,190.01C119.81,190.5 119.67,191 119.54,191.49C119.41,191.98 119.27,192.47 119.15,192.97C119.04,193.46 118.92,193.95 118.85,194.45C118.78,194.94 118.74,195.44 118.74,195.93C118.74,196.42 118.78,196.92 118.85,197.41C118.92,197.91 119.03,198.4 119.14,198.89C119.25,199.38 119.39,199.88 119.52,200.37C119.65,200.86 119.8,201.36 119.92,201.85C120.04,202.34 120.15,202.84 120.24,203.33C120.33,203.82 120.41,204.32 120.47,204.81C120.53,205.3 120.58,205.8 120.62,206.29C120.66,206.78 120.67,207.28 120.69,207.77C120.71,208.26 120.72,208.76 120.73,209.25C120.74,209.74 120.74,210.24 120.74,210.73C120.74,211.22 120.75,211.72 120.75,212.21C120.75,212.7 120.75,213.2 120.75,213.69C120.75,214.18 120.75,214.68 120.75,215.17C120.75,215.66 120.75,216.16 120.75,216.65C120.75,217.14 120.75,217.64 120.75,218.13C120.75,218.62 120.75,219.12 120.75,219.61C120.75,220.11 120.75,220.6 120.75,221.1C120.75,221.59 120.75,222.09 120.75,222.58C120.75,223.07 120.75,223.57 120.75,224.06C120.75,224.55 120.75,225.05 120.75,225.54C120.75,226.03 120.75,226.53 120.75,227.02C120.75,227.51 120.75,228.01 120.75,228.5C120.75,228.99 120.75,229.49 120.75,229.98C120.75,230.47 120.75,230.97 120.75,231.46C120.75,231.95 120.74,232.45 120.74,232.94C120.74,233.43 120.74,233.93 120.73,234.42C120.72,234.91 120.71,235.41 120.69,235.9C120.67,236.39 120.65,236.89 120.6,237.38C120.55,237.87 120.5,238.37 120.41,238.86C120.32,239.36 120.21,239.85 120.06,240.34C119.91,240.84 119.72,241.33 119.5,241.82C119.27,242.32 118.99,242.82 118.68,243.3C118.36,243.8 118,244.29 117.63,244.78C117.25,245.28 116.84,245.77 116.45,246.26C116.06,246.75 115.66,247.24 115.31,247.74C114.98,248.22 114.65,248.71 114.41,249.22C114.19,249.7 113.99,250.2 113.91,250.7C113.83,251.19 113.85,251.69 113.93,252.18C114.02,252.68 114.22,253.19 114.44,253.67C114.67,254.18 115.01,254.66 115.32,255.15C115.64,255.65 116.02,256.13 116.35,256.63C116.68,257.12 117.03,257.61 117.29,258.11C117.54,258.59 117.79,259.09 117.91,259.59C118.03,260.07 118.09,260.58 118.04,261.07C117.99,261.57 117.83,262.07 117.61,262.55C117.37,263.06 117.02,263.55 116.63,264.03C116.21,264.54 115.69,265.03 115.17,265.51C114.62,266.02 114,266.5 113.4,266.99C112.79,267.49 112.13,267.97 111.52,268.47C110.93,268.96 110.32,269.44 109.79,269.95C109.29,270.43 108.8,270.92 108.39,271.43C108.01,271.91 107.69,272.41 107.39,272.91C107.1,273.4 106.88,273.9 106.61,274.39C106.34,274.89 106.1,275.39 105.76,275.87C105.4,276.38 104.99,276.88 104.48,277.35C103.91,277.88 103.22,278.37 102.46,278.83C101.59,279.36 100.58,279.84 99.51,280.31C98.29,280.84 96.94,281.32 95.52,281.79C93.93,282.31 92.19,282.8 90.39,283.27C88.43,283.79 86.32,284.27 84.2,284.75C81.97,285.26 79.59,285.73 77.31,286.23C75.05,286.72 72.68,287.19 70.58,287.72C68.72,288.19 66.7,288.59 65.34,289.2C64.38,289.63 63.09,290.16 63.05,290.68C63.02,291.15 63.95,291.74 64.75,292.16C66.05,292.84 68.37,293.19 70.51,293.64C73.13,294.2 76.29,294.64 79.34,295.12C82.61,295.63 86.16,296.1 89.51,296.6C92.79,297.09 96.16,297.56 99.24,298.08C102.05,298.55 104.81,299.02 107.26,299.56C109.36,300.02 111.35,300.49 113.05,301.04C114.44,301.49 115.72,301.96 116.76,302.52Q117.59,302.97 118.87,304Z" style="vector-effect: non-scaling-stroke; stroke-width: 2px; stroke: rgb(99, 110, 250); stroke-opacity: 1; fill: rgb(99, 110, 250); fill-opacity: 0.5;"/><g class="points"><path class="point" transform="translate(38.96,295.1)" d="M3,0A3,3 0 1,1 0,-3A3,3 0 0,1 3,0Z" style="opacity: 1; stroke-width: 0px; fill: rgb(99, 110, 250); fill-opacity: 1;"/><path class="point" transform="translate(27.91,294.82)" d="M3,0A3,3 0 1,1 0,-3A3,3 0 0,1 3,0Z" style="opacity: 1; stroke-width: 0px; fill: rgb(99, 110, 250); fill-opacity: 1;"/><path class="point" transform="translate(42.04,294.8)" d="M3,0A3,3 0 1,1 0,-3A3,3 0 0,1 3,0Z" style="opacity: 1; stroke-width: 0px; fill: rgb(99, 110, 250); fill-opacity: 1;"/><path class="point" transform="translate(25.07,293.48)" d="M3,0A3,3 0 1,1 0,-3A3,3 0 0,1 3,0Z" style="opacity: 1; stroke-width: 0px; fill: rgb(99, 110, 250); fill-opacity: 1;"/><path class="point" transform="translate(31.48,292.89)" d="M3,0A3,3 0 1,1 0,-3A3,3 0 0,1 3,0Z" style="opacity: 1; stroke-width: 0px; fill: rgb(99, 110, 250); fill-opacity: 1;"/><path class="point" transform="translate(40.17,292.89)" d="M3,0A3,3 0 1,1 0,-3A3,3 0 0,1 3,0Z" style="opacity: 1; stroke-width: 0px; fill: rgb(99, 110, 250); fill-opacity: 1;"/><path class="point" transform="translate(33.77,292.81)" d="M3,0A3,3 0 1,1 0,-3A3,3 0 0,1 3,0Z" style="opacity: 1; stroke-width: 0px; fill: rgb(99, 110, 250); fill-opacity: 1;"/><path class="point" transform="translate(37.57,292.55)" d="M3,0A3,3 0 1,1 0,-3A3,3 0 0,1 3,0Z" style="opacity: 1; stroke-width: 0px; fill: rgb(99, 110, 250); fill-opacity: 1;"/><path class="point" transform="translate(29.29,292.55)" d="M3,0A3,3 0 1,1 0,-3A3,3 0 0,1 3,0Z" style="opacity: 1; stroke-width: 0px; fill: rgb(99, 110, 250); fill-opacity: 1;"/><path class="point" transform="translate(21.52,292.36)" d="M3,0A3,3 0 1,1 0,-3A3,3 0 0,1 3,0Z" style="opacity: 1; stroke-width: 0px; fill: rgb(99, 110, 250); fill-opacity: 1;"/><path class="point" transform="translate(38.83,292.22)" d="M3,0A3,3 0 1,1 0,-3A3,3 0 0,1 3,0Z" style="opacity: 1; stroke-width: 0px; fill: rgb(99, 110, 250); fill-opacity: 1;"/><path class="point" transform="translate(28.51,292.11)" d="M3,0A3,3 0 1,1 0,-3A3,3 0 0,1 3,0Z" style="opacity: 1; stroke-width: 0px; fill: rgb(99, 110, 250); fill-opacity: 1;"/><path class="point" transform="translate(44.6,292.03)" d="M3,0A3,3 0 1,1 0,-3A3,3 0 0,1 3,0Z" style="opacity: 1; stroke-width: 0px; fill: rgb(99, 110, 250); fill-opacity: 1;"/><path class="point" transform="translate(19.93,291.92)" d="M3,0A3,3 0 1,1 0,-3A3,3 0 0,1 3,0Z" style="opacity: 1; stroke-width: 0px; fill: rgb(99, 110, 250); fill-opacity: 1;"/><path class="point" transform="translate(25.72,291.84)" d="M3,0A3,3 0 1,1 0,-3A3,3 0 0,1 3,0Z" style="opacity: 1; stroke-width: 0px; fill: rgb(99, 110, 250); fill-opacity: 1;"/><path class="point" transform="translate(47.07,291.69)" d="M3,0A3,3 0 1,1 0,-3A3,3 0 0,1 3,0Z" style="opacity: 1; stroke-width: 0px; fill: rgb(99, 110, 250); fill-opacity: 1;"/><path class="point" transform="translate(30.45,291.69)" d="M3,0A3,3 0 1,1 0,-3A3,3 0 0,1 3,0Z" style="opacity: 1; stroke-width: 0px; fill: rgb(99, 110, 250); fill-opacity: 1;"/><path class="point" transform="translate(22.61,291.17)" d="M3,0A3,3 0 1,1 0,-3A3,3 0 0,1 3,0Z" style="opacity: 1; stroke-width: 0px; fill: rgb(99, 110, 250); fill-opacity: 1;"/><path class="point" transform="translate(29.72,290.82)" d="M3,0A3,3 0 1,1 0,-3A3,3 0 0,1 3,0Z" style="opacity: 1; stroke-width: 0px; fill: rgb(99, 110, 250); fill-opacity: 1;"/><path class="point" transform="translate(33.93,290.63)" d="M3,0A3,3 0 1,1 0,-3A3,3 0 0,1 3,0Z" style="opacity: 1; stroke-width: 0px; fill: rgb(99, 110, 250); fill-opacity: 1;"/><path class="point" transform="translate(40.08,290.47)" d="M3,0A3,3 0 1,1 0,-3A3,3 0 0,1 3,0Z" style="opacity: 1; stroke-width: 0px; fill: rgb(99, 110, 250); fill-opacity: 1;"/><path class="point" transform="translate(35.31,290.45)" d="M3,0A3,3 0 1,1 0,-3A3,3 0 0,1 3,0Z" style="opacity: 1; stroke-width: 0px; fill: rgb(99, 110, 250); fill-opacity: 1;"/><path class="point" transform="translate(31.56,290)" d="M3,0A3,3 0 1,1 0,-3A3,3 0 0,1 3,0Z" style="opacity: 1; stroke-width: 0px; fill: rgb(99, 110, 250); fill-opacity: 1;"/><path class="point" transform="translate(26.09,289.9)" d="M3,0A3,3 0 1,1 0,-3A3,3 0 0,1 3,0Z" style="opacity: 1; stroke-width: 0px; fill: rgb(99, 110, 250); fill-opacity: 1;"/><path class="point" transform="translate(34.17,289.65)" d="M3,0A3,3 0 1,1 0,-3A3,3 0 0,1 3,0Z" style="opacity: 1; stroke-width: 0px; fill: rgb(99, 110, 250); fill-opacity: 1;"/><path class="point" transform="translate(31.54,289.51)" d="M3,0A3,3 0 1,1 0,-3A3,3 0 0,1 3,0Z" style="opacity: 1; stroke-width: 0px; fill: rgb(99, 110, 250); fill-opacity: 1;"/><path class="point" transform="translate(38.08,287.95)" d="M3,0A3,3 0 1,1 0,-3A3,3 0 0,1 3,0Z" style="opacity: 1; stroke-width: 0px; fill: rgb(99, 110, 250); fill-opacity: 1;"/><path class="point" transform="translate(33.5,286.95)" d="M3,0A3,3 0 1,1 0,-3A3,3 0 0,1 3,0Z" style="opacity: 1; stroke-width: 0px; fill: rgb(99, 110, 250); fill-opacity: 1;"/><path class="point" transform="translate(29.37,286.88)" d="M3,0A3,3 0 1,1 0,-3A3,3 0 0,1 3,0Z" style="opacity: 1; stroke-width: 0px; fill: rgb(99, 110, 250); fill-opacity: 1;"/><path class="point" transform="translate(27.32,286.85)" d="M3,0A3,3 0 1,1 0,-3A3,3 0 0,1 3,0Z" style="opacity: 1; stroke-width: 0px; fill: rgb(99, 110, 250); fill-opacity: 1;"/><path class="point" transform="translate(38.11,285.98)" d="M3,0A3,3 0 1,1 0,-3A3,3 0 0,1 3,0Z" style="opacity: 1; stroke-width: 0px; fill: rgb(99, 110, 250); fill-opacity: 1;"/><path class="point" transform="translate(28.4,285.08)" d="M3,0A3,3 0 1,1 0,-3A3,3 0 0,1 3,0Z" style="opacity: 1; stroke-width: 0px; fill: rgb(99, 110, 250); fill-opacity: 1;"/><path class="point" transform="translate(38.44,284.03)" d="M3,0A3,3 0 1,1 0,-3A3,3 0 0,1 3,0Z" style="opacity: 1; stroke-width: 0px; fill: rgb(99, 110, 250); fill-opacity: 1;"/><path class="point" transform="translate(35.61,283.09)" d="M3,0A3,3 0 1,1 0,-3A3,3 0 0,1 3,0Z" style="opacity: 1; stroke-width: 0px; fill: rgb(99, 110, 250); fill-opacity: 1;"/><path class="point" transform="translate(32.64,282.83)" d="M3,0A3,3 0 1,1 0,-3A3,3 0 0,1 3,0Z" style="opacity: 1; stroke-width: 0px; fill: rgb(99, 110, 250); fill-opacity: 1;"/><path class="point" transform="translate(31.01,281.77)" d="M3,0A3,3 0 1,1 0,-3A3,3 0 0,1 3,0Z" style="opacity: 1; stroke-width: 0px; fill: rgb(99, 110, 250); fill-opacity: 1;"/><path class="point" transform="translate(36.64,279.89)" d="M3,0A3,3 0 1,1 0,-3A3,3 0 0,1 3,0Z" style="opacity: 1; stroke-width: 0px; fill: rgb(99, 110, 250); fill-opacity: 1;"/><path class="point" transform="translate(33.62,279.63)" d="M3,0A3,3 0 1,1 0,-3A3,3 0 0,1 3,0Z" style="opacity: 1; stroke-width: 0px; fill: rgb(99, 110, 250); fill-opacity: 1;"/><path class="point" transform="translate(37.9,277.92)" d="M3,0A3,3 0 1,1 0,-3A3,3 0 0,1 3,0Z" style="opacity: 1; stroke-width: 0px; fill: rgb(99, 110, 250); fill-opacity: 1;"/><path class="point" transform="translate(30.22,273.4)" d="M3,0A3,3 0 1,1 0,-3A3,3 0 0,1 3,0Z" style="opacity: 1; stroke-width: 0px; fill: rgb(99, 110, 250); fill-opacity: 1;"/><path class="point" transform="translate(36.56,273.25)" d="M3,0A3,3 0 1,1 0,-3A3,3 0 0,1 3,0Z" style="opacity: 1; stroke-width: 0px; fill: rgb(99, 110, 250); fill-opacity: 1;"/><path class="point" transform="translate(33.9,272.37)" d="M3,0A3,3 0 1,1 0,-3A3,3 0 0,1 3,0Z" style="opacity: 1; stroke-width: 0px; fill: rgb(99, 110, 250); fill-opacity: 1;"/><path class="point" transform="translate(32.82,271.56)" d="M3,0A3,3 0 1,1 0,-3A3,3 0 0,1 3,0Z" style="opacity: 1; stroke-width: 0px; fill: rgb(99, 110, 250); fill-opacity: 1;"/><path class="point" transform="translate(30.73,270.28)" d="M3,0A3,3 0 1,1 0,-3A3,3 0 0,1 3,0Z" style="opacity: 1; stroke-width: 0px; fill: rgb(99, 110, 250); fill-opacity: 1;"/><path class="point" transform="translate(33.35,266.29)" d="M3,0A3,3 0 1,1 0,-3A3,3 0 0,1 3,0Z" style="opacity: 1; stroke-width: 0px; fill: rgb(99, 110, 250); fill-opacity: 1;"/><path class="point" transform="translate(35.59,254.49)" d="M3,0A3,3 0 1,1 0,-3A3,3 0 0,1 3,0Z" style="opacity: 1; stroke-width: 0px; fill: rgb(99, 110, 250); fill-opacity: 1;"/><path class="point" transform="translate(33.73,252.95)" d="M3,0A3,3 0 1,1 0,-3A3,3 0 0,1 3,0Z" style="opacity: 1; stroke-width: 0px; fill: rgb(99, 110, 250); fill-opacity: 1;"/><path class="point" transform="translate(32.76,249.86)" d="M3,0A3,3 0 1,1 0,-3A3,3 0 0,1 3,0Z" style="opacity: 1; stroke-width: 0px; fill: rgb(99, 110, 250); fill-opacity: 1;"/><path class="point" transform="translate(35.04,248.13)" d="M3,0A3,3 0 1,1 0,-3A3,3 0 0,1 3,0Z" style="opacity: 1; stroke-width: 0px; fill: rgb(99, 110, 250); fill-opacity: 1;"/><path class="point" transform="translate(33.33,195.95)" d="M3,0A3,3 0 1,1 0,-3A3,3 0 0,1 3,0Z" style="opacity: 1; stroke-width: 0px; fill: rgb(99, 110, 250); fill-opacity: 1;"/></g></g><g class="trace violins" style="opacity: 1;"><path class="violin" d="M356.85,297.54Q357.18,296.37 357.43,295.8C357.69,295.21 358,294.62 358.37,294.06C358.76,293.46 359.23,292.88 359.74,292.32C360.29,291.72 360.92,291.14 361.58,290.58C362.28,289.98 363.05,289.41 363.86,288.85C364.72,288.25 365.63,287.67 366.59,287.11C367.61,286.51 368.69,285.93 369.82,285.37C371.03,284.77 372.31,284.19 373.63,283.63C375.04,283.03 376.53,282.47 378.03,281.9C379.58,281.31 381.22,280.75 382.78,280.16C384.32,279.59 385.91,279.03 387.33,278.42C388.62,277.86 389.96,277.33 390.97,276.68C391.8,276.15 392.67,275.6 393.06,274.94C393.38,274.41 393.5,273.77 393.41,273.21C393.31,272.61 392.8,272.03 392.38,271.47C391.92,270.86 391.25,270.32 390.71,269.73C390.18,269.15 389.59,268.59 389.16,267.99C388.76,267.43 388.42,266.84 388.16,266.25C387.91,265.69 387.81,265.1 387.61,264.52C387.41,263.94 387.29,263.34 386.98,262.78C386.64,262.17 386.19,261.58 385.61,261.04C384.92,260.4 384,259.84 383.03,259.3C381.91,258.67 380.56,258.12 379.22,257.56C377.76,256.96 376.15,256.4 374.59,255.83C373.01,255.25 371.35,254.68 369.8,254.09C368.31,253.52 366.81,252.96 365.45,252.35C364.22,251.79 363.02,251.23 361.98,250.61C361.06,250.06 360.21,249.49 359.51,248.87C358.89,248.32 358.36,247.75 357.94,247.14C357.55,246.58 357.27,245.99 357.04,245.4C356.82,244.83 356.7,244.24 356.59,243.66C356.48,243.08 356.44,242.5 356.39,241.92C356.35,241.34 356.33,240.77 356.32,240.19C356.31,239.61 356.33,239.03 356.34,238.45C356.35,237.87 356.37,237.29 356.41,236.71C356.45,236.13 356.5,235.55 356.57,234.97C356.64,234.39 356.72,233.81 356.83,233.23C356.94,232.65 357.07,232.08 357.21,231.5C357.35,230.92 357.51,230.34 357.67,229.76C357.83,229.18 358.02,228.6 358.19,228.02C358.36,227.44 358.53,226.86 358.67,226.28C358.81,225.7 358.94,225.12 359.03,224.54C359.12,223.96 359.18,223.39 359.2,222.81C359.22,222.23 359.2,221.65 359.14,221.07C359.08,220.49 358.98,219.91 358.86,219.33C358.74,218.75 358.59,218.17 358.43,217.59C358.27,217.01 358.09,216.43 357.92,215.85C357.75,215.27 357.57,214.7 357.42,214.12C357.27,213.54 357.12,212.96 357,212.38C356.88,211.8 356.77,211.22 356.68,210.64C356.59,210.06 356.53,209.48 356.48,208.9C356.43,208.32 356.39,207.74 356.36,207.16C356.33,206.58 356.31,206.01 356.3,205.43C356.28,204.85 356.28,204.27 356.27,203.69C356.26,203.11 356.26,202.53 356.26,201.95C356.26,201.37 356.25,200.79 356.25,200.21C356.25,199.63 356.25,199.06 356.25,198.48C356.25,197.9 356.25,197.32 356.25,196.74C356.25,196.16 356.25,195.58 356.25,195C356.25,194.42 356.25,193.84 356.25,193.26C356.25,192.68 356.25,192.1 356.25,191.52C356.25,190.94 356.25,190.37 356.25,189.79C356.25,189.21 356.25,188.63 356.25,188.05C356.25,187.47 356.25,186.89 356.25,186.31C356.25,185.73 356.25,185.15 356.25,184.57C356.25,183.99 356.25,183.41 356.25,182.83C356.25,182.25 356.25,181.68 356.25,181.1C356.25,180.52 356.25,179.94 356.25,179.36C356.25,178.78 356.25,178.2 356.25,177.62C356.25,177.04 356.25,176.46 356.25,175.88C356.25,175.3 356.25,174.72 356.25,174.14C356.25,173.56 356.25,172.99 356.25,172.41C356.25,171.83 356.25,171.25 356.25,170.67C356.25,170.09 356.25,169.51 356.25,168.93C356.25,168.35 356.25,167.77 356.25,167.19C356.25,166.61 356.25,166.03 356.25,165.45C356.25,164.87 356.25,164.3 356.25,163.72C356.25,163.14 356.25,162.56 356.25,161.98C356.25,161.4 356.25,160.82 356.25,160.24C356.25,159.66 356.25,159.08 356.25,158.5C356.25,157.92 356.25,157.35 356.25,156.77C356.25,156.19 356.25,155.61 356.25,155.03C356.25,154.45 356.25,153.87 356.25,153.29C356.25,152.71 356.26,152.13 356.26,151.55C356.27,150.97 356.27,150.39 356.28,149.81C356.29,149.23 356.3,148.66 356.32,148.08C356.34,147.5 356.37,146.92 356.42,146.34C356.47,145.76 356.53,145.18 356.61,144.6C356.7,144.02 356.8,143.44 356.93,142.86C357.07,142.28 357.24,141.7 357.42,141.12C357.61,140.54 357.82,139.97 358.04,139.39C358.26,138.81 358.51,138.23 358.72,137.65C358.93,137.07 359.15,136.5 359.3,135.91C359.45,135.34 359.57,134.75 359.62,134.17C359.67,133.59 359.66,133.01 359.59,132.43C359.52,131.85 359.38,131.27 359.22,130.7C359.06,130.12 358.82,129.54 358.61,128.96C358.4,128.38 358.15,127.8 357.94,127.22C357.73,126.64 357.51,126.06 357.33,125.48C357.15,124.9 357,124.32 356.87,123.74C356.74,123.17 356.65,122.59 356.57,122.01C356.49,121.43 356.44,120.85 356.4,120.27C356.36,119.69 356.33,119.11 356.31,118.53C356.29,117.95 356.28,117.37 356.27,116.79C356.26,116.21 356.26,115.64 356.26,115.06C356.26,114.48 356.25,113.9 356.25,113.32C356.25,112.74 356.25,112.16 356.25,111.58C356.25,111 356.25,110.42 356.25,109.84C356.25,109.26 356.25,108.68 356.25,108.1C356.25,107.52 356.25,106.95 356.25,106.37C356.25,105.79 356.26,105.21 356.26,104.63C356.26,104.05 356.26,103.47 356.27,102.89C356.28,102.31 356.28,101.73 356.3,101.15C356.32,100.57 356.34,99.99 356.37,99.41C356.4,98.83 356.44,98.26 356.49,97.68C356.54,97.1 356.61,96.52 356.69,95.94C356.77,95.36 356.87,94.78 356.97,94.2C357.07,93.62 357.2,93.04 357.31,92.46C357.42,91.88 357.54,91.3 357.63,90.72C357.72,90.14 357.82,89.57 357.87,88.99C357.92,88.41 357.95,87.83 357.95,87.25C357.95,86.67 357.91,86.09 357.85,85.51C357.79,84.93 357.7,84.35 357.6,83.77C357.5,83.19 357.38,82.61 357.27,82.03C357.16,81.45 357.04,80.88 356.94,80.3C356.84,79.72 356.75,79.14 356.67,78.56Q356.59,77.98 356.48,76.82L356.02,76.82Q355.91,77.98 355.83,78.56C355.75,79.14 355.66,79.72 355.56,80.3C355.46,80.88 355.34,81.45 355.23,82.03C355.12,82.61 355,83.19 354.9,83.77C354.8,84.35 354.71,84.93 354.65,85.51C354.59,86.09 354.55,86.67 354.55,87.25C354.55,87.83 354.58,88.41 354.63,88.99C354.68,89.57 354.78,90.14 354.87,90.72C354.96,91.3 355.08,91.88 355.19,92.46C355.3,93.04 355.43,93.62 355.53,94.2C355.63,94.78 355.73,95.36 355.81,95.94C355.89,96.52 355.96,97.1 356.01,97.68C356.06,98.26 356.1,98.83 356.13,99.41C356.16,99.99 356.18,100.57 356.2,101.15C356.22,101.73 356.22,102.31 356.23,102.89C356.24,103.47 356.24,104.05 356.24,104.63C356.24,105.21 356.25,105.79 356.25,106.37C356.25,106.95 356.25,107.52 356.25,108.1C356.25,108.68 356.25,109.26 356.25,109.84C356.25,110.42 356.25,111 356.25,111.58C356.25,112.16 356.25,112.74 356.25,113.32C356.25,113.9 356.24,114.48 356.24,115.06C356.24,115.64 356.24,116.21 356.23,116.79C356.22,117.37 356.21,117.95 356.19,118.53C356.17,119.11 356.14,119.69 356.1,120.27C356.06,120.85 356.01,121.43 355.93,122.01C355.85,122.59 355.76,123.17 355.63,123.74C355.5,124.32 355.35,124.9 355.17,125.48C354.99,126.06 354.77,126.64 354.56,127.22C354.35,127.8 354.1,128.38 353.89,128.96C353.68,129.54 353.44,130.12 353.28,130.7C353.12,131.27 352.98,131.85 352.91,132.43C352.84,133.01 352.83,133.59 352.88,134.17C352.93,134.75 353.05,135.34 353.2,135.91C353.35,136.5 353.57,137.07 353.78,137.65C353.99,138.23 354.24,138.81 354.46,139.39C354.68,139.97 354.89,140.54 355.08,141.12C355.26,141.7 355.43,142.28 355.57,142.86C355.7,143.44 355.8,144.02 355.89,144.6C355.97,145.18 356.03,145.76 356.08,146.34C356.13,146.92 356.16,147.5 356.18,148.08C356.2,148.66 356.21,149.23 356.22,149.81C356.23,150.39 356.23,150.97 356.24,151.55C356.24,152.13 356.25,152.71 356.25,153.29C356.25,153.87 356.25,154.45 356.25,155.03C356.25,155.61 356.25,156.19 356.25,156.77C356.25,157.35 356.25,157.92 356.25,158.5C356.25,159.08 356.25,159.66 356.25,160.24C356.25,160.82 356.25,161.4 356.25,161.98C356.25,162.56 356.25,163.14 356.25,163.72C356.25,164.3 356.25,164.87 356.25,165.45C356.25,166.03 356.25,166.61 356.25,167.19C356.25,167.77 356.25,168.35 356.25,168.93C356.25,169.51 356.25,170.09 356.25,170.67C356.25,171.25 356.25,171.83 356.25,172.41C356.25,172.99 356.25,173.56 356.25,174.14C356.25,174.72 356.25,175.3 356.25,175.88C356.25,176.46 356.25,177.04 356.25,177.62C356.25,178.2 356.25,178.78 356.25,179.36C356.25,179.94 356.25,180.52 356.25,181.1C356.25,181.68 356.25,182.25 356.25,182.83C356.25,183.41 356.25,183.99 356.25,184.57C356.25,185.15 356.25,185.73 356.25,186.31C356.25,186.89 356.25,187.47 356.25,188.05C356.25,188.63 356.25,189.21 356.25,189.79C356.25,190.37 356.25,190.94 356.25,191.52C356.25,192.1 356.25,192.68 356.25,193.26C356.25,193.84 356.25,194.42 356.25,195C356.25,195.58 356.25,196.16 356.25,196.74C356.25,197.32 356.25,197.9 356.25,198.48C356.25,199.06 356.25,199.63 356.25,200.21C356.25,200.79 356.24,201.37 356.24,201.95C356.24,202.53 356.24,203.11 356.23,203.69C356.22,204.27 356.22,204.85 356.2,205.43C356.19,206.01 356.17,206.58 356.14,207.16C356.11,207.74 356.07,208.32 356.02,208.9C355.97,209.48 355.91,210.06 355.82,210.64C355.73,211.22 355.62,211.8 355.5,212.38C355.38,212.96 355.23,213.54 355.08,214.12C354.93,214.7 354.75,215.27 354.58,215.85C354.41,216.43 354.23,217.01 354.07,217.59C353.91,218.17 353.76,218.75 353.64,219.33C353.52,219.91 353.42,220.49 353.36,221.07C353.3,221.65 353.28,222.23 353.3,222.81C353.32,223.39 353.38,223.96 353.47,224.54C353.56,225.12 353.69,225.7 353.83,226.28C353.97,226.86 354.14,227.44 354.31,228.02C354.48,228.6 354.67,229.18 354.83,229.76C354.99,230.34 355.15,230.92 355.29,231.5C355.43,232.08 355.56,232.65 355.67,233.23C355.78,233.81 355.86,234.39 355.93,234.97C356,235.55 356.05,236.13 356.09,236.71C356.13,237.29 356.15,237.87 356.16,238.45C356.17,239.03 356.19,239.61 356.18,240.19C356.17,240.77 356.15,241.34 356.11,241.92C356.06,242.5 356.02,243.08 355.91,243.66C355.8,244.24 355.68,244.83 355.46,245.4C355.23,245.99 354.95,246.58 354.56,247.14C354.14,247.75 353.61,248.32 352.99,248.87C352.29,249.49 351.44,250.06 350.52,250.61C349.48,251.23 348.28,251.79 347.05,252.35C345.69,252.96 344.19,253.52 342.7,254.09C341.15,254.68 339.49,255.25 337.91,255.83C336.35,256.4 334.74,256.96 333.28,257.56C331.94,258.12 330.59,258.67 329.47,259.3C328.5,259.84 327.58,260.4 326.89,261.04C326.31,261.58 325.86,262.17 325.52,262.78C325.21,263.34 325.09,263.94 324.89,264.52C324.69,265.1 324.59,265.69 324.34,266.25C324.08,266.84 323.74,267.43 323.34,267.99C322.91,268.59 322.32,269.15 321.79,269.73C321.25,270.32 320.58,270.86 320.12,271.47C319.7,272.03 319.19,272.61 319.09,273.21C319,273.77 319.12,274.41 319.44,274.94C319.83,275.6 320.7,276.15 321.53,276.68C322.54,277.33 323.88,277.86 325.17,278.42C326.59,279.03 328.18,279.59 329.72,280.16C331.28,280.75 332.92,281.31 334.47,281.9C335.97,282.47 337.46,283.03 338.87,283.63C340.19,284.19 341.47,284.77 342.68,285.37C343.81,285.93 344.89,286.51 345.91,287.11C346.87,287.67 347.78,288.25 348.64,288.85C349.45,289.41 350.22,289.98 350.92,290.58C351.58,291.14 352.21,291.72 352.76,292.32C353.27,292.88 353.74,293.46 354.13,294.06C354.5,294.62 354.81,295.21 355.07,295.8Q355.32,296.37 355.65,297.54Z" style="vector-effect: non-scaling-stroke; stroke-width: 2px; stroke: rgb(239, 85, 59); stroke-opacity: 1; fill: rgb(239, 85, 59); fill-opacity: 0.5;"/><g class="points"><path class="point" transform="translate(272.91,287.03)" d="M3,0A3,3 0 1,1 0,-3A3,3 0 0,1 3,0Z" style="opacity: 1; stroke-width: 0px; fill: rgb(239, 85, 59); fill-opacity: 1;"/><path class="point" transform="translate(265.39,286.83)" d="M3,0A3,3 0 1,1 0,-3A3,3 0 0,1 3,0Z" style="opacity: 1; stroke-width: 0px; fill: rgb(239, 85, 59); fill-opacity: 1;"/><path class="point" transform="translate(275.28,284.18)" d="M3,0A3,3 0 1,1 0,-3A3,3 0 0,1 3,0Z" style="opacity: 1; stroke-width: 0px; fill: rgb(239, 85, 59); fill-opacity: 1;"/><path class="point" transform="translate(263.21,283.44)" d="M3,0A3,3 0 1,1 0,-3A3,3 0 0,1 3,0Z" style="opacity: 1; stroke-width: 0px; fill: rgb(239, 85, 59); fill-opacity: 1;"/><path class="point" transform="translate(267.72,282.8)" d="M3,0A3,3 0 1,1 0,-3A3,3 0 0,1 3,0Z" style="opacity: 1; stroke-width: 0px; fill: rgb(239, 85, 59); fill-opacity: 1;"/><path class="point" transform="translate(274.16,277.25)" d="M3,0A3,3 0 1,1 0,-3A3,3 0 0,1 3,0Z" style="opacity: 1; stroke-width: 0px; fill: rgb(239, 85, 59); fill-opacity: 1;"/><path class="point" transform="translate(269.39,277.25)" d="M3,0A3,3 0 1,1 0,-3A3,3 0 0,1 3,0Z" style="opacity: 1; stroke-width: 0px; fill: rgb(239, 85, 59); fill-opacity: 1;"/><path class="point" transform="translate(272.54,276.93)" d="M3,0A3,3 0 1,1 0,-3A3,3 0 0,1 3,0Z" style="opacity: 1; stroke-width: 0px; fill: rgb(239, 85, 59); fill-opacity: 1;"/><path class="point" transform="translate(266.46,276.91)" d="M3,0A3,3 0 1,1 0,-3A3,3 0 0,1 3,0Z" style="opacity: 1; stroke-width: 0px; fill: rgb(239, 85, 59); fill-opacity: 1;"/><path class="point" transform="translate(262.01,276.7)" d="M3,0A3,3 0 1,1 0,-3A3,3 0 0,1 3,0Z" style="opacity: 1; stroke-width: 0px; fill: rgb(239, 85, 59); fill-opacity: 1;"/><path class="point" transform="translate(274.33,276.67)" d="M3,0A3,3 0 1,1 0,-3A3,3 0 0,1 3,0Z" style="opacity: 1; stroke-width: 0px; fill: rgb(239, 85, 59); fill-opacity: 1;"/><path class="point" transform="translate(264.44,276.66)" d="M3,0A3,3 0 1,1 0,-3A3,3 0 0,1 3,0Z" style="opacity: 1; stroke-width: 0px; fill: rgb(239, 85, 59); fill-opacity: 1;"/><path class="point" transform="translate(279.69,276.41)" d="M3,0A3,3 0 1,1 0,-3A3,3 0 0,1 3,0Z" style="opacity: 1; stroke-width: 0px; fill: rgb(239, 85, 59); fill-opacity: 1;"/><path class="point" transform="translate(255.14,276.24)" d="M3,0A3,3 0 1,1 0,-3A3,3 0 0,1 3,0Z" style="opacity: 1; stroke-width: 0px; fill: rgb(239, 85, 59); fill-opacity: 1;"/><path class="point" transform="translate(260.84,276.04)" d="M3,0A3,3 0 1,1 0,-3A3,3 0 0,1 3,0Z" style="opacity: 1; stroke-width: 0px; fill: rgb(239, 85, 59); fill-opacity: 1;"/><path class="point" transform="translate(282.52,274.77)" d="M3,0A3,3 0 1,1 0,-3A3,3 0 0,1 3,0Z" style="opacity: 1; stroke-width: 0px; fill: rgb(239, 85, 59); fill-opacity: 1;"/><path class="point" transform="translate(266.37,274.34)" d="M3,0A3,3 0 1,1 0,-3A3,3 0 0,1 3,0Z" style="opacity: 1; stroke-width: 0px; fill: rgb(239, 85, 59); fill-opacity: 1;"/><path class="point" transform="translate(260,273.93)" d="M3,0A3,3 0 1,1 0,-3A3,3 0 0,1 3,0Z" style="opacity: 1; stroke-width: 0px; fill: rgb(239, 85, 59); fill-opacity: 1;"/><path class="point" transform="translate(265.99,273.58)" d="M3,0A3,3 0 1,1 0,-3A3,3 0 0,1 3,0Z" style="opacity: 1; stroke-width: 0px; fill: rgb(239, 85, 59); fill-opacity: 1;"/><path class="point" transform="translate(269.47,273.53)" d="M3,0A3,3 0 1,1 0,-3A3,3 0 0,1 3,0Z" style="opacity: 1; stroke-width: 0px; fill: rgb(239, 85, 59); fill-opacity: 1;"/><path class="point" transform="translate(275.25,273.13)" d="M3,0A3,3 0 1,1 0,-3A3,3 0 0,1 3,0Z" style="opacity: 1; stroke-width: 0px; fill: rgb(239, 85, 59); fill-opacity: 1;"/><path class="point" transform="translate(271.14,272.46)" d="M3,0A3,3 0 1,1 0,-3A3,3 0 0,1 3,0Z" style="opacity: 1; stroke-width: 0px; fill: rgb(239, 85, 59); fill-opacity: 1;"/><path class="point" transform="translate(266.42,270.59)" d="M3,0A3,3 0 1,1 0,-3A3,3 0 0,1 3,0Z" style="opacity: 1; stroke-width: 0px; fill: rgb(239, 85, 59); fill-opacity: 1;"/><path class="point" transform="translate(261.8,270.33)" d="M3,0A3,3 0 1,1 0,-3A3,3 0 0,1 3,0Z" style="opacity: 1; stroke-width: 0px; fill: rgb(239, 85, 59); fill-opacity: 1;"/><path class="point" transform="translate(269.68,269.91)" d="M3,0A3,3 0 1,1 0,-3A3,3 0 0,1 3,0Z" style="opacity: 1; stroke-width: 0px; fill: rgb(239, 85, 59); fill-opacity: 1;"/><path class="point" transform="translate(267.17,269.86)" d="M3,0A3,3 0 1,1 0,-3A3,3 0 0,1 3,0Z" style="opacity: 1; stroke-width: 0px; fill: rgb(239, 85, 59); fill-opacity: 1;"/><path class="point" transform="translate(273.73,269.86)" d="M3,0A3,3 0 1,1 0,-3A3,3 0 0,1 3,0Z" style="opacity: 1; stroke-width: 0px; fill: rgb(239, 85, 59); fill-opacity: 1;"/><path class="point" transform="translate(268.87,268.43)" d="M3,0A3,3 0 1,1 0,-3A3,3 0 0,1 3,0Z" style="opacity: 1; stroke-width: 0px; fill: rgb(239, 85, 59); fill-opacity: 1;"/><path class="point" transform="translate(263.44,265.24)" d="M3,0A3,3 0 1,1 0,-3A3,3 0 0,1 3,0Z" style="opacity: 1; stroke-width: 0px; fill: rgb(239, 85, 59); fill-opacity: 1;"/><path class="point" transform="translate(260.54,263.66)" d="M3,0A3,3 0 1,1 0,-3A3,3 0 0,1 3,0Z" style="opacity: 1; stroke-width: 0px; fill: rgb(239, 85, 59); fill-opacity: 1;"/><path class="point" transform="translate(275.22,263.22)" d="M3,0A3,3 0 1,1 0,-3A3,3 0 0,1 3,0Z" style="opacity: 1; stroke-width: 0px; fill: rgb(239, 85, 59); fill-opacity: 1;"/><path class="point" transform="translate(261.42,262.5)" d="M3,0A3,3 0 1,1 0,-3A3,3 0 0,1 3,0Z" style="opacity: 1; stroke-width: 0px; fill: rgb(239, 85, 59); fill-opacity: 1;"/><path class="point" transform="translate(275.99,262.21)" d="M3,0A3,3 0 1,1 0,-3A3,3 0 0,1 3,0Z" style="opacity: 1; stroke-width: 0px; fill: rgb(239, 85, 59); fill-opacity: 1;"/><path class="point" transform="translate(272.51,262.21)" d="M3,0A3,3 0 1,1 0,-3A3,3 0 0,1 3,0Z" style="opacity: 1; stroke-width: 0px; fill: rgb(239, 85, 59); fill-opacity: 1;"/><path class="point" transform="translate(266.15,262.19)" d="M3,0A3,3 0 1,1 0,-3A3,3 0 0,1 3,0Z" style="opacity: 1; stroke-width: 0px; fill: rgb(239, 85, 59); fill-opacity: 1;"/><path class="point" transform="translate(262.49,262.08)" d="M3,0A3,3 0 1,1 0,-3A3,3 0 0,1 3,0Z" style="opacity: 1; stroke-width: 0px; fill: rgb(239, 85, 59); fill-opacity: 1;"/><path class="point" transform="translate(275.3,261.95)" d="M3,0A3,3 0 1,1 0,-3A3,3 0 0,1 3,0Z" style="opacity: 1; stroke-width: 0px; fill: rgb(239, 85, 59); fill-opacity: 1;"/><path class="point" transform="translate(268.37,261.78)" d="M3,0A3,3 0 1,1 0,-3A3,3 0 0,1 3,0Z" style="opacity: 1; stroke-width: 0px; fill: rgb(239, 85, 59); fill-opacity: 1;"/><path class="point" transform="translate(278.13,260.73)" d="M3,0A3,3 0 1,1 0,-3A3,3 0 0,1 3,0Z" style="opacity: 1; stroke-width: 0px; fill: rgb(239, 85, 59); fill-opacity: 1;"/><path class="point" transform="translate(259.59,258.41)" d="M3,0A3,3 0 1,1 0,-3A3,3 0 0,1 3,0Z" style="opacity: 1; stroke-width: 0px; fill: rgb(239, 85, 59); fill-opacity: 1;"/><path class="point" transform="translate(272.57,258.21)" d="M3,0A3,3 0 1,1 0,-3A3,3 0 0,1 3,0Z" style="opacity: 1; stroke-width: 0px; fill: rgb(239, 85, 59); fill-opacity: 1;"/><path class="point" transform="translate(269.36,257.67)" d="M3,0A3,3 0 1,1 0,-3A3,3 0 0,1 3,0Z" style="opacity: 1; stroke-width: 0px; fill: rgb(239, 85, 59); fill-opacity: 1;"/><path class="point" transform="translate(268.76,257.41)" d="M3,0A3,3 0 1,1 0,-3A3,3 0 0,1 3,0Z" style="opacity: 1; stroke-width: 0px; fill: rgb(239, 85, 59); fill-opacity: 1;"/><path class="point" transform="translate(267.32,257.26)" d="M3,0A3,3 0 1,1 0,-3A3,3 0 0,1 3,0Z" style="opacity: 1; stroke-width: 0px; fill: rgb(239, 85, 59); fill-opacity: 1;"/><path class="point" transform="translate(268.89,257.04)" d="M3,0A3,3 0 1,1 0,-3A3,3 0 0,1 3,0Z" style="opacity: 1; stroke-width: 0px; fill: rgb(239, 85, 59); fill-opacity: 1;"/><path class="point" transform="translate(271.03,225.17)" d="M3,0A3,3 0 1,1 0,-3A3,3 0 0,1 3,0Z" style="opacity: 1; stroke-width: 0px; fill: rgb(239, 85, 59); fill-opacity: 1;"/><path class="point" transform="translate(269.26,219.61)" d="M3,0A3,3 0 1,1 0,-3A3,3 0 0,1 3,0Z" style="opacity: 1; stroke-width: 0px; fill: rgb(239, 85, 59); fill-opacity: 1;"/><path class="point" transform="translate(268.34,133.44)" d="M3,0A3,3 0 1,1 0,-3A3,3 0 0,1 3,0Z" style="opacity: 1; stroke-width: 0px; fill: rgb(239, 85, 59); fill-opacity: 1;"/><path class="point" transform="translate(270.49,133.44)" d="M3,0A3,3 0 1,1 0,-3A3,3 0 0,1 3,0Z" style="opacity: 1; stroke-width: 0px; fill: rgb(239, 85, 59); fill-opacity: 1;"/><path class="point" transform="translate(268.91,87.33)" d="M3,0A3,3 0 1,1 0,-3A3,3 0 0,1 3,0Z" style="opacity: 1; stroke-width: 0px; fill: rgb(239, 85, 59); fill-opacity: 1;"/></g></g></g></g><g class="overplot"/><path class="xlines-above crisp" d="" style="fill: none; stroke-width: 1px; stroke: rgb(0, 0, 0); stroke-opacity: 0;"/><path class="ylines-above crisp" d="" style="fill: none; stroke-width: 1px; stroke: rgb(0, 0, 0); stroke-opacity: 0;"/><g class="overlines-above"/><g class="xaxislayer-above"><path class="xtick ticks crisp" d="M0,421v5" transform="translate(200.75,0)" style="stroke: rgb(51, 51, 51); stroke-opacity: 1; stroke-width: 1px;"/><path class="xtick ticks crisp" d="M0,421v5" transform="translate(436.25,0)" style="stroke: rgb(51, 51, 51); stroke-opacity: 1; stroke-width: 1px;"/><g class="xtick"><text text-anchor="middle" x="0" y="440.4" transform="translate(200.75,0)" style="font-family: 'Open Sans', verdana, arial, sans-serif; font-size: 12px; fill: rgb(51, 51, 51); fill-opacity: 1; white-space: pre; opacity: 1;">aisy_id_mlp</text></g><g class="xtick"><text text-anchor="middle" x="0" y="440.4" transform="translate(436.25,0)" style="font-family: 'Open Sans', verdana, arial, sans-serif; font-size: 12px; fill: rgb(51, 51, 51); fill-opacity: 1; white-space: pre; opacity: 1;">aisy_hw_mlp</text></g></g><g class="yaxislayer-above"><path class="ytick ticks crisp" d="M79,0h-5" transform="translate(0,402.44)" style="stroke: rgb(51, 51, 51); stroke-opacity: 1; stroke-width: 1px;"/><path class="ytick ticks crisp" d="M79,0h-5" transform="translate(0,344.64)" style="stroke: rgb(51, 51, 51); stroke-opacity: 1; stroke-width: 1px;"/><path class="ytick ticks crisp" d="M79,0h-5" transform="translate(0,286.83000000000004)" style="stroke: rgb(51, 51, 51); stroke-opacity: 1; stroke-width: 1px;"/><path class="ytick ticks crisp" d="M79,0h-5" transform="translate(0,229.03)" style="stroke: rgb(51, 51, 51); stroke-opacity: 1; stroke-width: 1px;"/><path class="ytick ticks crisp" d="M79,0h-5" transform="translate(0,171.22)" style="stroke: rgb(51, 51, 51); stroke-opacity: 1; stroke-width: 1px;"/><path class="ytick ticks crisp" d="M79,0h-5" transform="translate(0,113.41)" style="stroke: rgb(51, 51, 51); stroke-opacity: 1; stroke-width: 1px;"/><g class="ytick"><text text-anchor="end" x="71.6" y="4.199999999999999" transform="translate(0,402.44)" style="font-family: 'Open Sans', verdana, arial, sans-serif; font-size: 12px; fill: rgb(51, 51, 51); fill-opacity: 1; white-space: pre; opacity: 1;">0</text></g><g class="ytick"><text text-anchor="end" x="71.6" y="4.199999999999999" style="font-family: 'Open Sans', verdana, arial, sans-serif; font-size: 12px; fill: rgb(51, 51, 51); fill-opacity: 1; white-space: pre; opacity: 1;" transform="translate(0,344.64)">10k</text></g><g class="ytick"><text text-anchor="end" x="71.6" y="4.199999999999999" style="font-family: 'Open Sans', verdana, arial, sans-serif; font-size: 12px; fill: rgb(51, 51, 51); fill-opacity: 1; white-space: pre; opacity: 1;" transform="translate(0,286.83000000000004)">20k</text></g><g class="ytick"><text text-anchor="end" x="71.6" y="4.199999999999999" style="font-family: 'Open Sans', verdana, arial, sans-serif; font-size: 12px; fill: rgb(51, 51, 51); fill-opacity: 1; white-space: pre; opacity: 1;" transform="translate(0,229.03)">30k</text></g><g class="ytick"><text text-anchor="end" x="71.6" y="4.199999999999999" style="font-family: 'Open Sans', verdana, arial, sans-serif; font-size: 12px; fill: rgb(51, 51, 51); fill-opacity: 1; white-space: pre; opacity: 1;" transform="translate(0,171.22)">40k</text></g><g class="ytick"><text text-anchor="end" x="71.6" y="4.199999999999999" style="font-family: 'Open Sans', verdana, arial, sans-serif; font-size: 12px; fill: rgb(51, 51, 51); fill-opacity: 1; white-space: pre; opacity: 1;" transform="translate(0,113.41)">50k</text></g></g><g class="overaxes-above"/></g></g><g class="polarlayer"/><g class="ternarylayer"/><g class="geolayer"/><g class="funnelarealayer"/><g class="pielayer"/><g class="iciclelayer"/><g class="treemaplayer"/><g class="sunburstlayer"/><g class="glimages"/><defs id="topdefs-eeb3e4"><g class="clips"/><clipPath id="legendeeb3e4"><rect width="125" height="67" x="0" y="0"/></clipPath></defs><g class="layer-above"><g class="imagelayer"/><g class="shapelayer"/></g><g class="infolayer"><g class="legend" pointer-events="all" transform="translate(563.48,100)"><rect class="bg" shape-rendering="crispEdges" width="125" height="67" x="0" y="0" style="stroke: rgb(68, 68, 68); stroke-opacity: 1; fill: rgb(255, 255, 255); fill-opacity: 1; stroke-width: 0px;"/><g class="scrollbox" transform="" clip-path="url(#legendeeb3e4)"><text class="legendtitletext" text-anchor="start" x="2" y="18.2" style="font-family: 'Open Sans', verdana, arial, sans-serif; font-size: 14px; fill: rgb(51, 51, 51); fill-opacity: 1; white-space: pre;">model</text><g class="groups" transform=""><g class="traces" transform="translate(0,32.7)" style="opacity: 1;"><text class="legendtext" text-anchor="start" x="40" y="4.680000000000001" style="font-family: 'Open Sans', verdana, arial, sans-serif; font-size: 12px; fill: rgb(51, 51, 51); fill-opacity: 1; white-space: pre;">aisy_id_mlp</text><g class="layers" style="opacity: 1;"><g class="legendfill"/><g class="legendlines"/><g class="legendsymbols"><g class="legendpoints"><path class="legendbox" d="M6,6H-6V-6H6Z" transform="translate(20,0)" style="stroke-width: 2px; fill: rgb(99, 110, 250); fill-opacity: 0.5; stroke: rgb(99, 110, 250); stroke-opacity: 1;"/></g></g></g><rect class="legendtoggle" x="0" y="-9.5" width="119.4375" height="19" style="fill: rgb(0, 0, 0); fill-opacity: 0;"/></g></g><g class="groups" transform=""><g class="traces" transform="translate(0,51.7)" style="opacity: 1;"><text class="legendtext" text-anchor="start" x="40" y="4.680000000000001" style="font-family: 'Open Sans', verdana, arial, sans-serif; font-size: 12px; fill: rgb(51, 51, 51); fill-opacity: 1; white-space: pre;">aisy_hw_mlp</text><g class="layers" style="opacity: 1;"><g class="legendfill"/><g class="legendlines"/><g class="legendsymbols"><g class="legendpoints"><path class="legendbox" d="M6,6H-6V-6H6Z" transform="translate(20,0)" style="stroke-width: 2px; fill: rgb(239, 85, 59); fill-opacity: 0.5; stroke: rgb(239, 85, 59); stroke-opacity: 1;"/></g></g></g><rect class="legendtoggle" x="0" y="-9.5" width="119.4375" height="19" style="fill: rgb(0, 0, 0); fill-opacity: 0;"/></g></g></g><rect class="scrollbar" rx="20" ry="3" width="0" height="0" x="0" y="0" style="fill: rgb(128, 139, 164); fill-opacity: 1;"/></g><g class="g-gtitle"><text class="gtitle" x="350" y="50" text-anchor="middle" dy="0em" style="font-family: 'Open Sans', verdana, arial, sans-serif; font-size: 17px; fill: rgb(51, 51, 51); opacity: 1; font-weight: normal; white-space: pre;">Distribution of min traces needed for average rank to be zero</text></g><g class="g-xtitle"><text class="xtitle" x="317" y="468.20625" text-anchor="middle" style="font-family: 'Open Sans', verdana, arial, sans-serif; font-size: 14px; fill: rgb(51, 51, 51); opacity: 1; font-weight: normal; white-space: pre;">model</text></g><g class="g-ytitle"><text class="ytitle" transform="rotate(-90,24.434375000000003,260)" x="24.434375000000003" y="260" text-anchor="middle" style="font-family: 'Open Sans', verdana, arial, sans-serif; font-size: 14px; fill: rgb(51, 51, 51); opacity: 1; font-weight: normal; white-space: pre;">min traces needed for average rank to be zero</text></g><g class="annotation" data-index="0" style="opacity: 1;"><g class="annotation-text-g" transform="rotate(0,200.75,125)"><g class="cursor-pointer" transform="translate(156,100)"><rect class="bg" x="0.5" y="0.5" width="89" height="49" style="stroke-width: 1px; stroke: rgb(0, 128, 0); stroke-opacity: 1; fill: rgb(144, 238, 144); fill-opacity: 1;"/><text class="annotation-text" text-anchor="middle" x="44.90625" y="14" style="font-family: 'Open Sans', verdana, arial, sans-serif; font-size: 12px; fill: rgb(51, 51, 51); fill-opacity: 1; white-space: pre;"><tspan class="line" dy="0em" x="44.90625" y="14"> All passed </tspan><tspan class="line" dy="1.3em" x="44.90625" y="14">min: 1271.0</tspan><tspan class="line" dy="2.6em" x="44.90625" y="14">max: 18423.0</tspan></text></g></g></g><g class="annotation" data-index="1" style="opacity: 1;"><g class="annotation-text-g" transform="rotate(0,436.25,125)"><g class="cursor-pointer" transform="translate(391,100)"><rect class="bg" x="0.5" y="0.5" width="89" height="49" style="stroke-width: 1px; stroke: rgb(0, 128, 0); stroke-opacity: 1; fill: rgb(144, 238, 144); fill-opacity: 1;"/><text class="annotation-text" text-anchor="middle" x="44.90625" y="14" style="font-family: 'Open Sans', verdana, arial, sans-serif; font-size: 12px; fill: rgb(51, 51, 51); fill-opacity: 1; white-space: pre;"><tspan class="line" dy="0em" x="44.90625" y="14"> All passed </tspan><tspan class="line" dy="1.3em" x="44.90625" y="14">min: 2667.0</tspan><tspan class="line" dy="2.6em" x="44.90625" y="14">max: 37213.0</tspan></text></g></g></g></g></svg>