<svg class="main-svg" xmlns="http://www.w3.org/2000/svg" xmlns:xlink="http://www.w3.org/1999/xlink" width="700" height="500" style="" viewBox="0 0 700 500"><rect x="0" y="0" width="700" height="500" style="fill: rgb(255, 255, 255); fill-opacity: 1;"/><defs id="defs-cfc8eb"><g class="clips"><clipPath id="clipcfc8ebxyplot" class="plotclip"><rect width="540" height="320"/></clipPath><clipPath class="axesclip" id="clipcfc8ebx"><rect x="80" y="0" width="540" height="500"/></clipPath><clipPath class="axesclip" id="clipcfc8eby"><rect x="0" y="100" width="700" height="320"/></clipPath><clipPath class="axesclip" id="clipcfc8ebxy"><rect x="80" y="100" width="540" height="320"/></clipPath></g><g class="gradients"/><g class="patterns"/></defs><g class="bglayer"><rect class="bg" x="80" y="100" width="540" height="320" style="fill: rgb(229, 236, 246); fill-opacity: 1; stroke-width: 0;"/></g><g class="layer-below"><g class="imagelayer"/><g class="shapelayer"/></g><g class="cartesianlayer"><g class="subplot xy"><g class="layer-subplot"><g class="shapelayer"/><g class="imagelayer"/></g><g class="gridlayer"><g class="x"><path class="xgrid crisp" transform="translate(188.43,0)" d="M0,100v320" style="stroke: rgb(255, 255, 255); stroke-opacity: 1; stroke-width: 1px;"/><path class="xgrid crisp" transform="translate(296.87,0)" d="M0,100v320" style="stroke: rgb(255, 255, 255); stroke-opacity: 1; stroke-width: 1px;"/><path class="xgrid crisp" transform="translate(405.3,0)" d="M0,100v320" style="stroke: rgb(255, 255, 255); stroke-opacity: 1; stroke-width: 1px;"/><path class="xgrid crisp" transform="translate(513.73,0)" d="M0,100v320" style="stroke: rgb(255, 255, 255); stroke-opacity: 1; stroke-width: 1px;"/></g><g class="y"><path class="ygrid crisp" transform="translate(0,355.90999999999997)" d="M80,0h540" style="stroke: rgb(255, 255, 255); stroke-opacity: 1; stroke-width: 1px;"/><path class="ygrid crisp" transform="translate(0,291.82)" d="M80,0h540" style="stroke: rgb(255, 255, 255); stroke-opacity: 1; stroke-width: 1px;"/><path class="ygrid crisp" transform="translate(0,227.73000000000002)" d="M80,0h540" style="stroke: rgb(255, 255, 255); stroke-opacity: 1; stroke-width: 1px;"/><path class="ygrid crisp" transform="translate(0,163.64)" d="M80,0h540" style="stroke: rgb(255, 255, 255); stroke-opacity: 1; stroke-width: 1px;"/></g></g><g class="zerolinelayer"><path class="xzl zl crisp" transform="translate(80,0)" d="M0,100v320" style="stroke: rgb(255, 255, 255); stroke-opacity: 1; stroke-width: 2px;"/><path class="yzl zl crisp" transform="translate(0,420)" d="M80,0h540" style="stroke: rgb(255, 255, 255); stroke-opacity: 1; stroke-width: 2px;"/></g><path class="xlines-below"/><path class="ylines-below"/><g class="overlines-below"/><g class="xaxislayer-below"/><g class="yaxislayer-below"/><g class="overaxes-below"/><g class="plot" transform="translate(80,100)" clip-path="url(#clipcfc8ebxyplot)"><g class="scatterlayer mlayer"><g class="trace scatter trace9b5da0" style="stroke-miterlimit: 2; opacity: 1;"><g class="fills"/><g class="errorbars"/><g class="lines"><path class="js-line" d="M0,143.25L2.17,141.28L4.34,148.56L6.51,142.45L8.67,139.88L10.84,133.55L13.01,135.86L15.18,139.65L17.35,147.43L19.52,149.28L21.69,153.66L26.02,147.51L28.19,151L30.36,151.8L32.53,154.38L34.7,151.97L36.87,154.69L41.2,158.19L43.37,158.19L45.54,159.52L47.71,163.88L49.88,168.08L52.05,168.75L54.22,169.65L56.39,166.8L58.55,165.49L60.72,166.08L62.89,169.86L65.06,170.79L67.23,171.94L69.4,171.73L71.57,172.12L73.73,174.91L75.9,175.02L78.07,173.57L80.24,172.31L82.41,172.7L84.58,166.4L86.75,168.45L91.08,166.66L93.25,168.59L95.42,170.08L97.59,169.33L99.76,171.03L101.93,169L104.1,168.54L106.27,170.93L110.6,171.56L112.77,170.06L117.11,172.08L119.28,173.82L121.45,175.93L123.61,175.96L125.78,174.3L127.95,176.04L130.12,176.73L132.29,175.95L136.63,172.54L138.8,173.62L140.96,172.06L143.13,173.57L145.3,170.74L147.47,171.82L149.64,173.67L151.81,172.95L153.98,173.98L156.14,171.91L160.48,172.38L162.65,171.17L164.82,172.49L166.99,172.53L169.16,171.84L171.33,169.71L175.66,169.99L177.83,169.44L180,170.18L182.17,169.35L184.34,169.47L186.51,168.47L188.67,166.51L190.84,167.31L195.18,165.8L197.35,166.16L203.86,164.21L206.02,166.67L210.36,166.44L212.53,165.4L214.7,164.45L216.87,165.6L219.04,165.61L221.2,164.34L223.37,166.38L225.54,166.47L227.71,165.8L229.88,166.35L232.05,163.26L234.22,162.16L236.39,161.33L238.55,162.93L240.72,164.47L242.89,164.79L245.06,163.97L247.23,164.52L258.07,165.63L260.24,165.31L266.75,167.83L268.92,167.67L271.08,166.83L273.25,166.92L275.42,166.39L277.59,166.89L279.76,166.3L281.93,166.8L284.1,167.24L286.27,165.17L290.6,165.53L292.77,165.08L294.94,164.85L297.11,166.98L299.28,166.22L301.45,166.7L303.61,167.36L305.78,166.97L310.12,167.89L312.29,166.34L318.8,165.51L320.96,164.72L325.3,164.99L327.47,164.17L331.81,161.48L333.98,161.66L338.31,161.81L340.48,161.11L342.65,163.15L344.82,163.35L346.99,164.85L349.16,165.42L353.49,164.63L355.66,163.26L364.34,161.53L366.51,162.52L373.01,163.83L375.18,163.08L377.35,162.29L379.52,162.54L381.69,163.03L383.86,161.15L386.02,162.44L388.19,162.03L390.36,161.37L392.53,162.89L396.87,160.92L399.04,161.79L405.54,161.72L407.71,161.01L409.88,161.28L412.05,159.98L414.22,159.54L416.39,160.15L418.55,158.88L420.72,159.31L422.89,160.69L425.06,160.17L429.4,160.21L431.57,159.76L433.73,160.01L435.9,161.02L440.24,160.15L442.41,159.12L444.58,159.17L446.75,160.8L448.92,160.44L451.08,161.72L453.25,161.83L455.42,160.38L457.59,159.61L459.76,160.31L470.6,160.97L472.77,162.08L477.11,162.31L479.28,161.34L485.78,161.83L487.95,163.52L490.12,164.79L492.29,163.58L494.46,163.57L496.63,162.26L500.96,162.29L503.13,163.03L505.3,163.84L507.47,163.25L511.81,162.9L513.98,163.54L516.14,162.83L518.31,163.57L522.65,163.88L524.82,164.13L526.99,163.95L529.16,162.67L535.66,162.6L537.83,161.87L540,161.87" style="vector-effect: non-scaling-stroke; fill: none; stroke: rgb(99, 110, 250); stroke-opacity: 1; stroke-width: 2px; opacity: 1;"/></g><g class="points"/><g class="text"/></g><g class="trace scatter traced1774d" style="stroke-miterlimit: 2; opacity: 1;"><g class="fills"/><g class="errorbars"/><g class="lines"><path class="js-line" d="M0,143.25L2.17,141.28L4.34,148.56L6.51,142.45L8.67,139.88L10.84,133.55L13.01,135.86L15.18,139.65L17.35,147.43L19.52,149.28L21.69,153.66L26.02,147.51L28.19,151L30.36,151.8L32.53,154.38L34.7,151.97L36.87,154.69L41.2,158.19L43.37,158.19L45.54,159.52L47.71,163.88L49.88,168.08L52.05,168.75L54.22,169.65L56.39,166.8L58.55,165.49L60.72,166.08L62.89,169.86L65.06,170.79L67.23,171.94L69.4,171.73L71.57,172.12L73.73,174.91L75.9,175.02L78.07,173.57L80.24,172.31L82.41,172.7L84.58,166.4L86.75,168.45L91.08,166.66L93.25,168.59L95.42,170.08L97.59,169.33L99.76,171.03L101.93,169L104.1,168.54L106.27,170.93L110.6,171.56L112.77,170.06L117.11,172.08L119.28,173.82L121.45,175.93L123.61,175.96L125.78,174.3L127.95,176.04L130.12,176.73L132.29,175.95L136.63,172.54L138.8,173.62L140.96,172.06L143.13,173.57L145.3,170.74L147.47,171.82L149.64,173.67L151.81,172.95L153.98,173.98L156.14,171.91L160.48,172.38L162.65,171.17L164.82,172.49L166.99,172.53L169.16,171.84L171.33,169.71L175.66,169.99L177.83,169.44L180,170.18L182.17,169.35L184.34,169.47L186.51,168.47L188.67,166.51L190.84,167.31L195.18,165.8L197.35,166.16L203.86,164.21L206.02,166.67L210.36,166.44L212.53,165.4L214.7,164.45L216.87,165.6L219.04,165.61L221.2,164.34L223.37,166.38L225.54,166.47L227.71,165.8L229.88,166.35L232.05,163.26L234.22,162.16L236.39,161.33L238.55,162.93L240.72,164.47L242.89,164.79L245.06,163.97L247.23,164.52L258.07,165.63L260.24,165.31L266.75,167.83L268.92,167.67L271.08,166.83L273.25,166.92L275.42,166.39L277.59,166.89L279.76,166.3L281.93,166.8L284.1,167.24L286.27,165.17L290.6,165.53L292.77,165.08L294.94,164.85L297.11,166.98L299.28,166.22L301.45,166.7L303.61,167.36L305.78,166.97L310.12,167.89L312.29,166.34L318.8,165.51L320.96,164.72L325.3,164.99L327.47,164.17L331.81,161.48L333.98,161.66L338.31,161.81L340.48,161.11L342.65,163.15L344.82,163.35L346.99,164.85L349.16,165.42L353.49,164.63L355.66,163.26L364.34,161.53L366.51,162.52L373.01,163.83L375.18,163.08L377.35,162.29L379.52,162.54L381.69,163.03L383.86,161.15L386.02,162.44L388.19,162.03L390.36,161.37L392.53,162.89L396.87,160.92L399.04,161.79L405.54,161.72L407.71,161.01L409.88,161.28L412.05,159.98L414.22,159.54L416.39,160.15L418.55,158.88L420.72,159.31L422.89,160.69L425.06,160.17L429.4,160.21L431.57,159.76L433.73,160.01L435.9,161.02L440.24,160.15L442.41,159.12L444.58,159.17L446.75,160.8L448.92,160.44L451.08,161.72L453.25,161.83L455.42,160.38L457.59,159.61L459.76,160.31L470.6,160.97L472.77,162.08L477.11,162.31L479.28,161.34L485.78,161.83L487.95,163.52L490.12,164.79L492.29,163.58L494.46,163.57L496.63,162.26L500.96,162.29L503.13,163.03L505.3,163.84L507.47,163.25L511.81,162.9L513.98,163.54L516.14,162.83L518.31,163.57L522.65,163.88L524.82,164.13L526.99,163.95L529.16,162.67L535.66,162.6L537.83,161.87L540,161.87" style="vector-effect: non-scaling-stroke; fill: none; stroke: rgb(239, 85, 59); stroke-opacity: 1; stroke-width: 2px; opacity: 1;"/></g><g class="points"/><g class="text"/></g><g class="trace scatter trace42f10b" style="stroke-miterlimit: 2; opacity: 1;"><g class="fills"/><g class="errorbars"/><g class="lines"><path class="js-line" d="M0,143.25L2.17,141.28L4.34,148.56L6.51,142.45L8.67,139.88L10.84,133.55L13.01,135.86L15.18,139.65L17.35,147.43L19.52,149.28L21.69,153.66L26.02,147.51L28.19,151L30.36,151.8L32.53,154.38L34.7,151.97L36.87,154.69L41.2,158.19L43.37,158.19L45.54,159.52L47.71,163.88L49.88,168.08L52.05,168.75L54.22,169.65L56.39,166.8L58.55,165.49L60.72,166.08L62.89,169.86L65.06,170.79L67.23,171.94L69.4,171.73L71.57,172.12L73.73,174.91L75.9,175.02L78.07,173.57L80.24,172.31L82.41,172.7L84.58,166.4L86.75,168.45L91.08,166.66L93.25,168.59L95.42,170.08L97.59,169.33L99.76,171.03L101.93,169L104.1,168.54L106.27,170.93L110.6,171.56L112.77,170.06L117.11,172.08L119.28,173.82L121.45,175.93L123.61,175.96L125.78,174.3L127.95,176.04L130.12,176.73L132.29,175.95L136.63,172.54L138.8,173.62L140.96,172.06L143.13,173.57L145.3,170.74L147.47,171.82L149.64,173.67L151.81,172.95L153.98,173.98L156.14,171.91L160.48,172.38L162.65,171.17L164.82,172.49L166.99,172.53L169.16,171.84L171.33,169.71L175.66,169.99L177.83,169.44L180,170.18L182.17,169.35L184.34,169.47L186.51,168.47L188.67,166.51L190.84,167.31L195.18,165.8L197.35,166.16L203.86,164.21L206.02,166.67L210.36,166.44L212.53,165.4L214.7,164.45L216.87,165.6L219.04,165.61L221.2,164.34L223.37,166.38L225.54,166.47L227.71,165.8L229.88,166.35L232.05,163.26L234.22,162.16L236.39,161.33L238.55,162.93L240.72,164.47L242.89,164.79L245.06,163.97L247.23,164.52L258.07,165.63L260.24,165.31L266.75,167.83L268.92,167.67L271.08,166.83L273.25,166.92L275.42,166.39L277.59,166.89L279.76,166.3L281.93,166.8L284.1,167.24L286.27,165.17L290.6,165.53L292.77,165.08L294.94,164.85L297.11,166.98L299.28,166.22L301.45,166.7L303.61,167.36L305.78,166.97L310.12,167.89L312.29,166.34L318.8,165.51L320.96,164.72L325.3,164.99L327.47,164.17L331.81,161.48L333.98,161.66L338.31,161.81L340.48,161.11L342.65,163.15L344.82,163.35L346.99,164.85L349.16,165.42L353.49,164.63L355.66,163.26L364.34,161.53L366.51,162.52L373.01,163.83L375.18,163.08L377.35,162.29L379.52,162.54L381.69,163.03L383.86,161.15L386.02,162.44L388.19,162.03L390.36,161.37L392.53,162.89L396.87,160.92L399.04,161.79L405.54,161.72L407.71,161.01L409.88,161.28L412.05,159.98L414.22,159.54L416.39,160.15L418.55,158.88L420.72,159.31L422.89,160.69L425.06,160.17L429.4,160.21L431.57,159.76L433.73,160.01L435.9,161.02L440.24,160.15L442.41,159.12L444.58,159.17L446.75,160.8L448.92,160.44L451.08,161.72L453.25,161.83L455.42,160.38L457.59,159.61L459.76,160.31L470.6,160.97L472.77,162.08L477.11,162.31L479.28,161.34L485.78,161.83L487.95,163.52L490.12,164.79L492.29,163.58L494.46,163.57L496.63,162.26L500.96,162.29L503.13,163.03L505.3,163.84L507.47,163.25L511.81,162.9L513.98,163.54L516.14,162.83L518.31,163.57L522.65,163.88L524.82,164.13L526.99,163.95L529.16,162.67L535.66,162.6L537.83,161.87L540,161.87" style="vector-effect: non-scaling-stroke; fill: none; stroke: rgb(0, 204, 150); stroke-opacity: 1; stroke-width: 2px; opacity: 1;"/></g><g class="points"/><g class="text"/></g><g class="trace scatter tracebb6273" style="stroke-miterlimit: 2; opacity: 1;"><g class="fills"/><g class="errorbars"/><g class="lines"><path class="js-line" d="M0,143.25L2.17,141.28L4.34,148.56L6.51,142.45L8.67,139.88L10.84,133.55L13.01,135.86L15.18,139.65L17.35,147.43L19.52,149.28L21.69,153.66L26.02,147.51L28.19,151L30.36,151.8L32.53,154.38L34.7,151.97L36.87,154.69L41.2,158.19L43.37,158.19L45.54,159.52L47.71,163.88L49.88,168.08L52.05,168.75L54.22,169.65L56.39,166.8L58.55,165.49L60.72,166.08L62.89,169.86L65.06,170.79L67.23,171.94L69.4,171.73L71.57,172.12L73.73,174.91L75.9,175.02L78.07,173.57L80.24,172.31L82.41,172.7L84.58,166.4L86.75,168.45L91.08,166.66L93.25,168.59L95.42,170.08L97.59,169.33L99.76,171.03L101.93,169L104.1,168.54L106.27,170.93L110.6,171.56L112.77,170.06L117.11,172.08L119.28,173.82L121.45,175.93L123.61,175.96L125.78,174.3L127.95,176.04L130.12,176.73L132.29,175.95L136.63,172.54L138.8,173.62L140.96,172.06L143.13,173.57L145.3,170.74L147.47,171.82L149.64,173.67L151.81,172.95L153.98,173.98L156.14,171.91L160.48,172.38L162.65,171.17L164.82,172.49L166.99,172.53L169.16,171.84L171.33,169.71L175.66,169.99L177.83,169.44L180,170.18L182.17,169.35L184.34,169.47L186.51,168.47L188.67,166.51L190.84,167.31L195.18,165.8L197.35,166.16L203.86,164.21L206.02,166.67L210.36,166.44L212.53,165.4L214.7,164.45L216.87,165.6L219.04,165.61L221.2,164.34L223.37,166.38L225.54,166.47L227.71,165.8L229.88,166.35L232.05,163.26L234.22,162.16L236.39,161.33L238.55,162.93L240.72,164.47L242.89,164.79L245.06,163.97L247.23,164.52L258.07,165.63L260.24,165.31L266.75,167.83L268.92,167.67L271.08,166.83L273.25,166.92L275.42,166.39L277.59,166.89L279.76,166.3L281.93,166.8L284.1,167.24L286.27,165.17L290.6,165.53L292.77,165.08L294.94,164.85L297.11,166.98L299.28,166.22L301.45,166.7L303.61,167.36L305.78,166.97L310.12,167.89L312.29,166.34L318.8,165.51L320.96,164.72L325.3,164.99L327.47,164.17L331.81,161.48L333.98,161.66L338.31,161.81L340.48,161.11L342.65,163.15L344.82,163.35L346.99,164.85L349.16,165.42L353.49,164.63L355.66,163.26L364.34,161.53L366.51,162.52L373.01,163.83L375.18,163.08L377.35,162.29L379.52,162.54L381.69,163.03L383.86,161.15L386.02,162.44L388.19,162.03L390.36,161.37L392.53,162.89L396.87,160.92L399.04,161.79L405.54,161.72L407.71,161.01L409.88,161.28L412.05,159.98L414.22,159.54L416.39,160.15L418.55,158.88L420.72,159.31L422.89,160.69L425.06,160.17L429.4,160.21L431.57,159.76L433.73,160.01L435.9,161.02L440.24,160.15L442.41,159.12L444.58,159.17L446.75,160.8L448.92,160.44L451.08,161.72L453.25,161.83L455.42,160.38L457.59,159.61L459.76,160.31L470.6,160.97L472.77,162.08L477.11,162.31L479.28,161.34L485.78,161.83L487.95,163.52L490.12,164.79L492.29,163.58L494.46,163.57L496.63,162.26L500.96,162.29L503.13,163.03L505.3,163.84L507.47,163.25L511.81,162.9L513.98,163.54L516.14,162.83L518.31,163.57L522.65,163.88L524.82,164.13L526.99,163.95L529.16,162.67L535.66,162.6L537.83,161.87L540,161.87" style="vector-effect: non-scaling-stroke; fill: none; stroke: rgb(171, 99, 250); stroke-opacity: 1; stroke-width: 2px; opacity: 1;"/></g><g class="points"/><g class="text"/></g><g class="trace scatter tracec31ec2" style="stroke-miterlimit: 2; opacity: 1;"><g class="fills"/><g class="errorbars"/><g class="lines"><path class="js-line" d="M0,143.25L2.17,141.28L4.34,148.56L6.51,142.45L8.67,139.88L10.84,133.55L13.01,135.86L15.18,139.65L17.35,147.43L19.52,149.28L21.69,153.66L26.02,147.51L28.19,151L30.36,151.8L32.53,154.38L34.7,151.97L36.87,154.69L41.2,158.19L43.37,158.19L45.54,159.52L47.71,163.88L49.88,168.08L52.05,168.75L54.22,169.65L56.39,166.8L58.55,165.49L60.72,166.08L62.89,169.86L65.06,170.79L67.23,171.94L69.4,171.73L71.57,172.12L73.73,174.91L75.9,175.02L78.07,173.57L80.24,172.31L82.41,172.7L84.58,166.4L86.75,168.45L91.08,166.66L93.25,168.59L95.42,170.08L97.59,169.33L99.76,171.03L101.93,169L104.1,168.54L106.27,170.93L110.6,171.56L112.77,170.06L117.11,172.08L119.28,173.82L121.45,175.93L123.61,175.96L125.78,174.3L127.95,176.04L130.12,176.73L132.29,175.95L136.63,172.54L138.8,173.62L140.96,172.06L143.13,173.57L145.3,170.74L147.47,171.82L149.64,173.67L151.81,172.95L153.98,173.98L156.14,171.91L160.48,172.38L162.65,171.17L164.82,172.49L166.99,172.53L169.16,171.84L171.33,169.71L175.66,169.99L177.83,169.44L180,170.18L182.17,169.35L184.34,169.47L186.51,168.47L188.67,166.51L190.84,167.31L195.18,165.8L197.35,166.16L203.86,164.21L206.02,166.67L210.36,166.44L212.53,165.4L214.7,164.45L216.87,165.6L219.04,165.61L221.2,164.34L223.37,166.38L225.54,166.47L227.71,165.8L229.88,166.35L232.05,163.26L234.22,162.16L236.39,161.33L238.55,162.93L240.72,164.47L242.89,164.79L245.06,163.97L247.23,164.52L258.07,165.63L260.24,165.31L266.75,167.83L268.92,167.67L271.08,166.83L273.25,166.92L275.42,166.39L277.59,166.89L279.76,166.3L281.93,166.8L284.1,167.24L286.27,165.17L290.6,165.53L292.77,165.08L294.94,164.85L297.11,166.98L299.28,166.22L301.45,166.7L303.61,167.36L305.78,166.97L310.12,167.89L312.29,166.34L318.8,165.51L320.96,164.72L325.3,164.99L327.47,164.17L331.81,161.48L333.98,161.66L338.31,161.81L340.48,161.11L342.65,163.15L344.82,163.35L346.99,164.85L349.16,165.42L353.49,164.63L355.66,163.26L364.34,161.53L366.51,162.52L373.01,163.83L375.18,163.08L377.35,162.29L379.52,162.54L381.69,163.03L383.86,161.15L386.02,162.44L388.19,162.03L390.36,161.37L392.53,162.89L396.87,160.92L399.04,161.79L405.54,161.72L407.71,161.01L409.88,161.28L412.05,159.98L414.22,159.54L416.39,160.15L418.55,158.88L420.72,159.31L422.89,160.69L425.06,160.17L429.4,160.21L431.57,159.76L433.73,160.01L435.9,161.02L440.24,160.15L442.41,159.12L444.58,159.17L446.75,160.8L448.92,160.44L451.08,161.72L453.25,161.83L455.42,160.38L457.59,159.61L459.76,160.31L470.6,160.97L472.77,162.08L477.11,162.31L479.28,161.34L485.78,161.83L487.95,163.52L490.12,164.79L492.29,163.58L494.46,163.57L496.63,162.26L500.96,162.29L503.13,163.03L505.3,163.84L507.47,163.25L511.81,162.9L513.98,163.54L516.14,162.83L518.31,163.57L522.65,163.88L524.82,164.13L526.99,163.95L529.16,162.67L535.66,162.6L537.83,161.87L540,161.87" style="vector-effect: non-scaling-stroke; fill: none; stroke: rgb(255, 161, 90); stroke-opacity: 1; stroke-width: 2px; opacity: 1;"/></g><g class="points"/><g class="text"/></g><g class="trace scatter tracee8afe8" style="stroke-miterlimit: 2; opacity: 1;"><g class="fills"/><g class="errorbars"/><g class="lines"><path class="js-line" d="M0,143.25L2.17,141.28L4.34,148.56L6.51,142.45L8.67,139.88L10.84,133.55L13.01,135.86L15.18,139.65L17.35,147.43L19.52,149.28L21.69,153.66L26.02,147.51L28.19,151L30.36,151.8L32.53,154.38L34.7,151.97L36.87,154.69L41.2,158.19L43.37,158.19L45.54,159.52L47.71,163.88L49.88,168.08L52.05,168.75L54.22,169.65L56.39,166.8L58.55,165.49L60.72,166.08L62.89,169.86L65.06,170.79L67.23,171.94L69.4,171.73L71.57,172.12L73.73,174.91L75.9,175.02L78.07,173.57L80.24,172.31L82.41,172.7L84.58,166.4L86.75,168.45L91.08,166.66L93.25,168.59L95.42,170.08L97.59,169.33L99.76,171.03L101.93,169L104.1,168.54L106.27,170.93L110.6,171.56L112.77,170.06L117.11,172.08L119.28,173.82L121.45,175.93L123.61,175.96L125.78,174.3L127.95,176.04L130.12,176.73L132.29,175.95L136.63,172.54L138.8,173.62L140.96,172.06L143.13,173.57L145.3,170.74L147.47,171.82L149.64,173.67L151.81,172.95L153.98,173.98L156.14,171.91L160.48,172.38L162.65,171.17L164.82,172.49L166.99,172.53L169.16,171.84L171.33,169.71L175.66,169.99L177.83,169.44L180,170.18L182.17,169.35L184.34,169.47L186.51,168.47L188.67,166.51L190.84,167.31L195.18,165.8L197.35,166.16L203.86,164.21L206.02,166.67L210.36,166.44L212.53,165.4L214.7,164.45L216.87,165.6L219.04,165.61L221.2,164.34L223.37,166.38L225.54,166.47L227.71,165.8L229.88,166.35L232.05,163.26L234.22,162.16L236.39,161.33L238.55,162.93L240.72,164.47L242.89,164.79L245.06,163.97L247.23,164.52L258.07,165.63L260.24,165.31L266.75,167.83L268.92,167.67L271.08,166.83L273.25,166.92L275.42,166.39L277.59,166.89L279.76,166.3L281.93,166.8L284.1,167.24L286.27,165.17L290.6,165.53L292.77,165.08L294.94,164.85L297.11,166.98L299.28,166.22L301.45,166.7L303.61,167.36L305.78,166.97L310.12,167.89L312.29,166.34L318.8,165.51L320.96,164.72L325.3,164.99L327.47,164.17L331.81,161.48L333.98,161.66L338.31,161.81L340.48,161.11L342.65,163.15L344.82,163.35L346.99,164.85L349.16,165.42L353.49,164.63L355.66,163.26L364.34,161.53L366.51,162.52L373.01,163.83L375.18,163.08L377.35,162.29L379.52,162.54L381.69,163.03L383.86,161.15L386.02,162.44L388.19,162.03L390.36,161.37L392.53,162.89L396.87,160.92L399.04,161.79L405.54,161.72L407.71,161.01L409.88,161.28L412.05,159.98L414.22,159.54L416.39,160.15L418.55,158.88L420.72,159.31L422.89,160.69L425.06,160.17L429.4,160.21L431.57,159.76L433.73,160.01L435.9,161.02L440.24,160.15L442.41,159.12L444.58,159.17L446.75,160.8L448.92,160.44L451.08,161.72L453.25,161.83L455.42,160.38L457.59,159.61L459.76,160.31L470.6,160.97L472.77,162.08L477.11,162.31L479.28,161.34L485.78,161.83L487.95,163.52L490.12,164.79L492.29,163.58L494.46,163.57L496.63,162.26L500.96,162.29L503.13,163.03L505.3,163.84L507.47,163.25L511.81,162.9L513.98,163.54L516.14,162.83L518.31,163.57L522.65,163.88L524.82,164.13L526.99,163.95L529.16,162.67L535.66,162.6L537.83,161.87L540,161.87" style="vector-effect: non-scaling-stroke; fill: none; stroke: rgb(25, 211, 243); stroke-opacity: 1; stroke-width: 2px; opacity: 1;"/></g><g class="points"/><g class="text"/></g><g class="trace scatter tracee41f11" style="stroke-miterlimit: 2; opacity: 1;"><g class="fills"/><g class="errorbars"/><g class="lines"><path class="js-line" d="M0,143.25L2.17,141.28L4.34,148.56L6.51,142.45L8.67,139.88L10.84,133.55L13.01,135.86L15.18,139.65L17.35,147.43L19.52,149.28L21.69,153.66L26.02,147.51L28.19,151L30.36,151.8L32.53,154.38L34.7,151.97L36.87,154.69L41.2,158.19L43.37,158.19L45.54,159.52L47.71,163.88L49.88,168.08L52.05,168.75L54.22,169.65L56.39,166.8L58.55,165.49L60.72,166.08L62.89,169.86L65.06,170.79L67.23,171.94L69.4,171.73L71.57,172.12L73.73,174.91L75.9,175.02L78.07,173.57L80.24,172.31L82.41,172.7L84.58,166.4L86.75,168.45L91.08,166.66L93.25,168.59L95.42,170.08L97.59,169.33L99.76,171.03L101.93,169L104.1,168.54L106.27,170.93L110.6,171.56L112.77,170.06L117.11,172.08L119.28,173.82L121.45,175.93L123.61,175.96L125.78,174.3L127.95,176.04L130.12,176.73L132.29,175.95L136.63,172.54L138.8,173.62L140.96,172.06L143.13,173.57L145.3,170.74L147.47,171.82L149.64,173.67L151.81,172.95L153.98,173.98L156.14,171.91L160.48,172.38L162.65,171.17L164.82,172.49L166.99,172.53L169.16,171.84L171.33,169.71L175.66,169.99L177.83,169.44L180,170.18L182.17,169.35L184.34,169.47L186.51,168.47L188.67,166.51L190.84,167.31L195.18,165.8L197.35,166.16L203.86,164.21L206.02,166.67L210.36,166.44L212.53,165.4L214.7,164.45L216.87,165.6L219.04,165.61L221.2,164.34L223.37,166.38L225.54,166.47L227.71,165.8L229.88,166.35L232.05,163.26L234.22,162.16L236.39,161.33L238.55,162.93L240.72,164.47L242.89,164.79L245.06,163.97L247.23,164.52L258.07,165.63L260.24,165.31L266.75,167.83L268.92,167.67L271.08,166.83L273.25,166.92L275.42,166.39L277.59,166.89L279.76,166.3L281.93,166.8L284.1,167.24L286.27,165.17L290.6,165.53L292.77,165.08L294.94,164.85L297.11,166.98L299.28,166.22L301.45,166.7L303.61,167.36L305.78,166.97L310.12,167.89L312.29,166.34L318.8,165.51L320.96,164.72L325.3,164.99L327.47,164.17L331.81,161.48L333.98,161.66L338.31,161.81L340.48,161.11L342.65,163.15L344.82,163.35L346.99,164.85L349.16,165.42L353.49,164.63L355.66,163.26L364.34,161.53L366.51,162.52L373.01,163.83L375.18,163.08L377.35,162.29L379.52,162.54L381.69,163.03L383.86,161.15L386.02,162.44L388.19,162.03L390.36,161.37L392.53,162.89L396.87,160.92L399.04,161.79L405.54,161.72L407.71,161.01L409.88,161.28L412.05,159.98L414.22,159.54L416.39,160.15L418.55,158.88L420.72,159.31L422.89,160.69L425.06,160.17L429.4,160.21L431.57,159.76L433.73,160.01L435.9,161.02L440.24,160.15L442.41,159.12L444.58,159.17L446.75,160.8L448.92,160.44L451.08,161.72L453.25,161.83L455.42,160.38L457.59,159.61L459.76,160.31L470.6,160.97L472.77,162.08L477.11,162.31L479.28,161.34L485.78,161.83L487.95,163.52L490.12,164.79L492.29,163.58L494.46,163.57L496.63,162.26L500.96,162.29L503.13,163.03L505.3,163.84L507.47,163.25L511.81,162.9L513.98,163.54L516.14,162.83L518.31,163.57L522.65,163.88L524.82,164.13L526.99,163.95L529.16,162.67L535.66,162.6L537.83,161.87L540,161.87" style="vector-effect: non-scaling-stroke; fill: none; stroke: rgb(255, 102, 146); stroke-opacity: 1; stroke-width: 2px; opacity: 1;"/></g><g class="points"/><g class="text"/></g><g class="trace scatter tracee6e490" style="stroke-miterlimit: 2; opacity: 1;"><g class="fills"/><g class="errorbars"/><g class="lines"><path class="js-line" d="M0,143.25L2.17,141.28L4.34,148.56L6.51,142.45L8.67,139.88L10.84,133.55L13.01,135.86L15.18,139.65L17.35,147.43L19.52,149.28L21.69,153.66L26.02,147.51L28.19,151L30.36,151.8L32.53,154.38L34.7,151.97L36.87,154.69L41.2,158.19L43.37,158.19L45.54,159.52L47.71,163.88L49.88,168.08L52.05,168.75L54.22,169.65L56.39,166.8L58.55,165.49L60.72,166.08L62.89,169.86L65.06,170.79L67.23,171.94L69.4,171.73L71.57,172.12L73.73,174.91L75.9,175.02L78.07,173.57L80.24,172.31L82.41,172.7L84.58,166.4L86.75,168.45L91.08,166.66L93.25,168.59L95.42,170.08L97.59,169.33L99.76,171.03L101.93,169L104.1,168.54L106.27,170.93L110.6,171.56L112.77,170.06L117.11,172.08L119.28,173.82L121.45,175.93L123.61,175.96L125.78,174.3L127.95,176.04L130.12,176.73L132.29,175.95L136.63,172.54L138.8,173.62L140.96,172.06L143.13,173.57L145.3,170.74L147.47,171.82L149.64,173.67L151.81,172.95L153.98,173.98L156.14,171.91L160.48,172.38L162.65,171.17L164.82,172.49L166.99,172.53L169.16,171.84L171.33,169.71L175.66,169.99L177.83,169.44L180,170.18L182.17,169.35L184.34,169.47L186.51,168.47L188.67,166.51L190.84,167.31L195.18,165.8L197.35,166.16L203.86,164.21L206.02,166.67L210.36,166.44L212.53,165.4L214.7,164.45L216.87,165.6L219.04,165.61L221.2,164.34L223.37,166.38L225.54,166.47L227.71,165.8L229.88,166.35L232.05,163.26L234.22,162.16L236.39,161.33L238.55,162.93L240.72,164.47L242.89,164.79L245.06,163.97L247.23,164.52L258.07,165.63L260.24,165.31L266.75,167.83L268.92,167.67L271.08,166.83L273.25,166.92L275.42,166.39L277.59,166.89L279.76,166.3L281.93,166.8L284.1,167.24L286.27,165.17L290.6,165.53L292.77,165.08L294.94,164.85L297.11,166.98L299.28,166.22L301.45,166.7L303.61,167.36L305.78,166.97L310.12,167.89L312.29,166.34L318.8,165.51L320.96,164.72L325.3,164.99L327.47,164.17L331.81,161.48L333.98,161.66L338.31,161.81L340.48,161.11L342.65,163.15L344.82,163.35L346.99,164.85L349.16,165.42L353.49,164.63L355.66,163.26L364.34,161.53L366.51,162.52L373.01,163.83L375.18,163.08L377.35,162.29L379.52,162.54L381.69,163.03L383.86,161.15L386.02,162.44L388.19,162.03L390.36,161.37L392.53,162.89L396.87,160.92L399.04,161.79L405.54,161.72L407.71,161.01L409.88,161.28L412.05,159.98L414.22,159.54L416.39,160.15L418.55,158.88L420.72,159.31L422.89,160.69L425.06,160.17L429.4,160.21L431.57,159.76L433.73,160.01L435.9,161.02L440.24,160.15L442.41,159.12L444.58,159.17L446.75,160.8L448.92,160.44L451.08,161.72L453.25,161.83L455.42,160.38L457.59,159.61L459.76,160.31L470.6,160.97L472.77,162.08L477.11,162.31L479.28,161.34L485.78,161.83L487.95,163.52L490.12,164.79L492.29,163.58L494.46,163.57L496.63,162.26L500.96,162.29L503.13,163.03L505.3,163.84L507.47,163.25L511.81,162.9L513.98,163.54L516.14,162.83L518.31,163.57L522.65,163.88L524.82,164.13L526.99,163.95L529.16,162.67L535.66,162.6L537.83,161.87L540,161.87" style="vector-effect: non-scaling-stroke; fill: none; stroke: rgb(182, 232, 128); stroke-opacity: 1; stroke-width: 2px; opacity: 1;"/></g><g class="points"/><g class="text"/></g><g class="trace scatter tracecfc84b" style="stroke-miterlimit: 2; opacity: 1;"><g class="fills"/><g class="errorbars"/><g class="lines"><path class="js-line" d="M0,143.25L2.17,141.28L4.34,148.56L6.51,142.45L8.67,139.88L10.84,133.55L13.01,135.86L15.18,139.65L17.35,147.43L19.52,149.28L21.69,153.66L26.02,147.51L28.19,151L30.36,151.8L32.53,154.38L34.7,151.97L36.87,154.69L41.2,158.19L43.37,158.19L45.54,159.52L47.71,163.88L49.88,168.08L52.05,168.75L54.22,169.65L56.39,166.8L58.55,165.49L60.72,166.08L62.89,169.86L65.06,170.79L67.23,171.94L69.4,171.73L71.57,172.12L73.73,174.91L75.9,175.02L78.07,173.57L80.24,172.31L82.41,172.7L84.58,166.4L86.75,168.45L91.08,166.66L93.25,168.59L95.42,170.08L97.59,169.33L99.76,171.03L101.93,169L104.1,168.54L106.27,170.93L110.6,171.56L112.77,170.06L117.11,172.08L119.28,173.82L121.45,175.93L123.61,175.96L125.78,174.3L127.95,176.04L130.12,176.73L132.29,175.95L136.63,172.54L138.8,173.62L140.96,172.06L143.13,173.57L145.3,170.74L147.47,171.82L149.64,173.67L151.81,172.95L153.98,173.98L156.14,171.91L160.48,172.38L162.65,171.17L164.82,172.49L166.99,172.53L169.16,171.84L171.33,169.71L175.66,169.99L177.83,169.44L180,170.18L182.17,169.35L184.34,169.47L186.51,168.47L188.67,166.51L190.84,167.31L195.18,165.8L197.35,166.16L203.86,164.21L206.02,166.67L210.36,166.44L212.53,165.4L214.7,164.45L216.87,165.6L219.04,165.61L221.2,164.34L223.37,166.38L225.54,166.47L227.71,165.8L229.88,166.35L232.05,163.26L234.22,162.16L236.39,161.33L238.55,162.93L240.72,164.47L242.89,164.79L245.06,163.97L247.23,164.52L258.07,165.63L260.24,165.31L266.75,167.83L268.92,167.67L271.08,166.83L273.25,166.92L275.42,166.39L277.59,166.89L279.76,166.3L281.93,166.8L284.1,167.24L286.27,165.17L290.6,165.53L292.77,165.08L294.94,164.85L297.11,166.98L299.28,166.22L301.45,166.7L303.61,167.36L305.78,166.97L310.12,167.89L312.29,166.34L318.8,165.51L320.96,164.72L325.3,164.99L327.47,164.17L331.81,161.48L333.98,161.66L338.31,161.81L340.48,161.11L342.65,163.15L344.82,163.35L346.99,164.85L349.16,165.42L353.49,164.63L355.66,163.26L364.34,161.53L366.51,162.52L373.01,163.83L375.18,163.08L377.35,162.29L379.52,162.54L381.69,163.03L383.86,161.15L386.02,162.44L388.19,162.03L390.36,161.37L392.53,162.89L396.87,160.92L399.04,161.79L405.54,161.72L407.71,161.01L409.88,161.28L412.05,159.98L414.22,159.54L416.39,160.15L418.55,158.88L420.72,159.31L422.89,160.69L425.06,160.17L429.4,160.21L431.57,159.76L433.73,160.01L435.9,161.02L440.24,160.15L442.41,159.12L444.58,159.17L446.75,160.8L448.92,160.44L451.08,161.72L453.25,161.83L455.42,160.38L457.59,159.61L459.76,160.31L470.6,160.97L472.77,162.08L477.11,162.31L479.28,161.34L485.78,161.83L487.95,163.52L490.12,164.79L492.29,163.58L494.46,163.57L496.63,162.26L500.96,162.29L503.13,163.03L505.3,163.84L507.47,163.25L511.81,162.9L513.98,163.54L516.14,162.83L518.31,163.57L522.65,163.88L524.82,164.13L526.99,163.95L529.16,162.67L535.66,162.6L537.83,161.87L540,161.87" style="vector-effect: non-scaling-stroke; fill: none; stroke: rgb(255, 151, 255); stroke-opacity: 1; stroke-width: 2px; opacity: 1;"/></g><g class="points"/><g class="text"/></g><g class="trace scatter tracedf8bb5" style="stroke-miterlimit: 2; opacity: 1;"><g class="fills"/><g class="errorbars"/><g class="lines"><path class="js-line" d="M0,143.25L2.17,141.28L4.34,148.56L6.51,142.45L8.67,139.88L10.84,133.55L13.01,135.86L15.18,139.65L17.35,147.43L19.52,149.28L21.69,153.66L26.02,147.51L28.19,151L30.36,151.8L32.53,154.38L34.7,151.97L36.87,154.69L41.2,158.19L43.37,158.19L45.54,159.52L47.71,163.88L49.88,168.08L52.05,168.75L54.22,169.65L56.39,166.8L58.55,165.49L60.72,166.08L62.89,169.86L65.06,170.79L67.23,171.94L69.4,171.73L71.57,172.12L73.73,174.91L75.9,175.02L78.07,173.57L80.24,172.31L82.41,172.7L84.58,166.4L86.75,168.45L91.08,166.66L93.25,168.59L95.42,170.08L97.59,169.33L99.76,171.03L101.93,169L104.1,168.54L106.27,170.93L110.6,171.56L112.77,170.06L117.11,172.08L119.28,173.82L121.45,175.93L123.61,175.96L125.78,174.3L127.95,176.04L130.12,176.73L132.29,175.95L136.63,172.54L138.8,173.62L140.96,172.06L143.13,173.57L145.3,170.74L147.47,171.82L149.64,173.67L151.81,172.95L153.98,173.98L156.14,171.91L160.48,172.38L162.65,171.17L164.82,172.49L166.99,172.53L169.16,171.84L171.33,169.71L175.66,169.99L177.83,169.44L180,170.18L182.17,169.35L184.34,169.47L186.51,168.47L188.67,166.51L190.84,167.31L195.18,165.8L197.35,166.16L203.86,164.21L206.02,166.67L210.36,166.44L212.53,165.4L214.7,164.45L216.87,165.6L219.04,165.61L221.2,164.34L223.37,166.38L225.54,166.47L227.71,165.8L229.88,166.35L232.05,163.26L234.22,162.16L236.39,161.33L238.55,162.93L240.72,164.47L242.89,164.79L245.06,163.97L247.23,164.52L258.07,165.63L260.24,165.31L266.75,167.83L268.92,167.67L271.08,166.83L273.25,166.92L275.42,166.39L277.59,166.89L279.76,166.3L281.93,166.8L284.1,167.24L286.27,165.17L290.6,165.53L292.77,165.08L294.94,164.85L297.11,166.98L299.28,166.22L301.45,166.7L303.61,167.36L305.78,166.97L310.12,167.89L312.29,166.34L318.8,165.51L320.96,164.72L325.3,164.99L327.47,164.17L331.81,161.48L333.98,161.66L338.31,161.81L340.48,161.11L342.65,163.15L344.82,163.35L346.99,164.85L349.16,165.42L353.49,164.63L355.66,163.26L364.34,161.53L366.51,162.52L373.01,163.83L375.18,163.08L377.35,162.29L379.52,162.54L381.69,163.03L383.86,161.15L386.02,162.44L388.19,162.03L390.36,161.37L392.53,162.89L396.87,160.92L399.04,161.79L405.54,161.72L407.71,161.01L409.88,161.28L412.05,159.98L414.22,159.54L416.39,160.15L418.55,158.88L420.72,159.31L422.89,160.69L425.06,160.17L429.4,160.21L431.57,159.76L433.73,160.01L435.9,161.02L440.24,160.15L442.41,159.12L444.58,159.17L446.75,160.8L448.92,160.44L451.08,161.72L453.25,161.83L455.42,160.38L457.59,159.61L459.76,160.31L470.6,160.97L472.77,162.08L477.11,162.31L479.28,161.34L485.78,161.83L487.95,163.52L490.12,164.79L492.29,163.58L494.46,163.57L496.63,162.26L500.96,162.29L503.13,163.03L505.3,163.84L507.47,163.25L511.81,162.9L513.98,163.54L516.14,162.83L518.31,163.57L522.65,163.88L524.82,164.13L526.99,163.95L529.16,162.67L535.66,162.6L537.83,161.87L540,161.87" style="vector-effect: non-scaling-stroke; fill: none; stroke: rgb(254, 203, 82); stroke-opacity: 1; stroke-width: 2px; opacity: 1;"/></g><g class="points"/><g class="text"/></g><g class="trace scatter trace33e4b8" style="stroke-miterlimit: 2; opacity: 1;"><g class="fills"/><g class="errorbars"/><g class="lines"><path class="js-line" d="M0,143.25L2.17,141.28L4.34,148.56L6.51,142.45L8.67,139.88L10.84,133.55L13.01,135.86L15.18,139.65L17.35,147.43L19.52,149.28L21.69,153.66L26.02,147.51L28.19,151L30.36,151.8L32.53,154.38L34.7,151.97L36.87,154.69L41.2,158.19L43.37,158.19L45.54,159.52L47.71,163.88L49.88,168.08L52.05,168.75L54.22,169.65L56.39,166.8L58.55,165.49L60.72,166.08L62.89,169.86L65.06,170.79L67.23,171.94L69.4,171.73L71.57,172.12L73.73,174.91L75.9,175.02L78.07,173.57L80.24,172.31L82.41,172.7L84.58,166.4L86.75,168.45L91.08,166.66L93.25,168.59L95.42,170.08L97.59,169.33L99.76,171.03L101.93,169L104.1,168.54L106.27,170.93L110.6,171.56L112.77,170.06L117.11,172.08L119.28,173.82L121.45,175.93L123.61,175.96L125.78,174.3L127.95,176.04L130.12,176.73L132.29,175.95L136.63,172.54L138.8,173.62L140.96,172.06L143.13,173.57L145.3,170.74L147.47,171.82L149.64,173.67L151.81,172.95L153.98,173.98L156.14,171.91L160.48,172.38L162.65,171.17L164.82,172.49L166.99,172.53L169.16,171.84L171.33,169.71L175.66,169.99L177.83,169.44L180,170.18L182.17,169.35L184.34,169.47L186.51,168.47L188.67,166.51L190.84,167.31L195.18,165.8L197.35,166.16L203.86,164.21L206.02,166.67L210.36,166.44L212.53,165.4L214.7,164.45L216.87,165.6L219.04,165.61L221.2,164.34L223.37,166.38L225.54,166.47L227.71,165.8L229.88,166.35L232.05,163.26L234.22,162.16L236.39,161.33L238.55,162.93L240.72,164.47L242.89,164.79L245.06,163.97L247.23,164.52L258.07,165.63L260.24,165.31L266.75,167.83L268.92,167.67L271.08,166.83L273.25,166.92L275.42,166.39L277.59,166.89L279.76,166.3L281.93,166.8L284.1,167.24L286.27,165.17L290.6,165.53L292.77,165.08L294.94,164.85L297.11,166.98L299.28,166.22L301.45,166.7L303.61,167.36L305.78,166.97L310.12,167.89L312.29,166.34L318.8,165.51L320.96,164.72L325.3,164.99L327.47,164.17L331.81,161.48L333.98,161.66L338.31,161.81L340.48,161.11L342.65,163.15L344.82,163.35L346.99,164.85L349.16,165.42L353.49,164.63L355.66,163.26L364.34,161.53L366.51,162.52L373.01,163.83L375.18,163.08L377.35,162.29L379.52,162.54L381.69,163.03L383.86,161.15L386.02,162.44L388.19,162.03L390.36,161.37L392.53,162.89L396.87,160.92L399.04,161.79L405.54,161.72L407.71,161.01L409.88,161.28L412.05,159.98L414.22,159.54L416.39,160.15L418.55,158.88L420.72,159.31L422.89,160.69L425.06,160.17L429.4,160.21L431.57,159.76L433.73,160.01L435.9,161.02L440.24,160.15L442.41,159.12L444.58,159.17L446.75,160.8L448.92,160.44L451.08,161.72L453.25,161.83L455.42,160.38L457.59,159.61L459.76,160.31L470.6,160.97L472.77,162.08L477.11,162.31L479.28,161.34L485.78,161.83L487.95,163.52L490.12,164.79L492.29,163.58L494.46,163.57L496.63,162.26L500.96,162.29L503.13,163.03L505.3,163.84L507.47,163.25L511.81,162.9L513.98,163.54L516.14,162.83L518.31,163.57L522.65,163.88L524.82,164.13L526.99,163.95L529.16,162.67L535.66,162.6L537.83,161.87L540,161.87" style="vector-effect: non-scaling-stroke; fill: none; stroke: rgb(99, 110, 250); stroke-opacity: 1; stroke-width: 2px; opacity: 1;"/></g><g class="points"/><g class="text"/></g><g class="trace scatter trace055bb4" style="stroke-miterlimit: 2; opacity: 1;"><g class="fills"/><g class="errorbars"/><g class="lines"><path class="js-line" d="M0,143.25L2.17,141.28L4.34,148.56L6.51,142.45L8.67,139.88L10.84,133.55L13.01,135.86L15.18,139.65L17.35,147.43L19.52,149.28L21.69,153.66L26.02,147.51L28.19,151L30.36,151.8L32.53,154.38L34.7,151.97L36.87,154.69L41.2,158.19L43.37,158.19L45.54,159.52L47.71,163.88L49.88,168.08L52.05,168.75L54.22,169.65L56.39,166.8L58.55,165.49L60.72,166.08L62.89,169.86L65.06,170.79L67.23,171.94L69.4,171.73L71.57,172.12L73.73,174.91L75.9,175.02L78.07,173.57L80.24,172.31L82.41,172.7L84.58,166.4L86.75,168.45L91.08,166.66L93.25,168.59L95.42,170.08L97.59,169.33L99.76,171.03L101.93,169L104.1,168.54L106.27,170.93L110.6,171.56L112.77,170.06L117.11,172.08L119.28,173.82L121.45,175.93L123.61,175.96L125.78,174.3L127.95,176.04L130.12,176.73L132.29,175.95L136.63,172.54L138.8,173.62L140.96,172.06L143.13,173.57L145.3,170.74L147.47,171.82L149.64,173.67L151.81,172.95L153.98,173.98L156.14,171.91L160.48,172.38L162.65,171.17L164.82,172.49L166.99,172.53L169.16,171.84L171.33,169.71L175.66,169.99L177.83,169.44L180,170.18L182.17,169.35L184.34,169.47L186.51,168.47L188.67,166.51L190.84,167.31L195.18,165.8L197.35,166.16L203.86,164.21L206.02,166.67L210.36,166.44L212.53,165.4L214.7,164.45L216.87,165.6L219.04,165.61L221.2,164.34L223.37,166.38L225.54,166.47L227.71,165.8L229.88,166.35L232.05,163.26L234.22,162.16L236.39,161.33L238.55,162.93L240.72,164.47L242.89,164.79L245.06,163.97L247.23,164.52L258.07,165.63L260.24,165.31L266.75,167.83L268.92,167.67L271.08,166.83L273.25,166.92L275.42,166.39L277.59,166.89L279.76,166.3L281.93,166.8L284.1,167.24L286.27,165.17L290.6,165.53L292.77,165.08L294.94,164.85L297.11,166.98L299.28,166.22L301.45,166.7L303.61,167.36L305.78,166.97L310.12,167.89L312.29,166.34L318.8,165.51L320.96,164.72L325.3,164.99L327.47,164.17L331.81,161.48L333.98,161.66L338.31,161.81L340.48,161.11L342.65,163.15L344.82,163.35L346.99,164.85L349.16,165.42L353.49,164.63L355.66,163.26L364.34,161.53L366.51,162.52L373.01,163.83L375.18,163.08L377.35,162.29L379.52,162.54L381.69,163.03L383.86,161.15L386.02,162.44L388.19,162.03L390.36,161.37L392.53,162.89L396.87,160.92L399.04,161.79L405.54,161.72L407.71,161.01L409.88,161.28L412.05,159.98L414.22,159.54L416.39,160.15L418.55,158.88L420.72,159.31L422.89,160.69L425.06,160.17L429.4,160.21L431.57,159.76L433.73,160.01L435.9,161.02L440.24,160.15L442.41,159.12L444.58,159.17L446.75,160.8L448.92,160.44L451.08,161.72L453.25,161.83L455.42,160.38L457.59,159.61L459.76,160.31L470.6,160.97L472.77,162.08L477.11,162.31L479.28,161.34L485.78,161.83L487.95,163.52L490.12,164.79L492.29,163.58L494.46,163.57L496.63,162.26L500.96,162.29L503.13,163.03L505.3,163.84L507.47,163.25L511.81,162.9L513.98,163.54L516.14,162.83L518.31,163.57L522.65,163.88L524.82,164.13L526.99,163.95L529.16,162.67L535.66,162.6L537.83,161.87L540,161.87" style="vector-effect: non-scaling-stroke; fill: none; stroke: rgb(239, 85, 59); stroke-opacity: 1; stroke-width: 2px; opacity: 1;"/></g><g class="points"/><g class="text"/></g><g class="trace scatter tracedf0fdd" style="stroke-miterlimit: 2; opacity: 1;"><g class="fills"/><g class="errorbars"/><g class="lines"><path class="js-line" d="M0,143.25L2.17,141.28L4.34,148.56L6.51,142.45L8.67,139.88L10.84,133.55L13.01,135.86L15.18,139.65L17.35,147.43L19.52,149.28L21.69,153.66L26.02,147.51L28.19,151L30.36,151.8L32.53,154.38L34.7,151.97L36.87,154.69L41.2,158.19L43.37,158.19L45.54,159.52L47.71,163.88L49.88,168.08L52.05,168.75L54.22,169.65L56.39,166.8L58.55,165.49L60.72,166.08L62.89,169.86L65.06,170.79L67.23,171.94L69.4,171.73L71.57,172.12L73.73,174.91L75.9,175.02L78.07,173.57L80.24,172.31L82.41,172.7L84.58,166.4L86.75,168.45L91.08,166.66L93.25,168.59L95.42,170.08L97.59,169.33L99.76,171.03L101.93,169L104.1,168.54L106.27,170.93L110.6,171.56L112.77,170.06L117.11,172.08L119.28,173.82L121.45,175.93L123.61,175.96L125.78,174.3L127.95,176.04L130.12,176.73L132.29,175.95L136.63,172.54L138.8,173.62L140.96,172.06L143.13,173.57L145.3,170.74L147.47,171.82L149.64,173.67L151.81,172.95L153.98,173.98L156.14,171.91L160.48,172.38L162.65,171.17L164.82,172.49L166.99,172.53L169.16,171.84L171.33,169.71L175.66,169.99L177.83,169.44L180,170.18L182.17,169.35L184.34,169.47L186.51,168.47L188.67,166.51L190.84,167.31L195.18,165.8L197.35,166.16L203.86,164.21L206.02,166.67L210.36,166.44L212.53,165.4L214.7,164.45L216.87,165.6L219.04,165.61L221.2,164.34L223.37,166.38L225.54,166.47L227.71,165.8L229.88,166.35L232.05,163.26L234.22,162.16L236.39,161.33L238.55,162.93L240.72,164.47L242.89,164.79L245.06,163.97L247.23,164.52L258.07,165.63L260.24,165.31L266.75,167.83L268.92,167.67L271.08,166.83L273.25,166.92L275.42,166.39L277.59,166.89L279.76,166.3L281.93,166.8L284.1,167.24L286.27,165.17L290.6,165.53L292.77,165.08L294.94,164.85L297.11,166.98L299.28,166.22L301.45,166.7L303.61,167.36L305.78,166.97L310.12,167.89L312.29,166.34L318.8,165.51L320.96,164.72L325.3,164.99L327.47,164.17L331.81,161.48L333.98,161.66L338.31,161.81L340.48,161.11L342.65,163.15L344.82,163.35L346.99,164.85L349.16,165.42L353.49,164.63L355.66,163.26L364.34,161.53L366.51,162.52L373.01,163.83L375.18,163.08L377.35,162.29L379.52,162.54L381.69,163.03L383.86,161.15L386.02,162.44L388.19,162.03L390.36,161.37L392.53,162.89L396.87,160.92L399.04,161.79L405.54,161.72L407.71,161.01L409.88,161.28L412.05,159.98L414.22,159.54L416.39,160.15L418.55,158.88L420.72,159.31L422.89,160.69L425.06,160.17L429.4,160.21L431.57,159.76L433.73,160.01L435.9,161.02L440.24,160.15L442.41,159.12L444.58,159.17L446.75,160.8L448.92,160.44L451.08,161.72L453.25,161.83L455.42,160.38L457.59,159.61L459.76,160.31L470.6,160.97L472.77,162.08L477.11,162.31L479.28,161.34L485.78,161.83L487.95,163.52L490.12,164.79L492.29,163.58L494.46,163.57L496.63,162.26L500.96,162.29L503.13,163.03L505.3,163.84L507.47,163.25L511.81,162.9L513.98,163.54L516.14,162.83L518.31,163.57L522.65,163.88L524.82,164.13L526.99,163.95L529.16,162.67L535.66,162.6L537.83,161.87L540,161.87" style="vector-effect: non-scaling-stroke; fill: none; stroke: rgb(0, 204, 150); stroke-opacity: 1; stroke-width: 2px; opacity: 1;"/></g><g class="points"/><g class="text"/></g><g class="trace scatter trace12931e" style="stroke-miterlimit: 2; opacity: 1;"><g class="fills"/><g class="errorbars"/><g class="lines"><path class="js-line" d="M0,143.25L2.17,141.28L4.34,148.56L6.51,142.45L8.67,139.88L10.84,133.55L13.01,135.86L15.18,139.65L17.35,147.43L19.52,149.28L21.69,153.66L26.02,147.51L28.19,151L30.36,151.8L32.53,154.38L34.7,151.97L36.87,154.69L41.2,158.19L43.37,158.19L45.54,159.52L47.71,163.88L49.88,168.08L52.05,168.75L54.22,169.65L56.39,166.8L58.55,165.49L60.72,166.08L62.89,169.86L65.06,170.79L67.23,171.94L69.4,171.73L71.57,172.12L73.73,174.91L75.9,175.02L78.07,173.57L80.24,172.31L82.41,172.7L84.58,166.4L86.75,168.45L91.08,166.66L93.25,168.59L95.42,170.08L97.59,169.33L99.76,171.03L101.93,169L104.1,168.54L106.27,170.93L110.6,171.56L112.77,170.06L117.11,172.08L119.28,173.82L121.45,175.93L123.61,175.96L125.78,174.3L127.95,176.04L130.12,176.73L132.29,175.95L136.63,172.54L138.8,173.62L140.96,172.06L143.13,173.57L145.3,170.74L147.47,171.82L149.64,173.67L151.81,172.95L153.98,173.98L156.14,171.91L160.48,172.38L162.65,171.17L164.82,172.49L166.99,172.53L169.16,171.84L171.33,169.71L175.66,169.99L177.83,169.44L180,170.18L182.17,169.35L184.34,169.47L186.51,168.47L188.67,166.51L190.84,167.31L195.18,165.8L197.35,166.16L203.86,164.21L206.02,166.67L210.36,166.44L212.53,165.4L214.7,164.45L216.87,165.6L219.04,165.61L221.2,164.34L223.37,166.38L225.54,166.47L227.71,165.8L229.88,166.35L232.05,163.26L234.22,162.16L236.39,161.33L238.55,162.93L240.72,164.47L242.89,164.79L245.06,163.97L247.23,164.52L258.07,165.63L260.24,165.31L266.75,167.83L268.92,167.67L271.08,166.83L273.25,166.92L275.42,166.39L277.59,166.89L279.76,166.3L281.93,166.8L284.1,167.24L286.27,165.17L290.6,165.53L292.77,165.08L294.94,164.85L297.11,166.98L299.28,166.22L301.45,166.7L303.61,167.36L305.78,166.97L310.12,167.89L312.29,166.34L318.8,165.51L320.96,164.72L325.3,164.99L327.47,164.17L331.81,161.48L333.98,161.66L338.31,161.81L340.48,161.11L342.65,163.15L344.82,163.35L346.99,164.85L349.16,165.42L353.49,164.63L355.66,163.26L364.34,161.53L366.51,162.52L373.01,163.83L375.18,163.08L377.35,162.29L379.52,162.54L381.69,163.03L383.86,161.15L386.02,162.44L388.19,162.03L390.36,161.37L392.53,162.89L396.87,160.92L399.04,161.79L405.54,161.72L407.71,161.01L409.88,161.28L412.05,159.98L414.22,159.54L416.39,160.15L418.55,158.88L420.72,159.31L422.89,160.69L425.06,160.17L429.4,160.21L431.57,159.76L433.73,160.01L435.9,161.02L440.24,160.15L442.41,159.12L444.58,159.17L446.75,160.8L448.92,160.44L451.08,161.72L453.25,161.83L455.42,160.38L457.59,159.61L459.76,160.31L470.6,160.97L472.77,162.08L477.11,162.31L479.28,161.34L485.78,161.83L487.95,163.52L490.12,164.79L492.29,163.58L494.46,163.57L496.63,162.26L500.96,162.29L503.13,163.03L505.3,163.84L507.47,163.25L511.81,162.9L513.98,163.54L516.14,162.83L518.31,163.57L522.65,163.88L524.82,164.13L526.99,163.95L529.16,162.67L535.66,162.6L537.83,161.87L540,161.87" style="vector-effect: non-scaling-stroke; fill: none; stroke: rgb(171, 99, 250); stroke-opacity: 1; stroke-width: 2px; opacity: 1;"/></g><g class="points"/><g class="text"/></g><g class="trace scatter tracef182dc" style="stroke-miterlimit: 2; opacity: 1;"><g class="fills"/><g class="errorbars"/><g class="lines"><path class="js-line" d="M0,143.25L2.17,141.28L4.34,148.56L6.51,142.45L8.67,139.88L10.84,133.55L13.01,135.86L15.18,139.65L17.35,147.43L19.52,149.28L21.69,153.66L26.02,147.51L28.19,151L30.36,151.8L32.53,154.38L34.7,151.97L36.87,154.69L41.2,158.19L43.37,158.19L45.54,159.52L47.71,163.88L49.88,168.08L52.05,168.75L54.22,169.65L56.39,166.8L58.55,165.49L60.72,166.08L62.89,169.86L65.06,170.79L67.23,171.94L69.4,171.73L71.57,172.12L73.73,174.91L75.9,175.02L78.07,173.57L80.24,172.31L82.41,172.7L84.58,166.4L86.75,168.45L91.08,166.66L93.25,168.59L95.42,170.08L97.59,169.33L99.76,171.03L101.93,169L104.1,168.54L106.27,170.93L110.6,171.56L112.77,170.06L117.11,172.08L119.28,173.82L121.45,175.93L123.61,175.96L125.78,174.3L127.95,176.04L130.12,176.73L132.29,175.95L136.63,172.54L138.8,173.62L140.96,172.06L143.13,173.57L145.3,170.74L147.47,171.82L149.64,173.67L151.81,172.95L153.98,173.98L156.14,171.91L160.48,172.38L162.65,171.17L164.82,172.49L166.99,172.53L169.16,171.84L171.33,169.71L175.66,169.99L177.83,169.44L180,170.18L182.17,169.35L184.34,169.47L186.51,168.47L188.67,166.51L190.84,167.31L195.18,165.8L197.35,166.16L203.86,164.21L206.02,166.67L210.36,166.44L212.53,165.4L214.7,164.45L216.87,165.6L219.04,165.61L221.2,164.34L223.37,166.38L225.54,166.47L227.71,165.8L229.88,166.35L232.05,163.26L234.22,162.16L236.39,161.33L238.55,162.93L240.72,164.47L242.89,164.79L245.06,163.97L247.23,164.52L258.07,165.63L260.24,165.31L266.75,167.83L268.92,167.67L271.08,166.83L273.25,166.92L275.42,166.39L277.59,166.89L279.76,166.3L281.93,166.8L284.1,167.24L286.27,165.17L290.6,165.53L292.77,165.08L294.94,164.85L297.11,166.98L299.28,166.22L301.45,166.7L303.61,167.36L305.78,166.97L310.12,167.89L312.29,166.34L318.8,165.51L320.96,164.72L325.3,164.99L327.47,164.17L331.81,161.48L333.98,161.66L338.31,161.81L340.48,161.11L342.65,163.15L344.82,163.35L346.99,164.85L349.16,165.42L353.49,164.63L355.66,163.26L364.34,161.53L366.51,162.52L373.01,163.83L375.18,163.08L377.35,162.29L379.52,162.54L381.69,163.03L383.86,161.15L386.02,162.44L388.19,162.03L390.36,161.37L392.53,162.89L396.87,160.92L399.04,161.79L405.54,161.72L407.71,161.01L409.88,161.28L412.05,159.98L414.22,159.54L416.39,160.15L418.55,158.88L420.72,159.31L422.89,160.69L425.06,160.17L429.4,160.21L431.57,159.76L433.73,160.01L435.9,161.02L440.24,160.15L442.41,159.12L444.58,159.17L446.75,160.8L448.92,160.44L451.08,161.72L453.25,161.83L455.42,160.38L457.59,159.61L459.76,160.31L470.6,160.97L472.77,162.08L477.11,162.31L479.28,161.34L485.78,161.83L487.95,163.52L490.12,164.79L492.29,163.58L494.46,163.57L496.63,162.26L500.96,162.29L503.13,163.03L505.3,163.84L507.47,163.25L511.81,162.9L513.98,163.54L516.14,162.83L518.31,163.57L522.65,163.88L524.82,164.13L526.99,163.95L529.16,162.67L535.66,162.6L537.83,161.87L540,161.87" style="vector-effect: non-scaling-stroke; fill: none; stroke: rgb(255, 161, 90); stroke-opacity: 1; stroke-width: 2px; opacity: 1;"/></g><g class="points"/><g class="text"/></g><g class="trace scatter trace3130d5" style="stroke-miterlimit: 2; opacity: 1;"><g class="fills"/><g class="errorbars"/><g class="lines"><path class="js-line" d="M0,143.25L2.17,141.28L4.34,148.56L6.51,142.45L8.67,139.88L10.84,133.55L13.01,135.86L15.18,139.65L17.35,147.43L19.52,149.28L21.69,153.66L26.02,147.51L28.19,151L30.36,151.8L32.53,154.38L34.7,151.97L36.87,154.69L41.2,158.19L43.37,158.19L45.54,159.52L47.71,163.88L49.88,168.08L52.05,168.75L54.22,169.65L56.39,166.8L58.55,165.49L60.72,166.08L62.89,169.86L65.06,170.79L67.23,171.94L69.4,171.73L71.57,172.12L73.73,174.91L75.9,175.02L78.07,173.57L80.24,172.31L82.41,172.7L84.58,166.4L86.75,168.45L91.08,166.66L93.25,168.59L95.42,170.08L97.59,169.33L99.76,171.03L101.93,169L104.1,168.54L106.27,170.93L110.6,171.56L112.77,170.06L117.11,172.08L119.28,173.82L121.45,175.93L123.61,175.96L125.78,174.3L127.95,176.04L130.12,176.73L132.29,175.95L136.63,172.54L138.8,173.62L140.96,172.06L143.13,173.57L145.3,170.74L147.47,171.82L149.64,173.67L151.81,172.95L153.98,173.98L156.14,171.91L160.48,172.38L162.65,171.17L164.82,172.49L166.99,172.53L169.16,171.84L171.33,169.71L175.66,169.99L177.83,169.44L180,170.18L182.17,169.35L184.34,169.47L186.51,168.47L188.67,166.51L190.84,167.31L195.18,165.8L197.35,166.16L203.86,164.21L206.02,166.67L210.36,166.44L212.53,165.4L214.7,164.45L216.87,165.6L219.04,165.61L221.2,164.34L223.37,166.38L225.54,166.47L227.71,165.8L229.88,166.35L232.05,163.26L234.22,162.16L236.39,161.33L238.55,162.93L240.72,164.47L242.89,164.79L245.06,163.97L247.23,164.52L258.07,165.63L260.24,165.31L266.75,167.83L268.92,167.67L271.08,166.83L273.25,166.92L275.42,166.39L277.59,166.89L279.76,166.3L281.93,166.8L284.1,167.24L286.27,165.17L290.6,165.53L292.77,165.08L294.94,164.85L297.11,166.98L299.28,166.22L301.45,166.7L303.61,167.36L305.78,166.97L310.12,167.89L312.29,166.34L318.8,165.51L320.96,164.72L325.3,164.99L327.47,164.17L331.81,161.48L333.98,161.66L338.31,161.81L340.48,161.11L342.65,163.15L344.82,163.35L346.99,164.85L349.16,165.42L353.49,164.63L355.66,163.26L364.34,161.53L366.51,162.52L373.01,163.83L375.18,163.08L377.35,162.29L379.52,162.54L381.69,163.03L383.86,161.15L386.02,162.44L388.19,162.03L390.36,161.37L392.53,162.89L396.87,160.92L399.04,161.79L405.54,161.72L407.71,161.01L409.88,161.28L412.05,159.98L414.22,159.54L416.39,160.15L418.55,158.88L420.72,159.31L422.89,160.69L425.06,160.17L429.4,160.21L431.57,159.76L433.73,160.01L435.9,161.02L440.24,160.15L442.41,159.12L444.58,159.17L446.75,160.8L448.92,160.44L451.08,161.72L453.25,161.83L455.42,160.38L457.59,159.61L459.76,160.31L470.6,160.97L472.77,162.08L477.11,162.31L479.28,161.34L485.78,161.83L487.95,163.52L490.12,164.79L492.29,163.58L494.46,163.57L496.63,162.26L500.96,162.29L503.13,163.03L505.3,163.84L507.47,163.25L511.81,162.9L513.98,163.54L516.14,162.83L518.31,163.57L522.65,163.88L524.82,164.13L526.99,163.95L529.16,162.67L535.66,162.6L537.83,161.87L540,161.87" style="vector-effect: non-scaling-stroke; fill: none; stroke: rgb(25, 211, 243); stroke-opacity: 1; stroke-width: 2px; opacity: 1;"/></g><g class="points"/><g class="text"/></g><g class="trace scatter trace647bdf" style="stroke-miterlimit: 2; opacity: 1;"><g class="fills"/><g class="errorbars"/><g class="lines"><path class="js-line" d="M0,143.25L2.17,141.28L4.34,148.56L6.51,142.45L8.67,139.88L10.84,133.55L13.01,135.86L15.18,139.65L17.35,147.43L19.52,149.28L21.69,153.66L26.02,147.51L28.19,151L30.36,151.8L32.53,154.38L34.7,151.97L36.87,154.69L41.2,158.19L43.37,158.19L45.54,159.52L47.71,163.88L49.88,168.08L52.05,168.75L54.22,169.65L56.39,166.8L58.55,165.49L60.72,166.08L62.89,169.86L65.06,170.79L67.23,171.94L69.4,171.73L71.57,172.12L73.73,174.91L75.9,175.02L78.07,173.57L80.24,172.31L82.41,172.7L84.58,166.4L86.75,168.45L91.08,166.66L93.25,168.59L95.42,170.08L97.59,169.33L99.76,171.03L101.93,169L104.1,168.54L106.27,170.93L110.6,171.56L112.77,170.06L117.11,172.08L119.28,173.82L121.45,175.93L123.61,175.96L125.78,174.3L127.95,176.04L130.12,176.73L132.29,175.95L136.63,172.54L138.8,173.62L140.96,172.06L143.13,173.57L145.3,170.74L147.47,171.82L149.64,173.67L151.81,172.95L153.98,173.98L156.14,171.91L160.48,172.38L162.65,171.17L164.82,172.49L166.99,172.53L169.16,171.84L171.33,169.71L175.66,169.99L177.83,169.44L180,170.18L182.17,169.35L184.34,169.47L186.51,168.47L188.67,166.51L190.84,167.31L195.18,165.8L197.35,166.16L203.86,164.21L206.02,166.67L210.36,166.44L212.53,165.4L214.7,164.45L216.87,165.6L219.04,165.61L221.2,164.34L223.37,166.38L225.54,166.47L227.71,165.8L229.88,166.35L232.05,163.26L234.22,162.16L236.39,161.33L238.55,162.93L240.72,164.47L242.89,164.79L245.06,163.97L247.23,164.52L258.07,165.63L260.24,165.31L266.75,167.83L268.92,167.67L271.08,166.83L273.25,166.92L275.42,166.39L277.59,166.89L279.76,166.3L281.93,166.8L284.1,167.24L286.27,165.17L290.6,165.53L292.77,165.08L294.94,164.85L297.11,166.98L299.28,166.22L301.45,166.7L303.61,167.36L305.78,166.97L310.12,167.89L312.29,166.34L318.8,165.51L320.96,164.72L325.3,164.99L327.47,164.17L331.81,161.48L333.98,161.66L338.31,161.81L340.48,161.11L342.65,163.15L344.82,163.35L346.99,164.85L349.16,165.42L353.49,164.63L355.66,163.26L364.34,161.53L366.51,162.52L373.01,163.83L375.18,163.08L377.35,162.29L379.52,162.54L381.69,163.03L383.86,161.15L386.02,162.44L388.19,162.03L390.36,161.37L392.53,162.89L396.87,160.92L399.04,161.79L405.54,161.72L407.71,161.01L409.88,161.28L412.05,159.98L414.22,159.54L416.39,160.15L418.55,158.88L420.72,159.31L422.89,160.69L425.06,160.17L429.4,160.21L431.57,159.76L433.73,160.01L435.9,161.02L440.24,160.15L442.41,159.12L444.58,159.17L446.75,160.8L448.92,160.44L451.08,161.72L453.25,161.83L455.42,160.38L457.59,159.61L459.76,160.31L470.6,160.97L472.77,162.08L477.11,162.31L479.28,161.34L485.78,161.83L487.95,163.52L490.12,164.79L492.29,163.58L494.46,163.57L496.63,162.26L500.96,162.29L503.13,163.03L505.3,163.84L507.47,163.25L511.81,162.9L513.98,163.54L516.14,162.83L518.31,163.57L522.65,163.88L524.82,164.13L526.99,163.95L529.16,162.67L535.66,162.6L537.83,161.87L540,161.87" style="vector-effect: non-scaling-stroke; fill: none; stroke: rgb(255, 102, 146); stroke-opacity: 1; stroke-width: 2px; opacity: 1;"/></g><g class="points"/><g class="text"/></g><g class="trace scatter trace51aada" style="stroke-miterlimit: 2; opacity: 1;"><g class="fills"/><g class="errorbars"/><g class="lines"><path class="js-line" d="M0,143.25L2.17,141.28L4.34,148.56L6.51,142.45L8.67,139.88L10.84,133.55L13.01,135.86L15.18,139.65L17.35,147.43L19.52,149.28L21.69,153.66L26.02,147.51L28.19,151L30.36,151.8L32.53,154.38L34.7,151.97L36.87,154.69L41.2,158.19L43.37,158.19L45.54,159.52L47.71,163.88L49.88,168.08L52.05,168.75L54.22,169.65L56.39,166.8L58.55,165.49L60.72,166.08L62.89,169.86L65.06,170.79L67.23,171.94L69.4,171.73L71.57,172.12L73.73,174.91L75.9,175.02L78.07,173.57L80.24,172.31L82.41,172.7L84.58,166.4L86.75,168.45L91.08,166.66L93.25,168.59L95.42,170.08L97.59,169.33L99.76,171.03L101.93,169L104.1,168.54L106.27,170.93L110.6,171.56L112.77,170.06L117.11,172.08L119.28,173.82L121.45,175.93L123.61,175.96L125.78,174.3L127.95,176.04L130.12,176.73L132.29,175.95L136.63,172.54L138.8,173.62L140.96,172.06L143.13,173.57L145.3,170.74L147.47,171.82L149.64,173.67L151.81,172.95L153.98,173.98L156.14,171.91L160.48,172.38L162.65,171.17L164.82,172.49L166.99,172.53L169.16,171.84L171.33,169.71L175.66,169.99L177.83,169.44L180,170.18L182.17,169.35L184.34,169.47L186.51,168.47L188.67,166.51L190.84,167.31L195.18,165.8L197.35,166.16L203.86,164.21L206.02,166.67L210.36,166.44L212.53,165.4L214.7,164.45L216.87,165.6L219.04,165.61L221.2,164.34L223.37,166.38L225.54,166.47L227.71,165.8L229.88,166.35L232.05,163.26L234.22,162.16L236.39,161.33L238.55,162.93L240.72,164.47L242.89,164.79L245.06,163.97L247.23,164.52L258.07,165.63L260.24,165.31L266.75,167.83L268.92,167.67L271.08,166.83L273.25,166.92L275.42,166.39L277.59,166.89L279.76,166.3L281.93,166.8L284.1,167.24L286.27,165.17L290.6,165.53L292.77,165.08L294.94,164.85L297.11,166.98L299.28,166.22L301.45,166.7L303.61,167.36L305.78,166.97L310.12,167.89L312.29,166.34L318.8,165.51L320.96,164.72L325.3,164.99L327.47,164.17L331.81,161.48L333.98,161.66L338.31,161.81L340.48,161.11L342.65,163.15L344.82,163.35L346.99,164.85L349.16,165.42L353.49,164.63L355.66,163.26L364.34,161.53L366.51,162.52L373.01,163.83L375.18,163.08L377.35,162.29L379.52,162.54L381.69,163.03L383.86,161.15L386.02,162.44L388.19,162.03L390.36,161.37L392.53,162.89L396.87,160.92L399.04,161.79L405.54,161.72L407.71,161.01L409.88,161.28L412.05,159.98L414.22,159.54L416.39,160.15L418.55,158.88L420.72,159.31L422.89,160.69L425.06,160.17L429.4,160.21L431.57,159.76L433.73,160.01L435.9,161.02L440.24,160.15L442.41,159.12L444.58,159.17L446.75,160.8L448.92,160.44L451.08,161.72L453.25,161.83L455.42,160.38L457.59,159.61L459.76,160.31L470.6,160.97L472.77,162.08L477.11,162.31L479.28,161.34L485.78,161.83L487.95,163.52L490.12,164.79L492.29,163.58L494.46,163.57L496.63,162.26L500.96,162.29L503.13,163.03L505.3,163.84L507.47,163.25L511.81,162.9L513.98,163.54L516.14,162.83L518.31,163.57L522.65,163.88L524.82,164.13L526.99,163.95L529.16,162.67L535.66,162.6L537.83,161.87L540,161.87" style="vector-effect: non-scaling-stroke; fill: none; stroke: rgb(182, 232, 128); stroke-opacity: 1; stroke-width: 2px; opacity: 1;"/></g><g class="points"/><g class="text"/></g><g class="trace scatter trace192327" style="stroke-miterlimit: 2; opacity: 1;"><g class="fills"/><g class="errorbars"/><g class="lines"><path class="js-line" d="M0,143.25L2.17,141.28L4.34,148.56L6.51,142.45L8.67,139.88L10.84,133.55L13.01,135.86L15.18,139.65L17.35,147.43L19.52,149.28L21.69,153.66L26.02,147.51L28.19,151L30.36,151.8L32.53,154.38L34.7,151.97L36.87,154.69L41.2,158.19L43.37,158.19L45.54,159.52L47.71,163.88L49.88,168.08L52.05,168.75L54.22,169.65L56.39,166.8L58.55,165.49L60.72,166.08L62.89,169.86L65.06,170.79L67.23,171.94L69.4,171.73L71.57,172.12L73.73,174.91L75.9,175.02L78.07,173.57L80.24,172.31L82.41,172.7L84.58,166.4L86.75,168.45L91.08,166.66L93.25,168.59L95.42,170.08L97.59,169.33L99.76,171.03L101.93,169L104.1,168.54L106.27,170.93L110.6,171.56L112.77,170.06L117.11,172.08L119.28,173.82L121.45,175.93L123.61,175.96L125.78,174.3L127.95,176.04L130.12,176.73L132.29,175.95L136.63,172.54L138.8,173.62L140.96,172.06L143.13,173.57L145.3,170.74L147.47,171.82L149.64,173.67L151.81,172.95L153.98,173.98L156.14,171.91L160.48,172.38L162.65,171.17L164.82,172.49L166.99,172.53L169.16,171.84L171.33,169.71L175.66,169.99L177.83,169.44L180,170.18L182.17,169.35L184.34,169.47L186.51,168.47L188.67,166.51L190.84,167.31L195.18,165.8L197.35,166.16L203.86,164.21L206.02,166.67L210.36,166.44L212.53,165.4L214.7,164.45L216.87,165.6L219.04,165.61L221.2,164.34L223.37,166.38L225.54,166.47L227.71,165.8L229.88,166.35L232.05,163.26L234.22,162.16L236.39,161.33L238.55,162.93L240.72,164.47L242.89,164.79L245.06,163.97L247.23,164.52L258.07,165.63L260.24,165.31L266.75,167.83L268.92,167.67L271.08,166.83L273.25,166.92L275.42,166.39L277.59,166.89L279.76,166.3L281.93,166.8L284.1,167.24L286.27,165.17L290.6,165.53L292.77,165.08L294.94,164.85L297.11,166.98L299.28,166.22L301.45,166.7L303.61,167.36L305.78,166.97L310.12,167.89L312.29,166.34L318.8,165.51L320.96,164.72L325.3,164.99L327.47,164.17L331.81,161.48L333.98,161.66L338.31,161.81L340.48,161.11L342.65,163.15L344.82,163.35L346.99,164.85L349.16,165.42L353.49,164.63L355.66,163.26L364.34,161.53L366.51,162.52L373.01,163.83L375.18,163.08L377.35,162.29L379.52,162.54L381.69,163.03L383.86,161.15L386.02,162.44L388.19,162.03L390.36,161.37L392.53,162.89L396.87,160.92L399.04,161.79L405.54,161.72L407.71,161.01L409.88,161.28L412.05,159.98L414.22,159.54L416.39,160.15L418.55,158.88L420.72,159.31L422.89,160.69L425.06,160.17L429.4,160.21L431.57,159.76L433.73,160.01L435.9,161.02L440.24,160.15L442.41,159.12L444.58,159.17L446.75,160.8L448.92,160.44L451.08,161.72L453.25,161.83L455.42,160.38L457.59,159.61L459.76,160.31L470.6,160.97L472.77,162.08L477.11,162.31L479.28,161.34L485.78,161.83L487.95,163.52L490.12,164.79L492.29,163.58L494.46,163.57L496.63,162.26L500.96,162.29L503.13,163.03L505.3,163.84L507.47,163.25L511.81,162.9L513.98,163.54L516.14,162.83L518.31,163.57L522.65,163.88L524.82,164.13L526.99,163.95L529.16,162.67L535.66,162.6L537.83,161.87L540,161.87" style="vector-effect: non-scaling-stroke; fill: none; stroke: rgb(255, 151, 255); stroke-opacity: 1; stroke-width: 2px; opacity: 1;"/></g><g class="points"/><g class="text"/></g><g class="trace scatter trace900db6" style="stroke-miterlimit: 2; opacity: 1;"><g class="fills"/><g class="errorbars"/><g class="lines"><path class="js-line" d="M0,143.25L2.17,141.28L4.34,148.56L6.51,142.45L8.67,139.88L10.84,133.55L13.01,135.86L15.18,139.65L17.35,147.43L19.52,149.28L21.69,153.66L26.02,147.51L28.19,151L30.36,151.8L32.53,154.38L34.7,151.97L36.87,154.69L41.2,158.19L43.37,158.19L45.54,159.52L47.71,163.88L49.88,168.08L52.05,168.75L54.22,169.65L56.39,166.8L58.55,165.49L60.72,166.08L62.89,169.86L65.06,170.79L67.23,171.94L69.4,171.73L71.57,172.12L73.73,174.91L75.9,175.02L78.07,173.57L80.24,172.31L82.41,172.7L84.58,166.4L86.75,168.45L91.08,166.66L93.25,168.59L95.42,170.08L97.59,169.33L99.76,171.03L101.93,169L104.1,168.54L106.27,170.93L110.6,171.56L112.77,170.06L117.11,172.08L119.28,173.82L121.45,175.93L123.61,175.96L125.78,174.3L127.95,176.04L130.12,176.73L132.29,175.95L136.63,172.54L138.8,173.62L140.96,172.06L143.13,173.57L145.3,170.74L147.47,171.82L149.64,173.67L151.81,172.95L153.98,173.98L156.14,171.91L160.48,172.38L162.65,171.17L164.82,172.49L166.99,172.53L169.16,171.84L171.33,169.71L175.66,169.99L177.83,169.44L180,170.18L182.17,169.35L184.34,169.47L186.51,168.47L188.67,166.51L190.84,167.31L195.18,165.8L197.35,166.16L203.86,164.21L206.02,166.67L210.36,166.44L212.53,165.4L214.7,164.45L216.87,165.6L219.04,165.61L221.2,164.34L223.37,166.38L225.54,166.47L227.71,165.8L229.88,166.35L232.05,163.26L234.22,162.16L236.39,161.33L238.55,162.93L240.72,164.47L242.89,164.79L245.06,163.97L247.23,164.52L258.07,165.63L260.24,165.31L266.75,167.83L268.92,167.67L271.08,166.83L273.25,166.92L275.42,166.39L277.59,166.89L279.76,166.3L281.93,166.8L284.1,167.24L286.27,165.17L290.6,165.53L292.77,165.08L294.94,164.85L297.11,166.98L299.28,166.22L301.45,166.7L303.61,167.36L305.78,166.97L310.12,167.89L312.29,166.34L318.8,165.51L320.96,164.72L325.3,164.99L327.47,164.17L331.81,161.48L333.98,161.66L338.31,161.81L340.48,161.11L342.65,163.15L344.82,163.35L346.99,164.85L349.16,165.42L353.49,164.63L355.66,163.26L364.34,161.53L366.51,162.52L373.01,163.83L375.18,163.08L377.35,162.29L379.52,162.54L381.69,163.03L383.86,161.15L386.02,162.44L388.19,162.03L390.36,161.37L392.53,162.89L396.87,160.92L399.04,161.79L405.54,161.72L407.71,161.01L409.88,161.28L412.05,159.98L414.22,159.54L416.39,160.15L418.55,158.88L420.72,159.31L422.89,160.69L425.06,160.17L429.4,160.21L431.57,159.76L433.73,160.01L435.9,161.02L440.24,160.15L442.41,159.12L444.58,159.17L446.75,160.8L448.92,160.44L451.08,161.72L453.25,161.83L455.42,160.38L457.59,159.61L459.76,160.31L470.6,160.97L472.77,162.08L477.11,162.31L479.28,161.34L485.78,161.83L487.95,163.52L490.12,164.79L492.29,163.58L494.46,163.57L496.63,162.26L500.96,162.29L503.13,163.03L505.3,163.84L507.47,163.25L511.81,162.9L513.98,163.54L516.14,162.83L518.31,163.57L522.65,163.88L524.82,164.13L526.99,163.95L529.16,162.67L535.66,162.6L537.83,161.87L540,161.87" style="vector-effect: non-scaling-stroke; fill: none; stroke: rgb(254, 203, 82); stroke-opacity: 1; stroke-width: 2px; opacity: 1;"/></g><g class="points"/><g class="text"/></g></g></g><g class="overplot"/><path class="xlines-above crisp" d="M0,0" style="fill: none;"/><path class="ylines-above crisp" d="M0,0" style="fill: none;"/><g class="overlines-above"/><g class="xaxislayer-above"><g class="xtick"><text text-anchor="middle" x="0" y="433" transform="translate(80,0)" style="font-family: 'Open Sans', verdana, arial, sans-serif; font-size: 12px; fill: rgb(42, 63, 95); fill-opacity: 1; white-space: pre; opacity: 1;">0</text></g><g class="xtick"><text text-anchor="middle" x="0" y="433" style="font-family: 'Open Sans', verdana, arial, sans-serif; font-size: 12px; fill: rgb(42, 63, 95); fill-opacity: 1; white-space: pre; opacity: 1;" transform="translate(188.43,0)">50</text></g><g class="xtick"><text text-anchor="middle" x="0" y="433" style="font-family: 'Open Sans', verdana, arial, sans-serif; font-size: 12px; fill: rgb(42, 63, 95); fill-opacity: 1; white-space: pre; opacity: 1;" transform="translate(296.87,0)">100</text></g><g class="xtick"><text text-anchor="middle" x="0" y="433" style="font-family: 'Open Sans', verdana, arial, sans-serif; font-size: 12px; fill: rgb(42, 63, 95); fill-opacity: 1; white-space: pre; opacity: 1;" transform="translate(405.3,0)">150</text></g><g class="xtick"><text text-anchor="middle" x="0" y="433" style="font-family: 'Open Sans', verdana, arial, sans-serif; font-size: 12px; fill: rgb(42, 63, 95); fill-opacity: 1; white-space: pre; opacity: 1;" transform="translate(513.73,0)">200</text></g></g><g class="yaxislayer-above"><g class="ytick"><text text-anchor="end" x="79" y="4.199999999999999" transform="translate(0,420)" style="font-family: 'Open Sans', verdana, arial, sans-serif; font-size: 12px; fill: rgb(42, 63, 95); fill-opacity: 1; white-space: pre; opacity: 1;">0</text></g><g class="ytick"><text text-anchor="end" x="79" y="4.199999999999999" style="font-family: 'Open Sans', verdana, arial, sans-serif; font-size: 12px; fill: rgb(42, 63, 95); fill-opacity: 1; white-space: pre; opacity: 1;" transform="translate(0,355.90999999999997)">50</text></g><g class="ytick"><text text-anchor="end" x="79" y="4.199999999999999" style="font-family: 'Open Sans', verdana, arial, sans-serif; font-size: 12px; fill: rgb(42, 63, 95); fill-opacity: 1; white-space: pre; opacity: 1;" transform="translate(0,291.82)">100</text></g><g class="ytick"><text text-anchor="end" x="79" y="4.199999999999999" style="font-family: 'Open Sans', verdana, arial, sans-serif; font-size: 12px; fill: rgb(42, 63, 95); fill-opacity: 1; white-space: pre; opacity: 1;" transform="translate(0,227.73000000000002)">150</text></g><g class="ytick"><text text-anchor="end" x="79" y="4.199999999999999" style="font-family: 'Open Sans', verdana, arial, sans-serif; font-size: 12px; fill: rgb(42, 63, 95); fill-opacity: 1; white-space: pre; opacity: 1;" transform="translate(0,163.64)">200</text></g></g><g class="overaxes-above"/></g></g><g class="polarlayer"/><g class="ternarylayer"/><g class="geolayer"/><g class="funnelarealayer"/><g class="pielayer"/><g class="iciclelayer"/><g class="treemaplayer"/><g class="sunburstlayer"/><g class="glimages"/><defs id="topdefs-cfc8eb"><g class="clips"/></defs><g class="layer-above"><g class="imagelayer"/><g class="shapelayer"/></g><g class="infolayer"><g class="g-gtitle"><text class="gtitle" x="35" y="50" text-anchor="start" dy="0em" style="font-family: 'Open Sans', verdana, arial, sans-serif; font-size: 17px; fill: rgb(42, 63, 95); opacity: 1; font-weight: normal; white-space: pre;">Average Rank: ascad_50-ascad_mlp_fn (with early stopping)</text></g><g class="g-xtitle"/><g class="g-ytitle"/></g></svg>